solid CATIA STL
  facet normal  0.000000e+000 -1.000000e+000  0.000000e+000
    outer loop
      vertex -3.125000e-002 -5.000000e-001  7.500000e-001
      vertex -2.526316e-001 -5.000000e-001  7.500000e-001
      vertex -3.125000e-002 -5.000000e-001 -4.401074e-017
    endloop
  endfacet
  facet normal  0.000000e+000 -9.999999e-001  0.000000e+000
    outer loop
      vertex -3.125000e-002 -5.000000e-001 -4.401074e-017
      vertex -2.526316e-001 -5.000000e-001  7.500000e-001
      vertex -2.526316e-001 -5.000000e-001  2.526316e-001
    endloop
  endfacet
  facet normal  0.000000e+000 -1.000000e+000  -0.000000e+000
    outer loop
      vertex -3.125000e-002 -5.000000e-001 -4.401074e-017
      vertex -2.526316e-001 -5.000000e-001  2.526316e-001
      vertex -7.500000e-001 -5.000000e-001  0.000000e+000
    endloop
  endfacet
  facet normal  0.000000e+000 -1.000000e+000  0.000000e+000
    outer loop
      vertex -7.500000e-001 -5.000000e-001  0.000000e+000
      vertex -2.526316e-001 -5.000000e-001  2.526316e-001
      vertex -4.973684e-001 -5.000000e-001  2.526316e-001
    endloop
  endfacet
  facet normal  -0.000000e+000 -1.000000e+000  0.000000e+000
    outer loop
      vertex -7.500000e-001 -5.000000e-001  0.000000e+000
      vertex -4.973684e-001 -5.000000e-001  2.526316e-001
      vertex -7.500000e-001 -5.000000e-001  7.500000e-001
    endloop
  endfacet
  facet normal  0.000000e+000 -1.000000e+000  0.000000e+000
    outer loop
      vertex -7.500000e-001 -5.000000e-001  7.500000e-001
      vertex -4.973684e-001 -5.000000e-001  2.526316e-001
      vertex -4.973684e-001 -5.000000e-001  7.500000e-001
    endloop
  endfacet
  facet normal  0.000000e+000  0.000000e+000  1.000000e+000
    outer loop
      vertex -5.266575e-003 -4.861116e-001  7.500000e-001
      vertex -1.929114e-002 -4.976212e-001  7.500000e-001
      vertex -1.388843e-002 -4.947334e-001  7.500000e-001
    endloop
  endfacet
  facet normal  0.000000e+000  0.000000e+000  9.999999e-001
    outer loop
      vertex -5.266575e-003 -4.861116e-001  7.500000e-001
      vertex -1.388843e-002 -4.947334e-001  7.500000e-001
      vertex -9.152913e-003 -4.908471e-001  7.500000e-001
    endloop
  endfacet
  facet normal  0.000000e+000  0.000000e+000  1.000000e+000
    outer loop
      vertex -2.526316e-001  5.521899e-017  7.500000e-001
      vertex -2.526316e-001 -5.000000e-001  7.500000e-001
      vertex -3.125000e-002 -5.000000e-001  7.500000e-001
    endloop
  endfacet
  facet normal  0.000000e+000  -0.000000e+000  9.999999e-001
    outer loop
      vertex -2.526316e-001  5.521899e-017  7.500000e-001
      vertex -3.125000e-002 -5.000000e-001  7.500000e-001
      vertex -2.515343e-002 -4.993995e-001  7.500000e-001
    endloop
  endfacet
  facet normal  0.000000e+000  -0.000000e+000  1.000000e+000
    outer loop
      vertex -2.526316e-001  5.521899e-017  7.500000e-001
      vertex -2.515343e-002 -4.993995e-001  7.500000e-001
      vertex  4.592425e-017  8.326673e-017  7.500000e-001
    endloop
  endfacet
  facet normal  0.000000e+000  -0.000000e+000  1.000000e+000
    outer loop
      vertex -2.515343e-002 -4.993995e-001  7.500000e-001
      vertex -1.929114e-002 -4.976212e-001  7.500000e-001
      vertex -5.266575e-003 -4.861116e-001  7.500000e-001
    endloop
  endfacet
  facet normal  0.000000e+000  -0.000000e+000  1.000000e+000
    outer loop
      vertex -2.515343e-002 -4.993995e-001  7.500000e-001
      vertex -5.266575e-003 -4.861116e-001  7.500000e-001
      vertex -2.378765e-003 -4.807089e-001  7.500000e-001
    endloop
  endfacet
  facet normal  0.000000e+000  -0.000000e+000  1.000000e+000
    outer loop
      vertex -2.515343e-002 -4.993995e-001  7.500000e-001
      vertex -2.378765e-003 -4.807089e-001  7.500000e-001
      vertex -6.004600e-004 -4.748466e-001  7.500000e-001
    endloop
  endfacet
  facet normal  0.000000e+000  -0.000000e+000  1.000000e+000
    outer loop
      vertex -2.515343e-002 -4.993995e-001  7.500000e-001
      vertex -6.004600e-004 -4.748466e-001  7.500000e-001
      vertex  9.796596e-017 -4.687500e-001  7.500000e-001
    endloop
  endfacet
  facet normal  0.000000e+000  0.000000e+000  1.000000e+000
    outer loop
      vertex -2.515343e-002 -4.993995e-001  7.500000e-001
      vertex  9.796596e-017 -4.687500e-001  7.500000e-001
      vertex  4.592425e-017  8.326673e-017  7.500000e-001
    endloop
  endfacet
  facet normal  1.000000e+000  1.110223e-016 -6.123234e-017
    outer loop
      vertex  5.204170e-017 -4.687500e-001 -4.592425e-017
      vertex  0.000000e+000  8.326673e-017 -4.592425e-017
      vertex  9.796596e-017 -4.687500e-001  7.500000e-001
    endloop
  endfacet
  facet normal  1.000000e+000  1.110223e-016 -6.123234e-017
    outer loop
      vertex  9.796596e-017 -4.687500e-001  7.500000e-001
      vertex  0.000000e+000  8.326673e-017 -4.592425e-017
      vertex  4.592425e-017  8.326673e-017  7.500000e-001
    endloop
  endfacet
  facet normal -6.123343e-017  2.791336e-022 -1.000000e+000
    outer loop
      vertex  5.204170e-017 -4.687500e-001 -4.592425e-017
      vertex -6.004600e-004 -4.748466e-001 -4.588749e-017
      vertex -2.378765e-003 -4.807089e-001 -4.577860e-017
    endloop
  endfacet
  facet normal -6.123203e-017 -6.798121e-033 -1.000000e+000
    outer loop
      vertex  0.000000e+000  8.326673e-017 -4.592425e-017
      vertex  5.204170e-017 -4.687500e-001 -4.592425e-017
      vertex -2.378765e-003 -4.807089e-001 -4.577860e-017
    endloop
  endfacet
  facet normal -6.123258e-017  2.736846e-024 -1.000000e+000
    outer loop
      vertex  0.000000e+000  8.326673e-017 -4.592425e-017
      vertex -2.378765e-003 -4.807089e-001 -4.577860e-017
      vertex -5.266575e-003 -4.861116e-001 -4.560177e-017
    endloop
  endfacet
  facet normal -6.123242e-017  1.018489e-024 -1.000000e+000
    outer loop
      vertex  0.000000e+000  8.326673e-017 -4.592425e-017
      vertex -5.266575e-003 -4.861116e-001 -4.560177e-017
      vertex -9.152913e-003 -4.908471e-001 -4.536380e-017
    endloop
  endfacet
  facet normal -6.123229e-017 -1.498134e-024 -1.000000e+000
    outer loop
      vertex  0.000000e+000  8.326673e-017 -4.592425e-017
      vertex -9.152913e-003 -4.908471e-001 -4.536380e-017
      vertex -1.388843e-002 -4.947334e-001 -4.507383e-017
    endloop
  endfacet
  facet normal -6.123207e-017 -7.437158e-024 -1.000000e+000
    outer loop
      vertex  0.000000e+000  8.326673e-017 -4.592425e-017
      vertex -1.388843e-002 -4.947334e-001 -4.507383e-017
      vertex -1.929114e-002 -4.976212e-001 -4.474301e-017
    endloop
  endfacet
  facet normal -6.123208e-017 -7.354396e-024 -1.000000e+000
    outer loop
      vertex  0.000000e+000  8.326673e-017 -4.592425e-017
      vertex -1.929114e-002 -4.976212e-001 -4.474301e-017
      vertex -2.515343e-002 -4.993995e-001 -4.438405e-017
    endloop
  endfacet
  facet normal -6.123276e-017  2.716645e-023 -9.999999e-001
    outer loop
      vertex  0.000000e+000  8.326673e-017 -4.592425e-017
      vertex -2.515343e-002 -4.993995e-001 -4.438405e-017
      vertex -3.125000e-002 -5.000000e-001 -4.401074e-017
    endloop
  endfacet
  facet normal -6.123234e-017  5.754300e-025 -1.000000e+000
    outer loop
      vertex  0.000000e+000  8.326673e-017 -4.592425e-017
      vertex -3.125000e-002 -5.000000e-001 -4.401074e-017
      vertex -7.500000e-001 -5.000000e-001  0.000000e+000
    endloop
  endfacet
  facet normal -6.123234e-017  0.000000e+000 -1.000000e+000
    outer loop
      vertex  0.000000e+000  8.326673e-017 -4.592425e-017
      vertex -7.500000e-001 -5.000000e-001  0.000000e+000
      vertex -7.500000e-001  0.000000e+000  0.000000e+000
    endloop
  endfacet
  facet normal  9.951847e-001 -9.801715e-002 -6.093748e-017
    outer loop
      vertex  5.204170e-017 -4.687500e-001 -4.592425e-017
      vertex  9.796596e-017 -4.687500e-001  7.500000e-001
      vertex -6.004600e-004 -4.748466e-001 -4.588749e-017
    endloop
  endfacet
  facet normal  9.951847e-001 -9.801715e-002  0.000000e+000
    outer loop
      vertex -6.004600e-004 -4.748466e-001 -4.588749e-017
      vertex  9.796596e-017 -4.687500e-001  7.500000e-001
      vertex -6.004600e-004 -4.748466e-001  7.500000e-001
    endloop
  endfacet
  facet normal  9.569405e-001 -2.902842e-001  0.000000e+000
    outer loop
      vertex -6.004600e-004 -4.748466e-001 -4.588749e-017
      vertex -6.004600e-004 -4.748466e-001  7.500000e-001
      vertex -2.378765e-003 -4.807089e-001 -4.577860e-017
    endloop
  endfacet
  facet normal  9.569405e-001 -2.902842e-001  0.000000e+000
    outer loop
      vertex -2.378765e-003 -4.807089e-001 -4.577860e-017
      vertex -6.004600e-004 -4.748466e-001  7.500000e-001
      vertex -2.378765e-003 -4.807089e-001  7.500000e-001
    endloop
  endfacet
  facet normal  8.819213e-001 -4.713967e-001  0.000000e+000
    outer loop
      vertex -2.378765e-003 -4.807089e-001 -4.577860e-017
      vertex -2.378765e-003 -4.807089e-001  7.500000e-001
      vertex -5.266575e-003 -4.861116e-001 -4.560177e-017
    endloop
  endfacet
  facet normal  8.819213e-001 -4.713967e-001  0.000000e+000
    outer loop
      vertex -5.266575e-003 -4.861116e-001 -4.560177e-017
      vertex -2.378765e-003 -4.807089e-001  7.500000e-001
      vertex -5.266575e-003 -4.861116e-001  7.500000e-001
    endloop
  endfacet
  facet normal  7.730092e-001 -6.343947e-001  0.000000e+000
    outer loop
      vertex -5.266575e-003 -4.861116e-001 -4.560177e-017
      vertex -5.266575e-003 -4.861116e-001  7.500000e-001
      vertex -9.152913e-003 -4.908471e-001 -4.536380e-017
    endloop
  endfacet
  facet normal  7.730092e-001 -6.343947e-001  0.000000e+000
    outer loop
      vertex -9.152913e-003 -4.908471e-001 -4.536380e-017
      vertex -5.266575e-003 -4.861116e-001  7.500000e-001
      vertex -9.152913e-003 -4.908471e-001  7.500000e-001
    endloop
  endfacet
  facet normal  6.343937e-001 -7.730101e-001  0.000000e+000
    outer loop
      vertex -9.152913e-003 -4.908471e-001 -4.536380e-017
      vertex -9.152913e-003 -4.908471e-001  7.500000e-001
      vertex -1.388843e-002 -4.947334e-001 -4.507383e-017
    endloop
  endfacet
  facet normal  6.343937e-001 -7.730101e-001  0.000000e+000
    outer loop
      vertex -1.388843e-002 -4.947334e-001 -4.507383e-017
      vertex -9.152913e-003 -4.908471e-001  7.500000e-001
      vertex -1.388843e-002 -4.947334e-001  7.500000e-001
    endloop
  endfacet
  facet normal  4.713974e-001 -8.819209e-001  0.000000e+000
    outer loop
      vertex -1.388843e-002 -4.947334e-001 -4.507383e-017
      vertex -1.388843e-002 -4.947334e-001  7.500000e-001
      vertex -1.929114e-002 -4.976212e-001 -4.474301e-017
    endloop
  endfacet
  facet normal  4.713974e-001 -8.819209e-001  0.000000e+000
    outer loop
      vertex -1.929114e-002 -4.976212e-001 -4.474301e-017
      vertex -1.388843e-002 -4.947334e-001  7.500000e-001
      vertex -1.929114e-002 -4.976212e-001  7.500000e-001
    endloop
  endfacet
  facet normal  2.902846e-001 -9.569404e-001  0.000000e+000
    outer loop
      vertex -1.929114e-002 -4.976212e-001 -4.474301e-017
      vertex -1.929114e-002 -4.976212e-001  7.500000e-001
      vertex -2.515343e-002 -4.993995e-001 -4.438405e-017
    endloop
  endfacet
  facet normal  2.902846e-001 -9.569404e-001  0.000000e+000
    outer loop
      vertex -2.515343e-002 -4.993995e-001 -4.438405e-017
      vertex -1.929114e-002 -4.976212e-001  7.500000e-001
      vertex -2.515343e-002 -4.993995e-001  7.500000e-001
    endloop
  endfacet
  facet normal  9.801669e-002 -9.951847e-001  0.000000e+000
    outer loop
      vertex -2.515343e-002 -4.993995e-001 -4.438405e-017
      vertex -2.515343e-002 -4.993995e-001  7.500000e-001
      vertex -3.125000e-002 -5.000000e-001 -4.401074e-017
    endloop
  endfacet
  facet normal  9.801669e-002 -9.951847e-001  0.000000e+000
    outer loop
      vertex -3.125000e-002 -5.000000e-001 -4.401074e-017
      vertex -2.515343e-002 -4.993995e-001  7.500000e-001
      vertex -3.125000e-002 -5.000000e-001  7.500000e-001
    endloop
  endfacet
  facet normal -1.110223e-016  1.000000e+000  0.000000e+000
    outer loop
      vertex  0.000000e+000  8.326673e-017 -4.592425e-017
      vertex -2.526316e-001  5.521899e-017  7.500000e-001
      vertex  4.592425e-017  8.326673e-017  7.500000e-001
    endloop
  endfacet
  facet normal -1.110223e-016  1.000000e+000  0.000000e+000
    outer loop
      vertex -2.526316e-001  5.521899e-017  7.500000e-001
      vertex  0.000000e+000  8.326673e-017 -4.592425e-017
      vertex -2.526316e-001  5.521899e-017  2.526316e-001
    endloop
  endfacet
  facet normal -1.110223e-016  1.000000e+000  0.000000e+000
    outer loop
      vertex -2.526316e-001  5.521899e-017  2.526316e-001
      vertex  0.000000e+000  8.326673e-017 -4.592425e-017
      vertex -7.500000e-001  0.000000e+000  0.000000e+000
    endloop
  endfacet
  facet normal -1.110223e-016  1.000000e+000  0.000000e+000
    outer loop
      vertex -2.526316e-001  5.521899e-017  2.526316e-001
      vertex -7.500000e-001  0.000000e+000  0.000000e+000
      vertex -4.973684e-001  2.804774e-017  2.526316e-001
    endloop
  endfacet
  facet normal -1.110223e-016  1.000000e+000  0.000000e+000
    outer loop
      vertex -4.973684e-001  2.804774e-017  2.526316e-001
      vertex -7.500000e-001  0.000000e+000  0.000000e+000
      vertex -7.500000e-001  5.098616e-033  7.500000e-001
    endloop
  endfacet
  facet normal -1.110223e-016  1.000000e+000  0.000000e+000
    outer loop
      vertex -4.973684e-001  2.804774e-017  2.526316e-001
      vertex -7.500000e-001  5.098616e-033  7.500000e-001
      vertex -4.973684e-001  2.804774e-017  7.500000e-001
    endloop
  endfacet
  facet normal -1.000000e+000  -0.000000e+000  0.000000e+000
    outer loop
      vertex -7.500000e-001 -5.000000e-001  7.500000e-001
      vertex -7.500000e-001  5.098616e-033  7.500000e-001
      vertex -7.500000e-001 -5.000000e-001  0.000000e+000
    endloop
  endfacet
  facet normal -1.000000e+000  0.000000e+000  0.000000e+000
    outer loop
      vertex -7.500000e-001 -5.000000e-001  0.000000e+000
      vertex -7.500000e-001  5.098616e-033  7.500000e-001
      vertex -7.500000e-001  0.000000e+000  0.000000e+000
    endloop
  endfacet
  facet normal  0.000000e+000  0.000000e+000  1.000000e+000
    outer loop
      vertex -4.973684e-001 -5.000000e-001  7.500000e-001
      vertex -4.973684e-001  2.804774e-017  7.500000e-001
      vertex -7.500000e-001 -5.000000e-001  7.500000e-001
    endloop
  endfacet
  facet normal  0.000000e+000  0.000000e+000  1.000000e+000
    outer loop
      vertex -7.500000e-001 -5.000000e-001  7.500000e-001
      vertex -4.973684e-001  2.804774e-017  7.500000e-001
      vertex -7.500000e-001  5.098616e-033  7.500000e-001
    endloop
  endfacet
  facet normal  1.000000e+000  0.000000e+000  0.000000e+000
    outer loop
      vertex -4.973684e-001  2.804774e-017  2.526316e-001
      vertex -4.973684e-001  2.804774e-017  7.500000e-001
      vertex -4.973684e-001 -5.000000e-001  2.526316e-001
    endloop
  endfacet
  facet normal  1.000000e+000  0.000000e+000  0.000000e+000
    outer loop
      vertex -4.973684e-001 -5.000000e-001  2.526316e-001
      vertex -4.973684e-001  2.804774e-017  7.500000e-001
      vertex -4.973684e-001 -5.000000e-001  7.500000e-001
    endloop
  endfacet
  facet normal  -0.000000e+000  0.000000e+000  1.000000e+000
    outer loop
      vertex -2.526316e-001  5.521899e-017  2.526316e-001
      vertex -4.973684e-001  2.804774e-017  2.526316e-001
      vertex -2.526316e-001 -5.000000e-001  2.526316e-001
    endloop
  endfacet
  facet normal  0.000000e+000  0.000000e+000  1.000000e+000
    outer loop
      vertex -2.526316e-001 -5.000000e-001  2.526316e-001
      vertex -4.973684e-001  2.804774e-017  2.526316e-001
      vertex -4.973684e-001 -5.000000e-001  2.526316e-001
    endloop
  endfacet
  facet normal -1.000000e+000  0.000000e+000  0.000000e+000
    outer loop
      vertex -2.526316e-001  5.521899e-017  7.500000e-001
      vertex -2.526316e-001  5.521899e-017  2.526316e-001
      vertex -2.526316e-001 -5.000000e-001  7.500000e-001
    endloop
  endfacet
  facet normal -1.000000e+000  0.000000e+000  0.000000e+000
    outer loop
      vertex -2.526316e-001 -5.000000e-001  7.500000e-001
      vertex -2.526316e-001  5.521899e-017  2.526316e-001
      vertex -2.526316e-001 -5.000000e-001  2.526316e-001
    endloop
  endfacet
endsolid CATIA STL
