solid CATIA STL
  facet normal  -0.000000e+000  0.000000e+000  1.000000e+000
    outer loop
      vertex  9.868417e-004  4.004934e-002  7.500000e-001
      vertex -6.826397e-003  3.927980e-002  7.500000e-001
      vertex -1.433938e-002  3.700077e-002  7.500000e-001
    endloop
  endfacet
  facet normal  0.000000e+000  0.000000e+000  1.000000e+000
    outer loop
      vertex  8.800081e-003  3.927980e-002  7.500000e-001
      vertex  9.868417e-004  4.004934e-002  7.500000e-001
      vertex -1.433938e-002  3.700077e-002  7.500000e-001
    endloop
  endfacet
  facet normal  0.000000e+000  0.000000e+000  1.000000e+000
    outer loop
      vertex  8.800081e-003  3.927980e-002  7.500000e-001
      vertex -1.433938e-002  3.700077e-002  7.500000e-001
      vertex  1.631306e-002  3.700077e-002  7.500000e-001
    endloop
  endfacet
  facet normal  -0.000000e+000  0.000000e+000  1.000000e+000
    outer loop
      vertex  1.631306e-002  3.700077e-002  7.500000e-001
      vertex -1.433938e-002  3.700077e-002  7.500000e-001
      vertex -2.126338e-002  3.329981e-002  7.500000e-001
    endloop
  endfacet
  facet normal  0.000000e+000  0.000000e+000  1.000000e+000
    outer loop
      vertex  1.631306e-002  3.700077e-002  7.500000e-001
      vertex -2.126338e-002  3.329981e-002  7.500000e-001
      vertex  2.323706e-002  3.329981e-002  7.500000e-001
    endloop
  endfacet
  facet normal  -0.000000e+000  0.000000e+000  9.999999e-001
    outer loop
      vertex  2.323706e-002  3.329981e-002  7.500000e-001
      vertex -2.126338e-002  3.329981e-002  7.500000e-001
      vertex -2.733232e-002  2.831916e-002  7.500000e-001
    endloop
  endfacet
  facet normal  0.000000e+000  0.000000e+000  1.000000e+000
    outer loop
      vertex  2.323706e-002  3.329981e-002  7.500000e-001
      vertex -2.733232e-002  2.831916e-002  7.500000e-001
      vertex  2.930600e-002  2.831916e-002  7.500000e-001
    endloop
  endfacet
  facet normal  -0.000000e+000  0.000000e+000  1.000000e+000
    outer loop
      vertex  2.930600e-002  2.831916e-002  7.500000e-001
      vertex -2.733232e-002  2.831916e-002  7.500000e-001
      vertex -3.231297e-002  2.225022e-002  7.500000e-001
    endloop
  endfacet
  facet normal  0.000000e+000  0.000000e+000  1.000000e+000
    outer loop
      vertex  2.930600e-002  2.831916e-002  7.500000e-001
      vertex -3.231297e-002  2.225022e-002  7.500000e-001
      vertex  3.428665e-002  2.225022e-002  7.500000e-001
    endloop
  endfacet
  facet normal  -0.000000e+000  0.000000e+000  1.000000e+000
    outer loop
      vertex  3.428665e-002  2.225022e-002  7.500000e-001
      vertex -3.231297e-002  2.225022e-002  7.500000e-001
      vertex -3.601393e-002  1.532622e-002  7.500000e-001
    endloop
  endfacet
  facet normal  0.000000e+000  0.000000e+000  1.000000e+000
    outer loop
      vertex  3.428665e-002  2.225022e-002  7.500000e-001
      vertex -3.601393e-002  1.532622e-002  7.500000e-001
      vertex  3.798761e-002  1.532622e-002  7.500000e-001
    endloop
  endfacet
  facet normal  -0.000000e+000  0.000000e+000  1.000000e+000
    outer loop
      vertex  3.798761e-002  1.532622e-002  7.500000e-001
      vertex -3.601393e-002  1.532622e-002  7.500000e-001
      vertex -3.829296e-002  7.813239e-003  7.500000e-001
    endloop
  endfacet
  facet normal  0.000000e+000  0.000000e+000  1.000000e+000
    outer loop
      vertex  3.798761e-002  1.532622e-002  7.500000e-001
      vertex -3.829296e-002  7.813239e-003  7.500000e-001
      vertex  4.026665e-002  7.813239e-003  7.500000e-001
    endloop
  endfacet
  facet normal  0.000000e+000  0.000000e+000  1.000000e+000
    outer loop
      vertex  4.026665e-002 -7.813239e-003  7.500000e-001
      vertex -3.601392e-002 -1.532622e-002  7.500000e-001
      vertex  3.798761e-002 -1.532622e-002  7.500000e-001
    endloop
  endfacet
  facet normal  -0.000000e+000  0.000000e+000  1.000000e+000
    outer loop
      vertex  3.798761e-002 -1.532622e-002  7.500000e-001
      vertex -3.601392e-002 -1.532622e-002  7.500000e-001
      vertex -3.231297e-002 -2.225022e-002  7.500000e-001
    endloop
  endfacet
  facet normal  0.000000e+000  0.000000e+000  9.999999e-001
    outer loop
      vertex  3.798761e-002 -1.532622e-002  7.500000e-001
      vertex -3.231297e-002 -2.225022e-002  7.500000e-001
      vertex  3.428665e-002 -2.225022e-002  7.500000e-001
    endloop
  endfacet
  facet normal  -0.000000e+000  0.000000e+000  1.000000e+000
    outer loop
      vertex  3.428665e-002 -2.225022e-002  7.500000e-001
      vertex -3.231297e-002 -2.225022e-002  7.500000e-001
      vertex -2.733232e-002 -2.831916e-002  7.500000e-001
    endloop
  endfacet
  facet normal  0.000000e+000  0.000000e+000  1.000000e+000
    outer loop
      vertex  3.428665e-002 -2.225022e-002  7.500000e-001
      vertex -2.733232e-002 -2.831916e-002  7.500000e-001
      vertex  2.930600e-002 -2.831916e-002  7.500000e-001
    endloop
  endfacet
  facet normal  -0.000000e+000  0.000000e+000  1.000000e+000
    outer loop
      vertex  2.930600e-002 -2.831916e-002  7.500000e-001
      vertex -2.733232e-002 -2.831916e-002  7.500000e-001
      vertex -2.126338e-002 -3.329981e-002  7.500000e-001
    endloop
  endfacet
  facet normal  0.000000e+000  0.000000e+000  1.000000e+000
    outer loop
      vertex  2.930600e-002 -2.831916e-002  7.500000e-001
      vertex -2.126338e-002 -3.329981e-002  7.500000e-001
      vertex  2.323706e-002 -3.329981e-002  7.500000e-001
    endloop
  endfacet
  facet normal  -0.000000e+000  0.000000e+000  1.000000e+000
    outer loop
      vertex  2.323706e-002 -3.329981e-002  7.500000e-001
      vertex -2.126338e-002 -3.329981e-002  7.500000e-001
      vertex -1.433938e-002 -3.700077e-002  7.500000e-001
    endloop
  endfacet
  facet normal  0.000000e+000  0.000000e+000  1.000000e+000
    outer loop
      vertex  2.323706e-002 -3.329981e-002  7.500000e-001
      vertex -1.433938e-002 -3.700077e-002  7.500000e-001
      vertex  1.631306e-002 -3.700077e-002  7.500000e-001
    endloop
  endfacet
  facet normal  -0.000000e+000  0.000000e+000  1.000000e+000
    outer loop
      vertex  1.631306e-002 -3.700077e-002  7.500000e-001
      vertex -1.433938e-002 -3.700077e-002  7.500000e-001
      vertex -6.826395e-003 -3.927981e-002  7.500000e-001
    endloop
  endfacet
  facet normal  -0.000000e+000  0.000000e+000  1.000000e+000
    outer loop
      vertex  1.631306e-002 -3.700077e-002  7.500000e-001
      vertex -6.826395e-003 -3.927981e-002  7.500000e-001
      vertex  9.868436e-004 -4.004934e-002  7.500000e-001
    endloop
  endfacet
  facet normal  0.000000e+000  0.000000e+000  1.000000e+000
    outer loop
      vertex  1.631306e-002 -3.700077e-002  7.500000e-001
      vertex  9.868436e-004 -4.004934e-002  7.500000e-001
      vertex  8.800083e-003 -3.927980e-002  7.500000e-001
    endloop
  endfacet
  facet normal  -0.000000e+000  0.000000e+000  1.000000e+000
    outer loop
      vertex  4.026665e-002  7.813239e-003  7.500000e-001
      vertex -3.829296e-002  7.813239e-003  7.500000e-001
      vertex  4.103618e-002  2.804330e-018  7.500000e-001
    endloop
  endfacet
  facet normal  0.000000e+000  0.000000e+000  1.000000e+000
    outer loop
      vertex  4.103618e-002  2.804330e-018  7.500000e-001
      vertex -3.829296e-002  7.813239e-003  7.500000e-001
      vertex -3.906250e-002 -7.385623e-010  7.500000e-001
    endloop
  endfacet
  facet normal  -0.000000e+000  0.000000e+000  1.000000e+000
    outer loop
      vertex  4.103618e-002  2.804330e-018  7.500000e-001
      vertex -3.906250e-002 -7.385623e-010  7.500000e-001
      vertex  4.026665e-002 -7.813239e-003  7.500000e-001
    endloop
  endfacet
  facet normal  0.000000e+000  0.000000e+000  1.000000e+000
    outer loop
      vertex  4.026665e-002 -7.813239e-003  7.500000e-001
      vertex -3.906250e-002 -7.385623e-010  7.500000e-001
      vertex -3.829296e-002 -7.813242e-003  7.500000e-001
    endloop
  endfacet
  facet normal  -0.000000e+000  0.000000e+000  1.000000e+000
    outer loop
      vertex  4.026665e-002 -7.813239e-003  7.500000e-001
      vertex -3.829296e-002 -7.813242e-003  7.500000e-001
      vertex -3.601392e-002 -1.532622e-002  7.500000e-001
    endloop
  endfacet
  facet normal  9.951847e-001 -9.801708e-002 -3.385000e-018
    outer loop
      vertex  9.572368e-002  0.000000e+000  0.000000e+000
      vertex  9.572368e-002 -2.320307e-017  6.718750e-001
      vertex  9.390334e-002 -1.848224e-002  0.000000e+000
    endloop
  endfacet
  facet normal  9.951847e-001 -9.801708e-002  0.000000e+000
    outer loop
      vertex  9.390334e-002 -1.848224e-002  0.000000e+000
      vertex  9.572368e-002 -2.320307e-017  6.718750e-001
      vertex  9.390334e-002 -1.848224e-002  6.718750e-001
    endloop
  endfacet
  facet normal  9.569403e-001 -2.902846e-001  0.000000e+000
    outer loop
      vertex  9.390334e-002 -1.848224e-002  0.000000e+000
      vertex  9.390334e-002 -1.848224e-002  6.718750e-001
      vertex  8.851227e-002 -3.625422e-002  0.000000e+000
    endloop
  endfacet
  facet normal  9.569403e-001 -2.902846e-001  0.000000e+000
    outer loop
      vertex  8.851227e-002 -3.625422e-002  0.000000e+000
      vertex  9.390334e-002 -1.848224e-002  6.718750e-001
      vertex  8.851227e-002 -3.625422e-002  6.718750e-001
    endloop
  endfacet
  facet normal  8.819212e-001 -4.713968e-001  0.000000e+000
    outer loop
      vertex  8.851227e-002 -3.625422e-002  0.000000e+000
      vertex  8.851227e-002 -3.625422e-002  6.718750e-001
      vertex  7.975765e-002 -5.263297e-002  0.000000e+000
    endloop
  endfacet
  facet normal  8.819212e-001 -4.713968e-001  0.000000e+000
    outer loop
      vertex  7.975765e-002 -5.263297e-002  0.000000e+000
      vertex  8.851227e-002 -3.625422e-002  6.718750e-001
      vertex  7.975765e-002 -5.263297e-002  6.718750e-001
    endloop
  endfacet
  facet normal  7.730106e-001 -6.343930e-001  0.000000e+000
    outer loop
      vertex  7.975765e-002 -5.263297e-002  0.000000e+000
      vertex  7.975765e-002 -5.263297e-002  6.718750e-001
      vertex  6.797591e-002 -6.698906e-002  0.000000e+000
    endloop
  endfacet
  facet normal  7.730106e-001 -6.343930e-001  0.000000e+000
    outer loop
      vertex  6.797591e-002 -6.698906e-002  0.000000e+000
      vertex  7.975765e-002 -5.263297e-002  6.718750e-001
      vertex  6.797591e-002 -6.698906e-002  6.718750e-001
    endloop
  endfacet
  facet normal  6.343934e-001 -7.730104e-001  0.000000e+000
    outer loop
      vertex  6.797591e-002 -6.698906e-002  0.000000e+000
      vertex  6.797591e-002 -6.698906e-002  6.718750e-001
      vertex  5.361981e-002 -7.877081e-002  0.000000e+000
    endloop
  endfacet
  facet normal  6.343934e-001 -7.730104e-001  0.000000e+000
    outer loop
      vertex  5.361981e-002 -7.877081e-002  0.000000e+000
      vertex  6.797591e-002 -6.698906e-002  6.718750e-001
      vertex  5.361981e-002 -7.877081e-002  6.718750e-001
    endloop
  endfacet
  facet normal  4.713964e-001 -8.819215e-001  0.000000e+000
    outer loop
      vertex  5.361981e-002 -7.877081e-002  0.000000e+000
      vertex  5.361981e-002 -7.877081e-002  6.718750e-001
      vertex  3.724106e-002 -8.752543e-002  0.000000e+000
    endloop
  endfacet
  facet normal  4.713964e-001 -8.819215e-001  0.000000e+000
    outer loop
      vertex  3.724106e-002 -8.752543e-002  0.000000e+000
      vertex  5.361981e-002 -7.877081e-002  6.718750e-001
      vertex  3.724106e-002 -8.752543e-002  6.718750e-001
    endloop
  endfacet
  facet normal  2.902850e-001 -9.569403e-001  0.000000e+000
    outer loop
      vertex  3.724106e-002 -8.752543e-002  0.000000e+000
      vertex  3.724106e-002 -8.752543e-002  6.718750e-001
      vertex  1.946908e-002 -9.291650e-002  0.000000e+000
    endloop
  endfacet
  facet normal  2.902850e-001 -9.569403e-001  0.000000e+000
    outer loop
      vertex  1.946908e-002 -9.291650e-002  0.000000e+000
      vertex  3.724106e-002 -8.752543e-002  6.718750e-001
      vertex  1.946908e-002 -9.291650e-002  6.718750e-001
    endloop
  endfacet
  facet normal  9.801709e-002 -9.951847e-001  0.000000e+000
    outer loop
      vertex  1.946908e-002 -9.291650e-002  0.000000e+000
      vertex  1.946908e-002 -9.291650e-002  6.718750e-001
      vertex  9.868421e-004 -9.473684e-002  0.000000e+000
    endloop
  endfacet
  facet normal  9.801709e-002 -9.951847e-001  0.000000e+000
    outer loop
      vertex  9.868421e-004 -9.473684e-002  0.000000e+000
      vertex  1.946908e-002 -9.291650e-002  6.718750e-001
      vertex  9.868421e-004 -9.473684e-002  6.718750e-001
    endloop
  endfacet
  facet normal -9.801708e-002 -9.951847e-001  -0.000000e+000
    outer loop
      vertex  9.868421e-004 -9.473684e-002  0.000000e+000
      vertex  9.868421e-004 -9.473684e-002  6.718750e-001
      vertex -1.749540e-002 -9.291650e-002  0.000000e+000
    endloop
  endfacet
  facet normal -9.801708e-002 -9.951847e-001  0.000000e+000
    outer loop
      vertex -1.749540e-002 -9.291650e-002  0.000000e+000
      vertex  9.868421e-004 -9.473684e-002  6.718750e-001
      vertex -1.749540e-002 -9.291650e-002  6.718750e-001
    endloop
  endfacet
  facet normal -2.902849e-001 -9.569403e-001  -0.000000e+000
    outer loop
      vertex -1.749540e-002 -9.291650e-002  0.000000e+000
      vertex -1.749540e-002 -9.291650e-002  6.718750e-001
      vertex -3.526738e-002 -8.752543e-002  0.000000e+000
    endloop
  endfacet
  facet normal -2.902849e-001 -9.569403e-001  0.000000e+000
    outer loop
      vertex -3.526738e-002 -8.752543e-002  0.000000e+000
      vertex -1.749540e-002 -9.291650e-002  6.718750e-001
      vertex -3.526738e-002 -8.752543e-002  6.718750e-001
    endloop
  endfacet
  facet normal -4.713965e-001 -8.819213e-001  -0.000000e+000
    outer loop
      vertex -3.526738e-002 -8.752543e-002  0.000000e+000
      vertex -3.526738e-002 -8.752543e-002  6.718750e-001
      vertex -5.164613e-002 -7.877081e-002  0.000000e+000
    endloop
  endfacet
  facet normal -4.713965e-001 -8.819213e-001  0.000000e+000
    outer loop
      vertex -5.164613e-002 -7.877081e-002  0.000000e+000
      vertex -3.526738e-002 -8.752543e-002  6.718750e-001
      vertex -5.164613e-002 -7.877081e-002  6.718750e-001
    endloop
  endfacet
  facet normal -6.343935e-001 -7.730103e-001  -0.000000e+000
    outer loop
      vertex -5.164613e-002 -7.877081e-002  0.000000e+000
      vertex -5.164613e-002 -7.877081e-002  6.718750e-001
      vertex -6.600222e-002 -6.698906e-002  0.000000e+000
    endloop
  endfacet
  facet normal -6.343935e-001 -7.730103e-001  0.000000e+000
    outer loop
      vertex -6.600222e-002 -6.698906e-002  0.000000e+000
      vertex -5.164613e-002 -7.877081e-002  6.718750e-001
      vertex -6.600222e-002 -6.698906e-002  6.718750e-001
    endloop
  endfacet
  facet normal -7.730104e-001 -6.343934e-001  -0.000000e+000
    outer loop
      vertex -6.600222e-002 -6.698906e-002  0.000000e+000
      vertex -6.600222e-002 -6.698906e-002  6.718750e-001
      vertex -7.778396e-002 -5.263297e-002  0.000000e+000
    endloop
  endfacet
  facet normal -7.730104e-001 -6.343934e-001  0.000000e+000
    outer loop
      vertex -7.778396e-002 -5.263297e-002  0.000000e+000
      vertex -6.600222e-002 -6.698906e-002  6.718750e-001
      vertex -7.778396e-002 -5.263297e-002  6.718750e-001
    endloop
  endfacet
  facet normal -8.819212e-001 -4.713968e-001  -0.000000e+000
    outer loop
      vertex -7.778396e-002 -5.263297e-002  0.000000e+000
      vertex -7.778396e-002 -5.263297e-002  6.718750e-001
      vertex -8.653859e-002 -3.625422e-002  0.000000e+000
    endloop
  endfacet
  facet normal -8.819212e-001 -4.713968e-001  0.000000e+000
    outer loop
      vertex -8.653859e-002 -3.625422e-002  0.000000e+000
      vertex -7.778396e-002 -5.263297e-002  6.718750e-001
      vertex -8.653859e-002 -3.625422e-002  6.718750e-001
    endloop
  endfacet
  facet normal -9.569403e-001 -2.902846e-001  -0.000000e+000
    outer loop
      vertex -8.653859e-002 -3.625422e-002  0.000000e+000
      vertex -8.653859e-002 -3.625422e-002  6.718750e-001
      vertex -9.192966e-002 -1.848224e-002  0.000000e+000
    endloop
  endfacet
  facet normal -9.569403e-001 -2.902846e-001  0.000000e+000
    outer loop
      vertex -9.192966e-002 -1.848224e-002  0.000000e+000
      vertex -8.653859e-002 -3.625422e-002  6.718750e-001
      vertex -9.192966e-002 -1.848224e-002  6.718750e-001
    endloop
  endfacet
  facet normal -9.951847e-001 -9.801708e-002  -0.000000e+000
    outer loop
      vertex -9.192966e-002 -1.848224e-002  0.000000e+000
      vertex -9.192966e-002 -1.848224e-002  6.718750e-001
      vertex -9.375000e-002  1.160153e-017  0.000000e+000
    endloop
  endfacet
  facet normal -9.951847e-001 -9.801708e-002  0.000000e+000
    outer loop
      vertex -9.375000e-002  1.160153e-017  0.000000e+000
      vertex -9.192966e-002 -1.848224e-002  6.718750e-001
      vertex -9.375000e-002  1.160153e-017  6.718750e-001
    endloop
  endfacet
  facet normal -9.951847e-001  9.801708e-002  0.000000e+000
    outer loop
      vertex -9.375000e-002  1.160153e-017  0.000000e+000
      vertex -9.375000e-002  1.160153e-017  6.718750e-001
      vertex -9.192966e-002  1.848224e-002  0.000000e+000
    endloop
  endfacet
  facet normal -9.951847e-001  9.801708e-002  0.000000e+000
    outer loop
      vertex -9.192966e-002  1.848224e-002  0.000000e+000
      vertex -9.375000e-002  1.160153e-017  6.718750e-001
      vertex -9.192966e-002  1.848224e-002  6.718750e-001
    endloop
  endfacet
  facet normal -9.569403e-001  2.902846e-001  0.000000e+000
    outer loop
      vertex -9.192966e-002  1.848224e-002  0.000000e+000
      vertex -9.192966e-002  1.848224e-002  6.718750e-001
      vertex -8.653859e-002  3.625422e-002  0.000000e+000
    endloop
  endfacet
  facet normal -9.569403e-001  2.902846e-001  0.000000e+000
    outer loop
      vertex -8.653859e-002  3.625422e-002  0.000000e+000
      vertex -9.192966e-002  1.848224e-002  6.718750e-001
      vertex -8.653859e-002  3.625422e-002  6.718750e-001
    endloop
  endfacet
  facet normal -8.819212e-001  4.713968e-001  0.000000e+000
    outer loop
      vertex -8.653859e-002  3.625422e-002  0.000000e+000
      vertex -8.653859e-002  3.625422e-002  6.718750e-001
      vertex -7.778396e-002  5.263297e-002  0.000000e+000
    endloop
  endfacet
  facet normal -8.819212e-001  4.713968e-001  0.000000e+000
    outer loop
      vertex -7.778396e-002  5.263297e-002  0.000000e+000
      vertex -8.653859e-002  3.625422e-002  6.718750e-001
      vertex -7.778396e-002  5.263297e-002  6.718750e-001
    endloop
  endfacet
  facet normal -7.730104e-001  6.343934e-001  0.000000e+000
    outer loop
      vertex -7.778396e-002  5.263297e-002  0.000000e+000
      vertex -7.778396e-002  5.263297e-002  6.718750e-001
      vertex -6.600222e-002  6.698906e-002  0.000000e+000
    endloop
  endfacet
  facet normal -7.730104e-001  6.343934e-001  0.000000e+000
    outer loop
      vertex -6.600222e-002  6.698906e-002  0.000000e+000
      vertex -7.778396e-002  5.263297e-002  6.718750e-001
      vertex -6.600222e-002  6.698906e-002  6.718750e-001
    endloop
  endfacet
  facet normal -6.343935e-001  7.730103e-001  0.000000e+000
    outer loop
      vertex -6.600222e-002  6.698906e-002  0.000000e+000
      vertex -6.600222e-002  6.698906e-002  6.718750e-001
      vertex -5.164613e-002  7.877081e-002  0.000000e+000
    endloop
  endfacet
  facet normal -6.343935e-001  7.730103e-001  0.000000e+000
    outer loop
      vertex -5.164613e-002  7.877081e-002  0.000000e+000
      vertex -6.600222e-002  6.698906e-002  6.718750e-001
      vertex -5.164613e-002  7.877081e-002  6.718750e-001
    endloop
  endfacet
  facet normal -4.713965e-001  8.819213e-001  0.000000e+000
    outer loop
      vertex -5.164613e-002  7.877081e-002  0.000000e+000
      vertex -5.164613e-002  7.877081e-002  6.718750e-001
      vertex -3.526738e-002  8.752543e-002  0.000000e+000
    endloop
  endfacet
  facet normal -4.713965e-001  8.819213e-001  0.000000e+000
    outer loop
      vertex -3.526738e-002  8.752543e-002  0.000000e+000
      vertex -5.164613e-002  7.877081e-002  6.718750e-001
      vertex -3.526738e-002  8.752543e-002  6.718750e-001
    endloop
  endfacet
  facet normal -2.902849e-001  9.569403e-001  0.000000e+000
    outer loop
      vertex -3.526738e-002  8.752543e-002  0.000000e+000
      vertex -3.526738e-002  8.752543e-002  6.718750e-001
      vertex -1.749540e-002  9.291650e-002  0.000000e+000
    endloop
  endfacet
  facet normal -2.902849e-001  9.569403e-001  0.000000e+000
    outer loop
      vertex -1.749540e-002  9.291650e-002  0.000000e+000
      vertex -3.526738e-002  8.752543e-002  6.718750e-001
      vertex -1.749540e-002  9.291650e-002  6.718750e-001
    endloop
  endfacet
  facet normal -9.801708e-002  9.951847e-001  0.000000e+000
    outer loop
      vertex -1.749540e-002  9.291650e-002  0.000000e+000
      vertex -1.749540e-002  9.291650e-002  6.718750e-001
      vertex  9.868421e-004  9.473684e-002  0.000000e+000
    endloop
  endfacet
  facet normal -9.801708e-002  9.951847e-001  0.000000e+000
    outer loop
      vertex  9.868421e-004  9.473684e-002  0.000000e+000
      vertex -1.749540e-002  9.291650e-002  6.718750e-001
      vertex  9.868421e-004  9.473684e-002  6.718750e-001
    endloop
  endfacet
  facet normal  9.801709e-002  9.951847e-001  0.000000e+000
    outer loop
      vertex  9.868421e-004  9.473684e-002  0.000000e+000
      vertex  9.868421e-004  9.473684e-002  6.718750e-001
      vertex  1.946908e-002  9.291650e-002  0.000000e+000
    endloop
  endfacet
  facet normal  9.801709e-002  9.951847e-001  -0.000000e+000
    outer loop
      vertex  1.946908e-002  9.291650e-002  0.000000e+000
      vertex  9.868421e-004  9.473684e-002  6.718750e-001
      vertex  1.946908e-002  9.291650e-002  6.718750e-001
    endloop
  endfacet
  facet normal  2.902850e-001  9.569403e-001  0.000000e+000
    outer loop
      vertex  1.946908e-002  9.291650e-002  0.000000e+000
      vertex  1.946908e-002  9.291650e-002  6.718750e-001
      vertex  3.724106e-002  8.752543e-002  0.000000e+000
    endloop
  endfacet
  facet normal  2.902850e-001  9.569403e-001  -0.000000e+000
    outer loop
      vertex  3.724106e-002  8.752543e-002  0.000000e+000
      vertex  1.946908e-002  9.291650e-002  6.718750e-001
      vertex  3.724106e-002  8.752543e-002  6.718750e-001
    endloop
  endfacet
  facet normal  4.713964e-001  8.819215e-001  0.000000e+000
    outer loop
      vertex  3.724106e-002  8.752543e-002  0.000000e+000
      vertex  3.724106e-002  8.752543e-002  6.718750e-001
      vertex  5.361981e-002  7.877081e-002  0.000000e+000
    endloop
  endfacet
  facet normal  4.713964e-001  8.819215e-001  -0.000000e+000
    outer loop
      vertex  5.361981e-002  7.877081e-002  0.000000e+000
      vertex  3.724106e-002  8.752543e-002  6.718750e-001
      vertex  5.361981e-002  7.877081e-002  6.718750e-001
    endloop
  endfacet
  facet normal  6.343934e-001  7.730104e-001  0.000000e+000
    outer loop
      vertex  5.361981e-002  7.877081e-002  0.000000e+000
      vertex  5.361981e-002  7.877081e-002  6.718750e-001
      vertex  6.797591e-002  6.698906e-002  0.000000e+000
    endloop
  endfacet
  facet normal  6.343934e-001  7.730104e-001  -0.000000e+000
    outer loop
      vertex  6.797591e-002  6.698906e-002  0.000000e+000
      vertex  5.361981e-002  7.877081e-002  6.718750e-001
      vertex  6.797591e-002  6.698906e-002  6.718750e-001
    endloop
  endfacet
  facet normal  7.730106e-001  6.343930e-001  0.000000e+000
    outer loop
      vertex  6.797591e-002  6.698906e-002  0.000000e+000
      vertex  6.797591e-002  6.698906e-002  6.718750e-001
      vertex  7.975765e-002  5.263297e-002  0.000000e+000
    endloop
  endfacet
  facet normal  7.730106e-001  6.343930e-001  -0.000000e+000
    outer loop
      vertex  7.975765e-002  5.263297e-002  0.000000e+000
      vertex  6.797591e-002  6.698906e-002  6.718750e-001
      vertex  7.975765e-002  5.263297e-002  6.718750e-001
    endloop
  endfacet
  facet normal  8.819212e-001  4.713968e-001  0.000000e+000
    outer loop
      vertex  7.975765e-002  5.263297e-002  0.000000e+000
      vertex  7.975765e-002  5.263297e-002  6.718750e-001
      vertex  8.851227e-002  3.625422e-002  0.000000e+000
    endloop
  endfacet
  facet normal  8.819212e-001  4.713968e-001  -0.000000e+000
    outer loop
      vertex  8.851227e-002  3.625422e-002  0.000000e+000
      vertex  7.975765e-002  5.263297e-002  6.718750e-001
      vertex  8.851227e-002  3.625422e-002  6.718750e-001
    endloop
  endfacet
  facet normal  9.569403e-001  2.902846e-001  0.000000e+000
    outer loop
      vertex  8.851227e-002  3.625422e-002  0.000000e+000
      vertex  8.851227e-002  3.625422e-002  6.718750e-001
      vertex  9.390334e-002  1.848224e-002  0.000000e+000
    endloop
  endfacet
  facet normal  9.569403e-001  2.902846e-001  -0.000000e+000
    outer loop
      vertex  9.390334e-002  1.848224e-002  0.000000e+000
      vertex  8.851227e-002  3.625422e-002  6.718750e-001
      vertex  9.390334e-002  1.848224e-002  6.718750e-001
    endloop
  endfacet
  facet normal  9.951847e-001  9.801708e-002  0.000000e+000
    outer loop
      vertex  9.390334e-002  1.848224e-002  0.000000e+000
      vertex  9.390334e-002  1.848224e-002  6.718750e-001
      vertex  9.572368e-002  0.000000e+000  0.000000e+000
    endloop
  endfacet
  facet normal  9.951847e-001  9.801708e-002  3.385000e-018
    outer loop
      vertex  9.572368e-002  0.000000e+000  0.000000e+000
      vertex  9.390334e-002  1.848224e-002  6.718750e-001
      vertex  9.572368e-002 -2.320307e-017  6.718750e-001
    endloop
  endfacet
  facet normal -8.165781e-001  8.042593e-002  5.716047e-001
    outer loop
      vertex -3.906250e-002 -7.385623e-010  7.500000e-001
      vertex -3.829296e-002  7.813239e-003  7.500000e-001
      vertex -9.375000e-002  1.160153e-017  6.718750e-001
    endloop
  endfacet
  facet normal -8.165780e-001  8.042587e-002  5.716047e-001
    outer loop
      vertex -3.829296e-002  7.813239e-003  7.500000e-001
      vertex -9.192966e-002  1.848224e-002  6.718750e-001
      vertex -9.375000e-002  1.160153e-017  6.718750e-001
    endloop
  endfacet
  facet normal  8.165780e-001  8.042587e-002  5.716046e-001
    outer loop
      vertex  9.572368e-002 -2.320307e-017  6.718750e-001
      vertex  9.390334e-002  1.848224e-002  6.718750e-001
      vertex  4.103618e-002  2.804330e-018  7.500000e-001
    endloop
  endfacet
  facet normal  8.165781e-001  8.042593e-002  5.716047e-001
    outer loop
      vertex  9.390334e-002  1.848224e-002  6.718750e-001
      vertex  4.026665e-002  7.813239e-003  7.500000e-001
      vertex  4.103618e-002  2.804330e-018  7.500000e-001
    endloop
  endfacet
  facet normal  7.851974e-001  2.381870e-001  5.716047e-001
    outer loop
      vertex  9.390334e-002  1.848224e-002  6.718750e-001
      vertex  8.851227e-002  3.625422e-002  6.718750e-001
      vertex  3.798761e-002  1.532622e-002  7.500000e-001
    endloop
  endfacet
  facet normal  7.851974e-001  2.381872e-001  5.716047e-001
    outer loop
      vertex  4.026665e-002  7.813239e-003  7.500000e-001
      vertex  9.390334e-002  1.848224e-002  6.718750e-001
      vertex  3.798761e-002  1.532622e-002  7.500000e-001
    endloop
  endfacet
  facet normal  7.236421e-001  3.867948e-001  5.716047e-001
    outer loop
      vertex  8.851227e-002  3.625422e-002  6.718750e-001
      vertex  7.975765e-002  5.263297e-002  6.718750e-001
      vertex  3.428665e-002  2.225022e-002  7.500000e-001
    endloop
  endfacet
  facet normal  7.236421e-001  3.867948e-001  5.716047e-001
    outer loop
      vertex  3.798761e-002  1.532622e-002  7.500000e-001
      vertex  8.851227e-002  3.625422e-002  6.718750e-001
      vertex  3.428665e-002  2.225022e-002  7.500000e-001
    endloop
  endfacet
  facet normal  6.342777e-001  5.205380e-001  5.716047e-001
    outer loop
      vertex  7.975765e-002  5.263297e-002  6.718750e-001
      vertex  6.797591e-002  6.698906e-002  6.718750e-001
      vertex  2.930600e-002  2.831916e-002  7.500000e-001
    endloop
  endfacet
  facet normal  6.342776e-001  5.205382e-001  5.716047e-001
    outer loop
      vertex  3.428665e-002  2.225022e-002  7.500000e-001
      vertex  7.975765e-002  5.263297e-002  6.718750e-001
      vertex  2.930600e-002  2.831916e-002  7.500000e-001
    endloop
  endfacet
  facet normal  3.867945e-001  7.236422e-001  5.716047e-001
    outer loop
      vertex  5.361981e-002  7.877081e-002  6.718750e-001
      vertex  3.724106e-002  8.752543e-002  6.718750e-001
      vertex  2.323706e-002  3.329981e-002  7.500000e-001
    endloop
  endfacet
  facet normal  5.205382e-001  6.342775e-001  5.716047e-001
    outer loop
      vertex  2.323706e-002  3.329981e-002  7.500000e-001
      vertex  6.797591e-002  6.698906e-002  6.718750e-001
      vertex  5.361981e-002  7.877081e-002  6.718750e-001
    endloop
  endfacet
  facet normal  5.205383e-001  6.342775e-001  5.716047e-001
    outer loop
      vertex  2.930600e-002  2.831916e-002  7.500000e-001
      vertex  6.797591e-002  6.698906e-002  6.718750e-001
      vertex  2.323706e-002  3.329981e-002  7.500000e-001
    endloop
  endfacet
  facet normal  2.381873e-001  7.851973e-001  5.716047e-001
    outer loop
      vertex  3.724106e-002  8.752543e-002  6.718750e-001
      vertex  1.946908e-002  9.291650e-002  6.718750e-001
      vertex  8.800081e-003  3.927980e-002  7.500000e-001
    endloop
  endfacet
  facet normal  2.381869e-001  7.851975e-001  5.716047e-001
    outer loop
      vertex  1.631306e-002  3.700077e-002  7.500000e-001
      vertex  3.724106e-002  8.752543e-002  6.718750e-001
      vertex  8.800081e-003  3.927980e-002  7.500000e-001
    endloop
  endfacet
  facet normal  3.867947e-001  7.236421e-001  5.716046e-001
    outer loop
      vertex  2.323706e-002  3.329981e-002  7.500000e-001
      vertex  3.724106e-002  8.752543e-002  6.718750e-001
      vertex  1.631306e-002  3.700077e-002  7.500000e-001
    endloop
  endfacet
  facet normal  8.042588e-002  8.165781e-001  5.716047e-001
    outer loop
      vertex  1.946908e-002  9.291650e-002  6.718750e-001
      vertex  9.868421e-004  9.473684e-002  6.718750e-001
      vertex  9.868417e-004  4.004934e-002  7.500000e-001
    endloop
  endfacet
  facet normal  8.042593e-002  8.165780e-001  5.716047e-001
    outer loop
      vertex  8.800081e-003  3.927980e-002  7.500000e-001
      vertex  1.946908e-002  9.291650e-002  6.718750e-001
      vertex  9.868417e-004  4.004934e-002  7.500000e-001
    endloop
  endfacet
  facet normal -8.042587e-002  8.165780e-001  5.716047e-001
    outer loop
      vertex  9.868421e-004  9.473684e-002  6.718750e-001
      vertex -1.749540e-002  9.291650e-002  6.718750e-001
      vertex -6.826397e-003  3.927980e-002  7.500000e-001
    endloop
  endfacet
  facet normal -8.042593e-002  8.165781e-001  5.716047e-001
    outer loop
      vertex  9.868417e-004  4.004934e-002  7.500000e-001
      vertex  9.868421e-004  9.473684e-002  6.718750e-001
      vertex -6.826397e-003  3.927980e-002  7.500000e-001
    endloop
  endfacet
  facet normal -3.867946e-001  7.236422e-001  5.716047e-001
    outer loop
      vertex -3.526738e-002  8.752543e-002  6.718750e-001
      vertex -5.164613e-002  7.877081e-002  6.718750e-001
      vertex -1.433938e-002  3.700077e-002  7.500000e-001
    endloop
  endfacet
  facet normal -2.381872e-001  7.851974e-001  5.716046e-001
    outer loop
      vertex -1.433938e-002  3.700077e-002  7.500000e-001
      vertex -1.749540e-002  9.291650e-002  6.718750e-001
      vertex -3.526738e-002  8.752543e-002  6.718750e-001
    endloop
  endfacet
  facet normal -2.381868e-001  7.851974e-001  5.716047e-001
    outer loop
      vertex -6.826397e-003  3.927980e-002  7.500000e-001
      vertex -1.749540e-002  9.291650e-002  6.718750e-001
      vertex -1.433938e-002  3.700077e-002  7.500000e-001
    endloop
  endfacet
  facet normal -5.205383e-001  6.342775e-001  5.716046e-001
    outer loop
      vertex -5.164613e-002  7.877081e-002  6.718750e-001
      vertex -6.600222e-002  6.698906e-002  6.718750e-001
      vertex -2.733232e-002  2.831916e-002  7.500000e-001
    endloop
  endfacet
  facet normal -5.205383e-001  6.342775e-001  5.716047e-001
    outer loop
      vertex -2.126338e-002  3.329981e-002  7.500000e-001
      vertex -5.164613e-002  7.877081e-002  6.718750e-001
      vertex -2.733232e-002  2.831916e-002  7.500000e-001
    endloop
  endfacet
  facet normal -3.867948e-001  7.236421e-001  5.716047e-001
    outer loop
      vertex -1.433938e-002  3.700077e-002  7.500000e-001
      vertex -5.164613e-002  7.877081e-002  6.718750e-001
      vertex -2.126338e-002  3.329981e-002  7.500000e-001
    endloop
  endfacet
  facet normal -6.342775e-001  5.205382e-001  5.716047e-001
    outer loop
      vertex -6.600222e-002  6.698906e-002  6.718750e-001
      vertex -7.778396e-002  5.263297e-002  6.718750e-001
      vertex -3.231297e-002  2.225022e-002  7.500000e-001
    endloop
  endfacet
  facet normal -6.342778e-001  5.205382e-001  5.716047e-001
    outer loop
      vertex -2.733232e-002  2.831916e-002  7.500000e-001
      vertex -6.600222e-002  6.698906e-002  6.718750e-001
      vertex -3.231297e-002  2.225022e-002  7.500000e-001
    endloop
  endfacet
  facet normal -7.236421e-001  3.867948e-001  5.716047e-001
    outer loop
      vertex -7.778396e-002  5.263297e-002  6.718750e-001
      vertex -8.653859e-002  3.625422e-002  6.718750e-001
      vertex -3.601393e-002  1.532622e-002  7.500000e-001
    endloop
  endfacet
  facet normal -7.236421e-001  3.867948e-001  5.716047e-001
    outer loop
      vertex -3.231297e-002  2.225022e-002  7.500000e-001
      vertex -7.778396e-002  5.263297e-002  6.718750e-001
      vertex -3.601393e-002  1.532622e-002  7.500000e-001
    endloop
  endfacet
  facet normal -7.851974e-001  2.381870e-001  5.716047e-001
    outer loop
      vertex -3.829296e-002  7.813239e-003  7.500000e-001
      vertex -8.653859e-002  3.625422e-002  6.718750e-001
      vertex -9.192966e-002  1.848224e-002  6.718750e-001
    endloop
  endfacet
  facet normal -7.851974e-001  2.381868e-001  5.716047e-001
    outer loop
      vertex -3.601393e-002  1.532622e-002  7.500000e-001
      vertex -8.653859e-002  3.625422e-002  6.718750e-001
      vertex -3.829296e-002  7.813239e-003  7.500000e-001
    endloop
  endfacet
  facet normal  8.165781e-001 -8.042593e-002  5.716047e-001
    outer loop
      vertex  4.103618e-002  2.804330e-018  7.500000e-001
      vertex  4.026665e-002 -7.813239e-003  7.500000e-001
      vertex  9.572368e-002 -2.320307e-017  6.718750e-001
    endloop
  endfacet
  facet normal  8.165780e-001 -8.042587e-002  5.716046e-001
    outer loop
      vertex  4.026665e-002 -7.813239e-003  7.500000e-001
      vertex  9.390334e-002 -1.848224e-002  6.718750e-001
      vertex  9.572368e-002 -2.320307e-017  6.718750e-001
    endloop
  endfacet
  facet normal -8.165780e-001 -8.042587e-002  5.716047e-001
    outer loop
      vertex -9.375000e-002  1.160153e-017  6.718750e-001
      vertex -9.192966e-002 -1.848224e-002  6.718750e-001
      vertex -3.906250e-002 -7.385623e-010  7.500000e-001
    endloop
  endfacet
  facet normal -8.165781e-001 -8.042591e-002  5.716047e-001
    outer loop
      vertex -9.192966e-002 -1.848224e-002  6.718750e-001
      vertex -3.829296e-002 -7.813242e-003  7.500000e-001
      vertex -3.906250e-002 -7.385623e-010  7.500000e-001
    endloop
  endfacet
  facet normal -7.851974e-001 -2.381870e-001  5.716047e-001
    outer loop
      vertex -9.192966e-002 -1.848224e-002  6.718750e-001
      vertex -8.653859e-002 -3.625422e-002  6.718750e-001
      vertex -3.601392e-002 -1.532622e-002  7.500000e-001
    endloop
  endfacet
  facet normal -7.851974e-001 -2.381872e-001  5.716047e-001
    outer loop
      vertex -3.829296e-002 -7.813242e-003  7.500000e-001
      vertex -9.192966e-002 -1.848224e-002  6.718750e-001
      vertex -3.601392e-002 -1.532622e-002  7.500000e-001
    endloop
  endfacet
  facet normal -7.236421e-001 -3.867948e-001  5.716047e-001
    outer loop
      vertex -8.653859e-002 -3.625422e-002  6.718750e-001
      vertex -7.778396e-002 -5.263297e-002  6.718750e-001
      vertex -3.231297e-002 -2.225022e-002  7.500000e-001
    endloop
  endfacet
  facet normal -7.236421e-001 -3.867948e-001  5.716047e-001
    outer loop
      vertex -3.601392e-002 -1.532622e-002  7.500000e-001
      vertex -8.653859e-002 -3.625422e-002  6.718750e-001
      vertex -3.231297e-002 -2.225022e-002  7.500000e-001
    endloop
  endfacet
  facet normal -6.342775e-001 -5.205382e-001  5.716047e-001
    outer loop
      vertex -7.778396e-002 -5.263297e-002  6.718750e-001
      vertex -6.600222e-002 -6.698906e-002  6.718750e-001
      vertex -2.733232e-002 -2.831916e-002  7.500000e-001
    endloop
  endfacet
  facet normal -6.342776e-001 -5.205382e-001  5.716047e-001
    outer loop
      vertex -3.231297e-002 -2.225022e-002  7.500000e-001
      vertex -7.778396e-002 -5.263297e-002  6.718750e-001
      vertex -2.733232e-002 -2.831916e-002  7.500000e-001
    endloop
  endfacet
  facet normal -3.867946e-001 -7.236422e-001  5.716047e-001
    outer loop
      vertex -5.164613e-002 -7.877081e-002  6.718750e-001
      vertex -3.526738e-002 -8.752543e-002  6.718750e-001
      vertex -2.126338e-002 -3.329981e-002  7.500000e-001
    endloop
  endfacet
  facet normal -5.205383e-001 -6.342775e-001  5.716047e-001
    outer loop
      vertex -2.126338e-002 -3.329981e-002  7.500000e-001
      vertex -6.600222e-002 -6.698906e-002  6.718750e-001
      vertex -5.164613e-002 -7.877081e-002  6.718750e-001
    endloop
  endfacet
  facet normal -5.205379e-001 -6.342779e-001  5.716046e-001
    outer loop
      vertex -2.733232e-002 -2.831916e-002  7.500000e-001
      vertex -6.600222e-002 -6.698906e-002  6.718750e-001
      vertex -2.126338e-002 -3.329981e-002  7.500000e-001
    endloop
  endfacet
  facet normal -2.381872e-001 -7.851974e-001  5.716047e-001
    outer loop
      vertex -3.526738e-002 -8.752543e-002  6.718750e-001
      vertex -1.749540e-002 -9.291650e-002  6.718750e-001
      vertex -6.826395e-003 -3.927981e-002  7.500000e-001
    endloop
  endfacet
  facet normal -2.381872e-001 -7.851974e-001  5.716047e-001
    outer loop
      vertex -1.433938e-002 -3.700077e-002  7.500000e-001
      vertex -3.526738e-002 -8.752543e-002  6.718750e-001
      vertex -6.826395e-003 -3.927981e-002  7.500000e-001
    endloop
  endfacet
  facet normal -3.867948e-001 -7.236421e-001  5.716047e-001
    outer loop
      vertex -2.126338e-002 -3.329981e-002  7.500000e-001
      vertex -3.526738e-002 -8.752543e-002  6.718750e-001
      vertex -1.433938e-002 -3.700077e-002  7.500000e-001
    endloop
  endfacet
  facet normal -8.042587e-002 -8.165780e-001  5.716047e-001
    outer loop
      vertex -1.749540e-002 -9.291650e-002  6.718750e-001
      vertex  9.868421e-004 -9.473684e-002  6.718750e-001
      vertex  9.868436e-004 -4.004934e-002  7.500000e-001
    endloop
  endfacet
  facet normal -8.042554e-002 -8.165781e-001  5.716047e-001
    outer loop
      vertex -6.826395e-003 -3.927981e-002  7.500000e-001
      vertex -1.749540e-002 -9.291650e-002  6.718750e-001
      vertex  9.868436e-004 -4.004934e-002  7.500000e-001
    endloop
  endfacet
  facet normal  8.042587e-002 -8.165780e-001  5.716047e-001
    outer loop
      vertex  9.868421e-004 -9.473684e-002  6.718750e-001
      vertex  1.946908e-002 -9.291650e-002  6.718750e-001
      vertex  8.800083e-003 -3.927980e-002  7.500000e-001
    endloop
  endfacet
  facet normal  8.042593e-002 -8.165781e-001  5.716047e-001
    outer loop
      vertex  9.868436e-004 -4.004934e-002  7.500000e-001
      vertex  9.868421e-004 -9.473684e-002  6.718750e-001
      vertex  8.800083e-003 -3.927980e-002  7.500000e-001
    endloop
  endfacet
  facet normal  3.867945e-001 -7.236422e-001  5.716046e-001
    outer loop
      vertex  3.724106e-002 -8.752543e-002  6.718750e-001
      vertex  5.361981e-002 -7.877081e-002  6.718750e-001
      vertex  1.631306e-002 -3.700077e-002  7.500000e-001
    endloop
  endfacet
  facet normal  2.381873e-001 -7.851973e-001  5.716046e-001
    outer loop
      vertex  1.631306e-002 -3.700077e-002  7.500000e-001
      vertex  1.946908e-002 -9.291650e-002  6.718750e-001
      vertex  3.724106e-002 -8.752543e-002  6.718750e-001
    endloop
  endfacet
  facet normal  2.381869e-001 -7.851974e-001  5.716047e-001
    outer loop
      vertex  8.800083e-003 -3.927980e-002  7.500000e-001
      vertex  1.946908e-002 -9.291650e-002  6.718750e-001
      vertex  1.631306e-002 -3.700077e-002  7.500000e-001
    endloop
  endfacet
  facet normal  5.205382e-001 -6.342775e-001  5.716047e-001
    outer loop
      vertex  5.361981e-002 -7.877081e-002  6.718750e-001
      vertex  6.797591e-002 -6.698906e-002  6.718750e-001
      vertex  2.930600e-002 -2.831916e-002  7.500000e-001
    endloop
  endfacet
  facet normal  5.205382e-001 -6.342776e-001  5.716047e-001
    outer loop
      vertex  2.323706e-002 -3.329981e-002  7.500000e-001
      vertex  5.361981e-002 -7.877081e-002  6.718750e-001
      vertex  2.930600e-002 -2.831916e-002  7.500000e-001
    endloop
  endfacet
  facet normal  3.867949e-001 -7.236420e-001  5.716047e-001
    outer loop
      vertex  1.631306e-002 -3.700077e-002  7.500000e-001
      vertex  5.361981e-002 -7.877081e-002  6.718750e-001
      vertex  2.323706e-002 -3.329981e-002  7.500000e-001
    endloop
  endfacet
  facet normal  6.342777e-001 -5.205380e-001  5.716047e-001
    outer loop
      vertex  6.797591e-002 -6.698906e-002  6.718750e-001
      vertex  7.975765e-002 -5.263297e-002  6.718750e-001
      vertex  3.428665e-002 -2.225022e-002  7.500000e-001
    endloop
  endfacet
  facet normal  6.342777e-001 -5.205381e-001  5.716047e-001
    outer loop
      vertex  2.930600e-002 -2.831916e-002  7.500000e-001
      vertex  6.797591e-002 -6.698906e-002  6.718750e-001
      vertex  3.428665e-002 -2.225022e-002  7.500000e-001
    endloop
  endfacet
  facet normal  7.236421e-001 -3.867948e-001  5.716047e-001
    outer loop
      vertex  7.975765e-002 -5.263297e-002  6.718750e-001
      vertex  8.851227e-002 -3.625422e-002  6.718750e-001
      vertex  3.798761e-002 -1.532622e-002  7.500000e-001
    endloop
  endfacet
  facet normal  7.236421e-001 -3.867948e-001  5.716047e-001
    outer loop
      vertex  3.428665e-002 -2.225022e-002  7.500000e-001
      vertex  7.975765e-002 -5.263297e-002  6.718750e-001
      vertex  3.798761e-002 -1.532622e-002  7.500000e-001
    endloop
  endfacet
  facet normal  7.851975e-001 -2.381870e-001  5.716047e-001
    outer loop
      vertex  4.026665e-002 -7.813239e-003  7.500000e-001
      vertex  8.851227e-002 -3.625422e-002  6.718750e-001
      vertex  9.390334e-002 -1.848224e-002  6.718750e-001
    endloop
  endfacet
  facet normal  7.851974e-001 -2.381871e-001  5.716047e-001
    outer loop
      vertex  3.798761e-002 -1.532622e-002  7.500000e-001
      vertex  8.851227e-002 -3.625422e-002  6.718750e-001
      vertex  4.026665e-002 -7.813239e-003  7.500000e-001
    endloop
  endfacet
  facet normal  0.000000e+000  0.000000e+000 -1.000000e+000
    outer loop
      vertex  9.868421e-004  9.473684e-002  0.000000e+000
      vertex  1.946908e-002  9.291650e-002  0.000000e+000
      vertex -1.749540e-002  9.291650e-002  0.000000e+000
    endloop
  endfacet
  facet normal  0.000000e+000  -0.000000e+000 -1.000000e+000
    outer loop
      vertex -3.526738e-002  8.752543e-002  0.000000e+000
      vertex -1.749540e-002  9.291650e-002  0.000000e+000
      vertex  1.946908e-002  9.291650e-002  0.000000e+000
    endloop
  endfacet
  facet normal  0.000000e+000  0.000000e+000 -1.000000e+000
    outer loop
      vertex  3.724106e-002  8.752543e-002  0.000000e+000
      vertex -3.526738e-002  8.752543e-002  0.000000e+000
      vertex  1.946908e-002  9.291650e-002  0.000000e+000
    endloop
  endfacet
  facet normal  0.000000e+000  -0.000000e+000 -1.000000e+000
    outer loop
      vertex -5.164613e-002  7.877081e-002  0.000000e+000
      vertex -3.526738e-002  8.752543e-002  0.000000e+000
      vertex  3.724106e-002  8.752543e-002  0.000000e+000
    endloop
  endfacet
  facet normal  0.000000e+000  0.000000e+000 -1.000000e+000
    outer loop
      vertex  5.361981e-002  7.877081e-002  0.000000e+000
      vertex -5.164613e-002  7.877081e-002  0.000000e+000
      vertex  3.724106e-002  8.752543e-002  0.000000e+000
    endloop
  endfacet
  facet normal  0.000000e+000  0.000000e+000 -1.000000e+000
    outer loop
      vertex  3.724106e-002 -8.752543e-002  0.000000e+000
      vertex -3.526738e-002 -8.752543e-002  0.000000e+000
      vertex  5.361981e-002 -7.877081e-002  0.000000e+000
    endloop
  endfacet
  facet normal  0.000000e+000  0.000000e+000 -1.000000e+000
    outer loop
      vertex -1.749540e-002 -9.291650e-002  0.000000e+000
      vertex -3.526738e-002 -8.752543e-002  0.000000e+000
      vertex  3.724106e-002 -8.752543e-002  0.000000e+000
    endloop
  endfacet
  facet normal  0.000000e+000  0.000000e+000 -1.000000e+000
    outer loop
      vertex  1.946908e-002 -9.291650e-002  0.000000e+000
      vertex -1.749540e-002 -9.291650e-002  0.000000e+000
      vertex  3.724106e-002 -8.752543e-002  0.000000e+000
    endloop
  endfacet
  facet normal  0.000000e+000  0.000000e+000 -1.000000e+000
    outer loop
      vertex  9.868421e-004 -9.473684e-002  0.000000e+000
      vertex -1.749540e-002 -9.291650e-002  0.000000e+000
      vertex  1.946908e-002 -9.291650e-002  0.000000e+000
    endloop
  endfacet
  facet normal  0.000000e+000  0.000000e+000 -1.000000e+000
    outer loop
      vertex -3.526738e-002 -8.752543e-002  0.000000e+000
      vertex -5.164613e-002 -7.877081e-002  0.000000e+000
      vertex  5.361981e-002 -7.877081e-002  0.000000e+000
    endloop
  endfacet
  facet normal  0.000000e+000  0.000000e+000 -1.000000e+000
    outer loop
      vertex  5.361981e-002 -7.877081e-002  0.000000e+000
      vertex -5.164613e-002 -7.877081e-002  0.000000e+000
      vertex -6.600222e-002 -6.698906e-002  0.000000e+000
    endloop
  endfacet
  facet normal  0.000000e+000  0.000000e+000 -1.000000e+000
    outer loop
      vertex  5.361981e-002 -7.877081e-002  0.000000e+000
      vertex -6.600222e-002 -6.698906e-002  0.000000e+000
      vertex  6.797591e-002 -6.698906e-002  0.000000e+000
    endloop
  endfacet
  facet normal  0.000000e+000  0.000000e+000 -1.000000e+000
    outer loop
      vertex  6.797591e-002 -6.698906e-002  0.000000e+000
      vertex -6.600222e-002 -6.698906e-002  0.000000e+000
      vertex -7.778396e-002 -5.263297e-002  0.000000e+000
    endloop
  endfacet
  facet normal  0.000000e+000  0.000000e+000 -1.000000e+000
    outer loop
      vertex  6.797591e-002 -6.698906e-002  0.000000e+000
      vertex -7.778396e-002 -5.263297e-002  0.000000e+000
      vertex  7.975765e-002 -5.263297e-002  0.000000e+000
    endloop
  endfacet
  facet normal  0.000000e+000  0.000000e+000 -1.000000e+000
    outer loop
      vertex  7.975765e-002 -5.263297e-002  0.000000e+000
      vertex -7.778396e-002 -5.263297e-002  0.000000e+000
      vertex -8.653859e-002 -3.625422e-002  0.000000e+000
    endloop
  endfacet
  facet normal  0.000000e+000  0.000000e+000 -1.000000e+000
    outer loop
      vertex  7.975765e-002 -5.263297e-002  0.000000e+000
      vertex -8.653859e-002 -3.625422e-002  0.000000e+000
      vertex  8.851227e-002 -3.625422e-002  0.000000e+000
    endloop
  endfacet
  facet normal  0.000000e+000  0.000000e+000 -1.000000e+000
    outer loop
      vertex  8.851227e-002 -3.625422e-002  0.000000e+000
      vertex -8.653859e-002 -3.625422e-002  0.000000e+000
      vertex -9.192966e-002 -1.848224e-002  0.000000e+000
    endloop
  endfacet
  facet normal  0.000000e+000  0.000000e+000 -1.000000e+000
    outer loop
      vertex  8.851227e-002 -3.625422e-002  0.000000e+000
      vertex -9.192966e-002 -1.848224e-002  0.000000e+000
      vertex  9.390334e-002 -1.848224e-002  0.000000e+000
    endloop
  endfacet
  facet normal  0.000000e+000  0.000000e+000 -1.000000e+000
    outer loop
      vertex  9.390334e-002 -1.848224e-002  0.000000e+000
      vertex -9.192966e-002 -1.848224e-002  0.000000e+000
      vertex -9.375000e-002  1.160153e-017  0.000000e+000
    endloop
  endfacet
  facet normal  0.000000e+000  0.000000e+000 -1.000000e+000
    outer loop
      vertex  9.390334e-002 -1.848224e-002  0.000000e+000
      vertex -9.375000e-002  1.160153e-017  0.000000e+000
      vertex  9.572368e-002  0.000000e+000  0.000000e+000
    endloop
  endfacet
  facet normal  0.000000e+000  0.000000e+000 -1.000000e+000
    outer loop
      vertex  9.572368e-002  0.000000e+000  0.000000e+000
      vertex -9.375000e-002  1.160153e-017  0.000000e+000
      vertex -9.192966e-002  1.848224e-002  0.000000e+000
    endloop
  endfacet
  facet normal  0.000000e+000  0.000000e+000 -1.000000e+000
    outer loop
      vertex  9.572368e-002  0.000000e+000  0.000000e+000
      vertex -9.192966e-002  1.848224e-002  0.000000e+000
      vertex  9.390334e-002  1.848224e-002  0.000000e+000
    endloop
  endfacet
  facet normal  0.000000e+000  0.000000e+000 -1.000000e+000
    outer loop
      vertex  9.390334e-002  1.848224e-002  0.000000e+000
      vertex -9.192966e-002  1.848224e-002  0.000000e+000
      vertex -8.653859e-002  3.625422e-002  0.000000e+000
    endloop
  endfacet
  facet normal  0.000000e+000  0.000000e+000 -1.000000e+000
    outer loop
      vertex  9.390334e-002  1.848224e-002  0.000000e+000
      vertex -8.653859e-002  3.625422e-002  0.000000e+000
      vertex  8.851227e-002  3.625422e-002  0.000000e+000
    endloop
  endfacet
  facet normal  0.000000e+000  0.000000e+000 -1.000000e+000
    outer loop
      vertex  8.851227e-002  3.625422e-002  0.000000e+000
      vertex -8.653859e-002  3.625422e-002  0.000000e+000
      vertex -7.778396e-002  5.263297e-002  0.000000e+000
    endloop
  endfacet
  facet normal  0.000000e+000  0.000000e+000 -1.000000e+000
    outer loop
      vertex  8.851227e-002  3.625422e-002  0.000000e+000
      vertex -7.778396e-002  5.263297e-002  0.000000e+000
      vertex  7.975765e-002  5.263297e-002  0.000000e+000
    endloop
  endfacet
  facet normal  0.000000e+000  0.000000e+000 -1.000000e+000
    outer loop
      vertex  7.975765e-002  5.263297e-002  0.000000e+000
      vertex -7.778396e-002  5.263297e-002  0.000000e+000
      vertex -6.600222e-002  6.698906e-002  0.000000e+000
    endloop
  endfacet
  facet normal  0.000000e+000  0.000000e+000 -1.000000e+000
    outer loop
      vertex  7.975765e-002  5.263297e-002  0.000000e+000
      vertex -6.600222e-002  6.698906e-002  0.000000e+000
      vertex  6.797591e-002  6.698906e-002  0.000000e+000
    endloop
  endfacet
  facet normal  0.000000e+000  0.000000e+000 -1.000000e+000
    outer loop
      vertex  6.797591e-002  6.698906e-002  0.000000e+000
      vertex -6.600222e-002  6.698906e-002  0.000000e+000
      vertex -5.164613e-002  7.877081e-002  0.000000e+000
    endloop
  endfacet
  facet normal  0.000000e+000  0.000000e+000 -1.000000e+000
    outer loop
      vertex  6.797591e-002  6.698906e-002  0.000000e+000
      vertex -5.164613e-002  7.877081e-002  0.000000e+000
      vertex  5.361981e-002  7.877081e-002  0.000000e+000
    endloop
  endfacet
endsolid CATIA STL
