solid CATIA STL
  facet normal  -0.000000e+000  0.000000e+000  1.000000e+000
    outer loop
      vertex  4.284540e-001 -6.726974e-001  3.906250e-002
      vertex  4.240420e-001 -6.731319e-001  3.906250e-002
      vertex  4.197995e-001 -6.744189e-001  3.906250e-002
    endloop
  endfacet
  facet normal  0.000000e+000  0.000000e+000  1.000000e+000
    outer loop
      vertex  4.328659e-001 -6.731319e-001  3.906250e-002
      vertex  4.284540e-001 -6.726974e-001  3.906250e-002
      vertex  4.197995e-001 -6.744189e-001  3.906250e-002
    endloop
  endfacet
  facet normal  0.000000e+000  0.000000e+000  1.000000e+000
    outer loop
      vertex  4.328659e-001 -6.731319e-001  3.906250e-002
      vertex  4.197995e-001 -6.744189e-001  3.906250e-002
      vertex  4.371084e-001 -6.744189e-001  3.906250e-002
    endloop
  endfacet
  facet normal  -0.000000e+000  0.000000e+000  1.000000e+000
    outer loop
      vertex  4.371084e-001 -6.744189e-001  3.906250e-002
      vertex  4.197995e-001 -6.744189e-001  3.906250e-002
      vertex  4.158897e-001 -6.765087e-001  3.906250e-002
    endloop
  endfacet
  facet normal  0.000000e+000  0.000000e+000  1.000000e+000
    outer loop
      vertex  4.371084e-001 -6.744189e-001  3.906250e-002
      vertex  4.158897e-001 -6.765087e-001  3.906250e-002
      vertex  4.410183e-001 -6.765087e-001  3.906250e-002
    endloop
  endfacet
  facet normal  -0.000000e+000  0.000000e+000  1.000000e+000
    outer loop
      vertex  4.410183e-001 -6.765087e-001  3.906250e-002
      vertex  4.158897e-001 -6.765087e-001  3.906250e-002
      vertex  4.124626e-001 -6.793212e-001  3.906250e-002
    endloop
  endfacet
  facet normal  0.000000e+000  0.000000e+000  1.000000e+000
    outer loop
      vertex  4.410183e-001 -6.765087e-001  3.906250e-002
      vertex  4.124626e-001 -6.793212e-001  3.906250e-002
      vertex  4.444453e-001 -6.793212e-001  3.906250e-002
    endloop
  endfacet
  facet normal  -0.000000e+000  0.000000e+000  9.999999e-001
    outer loop
      vertex  4.444453e-001 -6.793212e-001  3.906250e-002
      vertex  4.124626e-001 -6.793212e-001  3.906250e-002
      vertex  4.096501e-001 -6.827482e-001  3.906250e-002
    endloop
  endfacet
  facet normal  0.000000e+000  0.000000e+000  1.000000e+000
    outer loop
      vertex  4.444453e-001 -6.793212e-001  3.906250e-002
      vertex  4.096501e-001 -6.827482e-001  3.906250e-002
      vertex  4.472577e-001 -6.827482e-001  3.906250e-002
    endloop
  endfacet
  facet normal  -0.000000e+000  0.000000e+000  1.000000e+000
    outer loop
      vertex  4.472577e-001 -6.827482e-001  3.906250e-002
      vertex  4.096501e-001 -6.827482e-001  3.906250e-002
      vertex  4.075603e-001 -6.866581e-001  3.906250e-002
    endloop
  endfacet
  facet normal  0.000000e+000  0.000000e+000  1.000000e+000
    outer loop
      vertex  4.472577e-001 -6.827482e-001  3.906250e-002
      vertex  4.075603e-001 -6.866581e-001  3.906250e-002
      vertex  4.493476e-001 -6.866581e-001  3.906250e-002
    endloop
  endfacet
  facet normal  -0.000000e+000  0.000000e+000  1.000000e+000
    outer loop
      vertex  4.493476e-001 -6.866581e-001  3.906250e-002
      vertex  4.075603e-001 -6.866581e-001  3.906250e-002
      vertex  4.062734e-001 -6.909005e-001  3.906250e-002
    endloop
  endfacet
  facet normal  0.000000e+000  0.000000e+000  1.000000e+000
    outer loop
      vertex  4.493476e-001 -6.866581e-001  3.906250e-002
      vertex  4.062734e-001 -6.909005e-001  3.906250e-002
      vertex  4.506345e-001 -6.909005e-001  3.906250e-002
    endloop
  endfacet
  facet normal  0.000000e+000  0.000000e+000  1.000000e+000
    outer loop
      vertex  4.506345e-001 -6.997245e-001  3.906250e-002
      vertex  4.075603e-001 -7.039669e-001  3.906250e-002
      vertex  4.493476e-001 -7.039669e-001  3.906250e-002
    endloop
  endfacet
  facet normal  -0.000000e+000  0.000000e+000  1.000000e+000
    outer loop
      vertex  4.493476e-001 -7.039669e-001  3.906250e-002
      vertex  4.075603e-001 -7.039669e-001  3.906250e-002
      vertex  4.096501e-001 -7.078768e-001  3.906250e-002
    endloop
  endfacet
  facet normal  0.000000e+000  0.000000e+000  1.000000e+000
    outer loop
      vertex  4.493476e-001 -7.039669e-001  3.906250e-002
      vertex  4.096501e-001 -7.078768e-001  3.906250e-002
      vertex  4.472577e-001 -7.078768e-001  3.906250e-002
    endloop
  endfacet
  facet normal  -0.000000e+000  0.000000e+000  1.000000e+000
    outer loop
      vertex  4.472577e-001 -7.078768e-001  3.906250e-002
      vertex  4.096501e-001 -7.078768e-001  3.906250e-002
      vertex  4.124626e-001 -7.113038e-001  3.906250e-002
    endloop
  endfacet
  facet normal  0.000000e+000  0.000000e+000  9.999999e-001
    outer loop
      vertex  4.472577e-001 -7.078768e-001  3.906250e-002
      vertex  4.124626e-001 -7.113038e-001  3.906250e-002
      vertex  4.444453e-001 -7.113038e-001  3.906250e-002
    endloop
  endfacet
  facet normal  -0.000000e+000  0.000000e+000  1.000000e+000
    outer loop
      vertex  4.444453e-001 -7.113038e-001  3.906250e-002
      vertex  4.124626e-001 -7.113038e-001  3.906250e-002
      vertex  4.158897e-001 -7.141163e-001  3.906250e-002
    endloop
  endfacet
  facet normal  0.000000e+000  0.000000e+000  1.000000e+000
    outer loop
      vertex  4.444453e-001 -7.113038e-001  3.906250e-002
      vertex  4.158897e-001 -7.141163e-001  3.906250e-002
      vertex  4.410183e-001 -7.141163e-001  3.906250e-002
    endloop
  endfacet
  facet normal  -0.000000e+000  0.000000e+000  1.000000e+000
    outer loop
      vertex  4.410183e-001 -7.141163e-001  3.906250e-002
      vertex  4.158897e-001 -7.141163e-001  3.906250e-002
      vertex  4.197995e-001 -7.162061e-001  3.906250e-002
    endloop
  endfacet
  facet normal  0.000000e+000  0.000000e+000  1.000000e+000
    outer loop
      vertex  4.410183e-001 -7.141163e-001  3.906250e-002
      vertex  4.197995e-001 -7.162061e-001  3.906250e-002
      vertex  4.371084e-001 -7.162061e-001  3.906250e-002
    endloop
  endfacet
  facet normal  -0.000000e+000  0.000000e+000  1.000000e+000
    outer loop
      vertex  4.371084e-001 -7.162061e-001  3.906250e-002
      vertex  4.197995e-001 -7.162061e-001  3.906250e-002
      vertex  4.240420e-001 -7.174931e-001  3.906250e-002
    endloop
  endfacet
  facet normal  -0.000000e+000  0.000000e+000  1.000000e+000
    outer loop
      vertex  4.371084e-001 -7.162061e-001  3.906250e-002
      vertex  4.240420e-001 -7.174931e-001  3.906250e-002
      vertex  4.284540e-001 -7.179276e-001  3.906250e-002
    endloop
  endfacet
  facet normal  0.000000e+000  0.000000e+000  1.000000e+000
    outer loop
      vertex  4.371084e-001 -7.162061e-001  3.906250e-002
      vertex  4.284540e-001 -7.179276e-001  3.906250e-002
      vertex  4.328659e-001 -7.174931e-001  3.906250e-002
    endloop
  endfacet
  facet normal  -0.000000e+000  0.000000e+000  1.000000e+000
    outer loop
      vertex  4.506345e-001 -6.909005e-001  3.906250e-002
      vertex  4.062734e-001 -6.909005e-001  3.906250e-002
      vertex  4.510691e-001 -6.953125e-001  3.906250e-002
    endloop
  endfacet
  facet normal  0.000000e+000  0.000000e+000  1.000000e+000
    outer loop
      vertex  4.510691e-001 -6.953125e-001  3.906250e-002
      vertex  4.062734e-001 -6.909005e-001  3.906250e-002
      vertex  4.058388e-001 -6.953125e-001  3.906250e-002
    endloop
  endfacet
  facet normal  -0.000000e+000  0.000000e+000  1.000000e+000
    outer loop
      vertex  4.510691e-001 -6.953125e-001  3.906250e-002
      vertex  4.058388e-001 -6.953125e-001  3.906250e-002
      vertex  4.506345e-001 -6.997245e-001  3.906250e-002
    endloop
  endfacet
  facet normal  0.000000e+000  0.000000e+000  1.000000e+000
    outer loop
      vertex  4.506345e-001 -6.997245e-001  3.906250e-002
      vertex  4.058388e-001 -6.953125e-001  3.906250e-002
      vertex  4.062734e-001 -6.997245e-001  3.906250e-002
    endloop
  endfacet
  facet normal  -0.000000e+000  0.000000e+000  1.000000e+000
    outer loop
      vertex  4.506345e-001 -6.997245e-001  3.906250e-002
      vertex  4.062734e-001 -6.997245e-001  3.906250e-002
      vertex  4.075603e-001 -7.039669e-001  3.906250e-002
    endloop
  endfacet
  facet normal  9.951848e-001 -9.801758e-002  0.000000e+000
    outer loop
      vertex  4.588816e-001 -6.953125e-001  0.000000e+000
      vertex  4.588816e-001 -6.953125e-001  3.125000e-002
      vertex  4.582969e-001 -7.012486e-001  0.000000e+000
    endloop
  endfacet
  facet normal  9.951848e-001 -9.801758e-002  0.000000e+000
    outer loop
      vertex  4.582969e-001 -7.012486e-001  0.000000e+000
      vertex  4.588816e-001 -6.953125e-001  3.125000e-002
      vertex  4.582969e-001 -7.012486e-001  3.125000e-002
    endloop
  endfacet
  facet normal  9.569395e-001 -2.902875e-001  0.000000e+000
    outer loop
      vertex  4.582969e-001 -7.012486e-001  0.000000e+000
      vertex  4.582969e-001 -7.012486e-001  3.125000e-002
      vertex  4.565654e-001 -7.069566e-001  0.000000e+000
    endloop
  endfacet
  facet normal  9.569395e-001 -2.902875e-001  0.000000e+000
    outer loop
      vertex  4.565654e-001 -7.069566e-001  0.000000e+000
      vertex  4.582969e-001 -7.012486e-001  3.125000e-002
      vertex  4.565654e-001 -7.069566e-001  3.125000e-002
    endloop
  endfacet
  facet normal  8.819228e-001 -4.713937e-001  0.000000e+000
    outer loop
      vertex  4.565654e-001 -7.069566e-001  0.000000e+000
      vertex  4.565654e-001 -7.069566e-001  3.125000e-002
      vertex  4.537536e-001 -7.122172e-001  0.000000e+000
    endloop
  endfacet
  facet normal  8.819228e-001 -4.713937e-001  0.000000e+000
    outer loop
      vertex  4.537536e-001 -7.122172e-001  0.000000e+000
      vertex  4.565654e-001 -7.069566e-001  3.125000e-002
      vertex  4.537536e-001 -7.122172e-001  3.125000e-002
    endloop
  endfacet
  facet normal  7.730108e-001 -6.343929e-001  0.000000e+000
    outer loop
      vertex  4.537536e-001 -7.122172e-001  0.000000e+000
      vertex  4.537536e-001 -7.122172e-001  3.125000e-002
      vertex  4.499695e-001 -7.168281e-001  0.000000e+000
    endloop
  endfacet
  facet normal  7.730108e-001 -6.343929e-001  0.000000e+000
    outer loop
      vertex  4.499695e-001 -7.168281e-001  0.000000e+000
      vertex  4.537536e-001 -7.122172e-001  3.125000e-002
      vertex  4.499695e-001 -7.168281e-001  3.125000e-002
    endloop
  endfacet
  facet normal  6.343929e-001 -7.730108e-001  0.000000e+000
    outer loop
      vertex  4.499695e-001 -7.168281e-001  0.000000e+000
      vertex  4.499695e-001 -7.168281e-001  3.125000e-002
      vertex  4.453586e-001 -7.206122e-001  0.000000e+000
    endloop
  endfacet
  facet normal  6.343929e-001 -7.730108e-001  0.000000e+000
    outer loop
      vertex  4.453586e-001 -7.206122e-001  0.000000e+000
      vertex  4.499695e-001 -7.168281e-001  3.125000e-002
      vertex  4.453586e-001 -7.206122e-001  3.125000e-002
    endloop
  endfacet
  facet normal  4.713941e-001 -8.819228e-001  0.000000e+000
    outer loop
      vertex  4.453586e-001 -7.206122e-001  0.000000e+000
      vertex  4.453586e-001 -7.206122e-001  3.125000e-002
      vertex  4.400981e-001 -7.234240e-001  0.000000e+000
    endloop
  endfacet
  facet normal  4.713941e-001 -8.819228e-001  0.000000e+000
    outer loop
      vertex  4.400981e-001 -7.234240e-001  0.000000e+000
      vertex  4.453586e-001 -7.206122e-001  3.125000e-002
      vertex  4.400981e-001 -7.234240e-001  3.125000e-002
    endloop
  endfacet
  facet normal  2.902861e-001 -9.569399e-001  0.000000e+000
    outer loop
      vertex  4.400981e-001 -7.234240e-001  0.000000e+000
      vertex  4.400981e-001 -7.234240e-001  3.125000e-002
      vertex  4.343901e-001 -7.251555e-001  0.000000e+000
    endloop
  endfacet
  facet normal  2.902861e-001 -9.569399e-001  0.000000e+000
    outer loop
      vertex  4.343901e-001 -7.251555e-001  0.000000e+000
      vertex  4.400981e-001 -7.234240e-001  3.125000e-002
      vertex  4.343901e-001 -7.251555e-001  3.125000e-002
    endloop
  endfacet
  facet normal  9.801758e-002 -9.951848e-001  0.000000e+000
    outer loop
      vertex  4.343901e-001 -7.251555e-001  0.000000e+000
      vertex  4.343901e-001 -7.251555e-001  3.125000e-002
      vertex  4.284540e-001 -7.257401e-001  0.000000e+000
    endloop
  endfacet
  facet normal  9.801758e-002 -9.951848e-001  0.000000e+000
    outer loop
      vertex  4.284540e-001 -7.257401e-001  0.000000e+000
      vertex  4.343901e-001 -7.251555e-001  3.125000e-002
      vertex  4.284540e-001 -7.257401e-001  3.125000e-002
    endloop
  endfacet
  facet normal -9.801758e-002 -9.951848e-001  -0.000000e+000
    outer loop
      vertex  4.284540e-001 -7.257401e-001  0.000000e+000
      vertex  4.284540e-001 -7.257401e-001  3.125000e-002
      vertex  4.225178e-001 -7.251555e-001  0.000000e+000
    endloop
  endfacet
  facet normal -9.801758e-002 -9.951848e-001  0.000000e+000
    outer loop
      vertex  4.225178e-001 -7.251555e-001  0.000000e+000
      vertex  4.284540e-001 -7.257401e-001  3.125000e-002
      vertex  4.225178e-001 -7.251555e-001  3.125000e-002
    endloop
  endfacet
  facet normal -2.902861e-001 -9.569399e-001  -0.000000e+000
    outer loop
      vertex  4.225178e-001 -7.251555e-001  0.000000e+000
      vertex  4.225178e-001 -7.251555e-001  3.125000e-002
      vertex  4.168098e-001 -7.234240e-001  0.000000e+000
    endloop
  endfacet
  facet normal -2.902861e-001 -9.569399e-001  0.000000e+000
    outer loop
      vertex  4.168098e-001 -7.234240e-001  0.000000e+000
      vertex  4.225178e-001 -7.251555e-001  3.125000e-002
      vertex  4.168098e-001 -7.234240e-001  3.125000e-002
    endloop
  endfacet
  facet normal -4.713941e-001 -8.819228e-001  -0.000000e+000
    outer loop
      vertex  4.168098e-001 -7.234240e-001  0.000000e+000
      vertex  4.168098e-001 -7.234240e-001  3.125000e-002
      vertex  4.115493e-001 -7.206122e-001  0.000000e+000
    endloop
  endfacet
  facet normal -4.713941e-001 -8.819228e-001  0.000000e+000
    outer loop
      vertex  4.115493e-001 -7.206122e-001  0.000000e+000
      vertex  4.168098e-001 -7.234240e-001  3.125000e-002
      vertex  4.115493e-001 -7.206122e-001  3.125000e-002
    endloop
  endfacet
  facet normal -6.343929e-001 -7.730108e-001  -0.000000e+000
    outer loop
      vertex  4.115493e-001 -7.206122e-001  0.000000e+000
      vertex  4.115493e-001 -7.206122e-001  3.125000e-002
      vertex  4.069384e-001 -7.168281e-001  0.000000e+000
    endloop
  endfacet
  facet normal -6.343929e-001 -7.730108e-001  0.000000e+000
    outer loop
      vertex  4.069384e-001 -7.168281e-001  0.000000e+000
      vertex  4.115493e-001 -7.206122e-001  3.125000e-002
      vertex  4.069384e-001 -7.168281e-001  3.125000e-002
    endloop
  endfacet
  facet normal -7.730083e-001 -6.343958e-001  -0.000000e+000
    outer loop
      vertex  4.069384e-001 -7.168281e-001  0.000000e+000
      vertex  4.069384e-001 -7.168281e-001  3.125000e-002
      vertex  4.031543e-001 -7.122172e-001  0.000000e+000
    endloop
  endfacet
  facet normal -7.730083e-001 -6.343958e-001  0.000000e+000
    outer loop
      vertex  4.031543e-001 -7.122172e-001  0.000000e+000
      vertex  4.069384e-001 -7.168281e-001  3.125000e-002
      vertex  4.031543e-001 -7.122172e-001  3.125000e-002
    endloop
  endfacet
  facet normal -8.819249e-001 -4.713898e-001  -0.000000e+000
    outer loop
      vertex  4.031543e-001 -7.122172e-001  0.000000e+000
      vertex  4.031543e-001 -7.122172e-001  3.125000e-002
      vertex  4.003425e-001 -7.069566e-001  0.000000e+000
    endloop
  endfacet
  facet normal -8.819249e-001 -4.713898e-001  0.000000e+000
    outer loop
      vertex  4.003425e-001 -7.069566e-001  0.000000e+000
      vertex  4.031543e-001 -7.122172e-001  3.125000e-002
      vertex  4.003425e-001 -7.069566e-001  3.125000e-002
    endloop
  endfacet
  facet normal -9.569395e-001 -2.902875e-001  -0.000000e+000
    outer loop
      vertex  4.003425e-001 -7.069566e-001  0.000000e+000
      vertex  4.003425e-001 -7.069566e-001  3.125000e-002
      vertex  3.986110e-001 -7.012486e-001  0.000000e+000
    endloop
  endfacet
  facet normal -9.569395e-001 -2.902875e-001  0.000000e+000
    outer loop
      vertex  3.986110e-001 -7.012486e-001  0.000000e+000
      vertex  4.003425e-001 -7.069566e-001  3.125000e-002
      vertex  3.986110e-001 -7.012486e-001  3.125000e-002
    endloop
  endfacet
  facet normal -9.951848e-001 -9.801758e-002  -0.000000e+000
    outer loop
      vertex  3.986110e-001 -7.012486e-001  0.000000e+000
      vertex  3.986110e-001 -7.012486e-001  3.125000e-002
      vertex  3.980263e-001 -6.953125e-001  0.000000e+000
    endloop
  endfacet
  facet normal -9.951848e-001 -9.801758e-002  0.000000e+000
    outer loop
      vertex  3.980263e-001 -6.953125e-001  0.000000e+000
      vertex  3.986110e-001 -7.012486e-001  3.125000e-002
      vertex  3.980263e-001 -6.953125e-001  3.125000e-002
    endloop
  endfacet
  facet normal -9.951848e-001  9.801758e-002  0.000000e+000
    outer loop
      vertex  3.980263e-001 -6.953125e-001  0.000000e+000
      vertex  3.980263e-001 -6.953125e-001  3.125000e-002
      vertex  3.986110e-001 -6.893764e-001  0.000000e+000
    endloop
  endfacet
  facet normal -9.951848e-001  9.801758e-002  0.000000e+000
    outer loop
      vertex  3.986110e-001 -6.893764e-001  0.000000e+000
      vertex  3.980263e-001 -6.953125e-001  3.125000e-002
      vertex  3.986110e-001 -6.893764e-001  3.125000e-002
    endloop
  endfacet
  facet normal -9.569395e-001  2.902875e-001  0.000000e+000
    outer loop
      vertex  3.986110e-001 -6.893764e-001  0.000000e+000
      vertex  3.986110e-001 -6.893764e-001  3.125000e-002
      vertex  4.003425e-001 -6.836684e-001  0.000000e+000
    endloop
  endfacet
  facet normal -9.569395e-001  2.902875e-001  0.000000e+000
    outer loop
      vertex  4.003425e-001 -6.836684e-001  0.000000e+000
      vertex  3.986110e-001 -6.893764e-001  3.125000e-002
      vertex  4.003425e-001 -6.836684e-001  3.125000e-002
    endloop
  endfacet
  facet normal -8.819249e-001  4.713898e-001  0.000000e+000
    outer loop
      vertex  4.003425e-001 -6.836684e-001  0.000000e+000
      vertex  4.003425e-001 -6.836684e-001  3.125000e-002
      vertex  4.031543e-001 -6.784078e-001  0.000000e+000
    endloop
  endfacet
  facet normal -8.819249e-001  4.713898e-001  0.000000e+000
    outer loop
      vertex  4.031543e-001 -6.784078e-001  0.000000e+000
      vertex  4.003425e-001 -6.836684e-001  3.125000e-002
      vertex  4.031543e-001 -6.784078e-001  3.125000e-002
    endloop
  endfacet
  facet normal -7.730083e-001  6.343958e-001  0.000000e+000
    outer loop
      vertex  4.031543e-001 -6.784078e-001  0.000000e+000
      vertex  4.031543e-001 -6.784078e-001  3.125000e-002
      vertex  4.069384e-001 -6.737969e-001  0.000000e+000
    endloop
  endfacet
  facet normal -7.730083e-001  6.343958e-001  0.000000e+000
    outer loop
      vertex  4.069384e-001 -6.737969e-001  0.000000e+000
      vertex  4.031543e-001 -6.784078e-001  3.125000e-002
      vertex  4.069384e-001 -6.737969e-001  3.125000e-002
    endloop
  endfacet
  facet normal -6.343929e-001  7.730108e-001  0.000000e+000
    outer loop
      vertex  4.069384e-001 -6.737969e-001  0.000000e+000
      vertex  4.069384e-001 -6.737969e-001  3.125000e-002
      vertex  4.115493e-001 -6.700128e-001  0.000000e+000
    endloop
  endfacet
  facet normal -6.343929e-001  7.730108e-001  0.000000e+000
    outer loop
      vertex  4.115493e-001 -6.700128e-001  0.000000e+000
      vertex  4.069384e-001 -6.737969e-001  3.125000e-002
      vertex  4.115493e-001 -6.700128e-001  3.125000e-002
    endloop
  endfacet
  facet normal -4.713941e-001  8.819228e-001  0.000000e+000
    outer loop
      vertex  4.115493e-001 -6.700128e-001  0.000000e+000
      vertex  4.115493e-001 -6.700128e-001  3.125000e-002
      vertex  4.168098e-001 -6.672010e-001  0.000000e+000
    endloop
  endfacet
  facet normal -4.713941e-001  8.819228e-001  0.000000e+000
    outer loop
      vertex  4.168098e-001 -6.672010e-001  0.000000e+000
      vertex  4.115493e-001 -6.700128e-001  3.125000e-002
      vertex  4.168098e-001 -6.672010e-001  3.125000e-002
    endloop
  endfacet
  facet normal -2.902861e-001  9.569399e-001  0.000000e+000
    outer loop
      vertex  4.168098e-001 -6.672010e-001  0.000000e+000
      vertex  4.168098e-001 -6.672010e-001  3.125000e-002
      vertex  4.225178e-001 -6.654695e-001  0.000000e+000
    endloop
  endfacet
  facet normal -2.902861e-001  9.569399e-001  0.000000e+000
    outer loop
      vertex  4.225178e-001 -6.654695e-001  0.000000e+000
      vertex  4.168098e-001 -6.672010e-001  3.125000e-002
      vertex  4.225178e-001 -6.654695e-001  3.125000e-002
    endloop
  endfacet
  facet normal -9.801758e-002  9.951848e-001  0.000000e+000
    outer loop
      vertex  4.225178e-001 -6.654695e-001  0.000000e+000
      vertex  4.225178e-001 -6.654695e-001  3.125000e-002
      vertex  4.284540e-001 -6.648849e-001  0.000000e+000
    endloop
  endfacet
  facet normal -9.801758e-002  9.951848e-001  0.000000e+000
    outer loop
      vertex  4.284540e-001 -6.648849e-001  0.000000e+000
      vertex  4.225178e-001 -6.654695e-001  3.125000e-002
      vertex  4.284540e-001 -6.648849e-001  3.125000e-002
    endloop
  endfacet
  facet normal  9.801758e-002  9.951848e-001  0.000000e+000
    outer loop
      vertex  4.284540e-001 -6.648849e-001  0.000000e+000
      vertex  4.284540e-001 -6.648849e-001  3.125000e-002
      vertex  4.343901e-001 -6.654695e-001  0.000000e+000
    endloop
  endfacet
  facet normal  9.801758e-002  9.951848e-001  -0.000000e+000
    outer loop
      vertex  4.343901e-001 -6.654695e-001  0.000000e+000
      vertex  4.284540e-001 -6.648849e-001  3.125000e-002
      vertex  4.343901e-001 -6.654695e-001  3.125000e-002
    endloop
  endfacet
  facet normal  2.902861e-001  9.569399e-001  0.000000e+000
    outer loop
      vertex  4.343901e-001 -6.654695e-001  0.000000e+000
      vertex  4.343901e-001 -6.654695e-001  3.125000e-002
      vertex  4.400981e-001 -6.672010e-001  0.000000e+000
    endloop
  endfacet
  facet normal  2.902861e-001  9.569399e-001  -0.000000e+000
    outer loop
      vertex  4.400981e-001 -6.672010e-001  0.000000e+000
      vertex  4.343901e-001 -6.654695e-001  3.125000e-002
      vertex  4.400981e-001 -6.672010e-001  3.125000e-002
    endloop
  endfacet
  facet normal  4.713941e-001  8.819228e-001  0.000000e+000
    outer loop
      vertex  4.400981e-001 -6.672010e-001  0.000000e+000
      vertex  4.400981e-001 -6.672010e-001  3.125000e-002
      vertex  4.453586e-001 -6.700128e-001  0.000000e+000
    endloop
  endfacet
  facet normal  4.713941e-001  8.819228e-001  -0.000000e+000
    outer loop
      vertex  4.453586e-001 -6.700128e-001  0.000000e+000
      vertex  4.400981e-001 -6.672010e-001  3.125000e-002
      vertex  4.453586e-001 -6.700128e-001  3.125000e-002
    endloop
  endfacet
  facet normal  6.343929e-001  7.730108e-001  0.000000e+000
    outer loop
      vertex  4.453586e-001 -6.700128e-001  0.000000e+000
      vertex  4.453586e-001 -6.700128e-001  3.125000e-002
      vertex  4.499695e-001 -6.737969e-001  0.000000e+000
    endloop
  endfacet
  facet normal  6.343929e-001  7.730108e-001  -0.000000e+000
    outer loop
      vertex  4.499695e-001 -6.737969e-001  0.000000e+000
      vertex  4.453586e-001 -6.700128e-001  3.125000e-002
      vertex  4.499695e-001 -6.737969e-001  3.125000e-002
    endloop
  endfacet
  facet normal  7.730108e-001  6.343929e-001  0.000000e+000
    outer loop
      vertex  4.499695e-001 -6.737969e-001  0.000000e+000
      vertex  4.499695e-001 -6.737969e-001  3.125000e-002
      vertex  4.537536e-001 -6.784078e-001  0.000000e+000
    endloop
  endfacet
  facet normal  7.730108e-001  6.343929e-001  -0.000000e+000
    outer loop
      vertex  4.537536e-001 -6.784078e-001  0.000000e+000
      vertex  4.499695e-001 -6.737969e-001  3.125000e-002
      vertex  4.537536e-001 -6.784078e-001  3.125000e-002
    endloop
  endfacet
  facet normal  8.819228e-001  4.713937e-001  0.000000e+000
    outer loop
      vertex  4.537536e-001 -6.784078e-001  0.000000e+000
      vertex  4.537536e-001 -6.784078e-001  3.125000e-002
      vertex  4.565654e-001 -6.836684e-001  0.000000e+000
    endloop
  endfacet
  facet normal  8.819228e-001  4.713937e-001  -0.000000e+000
    outer loop
      vertex  4.565654e-001 -6.836684e-001  0.000000e+000
      vertex  4.537536e-001 -6.784078e-001  3.125000e-002
      vertex  4.565654e-001 -6.836684e-001  3.125000e-002
    endloop
  endfacet
  facet normal  9.569395e-001  2.902875e-001  0.000000e+000
    outer loop
      vertex  4.565654e-001 -6.836684e-001  0.000000e+000
      vertex  4.565654e-001 -6.836684e-001  3.125000e-002
      vertex  4.582969e-001 -6.893764e-001  0.000000e+000
    endloop
  endfacet
  facet normal  9.569395e-001  2.902875e-001  -0.000000e+000
    outer loop
      vertex  4.582969e-001 -6.893764e-001  0.000000e+000
      vertex  4.565654e-001 -6.836684e-001  3.125000e-002
      vertex  4.582969e-001 -6.893764e-001  3.125000e-002
    endloop
  endfacet
  facet normal  9.951848e-001  9.801758e-002  0.000000e+000
    outer loop
      vertex  4.582969e-001 -6.893764e-001  0.000000e+000
      vertex  4.582969e-001 -6.893764e-001  3.125000e-002
      vertex  4.588816e-001 -6.953125e-001  0.000000e+000
    endloop
  endfacet
  facet normal  9.951848e-001  9.801758e-002  -0.000000e+000
    outer loop
      vertex  4.588816e-001 -6.953125e-001  0.000000e+000
      vertex  4.582969e-001 -6.893764e-001  3.125000e-002
      vertex  4.588816e-001 -6.953125e-001  3.125000e-002
    endloop
  endfacet
  facet normal  7.053981e-001 -6.947630e-002  7.053981e-001
    outer loop
      vertex  4.510691e-001 -6.953125e-001  3.906250e-002
      vertex  4.506345e-001 -6.997245e-001  3.906250e-002
      vertex  4.588816e-001 -6.953125e-001  3.125000e-002
    endloop
  endfacet
  facet normal  7.053981e-001 -6.947596e-002  7.053982e-001
    outer loop
      vertex  4.506345e-001 -6.997245e-001  3.906250e-002
      vertex  4.582969e-001 -7.012486e-001  3.125000e-002
      vertex  4.588816e-001 -6.953125e-001  3.125000e-002
    endloop
  endfacet
  facet normal -7.053981e-001 -6.947596e-002  7.053981e-001
    outer loop
      vertex  3.980263e-001 -6.953125e-001  3.125000e-002
      vertex  3.986110e-001 -7.012486e-001  3.125000e-002
      vertex  4.058388e-001 -6.953125e-001  3.906250e-002
    endloop
  endfacet
  facet normal -7.053980e-001 -6.947628e-002  7.053982e-001
    outer loop
      vertex  3.986110e-001 -7.012486e-001  3.125000e-002
      vertex  4.062734e-001 -6.997245e-001  3.906250e-002
      vertex  4.058388e-001 -6.953125e-001  3.906250e-002
    endloop
  endfacet
  facet normal -6.782901e-001 -2.057592e-001  7.053976e-001
    outer loop
      vertex  3.986110e-001 -7.012486e-001  3.125000e-002
      vertex  4.003425e-001 -7.069566e-001  3.125000e-002
      vertex  4.075603e-001 -7.039669e-001  3.906250e-002
    endloop
  endfacet
  facet normal -6.782900e-001 -2.057570e-001  7.053983e-001
    outer loop
      vertex  4.062734e-001 -6.997245e-001  3.906250e-002
      vertex  3.986110e-001 -7.012486e-001  3.125000e-002
      vertex  4.075603e-001 -7.039669e-001  3.906250e-002
    endloop
  endfacet
  facet normal -5.479165e-001 -4.496665e-001  7.053989e-001
    outer loop
      vertex  4.031543e-001 -7.122172e-001  3.125000e-002
      vertex  4.069384e-001 -7.168281e-001  3.125000e-002
      vertex  4.096501e-001 -7.078768e-001  3.906250e-002
    endloop
  endfacet
  facet normal -6.251180e-001 -3.341263e-001  7.053986e-001
    outer loop
      vertex  4.096501e-001 -7.078768e-001  3.906250e-002
      vertex  4.003425e-001 -7.069566e-001  3.125000e-002
      vertex  4.031543e-001 -7.122172e-001  3.125000e-002
    endloop
  endfacet
  facet normal -6.251175e-001 -3.341292e-001  7.053977e-001
    outer loop
      vertex  4.075603e-001 -7.039669e-001  3.906250e-002
      vertex  4.003425e-001 -7.069566e-001  3.125000e-002
      vertex  4.096501e-001 -7.078768e-001  3.906250e-002
    endloop
  endfacet
  facet normal -3.341291e-001 -6.251163e-001  7.053989e-001
    outer loop
      vertex  4.115493e-001 -7.206122e-001  3.125000e-002
      vertex  4.168098e-001 -7.234240e-001  3.125000e-002
      vertex  4.197995e-001 -7.162061e-001  3.906250e-002
    endloop
  endfacet
  facet normal -3.341303e-001 -6.251150e-001  7.053994e-001
    outer loop
      vertex  4.158897e-001 -7.141163e-001  3.906250e-002
      vertex  4.115493e-001 -7.206122e-001  3.125000e-002
      vertex  4.197995e-001 -7.162061e-001  3.906250e-002
    endloop
  endfacet
  facet normal -4.496601e-001 -5.479211e-001  7.053994e-001
    outer loop
      vertex  4.158897e-001 -7.141163e-001  3.906250e-002
      vertex  4.124626e-001 -7.113038e-001  3.906250e-002
      vertex  4.115493e-001 -7.206122e-001  3.125000e-002
    endloop
  endfacet
  facet normal -6.947608e-002 -7.053994e-001  7.053969e-001
    outer loop
      vertex  4.225178e-001 -7.251555e-001  3.125000e-002
      vertex  4.284540e-001 -7.257401e-001  3.125000e-002
      vertex  4.240420e-001 -7.174931e-001  3.906250e-002
    endloop
  endfacet
  facet normal -2.057584e-001 -6.782910e-001  7.053969e-001
    outer loop
      vertex  4.240420e-001 -7.174931e-001  3.906250e-002
      vertex  4.168098e-001 -7.234240e-001  3.125000e-002
      vertex  4.225178e-001 -7.251555e-001  3.125000e-002
    endloop
  endfacet
  facet normal -2.057641e-001 -6.782870e-001  7.053992e-001
    outer loop
      vertex  4.197995e-001 -7.162061e-001  3.906250e-002
      vertex  4.168098e-001 -7.234240e-001  3.125000e-002
      vertex  4.240420e-001 -7.174931e-001  3.906250e-002
    endloop
  endfacet
  facet normal  2.057579e-001 -6.782892e-001  7.053988e-001
    outer loop
      vertex  4.343901e-001 -7.251555e-001  3.125000e-002
      vertex  4.400981e-001 -7.234240e-001  3.125000e-002
      vertex  4.371084e-001 -7.162061e-001  3.906250e-002
    endloop
  endfacet
  facet normal  2.057649e-001 -6.782894e-001  7.053966e-001
    outer loop
      vertex  4.328659e-001 -7.174931e-001  3.906250e-002
      vertex  4.343901e-001 -7.251555e-001  3.125000e-002
      vertex  4.371084e-001 -7.162061e-001  3.906250e-002
    endloop
  endfacet
  facet normal  6.947172e-002 -7.054001e-001  7.053967e-001
    outer loop
      vertex  4.328659e-001 -7.174931e-001  3.906250e-002
      vertex  4.284540e-001 -7.179276e-001  3.906250e-002
      vertex  4.343901e-001 -7.251555e-001  3.125000e-002
    endloop
  endfacet
  facet normal  4.496642e-001 -5.479181e-001  7.053992e-001
    outer loop
      vertex  4.453586e-001 -7.206122e-001  3.125000e-002
      vertex  4.499695e-001 -7.168281e-001  3.125000e-002
      vertex  4.410183e-001 -7.141163e-001  3.906250e-002
    endloop
  endfacet
  facet normal  3.341289e-001 -6.251158e-001  7.053993e-001
    outer loop
      vertex  4.410183e-001 -7.141163e-001  3.906250e-002
      vertex  4.400981e-001 -7.234240e-001  3.125000e-002
      vertex  4.453586e-001 -7.206122e-001  3.125000e-002
    endloop
  endfacet
  facet normal  3.341306e-001 -6.251155e-001  7.053987e-001
    outer loop
      vertex  4.371084e-001 -7.162061e-001  3.906250e-002
      vertex  4.400981e-001 -7.234240e-001  3.125000e-002
      vertex  4.410183e-001 -7.141163e-001  3.906250e-002
    endloop
  endfacet
  facet normal  6.251174e-001 -3.341295e-001  7.053976e-001
    outer loop
      vertex  4.537536e-001 -7.122172e-001  3.125000e-002
      vertex  4.565654e-001 -7.069566e-001  3.125000e-002
      vertex  4.493476e-001 -7.039669e-001  3.906250e-002
    endloop
  endfacet
  facet normal  6.251144e-001 -3.341323e-001  7.053989e-001
    outer loop
      vertex  4.472577e-001 -7.078768e-001  3.906250e-002
      vertex  4.537536e-001 -7.122172e-001  3.125000e-002
      vertex  4.493476e-001 -7.039669e-001  3.906250e-002
    endloop
  endfacet
  facet normal  5.479190e-001 -4.496632e-001  7.053990e-001
    outer loop
      vertex  4.472577e-001 -7.078768e-001  3.906250e-002
      vertex  4.444453e-001 -7.113038e-001  3.906250e-002
      vertex  4.537536e-001 -7.122172e-001  3.125000e-002
    endloop
  endfacet
  facet normal  6.782895e-001 -2.057590e-001  7.053981e-001
    outer loop
      vertex  4.506345e-001 -6.997245e-001  3.906250e-002
      vertex  4.565654e-001 -7.069566e-001  3.125000e-002
      vertex  4.582969e-001 -7.012486e-001  3.125000e-002
    endloop
  endfacet
  facet normal  6.782907e-001 -2.057572e-001  7.053974e-001
    outer loop
      vertex  4.493476e-001 -7.039669e-001  3.906250e-002
      vertex  4.565654e-001 -7.069566e-001  3.125000e-002
      vertex  4.506345e-001 -6.997245e-001  3.906250e-002
    endloop
  endfacet
  facet normal -5.479203e-001 -4.496642e-001  7.053974e-001
    outer loop
      vertex  4.124626e-001 -7.113038e-001  3.906250e-002
      vertex  4.096501e-001 -7.078768e-001  3.906250e-002
      vertex  4.069384e-001 -7.168281e-001  3.125000e-002
    endloop
  endfacet
  facet normal -4.496651e-001 -5.479192e-001  7.053977e-001
    outer loop
      vertex  4.069384e-001 -7.168281e-001  3.125000e-002
      vertex  4.115493e-001 -7.206122e-001  3.125000e-002
      vertex  4.124626e-001 -7.113038e-001  3.906250e-002
    endloop
  endfacet
  facet normal -6.947156e-002 -7.053984e-001  7.053984e-001
    outer loop
      vertex  4.284540e-001 -7.179276e-001  3.906250e-002
      vertex  4.240420e-001 -7.174931e-001  3.906250e-002
      vertex  4.284540e-001 -7.257401e-001  3.125000e-002
    endloop
  endfacet
  facet normal  6.947596e-002 -7.053981e-001  7.053981e-001
    outer loop
      vertex  4.284540e-001 -7.257401e-001  3.125000e-002
      vertex  4.343901e-001 -7.251555e-001  3.125000e-002
      vertex  4.284540e-001 -7.179276e-001  3.906250e-002
    endloop
  endfacet
  facet normal  4.496630e-001 -5.479199e-001  7.053984e-001
    outer loop
      vertex  4.444453e-001 -7.113038e-001  3.906250e-002
      vertex  4.410183e-001 -7.141163e-001  3.906250e-002
      vertex  4.499695e-001 -7.168281e-001  3.125000e-002
    endloop
  endfacet
  facet normal  5.479185e-001 -4.496646e-001  7.053985e-001
    outer loop
      vertex  4.499695e-001 -7.168281e-001  3.125000e-002
      vertex  4.537536e-001 -7.122172e-001  3.125000e-002
      vertex  4.444453e-001 -7.113038e-001  3.906250e-002
    endloop
  endfacet
  facet normal -7.053981e-001  6.947630e-002  7.053981e-001
    outer loop
      vertex  4.058388e-001 -6.953125e-001  3.906250e-002
      vertex  4.062734e-001 -6.909005e-001  3.906250e-002
      vertex  3.980263e-001 -6.953125e-001  3.125000e-002
    endloop
  endfacet
  facet normal -7.053981e-001  6.947596e-002  7.053982e-001
    outer loop
      vertex  4.062734e-001 -6.909005e-001  3.906250e-002
      vertex  3.986110e-001 -6.893764e-001  3.125000e-002
      vertex  3.980263e-001 -6.953125e-001  3.125000e-002
    endloop
  endfacet
  facet normal  7.053981e-001  6.947596e-002  7.053981e-001
    outer loop
      vertex  4.588816e-001 -6.953125e-001  3.125000e-002
      vertex  4.582969e-001 -6.893764e-001  3.125000e-002
      vertex  4.510691e-001 -6.953125e-001  3.906250e-002
    endloop
  endfacet
  facet normal  7.053980e-001  6.947628e-002  7.053982e-001
    outer loop
      vertex  4.582969e-001 -6.893764e-001  3.125000e-002
      vertex  4.506345e-001 -6.909005e-001  3.906250e-002
      vertex  4.510691e-001 -6.953125e-001  3.906250e-002
    endloop
  endfacet
  facet normal  6.782901e-001  2.057592e-001  7.053976e-001
    outer loop
      vertex  4.582969e-001 -6.893764e-001  3.125000e-002
      vertex  4.565654e-001 -6.836684e-001  3.125000e-002
      vertex  4.493476e-001 -6.866581e-001  3.906250e-002
    endloop
  endfacet
  facet normal  6.782900e-001  2.057570e-001  7.053983e-001
    outer loop
      vertex  4.506345e-001 -6.909005e-001  3.906250e-002
      vertex  4.582969e-001 -6.893764e-001  3.125000e-002
      vertex  4.493476e-001 -6.866581e-001  3.906250e-002
    endloop
  endfacet
  facet normal  5.479182e-001  4.496643e-001  7.053989e-001
    outer loop
      vertex  4.537536e-001 -6.784078e-001  3.125000e-002
      vertex  4.499695e-001 -6.737969e-001  3.125000e-002
      vertex  4.472577e-001 -6.827482e-001  3.906250e-002
    endloop
  endfacet
  facet normal  6.251163e-001  3.341289e-001  7.053987e-001
    outer loop
      vertex  4.472577e-001 -6.827482e-001  3.906250e-002
      vertex  4.565654e-001 -6.836684e-001  3.125000e-002
      vertex  4.537536e-001 -6.784078e-001  3.125000e-002
    endloop
  endfacet
  facet normal  6.251157e-001  3.341329e-001  7.053974e-001
    outer loop
      vertex  4.493476e-001 -6.866581e-001  3.906250e-002
      vertex  4.565654e-001 -6.836684e-001  3.125000e-002
      vertex  4.472577e-001 -6.827482e-001  3.906250e-002
    endloop
  endfacet
  facet normal  3.341291e-001  6.251163e-001  7.053989e-001
    outer loop
      vertex  4.453586e-001 -6.700128e-001  3.125000e-002
      vertex  4.400981e-001 -6.672010e-001  3.125000e-002
      vertex  4.371084e-001 -6.744189e-001  3.906250e-002
    endloop
  endfacet
  facet normal  3.341303e-001  6.251150e-001  7.053994e-001
    outer loop
      vertex  4.410183e-001 -6.765087e-001  3.906250e-002
      vertex  4.453586e-001 -6.700128e-001  3.125000e-002
      vertex  4.371084e-001 -6.744189e-001  3.906250e-002
    endloop
  endfacet
  facet normal  4.496625e-001  5.479193e-001  7.053993e-001
    outer loop
      vertex  4.410183e-001 -6.765087e-001  3.906250e-002
      vertex  4.444453e-001 -6.793212e-001  3.906250e-002
      vertex  4.453586e-001 -6.700128e-001  3.125000e-002
    endloop
  endfacet
  facet normal  6.947608e-002  7.053994e-001  7.053969e-001
    outer loop
      vertex  4.343901e-001 -6.654695e-001  3.125000e-002
      vertex  4.284540e-001 -6.648849e-001  3.125000e-002
      vertex  4.328659e-001 -6.731319e-001  3.906250e-002
    endloop
  endfacet
  facet normal  2.057584e-001  6.782910e-001  7.053969e-001
    outer loop
      vertex  4.328659e-001 -6.731319e-001  3.906250e-002
      vertex  4.400981e-001 -6.672010e-001  3.125000e-002
      vertex  4.343901e-001 -6.654695e-001  3.125000e-002
    endloop
  endfacet
  facet normal  2.057641e-001  6.782870e-001  7.053992e-001
    outer loop
      vertex  4.371084e-001 -6.744189e-001  3.906250e-002
      vertex  4.400981e-001 -6.672010e-001  3.125000e-002
      vertex  4.328659e-001 -6.731319e-001  3.906250e-002
    endloop
  endfacet
  facet normal -2.057579e-001  6.782892e-001  7.053988e-001
    outer loop
      vertex  4.225178e-001 -6.654695e-001  3.125000e-002
      vertex  4.168098e-001 -6.672010e-001  3.125000e-002
      vertex  4.197995e-001 -6.744189e-001  3.906250e-002
    endloop
  endfacet
  facet normal -2.057649e-001  6.782894e-001  7.053966e-001
    outer loop
      vertex  4.240420e-001 -6.731319e-001  3.906250e-002
      vertex  4.225178e-001 -6.654695e-001  3.125000e-002
      vertex  4.197995e-001 -6.744189e-001  3.906250e-002
    endloop
  endfacet
  facet normal -6.947172e-002  7.054001e-001  7.053967e-001
    outer loop
      vertex  4.240420e-001 -6.731319e-001  3.906250e-002
      vertex  4.284540e-001 -6.726974e-001  3.906250e-002
      vertex  4.225178e-001 -6.654695e-001  3.125000e-002
    endloop
  endfacet
  facet normal -4.496642e-001  5.479181e-001  7.053992e-001
    outer loop
      vertex  4.115493e-001 -6.700128e-001  3.125000e-002
      vertex  4.069384e-001 -6.737969e-001  3.125000e-002
      vertex  4.158897e-001 -6.765087e-001  3.906250e-002
    endloop
  endfacet
  facet normal -3.341289e-001  6.251158e-001  7.053993e-001
    outer loop
      vertex  4.158897e-001 -6.765087e-001  3.906250e-002
      vertex  4.168098e-001 -6.672010e-001  3.125000e-002
      vertex  4.115493e-001 -6.700128e-001  3.125000e-002
    endloop
  endfacet
  facet normal -3.341306e-001  6.251155e-001  7.053987e-001
    outer loop
      vertex  4.197995e-001 -6.744189e-001  3.906250e-002
      vertex  4.168098e-001 -6.672010e-001  3.125000e-002
      vertex  4.158897e-001 -6.765087e-001  3.906250e-002
    endloop
  endfacet
  facet normal -6.251187e-001  3.341267e-001  7.053978e-001
    outer loop
      vertex  4.031543e-001 -6.784078e-001  3.125000e-002
      vertex  4.003425e-001 -6.836684e-001  3.125000e-002
      vertex  4.075603e-001 -6.866581e-001  3.906250e-002
    endloop
  endfacet
  facet normal -6.251166e-001  3.341286e-001  7.053987e-001
    outer loop
      vertex  4.096501e-001 -6.827482e-001  3.906250e-002
      vertex  4.031543e-001 -6.784078e-001  3.125000e-002
      vertex  4.075603e-001 -6.866581e-001  3.906250e-002
    endloop
  endfacet
  facet normal -5.479190e-001  4.496632e-001  7.053990e-001
    outer loop
      vertex  4.096501e-001 -6.827482e-001  3.906250e-002
      vertex  4.124626e-001 -6.793212e-001  3.906250e-002
      vertex  4.031543e-001 -6.784078e-001  3.125000e-002
    endloop
  endfacet
  facet normal -6.782895e-001  2.057590e-001  7.053981e-001
    outer loop
      vertex  4.062734e-001 -6.909005e-001  3.906250e-002
      vertex  4.003425e-001 -6.836684e-001  3.125000e-002
      vertex  3.986110e-001 -6.893764e-001  3.125000e-002
    endloop
  endfacet
  facet normal -6.782907e-001  2.057572e-001  7.053974e-001
    outer loop
      vertex  4.075603e-001 -6.866581e-001  3.906250e-002
      vertex  4.003425e-001 -6.836684e-001  3.125000e-002
      vertex  4.062734e-001 -6.909005e-001  3.906250e-002
    endloop
  endfacet
  facet normal  5.479195e-001  4.496635e-001  7.053984e-001
    outer loop
      vertex  4.444453e-001 -6.793212e-001  3.906250e-002
      vertex  4.472577e-001 -6.827482e-001  3.906250e-002
      vertex  4.499695e-001 -6.737969e-001  3.125000e-002
    endloop
  endfacet
  facet normal  4.496646e-001  5.479185e-001  7.053985e-001
    outer loop
      vertex  4.499695e-001 -6.737969e-001  3.125000e-002
      vertex  4.453586e-001 -6.700128e-001  3.125000e-002
      vertex  4.444453e-001 -6.793212e-001  3.906250e-002
    endloop
  endfacet
  facet normal  6.947156e-002  7.053984e-001  7.053984e-001
    outer loop
      vertex  4.284540e-001 -6.726974e-001  3.906250e-002
      vertex  4.328659e-001 -6.731319e-001  3.906250e-002
      vertex  4.284540e-001 -6.648849e-001  3.125000e-002
    endloop
  endfacet
  facet normal -6.947596e-002  7.053981e-001  7.053981e-001
    outer loop
      vertex  4.284540e-001 -6.648849e-001  3.125000e-002
      vertex  4.225178e-001 -6.654695e-001  3.125000e-002
      vertex  4.284540e-001 -6.726974e-001  3.906250e-002
    endloop
  endfacet
  facet normal -4.496613e-001  5.479226e-001  7.053974e-001
    outer loop
      vertex  4.124626e-001 -6.793212e-001  3.906250e-002
      vertex  4.158897e-001 -6.765087e-001  3.906250e-002
      vertex  4.069384e-001 -6.737969e-001  3.125000e-002
    endloop
  endfacet
  facet normal -5.479175e-001  4.496673e-001  7.053976e-001
    outer loop
      vertex  4.069384e-001 -6.737969e-001  3.125000e-002
      vertex  4.031543e-001 -6.784078e-001  3.125000e-002
      vertex  4.124626e-001 -6.793212e-001  3.906250e-002
    endloop
  endfacet
  facet normal  0.000000e+000  -0.000000e+000 -9.999999e-001
    outer loop
      vertex  4.168098e-001 -6.672010e-001  0.000000e+000
      vertex  4.225178e-001 -6.654695e-001  0.000000e+000
      vertex  4.284540e-001 -6.648849e-001  0.000000e+000
    endloop
  endfacet
  facet normal  0.000000e+000  -0.000000e+000 -1.000000e+000
    outer loop
      vertex  4.168098e-001 -6.672010e-001  0.000000e+000
      vertex  4.284540e-001 -6.648849e-001  0.000000e+000
      vertex  4.343901e-001 -6.654695e-001  0.000000e+000
    endloop
  endfacet
  facet normal  0.000000e+000  0.000000e+000 -1.000000e+000
    outer loop
      vertex  4.400981e-001 -6.672010e-001  0.000000e+000
      vertex  4.168098e-001 -6.672010e-001  0.000000e+000
      vertex  4.343901e-001 -6.654695e-001  0.000000e+000
    endloop
  endfacet
  facet normal  0.000000e+000  -0.000000e+000 -1.000000e+000
    outer loop
      vertex  4.115493e-001 -6.700128e-001  0.000000e+000
      vertex  4.168098e-001 -6.672010e-001  0.000000e+000
      vertex  4.400981e-001 -6.672010e-001  0.000000e+000
    endloop
  endfacet
  facet normal  0.000000e+000  0.000000e+000 -1.000000e+000
    outer loop
      vertex  4.453586e-001 -6.700128e-001  0.000000e+000
      vertex  4.115493e-001 -6.700128e-001  0.000000e+000
      vertex  4.400981e-001 -6.672010e-001  0.000000e+000
    endloop
  endfacet
  facet normal  0.000000e+000  -0.000000e+000 -1.000000e+000
    outer loop
      vertex  4.069384e-001 -6.737969e-001  0.000000e+000
      vertex  4.115493e-001 -6.700128e-001  0.000000e+000
      vertex  4.453586e-001 -6.700128e-001  0.000000e+000
    endloop
  endfacet
  facet normal  0.000000e+000  0.000000e+000 -1.000000e+000
    outer loop
      vertex  4.499695e-001 -6.737969e-001  0.000000e+000
      vertex  4.069384e-001 -6.737969e-001  0.000000e+000
      vertex  4.453586e-001 -6.700128e-001  0.000000e+000
    endloop
  endfacet
  facet normal  0.000000e+000  -0.000000e+000 -9.999999e-001
    outer loop
      vertex  4.031543e-001 -6.784078e-001  0.000000e+000
      vertex  4.069384e-001 -6.737969e-001  0.000000e+000
      vertex  4.499695e-001 -6.737969e-001  0.000000e+000
    endloop
  endfacet
  facet normal  0.000000e+000  0.000000e+000 -1.000000e+000
    outer loop
      vertex  4.537536e-001 -6.784078e-001  0.000000e+000
      vertex  4.031543e-001 -6.784078e-001  0.000000e+000
      vertex  4.499695e-001 -6.737969e-001  0.000000e+000
    endloop
  endfacet
  facet normal  0.000000e+000  -0.000000e+000 -1.000000e+000
    outer loop
      vertex  4.003425e-001 -6.836684e-001  0.000000e+000
      vertex  4.031543e-001 -6.784078e-001  0.000000e+000
      vertex  4.537536e-001 -6.784078e-001  0.000000e+000
    endloop
  endfacet
  facet normal  0.000000e+000  0.000000e+000 -1.000000e+000
    outer loop
      vertex  4.565654e-001 -6.836684e-001  0.000000e+000
      vertex  4.003425e-001 -6.836684e-001  0.000000e+000
      vertex  4.537536e-001 -6.784078e-001  0.000000e+000
    endloop
  endfacet
  facet normal  0.000000e+000  -0.000000e+000 -1.000000e+000
    outer loop
      vertex  3.986110e-001 -6.893764e-001  0.000000e+000
      vertex  4.003425e-001 -6.836684e-001  0.000000e+000
      vertex  4.565654e-001 -6.836684e-001  0.000000e+000
    endloop
  endfacet
  facet normal  0.000000e+000  0.000000e+000 -1.000000e+000
    outer loop
      vertex  4.582969e-001 -6.893764e-001  0.000000e+000
      vertex  3.986110e-001 -6.893764e-001  0.000000e+000
      vertex  4.565654e-001 -6.836684e-001  0.000000e+000
    endloop
  endfacet
  facet normal  0.000000e+000  0.000000e+000 -1.000000e+000
    outer loop
      vertex  4.565654e-001 -7.069566e-001  0.000000e+000
      vertex  4.003425e-001 -7.069566e-001  0.000000e+000
      vertex  4.582969e-001 -7.012486e-001  0.000000e+000
    endloop
  endfacet
  facet normal  0.000000e+000  0.000000e+000 -1.000000e+000
    outer loop
      vertex  4.031543e-001 -7.122172e-001  0.000000e+000
      vertex  4.003425e-001 -7.069566e-001  0.000000e+000
      vertex  4.565654e-001 -7.069566e-001  0.000000e+000
    endloop
  endfacet
  facet normal  0.000000e+000  0.000000e+000 -1.000000e+000
    outer loop
      vertex  4.537536e-001 -7.122172e-001  0.000000e+000
      vertex  4.031543e-001 -7.122172e-001  0.000000e+000
      vertex  4.565654e-001 -7.069566e-001  0.000000e+000
    endloop
  endfacet
  facet normal  0.000000e+000  0.000000e+000 -1.000000e+000
    outer loop
      vertex  4.069384e-001 -7.168281e-001  0.000000e+000
      vertex  4.031543e-001 -7.122172e-001  0.000000e+000
      vertex  4.537536e-001 -7.122172e-001  0.000000e+000
    endloop
  endfacet
  facet normal  0.000000e+000  0.000000e+000 -9.999999e-001
    outer loop
      vertex  4.499695e-001 -7.168281e-001  0.000000e+000
      vertex  4.069384e-001 -7.168281e-001  0.000000e+000
      vertex  4.537536e-001 -7.122172e-001  0.000000e+000
    endloop
  endfacet
  facet normal  0.000000e+000  0.000000e+000 -1.000000e+000
    outer loop
      vertex  4.115493e-001 -7.206122e-001  0.000000e+000
      vertex  4.069384e-001 -7.168281e-001  0.000000e+000
      vertex  4.499695e-001 -7.168281e-001  0.000000e+000
    endloop
  endfacet
  facet normal  0.000000e+000  0.000000e+000 -1.000000e+000
    outer loop
      vertex  4.453586e-001 -7.206122e-001  0.000000e+000
      vertex  4.115493e-001 -7.206122e-001  0.000000e+000
      vertex  4.499695e-001 -7.168281e-001  0.000000e+000
    endloop
  endfacet
  facet normal  0.000000e+000  0.000000e+000 -1.000000e+000
    outer loop
      vertex  4.168098e-001 -7.234240e-001  0.000000e+000
      vertex  4.115493e-001 -7.206122e-001  0.000000e+000
      vertex  4.453586e-001 -7.206122e-001  0.000000e+000
    endloop
  endfacet
  facet normal  0.000000e+000  0.000000e+000 -1.000000e+000
    outer loop
      vertex  4.400981e-001 -7.234240e-001  0.000000e+000
      vertex  4.168098e-001 -7.234240e-001  0.000000e+000
      vertex  4.453586e-001 -7.206122e-001  0.000000e+000
    endloop
  endfacet
  facet normal  0.000000e+000  0.000000e+000 -1.000000e+000
    outer loop
      vertex  4.225178e-001 -7.251555e-001  0.000000e+000
      vertex  4.168098e-001 -7.234240e-001  0.000000e+000
      vertex  4.400981e-001 -7.234240e-001  0.000000e+000
    endloop
  endfacet
  facet normal  0.000000e+000  0.000000e+000 -1.000000e+000
    outer loop
      vertex  4.284540e-001 -7.257401e-001  0.000000e+000
      vertex  4.225178e-001 -7.251555e-001  0.000000e+000
      vertex  4.400981e-001 -7.234240e-001  0.000000e+000
    endloop
  endfacet
  facet normal  0.000000e+000  0.000000e+000 -9.999999e-001
    outer loop
      vertex  4.343901e-001 -7.251555e-001  0.000000e+000
      vertex  4.284540e-001 -7.257401e-001  0.000000e+000
      vertex  4.400981e-001 -7.234240e-001  0.000000e+000
    endloop
  endfacet
  facet normal  0.000000e+000  0.000000e+000 -1.000000e+000
    outer loop
      vertex  4.003425e-001 -7.069566e-001  0.000000e+000
      vertex  3.986110e-001 -7.012486e-001  0.000000e+000
      vertex  4.582969e-001 -7.012486e-001  0.000000e+000
    endloop
  endfacet
  facet normal  0.000000e+000  0.000000e+000 -1.000000e+000
    outer loop
      vertex  4.582969e-001 -7.012486e-001  0.000000e+000
      vertex  3.986110e-001 -7.012486e-001  0.000000e+000
      vertex  3.980263e-001 -6.953125e-001  0.000000e+000
    endloop
  endfacet
  facet normal  0.000000e+000  0.000000e+000 -1.000000e+000
    outer loop
      vertex  4.582969e-001 -7.012486e-001  0.000000e+000
      vertex  3.980263e-001 -6.953125e-001  0.000000e+000
      vertex  4.588816e-001 -6.953125e-001  0.000000e+000
    endloop
  endfacet
  facet normal  0.000000e+000  0.000000e+000 -1.000000e+000
    outer loop
      vertex  4.588816e-001 -6.953125e-001  0.000000e+000
      vertex  3.980263e-001 -6.953125e-001  0.000000e+000
      vertex  3.986110e-001 -6.893764e-001  0.000000e+000
    endloop
  endfacet
  facet normal  0.000000e+000  0.000000e+000 -1.000000e+000
    outer loop
      vertex  4.588816e-001 -6.953125e-001  0.000000e+000
      vertex  3.986110e-001 -6.893764e-001  0.000000e+000
      vertex  4.582969e-001 -6.893764e-001  0.000000e+000
    endloop
  endfacet
endsolid CATIA STL
