solid CATIA STL
  facet normal  -0.000000e+000  0.000000e+000 -1.000000e+000
    outer loop
      vertex  2.421875e-001  4.453125e-001  7.434210e-002
      vertex  2.640625e-001  4.453125e-001  7.434210e-002
      vertex  2.421875e-001 -4.351563e-001  7.434210e-002
    endloop
  endfacet
  facet normal  0.000000e+000  0.000000e+000 -1.000000e+000
    outer loop
      vertex  2.421875e-001 -4.351563e-001  7.434210e-002
      vertex  2.640625e-001  4.453125e-001  7.434210e-002
      vertex  2.640625e-001 -4.296875e-001  7.434210e-002
    endloop
  endfacet
  facet normal  1.000000e+000  0.000000e+000  0.000000e+000
    outer loop
      vertex  2.421875e-001 -4.351563e-001  0.000000e+000
      vertex  2.421875e-001  4.453125e-001  0.000000e+000
      vertex  2.421875e-001 -4.351563e-001  7.434210e-002
    endloop
  endfacet
  facet normal  1.000000e+000  -0.000000e+000  0.000000e+000
    outer loop
      vertex  2.421875e-001 -4.351563e-001  7.434210e-002
      vertex  2.421875e-001  4.453125e-001  0.000000e+000
      vertex  2.421875e-001  4.453125e-001  7.434210e-002
    endloop
  endfacet
  facet normal  0.000000e+000  1.000000e+000  -0.000000e+000
    outer loop
      vertex  2.640625e-001  4.453125e-001  7.031250e-001
      vertex  2.640625e-001  4.453125e-001  7.434210e-002
      vertex -2.656250e-001  4.453125e-001  7.031250e-001
    endloop
  endfacet
  facet normal  0.000000e+000  1.000000e+000  0.000000e+000
    outer loop
      vertex -2.656250e-001  4.453125e-001  7.031250e-001
      vertex  2.640625e-001  4.453125e-001  7.434210e-002
      vertex  2.421875e-001  4.453125e-001  7.434210e-002
    endloop
  endfacet
  facet normal  0.000000e+000  1.000000e+000  0.000000e+000
    outer loop
      vertex -2.656250e-001  4.453125e-001  7.031250e-001
      vertex  2.421875e-001  4.453125e-001  7.434210e-002
      vertex -2.656250e-001  4.453125e-001  0.000000e+000
    endloop
  endfacet
  facet normal  0.000000e+000  1.000000e+000  0.000000e+000
    outer loop
      vertex -2.656250e-001  4.453125e-001  0.000000e+000
      vertex  2.421875e-001  4.453125e-001  7.434210e-002
      vertex  2.421875e-001  4.453125e-001  0.000000e+000
    endloop
  endfacet
  facet normal  1.000000e+000  0.000000e+000  0.000000e+000
    outer loop
      vertex  2.640625e-001 -4.296875e-001  7.031250e-001
      vertex  2.640625e-001 -4.296875e-001  7.434210e-002
      vertex  2.640625e-001  4.453125e-001  7.031250e-001
    endloop
  endfacet
  facet normal  1.000000e+000  0.000000e+000  0.000000e+000
    outer loop
      vertex  2.640625e-001  4.453125e-001  7.031250e-001
      vertex  2.640625e-001 -4.296875e-001  7.434210e-002
      vertex  2.640625e-001  4.453125e-001  7.434210e-002
    endloop
  endfacet
  facet normal  0.000000e+000  0.000000e+000 -1.000000e+000
    outer loop
      vertex  2.328125e-001 -4.375000e-001  0.000000e+000
      vertex -2.656250e-001 -4.375000e-001  0.000000e+000
      vertex  2.421875e-001 -4.351563e-001  0.000000e+000
    endloop
  endfacet
  facet normal  -0.000000e+000  0.000000e+000 -1.000000e+000
    outer loop
      vertex  2.421875e-001 -4.351563e-001  0.000000e+000
      vertex -2.656250e-001 -4.375000e-001  0.000000e+000
      vertex -2.656250e-001  4.453125e-001  0.000000e+000
    endloop
  endfacet
  facet normal  0.000000e+000  0.000000e+000 -1.000000e+000
    outer loop
      vertex  2.421875e-001 -4.351563e-001  0.000000e+000
      vertex -2.656250e-001  4.453125e-001  0.000000e+000
      vertex  2.421875e-001  4.453125e-001  0.000000e+000
    endloop
  endfacet
  facet normal  2.425349e-001 -9.701427e-001  0.000000e+000
    outer loop
      vertex  2.421875e-001 -4.351563e-001  0.000000e+000
      vertex  2.421875e-001 -4.351563e-001  7.434210e-002
      vertex  2.328125e-001 -4.375000e-001  0.000000e+000
    endloop
  endfacet
  facet normal  2.425349e-001 -9.701427e-001  0.000000e+000
    outer loop
      vertex  2.328125e-001 -4.375000e-001  0.000000e+000
      vertex  2.421875e-001 -4.351563e-001  7.434210e-002
      vertex  2.328125e-001 -4.375000e-001  7.031250e-001
    endloop
  endfacet
  facet normal  2.425359e-001 -9.701425e-001  1.642204e-008
    outer loop
      vertex  2.328125e-001 -4.375000e-001  7.031250e-001
      vertex  2.421875e-001 -4.351563e-001  7.434210e-002
      vertex  2.640625e-001 -4.296875e-001  7.434210e-002
    endloop
  endfacet
  facet normal  2.425356e-001 -9.701425e-001  0.000000e+000
    outer loop
      vertex  2.328125e-001 -4.375000e-001  7.031250e-001
      vertex  2.640625e-001 -4.296875e-001  7.434210e-002
      vertex  2.640625e-001 -4.296875e-001  7.031250e-001
    endloop
  endfacet
  facet normal  -0.000000e+000  0.000000e+000  9.999999e-001
    outer loop
      vertex  2.640625e-001  4.453125e-001  7.031250e-001
      vertex -2.656250e-001  4.453125e-001  7.031250e-001
      vertex  2.640625e-001 -4.296875e-001  7.031250e-001
    endloop
  endfacet
  facet normal  0.000000e+000  0.000000e+000  1.000000e+000
    outer loop
      vertex  2.640625e-001 -4.296875e-001  7.031250e-001
      vertex -2.656250e-001  4.453125e-001  7.031250e-001
      vertex -2.656250e-001 -4.375000e-001  7.031250e-001
    endloop
  endfacet
  facet normal  0.000000e+000  0.000000e+000  1.000000e+000
    outer loop
      vertex  2.640625e-001 -4.296875e-001  7.031250e-001
      vertex -2.656250e-001 -4.375000e-001  7.031250e-001
      vertex  2.328125e-001 -4.375000e-001  7.031250e-001
    endloop
  endfacet
  facet normal  0.000000e+000 -1.000000e+000  0.000000e+000
    outer loop
      vertex -2.656250e-001 -4.375000e-001  0.000000e+000
      vertex  2.328125e-001 -4.375000e-001  0.000000e+000
      vertex -2.656250e-001 -4.375000e-001  7.031250e-001
    endloop
  endfacet
  facet normal  0.000000e+000 -1.000000e+000  0.000000e+000
    outer loop
      vertex -2.656250e-001 -4.375000e-001  7.031250e-001
      vertex  2.328125e-001 -4.375000e-001  0.000000e+000
      vertex  2.328125e-001 -4.375000e-001  7.031250e-001
    endloop
  endfacet
  facet normal -1.000000e+000  0.000000e+000  0.000000e+000
    outer loop
      vertex -2.656250e-001  4.453125e-001  7.031250e-001
      vertex -2.656250e-001  4.453125e-001  0.000000e+000
      vertex -2.656250e-001 -4.375000e-001  7.031250e-001
    endloop
  endfacet
  facet normal -1.000000e+000  0.000000e+000  0.000000e+000
    outer loop
      vertex -2.656250e-001 -4.375000e-001  7.031250e-001
      vertex -2.656250e-001  4.453125e-001  0.000000e+000
      vertex -2.656250e-001 -4.375000e-001  0.000000e+000
    endloop
  endfacet
endsolid CATIA STL
