solid CATIA STL
  facet normal  5.695405e-006  2.022371e-005  1.000000e+000
    outer loop
      vertex  3.329617e-001  1.566646e-001  2.031181e-001
      vertex -3.688322e-001  1.315789e-002  2.031250e-001
      vertex  3.125743e-001 -1.787400e-001  2.031250e-001
    endloop
  endfacet
  facet normal  1.543080e-003 -7.498083e-003  9.999707e-001
    outer loop
      vertex -3.688322e-001  1.315789e-002  2.031250e-001
      vertex  3.329617e-001  1.566646e-001  2.031181e-001
      vertex  3.323507e-001  1.574589e-001  2.031250e-001
    endloop
  endfacet
  facet normal  0.000000e+000  0.000000e+000  1.000000e+000
    outer loop
      vertex -2.775494e-001  2.565790e-001  2.031250e-001
      vertex  2.092928e-001  3.174342e-001  2.031250e-001
      vertex -4.934211e-002  3.782895e-001  2.031250e-001
    endloop
  endfacet
  facet normal  0.000000e+000  0.000000e+000  1.000000e+000
    outer loop
      vertex -3.688322e-001  1.315789e-002  2.031250e-001
      vertex  3.323507e-001  1.574589e-001  2.031250e-001
      vertex  2.092928e-001  3.174342e-001  2.031250e-001
    endloop
  endfacet
  facet normal  0.000000e+000  0.000000e+000  1.000000e+000
    outer loop
      vertex -3.688322e-001  1.315789e-002  2.031250e-001
      vertex  2.092928e-001  3.174342e-001  2.031250e-001
      vertex -2.775494e-001  2.565790e-001  2.031250e-001
    endloop
  endfacet
  facet normal  0.000000e+000  -0.000000e+000  9.999999e-001
    outer loop
      vertex -3.688322e-001  1.315789e-002  2.031250e-001
      vertex -2.927631e-001 -2.302632e-001  2.031250e-001
      vertex  3.125743e-001 -1.787400e-001  2.031250e-001
    endloop
  endfacet
  facet normal  0.000000e+000  -0.000000e+000  1.000000e+000
    outer loop
      vertex -2.927631e-001 -2.302632e-001  2.031250e-001
      vertex -7.976974e-002 -3.671875e-001  2.031250e-001
      vertex  3.125743e-001 -1.787400e-001  2.031250e-001
    endloop
  endfacet
  facet normal  0.000000e+000  0.000000e+000  1.000000e+000
    outer loop
      vertex  3.125743e-001 -1.787400e-001  2.031250e-001
      vertex -7.976974e-002 -3.671875e-001  2.031250e-001
      vertex  1.788651e-001 -3.367599e-001  2.031250e-001
    endloop
  endfacet
  facet normal  7.926219e-001  6.097135e-001 -9.308568e-006
    outer loop
      vertex  3.514663e-001  1.326087e-001  1.954248e-001
      vertex  3.405663e-001  1.467786e-001  2.018493e-001
      vertex  3.442908e-001  1.419368e-001  2.003682e-001
    endloop
  endfacet
  facet normal  7.926179e-001  6.097187e-001 -2.496723e-005
    outer loop
      vertex  3.514663e-001  1.326087e-001  1.954248e-001
      vertex  3.442908e-001  1.419368e-001  2.003682e-001
      vertex  3.478922e-001  1.372550e-001  1.982878e-001
    endloop
  endfacet
  facet normal  7.926252e-001  6.097093e-001  5.483907e-006
    outer loop
      vertex  3.329617e-001  1.566646e-001  2.031181e-001
      vertex  3.405663e-001  1.467786e-001  2.018493e-001
      vertex  3.514663e-001  1.326087e-001  1.954248e-001
    endloop
  endfacet
  facet normal  7.926250e-001  6.097094e-001  4.600364e-006
    outer loop
      vertex  3.329617e-001  1.566646e-001  2.031181e-001
      vertex  3.514663e-001  1.326087e-001  1.954248e-001
      vertex  3.545859e-001  1.285531e-001  1.920152e-001
    endloop
  endfacet
  facet normal  7.926242e-001  6.097105e-001  3.429052e-007
    outer loop
      vertex  3.329617e-001  1.566646e-001  2.031181e-001
      vertex  3.545859e-001  1.285531e-001  1.920152e-001
      vertex  3.571883e-001  1.251701e-001  1.881282e-001
    endloop
  endfacet
  facet normal  7.926236e-001  6.097113e-001 -2.489836e-006
    outer loop
      vertex  3.329617e-001  1.566646e-001  2.031181e-001
      vertex  3.571883e-001  1.251701e-001  1.881282e-001
      vertex  3.592177e-001  1.225318e-001  1.838329e-001
    endloop
  endfacet
  facet normal  7.926247e-001  6.097098e-001  1.852670e-006
    outer loop
      vertex  3.329617e-001  1.566646e-001  2.031181e-001
      vertex  3.592177e-001  1.225318e-001  1.838329e-001
      vertex  3.600081e-001  1.215042e-001  1.815302e-001
    endloop
  endfacet
  facet normal  7.926261e-001  6.097080e-001  6.572915e-006
    outer loop
      vertex  3.329617e-001  1.566646e-001  2.031181e-001
      vertex  3.600081e-001  1.215042e-001  1.815302e-001
      vertex  3.606206e-001  1.207080e-001  1.792005e-001
    endloop
  endfacet
  facet normal  7.926219e-001  6.097135e-001 -6.682694e-006
    outer loop
      vertex  3.329617e-001  1.566646e-001  2.031181e-001
      vertex  3.606206e-001  1.207080e-001  1.792005e-001
      vertex  3.610714e-001  1.201220e-001  1.767736e-001
    endloop
  endfacet
  facet normal  7.926239e-001  6.097109e-001 -7.698141e-007
    outer loop
      vertex  3.329617e-001  1.566646e-001  2.031181e-001
      vertex  3.610714e-001  1.201220e-001  1.767736e-001
      vertex  3.613402e-001  1.197726e-001  1.743419e-001
    endloop
  endfacet
  facet normal  7.926235e-001  6.097114e-001 -1.890804e-006
    outer loop
      vertex  3.329617e-001  1.566646e-001  2.031181e-001
      vertex  3.613402e-001  1.197726e-001  1.743419e-001
      vertex  3.614309e-001  1.196546e-001  1.718750e-001
    endloop
  endfacet
  facet normal  7.926242e-001  6.097104e-001  0.000000e+000
    outer loop
      vertex  3.329617e-001  1.566646e-001  2.031181e-001
      vertex  3.614309e-001  1.196546e-001  1.718750e-001
      vertex  3.614309e-001  1.196546e-001  1.015625e-001
    endloop
  endfacet
  facet normal  7.926107e-001  6.097280e-001 -1.024164e-005
    outer loop
      vertex  3.329617e-001  1.566646e-001  2.031181e-001
      vertex  3.614309e-001  1.196546e-001  1.015625e-001
      vertex  3.323507e-001  1.574589e-001  2.031250e-001
    endloop
  endfacet
  facet normal  7.926241e-001  6.097106e-001  6.602284e-008
    outer loop
      vertex  3.323507e-001  1.574589e-001  2.031250e-001
      vertex  3.614309e-001  1.196546e-001  1.015625e-001
      vertex  2.092928e-001  3.174342e-001  2.031250e-001
    endloop
  endfacet
  facet normal  7.926241e-001  6.097107e-001  0.000000e+000
    outer loop
      vertex  2.092928e-001  3.174342e-001  2.031250e-001
      vertex  3.614309e-001  1.196546e-001  1.015625e-001
      vertex  2.092928e-001  3.174342e-001  1.015625e-001
    endloop
  endfacet
  facet normal  9.982744e-001 -5.872204e-002  0.000000e+000
    outer loop
      vertex  3.510387e-001 -5.701261e-002  1.015625e-001
      vertex  3.462171e-001 -1.389803e-001  1.718750e-001
      vertex  3.462171e-001 -1.389803e-001  1.015625e-001
    endloop
  endfacet
  facet normal  9.982743e-001 -5.872198e-002  5.868478e-008
    outer loop
      vertex  3.510387e-001 -5.701261e-002  1.015625e-001
      vertex  3.575271e-001  5.328947e-002  1.015625e-001
      vertex  3.462171e-001 -1.389803e-001  1.718750e-001
    endloop
  endfacet
  facet normal  9.982744e-001 -5.872203e-002 -6.828229e-008
    outer loop
      vertex  3.614309e-001  1.196546e-001  1.718750e-001
      vertex  3.462171e-001 -1.389803e-001  1.718750e-001
      vertex  3.575271e-001  5.328947e-002  1.015625e-001
    endloop
  endfacet
  facet normal  9.982743e-001 -5.872273e-002  6.075420e-007
    outer loop
      vertex  3.614309e-001  1.196546e-001  1.718750e-001
      vertex  3.575271e-001  5.328947e-002  1.015625e-001
      vertex  3.583176e-001  6.672893e-002  1.015625e-001
    endloop
  endfacet
  facet normal  9.982744e-001 -5.872193e-002  0.000000e+000
    outer loop
      vertex  3.614309e-001  1.196546e-001  1.718750e-001
      vertex  3.583176e-001  6.672893e-002  1.015625e-001
      vertex  3.614309e-001  1.196546e-001  1.015625e-001
    endloop
  endfacet
  facet normal  7.633818e-001 -6.459475e-001 -2.424299e-007
    outer loop
      vertex  3.462171e-001 -1.389803e-001  1.015625e-001
      vertex  3.452791e-001 -1.400888e-001  1.792028e-001
      vertex  3.445749e-001 -1.409211e-001  1.815193e-001
    endloop
  endfacet
  facet normal  7.633854e-001 -6.459432e-001 -6.465446e-008
    outer loop
      vertex  3.462171e-001 -1.389803e-001  1.015625e-001
      vertex  3.445749e-001 -1.409211e-001  1.815193e-001
      vertex  3.436630e-001 -1.419987e-001  1.838185e-001
    endloop
  endfacet
  facet normal  7.633823e-001 -6.459470e-001 -3.013869e-007
    outer loop
      vertex  3.462171e-001 -1.389803e-001  1.015625e-001
      vertex  3.436630e-001 -1.419987e-001  1.838185e-001
      vertex  3.426048e-001 -1.432493e-001  1.859623e-001
    endloop
  endfacet
  facet normal  7.633862e-001 -6.459423e-001  1.069664e-007
    outer loop
      vertex  3.462171e-001 -1.389803e-001  1.015625e-001
      vertex  3.426048e-001 -1.432493e-001  1.859623e-001
      vertex  3.399503e-001 -1.463865e-001  1.900390e-001
    endloop
  endfacet
  facet normal  7.633883e-001 -6.459399e-001  4.566946e-007
    outer loop
      vertex  3.462171e-001 -1.389803e-001  1.015625e-001
      vertex  3.399503e-001 -1.463865e-001  1.900390e-001
      vertex  3.366676e-001 -1.502661e-001  1.936858e-001
    endloop
  endfacet
  facet normal  7.633879e-001 -6.459405e-001  3.447932e-007
    outer loop
      vertex  3.462171e-001 -1.389803e-001  1.015625e-001
      vertex  3.366676e-001 -1.502661e-001  1.936858e-001
      vertex  3.328193e-001 -1.548141e-001  1.968336e-001
    endloop
  endfacet
  facet normal  7.633847e-001 -6.459441e-001 -7.112723e-007
    outer loop
      vertex  3.462171e-001 -1.389803e-001  1.015625e-001
      vertex  3.328193e-001 -1.548141e-001  1.968336e-001
      vertex  3.286908e-001 -1.596931e-001  1.993043e-001
    endloop
  endfacet
  facet normal  7.633852e-001 -6.459436e-001 -5.045774e-007
    outer loop
      vertex  3.462171e-001 -1.389803e-001  1.015625e-001
      vertex  3.286908e-001 -1.596931e-001  1.993043e-001
      vertex  3.244047e-001 -1.647585e-001  2.011248e-001
    endloop
  endfacet
  facet normal  7.633874e-001 -6.459410e-001  6.442592e-007
    outer loop
      vertex  3.462171e-001 -1.389803e-001  1.015625e-001
      vertex  3.244047e-001 -1.647585e-001  2.011248e-001
      vertex  3.189596e-001 -1.711937e-001  2.025548e-001
    endloop
  endfacet
  facet normal  7.633855e-001 -6.459432e-001 -5.838598e-007
    outer loop
      vertex  3.462171e-001 -1.389803e-001  1.015625e-001
      vertex  3.189596e-001 -1.711937e-001  2.025548e-001
      vertex  3.125743e-001 -1.787400e-001  2.031250e-001
    endloop
  endfacet
  facet normal  7.633863e-001 -6.459422e-001  9.493874e-008
    outer loop
      vertex  3.462171e-001 -1.389803e-001  1.015625e-001
      vertex  3.125743e-001 -1.787400e-001  2.031250e-001
      vertex  1.788651e-001 -3.367599e-001  2.031250e-001
    endloop
  endfacet
  facet normal  7.633863e-001 -6.459423e-001  0.000000e+000
    outer loop
      vertex  3.462171e-001 -1.389803e-001  1.015625e-001
      vertex  1.788651e-001 -3.367599e-001  2.031250e-001
      vertex  1.788651e-001 -3.367599e-001  1.015625e-001
    endloop
  endfacet
  facet normal  7.633901e-001 -6.459376e-001  0.000000e+000
    outer loop
      vertex  3.452791e-001 -1.400888e-001  1.792028e-001
      vertex  3.462171e-001 -1.389803e-001  1.015625e-001
      vertex  3.462171e-001 -1.389803e-001  1.718750e-001
    endloop
  endfacet
  facet normal  7.633800e-001 -6.459497e-001 -3.121151e-006
    outer loop
      vertex  3.452791e-001 -1.400888e-001  1.792028e-001
      vertex  3.462171e-001 -1.389803e-001  1.718750e-001
      vertex  3.461118e-001 -1.391047e-001  1.743452e-001
    endloop
  endfacet
  facet normal  7.634502e-001 -6.458667e-001  2.572489e-005
    outer loop
      vertex  3.452791e-001 -1.400888e-001  1.792028e-001
      vertex  3.461118e-001 -1.391047e-001  1.743452e-001
      vertex  3.458012e-001 -1.394718e-001  1.767736e-001
    endloop
  endfacet
  facet normal  9.367357e-001 -5.509980e-002  3.456736e-001
    outer loop
      vertex  3.445749e-001 -1.409211e-001  1.815193e-001
      vertex  3.592177e-001  1.225318e-001  1.838329e-001
      vertex  3.436630e-001 -1.419987e-001  1.838185e-001
    endloop
  endfacet
  facet normal  9.074342e-001 -5.338072e-002  4.167896e-001
    outer loop
      vertex  3.426048e-001 -1.432493e-001  1.859623e-001
      vertex  3.436630e-001 -1.419987e-001  1.838185e-001
      vertex  3.592177e-001  1.225318e-001  1.838329e-001
    endloop
  endfacet
  facet normal  8.902154e-001 -5.201785e-002  4.525601e-001
    outer loop
      vertex  3.592177e-001  1.225318e-001  1.838329e-001
      vertex  3.571883e-001  1.251701e-001  1.881282e-001
      vertex  3.426048e-001 -1.432493e-001  1.859623e-001
    endloop
  endfacet
  facet normal  8.542892e-001 -5.058857e-002  5.173303e-001
    outer loop
      vertex  3.426048e-001 -1.432493e-001  1.859623e-001
      vertex  3.571883e-001  1.251701e-001  1.881282e-001
      vertex  3.399503e-001 -1.463865e-001  1.900390e-001
    endloop
  endfacet
  facet normal  8.104967e-001 -4.734077e-002  5.838270e-001
    outer loop
      vertex  3.399503e-001 -1.463865e-001  1.900390e-001
      vertex  3.571883e-001  1.251701e-001  1.881282e-001
      vertex  3.545859e-001  1.285531e-001  1.920152e-001
    endloop
  endfacet
  facet normal  7.659963e-001 -4.538458e-002  6.412410e-001
    outer loop
      vertex  3.399503e-001 -1.463865e-001  1.900390e-001
      vertex  3.545859e-001  1.285531e-001  1.920152e-001
      vertex  3.366676e-001 -1.502661e-001  1.936858e-001
    endloop
  endfacet
  facet normal  7.120391e-001 -4.155950e-002  7.009089e-001
    outer loop
      vertex  3.366676e-001 -1.502661e-001  1.936858e-001
      vertex  3.545859e-001  1.285531e-001  1.920152e-001
      vertex  3.514663e-001  1.326087e-001  1.954248e-001
    endloop
  endfacet
  facet normal  6.599582e-001 -3.913839e-002  7.502821e-001
    outer loop
      vertex  3.366676e-001 -1.502661e-001  1.936858e-001
      vertex  3.514663e-001  1.326087e-001  1.954248e-001
      vertex  3.328193e-001 -1.548141e-001  1.968336e-001
    endloop
  endfacet
  facet normal  5.968666e-001 -3.479376e-002  8.015857e-001
    outer loop
      vertex  3.328193e-001 -1.548141e-001  1.968336e-001
      vertex  3.514663e-001  1.326087e-001  1.954248e-001
      vertex  3.478922e-001  1.372550e-001  1.982878e-001
    endloop
  endfacet
  facet normal  5.409128e-001 -3.209971e-002  8.404660e-001
    outer loop
      vertex  3.328193e-001 -1.548141e-001  1.968336e-001
      vertex  3.478922e-001  1.372550e-001  1.982878e-001
      vertex  3.286908e-001 -1.596931e-001  1.993043e-001
    endloop
  endfacet
  facet normal  4.729013e-001 -2.756425e-002  8.806841e-001
    outer loop
      vertex  3.286908e-001 -1.596931e-001  1.993043e-001
      vertex  3.478922e-001  1.372550e-001  1.982878e-001
      vertex  3.442908e-001  1.419368e-001  2.003682e-001
    endloop
  endfacet
  facet normal  4.153995e-001 -2.469127e-002  9.093040e-001
    outer loop
      vertex  3.286908e-001 -1.596931e-001  1.993043e-001
      vertex  3.442908e-001  1.419368e-001  2.003682e-001
      vertex  3.244047e-001 -1.647585e-001  2.011248e-001
    endloop
  endfacet
  facet normal  3.466956e-001 -2.016633e-002  9.377609e-001
    outer loop
      vertex  3.244047e-001 -1.647585e-001  2.011248e-001
      vertex  3.442908e-001  1.419368e-001  2.003682e-001
      vertex  3.405663e-001  1.467786e-001  2.018493e-001
    endloop
  endfacet
  facet normal  2.720128e-001 -1.634875e-002  9.621547e-001
    outer loop
      vertex  3.244047e-001 -1.647585e-001  2.011248e-001
      vertex  3.405663e-001  1.467786e-001  2.018493e-001
      vertex  3.189596e-001 -1.711937e-001  2.025548e-001
    endloop
  endfacet
  facet normal  1.540910e-001 -8.278385e-003  9.880220e-001
    outer loop
      vertex  3.405663e-001  1.467786e-001  2.018493e-001
      vertex  3.329617e-001  1.566646e-001  2.031181e-001
      vertex  3.189596e-001 -1.711937e-001  2.025548e-001
    endloop
  endfacet
  facet normal  9.573655e-002 -5.798844e-003  9.953898e-001
    outer loop
      vertex  3.125743e-001 -1.787400e-001  2.031250e-001
      vertex  3.189596e-001 -1.711937e-001  2.025548e-001
      vertex  3.329617e-001  1.566646e-001  2.031181e-001
    endloop
  endfacet
  facet normal  9.974934e-001 -5.867609e-002  3.955016e-002
    outer loop
      vertex  3.462171e-001 -1.389803e-001  1.718750e-001
      vertex  3.614309e-001  1.196546e-001  1.718750e-001
      vertex  3.461118e-001 -1.391047e-001  1.743452e-001
    endloop
  endfacet
  facet normal  9.974952e-001 -5.867667e-002  3.950074e-002
    outer loop
      vertex  3.461118e-001 -1.391047e-001  1.743452e-001
      vertex  3.614309e-001  1.196546e-001  1.718750e-001
      vertex  3.613402e-001  1.197726e-001  1.743419e-001
    endloop
  endfacet
  facet normal  9.913003e-001 -5.831124e-002  1.179983e-001
    outer loop
      vertex  3.461118e-001 -1.391047e-001  1.743452e-001
      vertex  3.613402e-001  1.197726e-001  1.743419e-001
      vertex  3.458012e-001 -1.394718e-001  1.767736e-001
    endloop
  endfacet
  facet normal  9.913074e-001 -5.831224e-002  1.179379e-001
    outer loop
      vertex  3.458012e-001 -1.394718e-001  1.767736e-001
      vertex  3.613402e-001  1.197726e-001  1.743419e-001
      vertex  3.610714e-001  1.201220e-001  1.767736e-001
    endloop
  endfacet
  facet normal  9.789580e-001 -5.758580e-002  1.957678e-001
    outer loop
      vertex  3.458012e-001 -1.394718e-001  1.767736e-001
      vertex  3.610714e-001  1.201220e-001  1.767736e-001
      vertex  3.452791e-001 -1.400888e-001  1.792028e-001
    endloop
  endfacet
  facet normal  9.789648e-001 -5.758654e-002  1.957335e-001
    outer loop
      vertex  3.452791e-001 -1.400888e-001  1.792028e-001
      vertex  3.610714e-001  1.201220e-001  1.767736e-001
      vertex  3.606206e-001  1.207080e-001  1.792005e-001
    endloop
  endfacet
  facet normal  9.607036e-001 -5.651164e-002  2.717625e-001
    outer loop
      vertex  3.452791e-001 -1.400888e-001  1.792028e-001
      vertex  3.606206e-001  1.207080e-001  1.792005e-001
      vertex  3.445749e-001 -1.409211e-001  1.815193e-001
    endloop
  endfacet
  facet normal  9.606653e-001 -5.650808e-002  2.718989e-001
    outer loop
      vertex  3.445749e-001 -1.409211e-001  1.815193e-001
      vertex  3.606206e-001  1.207080e-001  1.792005e-001
      vertex  3.600081e-001  1.215042e-001  1.815302e-001
    endloop
  endfacet
  facet normal  9.365859e-001 -5.509505e-002  3.460799e-001
    outer loop
      vertex  3.445749e-001 -1.409211e-001  1.815193e-001
      vertex  3.600081e-001  1.215042e-001  1.815302e-001
      vertex  3.592177e-001  1.225318e-001  1.838329e-001
    endloop
  endfacet
  facet normal  0.000000e+000  0.000000e+000 -9.999999e-001
    outer loop
      vertex -5.032895e-002  3.712171e-001  1.015625e-001
      vertex -2.745066e-001  2.552631e-001  1.015625e-001
      vertex -2.775494e-001  2.565790e-001  1.015625e-001
    endloop
  endfacet
  facet normal  0.000000e+000  0.000000e+000 -1.000000e+000
    outer loop
      vertex -2.745066e-001  2.552631e-001  1.015625e-001
      vertex -3.079396e-001  1.755383e-001  1.015625e-001
      vertex -2.775494e-001  2.565790e-001  1.015625e-001
    endloop
  endfacet
  facet normal  0.000000e+000  0.000000e+000 -1.000000e+000
    outer loop
      vertex -4.934211e-002  3.782895e-001  1.015625e-001
      vertex  2.092928e-001  3.174342e-001  1.015625e-001
      vertex  1.576562e-001  3.270991e-001  1.015625e-001
    endloop
  endfacet
  facet normal  0.000000e+000  0.000000e+000 -1.000000e+000
    outer loop
      vertex -4.934211e-002  3.782895e-001  1.015625e-001
      vertex  1.576562e-001  3.270991e-001  1.015625e-001
      vertex -5.032895e-002  3.712171e-001  1.015625e-001
    endloop
  endfacet
  facet normal  -0.000000e+000  0.000000e+000 -1.000000e+000
    outer loop
      vertex -4.934211e-002  3.782895e-001  1.015625e-001
      vertex -5.032895e-002  3.712171e-001  1.015625e-001
      vertex -2.775494e-001  2.565790e-001  1.015625e-001
    endloop
  endfacet
  facet normal  0.000000e+000  0.000000e+000 -1.000000e+000
    outer loop
      vertex  3.583176e-001  6.672893e-002  1.015625e-001
      vertex  1.576562e-001  3.270991e-001  1.015625e-001
      vertex  3.614309e-001  1.196546e-001  1.015625e-001
    endloop
  endfacet
  facet normal  0.000000e+000  0.000000e+000 -1.000000e+000
    outer loop
      vertex  3.614309e-001  1.196546e-001  1.015625e-001
      vertex  1.576562e-001  3.270991e-001  1.015625e-001
      vertex  2.092928e-001  3.174342e-001  1.015625e-001
    endloop
  endfacet
  facet normal  0.000000e+000  -0.000000e+000 -1.000000e+000
    outer loop
      vertex  2.287483e-002 -3.551117e-001  1.015625e-001
      vertex  7.257737e-002 -3.475810e-001  1.015625e-001
      vertex  1.788651e-001 -3.367599e-001  1.015625e-001
    endloop
  endfacet
  facet normal  -0.000000e+000  0.000000e+000 -9.999999e-001
    outer loop
      vertex  1.788651e-001 -3.367599e-001  1.015625e-001
      vertex  7.257737e-002 -3.475810e-001  1.015625e-001
      vertex  3.510387e-001 -5.701261e-002  1.015625e-001
    endloop
  endfacet
  facet normal  0.000000e+000  0.000000e+000 -1.000000e+000
    outer loop
      vertex  1.788651e-001 -3.367599e-001  1.015625e-001
      vertex  3.510387e-001 -5.701261e-002  1.015625e-001
      vertex  3.462171e-001 -1.389803e-001  1.015625e-001
    endloop
  endfacet
  facet normal  0.000000e+000  -0.000000e+000  1.000000e+000
    outer loop
      vertex  3.510387e-001 -5.701261e-002  1.015625e-001
      vertex  3.543856e-001 -5.352019e-002  1.015625e-001
      vertex  3.575271e-001  5.328947e-002  1.015625e-001
    endloop
  endfacet
  facet normal  0.000000e+000  -0.000000e+000  1.000000e+000
    outer loop
      vertex -3.750000e-001  1.562500e-002  1.015625e-001
      vertex -3.688322e-001  1.315789e-002  1.015625e-001
      vertex -3.079396e-001  1.755383e-001  1.015625e-001
    endloop
  endfacet
  facet normal  0.000000e+000  0.000000e+000  1.000000e+000
    outer loop
      vertex -3.750000e-001  1.562500e-002  1.015625e-001
      vertex -2.976974e-001 -2.317434e-001  1.015625e-001
      vertex -3.688322e-001  1.315789e-002  1.015625e-001
    endloop
  endfacet
  facet normal  0.000000e+000  0.000000e+000  1.000000e+000
    outer loop
      vertex -7.976974e-002 -3.671875e-001  1.015625e-001
      vertex -8.125000e-002 -3.708881e-001  1.015625e-001
      vertex  2.287483e-002 -3.551117e-001  1.015625e-001
    endloop
  endfacet
  facet normal  0.000000e+000  -0.000000e+000  1.000000e+000
    outer loop
      vertex -2.976974e-001 -2.317434e-001  1.015625e-001
      vertex -8.125000e-002 -3.708881e-001  1.015625e-001
      vertex -7.976974e-002 -3.671875e-001  1.015625e-001
    endloop
  endfacet
  facet normal  0.000000e+000  0.000000e+000  1.000000e+000
    outer loop
      vertex -2.976974e-001 -2.317434e-001  1.015625e-001
      vertex -7.976974e-002 -3.671875e-001  1.015625e-001
      vertex -2.927631e-001 -2.302632e-001  1.015625e-001
    endloop
  endfacet
  facet normal  0.000000e+000  0.000000e+000  1.000000e+000
    outer loop
      vertex -2.976974e-001 -2.317434e-001  1.015625e-001
      vertex -2.927631e-001 -2.302632e-001  1.015625e-001
      vertex -3.688322e-001  1.315789e-002  1.015625e-001
    endloop
  endfacet
  facet normal  1.751082e-001 -1.678117e-001  9.701425e-001
    outer loop
      vertex  3.543856e-001 -5.352019e-002  1.015625e-001
      vertex  3.510387e-001 -5.701261e-002  1.015625e-001
      vertex  3.516447e-001 -1.467105e-001  8.593750e-002
    endloop
  endfacet
  facet normal  1.751078e-001 -1.678112e-001  9.701425e-001
    outer loop
      vertex  1.661243e-001 -3.334072e-001  8.712928e-002
      vertex  1.792542e-001 -3.265963e-001  8.593750e-002
      vertex  7.257737e-002 -3.475810e-001  1.015625e-001
    endloop
  endfacet
  facet normal  1.751078e-001 -1.678116e-001  9.701425e-001
    outer loop
      vertex  7.257737e-002 -3.475810e-001  1.015625e-001
      vertex  1.792542e-001 -3.265963e-001  8.593750e-002
      vertex  3.516447e-001 -1.467105e-001  8.593750e-002
    endloop
  endfacet
  facet normal  1.751078e-001 -1.678117e-001  9.701425e-001
    outer loop
      vertex  7.257737e-002 -3.475810e-001  1.015625e-001
      vertex  3.516447e-001 -1.467105e-001  8.593750e-002
      vertex  3.510387e-001 -5.701261e-002  1.015625e-001
    endloop
  endfacet
  facet normal  1.498053e-001 -9.887155e-001  0.000000e+000
    outer loop
      vertex  1.661243e-001 -3.334072e-001  8.712928e-002
      vertex  7.257737e-002 -3.475810e-001  1.015625e-001
      vertex  1.661243e-001 -3.334072e-001  0.000000e+000
    endloop
  endfacet
  facet normal  1.498053e-001 -9.887155e-001  3.649590e-008
    outer loop
      vertex  1.661243e-001 -3.334072e-001  0.000000e+000
      vertex  7.257737e-002 -3.475810e-001  1.015625e-001
      vertex -8.125000e-002 -3.708881e-001  0.000000e+000
    endloop
  endfacet
  facet normal  1.498054e-001 -9.887155e-001 -3.317768e-008
    outer loop
      vertex -8.125000e-002 -3.708881e-001  0.000000e+000
      vertex  7.257737e-002 -3.475810e-001  1.015625e-001
      vertex  2.287483e-002 -3.551117e-001  1.015625e-001
    endloop
  endfacet
  facet normal  1.498054e-001 -9.887155e-001  0.000000e+000
    outer loop
      vertex -8.125000e-002 -3.708881e-001  0.000000e+000
      vertex  2.287483e-002 -3.551117e-001  1.015625e-001
      vertex -8.125000e-002 -3.708881e-001  1.015625e-001
    endloop
  endfacet
  facet normal  9.995677e-001 -2.939872e-002  0.000000e+000
    outer loop
      vertex  3.584563e-001  8.488193e-002  1.721486e-002
      vertex  3.584563e-001  8.488193e-002  8.434764e-002
      vertex  3.579231e-001  6.675214e-002  0.000000e+000
    endloop
  endfacet
  facet normal  9.999283e-001 -1.132331e-002 -3.887431e-003
    outer loop
      vertex  3.579231e-001  6.675214e-002  0.000000e+000
      vertex  3.584563e-001  8.488193e-002  8.434764e-002
      vertex  3.583176e-001  6.672893e-002  1.015625e-001
    endloop
  endfacet
  facet normal  9.982668e-001 -5.872229e-002 -3.891808e-003
    outer loop
      vertex  3.579231e-001  6.675214e-002  0.000000e+000
      vertex  3.583176e-001  6.672893e-002  1.015625e-001
      vertex  3.575271e-001  5.328947e-002  1.015625e-001
    endloop
  endfacet
  facet normal  9.995677e-001 -2.939916e-002  2.084024e-007
    outer loop
      vertex  3.579231e-001  6.675214e-002  0.000000e+000
      vertex  3.575271e-001  5.328947e-002  1.015625e-001
      vertex  3.516447e-001 -1.467105e-001  0.000000e+000
    endloop
  endfacet
  facet normal  9.995677e-001 -2.939907e-002  4.469742e-008
    outer loop
      vertex  3.516447e-001 -1.467105e-001  0.000000e+000
      vertex  3.575271e-001  5.328947e-002  1.015625e-001
      vertex  3.543856e-001 -5.352019e-002  1.015625e-001
    endloop
  endfacet
  facet normal  9.995677e-001 -2.939902e-002  0.000000e+000
    outer loop
      vertex  3.516447e-001 -1.467105e-001  0.000000e+000
      vertex  3.543856e-001 -5.352019e-002  1.015625e-001
      vertex  3.516447e-001 -1.467105e-001  8.593750e-002
    endloop
  endfacet
  facet normal  6.595031e-001  5.073102e-001  5.547000e-001
    outer loop
      vertex  2.333499e-001  2.799510e-001  5.468750e-002
      vertex  1.741999e-001  3.235898e-001  8.510254e-002
      vertex  1.576562e-001  3.270991e-001  1.015625e-001
    endloop
  endfacet
  facet normal  6.732312e-001  5.060960e-001  5.390978e-001
    outer loop
      vertex  3.584563e-001  8.488193e-002  8.434764e-002
      vertex  3.307948e-001  1.532727e-001  5.468750e-002
      vertex  3.583176e-001  6.672893e-002  1.015625e-001
    endloop
  endfacet
  facet normal  6.614413e-001  5.088010e-001  5.510145e-001
    outer loop
      vertex  3.583176e-001  6.672893e-002  1.015625e-001
      vertex  3.307948e-001  1.532727e-001  5.468750e-002
      vertex  2.333499e-001  2.799510e-001  5.468750e-002
    endloop
  endfacet
  facet normal  6.595344e-001  5.082884e-001  5.537665e-001
    outer loop
      vertex  3.583176e-001  6.672893e-002  1.015625e-001
      vertex  2.333499e-001  2.799510e-001  5.468750e-002
      vertex  1.576562e-001  3.270991e-001  1.015625e-001
    endloop
  endfacet
  facet normal  2.075041e-001  9.782342e-001  0.000000e+000
    outer loop
      vertex -5.032895e-002  3.712171e-001  0.000000e+000
      vertex -5.032895e-002  3.712171e-001  1.015625e-001
      vertex  1.576562e-001  3.270991e-001  0.000000e+000
    endloop
  endfacet
  facet normal  2.075041e-001  9.782342e-001  -0.000000e+000
    outer loop
      vertex  1.576562e-001  3.270991e-001  0.000000e+000
      vertex -5.032895e-002  3.712171e-001  1.015625e-001
      vertex  1.576562e-001  3.270991e-001  1.015625e-001
    endloop
  endfacet
  facet normal  2.075048e-001  9.782340e-001  0.000000e+000
    outer loop
      vertex  1.576562e-001  3.270991e-001  0.000000e+000
      vertex  1.576562e-001  3.270991e-001  1.015625e-001
      vertex  1.741999e-001  3.235898e-001  1.645995e-002
    endloop
  endfacet
  facet normal  2.075048e-001  9.782341e-001  -0.000000e+000
    outer loop
      vertex  1.741999e-001  3.235898e-001  1.645995e-002
      vertex  1.576562e-001  3.270991e-001  1.015625e-001
      vertex  1.741999e-001  3.235898e-001  8.510254e-002
    endloop
  endfacet
  facet normal -9.221944e-001  3.867267e-001  0.000000e+000
    outer loop
      vertex -3.750000e-001  1.562500e-002  0.000000e+000
      vertex -3.750000e-001  1.562500e-002  1.015625e-001
      vertex -2.745066e-001  2.552631e-001  0.000000e+000
    endloop
  endfacet
  facet normal -9.221943e-001  3.867267e-001 -3.064097e-008
    outer loop
      vertex -2.745066e-001  2.552631e-001  0.000000e+000
      vertex -3.750000e-001  1.562500e-002  1.015625e-001
      vertex -3.079396e-001  1.755383e-001  1.015625e-001
    endloop
  endfacet
  facet normal -9.221943e-001  3.867267e-001  0.000000e+000
    outer loop
      vertex -2.745066e-001  2.552631e-001  0.000000e+000
      vertex -3.079396e-001  1.755383e-001  1.015625e-001
      vertex -2.745066e-001  2.552631e-001  1.015625e-001
    endloop
  endfacet
  facet normal -4.594229e-001  8.882176e-001  0.000000e+000
    outer loop
      vertex -5.032895e-002  3.712171e-001  1.015625e-001
      vertex -5.032895e-002  3.712171e-001  0.000000e+000
      vertex -2.745066e-001  2.552631e-001  1.015625e-001
    endloop
  endfacet
  facet normal -4.594229e-001  8.882176e-001  0.000000e+000
    outer loop
      vertex -2.745066e-001  2.552631e-001  1.015625e-001
      vertex -5.032895e-002  3.712171e-001  0.000000e+000
      vertex -2.745066e-001  2.552631e-001  0.000000e+000
    endloop
  endfacet
  facet normal -9.363292e-001  3.511234e-001  0.000000e+000
    outer loop
      vertex -3.688322e-001  1.315789e-002  1.015625e-001
      vertex -3.688322e-001  1.315789e-002  2.031250e-001
      vertex -3.079396e-001  1.755383e-001  1.015625e-001
    endloop
  endfacet
  facet normal -9.363292e-001  3.511233e-001 -1.317448e-007
    outer loop
      vertex -3.079396e-001  1.755383e-001  1.015625e-001
      vertex -3.688322e-001  1.315789e-002  2.031250e-001
      vertex -2.775494e-001  2.565790e-001  2.031250e-001
    endloop
  endfacet
  facet normal -9.363292e-001  3.511232e-001  0.000000e+000
    outer loop
      vertex -3.079396e-001  1.755383e-001  1.015625e-001
      vertex -2.775494e-001  2.565790e-001  2.031250e-001
      vertex -2.775494e-001  2.565790e-001  1.015625e-001
    endloop
  endfacet
  facet normal  1.168412e-001 -9.931507e-001  0.000000e+000
    outer loop
      vertex  1.788651e-001 -3.367599e-001  1.015625e-001
      vertex  1.788651e-001 -3.367599e-001  2.031250e-001
      vertex  2.287483e-002 -3.551117e-001  1.015625e-001
    endloop
  endfacet
  facet normal  1.168413e-001 -9.931505e-001 -8.925009e-008
    outer loop
      vertex  2.287483e-002 -3.551117e-001  1.015625e-001
      vertex  1.788651e-001 -3.367599e-001  2.031250e-001
      vertex -7.976974e-002 -3.671875e-001  2.031250e-001
    endloop
  endfacet
  facet normal  1.168414e-001 -9.931506e-001  0.000000e+000
    outer loop
      vertex  2.287483e-002 -3.551117e-001  1.015625e-001
      vertex -7.976974e-002 -3.671875e-001  2.031250e-001
      vertex -7.976974e-002 -3.671875e-001  1.015625e-001
    endloop
  endfacet
  facet normal -5.407575e-001 -8.411784e-001  0.000000e+000
    outer loop
      vertex -2.927631e-001 -2.302632e-001  2.031250e-001
      vertex -2.927631e-001 -2.302632e-001  1.015625e-001
      vertex -7.976974e-002 -3.671875e-001  2.031250e-001
    endloop
  endfacet
  facet normal -5.407575e-001 -8.411784e-001  -0.000000e+000
    outer loop
      vertex -7.976974e-002 -3.671875e-001  2.031250e-001
      vertex -2.927631e-001 -2.302632e-001  1.015625e-001
      vertex -7.976974e-002 -3.671875e-001  1.015625e-001
    endloop
  endfacet
  facet normal -9.544799e-001 -2.982750e-001  0.000000e+000
    outer loop
      vertex -3.688322e-001  1.315789e-002  2.031250e-001
      vertex -3.688322e-001  1.315789e-002  1.015625e-001
      vertex -2.927631e-001 -2.302632e-001  2.031250e-001
    endloop
  endfacet
  facet normal -9.544799e-001 -2.982750e-001  -0.000000e+000
    outer loop
      vertex -2.927631e-001 -2.302632e-001  2.031250e-001
      vertex -3.688322e-001  1.315789e-002  1.015625e-001
      vertex -2.927631e-001 -2.302632e-001  1.015625e-001
    endloop
  endfacet
  facet normal -4.705882e-001  8.823530e-001  0.000000e+000
    outer loop
      vertex -4.934211e-002  3.782895e-001  2.031250e-001
      vertex -4.934211e-002  3.782895e-001  1.015625e-001
      vertex -2.775494e-001  2.565790e-001  2.031250e-001
    endloop
  endfacet
  facet normal -4.705882e-001  8.823530e-001  0.000000e+000
    outer loop
      vertex -2.775494e-001  2.565790e-001  2.031250e-001
      vertex -4.934211e-002  3.782895e-001  1.015625e-001
      vertex -2.775494e-001  2.565790e-001  1.015625e-001
    endloop
  endfacet
  facet normal  2.290393e-001  9.734172e-001  -0.000000e+000
    outer loop
      vertex  2.092928e-001  3.174342e-001  2.031250e-001
      vertex  2.092928e-001  3.174342e-001  1.015625e-001
      vertex -4.934211e-002  3.782895e-001  2.031250e-001
    endloop
  endfacet
  facet normal  2.290393e-001  9.734172e-001  0.000000e+000
    outer loop
      vertex -4.934211e-002  3.782895e-001  2.031250e-001
      vertex  2.092928e-001  3.174342e-001  1.015625e-001
      vertex -4.934211e-002  3.782895e-001  1.015625e-001
    endloop
  endfacet
  facet normal  7.219883e-001 -6.919054e-001  0.000000e+000
    outer loop
      vertex  1.792542e-001 -3.265963e-001  8.593750e-002
      vertex  1.792542e-001 -3.265963e-001  0.000000e+000
      vertex  3.516447e-001 -1.467105e-001  8.593750e-002
    endloop
  endfacet
  facet normal  7.219883e-001 -6.919054e-001  0.000000e+000
    outer loop
      vertex  3.516447e-001 -1.467105e-001  8.593750e-002
      vertex  1.792542e-001 -3.265963e-001  0.000000e+000
      vertex  3.516447e-001 -1.467105e-001  0.000000e+000
    endloop
  endfacet
  facet normal  0.000000e+000  0.000000e+000 -1.000000e+000
    outer loop
      vertex -2.976974e-001 -2.317434e-001  0.000000e+000
      vertex -3.750000e-001  1.562500e-002  0.000000e+000
      vertex  3.579231e-001  6.675214e-002  0.000000e+000
    endloop
  endfacet
  facet normal  0.000000e+000  0.000000e+000 -1.000000e+000
    outer loop
      vertex -2.976974e-001 -2.317434e-001  0.000000e+000
      vertex  3.579231e-001  6.675214e-002  0.000000e+000
      vertex  3.516447e-001 -1.467105e-001  0.000000e+000
    endloop
  endfacet
  facet normal  0.000000e+000  0.000000e+000 -1.000000e+000
    outer loop
      vertex -2.976974e-001 -2.317434e-001  0.000000e+000
      vertex  3.516447e-001 -1.467105e-001  0.000000e+000
      vertex  1.792542e-001 -3.265963e-001  0.000000e+000
    endloop
  endfacet
  facet normal  -0.000000e+000  0.000000e+000 -1.000000e+000
    outer loop
      vertex -2.976974e-001 -2.317434e-001  0.000000e+000
      vertex  1.792542e-001 -3.265963e-001  0.000000e+000
      vertex  1.661243e-001 -3.334072e-001  0.000000e+000
    endloop
  endfacet
  facet normal  -0.000000e+000  0.000000e+000 -1.000000e+000
    outer loop
      vertex -2.976974e-001 -2.317434e-001  0.000000e+000
      vertex  1.661243e-001 -3.334072e-001  0.000000e+000
      vertex -8.125000e-002 -3.708881e-001  0.000000e+000
    endloop
  endfacet
  facet normal  0.000000e+000  -0.000000e+000 -1.000000e+000
    outer loop
      vertex -3.750000e-001  1.562500e-002  0.000000e+000
      vertex -2.745066e-001  2.552631e-001  0.000000e+000
      vertex  3.579231e-001  6.675214e-002  0.000000e+000
    endloop
  endfacet
  facet normal  0.000000e+000  0.000000e+000 -1.000000e+000
    outer loop
      vertex  3.579231e-001  6.675214e-002  0.000000e+000
      vertex -2.745066e-001  2.552631e-001  0.000000e+000
      vertex -5.032895e-002  3.712171e-001  0.000000e+000
    endloop
  endfacet
  facet normal  0.000000e+000  0.000000e+000 -1.000000e+000
    outer loop
      vertex  3.579231e-001  6.675214e-002  0.000000e+000
      vertex -5.032895e-002  3.712171e-001  0.000000e+000
      vertex  1.576562e-001  3.270991e-001  0.000000e+000
    endloop
  endfacet
  facet normal  4.604667e-001 -8.876770e-001  0.000000e+000
    outer loop
      vertex  1.661243e-001 -3.334072e-001  8.712928e-002
      vertex  1.661243e-001 -3.334072e-001  0.000000e+000
      vertex  1.792542e-001 -3.265963e-001  8.593750e-002
    endloop
  endfacet
  facet normal  4.604667e-001 -8.876770e-001  0.000000e+000
    outer loop
      vertex  1.792542e-001 -3.265963e-001  8.593750e-002
      vertex  1.661243e-001 -3.334072e-001  0.000000e+000
      vertex  1.792542e-001 -3.265963e-001  0.000000e+000
    endloop
  endfacet
  facet normal  5.936798e-001  8.047013e-001  0.000000e+000
    outer loop
      vertex  1.741999e-001  3.235898e-001  1.645995e-002
      vertex  1.741999e-001  3.235898e-001  8.510254e-002
      vertex  2.333499e-001  2.799510e-001  4.687500e-002
    endloop
  endfacet
  facet normal  5.936799e-001  8.047013e-001  -0.000000e+000
    outer loop
      vertex  2.333499e-001  2.799510e-001  4.687500e-002
      vertex  1.741999e-001  3.235898e-001  8.510254e-002
      vertex  2.333499e-001  2.799510e-001  5.468750e-002
    endloop
  endfacet
  facet normal  7.926240e-001  6.097108e-001  -0.000000e+000
    outer loop
      vertex  3.307948e-001  1.532727e-001  5.468750e-002
      vertex  3.307948e-001  1.532727e-001  4.687500e-002
      vertex  2.333499e-001  2.799510e-001  5.468750e-002
    endloop
  endfacet
  facet normal  7.926240e-001  6.097108e-001  0.000000e+000
    outer loop
      vertex  2.333499e-001  2.799510e-001  5.468750e-002
      vertex  3.307948e-001  1.532727e-001  4.687500e-002
      vertex  2.333499e-001  2.799510e-001  4.687500e-002
    endloop
  endfacet
  facet normal  9.270433e-001  3.749540e-001  -0.000000e+000
    outer loop
      vertex  3.584563e-001  8.488193e-002  8.434764e-002
      vertex  3.584563e-001  8.488193e-002  1.721486e-002
      vertex  3.307948e-001  1.532727e-001  5.468750e-002
    endloop
  endfacet
  facet normal  9.270434e-001  3.749540e-001  0.000000e+000
    outer loop
      vertex  3.307948e-001  1.532727e-001  5.468750e-002
      vertex  3.584563e-001  8.488193e-002  1.721486e-002
      vertex  3.307948e-001  1.532727e-001  4.687500e-002
    endloop
  endfacet
  facet normal  6.595030e-001  5.073102e-001 -5.547000e-001
    outer loop
      vertex  1.576562e-001  3.270991e-001  0.000000e+000
      vertex  1.741999e-001  3.235898e-001  1.645995e-002
      vertex  2.333499e-001  2.799510e-001  4.687500e-002
    endloop
  endfacet
  facet normal  6.595031e-001  5.073100e-001 -5.547001e-001
    outer loop
      vertex  1.576562e-001  3.270991e-001  0.000000e+000
      vertex  2.333499e-001  2.799510e-001  4.687500e-002
      vertex  3.579231e-001  6.675214e-002  0.000000e+000
    endloop
  endfacet
  facet normal  6.595030e-001  5.073100e-001 -5.547001e-001
    outer loop
      vertex  3.579231e-001  6.675214e-002  0.000000e+000
      vertex  2.333499e-001  2.799510e-001  4.687500e-002
      vertex  3.307948e-001  1.532727e-001  4.687500e-002
    endloop
  endfacet
  facet normal  6.595032e-001  5.073100e-001 -5.547001e-001
    outer loop
      vertex  3.579231e-001  6.675214e-002  0.000000e+000
      vertex  3.307948e-001  1.532727e-001  4.687500e-002
      vertex  3.584563e-001  8.488193e-002  1.721486e-002
    endloop
  endfacet
  facet normal -5.407575e-001 -8.411785e-001  0.000000e+000
    outer loop
      vertex -2.976974e-001 -2.317434e-001  1.015625e-001
      vertex -2.976974e-001 -2.317434e-001  0.000000e+000
      vertex -8.125000e-002 -3.708881e-001  1.015625e-001
    endloop
  endfacet
  facet normal -5.407575e-001 -8.411785e-001  -0.000000e+000
    outer loop
      vertex -8.125000e-002 -3.708881e-001  1.015625e-001
      vertex -2.976974e-001 -2.317434e-001  0.000000e+000
      vertex -8.125000e-002 -3.708881e-001  0.000000e+000
    endloop
  endfacet
  facet normal -9.544799e-001 -2.982750e-001  0.000000e+000
    outer loop
      vertex -3.750000e-001  1.562500e-002  1.015625e-001
      vertex -3.750000e-001  1.562500e-002  0.000000e+000
      vertex -2.976974e-001 -2.317434e-001  1.015625e-001
    endloop
  endfacet
  facet normal -9.544799e-001 -2.982750e-001  -0.000000e+000
    outer loop
      vertex -2.976974e-001 -2.317434e-001  1.015625e-001
      vertex -3.750000e-001  1.562500e-002  0.000000e+000
      vertex -2.976974e-001 -2.317434e-001  0.000000e+000
    endloop
  endfacet
endsolid CATIA STL
