solid CATIA STL
  facet normal -9.951848e-001  0.000000e+000  9.801719e-002
    outer loop
      vertex -1.582237e-001 -7.187500e-001  2.968750e-001
      vertex -1.582237e-001 -7.500000e-001  2.968750e-001
      vertex -1.571144e-001 -7.187500e-001  3.081376e-001
    endloop
  endfacet
  facet normal -9.951848e-001  0.000000e+000  9.801719e-002
    outer loop
      vertex -1.571144e-001 -7.187500e-001  3.081376e-001
      vertex -1.582237e-001 -7.500000e-001  2.968750e-001
      vertex -1.571144e-001 -7.500000e-001  3.081376e-001
    endloop
  endfacet
  facet normal -9.569401e-001  0.000000e+000  2.902853e-001
    outer loop
      vertex -1.571144e-001 -7.187500e-001  3.081376e-001
      vertex -1.571144e-001 -7.500000e-001  3.081376e-001
      vertex -1.538292e-001 -7.187500e-001  3.189674e-001
    endloop
  endfacet
  facet normal -9.569401e-001  0.000000e+000  2.902853e-001
    outer loop
      vertex -1.538292e-001 -7.187500e-001  3.189674e-001
      vertex -1.571144e-001 -7.500000e-001  3.081376e-001
      vertex -1.538292e-001 -7.500000e-001  3.189674e-001
    endloop
  endfacet
  facet normal -8.819216e-001  0.000000e+000  4.713961e-001
    outer loop
      vertex -1.538292e-001 -7.187500e-001  3.189674e-001
      vertex -1.538292e-001 -7.500000e-001  3.189674e-001
      vertex -1.484944e-001 -7.187500e-001  3.289482e-001
    endloop
  endfacet
  facet normal -8.819216e-001  0.000000e+000  4.713961e-001
    outer loop
      vertex -1.484944e-001 -7.187500e-001  3.289482e-001
      vertex -1.538292e-001 -7.500000e-001  3.189674e-001
      vertex -1.484944e-001 -7.500000e-001  3.289482e-001
    endloop
  endfacet
  facet normal -7.730101e-001  0.000000e+000  6.343938e-001
    outer loop
      vertex -1.484944e-001 -7.187500e-001  3.289482e-001
      vertex -1.484944e-001 -7.500000e-001  3.289482e-001
      vertex -1.413149e-001 -7.187500e-001  3.376965e-001
    endloop
  endfacet
  facet normal -7.730101e-001  0.000000e+000  6.343938e-001
    outer loop
      vertex -1.413149e-001 -7.187500e-001  3.376965e-001
      vertex -1.484944e-001 -7.500000e-001  3.289482e-001
      vertex -1.413149e-001 -7.500000e-001  3.376965e-001
    endloop
  endfacet
  facet normal -6.343931e-001  0.000000e+000  7.730106e-001
    outer loop
      vertex -1.413149e-001 -7.187500e-001  3.376965e-001
      vertex -1.413149e-001 -7.500000e-001  3.376965e-001
      vertex -1.325666e-001 -7.187500e-001  3.448760e-001
    endloop
  endfacet
  facet normal -6.343931e-001  0.000000e+000  7.730106e-001
    outer loop
      vertex -1.325666e-001 -7.187500e-001  3.448760e-001
      vertex -1.413149e-001 -7.500000e-001  3.376965e-001
      vertex -1.325666e-001 -7.500000e-001  3.448760e-001
    endloop
  endfacet
  facet normal -4.713972e-001  0.000000e+000  8.819211e-001
    outer loop
      vertex -1.325666e-001 -7.187500e-001  3.448760e-001
      vertex -1.325666e-001 -7.500000e-001  3.448760e-001
      vertex -1.225858e-001 -7.187500e-001  3.502108e-001
    endloop
  endfacet
  facet normal -4.713972e-001  0.000000e+000  8.819211e-001
    outer loop
      vertex -1.225858e-001 -7.187500e-001  3.502108e-001
      vertex -1.325666e-001 -7.500000e-001  3.448760e-001
      vertex -1.225858e-001 -7.500000e-001  3.502108e-001
    endloop
  endfacet
  facet normal -2.902836e-001  0.000000e+000  9.569407e-001
    outer loop
      vertex -1.225858e-001 -7.187500e-001  3.502108e-001
      vertex -1.225858e-001 -7.500000e-001  3.502108e-001
      vertex -1.117560e-001 -7.187500e-001  3.534960e-001
    endloop
  endfacet
  facet normal -2.902836e-001  0.000000e+000  9.569407e-001
    outer loop
      vertex -1.117560e-001 -7.187500e-001  3.534960e-001
      vertex -1.225858e-001 -7.500000e-001  3.502108e-001
      vertex -1.117560e-001 -7.500000e-001  3.534960e-001
    endloop
  endfacet
  facet normal -9.801731e-002  0.000000e+000  9.951847e-001
    outer loop
      vertex -1.117560e-001 -7.187500e-001  3.534960e-001
      vertex -1.117560e-001 -7.500000e-001  3.534960e-001
      vertex -1.004934e-001 -7.187500e-001  3.546053e-001
    endloop
  endfacet
  facet normal -9.801731e-002  0.000000e+000  9.951847e-001
    outer loop
      vertex -1.004934e-001 -7.187500e-001  3.546053e-001
      vertex -1.117560e-001 -7.500000e-001  3.534960e-001
      vertex -1.004934e-001 -7.500000e-001  3.546053e-001
    endloop
  endfacet
  facet normal  9.801725e-002  -0.000000e+000  9.951847e-001
    outer loop
      vertex -1.004934e-001 -7.187500e-001  3.546053e-001
      vertex -1.004934e-001 -7.500000e-001  3.546053e-001
      vertex -8.923081e-002 -7.187500e-001  3.534960e-001
    endloop
  endfacet
  facet normal  9.801725e-002  0.000000e+000  9.951847e-001
    outer loop
      vertex -8.923081e-002 -7.187500e-001  3.534960e-001
      vertex -1.004934e-001 -7.500000e-001  3.546053e-001
      vertex -8.923081e-002 -7.500000e-001  3.534960e-001
    endloop
  endfacet
  facet normal  2.902836e-001  -0.000000e+000  9.569407e-001
    outer loop
      vertex -8.923081e-002 -7.187500e-001  3.534960e-001
      vertex -8.923081e-002 -7.500000e-001  3.534960e-001
      vertex -7.840101e-002 -7.187500e-001  3.502108e-001
    endloop
  endfacet
  facet normal  2.902836e-001  0.000000e+000  9.569407e-001
    outer loop
      vertex -7.840101e-002 -7.187500e-001  3.502108e-001
      vertex -8.923081e-002 -7.500000e-001  3.534960e-001
      vertex -7.840101e-002 -7.500000e-001  3.502108e-001
    endloop
  endfacet
  facet normal  4.713972e-001  -0.000000e+000  8.819211e-001
    outer loop
      vertex -7.840101e-002 -7.187500e-001  3.502108e-001
      vertex -7.840101e-002 -7.500000e-001  3.502108e-001
      vertex -6.842021e-002 -7.187500e-001  3.448760e-001
    endloop
  endfacet
  facet normal  4.713972e-001  0.000000e+000  8.819211e-001
    outer loop
      vertex -6.842021e-002 -7.187500e-001  3.448760e-001
      vertex -7.840101e-002 -7.500000e-001  3.502108e-001
      vertex -6.842021e-002 -7.500000e-001  3.448760e-001
    endloop
  endfacet
  facet normal  6.343931e-001  -0.000000e+000  7.730106e-001
    outer loop
      vertex -6.842021e-002 -7.187500e-001  3.448760e-001
      vertex -6.842021e-002 -7.500000e-001  3.448760e-001
      vertex -5.967196e-002 -7.187500e-001  3.376965e-001
    endloop
  endfacet
  facet normal  6.343931e-001  0.000000e+000  7.730106e-001
    outer loop
      vertex -5.967196e-002 -7.187500e-001  3.376965e-001
      vertex -6.842021e-002 -7.500000e-001  3.448760e-001
      vertex -5.967196e-002 -7.500000e-001  3.376965e-001
    endloop
  endfacet
  facet normal  7.730101e-001  -0.000000e+000  6.343938e-001
    outer loop
      vertex -5.967196e-002 -7.187500e-001  3.376965e-001
      vertex -5.967196e-002 -7.500000e-001  3.376965e-001
      vertex -5.249246e-002 -7.187500e-001  3.289482e-001
    endloop
  endfacet
  facet normal  7.730101e-001  0.000000e+000  6.343938e-001
    outer loop
      vertex -5.249246e-002 -7.187500e-001  3.289482e-001
      vertex -5.967196e-002 -7.500000e-001  3.376965e-001
      vertex -5.249246e-002 -7.500000e-001  3.289482e-001
    endloop
  endfacet
  facet normal  8.819218e-001  -0.000000e+000  4.713959e-001
    outer loop
      vertex -5.249246e-002 -7.187500e-001  3.289482e-001
      vertex -5.249246e-002 -7.500000e-001  3.289482e-001
      vertex -4.715761e-002 -7.187500e-001  3.189674e-001
    endloop
  endfacet
  facet normal  8.819218e-001  0.000000e+000  4.713959e-001
    outer loop
      vertex -4.715761e-002 -7.187500e-001  3.189674e-001
      vertex -5.249246e-002 -7.500000e-001  3.289482e-001
      vertex -4.715761e-002 -7.500000e-001  3.189674e-001
    endloop
  endfacet
  facet normal  9.569401e-001  -0.000000e+000  2.902853e-001
    outer loop
      vertex -4.715761e-002 -7.187500e-001  3.189674e-001
      vertex -4.715761e-002 -7.500000e-001  3.189674e-001
      vertex -4.387243e-002 -7.187500e-001  3.081376e-001
    endloop
  endfacet
  facet normal  9.569401e-001  0.000000e+000  2.902853e-001
    outer loop
      vertex -4.387243e-002 -7.187500e-001  3.081376e-001
      vertex -4.715761e-002 -7.500000e-001  3.189674e-001
      vertex -4.387243e-002 -7.500000e-001  3.081376e-001
    endloop
  endfacet
  facet normal  9.951848e-001  -0.000000e+000  9.801685e-002
    outer loop
      vertex -4.387243e-002 -7.187500e-001  3.081376e-001
      vertex -4.387243e-002 -7.500000e-001  3.081376e-001
      vertex -4.276316e-002 -7.187500e-001  2.968750e-001
    endloop
  endfacet
  facet normal  9.951848e-001  0.000000e+000  9.801685e-002
    outer loop
      vertex -4.276316e-002 -7.187500e-001  2.968750e-001
      vertex -4.387243e-002 -7.500000e-001  3.081376e-001
      vertex -4.276316e-002 -7.500000e-001  2.968750e-001
    endloop
  endfacet
  facet normal -9.951848e-001  0.000000e+000  9.801719e-002
    outer loop
      vertex -1.582237e-001 -3.204673e-018  2.968750e-001
      vertex -1.582237e-001 -3.125000e-002  2.968750e-001
      vertex -1.571144e-001 -2.517896e-018  3.081376e-001
    endloop
  endfacet
  facet normal -9.951848e-001  0.000000e+000  9.801719e-002
    outer loop
      vertex -1.571144e-001 -2.517896e-018  3.081376e-001
      vertex -1.582237e-001 -3.125000e-002  2.968750e-001
      vertex -1.571144e-001 -3.125000e-002  3.081376e-001
    endloop
  endfacet
  facet normal -9.569401e-001  0.000000e+000  2.902853e-001
    outer loop
      vertex -1.571144e-001 -2.517896e-018  3.081376e-001
      vertex -1.571144e-001 -3.125000e-002  3.081376e-001
      vertex -1.538292e-001 -1.734357e-018  3.189674e-001
    endloop
  endfacet
  facet normal -9.569401e-001  0.000000e+000  2.902853e-001
    outer loop
      vertex -1.538292e-001 -1.734357e-018  3.189674e-001
      vertex -1.571144e-001 -3.125000e-002  3.081376e-001
      vertex -1.538292e-001 -3.125000e-002  3.189674e-001
    endloop
  endfacet
  facet normal -8.819216e-001  0.000000e+000  4.713961e-001
    outer loop
      vertex -1.538292e-001 -1.734357e-018  3.189674e-001
      vertex -1.538292e-001 -3.125000e-002  3.189674e-001
      vertex -1.484944e-001 -8.841674e-019  3.289482e-001
    endloop
  endfacet
  facet normal -8.819216e-001  0.000000e+000  4.713961e-001
    outer loop
      vertex -1.484944e-001 -8.841674e-019  3.289482e-001
      vertex -1.538292e-001 -3.125000e-002  3.189674e-001
      vertex -1.484944e-001 -3.125000e-002  3.289482e-001
    endloop
  endfacet
  facet normal -7.730101e-001  0.000000e+000  6.343938e-001
    outer loop
      vertex -1.484944e-001 -8.841674e-019  3.289482e-001
      vertex -1.484944e-001 -3.125000e-002  3.289482e-001
      vertex -1.413149e-001  7.703720e-034  3.376965e-001
    endloop
  endfacet
  facet normal -7.730101e-001  0.000000e+000  6.343938e-001
    outer loop
      vertex -1.413149e-001  7.703720e-034  3.376965e-001
      vertex -1.484944e-001 -3.125000e-002  3.289482e-001
      vertex -1.413149e-001 -3.125000e-002  3.376965e-001
    endloop
  endfacet
  facet normal -6.343931e-001  0.000000e+000  7.730106e-001
    outer loop
      vertex -1.413149e-001  7.703720e-034  3.376965e-001
      vertex -1.413149e-001 -3.125000e-002  3.376965e-001
      vertex -1.325666e-001  8.841674e-019  3.448760e-001
    endloop
  endfacet
  facet normal -6.343931e-001  0.000000e+000  7.730106e-001
    outer loop
      vertex -1.325666e-001  8.841674e-019  3.448760e-001
      vertex -1.413149e-001 -3.125000e-002  3.376965e-001
      vertex -1.325666e-001 -3.125000e-002  3.448760e-001
    endloop
  endfacet
  facet normal -4.713972e-001  0.000000e+000  8.819211e-001
    outer loop
      vertex -1.325666e-001  8.841674e-019  3.448760e-001
      vertex -1.325666e-001 -3.125000e-002  3.448760e-001
      vertex -1.225858e-001  1.734357e-018  3.502108e-001
    endloop
  endfacet
  facet normal -4.713972e-001  0.000000e+000  8.819211e-001
    outer loop
      vertex -1.225858e-001  1.734357e-018  3.502108e-001
      vertex -1.325666e-001 -3.125000e-002  3.448760e-001
      vertex -1.225858e-001 -3.125000e-002  3.502108e-001
    endloop
  endfacet
  facet normal -2.902836e-001  0.000000e+000  9.569407e-001
    outer loop
      vertex -1.225858e-001  1.734357e-018  3.502108e-001
      vertex -1.225858e-001 -3.125000e-002  3.502108e-001
      vertex -1.117560e-001  2.517896e-018  3.534960e-001
    endloop
  endfacet
  facet normal -2.902836e-001  0.000000e+000  9.569407e-001
    outer loop
      vertex -1.117560e-001  2.517896e-018  3.534960e-001
      vertex -1.225858e-001 -3.125000e-002  3.502108e-001
      vertex -1.117560e-001 -3.125000e-002  3.534960e-001
    endloop
  endfacet
  facet normal -9.801731e-002  0.000000e+000  9.951847e-001
    outer loop
      vertex -1.117560e-001  2.517896e-018  3.534960e-001
      vertex -1.117560e-001 -3.125000e-002  3.534960e-001
      vertex -1.004934e-001  3.204673e-018  3.546053e-001
    endloop
  endfacet
  facet normal -9.801731e-002  0.000000e+000  9.951847e-001
    outer loop
      vertex -1.004934e-001  3.204673e-018  3.546053e-001
      vertex -1.117560e-001 -3.125000e-002  3.534960e-001
      vertex -1.004934e-001 -3.125000e-002  3.546053e-001
    endloop
  endfacet
  facet normal  9.801725e-002  -0.000000e+000  9.951847e-001
    outer loop
      vertex -1.004934e-001  3.204673e-018  3.546053e-001
      vertex -1.004934e-001 -3.125000e-002  3.546053e-001
      vertex -8.923081e-002  3.768297e-018  3.534960e-001
    endloop
  endfacet
  facet normal  9.801725e-002  0.000000e+000  9.951847e-001
    outer loop
      vertex -8.923081e-002  3.768297e-018  3.534960e-001
      vertex -1.004934e-001 -3.125000e-002  3.546053e-001
      vertex -8.923081e-002 -3.125000e-002  3.534960e-001
    endloop
  endfacet
  facet normal  2.902836e-001  -0.000000e+000  9.569407e-001
    outer loop
      vertex -8.923081e-002  3.768297e-018  3.534960e-001
      vertex -8.923081e-002 -3.125000e-002  3.534960e-001
      vertex -7.840101e-002  4.187108e-018  3.502108e-001
    endloop
  endfacet
  facet normal  2.902836e-001  0.000000e+000  9.569407e-001
    outer loop
      vertex -7.840101e-002  4.187108e-018  3.502108e-001
      vertex -8.923081e-002 -3.125000e-002  3.534960e-001
      vertex -7.840101e-002 -3.125000e-002  3.502108e-001
    endloop
  endfacet
  facet normal  4.713972e-001  -0.000000e+000  8.819211e-001
    outer loop
      vertex -7.840101e-002  4.187108e-018  3.502108e-001
      vertex -7.840101e-002 -3.125000e-002  3.502108e-001
      vertex -6.842021e-002  4.445010e-018  3.448760e-001
    endloop
  endfacet
  facet normal  4.713972e-001  0.000000e+000  8.819211e-001
    outer loop
      vertex -6.842021e-002  4.445010e-018  3.448760e-001
      vertex -7.840101e-002 -3.125000e-002  3.502108e-001
      vertex -6.842021e-002 -3.125000e-002  3.448760e-001
    endloop
  endfacet
  facet normal  6.343931e-001  -0.000000e+000  7.730106e-001
    outer loop
      vertex -6.842021e-002  4.445010e-018  3.448760e-001
      vertex -6.842021e-002 -3.125000e-002  3.448760e-001
      vertex -5.967196e-002  4.532092e-018  3.376965e-001
    endloop
  endfacet
  facet normal  6.343931e-001  0.000000e+000  7.730106e-001
    outer loop
      vertex -5.967196e-002  4.532092e-018  3.376965e-001
      vertex -6.842021e-002 -3.125000e-002  3.448760e-001
      vertex -5.967196e-002 -3.125000e-002  3.376965e-001
    endloop
  endfacet
  facet normal  7.730101e-001  -0.000000e+000  6.343938e-001
    outer loop
      vertex -5.967196e-002  4.532092e-018  3.376965e-001
      vertex -5.967196e-002 -3.125000e-002  3.376965e-001
      vertex -5.249246e-002  4.445010e-018  3.289482e-001
    endloop
  endfacet
  facet normal  7.730101e-001  0.000000e+000  6.343938e-001
    outer loop
      vertex -5.249246e-002  4.445010e-018  3.289482e-001
      vertex -5.967196e-002 -3.125000e-002  3.376965e-001
      vertex -5.249246e-002 -3.125000e-002  3.289482e-001
    endloop
  endfacet
  facet normal  8.819218e-001  -0.000000e+000  4.713959e-001
    outer loop
      vertex -5.249246e-002  4.445010e-018  3.289482e-001
      vertex -5.249246e-002 -3.125000e-002  3.289482e-001
      vertex -4.715761e-002  4.187108e-018  3.189674e-001
    endloop
  endfacet
  facet normal  8.819218e-001  0.000000e+000  4.713959e-001
    outer loop
      vertex -4.715761e-002  4.187108e-018  3.189674e-001
      vertex -5.249246e-002 -3.125000e-002  3.289482e-001
      vertex -4.715761e-002 -3.125000e-002  3.189674e-001
    endloop
  endfacet
  facet normal  9.569401e-001  -0.000000e+000  2.902853e-001
    outer loop
      vertex -4.715761e-002  4.187108e-018  3.189674e-001
      vertex -4.715761e-002 -3.125000e-002  3.189674e-001
      vertex -4.387243e-002  3.768297e-018  3.081376e-001
    endloop
  endfacet
  facet normal  9.569401e-001  0.000000e+000  2.902853e-001
    outer loop
      vertex -4.387243e-002  3.768297e-018  3.081376e-001
      vertex -4.715761e-002 -3.125000e-002  3.189674e-001
      vertex -4.387243e-002 -3.125000e-002  3.081376e-001
    endloop
  endfacet
  facet normal  9.951848e-001  -0.000000e+000  9.801685e-002
    outer loop
      vertex -4.387243e-002  3.768297e-018  3.081376e-001
      vertex -4.387243e-002 -3.125000e-002  3.081376e-001
      vertex -4.276316e-002  3.204673e-018  2.968750e-001
    endloop
  endfacet
  facet normal  9.951848e-001  0.000000e+000  9.801685e-002
    outer loop
      vertex -4.276316e-002  3.204673e-018  2.968750e-001
      vertex -4.387243e-002 -3.125000e-002  3.081376e-001
      vertex -4.276316e-002 -3.125000e-002  2.968750e-001
    endloop
  endfacet
  facet normal  9.951848e-001  0.000000e+000 -9.801685e-002
    outer loop
      vertex -4.276316e-002 -7.187500e-001  2.968750e-001
      vertex -4.276316e-002 -7.500000e-001  2.968750e-001
      vertex -4.387243e-002 -7.187500e-001  2.856124e-001
    endloop
  endfacet
  facet normal  9.951848e-001  0.000000e+000 -9.801685e-002
    outer loop
      vertex -4.387243e-002 -7.187500e-001  2.856124e-001
      vertex -4.276316e-002 -7.500000e-001  2.968750e-001
      vertex -4.387243e-002 -7.500000e-001  2.856124e-001
    endloop
  endfacet
  facet normal  9.569401e-001  0.000000e+000 -2.902853e-001
    outer loop
      vertex -4.387243e-002 -7.187500e-001  2.856124e-001
      vertex -4.387243e-002 -7.500000e-001  2.856124e-001
      vertex -4.715761e-002 -7.187500e-001  2.747826e-001
    endloop
  endfacet
  facet normal  9.569401e-001  0.000000e+000 -2.902853e-001
    outer loop
      vertex -4.715761e-002 -7.187500e-001  2.747826e-001
      vertex -4.387243e-002 -7.500000e-001  2.856124e-001
      vertex -4.715761e-002 -7.500000e-001  2.747826e-001
    endloop
  endfacet
  facet normal  8.819218e-001  0.000000e+000 -4.713959e-001
    outer loop
      vertex -4.715761e-002 -7.187500e-001  2.747826e-001
      vertex -4.715761e-002 -7.500000e-001  2.747826e-001
      vertex -5.249246e-002 -7.187500e-001  2.648018e-001
    endloop
  endfacet
  facet normal  8.819218e-001  0.000000e+000 -4.713959e-001
    outer loop
      vertex -5.249246e-002 -7.187500e-001  2.648018e-001
      vertex -4.715761e-002 -7.500000e-001  2.747826e-001
      vertex -5.249246e-002 -7.500000e-001  2.648018e-001
    endloop
  endfacet
  facet normal  7.730101e-001  0.000000e+000 -6.343938e-001
    outer loop
      vertex -5.249246e-002 -7.187500e-001  2.648018e-001
      vertex -5.249246e-002 -7.500000e-001  2.648018e-001
      vertex -5.967196e-002 -7.187500e-001  2.560535e-001
    endloop
  endfacet
  facet normal  7.730101e-001  0.000000e+000 -6.343938e-001
    outer loop
      vertex -5.967196e-002 -7.187500e-001  2.560535e-001
      vertex -5.249246e-002 -7.500000e-001  2.648018e-001
      vertex -5.967196e-002 -7.500000e-001  2.560535e-001
    endloop
  endfacet
  facet normal  6.343931e-001  0.000000e+000 -7.730106e-001
    outer loop
      vertex -5.967196e-002 -7.187500e-001  2.560535e-001
      vertex -5.967196e-002 -7.500000e-001  2.560535e-001
      vertex -6.842021e-002 -7.187500e-001  2.488740e-001
    endloop
  endfacet
  facet normal  6.343931e-001  0.000000e+000 -7.730106e-001
    outer loop
      vertex -6.842021e-002 -7.187500e-001  2.488740e-001
      vertex -5.967196e-002 -7.500000e-001  2.560535e-001
      vertex -6.842021e-002 -7.500000e-001  2.488740e-001
    endloop
  endfacet
  facet normal  4.713972e-001  0.000000e+000 -8.819211e-001
    outer loop
      vertex -6.842021e-002 -7.187500e-001  2.488740e-001
      vertex -6.842021e-002 -7.500000e-001  2.488740e-001
      vertex -7.840101e-002 -7.187500e-001  2.435392e-001
    endloop
  endfacet
  facet normal  4.713972e-001  0.000000e+000 -8.819211e-001
    outer loop
      vertex -7.840101e-002 -7.187500e-001  2.435392e-001
      vertex -6.842021e-002 -7.500000e-001  2.488740e-001
      vertex -7.840101e-002 -7.500000e-001  2.435392e-001
    endloop
  endfacet
  facet normal  2.902836e-001  0.000000e+000 -9.569407e-001
    outer loop
      vertex -7.840101e-002 -7.187500e-001  2.435392e-001
      vertex -7.840101e-002 -7.500000e-001  2.435392e-001
      vertex -8.923081e-002 -7.187500e-001  2.402540e-001
    endloop
  endfacet
  facet normal  2.902836e-001  0.000000e+000 -9.569407e-001
    outer loop
      vertex -8.923081e-002 -7.187500e-001  2.402540e-001
      vertex -7.840101e-002 -7.500000e-001  2.435392e-001
      vertex -8.923081e-002 -7.500000e-001  2.402540e-001
    endloop
  endfacet
  facet normal  9.801725e-002  0.000000e+000 -9.951847e-001
    outer loop
      vertex -8.923081e-002 -7.187500e-001  2.402540e-001
      vertex -8.923081e-002 -7.500000e-001  2.402540e-001
      vertex -1.004934e-001 -7.187500e-001  2.391447e-001
    endloop
  endfacet
  facet normal  9.801725e-002  0.000000e+000 -9.951847e-001
    outer loop
      vertex -1.004934e-001 -7.187500e-001  2.391447e-001
      vertex -8.923081e-002 -7.500000e-001  2.402540e-001
      vertex -1.004934e-001 -7.500000e-001  2.391447e-001
    endloop
  endfacet
  facet normal -9.801731e-002  0.000000e+000 -9.951847e-001
    outer loop
      vertex -1.004934e-001 -7.187500e-001  2.391447e-001
      vertex -1.004934e-001 -7.500000e-001  2.391447e-001
      vertex -1.117560e-001 -7.187500e-001  2.402540e-001
    endloop
  endfacet
  facet normal -9.801731e-002  -0.000000e+000 -9.951847e-001
    outer loop
      vertex -1.117560e-001 -7.187500e-001  2.402540e-001
      vertex -1.004934e-001 -7.500000e-001  2.391447e-001
      vertex -1.117560e-001 -7.500000e-001  2.402540e-001
    endloop
  endfacet
  facet normal -2.902836e-001  0.000000e+000 -9.569407e-001
    outer loop
      vertex -1.117560e-001 -7.187500e-001  2.402540e-001
      vertex -1.117560e-001 -7.500000e-001  2.402540e-001
      vertex -1.225858e-001 -7.187500e-001  2.435392e-001
    endloop
  endfacet
  facet normal -2.902836e-001  -0.000000e+000 -9.569407e-001
    outer loop
      vertex -1.225858e-001 -7.187500e-001  2.435392e-001
      vertex -1.117560e-001 -7.500000e-001  2.402540e-001
      vertex -1.225858e-001 -7.500000e-001  2.435392e-001
    endloop
  endfacet
  facet normal -4.713972e-001  0.000000e+000 -8.819211e-001
    outer loop
      vertex -1.225858e-001 -7.187500e-001  2.435392e-001
      vertex -1.225858e-001 -7.500000e-001  2.435392e-001
      vertex -1.325666e-001 -7.187500e-001  2.488740e-001
    endloop
  endfacet
  facet normal -4.713972e-001  -0.000000e+000 -8.819211e-001
    outer loop
      vertex -1.325666e-001 -7.187500e-001  2.488740e-001
      vertex -1.225858e-001 -7.500000e-001  2.435392e-001
      vertex -1.325666e-001 -7.500000e-001  2.488740e-001
    endloop
  endfacet
  facet normal -6.343931e-001  0.000000e+000 -7.730106e-001
    outer loop
      vertex -1.325666e-001 -7.187500e-001  2.488740e-001
      vertex -1.325666e-001 -7.500000e-001  2.488740e-001
      vertex -1.413149e-001 -7.187500e-001  2.560535e-001
    endloop
  endfacet
  facet normal -6.343931e-001  -0.000000e+000 -7.730106e-001
    outer loop
      vertex -1.413149e-001 -7.187500e-001  2.560535e-001
      vertex -1.325666e-001 -7.500000e-001  2.488740e-001
      vertex -1.413149e-001 -7.500000e-001  2.560535e-001
    endloop
  endfacet
  facet normal -7.730101e-001  0.000000e+000 -6.343938e-001
    outer loop
      vertex -1.413149e-001 -7.187500e-001  2.560535e-001
      vertex -1.413149e-001 -7.500000e-001  2.560535e-001
      vertex -1.484944e-001 -7.187500e-001  2.648018e-001
    endloop
  endfacet
  facet normal -7.730101e-001  -0.000000e+000 -6.343938e-001
    outer loop
      vertex -1.484944e-001 -7.187500e-001  2.648018e-001
      vertex -1.413149e-001 -7.500000e-001  2.560535e-001
      vertex -1.484944e-001 -7.500000e-001  2.648018e-001
    endloop
  endfacet
  facet normal -8.819216e-001  0.000000e+000 -4.713961e-001
    outer loop
      vertex -1.484944e-001 -7.187500e-001  2.648018e-001
      vertex -1.484944e-001 -7.500000e-001  2.648018e-001
      vertex -1.538292e-001 -7.187500e-001  2.747826e-001
    endloop
  endfacet
  facet normal -8.819216e-001  -0.000000e+000 -4.713961e-001
    outer loop
      vertex -1.538292e-001 -7.187500e-001  2.747826e-001
      vertex -1.484944e-001 -7.500000e-001  2.648018e-001
      vertex -1.538292e-001 -7.500000e-001  2.747826e-001
    endloop
  endfacet
  facet normal -9.569401e-001  0.000000e+000 -2.902853e-001
    outer loop
      vertex -1.538292e-001 -7.187500e-001  2.747826e-001
      vertex -1.538292e-001 -7.500000e-001  2.747826e-001
      vertex -1.571144e-001 -7.187500e-001  2.856124e-001
    endloop
  endfacet
  facet normal -9.569401e-001  -0.000000e+000 -2.902853e-001
    outer loop
      vertex -1.571144e-001 -7.187500e-001  2.856124e-001
      vertex -1.538292e-001 -7.500000e-001  2.747826e-001
      vertex -1.571144e-001 -7.500000e-001  2.856124e-001
    endloop
  endfacet
  facet normal -9.951848e-001  0.000000e+000 -9.801719e-002
    outer loop
      vertex -1.571144e-001 -7.187500e-001  2.856124e-001
      vertex -1.571144e-001 -7.500000e-001  2.856124e-001
      vertex -1.582237e-001 -7.187500e-001  2.968750e-001
    endloop
  endfacet
  facet normal -9.951848e-001  -0.000000e+000 -9.801719e-002
    outer loop
      vertex -1.582237e-001 -7.187500e-001  2.968750e-001
      vertex -1.571144e-001 -7.500000e-001  2.856124e-001
      vertex -1.582237e-001 -7.500000e-001  2.968750e-001
    endloop
  endfacet
  facet normal  9.951848e-001  0.000000e+000 -9.801685e-002
    outer loop
      vertex -4.276316e-002  3.204673e-018  2.968750e-001
      vertex -4.276316e-002 -3.125000e-002  2.968750e-001
      vertex -4.387243e-002  2.517896e-018  2.856124e-001
    endloop
  endfacet
  facet normal  9.951848e-001  0.000000e+000 -9.801685e-002
    outer loop
      vertex -4.387243e-002  2.517896e-018  2.856124e-001
      vertex -4.276316e-002 -3.125000e-002  2.968750e-001
      vertex -4.387243e-002 -3.125000e-002  2.856124e-001
    endloop
  endfacet
  facet normal  9.569401e-001  0.000000e+000 -2.902853e-001
    outer loop
      vertex -4.387243e-002  2.517896e-018  2.856124e-001
      vertex -4.387243e-002 -3.125000e-002  2.856124e-001
      vertex -4.715761e-002  1.734357e-018  2.747826e-001
    endloop
  endfacet
  facet normal  9.569401e-001  0.000000e+000 -2.902853e-001
    outer loop
      vertex -4.715761e-002  1.734357e-018  2.747826e-001
      vertex -4.387243e-002 -3.125000e-002  2.856124e-001
      vertex -4.715761e-002 -3.125000e-002  2.747826e-001
    endloop
  endfacet
  facet normal  8.819218e-001  0.000000e+000 -4.713959e-001
    outer loop
      vertex -4.715761e-002  1.734357e-018  2.747826e-001
      vertex -4.715761e-002 -3.125000e-002  2.747826e-001
      vertex -5.249246e-002  8.841674e-019  2.648018e-001
    endloop
  endfacet
  facet normal  8.819218e-001  0.000000e+000 -4.713959e-001
    outer loop
      vertex -5.249246e-002  8.841674e-019  2.648018e-001
      vertex -4.715761e-002 -3.125000e-002  2.747826e-001
      vertex -5.249246e-002 -3.125000e-002  2.648018e-001
    endloop
  endfacet
  facet normal  7.730101e-001  0.000000e+000 -6.343938e-001
    outer loop
      vertex -5.249246e-002  8.841674e-019  2.648018e-001
      vertex -5.249246e-002 -3.125000e-002  2.648018e-001
      vertex -5.967196e-002 -1.155558e-033  2.560535e-001
    endloop
  endfacet
  facet normal  7.730101e-001  0.000000e+000 -6.343938e-001
    outer loop
      vertex -5.967196e-002 -1.155558e-033  2.560535e-001
      vertex -5.249246e-002 -3.125000e-002  2.648018e-001
      vertex -5.967196e-002 -3.125000e-002  2.560535e-001
    endloop
  endfacet
  facet normal  6.343931e-001  0.000000e+000 -7.730106e-001
    outer loop
      vertex -5.967196e-002 -1.155558e-033  2.560535e-001
      vertex -5.967196e-002 -3.125000e-002  2.560535e-001
      vertex -6.842021e-002 -8.841674e-019  2.488740e-001
    endloop
  endfacet
  facet normal  6.343931e-001  0.000000e+000 -7.730106e-001
    outer loop
      vertex -6.842021e-002 -8.841674e-019  2.488740e-001
      vertex -5.967196e-002 -3.125000e-002  2.560535e-001
      vertex -6.842021e-002 -3.125000e-002  2.488740e-001
    endloop
  endfacet
  facet normal  4.713972e-001  0.000000e+000 -8.819211e-001
    outer loop
      vertex -6.842021e-002 -8.841674e-019  2.488740e-001
      vertex -6.842021e-002 -3.125000e-002  2.488740e-001
      vertex -7.840101e-002 -1.734357e-018  2.435392e-001
    endloop
  endfacet
  facet normal  4.713972e-001  0.000000e+000 -8.819211e-001
    outer loop
      vertex -7.840101e-002 -1.734357e-018  2.435392e-001
      vertex -6.842021e-002 -3.125000e-002  2.488740e-001
      vertex -7.840101e-002 -3.125000e-002  2.435392e-001
    endloop
  endfacet
  facet normal  2.902836e-001  0.000000e+000 -9.569407e-001
    outer loop
      vertex -7.840101e-002 -1.734357e-018  2.435392e-001
      vertex -7.840101e-002 -3.125000e-002  2.435392e-001
      vertex -8.923081e-002 -2.517896e-018  2.402540e-001
    endloop
  endfacet
  facet normal  2.902836e-001  0.000000e+000 -9.569407e-001
    outer loop
      vertex -8.923081e-002 -2.517896e-018  2.402540e-001
      vertex -7.840101e-002 -3.125000e-002  2.435392e-001
      vertex -8.923081e-002 -3.125000e-002  2.402540e-001
    endloop
  endfacet
  facet normal  9.801725e-002  0.000000e+000 -9.951847e-001
    outer loop
      vertex -8.923081e-002 -2.517896e-018  2.402540e-001
      vertex -8.923081e-002 -3.125000e-002  2.402540e-001
      vertex -1.004934e-001 -3.204673e-018  2.391447e-001
    endloop
  endfacet
  facet normal  9.801725e-002  0.000000e+000 -9.951847e-001
    outer loop
      vertex -1.004934e-001 -3.204673e-018  2.391447e-001
      vertex -8.923081e-002 -3.125000e-002  2.402540e-001
      vertex -1.004934e-001 -3.125000e-002  2.391447e-001
    endloop
  endfacet
  facet normal -9.801731e-002  0.000000e+000 -9.951847e-001
    outer loop
      vertex -1.004934e-001 -3.204673e-018  2.391447e-001
      vertex -1.004934e-001 -3.125000e-002  2.391447e-001
      vertex -1.117560e-001 -3.768297e-018  2.402540e-001
    endloop
  endfacet
  facet normal -9.801731e-002  -0.000000e+000 -9.951847e-001
    outer loop
      vertex -1.117560e-001 -3.768297e-018  2.402540e-001
      vertex -1.004934e-001 -3.125000e-002  2.391447e-001
      vertex -1.117560e-001 -3.125000e-002  2.402540e-001
    endloop
  endfacet
  facet normal -2.902836e-001  0.000000e+000 -9.569407e-001
    outer loop
      vertex -1.117560e-001 -3.768297e-018  2.402540e-001
      vertex -1.117560e-001 -3.125000e-002  2.402540e-001
      vertex -1.225858e-001 -4.187108e-018  2.435392e-001
    endloop
  endfacet
  facet normal -2.902836e-001  -0.000000e+000 -9.569407e-001
    outer loop
      vertex -1.225858e-001 -4.187108e-018  2.435392e-001
      vertex -1.117560e-001 -3.125000e-002  2.402540e-001
      vertex -1.225858e-001 -3.125000e-002  2.435392e-001
    endloop
  endfacet
  facet normal -4.713972e-001  0.000000e+000 -8.819211e-001
    outer loop
      vertex -1.225858e-001 -4.187108e-018  2.435392e-001
      vertex -1.225858e-001 -3.125000e-002  2.435392e-001
      vertex -1.325666e-001 -4.445010e-018  2.488740e-001
    endloop
  endfacet
  facet normal -4.713972e-001  -0.000000e+000 -8.819211e-001
    outer loop
      vertex -1.325666e-001 -4.445010e-018  2.488740e-001
      vertex -1.225858e-001 -3.125000e-002  2.435392e-001
      vertex -1.325666e-001 -3.125000e-002  2.488740e-001
    endloop
  endfacet
  facet normal -6.343931e-001  0.000000e+000 -7.730106e-001
    outer loop
      vertex -1.325666e-001 -4.445010e-018  2.488740e-001
      vertex -1.325666e-001 -3.125000e-002  2.488740e-001
      vertex -1.413149e-001 -4.532092e-018  2.560535e-001
    endloop
  endfacet
  facet normal -6.343931e-001  -0.000000e+000 -7.730106e-001
    outer loop
      vertex -1.413149e-001 -4.532092e-018  2.560535e-001
      vertex -1.325666e-001 -3.125000e-002  2.488740e-001
      vertex -1.413149e-001 -3.125000e-002  2.560535e-001
    endloop
  endfacet
  facet normal -7.730101e-001  0.000000e+000 -6.343938e-001
    outer loop
      vertex -1.413149e-001 -4.532092e-018  2.560535e-001
      vertex -1.413149e-001 -3.125000e-002  2.560535e-001
      vertex -1.484944e-001 -4.445010e-018  2.648018e-001
    endloop
  endfacet
  facet normal -7.730101e-001  -0.000000e+000 -6.343938e-001
    outer loop
      vertex -1.484944e-001 -4.445010e-018  2.648018e-001
      vertex -1.413149e-001 -3.125000e-002  2.560535e-001
      vertex -1.484944e-001 -3.125000e-002  2.648018e-001
    endloop
  endfacet
  facet normal -8.819216e-001  0.000000e+000 -4.713961e-001
    outer loop
      vertex -1.484944e-001 -4.445010e-018  2.648018e-001
      vertex -1.484944e-001 -3.125000e-002  2.648018e-001
      vertex -1.538292e-001 -4.187108e-018  2.747826e-001
    endloop
  endfacet
  facet normal -8.819216e-001  -0.000000e+000 -4.713961e-001
    outer loop
      vertex -1.538292e-001 -4.187108e-018  2.747826e-001
      vertex -1.484944e-001 -3.125000e-002  2.648018e-001
      vertex -1.538292e-001 -3.125000e-002  2.747826e-001
    endloop
  endfacet
  facet normal -9.569401e-001  0.000000e+000 -2.902853e-001
    outer loop
      vertex -1.538292e-001 -4.187108e-018  2.747826e-001
      vertex -1.538292e-001 -3.125000e-002  2.747826e-001
      vertex -1.571144e-001 -3.768297e-018  2.856124e-001
    endloop
  endfacet
  facet normal -9.569401e-001  -0.000000e+000 -2.902853e-001
    outer loop
      vertex -1.571144e-001 -3.768297e-018  2.856124e-001
      vertex -1.538292e-001 -3.125000e-002  2.747826e-001
      vertex -1.571144e-001 -3.125000e-002  2.856124e-001
    endloop
  endfacet
  facet normal -9.951848e-001  0.000000e+000 -9.801719e-002
    outer loop
      vertex -1.571144e-001 -3.768297e-018  2.856124e-001
      vertex -1.571144e-001 -3.125000e-002  2.856124e-001
      vertex -1.582237e-001 -3.204673e-018  2.968750e-001
    endloop
  endfacet
  facet normal -9.951848e-001  -0.000000e+000 -9.801719e-002
    outer loop
      vertex -1.582237e-001 -3.204673e-018  2.968750e-001
      vertex -1.571144e-001 -3.125000e-002  2.856124e-001
      vertex -1.582237e-001 -3.125000e-002  2.968750e-001
    endloop
  endfacet
  facet normal  0.000000e+000 -1.000000e+000  0.000000e+000
    outer loop
      vertex -1.117560e-001 -3.125000e-002  3.534960e-001
      vertex -8.923081e-002 -3.125000e-002  3.534960e-001
      vertex -1.004934e-001 -3.125000e-002  3.546053e-001
    endloop
  endfacet
  facet normal  0.000000e+000 -1.000000e+000  -0.000000e+000
    outer loop
      vertex -8.923081e-002 -3.125000e-002  3.534960e-001
      vertex -1.117560e-001 -3.125000e-002  3.534960e-001
      vertex -1.225858e-001 -3.125000e-002  3.502108e-001
    endloop
  endfacet
  facet normal  0.000000e+000 -1.000000e+000  0.000000e+000
    outer loop
      vertex -8.923081e-002 -3.125000e-002  3.534960e-001
      vertex -1.225858e-001 -3.125000e-002  3.502108e-001
      vertex -7.840101e-002 -3.125000e-002  3.502108e-001
    endloop
  endfacet
  facet normal  0.000000e+000 -1.000000e+000  -0.000000e+000
    outer loop
      vertex -7.840101e-002 -3.125000e-002  3.502108e-001
      vertex -1.225858e-001 -3.125000e-002  3.502108e-001
      vertex -1.325666e-001 -3.125000e-002  3.448760e-001
    endloop
  endfacet
  facet normal  0.000000e+000 -1.000000e+000  0.000000e+000
    outer loop
      vertex -7.840101e-002 -3.125000e-002  3.502108e-001
      vertex -1.325666e-001 -3.125000e-002  3.448760e-001
      vertex -6.842021e-002 -3.125000e-002  3.448760e-001
    endloop
  endfacet
  facet normal  0.000000e+000 -9.999999e-001  -0.000000e+000
    outer loop
      vertex -6.842021e-002 -3.125000e-002  3.448760e-001
      vertex -1.325666e-001 -3.125000e-002  3.448760e-001
      vertex -1.413149e-001 -3.125000e-002  3.376965e-001
    endloop
  endfacet
  facet normal  0.000000e+000 -1.000000e+000  0.000000e+000
    outer loop
      vertex -6.842021e-002 -3.125000e-002  3.448760e-001
      vertex -1.413149e-001 -3.125000e-002  3.376965e-001
      vertex -5.967196e-002 -3.125000e-002  3.376965e-001
    endloop
  endfacet
  facet normal  0.000000e+000 -1.000000e+000  -0.000000e+000
    outer loop
      vertex -5.967196e-002 -3.125000e-002  3.376965e-001
      vertex -1.413149e-001 -3.125000e-002  3.376965e-001
      vertex -1.484944e-001 -3.125000e-002  3.289482e-001
    endloop
  endfacet
  facet normal  0.000000e+000 -1.000000e+000  0.000000e+000
    outer loop
      vertex -5.967196e-002 -3.125000e-002  3.376965e-001
      vertex -1.484944e-001 -3.125000e-002  3.289482e-001
      vertex -5.249246e-002 -3.125000e-002  3.289482e-001
    endloop
  endfacet
  facet normal  0.000000e+000 -1.000000e+000  -0.000000e+000
    outer loop
      vertex -5.249246e-002 -3.125000e-002  3.289482e-001
      vertex -1.484944e-001 -3.125000e-002  3.289482e-001
      vertex -1.538292e-001 -3.125000e-002  3.189674e-001
    endloop
  endfacet
  facet normal  0.000000e+000 -1.000000e+000  0.000000e+000
    outer loop
      vertex -5.249246e-002 -3.125000e-002  3.289482e-001
      vertex -1.538292e-001 -3.125000e-002  3.189674e-001
      vertex -4.715761e-002 -3.125000e-002  3.189674e-001
    endloop
  endfacet
  facet normal  0.000000e+000 -1.000000e+000  0.000000e+000
    outer loop
      vertex -4.715761e-002 -3.125000e-002  2.747826e-001
      vertex -1.484944e-001 -3.125000e-002  2.648018e-001
      vertex -5.249246e-002 -3.125000e-002  2.648018e-001
    endloop
  endfacet
  facet normal  0.000000e+000 -1.000000e+000  0.000000e+000
    outer loop
      vertex -5.249246e-002 -3.125000e-002  2.648018e-001
      vertex -1.484944e-001 -3.125000e-002  2.648018e-001
      vertex -1.413149e-001 -3.125000e-002  2.560535e-001
    endloop
  endfacet
  facet normal  0.000000e+000 -1.000000e+000  0.000000e+000
    outer loop
      vertex -5.249246e-002 -3.125000e-002  2.648018e-001
      vertex -1.413149e-001 -3.125000e-002  2.560535e-001
      vertex -5.967196e-002 -3.125000e-002  2.560535e-001
    endloop
  endfacet
  facet normal  0.000000e+000 -1.000000e+000  0.000000e+000
    outer loop
      vertex -5.967196e-002 -3.125000e-002  2.560535e-001
      vertex -1.413149e-001 -3.125000e-002  2.560535e-001
      vertex -1.325666e-001 -3.125000e-002  2.488740e-001
    endloop
  endfacet
  facet normal  0.000000e+000 -9.999999e-001  0.000000e+000
    outer loop
      vertex -5.967196e-002 -3.125000e-002  2.560535e-001
      vertex -1.325666e-001 -3.125000e-002  2.488740e-001
      vertex -6.842021e-002 -3.125000e-002  2.488740e-001
    endloop
  endfacet
  facet normal  0.000000e+000 -1.000000e+000  0.000000e+000
    outer loop
      vertex -6.842021e-002 -3.125000e-002  2.488740e-001
      vertex -1.325666e-001 -3.125000e-002  2.488740e-001
      vertex -1.225858e-001 -3.125000e-002  2.435392e-001
    endloop
  endfacet
  facet normal  0.000000e+000 -1.000000e+000  0.000000e+000
    outer loop
      vertex -6.842021e-002 -3.125000e-002  2.488740e-001
      vertex -1.225858e-001 -3.125000e-002  2.435392e-001
      vertex -7.840101e-002 -3.125000e-002  2.435392e-001
    endloop
  endfacet
  facet normal  0.000000e+000 -1.000000e+000  0.000000e+000
    outer loop
      vertex -7.840101e-002 -3.125000e-002  2.435392e-001
      vertex -1.225858e-001 -3.125000e-002  2.435392e-001
      vertex -1.117560e-001 -3.125000e-002  2.402540e-001
    endloop
  endfacet
  facet normal  0.000000e+000 -1.000000e+000  0.000000e+000
    outer loop
      vertex -7.840101e-002 -3.125000e-002  2.435392e-001
      vertex -1.117560e-001 -3.125000e-002  2.402540e-001
      vertex -8.923081e-002 -3.125000e-002  2.402540e-001
    endloop
  endfacet
  facet normal  0.000000e+000 -1.000000e+000  0.000000e+000
    outer loop
      vertex -8.923081e-002 -3.125000e-002  2.402540e-001
      vertex -1.117560e-001 -3.125000e-002  2.402540e-001
      vertex -1.004934e-001 -3.125000e-002  2.391447e-001
    endloop
  endfacet
  facet normal  0.000000e+000 -1.000000e+000  0.000000e+000
    outer loop
      vertex -4.715761e-002 -3.125000e-002  3.189674e-001
      vertex -1.538292e-001 -3.125000e-002  3.189674e-001
      vertex -4.387243e-002 -3.125000e-002  3.081376e-001
    endloop
  endfacet
  facet normal  0.000000e+000 -9.999999e-001  0.000000e+000
    outer loop
      vertex -4.387243e-002 -3.125000e-002  3.081376e-001
      vertex -1.538292e-001 -3.125000e-002  3.189674e-001
      vertex -1.571144e-001 -3.125000e-002  3.081376e-001
    endloop
  endfacet
  facet normal  0.000000e+000 -9.999999e-001  0.000000e+000
    outer loop
      vertex -4.387243e-002 -3.125000e-002  3.081376e-001
      vertex -1.571144e-001 -3.125000e-002  3.081376e-001
      vertex -4.276316e-002 -3.125000e-002  2.968750e-001
    endloop
  endfacet
  facet normal  0.000000e+000 -1.000000e+000  0.000000e+000
    outer loop
      vertex -4.276316e-002 -3.125000e-002  2.968750e-001
      vertex -1.571144e-001 -3.125000e-002  3.081376e-001
      vertex -1.582237e-001 -3.125000e-002  2.968750e-001
    endloop
  endfacet
  facet normal  0.000000e+000 -1.000000e+000  0.000000e+000
    outer loop
      vertex -4.276316e-002 -3.125000e-002  2.968750e-001
      vertex -1.582237e-001 -3.125000e-002  2.968750e-001
      vertex -4.387243e-002 -3.125000e-002  2.856124e-001
    endloop
  endfacet
  facet normal  0.000000e+000 -9.999999e-001  0.000000e+000
    outer loop
      vertex -4.387243e-002 -3.125000e-002  2.856124e-001
      vertex -1.582237e-001 -3.125000e-002  2.968750e-001
      vertex -1.571144e-001 -3.125000e-002  2.856124e-001
    endloop
  endfacet
  facet normal  0.000000e+000 -9.999999e-001  0.000000e+000
    outer loop
      vertex -4.387243e-002 -3.125000e-002  2.856124e-001
      vertex -1.571144e-001 -3.125000e-002  2.856124e-001
      vertex -4.715761e-002 -3.125000e-002  2.747826e-001
    endloop
  endfacet
  facet normal  0.000000e+000 -1.000000e+000  0.000000e+000
    outer loop
      vertex -4.715761e-002 -3.125000e-002  2.747826e-001
      vertex -1.571144e-001 -3.125000e-002  2.856124e-001
      vertex -1.538292e-001 -3.125000e-002  2.747826e-001
    endloop
  endfacet
  facet normal  0.000000e+000 -1.000000e+000  0.000000e+000
    outer loop
      vertex -4.715761e-002 -3.125000e-002  2.747826e-001
      vertex -1.538292e-001 -3.125000e-002  2.747826e-001
      vertex -1.484944e-001 -3.125000e-002  2.648018e-001
    endloop
  endfacet
  facet normal  0.000000e+000  1.000000e+000  0.000000e+000
    outer loop
      vertex -1.004934e-001 -7.187500e-001  3.546053e-001
      vertex -8.923081e-002 -7.187500e-001  3.534960e-001
      vertex -1.117560e-001 -7.187500e-001  3.534960e-001
    endloop
  endfacet
  facet normal  -0.000000e+000  1.000000e+000  0.000000e+000
    outer loop
      vertex -1.225858e-001 -7.187500e-001  3.502108e-001
      vertex -1.117560e-001 -7.187500e-001  3.534960e-001
      vertex -8.923081e-002 -7.187500e-001  3.534960e-001
    endloop
  endfacet
  facet normal  0.000000e+000  1.000000e+000  0.000000e+000
    outer loop
      vertex -7.840101e-002 -7.187500e-001  3.502108e-001
      vertex -1.225858e-001 -7.187500e-001  3.502108e-001
      vertex -8.923081e-002 -7.187500e-001  3.534960e-001
    endloop
  endfacet
  facet normal  -0.000000e+000  1.000000e+000  0.000000e+000
    outer loop
      vertex -1.325666e-001 -7.187500e-001  3.448760e-001
      vertex -1.225858e-001 -7.187500e-001  3.502108e-001
      vertex -7.840101e-002 -7.187500e-001  3.502108e-001
    endloop
  endfacet
  facet normal  0.000000e+000  1.000000e+000  0.000000e+000
    outer loop
      vertex -6.842021e-002 -7.187500e-001  3.448760e-001
      vertex -1.325666e-001 -7.187500e-001  3.448760e-001
      vertex -7.840101e-002 -7.187500e-001  3.502108e-001
    endloop
  endfacet
  facet normal  -0.000000e+000  9.999999e-001  0.000000e+000
    outer loop
      vertex -1.413149e-001 -7.187500e-001  3.376965e-001
      vertex -1.325666e-001 -7.187500e-001  3.448760e-001
      vertex -6.842021e-002 -7.187500e-001  3.448760e-001
    endloop
  endfacet
  facet normal  0.000000e+000  1.000000e+000  0.000000e+000
    outer loop
      vertex -5.967196e-002 -7.187500e-001  3.376965e-001
      vertex -1.413149e-001 -7.187500e-001  3.376965e-001
      vertex -6.842021e-002 -7.187500e-001  3.448760e-001
    endloop
  endfacet
  facet normal  -0.000000e+000  1.000000e+000  0.000000e+000
    outer loop
      vertex -1.484944e-001 -7.187500e-001  3.289482e-001
      vertex -1.413149e-001 -7.187500e-001  3.376965e-001
      vertex -5.967196e-002 -7.187500e-001  3.376965e-001
    endloop
  endfacet
  facet normal  0.000000e+000  1.000000e+000  0.000000e+000
    outer loop
      vertex -5.249246e-002 -7.187500e-001  3.289482e-001
      vertex -1.484944e-001 -7.187500e-001  3.289482e-001
      vertex -5.967196e-002 -7.187500e-001  3.376965e-001
    endloop
  endfacet
  facet normal  -0.000000e+000  1.000000e+000  0.000000e+000
    outer loop
      vertex -1.538292e-001 -7.187500e-001  3.189674e-001
      vertex -1.484944e-001 -7.187500e-001  3.289482e-001
      vertex -5.249246e-002 -7.187500e-001  3.289482e-001
    endloop
  endfacet
  facet normal  0.000000e+000  1.000000e+000  0.000000e+000
    outer loop
      vertex -4.715761e-002 -7.187500e-001  3.189674e-001
      vertex -1.538292e-001 -7.187500e-001  3.189674e-001
      vertex -5.249246e-002 -7.187500e-001  3.289482e-001
    endloop
  endfacet
  facet normal  0.000000e+000  1.000000e+000  0.000000e+000
    outer loop
      vertex -5.249246e-002 -7.187500e-001  2.648018e-001
      vertex -1.484944e-001 -7.187500e-001  2.648018e-001
      vertex -4.715761e-002 -7.187500e-001  2.747826e-001
    endloop
  endfacet
  facet normal  -0.000000e+000  1.000000e+000  0.000000e+000
    outer loop
      vertex -1.413149e-001 -7.187500e-001  2.560535e-001
      vertex -1.484944e-001 -7.187500e-001  2.648018e-001
      vertex -5.249246e-002 -7.187500e-001  2.648018e-001
    endloop
  endfacet
  facet normal  0.000000e+000  1.000000e+000  0.000000e+000
    outer loop
      vertex -5.967196e-002 -7.187500e-001  2.560535e-001
      vertex -1.413149e-001 -7.187500e-001  2.560535e-001
      vertex -5.249246e-002 -7.187500e-001  2.648018e-001
    endloop
  endfacet
  facet normal  -0.000000e+000  1.000000e+000  0.000000e+000
    outer loop
      vertex -1.325666e-001 -7.187500e-001  2.488740e-001
      vertex -1.413149e-001 -7.187500e-001  2.560535e-001
      vertex -5.967196e-002 -7.187500e-001  2.560535e-001
    endloop
  endfacet
  facet normal  0.000000e+000  9.999999e-001  0.000000e+000
    outer loop
      vertex -6.842021e-002 -7.187500e-001  2.488740e-001
      vertex -1.325666e-001 -7.187500e-001  2.488740e-001
      vertex -5.967196e-002 -7.187500e-001  2.560535e-001
    endloop
  endfacet
  facet normal  -0.000000e+000  1.000000e+000  0.000000e+000
    outer loop
      vertex -1.225858e-001 -7.187500e-001  2.435392e-001
      vertex -1.325666e-001 -7.187500e-001  2.488740e-001
      vertex -6.842021e-002 -7.187500e-001  2.488740e-001
    endloop
  endfacet
  facet normal  0.000000e+000  1.000000e+000  0.000000e+000
    outer loop
      vertex -7.840101e-002 -7.187500e-001  2.435392e-001
      vertex -1.225858e-001 -7.187500e-001  2.435392e-001
      vertex -6.842021e-002 -7.187500e-001  2.488740e-001
    endloop
  endfacet
  facet normal  -0.000000e+000  1.000000e+000  0.000000e+000
    outer loop
      vertex -1.117560e-001 -7.187500e-001  2.402540e-001
      vertex -1.225858e-001 -7.187500e-001  2.435392e-001
      vertex -7.840101e-002 -7.187500e-001  2.435392e-001
    endloop
  endfacet
  facet normal  0.000000e+000  1.000000e+000  0.000000e+000
    outer loop
      vertex -8.923081e-002 -7.187500e-001  2.402540e-001
      vertex -1.117560e-001 -7.187500e-001  2.402540e-001
      vertex -7.840101e-002 -7.187500e-001  2.435392e-001
    endloop
  endfacet
  facet normal  -0.000000e+000  1.000000e+000  0.000000e+000
    outer loop
      vertex -1.004934e-001 -7.187500e-001  2.391447e-001
      vertex -1.117560e-001 -7.187500e-001  2.402540e-001
      vertex -8.923081e-002 -7.187500e-001  2.402540e-001
    endloop
  endfacet
  facet normal  -0.000000e+000  1.000000e+000  0.000000e+000
    outer loop
      vertex -1.484944e-001 -7.187500e-001  2.648018e-001
      vertex -1.538292e-001 -7.187500e-001  2.747826e-001
      vertex -4.715761e-002 -7.187500e-001  2.747826e-001
    endloop
  endfacet
  facet normal  0.000000e+000  1.000000e+000  0.000000e+000
    outer loop
      vertex -4.715761e-002 -7.187500e-001  2.747826e-001
      vertex -1.538292e-001 -7.187500e-001  2.747826e-001
      vertex -1.571144e-001 -7.187500e-001  2.856124e-001
    endloop
  endfacet
  facet normal  -0.000000e+000  9.999999e-001  0.000000e+000
    outer loop
      vertex -4.715761e-002 -7.187500e-001  2.747826e-001
      vertex -1.571144e-001 -7.187500e-001  2.856124e-001
      vertex -4.387243e-002 -7.187500e-001  2.856124e-001
    endloop
  endfacet
  facet normal  0.000000e+000  9.999999e-001  0.000000e+000
    outer loop
      vertex -4.387243e-002 -7.187500e-001  2.856124e-001
      vertex -1.571144e-001 -7.187500e-001  2.856124e-001
      vertex -1.582237e-001 -7.187500e-001  2.968750e-001
    endloop
  endfacet
  facet normal  -0.000000e+000  1.000000e+000  0.000000e+000
    outer loop
      vertex -4.387243e-002 -7.187500e-001  2.856124e-001
      vertex -1.582237e-001 -7.187500e-001  2.968750e-001
      vertex -4.276316e-002 -7.187500e-001  2.968750e-001
    endloop
  endfacet
  facet normal  0.000000e+000  1.000000e+000  0.000000e+000
    outer loop
      vertex -4.276316e-002 -7.187500e-001  2.968750e-001
      vertex -1.582237e-001 -7.187500e-001  2.968750e-001
      vertex -1.571144e-001 -7.187500e-001  3.081376e-001
    endloop
  endfacet
  facet normal  -0.000000e+000  9.999999e-001  0.000000e+000
    outer loop
      vertex -4.276316e-002 -7.187500e-001  2.968750e-001
      vertex -1.571144e-001 -7.187500e-001  3.081376e-001
      vertex -4.387243e-002 -7.187500e-001  3.081376e-001
    endloop
  endfacet
  facet normal  0.000000e+000  9.999999e-001  0.000000e+000
    outer loop
      vertex -4.387243e-002 -7.187500e-001  3.081376e-001
      vertex -1.571144e-001 -7.187500e-001  3.081376e-001
      vertex -1.538292e-001 -7.187500e-001  3.189674e-001
    endloop
  endfacet
  facet normal  -0.000000e+000  1.000000e+000  0.000000e+000
    outer loop
      vertex -4.387243e-002 -7.187500e-001  3.081376e-001
      vertex -1.538292e-001 -7.187500e-001  3.189674e-001
      vertex -4.715761e-002 -7.187500e-001  3.189674e-001
    endloop
  endfacet
  facet normal  0.000000e+000 -1.000000e+000  0.000000e+000
    outer loop
      vertex -1.117560e-001 -7.500000e-001  3.534960e-001
      vertex -8.923081e-002 -7.500000e-001  3.534960e-001
      vertex -1.004934e-001 -7.500000e-001  3.546053e-001
    endloop
  endfacet
  facet normal  0.000000e+000 -1.000000e+000  -0.000000e+000
    outer loop
      vertex -8.923081e-002 -7.500000e-001  3.534960e-001
      vertex -1.117560e-001 -7.500000e-001  3.534960e-001
      vertex -1.225858e-001 -7.500000e-001  3.502108e-001
    endloop
  endfacet
  facet normal  0.000000e+000 -1.000000e+000  0.000000e+000
    outer loop
      vertex -8.923081e-002 -7.500000e-001  3.534960e-001
      vertex -1.225858e-001 -7.500000e-001  3.502108e-001
      vertex -7.840101e-002 -7.500000e-001  3.502108e-001
    endloop
  endfacet
  facet normal  0.000000e+000 -1.000000e+000  -0.000000e+000
    outer loop
      vertex -7.840101e-002 -7.500000e-001  3.502108e-001
      vertex -1.225858e-001 -7.500000e-001  3.502108e-001
      vertex -1.325666e-001 -7.500000e-001  3.448760e-001
    endloop
  endfacet
  facet normal  0.000000e+000 -1.000000e+000  0.000000e+000
    outer loop
      vertex -7.840101e-002 -7.500000e-001  3.502108e-001
      vertex -1.325666e-001 -7.500000e-001  3.448760e-001
      vertex -6.842021e-002 -7.500000e-001  3.448760e-001
    endloop
  endfacet
  facet normal  0.000000e+000 -9.999999e-001  -0.000000e+000
    outer loop
      vertex -6.842021e-002 -7.500000e-001  3.448760e-001
      vertex -1.325666e-001 -7.500000e-001  3.448760e-001
      vertex -1.413149e-001 -7.500000e-001  3.376965e-001
    endloop
  endfacet
  facet normal  0.000000e+000 -1.000000e+000  0.000000e+000
    outer loop
      vertex -6.842021e-002 -7.500000e-001  3.448760e-001
      vertex -1.413149e-001 -7.500000e-001  3.376965e-001
      vertex -5.967196e-002 -7.500000e-001  3.376965e-001
    endloop
  endfacet
  facet normal  0.000000e+000 -1.000000e+000  -0.000000e+000
    outer loop
      vertex -5.967196e-002 -7.500000e-001  3.376965e-001
      vertex -1.413149e-001 -7.500000e-001  3.376965e-001
      vertex -1.484944e-001 -7.500000e-001  3.289482e-001
    endloop
  endfacet
  facet normal  0.000000e+000 -1.000000e+000  0.000000e+000
    outer loop
      vertex -5.967196e-002 -7.500000e-001  3.376965e-001
      vertex -1.484944e-001 -7.500000e-001  3.289482e-001
      vertex -5.249246e-002 -7.500000e-001  3.289482e-001
    endloop
  endfacet
  facet normal  0.000000e+000 -1.000000e+000  -0.000000e+000
    outer loop
      vertex -5.249246e-002 -7.500000e-001  3.289482e-001
      vertex -1.484944e-001 -7.500000e-001  3.289482e-001
      vertex -1.538292e-001 -7.500000e-001  3.189674e-001
    endloop
  endfacet
  facet normal  0.000000e+000 -1.000000e+000  0.000000e+000
    outer loop
      vertex -5.249246e-002 -7.500000e-001  3.289482e-001
      vertex -1.538292e-001 -7.500000e-001  3.189674e-001
      vertex -4.715761e-002 -7.500000e-001  3.189674e-001
    endloop
  endfacet
  facet normal  0.000000e+000 -1.000000e+000  0.000000e+000
    outer loop
      vertex -4.715761e-002 -7.500000e-001  2.747826e-001
      vertex -1.484944e-001 -7.500000e-001  2.648018e-001
      vertex -5.249246e-002 -7.500000e-001  2.648018e-001
    endloop
  endfacet
  facet normal  0.000000e+000 -1.000000e+000  0.000000e+000
    outer loop
      vertex -5.249246e-002 -7.500000e-001  2.648018e-001
      vertex -1.484944e-001 -7.500000e-001  2.648018e-001
      vertex -1.413149e-001 -7.500000e-001  2.560535e-001
    endloop
  endfacet
  facet normal  0.000000e+000 -1.000000e+000  0.000000e+000
    outer loop
      vertex -5.249246e-002 -7.500000e-001  2.648018e-001
      vertex -1.413149e-001 -7.500000e-001  2.560535e-001
      vertex -5.967196e-002 -7.500000e-001  2.560535e-001
    endloop
  endfacet
  facet normal  0.000000e+000 -1.000000e+000  0.000000e+000
    outer loop
      vertex -5.967196e-002 -7.500000e-001  2.560535e-001
      vertex -1.413149e-001 -7.500000e-001  2.560535e-001
      vertex -1.325666e-001 -7.500000e-001  2.488740e-001
    endloop
  endfacet
  facet normal  0.000000e+000 -9.999999e-001  0.000000e+000
    outer loop
      vertex -5.967196e-002 -7.500000e-001  2.560535e-001
      vertex -1.325666e-001 -7.500000e-001  2.488740e-001
      vertex -6.842021e-002 -7.500000e-001  2.488740e-001
    endloop
  endfacet
  facet normal  0.000000e+000 -1.000000e+000  0.000000e+000
    outer loop
      vertex -6.842021e-002 -7.500000e-001  2.488740e-001
      vertex -1.325666e-001 -7.500000e-001  2.488740e-001
      vertex -1.225858e-001 -7.500000e-001  2.435392e-001
    endloop
  endfacet
  facet normal  0.000000e+000 -1.000000e+000  0.000000e+000
    outer loop
      vertex -6.842021e-002 -7.500000e-001  2.488740e-001
      vertex -1.225858e-001 -7.500000e-001  2.435392e-001
      vertex -7.840101e-002 -7.500000e-001  2.435392e-001
    endloop
  endfacet
  facet normal  0.000000e+000 -1.000000e+000  0.000000e+000
    outer loop
      vertex -7.840101e-002 -7.500000e-001  2.435392e-001
      vertex -1.225858e-001 -7.500000e-001  2.435392e-001
      vertex -1.117560e-001 -7.500000e-001  2.402540e-001
    endloop
  endfacet
  facet normal  0.000000e+000 -1.000000e+000  0.000000e+000
    outer loop
      vertex -7.840101e-002 -7.500000e-001  2.435392e-001
      vertex -1.117560e-001 -7.500000e-001  2.402540e-001
      vertex -8.923081e-002 -7.500000e-001  2.402540e-001
    endloop
  endfacet
  facet normal  0.000000e+000 -1.000000e+000  0.000000e+000
    outer loop
      vertex -8.923081e-002 -7.500000e-001  2.402540e-001
      vertex -1.117560e-001 -7.500000e-001  2.402540e-001
      vertex -1.004934e-001 -7.500000e-001  2.391447e-001
    endloop
  endfacet
  facet normal  0.000000e+000 -1.000000e+000  0.000000e+000
    outer loop
      vertex -4.715761e-002 -7.500000e-001  3.189674e-001
      vertex -1.538292e-001 -7.500000e-001  3.189674e-001
      vertex -4.387243e-002 -7.500000e-001  3.081376e-001
    endloop
  endfacet
  facet normal  0.000000e+000 -9.999999e-001  0.000000e+000
    outer loop
      vertex -4.387243e-002 -7.500000e-001  3.081376e-001
      vertex -1.538292e-001 -7.500000e-001  3.189674e-001
      vertex -1.571144e-001 -7.500000e-001  3.081376e-001
    endloop
  endfacet
  facet normal  0.000000e+000 -9.999999e-001  0.000000e+000
    outer loop
      vertex -4.387243e-002 -7.500000e-001  3.081376e-001
      vertex -1.571144e-001 -7.500000e-001  3.081376e-001
      vertex -4.276316e-002 -7.500000e-001  2.968750e-001
    endloop
  endfacet
  facet normal  0.000000e+000 -1.000000e+000  0.000000e+000
    outer loop
      vertex -4.276316e-002 -7.500000e-001  2.968750e-001
      vertex -1.571144e-001 -7.500000e-001  3.081376e-001
      vertex -1.582237e-001 -7.500000e-001  2.968750e-001
    endloop
  endfacet
  facet normal  0.000000e+000 -1.000000e+000  0.000000e+000
    outer loop
      vertex -4.276316e-002 -7.500000e-001  2.968750e-001
      vertex -1.582237e-001 -7.500000e-001  2.968750e-001
      vertex -4.387243e-002 -7.500000e-001  2.856124e-001
    endloop
  endfacet
  facet normal  0.000000e+000 -9.999999e-001  0.000000e+000
    outer loop
      vertex -4.387243e-002 -7.500000e-001  2.856124e-001
      vertex -1.582237e-001 -7.500000e-001  2.968750e-001
      vertex -1.571144e-001 -7.500000e-001  2.856124e-001
    endloop
  endfacet
  facet normal  0.000000e+000 -9.999999e-001  0.000000e+000
    outer loop
      vertex -4.387243e-002 -7.500000e-001  2.856124e-001
      vertex -1.571144e-001 -7.500000e-001  2.856124e-001
      vertex -4.715761e-002 -7.500000e-001  2.747826e-001
    endloop
  endfacet
  facet normal  0.000000e+000 -1.000000e+000  0.000000e+000
    outer loop
      vertex -4.715761e-002 -7.500000e-001  2.747826e-001
      vertex -1.571144e-001 -7.500000e-001  2.856124e-001
      vertex -1.538292e-001 -7.500000e-001  2.747826e-001
    endloop
  endfacet
  facet normal  0.000000e+000 -1.000000e+000  0.000000e+000
    outer loop
      vertex -4.715761e-002 -7.500000e-001  2.747826e-001
      vertex -1.538292e-001 -7.500000e-001  2.747826e-001
      vertex -1.484944e-001 -7.500000e-001  2.648018e-001
    endloop
  endfacet
  facet normal -5.551116e-017  1.000000e+000 -5.551124e-017
    outer loop
      vertex -1.004934e-001  3.204673e-018  3.546053e-001
      vertex -8.923081e-002  3.768297e-018  3.534960e-001
      vertex -1.117560e-001  2.517896e-018  3.534960e-001
    endloop
  endfacet
  facet normal -5.551116e-017  1.000000e+000 -5.551140e-017
    outer loop
      vertex -1.225858e-001  1.734357e-018  3.502108e-001
      vertex -1.117560e-001  2.517896e-018  3.534960e-001
      vertex -8.923081e-002  3.768297e-018  3.534960e-001
    endloop
  endfacet
  facet normal -5.551116e-017  1.000000e+000 -5.551144e-017
    outer loop
      vertex -7.840101e-002  4.187108e-018  3.502108e-001
      vertex -1.225858e-001  1.734357e-018  3.502108e-001
      vertex -8.923081e-002  3.768297e-018  3.534960e-001
    endloop
  endfacet
  facet normal -5.551116e-017  1.000000e+000 -5.551111e-017
    outer loop
      vertex -1.325666e-001  8.841674e-019  3.448760e-001
      vertex -1.225858e-001  1.734357e-018  3.502108e-001
      vertex -7.840101e-002  4.187108e-018  3.502108e-001
    endloop
  endfacet
  facet normal -5.551116e-017  1.000000e+000 -5.551112e-017
    outer loop
      vertex -6.842021e-002  4.445010e-018  3.448760e-001
      vertex -1.325666e-001  8.841674e-019  3.448760e-001
      vertex -7.840101e-002  4.187108e-018  3.502108e-001
    endloop
  endfacet
  facet normal -5.551116e-017  9.999999e-001 -5.551111e-017
    outer loop
      vertex -1.413149e-001  7.703720e-034  3.376965e-001
      vertex -1.325666e-001  8.841674e-019  3.448760e-001
      vertex -6.842021e-002  4.445010e-018  3.448760e-001
    endloop
  endfacet
  facet normal -5.551115e-017  1.000000e+000 -5.551121e-017
    outer loop
      vertex -5.967196e-002  4.532092e-018  3.376965e-001
      vertex -1.413149e-001  7.703720e-034  3.376965e-001
      vertex -6.842021e-002  4.445010e-018  3.448760e-001
    endloop
  endfacet
  facet normal -5.551115e-017  1.000000e+000 -5.551122e-017
    outer loop
      vertex -1.484944e-001 -8.841674e-019  3.289482e-001
      vertex -1.413149e-001  7.703720e-034  3.376965e-001
      vertex -5.967196e-002  4.532092e-018  3.376965e-001
    endloop
  endfacet
  facet normal -5.551116e-017  1.000000e+000 -5.551116e-017
    outer loop
      vertex -5.249246e-002  4.445010e-018  3.289482e-001
      vertex -1.484944e-001 -8.841674e-019  3.289482e-001
      vertex -5.967196e-002  4.532092e-018  3.376965e-001
    endloop
  endfacet
  facet normal -5.551116e-017  1.000000e+000 -5.551098e-017
    outer loop
      vertex -1.538292e-001 -1.734357e-018  3.189674e-001
      vertex -1.484944e-001 -8.841674e-019  3.289482e-001
      vertex -5.249246e-002  4.445010e-018  3.289482e-001
    endloop
  endfacet
  facet normal -5.551115e-017  1.000000e+000 -5.551099e-017
    outer loop
      vertex -4.715761e-002  4.187108e-018  3.189674e-001
      vertex -1.538292e-001 -1.734357e-018  3.189674e-001
      vertex -5.249246e-002  4.445010e-018  3.289482e-001
    endloop
  endfacet
  facet normal -5.551116e-017  1.000000e+000 -5.551099e-017
    outer loop
      vertex -5.249246e-002  8.841674e-019  2.648018e-001
      vertex -1.484944e-001 -4.445010e-018  2.648018e-001
      vertex -4.715761e-002  1.734357e-018  2.747826e-001
    endloop
  endfacet
  facet normal -5.551116e-017  1.000000e+000 -5.551120e-017
    outer loop
      vertex -1.413149e-001 -4.532092e-018  2.560535e-001
      vertex -1.484944e-001 -4.445010e-018  2.648018e-001
      vertex -5.249246e-002  8.841674e-019  2.648018e-001
    endloop
  endfacet
  facet normal -5.551115e-017  1.000000e+000 -5.551120e-017
    outer loop
      vertex -5.967196e-002 -1.155558e-033  2.560535e-001
      vertex -1.413149e-001 -4.532092e-018  2.560535e-001
      vertex -5.249246e-002  8.841674e-019  2.648018e-001
    endloop
  endfacet
  facet normal -5.551115e-017  1.000000e+000 -5.551121e-017
    outer loop
      vertex -1.325666e-001 -4.445010e-018  2.488740e-001
      vertex -1.413149e-001 -4.532092e-018  2.560535e-001
      vertex -5.967196e-002 -1.155558e-033  2.560535e-001
    endloop
  endfacet
  facet normal -5.551116e-017  9.999999e-001 -5.551114e-017
    outer loop
      vertex -6.842021e-002 -8.841674e-019  2.488740e-001
      vertex -1.325666e-001 -4.445010e-018  2.488740e-001
      vertex -5.967196e-002 -1.155558e-033  2.560535e-001
    endloop
  endfacet
  facet normal -5.551116e-017  1.000000e+000 -5.551109e-017
    outer loop
      vertex -1.225858e-001 -4.187108e-018  2.435392e-001
      vertex -1.325666e-001 -4.445010e-018  2.488740e-001
      vertex -6.842021e-002 -8.841674e-019  2.488740e-001
    endloop
  endfacet
  facet normal -5.551116e-017  1.000000e+000 -5.551109e-017
    outer loop
      vertex -7.840101e-002 -1.734357e-018  2.435392e-001
      vertex -1.225858e-001 -4.187108e-018  2.435392e-001
      vertex -6.842021e-002 -8.841674e-019  2.488740e-001
    endloop
  endfacet
  facet normal -5.551116e-017  1.000000e+000 -5.551144e-017
    outer loop
      vertex -1.117560e-001 -3.768297e-018  2.402540e-001
      vertex -1.225858e-001 -4.187108e-018  2.435392e-001
      vertex -7.840101e-002 -1.734357e-018  2.435392e-001
    endloop
  endfacet
  facet normal -5.551116e-017  1.000000e+000 -5.551144e-017
    outer loop
      vertex -8.923081e-002 -2.517896e-018  2.402540e-001
      vertex -1.117560e-001 -3.768297e-018  2.402540e-001
      vertex -7.840101e-002 -1.734357e-018  2.435392e-001
    endloop
  endfacet
  facet normal -5.551116e-017  1.000000e+000 -5.551087e-017
    outer loop
      vertex -1.004934e-001 -3.204673e-018  2.391447e-001
      vertex -1.117560e-001 -3.768297e-018  2.402540e-001
      vertex -8.923081e-002 -2.517896e-018  2.402540e-001
    endloop
  endfacet
  facet normal -5.551115e-017  1.000000e+000 -5.551103e-017
    outer loop
      vertex -1.484944e-001 -4.445010e-018  2.648018e-001
      vertex -1.538292e-001 -4.187108e-018  2.747826e-001
      vertex -4.715761e-002  1.734357e-018  2.747826e-001
    endloop
  endfacet
  facet normal -5.551115e-017  1.000000e+000 -5.551127e-017
    outer loop
      vertex -4.715761e-002  1.734357e-018  2.747826e-001
      vertex -1.538292e-001 -4.187108e-018  2.747826e-001
      vertex -1.571144e-001 -3.768297e-018  2.856124e-001
    endloop
  endfacet
  facet normal -5.551115e-017  9.999999e-001 -5.551126e-017
    outer loop
      vertex -4.715761e-002  1.734357e-018  2.747826e-001
      vertex -1.571144e-001 -3.768297e-018  2.856124e-001
      vertex -4.387243e-002  2.517896e-018  2.856124e-001
    endloop
  endfacet
  facet normal -5.551115e-017  9.999999e-001 -5.551108e-017
    outer loop
      vertex -4.387243e-002  2.517896e-018  2.856124e-001
      vertex -1.571144e-001 -3.768297e-018  2.856124e-001
      vertex -1.582237e-001 -3.204673e-018  2.968750e-001
    endloop
  endfacet
  facet normal -5.551115e-017  1.000000e+000 -5.551108e-017
    outer loop
      vertex -4.387243e-002  2.517896e-018  2.856124e-001
      vertex -1.582237e-001 -3.204673e-018  2.968750e-001
      vertex -4.276316e-002  3.204673e-018  2.968750e-001
    endloop
  endfacet
  facet normal -5.551115e-017  1.000000e+000 -5.551108e-017
    outer loop
      vertex -4.276316e-002  3.204673e-018  2.968750e-001
      vertex -1.582237e-001 -3.204673e-018  2.968750e-001
      vertex -1.571144e-001 -2.517896e-018  3.081376e-001
    endloop
  endfacet
  facet normal -5.551115e-017  9.999999e-001 -5.551108e-017
    outer loop
      vertex -4.276316e-002  3.204673e-018  2.968750e-001
      vertex -1.571144e-001 -2.517896e-018  3.081376e-001
      vertex -4.387243e-002  3.768297e-018  3.081376e-001
    endloop
  endfacet
  facet normal -5.551115e-017  9.999999e-001 -5.551126e-017
    outer loop
      vertex -4.387243e-002  3.768297e-018  3.081376e-001
      vertex -1.571144e-001 -2.517896e-018  3.081376e-001
      vertex -1.538292e-001 -1.734357e-018  3.189674e-001
    endloop
  endfacet
  facet normal -5.551115e-017  1.000000e+000 -5.551127e-017
    outer loop
      vertex -4.387243e-002  3.768297e-018  3.081376e-001
      vertex -1.538292e-001 -1.734357e-018  3.189674e-001
      vertex -4.715761e-002  4.187108e-018  3.189674e-001
    endloop
  endfacet
endsolid CATIA STL
