solid CATIA STL
  facet normal  0.000000e+000  0.000000e+000  1.000000e+000
    outer loop
      vertex  1.233553e-002  3.125000e-002  7.500000e-001
      vertex -3.125000e-002 -6.250000e-002  7.500000e-001
      vertex  1.233553e-002 -6.250000e-002  7.500000e-001
    endloop
  endfacet
  facet normal  0.000000e+000  0.000000e+000  9.999999e-001
    outer loop
      vertex  3.289474e-003  3.125000e-002  7.500000e-001
      vertex  3.289474e-003  5.468750e-002  7.500000e-001
      vertex -3.125000e-002  5.468750e-002  7.500000e-001
    endloop
  endfacet
  facet normal  0.000000e+000  0.000000e+000  1.000000e+000
    outer loop
      vertex  3.289474e-003  3.125000e-002  7.500000e-001
      vertex -3.125000e-002  5.468750e-002  7.500000e-001
      vertex -3.125000e-002 -6.250000e-002  7.500000e-001
    endloop
  endfacet
  facet normal  0.000000e+000  0.000000e+000  1.000000e+000
    outer loop
      vertex  3.289474e-003  3.125000e-002  7.500000e-001
      vertex -3.125000e-002 -6.250000e-002  7.500000e-001
      vertex  1.233553e-002  3.125000e-002  7.500000e-001
    endloop
  endfacet
  facet normal  0.000000e+000  9.999999e-001  0.000000e+000
    outer loop
      vertex  1.233553e-002  3.125000e-002  7.500000e-001
      vertex  1.538381e-002  3.125000e-002  7.496998e-001
      vertex  1.831496e-002  3.125000e-002  7.488106e-001
    endloop
  endfacet
  facet normal  0.000000e+000  1.000000e+000  0.000000e+000
    outer loop
      vertex  2.338407e-002  3.125000e-002  7.454236e-001
      vertex  1.831496e-002  3.125000e-002  7.488106e-001
      vertex  2.101631e-002  3.125000e-002  7.473667e-001
    endloop
  endfacet
  facet normal  0.000000e+000  1.000000e+000  0.000000e+000
    outer loop
      vertex  3.289474e-003  3.125000e-002  7.500000e-001
      vertex  1.233553e-002  3.125000e-002  7.500000e-001
      vertex  1.831496e-002  3.125000e-002  7.488106e-001
    endloop
  endfacet
  facet normal  0.000000e+000  1.000000e+000  0.000000e+000
    outer loop
      vertex  3.289474e-003  3.125000e-002  7.500000e-001
      vertex  1.831496e-002  3.125000e-002  7.488106e-001
      vertex  2.338407e-002  3.125000e-002  7.454236e-001
    endloop
  endfacet
  facet normal  0.000000e+000  1.000000e+000  0.000000e+000
    outer loop
      vertex  3.289474e-003  3.125000e-002  7.500000e-001
      vertex  2.338407e-002  3.125000e-002  7.454236e-001
      vertex  2.532724e-002  3.125000e-002  7.430558e-001
    endloop
  endfacet
  facet normal  0.000000e+000  1.000000e+000  0.000000e+000
    outer loop
      vertex  3.289474e-003  3.125000e-002  7.500000e-001
      vertex  2.532724e-002  3.125000e-002  7.430558e-001
      vertex  2.677114e-002  3.125000e-002  7.403544e-001
    endloop
  endfacet
  facet normal  0.000000e+000  1.000000e+000  0.000000e+000
    outer loop
      vertex  3.289474e-003  3.125000e-002  7.500000e-001
      vertex  2.677114e-002  3.125000e-002  7.403544e-001
      vertex  2.766030e-002  3.125000e-002  7.374233e-001
    endloop
  endfacet
  facet normal  0.000000e+000  1.000000e+000  0.000000e+000
    outer loop
      vertex  3.289474e-003  3.125000e-002  7.500000e-001
      vertex  2.766030e-002  3.125000e-002  7.374233e-001
      vertex  2.796053e-002  3.125000e-002  7.343750e-001
    endloop
  endfacet
  facet normal  0.000000e+000  1.000000e+000  0.000000e+000
    outer loop
      vertex  3.289474e-003  3.125000e-002  7.500000e-001
      vertex  2.796053e-002  3.125000e-002  7.343750e-001
      vertex  2.796053e-002  3.125000e-002  0.000000e+000
    endloop
  endfacet
  facet normal  0.000000e+000  1.000000e+000  0.000000e+000
    outer loop
      vertex  3.289474e-003  3.125000e-002  7.500000e-001
      vertex  2.796053e-002  3.125000e-002  0.000000e+000
      vertex  3.289474e-003  3.125000e-002  0.000000e+000
    endloop
  endfacet
  facet normal  9.999999e-001  0.000000e+000  0.000000e+000
    outer loop
      vertex  2.796053e-002 -6.250000e-002  0.000000e+000
      vertex  2.796053e-002  3.125000e-002  0.000000e+000
      vertex  2.796053e-002 -6.250000e-002  7.343750e-001
    endloop
  endfacet
  facet normal  9.999999e-001  -0.000000e+000  0.000000e+000
    outer loop
      vertex  2.796053e-002 -6.250000e-002  7.343750e-001
      vertex  2.796053e-002  3.125000e-002  0.000000e+000
      vertex  2.796053e-002  3.125000e-002  7.343750e-001
    endloop
  endfacet
  facet normal  0.000000e+000 -1.000000e+000  0.000000e+000
    outer loop
      vertex  2.796053e-002 -6.250000e-002  7.343750e-001
      vertex -3.125000e-002 -6.250000e-002  0.000000e+000
      vertex  2.796053e-002 -6.250000e-002  0.000000e+000
    endloop
  endfacet
  facet normal  -0.000000e+000 -1.000000e+000  -0.000000e+000
    outer loop
      vertex  2.338407e-002 -6.250000e-002  7.454236e-001
      vertex  2.101631e-002 -6.250000e-002  7.473667e-001
      vertex  1.831496e-002 -6.250000e-002  7.488106e-001
    endloop
  endfacet
  facet normal  -0.000000e+000 -1.000000e+000  -0.000000e+000
    outer loop
      vertex  2.338407e-002 -6.250000e-002  7.454236e-001
      vertex  1.831496e-002 -6.250000e-002  7.488106e-001
      vertex  1.538381e-002 -6.250000e-002  7.496998e-001
    endloop
  endfacet
  facet normal  -0.000000e+000 -1.000000e+000  -0.000000e+000
    outer loop
      vertex  2.338407e-002 -6.250000e-002  7.454236e-001
      vertex  1.538381e-002 -6.250000e-002  7.496998e-001
      vertex  1.233553e-002 -6.250000e-002  7.500000e-001
    endloop
  endfacet
  facet normal  0.000000e+000 -1.000000e+000  0.000000e+000
    outer loop
      vertex -3.125000e-002 -6.250000e-002  7.500000e-001
      vertex -3.125000e-002 -6.250000e-002  0.000000e+000
      vertex  2.796053e-002 -6.250000e-002  7.343750e-001
    endloop
  endfacet
  facet normal  0.000000e+000 -1.000000e+000  0.000000e+000
    outer loop
      vertex -3.125000e-002 -6.250000e-002  7.500000e-001
      vertex  2.796053e-002 -6.250000e-002  7.343750e-001
      vertex  2.766030e-002 -6.250000e-002  7.374233e-001
    endloop
  endfacet
  facet normal  0.000000e+000 -1.000000e+000  0.000000e+000
    outer loop
      vertex -3.125000e-002 -6.250000e-002  7.500000e-001
      vertex  2.766030e-002 -6.250000e-002  7.374233e-001
      vertex  2.677114e-002 -6.250000e-002  7.403544e-001
    endloop
  endfacet
  facet normal  0.000000e+000 -1.000000e+000  0.000000e+000
    outer loop
      vertex -3.125000e-002 -6.250000e-002  7.500000e-001
      vertex  2.677114e-002 -6.250000e-002  7.403544e-001
      vertex  2.532724e-002 -6.250000e-002  7.430558e-001
    endloop
  endfacet
  facet normal  0.000000e+000 -1.000000e+000  0.000000e+000
    outer loop
      vertex -3.125000e-002 -6.250000e-002  7.500000e-001
      vertex  2.532724e-002 -6.250000e-002  7.430558e-001
      vertex  2.338407e-002 -6.250000e-002  7.454236e-001
    endloop
  endfacet
  facet normal  0.000000e+000 -1.000000e+000  0.000000e+000
    outer loop
      vertex -3.125000e-002 -6.250000e-002  7.500000e-001
      vertex  2.338407e-002 -6.250000e-002  7.454236e-001
      vertex  1.233553e-002 -6.250000e-002  7.500000e-001
    endloop
  endfacet
  facet normal  9.951848e-001  0.000000e+000  9.801622e-002
    outer loop
      vertex  2.796053e-002 -6.250000e-002  7.343750e-001
      vertex  2.796053e-002  3.125000e-002  7.343750e-001
      vertex  2.766030e-002 -6.250000e-002  7.374233e-001
    endloop
  endfacet
  facet normal  9.951848e-001  -0.000000e+000  9.801622e-002
    outer loop
      vertex  2.766030e-002 -6.250000e-002  7.374233e-001
      vertex  2.796053e-002  3.125000e-002  7.343750e-001
      vertex  2.766030e-002  3.125000e-002  7.374233e-001
    endloop
  endfacet
  facet normal  9.569396e-001  0.000000e+000  2.902869e-001
    outer loop
      vertex  2.766030e-002 -6.250000e-002  7.374233e-001
      vertex  2.766030e-002  3.125000e-002  7.374233e-001
      vertex  2.677114e-002 -6.250000e-002  7.403544e-001
    endloop
  endfacet
  facet normal  9.569396e-001  -0.000000e+000  2.902869e-001
    outer loop
      vertex  2.677114e-002 -6.250000e-002  7.403544e-001
      vertex  2.766030e-002  3.125000e-002  7.374233e-001
      vertex  2.677114e-002  3.125000e-002  7.403544e-001
    endloop
  endfacet
  facet normal  8.819202e-001  0.000000e+000  4.713989e-001
    outer loop
      vertex  2.677114e-002 -6.250000e-002  7.403544e-001
      vertex  2.677114e-002  3.125000e-002  7.403544e-001
      vertex  2.532724e-002 -6.250000e-002  7.430558e-001
    endloop
  endfacet
  facet normal  8.819202e-001  -0.000000e+000  4.713989e-001
    outer loop
      vertex  2.532724e-002 -6.250000e-002  7.430558e-001
      vertex  2.677114e-002  3.125000e-002  7.403544e-001
      vertex  2.532724e-002  3.125000e-002  7.430558e-001
    endloop
  endfacet
  facet normal  7.730152e-001  0.000000e+000  6.343875e-001
    outer loop
      vertex  2.532724e-002 -6.250000e-002  7.430558e-001
      vertex  2.532724e-002  3.125000e-002  7.430558e-001
      vertex  2.338407e-002 -6.250000e-002  7.454236e-001
    endloop
  endfacet
  facet normal  7.730152e-001  -0.000000e+000  6.343875e-001
    outer loop
      vertex  2.338407e-002 -6.250000e-002  7.454236e-001
      vertex  2.532724e-002  3.125000e-002  7.430558e-001
      vertex  2.338407e-002  3.125000e-002  7.454236e-001
    endloop
  endfacet
  facet normal  6.343936e-001  0.000000e+000  7.730103e-001
    outer loop
      vertex  2.338407e-002 -6.250000e-002  7.454236e-001
      vertex  2.338407e-002  3.125000e-002  7.454236e-001
      vertex  2.101631e-002 -6.250000e-002  7.473667e-001
    endloop
  endfacet
  facet normal  6.343936e-001  -0.000000e+000  7.730103e-001
    outer loop
      vertex  2.101631e-002 -6.250000e-002  7.473667e-001
      vertex  2.338407e-002  3.125000e-002  7.454236e-001
      vertex  2.101631e-002  3.125000e-002  7.473667e-001
    endloop
  endfacet
  facet normal  4.713862e-001  0.000000e+000  8.819270e-001
    outer loop
      vertex  2.101631e-002 -6.250000e-002  7.473667e-001
      vertex  2.101631e-002  3.125000e-002  7.473667e-001
      vertex  1.831496e-002 -6.250000e-002  7.488106e-001
    endloop
  endfacet
  facet normal  4.713862e-001  -0.000000e+000  8.819270e-001
    outer loop
      vertex  1.831496e-002 -6.250000e-002  7.488106e-001
      vertex  2.101631e-002  3.125000e-002  7.473667e-001
      vertex  1.831496e-002  3.125000e-002  7.488106e-001
    endloop
  endfacet
  facet normal  2.902935e-001  0.000000e+000  9.569376e-001
    outer loop
      vertex  1.831496e-002 -6.250000e-002  7.488106e-001
      vertex  1.831496e-002  3.125000e-002  7.488106e-001
      vertex  1.538381e-002 -6.250000e-002  7.496998e-001
    endloop
  endfacet
  facet normal  2.902935e-001  -0.000000e+000  9.569376e-001
    outer loop
      vertex  1.538381e-002 -6.250000e-002  7.496998e-001
      vertex  1.831496e-002  3.125000e-002  7.488106e-001
      vertex  1.538381e-002  3.125000e-002  7.496998e-001
    endloop
  endfacet
  facet normal  9.801669e-002  0.000000e+000  9.951847e-001
    outer loop
      vertex  1.538381e-002 -6.250000e-002  7.496998e-001
      vertex  1.538381e-002  3.125000e-002  7.496998e-001
      vertex  1.233553e-002 -6.250000e-002  7.500000e-001
    endloop
  endfacet
  facet normal  9.801669e-002  -0.000000e+000  9.951847e-001
    outer loop
      vertex  1.233553e-002 -6.250000e-002  7.500000e-001
      vertex  1.538381e-002  3.125000e-002  7.496998e-001
      vertex  1.233553e-002  3.125000e-002  7.500000e-001
    endloop
  endfacet
  facet normal  -0.000000e+000  -0.000000e+000 -1.000000e+000
    outer loop
      vertex  3.289474e-003  3.125000e-002  0.000000e+000
      vertex  2.796053e-002  3.125000e-002  0.000000e+000
      vertex  2.796053e-002 -6.250000e-002  0.000000e+000
    endloop
  endfacet
  facet normal  0.000000e+000  0.000000e+000 -1.000000e+000
    outer loop
      vertex  3.289474e-003  3.125000e-002  0.000000e+000
      vertex  2.796053e-002 -6.250000e-002  0.000000e+000
      vertex -3.125000e-002 -6.250000e-002  0.000000e+000
    endloop
  endfacet
  facet normal  0.000000e+000  0.000000e+000 -1.000000e+000
    outer loop
      vertex  3.289474e-003  3.125000e-002  0.000000e+000
      vertex -3.125000e-002 -6.250000e-002  0.000000e+000
      vertex -3.125000e-002  5.468750e-002  0.000000e+000
    endloop
  endfacet
  facet normal  0.000000e+000  0.000000e+000 -9.999999e-001
    outer loop
      vertex  3.289474e-003  3.125000e-002  0.000000e+000
      vertex -3.125000e-002  5.468750e-002  0.000000e+000
      vertex  3.289474e-003  5.468750e-002  0.000000e+000
    endloop
  endfacet
  facet normal -1.000000e+000  0.000000e+000  0.000000e+000
    outer loop
      vertex -3.125000e-002  5.468750e-002  0.000000e+000
      vertex -3.125000e-002 -6.250000e-002  0.000000e+000
      vertex -3.125000e-002  5.468750e-002  7.500000e-001
    endloop
  endfacet
  facet normal -1.000000e+000  -0.000000e+000  0.000000e+000
    outer loop
      vertex -3.125000e-002  5.468750e-002  7.500000e-001
      vertex -3.125000e-002 -6.250000e-002  0.000000e+000
      vertex -3.125000e-002 -6.250000e-002  7.500000e-001
    endloop
  endfacet
  facet normal  0.000000e+000  9.999999e-001  0.000000e+000
    outer loop
      vertex  3.289474e-003  5.468750e-002  0.000000e+000
      vertex -3.125000e-002  5.468750e-002  0.000000e+000
      vertex  3.289474e-003  5.468750e-002  7.500000e-001
    endloop
  endfacet
  facet normal  0.000000e+000  9.999999e-001  0.000000e+000
    outer loop
      vertex  3.289474e-003  5.468750e-002  7.500000e-001
      vertex -3.125000e-002  5.468750e-002  0.000000e+000
      vertex -3.125000e-002  5.468750e-002  7.500000e-001
    endloop
  endfacet
  facet normal  1.000000e+000  0.000000e+000  0.000000e+000
    outer loop
      vertex  3.289474e-003  3.125000e-002  0.000000e+000
      vertex  3.289474e-003  5.468750e-002  0.000000e+000
      vertex  3.289474e-003  3.125000e-002  7.500000e-001
    endloop
  endfacet
  facet normal  1.000000e+000  -0.000000e+000  0.000000e+000
    outer loop
      vertex  3.289474e-003  3.125000e-002  7.500000e-001
      vertex  3.289474e-003  5.468750e-002  0.000000e+000
      vertex  3.289474e-003  5.468750e-002  7.500000e-001
    endloop
  endfacet
endsolid CATIA STL
