solid CATIA STL
  facet normal  4.434887e-006 -8.637689e-001  5.038882e-001
    outer loop
      vertex  4.309993e-003 -4.991709e-001  5.313556e-001
      vertex  5.407934e-003 -4.996208e-001  5.305843e-001
      vertex  7.812500e-003 -5.000000e-001  5.299342e-001
    endloop
  endfacet
  facet normal  0.000000e+000 -8.637789e-001  5.038711e-001
    outer loop
      vertex  7.500000e-001 -4.453125e-001  6.236842e-001
      vertex  0.000000e+000 -4.453125e-001  6.236842e-001
      vertex  3.326919e-017 -4.921875e-001  5.433271e-001
    endloop
  endfacet
  facet normal  5.658372e-009 -8.637789e-001  5.038711e-001
    outer loop
      vertex  7.500000e-001 -4.453125e-001  6.236842e-001
      vertex  3.326919e-017 -4.921875e-001  5.433271e-001
      vertex  4.689997e-004 -4.948536e-001  5.387566e-001
    endloop
  endfacet
  facet normal  2.679929e-007 -8.637800e-001  5.038694e-001
    outer loop
      vertex  7.500000e-001 -4.453125e-001  6.236842e-001
      vertex  4.689997e-004 -4.948536e-001  5.387566e-001
      vertex  1.611008e-003 -4.969390e-001  5.351816e-001
    endloop
  endfacet
  facet normal  1.579514e-006 -8.637847e-001  5.038610e-001
    outer loop
      vertex  7.500000e-001 -4.453125e-001  6.236842e-001
      vertex  1.611008e-003 -4.969390e-001  5.351816e-001
      vertex  2.397040e-003 -4.978185e-001  5.336739e-001
    endloop
  endfacet
  facet normal  3.394904e-007 -8.637803e-001  5.038688e-001
    outer loop
      vertex  7.500000e-001 -4.453125e-001  6.236842e-001
      vertex  2.397040e-003 -4.978185e-001  5.336739e-001
      vertex  3.302272e-003 -4.985666e-001  5.323914e-001
    endloop
  endfacet
  facet normal -1.393635e-006 -8.637741e-001  5.038793e-001
    outer loop
      vertex  7.500000e-001 -4.453125e-001  6.236842e-001
      vertex  3.302272e-003 -4.985666e-001  5.323914e-001
      vertex  4.309993e-003 -4.991709e-001  5.313556e-001
    endloop
  endfacet
  facet normal -1.163130e-006 -8.637748e-001  5.038779e-001
    outer loop
      vertex  7.500000e-001 -4.453125e-001  6.236842e-001
      vertex  4.309993e-003 -4.991709e-001  5.313556e-001
      vertex  7.812500e-003 -5.000000e-001  5.299342e-001
    endloop
  endfacet
  facet normal  0.000000e+000 -8.637789e-001  5.038710e-001
    outer loop
      vertex  7.500000e-001 -4.453125e-001  6.236842e-001
      vertex  7.812500e-003 -5.000000e-001  5.299342e-001
      vertex  7.500000e-001 -5.000000e-001  5.299342e-001
    endloop
  endfacet
  facet normal  0.000000e+000 -1.000000e+000  0.000000e+000
    outer loop
      vertex  7.812500e-003 -5.000000e-001 -4.783777e-019
      vertex  7.500000e-001 -5.000000e-001 -4.592425e-017
      vertex  7.812500e-003 -5.000000e-001  5.299342e-001
    endloop
  endfacet
  facet normal  0.000000e+000 -1.000000e+000  0.000000e+000
    outer loop
      vertex  7.812500e-003 -5.000000e-001  5.299342e-001
      vertex  7.500000e-001 -5.000000e-001 -4.592425e-017
      vertex  7.500000e-001 -5.000000e-001  5.299342e-001
    endloop
  endfacet
  facet normal -1.000000e+000  0.000000e+000  6.123234e-017
    outer loop
      vertex  0.000000e+000  0.000000e+000  0.000000e+000
      vertex  0.000000e+000 -4.921875e-001  0.000000e+000
      vertex  3.818965e-017  0.000000e+000  6.236842e-001
    endloop
  endfacet
  facet normal -1.000000e+000  4.611604e-024  6.123234e-017
    outer loop
      vertex  3.818965e-017  0.000000e+000  6.236842e-001
      vertex  0.000000e+000 -4.921875e-001  0.000000e+000
      vertex  3.326919e-017 -4.921875e-001  5.433271e-001
    endloop
  endfacet
  facet normal -1.000000e+000  8.575921e-017 -4.640428e-016
    outer loop
      vertex  3.818965e-017  0.000000e+000  6.236842e-001
      vertex  3.326919e-017 -4.921875e-001  5.433271e-001
      vertex  0.000000e+000 -4.453125e-001  6.236842e-001
    endloop
  endfacet
  facet normal -6.123236e-017 -5.264479e-023 -1.000000e+000
    outer loop
      vertex  7.812500e-003 -5.000000e-001 -4.783777e-019
      vertex  6.288357e-003 -4.998499e-001 -3.850508e-019
      vertex  3.472107e-003 -4.986834e-001 -2.126053e-019
    endloop
  endfacet
  facet normal -6.123230e-017  8.918494e-023 -1.000000e+000
    outer loop
      vertex  3.472107e-003 -4.986834e-001 -2.126053e-019
      vertex  6.288357e-003 -4.998499e-001 -3.850508e-019
      vertex  4.822786e-003 -4.994053e-001 -2.953105e-019
    endloop
  endfacet
  facet normal -6.123234e-017  0.000000e+000 -1.000000e+000
    outer loop
      vertex  7.500000e-001  0.000000e+000 -4.592425e-017
      vertex  7.500000e-001 -5.000000e-001 -4.592425e-017
      vertex  7.812500e-003 -5.000000e-001 -4.783777e-019
    endloop
  endfacet
  facet normal -6.123234e-017  6.512219e-024 -1.000000e+000
    outer loop
      vertex  7.500000e-001  0.000000e+000 -4.592425e-017
      vertex  7.812500e-003 -5.000000e-001 -4.783777e-019
      vertex  3.472107e-003 -4.986834e-001 -2.126053e-019
    endloop
  endfacet
  facet normal -6.123234e-017  4.813373e-024 -1.000000e+000
    outer loop
      vertex  7.500000e-001  0.000000e+000 -4.592425e-017
      vertex  3.472107e-003 -4.986834e-001 -2.126053e-019
      vertex  2.288228e-003 -4.977118e-001 -1.401136e-019
    endloop
  endfacet
  facet normal -6.123234e-017  2.908783e-024 -1.000000e+000
    outer loop
      vertex  7.500000e-001  0.000000e+000 -4.592425e-017
      vertex  2.288228e-003 -4.977118e-001 -1.401136e-019
      vertex  1.316644e-003 -4.965279e-001 -8.062117e-020
    endloop
  endfacet
  facet normal -6.123234e-017 -2.505731e-024 -1.000000e+000
    outer loop
      vertex  7.500000e-001  0.000000e+000 -4.592425e-017
      vertex  1.316644e-003 -4.965279e-001 -8.062117e-020
      vertex  5.946911e-004 -4.951772e-001 -3.641433e-020
    endloop
  endfacet
  facet normal -6.123234e-017  2.418382e-024 -9.999999e-001
    outer loop
      vertex  7.500000e-001  0.000000e+000 -4.592425e-017
      vertex  5.946911e-004 -4.951772e-001 -3.641433e-020
      vertex  1.501150e-004 -4.937117e-001 -9.191893e-021
    endloop
  endfacet
  facet normal -6.123234e-017  3.337120e-026 -1.000000e+000
    outer loop
      vertex  7.500000e-001  0.000000e+000 -4.592425e-017
      vertex  1.501150e-004 -4.937117e-001 -9.191893e-021
      vertex  0.000000e+000 -4.921875e-001  0.000000e+000
    endloop
  endfacet
  facet normal -6.123234e-017  0.000000e+000 -9.999999e-001
    outer loop
      vertex  7.500000e-001  0.000000e+000 -4.592425e-017
      vertex  0.000000e+000 -4.921875e-001  0.000000e+000
      vertex  0.000000e+000  0.000000e+000  0.000000e+000
    endloop
  endfacet
  facet normal -9.848148e-001 -1.736084e-001  2.149163e-004
    outer loop
      vertex  3.326919e-017 -4.921875e-001  5.433271e-001
      vertex  1.501150e-004 -4.937117e-001 -9.191893e-021
      vertex  4.689997e-004 -4.948536e-001  5.387566e-001
    endloop
  endfacet
  facet normal -9.951847e-001 -9.801667e-002  6.093749e-017
    outer loop
      vertex  3.326919e-017 -4.921875e-001  5.433271e-001
      vertex  0.000000e+000 -4.921875e-001  0.000000e+000
      vertex  1.501150e-004 -4.937117e-001 -9.191893e-021
    endloop
  endfacet
  facet normal -9.569396e-001 -2.902869e-001 -4.889809e-005
    outer loop
      vertex  4.689997e-004 -4.948536e-001  5.387566e-001
      vertex  1.501150e-004 -4.937117e-001 -9.191893e-021
      vertex  5.946911e-004 -4.951772e-001 -3.641433e-020
    endloop
  endfacet
  facet normal -8.819202e-001 -4.713987e-001  7.738514e-005
    outer loop
      vertex  4.689997e-004 -4.948536e-001  5.387566e-001
      vertex  5.946911e-004 -4.951772e-001 -3.641433e-020
      vertex  1.316644e-003 -4.965279e-001 -8.062117e-020
    endloop
  endfacet
  facet normal -8.770125e-001 -4.804675e-001  1.132893e-004
    outer loop
      vertex  4.689997e-004 -4.948536e-001  5.387566e-001
      vertex  1.316644e-003 -4.965279e-001 -8.062117e-020
      vertex  1.611008e-003 -4.969390e-001  5.351816e-001
    endloop
  endfacet
  facet normal -7.730152e-001 -6.343876e-001 -6.215259e-005
    outer loop
      vertex  1.611008e-003 -4.969390e-001  5.351816e-001
      vertex  1.316644e-003 -4.965279e-001 -8.062117e-020
      vertex  2.288228e-003 -4.977118e-001 -1.401136e-019
    endloop
  endfacet
  facet normal -7.455873e-001 -6.664079e-001  1.879032e-005
    outer loop
      vertex  1.611008e-003 -4.969390e-001  5.351816e-001
      vertex  2.288228e-003 -4.977118e-001 -1.401136e-019
      vertex  2.397040e-003 -4.978185e-001  5.336739e-001
    endloop
  endfacet
  facet normal -6.343937e-001 -7.730101e-001 -2.519307e-005
    outer loop
      vertex  2.288228e-003 -4.977118e-001 -1.401136e-019
      vertex  3.472107e-003 -4.986834e-001 -2.126053e-019
      vertex  2.397040e-003 -4.978185e-001  5.336739e-001
    endloop
  endfacet
  facet normal -6.370757e-001 -7.708012e-001 -3.417591e-005
    outer loop
      vertex  2.397040e-003 -4.978185e-001  5.336739e-001
      vertex  3.472107e-003 -4.986834e-001 -2.126053e-019
      vertex  3.302272e-003 -4.985666e-001  5.323914e-001
    endloop
  endfacet
  facet normal -4.713861e-001 -8.819270e-001  4.305226e-005
    outer loop
      vertex  3.302272e-003 -4.985666e-001  5.323914e-001
      vertex  3.472107e-003 -4.986834e-001 -2.126053e-019
      vertex  4.822786e-003 -4.994053e-001 -2.953105e-019
    endloop
  endfacet
  facet normal -9.801671e-002 -9.951848e-001  -0.000000e+000
    outer loop
      vertex  7.812500e-003 -5.000000e-001 -4.783777e-019
      vertex  7.812500e-003 -5.000000e-001  5.299342e-001
      vertex  6.288357e-003 -4.998499e-001 -3.850508e-019
    endloop
  endfacet
  facet normal -1.557443e-001 -9.877974e-001  1.681230e-004
    outer loop
      vertex  6.288357e-003 -4.998499e-001 -3.850508e-019
      vertex  7.812500e-003 -5.000000e-001  5.299342e-001
      vertex  5.407934e-003 -4.996208e-001  5.305843e-001
    endloop
  endfacet
  facet normal -2.902935e-001 -9.569377e-001 -6.846681e-005
    outer loop
      vertex  6.288357e-003 -4.998499e-001 -3.850508e-019
      vertex  5.407934e-003 -4.996208e-001  5.305843e-001
      vertex  4.822786e-003 -4.994053e-001 -2.953105e-019
    endloop
  endfacet
  facet normal -3.791404e-001 -9.253392e-001  4.234907e-005
    outer loop
      vertex  4.822786e-003 -4.994053e-001 -2.953105e-019
      vertex  5.407934e-003 -4.996208e-001  5.305843e-001
      vertex  4.309993e-003 -4.991709e-001  5.313556e-001
    endloop
  endfacet
  facet normal -5.143592e-001 -8.575748e-001 -1.180422e-004
    outer loop
      vertex  4.822786e-003 -4.994053e-001 -2.953105e-019
      vertex  4.309993e-003 -4.991709e-001  5.313556e-001
      vertex  3.302272e-003 -4.985666e-001  5.323914e-001
    endloop
  endfacet
  facet normal  0.000000e+000  0.000000e+000  1.000000e+000
    outer loop
      vertex  7.500000e-001 -4.453125e-001  6.236842e-001
      vertex  7.500000e-001  0.000000e+000  6.236842e-001
      vertex  0.000000e+000 -4.453125e-001  6.236842e-001
    endloop
  endfacet
  facet normal  0.000000e+000  0.000000e+000  1.000000e+000
    outer loop
      vertex  0.000000e+000 -4.453125e-001  6.236842e-001
      vertex  7.500000e-001  0.000000e+000  6.236842e-001
      vertex  3.818965e-017  0.000000e+000  6.236842e-001
    endloop
  endfacet
  facet normal  1.000000e+000  0.000000e+000  0.000000e+000
    outer loop
      vertex  7.500000e-001 -5.000000e-001 -4.592425e-017
      vertex  7.500000e-001  0.000000e+000 -4.592425e-017
      vertex  7.500000e-001 -5.000000e-001  5.299342e-001
    endloop
  endfacet
  facet normal  9.999999e-001  -0.000000e+000  0.000000e+000
    outer loop
      vertex  7.500000e-001 -5.000000e-001  5.299342e-001
      vertex  7.500000e-001  0.000000e+000 -4.592425e-017
      vertex  7.500000e-001  0.000000e+000  6.236842e-001
    endloop
  endfacet
  facet normal  1.000000e+000  0.000000e+000  0.000000e+000
    outer loop
      vertex  7.500000e-001 -5.000000e-001  5.299342e-001
      vertex  7.500000e-001  0.000000e+000  6.236842e-001
      vertex  7.500000e-001 -4.453125e-001  6.236842e-001
    endloop
  endfacet
  facet normal  0.000000e+000  9.999999e-001  0.000000e+000
    outer loop
      vertex  0.000000e+000  0.000000e+000  0.000000e+000
      vertex  3.818965e-017  0.000000e+000  6.236842e-001
      vertex  7.500000e-001  0.000000e+000 -4.592425e-017
    endloop
  endfacet
  facet normal  0.000000e+000  9.999999e-001  -0.000000e+000
    outer loop
      vertex  7.500000e-001  0.000000e+000 -4.592425e-017
      vertex  3.818965e-017  0.000000e+000  6.236842e-001
      vertex  7.500000e-001  0.000000e+000  6.236842e-001
    endloop
  endfacet
endsolid CATIA STL
