solid CATIA STL
  facet normal  0.000000e+000  -0.000000e+000 -9.999999e-001
    outer loop
      vertex  6.145892e-001  1.482731e-001 -4.687500e-002
      vertex  6.190476e-001  1.496256e-001 -4.687500e-002
      vertex  6.236842e-001  1.500822e-001 -4.687500e-002
    endloop
  endfacet
  facet normal  0.000000e+000  -0.000000e+000 -1.000000e+000
    outer loop
      vertex  6.145892e-001  1.482731e-001 -4.687500e-002
      vertex  6.236842e-001  1.500822e-001 -4.687500e-002
      vertex  6.283208e-001  1.496256e-001 -4.687500e-002
    endloop
  endfacet
  facet normal  0.000000e+000  0.000000e+000 -9.999999e-001
    outer loop
      vertex  6.327792e-001  1.482731e-001 -4.687500e-002
      vertex  6.145892e-001  1.482731e-001 -4.687500e-002
      vertex  6.283208e-001  1.496256e-001 -4.687500e-002
    endloop
  endfacet
  facet normal  0.000000e+000  -0.000000e+000 -9.999999e-001
    outer loop
      vertex  6.104803e-001  1.460769e-001 -4.687500e-002
      vertex  6.145892e-001  1.482731e-001 -4.687500e-002
      vertex  6.327792e-001  1.482731e-001 -4.687500e-002
    endloop
  endfacet
  facet normal  0.000000e+000  0.000000e+000 -9.999999e-001
    outer loop
      vertex  6.368881e-001  1.460769e-001 -4.687500e-002
      vertex  6.104803e-001  1.460769e-001 -4.687500e-002
      vertex  6.327792e-001  1.482731e-001 -4.687500e-002
    endloop
  endfacet
  facet normal  0.000000e+000  -0.000000e+000 -1.000000e+000
    outer loop
      vertex  6.068788e-001  1.431212e-001 -4.687500e-002
      vertex  6.104803e-001  1.460769e-001 -4.687500e-002
      vertex  6.368881e-001  1.460769e-001 -4.687500e-002
    endloop
  endfacet
  facet normal  0.000000e+000  0.000000e+000 -1.000000e+000
    outer loop
      vertex  6.404896e-001  1.431212e-001 -4.687500e-002
      vertex  6.068788e-001  1.431212e-001 -4.687500e-002
      vertex  6.368881e-001  1.460769e-001 -4.687500e-002
    endloop
  endfacet
  facet normal  0.000000e+000  -0.000000e+000 -1.000000e+000
    outer loop
      vertex  6.039231e-001  1.395197e-001 -4.687500e-002
      vertex  6.068788e-001  1.431212e-001 -4.687500e-002
      vertex  6.404896e-001  1.431212e-001 -4.687500e-002
    endloop
  endfacet
  facet normal  0.000000e+000  0.000000e+000 -1.000000e+000
    outer loop
      vertex  6.434453e-001  1.395197e-001 -4.687500e-002
      vertex  6.039231e-001  1.395197e-001 -4.687500e-002
      vertex  6.404896e-001  1.431212e-001 -4.687500e-002
    endloop
  endfacet
  facet normal  0.000000e+000  -0.000000e+000 -1.000000e+000
    outer loop
      vertex  6.017269e-001  1.354108e-001 -4.687500e-002
      vertex  6.039231e-001  1.395197e-001 -4.687500e-002
      vertex  6.434453e-001  1.395197e-001 -4.687500e-002
    endloop
  endfacet
  facet normal  0.000000e+000  0.000000e+000 -1.000000e+000
    outer loop
      vertex  6.456416e-001  1.354108e-001 -4.687500e-002
      vertex  6.017269e-001  1.354108e-001 -4.687500e-002
      vertex  6.434453e-001  1.395197e-001 -4.687500e-002
    endloop
  endfacet
  facet normal  0.000000e+000  -0.000000e+000 -1.000000e+000
    outer loop
      vertex  6.003744e-001  1.309524e-001 -4.687500e-002
      vertex  6.017269e-001  1.354108e-001 -4.687500e-002
      vertex  6.456416e-001  1.354108e-001 -4.687500e-002
    endloop
  endfacet
  facet normal  0.000000e+000  0.000000e+000 -1.000000e+000
    outer loop
      vertex  6.469940e-001  1.309524e-001 -4.687500e-002
      vertex  6.003744e-001  1.309524e-001 -4.687500e-002
      vertex  6.456416e-001  1.354108e-001 -4.687500e-002
    endloop
  endfacet
  facet normal  0.000000e+000  0.000000e+000 -9.999999e-001
    outer loop
      vertex  6.456416e-001  1.172208e-001 -4.687500e-002
      vertex  6.017269e-001  1.172208e-001 -4.687500e-002
      vertex  6.469940e-001  1.216792e-001 -4.687500e-002
    endloop
  endfacet
  facet normal  0.000000e+000  0.000000e+000 -1.000000e+000
    outer loop
      vertex  6.039231e-001  1.131119e-001 -4.687500e-002
      vertex  6.017269e-001  1.172208e-001 -4.687500e-002
      vertex  6.456416e-001  1.172208e-001 -4.687500e-002
    endloop
  endfacet
  facet normal  0.000000e+000  0.000000e+000 -1.000000e+000
    outer loop
      vertex  6.434453e-001  1.131119e-001 -4.687500e-002
      vertex  6.039231e-001  1.131119e-001 -4.687500e-002
      vertex  6.456416e-001  1.172208e-001 -4.687500e-002
    endloop
  endfacet
  facet normal  0.000000e+000  0.000000e+000 -1.000000e+000
    outer loop
      vertex  6.068788e-001  1.095104e-001 -4.687500e-002
      vertex  6.039231e-001  1.131119e-001 -4.687500e-002
      vertex  6.434453e-001  1.131119e-001 -4.687500e-002
    endloop
  endfacet
  facet normal  0.000000e+000  0.000000e+000 -1.000000e+000
    outer loop
      vertex  6.404896e-001  1.095104e-001 -4.687500e-002
      vertex  6.068788e-001  1.095104e-001 -4.687500e-002
      vertex  6.434453e-001  1.131119e-001 -4.687500e-002
    endloop
  endfacet
  facet normal  0.000000e+000  0.000000e+000 -1.000000e+000
    outer loop
      vertex  6.104803e-001  1.065547e-001 -4.687500e-002
      vertex  6.068788e-001  1.095104e-001 -4.687500e-002
      vertex  6.404896e-001  1.095104e-001 -4.687500e-002
    endloop
  endfacet
  facet normal  0.000000e+000  0.000000e+000 -1.000000e+000
    outer loop
      vertex  6.368881e-001  1.065547e-001 -4.687500e-002
      vertex  6.104803e-001  1.065547e-001 -4.687500e-002
      vertex  6.404896e-001  1.095104e-001 -4.687500e-002
    endloop
  endfacet
  facet normal  0.000000e+000  0.000000e+000 -9.999999e-001
    outer loop
      vertex  6.145892e-001  1.043585e-001 -4.687500e-002
      vertex  6.104803e-001  1.065547e-001 -4.687500e-002
      vertex  6.368881e-001  1.065547e-001 -4.687500e-002
    endloop
  endfacet
  facet normal  0.000000e+000  0.000000e+000 -9.999999e-001
    outer loop
      vertex  6.327792e-001  1.043585e-001 -4.687500e-002
      vertex  6.145892e-001  1.043585e-001 -4.687500e-002
      vertex  6.368881e-001  1.065547e-001 -4.687500e-002
    endloop
  endfacet
  facet normal  0.000000e+000  0.000000e+000 -1.000000e+000
    outer loop
      vertex  6.190476e-001  1.030060e-001 -4.687500e-002
      vertex  6.145892e-001  1.043585e-001 -4.687500e-002
      vertex  6.327792e-001  1.043585e-001 -4.687500e-002
    endloop
  endfacet
  facet normal  0.000000e+000  0.000000e+000 -1.000000e+000
    outer loop
      vertex  6.236842e-001  1.025493e-001 -4.687500e-002
      vertex  6.190476e-001  1.030060e-001 -4.687500e-002
      vertex  6.327792e-001  1.043585e-001 -4.687500e-002
    endloop
  endfacet
  facet normal  0.000000e+000  0.000000e+000 -1.000000e+000
    outer loop
      vertex  6.283208e-001  1.030060e-001 -4.687500e-002
      vertex  6.236842e-001  1.025493e-001 -4.687500e-002
      vertex  6.327792e-001  1.043585e-001 -4.687500e-002
    endloop
  endfacet
  facet normal  0.000000e+000  0.000000e+000 -1.000000e+000
    outer loop
      vertex  6.017269e-001  1.172208e-001 -4.687500e-002
      vertex  6.003744e-001  1.216792e-001 -4.687500e-002
      vertex  6.469940e-001  1.216792e-001 -4.687500e-002
    endloop
  endfacet
  facet normal  0.000000e+000  0.000000e+000 -1.000000e+000
    outer loop
      vertex  6.469940e-001  1.216792e-001 -4.687500e-002
      vertex  6.003744e-001  1.216792e-001 -4.687500e-002
      vertex  5.999178e-001  1.263158e-001 -4.687500e-002
    endloop
  endfacet
  facet normal  0.000000e+000  0.000000e+000 -9.999999e-001
    outer loop
      vertex  6.469940e-001  1.216792e-001 -4.687500e-002
      vertex  5.999178e-001  1.263158e-001 -4.687500e-002
      vertex  6.474507e-001  1.263158e-001 -4.687500e-002
    endloop
  endfacet
  facet normal  0.000000e+000  0.000000e+000 -9.999999e-001
    outer loop
      vertex  6.474507e-001  1.263158e-001 -4.687500e-002
      vertex  5.999178e-001  1.263158e-001 -4.687500e-002
      vertex  6.003744e-001  1.309524e-001 -4.687500e-002
    endloop
  endfacet
  facet normal  0.000000e+000  0.000000e+000 -1.000000e+000
    outer loop
      vertex  6.474507e-001  1.263158e-001 -4.687500e-002
      vertex  6.003744e-001  1.309524e-001 -4.687500e-002
      vertex  6.469940e-001  1.309524e-001 -4.687500e-002
    endloop
  endfacet
  facet normal  9.951839e-001 -9.802588e-002  0.000000e+000
    outer loop
      vertex  6.552632e-001  1.263158e-001 -3.906250e-002
      vertex  6.552632e-001  1.263158e-001  4.687500e-002
      vertex  6.546564e-001  1.201550e-001 -3.906250e-002
    endloop
  endfacet
  facet normal  9.951839e-001 -9.802588e-002  0.000000e+000
    outer loop
      vertex  6.546564e-001  1.201550e-001 -3.906250e-002
      vertex  6.552632e-001  1.263158e-001  4.687500e-002
      vertex  6.546564e-001  1.201550e-001  4.687500e-002
    endloop
  endfacet
  facet normal  9.569405e-001 -2.902842e-001  0.000000e+000
    outer loop
      vertex  6.546564e-001  1.201550e-001 -3.906250e-002
      vertex  6.546564e-001  1.201550e-001  4.687500e-002
      vertex  6.528593e-001  1.142311e-001 -3.906250e-002
    endloop
  endfacet
  facet normal  9.569405e-001 -2.902842e-001  0.000000e+000
    outer loop
      vertex  6.528593e-001  1.142311e-001 -3.906250e-002
      vertex  6.546564e-001  1.201550e-001  4.687500e-002
      vertex  6.528593e-001  1.142311e-001  4.687500e-002
    endloop
  endfacet
  facet normal  8.819229e-001 -4.713936e-001  0.000000e+000
    outer loop
      vertex  6.528593e-001  1.142311e-001 -3.906250e-002
      vertex  6.528593e-001  1.142311e-001  4.687500e-002
      vertex  6.499411e-001  1.087715e-001 -3.906250e-002
    endloop
  endfacet
  facet normal  8.819229e-001 -4.713936e-001  0.000000e+000
    outer loop
      vertex  6.499411e-001  1.087715e-001 -3.906250e-002
      vertex  6.528593e-001  1.142311e-001  4.687500e-002
      vertex  6.499411e-001  1.087715e-001  4.687500e-002
    endloop
  endfacet
  facet normal  7.730119e-001 -6.343915e-001  0.000000e+000
    outer loop
      vertex  6.499411e-001  1.087715e-001 -3.906250e-002
      vertex  6.499411e-001  1.087715e-001  4.687500e-002
      vertex  6.460139e-001  1.039861e-001 -3.906250e-002
    endloop
  endfacet
  facet normal  7.730119e-001 -6.343915e-001  0.000000e+000
    outer loop
      vertex  6.460139e-001  1.039861e-001 -3.906250e-002
      vertex  6.499411e-001  1.087715e-001  4.687500e-002
      vertex  6.460139e-001  1.039861e-001  4.687500e-002
    endloop
  endfacet
  facet normal  6.343936e-001 -7.730102e-001  0.000000e+000
    outer loop
      vertex  6.460139e-001  1.039861e-001 -3.906250e-002
      vertex  6.460139e-001  1.039861e-001  4.687500e-002
      vertex  6.412286e-001  1.000589e-001 -3.906250e-002
    endloop
  endfacet
  facet normal  6.343936e-001 -7.730102e-001  0.000000e+000
    outer loop
      vertex  6.412286e-001  1.000589e-001 -3.906250e-002
      vertex  6.460139e-001  1.039861e-001  4.687500e-002
      vertex  6.412286e-001  1.000589e-001  4.687500e-002
    endloop
  endfacet
  facet normal  4.713949e-001 -8.819222e-001  0.000000e+000
    outer loop
      vertex  6.412286e-001  1.000589e-001 -3.906250e-002
      vertex  6.412286e-001  1.000589e-001  4.687500e-002
      vertex  6.357689e-001  9.714065e-002 -3.906250e-002
    endloop
  endfacet
  facet normal  4.713949e-001 -8.819222e-001  0.000000e+000
    outer loop
      vertex  6.357689e-001  9.714065e-002 -3.906250e-002
      vertex  6.412286e-001  1.000589e-001  4.687500e-002
      vertex  6.357689e-001  9.714065e-002  4.687500e-002
    endloop
  endfacet
  facet normal  2.902856e-001 -9.569401e-001  0.000000e+000
    outer loop
      vertex  6.357689e-001  9.714065e-002 -3.906250e-002
      vertex  6.357689e-001  9.714065e-002  4.687500e-002
      vertex  6.298450e-001  9.534362e-002 -3.906250e-002
    endloop
  endfacet
  facet normal  2.902856e-001 -9.569401e-001  0.000000e+000
    outer loop
      vertex  6.298450e-001  9.534362e-002 -3.906250e-002
      vertex  6.357689e-001  9.714065e-002  4.687500e-002
      vertex  6.298450e-001  9.534362e-002  4.687500e-002
    endloop
  endfacet
  facet normal  9.801646e-002 -9.951847e-001  0.000000e+000
    outer loop
      vertex  6.298450e-001  9.534362e-002 -3.906250e-002
      vertex  6.298450e-001  9.534362e-002  4.687500e-002
      vertex  6.236842e-001  9.473684e-002 -3.906250e-002
    endloop
  endfacet
  facet normal  9.801646e-002 -9.951847e-001  0.000000e+000
    outer loop
      vertex  6.236842e-001  9.473684e-002 -3.906250e-002
      vertex  6.298450e-001  9.534362e-002  4.687500e-002
      vertex  6.236842e-001  9.473684e-002  4.687500e-002
    endloop
  endfacet
  facet normal -9.801646e-002 -9.951847e-001  -0.000000e+000
    outer loop
      vertex  6.236842e-001  9.473684e-002 -3.906250e-002
      vertex  6.236842e-001  9.473684e-002  4.687500e-002
      vertex  6.175235e-001  9.534362e-002 -3.906250e-002
    endloop
  endfacet
  facet normal -9.801646e-002 -9.951847e-001  0.000000e+000
    outer loop
      vertex  6.175235e-001  9.534362e-002 -3.906250e-002
      vertex  6.236842e-001  9.473684e-002  4.687500e-002
      vertex  6.175235e-001  9.534362e-002  4.687500e-002
    endloop
  endfacet
  facet normal -2.902829e-001 -9.569409e-001  -0.000000e+000
    outer loop
      vertex  6.175235e-001  9.534362e-002 -3.906250e-002
      vertex  6.175235e-001  9.534362e-002  4.687500e-002
      vertex  6.115994e-001  9.714065e-002 -3.906250e-002
    endloop
  endfacet
  facet normal -2.902829e-001 -9.569409e-001  0.000000e+000
    outer loop
      vertex  6.115994e-001  9.714065e-002 -3.906250e-002
      vertex  6.175235e-001  9.534362e-002  4.687500e-002
      vertex  6.115994e-001  9.714065e-002  4.687500e-002
    endloop
  endfacet
  facet normal -4.713989e-001 -8.819201e-001  -0.000000e+000
    outer loop
      vertex  6.115994e-001  9.714065e-002 -3.906250e-002
      vertex  6.115994e-001  9.714065e-002  4.687500e-002
      vertex  6.061399e-001  1.000589e-001 -3.906250e-002
    endloop
  endfacet
  facet normal -4.713989e-001 -8.819201e-001  0.000000e+000
    outer loop
      vertex  6.061399e-001  1.000589e-001 -3.906250e-002
      vertex  6.115994e-001  9.714065e-002  4.687500e-002
      vertex  6.061399e-001  1.000589e-001  4.687500e-002
    endloop
  endfacet
  facet normal -6.343936e-001 -7.730102e-001  -0.000000e+000
    outer loop
      vertex  6.061399e-001  1.000589e-001 -3.906250e-002
      vertex  6.061399e-001  1.000589e-001  4.687500e-002
      vertex  6.013545e-001  1.039861e-001 -3.906250e-002
    endloop
  endfacet
  facet normal -6.343936e-001 -7.730102e-001  0.000000e+000
    outer loop
      vertex  6.013545e-001  1.039861e-001 -3.906250e-002
      vertex  6.061399e-001  1.000589e-001  4.687500e-002
      vertex  6.013545e-001  1.039861e-001  4.687500e-002
    endloop
  endfacet
  facet normal -7.730072e-001 -6.343973e-001  -0.000000e+000
    outer loop
      vertex  6.013545e-001  1.039861e-001 -3.906250e-002
      vertex  6.013545e-001  1.039861e-001  4.687500e-002
      vertex  5.974272e-001  1.087715e-001 -3.906250e-002
    endloop
  endfacet
  facet normal -7.730072e-001 -6.343973e-001  0.000000e+000
    outer loop
      vertex  5.974272e-001  1.087715e-001 -3.906250e-002
      vertex  6.013545e-001  1.039861e-001  4.687500e-002
      vertex  5.974272e-001  1.087715e-001  4.687500e-002
    endloop
  endfacet
  facet normal -8.819229e-001 -4.713936e-001  -0.000000e+000
    outer loop
      vertex  5.974272e-001  1.087715e-001 -3.906250e-002
      vertex  5.974272e-001  1.087715e-001  4.687500e-002
      vertex  5.945091e-001  1.142311e-001 -3.906250e-002
    endloop
  endfacet
  facet normal -8.819229e-001 -4.713936e-001  0.000000e+000
    outer loop
      vertex  5.945091e-001  1.142311e-001 -3.906250e-002
      vertex  5.974272e-001  1.087715e-001  4.687500e-002
      vertex  5.945091e-001  1.142311e-001  4.687500e-002
    endloop
  endfacet
  facet normal -9.569405e-001 -2.902842e-001  -0.000000e+000
    outer loop
      vertex  5.945091e-001  1.142311e-001 -3.906250e-002
      vertex  5.945091e-001  1.142311e-001  4.687500e-002
      vertex  5.927120e-001  1.201550e-001 -3.906250e-002
    endloop
  endfacet
  facet normal -9.569405e-001 -2.902842e-001  0.000000e+000
    outer loop
      vertex  5.927120e-001  1.201550e-001 -3.906250e-002
      vertex  5.945091e-001  1.142311e-001  4.687500e-002
      vertex  5.927120e-001  1.201550e-001  4.687500e-002
    endloop
  endfacet
  facet normal -9.951847e-001 -9.801634e-002  -0.000000e+000
    outer loop
      vertex  5.927120e-001  1.201550e-001 -3.906250e-002
      vertex  5.927120e-001  1.201550e-001  4.687500e-002
      vertex  5.921053e-001  1.263158e-001 -3.906250e-002
    endloop
  endfacet
  facet normal -9.951847e-001 -9.801634e-002  0.000000e+000
    outer loop
      vertex  5.921053e-001  1.263158e-001 -3.906250e-002
      vertex  5.927120e-001  1.201550e-001  4.687500e-002
      vertex  5.921053e-001  1.263158e-001  4.687500e-002
    endloop
  endfacet
  facet normal -9.951849e-001  9.801623e-002  0.000000e+000
    outer loop
      vertex  5.921053e-001  1.263158e-001 -3.906250e-002
      vertex  5.921053e-001  1.263158e-001  4.687500e-002
      vertex  5.927120e-001  1.324765e-001 -3.906250e-002
    endloop
  endfacet
  facet normal -9.951849e-001  9.801623e-002  0.000000e+000
    outer loop
      vertex  5.927120e-001  1.324765e-001 -3.906250e-002
      vertex  5.921053e-001  1.263158e-001  4.687500e-002
      vertex  5.927120e-001  1.324765e-001  4.687500e-002
    endloop
  endfacet
  facet normal -9.569404e-001  2.902845e-001  0.000000e+000
    outer loop
      vertex  5.927120e-001  1.324765e-001 -3.906250e-002
      vertex  5.927120e-001  1.324765e-001  4.687500e-002
      vertex  5.945091e-001  1.384005e-001 -3.906250e-002
    endloop
  endfacet
  facet normal -9.569404e-001  2.902845e-001  0.000000e+000
    outer loop
      vertex  5.945091e-001  1.384005e-001 -3.906250e-002
      vertex  5.927120e-001  1.324765e-001  4.687500e-002
      vertex  5.945091e-001  1.384005e-001  4.687500e-002
    endloop
  endfacet
  facet normal -8.819231e-001  4.713931e-001  0.000000e+000
    outer loop
      vertex  5.945091e-001  1.384005e-001 -3.906250e-002
      vertex  5.945091e-001  1.384005e-001  4.687500e-002
      vertex  5.974272e-001  1.438601e-001 -3.906250e-002
    endloop
  endfacet
  facet normal -8.819231e-001  4.713931e-001  0.000000e+000
    outer loop
      vertex  5.974272e-001  1.438601e-001 -3.906250e-002
      vertex  5.945091e-001  1.384005e-001  4.687500e-002
      vertex  5.974272e-001  1.438601e-001  4.687500e-002
    endloop
  endfacet
  facet normal -7.730067e-001  6.343979e-001  0.000000e+000
    outer loop
      vertex  5.974272e-001  1.438601e-001 -3.906250e-002
      vertex  5.974272e-001  1.438601e-001  4.687500e-002
      vertex  6.013545e-001  1.486455e-001 -3.906250e-002
    endloop
  endfacet
  facet normal -7.730067e-001  6.343979e-001  0.000000e+000
    outer loop
      vertex  6.013545e-001  1.486455e-001 -3.906250e-002
      vertex  5.974272e-001  1.438601e-001  4.687500e-002
      vertex  6.013545e-001  1.486455e-001  4.687500e-002
    endloop
  endfacet
  facet normal -6.343936e-001  7.730102e-001  0.000000e+000
    outer loop
      vertex  6.013545e-001  1.486455e-001 -3.906250e-002
      vertex  6.013545e-001  1.486455e-001  4.687500e-002
      vertex  6.061399e-001  1.525727e-001 -3.906250e-002
    endloop
  endfacet
  facet normal -6.343936e-001  7.730102e-001  0.000000e+000
    outer loop
      vertex  6.061399e-001  1.525727e-001 -3.906250e-002
      vertex  6.013545e-001  1.486455e-001  4.687500e-002
      vertex  6.061399e-001  1.525727e-001  4.687500e-002
    endloop
  endfacet
  facet normal -4.713999e-001  8.819196e-001  0.000000e+000
    outer loop
      vertex  6.061399e-001  1.525727e-001 -3.906250e-002
      vertex  6.061399e-001  1.525727e-001  4.687500e-002
      vertex  6.115994e-001  1.554909e-001 -3.906250e-002
    endloop
  endfacet
  facet normal -4.713999e-001  8.819196e-001  0.000000e+000
    outer loop
      vertex  6.115994e-001  1.554909e-001 -3.906250e-002
      vertex  6.061399e-001  1.525727e-001  4.687500e-002
      vertex  6.115994e-001  1.554909e-001  4.687500e-002
    endloop
  endfacet
  facet normal -2.902818e-001  9.569412e-001  0.000000e+000
    outer loop
      vertex  6.115994e-001  1.554909e-001 -3.906250e-002
      vertex  6.115994e-001  1.554909e-001  4.687500e-002
      vertex  6.175235e-001  1.572880e-001 -3.906250e-002
    endloop
  endfacet
  facet normal -2.902818e-001  9.569412e-001  0.000000e+000
    outer loop
      vertex  6.175235e-001  1.572880e-001 -3.906250e-002
      vertex  6.115994e-001  1.554909e-001  4.687500e-002
      vertex  6.175235e-001  1.572880e-001  4.687500e-002
    endloop
  endfacet
  facet normal -9.801646e-002  9.951847e-001  0.000000e+000
    outer loop
      vertex  6.175235e-001  1.572880e-001 -3.906250e-002
      vertex  6.175235e-001  1.572880e-001  4.687500e-002
      vertex  6.236842e-001  1.578947e-001 -3.906250e-002
    endloop
  endfacet
  facet normal -9.801646e-002  9.951847e-001  0.000000e+000
    outer loop
      vertex  6.236842e-001  1.578947e-001 -3.906250e-002
      vertex  6.175235e-001  1.572880e-001  4.687500e-002
      vertex  6.236842e-001  1.578947e-001  4.687500e-002
    endloop
  endfacet
  facet normal  9.801646e-002  9.951847e-001  0.000000e+000
    outer loop
      vertex  6.236842e-001  1.578947e-001 -3.906250e-002
      vertex  6.236842e-001  1.578947e-001  4.687500e-002
      vertex  6.298450e-001  1.572880e-001 -3.906250e-002
    endloop
  endfacet
  facet normal  9.801646e-002  9.951847e-001  -0.000000e+000
    outer loop
      vertex  6.298450e-001  1.572880e-001 -3.906250e-002
      vertex  6.236842e-001  1.578947e-001  4.687500e-002
      vertex  6.298450e-001  1.572880e-001  4.687500e-002
    endloop
  endfacet
  facet normal  2.902845e-001  9.569404e-001  0.000000e+000
    outer loop
      vertex  6.298450e-001  1.572880e-001 -3.906250e-002
      vertex  6.298450e-001  1.572880e-001  4.687500e-002
      vertex  6.357689e-001  1.554909e-001 -3.906250e-002
    endloop
  endfacet
  facet normal  2.902845e-001  9.569404e-001  -0.000000e+000
    outer loop
      vertex  6.357689e-001  1.554909e-001 -3.906250e-002
      vertex  6.298450e-001  1.572880e-001  4.687500e-002
      vertex  6.357689e-001  1.554909e-001  4.687500e-002
    endloop
  endfacet
  facet normal  4.713959e-001  8.819217e-001  0.000000e+000
    outer loop
      vertex  6.357689e-001  1.554909e-001 -3.906250e-002
      vertex  6.357689e-001  1.554909e-001  4.687500e-002
      vertex  6.412286e-001  1.525727e-001 -3.906250e-002
    endloop
  endfacet
  facet normal  4.713959e-001  8.819217e-001  -0.000000e+000
    outer loop
      vertex  6.412286e-001  1.525727e-001 -3.906250e-002
      vertex  6.357689e-001  1.554909e-001  4.687500e-002
      vertex  6.412286e-001  1.525727e-001  4.687500e-002
    endloop
  endfacet
  facet normal  6.343936e-001  7.730102e-001  0.000000e+000
    outer loop
      vertex  6.412286e-001  1.525727e-001 -3.906250e-002
      vertex  6.412286e-001  1.525727e-001  4.687500e-002
      vertex  6.460139e-001  1.486455e-001 -3.906250e-002
    endloop
  endfacet
  facet normal  6.343936e-001  7.730102e-001  -0.000000e+000
    outer loop
      vertex  6.460139e-001  1.486455e-001 -3.906250e-002
      vertex  6.412286e-001  1.525727e-001  4.687500e-002
      vertex  6.460139e-001  1.486455e-001  4.687500e-002
    endloop
  endfacet
  facet normal  7.730114e-001  6.343922e-001  0.000000e+000
    outer loop
      vertex  6.460139e-001  1.486455e-001 -3.906250e-002
      vertex  6.460139e-001  1.486455e-001  4.687500e-002
      vertex  6.499411e-001  1.438601e-001 -3.906250e-002
    endloop
  endfacet
  facet normal  7.730114e-001  6.343922e-001  -0.000000e+000
    outer loop
      vertex  6.499411e-001  1.438601e-001 -3.906250e-002
      vertex  6.460139e-001  1.486455e-001  4.687500e-002
      vertex  6.499411e-001  1.438601e-001  4.687500e-002
    endloop
  endfacet
  facet normal  8.819231e-001  4.713931e-001  0.000000e+000
    outer loop
      vertex  6.499411e-001  1.438601e-001 -3.906250e-002
      vertex  6.499411e-001  1.438601e-001  4.687500e-002
      vertex  6.528593e-001  1.384005e-001 -3.906250e-002
    endloop
  endfacet
  facet normal  8.819231e-001  4.713931e-001  -0.000000e+000
    outer loop
      vertex  6.528593e-001  1.384005e-001 -3.906250e-002
      vertex  6.499411e-001  1.438601e-001  4.687500e-002
      vertex  6.528593e-001  1.384005e-001  4.687500e-002
    endloop
  endfacet
  facet normal  9.569404e-001  2.902845e-001  0.000000e+000
    outer loop
      vertex  6.528593e-001  1.384005e-001 -3.906250e-002
      vertex  6.528593e-001  1.384005e-001  4.687500e-002
      vertex  6.546564e-001  1.324765e-001 -3.906250e-002
    endloop
  endfacet
  facet normal  9.569404e-001  2.902845e-001  -0.000000e+000
    outer loop
      vertex  6.546564e-001  1.324765e-001 -3.906250e-002
      vertex  6.528593e-001  1.384005e-001  4.687500e-002
      vertex  6.546564e-001  1.324765e-001  4.687500e-002
    endloop
  endfacet
  facet normal  9.951838e-001  9.802575e-002  0.000000e+000
    outer loop
      vertex  6.546564e-001  1.324765e-001 -3.906250e-002
      vertex  6.546564e-001  1.324765e-001  4.687500e-002
      vertex  6.552632e-001  1.263158e-001 -3.906250e-002
    endloop
  endfacet
  facet normal  9.951838e-001  9.802575e-002  -0.000000e+000
    outer loop
      vertex  6.552632e-001  1.263158e-001 -3.906250e-002
      vertex  6.546564e-001  1.324765e-001  4.687500e-002
      vertex  6.552632e-001  1.263158e-001  4.687500e-002
    endloop
  endfacet
  facet normal  7.053978e-001  6.948179e-002 -7.053978e-001
    outer loop
      vertex  6.474507e-001  1.263158e-001 -4.687500e-002
      vertex  6.546564e-001  1.324765e-001 -3.906250e-002
      vertex  6.552632e-001  1.263158e-001 -3.906250e-002
    endloop
  endfacet
  facet normal  7.053989e-001  6.947961e-002 -7.053971e-001
    outer loop
      vertex  6.474507e-001  1.263158e-001 -4.687500e-002
      vertex  6.469940e-001  1.309524e-001 -4.687500e-002
      vertex  6.546564e-001  1.324765e-001 -3.906250e-002
    endloop
  endfacet
  facet normal -7.053984e-001  6.947049e-002 -7.053984e-001
    outer loop
      vertex  5.921053e-001  1.263158e-001 -3.906250e-002
      vertex  6.003744e-001  1.309524e-001 -4.687500e-002
      vertex  5.999178e-001  1.263158e-001 -4.687500e-002
    endloop
  endfacet
  facet normal -7.053995e-001  6.947513e-002 -7.053968e-001
    outer loop
      vertex  5.921053e-001  1.263158e-001 -3.906250e-002
      vertex  5.927120e-001  1.324765e-001 -3.906250e-002
      vertex  6.003744e-001  1.309524e-001 -4.687500e-002
    endloop
  endfacet
  facet normal  6.782920e-001  2.057575e-001 -7.053962e-001
    outer loop
      vertex  6.456416e-001  1.354108e-001 -4.687500e-002
      vertex  6.528593e-001  1.384005e-001 -3.906250e-002
      vertex  6.546564e-001  1.324765e-001 -3.906250e-002
    endloop
  endfacet
  facet normal  6.782920e-001  2.057546e-001 -7.053971e-001
    outer loop
      vertex  6.456416e-001  1.354108e-001 -4.687500e-002
      vertex  6.546564e-001  1.324765e-001 -3.906250e-002
      vertex  6.469940e-001  1.309524e-001 -4.687500e-002
    endloop
  endfacet
  facet normal  5.479198e-001  4.496647e-001 -7.053975e-001
    outer loop
      vertex  6.434453e-001  1.395197e-001 -4.687500e-002
      vertex  6.460139e-001  1.486455e-001 -3.906250e-002
      vertex  6.499411e-001  1.438601e-001 -3.906250e-002
    endloop
  endfacet
  facet normal  6.251180e-001  3.341292e-001 -7.053971e-001
    outer loop
      vertex  6.499411e-001  1.438601e-001 -3.906250e-002
      vertex  6.528593e-001  1.384005e-001 -3.906250e-002
      vertex  6.434453e-001  1.395197e-001 -4.687500e-002
    endloop
  endfacet
  facet normal  6.251176e-001  3.341318e-001 -7.053963e-001
    outer loop
      vertex  6.434453e-001  1.395197e-001 -4.687500e-002
      vertex  6.528593e-001  1.384005e-001 -3.906250e-002
      vertex  6.456416e-001  1.354108e-001 -4.687500e-002
    endloop
  endfacet
  facet normal  3.341307e-001  6.251161e-001 -7.053981e-001
    outer loop
      vertex  6.327792e-001  1.482731e-001 -4.687500e-002
      vertex  6.357689e-001  1.554909e-001 -3.906250e-002
      vertex  6.412286e-001  1.525727e-001 -3.906250e-002
    endloop
  endfacet
  facet normal  3.341309e-001  6.251159e-001 -7.053982e-001
    outer loop
      vertex  6.327792e-001  1.482731e-001 -4.687500e-002
      vertex  6.412286e-001  1.525727e-001 -3.906250e-002
      vertex  6.368881e-001  1.460769e-001 -4.687500e-002
    endloop
  endfacet
  facet normal  4.496643e-001  5.479189e-001 -7.053984e-001
    outer loop
      vertex  6.412286e-001  1.525727e-001 -3.906250e-002
      vertex  6.404896e-001  1.431212e-001 -4.687500e-002
      vertex  6.368881e-001  1.460769e-001 -4.687500e-002
    endloop
  endfacet
  facet normal  6.947517e-002  7.053981e-001 -7.053982e-001
    outer loop
      vertex  6.283208e-001  1.496256e-001 -4.687500e-002
      vertex  6.236842e-001  1.578947e-001 -3.906250e-002
      vertex  6.298450e-001  1.572880e-001 -3.906250e-002
    endloop
  endfacet
  facet normal  2.057569e-001  6.782900e-001 -7.053983e-001
    outer loop
      vertex  6.298450e-001  1.572880e-001 -3.906250e-002
      vertex  6.357689e-001  1.554909e-001 -3.906250e-002
      vertex  6.283208e-001  1.496256e-001 -4.687500e-002
    endloop
  endfacet
  facet normal  2.057564e-001  6.782904e-001 -7.053981e-001
    outer loop
      vertex  6.283208e-001  1.496256e-001 -4.687500e-002
      vertex  6.357689e-001  1.554909e-001 -3.906250e-002
      vertex  6.327792e-001  1.482731e-001 -4.687500e-002
    endloop
  endfacet
  facet normal -2.057548e-001  6.782901e-001 -7.053988e-001
    outer loop
      vertex  6.145892e-001  1.482731e-001 -4.687500e-002
      vertex  6.115994e-001  1.554909e-001 -3.906250e-002
      vertex  6.175235e-001  1.572880e-001 -3.906250e-002
    endloop
  endfacet
  facet normal -2.057591e-001  6.782903e-001 -7.053974e-001
    outer loop
      vertex  6.145892e-001  1.482731e-001 -4.687500e-002
      vertex  6.175235e-001  1.572880e-001 -3.906250e-002
      vertex  6.190476e-001  1.496256e-001 -4.687500e-002
    endloop
  endfacet
  facet normal -6.947437e-002  7.053986e-001 -7.053979e-001
    outer loop
      vertex  6.175235e-001  1.572880e-001 -3.906250e-002
      vertex  6.236842e-001  1.500822e-001 -4.687500e-002
      vertex  6.190476e-001  1.496256e-001 -4.687500e-002
    endloop
  endfacet
  facet normal -4.496652e-001  5.479181e-001 -7.053983e-001
    outer loop
      vertex  6.104803e-001  1.460769e-001 -4.687500e-002
      vertex  6.013545e-001  1.486455e-001 -3.906250e-002
      vertex  6.061399e-001  1.525727e-001 -3.906250e-002
    endloop
  endfacet
  facet normal -3.341334e-001  6.251144e-001 -7.053983e-001
    outer loop
      vertex  6.061399e-001  1.525727e-001 -3.906250e-002
      vertex  6.115994e-001  1.554909e-001 -3.906250e-002
      vertex  6.104803e-001  1.460769e-001 -4.687500e-002
    endloop
  endfacet
  facet normal -3.341303e-001  6.251149e-001 -7.053994e-001
    outer loop
      vertex  6.104803e-001  1.460769e-001 -4.687500e-002
      vertex  6.115994e-001  1.554909e-001 -3.906250e-002
      vertex  6.145892e-001  1.482731e-001 -4.687500e-002
    endloop
  endfacet
  facet normal -6.251165e-001  3.341284e-001 -7.053988e-001
    outer loop
      vertex  6.017269e-001  1.354108e-001 -4.687500e-002
      vertex  5.945091e-001  1.384005e-001 -3.906250e-002
      vertex  5.974272e-001  1.438601e-001 -3.906250e-002
    endloop
  endfacet
  facet normal -6.251146e-001  3.341302e-001 -7.053997e-001
    outer loop
      vertex  6.017269e-001  1.354108e-001 -4.687500e-002
      vertex  5.974272e-001  1.438601e-001 -3.906250e-002
      vertex  6.039231e-001  1.395197e-001 -4.687500e-002
    endloop
  endfacet
  facet normal -5.479170e-001  4.496650e-001 -7.053996e-001
    outer loop
      vertex  5.974272e-001  1.438601e-001 -3.906250e-002
      vertex  6.068788e-001  1.431212e-001 -4.687500e-002
      vertex  6.039231e-001  1.395197e-001 -4.687500e-002
    endloop
  endfacet
  facet normal -6.782913e-001  2.057573e-001 -7.053970e-001
    outer loop
      vertex  5.927120e-001  1.324765e-001 -3.906250e-002
      vertex  5.945091e-001  1.384005e-001 -3.906250e-002
      vertex  6.003744e-001  1.309524e-001 -4.687500e-002
    endloop
  endfacet
  facet normal -6.782876e-001  2.057624e-001 -7.053991e-001
    outer loop
      vertex  6.003744e-001  1.309524e-001 -4.687500e-002
      vertex  5.945091e-001  1.384005e-001 -3.906250e-002
      vertex  6.017269e-001  1.354108e-001 -4.687500e-002
    endloop
  endfacet
  facet normal  5.479180e-001  4.496658e-001 -7.053982e-001
    outer loop
      vertex  6.460139e-001  1.486455e-001 -3.906250e-002
      vertex  6.434453e-001  1.395197e-001 -4.687500e-002
      vertex  6.404896e-001  1.431212e-001 -4.687500e-002
    endloop
  endfacet
  facet normal  4.496654e-001  5.479184e-001 -7.053980e-001
    outer loop
      vertex  6.404896e-001  1.431212e-001 -4.687500e-002
      vertex  6.412286e-001  1.525727e-001 -3.906250e-002
      vertex  6.460139e-001  1.486455e-001 -3.906250e-002
    endloop
  endfacet
  facet normal  6.947523e-002  7.053982e-001 -7.053982e-001
    outer loop
      vertex  6.236842e-001  1.578947e-001 -3.906250e-002
      vertex  6.283208e-001  1.496256e-001 -4.687500e-002
      vertex  6.236842e-001  1.500822e-001 -4.687500e-002
    endloop
  endfacet
  facet normal -6.947517e-002  7.053981e-001 -7.053981e-001
    outer loop
      vertex  6.236842e-001  1.500822e-001 -4.687500e-002
      vertex  6.175235e-001  1.572880e-001 -3.906250e-002
      vertex  6.236842e-001  1.578947e-001 -3.906250e-002
    endloop
  endfacet
  facet normal -4.496645e-001  5.479192e-001 -7.053979e-001
    outer loop
      vertex  6.013545e-001  1.486455e-001 -3.906250e-002
      vertex  6.104803e-001  1.460769e-001 -4.687500e-002
      vertex  6.068788e-001  1.431212e-001 -4.687500e-002
    endloop
  endfacet
  facet normal -5.479157e-001  4.496683e-001 -7.053983e-001
    outer loop
      vertex  6.068788e-001  1.431212e-001 -4.687500e-002
      vertex  5.974272e-001  1.438601e-001 -3.906250e-002
      vertex  6.013545e-001  1.486455e-001 -3.906250e-002
    endloop
  endfacet
  facet normal -7.053982e-001 -6.947509e-002 -7.053982e-001
    outer loop
      vertex  5.999178e-001  1.263158e-001 -4.687500e-002
      vertex  5.927120e-001  1.201550e-001 -3.906250e-002
      vertex  5.921053e-001  1.263158e-001 -3.906250e-002
    endloop
  endfacet
  facet normal -7.054002e-001 -6.947067e-002 -7.053967e-001
    outer loop
      vertex  5.999178e-001  1.263158e-001 -4.687500e-002
      vertex  6.003744e-001  1.216792e-001 -4.687500e-002
      vertex  5.927120e-001  1.201550e-001 -3.906250e-002
    endloop
  endfacet
  facet normal  7.053980e-001 -6.947952e-002 -7.053980e-001
    outer loop
      vertex  6.552632e-001  1.263158e-001 -3.906250e-002
      vertex  6.469940e-001  1.216792e-001 -4.687500e-002
      vertex  6.474507e-001  1.263158e-001 -4.687500e-002
    endloop
  endfacet
  facet normal  7.053986e-001 -6.948195e-002 -7.053972e-001
    outer loop
      vertex  6.552632e-001  1.263158e-001 -3.906250e-002
      vertex  6.546564e-001  1.201550e-001 -3.906250e-002
      vertex  6.469940e-001  1.216792e-001 -4.687500e-002
    endloop
  endfacet
  facet normal -6.782896e-001 -2.057565e-001 -7.053989e-001
    outer loop
      vertex  6.017269e-001  1.172208e-001 -4.687500e-002
      vertex  5.945091e-001  1.142311e-001 -3.906250e-002
      vertex  5.927120e-001  1.201550e-001 -3.906250e-002
    endloop
  endfacet
  facet normal -6.782899e-001 -2.057634e-001 -7.053967e-001
    outer loop
      vertex  6.017269e-001  1.172208e-001 -4.687500e-002
      vertex  5.927120e-001  1.201550e-001 -3.906250e-002
      vertex  6.003744e-001  1.216792e-001 -4.687500e-002
    endloop
  endfacet
  facet normal -5.479153e-001 -4.496672e-001 -7.053993e-001
    outer loop
      vertex  6.039231e-001  1.131119e-001 -4.687500e-002
      vertex  6.013545e-001  1.039861e-001 -3.906250e-002
      vertex  5.974272e-001  1.087715e-001 -3.906250e-002
    endloop
  endfacet
  facet normal -6.251156e-001 -3.341284e-001 -7.053996e-001
    outer loop
      vertex  5.974272e-001  1.087715e-001 -3.906250e-002
      vertex  5.945091e-001  1.142311e-001 -3.906250e-002
      vertex  6.039231e-001  1.131119e-001 -4.687500e-002
    endloop
  endfacet
  facet normal -6.251153e-001 -3.341306e-001 -7.053989e-001
    outer loop
      vertex  6.039231e-001  1.131119e-001 -4.687500e-002
      vertex  5.945091e-001  1.142311e-001 -3.906250e-002
      vertex  6.017269e-001  1.172208e-001 -4.687500e-002
    endloop
  endfacet
  facet normal -3.341323e-001 -6.251139e-001 -7.053993e-001
    outer loop
      vertex  6.145892e-001  1.043585e-001 -4.687500e-002
      vertex  6.115994e-001  9.714065e-002 -3.906250e-002
      vertex  6.061399e-001  1.000589e-001 -3.906250e-002
    endloop
  endfacet
  facet normal -3.341308e-001 -6.251157e-001 -7.053986e-001
    outer loop
      vertex  6.145892e-001  1.043585e-001 -4.687500e-002
      vertex  6.061399e-001  1.000589e-001 -3.906250e-002
      vertex  6.104803e-001  1.065547e-001 -4.687500e-002
    endloop
  endfacet
  facet normal -4.496648e-001 -5.479181e-001 -7.053987e-001
    outer loop
      vertex  6.061399e-001  1.000589e-001 -3.906250e-002
      vertex  6.068788e-001  1.095104e-001 -4.687500e-002
      vertex  6.104803e-001  1.065547e-001 -4.687500e-002
    endloop
  endfacet
  facet normal -6.947519e-002 -7.053984e-001 -7.053979e-001
    outer loop
      vertex  6.190476e-001  1.030060e-001 -4.687500e-002
      vertex  6.236842e-001  9.473684e-002 -3.906250e-002
      vertex  6.175235e-001  9.534362e-002 -3.906250e-002
    endloop
  endfacet
  facet normal -2.057560e-001 -6.782910e-001 -7.053975e-001
    outer loop
      vertex  6.175235e-001  9.534362e-002 -3.906250e-002
      vertex  6.115994e-001  9.714065e-002 -3.906250e-002
      vertex  6.190476e-001  1.030060e-001 -4.687500e-002
    endloop
  endfacet
  facet normal -2.057597e-001 -6.782883e-001 -7.053990e-001
    outer loop
      vertex  6.190476e-001  1.030060e-001 -4.687500e-002
      vertex  6.115994e-001  9.714065e-002 -3.906250e-002
      vertex  6.145892e-001  1.043585e-001 -4.687500e-002
    endloop
  endfacet
  facet normal  2.057577e-001 -6.782899e-001 -7.053982e-001
    outer loop
      vertex  6.327792e-001  1.043585e-001 -4.687500e-002
      vertex  6.357689e-001  9.714065e-002 -3.906250e-002
      vertex  6.298450e-001  9.534362e-002 -3.906250e-002
    endloop
  endfacet
  facet normal  2.057574e-001 -6.782899e-001 -7.053983e-001
    outer loop
      vertex  6.327792e-001  1.043585e-001 -4.687500e-002
      vertex  6.298450e-001  9.534362e-002 -3.906250e-002
      vertex  6.283208e-001  1.030060e-001 -4.687500e-002
    endloop
  endfacet
  facet normal  6.947523e-002 -7.053982e-001 -7.053983e-001
    outer loop
      vertex  6.298450e-001  9.534362e-002 -3.906250e-002
      vertex  6.236842e-001  1.025493e-001 -4.687500e-002
      vertex  6.283208e-001  1.030060e-001 -4.687500e-002
    endloop
  endfacet
  facet normal  4.496650e-001 -5.479180e-001 -7.053986e-001
    outer loop
      vertex  6.368881e-001  1.065547e-001 -4.687500e-002
      vertex  6.460139e-001  1.039861e-001 -3.906250e-002
      vertex  6.412286e-001  1.000589e-001 -3.906250e-002
    endloop
  endfacet
  facet normal  3.341299e-001 -6.251162e-001 -7.053984e-001
    outer loop
      vertex  6.412286e-001  1.000589e-001 -3.906250e-002
      vertex  6.357689e-001  9.714065e-002 -3.906250e-002
      vertex  6.368881e-001  1.065547e-001 -4.687500e-002
    endloop
  endfacet
  facet normal  3.341309e-001 -6.251160e-001 -7.053981e-001
    outer loop
      vertex  6.368881e-001  1.065547e-001 -4.687500e-002
      vertex  6.357689e-001  9.714065e-002 -3.906250e-002
      vertex  6.327792e-001  1.043585e-001 -4.687500e-002
    endloop
  endfacet
  facet normal  6.251183e-001 -3.341299e-001 -7.053966e-001
    outer loop
      vertex  6.456416e-001  1.172208e-001 -4.687500e-002
      vertex  6.528593e-001  1.142311e-001 -3.906250e-002
      vertex  6.499411e-001  1.087715e-001 -3.906250e-002
    endloop
  endfacet
  facet normal  6.251168e-001 -3.341313e-001 -7.053972e-001
    outer loop
      vertex  6.456416e-001  1.172208e-001 -4.687500e-002
      vertex  6.499411e-001  1.087715e-001 -3.906250e-002
      vertex  6.434453e-001  1.131119e-001 -4.687500e-002
    endloop
  endfacet
  facet normal  5.479181e-001 -4.496669e-001 -7.053974e-001
    outer loop
      vertex  6.499411e-001  1.087715e-001 -3.906250e-002
      vertex  6.404896e-001  1.095104e-001 -4.687500e-002
      vertex  6.434453e-001  1.131119e-001 -4.687500e-002
    endloop
  endfacet
  facet normal  6.782914e-001 -2.057571e-001 -7.053970e-001
    outer loop
      vertex  6.546564e-001  1.201550e-001 -3.906250e-002
      vertex  6.528593e-001  1.142311e-001 -3.906250e-002
      vertex  6.469940e-001  1.216792e-001 -4.687500e-002
    endloop
  endfacet
  facet normal  6.782927e-001 -2.057552e-001 -7.053961e-001
    outer loop
      vertex  6.469940e-001  1.216792e-001 -4.687500e-002
      vertex  6.528593e-001  1.142311e-001 -3.906250e-002
      vertex  6.456416e-001  1.172208e-001 -4.687500e-002
    endloop
  endfacet
  facet normal -5.479171e-001 -4.496661e-001 -7.053986e-001
    outer loop
      vertex  6.013545e-001  1.039861e-001 -3.906250e-002
      vertex  6.039231e-001  1.131119e-001 -4.687500e-002
      vertex  6.068788e-001  1.095104e-001 -4.687500e-002
    endloop
  endfacet
  facet normal -4.496651e-001 -5.479180e-001 -7.053986e-001
    outer loop
      vertex  6.068788e-001  1.095104e-001 -4.687500e-002
      vertex  6.061399e-001  1.000589e-001 -3.906250e-002
      vertex  6.013545e-001  1.039861e-001 -3.906250e-002
    endloop
  endfacet
  facet normal -6.947433e-002 -7.053982e-001 -7.053982e-001
    outer loop
      vertex  6.236842e-001  9.473684e-002 -3.906250e-002
      vertex  6.190476e-001  1.030060e-001 -4.687500e-002
      vertex  6.236842e-001  1.025493e-001 -4.687500e-002
    endloop
  endfacet
  facet normal  6.947517e-002 -7.053981e-001 -7.053981e-001
    outer loop
      vertex  6.236842e-001  1.025493e-001 -4.687500e-002
      vertex  6.298450e-001  9.534362e-002 -3.906250e-002
      vertex  6.236842e-001  9.473684e-002 -3.906250e-002
    endloop
  endfacet
  facet normal  4.496649e-001 -5.479182e-001 -7.053986e-001
    outer loop
      vertex  6.460139e-001  1.039861e-001 -3.906250e-002
      vertex  6.368881e-001  1.065547e-001 -4.687500e-002
      vertex  6.404896e-001  1.095104e-001 -4.687500e-002
    endloop
  endfacet
  facet normal  5.479193e-001 -4.496637e-001 -7.053984e-001
    outer loop
      vertex  6.404896e-001  1.095104e-001 -4.687500e-002
      vertex  6.499411e-001  1.087715e-001 -3.906250e-002
      vertex  6.460139e-001  1.039861e-001 -3.906250e-002
    endloop
  endfacet
  facet normal  -0.000000e+000  0.000000e+000  1.000000e+000
    outer loop
      vertex  6.236842e-001  1.578947e-001  4.687500e-002
      vertex  6.175235e-001  1.572880e-001  4.687500e-002
      vertex  6.115994e-001  1.554909e-001  4.687500e-002
    endloop
  endfacet
  facet normal  0.000000e+000  0.000000e+000  1.000000e+000
    outer loop
      vertex  6.298450e-001  1.572880e-001  4.687500e-002
      vertex  6.236842e-001  1.578947e-001  4.687500e-002
      vertex  6.115994e-001  1.554909e-001  4.687500e-002
    endloop
  endfacet
  facet normal  0.000000e+000  0.000000e+000  1.000000e+000
    outer loop
      vertex  6.298450e-001  1.572880e-001  4.687500e-002
      vertex  6.115994e-001  1.554909e-001  4.687500e-002
      vertex  6.357689e-001  1.554909e-001  4.687500e-002
    endloop
  endfacet
  facet normal  -0.000000e+000  0.000000e+000  1.000000e+000
    outer loop
      vertex  6.357689e-001  1.554909e-001  4.687500e-002
      vertex  6.115994e-001  1.554909e-001  4.687500e-002
      vertex  6.061399e-001  1.525727e-001  4.687500e-002
    endloop
  endfacet
  facet normal  0.000000e+000  0.000000e+000  1.000000e+000
    outer loop
      vertex  6.357689e-001  1.554909e-001  4.687500e-002
      vertex  6.061399e-001  1.525727e-001  4.687500e-002
      vertex  6.412286e-001  1.525727e-001  4.687500e-002
    endloop
  endfacet
  facet normal  -0.000000e+000  0.000000e+000  1.000000e+000
    outer loop
      vertex  6.412286e-001  1.525727e-001  4.687500e-002
      vertex  6.061399e-001  1.525727e-001  4.687500e-002
      vertex  6.013545e-001  1.486455e-001  4.687500e-002
    endloop
  endfacet
  facet normal  0.000000e+000  0.000000e+000  1.000000e+000
    outer loop
      vertex  6.412286e-001  1.525727e-001  4.687500e-002
      vertex  6.013545e-001  1.486455e-001  4.687500e-002
      vertex  6.460139e-001  1.486455e-001  4.687500e-002
    endloop
  endfacet
  facet normal  -0.000000e+000  0.000000e+000  1.000000e+000
    outer loop
      vertex  6.460139e-001  1.486455e-001  4.687500e-002
      vertex  6.013545e-001  1.486455e-001  4.687500e-002
      vertex  5.974272e-001  1.438601e-001  4.687500e-002
    endloop
  endfacet
  facet normal  0.000000e+000  0.000000e+000  1.000000e+000
    outer loop
      vertex  6.460139e-001  1.486455e-001  4.687500e-002
      vertex  5.974272e-001  1.438601e-001  4.687500e-002
      vertex  6.499411e-001  1.438601e-001  4.687500e-002
    endloop
  endfacet
  facet normal  -0.000000e+000  0.000000e+000  1.000000e+000
    outer loop
      vertex  6.499411e-001  1.438601e-001  4.687500e-002
      vertex  5.974272e-001  1.438601e-001  4.687500e-002
      vertex  5.945091e-001  1.384005e-001  4.687500e-002
    endloop
  endfacet
  facet normal  0.000000e+000  0.000000e+000  1.000000e+000
    outer loop
      vertex  6.499411e-001  1.438601e-001  4.687500e-002
      vertex  5.945091e-001  1.384005e-001  4.687500e-002
      vertex  6.528593e-001  1.384005e-001  4.687500e-002
    endloop
  endfacet
  facet normal  -0.000000e+000  0.000000e+000  1.000000e+000
    outer loop
      vertex  6.528593e-001  1.384005e-001  4.687500e-002
      vertex  5.945091e-001  1.384005e-001  4.687500e-002
      vertex  5.927120e-001  1.324765e-001  4.687500e-002
    endloop
  endfacet
  facet normal  0.000000e+000  0.000000e+000  1.000000e+000
    outer loop
      vertex  6.528593e-001  1.384005e-001  4.687500e-002
      vertex  5.927120e-001  1.324765e-001  4.687500e-002
      vertex  6.546564e-001  1.324765e-001  4.687500e-002
    endloop
  endfacet
  facet normal  0.000000e+000  0.000000e+000  1.000000e+000
    outer loop
      vertex  6.546564e-001  1.201550e-001  4.687500e-002
      vertex  5.945091e-001  1.142311e-001  4.687500e-002
      vertex  6.528593e-001  1.142311e-001  4.687500e-002
    endloop
  endfacet
  facet normal  -0.000000e+000  0.000000e+000  9.999999e-001
    outer loop
      vertex  6.528593e-001  1.142311e-001  4.687500e-002
      vertex  5.945091e-001  1.142311e-001  4.687500e-002
      vertex  5.974272e-001  1.087715e-001  4.687500e-002
    endloop
  endfacet
  facet normal  0.000000e+000  0.000000e+000  1.000000e+000
    outer loop
      vertex  6.528593e-001  1.142311e-001  4.687500e-002
      vertex  5.974272e-001  1.087715e-001  4.687500e-002
      vertex  6.499411e-001  1.087715e-001  4.687500e-002
    endloop
  endfacet
  facet normal  -0.000000e+000  0.000000e+000  1.000000e+000
    outer loop
      vertex  6.499411e-001  1.087715e-001  4.687500e-002
      vertex  5.974272e-001  1.087715e-001  4.687500e-002
      vertex  6.013545e-001  1.039861e-001  4.687500e-002
    endloop
  endfacet
  facet normal  0.000000e+000  0.000000e+000  1.000000e+000
    outer loop
      vertex  6.499411e-001  1.087715e-001  4.687500e-002
      vertex  6.013545e-001  1.039861e-001  4.687500e-002
      vertex  6.460139e-001  1.039861e-001  4.687500e-002
    endloop
  endfacet
  facet normal  -0.000000e+000  0.000000e+000  1.000000e+000
    outer loop
      vertex  6.460139e-001  1.039861e-001  4.687500e-002
      vertex  6.013545e-001  1.039861e-001  4.687500e-002
      vertex  6.061399e-001  1.000589e-001  4.687500e-002
    endloop
  endfacet
  facet normal  0.000000e+000  0.000000e+000  1.000000e+000
    outer loop
      vertex  6.460139e-001  1.039861e-001  4.687500e-002
      vertex  6.061399e-001  1.000589e-001  4.687500e-002
      vertex  6.412286e-001  1.000589e-001  4.687500e-002
    endloop
  endfacet
  facet normal  -0.000000e+000  0.000000e+000  9.999999e-001
    outer loop
      vertex  6.412286e-001  1.000589e-001  4.687500e-002
      vertex  6.061399e-001  1.000589e-001  4.687500e-002
      vertex  6.115994e-001  9.714065e-002  4.687500e-002
    endloop
  endfacet
  facet normal  0.000000e+000  0.000000e+000  1.000000e+000
    outer loop
      vertex  6.412286e-001  1.000589e-001  4.687500e-002
      vertex  6.115994e-001  9.714065e-002  4.687500e-002
      vertex  6.357689e-001  9.714065e-002  4.687500e-002
    endloop
  endfacet
  facet normal  -0.000000e+000  0.000000e+000  1.000000e+000
    outer loop
      vertex  6.357689e-001  9.714065e-002  4.687500e-002
      vertex  6.115994e-001  9.714065e-002  4.687500e-002
      vertex  6.175235e-001  9.534362e-002  4.687500e-002
    endloop
  endfacet
  facet normal  -0.000000e+000  0.000000e+000  1.000000e+000
    outer loop
      vertex  6.357689e-001  9.714065e-002  4.687500e-002
      vertex  6.175235e-001  9.534362e-002  4.687500e-002
      vertex  6.236842e-001  9.473684e-002  4.687500e-002
    endloop
  endfacet
  facet normal  0.000000e+000  0.000000e+000  1.000000e+000
    outer loop
      vertex  6.357689e-001  9.714065e-002  4.687500e-002
      vertex  6.236842e-001  9.473684e-002  4.687500e-002
      vertex  6.298450e-001  9.534362e-002  4.687500e-002
    endloop
  endfacet
  facet normal  -0.000000e+000  0.000000e+000  1.000000e+000
    outer loop
      vertex  6.546564e-001  1.324765e-001  4.687500e-002
      vertex  5.927120e-001  1.324765e-001  4.687500e-002
      vertex  6.552632e-001  1.263158e-001  4.687500e-002
    endloop
  endfacet
  facet normal  0.000000e+000  0.000000e+000  9.999999e-001
    outer loop
      vertex  6.552632e-001  1.263158e-001  4.687500e-002
      vertex  5.927120e-001  1.324765e-001  4.687500e-002
      vertex  5.921053e-001  1.263158e-001  4.687500e-002
    endloop
  endfacet
  facet normal  -0.000000e+000  0.000000e+000  1.000000e+000
    outer loop
      vertex  6.552632e-001  1.263158e-001  4.687500e-002
      vertex  5.921053e-001  1.263158e-001  4.687500e-002
      vertex  6.546564e-001  1.201550e-001  4.687500e-002
    endloop
  endfacet
  facet normal  0.000000e+000  0.000000e+000  1.000000e+000
    outer loop
      vertex  6.546564e-001  1.201550e-001  4.687500e-002
      vertex  5.921053e-001  1.263158e-001  4.687500e-002
      vertex  5.927120e-001  1.201550e-001  4.687500e-002
    endloop
  endfacet
  facet normal  -0.000000e+000  0.000000e+000  1.000000e+000
    outer loop
      vertex  6.546564e-001  1.201550e-001  4.687500e-002
      vertex  5.927120e-001  1.201550e-001  4.687500e-002
      vertex  5.945091e-001  1.142311e-001  4.687500e-002
    endloop
  endfacet
endsolid CATIA STL
