solid CATIA STL
  facet normal  0.000000e+000  -0.000000e+000  1.000000e+000
    outer loop
      vertex  6.777089e-001 -7.229838e-001  1.015625e-001
      vertex  7.004944e-001 -7.223741e-001  1.015625e-001
      vertex  7.021775e-001 -7.200935e-001  1.015625e-001
    endloop
  endfacet
  facet normal  0.000000e+000  -0.000000e+000  1.000000e+000
    outer loop
      vertex  6.777089e-001 -7.229838e-001  1.015625e-001
      vertex  6.798771e-001 -7.248095e-001  1.015625e-001
      vertex  7.004944e-001 -7.223741e-001  1.015625e-001
    endloop
  endfacet
  facet normal  0.000000e+000  0.000000e+000  1.000000e+000
    outer loop
      vertex  7.004944e-001 -7.223741e-001  1.015625e-001
      vertex  6.798771e-001 -7.248095e-001  1.015625e-001
      vertex  6.984270e-001 -7.243131e-001  1.015625e-001
    endloop
  endfacet
  facet normal  0.000000e+000  -0.000000e+000  1.000000e+000
    outer loop
      vertex  6.798771e-001 -7.248095e-001  1.015625e-001
      vertex  6.823394e-001 -7.262134e-001  1.015625e-001
      vertex  6.984270e-001 -7.243131e-001  1.015625e-001
    endloop
  endfacet
  facet normal  0.000000e+000  -0.000000e+000  1.000000e+000
    outer loop
      vertex -6.406250e-001  6.093750e-001  1.015625e-001
      vertex  6.777089e-001 -7.229838e-001  1.015625e-001
      vertex  7.021775e-001 -7.200935e-001  1.015625e-001
    endloop
  endfacet
  facet normal  0.000000e+000  -0.000000e+000  9.999999e-001
    outer loop
      vertex -6.406250e-001  6.093750e-001  1.015625e-001
      vertex  7.021775e-001 -7.200935e-001  1.015625e-001
      vertex  7.034209e-001 -7.175464e-001  1.015625e-001
    endloop
  endfacet
  facet normal  0.000000e+000  -0.000000e+000  1.000000e+000
    outer loop
      vertex -6.406250e-001  6.093750e-001  1.015625e-001
      vertex  7.034209e-001 -7.175464e-001  1.015625e-001
      vertex  7.041837e-001 -7.148166e-001  1.015625e-001
    endloop
  endfacet
  facet normal  0.000000e+000  -0.000000e+000  1.000000e+000
    outer loop
      vertex -6.406250e-001  6.093750e-001  1.015625e-001
      vertex  7.041837e-001 -7.148166e-001  1.015625e-001
      vertex  7.044408e-001 -7.119938e-001  1.015625e-001
    endloop
  endfacet
  facet normal  0.000000e+000  -0.000000e+000  1.000000e+000
    outer loop
      vertex -6.406250e-001  6.093750e-001  1.015625e-001
      vertex  7.044408e-001 -7.119938e-001  1.015625e-001
      vertex  7.044408e-001 -7.746711e-002  1.015625e-001
    endloop
  endfacet
  facet normal  0.000000e+000  -0.000000e+000  1.000000e+000
    outer loop
      vertex -6.406250e-001  6.093750e-001  1.015625e-001
      vertex  7.044408e-001 -7.746711e-002  1.015625e-001
      vertex  7.044408e-001  6.093750e-001  1.015625e-001
    endloop
  endfacet
  facet normal  0.000000e+000  0.000000e+000  1.000000e+000
    outer loop
      vertex  6.960433e-001 -7.258468e-001  1.015625e-001
      vertex  6.984270e-001 -7.243131e-001  1.015625e-001
      vertex  6.823394e-001 -7.262134e-001  1.015625e-001
    endloop
  endfacet
  facet normal  -0.000000e+000  0.000000e+000  1.000000e+000
    outer loop
      vertex  6.960433e-001 -7.258468e-001  1.015625e-001
      vertex  6.823394e-001 -7.262134e-001  1.015625e-001
      vertex  6.850148e-001 -7.271495e-001  1.015625e-001
    endloop
  endfacet
  facet normal  -0.000000e+000  0.000000e+000  1.000000e+000
    outer loop
      vertex  6.960433e-001 -7.258468e-001  1.015625e-001
      vertex  6.850148e-001 -7.271495e-001  1.015625e-001
      vertex  6.878152e-001 -7.275867e-001  1.015625e-001
    endloop
  endfacet
  facet normal  0.000000e+000  0.000000e+000  1.000000e+000
    outer loop
      vertex  6.960433e-001 -7.258468e-001  1.015625e-001
      vertex  6.878152e-001 -7.275867e-001  1.015625e-001
      vertex  6.906487e-001 -7.275110e-001  1.015625e-001
    endloop
  endfacet
  facet normal  0.000000e+000  0.000000e+000  1.000000e+000
    outer loop
      vertex  6.960433e-001 -7.258468e-001  1.015625e-001
      vertex  6.906487e-001 -7.275110e-001  1.015625e-001
      vertex  6.934218e-001 -7.269245e-001  1.015625e-001
    endloop
  endfacet
  facet normal  -0.000000e+000  0.000000e+000 -1.000000e+000
    outer loop
      vertex  7.021775e-001 -7.200935e-001  0.000000e+000
      vertex  7.004944e-001 -7.223741e-001  0.000000e+000
      vertex  6.777089e-001 -7.229838e-001  0.000000e+000
    endloop
  endfacet
  facet normal  0.000000e+000  0.000000e+000 -1.000000e+000
    outer loop
      vertex  7.004944e-001 -7.223741e-001  0.000000e+000
      vertex  6.798771e-001 -7.248095e-001  0.000000e+000
      vertex  6.777089e-001 -7.229838e-001  0.000000e+000
    endloop
  endfacet
  facet normal  0.000000e+000  0.000000e+000 -1.000000e+000
    outer loop
      vertex  6.984270e-001 -7.243131e-001  0.000000e+000
      vertex  6.798771e-001 -7.248095e-001  0.000000e+000
      vertex  7.004944e-001 -7.223741e-001  0.000000e+000
    endloop
  endfacet
  facet normal  0.000000e+000  0.000000e+000 -1.000000e+000
    outer loop
      vertex  6.984270e-001 -7.243131e-001  0.000000e+000
      vertex  6.823394e-001 -7.262134e-001  0.000000e+000
      vertex  6.798771e-001 -7.248095e-001  0.000000e+000
    endloop
  endfacet
  facet normal  -0.000000e+000  -0.000000e+000 -1.000000e+000
    outer loop
      vertex -6.406250e-001  6.093750e-001  0.000000e+000
      vertex  7.044408e-001  6.093750e-001  0.000000e+000
      vertex  7.044408e-001 -7.746711e-002  0.000000e+000
    endloop
  endfacet
  facet normal  -0.000000e+000  -0.000000e+000 -1.000000e+000
    outer loop
      vertex -6.406250e-001  6.093750e-001  0.000000e+000
      vertex  7.044408e-001 -7.746711e-002  0.000000e+000
      vertex  7.044408e-001 -7.119938e-001  0.000000e+000
    endloop
  endfacet
  facet normal  -0.000000e+000  0.000000e+000 -1.000000e+000
    outer loop
      vertex -6.406250e-001  6.093750e-001  0.000000e+000
      vertex  7.044408e-001 -7.119938e-001  0.000000e+000
      vertex  7.041837e-001 -7.148166e-001  0.000000e+000
    endloop
  endfacet
  facet normal  -0.000000e+000  0.000000e+000 -1.000000e+000
    outer loop
      vertex -6.406250e-001  6.093750e-001  0.000000e+000
      vertex  7.041837e-001 -7.148166e-001  0.000000e+000
      vertex  7.034209e-001 -7.175464e-001  0.000000e+000
    endloop
  endfacet
  facet normal  -0.000000e+000  0.000000e+000 -9.999999e-001
    outer loop
      vertex -6.406250e-001  6.093750e-001  0.000000e+000
      vertex  7.034209e-001 -7.175464e-001  0.000000e+000
      vertex  7.021775e-001 -7.200935e-001  0.000000e+000
    endloop
  endfacet
  facet normal  -0.000000e+000  0.000000e+000 -1.000000e+000
    outer loop
      vertex -6.406250e-001  6.093750e-001  0.000000e+000
      vertex  7.021775e-001 -7.200935e-001  0.000000e+000
      vertex  6.777089e-001 -7.229838e-001  0.000000e+000
    endloop
  endfacet
  facet normal  -0.000000e+000  0.000000e+000 -1.000000e+000
    outer loop
      vertex  6.960433e-001 -7.258468e-001  0.000000e+000
      vertex  6.934218e-001 -7.269245e-001  0.000000e+000
      vertex  6.906487e-001 -7.275110e-001  0.000000e+000
    endloop
  endfacet
  facet normal  -0.000000e+000  0.000000e+000 -1.000000e+000
    outer loop
      vertex  6.960433e-001 -7.258468e-001  0.000000e+000
      vertex  6.906487e-001 -7.275110e-001  0.000000e+000
      vertex  6.878152e-001 -7.275867e-001  0.000000e+000
    endloop
  endfacet
  facet normal  0.000000e+000  0.000000e+000 -1.000000e+000
    outer loop
      vertex  6.960433e-001 -7.258468e-001  0.000000e+000
      vertex  6.878152e-001 -7.275867e-001  0.000000e+000
      vertex  6.850148e-001 -7.271495e-001  0.000000e+000
    endloop
  endfacet
  facet normal  0.000000e+000  0.000000e+000 -1.000000e+000
    outer loop
      vertex  6.960433e-001 -7.258468e-001  0.000000e+000
      vertex  6.850148e-001 -7.271495e-001  0.000000e+000
      vertex  6.823394e-001 -7.262134e-001  0.000000e+000
    endloop
  endfacet
  facet normal  0.000000e+000  0.000000e+000 -1.000000e+000
    outer loop
      vertex  6.960433e-001 -7.258468e-001  0.000000e+000
      vertex  6.823394e-001 -7.262134e-001  0.000000e+000
      vertex  6.984270e-001 -7.243131e-001  0.000000e+000
    endloop
  endfacet
  facet normal  1.000000e+000  0.000000e+000  0.000000e+000
    outer loop
      vertex  7.044408e-001 -7.119938e-001  1.015625e-001
      vertex  7.044408e-001 -7.119938e-001  0.000000e+000
      vertex  7.044408e-001 -7.746711e-002  1.015625e-001
    endloop
  endfacet
  facet normal  1.000000e+000  0.000000e+000  0.000000e+000
    outer loop
      vertex  7.044408e-001 -7.746711e-002  1.015625e-001
      vertex  7.044408e-001 -7.119938e-001  0.000000e+000
      vertex  7.044408e-001 -7.746711e-002  0.000000e+000
    endloop
  endfacet
  facet normal -7.108382e-001 -7.033556e-001  0.000000e+000
    outer loop
      vertex -6.406250e-001  6.093750e-001  1.015625e-001
      vertex -6.406250e-001  6.093750e-001  0.000000e+000
      vertex  6.777089e-001 -7.229838e-001  1.015625e-001
    endloop
  endfacet
  facet normal -7.108382e-001 -7.033556e-001  -0.000000e+000
    outer loop
      vertex  6.777089e-001 -7.229838e-001  1.015625e-001
      vertex -6.406250e-001  6.093750e-001  0.000000e+000
      vertex  6.777089e-001 -7.229838e-001  0.000000e+000
    endloop
  endfacet
  facet normal  9.958785e-001 -9.069691e-002  0.000000e+000
    outer loop
      vertex  7.044408e-001 -7.119938e-001  0.000000e+000
      vertex  7.044408e-001 -7.119938e-001  1.015625e-001
      vertex  7.041837e-001 -7.148166e-001  0.000000e+000
    endloop
  endfacet
  facet normal  9.958785e-001 -9.069691e-002  0.000000e+000
    outer loop
      vertex  7.041837e-001 -7.148166e-001  0.000000e+000
      vertex  7.044408e-001 -7.119938e-001  1.015625e-001
      vertex  7.041837e-001 -7.148166e-001  1.015625e-001
    endloop
  endfacet
  facet normal  9.631043e-001 -2.691284e-001  0.000000e+000
    outer loop
      vertex  7.041837e-001 -7.148166e-001  0.000000e+000
      vertex  7.041837e-001 -7.148166e-001  1.015625e-001
      vertex  7.034209e-001 -7.175464e-001  0.000000e+000
    endloop
  endfacet
  facet normal  9.631043e-001 -2.691284e-001  0.000000e+000
    outer loop
      vertex  7.034209e-001 -7.175464e-001  0.000000e+000
      vertex  7.041837e-001 -7.148166e-001  1.015625e-001
      vertex  7.034209e-001 -7.175464e-001  1.015625e-001
    endloop
  endfacet
  facet normal  8.986429e-001 -4.386809e-001  0.000000e+000
    outer loop
      vertex  7.034209e-001 -7.175464e-001  0.000000e+000
      vertex  7.034209e-001 -7.175464e-001  1.015625e-001
      vertex  7.021775e-001 -7.200935e-001  0.000000e+000
    endloop
  endfacet
  facet normal  8.986429e-001 -4.386809e-001  0.000000e+000
    outer loop
      vertex  7.021775e-001 -7.200935e-001  0.000000e+000
      vertex  7.034209e-001 -7.175464e-001  1.015625e-001
      vertex  7.021775e-001 -7.200935e-001  1.015625e-001
    endloop
  endfacet
  facet normal  8.046143e-001 -5.937979e-001  0.000000e+000
    outer loop
      vertex  7.021775e-001 -7.200935e-001  0.000000e+000
      vertex  7.021775e-001 -7.200935e-001  1.015625e-001
      vertex  7.004944e-001 -7.223741e-001  0.000000e+000
    endloop
  endfacet
  facet normal  8.046143e-001 -5.937979e-001  0.000000e+000
    outer loop
      vertex  7.004944e-001 -7.223741e-001  0.000000e+000
      vertex  7.021775e-001 -7.200935e-001  1.015625e-001
      vertex  7.004944e-001 -7.223741e-001  1.015625e-001
    endloop
  endfacet
  facet normal  6.840852e-001 -7.294021e-001  0.000000e+000
    outer loop
      vertex  7.004944e-001 -7.223741e-001  0.000000e+000
      vertex  7.004944e-001 -7.223741e-001  1.015625e-001
      vertex  6.984270e-001 -7.243131e-001  0.000000e+000
    endloop
  endfacet
  facet normal  6.840852e-001 -7.294021e-001  0.000000e+000
    outer loop
      vertex  6.984270e-001 -7.243131e-001  0.000000e+000
      vertex  7.004944e-001 -7.223741e-001  1.015625e-001
      vertex  6.984270e-001 -7.243131e-001  1.015625e-001
    endloop
  endfacet
  facet normal  5.410679e-001 -8.409789e-001  0.000000e+000
    outer loop
      vertex  6.984270e-001 -7.243131e-001  0.000000e+000
      vertex  6.984270e-001 -7.243131e-001  1.015625e-001
      vertex  6.960433e-001 -7.258468e-001  0.000000e+000
    endloop
  endfacet
  facet normal  5.410679e-001 -8.409789e-001  0.000000e+000
    outer loop
      vertex  6.960433e-001 -7.258468e-001  0.000000e+000
      vertex  6.984270e-001 -7.243131e-001  1.015625e-001
      vertex  6.960433e-001 -7.258468e-001  1.015625e-001
    endloop
  endfacet
  facet normal  3.802495e-001 -9.248840e-001  0.000000e+000
    outer loop
      vertex  6.960433e-001 -7.258468e-001  0.000000e+000
      vertex  6.960433e-001 -7.258468e-001  1.015625e-001
      vertex  6.934218e-001 -7.269245e-001  0.000000e+000
    endloop
  endfacet
  facet normal  3.802495e-001 -9.248840e-001  0.000000e+000
    outer loop
      vertex  6.934218e-001 -7.269245e-001  0.000000e+000
      vertex  6.960433e-001 -7.258468e-001  1.015625e-001
      vertex  6.934218e-001 -7.269245e-001  1.015625e-001
    endloop
  endfacet
  facet normal  2.069017e-001 -9.783617e-001  0.000000e+000
    outer loop
      vertex  6.934218e-001 -7.269245e-001  0.000000e+000
      vertex  6.934218e-001 -7.269245e-001  1.015625e-001
      vertex  6.906487e-001 -7.275110e-001  0.000000e+000
    endloop
  endfacet
  facet normal  2.069017e-001 -9.783617e-001  0.000000e+000
    outer loop
      vertex  6.906487e-001 -7.275110e-001  0.000000e+000
      vertex  6.934218e-001 -7.269245e-001  1.015625e-001
      vertex  6.906487e-001 -7.275110e-001  1.015625e-001
    endloop
  endfacet
  facet normal  2.672752e-002 -9.996428e-001  0.000000e+000
    outer loop
      vertex  6.906487e-001 -7.275110e-001  0.000000e+000
      vertex  6.906487e-001 -7.275110e-001  1.015625e-001
      vertex  6.878152e-001 -7.275867e-001  0.000000e+000
    endloop
  endfacet
  facet normal  2.672752e-002 -9.996428e-001  0.000000e+000
    outer loop
      vertex  6.878152e-001 -7.275867e-001  0.000000e+000
      vertex  6.906487e-001 -7.275110e-001  1.015625e-001
      vertex  6.878152e-001 -7.275867e-001  1.015625e-001
    endloop
  endfacet
  facet normal -1.542691e-001 -9.880289e-001  -0.000000e+000
    outer loop
      vertex  6.878152e-001 -7.275867e-001  0.000000e+000
      vertex  6.878152e-001 -7.275867e-001  1.015625e-001
      vertex  6.850148e-001 -7.271495e-001  0.000000e+000
    endloop
  endfacet
  facet normal -1.542691e-001 -9.880289e-001  0.000000e+000
    outer loop
      vertex  6.850148e-001 -7.271495e-001  0.000000e+000
      vertex  6.878152e-001 -7.275867e-001  1.015625e-001
      vertex  6.850148e-001 -7.271495e-001  1.015625e-001
    endloop
  endfacet
  facet normal -3.302549e-001 -9.438918e-001  -0.000000e+000
    outer loop
      vertex  6.850148e-001 -7.271495e-001  0.000000e+000
      vertex  6.850148e-001 -7.271495e-001  1.015625e-001
      vertex  6.823394e-001 -7.262134e-001  0.000000e+000
    endloop
  endfacet
  facet normal -3.302549e-001 -9.438918e-001  0.000000e+000
    outer loop
      vertex  6.823394e-001 -7.262134e-001  0.000000e+000
      vertex  6.850148e-001 -7.271495e-001  1.015625e-001
      vertex  6.823394e-001 -7.262134e-001  1.015625e-001
    endloop
  endfacet
  facet normal -4.953189e-001 -8.687112e-001  -0.000000e+000
    outer loop
      vertex  6.823394e-001 -7.262134e-001  0.000000e+000
      vertex  6.823394e-001 -7.262134e-001  1.015625e-001
      vertex  6.798771e-001 -7.248095e-001  0.000000e+000
    endloop
  endfacet
  facet normal -4.953189e-001 -8.687112e-001  0.000000e+000
    outer loop
      vertex  6.798771e-001 -7.248095e-001  0.000000e+000
      vertex  6.823394e-001 -7.262134e-001  1.015625e-001
      vertex  6.798771e-001 -7.248095e-001  1.015625e-001
    endloop
  endfacet
  facet normal -6.441059e-001 -7.649363e-001  -0.000000e+000
    outer loop
      vertex  6.798771e-001 -7.248095e-001  0.000000e+000
      vertex  6.798771e-001 -7.248095e-001  1.015625e-001
      vertex  6.777089e-001 -7.229838e-001  0.000000e+000
    endloop
  endfacet
  facet normal -6.441059e-001 -7.649363e-001  0.000000e+000
    outer loop
      vertex  6.777089e-001 -7.229838e-001  0.000000e+000
      vertex  6.798771e-001 -7.248095e-001  1.015625e-001
      vertex  6.777089e-001 -7.229838e-001  1.015625e-001
    endloop
  endfacet
  facet normal  0.000000e+000  1.000000e+000  -0.000000e+000
    outer loop
      vertex  7.044408e-001  6.093750e-001  1.015625e-001
      vertex  7.044408e-001  6.093750e-001  0.000000e+000
      vertex -6.406250e-001  6.093750e-001  1.015625e-001
    endloop
  endfacet
  facet normal  0.000000e+000  1.000000e+000  0.000000e+000
    outer loop
      vertex -6.406250e-001  6.093750e-001  1.015625e-001
      vertex  7.044408e-001  6.093750e-001  0.000000e+000
      vertex -6.406250e-001  6.093750e-001  0.000000e+000
    endloop
  endfacet
  facet normal  9.999999e-001  0.000000e+000  0.000000e+000
    outer loop
      vertex  7.044408e-001 -7.746711e-002  1.015625e-001
      vertex  7.044408e-001 -7.746711e-002  0.000000e+000
      vertex  7.044408e-001  6.093750e-001  1.015625e-001
    endloop
  endfacet
  facet normal  9.999999e-001  0.000000e+000  0.000000e+000
    outer loop
      vertex  7.044408e-001  6.093750e-001  1.015625e-001
      vertex  7.044408e-001 -7.746711e-002  0.000000e+000
      vertex  7.044408e-001  6.093750e-001  0.000000e+000
    endloop
  endfacet
endsolid CATIA STL
