solid CATIA STL
  facet normal  -0.000000e+000  1.000000e+000  0.000000e+000
    outer loop
      vertex -6.250000e-002  1.562500e-002 -4.209723e-017
      vertex -7.500000e-001  1.562500e-002  0.000000e+000
      vertex  3.827021e-018  1.562500e-002  6.250000e-002
    endloop
  endfacet
  facet normal  0.000000e+000  9.999999e-001  0.000000e+000
    outer loop
      vertex  3.827021e-018  1.562500e-002  6.250000e-002
      vertex -7.500000e-001  1.562500e-002  0.000000e+000
      vertex -7.500000e-001  1.562500e-002  2.763158e-001
    endloop
  endfacet
  facet normal  -0.000000e+000  1.000000e+000  0.000000e+000
    outer loop
      vertex  3.827021e-018  1.562500e-002  6.250000e-002
      vertex -7.500000e-001  1.562500e-002  2.763158e-001
      vertex  1.691946e-017  1.562500e-002  2.763158e-001
    endloop
  endfacet
  facet normal  1.110223e-016 -1.000000e+000  0.000000e+000
    outer loop
      vertex  1.691946e-017  8.326673e-017  2.763158e-001
      vertex -7.500000e-001  1.878438e-033  2.763158e-001
      vertex  3.827021e-018  8.326673e-017  6.250000e-002
    endloop
  endfacet
  facet normal  1.110223e-016 -9.999999e-001  0.000000e+000
    outer loop
      vertex  3.827021e-018  8.326673e-017  6.250000e-002
      vertex -7.500000e-001  1.878438e-033  2.763158e-001
      vertex -7.500000e-001  0.000000e+000  0.000000e+000
    endloop
  endfacet
  facet normal  1.110223e-016 -1.000000e+000  0.000000e+000
    outer loop
      vertex  3.827021e-018  8.326673e-017  6.250000e-002
      vertex -7.500000e-001  0.000000e+000  0.000000e+000
      vertex -6.250000e-002  7.632783e-017 -4.209723e-017
    endloop
  endfacet
  facet normal  1.000000e+000  0.000000e+000 -6.123234e-017
    outer loop
      vertex  3.827021e-018  1.562500e-002  6.250000e-002
      vertex  1.691946e-017  1.562500e-002  2.763158e-001
      vertex  3.827021e-018  8.326673e-017  6.250000e-002
    endloop
  endfacet
  facet normal  1.000000e+000  0.000000e+000 -6.123234e-017
    outer loop
      vertex  3.827021e-018  8.326673e-017  6.250000e-002
      vertex  1.691946e-017  1.562500e-002  2.763158e-001
      vertex  1.691946e-017  8.326673e-017  2.763158e-001
    endloop
  endfacet
  facet normal -6.123234e-017  0.000000e+000 -1.000000e+000
    outer loop
      vertex -7.500000e-001  1.562500e-002  0.000000e+000
      vertex -6.250000e-002  1.562500e-002 -4.209723e-017
      vertex -7.500000e-001  0.000000e+000  0.000000e+000
    endloop
  endfacet
  facet normal -6.123234e-017  0.000000e+000 -1.000000e+000
    outer loop
      vertex -7.500000e-001  0.000000e+000  0.000000e+000
      vertex -6.250000e-002  1.562500e-002 -4.209723e-017
      vertex -6.250000e-002  7.632783e-017 -4.209723e-017
    endloop
  endfacet
  facet normal  7.071068e-001  0.000000e+000 -7.071068e-001
    outer loop
      vertex  3.827021e-018  8.326673e-017  6.250000e-002
      vertex -6.250000e-002  7.632783e-017 -4.209723e-017
      vertex  3.827021e-018  1.562500e-002  6.250000e-002
    endloop
  endfacet
  facet normal  7.071068e-001  0.000000e+000 -7.071068e-001
    outer loop
      vertex  3.827021e-018  1.562500e-002  6.250000e-002
      vertex -6.250000e-002  7.632783e-017 -4.209723e-017
      vertex -6.250000e-002  1.562500e-002 -4.209723e-017
    endloop
  endfacet
  facet normal -1.000000e+000  0.000000e+000  0.000000e+000
    outer loop
      vertex -7.500000e-001  1.562500e-002  2.763158e-001
      vertex -7.500000e-001  1.562500e-002  0.000000e+000
      vertex -7.500000e-001  1.878438e-033  2.763158e-001
    endloop
  endfacet
  facet normal -1.000000e+000  0.000000e+000  -0.000000e+000
    outer loop
      vertex -7.500000e-001  1.878438e-033  2.763158e-001
      vertex -7.500000e-001  1.562500e-002  0.000000e+000
      vertex -7.500000e-001  0.000000e+000  0.000000e+000
    endloop
  endfacet
  facet normal  -0.000000e+000  0.000000e+000  1.000000e+000
    outer loop
      vertex  1.691946e-017  1.562500e-002  2.763158e-001
      vertex -7.500000e-001  1.562500e-002  2.763158e-001
      vertex  1.691946e-017  8.326673e-017  2.763158e-001
    endloop
  endfacet
  facet normal  0.000000e+000  0.000000e+000  1.000000e+000
    outer loop
      vertex  1.691946e-017  8.326673e-017  2.763158e-001
      vertex -7.500000e-001  1.562500e-002  2.763158e-001
      vertex -7.500000e-001  1.878438e-033  2.763158e-001
    endloop
  endfacet
endsolid CATIA STL
