solid CATIA STL
  facet normal  0.000000e+000  0.000000e+000  1.000000e+000
    outer loop
      vertex  0.000000e+000 -5.937500e-001  6.093750e-001
      vertex  4.953576e-001 -5.937500e-001  6.093750e-001
      vertex  5.551115e-017  7.421875e-001  6.093750e-001
    endloop
  endfacet
  facet normal  0.000000e+000  0.000000e+000  1.000000e+000
    outer loop
      vertex  5.551115e-017  7.421875e-001  6.093750e-001
      vertex  4.953576e-001 -5.937500e-001  6.093750e-001
      vertex  7.483553e-001  7.134046e-001  6.093750e-001
    endloop
  endfacet
  facet normal -1.000000e+000  4.155221e-017  0.000000e+000
    outer loop
      vertex  5.551115e-017  7.421875e-001  6.093750e-001
      vertex  5.551115e-017  7.421875e-001  0.000000e+000
      vertex  0.000000e+000 -5.937500e-001  6.093750e-001
    endloop
  endfacet
  facet normal -1.000000e+000  4.060244e-017 -2.082177e-018
    outer loop
      vertex  0.000000e+000 -5.937500e-001  6.093750e-001
      vertex  5.551115e-017  7.421875e-001  0.000000e+000
      vertex  0.000000e+000 -6.250000e-001  0.000000e+000
    endloop
  endfacet
  facet normal -1.000000e+000  0.000000e+000  0.000000e+000
    outer loop
      vertex  0.000000e+000 -5.937500e-001  6.093750e-001
      vertex  0.000000e+000 -6.250000e-001  0.000000e+000
      vertex  0.000000e+000 -6.250000e-001  5.703125e-001
    endloop
  endfacet
  facet normal  9.817799e-001 -1.900219e-001  0.000000e+000
    outer loop
      vertex  7.483553e-001  7.134046e-001  0.000000e+000
      vertex  7.483553e-001  7.134046e-001  6.093750e-001
      vertex  4.893092e-001 -6.250000e-001  0.000000e+000
    endloop
  endfacet
  facet normal  9.817799e-001 -1.900219e-001  8.960023e-009
    outer loop
      vertex  4.893092e-001 -6.250000e-001  0.000000e+000
      vertex  7.483553e-001  7.134046e-001  6.093750e-001
      vertex  4.953576e-001 -5.937500e-001  6.093750e-001
    endloop
  endfacet
  facet normal  9.817799e-001 -1.900217e-001  0.000000e+000
    outer loop
      vertex  4.893092e-001 -6.250000e-001  0.000000e+000
      vertex  4.953576e-001 -5.937500e-001  6.093750e-001
      vertex  4.893092e-001 -6.250000e-001  5.703125e-001
    endloop
  endfacet
  facet normal  0.000000e+000 -1.000000e+000  0.000000e+000
    outer loop
      vertex  0.000000e+000 -6.250000e-001  0.000000e+000
      vertex  4.893092e-001 -6.250000e-001  0.000000e+000
      vertex  0.000000e+000 -6.250000e-001  5.703125e-001
    endloop
  endfacet
  facet normal  0.000000e+000 -1.000000e+000  0.000000e+000
    outer loop
      vertex  0.000000e+000 -6.250000e-001  5.703125e-001
      vertex  4.893092e-001 -6.250000e-001  0.000000e+000
      vertex  4.893092e-001 -6.250000e-001  5.703125e-001
    endloop
  endfacet
  facet normal  0.000000e+000 -7.808688e-001  6.246950e-001
    outer loop
      vertex  4.953576e-001 -5.937500e-001  6.093750e-001
      vertex  0.000000e+000 -5.937500e-001  6.093750e-001
      vertex  4.893092e-001 -6.250000e-001  5.703125e-001
    endloop
  endfacet
  facet normal  0.000000e+000 -7.808688e-001  6.246951e-001
    outer loop
      vertex  4.893092e-001 -6.250000e-001  5.703125e-001
      vertex  0.000000e+000 -5.937500e-001  6.093750e-001
      vertex  0.000000e+000 -6.250000e-001  5.703125e-001
    endloop
  endfacet
  facet normal  0.000000e+000  -0.000000e+000 -1.000000e+000
    outer loop
      vertex  0.000000e+000 -6.250000e-001  0.000000e+000
      vertex  5.551115e-017  7.421875e-001  0.000000e+000
      vertex  4.893092e-001 -6.250000e-001  0.000000e+000
    endloop
  endfacet
  facet normal  0.000000e+000  0.000000e+000 -1.000000e+000
    outer loop
      vertex  4.893092e-001 -6.250000e-001  0.000000e+000
      vertex  5.551115e-017  7.421875e-001  0.000000e+000
      vertex  7.483553e-001  7.134046e-001  0.000000e+000
    endloop
  endfacet
  facet normal  3.843313e-002  9.992612e-001  -0.000000e+000
    outer loop
      vertex  7.483553e-001  7.134046e-001  6.093750e-001
      vertex  7.483553e-001  7.134046e-001  0.000000e+000
      vertex  5.551115e-017  7.421875e-001  6.093750e-001
    endloop
  endfacet
  facet normal  3.843313e-002  9.992612e-001  0.000000e+000
    outer loop
      vertex  5.551115e-017  7.421875e-001  6.093750e-001
      vertex  7.483553e-001  7.134046e-001  0.000000e+000
      vertex  5.551115e-017  7.421875e-001  0.000000e+000
    endloop
  endfacet
endsolid CATIA STL
