solid CATIA STL
  facet normal  9.801699e-002 -9.951848e-001  0.000000e+000
    outer loop
      vertex  2.600329e-001 -1.618421e-001 -3.828125e-001
      vertex  2.184478e-001 -1.659379e-001 -3.359375e-001
      vertex  2.184478e-001 -1.659379e-001 -3.828125e-001
    endloop
  endfacet
  facet normal  2.902848e-001 -9.569403e-001  0.000000e+000
    outer loop
      vertex  2.184478e-001 -1.659379e-001 -3.828125e-001
      vertex  2.184478e-001 -1.659379e-001 -3.359375e-001
      vertex  1.784609e-001 -1.780678e-001 -3.359375e-001
    endloop
  endfacet
  facet normal  2.902848e-001 -9.569403e-001  0.000000e+000
    outer loop
      vertex  2.184478e-001 -1.659379e-001 -3.828125e-001
      vertex  1.784609e-001 -1.780678e-001 -3.359375e-001
      vertex  1.784609e-001 -1.780678e-001 -3.828125e-001
    endloop
  endfacet
  facet normal  4.713968e-001 -8.819213e-001  0.000000e+000
    outer loop
      vertex  1.784609e-001 -1.780678e-001 -3.828125e-001
      vertex  1.784609e-001 -1.780678e-001 -3.359375e-001
      vertex  1.416087e-001 -1.977657e-001 -3.359375e-001
    endloop
  endfacet
  facet normal  4.713968e-001 -8.819213e-001  0.000000e+000
    outer loop
      vertex  1.784609e-001 -1.780678e-001 -3.828125e-001
      vertex  1.416087e-001 -1.977657e-001 -3.359375e-001
      vertex  1.416087e-001 -1.977657e-001 -3.828125e-001
    endloop
  endfacet
  facet normal  6.343932e-001 -7.730106e-001  0.000000e+000
    outer loop
      vertex  1.416087e-001 -1.977657e-001 -3.828125e-001
      vertex  1.416087e-001 -1.977657e-001 -3.359375e-001
      vertex  1.093075e-001 -2.242746e-001 -3.359375e-001
    endloop
  endfacet
  facet normal  6.343932e-001 -7.730106e-001  0.000000e+000
    outer loop
      vertex  1.416087e-001 -1.977657e-001 -3.828125e-001
      vertex  1.093075e-001 -2.242746e-001 -3.359375e-001
      vertex  1.093075e-001 -2.242746e-001 -3.828125e-001
    endloop
  endfacet
  facet normal  7.730106e-001 -6.343933e-001  0.000000e+000
    outer loop
      vertex  1.093075e-001 -2.242746e-001 -3.828125e-001
      vertex  1.093075e-001 -2.242746e-001 -3.359375e-001
      vertex  8.279859e-002 -2.565758e-001 -3.359375e-001
    endloop
  endfacet
  facet normal  7.730106e-001 -6.343933e-001  0.000000e+000
    outer loop
      vertex  1.093075e-001 -2.242746e-001 -3.828125e-001
      vertex  8.279859e-002 -2.565758e-001 -3.359375e-001
      vertex  8.279859e-002 -2.565758e-001 -3.828125e-001
    endloop
  endfacet
  facet normal  8.819213e-001 -4.713968e-001  0.000000e+000
    outer loop
      vertex  8.279859e-002 -2.565758e-001 -3.828125e-001
      vertex  8.279859e-002 -2.565758e-001 -3.359375e-001
      vertex  6.310068e-002 -2.934280e-001 -3.359375e-001
    endloop
  endfacet
  facet normal  8.819213e-001 -4.713968e-001  0.000000e+000
    outer loop
      vertex  8.279859e-002 -2.565758e-001 -3.828125e-001
      vertex  6.310068e-002 -2.934280e-001 -3.359375e-001
      vertex  6.310068e-002 -2.934280e-001 -3.828125e-001
    endloop
  endfacet
  facet normal  9.569404e-001 -2.902846e-001  0.000000e+000
    outer loop
      vertex  6.310068e-002 -2.934280e-001 -3.828125e-001
      vertex  6.310068e-002 -2.934280e-001 -3.359375e-001
      vertex  5.097077e-002 -3.334150e-001 -3.359375e-001
    endloop
  endfacet
  facet normal  9.569404e-001 -2.902846e-001  0.000000e+000
    outer loop
      vertex  6.310068e-002 -2.934280e-001 -3.828125e-001
      vertex  5.097077e-002 -3.334150e-001 -3.359375e-001
      vertex  5.097077e-002 -3.334150e-001 -3.828125e-001
    endloop
  endfacet
  facet normal  9.951848e-001 -9.801721e-002  0.000000e+000
    outer loop
      vertex  5.097077e-002 -3.334150e-001 -3.828125e-001
      vertex  5.097077e-002 -3.334150e-001 -3.359375e-001
      vertex  4.687500e-002 -3.750000e-001 -3.359375e-001
    endloop
  endfacet
  facet normal  9.951848e-001 -9.801721e-002  0.000000e+000
    outer loop
      vertex  5.097077e-002 -3.334150e-001 -3.828125e-001
      vertex  4.687500e-002 -3.750000e-001 -3.359375e-001
      vertex  4.687500e-002 -3.750000e-001 -3.828125e-001
    endloop
  endfacet
  facet normal  9.801699e-002 -9.951848e-001  0.000000e+000
    outer loop
      vertex  2.184478e-001 -1.659379e-001 -3.359375e-001
      vertex  2.600329e-001 -1.618421e-001 -3.828125e-001
      vertex  2.600329e-001 -1.618421e-001 -3.359375e-001
    endloop
  endfacet
  facet normal -9.801696e-002 -9.951848e-001  -0.000000e+000
    outer loop
      vertex  2.600329e-001 -1.618421e-001 -3.359375e-001
      vertex  2.600329e-001 -1.618421e-001 -3.828125e-001
      vertex  3.016180e-001 -1.659379e-001 -3.828125e-001
    endloop
  endfacet
  facet normal -9.801696e-002 -9.951848e-001  0.000000e+000
    outer loop
      vertex  2.600329e-001 -1.618421e-001 -3.359375e-001
      vertex  3.016180e-001 -1.659379e-001 -3.828125e-001
      vertex  3.016180e-001 -1.659379e-001 -3.359375e-001
    endloop
  endfacet
  facet normal -2.902850e-001 -9.569402e-001  -0.000000e+000
    outer loop
      vertex  3.016180e-001 -1.659379e-001 -3.359375e-001
      vertex  3.016180e-001 -1.659379e-001 -3.828125e-001
      vertex  3.416049e-001 -1.780678e-001 -3.828125e-001
    endloop
  endfacet
  facet normal -2.902850e-001 -9.569402e-001  0.000000e+000
    outer loop
      vertex  3.016180e-001 -1.659379e-001 -3.359375e-001
      vertex  3.416049e-001 -1.780678e-001 -3.828125e-001
      vertex  3.416049e-001 -1.780678e-001 -3.359375e-001
    endloop
  endfacet
  facet normal -4.713968e-001 -8.819213e-001  -0.000000e+000
    outer loop
      vertex  3.416049e-001 -1.780678e-001 -3.359375e-001
      vertex  3.416049e-001 -1.780678e-001 -3.828125e-001
      vertex  3.784571e-001 -1.977657e-001 -3.828125e-001
    endloop
  endfacet
  facet normal -4.713968e-001 -8.819213e-001  0.000000e+000
    outer loop
      vertex  3.416049e-001 -1.780678e-001 -3.359375e-001
      vertex  3.784571e-001 -1.977657e-001 -3.828125e-001
      vertex  3.784571e-001 -1.977657e-001 -3.359375e-001
    endloop
  endfacet
  facet normal -6.343932e-001 -7.730106e-001  -0.000000e+000
    outer loop
      vertex  3.784571e-001 -1.977657e-001 -3.359375e-001
      vertex  3.784571e-001 -1.977657e-001 -3.828125e-001
      vertex  4.107583e-001 -2.242746e-001 -3.828125e-001
    endloop
  endfacet
  facet normal -6.343932e-001 -7.730106e-001  0.000000e+000
    outer loop
      vertex  3.784571e-001 -1.977657e-001 -3.359375e-001
      vertex  4.107583e-001 -2.242746e-001 -3.828125e-001
      vertex  4.107583e-001 -2.242746e-001 -3.359375e-001
    endloop
  endfacet
  facet normal -7.730104e-001 -6.343933e-001  -0.000000e+000
    outer loop
      vertex  4.107583e-001 -2.242746e-001 -3.359375e-001
      vertex  4.107583e-001 -2.242746e-001 -3.828125e-001
      vertex  4.372672e-001 -2.565758e-001 -3.828125e-001
    endloop
  endfacet
  facet normal -7.730104e-001 -6.343933e-001  0.000000e+000
    outer loop
      vertex  4.107583e-001 -2.242746e-001 -3.359375e-001
      vertex  4.372672e-001 -2.565758e-001 -3.828125e-001
      vertex  4.372672e-001 -2.565758e-001 -3.359375e-001
    endloop
  endfacet
  facet normal -8.819213e-001 -4.713968e-001  -0.000000e+000
    outer loop
      vertex  4.372672e-001 -2.565758e-001 -3.359375e-001
      vertex  4.372672e-001 -2.565758e-001 -3.828125e-001
      vertex  4.569651e-001 -2.934280e-001 -3.828125e-001
    endloop
  endfacet
  facet normal -8.819213e-001 -4.713968e-001  0.000000e+000
    outer loop
      vertex  4.372672e-001 -2.565758e-001 -3.359375e-001
      vertex  4.569651e-001 -2.934280e-001 -3.828125e-001
      vertex  4.569651e-001 -2.934280e-001 -3.359375e-001
    endloop
  endfacet
  facet normal -9.569404e-001 -2.902844e-001  -0.000000e+000
    outer loop
      vertex  4.569651e-001 -2.934280e-001 -3.359375e-001
      vertex  4.569651e-001 -2.934280e-001 -3.828125e-001
      vertex  4.690950e-001 -3.334150e-001 -3.828125e-001
    endloop
  endfacet
  facet normal -9.569404e-001 -2.902844e-001  0.000000e+000
    outer loop
      vertex  4.569651e-001 -2.934280e-001 -3.359375e-001
      vertex  4.690950e-001 -3.334150e-001 -3.828125e-001
      vertex  4.690950e-001 -3.334150e-001 -3.359375e-001
    endloop
  endfacet
  facet normal -9.951848e-001 -9.801703e-002  -0.000000e+000
    outer loop
      vertex  4.690950e-001 -3.334150e-001 -3.359375e-001
      vertex  4.690950e-001 -3.334150e-001 -3.828125e-001
      vertex  4.731908e-001 -3.750000e-001 -3.828125e-001
    endloop
  endfacet
  facet normal -9.951848e-001 -9.801703e-002  0.000000e+000
    outer loop
      vertex  4.690950e-001 -3.334150e-001 -3.359375e-001
      vertex  4.731908e-001 -3.750000e-001 -3.828125e-001
      vertex  4.731908e-001 -3.750000e-001 -3.359375e-001
    endloop
  endfacet
  facet normal  9.801699e-002 -9.951848e-001  0.000000e+000
    outer loop
      vertex  2.600329e-001 -1.618421e-001  7.031250e-002
      vertex  2.184478e-001 -1.659379e-001  1.171875e-001
      vertex  2.184478e-001 -1.659379e-001  7.031250e-002
    endloop
  endfacet
  facet normal  2.902848e-001 -9.569403e-001  0.000000e+000
    outer loop
      vertex  2.184478e-001 -1.659379e-001  7.031250e-002
      vertex  2.184478e-001 -1.659379e-001  1.171875e-001
      vertex  1.784609e-001 -1.780678e-001  1.171875e-001
    endloop
  endfacet
  facet normal  2.902848e-001 -9.569403e-001  0.000000e+000
    outer loop
      vertex  2.184478e-001 -1.659379e-001  7.031250e-002
      vertex  1.784609e-001 -1.780678e-001  1.171875e-001
      vertex  1.784609e-001 -1.780678e-001  7.031250e-002
    endloop
  endfacet
  facet normal  4.713968e-001 -8.819213e-001  0.000000e+000
    outer loop
      vertex  1.784609e-001 -1.780678e-001  7.031250e-002
      vertex  1.784609e-001 -1.780678e-001  1.171875e-001
      vertex  1.416087e-001 -1.977657e-001  1.171875e-001
    endloop
  endfacet
  facet normal  4.713968e-001 -8.819213e-001  0.000000e+000
    outer loop
      vertex  1.784609e-001 -1.780678e-001  7.031250e-002
      vertex  1.416087e-001 -1.977657e-001  1.171875e-001
      vertex  1.416087e-001 -1.977657e-001  7.031250e-002
    endloop
  endfacet
  facet normal  6.343932e-001 -7.730106e-001  0.000000e+000
    outer loop
      vertex  1.416087e-001 -1.977657e-001  7.031250e-002
      vertex  1.416087e-001 -1.977657e-001  1.171875e-001
      vertex  1.093075e-001 -2.242746e-001  1.171875e-001
    endloop
  endfacet
  facet normal  6.343932e-001 -7.730106e-001  0.000000e+000
    outer loop
      vertex  1.416087e-001 -1.977657e-001  7.031250e-002
      vertex  1.093075e-001 -2.242746e-001  1.171875e-001
      vertex  1.093075e-001 -2.242746e-001  7.031250e-002
    endloop
  endfacet
  facet normal  7.730106e-001 -6.343933e-001  0.000000e+000
    outer loop
      vertex  1.093075e-001 -2.242746e-001  7.031250e-002
      vertex  1.093075e-001 -2.242746e-001  1.171875e-001
      vertex  8.279859e-002 -2.565758e-001  1.171875e-001
    endloop
  endfacet
  facet normal  7.730106e-001 -6.343933e-001  0.000000e+000
    outer loop
      vertex  1.093075e-001 -2.242746e-001  7.031250e-002
      vertex  8.279859e-002 -2.565758e-001  1.171875e-001
      vertex  8.279859e-002 -2.565758e-001  7.031250e-002
    endloop
  endfacet
  facet normal  8.819213e-001 -4.713968e-001  0.000000e+000
    outer loop
      vertex  8.279859e-002 -2.565758e-001  7.031250e-002
      vertex  8.279859e-002 -2.565758e-001  1.171875e-001
      vertex  6.310068e-002 -2.934280e-001  1.171875e-001
    endloop
  endfacet
  facet normal  8.819213e-001 -4.713968e-001  0.000000e+000
    outer loop
      vertex  8.279859e-002 -2.565758e-001  7.031250e-002
      vertex  6.310068e-002 -2.934280e-001  1.171875e-001
      vertex  6.310068e-002 -2.934280e-001  7.031250e-002
    endloop
  endfacet
  facet normal  9.569404e-001 -2.902846e-001  0.000000e+000
    outer loop
      vertex  6.310068e-002 -2.934280e-001  7.031250e-002
      vertex  6.310068e-002 -2.934280e-001  1.171875e-001
      vertex  5.097077e-002 -3.334150e-001  1.171875e-001
    endloop
  endfacet
  facet normal  9.569404e-001 -2.902846e-001  0.000000e+000
    outer loop
      vertex  6.310068e-002 -2.934280e-001  7.031250e-002
      vertex  5.097077e-002 -3.334150e-001  1.171875e-001
      vertex  5.097077e-002 -3.334150e-001  7.031250e-002
    endloop
  endfacet
  facet normal  9.951848e-001 -9.801721e-002  0.000000e+000
    outer loop
      vertex  5.097077e-002 -3.334150e-001  7.031250e-002
      vertex  5.097077e-002 -3.334150e-001  1.171875e-001
      vertex  4.687500e-002 -3.750000e-001  1.171875e-001
    endloop
  endfacet
  facet normal  9.951848e-001 -9.801721e-002  0.000000e+000
    outer loop
      vertex  5.097077e-002 -3.334150e-001  7.031250e-002
      vertex  4.687500e-002 -3.750000e-001  1.171875e-001
      vertex  4.687500e-002 -3.750000e-001  7.031250e-002
    endloop
  endfacet
  facet normal  9.801699e-002 -9.951848e-001  0.000000e+000
    outer loop
      vertex  2.184478e-001 -1.659379e-001  1.171875e-001
      vertex  2.600329e-001 -1.618421e-001  7.031250e-002
      vertex  2.600329e-001 -1.618421e-001  1.171875e-001
    endloop
  endfacet
  facet normal -9.801696e-002 -9.951848e-001  -0.000000e+000
    outer loop
      vertex  2.600329e-001 -1.618421e-001  1.171875e-001
      vertex  2.600329e-001 -1.618421e-001  7.031250e-002
      vertex  3.016180e-001 -1.659379e-001  7.031250e-002
    endloop
  endfacet
  facet normal -9.801696e-002 -9.951848e-001  0.000000e+000
    outer loop
      vertex  2.600329e-001 -1.618421e-001  1.171875e-001
      vertex  3.016180e-001 -1.659379e-001  7.031250e-002
      vertex  3.016180e-001 -1.659379e-001  1.171875e-001
    endloop
  endfacet
  facet normal -2.902850e-001 -9.569402e-001  -0.000000e+000
    outer loop
      vertex  3.016180e-001 -1.659379e-001  1.171875e-001
      vertex  3.016180e-001 -1.659379e-001  7.031250e-002
      vertex  3.416049e-001 -1.780678e-001  7.031250e-002
    endloop
  endfacet
  facet normal -2.902850e-001 -9.569402e-001  0.000000e+000
    outer loop
      vertex  3.016180e-001 -1.659379e-001  1.171875e-001
      vertex  3.416049e-001 -1.780678e-001  7.031250e-002
      vertex  3.416049e-001 -1.780678e-001  1.171875e-001
    endloop
  endfacet
  facet normal -4.713968e-001 -8.819213e-001  -0.000000e+000
    outer loop
      vertex  3.416049e-001 -1.780678e-001  1.171875e-001
      vertex  3.416049e-001 -1.780678e-001  7.031250e-002
      vertex  3.784571e-001 -1.977657e-001  7.031250e-002
    endloop
  endfacet
  facet normal -4.713968e-001 -8.819213e-001  0.000000e+000
    outer loop
      vertex  3.416049e-001 -1.780678e-001  1.171875e-001
      vertex  3.784571e-001 -1.977657e-001  7.031250e-002
      vertex  3.784571e-001 -1.977657e-001  1.171875e-001
    endloop
  endfacet
  facet normal -6.343932e-001 -7.730106e-001  -0.000000e+000
    outer loop
      vertex  3.784571e-001 -1.977657e-001  1.171875e-001
      vertex  3.784571e-001 -1.977657e-001  7.031250e-002
      vertex  4.107583e-001 -2.242746e-001  7.031250e-002
    endloop
  endfacet
  facet normal -6.343932e-001 -7.730106e-001  0.000000e+000
    outer loop
      vertex  3.784571e-001 -1.977657e-001  1.171875e-001
      vertex  4.107583e-001 -2.242746e-001  7.031250e-002
      vertex  4.107583e-001 -2.242746e-001  1.171875e-001
    endloop
  endfacet
  facet normal -7.730104e-001 -6.343933e-001  -0.000000e+000
    outer loop
      vertex  4.107583e-001 -2.242746e-001  1.171875e-001
      vertex  4.107583e-001 -2.242746e-001  7.031250e-002
      vertex  4.372672e-001 -2.565758e-001  7.031250e-002
    endloop
  endfacet
  facet normal -7.730104e-001 -6.343933e-001  0.000000e+000
    outer loop
      vertex  4.107583e-001 -2.242746e-001  1.171875e-001
      vertex  4.372672e-001 -2.565758e-001  7.031250e-002
      vertex  4.372672e-001 -2.565758e-001  1.171875e-001
    endloop
  endfacet
  facet normal -8.819213e-001 -4.713968e-001  -0.000000e+000
    outer loop
      vertex  4.372672e-001 -2.565758e-001  1.171875e-001
      vertex  4.372672e-001 -2.565758e-001  7.031250e-002
      vertex  4.569651e-001 -2.934280e-001  7.031250e-002
    endloop
  endfacet
  facet normal -8.819213e-001 -4.713968e-001  0.000000e+000
    outer loop
      vertex  4.372672e-001 -2.565758e-001  1.171875e-001
      vertex  4.569651e-001 -2.934280e-001  7.031250e-002
      vertex  4.569651e-001 -2.934280e-001  1.171875e-001
    endloop
  endfacet
  facet normal -9.569404e-001 -2.902844e-001  -0.000000e+000
    outer loop
      vertex  4.569651e-001 -2.934280e-001  1.171875e-001
      vertex  4.569651e-001 -2.934280e-001  7.031250e-002
      vertex  4.690950e-001 -3.334150e-001  7.031250e-002
    endloop
  endfacet
  facet normal -9.569404e-001 -2.902844e-001  0.000000e+000
    outer loop
      vertex  4.569651e-001 -2.934280e-001  1.171875e-001
      vertex  4.690950e-001 -3.334150e-001  7.031250e-002
      vertex  4.690950e-001 -3.334150e-001  1.171875e-001
    endloop
  endfacet
  facet normal -9.951848e-001 -9.801703e-002  -0.000000e+000
    outer loop
      vertex  4.690950e-001 -3.334150e-001  1.171875e-001
      vertex  4.690950e-001 -3.334150e-001  7.031250e-002
      vertex  4.731908e-001 -3.750000e-001  7.031250e-002
    endloop
  endfacet
  facet normal -9.951848e-001 -9.801703e-002  0.000000e+000
    outer loop
      vertex  4.690950e-001 -3.334150e-001  1.171875e-001
      vertex  4.731908e-001 -3.750000e-001  7.031250e-002
      vertex  4.731908e-001 -3.750000e-001  1.171875e-001
    endloop
  endfacet
  facet normal -9.801766e-002  9.951847e-001  0.000000e+000
    outer loop
      vertex  2.600329e-001 -5.881579e-001 -3.828125e-001
      vertex  3.016180e-001 -5.840621e-001 -3.359375e-001
      vertex  3.016180e-001 -5.840621e-001 -3.828125e-001
    endloop
  endfacet
  facet normal -2.902846e-001  9.569404e-001  0.000000e+000
    outer loop
      vertex  3.016180e-001 -5.840621e-001 -3.828125e-001
      vertex  3.016180e-001 -5.840621e-001 -3.359375e-001
      vertex  3.416049e-001 -5.719322e-001 -3.359375e-001
    endloop
  endfacet
  facet normal -2.902846e-001  9.569404e-001  0.000000e+000
    outer loop
      vertex  3.016180e-001 -5.840621e-001 -3.828125e-001
      vertex  3.416049e-001 -5.719322e-001 -3.359375e-001
      vertex  3.416049e-001 -5.719322e-001 -3.828125e-001
    endloop
  endfacet
  facet normal -4.713968e-001  8.819213e-001  0.000000e+000
    outer loop
      vertex  3.416049e-001 -5.719322e-001 -3.828125e-001
      vertex  3.416049e-001 -5.719322e-001 -3.359375e-001
      vertex  3.784571e-001 -5.522343e-001 -3.359375e-001
    endloop
  endfacet
  facet normal -4.713968e-001  8.819213e-001  0.000000e+000
    outer loop
      vertex  3.416049e-001 -5.719322e-001 -3.828125e-001
      vertex  3.784571e-001 -5.522343e-001 -3.359375e-001
      vertex  3.784571e-001 -5.522343e-001 -3.828125e-001
    endloop
  endfacet
  facet normal -6.343933e-001  7.730104e-001  0.000000e+000
    outer loop
      vertex  3.784571e-001 -5.522343e-001 -3.828125e-001
      vertex  3.784571e-001 -5.522343e-001 -3.359375e-001
      vertex  4.107583e-001 -5.257254e-001 -3.359375e-001
    endloop
  endfacet
  facet normal -6.343933e-001  7.730104e-001  0.000000e+000
    outer loop
      vertex  3.784571e-001 -5.522343e-001 -3.828125e-001
      vertex  4.107583e-001 -5.257254e-001 -3.359375e-001
      vertex  4.107583e-001 -5.257254e-001 -3.828125e-001
    endloop
  endfacet
  facet normal -7.730102e-001  6.343938e-001  0.000000e+000
    outer loop
      vertex  4.107583e-001 -5.257254e-001 -3.828125e-001
      vertex  4.107583e-001 -5.257254e-001 -3.359375e-001
      vertex  4.372672e-001 -4.934242e-001 -3.359375e-001
    endloop
  endfacet
  facet normal -7.730102e-001  6.343938e-001  0.000000e+000
    outer loop
      vertex  4.107583e-001 -5.257254e-001 -3.828125e-001
      vertex  4.372672e-001 -4.934242e-001 -3.359375e-001
      vertex  4.372672e-001 -4.934242e-001 -3.828125e-001
    endloop
  endfacet
  facet normal -8.819213e-001  4.713968e-001  0.000000e+000
    outer loop
      vertex  4.372672e-001 -4.934242e-001 -3.828125e-001
      vertex  4.372672e-001 -4.934242e-001 -3.359375e-001
      vertex  4.569651e-001 -4.565720e-001 -3.359375e-001
    endloop
  endfacet
  facet normal -8.819213e-001  4.713968e-001  0.000000e+000
    outer loop
      vertex  4.372672e-001 -4.934242e-001 -3.828125e-001
      vertex  4.569651e-001 -4.565720e-001 -3.359375e-001
      vertex  4.569651e-001 -4.565720e-001 -3.828125e-001
    endloop
  endfacet
  facet normal -9.569404e-001  2.902844e-001  0.000000e+000
    outer loop
      vertex  4.569651e-001 -4.565720e-001 -3.828125e-001
      vertex  4.569651e-001 -4.565720e-001 -3.359375e-001
      vertex  4.690950e-001 -4.165850e-001 -3.359375e-001
    endloop
  endfacet
  facet normal -9.569404e-001  2.902844e-001  0.000000e+000
    outer loop
      vertex  4.569651e-001 -4.565720e-001 -3.828125e-001
      vertex  4.690950e-001 -4.165850e-001 -3.359375e-001
      vertex  4.690950e-001 -4.165850e-001 -3.828125e-001
    endloop
  endfacet
  facet normal -9.951848e-001  9.801703e-002  0.000000e+000
    outer loop
      vertex  4.690950e-001 -4.165850e-001 -3.828125e-001
      vertex  4.690950e-001 -4.165850e-001 -3.359375e-001
      vertex  4.731908e-001 -3.750000e-001 -3.359375e-001
    endloop
  endfacet
  facet normal -9.951848e-001  9.801703e-002  0.000000e+000
    outer loop
      vertex  4.690950e-001 -4.165850e-001 -3.828125e-001
      vertex  4.731908e-001 -3.750000e-001 -3.359375e-001
      vertex  4.731908e-001 -3.750000e-001 -3.828125e-001
    endloop
  endfacet
  facet normal -9.801766e-002  9.951847e-001  0.000000e+000
    outer loop
      vertex  3.016180e-001 -5.840621e-001 -3.359375e-001
      vertex  2.600329e-001 -5.881579e-001 -3.828125e-001
      vertex  2.600329e-001 -5.881579e-001 -3.359375e-001
    endloop
  endfacet
  facet normal  9.801770e-002  9.951847e-001  0.000000e+000
    outer loop
      vertex  2.600329e-001 -5.881579e-001 -3.359375e-001
      vertex  2.600329e-001 -5.881579e-001 -3.828125e-001
      vertex  2.184478e-001 -5.840621e-001 -3.828125e-001
    endloop
  endfacet
  facet normal  9.801770e-002  9.951847e-001  -0.000000e+000
    outer loop
      vertex  2.600329e-001 -5.881579e-001 -3.359375e-001
      vertex  2.184478e-001 -5.840621e-001 -3.828125e-001
      vertex  2.184478e-001 -5.840621e-001 -3.359375e-001
    endloop
  endfacet
  facet normal  2.902845e-001  9.569404e-001  0.000000e+000
    outer loop
      vertex  2.184478e-001 -5.840621e-001 -3.359375e-001
      vertex  2.184478e-001 -5.840621e-001 -3.828125e-001
      vertex  1.784609e-001 -5.719322e-001 -3.828125e-001
    endloop
  endfacet
  facet normal  2.902845e-001  9.569404e-001  -0.000000e+000
    outer loop
      vertex  2.184478e-001 -5.840621e-001 -3.359375e-001
      vertex  1.784609e-001 -5.719322e-001 -3.828125e-001
      vertex  1.784609e-001 -5.719322e-001 -3.359375e-001
    endloop
  endfacet
  facet normal  4.713968e-001  8.819213e-001  0.000000e+000
    outer loop
      vertex  1.784609e-001 -5.719322e-001 -3.359375e-001
      vertex  1.784609e-001 -5.719322e-001 -3.828125e-001
      vertex  1.416087e-001 -5.522343e-001 -3.828125e-001
    endloop
  endfacet
  facet normal  4.713968e-001  8.819213e-001  -0.000000e+000
    outer loop
      vertex  1.784609e-001 -5.719322e-001 -3.359375e-001
      vertex  1.416087e-001 -5.522343e-001 -3.828125e-001
      vertex  1.416087e-001 -5.522343e-001 -3.359375e-001
    endloop
  endfacet
  facet normal  6.343935e-001  7.730104e-001  0.000000e+000
    outer loop
      vertex  1.416087e-001 -5.522343e-001 -3.359375e-001
      vertex  1.416087e-001 -5.522343e-001 -3.828125e-001
      vertex  1.093075e-001 -5.257254e-001 -3.828125e-001
    endloop
  endfacet
  facet normal  6.343935e-001  7.730104e-001  -0.000000e+000
    outer loop
      vertex  1.416087e-001 -5.522343e-001 -3.359375e-001
      vertex  1.093075e-001 -5.257254e-001 -3.828125e-001
      vertex  1.093075e-001 -5.257254e-001 -3.359375e-001
    endloop
  endfacet
  facet normal  7.730103e-001  6.343936e-001  0.000000e+000
    outer loop
      vertex  1.093075e-001 -5.257254e-001 -3.359375e-001
      vertex  1.093075e-001 -5.257254e-001 -3.828125e-001
      vertex  8.279859e-002 -4.934242e-001 -3.828125e-001
    endloop
  endfacet
  facet normal  7.730103e-001  6.343936e-001  -0.000000e+000
    outer loop
      vertex  1.093075e-001 -5.257254e-001 -3.359375e-001
      vertex  8.279859e-002 -4.934242e-001 -3.828125e-001
      vertex  8.279859e-002 -4.934242e-001 -3.359375e-001
    endloop
  endfacet
  facet normal  8.819213e-001  4.713968e-001  0.000000e+000
    outer loop
      vertex  8.279859e-002 -4.934242e-001 -3.359375e-001
      vertex  8.279859e-002 -4.934242e-001 -3.828125e-001
      vertex  6.310068e-002 -4.565720e-001 -3.828125e-001
    endloop
  endfacet
  facet normal  8.819213e-001  4.713968e-001  -0.000000e+000
    outer loop
      vertex  8.279859e-002 -4.934242e-001 -3.359375e-001
      vertex  6.310068e-002 -4.565720e-001 -3.828125e-001
      vertex  6.310068e-002 -4.565720e-001 -3.359375e-001
    endloop
  endfacet
  facet normal  9.569404e-001  2.902846e-001  0.000000e+000
    outer loop
      vertex  6.310068e-002 -4.565720e-001 -3.359375e-001
      vertex  6.310068e-002 -4.565720e-001 -3.828125e-001
      vertex  5.097077e-002 -4.165850e-001 -3.828125e-001
    endloop
  endfacet
  facet normal  9.569404e-001  2.902846e-001  -0.000000e+000
    outer loop
      vertex  6.310068e-002 -4.565720e-001 -3.359375e-001
      vertex  5.097077e-002 -4.165850e-001 -3.828125e-001
      vertex  5.097077e-002 -4.165850e-001 -3.359375e-001
    endloop
  endfacet
  facet normal  9.951848e-001  9.801721e-002  0.000000e+000
    outer loop
      vertex  5.097077e-002 -4.165850e-001 -3.359375e-001
      vertex  5.097077e-002 -4.165850e-001 -3.828125e-001
      vertex  4.687500e-002 -3.750000e-001 -3.828125e-001
    endloop
  endfacet
  facet normal  9.951848e-001  9.801721e-002  -0.000000e+000
    outer loop
      vertex  5.097077e-002 -4.165850e-001 -3.359375e-001
      vertex  4.687500e-002 -3.750000e-001 -3.828125e-001
      vertex  4.687500e-002 -3.750000e-001 -3.359375e-001
    endloop
  endfacet
  facet normal -9.801766e-002  9.951847e-001  0.000000e+000
    outer loop
      vertex  2.600329e-001 -5.881579e-001  7.031250e-002
      vertex  3.016180e-001 -5.840621e-001  1.171875e-001
      vertex  3.016180e-001 -5.840621e-001  7.031250e-002
    endloop
  endfacet
  facet normal -2.902846e-001  9.569404e-001  0.000000e+000
    outer loop
      vertex  3.016180e-001 -5.840621e-001  7.031250e-002
      vertex  3.016180e-001 -5.840621e-001  1.171875e-001
      vertex  3.416049e-001 -5.719322e-001  1.171875e-001
    endloop
  endfacet
  facet normal -2.902846e-001  9.569404e-001  0.000000e+000
    outer loop
      vertex  3.016180e-001 -5.840621e-001  7.031250e-002
      vertex  3.416049e-001 -5.719322e-001  1.171875e-001
      vertex  3.416049e-001 -5.719322e-001  7.031250e-002
    endloop
  endfacet
  facet normal -4.713968e-001  8.819213e-001  0.000000e+000
    outer loop
      vertex  3.416049e-001 -5.719322e-001  7.031250e-002
      vertex  3.416049e-001 -5.719322e-001  1.171875e-001
      vertex  3.784571e-001 -5.522343e-001  1.171875e-001
    endloop
  endfacet
  facet normal -4.713968e-001  8.819213e-001  0.000000e+000
    outer loop
      vertex  3.416049e-001 -5.719322e-001  7.031250e-002
      vertex  3.784571e-001 -5.522343e-001  1.171875e-001
      vertex  3.784571e-001 -5.522343e-001  7.031250e-002
    endloop
  endfacet
  facet normal -6.343933e-001  7.730104e-001  0.000000e+000
    outer loop
      vertex  3.784571e-001 -5.522343e-001  7.031250e-002
      vertex  3.784571e-001 -5.522343e-001  1.171875e-001
      vertex  4.107583e-001 -5.257254e-001  1.171875e-001
    endloop
  endfacet
  facet normal -6.343933e-001  7.730104e-001  0.000000e+000
    outer loop
      vertex  3.784571e-001 -5.522343e-001  7.031250e-002
      vertex  4.107583e-001 -5.257254e-001  1.171875e-001
      vertex  4.107583e-001 -5.257254e-001  7.031250e-002
    endloop
  endfacet
  facet normal -7.730102e-001  6.343938e-001  0.000000e+000
    outer loop
      vertex  4.107583e-001 -5.257254e-001  7.031250e-002
      vertex  4.107583e-001 -5.257254e-001  1.171875e-001
      vertex  4.372672e-001 -4.934242e-001  1.171875e-001
    endloop
  endfacet
  facet normal -7.730102e-001  6.343938e-001  0.000000e+000
    outer loop
      vertex  4.107583e-001 -5.257254e-001  7.031250e-002
      vertex  4.372672e-001 -4.934242e-001  1.171875e-001
      vertex  4.372672e-001 -4.934242e-001  7.031250e-002
    endloop
  endfacet
  facet normal -8.819213e-001  4.713968e-001  0.000000e+000
    outer loop
      vertex  4.372672e-001 -4.934242e-001  7.031250e-002
      vertex  4.372672e-001 -4.934242e-001  1.171875e-001
      vertex  4.569651e-001 -4.565720e-001  1.171875e-001
    endloop
  endfacet
  facet normal -8.819213e-001  4.713968e-001  0.000000e+000
    outer loop
      vertex  4.372672e-001 -4.934242e-001  7.031250e-002
      vertex  4.569651e-001 -4.565720e-001  1.171875e-001
      vertex  4.569651e-001 -4.565720e-001  7.031250e-002
    endloop
  endfacet
  facet normal -9.569404e-001  2.902844e-001  0.000000e+000
    outer loop
      vertex  4.569651e-001 -4.565720e-001  7.031250e-002
      vertex  4.569651e-001 -4.565720e-001  1.171875e-001
      vertex  4.690950e-001 -4.165850e-001  1.171875e-001
    endloop
  endfacet
  facet normal -9.569404e-001  2.902844e-001  0.000000e+000
    outer loop
      vertex  4.569651e-001 -4.565720e-001  7.031250e-002
      vertex  4.690950e-001 -4.165850e-001  1.171875e-001
      vertex  4.690950e-001 -4.165850e-001  7.031250e-002
    endloop
  endfacet
  facet normal -9.951848e-001  9.801703e-002  0.000000e+000
    outer loop
      vertex  4.690950e-001 -4.165850e-001  7.031250e-002
      vertex  4.690950e-001 -4.165850e-001  1.171875e-001
      vertex  4.731908e-001 -3.750000e-001  1.171875e-001
    endloop
  endfacet
  facet normal -9.951848e-001  9.801703e-002  0.000000e+000
    outer loop
      vertex  4.690950e-001 -4.165850e-001  7.031250e-002
      vertex  4.731908e-001 -3.750000e-001  1.171875e-001
      vertex  4.731908e-001 -3.750000e-001  7.031250e-002
    endloop
  endfacet
  facet normal -9.801766e-002  9.951847e-001  0.000000e+000
    outer loop
      vertex  3.016180e-001 -5.840621e-001  1.171875e-001
      vertex  2.600329e-001 -5.881579e-001  7.031250e-002
      vertex  2.600329e-001 -5.881579e-001  1.171875e-001
    endloop
  endfacet
  facet normal  9.801770e-002  9.951847e-001  0.000000e+000
    outer loop
      vertex  2.600329e-001 -5.881579e-001  1.171875e-001
      vertex  2.600329e-001 -5.881579e-001  7.031250e-002
      vertex  2.184478e-001 -5.840621e-001  7.031250e-002
    endloop
  endfacet
  facet normal  9.801770e-002  9.951847e-001  -0.000000e+000
    outer loop
      vertex  2.600329e-001 -5.881579e-001  1.171875e-001
      vertex  2.184478e-001 -5.840621e-001  7.031250e-002
      vertex  2.184478e-001 -5.840621e-001  1.171875e-001
    endloop
  endfacet
  facet normal  2.902845e-001  9.569404e-001  0.000000e+000
    outer loop
      vertex  2.184478e-001 -5.840621e-001  1.171875e-001
      vertex  2.184478e-001 -5.840621e-001  7.031250e-002
      vertex  1.784609e-001 -5.719322e-001  7.031250e-002
    endloop
  endfacet
  facet normal  2.902845e-001  9.569404e-001  -0.000000e+000
    outer loop
      vertex  2.184478e-001 -5.840621e-001  1.171875e-001
      vertex  1.784609e-001 -5.719322e-001  7.031250e-002
      vertex  1.784609e-001 -5.719322e-001  1.171875e-001
    endloop
  endfacet
  facet normal  4.713968e-001  8.819213e-001  0.000000e+000
    outer loop
      vertex  1.784609e-001 -5.719322e-001  1.171875e-001
      vertex  1.784609e-001 -5.719322e-001  7.031250e-002
      vertex  1.416087e-001 -5.522343e-001  7.031250e-002
    endloop
  endfacet
  facet normal  4.713968e-001  8.819213e-001  -0.000000e+000
    outer loop
      vertex  1.784609e-001 -5.719322e-001  1.171875e-001
      vertex  1.416087e-001 -5.522343e-001  7.031250e-002
      vertex  1.416087e-001 -5.522343e-001  1.171875e-001
    endloop
  endfacet
  facet normal  6.343935e-001  7.730104e-001  0.000000e+000
    outer loop
      vertex  1.416087e-001 -5.522343e-001  1.171875e-001
      vertex  1.416087e-001 -5.522343e-001  7.031250e-002
      vertex  1.093075e-001 -5.257254e-001  7.031250e-002
    endloop
  endfacet
  facet normal  6.343935e-001  7.730104e-001  -0.000000e+000
    outer loop
      vertex  1.416087e-001 -5.522343e-001  1.171875e-001
      vertex  1.093075e-001 -5.257254e-001  7.031250e-002
      vertex  1.093075e-001 -5.257254e-001  1.171875e-001
    endloop
  endfacet
  facet normal  7.730103e-001  6.343936e-001  0.000000e+000
    outer loop
      vertex  1.093075e-001 -5.257254e-001  1.171875e-001
      vertex  1.093075e-001 -5.257254e-001  7.031250e-002
      vertex  8.279859e-002 -4.934242e-001  7.031250e-002
    endloop
  endfacet
  facet normal  7.730103e-001  6.343936e-001  -0.000000e+000
    outer loop
      vertex  1.093075e-001 -5.257254e-001  1.171875e-001
      vertex  8.279859e-002 -4.934242e-001  7.031250e-002
      vertex  8.279859e-002 -4.934242e-001  1.171875e-001
    endloop
  endfacet
  facet normal  8.819213e-001  4.713968e-001  0.000000e+000
    outer loop
      vertex  8.279859e-002 -4.934242e-001  1.171875e-001
      vertex  8.279859e-002 -4.934242e-001  7.031250e-002
      vertex  6.310068e-002 -4.565720e-001  7.031250e-002
    endloop
  endfacet
  facet normal  8.819213e-001  4.713968e-001  -0.000000e+000
    outer loop
      vertex  8.279859e-002 -4.934242e-001  1.171875e-001
      vertex  6.310068e-002 -4.565720e-001  7.031250e-002
      vertex  6.310068e-002 -4.565720e-001  1.171875e-001
    endloop
  endfacet
  facet normal  9.569404e-001  2.902846e-001  0.000000e+000
    outer loop
      vertex  6.310068e-002 -4.565720e-001  1.171875e-001
      vertex  6.310068e-002 -4.565720e-001  7.031250e-002
      vertex  5.097077e-002 -4.165850e-001  7.031250e-002
    endloop
  endfacet
  facet normal  9.569404e-001  2.902846e-001  -0.000000e+000
    outer loop
      vertex  6.310068e-002 -4.565720e-001  1.171875e-001
      vertex  5.097077e-002 -4.165850e-001  7.031250e-002
      vertex  5.097077e-002 -4.165850e-001  1.171875e-001
    endloop
  endfacet
  facet normal  9.951848e-001  9.801721e-002  0.000000e+000
    outer loop
      vertex  5.097077e-002 -4.165850e-001  1.171875e-001
      vertex  5.097077e-002 -4.165850e-001  7.031250e-002
      vertex  4.687500e-002 -3.750000e-001  7.031250e-002
    endloop
  endfacet
  facet normal  9.951848e-001  9.801721e-002  -0.000000e+000
    outer loop
      vertex  5.097077e-002 -4.165850e-001  1.171875e-001
      vertex  4.687500e-002 -3.750000e-001  7.031250e-002
      vertex  4.687500e-002 -3.750000e-001  1.171875e-001
    endloop
  endfacet
  facet normal  0.000000e+000  0.000000e+000  1.000000e+000
    outer loop
      vertex  5.859375e-001 -7.031250e-001 -3.359375e-001
      vertex  5.859375e-001 -4.687500e-002 -3.359375e-001
      vertex  4.731908e-001 -3.750000e-001 -3.359375e-001
    endloop
  endfacet
  facet normal  0.000000e+000  0.000000e+000  1.000000e+000
    outer loop
      vertex  5.859375e-001 -7.031250e-001 -3.359375e-001
      vertex  4.731908e-001 -3.750000e-001 -3.359375e-001
      vertex  4.690950e-001 -4.165850e-001 -3.359375e-001
    endloop
  endfacet
  facet normal  0.000000e+000  0.000000e+000  1.000000e+000
    outer loop
      vertex  5.859375e-001 -7.031250e-001 -3.359375e-001
      vertex  4.690950e-001 -4.165850e-001 -3.359375e-001
      vertex  4.569651e-001 -4.565720e-001 -3.359375e-001
    endloop
  endfacet
  facet normal  0.000000e+000  0.000000e+000  1.000000e+000
    outer loop
      vertex  5.859375e-001 -7.031250e-001 -3.359375e-001
      vertex  4.569651e-001 -4.565720e-001 -3.359375e-001
      vertex  4.372672e-001 -4.934242e-001 -3.359375e-001
    endloop
  endfacet
  facet normal  0.000000e+000  0.000000e+000  1.000000e+000
    outer loop
      vertex  5.859375e-001 -7.031250e-001 -3.359375e-001
      vertex  4.372672e-001 -4.934242e-001 -3.359375e-001
      vertex  4.107583e-001 -5.257254e-001 -3.359375e-001
    endloop
  endfacet
  facet normal  0.000000e+000  0.000000e+000  1.000000e+000
    outer loop
      vertex  5.859375e-001 -7.031250e-001 -3.359375e-001
      vertex  4.107583e-001 -5.257254e-001 -3.359375e-001
      vertex  3.784571e-001 -5.522343e-001 -3.359375e-001
    endloop
  endfacet
  facet normal  0.000000e+000  0.000000e+000  1.000000e+000
    outer loop
      vertex  5.859375e-001 -7.031250e-001 -3.359375e-001
      vertex  3.784571e-001 -5.522343e-001 -3.359375e-001
      vertex  3.416049e-001 -5.719322e-001 -3.359375e-001
    endloop
  endfacet
  facet normal  0.000000e+000  0.000000e+000  1.000000e+000
    outer loop
      vertex  5.859375e-001 -7.031250e-001 -3.359375e-001
      vertex  3.416049e-001 -5.719322e-001 -3.359375e-001
      vertex  3.016180e-001 -5.840621e-001 -3.359375e-001
    endloop
  endfacet
  facet normal  0.000000e+000  0.000000e+000  1.000000e+000
    outer loop
      vertex  5.859375e-001 -7.031250e-001 -3.359375e-001
      vertex  3.016180e-001 -5.840621e-001 -3.359375e-001
      vertex  2.600329e-001 -5.881579e-001 -3.359375e-001
    endloop
  endfacet
  facet normal  0.000000e+000  0.000000e+000  1.000000e+000
    outer loop
      vertex  5.859375e-001 -7.031250e-001 -3.359375e-001
      vertex  2.600329e-001 -5.881579e-001 -3.359375e-001
      vertex  2.184478e-001 -5.840621e-001 -3.359375e-001
    endloop
  endfacet
  facet normal  0.000000e+000  0.000000e+000  1.000000e+000
    outer loop
      vertex  5.859375e-001 -7.031250e-001 -3.359375e-001
      vertex  2.184478e-001 -5.840621e-001 -3.359375e-001
      vertex -5.703125e-001 -7.031250e-001 -3.359375e-001
    endloop
  endfacet
  facet normal  0.000000e+000  0.000000e+000  1.000000e+000
    outer loop
      vertex -5.703125e-001 -4.687500e-002 -3.359375e-001
      vertex -5.703125e-001 -7.031250e-001 -3.359375e-001
      vertex  4.687500e-002 -3.750000e-001 -3.359375e-001
    endloop
  endfacet
  facet normal  0.000000e+000  -0.000000e+000  1.000000e+000
    outer loop
      vertex -5.703125e-001 -4.687500e-002 -3.359375e-001
      vertex  4.687500e-002 -3.750000e-001 -3.359375e-001
      vertex  5.097077e-002 -3.334150e-001 -3.359375e-001
    endloop
  endfacet
  facet normal  0.000000e+000  -0.000000e+000  1.000000e+000
    outer loop
      vertex -5.703125e-001 -4.687500e-002 -3.359375e-001
      vertex  5.097077e-002 -3.334150e-001 -3.359375e-001
      vertex  6.310068e-002 -2.934280e-001 -3.359375e-001
    endloop
  endfacet
  facet normal  0.000000e+000  -0.000000e+000  1.000000e+000
    outer loop
      vertex -5.703125e-001 -4.687500e-002 -3.359375e-001
      vertex  6.310068e-002 -2.934280e-001 -3.359375e-001
      vertex  8.279859e-002 -2.565758e-001 -3.359375e-001
    endloop
  endfacet
  facet normal  0.000000e+000  -0.000000e+000  1.000000e+000
    outer loop
      vertex -5.703125e-001 -4.687500e-002 -3.359375e-001
      vertex  8.279859e-002 -2.565758e-001 -3.359375e-001
      vertex  1.093075e-001 -2.242746e-001 -3.359375e-001
    endloop
  endfacet
  facet normal  0.000000e+000  -0.000000e+000  1.000000e+000
    outer loop
      vertex -5.703125e-001 -4.687500e-002 -3.359375e-001
      vertex  1.093075e-001 -2.242746e-001 -3.359375e-001
      vertex  1.416087e-001 -1.977657e-001 -3.359375e-001
    endloop
  endfacet
  facet normal  0.000000e+000  -0.000000e+000  1.000000e+000
    outer loop
      vertex -5.703125e-001 -4.687500e-002 -3.359375e-001
      vertex  1.416087e-001 -1.977657e-001 -3.359375e-001
      vertex  1.784609e-001 -1.780678e-001 -3.359375e-001
    endloop
  endfacet
  facet normal  0.000000e+000  -0.000000e+000  1.000000e+000
    outer loop
      vertex -5.703125e-001 -4.687500e-002 -3.359375e-001
      vertex  1.784609e-001 -1.780678e-001 -3.359375e-001
      vertex  2.184478e-001 -1.659379e-001 -3.359375e-001
    endloop
  endfacet
  facet normal  -0.000000e+000  0.000000e+000  1.000000e+000
    outer loop
      vertex  5.859375e-001 -4.687500e-002 -3.359375e-001
      vertex -5.703125e-001 -4.687500e-002 -3.359375e-001
      vertex  2.184478e-001 -1.659379e-001 -3.359375e-001
    endloop
  endfacet
  facet normal  0.000000e+000  0.000000e+000  1.000000e+000
    outer loop
      vertex  5.859375e-001 -4.687500e-002 -3.359375e-001
      vertex  2.184478e-001 -1.659379e-001 -3.359375e-001
      vertex  2.600329e-001 -1.618421e-001 -3.359375e-001
    endloop
  endfacet
  facet normal  -0.000000e+000  0.000000e+000  9.999999e-001
    outer loop
      vertex  5.859375e-001 -4.687500e-002 -3.359375e-001
      vertex  2.600329e-001 -1.618421e-001 -3.359375e-001
      vertex  3.016180e-001 -1.659379e-001 -3.359375e-001
    endloop
  endfacet
  facet normal  -0.000000e+000  0.000000e+000  1.000000e+000
    outer loop
      vertex  5.859375e-001 -4.687500e-002 -3.359375e-001
      vertex  3.016180e-001 -1.659379e-001 -3.359375e-001
      vertex  3.416049e-001 -1.780678e-001 -3.359375e-001
    endloop
  endfacet
  facet normal  -0.000000e+000  0.000000e+000  1.000000e+000
    outer loop
      vertex  5.859375e-001 -4.687500e-002 -3.359375e-001
      vertex  3.416049e-001 -1.780678e-001 -3.359375e-001
      vertex  3.784571e-001 -1.977657e-001 -3.359375e-001
    endloop
  endfacet
  facet normal  -0.000000e+000  0.000000e+000  9.999999e-001
    outer loop
      vertex  5.859375e-001 -4.687500e-002 -3.359375e-001
      vertex  3.784571e-001 -1.977657e-001 -3.359375e-001
      vertex  4.107583e-001 -2.242746e-001 -3.359375e-001
    endloop
  endfacet
  facet normal  -0.000000e+000  0.000000e+000  1.000000e+000
    outer loop
      vertex  5.859375e-001 -4.687500e-002 -3.359375e-001
      vertex  4.107583e-001 -2.242746e-001 -3.359375e-001
      vertex  4.372672e-001 -2.565758e-001 -3.359375e-001
    endloop
  endfacet
  facet normal  -0.000000e+000  0.000000e+000  1.000000e+000
    outer loop
      vertex  5.859375e-001 -4.687500e-002 -3.359375e-001
      vertex  4.372672e-001 -2.565758e-001 -3.359375e-001
      vertex  4.569651e-001 -2.934280e-001 -3.359375e-001
    endloop
  endfacet
  facet normal  -0.000000e+000  0.000000e+000  1.000000e+000
    outer loop
      vertex  5.859375e-001 -4.687500e-002 -3.359375e-001
      vertex  4.569651e-001 -2.934280e-001 -3.359375e-001
      vertex  4.690950e-001 -3.334150e-001 -3.359375e-001
    endloop
  endfacet
  facet normal  -0.000000e+000  0.000000e+000  1.000000e+000
    outer loop
      vertex  5.859375e-001 -4.687500e-002 -3.359375e-001
      vertex  4.690950e-001 -3.334150e-001 -3.359375e-001
      vertex  4.731908e-001 -3.750000e-001 -3.359375e-001
    endloop
  endfacet
  facet normal  0.000000e+000  0.000000e+000  1.000000e+000
    outer loop
      vertex -5.703125e-001 -7.031250e-001 -3.359375e-001
      vertex  2.184478e-001 -5.840621e-001 -3.359375e-001
      vertex  1.784609e-001 -5.719322e-001 -3.359375e-001
    endloop
  endfacet
  facet normal  0.000000e+000  0.000000e+000  1.000000e+000
    outer loop
      vertex -5.703125e-001 -7.031250e-001 -3.359375e-001
      vertex  1.784609e-001 -5.719322e-001 -3.359375e-001
      vertex  1.416087e-001 -5.522343e-001 -3.359375e-001
    endloop
  endfacet
  facet normal  0.000000e+000  0.000000e+000  1.000000e+000
    outer loop
      vertex -5.703125e-001 -7.031250e-001 -3.359375e-001
      vertex  1.416087e-001 -5.522343e-001 -3.359375e-001
      vertex  1.093075e-001 -5.257254e-001 -3.359375e-001
    endloop
  endfacet
  facet normal  0.000000e+000  0.000000e+000  1.000000e+000
    outer loop
      vertex -5.703125e-001 -7.031250e-001 -3.359375e-001
      vertex  1.093075e-001 -5.257254e-001 -3.359375e-001
      vertex  8.279859e-002 -4.934242e-001 -3.359375e-001
    endloop
  endfacet
  facet normal  0.000000e+000  0.000000e+000  1.000000e+000
    outer loop
      vertex -5.703125e-001 -7.031250e-001 -3.359375e-001
      vertex  8.279859e-002 -4.934242e-001 -3.359375e-001
      vertex  6.310068e-002 -4.565720e-001 -3.359375e-001
    endloop
  endfacet
  facet normal  0.000000e+000  0.000000e+000  1.000000e+000
    outer loop
      vertex -5.703125e-001 -7.031250e-001 -3.359375e-001
      vertex  6.310068e-002 -4.565720e-001 -3.359375e-001
      vertex  5.097077e-002 -4.165850e-001 -3.359375e-001
    endloop
  endfacet
  facet normal  0.000000e+000  0.000000e+000  1.000000e+000
    outer loop
      vertex -5.703125e-001 -7.031250e-001 -3.359375e-001
      vertex  5.097077e-002 -4.165850e-001 -3.359375e-001
      vertex  4.687500e-002 -3.750000e-001 -3.359375e-001
    endloop
  endfacet
  facet normal  0.000000e+000  0.000000e+000 -1.000000e+000
    outer loop
      vertex  5.859375e-001 -7.031250e-001  7.031250e-002
      vertex  1.439145e-002 -7.031250e-001  7.031250e-002
      vertex  2.600329e-001 -5.881579e-001  7.031250e-002
    endloop
  endfacet
  facet normal  0.000000e+000  0.000000e+000 -1.000000e+000
    outer loop
      vertex  5.859375e-001 -7.031250e-001  7.031250e-002
      vertex  2.600329e-001 -5.881579e-001  7.031250e-002
      vertex  3.016180e-001 -5.840621e-001  7.031250e-002
    endloop
  endfacet
  facet normal  0.000000e+000  0.000000e+000 -1.000000e+000
    outer loop
      vertex  5.859375e-001 -7.031250e-001  7.031250e-002
      vertex  3.016180e-001 -5.840621e-001  7.031250e-002
      vertex  3.416049e-001 -5.719322e-001  7.031250e-002
    endloop
  endfacet
  facet normal  0.000000e+000  0.000000e+000 -1.000000e+000
    outer loop
      vertex  5.859375e-001 -7.031250e-001  7.031250e-002
      vertex  3.416049e-001 -5.719322e-001  7.031250e-002
      vertex  3.784571e-001 -5.522343e-001  7.031250e-002
    endloop
  endfacet
  facet normal  0.000000e+000  0.000000e+000 -1.000000e+000
    outer loop
      vertex  5.859375e-001 -7.031250e-001  7.031250e-002
      vertex  3.784571e-001 -5.522343e-001  7.031250e-002
      vertex  4.107583e-001 -5.257254e-001  7.031250e-002
    endloop
  endfacet
  facet normal  0.000000e+000  0.000000e+000 -1.000000e+000
    outer loop
      vertex  5.859375e-001 -7.031250e-001  7.031250e-002
      vertex  4.107583e-001 -5.257254e-001  7.031250e-002
      vertex  4.372672e-001 -4.934242e-001  7.031250e-002
    endloop
  endfacet
  facet normal  0.000000e+000  0.000000e+000 -1.000000e+000
    outer loop
      vertex  5.859375e-001 -7.031250e-001  7.031250e-002
      vertex  4.372672e-001 -4.934242e-001  7.031250e-002
      vertex  4.569651e-001 -4.565720e-001  7.031250e-002
    endloop
  endfacet
  facet normal  0.000000e+000  0.000000e+000 -1.000000e+000
    outer loop
      vertex  5.859375e-001 -7.031250e-001  7.031250e-002
      vertex  4.569651e-001 -4.565720e-001  7.031250e-002
      vertex  4.690950e-001 -4.165850e-001  7.031250e-002
    endloop
  endfacet
  facet normal  0.000000e+000  0.000000e+000 -1.000000e+000
    outer loop
      vertex  5.859375e-001 -7.031250e-001  7.031250e-002
      vertex  4.690950e-001 -4.165850e-001  7.031250e-002
      vertex  4.731908e-001 -3.750000e-001  7.031250e-002
    endloop
  endfacet
  facet normal  0.000000e+000  0.000000e+000 -1.000000e+000
    outer loop
      vertex  5.859375e-001 -7.031250e-001  7.031250e-002
      vertex  4.731908e-001 -3.750000e-001  7.031250e-002
      vertex  5.859375e-001 -4.687500e-002  7.031250e-002
    endloop
  endfacet
  facet normal  0.000000e+000  0.000000e+000 -1.000000e+000
    outer loop
      vertex  5.859375e-001 -4.687500e-002  7.031250e-002
      vertex  4.731908e-001 -3.750000e-001  7.031250e-002
      vertex  4.690950e-001 -3.334150e-001  7.031250e-002
    endloop
  endfacet
  facet normal  0.000000e+000  0.000000e+000 -1.000000e+000
    outer loop
      vertex  5.859375e-001 -4.687500e-002  7.031250e-002
      vertex  4.690950e-001 -3.334150e-001  7.031250e-002
      vertex  4.569651e-001 -2.934280e-001  7.031250e-002
    endloop
  endfacet
  facet normal  0.000000e+000  0.000000e+000 -1.000000e+000
    outer loop
      vertex  5.859375e-001 -4.687500e-002  7.031250e-002
      vertex  4.569651e-001 -2.934280e-001  7.031250e-002
      vertex  4.372672e-001 -2.565758e-001  7.031250e-002
    endloop
  endfacet
  facet normal  0.000000e+000  0.000000e+000 -1.000000e+000
    outer loop
      vertex  5.859375e-001 -4.687500e-002  7.031250e-002
      vertex  4.372672e-001 -2.565758e-001  7.031250e-002
      vertex  4.107583e-001 -2.242746e-001  7.031250e-002
    endloop
  endfacet
  facet normal  0.000000e+000  0.000000e+000 -9.999999e-001
    outer loop
      vertex  5.859375e-001 -4.687500e-002  7.031250e-002
      vertex  4.107583e-001 -2.242746e-001  7.031250e-002
      vertex  3.784571e-001 -1.977657e-001  7.031250e-002
    endloop
  endfacet
  facet normal  0.000000e+000  0.000000e+000 -1.000000e+000
    outer loop
      vertex  5.859375e-001 -4.687500e-002  7.031250e-002
      vertex  3.784571e-001 -1.977657e-001  7.031250e-002
      vertex  3.416049e-001 -1.780678e-001  7.031250e-002
    endloop
  endfacet
  facet normal  0.000000e+000  0.000000e+000 -1.000000e+000
    outer loop
      vertex  5.859375e-001 -4.687500e-002  7.031250e-002
      vertex  3.416049e-001 -1.780678e-001  7.031250e-002
      vertex  3.016180e-001 -1.659379e-001  7.031250e-002
    endloop
  endfacet
  facet normal  0.000000e+000  0.000000e+000 -9.999999e-001
    outer loop
      vertex  5.859375e-001 -4.687500e-002  7.031250e-002
      vertex  3.016180e-001 -1.659379e-001  7.031250e-002
      vertex  2.600329e-001 -1.618421e-001  7.031250e-002
    endloop
  endfacet
  facet normal  0.000000e+000  0.000000e+000 -1.000000e+000
    outer loop
      vertex  5.859375e-001 -4.687500e-002  7.031250e-002
      vertex  2.600329e-001 -1.618421e-001  7.031250e-002
      vertex  1.439145e-002 -4.687500e-002  7.031250e-002
    endloop
  endfacet
  facet normal  -0.000000e+000  0.000000e+000 -9.999999e-001
    outer loop
      vertex  1.439145e-002 -4.687500e-002  7.031250e-002
      vertex  2.600329e-001 -1.618421e-001  7.031250e-002
      vertex  2.184478e-001 -1.659379e-001  7.031250e-002
    endloop
  endfacet
  facet normal  -0.000000e+000  0.000000e+000 -9.999999e-001
    outer loop
      vertex  1.439145e-002 -4.687500e-002  7.031250e-002
      vertex  2.184478e-001 -1.659379e-001  7.031250e-002
      vertex  1.784609e-001 -1.780678e-001  7.031250e-002
    endloop
  endfacet
  facet normal  -0.000000e+000  0.000000e+000 -1.000000e+000
    outer loop
      vertex  1.439145e-002 -4.687500e-002  7.031250e-002
      vertex  1.784609e-001 -1.780678e-001  7.031250e-002
      vertex  1.416087e-001 -1.977657e-001  7.031250e-002
    endloop
  endfacet
  facet normal  -0.000000e+000  0.000000e+000 -1.000000e+000
    outer loop
      vertex  1.439145e-002 -4.687500e-002  7.031250e-002
      vertex  1.416087e-001 -1.977657e-001  7.031250e-002
      vertex  1.093075e-001 -2.242746e-001  7.031250e-002
    endloop
  endfacet
  facet normal  -0.000000e+000  0.000000e+000 -1.000000e+000
    outer loop
      vertex  1.439145e-002 -4.687500e-002  7.031250e-002
      vertex  1.093075e-001 -2.242746e-001  7.031250e-002
      vertex  8.279859e-002 -2.565758e-001  7.031250e-002
    endloop
  endfacet
  facet normal  -0.000000e+000  0.000000e+000 -1.000000e+000
    outer loop
      vertex  1.439145e-002 -4.687500e-002  7.031250e-002
      vertex  8.279859e-002 -2.565758e-001  7.031250e-002
      vertex  6.310068e-002 -2.934280e-001  7.031250e-002
    endloop
  endfacet
  facet normal  -0.000000e+000  0.000000e+000 -1.000000e+000
    outer loop
      vertex  1.439145e-002 -4.687500e-002  7.031250e-002
      vertex  6.310068e-002 -2.934280e-001  7.031250e-002
      vertex  5.097077e-002 -3.334150e-001  7.031250e-002
    endloop
  endfacet
  facet normal  -0.000000e+000  0.000000e+000 -1.000000e+000
    outer loop
      vertex  1.439145e-002 -4.687500e-002  7.031250e-002
      vertex  5.097077e-002 -3.334150e-001  7.031250e-002
      vertex  4.687500e-002 -3.750000e-001  7.031250e-002
    endloop
  endfacet
  facet normal  0.000000e+000  0.000000e+000 -1.000000e+000
    outer loop
      vertex  1.439145e-002 -7.031250e-001  7.031250e-002
      vertex  1.439145e-002 -4.687500e-002  7.031250e-002
      vertex  4.687500e-002 -3.750000e-001  7.031250e-002
    endloop
  endfacet
  facet normal  0.000000e+000  -0.000000e+000 -1.000000e+000
    outer loop
      vertex  1.439145e-002 -7.031250e-001  7.031250e-002
      vertex  4.687500e-002 -3.750000e-001  7.031250e-002
      vertex  5.097077e-002 -4.165850e-001  7.031250e-002
    endloop
  endfacet
  facet normal  0.000000e+000  -0.000000e+000 -1.000000e+000
    outer loop
      vertex  1.439145e-002 -7.031250e-001  7.031250e-002
      vertex  5.097077e-002 -4.165850e-001  7.031250e-002
      vertex  6.310068e-002 -4.565720e-001  7.031250e-002
    endloop
  endfacet
  facet normal  0.000000e+000  -0.000000e+000 -1.000000e+000
    outer loop
      vertex  1.439145e-002 -7.031250e-001  7.031250e-002
      vertex  6.310068e-002 -4.565720e-001  7.031250e-002
      vertex  8.279859e-002 -4.934242e-001  7.031250e-002
    endloop
  endfacet
  facet normal  0.000000e+000  -0.000000e+000 -1.000000e+000
    outer loop
      vertex  1.439145e-002 -7.031250e-001  7.031250e-002
      vertex  8.279859e-002 -4.934242e-001  7.031250e-002
      vertex  1.093075e-001 -5.257254e-001  7.031250e-002
    endloop
  endfacet
  facet normal  0.000000e+000  -0.000000e+000 -1.000000e+000
    outer loop
      vertex  1.439145e-002 -7.031250e-001  7.031250e-002
      vertex  1.093075e-001 -5.257254e-001  7.031250e-002
      vertex  1.416087e-001 -5.522343e-001  7.031250e-002
    endloop
  endfacet
  facet normal  0.000000e+000  -0.000000e+000 -1.000000e+000
    outer loop
      vertex  1.439145e-002 -7.031250e-001  7.031250e-002
      vertex  1.416087e-001 -5.522343e-001  7.031250e-002
      vertex  1.784609e-001 -5.719322e-001  7.031250e-002
    endloop
  endfacet
  facet normal  0.000000e+000  -0.000000e+000 -1.000000e+000
    outer loop
      vertex  1.439145e-002 -7.031250e-001  7.031250e-002
      vertex  1.784609e-001 -5.719322e-001  7.031250e-002
      vertex  2.184478e-001 -5.840621e-001  7.031250e-002
    endloop
  endfacet
  facet normal  0.000000e+000  -0.000000e+000 -1.000000e+000
    outer loop
      vertex  1.439145e-002 -7.031250e-001  7.031250e-002
      vertex  2.184478e-001 -5.840621e-001  7.031250e-002
      vertex  2.600329e-001 -5.881579e-001  7.031250e-002
    endloop
  endfacet
  facet normal  0.000000e+000  0.000000e+000  1.000000e+000
    outer loop
      vertex  2.184478e-001 -1.659379e-001 -3.828125e-001
      vertex  3.016180e-001 -1.659379e-001 -3.828125e-001
      vertex  2.600329e-001 -1.618421e-001 -3.828125e-001
    endloop
  endfacet
  facet normal  -0.000000e+000  0.000000e+000  1.000000e+000
    outer loop
      vertex  3.016180e-001 -1.659379e-001 -3.828125e-001
      vertex  2.184478e-001 -1.659379e-001 -3.828125e-001
      vertex  1.784609e-001 -1.780678e-001 -3.828125e-001
    endloop
  endfacet
  facet normal  0.000000e+000  0.000000e+000  1.000000e+000
    outer loop
      vertex  3.016180e-001 -1.659379e-001 -3.828125e-001
      vertex  1.784609e-001 -1.780678e-001 -3.828125e-001
      vertex  3.416049e-001 -1.780678e-001 -3.828125e-001
    endloop
  endfacet
  facet normal  0.000000e+000  0.000000e+000  1.000000e+000
    outer loop
      vertex  3.416049e-001 -5.719322e-001 -3.828125e-001
      vertex  2.184478e-001 -5.840621e-001 -3.828125e-001
      vertex  3.016180e-001 -5.840621e-001 -3.828125e-001
    endloop
  endfacet
  facet normal  -0.000000e+000  0.000000e+000  1.000000e+000
    outer loop
      vertex  3.016180e-001 -5.840621e-001 -3.828125e-001
      vertex  2.184478e-001 -5.840621e-001 -3.828125e-001
      vertex  2.600329e-001 -5.881579e-001 -3.828125e-001
    endloop
  endfacet
  facet normal  -0.000000e+000  0.000000e+000  9.999999e-001
    outer loop
      vertex  3.416049e-001 -1.780678e-001 -3.828125e-001
      vertex  1.784609e-001 -1.780678e-001 -3.828125e-001
      vertex  3.784571e-001 -1.977657e-001 -3.828125e-001
    endloop
  endfacet
  facet normal  0.000000e+000  0.000000e+000  1.000000e+000
    outer loop
      vertex  3.784571e-001 -1.977657e-001 -3.828125e-001
      vertex  1.784609e-001 -1.780678e-001 -3.828125e-001
      vertex  1.416087e-001 -1.977657e-001 -3.828125e-001
    endloop
  endfacet
  facet normal  -0.000000e+000  0.000000e+000  1.000000e+000
    outer loop
      vertex  3.784571e-001 -1.977657e-001 -3.828125e-001
      vertex  1.416087e-001 -1.977657e-001 -3.828125e-001
      vertex  4.107583e-001 -2.242746e-001 -3.828125e-001
    endloop
  endfacet
  facet normal  0.000000e+000  0.000000e+000  1.000000e+000
    outer loop
      vertex  4.107583e-001 -2.242746e-001 -3.828125e-001
      vertex  1.416087e-001 -1.977657e-001 -3.828125e-001
      vertex  1.093075e-001 -2.242746e-001 -3.828125e-001
    endloop
  endfacet
  facet normal  -0.000000e+000  0.000000e+000  1.000000e+000
    outer loop
      vertex  4.107583e-001 -2.242746e-001 -3.828125e-001
      vertex  1.093075e-001 -2.242746e-001 -3.828125e-001
      vertex  4.372672e-001 -2.565758e-001 -3.828125e-001
    endloop
  endfacet
  facet normal  0.000000e+000  0.000000e+000  1.000000e+000
    outer loop
      vertex  4.372672e-001 -2.565758e-001 -3.828125e-001
      vertex  1.093075e-001 -2.242746e-001 -3.828125e-001
      vertex  8.279859e-002 -2.565758e-001 -3.828125e-001
    endloop
  endfacet
  facet normal  -0.000000e+000  0.000000e+000  1.000000e+000
    outer loop
      vertex  4.372672e-001 -2.565758e-001 -3.828125e-001
      vertex  8.279859e-002 -2.565758e-001 -3.828125e-001
      vertex  4.569651e-001 -2.934280e-001 -3.828125e-001
    endloop
  endfacet
  facet normal  0.000000e+000  0.000000e+000  1.000000e+000
    outer loop
      vertex  4.569651e-001 -2.934280e-001 -3.828125e-001
      vertex  8.279859e-002 -2.565758e-001 -3.828125e-001
      vertex  6.310068e-002 -2.934280e-001 -3.828125e-001
    endloop
  endfacet
  facet normal  -0.000000e+000  0.000000e+000  1.000000e+000
    outer loop
      vertex  4.569651e-001 -2.934280e-001 -3.828125e-001
      vertex  6.310068e-002 -2.934280e-001 -3.828125e-001
      vertex  4.690950e-001 -3.334150e-001 -3.828125e-001
    endloop
  endfacet
  facet normal  0.000000e+000  0.000000e+000  1.000000e+000
    outer loop
      vertex  4.690950e-001 -3.334150e-001 -3.828125e-001
      vertex  6.310068e-002 -2.934280e-001 -3.828125e-001
      vertex  5.097077e-002 -3.334150e-001 -3.828125e-001
    endloop
  endfacet
  facet normal  -0.000000e+000  0.000000e+000  1.000000e+000
    outer loop
      vertex  4.690950e-001 -3.334150e-001 -3.828125e-001
      vertex  5.097077e-002 -3.334150e-001 -3.828125e-001
      vertex  4.731908e-001 -3.750000e-001 -3.828125e-001
    endloop
  endfacet
  facet normal  0.000000e+000  0.000000e+000  1.000000e+000
    outer loop
      vertex  4.731908e-001 -3.750000e-001 -3.828125e-001
      vertex  5.097077e-002 -3.334150e-001 -3.828125e-001
      vertex  4.687500e-002 -3.750000e-001 -3.828125e-001
    endloop
  endfacet
  facet normal  -0.000000e+000  0.000000e+000  1.000000e+000
    outer loop
      vertex  4.731908e-001 -3.750000e-001 -3.828125e-001
      vertex  4.687500e-002 -3.750000e-001 -3.828125e-001
      vertex  4.690950e-001 -4.165850e-001 -3.828125e-001
    endloop
  endfacet
  facet normal  0.000000e+000  0.000000e+000  1.000000e+000
    outer loop
      vertex  4.690950e-001 -4.165850e-001 -3.828125e-001
      vertex  4.687500e-002 -3.750000e-001 -3.828125e-001
      vertex  5.097077e-002 -4.165850e-001 -3.828125e-001
    endloop
  endfacet
  facet normal  -0.000000e+000  0.000000e+000  1.000000e+000
    outer loop
      vertex  4.690950e-001 -4.165850e-001 -3.828125e-001
      vertex  5.097077e-002 -4.165850e-001 -3.828125e-001
      vertex  4.569651e-001 -4.565720e-001 -3.828125e-001
    endloop
  endfacet
  facet normal  0.000000e+000  0.000000e+000  1.000000e+000
    outer loop
      vertex  4.569651e-001 -4.565720e-001 -3.828125e-001
      vertex  5.097077e-002 -4.165850e-001 -3.828125e-001
      vertex  6.310068e-002 -4.565720e-001 -3.828125e-001
    endloop
  endfacet
  facet normal  -0.000000e+000  0.000000e+000  1.000000e+000
    outer loop
      vertex  4.569651e-001 -4.565720e-001 -3.828125e-001
      vertex  6.310068e-002 -4.565720e-001 -3.828125e-001
      vertex  4.372672e-001 -4.934242e-001 -3.828125e-001
    endloop
  endfacet
  facet normal  0.000000e+000  0.000000e+000  1.000000e+000
    outer loop
      vertex  4.372672e-001 -4.934242e-001 -3.828125e-001
      vertex  6.310068e-002 -4.565720e-001 -3.828125e-001
      vertex  8.279859e-002 -4.934242e-001 -3.828125e-001
    endloop
  endfacet
  facet normal  -0.000000e+000  0.000000e+000  1.000000e+000
    outer loop
      vertex  4.372672e-001 -4.934242e-001 -3.828125e-001
      vertex  8.279859e-002 -4.934242e-001 -3.828125e-001
      vertex  4.107583e-001 -5.257254e-001 -3.828125e-001
    endloop
  endfacet
  facet normal  0.000000e+000  0.000000e+000  1.000000e+000
    outer loop
      vertex  4.107583e-001 -5.257254e-001 -3.828125e-001
      vertex  8.279859e-002 -4.934242e-001 -3.828125e-001
      vertex  1.093075e-001 -5.257254e-001 -3.828125e-001
    endloop
  endfacet
  facet normal  -0.000000e+000  0.000000e+000  1.000000e+000
    outer loop
      vertex  4.107583e-001 -5.257254e-001 -3.828125e-001
      vertex  1.093075e-001 -5.257254e-001 -3.828125e-001
      vertex  3.784571e-001 -5.522343e-001 -3.828125e-001
    endloop
  endfacet
  facet normal  0.000000e+000  0.000000e+000  1.000000e+000
    outer loop
      vertex  3.784571e-001 -5.522343e-001 -3.828125e-001
      vertex  1.093075e-001 -5.257254e-001 -3.828125e-001
      vertex  1.416087e-001 -5.522343e-001 -3.828125e-001
    endloop
  endfacet
  facet normal  -0.000000e+000  0.000000e+000  1.000000e+000
    outer loop
      vertex  3.784571e-001 -5.522343e-001 -3.828125e-001
      vertex  1.416087e-001 -5.522343e-001 -3.828125e-001
      vertex  3.416049e-001 -5.719322e-001 -3.828125e-001
    endloop
  endfacet
  facet normal  0.000000e+000  0.000000e+000  9.999999e-001
    outer loop
      vertex  3.416049e-001 -5.719322e-001 -3.828125e-001
      vertex  1.416087e-001 -5.522343e-001 -3.828125e-001
      vertex  1.784609e-001 -5.719322e-001 -3.828125e-001
    endloop
  endfacet
  facet normal  -0.000000e+000  0.000000e+000  1.000000e+000
    outer loop
      vertex  3.416049e-001 -5.719322e-001 -3.828125e-001
      vertex  1.784609e-001 -5.719322e-001 -3.828125e-001
      vertex  2.184478e-001 -5.840621e-001 -3.828125e-001
    endloop
  endfacet
  facet normal  0.000000e+000  0.000000e+000 -1.000000e+000
    outer loop
      vertex  2.600329e-001 -1.618421e-001  1.171875e-001
      vertex  3.016180e-001 -1.659379e-001  1.171875e-001
      vertex  2.184478e-001 -1.659379e-001  1.171875e-001
    endloop
  endfacet
  facet normal  0.000000e+000  -0.000000e+000 -1.000000e+000
    outer loop
      vertex  1.784609e-001 -1.780678e-001  1.171875e-001
      vertex  2.184478e-001 -1.659379e-001  1.171875e-001
      vertex  3.016180e-001 -1.659379e-001  1.171875e-001
    endloop
  endfacet
  facet normal  0.000000e+000  0.000000e+000 -1.000000e+000
    outer loop
      vertex  3.416049e-001 -1.780678e-001  1.171875e-001
      vertex  1.784609e-001 -1.780678e-001  1.171875e-001
      vertex  3.016180e-001 -1.659379e-001  1.171875e-001
    endloop
  endfacet
  facet normal  0.000000e+000  0.000000e+000 -1.000000e+000
    outer loop
      vertex  3.016180e-001 -5.840621e-001  1.171875e-001
      vertex  2.184478e-001 -5.840621e-001  1.171875e-001
      vertex  3.416049e-001 -5.719322e-001  1.171875e-001
    endloop
  endfacet
  facet normal  0.000000e+000  0.000000e+000 -1.000000e+000
    outer loop
      vertex  2.600329e-001 -5.881579e-001  1.171875e-001
      vertex  2.184478e-001 -5.840621e-001  1.171875e-001
      vertex  3.016180e-001 -5.840621e-001  1.171875e-001
    endloop
  endfacet
  facet normal  0.000000e+000  0.000000e+000 -1.000000e+000
    outer loop
      vertex  2.184478e-001 -5.840621e-001  1.171875e-001
      vertex  1.784609e-001 -5.719322e-001  1.171875e-001
      vertex  3.416049e-001 -5.719322e-001  1.171875e-001
    endloop
  endfacet
  facet normal  0.000000e+000  0.000000e+000 -9.999999e-001
    outer loop
      vertex  3.416049e-001 -5.719322e-001  1.171875e-001
      vertex  1.784609e-001 -5.719322e-001  1.171875e-001
      vertex  1.416087e-001 -5.522343e-001  1.171875e-001
    endloop
  endfacet
  facet normal  0.000000e+000  0.000000e+000 -1.000000e+000
    outer loop
      vertex  3.416049e-001 -5.719322e-001  1.171875e-001
      vertex  1.416087e-001 -5.522343e-001  1.171875e-001
      vertex  3.784571e-001 -5.522343e-001  1.171875e-001
    endloop
  endfacet
  facet normal  0.000000e+000  0.000000e+000 -1.000000e+000
    outer loop
      vertex  3.784571e-001 -5.522343e-001  1.171875e-001
      vertex  1.416087e-001 -5.522343e-001  1.171875e-001
      vertex  1.093075e-001 -5.257254e-001  1.171875e-001
    endloop
  endfacet
  facet normal  0.000000e+000  0.000000e+000 -1.000000e+000
    outer loop
      vertex  3.784571e-001 -5.522343e-001  1.171875e-001
      vertex  1.093075e-001 -5.257254e-001  1.171875e-001
      vertex  4.107583e-001 -5.257254e-001  1.171875e-001
    endloop
  endfacet
  facet normal  0.000000e+000  0.000000e+000 -1.000000e+000
    outer loop
      vertex  4.107583e-001 -5.257254e-001  1.171875e-001
      vertex  1.093075e-001 -5.257254e-001  1.171875e-001
      vertex  8.279859e-002 -4.934242e-001  1.171875e-001
    endloop
  endfacet
  facet normal  0.000000e+000  0.000000e+000 -1.000000e+000
    outer loop
      vertex  4.107583e-001 -5.257254e-001  1.171875e-001
      vertex  8.279859e-002 -4.934242e-001  1.171875e-001
      vertex  4.372672e-001 -4.934242e-001  1.171875e-001
    endloop
  endfacet
  facet normal  0.000000e+000  0.000000e+000 -1.000000e+000
    outer loop
      vertex  4.372672e-001 -4.934242e-001  1.171875e-001
      vertex  8.279859e-002 -4.934242e-001  1.171875e-001
      vertex  6.310068e-002 -4.565720e-001  1.171875e-001
    endloop
  endfacet
  facet normal  0.000000e+000  0.000000e+000 -1.000000e+000
    outer loop
      vertex  4.372672e-001 -4.934242e-001  1.171875e-001
      vertex  6.310068e-002 -4.565720e-001  1.171875e-001
      vertex  4.569651e-001 -4.565720e-001  1.171875e-001
    endloop
  endfacet
  facet normal  0.000000e+000  0.000000e+000 -1.000000e+000
    outer loop
      vertex  4.569651e-001 -4.565720e-001  1.171875e-001
      vertex  6.310068e-002 -4.565720e-001  1.171875e-001
      vertex  5.097077e-002 -4.165850e-001  1.171875e-001
    endloop
  endfacet
  facet normal  0.000000e+000  0.000000e+000 -1.000000e+000
    outer loop
      vertex  4.569651e-001 -4.565720e-001  1.171875e-001
      vertex  5.097077e-002 -4.165850e-001  1.171875e-001
      vertex  4.690950e-001 -4.165850e-001  1.171875e-001
    endloop
  endfacet
  facet normal  0.000000e+000  0.000000e+000 -1.000000e+000
    outer loop
      vertex  4.690950e-001 -4.165850e-001  1.171875e-001
      vertex  5.097077e-002 -4.165850e-001  1.171875e-001
      vertex  4.687500e-002 -3.750000e-001  1.171875e-001
    endloop
  endfacet
  facet normal  0.000000e+000  0.000000e+000 -1.000000e+000
    outer loop
      vertex  4.690950e-001 -4.165850e-001  1.171875e-001
      vertex  4.687500e-002 -3.750000e-001  1.171875e-001
      vertex  4.731908e-001 -3.750000e-001  1.171875e-001
    endloop
  endfacet
  facet normal  0.000000e+000  0.000000e+000 -1.000000e+000
    outer loop
      vertex  4.731908e-001 -3.750000e-001  1.171875e-001
      vertex  4.687500e-002 -3.750000e-001  1.171875e-001
      vertex  5.097077e-002 -3.334150e-001  1.171875e-001
    endloop
  endfacet
  facet normal  0.000000e+000  0.000000e+000 -1.000000e+000
    outer loop
      vertex  4.731908e-001 -3.750000e-001  1.171875e-001
      vertex  5.097077e-002 -3.334150e-001  1.171875e-001
      vertex  4.690950e-001 -3.334150e-001  1.171875e-001
    endloop
  endfacet
  facet normal  0.000000e+000  0.000000e+000 -1.000000e+000
    outer loop
      vertex  4.690950e-001 -3.334150e-001  1.171875e-001
      vertex  5.097077e-002 -3.334150e-001  1.171875e-001
      vertex  6.310068e-002 -2.934280e-001  1.171875e-001
    endloop
  endfacet
  facet normal  0.000000e+000  0.000000e+000 -1.000000e+000
    outer loop
      vertex  4.690950e-001 -3.334150e-001  1.171875e-001
      vertex  6.310068e-002 -2.934280e-001  1.171875e-001
      vertex  4.569651e-001 -2.934280e-001  1.171875e-001
    endloop
  endfacet
  facet normal  0.000000e+000  0.000000e+000 -1.000000e+000
    outer loop
      vertex  4.569651e-001 -2.934280e-001  1.171875e-001
      vertex  6.310068e-002 -2.934280e-001  1.171875e-001
      vertex  8.279859e-002 -2.565758e-001  1.171875e-001
    endloop
  endfacet
  facet normal  0.000000e+000  0.000000e+000 -1.000000e+000
    outer loop
      vertex  4.569651e-001 -2.934280e-001  1.171875e-001
      vertex  8.279859e-002 -2.565758e-001  1.171875e-001
      vertex  4.372672e-001 -2.565758e-001  1.171875e-001
    endloop
  endfacet
  facet normal  0.000000e+000  0.000000e+000 -1.000000e+000
    outer loop
      vertex  4.372672e-001 -2.565758e-001  1.171875e-001
      vertex  8.279859e-002 -2.565758e-001  1.171875e-001
      vertex  1.093075e-001 -2.242746e-001  1.171875e-001
    endloop
  endfacet
  facet normal  0.000000e+000  0.000000e+000 -1.000000e+000
    outer loop
      vertex  4.372672e-001 -2.565758e-001  1.171875e-001
      vertex  1.093075e-001 -2.242746e-001  1.171875e-001
      vertex  4.107583e-001 -2.242746e-001  1.171875e-001
    endloop
  endfacet
  facet normal  0.000000e+000  0.000000e+000 -1.000000e+000
    outer loop
      vertex  4.107583e-001 -2.242746e-001  1.171875e-001
      vertex  1.093075e-001 -2.242746e-001  1.171875e-001
      vertex  1.416087e-001 -1.977657e-001  1.171875e-001
    endloop
  endfacet
  facet normal  0.000000e+000  0.000000e+000 -1.000000e+000
    outer loop
      vertex  4.107583e-001 -2.242746e-001  1.171875e-001
      vertex  1.416087e-001 -1.977657e-001  1.171875e-001
      vertex  3.784571e-001 -1.977657e-001  1.171875e-001
    endloop
  endfacet
  facet normal  0.000000e+000  0.000000e+000 -1.000000e+000
    outer loop
      vertex  3.784571e-001 -1.977657e-001  1.171875e-001
      vertex  1.416087e-001 -1.977657e-001  1.171875e-001
      vertex  1.784609e-001 -1.780678e-001  1.171875e-001
    endloop
  endfacet
  facet normal  0.000000e+000  0.000000e+000 -9.999999e-001
    outer loop
      vertex  3.784571e-001 -1.977657e-001  1.171875e-001
      vertex  1.784609e-001 -1.780678e-001  1.171875e-001
      vertex  3.416049e-001 -1.780678e-001  1.171875e-001
    endloop
  endfacet
  facet normal -1.000000e+000  0.000000e+000  0.000000e+000
    outer loop
      vertex  1.439145e-002 -4.687500e-002  7.031250e-002
      vertex  1.439145e-002 -7.031250e-001  7.031250e-002
      vertex  1.439145e-002 -4.687500e-002  1.250000e-001
    endloop
  endfacet
  facet normal -1.000000e+000  -0.000000e+000  0.000000e+000
    outer loop
      vertex  1.439145e-002 -4.687500e-002  1.250000e-001
      vertex  1.439145e-002 -7.031250e-001  7.031250e-002
      vertex  1.439145e-002 -7.031250e-001  1.250000e-001
    endloop
  endfacet
  facet normal  1.000000e+000  0.000000e+000  0.000000e+000
    outer loop
      vertex  1.439145e-002 -7.578125e-001  1.250000e-001
      vertex  1.439145e-002 -7.031250e-001  1.250000e-001
      vertex  1.439145e-002 -7.578125e-001  4.934210e-001
    endloop
  endfacet
  facet normal  1.000000e+000  0.000000e+000  0.000000e+000
    outer loop
      vertex  1.439145e-002 -7.578125e-001  4.934210e-001
      vertex  1.439145e-002 -7.031250e-001  1.250000e-001
      vertex  1.439145e-002 -7.031250e-001  4.387335e-001
    endloop
  endfacet
  facet normal  1.000000e+000  0.000000e+000  -0.000000e+000
    outer loop
      vertex  1.439145e-002 -7.578125e-001  4.934210e-001
      vertex  1.439145e-002 -7.031250e-001  4.387335e-001
      vertex  1.439145e-002  7.812500e-003  4.934210e-001
    endloop
  endfacet
  facet normal  1.000000e+000  0.000000e+000  0.000000e+000
    outer loop
      vertex  1.439145e-002  7.812500e-003  4.934210e-001
      vertex  1.439145e-002 -7.031250e-001  4.387335e-001
      vertex  1.439145e-002 -4.687500e-002  4.387335e-001
    endloop
  endfacet
  facet normal  1.000000e+000  -0.000000e+000  0.000000e+000
    outer loop
      vertex  1.439145e-002  7.812500e-003  4.934210e-001
      vertex  1.439145e-002 -4.687500e-002  4.387335e-001
      vertex  1.439145e-002  7.812500e-003  1.250000e-001
    endloop
  endfacet
  facet normal  1.000000e+000  0.000000e+000  0.000000e+000
    outer loop
      vertex  1.439145e-002  7.812500e-003  1.250000e-001
      vertex  1.439145e-002 -4.687500e-002  4.387335e-001
      vertex  1.439145e-002 -4.687500e-002  1.250000e-001
    endloop
  endfacet
  facet normal  -0.000000e+000  0.000000e+000  1.000000e+000
    outer loop
      vertex  6.406250e-001  7.812500e-003  1.250000e-001
      vertex  1.439145e-002  7.812500e-003  1.250000e-001
      vertex  1.439145e-002 -4.687500e-002  1.250000e-001
    endloop
  endfacet
  facet normal  -0.000000e+000  0.000000e+000  9.999999e-001
    outer loop
      vertex  6.406250e-001  7.812500e-003  1.250000e-001
      vertex  1.439145e-002 -4.687500e-002  1.250000e-001
      vertex  1.439145e-002 -7.031250e-001  1.250000e-001
    endloop
  endfacet
  facet normal  -0.000000e+000  0.000000e+000  1.000000e+000
    outer loop
      vertex  6.406250e-001  7.812500e-003  1.250000e-001
      vertex  1.439145e-002 -7.031250e-001  1.250000e-001
      vertex  1.439145e-002 -7.578125e-001  1.250000e-001
    endloop
  endfacet
  facet normal  0.000000e+000  0.000000e+000  1.000000e+000
    outer loop
      vertex  6.406250e-001  7.812500e-003  1.250000e-001
      vertex  1.439145e-002 -7.578125e-001  1.250000e-001
      vertex  6.406250e-001 -7.578125e-001  1.250000e-001
    endloop
  endfacet
  facet normal  0.000000e+000  0.000000e+000 -1.000000e+000
    outer loop
      vertex  1.439145e-002 -4.687500e-002  4.387335e-001
      vertex  1.439145e-002 -7.031250e-001  4.387335e-001
      vertex -5.703125e-001 -4.687500e-002  4.387335e-001
    endloop
  endfacet
  facet normal  0.000000e+000  0.000000e+000 -1.000000e+000
    outer loop
      vertex -5.703125e-001 -4.687500e-002  4.387335e-001
      vertex  1.439145e-002 -7.031250e-001  4.387335e-001
      vertex -5.703125e-001 -7.031250e-001  4.387335e-001
    endloop
  endfacet
  facet normal  0.000000e+000 -1.000000e+000  0.000000e+000
    outer loop
      vertex -5.703125e-001 -4.687500e-002 -3.359375e-001
      vertex  5.859375e-001 -4.687500e-002 -3.359375e-001
      vertex  5.859375e-001 -4.687500e-002  7.031250e-002
    endloop
  endfacet
  facet normal  -0.000000e+000 -1.000000e+000  0.000000e+000
    outer loop
      vertex -5.703125e-001 -4.687500e-002 -3.359375e-001
      vertex  5.859375e-001 -4.687500e-002  7.031250e-002
      vertex  1.439145e-002 -4.687500e-002  7.031250e-002
    endloop
  endfacet
  facet normal  -0.000000e+000 -1.000000e+000  0.000000e+000
    outer loop
      vertex -5.703125e-001 -4.687500e-002 -3.359375e-001
      vertex  1.439145e-002 -4.687500e-002  7.031250e-002
      vertex  1.439145e-002 -4.687500e-002  1.250000e-001
    endloop
  endfacet
  facet normal  -0.000000e+000 -1.000000e+000  0.000000e+000
    outer loop
      vertex -5.703125e-001 -4.687500e-002 -3.359375e-001
      vertex  1.439145e-002 -4.687500e-002  1.250000e-001
      vertex  1.439145e-002 -4.687500e-002  4.387335e-001
    endloop
  endfacet
  facet normal  -0.000000e+000 -9.999999e-001  0.000000e+000
    outer loop
      vertex -5.703125e-001 -4.687500e-002 -3.359375e-001
      vertex  1.439145e-002 -4.687500e-002  4.387335e-001
      vertex -5.703125e-001 -4.687500e-002  4.387335e-001
    endloop
  endfacet
  facet normal  -0.000000e+000  9.999999e-001  0.000000e+000
    outer loop
      vertex -5.703125e-001 -7.031250e-001 -3.359375e-001
      vertex -5.703125e-001 -7.031250e-001  4.387335e-001
      vertex  1.439145e-002 -7.031250e-001  4.387335e-001
    endloop
  endfacet
  facet normal  0.000000e+000  1.000000e+000  0.000000e+000
    outer loop
      vertex -5.703125e-001 -7.031250e-001 -3.359375e-001
      vertex  1.439145e-002 -7.031250e-001  4.387335e-001
      vertex  1.439145e-002 -7.031250e-001  1.250000e-001
    endloop
  endfacet
  facet normal  0.000000e+000  1.000000e+000  0.000000e+000
    outer loop
      vertex -5.703125e-001 -7.031250e-001 -3.359375e-001
      vertex  1.439145e-002 -7.031250e-001  1.250000e-001
      vertex  1.439145e-002 -7.031250e-001  7.031250e-002
    endloop
  endfacet
  facet normal  -0.000000e+000  1.000000e+000  0.000000e+000
    outer loop
      vertex -5.703125e-001 -7.031250e-001 -3.359375e-001
      vertex  1.439145e-002 -7.031250e-001  7.031250e-002
      vertex  5.859375e-001 -7.031250e-001  7.031250e-002
    endloop
  endfacet
  facet normal  0.000000e+000  1.000000e+000  0.000000e+000
    outer loop
      vertex -5.703125e-001 -7.031250e-001 -3.359375e-001
      vertex  5.859375e-001 -7.031250e-001  7.031250e-002
      vertex  5.859375e-001 -7.031250e-001 -3.359375e-001
    endloop
  endfacet
  facet normal  0.000000e+000  0.000000e+000 -1.000000e+000
    outer loop
      vertex -6.250000e-001 -7.578125e-001 -3.906250e-001
      vertex -6.250000e-001  7.812500e-003 -3.906250e-001
      vertex  6.406250e-001 -7.578125e-001 -3.906250e-001
    endloop
  endfacet
  facet normal  0.000000e+000  0.000000e+000 -1.000000e+000
    outer loop
      vertex  6.406250e-001 -7.578125e-001 -3.906250e-001
      vertex -6.250000e-001  7.812500e-003 -3.906250e-001
      vertex  6.406250e-001  7.812500e-003 -3.906250e-001
    endloop
  endfacet
  facet normal  1.000000e+000  0.000000e+000  0.000000e+000
    outer loop
      vertex  6.406250e-001  7.812500e-003 -3.906250e-001
      vertex  6.406250e-001  7.812500e-003  1.250000e-001
      vertex  6.406250e-001 -7.578125e-001 -3.906250e-001
    endloop
  endfacet
  facet normal  1.000000e+000  0.000000e+000  0.000000e+000
    outer loop
      vertex  6.406250e-001 -7.578125e-001 -3.906250e-001
      vertex  6.406250e-001  7.812500e-003  1.250000e-001
      vertex  6.406250e-001 -7.578125e-001  1.250000e-001
    endloop
  endfacet
  facet normal  -0.000000e+000  0.000000e+000  1.000000e+000
    outer loop
      vertex  1.439145e-002  7.812500e-003  4.934210e-001
      vertex -6.250000e-001  7.812500e-003  4.934210e-001
      vertex  1.439145e-002 -7.578125e-001  4.934210e-001
    endloop
  endfacet
  facet normal  0.000000e+000  0.000000e+000  1.000000e+000
    outer loop
      vertex  1.439145e-002 -7.578125e-001  4.934210e-001
      vertex -6.250000e-001  7.812500e-003  4.934210e-001
      vertex -6.250000e-001 -7.578125e-001  4.934210e-001
    endloop
  endfacet
  facet normal -1.000000e+000  -0.000000e+000  0.000000e+000
    outer loop
      vertex -6.250000e-001 -7.578125e-001  4.934210e-001
      vertex -6.250000e-001  7.812500e-003  4.934210e-001
      vertex -6.250000e-001 -7.578125e-001 -3.906250e-001
    endloop
  endfacet
  facet normal -1.000000e+000  0.000000e+000  0.000000e+000
    outer loop
      vertex -6.250000e-001 -7.578125e-001 -3.906250e-001
      vertex -6.250000e-001  7.812500e-003  4.934210e-001
      vertex -6.250000e-001  7.812500e-003 -3.906250e-001
    endloop
  endfacet
  facet normal  0.000000e+000  1.000000e+000  0.000000e+000
    outer loop
      vertex  6.406250e-001  7.812500e-003 -3.906250e-001
      vertex -6.250000e-001  7.812500e-003 -3.906250e-001
      vertex  6.406250e-001  7.812500e-003  1.250000e-001
    endloop
  endfacet
  facet normal  0.000000e+000  1.000000e+000  0.000000e+000
    outer loop
      vertex  6.406250e-001  7.812500e-003  1.250000e-001
      vertex -6.250000e-001  7.812500e-003 -3.906250e-001
      vertex  1.439145e-002  7.812500e-003  1.250000e-001
    endloop
  endfacet
  facet normal  0.000000e+000  1.000000e+000  0.000000e+000
    outer loop
      vertex -6.250000e-001  7.812500e-003 -3.906250e-001
      vertex -6.250000e-001  7.812500e-003  4.934210e-001
      vertex  1.439145e-002  7.812500e-003  1.250000e-001
    endloop
  endfacet
  facet normal  0.000000e+000  1.000000e+000  -0.000000e+000
    outer loop
      vertex  1.439145e-002  7.812500e-003  1.250000e-001
      vertex -6.250000e-001  7.812500e-003  4.934210e-001
      vertex  1.439145e-002  7.812500e-003  4.934210e-001
    endloop
  endfacet
  facet normal  0.000000e+000 -1.000000e+000  -0.000000e+000
    outer loop
      vertex  6.406250e-001 -7.578125e-001 -3.906250e-001
      vertex  6.406250e-001 -7.578125e-001  1.250000e-001
      vertex -6.250000e-001 -7.578125e-001 -3.906250e-001
    endloop
  endfacet
  facet normal  0.000000e+000 -1.000000e+000  0.000000e+000
    outer loop
      vertex -6.250000e-001 -7.578125e-001 -3.906250e-001
      vertex  6.406250e-001 -7.578125e-001  1.250000e-001
      vertex  1.439145e-002 -7.578125e-001  1.250000e-001
    endloop
  endfacet
  facet normal  -0.000000e+000 -1.000000e+000  0.000000e+000
    outer loop
      vertex -6.250000e-001 -7.578125e-001 -3.906250e-001
      vertex  1.439145e-002 -7.578125e-001  1.250000e-001
      vertex -6.250000e-001 -7.578125e-001  4.934210e-001
    endloop
  endfacet
  facet normal  0.000000e+000 -1.000000e+000  0.000000e+000
    outer loop
      vertex -6.250000e-001 -7.578125e-001  4.934210e-001
      vertex  1.439145e-002 -7.578125e-001  1.250000e-001
      vertex  1.439145e-002 -7.578125e-001  4.934210e-001
    endloop
  endfacet
  facet normal -1.000000e+000  0.000000e+000  0.000000e+000
    outer loop
      vertex  5.859375e-001 -4.687500e-002 -3.359375e-001
      vertex  5.859375e-001 -7.031250e-001 -3.359375e-001
      vertex  5.859375e-001 -4.687500e-002  7.031250e-002
    endloop
  endfacet
  facet normal -1.000000e+000  -0.000000e+000  0.000000e+000
    outer loop
      vertex  5.859375e-001 -4.687500e-002  7.031250e-002
      vertex  5.859375e-001 -7.031250e-001 -3.359375e-001
      vertex  5.859375e-001 -7.031250e-001  7.031250e-002
    endloop
  endfacet
  facet normal  1.000000e+000  0.000000e+000  0.000000e+000
    outer loop
      vertex -5.703125e-001 -7.031250e-001  4.387335e-001
      vertex -5.703125e-001 -7.031250e-001 -3.359375e-001
      vertex -5.703125e-001 -4.687500e-002  4.387335e-001
    endloop
  endfacet
  facet normal  1.000000e+000  0.000000e+000  0.000000e+000
    outer loop
      vertex -5.703125e-001 -4.687500e-002  4.387335e-001
      vertex -5.703125e-001 -7.031250e-001 -3.359375e-001
      vertex -5.703125e-001 -4.687500e-002 -3.359375e-001
    endloop
  endfacet
endsolid CATIA STL
