solid CATIA STL
  facet normal  0.000000e+000  0.000000e+000  9.999999e-001
    outer loop
      vertex  5.234375e-001  1.406250e-001  9.375000e-002
      vertex  5.358174e-001  1.418443e-001  9.375000e-002
      vertex  5.235576e-001  1.418443e-001  9.375000e-002
    endloop
  endfacet
  facet normal  0.000000e+000  -0.000000e+000  1.000000e+000
    outer loop
      vertex  5.235576e-001  1.394057e-001  9.375000e-002
      vertex  5.239133e-001  1.382332e-001  9.375000e-002
      vertex  5.358174e-001  1.394057e-001  9.375000e-002
    endloop
  endfacet
  facet normal  0.000000e+000  0.000000e+000  1.000000e+000
    outer loop
      vertex  5.358174e-001  1.394057e-001  9.375000e-002
      vertex  5.239133e-001  1.382332e-001  9.375000e-002
      vertex  5.354617e-001  1.382332e-001  9.375000e-002
    endloop
  endfacet
  facet normal  0.000000e+000  -0.000000e+000  1.000000e+000
    outer loop
      vertex  5.239133e-001  1.382332e-001  9.375000e-002
      vertex  5.244908e-001  1.371527e-001  9.375000e-002
      vertex  5.354617e-001  1.382332e-001  9.375000e-002
    endloop
  endfacet
  facet normal  -0.000000e+000  0.000000e+000  1.000000e+000
    outer loop
      vertex  5.354617e-001  1.382332e-001  9.375000e-002
      vertex  5.244908e-001  1.371527e-001  9.375000e-002
      vertex  5.252681e-001  1.362056e-001  9.375000e-002
    endloop
  endfacet
  facet normal  0.000000e+000  0.000000e+000  1.000000e+000
    outer loop
      vertex  5.354617e-001  1.382332e-001  9.375000e-002
      vertex  5.252681e-001  1.362056e-001  9.375000e-002
      vertex  5.348842e-001  1.371527e-001  9.375000e-002
    endloop
  endfacet
  facet normal  -0.000000e+000  0.000000e+000  1.000000e+000
    outer loop
      vertex  5.348842e-001  1.371527e-001  9.375000e-002
      vertex  5.252681e-001  1.362056e-001  9.375000e-002
      vertex  5.262152e-001  1.354283e-001  9.375000e-002
    endloop
  endfacet
  facet normal  -0.000000e+000  0.000000e+000  1.000000e+000
    outer loop
      vertex  5.348842e-001  1.371527e-001  9.375000e-002
      vertex  5.262152e-001  1.354283e-001  9.375000e-002
      vertex  5.272957e-001  1.348508e-001  9.375000e-002
    endloop
  endfacet
  facet normal  0.000000e+000  -0.000000e+000  9.999999e-001
    outer loop
      vertex  5.272957e-001  1.348508e-001  9.375000e-002
      vertex  5.284682e-001  1.344951e-001  9.375000e-002
      vertex  5.348842e-001  1.371527e-001  9.375000e-002
    endloop
  endfacet
  facet normal  0.000000e+000  -0.000000e+000  1.000000e+000
    outer loop
      vertex  5.309068e-001  1.344951e-001  9.375000e-002
      vertex  5.320793e-001  1.348508e-001  9.375000e-002
      vertex  5.331598e-001  1.354283e-001  9.375000e-002
    endloop
  endfacet
  facet normal  0.000000e+000  0.000000e+000  1.000000e+000
    outer loop
      vertex  5.359375e-001  1.406250e-001  9.375000e-002
      vertex  5.358174e-001  1.418443e-001  9.375000e-002
      vertex  5.234375e-001  1.406250e-001  9.375000e-002
    endloop
  endfacet
  facet normal  -0.000000e+000  0.000000e+000  1.000000e+000
    outer loop
      vertex  5.359375e-001  1.406250e-001  9.375000e-002
      vertex  5.234375e-001  1.406250e-001  9.375000e-002
      vertex  5.235576e-001  1.394057e-001  9.375000e-002
    endloop
  endfacet
  facet normal  0.000000e+000  0.000000e+000  9.999999e-001
    outer loop
      vertex  5.359375e-001  1.406250e-001  9.375000e-002
      vertex  5.235576e-001  1.394057e-001  9.375000e-002
      vertex  5.358174e-001  1.394057e-001  9.375000e-002
    endloop
  endfacet
  facet normal  0.000000e+000  0.000000e+000  1.000000e+000
    outer loop
      vertex  5.341069e-001  1.362056e-001  9.375000e-002
      vertex  5.348842e-001  1.371527e-001  9.375000e-002
      vertex  5.284682e-001  1.344951e-001  9.375000e-002
    endloop
  endfacet
  facet normal  -0.000000e+000  0.000000e+000  9.999999e-001
    outer loop
      vertex  5.341069e-001  1.362056e-001  9.375000e-002
      vertex  5.284682e-001  1.344951e-001  9.375000e-002
      vertex  5.296875e-001  1.343750e-001  9.375000e-002
    endloop
  endfacet
  facet normal  0.000000e+000  0.000000e+000  1.000000e+000
    outer loop
      vertex  5.341069e-001  1.362056e-001  9.375000e-002
      vertex  5.296875e-001  1.343750e-001  9.375000e-002
      vertex  5.309068e-001  1.344951e-001  9.375000e-002
    endloop
  endfacet
  facet normal  0.000000e+000  0.000000e+000  1.000000e+000
    outer loop
      vertex  5.341069e-001  1.362056e-001  9.375000e-002
      vertex  5.309068e-001  1.344951e-001  9.375000e-002
      vertex  5.331598e-001  1.354283e-001  9.375000e-002
    endloop
  endfacet
  facet normal  0.000000e+000  0.000000e+000  9.999999e-001
    outer loop
      vertex  5.354617e-001  1.430168e-001  9.375000e-002
      vertex  5.348842e-001  1.440973e-001  9.375000e-002
      vertex  5.272957e-001  1.463992e-001  9.375000e-002
    endloop
  endfacet
  facet normal  0.000000e+000  0.000000e+000  1.000000e+000
    outer loop
      vertex  5.354617e-001  1.430168e-001  9.375000e-002
      vertex  5.272957e-001  1.463992e-001  9.375000e-002
      vertex  5.262152e-001  1.458217e-001  9.375000e-002
    endloop
  endfacet
  facet normal  0.000000e+000  0.000000e+000  1.000000e+000
    outer loop
      vertex  5.354617e-001  1.430168e-001  9.375000e-002
      vertex  5.262152e-001  1.458217e-001  9.375000e-002
      vertex  5.252681e-001  1.450444e-001  9.375000e-002
    endloop
  endfacet
  facet normal  0.000000e+000  0.000000e+000  1.000000e+000
    outer loop
      vertex  5.354617e-001  1.430168e-001  9.375000e-002
      vertex  5.252681e-001  1.450444e-001  9.375000e-002
      vertex  5.244908e-001  1.440973e-001  9.375000e-002
    endloop
  endfacet
  facet normal  0.000000e+000  0.000000e+000  1.000000e+000
    outer loop
      vertex  5.354617e-001  1.430168e-001  9.375000e-002
      vertex  5.244908e-001  1.440973e-001  9.375000e-002
      vertex  5.239133e-001  1.430168e-001  9.375000e-002
    endloop
  endfacet
  facet normal  -0.000000e+000  0.000000e+000  1.000000e+000
    outer loop
      vertex  5.354617e-001  1.430168e-001  9.375000e-002
      vertex  5.239133e-001  1.430168e-001  9.375000e-002
      vertex  5.235576e-001  1.418443e-001  9.375000e-002
    endloop
  endfacet
  facet normal  0.000000e+000  0.000000e+000  1.000000e+000
    outer loop
      vertex  5.354617e-001  1.430168e-001  9.375000e-002
      vertex  5.235576e-001  1.418443e-001  9.375000e-002
      vertex  5.358174e-001  1.418443e-001  9.375000e-002
    endloop
  endfacet
  facet normal  0.000000e+000  0.000000e+000  1.000000e+000
    outer loop
      vertex  5.348842e-001  1.440973e-001  9.375000e-002
      vertex  5.341069e-001  1.450444e-001  9.375000e-002
      vertex  5.331598e-001  1.458217e-001  9.375000e-002
    endloop
  endfacet
  facet normal  0.000000e+000  0.000000e+000  9.999999e-001
    outer loop
      vertex  5.348842e-001  1.440973e-001  9.375000e-002
      vertex  5.331598e-001  1.458217e-001  9.375000e-002
      vertex  5.320793e-001  1.463992e-001  9.375000e-002
    endloop
  endfacet
  facet normal  0.000000e+000  0.000000e+000  9.999999e-001
    outer loop
      vertex  5.348842e-001  1.440973e-001  9.375000e-002
      vertex  5.320793e-001  1.463992e-001  9.375000e-002
      vertex  5.309068e-001  1.467549e-001  9.375000e-002
    endloop
  endfacet
  facet normal  0.000000e+000  0.000000e+000  9.999999e-001
    outer loop
      vertex  5.348842e-001  1.440973e-001  9.375000e-002
      vertex  5.309068e-001  1.467549e-001  9.375000e-002
      vertex  5.296875e-001  1.468750e-001  9.375000e-002
    endloop
  endfacet
  facet normal  0.000000e+000  0.000000e+000  1.000000e+000
    outer loop
      vertex  5.348842e-001  1.440973e-001  9.375000e-002
      vertex  5.296875e-001  1.468750e-001  9.375000e-002
      vertex  5.284682e-001  1.467549e-001  9.375000e-002
    endloop
  endfacet
  facet normal  0.000000e+000  0.000000e+000  9.999999e-001
    outer loop
      vertex  5.348842e-001  1.440973e-001  9.375000e-002
      vertex  5.284682e-001  1.467549e-001  9.375000e-002
      vertex  5.272957e-001  1.463992e-001  9.375000e-002
    endloop
  endfacet
  facet normal  9.951854e-001 -9.801044e-002  0.000000e+000
    outer loop
      vertex  5.437500e-001  1.406250e-001  0.000000e+000
      vertex  5.437500e-001  1.406250e-001  8.593750e-002
      vertex  5.434798e-001  1.378815e-001  0.000000e+000
    endloop
  endfacet
  facet normal  9.951854e-001 -9.801044e-002  0.000000e+000
    outer loop
      vertex  5.434798e-001  1.378815e-001  0.000000e+000
      vertex  5.437500e-001  1.406250e-001  8.593750e-002
      vertex  5.434798e-001  1.378815e-001  8.593750e-002
    endloop
  endfacet
  facet normal  9.569389e-001 -2.902898e-001  0.000000e+000
    outer loop
      vertex  5.434798e-001  1.378815e-001  0.000000e+000
      vertex  5.434798e-001  1.378815e-001  8.593750e-002
      vertex  5.426795e-001  1.352435e-001  0.000000e+000
    endloop
  endfacet
  facet normal  9.569389e-001 -2.902898e-001  0.000000e+000
    outer loop
      vertex  5.426795e-001  1.352435e-001  0.000000e+000
      vertex  5.434798e-001  1.378815e-001  8.593750e-002
      vertex  5.426795e-001  1.352435e-001  8.593750e-002
    endloop
  endfacet
  facet normal  8.819240e-001 -4.713916e-001  0.000000e+000
    outer loop
      vertex  5.426795e-001  1.352435e-001  0.000000e+000
      vertex  5.426795e-001  1.352435e-001  8.593750e-002
      vertex  5.413800e-001  1.328123e-001  0.000000e+000
    endloop
  endfacet
  facet normal  8.819240e-001 -4.713916e-001  0.000000e+000
    outer loop
      vertex  5.413800e-001  1.328123e-001  0.000000e+000
      vertex  5.426795e-001  1.352435e-001  8.593750e-002
      vertex  5.413800e-001  1.328123e-001  8.593750e-002
    endloop
  endfacet
  facet normal  7.730094e-001 -6.343944e-001  0.000000e+000
    outer loop
      vertex  5.413800e-001  1.328123e-001  0.000000e+000
      vertex  5.413800e-001  1.328123e-001  8.593750e-002
      vertex  5.396312e-001  1.306813e-001  0.000000e+000
    endloop
  endfacet
  facet normal  7.730094e-001 -6.343944e-001  0.000000e+000
    outer loop
      vertex  5.396312e-001  1.306813e-001  0.000000e+000
      vertex  5.413800e-001  1.328123e-001  8.593750e-002
      vertex  5.396312e-001  1.306813e-001  8.593750e-002
    endloop
  endfacet
  facet normal  6.343912e-001 -7.730121e-001  0.000000e+000
    outer loop
      vertex  5.396312e-001  1.306813e-001  0.000000e+000
      vertex  5.396312e-001  1.306813e-001  8.593750e-002
      vertex  5.375002e-001  1.289325e-001  0.000000e+000
    endloop
  endfacet
  facet normal  6.343912e-001 -7.730121e-001  0.000000e+000
    outer loop
      vertex  5.375002e-001  1.289325e-001  0.000000e+000
      vertex  5.396312e-001  1.306813e-001  8.593750e-002
      vertex  5.375002e-001  1.289325e-001  8.593750e-002
    endloop
  endfacet
  facet normal  4.713980e-001 -8.819206e-001  0.000000e+000
    outer loop
      vertex  5.375002e-001  1.289325e-001  0.000000e+000
      vertex  5.375002e-001  1.289325e-001  8.593750e-002
      vertex  5.350690e-001  1.276329e-001  0.000000e+000
    endloop
  endfacet
  facet normal  4.713980e-001 -8.819206e-001  0.000000e+000
    outer loop
      vertex  5.350690e-001  1.276329e-001  0.000000e+000
      vertex  5.375002e-001  1.289325e-001  8.593750e-002
      vertex  5.350690e-001  1.276329e-001  8.593750e-002
    endloop
  endfacet
  facet normal  2.902833e-001 -9.569407e-001  0.000000e+000
    outer loop
      vertex  5.350690e-001  1.276329e-001  0.000000e+000
      vertex  5.350690e-001  1.276329e-001  8.593750e-002
      vertex  5.324309e-001  1.268327e-001  0.000000e+000
    endloop
  endfacet
  facet normal  2.902833e-001 -9.569407e-001  0.000000e+000
    outer loop
      vertex  5.324309e-001  1.268327e-001  0.000000e+000
      vertex  5.350690e-001  1.276329e-001  8.593750e-002
      vertex  5.324309e-001  1.268327e-001  8.593750e-002
    endloop
  endfacet
  facet normal  9.801684e-002 -9.951847e-001  0.000000e+000
    outer loop
      vertex  5.324309e-001  1.268327e-001  0.000000e+000
      vertex  5.324309e-001  1.268327e-001  8.593750e-002
      vertex  5.296875e-001  1.265625e-001  0.000000e+000
    endloop
  endfacet
  facet normal  9.801684e-002 -9.951847e-001  0.000000e+000
    outer loop
      vertex  5.296875e-001  1.265625e-001  0.000000e+000
      vertex  5.324309e-001  1.268327e-001  8.593750e-002
      vertex  5.296875e-001  1.265625e-001  8.593750e-002
    endloop
  endfacet
  facet normal -9.801473e-002 -9.951850e-001  -0.000000e+000
    outer loop
      vertex  5.296875e-001  1.265625e-001  0.000000e+000
      vertex  5.296875e-001  1.265625e-001  8.593750e-002
      vertex  5.269440e-001  1.268327e-001  0.000000e+000
    endloop
  endfacet
  facet normal -9.801473e-002 -9.951850e-001  0.000000e+000
    outer loop
      vertex  5.269440e-001  1.268327e-001  0.000000e+000
      vertex  5.296875e-001  1.265625e-001  8.593750e-002
      vertex  5.269440e-001  1.268327e-001  8.593750e-002
    endloop
  endfacet
  facet normal -2.902833e-001 -9.569407e-001  -0.000000e+000
    outer loop
      vertex  5.269440e-001  1.268327e-001  0.000000e+000
      vertex  5.269440e-001  1.268327e-001  8.593750e-002
      vertex  5.243060e-001  1.276329e-001  0.000000e+000
    endloop
  endfacet
  facet normal -2.902833e-001 -9.569407e-001  0.000000e+000
    outer loop
      vertex  5.243060e-001  1.276329e-001  0.000000e+000
      vertex  5.269440e-001  1.268327e-001  8.593750e-002
      vertex  5.243060e-001  1.276329e-001  8.593750e-002
    endloop
  endfacet
  facet normal -4.713980e-001 -8.819206e-001  -0.000000e+000
    outer loop
      vertex  5.243060e-001  1.276329e-001  0.000000e+000
      vertex  5.243060e-001  1.276329e-001  8.593750e-002
      vertex  5.218748e-001  1.289325e-001  0.000000e+000
    endloop
  endfacet
  facet normal -4.713980e-001 -8.819206e-001  0.000000e+000
    outer loop
      vertex  5.218748e-001  1.289325e-001  0.000000e+000
      vertex  5.243060e-001  1.276329e-001  8.593750e-002
      vertex  5.218748e-001  1.289325e-001  8.593750e-002
    endloop
  endfacet
  facet normal -6.343912e-001 -7.730121e-001  -0.000000e+000
    outer loop
      vertex  5.218748e-001  1.289325e-001  0.000000e+000
      vertex  5.218748e-001  1.289325e-001  8.593750e-002
      vertex  5.197438e-001  1.306813e-001  0.000000e+000
    endloop
  endfacet
  facet normal -6.343912e-001 -7.730121e-001  0.000000e+000
    outer loop
      vertex  5.197438e-001  1.306813e-001  0.000000e+000
      vertex  5.218748e-001  1.289325e-001  8.593750e-002
      vertex  5.197438e-001  1.306813e-001  8.593750e-002
    endloop
  endfacet
  facet normal -7.730094e-001 -6.343944e-001  -0.000000e+000
    outer loop
      vertex  5.197438e-001  1.306813e-001  0.000000e+000
      vertex  5.197438e-001  1.306813e-001  8.593750e-002
      vertex  5.179949e-001  1.328123e-001  0.000000e+000
    endloop
  endfacet
  facet normal -7.730094e-001 -6.343944e-001  0.000000e+000
    outer loop
      vertex  5.179949e-001  1.328123e-001  0.000000e+000
      vertex  5.197438e-001  1.306813e-001  8.593750e-002
      vertex  5.179949e-001  1.328123e-001  8.593750e-002
    endloop
  endfacet
  facet normal -8.819240e-001 -4.713916e-001  -0.000000e+000
    outer loop
      vertex  5.179949e-001  1.328123e-001  0.000000e+000
      vertex  5.179949e-001  1.328123e-001  8.593750e-002
      vertex  5.166954e-001  1.352435e-001  0.000000e+000
    endloop
  endfacet
  facet normal -8.819240e-001 -4.713916e-001  0.000000e+000
    outer loop
      vertex  5.166954e-001  1.352435e-001  0.000000e+000
      vertex  5.179949e-001  1.328123e-001  8.593750e-002
      vertex  5.166954e-001  1.352435e-001  8.593750e-002
    endloop
  endfacet
  facet normal -9.569389e-001 -2.902898e-001  -0.000000e+000
    outer loop
      vertex  5.166954e-001  1.352435e-001  0.000000e+000
      vertex  5.166954e-001  1.352435e-001  8.593750e-002
      vertex  5.158952e-001  1.378815e-001  0.000000e+000
    endloop
  endfacet
  facet normal -9.569389e-001 -2.902898e-001  0.000000e+000
    outer loop
      vertex  5.158952e-001  1.378815e-001  0.000000e+000
      vertex  5.166954e-001  1.352435e-001  8.593750e-002
      vertex  5.158952e-001  1.378815e-001  8.593750e-002
    endloop
  endfacet
  facet normal -9.951854e-001 -9.801044e-002  -0.000000e+000
    outer loop
      vertex  5.158952e-001  1.378815e-001  0.000000e+000
      vertex  5.158952e-001  1.378815e-001  8.593750e-002
      vertex  5.156250e-001  1.406250e-001  0.000000e+000
    endloop
  endfacet
  facet normal -9.951854e-001 -9.801044e-002  0.000000e+000
    outer loop
      vertex  5.156250e-001  1.406250e-001  0.000000e+000
      vertex  5.158952e-001  1.378815e-001  8.593750e-002
      vertex  5.156250e-001  1.406250e-001  8.593750e-002
    endloop
  endfacet
  facet normal -9.951854e-001  9.801044e-002  0.000000e+000
    outer loop
      vertex  5.156250e-001  1.406250e-001  0.000000e+000
      vertex  5.156250e-001  1.406250e-001  8.593750e-002
      vertex  5.158952e-001  1.433685e-001  0.000000e+000
    endloop
  endfacet
  facet normal -9.951854e-001  9.801044e-002  0.000000e+000
    outer loop
      vertex  5.158952e-001  1.433685e-001  0.000000e+000
      vertex  5.156250e-001  1.406250e-001  8.593750e-002
      vertex  5.158952e-001  1.433685e-001  8.593750e-002
    endloop
  endfacet
  facet normal -9.569389e-001  2.902898e-001  0.000000e+000
    outer loop
      vertex  5.158952e-001  1.433685e-001  0.000000e+000
      vertex  5.158952e-001  1.433685e-001  8.593750e-002
      vertex  5.166954e-001  1.460065e-001  0.000000e+000
    endloop
  endfacet
  facet normal -9.569389e-001  2.902898e-001  0.000000e+000
    outer loop
      vertex  5.166954e-001  1.460065e-001  0.000000e+000
      vertex  5.158952e-001  1.433685e-001  8.593750e-002
      vertex  5.166954e-001  1.460065e-001  8.593750e-002
    endloop
  endfacet
  facet normal -8.819240e-001  4.713916e-001  0.000000e+000
    outer loop
      vertex  5.166954e-001  1.460065e-001  0.000000e+000
      vertex  5.166954e-001  1.460065e-001  8.593750e-002
      vertex  5.179949e-001  1.484377e-001  0.000000e+000
    endloop
  endfacet
  facet normal -8.819240e-001  4.713916e-001  0.000000e+000
    outer loop
      vertex  5.179949e-001  1.484377e-001  0.000000e+000
      vertex  5.166954e-001  1.460065e-001  8.593750e-002
      vertex  5.179949e-001  1.484377e-001  8.593750e-002
    endloop
  endfacet
  facet normal -7.730094e-001  6.343944e-001  0.000000e+000
    outer loop
      vertex  5.179949e-001  1.484377e-001  0.000000e+000
      vertex  5.179949e-001  1.484377e-001  8.593750e-002
      vertex  5.197438e-001  1.505687e-001  0.000000e+000
    endloop
  endfacet
  facet normal -7.730094e-001  6.343944e-001  0.000000e+000
    outer loop
      vertex  5.197438e-001  1.505687e-001  0.000000e+000
      vertex  5.179949e-001  1.484377e-001  8.593750e-002
      vertex  5.197438e-001  1.505687e-001  8.593750e-002
    endloop
  endfacet
  facet normal -6.343912e-001  7.730121e-001  0.000000e+000
    outer loop
      vertex  5.197438e-001  1.505687e-001  0.000000e+000
      vertex  5.197438e-001  1.505687e-001  8.593750e-002
      vertex  5.218748e-001  1.523175e-001  0.000000e+000
    endloop
  endfacet
  facet normal -6.343912e-001  7.730121e-001  0.000000e+000
    outer loop
      vertex  5.218748e-001  1.523175e-001  0.000000e+000
      vertex  5.197438e-001  1.505687e-001  8.593750e-002
      vertex  5.218748e-001  1.523175e-001  8.593750e-002
    endloop
  endfacet
  facet normal -4.713980e-001  8.819206e-001  0.000000e+000
    outer loop
      vertex  5.218748e-001  1.523175e-001  0.000000e+000
      vertex  5.218748e-001  1.523175e-001  8.593750e-002
      vertex  5.243060e-001  1.536171e-001  0.000000e+000
    endloop
  endfacet
  facet normal -4.713980e-001  8.819206e-001  0.000000e+000
    outer loop
      vertex  5.243060e-001  1.536171e-001  0.000000e+000
      vertex  5.218748e-001  1.523175e-001  8.593750e-002
      vertex  5.243060e-001  1.536171e-001  8.593750e-002
    endloop
  endfacet
  facet normal -2.902833e-001  9.569407e-001  0.000000e+000
    outer loop
      vertex  5.243060e-001  1.536171e-001  0.000000e+000
      vertex  5.243060e-001  1.536171e-001  8.593750e-002
      vertex  5.269440e-001  1.544173e-001  0.000000e+000
    endloop
  endfacet
  facet normal -2.902833e-001  9.569407e-001  0.000000e+000
    outer loop
      vertex  5.269440e-001  1.544173e-001  0.000000e+000
      vertex  5.243060e-001  1.536171e-001  8.593750e-002
      vertex  5.269440e-001  1.544173e-001  8.593750e-002
    endloop
  endfacet
  facet normal -9.801473e-002  9.951850e-001  0.000000e+000
    outer loop
      vertex  5.269440e-001  1.544173e-001  0.000000e+000
      vertex  5.269440e-001  1.544173e-001  8.593750e-002
      vertex  5.296875e-001  1.546875e-001  0.000000e+000
    endloop
  endfacet
  facet normal -9.801473e-002  9.951850e-001  0.000000e+000
    outer loop
      vertex  5.296875e-001  1.546875e-001  0.000000e+000
      vertex  5.269440e-001  1.544173e-001  8.593750e-002
      vertex  5.296875e-001  1.546875e-001  8.593750e-002
    endloop
  endfacet
  facet normal  9.801684e-002  9.951847e-001  0.000000e+000
    outer loop
      vertex  5.296875e-001  1.546875e-001  0.000000e+000
      vertex  5.296875e-001  1.546875e-001  8.593750e-002
      vertex  5.324309e-001  1.544173e-001  0.000000e+000
    endloop
  endfacet
  facet normal  9.801684e-002  9.951847e-001  -0.000000e+000
    outer loop
      vertex  5.324309e-001  1.544173e-001  0.000000e+000
      vertex  5.296875e-001  1.546875e-001  8.593750e-002
      vertex  5.324309e-001  1.544173e-001  8.593750e-002
    endloop
  endfacet
  facet normal  2.902833e-001  9.569407e-001  0.000000e+000
    outer loop
      vertex  5.324309e-001  1.544173e-001  0.000000e+000
      vertex  5.324309e-001  1.544173e-001  8.593750e-002
      vertex  5.350690e-001  1.536171e-001  0.000000e+000
    endloop
  endfacet
  facet normal  2.902833e-001  9.569407e-001  -0.000000e+000
    outer loop
      vertex  5.350690e-001  1.536171e-001  0.000000e+000
      vertex  5.324309e-001  1.544173e-001  8.593750e-002
      vertex  5.350690e-001  1.536171e-001  8.593750e-002
    endloop
  endfacet
  facet normal  4.713980e-001  8.819206e-001  0.000000e+000
    outer loop
      vertex  5.350690e-001  1.536171e-001  0.000000e+000
      vertex  5.350690e-001  1.536171e-001  8.593750e-002
      vertex  5.375002e-001  1.523175e-001  0.000000e+000
    endloop
  endfacet
  facet normal  4.713980e-001  8.819206e-001  -0.000000e+000
    outer loop
      vertex  5.375002e-001  1.523175e-001  0.000000e+000
      vertex  5.350690e-001  1.536171e-001  8.593750e-002
      vertex  5.375002e-001  1.523175e-001  8.593750e-002
    endloop
  endfacet
  facet normal  6.343912e-001  7.730121e-001  0.000000e+000
    outer loop
      vertex  5.375002e-001  1.523175e-001  0.000000e+000
      vertex  5.375002e-001  1.523175e-001  8.593750e-002
      vertex  5.396312e-001  1.505687e-001  0.000000e+000
    endloop
  endfacet
  facet normal  6.343912e-001  7.730121e-001  -0.000000e+000
    outer loop
      vertex  5.396312e-001  1.505687e-001  0.000000e+000
      vertex  5.375002e-001  1.523175e-001  8.593750e-002
      vertex  5.396312e-001  1.505687e-001  8.593750e-002
    endloop
  endfacet
  facet normal  7.730094e-001  6.343944e-001  0.000000e+000
    outer loop
      vertex  5.396312e-001  1.505687e-001  0.000000e+000
      vertex  5.396312e-001  1.505687e-001  8.593750e-002
      vertex  5.413800e-001  1.484377e-001  0.000000e+000
    endloop
  endfacet
  facet normal  7.730094e-001  6.343944e-001  -0.000000e+000
    outer loop
      vertex  5.413800e-001  1.484377e-001  0.000000e+000
      vertex  5.396312e-001  1.505687e-001  8.593750e-002
      vertex  5.413800e-001  1.484377e-001  8.593750e-002
    endloop
  endfacet
  facet normal  8.819240e-001  4.713916e-001  0.000000e+000
    outer loop
      vertex  5.413800e-001  1.484377e-001  0.000000e+000
      vertex  5.413800e-001  1.484377e-001  8.593750e-002
      vertex  5.426795e-001  1.460065e-001  0.000000e+000
    endloop
  endfacet
  facet normal  8.819240e-001  4.713916e-001  -0.000000e+000
    outer loop
      vertex  5.426795e-001  1.460065e-001  0.000000e+000
      vertex  5.413800e-001  1.484377e-001  8.593750e-002
      vertex  5.426795e-001  1.460065e-001  8.593750e-002
    endloop
  endfacet
  facet normal  9.569389e-001  2.902898e-001  0.000000e+000
    outer loop
      vertex  5.426795e-001  1.460065e-001  0.000000e+000
      vertex  5.426795e-001  1.460065e-001  8.593750e-002
      vertex  5.434798e-001  1.433685e-001  0.000000e+000
    endloop
  endfacet
  facet normal  9.569389e-001  2.902898e-001  -0.000000e+000
    outer loop
      vertex  5.434798e-001  1.433685e-001  0.000000e+000
      vertex  5.426795e-001  1.460065e-001  8.593750e-002
      vertex  5.434798e-001  1.433685e-001  8.593750e-002
    endloop
  endfacet
  facet normal  9.951854e-001  9.801044e-002  0.000000e+000
    outer loop
      vertex  5.434798e-001  1.433685e-001  0.000000e+000
      vertex  5.434798e-001  1.433685e-001  8.593750e-002
      vertex  5.437500e-001  1.406250e-001  0.000000e+000
    endloop
  endfacet
  facet normal  9.951854e-001  9.801044e-002  -0.000000e+000
    outer loop
      vertex  5.437500e-001  1.406250e-001  0.000000e+000
      vertex  5.434798e-001  1.433685e-001  8.593750e-002
      vertex  5.437500e-001  1.406250e-001  8.593750e-002
    endloop
  endfacet
  facet normal -7.053978e-001  6.948204e-002  7.053978e-001
    outer loop
      vertex  5.234375e-001  1.406250e-001  9.375000e-002
      vertex  5.235576e-001  1.418443e-001  9.375000e-002
      vertex  5.156250e-001  1.406250e-001  8.593750e-002
    endloop
  endfacet
  facet normal -7.053975e-001  6.947079e-002  7.053992e-001
    outer loop
      vertex  5.235576e-001  1.418443e-001  9.375000e-002
      vertex  5.158952e-001  1.433685e-001  8.593750e-002
      vertex  5.156250e-001  1.406250e-001  8.593750e-002
    endloop
  endfacet
  facet normal  7.053984e-001  6.947088e-002  7.053984e-001
    outer loop
      vertex  5.437500e-001  1.406250e-001  8.593750e-002
      vertex  5.434798e-001  1.433685e-001  8.593750e-002
      vertex  5.359375e-001  1.406250e-001  9.375000e-002
    endloop
  endfacet
  facet normal  7.053959e-001  6.948184e-002  7.053998e-001
    outer loop
      vertex  5.434798e-001  1.433685e-001  8.593750e-002
      vertex  5.358174e-001  1.418443e-001  9.375000e-002
      vertex  5.359375e-001  1.406250e-001  9.375000e-002
    endloop
  endfacet
  facet normal  6.782883e-001  2.057604e-001  7.053990e-001
    outer loop
      vertex  5.434798e-001  1.433685e-001  8.593750e-002
      vertex  5.426795e-001  1.460065e-001  8.593750e-002
      vertex  5.354617e-001  1.430168e-001  9.375000e-002
    endloop
  endfacet
  facet normal  6.782888e-001  2.057573e-001  7.053994e-001
    outer loop
      vertex  5.358174e-001  1.418443e-001  9.375000e-002
      vertex  5.434798e-001  1.433685e-001  8.593750e-002
      vertex  5.354617e-001  1.430168e-001  9.375000e-002
    endloop
  endfacet
  facet normal  5.479184e-001  4.496665e-001  7.053974e-001
    outer loop
      vertex  5.413800e-001  1.484377e-001  8.593750e-002
      vertex  5.396312e-001  1.505687e-001  8.593750e-002
      vertex  5.348842e-001  1.440973e-001  9.375000e-002
    endloop
  endfacet
  facet normal  6.251186e-001  3.341281e-001  7.053971e-001
    outer loop
      vertex  5.348842e-001  1.440973e-001  9.375000e-002
      vertex  5.426795e-001  1.460065e-001  8.593750e-002
      vertex  5.413800e-001  1.484377e-001  8.593750e-002
    endloop
  endfacet
  facet normal  6.251268e-001  3.341067e-001  7.054000e-001
    outer loop
      vertex  5.354617e-001  1.430168e-001  9.375000e-002
      vertex  5.426795e-001  1.460065e-001  8.593750e-002
      vertex  5.348842e-001  1.440973e-001  9.375000e-002
    endloop
  endfacet
  facet normal  3.341323e-001  6.251154e-001  7.053981e-001
    outer loop
      vertex  5.375002e-001  1.523175e-001  8.593750e-002
      vertex  5.350690e-001  1.536171e-001  8.593750e-002
      vertex  5.320793e-001  1.463992e-001  9.375000e-002
    endloop
  endfacet
  facet normal  3.341348e-001  6.251137e-001  7.053984e-001
    outer loop
      vertex  5.331598e-001  1.458217e-001  9.375000e-002
      vertex  5.375002e-001  1.523175e-001  8.593750e-002
      vertex  5.320793e-001  1.463992e-001  9.375000e-002
    endloop
  endfacet
  facet normal  4.496631e-001  5.479198e-001  7.053985e-001
    outer loop
      vertex  5.331598e-001  1.458217e-001  9.375000e-002
      vertex  5.341069e-001  1.450444e-001  9.375000e-002
      vertex  5.375002e-001  1.523175e-001  8.593750e-002
    endloop
  endfacet
  facet normal  6.947543e-002  7.053981e-001  7.053982e-001
    outer loop
      vertex  5.324309e-001  1.544173e-001  8.593750e-002
      vertex  5.296875e-001  1.546875e-001  8.593750e-002
      vertex  5.309068e-001  1.467549e-001  9.375000e-002
    endloop
  endfacet
  facet normal  2.057560e-001  6.782903e-001  7.053984e-001
    outer loop
      vertex  5.309068e-001  1.467549e-001  9.375000e-002
      vertex  5.350690e-001  1.536171e-001  8.593750e-002
      vertex  5.324309e-001  1.544173e-001  8.593750e-002
    endloop
  endfacet
  facet normal  2.057529e-001  6.782916e-001  7.053979e-001
    outer loop
      vertex  5.320793e-001  1.463992e-001  9.375000e-002
      vertex  5.350690e-001  1.536171e-001  8.593750e-002
      vertex  5.309068e-001  1.467549e-001  9.375000e-002
    endloop
  endfacet
  facet normal -2.057561e-001  6.782905e-001  7.053981e-001
    outer loop
      vertex  5.269440e-001  1.544173e-001  8.593750e-002
      vertex  5.243060e-001  1.536171e-001  8.593750e-002
      vertex  5.272957e-001  1.463992e-001  9.375000e-002
    endloop
  endfacet
  facet normal -2.057527e-001  6.782910e-001  7.053984e-001
    outer loop
      vertex  5.284682e-001  1.467549e-001  9.375000e-002
      vertex  5.269440e-001  1.544173e-001  8.593750e-002
      vertex  5.272957e-001  1.463992e-001  9.375000e-002
    endloop
  endfacet
  facet normal -6.947264e-002  7.053986e-001  7.053981e-001
    outer loop
      vertex  5.284682e-001  1.467549e-001  9.375000e-002
      vertex  5.296875e-001  1.468750e-001  9.375000e-002
      vertex  5.269440e-001  1.544173e-001  8.593750e-002
    endloop
  endfacet
  facet normal -4.496634e-001  5.479195e-001  7.053984e-001
    outer loop
      vertex  5.218748e-001  1.523175e-001  8.593750e-002
      vertex  5.197438e-001  1.505687e-001  8.593750e-002
      vertex  5.262152e-001  1.458217e-001  9.375000e-002
    endloop
  endfacet
  facet normal -3.341322e-001  6.251152e-001  7.053983e-001
    outer loop
      vertex  5.262152e-001  1.458217e-001  9.375000e-002
      vertex  5.243060e-001  1.536171e-001  8.593750e-002
      vertex  5.218748e-001  1.523175e-001  8.593750e-002
    endloop
  endfacet
  facet normal -3.341350e-001  6.251141e-001  7.053979e-001
    outer loop
      vertex  5.272957e-001  1.463992e-001  9.375000e-002
      vertex  5.243060e-001  1.536171e-001  8.593750e-002
      vertex  5.262152e-001  1.458217e-001  9.375000e-002
    endloop
  endfacet
  facet normal -6.251171e-001  3.341273e-001  7.053989e-001
    outer loop
      vertex  5.179949e-001  1.484377e-001  8.593750e-002
      vertex  5.166954e-001  1.460065e-001  8.593750e-002
      vertex  5.239133e-001  1.430168e-001  9.375000e-002
    endloop
  endfacet
  facet normal -6.251126e-001  3.341336e-001  7.053999e-001
    outer loop
      vertex  5.244908e-001  1.440973e-001  9.375000e-002
      vertex  5.179949e-001  1.484377e-001  8.593750e-002
      vertex  5.239133e-001  1.430168e-001  9.375000e-002
    endloop
  endfacet
  facet normal -5.479236e-001  4.496561e-001  7.054000e-001
    outer loop
      vertex  5.244908e-001  1.440973e-001  9.375000e-002
      vertex  5.252681e-001  1.450444e-001  9.375000e-002
      vertex  5.179949e-001  1.484377e-001  8.593750e-002
    endloop
  endfacet
  facet normal -6.782880e-001  2.057603e-001  7.053993e-001
    outer loop
      vertex  5.235576e-001  1.418443e-001  9.375000e-002
      vertex  5.166954e-001  1.460065e-001  8.593750e-002
      vertex  5.158952e-001  1.433685e-001  8.593750e-002
    endloop
  endfacet
  facet normal -6.782894e-001  2.057575e-001  7.053989e-001
    outer loop
      vertex  5.239133e-001  1.430168e-001  9.375000e-002
      vertex  5.166954e-001  1.460065e-001  8.593750e-002
      vertex  5.235576e-001  1.418443e-001  9.375000e-002
    endloop
  endfacet
  facet normal  5.479071e-001  4.496771e-001  7.053993e-001
    outer loop
      vertex  5.341069e-001  1.450444e-001  9.375000e-002
      vertex  5.348842e-001  1.440973e-001  9.375000e-002
      vertex  5.396312e-001  1.505687e-001  8.593750e-002
    endloop
  endfacet
  facet normal  4.496635e-001  5.479195e-001  7.053984e-001
    outer loop
      vertex  5.396312e-001  1.505687e-001  8.593750e-002
      vertex  5.375002e-001  1.523175e-001  8.593750e-002
      vertex  5.341069e-001  1.450444e-001  9.375000e-002
    endloop
  endfacet
  facet normal  6.947599e-002  7.053982e-001  7.053982e-001
    outer loop
      vertex  5.296875e-001  1.468750e-001  9.375000e-002
      vertex  5.309068e-001  1.467549e-001  9.375000e-002
      vertex  5.296875e-001  1.546875e-001  8.593750e-002
    endloop
  endfacet
  facet normal -6.947394e-002  7.053983e-001  7.053983e-001
    outer loop
      vertex  5.296875e-001  1.546875e-001  8.593750e-002
      vertex  5.269440e-001  1.544173e-001  8.593750e-002
      vertex  5.296875e-001  1.468750e-001  9.375000e-002
    endloop
  endfacet
  facet normal -4.496632e-001  5.479198e-001  7.053984e-001
    outer loop
      vertex  5.252681e-001  1.450444e-001  9.375000e-002
      vertex  5.262152e-001  1.458217e-001  9.375000e-002
      vertex  5.197438e-001  1.505687e-001  8.593750e-002
    endloop
  endfacet
  facet normal -5.479175e-001  4.496657e-001  7.053986e-001
    outer loop
      vertex  5.197438e-001  1.505687e-001  8.593750e-002
      vertex  5.179949e-001  1.484377e-001  8.593750e-002
      vertex  5.252681e-001  1.450444e-001  9.375000e-002
    endloop
  endfacet
  facet normal  7.053978e-001 -6.948204e-002  7.053978e-001
    outer loop
      vertex  5.359375e-001  1.406250e-001  9.375000e-002
      vertex  5.358174e-001  1.394057e-001  9.375000e-002
      vertex  5.437500e-001  1.406250e-001  8.593750e-002
    endloop
  endfacet
  facet normal  7.053975e-001 -6.947079e-002  7.053992e-001
    outer loop
      vertex  5.358174e-001  1.394057e-001  9.375000e-002
      vertex  5.434798e-001  1.378815e-001  8.593750e-002
      vertex  5.437500e-001  1.406250e-001  8.593750e-002
    endloop
  endfacet
  facet normal -7.053984e-001 -6.947088e-002  7.053984e-001
    outer loop
      vertex  5.156250e-001  1.406250e-001  8.593750e-002
      vertex  5.158952e-001  1.378815e-001  8.593750e-002
      vertex  5.234375e-001  1.406250e-001  9.375000e-002
    endloop
  endfacet
  facet normal -7.053959e-001 -6.948184e-002  7.053998e-001
    outer loop
      vertex  5.158952e-001  1.378815e-001  8.593750e-002
      vertex  5.235576e-001  1.394057e-001  9.375000e-002
      vertex  5.234375e-001  1.406250e-001  9.375000e-002
    endloop
  endfacet
  facet normal -6.782883e-001 -2.057604e-001  7.053990e-001
    outer loop
      vertex  5.158952e-001  1.378815e-001  8.593750e-002
      vertex  5.166954e-001  1.352435e-001  8.593750e-002
      vertex  5.239133e-001  1.382332e-001  9.375000e-002
    endloop
  endfacet
  facet normal -6.782888e-001 -2.057573e-001  7.053994e-001
    outer loop
      vertex  5.235576e-001  1.394057e-001  9.375000e-002
      vertex  5.158952e-001  1.378815e-001  8.593750e-002
      vertex  5.239133e-001  1.382332e-001  9.375000e-002
    endloop
  endfacet
  facet normal -5.479168e-001 -4.496651e-001  7.053995e-001
    outer loop
      vertex  5.179949e-001  1.328123e-001  8.593750e-002
      vertex  5.197438e-001  1.306813e-001  8.593750e-002
      vertex  5.244908e-001  1.371527e-001  9.375000e-002
    endloop
  endfacet
  facet normal -6.251166e-001 -3.341270e-001  7.053995e-001
    outer loop
      vertex  5.244908e-001  1.371527e-001  9.375000e-002
      vertex  5.166954e-001  1.352435e-001  8.593750e-002
      vertex  5.179949e-001  1.328123e-001  8.593750e-002
    endloop
  endfacet
  facet normal -6.251138e-001 -3.341343e-001  7.053986e-001
    outer loop
      vertex  5.239133e-001  1.382332e-001  9.375000e-002
      vertex  5.166954e-001  1.352435e-001  8.593750e-002
      vertex  5.244908e-001  1.371527e-001  9.375000e-002
    endloop
  endfacet
  facet normal -3.341323e-001 -6.251154e-001  7.053981e-001
    outer loop
      vertex  5.218748e-001  1.289325e-001  8.593750e-002
      vertex  5.243060e-001  1.276329e-001  8.593750e-002
      vertex  5.272957e-001  1.348508e-001  9.375000e-002
    endloop
  endfacet
  facet normal -3.341348e-001 -6.251137e-001  7.053984e-001
    outer loop
      vertex  5.262152e-001  1.354283e-001  9.375000e-002
      vertex  5.218748e-001  1.289325e-001  8.593750e-002
      vertex  5.272957e-001  1.348508e-001  9.375000e-002
    endloop
  endfacet
  facet normal -4.496631e-001 -5.479198e-001  7.053985e-001
    outer loop
      vertex  5.262152e-001  1.354283e-001  9.375000e-002
      vertex  5.252681e-001  1.362056e-001  9.375000e-002
      vertex  5.218748e-001  1.289325e-001  8.593750e-002
    endloop
  endfacet
  facet normal -6.947395e-002 -7.053984e-001  7.053982e-001
    outer loop
      vertex  5.269440e-001  1.268327e-001  8.593750e-002
      vertex  5.296875e-001  1.265625e-001  8.593750e-002
      vertex  5.284682e-001  1.344951e-001  9.375000e-002
    endloop
  endfacet
  facet normal -2.057560e-001 -6.782903e-001  7.053984e-001
    outer loop
      vertex  5.284682e-001  1.344951e-001  9.375000e-002
      vertex  5.243060e-001  1.276329e-001  8.593750e-002
      vertex  5.269440e-001  1.268327e-001  8.593750e-002
    endloop
  endfacet
  facet normal -2.057529e-001 -6.782916e-001  7.053979e-001
    outer loop
      vertex  5.272957e-001  1.348508e-001  9.375000e-002
      vertex  5.243060e-001  1.276329e-001  8.593750e-002
      vertex  5.284682e-001  1.344951e-001  9.375000e-002
    endloop
  endfacet
  facet normal  2.057561e-001 -6.782905e-001  7.053981e-001
    outer loop
      vertex  5.324309e-001  1.268327e-001  8.593750e-002
      vertex  5.350690e-001  1.276329e-001  8.593750e-002
      vertex  5.320793e-001  1.348508e-001  9.375000e-002
    endloop
  endfacet
  facet normal  2.057527e-001 -6.782910e-001  7.053984e-001
    outer loop
      vertex  5.309068e-001  1.344951e-001  9.375000e-002
      vertex  5.324309e-001  1.268327e-001  8.593750e-002
      vertex  5.320793e-001  1.348508e-001  9.375000e-002
    endloop
  endfacet
  facet normal  6.947598e-002 -7.053980e-001  7.053982e-001
    outer loop
      vertex  5.309068e-001  1.344951e-001  9.375000e-002
      vertex  5.296875e-001  1.343750e-001  9.375000e-002
      vertex  5.324309e-001  1.268327e-001  8.593750e-002
    endloop
  endfacet
  facet normal  4.496634e-001 -5.479195e-001  7.053984e-001
    outer loop
      vertex  5.375002e-001  1.289325e-001  8.593750e-002
      vertex  5.396312e-001  1.306813e-001  8.593750e-002
      vertex  5.331598e-001  1.354283e-001  9.375000e-002
    endloop
  endfacet
  facet normal  3.341322e-001 -6.251152e-001  7.053983e-001
    outer loop
      vertex  5.331598e-001  1.354283e-001  9.375000e-002
      vertex  5.350690e-001  1.276329e-001  8.593750e-002
      vertex  5.375002e-001  1.289325e-001  8.593750e-002
    endloop
  endfacet
  facet normal  3.341350e-001 -6.251141e-001  7.053979e-001
    outer loop
      vertex  5.320793e-001  1.348508e-001  9.375000e-002
      vertex  5.350690e-001  1.276329e-001  8.593750e-002
      vertex  5.331598e-001  1.354283e-001  9.375000e-002
    endloop
  endfacet
  facet normal  6.251171e-001 -3.341273e-001  7.053989e-001
    outer loop
      vertex  5.413800e-001  1.328123e-001  8.593750e-002
      vertex  5.426795e-001  1.352435e-001  8.593750e-002
      vertex  5.354617e-001  1.382332e-001  9.375000e-002
    endloop
  endfacet
  facet normal  6.251304e-001 -3.341086e-001  7.053960e-001
    outer loop
      vertex  5.348842e-001  1.371527e-001  9.375000e-002
      vertex  5.413800e-001  1.328123e-001  8.593750e-002
      vertex  5.354617e-001  1.382332e-001  9.375000e-002
    endloop
  endfacet
  facet normal  5.479093e-001 -4.496789e-001  7.053967e-001
    outer loop
      vertex  5.348842e-001  1.371527e-001  9.375000e-002
      vertex  5.341069e-001  1.362056e-001  9.375000e-002
      vertex  5.413800e-001  1.328123e-001  8.593750e-002
    endloop
  endfacet
  facet normal  6.782880e-001 -2.057603e-001  7.053993e-001
    outer loop
      vertex  5.358174e-001  1.394057e-001  9.375000e-002
      vertex  5.426795e-001  1.352435e-001  8.593750e-002
      vertex  5.434798e-001  1.378815e-001  8.593750e-002
    endloop
  endfacet
  facet normal  6.782894e-001 -2.057575e-001  7.053989e-001
    outer loop
      vertex  5.354617e-001  1.382332e-001  9.375000e-002
      vertex  5.426795e-001  1.352435e-001  8.593750e-002
      vertex  5.358174e-001  1.394057e-001  9.375000e-002
    endloop
  endfacet
  facet normal -5.479251e-001 -4.496573e-001  7.053980e-001
    outer loop
      vertex  5.252681e-001  1.362056e-001  9.375000e-002
      vertex  5.244908e-001  1.371527e-001  9.375000e-002
      vertex  5.197438e-001  1.306813e-001  8.593750e-002
    endloop
  endfacet
  facet normal -4.496635e-001 -5.479195e-001  7.053984e-001
    outer loop
      vertex  5.197438e-001  1.306813e-001  8.593750e-002
      vertex  5.218748e-001  1.289325e-001  8.593750e-002
      vertex  5.252681e-001  1.362056e-001  9.375000e-002
    endloop
  endfacet
  facet normal -6.947261e-002 -7.053983e-001  7.053983e-001
    outer loop
      vertex  5.296875e-001  1.343750e-001  9.375000e-002
      vertex  5.284682e-001  1.344951e-001  9.375000e-002
      vertex  5.296875e-001  1.265625e-001  8.593750e-002
    endloop
  endfacet
  facet normal  6.947545e-002 -7.053982e-001  7.053982e-001
    outer loop
      vertex  5.296875e-001  1.265625e-001  8.593750e-002
      vertex  5.324309e-001  1.268327e-001  8.593750e-002
      vertex  5.296875e-001  1.343750e-001  9.375000e-002
    endloop
  endfacet
  facet normal  4.496632e-001 -5.479198e-001  7.053984e-001
    outer loop
      vertex  5.341069e-001  1.362056e-001  9.375000e-002
      vertex  5.331598e-001  1.354283e-001  9.375000e-002
      vertex  5.396312e-001  1.306813e-001  8.593750e-002
    endloop
  endfacet
  facet normal  5.479175e-001 -4.496657e-001  7.053986e-001
    outer loop
      vertex  5.396312e-001  1.306813e-001  8.593750e-002
      vertex  5.413800e-001  1.328123e-001  8.593750e-002
      vertex  5.341069e-001  1.362056e-001  9.375000e-002
    endloop
  endfacet
  facet normal  0.000000e+000  -0.000000e+000 -1.000000e+000
    outer loop
      vertex  5.179949e-001  1.484377e-001  0.000000e+000
      vertex  5.197438e-001  1.505687e-001  0.000000e+000
      vertex  5.396312e-001  1.505687e-001  0.000000e+000
    endloop
  endfacet
  facet normal  0.000000e+000  0.000000e+000 -1.000000e+000
    outer loop
      vertex  5.413800e-001  1.484377e-001  0.000000e+000
      vertex  5.179949e-001  1.484377e-001  0.000000e+000
      vertex  5.396312e-001  1.505687e-001  0.000000e+000
    endloop
  endfacet
  facet normal  0.000000e+000  -0.000000e+000 -1.000000e+000
    outer loop
      vertex  5.166954e-001  1.460065e-001  0.000000e+000
      vertex  5.179949e-001  1.484377e-001  0.000000e+000
      vertex  5.413800e-001  1.484377e-001  0.000000e+000
    endloop
  endfacet
  facet normal  0.000000e+000  0.000000e+000 -1.000000e+000
    outer loop
      vertex  5.426795e-001  1.460065e-001  0.000000e+000
      vertex  5.166954e-001  1.460065e-001  0.000000e+000
      vertex  5.413800e-001  1.484377e-001  0.000000e+000
    endloop
  endfacet
  facet normal  0.000000e+000  0.000000e+000 -1.000000e+000
    outer loop
      vertex  5.413800e-001  1.328123e-001  0.000000e+000
      vertex  5.179949e-001  1.328123e-001  0.000000e+000
      vertex  5.426795e-001  1.352435e-001  0.000000e+000
    endloop
  endfacet
  facet normal  0.000000e+000  0.000000e+000 -1.000000e+000
    outer loop
      vertex  5.197438e-001  1.306813e-001  0.000000e+000
      vertex  5.179949e-001  1.328123e-001  0.000000e+000
      vertex  5.413800e-001  1.328123e-001  0.000000e+000
    endloop
  endfacet
  facet normal  0.000000e+000  0.000000e+000 -1.000000e+000
    outer loop
      vertex  5.396312e-001  1.306813e-001  0.000000e+000
      vertex  5.197438e-001  1.306813e-001  0.000000e+000
      vertex  5.413800e-001  1.328123e-001  0.000000e+000
    endloop
  endfacet
  facet normal  0.000000e+000  0.000000e+000 -1.000000e+000
    outer loop
      vertex  5.218748e-001  1.289325e-001  0.000000e+000
      vertex  5.197438e-001  1.306813e-001  0.000000e+000
      vertex  5.396312e-001  1.306813e-001  0.000000e+000
    endloop
  endfacet
  facet normal  0.000000e+000  0.000000e+000 -1.000000e+000
    outer loop
      vertex  5.375002e-001  1.289325e-001  0.000000e+000
      vertex  5.218748e-001  1.289325e-001  0.000000e+000
      vertex  5.396312e-001  1.306813e-001  0.000000e+000
    endloop
  endfacet
  facet normal  0.000000e+000  0.000000e+000 -9.999999e-001
    outer loop
      vertex  5.375002e-001  1.289325e-001  0.000000e+000
      vertex  5.243060e-001  1.276329e-001  0.000000e+000
      vertex  5.218748e-001  1.289325e-001  0.000000e+000
    endloop
  endfacet
  facet normal  0.000000e+000  0.000000e+000 -1.000000e+000
    outer loop
      vertex  5.269440e-001  1.268327e-001  0.000000e+000
      vertex  5.243060e-001  1.276329e-001  0.000000e+000
      vertex  5.375002e-001  1.289325e-001  0.000000e+000
    endloop
  endfacet
  facet normal  0.000000e+000  0.000000e+000 -1.000000e+000
    outer loop
      vertex  5.350690e-001  1.276329e-001  0.000000e+000
      vertex  5.269440e-001  1.268327e-001  0.000000e+000
      vertex  5.375002e-001  1.289325e-001  0.000000e+000
    endloop
  endfacet
  facet normal  0.000000e+000  0.000000e+000 -1.000000e+000
    outer loop
      vertex  5.350690e-001  1.276329e-001  0.000000e+000
      vertex  5.296875e-001  1.265625e-001  0.000000e+000
      vertex  5.269440e-001  1.268327e-001  0.000000e+000
    endloop
  endfacet
  facet normal  0.000000e+000  0.000000e+000 -1.000000e+000
    outer loop
      vertex  5.324309e-001  1.268327e-001  0.000000e+000
      vertex  5.296875e-001  1.265625e-001  0.000000e+000
      vertex  5.350690e-001  1.276329e-001  0.000000e+000
    endloop
  endfacet
  facet normal  0.000000e+000  0.000000e+000 -1.000000e+000
    outer loop
      vertex  5.375002e-001  1.523175e-001  0.000000e+000
      vertex  5.396312e-001  1.505687e-001  0.000000e+000
      vertex  5.197438e-001  1.505687e-001  0.000000e+000
    endloop
  endfacet
  facet normal  0.000000e+000  0.000000e+000 -1.000000e+000
    outer loop
      vertex  5.375002e-001  1.523175e-001  0.000000e+000
      vertex  5.197438e-001  1.505687e-001  0.000000e+000
      vertex  5.218748e-001  1.523175e-001  0.000000e+000
    endloop
  endfacet
  facet normal  0.000000e+000  0.000000e+000 -9.999999e-001
    outer loop
      vertex  5.375002e-001  1.523175e-001  0.000000e+000
      vertex  5.218748e-001  1.523175e-001  0.000000e+000
      vertex  5.243060e-001  1.536171e-001  0.000000e+000
    endloop
  endfacet
  facet normal  0.000000e+000  0.000000e+000 -1.000000e+000
    outer loop
      vertex  5.375002e-001  1.523175e-001  0.000000e+000
      vertex  5.243060e-001  1.536171e-001  0.000000e+000
      vertex  5.269440e-001  1.544173e-001  0.000000e+000
    endloop
  endfacet
  facet normal  0.000000e+000  0.000000e+000 -1.000000e+000
    outer loop
      vertex  5.375002e-001  1.523175e-001  0.000000e+000
      vertex  5.269440e-001  1.544173e-001  0.000000e+000
      vertex  5.296875e-001  1.546875e-001  0.000000e+000
    endloop
  endfacet
  facet normal  0.000000e+000  0.000000e+000 -1.000000e+000
    outer loop
      vertex  5.375002e-001  1.523175e-001  0.000000e+000
      vertex  5.296875e-001  1.546875e-001  0.000000e+000
      vertex  5.324309e-001  1.544173e-001  0.000000e+000
    endloop
  endfacet
  facet normal  0.000000e+000  0.000000e+000 -1.000000e+000
    outer loop
      vertex  5.375002e-001  1.523175e-001  0.000000e+000
      vertex  5.324309e-001  1.544173e-001  0.000000e+000
      vertex  5.350690e-001  1.536171e-001  0.000000e+000
    endloop
  endfacet
  facet normal  0.000000e+000  0.000000e+000 -1.000000e+000
    outer loop
      vertex  5.179949e-001  1.328123e-001  0.000000e+000
      vertex  5.166954e-001  1.352435e-001  0.000000e+000
      vertex  5.426795e-001  1.352435e-001  0.000000e+000
    endloop
  endfacet
  facet normal  0.000000e+000  0.000000e+000 -1.000000e+000
    outer loop
      vertex  5.426795e-001  1.352435e-001  0.000000e+000
      vertex  5.166954e-001  1.352435e-001  0.000000e+000
      vertex  5.158952e-001  1.378815e-001  0.000000e+000
    endloop
  endfacet
  facet normal  0.000000e+000  0.000000e+000 -1.000000e+000
    outer loop
      vertex  5.426795e-001  1.352435e-001  0.000000e+000
      vertex  5.158952e-001  1.378815e-001  0.000000e+000
      vertex  5.434798e-001  1.378815e-001  0.000000e+000
    endloop
  endfacet
  facet normal  0.000000e+000  0.000000e+000 -1.000000e+000
    outer loop
      vertex  5.434798e-001  1.378815e-001  0.000000e+000
      vertex  5.158952e-001  1.378815e-001  0.000000e+000
      vertex  5.156250e-001  1.406250e-001  0.000000e+000
    endloop
  endfacet
  facet normal  0.000000e+000  0.000000e+000 -1.000000e+000
    outer loop
      vertex  5.434798e-001  1.378815e-001  0.000000e+000
      vertex  5.156250e-001  1.406250e-001  0.000000e+000
      vertex  5.437500e-001  1.406250e-001  0.000000e+000
    endloop
  endfacet
  facet normal  0.000000e+000  0.000000e+000 -1.000000e+000
    outer loop
      vertex  5.437500e-001  1.406250e-001  0.000000e+000
      vertex  5.156250e-001  1.406250e-001  0.000000e+000
      vertex  5.158952e-001  1.433685e-001  0.000000e+000
    endloop
  endfacet
  facet normal  0.000000e+000  0.000000e+000 -1.000000e+000
    outer loop
      vertex  5.437500e-001  1.406250e-001  0.000000e+000
      vertex  5.158952e-001  1.433685e-001  0.000000e+000
      vertex  5.434798e-001  1.433685e-001  0.000000e+000
    endloop
  endfacet
  facet normal  0.000000e+000  0.000000e+000 -1.000000e+000
    outer loop
      vertex  5.434798e-001  1.433685e-001  0.000000e+000
      vertex  5.158952e-001  1.433685e-001  0.000000e+000
      vertex  5.166954e-001  1.460065e-001  0.000000e+000
    endloop
  endfacet
  facet normal  0.000000e+000  0.000000e+000 -1.000000e+000
    outer loop
      vertex  5.434798e-001  1.433685e-001  0.000000e+000
      vertex  5.166954e-001  1.460065e-001  0.000000e+000
      vertex  5.426795e-001  1.460065e-001  0.000000e+000
    endloop
  endfacet
endsolid CATIA STL
