solid CATIA STL
  facet normal -1.000000e+000  -0.000000e+000  0.000000e+000
    outer loop
      vertex  0.000000e+000 -8.411351e-002  5.752162e-002
      vertex  0.000000e+000 -9.368128e-002  3.962158e-002
      vertex  0.000000e+000 -1.838593e-001  3.696448e-002
    endloop
  endfacet
  facet normal -1.000000e+000  0.000000e+000  0.000000e+000
    outer loop
      vertex  0.000000e+000  1.878067e-001 -3.696448e-002
      vertex  0.000000e+000  9.762865e-002 -3.962158e-002
      vertex  0.000000e+000  1.035205e-001 -2.019891e-002
    endloop
  endfacet
  facet normal -1.000000e+000  0.000000e+000  0.000000e+000
    outer loop
      vertex  0.000000e+000  1.973684e-003  1.035362e-001
      vertex  0.000000e+000 -1.555679e-001  1.052659e-001
      vertex  0.000000e+000 -1.320044e-001  1.339781e-001
    endloop
  endfacet
  facet normal -1.000000e+000  0.000000e+000  0.000000e+000
    outer loop
      vertex  0.000000e+000  1.973684e-003  1.035362e-001
      vertex  0.000000e+000 -1.320044e-001  1.339781e-001
      vertex  0.000000e+000 -1.032923e-001  1.575416e-001
    endloop
  endfacet
  facet normal -1.000000e+000  0.000000e+000  0.000000e+000
    outer loop
      vertex  0.000000e+000  1.973684e-003  1.035362e-001
      vertex  0.000000e+000 -1.032923e-001  1.575416e-001
      vertex  0.000000e+000 -7.053476e-002  1.750509e-001
    endloop
  endfacet
  facet normal -1.000000e+000  0.000000e+000  0.000000e+000
    outer loop
      vertex  0.000000e+000  1.973684e-003  1.035362e-001
      vertex  0.000000e+000 -7.053476e-002  1.750509e-001
      vertex  0.000000e+000 -3.499080e-002  1.858330e-001
    endloop
  endfacet
  facet normal -1.000000e+000  0.000000e+000  0.000000e+000
    outer loop
      vertex  0.000000e+000  1.973684e-003  1.035362e-001
      vertex  0.000000e+000 -3.499080e-002  1.858330e-001
      vertex  0.000000e+000  1.973684e-003  1.894737e-001
    endloop
  endfacet
  facet normal -1.000000e+000  0.000000e+000  0.000000e+000
    outer loop
      vertex  0.000000e+000  1.973684e-003  1.035362e-001
      vertex  0.000000e+000  1.973684e-003  1.894737e-001
      vertex  0.000000e+000  3.893816e-002  1.858330e-001
    endloop
  endfacet
  facet normal -1.000000e+000  0.000000e+000  -0.000000e+000
    outer loop
      vertex  0.000000e+000  1.973684e-003  1.035362e-001
      vertex  0.000000e+000  3.893816e-002  1.858330e-001
      vertex  0.000000e+000  7.448212e-002  1.750509e-001
    endloop
  endfacet
  facet normal -9.999999e-001  0.000000e+000  -0.000000e+000
    outer loop
      vertex  0.000000e+000  1.973684e-003  1.035362e-001
      vertex  0.000000e+000  7.448212e-002  1.750509e-001
      vertex  0.000000e+000  1.072396e-001  1.575416e-001
    endloop
  endfacet
  facet normal -1.000000e+000  0.000000e+000  -0.000000e+000
    outer loop
      vertex  0.000000e+000  1.973684e-003  1.035362e-001
      vertex  0.000000e+000  1.072396e-001  1.575416e-001
      vertex  0.000000e+000  1.359518e-001  1.339781e-001
    endloop
  endfacet
  facet normal -1.000000e+000  0.000000e+000  -0.000000e+000
    outer loop
      vertex  0.000000e+000  1.973684e-003  1.035362e-001
      vertex  0.000000e+000  1.359518e-001  1.339781e-001
      vertex  0.000000e+000  1.595153e-001  1.052659e-001
    endloop
  endfacet
  facet normal -1.000000e+000  0.000000e+000  0.000000e+000
    outer loop
      vertex  0.000000e+000  1.973684e-003  1.035362e-001
      vertex  0.000000e+000  1.595153e-001  1.052659e-001
      vertex  0.000000e+000  2.217259e-002  1.015468e-001
    endloop
  endfacet
  facet normal -1.000000e+000  -0.000000e+000  0.000000e+000
    outer loop
      vertex  0.000000e+000 -1.555679e-001  1.052659e-001
      vertex  0.000000e+000  1.973684e-003  1.035362e-001
      vertex  0.000000e+000 -1.822522e-002  1.015468e-001
    endloop
  endfacet
  facet normal -1.000000e+000  -0.000000e+000  0.000000e+000
    outer loop
      vertex  0.000000e+000 -1.555679e-001  1.052659e-001
      vertex  0.000000e+000 -1.822522e-002  1.015468e-001
      vertex  0.000000e+000 -3.764790e-002  9.565496e-002
    endloop
  endfacet
  facet normal -1.000000e+000  -0.000000e+000  0.000000e+000
    outer loop
      vertex  0.000000e+000 -1.555679e-001  1.052659e-001
      vertex  0.000000e+000 -3.764790e-002  9.565496e-002
      vertex  0.000000e+000 -5.554794e-002  8.608719e-002
    endloop
  endfacet
  facet normal -1.000000e+000  -0.000000e+000  0.000000e+000
    outer loop
      vertex  0.000000e+000 -1.555679e-001  1.052659e-001
      vertex  0.000000e+000 -5.554794e-002  8.608719e-002
      vertex  0.000000e+000 -1.730772e-001  7.250844e-002
    endloop
  endfacet
  facet normal -1.000000e+000  0.000000e+000  0.000000e+000
    outer loop
      vertex  0.000000e+000 -1.555679e-001 -1.052659e-001
      vertex  0.000000e+000 -1.730772e-001 -7.250844e-002
      vertex  0.000000e+000 -7.123745e-002 -7.321114e-002
    endloop
  endfacet
  facet normal -1.000000e+000  0.000000e+000  -0.000000e+000
    outer loop
      vertex  0.000000e+000 -1.555679e-001 -1.052659e-001
      vertex  0.000000e+000 -7.123745e-002 -7.321114e-002
      vertex  0.000000e+000 -5.554794e-002 -8.608719e-002
    endloop
  endfacet
  facet normal -1.000000e+000  0.000000e+000  -0.000000e+000
    outer loop
      vertex  0.000000e+000 -1.555679e-001 -1.052659e-001
      vertex  0.000000e+000 -5.554794e-002 -8.608719e-002
      vertex  0.000000e+000 -3.764790e-002 -9.565496e-002
    endloop
  endfacet
  facet normal -1.000000e+000  0.000000e+000  -0.000000e+000
    outer loop
      vertex  0.000000e+000 -1.555679e-001 -1.052659e-001
      vertex  0.000000e+000 -3.764790e-002 -9.565496e-002
      vertex  0.000000e+000 -1.822522e-002 -1.015468e-001
    endloop
  endfacet
  facet normal -1.000000e+000  0.000000e+000  -0.000000e+000
    outer loop
      vertex  0.000000e+000 -1.555679e-001 -1.052659e-001
      vertex  0.000000e+000 -1.822522e-002 -1.015468e-001
      vertex  0.000000e+000  1.973684e-003 -1.035362e-001
    endloop
  endfacet
  facet normal -1.000000e+000  0.000000e+000  0.000000e+000
    outer loop
      vertex  0.000000e+000 -1.555679e-001 -1.052659e-001
      vertex  0.000000e+000  1.973684e-003 -1.035362e-001
      vertex  0.000000e+000 -1.320044e-001 -1.339781e-001
    endloop
  endfacet
  facet normal -1.000000e+000  -0.000000e+000  0.000000e+000
    outer loop
      vertex  0.000000e+000  1.973684e-003 -1.035362e-001
      vertex  0.000000e+000  1.595153e-001 -1.052659e-001
      vertex  0.000000e+000  1.359518e-001 -1.339781e-001
    endloop
  endfacet
  facet normal -1.000000e+000  -0.000000e+000  0.000000e+000
    outer loop
      vertex  0.000000e+000  1.973684e-003 -1.035362e-001
      vertex  0.000000e+000  1.359518e-001 -1.339781e-001
      vertex  0.000000e+000  1.072396e-001 -1.575416e-001
    endloop
  endfacet
  facet normal -9.999999e-001  -0.000000e+000  0.000000e+000
    outer loop
      vertex  0.000000e+000  1.973684e-003 -1.035362e-001
      vertex  0.000000e+000  1.072396e-001 -1.575416e-001
      vertex  0.000000e+000  7.448212e-002 -1.750509e-001
    endloop
  endfacet
  facet normal -1.000000e+000  -0.000000e+000  0.000000e+000
    outer loop
      vertex  0.000000e+000  1.973684e-003 -1.035362e-001
      vertex  0.000000e+000  7.448212e-002 -1.750509e-001
      vertex  0.000000e+000  3.893816e-002 -1.858330e-001
    endloop
  endfacet
  facet normal -1.000000e+000  -0.000000e+000  0.000000e+000
    outer loop
      vertex  0.000000e+000  1.973684e-003 -1.035362e-001
      vertex  0.000000e+000  3.893816e-002 -1.858330e-001
      vertex  0.000000e+000  1.973684e-003 -1.894737e-001
    endloop
  endfacet
  facet normal -1.000000e+000  0.000000e+000  0.000000e+000
    outer loop
      vertex  0.000000e+000  1.973684e-003 -1.035362e-001
      vertex  0.000000e+000  1.973684e-003 -1.894737e-001
      vertex  0.000000e+000 -3.499080e-002 -1.858330e-001
    endloop
  endfacet
  facet normal -1.000000e+000  0.000000e+000  0.000000e+000
    outer loop
      vertex  0.000000e+000  1.973684e-003 -1.035362e-001
      vertex  0.000000e+000 -3.499080e-002 -1.858330e-001
      vertex  0.000000e+000 -7.053476e-002 -1.750509e-001
    endloop
  endfacet
  facet normal -1.000000e+000  0.000000e+000  0.000000e+000
    outer loop
      vertex  0.000000e+000  1.973684e-003 -1.035362e-001
      vertex  0.000000e+000 -7.053476e-002 -1.750509e-001
      vertex  0.000000e+000 -1.032923e-001 -1.575416e-001
    endloop
  endfacet
  facet normal -1.000000e+000  0.000000e+000  0.000000e+000
    outer loop
      vertex  0.000000e+000  1.973684e-003 -1.035362e-001
      vertex  0.000000e+000 -1.032923e-001 -1.575416e-001
      vertex  0.000000e+000 -1.320044e-001 -1.339781e-001
    endloop
  endfacet
  facet normal -1.000000e+000  0.000000e+000  0.000000e+000
    outer loop
      vertex  0.000000e+000  1.595153e-001  1.052659e-001
      vertex  0.000000e+000  1.770245e-001  7.250844e-002
      vertex  0.000000e+000  5.949531e-002  8.608719e-002
    endloop
  endfacet
  facet normal -1.000000e+000  0.000000e+000  0.000000e+000
    outer loop
      vertex  0.000000e+000  1.595153e-001  1.052659e-001
      vertex  0.000000e+000  5.949531e-002  8.608719e-002
      vertex  0.000000e+000  4.159527e-002  9.565496e-002
    endloop
  endfacet
  facet normal -9.999999e-001  0.000000e+000  0.000000e+000
    outer loop
      vertex  0.000000e+000  1.595153e-001  1.052659e-001
      vertex  0.000000e+000  4.159527e-002  9.565496e-002
      vertex  0.000000e+000  2.217259e-002  1.015468e-001
    endloop
  endfacet
  facet normal -1.000000e+000  0.000000e+000  0.000000e+000
    outer loop
      vertex  0.000000e+000  1.595153e-001 -1.052659e-001
      vertex  0.000000e+000  1.973684e-003 -1.035362e-001
      vertex  0.000000e+000  2.217259e-002 -1.015468e-001
    endloop
  endfacet
  facet normal -9.999999e-001  0.000000e+000  0.000000e+000
    outer loop
      vertex  0.000000e+000  1.595153e-001 -1.052659e-001
      vertex  0.000000e+000  2.217259e-002 -1.015468e-001
      vertex  0.000000e+000  4.159527e-002 -9.565496e-002
    endloop
  endfacet
  facet normal -1.000000e+000  0.000000e+000  0.000000e+000
    outer loop
      vertex  0.000000e+000  1.595153e-001 -1.052659e-001
      vertex  0.000000e+000  4.159527e-002 -9.565496e-002
      vertex  0.000000e+000  5.949531e-002 -8.608719e-002
    endloop
  endfacet
  facet normal -1.000000e+000  0.000000e+000  0.000000e+000
    outer loop
      vertex  0.000000e+000  1.595153e-001 -1.052659e-001
      vertex  0.000000e+000  5.949531e-002 -8.608719e-002
      vertex  0.000000e+000  7.518482e-002 -7.321114e-002
    endloop
  endfacet
  facet normal -1.000000e+000  0.000000e+000  0.000000e+000
    outer loop
      vertex  0.000000e+000  1.595153e-001 -1.052659e-001
      vertex  0.000000e+000  7.518482e-002 -7.321114e-002
      vertex  0.000000e+000  1.770245e-001 -7.250844e-002
    endloop
  endfacet
  facet normal -1.000000e+000  -0.000000e+000  0.000000e+000
    outer loop
      vertex  0.000000e+000 -5.554794e-002  8.608719e-002
      vertex  0.000000e+000 -7.123745e-002  7.321114e-002
      vertex  0.000000e+000 -1.730772e-001  7.250844e-002
    endloop
  endfacet
  facet normal -1.000000e+000  0.000000e+000  0.000000e+000
    outer loop
      vertex  0.000000e+000 -1.730772e-001  7.250844e-002
      vertex  0.000000e+000 -7.123745e-002  7.321114e-002
      vertex  0.000000e+000 -8.411351e-002  5.752162e-002
    endloop
  endfacet
  facet normal -1.000000e+000  -0.000000e+000  0.000000e+000
    outer loop
      vertex  0.000000e+000 -1.730772e-001  7.250844e-002
      vertex  0.000000e+000 -8.411351e-002  5.752162e-002
      vertex  0.000000e+000 -1.838593e-001  3.696448e-002
    endloop
  endfacet
  facet normal -9.999999e-001  0.000000e+000  0.000000e+000
    outer loop
      vertex  0.000000e+000 -1.015625e-001  5.339626e-017
      vertex  0.000000e+000 -1.875000e-001  2.320307e-017
      vertex  0.000000e+000 -9.957308e-002  2.019891e-002
    endloop
  endfacet
  facet normal -1.000000e+000  -0.000000e+000  0.000000e+000
    outer loop
      vertex  0.000000e+000 -9.957308e-002  2.019891e-002
      vertex  0.000000e+000 -1.875000e-001  2.320307e-017
      vertex  0.000000e+000 -1.838593e-001  3.696448e-002
    endloop
  endfacet
  facet normal -1.000000e+000  0.000000e+000  0.000000e+000
    outer loop
      vertex  0.000000e+000 -9.957308e-002  2.019891e-002
      vertex  0.000000e+000 -1.838593e-001  3.696448e-002
      vertex  0.000000e+000 -9.368128e-002  3.962158e-002
    endloop
  endfacet
  facet normal -1.000000e+000  0.000000e+000  0.000000e+000
    outer loop
      vertex  0.000000e+000 -9.368128e-002 -3.962158e-002
      vertex  0.000000e+000 -1.838593e-001 -3.696448e-002
      vertex  0.000000e+000 -9.957308e-002 -2.019891e-002
    endloop
  endfacet
  facet normal -1.000000e+000  -0.000000e+000  0.000000e+000
    outer loop
      vertex  0.000000e+000 -9.957308e-002 -2.019891e-002
      vertex  0.000000e+000 -1.838593e-001 -3.696448e-002
      vertex  0.000000e+000 -1.875000e-001  2.320307e-017
    endloop
  endfacet
  facet normal -9.999999e-001  0.000000e+000  0.000000e+000
    outer loop
      vertex  0.000000e+000 -9.957308e-002 -2.019891e-002
      vertex  0.000000e+000 -1.875000e-001  2.320307e-017
      vertex  0.000000e+000 -1.015625e-001  5.339626e-017
    endloop
  endfacet
  facet normal -1.000000e+000  0.000000e+000  0.000000e+000
    outer loop
      vertex  0.000000e+000 -7.123745e-002 -7.321114e-002
      vertex  0.000000e+000 -1.730772e-001 -7.250844e-002
      vertex  0.000000e+000 -8.411351e-002 -5.752162e-002
    endloop
  endfacet
  facet normal -1.000000e+000  -0.000000e+000  0.000000e+000
    outer loop
      vertex  0.000000e+000 -8.411351e-002 -5.752162e-002
      vertex  0.000000e+000 -1.730772e-001 -7.250844e-002
      vertex  0.000000e+000 -1.838593e-001 -3.696448e-002
    endloop
  endfacet
  facet normal -1.000000e+000  0.000000e+000  0.000000e+000
    outer loop
      vertex  0.000000e+000 -8.411351e-002 -5.752162e-002
      vertex  0.000000e+000 -1.838593e-001 -3.696448e-002
      vertex  0.000000e+000 -9.368128e-002 -3.962158e-002
    endloop
  endfacet
  facet normal -1.000000e+000  0.000000e+000  0.000000e+000
    outer loop
      vertex  0.000000e+000  5.949531e-002  8.608719e-002
      vertex  0.000000e+000  1.770245e-001  7.250844e-002
      vertex  0.000000e+000  7.518482e-002  7.321114e-002
    endloop
  endfacet
  facet normal -1.000000e+000  0.000000e+000  0.000000e+000
    outer loop
      vertex  0.000000e+000  7.518482e-002  7.321114e-002
      vertex  0.000000e+000  1.770245e-001  7.250844e-002
      vertex  0.000000e+000  1.878067e-001  3.696448e-002
    endloop
  endfacet
  facet normal -1.000000e+000  0.000000e+000  0.000000e+000
    outer loop
      vertex  0.000000e+000  7.518482e-002  7.321114e-002
      vertex  0.000000e+000  1.878067e-001  3.696448e-002
      vertex  0.000000e+000  8.806088e-002  5.752162e-002
    endloop
  endfacet
  facet normal -1.000000e+000  0.000000e+000  0.000000e+000
    outer loop
      vertex  0.000000e+000  8.806088e-002  5.752162e-002
      vertex  0.000000e+000  1.878067e-001  3.696448e-002
      vertex  0.000000e+000  9.762865e-002  3.962158e-002
    endloop
  endfacet
  facet normal -1.000000e+000  0.000000e+000  0.000000e+000
    outer loop
      vertex  0.000000e+000  9.762865e-002  3.962158e-002
      vertex  0.000000e+000  1.878067e-001  3.696448e-002
      vertex  0.000000e+000  1.914474e-001 -2.320383e-017
    endloop
  endfacet
  facet normal -1.000000e+000  0.000000e+000  0.000000e+000
    outer loop
      vertex  0.000000e+000  9.762865e-002  3.962158e-002
      vertex  0.000000e+000  1.914474e-001 -2.320383e-017
      vertex  0.000000e+000  1.035205e-001  2.019891e-002
    endloop
  endfacet
  facet normal -1.000000e+000  0.000000e+000  0.000000e+000
    outer loop
      vertex  0.000000e+000  1.035205e-001  2.019891e-002
      vertex  0.000000e+000  1.914474e-001 -2.320383e-017
      vertex  0.000000e+000  1.055099e-001 -1.794168e-017
    endloop
  endfacet
  facet normal -1.000000e+000  0.000000e+000  0.000000e+000
    outer loop
      vertex  0.000000e+000  1.055099e-001 -1.794168e-017
      vertex  0.000000e+000  1.914474e-001 -2.320383e-017
      vertex  0.000000e+000  1.878067e-001 -3.696448e-002
    endloop
  endfacet
  facet normal -1.000000e+000  0.000000e+000  0.000000e+000
    outer loop
      vertex  0.000000e+000  1.055099e-001 -1.794168e-017
      vertex  0.000000e+000  1.878067e-001 -3.696448e-002
      vertex  0.000000e+000  1.035205e-001 -2.019891e-002
    endloop
  endfacet
  facet normal -9.999999e-001  0.000000e+000  -0.000000e+000
    outer loop
      vertex  0.000000e+000  7.518482e-002 -7.321114e-002
      vertex  0.000000e+000  8.806088e-002 -5.752162e-002
      vertex  0.000000e+000  1.770245e-001 -7.250844e-002
    endloop
  endfacet
  facet normal -1.000000e+000  0.000000e+000  0.000000e+000
    outer loop
      vertex  0.000000e+000  1.770245e-001 -7.250844e-002
      vertex  0.000000e+000  8.806088e-002 -5.752162e-002
      vertex  0.000000e+000  9.762865e-002 -3.962158e-002
    endloop
  endfacet
  facet normal -1.000000e+000  0.000000e+000  0.000000e+000
    outer loop
      vertex  0.000000e+000  1.770245e-001 -7.250844e-002
      vertex  0.000000e+000  9.762865e-002 -3.962158e-002
      vertex  0.000000e+000  1.878067e-001 -3.696448e-002
    endloop
  endfacet
  facet normal  0.000000e+000 -9.801704e-002  9.951847e-001
    outer loop
      vertex  0.000000e+000  1.973684e-003 -1.035362e-001
      vertex  6.640625e-001  2.217259e-002 -1.015468e-001
      vertex  0.000000e+000  2.217259e-002 -1.015468e-001
    endloop
  endfacet
  facet normal  0.000000e+000 -2.902845e-001  9.569404e-001
    outer loop
      vertex  0.000000e+000  2.217259e-002 -1.015468e-001
      vertex  6.640625e-001  2.217259e-002 -1.015468e-001
      vertex  6.640625e-001  4.159527e-002 -9.565496e-002
    endloop
  endfacet
  facet normal  0.000000e+000 -2.902845e-001  9.569404e-001
    outer loop
      vertex  0.000000e+000  2.217259e-002 -1.015468e-001
      vertex  6.640625e-001  4.159527e-002 -9.565496e-002
      vertex  0.000000e+000  4.159527e-002 -9.565496e-002
    endloop
  endfacet
  facet normal  0.000000e+000 -4.713969e-001  8.819212e-001
    outer loop
      vertex  0.000000e+000  4.159527e-002 -9.565496e-002
      vertex  6.640625e-001  4.159527e-002 -9.565496e-002
      vertex  6.640625e-001  5.949531e-002 -8.608719e-002
    endloop
  endfacet
  facet normal  0.000000e+000 -4.713969e-001  8.819212e-001
    outer loop
      vertex  0.000000e+000  4.159527e-002 -9.565496e-002
      vertex  6.640625e-001  5.949531e-002 -8.608719e-002
      vertex  0.000000e+000  5.949531e-002 -8.608719e-002
    endloop
  endfacet
  facet normal  0.000000e+000 -6.343932e-001  7.730106e-001
    outer loop
      vertex  0.000000e+000  5.949531e-002 -8.608719e-002
      vertex  6.640625e-001  5.949531e-002 -8.608719e-002
      vertex  6.640625e-001  7.518482e-002 -7.321114e-002
    endloop
  endfacet
  facet normal  0.000000e+000 -6.343932e-001  7.730106e-001
    outer loop
      vertex  0.000000e+000  5.949531e-002 -8.608719e-002
      vertex  6.640625e-001  7.518482e-002 -7.321114e-002
      vertex  0.000000e+000  7.518482e-002 -7.321114e-002
    endloop
  endfacet
  facet normal  0.000000e+000 -7.730104e-001  6.343933e-001
    outer loop
      vertex  0.000000e+000  7.518482e-002 -7.321114e-002
      vertex  6.640625e-001  7.518482e-002 -7.321114e-002
      vertex  6.640625e-001  8.806088e-002 -5.752162e-002
    endloop
  endfacet
  facet normal  0.000000e+000 -7.730104e-001  6.343933e-001
    outer loop
      vertex  0.000000e+000  7.518482e-002 -7.321114e-002
      vertex  6.640625e-001  8.806088e-002 -5.752162e-002
      vertex  0.000000e+000  8.806088e-002 -5.752162e-002
    endloop
  endfacet
  facet normal  0.000000e+000 -8.819214e-001  4.713966e-001
    outer loop
      vertex  0.000000e+000  8.806088e-002 -5.752162e-002
      vertex  6.640625e-001  8.806088e-002 -5.752162e-002
      vertex  6.640625e-001  9.762865e-002 -3.962158e-002
    endloop
  endfacet
  facet normal  0.000000e+000 -8.819214e-001  4.713966e-001
    outer loop
      vertex  0.000000e+000  8.806088e-002 -5.752162e-002
      vertex  6.640625e-001  9.762865e-002 -3.962158e-002
      vertex  0.000000e+000  9.762865e-002 -3.962158e-002
    endloop
  endfacet
  facet normal  0.000000e+000 -9.569402e-001  2.902848e-001
    outer loop
      vertex  0.000000e+000  9.762865e-002 -3.962158e-002
      vertex  6.640625e-001  9.762865e-002 -3.962158e-002
      vertex  6.640625e-001  1.035205e-001 -2.019891e-002
    endloop
  endfacet
  facet normal  0.000000e+000 -9.569402e-001  2.902848e-001
    outer loop
      vertex  0.000000e+000  9.762865e-002 -3.962158e-002
      vertex  6.640625e-001  1.035205e-001 -2.019891e-002
      vertex  0.000000e+000  1.035205e-001 -2.019891e-002
    endloop
  endfacet
  facet normal  0.000000e+000 -9.951847e-001  9.801704e-002
    outer loop
      vertex  0.000000e+000  1.035205e-001 -2.019891e-002
      vertex  6.640625e-001  1.035205e-001 -2.019891e-002
      vertex  6.640625e-001  1.055099e-001 -1.794168e-017
    endloop
  endfacet
  facet normal  0.000000e+000 -9.951847e-001  9.801704e-002
    outer loop
      vertex  0.000000e+000  1.035205e-001 -2.019891e-002
      vertex  6.640625e-001  1.055099e-001 -1.794168e-017
      vertex  0.000000e+000  1.055099e-001 -1.794168e-017
    endloop
  endfacet
  facet normal  0.000000e+000 -9.801704e-002  9.951847e-001
    outer loop
      vertex  6.640625e-001  2.217259e-002 -1.015468e-001
      vertex  0.000000e+000  1.973684e-003 -1.035362e-001
      vertex  6.640625e-001  1.973684e-003 -1.035362e-001
    endloop
  endfacet
  facet normal  0.000000e+000  9.801704e-002  9.951847e-001
    outer loop
      vertex  6.640625e-001  1.973684e-003 -1.035362e-001
      vertex  0.000000e+000  1.973684e-003 -1.035362e-001
      vertex  0.000000e+000 -1.822522e-002 -1.015468e-001
    endloop
  endfacet
  facet normal  -0.000000e+000  9.801704e-002  9.951847e-001
    outer loop
      vertex  6.640625e-001  1.973684e-003 -1.035362e-001
      vertex  0.000000e+000 -1.822522e-002 -1.015468e-001
      vertex  6.640625e-001 -1.822522e-002 -1.015468e-001
    endloop
  endfacet
  facet normal  0.000000e+000  2.902845e-001  9.569405e-001
    outer loop
      vertex  6.640625e-001 -1.822522e-002 -1.015468e-001
      vertex  0.000000e+000 -1.822522e-002 -1.015468e-001
      vertex  0.000000e+000 -3.764790e-002 -9.565496e-002
    endloop
  endfacet
  facet normal  -0.000000e+000  2.902845e-001  9.569405e-001
    outer loop
      vertex  6.640625e-001 -1.822522e-002 -1.015468e-001
      vertex  0.000000e+000 -3.764790e-002 -9.565496e-002
      vertex  6.640625e-001 -3.764790e-002 -9.565496e-002
    endloop
  endfacet
  facet normal  0.000000e+000  4.713970e-001  8.819212e-001
    outer loop
      vertex  6.640625e-001 -3.764790e-002 -9.565496e-002
      vertex  0.000000e+000 -3.764790e-002 -9.565496e-002
      vertex  0.000000e+000 -5.554794e-002 -8.608719e-002
    endloop
  endfacet
  facet normal  -0.000000e+000  4.713970e-001  8.819212e-001
    outer loop
      vertex  6.640625e-001 -3.764790e-002 -9.565496e-002
      vertex  0.000000e+000 -5.554794e-002 -8.608719e-002
      vertex  6.640625e-001 -5.554794e-002 -8.608719e-002
    endloop
  endfacet
  facet normal  0.000000e+000  6.343932e-001  7.730106e-001
    outer loop
      vertex  6.640625e-001 -5.554794e-002 -8.608719e-002
      vertex  0.000000e+000 -5.554794e-002 -8.608719e-002
      vertex  0.000000e+000 -7.123745e-002 -7.321114e-002
    endloop
  endfacet
  facet normal  -0.000000e+000  6.343932e-001  7.730106e-001
    outer loop
      vertex  6.640625e-001 -5.554794e-002 -8.608719e-002
      vertex  0.000000e+000 -7.123745e-002 -7.321114e-002
      vertex  6.640625e-001 -7.123745e-002 -7.321114e-002
    endloop
  endfacet
  facet normal  0.000000e+000  7.730104e-001  6.343933e-001
    outer loop
      vertex  6.640625e-001 -7.123745e-002 -7.321114e-002
      vertex  0.000000e+000 -7.123745e-002 -7.321114e-002
      vertex  0.000000e+000 -8.411351e-002 -5.752162e-002
    endloop
  endfacet
  facet normal  -0.000000e+000  7.730104e-001  6.343933e-001
    outer loop
      vertex  6.640625e-001 -7.123745e-002 -7.321114e-002
      vertex  0.000000e+000 -8.411351e-002 -5.752162e-002
      vertex  6.640625e-001 -8.411351e-002 -5.752162e-002
    endloop
  endfacet
  facet normal  0.000000e+000  8.819214e-001  4.713966e-001
    outer loop
      vertex  6.640625e-001 -8.411351e-002 -5.752162e-002
      vertex  0.000000e+000 -8.411351e-002 -5.752162e-002
      vertex  0.000000e+000 -9.368128e-002 -3.962158e-002
    endloop
  endfacet
  facet normal  -0.000000e+000  8.819214e-001  4.713966e-001
    outer loop
      vertex  6.640625e-001 -8.411351e-002 -5.752162e-002
      vertex  0.000000e+000 -9.368128e-002 -3.962158e-002
      vertex  6.640625e-001 -9.368128e-002 -3.962158e-002
    endloop
  endfacet
  facet normal  0.000000e+000  9.569402e-001  2.902848e-001
    outer loop
      vertex  6.640625e-001 -9.368128e-002 -3.962158e-002
      vertex  0.000000e+000 -9.368128e-002 -3.962158e-002
      vertex  0.000000e+000 -9.957308e-002 -2.019891e-002
    endloop
  endfacet
  facet normal  -0.000000e+000  9.569402e-001  2.902848e-001
    outer loop
      vertex  6.640625e-001 -9.368128e-002 -3.962158e-002
      vertex  0.000000e+000 -9.957308e-002 -2.019891e-002
      vertex  6.640625e-001 -9.957308e-002 -2.019891e-002
    endloop
  endfacet
  facet normal  0.000000e+000  9.951847e-001  9.801704e-002
    outer loop
      vertex  6.640625e-001 -9.957308e-002 -2.019891e-002
      vertex  0.000000e+000 -9.957308e-002 -2.019891e-002
      vertex  0.000000e+000 -1.015625e-001  5.339626e-017
    endloop
  endfacet
  facet normal  -0.000000e+000  9.951847e-001  9.801704e-002
    outer loop
      vertex  6.640625e-001 -9.957308e-002 -2.019891e-002
      vertex  0.000000e+000 -1.015625e-001  5.339626e-017
      vertex  6.640625e-001 -1.015625e-001  5.339626e-017
    endloop
  endfacet
  facet normal  0.000000e+000  9.801704e-002 -9.951847e-001
    outer loop
      vertex  0.000000e+000  1.973684e-003  1.035362e-001
      vertex  6.640625e-001 -1.822522e-002  1.015468e-001
      vertex  0.000000e+000 -1.822522e-002  1.015468e-001
    endloop
  endfacet
  facet normal  0.000000e+000  2.902845e-001 -9.569405e-001
    outer loop
      vertex  0.000000e+000 -1.822522e-002  1.015468e-001
      vertex  6.640625e-001 -1.822522e-002  1.015468e-001
      vertex  6.640625e-001 -3.764790e-002  9.565496e-002
    endloop
  endfacet
  facet normal  0.000000e+000  2.902845e-001 -9.569405e-001
    outer loop
      vertex  0.000000e+000 -1.822522e-002  1.015468e-001
      vertex  6.640625e-001 -3.764790e-002  9.565496e-002
      vertex  0.000000e+000 -3.764790e-002  9.565496e-002
    endloop
  endfacet
  facet normal  0.000000e+000  4.713970e-001 -8.819212e-001
    outer loop
      vertex  0.000000e+000 -3.764790e-002  9.565496e-002
      vertex  6.640625e-001 -3.764790e-002  9.565496e-002
      vertex  6.640625e-001 -5.554794e-002  8.608719e-002
    endloop
  endfacet
  facet normal  0.000000e+000  4.713970e-001 -8.819212e-001
    outer loop
      vertex  0.000000e+000 -3.764790e-002  9.565496e-002
      vertex  6.640625e-001 -5.554794e-002  8.608719e-002
      vertex  0.000000e+000 -5.554794e-002  8.608719e-002
    endloop
  endfacet
  facet normal  0.000000e+000  6.343932e-001 -7.730106e-001
    outer loop
      vertex  0.000000e+000 -5.554794e-002  8.608719e-002
      vertex  6.640625e-001 -5.554794e-002  8.608719e-002
      vertex  6.640625e-001 -7.123745e-002  7.321114e-002
    endloop
  endfacet
  facet normal  0.000000e+000  6.343932e-001 -7.730106e-001
    outer loop
      vertex  0.000000e+000 -5.554794e-002  8.608719e-002
      vertex  6.640625e-001 -7.123745e-002  7.321114e-002
      vertex  0.000000e+000 -7.123745e-002  7.321114e-002
    endloop
  endfacet
  facet normal  0.000000e+000  7.730104e-001 -6.343933e-001
    outer loop
      vertex  0.000000e+000 -7.123745e-002  7.321114e-002
      vertex  6.640625e-001 -7.123745e-002  7.321114e-002
      vertex  6.640625e-001 -8.411351e-002  5.752162e-002
    endloop
  endfacet
  facet normal  0.000000e+000  7.730104e-001 -6.343933e-001
    outer loop
      vertex  0.000000e+000 -7.123745e-002  7.321114e-002
      vertex  6.640625e-001 -8.411351e-002  5.752162e-002
      vertex  0.000000e+000 -8.411351e-002  5.752162e-002
    endloop
  endfacet
  facet normal  0.000000e+000  8.819214e-001 -4.713966e-001
    outer loop
      vertex  0.000000e+000 -8.411351e-002  5.752162e-002
      vertex  6.640625e-001 -8.411351e-002  5.752162e-002
      vertex  6.640625e-001 -9.368128e-002  3.962158e-002
    endloop
  endfacet
  facet normal  0.000000e+000  8.819214e-001 -4.713966e-001
    outer loop
      vertex  0.000000e+000 -8.411351e-002  5.752162e-002
      vertex  6.640625e-001 -9.368128e-002  3.962158e-002
      vertex  0.000000e+000 -9.368128e-002  3.962158e-002
    endloop
  endfacet
  facet normal  0.000000e+000  9.569402e-001 -2.902848e-001
    outer loop
      vertex  0.000000e+000 -9.368128e-002  3.962158e-002
      vertex  6.640625e-001 -9.368128e-002  3.962158e-002
      vertex  6.640625e-001 -9.957308e-002  2.019891e-002
    endloop
  endfacet
  facet normal  0.000000e+000  9.569402e-001 -2.902848e-001
    outer loop
      vertex  0.000000e+000 -9.368128e-002  3.962158e-002
      vertex  6.640625e-001 -9.957308e-002  2.019891e-002
      vertex  0.000000e+000 -9.957308e-002  2.019891e-002
    endloop
  endfacet
  facet normal  0.000000e+000  9.951847e-001 -9.801704e-002
    outer loop
      vertex  0.000000e+000 -9.957308e-002  2.019891e-002
      vertex  6.640625e-001 -9.957308e-002  2.019891e-002
      vertex  6.640625e-001 -1.015625e-001  5.339626e-017
    endloop
  endfacet
  facet normal  0.000000e+000  9.951847e-001 -9.801704e-002
    outer loop
      vertex  0.000000e+000 -9.957308e-002  2.019891e-002
      vertex  6.640625e-001 -1.015625e-001  5.339626e-017
      vertex  0.000000e+000 -1.015625e-001  5.339626e-017
    endloop
  endfacet
  facet normal  0.000000e+000  9.801704e-002 -9.951847e-001
    outer loop
      vertex  6.640625e-001 -1.822522e-002  1.015468e-001
      vertex  0.000000e+000  1.973684e-003  1.035362e-001
      vertex  6.640625e-001  1.973684e-003  1.035362e-001
    endloop
  endfacet
  facet normal  -0.000000e+000 -9.801704e-002 -9.951847e-001
    outer loop
      vertex  6.640625e-001  1.973684e-003  1.035362e-001
      vertex  0.000000e+000  1.973684e-003  1.035362e-001
      vertex  0.000000e+000  2.217259e-002  1.015468e-001
    endloop
  endfacet
  facet normal  0.000000e+000 -9.801704e-002 -9.951847e-001
    outer loop
      vertex  6.640625e-001  1.973684e-003  1.035362e-001
      vertex  0.000000e+000  2.217259e-002  1.015468e-001
      vertex  6.640625e-001  2.217259e-002  1.015468e-001
    endloop
  endfacet
  facet normal  -0.000000e+000 -2.902845e-001 -9.569404e-001
    outer loop
      vertex  6.640625e-001  2.217259e-002  1.015468e-001
      vertex  0.000000e+000  2.217259e-002  1.015468e-001
      vertex  0.000000e+000  4.159527e-002  9.565496e-002
    endloop
  endfacet
  facet normal  0.000000e+000 -2.902845e-001 -9.569404e-001
    outer loop
      vertex  6.640625e-001  2.217259e-002  1.015468e-001
      vertex  0.000000e+000  4.159527e-002  9.565496e-002
      vertex  6.640625e-001  4.159527e-002  9.565496e-002
    endloop
  endfacet
  facet normal  -0.000000e+000 -4.713969e-001 -8.819212e-001
    outer loop
      vertex  6.640625e-001  4.159527e-002  9.565496e-002
      vertex  0.000000e+000  4.159527e-002  9.565496e-002
      vertex  0.000000e+000  5.949531e-002  8.608719e-002
    endloop
  endfacet
  facet normal  0.000000e+000 -4.713969e-001 -8.819212e-001
    outer loop
      vertex  6.640625e-001  4.159527e-002  9.565496e-002
      vertex  0.000000e+000  5.949531e-002  8.608719e-002
      vertex  6.640625e-001  5.949531e-002  8.608719e-002
    endloop
  endfacet
  facet normal  -0.000000e+000 -6.343932e-001 -7.730106e-001
    outer loop
      vertex  6.640625e-001  5.949531e-002  8.608719e-002
      vertex  0.000000e+000  5.949531e-002  8.608719e-002
      vertex  0.000000e+000  7.518482e-002  7.321114e-002
    endloop
  endfacet
  facet normal  0.000000e+000 -6.343932e-001 -7.730106e-001
    outer loop
      vertex  6.640625e-001  5.949531e-002  8.608719e-002
      vertex  0.000000e+000  7.518482e-002  7.321114e-002
      vertex  6.640625e-001  7.518482e-002  7.321114e-002
    endloop
  endfacet
  facet normal  -0.000000e+000 -7.730104e-001 -6.343933e-001
    outer loop
      vertex  6.640625e-001  7.518482e-002  7.321114e-002
      vertex  0.000000e+000  7.518482e-002  7.321114e-002
      vertex  0.000000e+000  8.806088e-002  5.752162e-002
    endloop
  endfacet
  facet normal  0.000000e+000 -7.730104e-001 -6.343933e-001
    outer loop
      vertex  6.640625e-001  7.518482e-002  7.321114e-002
      vertex  0.000000e+000  8.806088e-002  5.752162e-002
      vertex  6.640625e-001  8.806088e-002  5.752162e-002
    endloop
  endfacet
  facet normal  -0.000000e+000 -8.819214e-001 -4.713966e-001
    outer loop
      vertex  6.640625e-001  8.806088e-002  5.752162e-002
      vertex  0.000000e+000  8.806088e-002  5.752162e-002
      vertex  0.000000e+000  9.762865e-002  3.962158e-002
    endloop
  endfacet
  facet normal  0.000000e+000 -8.819214e-001 -4.713966e-001
    outer loop
      vertex  6.640625e-001  8.806088e-002  5.752162e-002
      vertex  0.000000e+000  9.762865e-002  3.962158e-002
      vertex  6.640625e-001  9.762865e-002  3.962158e-002
    endloop
  endfacet
  facet normal  -0.000000e+000 -9.569402e-001 -2.902848e-001
    outer loop
      vertex  6.640625e-001  9.762865e-002  3.962158e-002
      vertex  0.000000e+000  9.762865e-002  3.962158e-002
      vertex  0.000000e+000  1.035205e-001  2.019891e-002
    endloop
  endfacet
  facet normal  0.000000e+000 -9.569402e-001 -2.902848e-001
    outer loop
      vertex  6.640625e-001  9.762865e-002  3.962158e-002
      vertex  0.000000e+000  1.035205e-001  2.019891e-002
      vertex  6.640625e-001  1.035205e-001  2.019891e-002
    endloop
  endfacet
  facet normal  -0.000000e+000 -9.951847e-001 -9.801704e-002
    outer loop
      vertex  6.640625e-001  1.035205e-001  2.019891e-002
      vertex  0.000000e+000  1.035205e-001  2.019891e-002
      vertex  0.000000e+000  1.055099e-001 -1.794168e-017
    endloop
  endfacet
  facet normal  0.000000e+000 -9.951847e-001 -9.801704e-002
    outer loop
      vertex  6.640625e-001  1.035205e-001  2.019891e-002
      vertex  0.000000e+000  1.055099e-001 -1.794168e-017
      vertex  6.640625e-001  1.055099e-001 -1.794168e-017
    endloop
  endfacet
  facet normal -1.000000e+000  0.000000e+000  0.000000e+000
    outer loop
      vertex  6.640625e-001  1.035205e-001 -2.019891e-002
      vertex  6.640625e-001  1.035205e-001  2.019891e-002
      vertex  6.640625e-001  1.055099e-001 -1.794168e-017
    endloop
  endfacet
  facet normal -9.999999e-001  -0.000000e+000  -0.000000e+000
    outer loop
      vertex  6.640625e-001  9.762865e-002  3.962158e-002
      vertex  6.640625e-001  1.035205e-001  2.019891e-002
      vertex  6.640625e-001  1.035205e-001 -2.019891e-002
    endloop
  endfacet
  facet normal -9.999999e-001  0.000000e+000  0.000000e+000
    outer loop
      vertex  6.640625e-001  9.762865e-002 -3.962158e-002
      vertex  6.640625e-001  9.762865e-002  3.962158e-002
      vertex  6.640625e-001  1.035205e-001 -2.019891e-002
    endloop
  endfacet
  facet normal -1.000000e+000  -0.000000e+000  -0.000000e+000
    outer loop
      vertex  6.640625e-001  8.806088e-002  5.752162e-002
      vertex  6.640625e-001  9.762865e-002  3.962158e-002
      vertex  6.640625e-001  9.762865e-002 -3.962158e-002
    endloop
  endfacet
  facet normal -1.000000e+000  0.000000e+000  0.000000e+000
    outer loop
      vertex  6.640625e-001  8.806088e-002 -5.752162e-002
      vertex  6.640625e-001  8.806088e-002  5.752162e-002
      vertex  6.640625e-001  9.762865e-002 -3.962158e-002
    endloop
  endfacet
  facet normal -1.000000e+000  0.000000e+000  0.000000e+000
    outer loop
      vertex  6.640625e-001 -9.368128e-002 -3.962158e-002
      vertex  6.640625e-001 -9.368128e-002  3.962158e-002
      vertex  6.640625e-001 -8.411351e-002 -5.752162e-002
    endloop
  endfacet
  facet normal -9.999999e-001  0.000000e+000  -0.000000e+000
    outer loop
      vertex  6.640625e-001 -9.957308e-002  2.019891e-002
      vertex  6.640625e-001 -9.368128e-002  3.962158e-002
      vertex  6.640625e-001 -9.368128e-002 -3.962158e-002
    endloop
  endfacet
  facet normal -9.999999e-001  0.000000e+000  0.000000e+000
    outer loop
      vertex  6.640625e-001 -9.957308e-002 -2.019891e-002
      vertex  6.640625e-001 -9.957308e-002  2.019891e-002
      vertex  6.640625e-001 -9.368128e-002 -3.962158e-002
    endloop
  endfacet
  facet normal -1.000000e+000  0.000000e+000  0.000000e+000
    outer loop
      vertex  6.640625e-001 -9.957308e-002  2.019891e-002
      vertex  6.640625e-001 -9.957308e-002 -2.019891e-002
      vertex  6.640625e-001 -1.015625e-001  5.339626e-017
    endloop
  endfacet
  facet normal -1.000000e+000  0.000000e+000  -0.000000e+000
    outer loop
      vertex  6.640625e-001 -9.368128e-002  3.962158e-002
      vertex  6.640625e-001 -8.411351e-002  5.752162e-002
      vertex  6.640625e-001 -8.411351e-002 -5.752162e-002
    endloop
  endfacet
  facet normal -1.000000e+000  0.000000e+000  0.000000e+000
    outer loop
      vertex  6.640625e-001 -8.411351e-002 -5.752162e-002
      vertex  6.640625e-001 -8.411351e-002  5.752162e-002
      vertex  6.640625e-001 -7.123745e-002  7.321114e-002
    endloop
  endfacet
  facet normal -1.000000e+000  0.000000e+000  -0.000000e+000
    outer loop
      vertex  6.640625e-001 -8.411351e-002 -5.752162e-002
      vertex  6.640625e-001 -7.123745e-002  7.321114e-002
      vertex  6.640625e-001 -7.123745e-002 -7.321114e-002
    endloop
  endfacet
  facet normal -1.000000e+000  0.000000e+000  0.000000e+000
    outer loop
      vertex  6.640625e-001 -7.123745e-002 -7.321114e-002
      vertex  6.640625e-001 -7.123745e-002  7.321114e-002
      vertex  6.640625e-001 -5.554794e-002  8.608719e-002
    endloop
  endfacet
  facet normal -1.000000e+000  0.000000e+000  -0.000000e+000
    outer loop
      vertex  6.640625e-001 -7.123745e-002 -7.321114e-002
      vertex  6.640625e-001 -5.554794e-002  8.608719e-002
      vertex  6.640625e-001 -5.554794e-002 -8.608719e-002
    endloop
  endfacet
  facet normal -9.999999e-001  0.000000e+000  0.000000e+000
    outer loop
      vertex  6.640625e-001 -5.554794e-002 -8.608719e-002
      vertex  6.640625e-001 -5.554794e-002  8.608719e-002
      vertex  6.640625e-001 -3.764790e-002  9.565496e-002
    endloop
  endfacet
  facet normal -9.999999e-001  0.000000e+000  -0.000000e+000
    outer loop
      vertex  6.640625e-001 -5.554794e-002 -8.608719e-002
      vertex  6.640625e-001 -3.764790e-002  9.565496e-002
      vertex  6.640625e-001 -3.764790e-002 -9.565496e-002
    endloop
  endfacet
  facet normal -9.999999e-001  0.000000e+000  0.000000e+000
    outer loop
      vertex  6.640625e-001 -3.764790e-002 -9.565496e-002
      vertex  6.640625e-001 -3.764790e-002  9.565496e-002
      vertex  6.640625e-001 -1.822522e-002  1.015468e-001
    endloop
  endfacet
  facet normal -1.000000e+000  0.000000e+000  -0.000000e+000
    outer loop
      vertex  6.640625e-001 -3.764790e-002 -9.565496e-002
      vertex  6.640625e-001 -1.822522e-002  1.015468e-001
      vertex  6.640625e-001 -1.822522e-002 -1.015468e-001
    endloop
  endfacet
  facet normal -1.000000e+000  0.000000e+000  0.000000e+000
    outer loop
      vertex  6.640625e-001 -1.822522e-002 -1.015468e-001
      vertex  6.640625e-001 -1.822522e-002  1.015468e-001
      vertex  6.640625e-001  1.973684e-003  1.035362e-001
    endloop
  endfacet
  facet normal -1.000000e+000  0.000000e+000  -0.000000e+000
    outer loop
      vertex  6.640625e-001 -1.822522e-002 -1.015468e-001
      vertex  6.640625e-001  1.973684e-003  1.035362e-001
      vertex  6.640625e-001  1.973684e-003 -1.035362e-001
    endloop
  endfacet
  facet normal -1.000000e+000  0.000000e+000  0.000000e+000
    outer loop
      vertex  6.640625e-001  1.973684e-003 -1.035362e-001
      vertex  6.640625e-001  1.973684e-003  1.035362e-001
      vertex  6.640625e-001  2.217259e-002  1.015468e-001
    endloop
  endfacet
  facet normal -1.000000e+000  0.000000e+000  -0.000000e+000
    outer loop
      vertex  6.640625e-001  1.973684e-003 -1.035362e-001
      vertex  6.640625e-001  2.217259e-002  1.015468e-001
      vertex  6.640625e-001  2.217259e-002 -1.015468e-001
    endloop
  endfacet
  facet normal -1.000000e+000  0.000000e+000  0.000000e+000
    outer loop
      vertex  6.640625e-001  2.217259e-002 -1.015468e-001
      vertex  6.640625e-001  2.217259e-002  1.015468e-001
      vertex  6.640625e-001  4.159527e-002  9.565496e-002
    endloop
  endfacet
  facet normal -1.000000e+000  0.000000e+000  -0.000000e+000
    outer loop
      vertex  6.640625e-001  2.217259e-002 -1.015468e-001
      vertex  6.640625e-001  4.159527e-002  9.565496e-002
      vertex  6.640625e-001  4.159527e-002 -9.565496e-002
    endloop
  endfacet
  facet normal -9.999999e-001  0.000000e+000  0.000000e+000
    outer loop
      vertex  6.640625e-001  4.159527e-002 -9.565496e-002
      vertex  6.640625e-001  4.159527e-002  9.565496e-002
      vertex  6.640625e-001  5.949531e-002  8.608719e-002
    endloop
  endfacet
  facet normal -1.000000e+000  0.000000e+000  -0.000000e+000
    outer loop
      vertex  6.640625e-001  4.159527e-002 -9.565496e-002
      vertex  6.640625e-001  5.949531e-002  8.608719e-002
      vertex  6.640625e-001  5.949531e-002 -8.608719e-002
    endloop
  endfacet
  facet normal -1.000000e+000  0.000000e+000  0.000000e+000
    outer loop
      vertex  6.640625e-001  5.949531e-002 -8.608719e-002
      vertex  6.640625e-001  5.949531e-002  8.608719e-002
      vertex  6.640625e-001  7.518482e-002  7.321114e-002
    endloop
  endfacet
  facet normal -1.000000e+000  0.000000e+000  -0.000000e+000
    outer loop
      vertex  6.640625e-001  5.949531e-002 -8.608719e-002
      vertex  6.640625e-001  7.518482e-002  7.321114e-002
      vertex  6.640625e-001  7.518482e-002 -7.321114e-002
    endloop
  endfacet
  facet normal -1.000000e+000  0.000000e+000  0.000000e+000
    outer loop
      vertex  6.640625e-001  7.518482e-002 -7.321114e-002
      vertex  6.640625e-001  7.518482e-002  7.321114e-002
      vertex  6.640625e-001  8.806088e-002  5.752162e-002
    endloop
  endfacet
  facet normal -1.000000e+000  0.000000e+000  -0.000000e+000
    outer loop
      vertex  6.640625e-001  7.518482e-002 -7.321114e-002
      vertex  6.640625e-001  8.806088e-002  5.752162e-002
      vertex  6.640625e-001  8.806088e-002 -5.752162e-002
    endloop
  endfacet
  facet normal  1.000000e+000  0.000000e+000  0.000000e+000
    outer loop
      vertex  7.500000e-001 -3.499080e-002  1.858330e-001
      vertex  7.500000e-001  3.893816e-002  1.858330e-001
      vertex  7.500000e-001  1.973684e-003  1.894737e-001
    endloop
  endfacet
  facet normal  1.000000e+000  -0.000000e+000  0.000000e+000
    outer loop
      vertex  7.500000e-001  3.893816e-002  1.858330e-001
      vertex  7.500000e-001 -3.499080e-002  1.858330e-001
      vertex  7.500000e-001 -7.053476e-002  1.750509e-001
    endloop
  endfacet
  facet normal  1.000000e+000  0.000000e+000  0.000000e+000
    outer loop
      vertex  7.500000e-001  3.893816e-002  1.858330e-001
      vertex  7.500000e-001 -7.053476e-002  1.750509e-001
      vertex  7.500000e-001  7.448212e-002  1.750509e-001
    endloop
  endfacet
  facet normal  1.000000e+000  0.000000e+000  0.000000e+000
    outer loop
      vertex  7.500000e-001  7.448212e-002 -1.750509e-001
      vertex  7.500000e-001 -3.499080e-002 -1.858330e-001
      vertex  7.500000e-001  3.893816e-002 -1.858330e-001
    endloop
  endfacet
  facet normal  1.000000e+000  -0.000000e+000  0.000000e+000
    outer loop
      vertex  7.500000e-001  3.893816e-002 -1.858330e-001
      vertex  7.500000e-001 -3.499080e-002 -1.858330e-001
      vertex  7.500000e-001  1.973684e-003 -1.894737e-001
    endloop
  endfacet
  facet normal  1.000000e+000  -0.000000e+000  0.000000e+000
    outer loop
      vertex  7.500000e-001  7.448212e-002  1.750509e-001
      vertex  7.500000e-001 -7.053476e-002  1.750509e-001
      vertex  7.500000e-001  1.072396e-001  1.575416e-001
    endloop
  endfacet
  facet normal  1.000000e+000  0.000000e+000  0.000000e+000
    outer loop
      vertex  7.500000e-001  1.072396e-001  1.575416e-001
      vertex  7.500000e-001 -7.053476e-002  1.750509e-001
      vertex  7.500000e-001 -1.032923e-001  1.575416e-001
    endloop
  endfacet
  facet normal  1.000000e+000  -0.000000e+000  0.000000e+000
    outer loop
      vertex  7.500000e-001  1.072396e-001  1.575416e-001
      vertex  7.500000e-001 -1.032923e-001  1.575416e-001
      vertex  7.500000e-001  1.359518e-001  1.339781e-001
    endloop
  endfacet
  facet normal  1.000000e+000  0.000000e+000  0.000000e+000
    outer loop
      vertex  7.500000e-001  1.359518e-001  1.339781e-001
      vertex  7.500000e-001 -1.032923e-001  1.575416e-001
      vertex  7.500000e-001 -1.320044e-001  1.339781e-001
    endloop
  endfacet
  facet normal  1.000000e+000  -0.000000e+000  0.000000e+000
    outer loop
      vertex  7.500000e-001  1.359518e-001  1.339781e-001
      vertex  7.500000e-001 -1.320044e-001  1.339781e-001
      vertex  7.500000e-001  1.595153e-001  1.052659e-001
    endloop
  endfacet
  facet normal  1.000000e+000  0.000000e+000  0.000000e+000
    outer loop
      vertex  7.500000e-001  1.595153e-001  1.052659e-001
      vertex  7.500000e-001 -1.320044e-001  1.339781e-001
      vertex  7.500000e-001 -1.555679e-001  1.052659e-001
    endloop
  endfacet
  facet normal  1.000000e+000  -0.000000e+000  0.000000e+000
    outer loop
      vertex  7.500000e-001  1.595153e-001  1.052659e-001
      vertex  7.500000e-001 -1.555679e-001  1.052659e-001
      vertex  7.500000e-001  1.770245e-001  7.250844e-002
    endloop
  endfacet
  facet normal  1.000000e+000  0.000000e+000  0.000000e+000
    outer loop
      vertex  7.500000e-001  1.770245e-001  7.250844e-002
      vertex  7.500000e-001 -1.555679e-001  1.052659e-001
      vertex  7.500000e-001 -1.730772e-001  7.250844e-002
    endloop
  endfacet
  facet normal  1.000000e+000  -0.000000e+000  0.000000e+000
    outer loop
      vertex  7.500000e-001  1.770245e-001  7.250844e-002
      vertex  7.500000e-001 -1.730772e-001  7.250844e-002
      vertex  7.500000e-001  1.878067e-001  3.696448e-002
    endloop
  endfacet
  facet normal  1.000000e+000  0.000000e+000  0.000000e+000
    outer loop
      vertex  7.500000e-001  1.878067e-001  3.696448e-002
      vertex  7.500000e-001 -1.730772e-001  7.250844e-002
      vertex  7.500000e-001 -1.838593e-001  3.696448e-002
    endloop
  endfacet
  facet normal  1.000000e+000  -0.000000e+000  0.000000e+000
    outer loop
      vertex  7.500000e-001  1.878067e-001  3.696448e-002
      vertex  7.500000e-001 -1.838593e-001  3.696448e-002
      vertex  7.500000e-001  1.914474e-001 -2.320383e-017
    endloop
  endfacet
  facet normal  1.000000e+000  0.000000e+000  0.000000e+000
    outer loop
      vertex  7.500000e-001  1.914474e-001 -2.320383e-017
      vertex  7.500000e-001 -1.838593e-001  3.696448e-002
      vertex  7.500000e-001 -1.875000e-001  2.320307e-017
    endloop
  endfacet
  facet normal  1.000000e+000  0.000000e+000  0.000000e+000
    outer loop
      vertex  7.500000e-001  1.914474e-001 -2.320383e-017
      vertex  7.500000e-001 -1.875000e-001  2.320307e-017
      vertex  7.500000e-001  1.878067e-001 -3.696448e-002
    endloop
  endfacet
  facet normal  1.000000e+000  0.000000e+000  0.000000e+000
    outer loop
      vertex  7.500000e-001  1.878067e-001 -3.696448e-002
      vertex  7.500000e-001 -1.875000e-001  2.320307e-017
      vertex  7.500000e-001 -1.838593e-001 -3.696448e-002
    endloop
  endfacet
  facet normal  1.000000e+000  -0.000000e+000  0.000000e+000
    outer loop
      vertex  7.500000e-001  1.878067e-001 -3.696448e-002
      vertex  7.500000e-001 -1.838593e-001 -3.696448e-002
      vertex  7.500000e-001  1.770245e-001 -7.250844e-002
    endloop
  endfacet
  facet normal  1.000000e+000  0.000000e+000  0.000000e+000
    outer loop
      vertex  7.500000e-001  1.770245e-001 -7.250844e-002
      vertex  7.500000e-001 -1.838593e-001 -3.696448e-002
      vertex  7.500000e-001 -1.730772e-001 -7.250844e-002
    endloop
  endfacet
  facet normal  1.000000e+000  -0.000000e+000  0.000000e+000
    outer loop
      vertex  7.500000e-001  1.770245e-001 -7.250844e-002
      vertex  7.500000e-001 -1.730772e-001 -7.250844e-002
      vertex  7.500000e-001  1.595153e-001 -1.052659e-001
    endloop
  endfacet
  facet normal  1.000000e+000  0.000000e+000  0.000000e+000
    outer loop
      vertex  7.500000e-001  1.595153e-001 -1.052659e-001
      vertex  7.500000e-001 -1.730772e-001 -7.250844e-002
      vertex  7.500000e-001 -1.555679e-001 -1.052659e-001
    endloop
  endfacet
  facet normal  1.000000e+000  -0.000000e+000  0.000000e+000
    outer loop
      vertex  7.500000e-001  1.595153e-001 -1.052659e-001
      vertex  7.500000e-001 -1.555679e-001 -1.052659e-001
      vertex  7.500000e-001  1.359518e-001 -1.339781e-001
    endloop
  endfacet
  facet normal  1.000000e+000  0.000000e+000  0.000000e+000
    outer loop
      vertex  7.500000e-001  1.359518e-001 -1.339781e-001
      vertex  7.500000e-001 -1.555679e-001 -1.052659e-001
      vertex  7.500000e-001 -1.320044e-001 -1.339781e-001
    endloop
  endfacet
  facet normal  1.000000e+000  -0.000000e+000  0.000000e+000
    outer loop
      vertex  7.500000e-001  1.359518e-001 -1.339781e-001
      vertex  7.500000e-001 -1.320044e-001 -1.339781e-001
      vertex  7.500000e-001  1.072396e-001 -1.575416e-001
    endloop
  endfacet
  facet normal  1.000000e+000  0.000000e+000  0.000000e+000
    outer loop
      vertex  7.500000e-001  1.072396e-001 -1.575416e-001
      vertex  7.500000e-001 -1.320044e-001 -1.339781e-001
      vertex  7.500000e-001 -1.032923e-001 -1.575416e-001
    endloop
  endfacet
  facet normal  1.000000e+000  -0.000000e+000  0.000000e+000
    outer loop
      vertex  7.500000e-001  1.072396e-001 -1.575416e-001
      vertex  7.500000e-001 -1.032923e-001 -1.575416e-001
      vertex  7.500000e-001  7.448212e-002 -1.750509e-001
    endloop
  endfacet
  facet normal  1.000000e+000  0.000000e+000  0.000000e+000
    outer loop
      vertex  7.500000e-001  7.448212e-002 -1.750509e-001
      vertex  7.500000e-001 -1.032923e-001 -1.575416e-001
      vertex  7.500000e-001 -7.053476e-002 -1.750509e-001
    endloop
  endfacet
  facet normal  1.000000e+000  -0.000000e+000  0.000000e+000
    outer loop
      vertex  7.500000e-001  7.448212e-002 -1.750509e-001
      vertex  7.500000e-001 -7.053476e-002 -1.750509e-001
      vertex  7.500000e-001 -3.499080e-002 -1.858330e-001
    endloop
  endfacet
  facet normal  0.000000e+000  9.951847e-001 -9.801707e-002
    outer loop
      vertex  0.000000e+000  1.914474e-001 -2.320383e-017
      vertex  7.500000e-001  1.914474e-001 -2.320383e-017
      vertex  0.000000e+000  1.878067e-001 -3.696448e-002
    endloop
  endfacet
  facet normal  0.000000e+000  9.951847e-001 -9.801707e-002
    outer loop
      vertex  0.000000e+000  1.878067e-001 -3.696448e-002
      vertex  7.500000e-001  1.914474e-001 -2.320383e-017
      vertex  7.500000e-001  1.878067e-001 -3.696448e-002
    endloop
  endfacet
  facet normal  0.000000e+000  9.569403e-001 -2.902846e-001
    outer loop
      vertex  0.000000e+000  1.878067e-001 -3.696448e-002
      vertex  7.500000e-001  1.878067e-001 -3.696448e-002
      vertex  0.000000e+000  1.770245e-001 -7.250844e-002
    endloop
  endfacet
  facet normal  0.000000e+000  9.569403e-001 -2.902846e-001
    outer loop
      vertex  0.000000e+000  1.770245e-001 -7.250844e-002
      vertex  7.500000e-001  1.878067e-001 -3.696448e-002
      vertex  7.500000e-001  1.770245e-001 -7.250844e-002
    endloop
  endfacet
  facet normal  0.000000e+000  8.819212e-001 -4.713968e-001
    outer loop
      vertex  0.000000e+000  1.770245e-001 -7.250844e-002
      vertex  7.500000e-001  1.770245e-001 -7.250844e-002
      vertex  0.000000e+000  1.595153e-001 -1.052659e-001
    endloop
  endfacet
  facet normal  0.000000e+000  8.819212e-001 -4.713968e-001
    outer loop
      vertex  0.000000e+000  1.595153e-001 -1.052659e-001
      vertex  7.500000e-001  1.770245e-001 -7.250844e-002
      vertex  7.500000e-001  1.595153e-001 -1.052659e-001
    endloop
  endfacet
  facet normal  0.000000e+000  7.730106e-001 -6.343931e-001
    outer loop
      vertex  0.000000e+000  1.595153e-001 -1.052659e-001
      vertex  7.500000e-001  1.595153e-001 -1.052659e-001
      vertex  0.000000e+000  1.359518e-001 -1.339781e-001
    endloop
  endfacet
  facet normal  0.000000e+000  7.730106e-001 -6.343931e-001
    outer loop
      vertex  0.000000e+000  1.359518e-001 -1.339781e-001
      vertex  7.500000e-001  1.595153e-001 -1.052659e-001
      vertex  7.500000e-001  1.359518e-001 -1.339781e-001
    endloop
  endfacet
  facet normal  0.000000e+000  6.343934e-001 -7.730104e-001
    outer loop
      vertex  0.000000e+000  1.359518e-001 -1.339781e-001
      vertex  7.500000e-001  1.359518e-001 -1.339781e-001
      vertex  0.000000e+000  1.072396e-001 -1.575416e-001
    endloop
  endfacet
  facet normal  0.000000e+000  6.343934e-001 -7.730104e-001
    outer loop
      vertex  0.000000e+000  1.072396e-001 -1.575416e-001
      vertex  7.500000e-001  1.359518e-001 -1.339781e-001
      vertex  7.500000e-001  1.072396e-001 -1.575416e-001
    endloop
  endfacet
  facet normal  0.000000e+000  4.713964e-001 -8.819215e-001
    outer loop
      vertex  0.000000e+000  1.072396e-001 -1.575416e-001
      vertex  7.500000e-001  1.072396e-001 -1.575416e-001
      vertex  0.000000e+000  7.448212e-002 -1.750509e-001
    endloop
  endfacet
  facet normal  0.000000e+000  4.713964e-001 -8.819215e-001
    outer loop
      vertex  0.000000e+000  7.448212e-002 -1.750509e-001
      vertex  7.500000e-001  1.072396e-001 -1.575416e-001
      vertex  7.500000e-001  7.448212e-002 -1.750509e-001
    endloop
  endfacet
  facet normal  0.000000e+000  2.902849e-001 -9.569402e-001
    outer loop
      vertex  0.000000e+000  7.448212e-002 -1.750509e-001
      vertex  7.500000e-001  7.448212e-002 -1.750509e-001
      vertex  0.000000e+000  3.893816e-002 -1.858330e-001
    endloop
  endfacet
  facet normal  0.000000e+000  2.902849e-001 -9.569402e-001
    outer loop
      vertex  0.000000e+000  3.893816e-002 -1.858330e-001
      vertex  7.500000e-001  7.448212e-002 -1.750509e-001
      vertex  7.500000e-001  3.893816e-002 -1.858330e-001
    endloop
  endfacet
  facet normal  0.000000e+000  9.801708e-002 -9.951847e-001
    outer loop
      vertex  0.000000e+000  3.893816e-002 -1.858330e-001
      vertex  7.500000e-001  3.893816e-002 -1.858330e-001
      vertex  0.000000e+000  1.973684e-003 -1.894737e-001
    endloop
  endfacet
  facet normal  0.000000e+000  9.801708e-002 -9.951847e-001
    outer loop
      vertex  0.000000e+000  1.973684e-003 -1.894737e-001
      vertex  7.500000e-001  3.893816e-002 -1.858330e-001
      vertex  7.500000e-001  1.973684e-003 -1.894737e-001
    endloop
  endfacet
  facet normal  -0.000000e+000 -9.801707e-002 -9.951847e-001
    outer loop
      vertex  0.000000e+000  1.973684e-003 -1.894737e-001
      vertex  7.500000e-001  1.973684e-003 -1.894737e-001
      vertex  0.000000e+000 -3.499080e-002 -1.858330e-001
    endloop
  endfacet
  facet normal  0.000000e+000 -9.801707e-002 -9.951847e-001
    outer loop
      vertex  0.000000e+000 -3.499080e-002 -1.858330e-001
      vertex  7.500000e-001  1.973684e-003 -1.894737e-001
      vertex  7.500000e-001 -3.499080e-002 -1.858330e-001
    endloop
  endfacet
  facet normal  -0.000000e+000 -2.902849e-001 -9.569403e-001
    outer loop
      vertex  0.000000e+000 -3.499080e-002 -1.858330e-001
      vertex  7.500000e-001 -3.499080e-002 -1.858330e-001
      vertex  0.000000e+000 -7.053476e-002 -1.750509e-001
    endloop
  endfacet
  facet normal  0.000000e+000 -2.902849e-001 -9.569403e-001
    outer loop
      vertex  0.000000e+000 -7.053476e-002 -1.750509e-001
      vertex  7.500000e-001 -3.499080e-002 -1.858330e-001
      vertex  7.500000e-001 -7.053476e-002 -1.750509e-001
    endloop
  endfacet
  facet normal  -0.000000e+000 -4.713965e-001 -8.819214e-001
    outer loop
      vertex  0.000000e+000 -7.053476e-002 -1.750509e-001
      vertex  7.500000e-001 -7.053476e-002 -1.750509e-001
      vertex  0.000000e+000 -1.032923e-001 -1.575416e-001
    endloop
  endfacet
  facet normal  0.000000e+000 -4.713965e-001 -8.819214e-001
    outer loop
      vertex  0.000000e+000 -1.032923e-001 -1.575416e-001
      vertex  7.500000e-001 -7.053476e-002 -1.750509e-001
      vertex  7.500000e-001 -1.032923e-001 -1.575416e-001
    endloop
  endfacet
  facet normal  -0.000000e+000 -6.343935e-001 -7.730103e-001
    outer loop
      vertex  0.000000e+000 -1.032923e-001 -1.575416e-001
      vertex  7.500000e-001 -1.032923e-001 -1.575416e-001
      vertex  0.000000e+000 -1.320044e-001 -1.339781e-001
    endloop
  endfacet
  facet normal  0.000000e+000 -6.343935e-001 -7.730103e-001
    outer loop
      vertex  0.000000e+000 -1.320044e-001 -1.339781e-001
      vertex  7.500000e-001 -1.032923e-001 -1.575416e-001
      vertex  7.500000e-001 -1.320044e-001 -1.339781e-001
    endloop
  endfacet
  facet normal  -0.000000e+000 -7.730104e-001 -6.343934e-001
    outer loop
      vertex  0.000000e+000 -1.320044e-001 -1.339781e-001
      vertex  7.500000e-001 -1.320044e-001 -1.339781e-001
      vertex  0.000000e+000 -1.555679e-001 -1.052659e-001
    endloop
  endfacet
  facet normal  0.000000e+000 -7.730104e-001 -6.343934e-001
    outer loop
      vertex  0.000000e+000 -1.555679e-001 -1.052659e-001
      vertex  7.500000e-001 -1.320044e-001 -1.339781e-001
      vertex  7.500000e-001 -1.555679e-001 -1.052659e-001
    endloop
  endfacet
  facet normal  -0.000000e+000 -8.819212e-001 -4.713968e-001
    outer loop
      vertex  0.000000e+000 -1.555679e-001 -1.052659e-001
      vertex  7.500000e-001 -1.555679e-001 -1.052659e-001
      vertex  0.000000e+000 -1.730772e-001 -7.250844e-002
    endloop
  endfacet
  facet normal  0.000000e+000 -8.819212e-001 -4.713968e-001
    outer loop
      vertex  0.000000e+000 -1.730772e-001 -7.250844e-002
      vertex  7.500000e-001 -1.555679e-001 -1.052659e-001
      vertex  7.500000e-001 -1.730772e-001 -7.250844e-002
    endloop
  endfacet
  facet normal  -0.000000e+000 -9.569403e-001 -2.902846e-001
    outer loop
      vertex  0.000000e+000 -1.730772e-001 -7.250844e-002
      vertex  7.500000e-001 -1.730772e-001 -7.250844e-002
      vertex  0.000000e+000 -1.838593e-001 -3.696448e-002
    endloop
  endfacet
  facet normal  0.000000e+000 -9.569403e-001 -2.902846e-001
    outer loop
      vertex  0.000000e+000 -1.838593e-001 -3.696448e-002
      vertex  7.500000e-001 -1.730772e-001 -7.250844e-002
      vertex  7.500000e-001 -1.838593e-001 -3.696448e-002
    endloop
  endfacet
  facet normal  -0.000000e+000 -9.951847e-001 -9.801707e-002
    outer loop
      vertex  0.000000e+000 -1.838593e-001 -3.696448e-002
      vertex  7.500000e-001 -1.838593e-001 -3.696448e-002
      vertex  0.000000e+000 -1.875000e-001  2.320307e-017
    endloop
  endfacet
  facet normal  0.000000e+000 -9.951847e-001 -9.801707e-002
    outer loop
      vertex  0.000000e+000 -1.875000e-001  2.320307e-017
      vertex  7.500000e-001 -1.838593e-001 -3.696448e-002
      vertex  7.500000e-001 -1.875000e-001  2.320307e-017
    endloop
  endfacet
  facet normal  0.000000e+000 -9.951847e-001  9.801707e-002
    outer loop
      vertex  0.000000e+000 -1.875000e-001  2.320307e-017
      vertex  7.500000e-001 -1.875000e-001  2.320307e-017
      vertex  0.000000e+000 -1.838593e-001  3.696448e-002
    endloop
  endfacet
  facet normal  0.000000e+000 -9.951847e-001  9.801707e-002
    outer loop
      vertex  0.000000e+000 -1.838593e-001  3.696448e-002
      vertex  7.500000e-001 -1.875000e-001  2.320307e-017
      vertex  7.500000e-001 -1.838593e-001  3.696448e-002
    endloop
  endfacet
  facet normal  0.000000e+000 -9.569403e-001  2.902846e-001
    outer loop
      vertex  0.000000e+000 -1.838593e-001  3.696448e-002
      vertex  7.500000e-001 -1.838593e-001  3.696448e-002
      vertex  0.000000e+000 -1.730772e-001  7.250844e-002
    endloop
  endfacet
  facet normal  0.000000e+000 -9.569403e-001  2.902846e-001
    outer loop
      vertex  0.000000e+000 -1.730772e-001  7.250844e-002
      vertex  7.500000e-001 -1.838593e-001  3.696448e-002
      vertex  7.500000e-001 -1.730772e-001  7.250844e-002
    endloop
  endfacet
  facet normal  0.000000e+000 -8.819212e-001  4.713968e-001
    outer loop
      vertex  0.000000e+000 -1.730772e-001  7.250844e-002
      vertex  7.500000e-001 -1.730772e-001  7.250844e-002
      vertex  0.000000e+000 -1.555679e-001  1.052659e-001
    endloop
  endfacet
  facet normal  0.000000e+000 -8.819212e-001  4.713968e-001
    outer loop
      vertex  0.000000e+000 -1.555679e-001  1.052659e-001
      vertex  7.500000e-001 -1.730772e-001  7.250844e-002
      vertex  7.500000e-001 -1.555679e-001  1.052659e-001
    endloop
  endfacet
  facet normal  0.000000e+000 -7.730104e-001  6.343934e-001
    outer loop
      vertex  0.000000e+000 -1.555679e-001  1.052659e-001
      vertex  7.500000e-001 -1.555679e-001  1.052659e-001
      vertex  0.000000e+000 -1.320044e-001  1.339781e-001
    endloop
  endfacet
  facet normal  0.000000e+000 -7.730104e-001  6.343934e-001
    outer loop
      vertex  0.000000e+000 -1.320044e-001  1.339781e-001
      vertex  7.500000e-001 -1.555679e-001  1.052659e-001
      vertex  7.500000e-001 -1.320044e-001  1.339781e-001
    endloop
  endfacet
  facet normal  0.000000e+000 -6.343935e-001  7.730103e-001
    outer loop
      vertex  0.000000e+000 -1.320044e-001  1.339781e-001
      vertex  7.500000e-001 -1.320044e-001  1.339781e-001
      vertex  0.000000e+000 -1.032923e-001  1.575416e-001
    endloop
  endfacet
  facet normal  0.000000e+000 -6.343935e-001  7.730103e-001
    outer loop
      vertex  0.000000e+000 -1.032923e-001  1.575416e-001
      vertex  7.500000e-001 -1.320044e-001  1.339781e-001
      vertex  7.500000e-001 -1.032923e-001  1.575416e-001
    endloop
  endfacet
  facet normal  0.000000e+000 -4.713965e-001  8.819214e-001
    outer loop
      vertex  0.000000e+000 -1.032923e-001  1.575416e-001
      vertex  7.500000e-001 -1.032923e-001  1.575416e-001
      vertex  0.000000e+000 -7.053476e-002  1.750509e-001
    endloop
  endfacet
  facet normal  0.000000e+000 -4.713965e-001  8.819214e-001
    outer loop
      vertex  0.000000e+000 -7.053476e-002  1.750509e-001
      vertex  7.500000e-001 -1.032923e-001  1.575416e-001
      vertex  7.500000e-001 -7.053476e-002  1.750509e-001
    endloop
  endfacet
  facet normal  0.000000e+000 -2.902849e-001  9.569403e-001
    outer loop
      vertex  0.000000e+000 -7.053476e-002  1.750509e-001
      vertex  7.500000e-001 -7.053476e-002  1.750509e-001
      vertex  0.000000e+000 -3.499080e-002  1.858330e-001
    endloop
  endfacet
  facet normal  0.000000e+000 -2.902849e-001  9.569403e-001
    outer loop
      vertex  0.000000e+000 -3.499080e-002  1.858330e-001
      vertex  7.500000e-001 -7.053476e-002  1.750509e-001
      vertex  7.500000e-001 -3.499080e-002  1.858330e-001
    endloop
  endfacet
  facet normal  0.000000e+000 -9.801707e-002  9.951847e-001
    outer loop
      vertex  0.000000e+000 -3.499080e-002  1.858330e-001
      vertex  7.500000e-001 -3.499080e-002  1.858330e-001
      vertex  0.000000e+000  1.973684e-003  1.894737e-001
    endloop
  endfacet
  facet normal  0.000000e+000 -9.801707e-002  9.951847e-001
    outer loop
      vertex  0.000000e+000  1.973684e-003  1.894737e-001
      vertex  7.500000e-001 -3.499080e-002  1.858330e-001
      vertex  7.500000e-001  1.973684e-003  1.894737e-001
    endloop
  endfacet
  facet normal  0.000000e+000  9.801708e-002  9.951847e-001
    outer loop
      vertex  0.000000e+000  1.973684e-003  1.894737e-001
      vertex  7.500000e-001  1.973684e-003  1.894737e-001
      vertex  0.000000e+000  3.893816e-002  1.858330e-001
    endloop
  endfacet
  facet normal  -0.000000e+000  9.801708e-002  9.951847e-001
    outer loop
      vertex  0.000000e+000  3.893816e-002  1.858330e-001
      vertex  7.500000e-001  1.973684e-003  1.894737e-001
      vertex  7.500000e-001  3.893816e-002  1.858330e-001
    endloop
  endfacet
  facet normal  0.000000e+000  2.902849e-001  9.569402e-001
    outer loop
      vertex  0.000000e+000  3.893816e-002  1.858330e-001
      vertex  7.500000e-001  3.893816e-002  1.858330e-001
      vertex  0.000000e+000  7.448212e-002  1.750509e-001
    endloop
  endfacet
  facet normal  -0.000000e+000  2.902849e-001  9.569402e-001
    outer loop
      vertex  0.000000e+000  7.448212e-002  1.750509e-001
      vertex  7.500000e-001  3.893816e-002  1.858330e-001
      vertex  7.500000e-001  7.448212e-002  1.750509e-001
    endloop
  endfacet
  facet normal  0.000000e+000  4.713964e-001  8.819215e-001
    outer loop
      vertex  0.000000e+000  7.448212e-002  1.750509e-001
      vertex  7.500000e-001  7.448212e-002  1.750509e-001
      vertex  0.000000e+000  1.072396e-001  1.575416e-001
    endloop
  endfacet
  facet normal  -0.000000e+000  4.713964e-001  8.819215e-001
    outer loop
      vertex  0.000000e+000  1.072396e-001  1.575416e-001
      vertex  7.500000e-001  7.448212e-002  1.750509e-001
      vertex  7.500000e-001  1.072396e-001  1.575416e-001
    endloop
  endfacet
  facet normal  0.000000e+000  6.343934e-001  7.730104e-001
    outer loop
      vertex  0.000000e+000  1.072396e-001  1.575416e-001
      vertex  7.500000e-001  1.072396e-001  1.575416e-001
      vertex  0.000000e+000  1.359518e-001  1.339781e-001
    endloop
  endfacet
  facet normal  -0.000000e+000  6.343934e-001  7.730104e-001
    outer loop
      vertex  0.000000e+000  1.359518e-001  1.339781e-001
      vertex  7.500000e-001  1.072396e-001  1.575416e-001
      vertex  7.500000e-001  1.359518e-001  1.339781e-001
    endloop
  endfacet
  facet normal  0.000000e+000  7.730106e-001  6.343931e-001
    outer loop
      vertex  0.000000e+000  1.359518e-001  1.339781e-001
      vertex  7.500000e-001  1.359518e-001  1.339781e-001
      vertex  0.000000e+000  1.595153e-001  1.052659e-001
    endloop
  endfacet
  facet normal  -0.000000e+000  7.730106e-001  6.343931e-001
    outer loop
      vertex  0.000000e+000  1.595153e-001  1.052659e-001
      vertex  7.500000e-001  1.359518e-001  1.339781e-001
      vertex  7.500000e-001  1.595153e-001  1.052659e-001
    endloop
  endfacet
  facet normal  0.000000e+000  8.819212e-001  4.713968e-001
    outer loop
      vertex  0.000000e+000  1.595153e-001  1.052659e-001
      vertex  7.500000e-001  1.595153e-001  1.052659e-001
      vertex  0.000000e+000  1.770245e-001  7.250844e-002
    endloop
  endfacet
  facet normal  -0.000000e+000  8.819212e-001  4.713968e-001
    outer loop
      vertex  0.000000e+000  1.770245e-001  7.250844e-002
      vertex  7.500000e-001  1.595153e-001  1.052659e-001
      vertex  7.500000e-001  1.770245e-001  7.250844e-002
    endloop
  endfacet
  facet normal  0.000000e+000  9.569403e-001  2.902846e-001
    outer loop
      vertex  0.000000e+000  1.770245e-001  7.250844e-002
      vertex  7.500000e-001  1.770245e-001  7.250844e-002
      vertex  0.000000e+000  1.878067e-001  3.696448e-002
    endloop
  endfacet
  facet normal  -0.000000e+000  9.569403e-001  2.902846e-001
    outer loop
      vertex  0.000000e+000  1.878067e-001  3.696448e-002
      vertex  7.500000e-001  1.770245e-001  7.250844e-002
      vertex  7.500000e-001  1.878067e-001  3.696448e-002
    endloop
  endfacet
  facet normal  0.000000e+000  9.951847e-001  9.801707e-002
    outer loop
      vertex  0.000000e+000  1.878067e-001  3.696448e-002
      vertex  7.500000e-001  1.878067e-001  3.696448e-002
      vertex  0.000000e+000  1.914474e-001 -2.320383e-017
    endloop
  endfacet
  facet normal  -0.000000e+000  9.951847e-001  9.801707e-002
    outer loop
      vertex  0.000000e+000  1.914474e-001 -2.320383e-017
      vertex  7.500000e-001  1.878067e-001  3.696448e-002
      vertex  7.500000e-001  1.914474e-001 -2.320383e-017
    endloop
  endfacet
endsolid CATIA STL
