solid CATIA STL
  facet normal  1.000000e+000  0.000000e+000  0.000000e+000
    outer loop
      vertex -1.875000e-001  6.245005e-017 -3.444319e-017
      vertex -1.875000e-001  6.245005e-017  1.953947e-001
      vertex -1.875000e-001 -3.750000e-001 -3.444319e-017
    endloop
  endfacet
  facet normal  1.000000e+000  0.000000e+000  0.000000e+000
    outer loop
      vertex -1.875000e-001 -3.750000e-001 -3.444319e-017
      vertex -1.875000e-001  6.245005e-017  1.953947e-001
      vertex -1.875000e-001 -3.750000e-001  1.953947e-001
    endloop
  endfacet
  facet normal  0.000000e+000 -1.000000e+000  0.000000e+000
    outer loop
      vertex -7.500000e-001 -3.750000e-001  0.000000e+000
      vertex -1.875000e-001 -3.750000e-001 -3.444319e-017
      vertex -1.875000e-001 -3.750000e-001  1.953947e-001
    endloop
  endfacet
  facet normal  -0.000000e+000 -1.000000e+000  0.000000e+000
    outer loop
      vertex -7.500000e-001 -3.750000e-001  0.000000e+000
      vertex -1.875000e-001 -3.750000e-001  1.953947e-001
      vertex -5.049342e-001 -3.750000e-001  1.953947e-001
    endloop
  endfacet
  facet normal  -0.000000e+000 -1.000000e+000  0.000000e+000
    outer loop
      vertex -7.500000e-001 -3.750000e-001  0.000000e+000
      vertex -5.049342e-001 -3.750000e-001  1.953947e-001
      vertex -7.062500e-001 -3.750000e-001  4.677632e-001
    endloop
  endfacet
  facet normal  -0.000000e+000 -1.000000e+000  0.000000e+000
    outer loop
      vertex -7.500000e-001 -3.750000e-001  0.000000e+000
      vertex -7.062500e-001 -3.750000e-001  4.677632e-001
      vertex -7.500000e-001 -3.750000e-001  4.677632e-001
    endloop
  endfacet
  facet normal  0.000000e+000  -0.000000e+000  1.000000e+000
    outer loop
      vertex -7.500000e-001 -3.750000e-001  4.677632e-001
      vertex -7.062500e-001 -3.750000e-001  4.677632e-001
      vertex -6.823121e-001 -3.734062e-001  4.677632e-001
    endloop
  endfacet
  facet normal  0.000000e+000  -0.000000e+000  1.000000e+000
    outer loop
      vertex -7.500000e-001 -3.750000e-001  4.677632e-001
      vertex -6.823121e-001 -3.734062e-001  4.677632e-001
      vertex -6.588055e-001 -3.686151e-001  4.677632e-001
    endloop
  endfacet
  facet normal  0.000000e+000  -0.000000e+000  1.000000e+000
    outer loop
      vertex -7.500000e-001 -3.750000e-001  4.677632e-001
      vertex -6.588055e-001 -3.686151e-001  4.677632e-001
      vertex -6.428630e-001 -3.633284e-001  4.677632e-001
    endloop
  endfacet
  facet normal  0.000000e+000  -0.000000e+000  1.000000e+000
    outer loop
      vertex -7.500000e-001 -3.750000e-001  4.677632e-001
      vertex -6.428630e-001 -3.633284e-001  4.677632e-001
      vertex -6.274813e-001 -3.563952e-001  4.677632e-001
    endloop
  endfacet
  facet normal  0.000000e+000  -0.000000e+000  1.000000e+000
    outer loop
      vertex -7.500000e-001 -3.750000e-001  4.677632e-001
      vertex -6.274813e-001 -3.563952e-001  4.677632e-001
      vertex -6.147701e-001 -3.490279e-001  4.677632e-001
    endloop
  endfacet
  facet normal  0.000000e+000  -0.000000e+000  1.000000e+000
    outer loop
      vertex -7.500000e-001 -3.750000e-001  4.677632e-001
      vertex -6.147701e-001 -3.490279e-001  4.677632e-001
      vertex -6.029233e-001 -3.404472e-001  4.677632e-001
    endloop
  endfacet
  facet normal  0.000000e+000  -0.000000e+000  9.999999e-001
    outer loop
      vertex -7.500000e-001 -3.750000e-001  4.677632e-001
      vertex -6.029233e-001 -3.404472e-001  4.677632e-001
      vertex -5.884674e-001 -3.268108e-001  4.677632e-001
    endloop
  endfacet
  facet normal  0.000000e+000  -0.000000e+000  1.000000e+000
    outer loop
      vertex -7.500000e-001 -3.750000e-001  4.677632e-001
      vertex -5.884674e-001 -3.268108e-001  4.677632e-001
      vertex -5.764118e-001 -3.110186e-001  4.677632e-001
    endloop
  endfacet
  facet normal  0.000000e+000  -0.000000e+000  1.000000e+000
    outer loop
      vertex -7.500000e-001 -3.750000e-001  4.677632e-001
      vertex -5.764118e-001 -3.110186e-001  4.677632e-001
      vertex -5.677553e-001 -2.942509e-001  4.677632e-001
    endloop
  endfacet
  facet normal  0.000000e+000  -0.000000e+000  1.000000e+000
    outer loop
      vertex -7.500000e-001 -3.750000e-001  4.677632e-001
      vertex -5.677553e-001 -2.942509e-001  4.677632e-001
      vertex -5.623279e-001 -2.761824e-001  4.677632e-001
    endloop
  endfacet
  facet normal  0.000000e+000  -0.000000e+000  1.000000e+000
    outer loop
      vertex -7.500000e-001 -3.750000e-001  4.677632e-001
      vertex -5.623279e-001 -2.761824e-001  4.677632e-001
      vertex -5.605263e-001 -2.578125e-001  4.677632e-001
    endloop
  endfacet
  facet normal  0.000000e+000  -0.000000e+000  1.000000e+000
    outer loop
      vertex -7.500000e-001 -3.750000e-001  4.677632e-001
      vertex -5.605263e-001 -2.578125e-001  4.677632e-001
      vertex -5.605263e-001  2.103581e-017  4.677632e-001
    endloop
  endfacet
  facet normal  0.000000e+000  0.000000e+000  1.000000e+000
    outer loop
      vertex -7.500000e-001 -3.750000e-001  4.677632e-001
      vertex -5.605263e-001  2.103581e-017  4.677632e-001
      vertex -7.500000e-001  3.179927e-033  4.677632e-001
    endloop
  endfacet
  facet normal  8.041762e-001  0.000000e+000  5.943911e-001
    outer loop
      vertex -3.592105e-001  4.338635e-017  1.953947e-001
      vertex -5.605263e-001  2.103581e-017  4.677632e-001
      vertex -3.592105e-001 -2.578125e-001  1.953947e-001
    endloop
  endfacet
  facet normal  8.041762e-001  0.000000e+000  5.943911e-001
    outer loop
      vertex -3.592105e-001 -2.578125e-001  1.953947e-001
      vertex -5.605263e-001  2.103581e-017  4.677632e-001
      vertex -5.605263e-001 -2.578125e-001  4.677632e-001
    endloop
  endfacet
  facet normal  0.000000e+000  0.000000e+000  1.000000e+000
    outer loop
      vertex -1.875000e-001 -3.750000e-001  1.953947e-001
      vertex -1.875000e-001  6.245005e-017  1.953947e-001
      vertex -3.592105e-001  4.338635e-017  1.953947e-001
    endloop
  endfacet
  facet normal  0.000000e+000  0.000000e+000  9.999999e-001
    outer loop
      vertex -1.875000e-001 -3.750000e-001  1.953947e-001
      vertex -3.592105e-001  4.338635e-017  1.953947e-001
      vertex -3.592105e-001 -2.578125e-001  1.953947e-001
    endloop
  endfacet
  facet normal  0.000000e+000  0.000000e+000  1.000000e+000
    outer loop
      vertex -1.875000e-001 -3.750000e-001  1.953947e-001
      vertex -3.592105e-001 -2.578125e-001  1.953947e-001
      vertex -3.610121e-001 -2.761824e-001  1.953947e-001
    endloop
  endfacet
  facet normal  0.000000e+000  0.000000e+000  1.000000e+000
    outer loop
      vertex -1.875000e-001 -3.750000e-001  1.953947e-001
      vertex -3.610121e-001 -2.761824e-001  1.953947e-001
      vertex -3.664395e-001 -2.942509e-001  1.953947e-001
    endloop
  endfacet
  facet normal  0.000000e+000  0.000000e+000  9.999999e-001
    outer loop
      vertex -1.875000e-001 -3.750000e-001  1.953947e-001
      vertex -3.664395e-001 -2.942509e-001  1.953947e-001
      vertex -3.750961e-001 -3.110186e-001  1.953947e-001
    endloop
  endfacet
  facet normal  0.000000e+000  0.000000e+000  1.000000e+000
    outer loop
      vertex -1.875000e-001 -3.750000e-001  1.953947e-001
      vertex -3.750961e-001 -3.110186e-001  1.953947e-001
      vertex -3.871517e-001 -3.268108e-001  1.953947e-001
    endloop
  endfacet
  facet normal  0.000000e+000  0.000000e+000  1.000000e+000
    outer loop
      vertex -1.875000e-001 -3.750000e-001  1.953947e-001
      vertex -3.871517e-001 -3.268108e-001  1.953947e-001
      vertex -4.016075e-001 -3.404472e-001  1.953947e-001
    endloop
  endfacet
  facet normal  0.000000e+000  0.000000e+000  1.000000e+000
    outer loop
      vertex -1.875000e-001 -3.750000e-001  1.953947e-001
      vertex -4.016075e-001 -3.404472e-001  1.953947e-001
      vertex -4.140358e-001 -3.494025e-001  1.953947e-001
    endloop
  endfacet
  facet normal  0.000000e+000  0.000000e+000  1.000000e+000
    outer loop
      vertex -1.875000e-001 -3.750000e-001  1.953947e-001
      vertex -4.140358e-001 -3.494025e-001  1.953947e-001
      vertex -4.274037e-001 -3.570269e-001  1.953947e-001
    endloop
  endfacet
  facet normal  0.000000e+000  0.000000e+000  9.999999e-001
    outer loop
      vertex -1.875000e-001 -3.750000e-001  1.953947e-001
      vertex -4.274037e-001 -3.570269e-001  1.953947e-001
      vertex -4.429039e-001 -3.638483e-001  1.953947e-001
    endloop
  endfacet
  facet normal  0.000000e+000  0.000000e+000  1.000000e+000
    outer loop
      vertex -1.875000e-001 -3.750000e-001  1.953947e-001
      vertex -4.429039e-001 -3.638483e-001  1.953947e-001
      vertex -4.589493e-001 -3.690123e-001  1.953947e-001
    endloop
  endfacet
  facet normal  0.000000e+000  0.000000e+000  1.000000e+000
    outer loop
      vertex -1.875000e-001 -3.750000e-001  1.953947e-001
      vertex -4.589493e-001 -3.690123e-001  1.953947e-001
      vertex -4.817461e-001 -3.735053e-001  1.953947e-001
    endloop
  endfacet
  facet normal  0.000000e+000  0.000000e+000  1.000000e+000
    outer loop
      vertex -1.875000e-001 -3.750000e-001  1.953947e-001
      vertex -4.817461e-001 -3.735053e-001  1.953947e-001
      vertex -5.049342e-001 -3.750000e-001  1.953947e-001
    endloop
  endfacet
  facet normal -6.123234e-017  -0.000000e+000 -1.000000e+000
    outer loop
      vertex -7.500000e-001 -3.750000e-001  0.000000e+000
      vertex -7.500000e-001  0.000000e+000  0.000000e+000
      vertex -1.875000e-001 -3.750000e-001 -3.444319e-017
    endloop
  endfacet
  facet normal -6.123234e-017  0.000000e+000 -1.000000e+000
    outer loop
      vertex -1.875000e-001 -3.750000e-001 -3.444319e-017
      vertex -7.500000e-001  0.000000e+000  0.000000e+000
      vertex -1.875000e-001  6.245005e-017 -3.444319e-017
    endloop
  endfacet
  facet normal  8.016868e-001 -7.862200e-002  5.925511e-001
    outer loop
      vertex -3.592105e-001 -2.578125e-001  1.953947e-001
      vertex -5.605263e-001 -2.578125e-001  4.677632e-001
      vertex -3.610121e-001 -2.761824e-001  1.953947e-001
    endloop
  endfacet
  facet normal  8.016868e-001 -7.862200e-002  5.925511e-001
    outer loop
      vertex -3.610121e-001 -2.761824e-001  1.953947e-001
      vertex -5.605263e-001 -2.578125e-001  4.677632e-001
      vertex -5.623279e-001 -2.761824e-001  4.677632e-001
    endloop
  endfacet
  facet normal  7.816931e-001 -2.348065e-001  5.777732e-001
    outer loop
      vertex -3.610121e-001 -2.761824e-001  1.953947e-001
      vertex -5.623279e-001 -2.761824e-001  4.677632e-001
      vertex -3.664395e-001 -2.942509e-001  1.953947e-001
    endloop
  endfacet
  facet normal  7.816933e-001 -2.348053e-001  5.777733e-001
    outer loop
      vertex -3.664395e-001 -2.942509e-001  1.953947e-001
      vertex -5.623279e-001 -2.761824e-001  4.677632e-001
      vertex -5.677553e-001 -2.942509e-001  4.677632e-001
    endloop
  endfacet
  facet normal  7.427115e-001 -3.834344e-001  5.489606e-001
    outer loop
      vertex -3.664395e-001 -2.942509e-001  1.953947e-001
      vertex -5.677553e-001 -2.942509e-001  4.677632e-001
      vertex -3.750961e-001 -3.110186e-001  1.953947e-001
    endloop
  endfacet
  facet normal  7.427115e-001 -3.834344e-001  5.489606e-001
    outer loop
      vertex -3.750961e-001 -3.110186e-001  1.953947e-001
      vertex -5.677553e-001 -2.942509e-001  4.677632e-001
      vertex -5.764118e-001 -3.110186e-001  4.677632e-001
    endloop
  endfacet
  facet normal  6.853374e-001 -5.231786e-001  5.065536e-001
    outer loop
      vertex -3.750961e-001 -3.110186e-001  1.953947e-001
      vertex -5.764118e-001 -3.110186e-001  4.677632e-001
      vertex -3.871517e-001 -3.268108e-001  1.953947e-001
    endloop
  endfacet
  facet normal  6.853374e-001 -5.231786e-001  5.065536e-001
    outer loop
      vertex -3.871517e-001 -3.268108e-001  1.953947e-001
      vertex -5.764118e-001 -3.110186e-001  4.677632e-001
      vertex -5.884674e-001 -3.268108e-001  4.677632e-001
    endloop
  endfacet
  facet normal  6.119758e-001 -6.487551e-001  4.523298e-001
    outer loop
      vertex -3.871517e-001 -3.268108e-001  1.953947e-001
      vertex -5.884674e-001 -3.268108e-001  4.677632e-001
      vertex -4.016075e-001 -3.404472e-001  1.953947e-001
    endloop
  endfacet
  facet normal  6.119753e-001 -6.487558e-001  4.523295e-001
    outer loop
      vertex -4.016075e-001 -3.404472e-001  1.953947e-001
      vertex -5.884674e-001 -3.268108e-001  4.677632e-001
      vertex -6.029233e-001 -3.404472e-001  4.677632e-001
    endloop
  endfacet
  facet normal  5.366490e-001 -7.447643e-001  3.966536e-001
    outer loop
      vertex -4.016075e-001 -3.404472e-001  1.953947e-001
      vertex -6.029233e-001 -3.404472e-001  4.677632e-001
      vertex -4.140358e-001 -3.494025e-001  1.953947e-001
    endloop
  endfacet
  facet normal  5.382192e-001 -7.430782e-001  3.976870e-001
    outer loop
      vertex -4.140358e-001 -3.494025e-001  1.953947e-001
      vertex -6.029233e-001 -3.404472e-001  4.677632e-001
      vertex -6.147701e-001 -3.490279e-001  4.677632e-001
    endloop
  endfacet
  facet normal  4.652034e-001 -8.156393e-001  3.439746e-001
    outer loop
      vertex -4.140358e-001 -3.494025e-001  1.953947e-001
      vertex -6.147701e-001 -3.490279e-001  4.677632e-001
      vertex -4.274037e-001 -3.570269e-001  1.953947e-001
    endloop
  endfacet
  facet normal  4.702340e-001 -8.113301e-001  3.473086e-001
    outer loop
      vertex -4.274037e-001 -3.570269e-001  1.953947e-001
      vertex -6.147701e-001 -3.490279e-001  4.677632e-001
      vertex -6.274813e-001 -3.563952e-001  4.677632e-001
    endloop
  endfacet
  facet normal  3.860248e-001 -8.771637e-001  2.856025e-001
    outer loop
      vertex -4.274037e-001 -3.570269e-001  1.953947e-001
      vertex -6.274813e-001 -3.563952e-001  4.677632e-001
      vertex -4.429039e-001 -3.638483e-001  1.953947e-001
    endloop
  endfacet
  facet normal  3.932285e-001 -8.723910e-001  2.903538e-001
    outer loop
      vertex -4.429039e-001 -3.638483e-001  1.953947e-001
      vertex -6.274813e-001 -3.563952e-001  4.677632e-001
      vertex -6.428630e-001 -3.633284e-001  4.677632e-001
    endloop
  endfacet
  facet normal  2.987759e-001 -9.283532e-001  2.211183e-001
    outer loop
      vertex -4.429039e-001 -3.638483e-001  1.953947e-001
      vertex -6.428630e-001 -3.633284e-001  4.677632e-001
      vertex -4.589493e-001 -3.690123e-001  1.953947e-001
    endloop
  endfacet
  facet normal  3.065860e-001 -9.245473e-001  2.263125e-001
    outer loop
      vertex -4.589493e-001 -3.690123e-001  1.953947e-001
      vertex -6.428630e-001 -3.633284e-001  4.677632e-001
      vertex -6.588055e-001 -3.686151e-001  4.677632e-001
    endloop
  endfacet
  facet normal  1.914122e-001 -9.712026e-001  1.418693e-001
    outer loop
      vertex -4.589493e-001 -3.690123e-001  1.953947e-001
      vertex -6.588055e-001 -3.686151e-001  4.677632e-001
      vertex -4.817461e-001 -3.735053e-001  1.953947e-001
    endloop
  endfacet
  facet normal  1.975812e-001 -9.693763e-001  1.458468e-001
    outer loop
      vertex -4.817461e-001 -3.735053e-001  1.953947e-001
      vertex -6.588055e-001 -3.686151e-001  4.677632e-001
      vertex -6.823121e-001 -3.734062e-001  4.677632e-001
    endloop
  endfacet
  facet normal  6.425469e-002 -9.967940e-001  4.767814e-002
    outer loop
      vertex -4.817461e-001 -3.735053e-001  1.953947e-001
      vertex -6.823121e-001 -3.734062e-001  4.677632e-001
      vertex -5.049342e-001 -3.750000e-001  1.953947e-001
    endloop
  endfacet
  facet normal  6.635217e-002 -9.965903e-001  4.904291e-002
    outer loop
      vertex -5.049342e-001 -3.750000e-001  1.953947e-001
      vertex -6.823121e-001 -3.734062e-001  4.677632e-001
      vertex -7.062500e-001 -3.750000e-001  4.677632e-001
    endloop
  endfacet
  facet normal -1.110223e-016  1.000000e+000 -6.798156e-033
    outer loop
      vertex -7.500000e-001  0.000000e+000  0.000000e+000
      vertex -7.500000e-001  3.179927e-033  4.677632e-001
      vertex -5.605263e-001  2.103581e-017  4.677632e-001
    endloop
  endfacet
  facet normal -1.110223e-016  1.000000e+000  0.000000e+000
    outer loop
      vertex -7.500000e-001  0.000000e+000  0.000000e+000
      vertex -5.605263e-001  2.103581e-017  4.677632e-001
      vertex -3.592105e-001  4.338635e-017  1.953947e-001
    endloop
  endfacet
  facet normal -1.110223e-016  1.000000e+000  0.000000e+000
    outer loop
      vertex -7.500000e-001  0.000000e+000  0.000000e+000
      vertex -3.592105e-001  4.338635e-017  1.953947e-001
      vertex -1.875000e-001  6.245005e-017  1.953947e-001
    endloop
  endfacet
  facet normal -1.110223e-016  1.000000e+000  0.000000e+000
    outer loop
      vertex -7.500000e-001  0.000000e+000  0.000000e+000
      vertex -1.875000e-001  6.245005e-017  1.953947e-001
      vertex -1.875000e-001  6.245005e-017 -3.444319e-017
    endloop
  endfacet
  facet normal -1.000000e+000  -0.000000e+000  0.000000e+000
    outer loop
      vertex -7.500000e-001 -3.750000e-001  4.677632e-001
      vertex -7.500000e-001  3.179927e-033  4.677632e-001
      vertex -7.500000e-001 -3.750000e-001  0.000000e+000
    endloop
  endfacet
  facet normal -1.000000e+000  0.000000e+000  0.000000e+000
    outer loop
      vertex -7.500000e-001 -3.750000e-001  0.000000e+000
      vertex -7.500000e-001  3.179927e-033  4.677632e-001
      vertex -7.500000e-001  0.000000e+000  0.000000e+000
    endloop
  endfacet
endsolid CATIA STL
