solid CATIA STL
  facet normal  1.000000e+000  0.000000e+000  -0.000000e+000
    outer loop
      vertex -1.018915e-001 -3.125000e-002 -7.500000e-001
      vertex -1.018915e-001  1.716463e-018 -7.500000e-001
      vertex -1.018915e-001  1.643057e-016  7.144737e-001
    endloop
  endfacet
  facet normal  1.000000e+000  0.000000e+000  0.000000e+000
    outer loop
      vertex -1.018915e-001 -3.125000e-002 -7.500000e-001
      vertex -1.018915e-001  1.643057e-016  7.144737e-001
      vertex -1.018915e-001 -7.812500e-003  7.144737e-001
    endloop
  endfacet
  facet normal  1.000000e+000  0.000000e+000  0.000000e+000
    outer loop
      vertex -1.018915e-001 -3.125000e-002 -7.500000e-001
      vertex -1.018915e-001 -7.812500e-003  7.144737e-001
      vertex -1.018915e-001 -2.343750e-002  7.144737e-001
    endloop
  endfacet
  facet normal  1.000000e+000  0.000000e+000  0.000000e+000
    outer loop
      vertex -1.018915e-001 -3.125000e-002 -7.500000e-001
      vertex -1.018915e-001 -2.343750e-002  7.144737e-001
      vertex -1.018915e-001 -3.125000e-002  7.144737e-001
    endloop
  endfacet
  facet normal  1.000000e+000  0.000000e+000  0.000000e+000
    outer loop
      vertex -1.018915e-001 -2.343750e-002  7.144737e-001
      vertex -1.018915e-001 -7.812500e-003  7.144737e-001
      vertex -1.018915e-001 -2.343750e-002  7.187500e-001
    endloop
  endfacet
  facet normal  1.000000e+000  -0.000000e+000  0.000000e+000
    outer loop
      vertex -1.018915e-001 -2.343750e-002  7.187500e-001
      vertex -1.018915e-001 -7.812500e-003  7.144737e-001
      vertex -1.018915e-001 -7.812500e-003  7.187500e-001
    endloop
  endfacet
  facet normal  -0.000000e+000  0.000000e+000  9.999999e-001
    outer loop
      vertex -1.018915e-001 -7.812500e-003  7.187500e-001
      vertex -1.328125e-001 -7.812500e-003  7.187500e-001
      vertex -1.018915e-001 -2.343750e-002  7.187500e-001
    endloop
  endfacet
  facet normal  0.000000e+000  0.000000e+000  9.999999e-001
    outer loop
      vertex -1.018915e-001 -2.343750e-002  7.187500e-001
      vertex -1.328125e-001 -7.812500e-003  7.187500e-001
      vertex -1.328125e-001 -2.343750e-002  7.187500e-001
    endloop
  endfacet
  facet normal -1.000000e+000  0.000000e+000  0.000000e+000
    outer loop
      vertex -1.328125e-001  0.000000e+000 -7.500000e-001
      vertex -1.328125e-001 -3.125000e-002 -7.500000e-001
      vertex -1.328125e-001 -3.125000e-002  7.144737e-001
    endloop
  endfacet
  facet normal -1.000000e+000  0.000000e+000  0.000000e+000
    outer loop
      vertex -1.328125e-001  0.000000e+000 -7.500000e-001
      vertex -1.328125e-001 -3.125000e-002  7.144737e-001
      vertex -1.328125e-001 -2.343750e-002  7.144737e-001
    endloop
  endfacet
  facet normal -1.000000e+000  0.000000e+000  0.000000e+000
    outer loop
      vertex -1.328125e-001  0.000000e+000 -7.500000e-001
      vertex -1.328125e-001 -2.343750e-002  7.144737e-001
      vertex -1.328125e-001 -7.812500e-003  7.144737e-001
    endloop
  endfacet
  facet normal -1.000000e+000  0.000000e+000  0.000000e+000
    outer loop
      vertex -1.328125e-001  0.000000e+000 -7.500000e-001
      vertex -1.328125e-001 -7.812500e-003  7.144737e-001
      vertex -1.328125e-001  1.625892e-016  7.144737e-001
    endloop
  endfacet
  facet normal -1.000000e+000  -0.000000e+000  0.000000e+000
    outer loop
      vertex -1.328125e-001 -2.343750e-002  7.187500e-001
      vertex -1.328125e-001 -7.812500e-003  7.187500e-001
      vertex -1.328125e-001 -2.343750e-002  7.144737e-001
    endloop
  endfacet
  facet normal -1.000000e+000  0.000000e+000  0.000000e+000
    outer loop
      vertex -1.328125e-001 -2.343750e-002  7.144737e-001
      vertex -1.328125e-001 -7.812500e-003  7.187500e-001
      vertex -1.328125e-001 -7.812500e-003  7.144737e-001
    endloop
  endfacet
  facet normal -5.551103e-017  1.000000e+000 -1.110223e-016
    outer loop
      vertex -1.328125e-001  0.000000e+000 -7.500000e-001
      vertex -1.328125e-001  1.625892e-016  7.144737e-001
      vertex -1.018915e-001  1.716463e-018 -7.500000e-001
    endloop
  endfacet
  facet normal -5.551103e-017  1.000000e+000 -1.110223e-016
    outer loop
      vertex -1.018915e-001  1.716463e-018 -7.500000e-001
      vertex -1.328125e-001  1.625892e-016  7.144737e-001
      vertex -1.018915e-001  1.643057e-016  7.144737e-001
    endloop
  endfacet
  facet normal  0.000000e+000 -1.000000e+000  0.000000e+000
    outer loop
      vertex -1.328125e-001 -3.125000e-002 -7.500000e-001
      vertex -1.018915e-001 -3.125000e-002 -7.500000e-001
      vertex -1.328125e-001 -3.125000e-002  7.144737e-001
    endloop
  endfacet
  facet normal  0.000000e+000 -1.000000e+000  0.000000e+000
    outer loop
      vertex -1.328125e-001 -3.125000e-002  7.144737e-001
      vertex -1.018915e-001 -3.125000e-002 -7.500000e-001
      vertex -1.018915e-001 -3.125000e-002  7.144737e-001
    endloop
  endfacet
  facet normal  0.000000e+000  1.000000e+000  -0.000000e+000
    outer loop
      vertex -1.018915e-001 -2.343750e-002  7.187500e-001
      vertex -1.328125e-001 -2.343750e-002  7.187500e-001
      vertex -5.436389e-001 -2.343750e-002  7.421875e-001
    endloop
  endfacet
  facet normal  0.000000e+000  1.000000e+000  -0.000000e+000
    outer loop
      vertex -1.328125e-001 -2.343750e-002  7.187500e-001
      vertex -5.159252e-001 -2.343750e-002  7.144737e-001
      vertex -5.436389e-001 -2.343750e-002  7.421875e-001
    endloop
  endfacet
  facet normal  0.000000e+000  1.000000e+000  0.000000e+000
    outer loop
      vertex -5.159252e-001 -2.343750e-002  7.144737e-001
      vertex -1.328125e-001 -2.343750e-002  7.187500e-001
      vertex -1.361842e-001 -2.343750e-002  7.144737e-001
    endloop
  endfacet
  facet normal  0.000000e+000  1.000000e+000  -0.000000e+000
    outer loop
      vertex -1.328125e-001 -2.343750e-002  7.187500e-001
      vertex -1.328125e-001 -2.343750e-002  7.144737e-001
      vertex -1.361842e-001 -2.343750e-002  7.144737e-001
    endloop
  endfacet
  facet normal  0.000000e+000  1.000000e+000  0.000000e+000
    outer loop
      vertex  5.390625e-001 -2.343750e-002 -7.421875e-001
      vertex  5.390625e-001 -2.343750e-002 -7.184210e-001
      vertex  5.550165e-001 -2.343750e-002 -7.421875e-001
    endloop
  endfacet
  facet normal  0.000000e+000  9.999999e-001  -0.000000e+000
    outer loop
      vertex  5.390625e-001 -2.343750e-002  7.376111e-001
      vertex -1.018915e-001 -2.343750e-002  7.187500e-001
      vertex -5.436389e-001 -2.343750e-002  7.421875e-001
    endloop
  endfacet
  facet normal  -0.000000e+000  1.000000e+000  0.000000e+000
    outer loop
      vertex  5.390625e-001 -2.343750e-002  7.376111e-001
      vertex -5.436389e-001 -2.343750e-002  7.421875e-001
      vertex  5.550165e-001 -2.343750e-002  7.421875e-001
    endloop
  endfacet
  facet normal  0.000000e+000  9.999999e-001  0.000000e+000
    outer loop
      vertex  5.390625e-001 -2.343750e-002  7.376111e-001
      vertex  5.550165e-001 -2.343750e-002  7.421875e-001
      vertex  5.550165e-001 -2.343750e-002 -7.421875e-001
    endloop
  endfacet
  facet normal  0.000000e+000  9.999999e-001  0.000000e+000
    outer loop
      vertex  5.390625e-001 -2.343750e-002  7.376111e-001
      vertex  5.550165e-001 -2.343750e-002 -7.421875e-001
      vertex  5.390625e-001 -2.343750e-002 -7.184210e-001
    endloop
  endfacet
  facet normal  0.000000e+000  9.999999e-001  0.000000e+000
    outer loop
      vertex -1.006579e-001 -2.343750e-002  7.144737e-001
      vertex -1.018915e-001 -2.343750e-002  7.144737e-001
      vertex -1.018915e-001 -2.343750e-002  7.187500e-001
    endloop
  endfacet
  facet normal  -0.000000e+000  1.000000e+000  0.000000e+000
    outer loop
      vertex -1.006579e-001 -2.343750e-002  7.144737e-001
      vertex -1.018915e-001 -2.343750e-002  7.187500e-001
      vertex  5.390625e-001 -2.343750e-002  7.376111e-001
    endloop
  endfacet
  facet normal  0.000000e+000  1.000000e+000  0.000000e+000
    outer loop
      vertex -1.006579e-001 -2.343750e-002  7.144737e-001
      vertex  5.390625e-001 -2.343750e-002  7.376111e-001
      vertex  5.156250e-001 -2.343750e-002  7.144737e-001
    endloop
  endfacet
  facet normal  0.000000e+000 -1.000000e+000  0.000000e+000
    outer loop
      vertex -5.436389e-001 -7.812500e-003  7.421875e-001
      vertex -1.328125e-001 -7.812500e-003  7.187500e-001
      vertex -1.018915e-001 -7.812500e-003  7.187500e-001
    endloop
  endfacet
  facet normal  0.000000e+000 -1.000000e+000  0.000000e+000
    outer loop
      vertex -5.436389e-001 -7.812500e-003  7.421875e-001
      vertex -5.159252e-001 -7.812500e-003  7.144737e-001
      vertex -1.328125e-001 -7.812500e-003  7.187500e-001
    endloop
  endfacet
  facet normal  0.000000e+000 -1.000000e+000  0.000000e+000
    outer loop
      vertex -1.361842e-001 -7.812500e-003  7.144737e-001
      vertex -1.328125e-001 -7.812500e-003  7.187500e-001
      vertex -5.159252e-001 -7.812500e-003  7.144737e-001
    endloop
  endfacet
  facet normal  0.000000e+000 -1.000000e+000  0.000000e+000
    outer loop
      vertex -1.361842e-001 -7.812500e-003  7.144737e-001
      vertex -1.328125e-001 -7.812500e-003  7.144737e-001
      vertex -1.328125e-001 -7.812500e-003  7.187500e-001
    endloop
  endfacet
  facet normal  0.000000e+000 -1.000000e+000  0.000000e+000
    outer loop
      vertex  5.550165e-001 -7.812500e-003 -7.421875e-001
      vertex  5.390625e-001 -7.812500e-003 -7.184210e-001
      vertex  5.390625e-001 -7.812500e-003 -7.421875e-001
    endloop
  endfacet
  facet normal  0.000000e+000 -9.999999e-001  0.000000e+000
    outer loop
      vertex  5.390625e-001 -7.812500e-003  7.376111e-001
      vertex  5.390625e-001 -7.812500e-003 -7.184210e-001
      vertex  5.550165e-001 -7.812500e-003 -7.421875e-001
    endloop
  endfacet
  facet normal  0.000000e+000 -9.999999e-001  0.000000e+000
    outer loop
      vertex  5.390625e-001 -7.812500e-003  7.376111e-001
      vertex  5.550165e-001 -7.812500e-003 -7.421875e-001
      vertex  5.550165e-001 -7.812500e-003  7.421875e-001
    endloop
  endfacet
  facet normal  -0.000000e+000 -1.000000e+000  0.000000e+000
    outer loop
      vertex  5.390625e-001 -7.812500e-003  7.376111e-001
      vertex  5.550165e-001 -7.812500e-003  7.421875e-001
      vertex -5.436389e-001 -7.812500e-003  7.421875e-001
    endloop
  endfacet
  facet normal  0.000000e+000 -9.999999e-001  0.000000e+000
    outer loop
      vertex  5.390625e-001 -7.812500e-003  7.376111e-001
      vertex -5.436389e-001 -7.812500e-003  7.421875e-001
      vertex -1.018915e-001 -7.812500e-003  7.187500e-001
    endloop
  endfacet
  facet normal  0.000000e+000 -1.000000e+000  0.000000e+000
    outer loop
      vertex -1.006579e-001 -7.812500e-003  7.144737e-001
      vertex  5.156250e-001 -7.812500e-003  7.144737e-001
      vertex  5.390625e-001 -7.812500e-003  7.376111e-001
    endloop
  endfacet
  facet normal  0.000000e+000 -1.000000e+000  0.000000e+000
    outer loop
      vertex -1.006579e-001 -7.812500e-003  7.144737e-001
      vertex  5.390625e-001 -7.812500e-003  7.376111e-001
      vertex -1.018915e-001 -7.812500e-003  7.187500e-001
    endloop
  endfacet
  facet normal  0.000000e+000 -9.999999e-001  0.000000e+000
    outer loop
      vertex -1.006579e-001 -7.812500e-003  7.144737e-001
      vertex -1.018915e-001 -7.812500e-003  7.187500e-001
      vertex -1.018915e-001 -7.812500e-003  7.144737e-001
    endloop
  endfacet
  facet normal  0.000000e+000  0.000000e+000 -9.999999e-001
    outer loop
      vertex -5.159252e-001 -2.343750e-002  7.144737e-001
      vertex -1.361842e-001 -4.687500e-002  7.144737e-001
      vertex -5.309210e-001 -3.125000e-002  7.144737e-001
    endloop
  endfacet
  facet normal  -0.000000e+000  -0.000000e+000 -9.999999e-001
    outer loop
      vertex -5.159252e-001 -2.343750e-002  7.144737e-001
      vertex -1.361842e-001 -2.343750e-002  7.144737e-001
      vertex -1.361842e-001 -4.687500e-002  7.144737e-001
    endloop
  endfacet
  facet normal  0.000000e+000  0.000000e+000 -1.000000e+000
    outer loop
      vertex -1.328125e-001 -2.343750e-002  7.144737e-001
      vertex -1.361842e-001 -4.687500e-002  7.144737e-001
      vertex -1.361842e-001 -2.343750e-002  7.144737e-001
    endloop
  endfacet
  facet normal  -0.000000e+000  0.000000e+000 -1.000000e+000
    outer loop
      vertex -1.328125e-001 -2.343750e-002  7.144737e-001
      vertex -1.328125e-001 -3.125000e-002  7.144737e-001
      vertex -1.361842e-001 -4.687500e-002  7.144737e-001
    endloop
  endfacet
  facet normal  0.000000e+000  -0.000000e+000 -1.000000e+000
    outer loop
      vertex -5.490708e-001 -4.687500e-002  7.144737e-001
      vertex -5.309210e-001 -3.125000e-002  7.144737e-001
      vertex -1.361842e-001 -4.687500e-002  7.144737e-001
    endloop
  endfacet
  facet normal  0.000000e+000  0.000000e+000 -1.000000e+000
    outer loop
      vertex -5.490708e-001 -4.687500e-002  7.144737e-001
      vertex -5.490708e-001 -3.125000e-002  7.144737e-001
      vertex -5.309210e-001 -3.125000e-002  7.144737e-001
    endloop
  endfacet
  facet normal  0.000000e+000  0.000000e+000 -1.000000e+000
    outer loop
      vertex -1.006579e-001  1.562500e-002  7.144737e-001
      vertex -1.006579e-001 -7.812500e-003  7.144737e-001
      vertex -1.018915e-001 -7.812500e-003  7.144737e-001
    endloop
  endfacet
  facet normal  0.000000e+000  0.000000e+000 -1.000000e+000
    outer loop
      vertex -1.006579e-001  1.562500e-002  7.144737e-001
      vertex -1.018915e-001 -7.812500e-003  7.144737e-001
      vertex -1.018915e-001  1.643057e-016  7.144737e-001
    endloop
  endfacet
  facet normal  -0.000000e+000  0.000000e+000 -9.999999e-001
    outer loop
      vertex -1.006579e-001  1.562500e-002  7.144737e-001
      vertex -1.018915e-001  1.643057e-016  7.144737e-001
      vertex -1.328125e-001  1.625892e-016  7.144737e-001
    endloop
  endfacet
  facet normal  0.000000e+000  0.000000e+000 -1.000000e+000
    outer loop
      vertex -1.006579e-001  1.562500e-002  7.144737e-001
      vertex -1.328125e-001  1.625892e-016  7.144737e-001
      vertex -1.361842e-001  1.562500e-002  7.144737e-001
    endloop
  endfacet
  facet normal  0.000000e+000  0.000000e+000 -1.000000e+000
    outer loop
      vertex -1.018915e-001 -3.125000e-002  7.144737e-001
      vertex -1.018915e-001 -2.343750e-002  7.144737e-001
      vertex -1.006579e-001 -2.343750e-002  7.144737e-001
    endloop
  endfacet
  facet normal  0.000000e+000  -0.000000e+000 -1.000000e+000
    outer loop
      vertex -1.018915e-001 -3.125000e-002  7.144737e-001
      vertex -1.006579e-001 -2.343750e-002  7.144737e-001
      vertex -1.006579e-001 -4.687500e-002  7.144737e-001
    endloop
  endfacet
  facet normal  0.000000e+000  0.000000e+000 -1.000000e+000
    outer loop
      vertex -1.018915e-001 -3.125000e-002  7.144737e-001
      vertex -1.006579e-001 -4.687500e-002  7.144737e-001
      vertex -1.361842e-001 -4.687500e-002  7.144737e-001
    endloop
  endfacet
  facet normal  0.000000e+000  0.000000e+000 -9.999999e-001
    outer loop
      vertex -1.018915e-001 -3.125000e-002  7.144737e-001
      vertex -1.361842e-001 -4.687500e-002  7.144737e-001
      vertex -1.328125e-001 -3.125000e-002  7.144737e-001
    endloop
  endfacet
  facet normal  -0.000000e+000  0.000000e+000 -1.000000e+000
    outer loop
      vertex -5.159252e-001 -7.812500e-003  7.144737e-001
      vertex -5.159252e-001 -2.343750e-002  7.144737e-001
      vertex -5.309210e-001 -3.125000e-002  7.144737e-001
    endloop
  endfacet
  facet normal  0.000000e+000  0.000000e+000 -1.000000e+000
    outer loop
      vertex -5.159252e-001 -7.812500e-003  7.144737e-001
      vertex -5.309210e-001 -3.125000e-002  7.144737e-001
      vertex -5.309210e-001 -7.812500e-003  7.144737e-001
    endloop
  endfacet
  facet normal  0.000000e+000  0.000000e+000 -1.000000e+000
    outer loop
      vertex -5.159252e-001 -7.812500e-003  7.144737e-001
      vertex -5.309210e-001 -7.812500e-003  7.144737e-001
      vertex -5.310712e-001 -6.288357e-003  7.144737e-001
    endloop
  endfacet
  facet normal  0.000000e+000  0.000000e+000 -1.000000e+000
    outer loop
      vertex -5.159252e-001 -7.812500e-003  7.144737e-001
      vertex -5.310712e-001 -6.288357e-003  7.144737e-001
      vertex -1.361842e-001  1.562500e-002  7.144737e-001
    endloop
  endfacet
  facet normal  0.000000e+000  0.000000e+000 -9.999999e-001
    outer loop
      vertex -1.361842e-001 -7.812500e-003  7.144737e-001
      vertex -5.159252e-001 -7.812500e-003  7.144737e-001
      vertex -1.361842e-001  1.562500e-002  7.144737e-001
    endloop
  endfacet
  facet normal  0.000000e+000  0.000000e+000 -1.000000e+000
    outer loop
      vertex -1.361842e-001 -7.812500e-003  7.144737e-001
      vertex -1.361842e-001  1.562500e-002  7.144737e-001
      vertex -1.328125e-001  1.625892e-016  7.144737e-001
    endloop
  endfacet
  facet normal  0.000000e+000  -0.000000e+000 -1.000000e+000
    outer loop
      vertex -1.361842e-001 -7.812500e-003  7.144737e-001
      vertex -1.328125e-001  1.625892e-016  7.144737e-001
      vertex -1.328125e-001 -7.812500e-003  7.144737e-001
    endloop
  endfacet
  facet normal  0.000000e+000  0.000000e+000 -1.000000e+000
    outer loop
      vertex -1.361842e-001  1.562500e-002  7.144737e-001
      vertex -5.310712e-001 -6.288357e-003  7.144737e-001
      vertex -5.315157e-001 -4.822786e-003  7.144737e-001
    endloop
  endfacet
  facet normal  0.000000e+000  0.000000e+000 -1.000000e+000
    outer loop
      vertex -1.361842e-001  1.562500e-002  7.144737e-001
      vertex -5.315157e-001 -4.822786e-003  7.144737e-001
      vertex -5.322377e-001 -3.472107e-003  7.144737e-001
    endloop
  endfacet
  facet normal  0.000000e+000  0.000000e+000 -1.000000e+000
    outer loop
      vertex -1.361842e-001  1.562500e-002  7.144737e-001
      vertex -5.322377e-001 -3.472107e-003  7.144737e-001
      vertex -5.332093e-001 -2.288228e-003  7.144737e-001
    endloop
  endfacet
  facet normal  0.000000e+000  0.000000e+000 -1.000000e+000
    outer loop
      vertex -1.361842e-001  1.562500e-002  7.144737e-001
      vertex -5.332093e-001 -2.288228e-003  7.144737e-001
      vertex -5.490708e-001  1.562500e-002  7.144737e-001
    endloop
  endfacet
  facet normal  0.000000e+000  0.000000e+000 -1.000000e+000
    outer loop
      vertex -5.490708e-001  1.562500e-002  7.144737e-001
      vertex -5.332093e-001 -2.288228e-003  7.144737e-001
      vertex -5.343931e-001 -1.316644e-003  7.144737e-001
    endloop
  endfacet
  facet normal  0.000000e+000  0.000000e+000 -1.000000e+000
    outer loop
      vertex -5.490708e-001  1.562500e-002  7.144737e-001
      vertex -5.343931e-001 -1.316644e-003  7.144737e-001
      vertex -5.357438e-001 -5.946911e-004  7.144737e-001
    endloop
  endfacet
  facet normal  0.000000e+000  0.000000e+000 -1.000000e+000
    outer loop
      vertex -5.490708e-001  1.562500e-002  7.144737e-001
      vertex -5.357438e-001 -5.946911e-004  7.144737e-001
      vertex -5.372094e-001 -1.501150e-004  7.144737e-001
    endloop
  endfacet
  facet normal  0.000000e+000  0.000000e+000 -1.000000e+000
    outer loop
      vertex -5.490708e-001  1.562500e-002  7.144737e-001
      vertex -5.372094e-001 -1.501150e-004  7.144737e-001
      vertex -5.387335e-001  1.652278e-016  7.144737e-001
    endloop
  endfacet
  facet normal  -0.000000e+000  0.000000e+000 -1.000000e+000
    outer loop
      vertex -5.490708e-001  1.562500e-002  7.144737e-001
      vertex -5.387335e-001  1.652278e-016  7.144737e-001
      vertex -5.490708e-001  1.554066e-016  7.144737e-001
    endloop
  endfacet
  facet normal  0.000000e+000  0.000000e+000 -9.999999e-001
    outer loop
      vertex -1.328125e-001  0.000000e+000 -7.500000e-001
      vertex -1.018915e-001  1.716463e-018 -7.500000e-001
      vertex -1.328125e-001 -3.125000e-002 -7.500000e-001
    endloop
  endfacet
  facet normal  0.000000e+000  0.000000e+000 -9.999999e-001
    outer loop
      vertex -1.328125e-001 -3.125000e-002 -7.500000e-001
      vertex -1.018915e-001  1.716463e-018 -7.500000e-001
      vertex -1.018915e-001 -3.125000e-002 -7.500000e-001
    endloop
  endfacet
  facet normal  0.000000e+000  0.000000e+000 -1.000000e+000
    outer loop
      vertex -5.343931e-001 -1.316644e-003 -7.500000e-001
      vertex -5.625000e-001  0.000000e+000 -7.500000e-001
      vertex -5.387335e-001  2.638606e-018 -7.500000e-001
    endloop
  endfacet
  facet normal  0.000000e+000  0.000000e+000 -1.000000e+000
    outer loop
      vertex -5.343931e-001 -1.316644e-003 -7.500000e-001
      vertex -5.387335e-001  2.638606e-018 -7.500000e-001
      vertex -5.372094e-001 -1.501150e-004 -7.500000e-001
    endloop
  endfacet
  facet normal  0.000000e+000  0.000000e+000 -1.000000e+000
    outer loop
      vertex -5.343931e-001 -1.316644e-003 -7.500000e-001
      vertex -5.372094e-001 -1.501150e-004 -7.500000e-001
      vertex -5.357438e-001 -5.946911e-004 -7.500000e-001
    endloop
  endfacet
  facet normal  0.000000e+000  0.000000e+000 -9.999999e-001
    outer loop
      vertex -5.625000e-001 -2.343750e-002 -7.500000e-001
      vertex -5.625000e-001  0.000000e+000 -7.500000e-001
      vertex -5.343931e-001 -1.316644e-003 -7.500000e-001
    endloop
  endfacet
  facet normal  0.000000e+000  -0.000000e+000 -1.000000e+000
    outer loop
      vertex -5.625000e-001 -2.343750e-002 -7.500000e-001
      vertex -5.343931e-001 -1.316644e-003 -7.500000e-001
      vertex -5.332093e-001 -2.288228e-003 -7.500000e-001
    endloop
  endfacet
  facet normal  0.000000e+000  -0.000000e+000 -9.999999e-001
    outer loop
      vertex -5.625000e-001 -2.343750e-002 -7.500000e-001
      vertex -5.332093e-001 -2.288228e-003 -7.500000e-001
      vertex -5.322377e-001 -3.472107e-003 -7.500000e-001
    endloop
  endfacet
  facet normal  0.000000e+000  -0.000000e+000 -1.000000e+000
    outer loop
      vertex -5.625000e-001 -2.343750e-002 -7.500000e-001
      vertex -5.322377e-001 -3.472107e-003 -7.500000e-001
      vertex -5.315157e-001 -4.822786e-003 -7.500000e-001
    endloop
  endfacet
  facet normal  0.000000e+000  -0.000000e+000 -1.000000e+000
    outer loop
      vertex -5.625000e-001 -2.343750e-002 -7.500000e-001
      vertex -5.315157e-001 -4.822786e-003 -7.500000e-001
      vertex -5.310712e-001 -6.288357e-003 -7.500000e-001
    endloop
  endfacet
  facet normal  0.000000e+000  -0.000000e+000 -9.999999e-001
    outer loop
      vertex -5.625000e-001 -2.343750e-002 -7.500000e-001
      vertex -5.310712e-001 -6.288357e-003 -7.500000e-001
      vertex -5.309210e-001 -7.812500e-003 -7.500000e-001
    endloop
  endfacet
  facet normal  0.000000e+000  -0.000000e+000 -9.999999e-001
    outer loop
      vertex -5.625000e-001 -2.343750e-002 -7.500000e-001
      vertex -5.309210e-001 -7.812500e-003 -7.500000e-001
      vertex -5.309210e-001 -3.125000e-002 -7.500000e-001
    endloop
  endfacet
  facet normal  0.000000e+000  0.000000e+000 -1.000000e+000
    outer loop
      vertex -5.625000e-001 -2.343750e-002 -7.500000e-001
      vertex -5.309210e-001 -3.125000e-002 -7.500000e-001
      vertex -5.546875e-001 -3.125000e-002 -7.500000e-001
    endloop
  endfacet
  facet normal  0.000000e+000 -1.000000e+000  0.000000e+000
    outer loop
      vertex -5.546875e-001 -3.125000e-002 -7.500000e-001
      vertex -5.309210e-001 -3.125000e-002 -7.500000e-001
      vertex -5.309210e-001 -3.125000e-002 -7.184210e-001
    endloop
  endfacet
  facet normal  -0.000000e+000 -1.000000e+000  0.000000e+000
    outer loop
      vertex -5.546875e-001 -3.125000e-002 -7.500000e-001
      vertex -5.309210e-001 -3.125000e-002 -7.184210e-001
      vertex -5.309210e-001 -3.125000e-002  7.144737e-001
    endloop
  endfacet
  facet normal  -0.000000e+000 -1.000000e+000  0.000000e+000
    outer loop
      vertex -5.546875e-001 -3.125000e-002 -7.500000e-001
      vertex -5.309210e-001 -3.125000e-002  7.144737e-001
      vertex -5.490708e-001 -3.125000e-002  7.144737e-001
    endloop
  endfacet
  facet normal  -0.000000e+000 -1.000000e+000  0.000000e+000
    outer loop
      vertex -5.546875e-001 -3.125000e-002 -7.500000e-001
      vertex -5.490708e-001 -3.125000e-002  7.144737e-001
      vertex -5.546875e-001 -3.125000e-002  7.200904e-001
    endloop
  endfacet
  facet normal -1.000000e+000  -0.000000e+000  0.000000e+000
    outer loop
      vertex -5.625000e-001 -2.343750e-002  7.279029e-001
      vertex -5.625000e-001  1.640802e-016  7.279029e-001
      vertex -5.625000e-001 -2.343750e-002 -7.500000e-001
    endloop
  endfacet
  facet normal -1.000000e+000  0.000000e+000  0.000000e+000
    outer loop
      vertex -5.625000e-001 -2.343750e-002 -7.500000e-001
      vertex -5.625000e-001  1.640802e-016  7.279029e-001
      vertex -5.625000e-001  0.000000e+000 -7.500000e-001
    endloop
  endfacet
  facet normal -7.071068e-001  0.000000e+000 -7.071068e-001
    outer loop
      vertex -5.490708e-001  1.562500e-002  7.144737e-001
      vertex -5.490708e-001  1.554066e-016  7.144737e-001
      vertex -5.625000e-001  1.640802e-016  7.279029e-001
    endloop
  endfacet
  facet normal -7.071068e-001  -0.000000e+000 -7.071068e-001
    outer loop
      vertex -5.546875e-001 -3.125000e-002  7.200904e-001
      vertex -5.490708e-001 -3.125000e-002  7.144737e-001
      vertex -5.490708e-001 -4.687500e-002  7.144737e-001
    endloop
  endfacet
  facet normal -7.071068e-001  0.000000e+000 -7.071068e-001
    outer loop
      vertex -5.546875e-001 -3.125000e-002  7.200904e-001
      vertex -5.490708e-001 -4.687500e-002  7.144737e-001
      vertex -6.002221e-001 -4.687500e-002  7.656250e-001
    endloop
  endfacet
  facet normal -7.071067e-001  0.000000e+000 -7.071067e-001
    outer loop
      vertex -5.546875e-001 -3.125000e-002  7.200904e-001
      vertex -6.002221e-001 -4.687500e-002  7.656250e-001
      vertex -5.625000e-001 -2.343750e-002  7.279029e-001
    endloop
  endfacet
  facet normal -7.071068e-001  0.000000e+000 -7.071068e-001
    outer loop
      vertex -5.625000e-001 -2.343750e-002  7.279029e-001
      vertex -6.002221e-001 -4.687500e-002  7.656250e-001
      vertex -5.625000e-001  1.640802e-016  7.279029e-001
    endloop
  endfacet
  facet normal -7.071068e-001  0.000000e+000 -7.071068e-001
    outer loop
      vertex -5.625000e-001  1.640802e-016  7.279029e-001
      vertex -6.002221e-001 -4.687500e-002  7.656250e-001
      vertex -6.002221e-001  1.562500e-002  7.656250e-001
    endloop
  endfacet
  facet normal -7.071068e-001  0.000000e+000 -7.071068e-001
    outer loop
      vertex -5.625000e-001  1.640802e-016  7.279029e-001
      vertex -6.002221e-001  1.562500e-002  7.656250e-001
      vertex -5.490708e-001  1.562500e-002  7.144737e-001
    endloop
  endfacet
  facet normal -7.071068e-001 -7.071068e-001  0.000000e+000
    outer loop
      vertex -5.546875e-001 -3.125000e-002  7.200904e-001
      vertex -5.625000e-001 -2.343750e-002  7.279029e-001
      vertex -5.546875e-001 -3.125000e-002 -7.500000e-001
    endloop
  endfacet
  facet normal -7.071068e-001 -7.071068e-001  0.000000e+000
    outer loop
      vertex -5.546875e-001 -3.125000e-002 -7.500000e-001
      vertex -5.625000e-001 -2.343750e-002  7.279029e-001
      vertex -5.625000e-001 -2.343750e-002 -7.500000e-001
    endloop
  endfacet
  facet normal  9.951829e-001  9.803598e-002  0.000000e+000
    outer loop
      vertex -5.309210e-001 -7.812500e-003 -7.184210e-001
      vertex -5.310712e-001 -6.288357e-003 -7.500000e-001
      vertex -5.309210e-001 -7.812500e-003  7.144737e-001
    endloop
  endfacet
  facet normal  9.951829e-001  9.803598e-002  -0.000000e+000
    outer loop
      vertex -5.309210e-001 -7.812500e-003 -7.184210e-001
      vertex -5.309210e-001 -7.812500e-003 -7.500000e-001
      vertex -5.310712e-001 -6.288357e-003 -7.500000e-001
    endloop
  endfacet
  facet normal  9.801668e-002  9.951848e-001  0.000000e+000
    outer loop
      vertex -5.387335e-001  2.638606e-018 -7.500000e-001
      vertex -5.372094e-001 -1.501150e-004  7.144737e-001
      vertex -5.372094e-001 -1.501150e-004 -7.500000e-001
    endloop
  endfacet
  facet normal  9.801668e-002  9.951848e-001 -1.104877e-016
    outer loop
      vertex -5.387335e-001  2.638606e-018 -7.500000e-001
      vertex -5.387335e-001  1.652278e-016  7.144737e-001
      vertex -5.372094e-001 -1.501150e-004  7.144737e-001
    endloop
  endfacet
  facet normal  2.902869e-001  9.569396e-001  0.000000e+000
    outer loop
      vertex -5.372094e-001 -1.501150e-004  7.144737e-001
      vertex -5.357438e-001 -5.946911e-004  7.144737e-001
      vertex -5.372094e-001 -1.501150e-004 -7.500000e-001
    endloop
  endfacet
  facet normal  2.902869e-001  9.569396e-001  0.000000e+000
    outer loop
      vertex -5.372094e-001 -1.501150e-004 -7.500000e-001
      vertex -5.357438e-001 -5.946911e-004  7.144737e-001
      vertex -5.357438e-001 -5.946911e-004 -7.500000e-001
    endloop
  endfacet
  facet normal  4.713906e-001  8.819245e-001  0.000000e+000
    outer loop
      vertex -5.357438e-001 -5.946911e-004  7.144737e-001
      vertex -5.343931e-001 -1.316644e-003  7.144737e-001
      vertex -5.357438e-001 -5.946911e-004 -7.500000e-001
    endloop
  endfacet
  facet normal  4.713906e-001  8.819245e-001  0.000000e+000
    outer loop
      vertex -5.357438e-001 -5.946911e-004 -7.500000e-001
      vertex -5.343931e-001 -1.316644e-003  7.144737e-001
      vertex -5.343931e-001 -1.316644e-003 -7.500000e-001
    endloop
  endfacet
  facet normal  6.343971e-001  7.730073e-001  0.000000e+000
    outer loop
      vertex -5.343931e-001 -1.316644e-003  7.144737e-001
      vertex -5.332093e-001 -2.288228e-003  7.144737e-001
      vertex -5.343931e-001 -1.316644e-003 -7.500000e-001
    endloop
  endfacet
  facet normal  6.343971e-001  7.730073e-001  0.000000e+000
    outer loop
      vertex -5.343931e-001 -1.316644e-003 -7.500000e-001
      vertex -5.332093e-001 -2.288228e-003  7.144737e-001
      vertex -5.332093e-001 -2.288228e-003 -7.500000e-001
    endloop
  endfacet
  facet normal  7.730197e-001  6.343821e-001  0.000000e+000
    outer loop
      vertex -5.332093e-001 -2.288228e-003  7.144737e-001
      vertex -5.322377e-001 -3.472107e-003  7.144737e-001
      vertex -5.332093e-001 -2.288228e-003 -7.500000e-001
    endloop
  endfacet
  facet normal  7.730197e-001  6.343821e-001  0.000000e+000
    outer loop
      vertex -5.332093e-001 -2.288228e-003 -7.500000e-001
      vertex -5.322377e-001 -3.472107e-003  7.144737e-001
      vertex -5.322377e-001 -3.472107e-003 -7.500000e-001
    endloop
  endfacet
  facet normal  8.819107e-001  4.714163e-001  0.000000e+000
    outer loop
      vertex -5.322377e-001 -3.472107e-003  7.144737e-001
      vertex -5.315157e-001 -4.822786e-003  7.144737e-001
      vertex -5.322377e-001 -3.472107e-003 -7.500000e-001
    endloop
  endfacet
  facet normal  8.819107e-001  4.714163e-001  0.000000e+000
    outer loop
      vertex -5.322377e-001 -3.472107e-003 -7.500000e-001
      vertex -5.315157e-001 -4.822786e-003  7.144737e-001
      vertex -5.315157e-001 -4.822786e-003 -7.500000e-001
    endloop
  endfacet
  facet normal  9.569485e-001  2.902579e-001  0.000000e+000
    outer loop
      vertex -5.315157e-001 -4.822786e-003  7.144737e-001
      vertex -5.310712e-001 -6.288357e-003  7.144737e-001
      vertex -5.315157e-001 -4.822786e-003 -7.500000e-001
    endloop
  endfacet
  facet normal  9.569485e-001  2.902579e-001  0.000000e+000
    outer loop
      vertex -5.315157e-001 -4.822786e-003 -7.500000e-001
      vertex -5.310712e-001 -6.288357e-003  7.144737e-001
      vertex -5.310712e-001 -6.288357e-003 -7.500000e-001
    endloop
  endfacet
  facet normal  9.951828e-001  9.803597e-002  -0.000000e+000
    outer loop
      vertex -5.309210e-001 -7.812500e-003  7.144737e-001
      vertex -5.310712e-001 -6.288357e-003 -7.500000e-001
      vertex -5.310712e-001 -6.288357e-003  7.144737e-001
    endloop
  endfacet
  facet normal  5.348539e-016  1.000000e+000 -1.110223e-016
    outer loop
      vertex -5.625000e-001  1.640802e-016  7.279029e-001
      vertex -5.490708e-001  1.554066e-016  7.144737e-001
      vertex -5.625000e-001  0.000000e+000 -7.500000e-001
    endloop
  endfacet
  facet normal -9.500880e-016  9.999999e-001 -9.740538e-017
    outer loop
      vertex -5.625000e-001  0.000000e+000 -7.500000e-001
      vertex -5.490708e-001  1.554066e-016  7.144737e-001
      vertex -5.387335e-001  1.652278e-016  7.144737e-001
    endloop
  endfacet
  facet normal -1.110220e-016  1.000000e+000 -1.110223e-016
    outer loop
      vertex -5.625000e-001  0.000000e+000 -7.500000e-001
      vertex -5.387335e-001  1.652278e-016  7.144737e-001
      vertex -5.387335e-001  2.638606e-018 -7.500000e-001
    endloop
  endfacet
  facet normal  1.000000e+000  0.000000e+000  0.000000e+000
    outer loop
      vertex -5.309210e-001 -3.125000e-002 -7.184210e-001
      vertex -5.309210e-001 -7.812500e-003 -7.184210e-001
      vertex -5.309210e-001 -3.125000e-002  7.144737e-001
    endloop
  endfacet
  facet normal  1.000000e+000  -0.000000e+000  0.000000e+000
    outer loop
      vertex -5.309210e-001 -3.125000e-002  7.144737e-001
      vertex -5.309210e-001 -7.812500e-003 -7.184210e-001
      vertex -5.309210e-001 -7.812500e-003  7.144737e-001
    endloop
  endfacet
  facet normal  9.999999e-001  0.000000e+000  0.000000e+000
    outer loop
      vertex -5.309210e-001 -3.125000e-002 -7.500000e-001
      vertex -5.309210e-001 -7.812500e-003 -7.500000e-001
      vertex -5.309210e-001 -3.125000e-002 -7.184210e-001
    endloop
  endfacet
  facet normal  9.999999e-001  -0.000000e+000  0.000000e+000
    outer loop
      vertex -5.309210e-001 -3.125000e-002 -7.184210e-001
      vertex -5.309210e-001 -7.812500e-003 -7.500000e-001
      vertex -5.309210e-001 -7.812500e-003 -7.184210e-001
    endloop
  endfacet
  facet normal  0.000000e+000  0.000000e+000 -1.000000e+000
    outer loop
      vertex -1.006579e-001 -4.687500e-002  7.144737e-001
      vertex -1.006579e-001 -2.343750e-002  7.144737e-001
      vertex  5.156250e-001 -4.687500e-002  7.144737e-001
    endloop
  endfacet
  facet normal  0.000000e+000  0.000000e+000 -1.000000e+000
    outer loop
      vertex  5.156250e-001 -4.687500e-002  7.144737e-001
      vertex -1.006579e-001 -2.343750e-002  7.144737e-001
      vertex  5.156250e-001 -2.343750e-002  7.144737e-001
    endloop
  endfacet
  facet normal  0.000000e+000  0.000000e+000 -1.000000e+000
    outer loop
      vertex -1.006579e-001 -7.812500e-003  7.144737e-001
      vertex -1.006579e-001  1.562500e-002  7.144737e-001
      vertex  5.156250e-001 -7.812500e-003  7.144737e-001
    endloop
  endfacet
  facet normal  0.000000e+000  0.000000e+000 -1.000000e+000
    outer loop
      vertex  5.156250e-001 -7.812500e-003  7.144737e-001
      vertex -1.006579e-001  1.562500e-002  7.144737e-001
      vertex  5.156250e-001  1.562500e-002  7.144737e-001
    endloop
  endfacet
  facet normal -1.000000e+000  0.000000e+000  0.000000e+000
    outer loop
      vertex  5.156250e-001  1.562500e-002  6.810279e-001
      vertex  5.156250e-001  1.562500e-002 -7.184210e-001
      vertex  5.156250e-001 -4.687500e-002 -7.184210e-001
    endloop
  endfacet
  facet normal -1.000000e+000  0.000000e+000  0.000000e+000
    outer loop
      vertex  5.156250e-001  1.562500e-002  6.810279e-001
      vertex  5.156250e-001 -4.687500e-002 -7.184210e-001
      vertex  5.156250e-001 -4.687500e-002  6.810279e-001
    endloop
  endfacet
  facet normal -9.999999e-001  0.000000e+000  0.000000e+000
    outer loop
      vertex  5.156250e-001  1.562500e-002  6.810279e-001
      vertex  5.156250e-001 -4.687500e-002  6.810279e-001
      vertex  5.156250e-001 -4.687500e-002  7.144737e-001
    endloop
  endfacet
  facet normal -1.000000e+000  0.000000e+000  0.000000e+000
    outer loop
      vertex  5.156250e-001  1.562500e-002  6.810279e-001
      vertex  5.156250e-001 -4.687500e-002  7.144737e-001
      vertex  5.156250e-001 -2.343750e-002  7.144737e-001
    endloop
  endfacet
  facet normal -9.999999e-001  0.000000e+000  0.000000e+000
    outer loop
      vertex  5.156250e-001  1.562500e-002  6.810279e-001
      vertex  5.156250e-001 -2.343750e-002  7.144737e-001
      vertex  5.156250e-001 -7.812500e-003  7.144737e-001
    endloop
  endfacet
  facet normal -1.000000e+000  0.000000e+000  0.000000e+000
    outer loop
      vertex  5.156250e-001  1.562500e-002  6.810279e-001
      vertex  5.156250e-001 -7.812500e-003  7.144737e-001
      vertex  5.156250e-001  1.562500e-002  7.144737e-001
    endloop
  endfacet
  facet normal  7.071075e-001  0.000000e+000  7.071061e-001
    outer loop
      vertex -5.436389e-001 -2.343750e-002  7.421875e-001
      vertex -5.159252e-001 -2.343750e-002  7.144737e-001
      vertex -5.436389e-001 -7.812500e-003  7.421875e-001
    endloop
  endfacet
  facet normal  7.071075e-001  0.000000e+000  7.071061e-001
    outer loop
      vertex -5.436389e-001 -7.812500e-003  7.421875e-001
      vertex -5.159252e-001 -2.343750e-002  7.144737e-001
      vertex -5.159252e-001 -7.812500e-003  7.144737e-001
    endloop
  endfacet
  facet normal -7.025358e-001  0.000000e+000  7.116482e-001
    outer loop
      vertex  5.156250e-001 -2.343750e-002  7.144737e-001
      vertex  5.390625e-001 -2.343750e-002  7.376111e-001
      vertex  5.156250e-001 -7.812500e-003  7.144737e-001
    endloop
  endfacet
  facet normal -7.025358e-001  0.000000e+000  7.116482e-001
    outer loop
      vertex  5.156250e-001 -7.812500e-003  7.144737e-001
      vertex  5.390625e-001 -2.343750e-002  7.376111e-001
      vertex  5.390625e-001 -7.812500e-003  7.376111e-001
    endloop
  endfacet
  facet normal  0.000000e+000  0.000000e+000  1.000000e+000
    outer loop
      vertex  5.784540e-001 -4.687500e-002  7.656250e-001
      vertex  5.784540e-001  1.562500e-002  7.656250e-001
      vertex -6.002221e-001 -4.687500e-002  7.656250e-001
    endloop
  endfacet
  facet normal  0.000000e+000  0.000000e+000  1.000000e+000
    outer loop
      vertex -6.002221e-001 -4.687500e-002  7.656250e-001
      vertex  5.784540e-001  1.562500e-002  7.656250e-001
      vertex -6.002221e-001  1.562500e-002  7.656250e-001
    endloop
  endfacet
  facet normal  1.000000e+000  0.000000e+000  0.000000e+000
    outer loop
      vertex  5.784540e-001 -4.687500e-002 -7.656250e-001
      vertex  5.784540e-001  1.562500e-002 -7.656250e-001
      vertex  5.784540e-001 -4.687500e-002  7.656250e-001
    endloop
  endfacet
  facet normal  1.000000e+000  -0.000000e+000  0.000000e+000
    outer loop
      vertex  5.784540e-001 -4.687500e-002  7.656250e-001
      vertex  5.784540e-001  1.562500e-002 -7.656250e-001
      vertex  5.784540e-001  1.562500e-002  7.656250e-001
    endloop
  endfacet
  facet normal  -0.000000e+000  0.000000e+000 -1.000000e+000
    outer loop
      vertex  5.156250e-001  1.562500e-002 -7.656250e-001
      vertex  5.784540e-001  1.562500e-002 -7.656250e-001
      vertex  5.156250e-001 -4.687500e-002 -7.656250e-001
    endloop
  endfacet
  facet normal  0.000000e+000  0.000000e+000 -1.000000e+000
    outer loop
      vertex  5.156250e-001 -4.687500e-002 -7.656250e-001
      vertex  5.784540e-001  1.562500e-002 -7.656250e-001
      vertex  5.784540e-001 -4.687500e-002 -7.656250e-001
    endloop
  endfacet
  facet normal -1.000000e+000  -0.000000e+000  0.000000e+000
    outer loop
      vertex  5.156250e-001 -4.687500e-002 -7.184210e-001
      vertex  5.156250e-001  1.562500e-002 -7.184210e-001
      vertex  5.156250e-001 -4.687500e-002 -7.656250e-001
    endloop
  endfacet
  facet normal -1.000000e+000  0.000000e+000  0.000000e+000
    outer loop
      vertex  5.156250e-001 -4.687500e-002 -7.656250e-001
      vertex  5.156250e-001  1.562500e-002 -7.184210e-001
      vertex  5.156250e-001  1.562500e-002 -7.656250e-001
    endloop
  endfacet
  facet normal  0.000000e+000  1.000000e+000  0.000000e+000
    outer loop
      vertex  5.156250e-001  1.562500e-002 -7.656250e-001
      vertex  5.156250e-001  1.562500e-002 -7.184210e-001
      vertex  5.784540e-001  1.562500e-002 -7.656250e-001
    endloop
  endfacet
  facet normal  0.000000e+000  1.000000e+000  -0.000000e+000
    outer loop
      vertex  5.784540e-001  1.562500e-002  7.656250e-001
      vertex  5.784540e-001  1.562500e-002 -7.656250e-001
      vertex  5.156250e-001  1.562500e-002 -7.184210e-001
    endloop
  endfacet
  facet normal  0.000000e+000  1.000000e+000  0.000000e+000
    outer loop
      vertex  5.784540e-001  1.562500e-002  7.656250e-001
      vertex  5.156250e-001  1.562500e-002 -7.184210e-001
      vertex  5.156250e-001  1.562500e-002  6.810279e-001
    endloop
  endfacet
  facet normal  0.000000e+000  1.000000e+000  0.000000e+000
    outer loop
      vertex  5.784540e-001  1.562500e-002  7.656250e-001
      vertex  5.156250e-001  1.562500e-002  6.810279e-001
      vertex  5.156250e-001  1.562500e-002  7.144737e-001
    endloop
  endfacet
  facet normal  0.000000e+000  1.000000e+000  -0.000000e+000
    outer loop
      vertex  5.784540e-001  1.562500e-002  7.656250e-001
      vertex  5.156250e-001  1.562500e-002  7.144737e-001
      vertex -1.006579e-001  1.562500e-002  7.144737e-001
    endloop
  endfacet
  facet normal  0.000000e+000  1.000000e+000  -0.000000e+000
    outer loop
      vertex  5.784540e-001  1.562500e-002  7.656250e-001
      vertex -1.006579e-001  1.562500e-002  7.144737e-001
      vertex -1.361842e-001  1.562500e-002  7.144737e-001
    endloop
  endfacet
  facet normal  0.000000e+000  1.000000e+000  -0.000000e+000
    outer loop
      vertex  5.784540e-001  1.562500e-002  7.656250e-001
      vertex -1.361842e-001  1.562500e-002  7.144737e-001
      vertex -5.490708e-001  1.562500e-002  7.144737e-001
    endloop
  endfacet
  facet normal  0.000000e+000  1.000000e+000  -0.000000e+000
    outer loop
      vertex  5.784540e-001  1.562500e-002  7.656250e-001
      vertex -5.490708e-001  1.562500e-002  7.144737e-001
      vertex -6.002221e-001  1.562500e-002  7.656250e-001
    endloop
  endfacet
  facet normal  0.000000e+000 -1.000000e+000  0.000000e+000
    outer loop
      vertex  5.784540e-001 -4.687500e-002 -7.656250e-001
      vertex  5.156250e-001 -4.687500e-002 -7.184210e-001
      vertex  5.156250e-001 -4.687500e-002 -7.656250e-001
    endloop
  endfacet
  facet normal  0.000000e+000 -9.999999e-001  0.000000e+000
    outer loop
      vertex  5.784540e-001 -4.687500e-002  7.656250e-001
      vertex -6.002221e-001 -4.687500e-002  7.656250e-001
      vertex -5.490708e-001 -4.687500e-002  7.144737e-001
    endloop
  endfacet
  facet normal  0.000000e+000 -1.000000e+000  0.000000e+000
    outer loop
      vertex  5.784540e-001 -4.687500e-002  7.656250e-001
      vertex -5.490708e-001 -4.687500e-002  7.144737e-001
      vertex -1.361842e-001 -4.687500e-002  7.144737e-001
    endloop
  endfacet
  facet normal  0.000000e+000 -1.000000e+000  0.000000e+000
    outer loop
      vertex  5.784540e-001 -4.687500e-002  7.656250e-001
      vertex -1.361842e-001 -4.687500e-002  7.144737e-001
      vertex -1.006579e-001 -4.687500e-002  7.144737e-001
    endloop
  endfacet
  facet normal  0.000000e+000 -1.000000e+000  0.000000e+000
    outer loop
      vertex  5.784540e-001 -4.687500e-002  7.656250e-001
      vertex -1.006579e-001 -4.687500e-002  7.144737e-001
      vertex  5.156250e-001 -4.687500e-002  7.144737e-001
    endloop
  endfacet
  facet normal  0.000000e+000 -1.000000e+000  0.000000e+000
    outer loop
      vertex  5.784540e-001 -4.687500e-002  7.656250e-001
      vertex  5.156250e-001 -4.687500e-002  7.144737e-001
      vertex  5.156250e-001 -4.687500e-002  6.810279e-001
    endloop
  endfacet
  facet normal  0.000000e+000 -1.000000e+000  0.000000e+000
    outer loop
      vertex  5.784540e-001 -4.687500e-002  7.656250e-001
      vertex  5.156250e-001 -4.687500e-002  6.810279e-001
      vertex  5.156250e-001 -4.687500e-002 -7.184210e-001
    endloop
  endfacet
  facet normal  0.000000e+000 -1.000000e+000  0.000000e+000
    outer loop
      vertex  5.784540e-001 -4.687500e-002  7.656250e-001
      vertex  5.156250e-001 -4.687500e-002 -7.184210e-001
      vertex  5.784540e-001 -4.687500e-002 -7.656250e-001
    endloop
  endfacet
  facet normal  0.000000e+000  0.000000e+000  1.000000e+000
    outer loop
      vertex  5.390625e-001 -7.812500e-003 -7.421875e-001
      vertex  5.390625e-001 -2.343750e-002 -7.421875e-001
      vertex  5.550165e-001 -7.812500e-003 -7.421875e-001
    endloop
  endfacet
  facet normal  0.000000e+000  0.000000e+000  1.000000e+000
    outer loop
      vertex  5.550165e-001 -7.812500e-003 -7.421875e-001
      vertex  5.390625e-001 -2.343750e-002 -7.421875e-001
      vertex  5.550165e-001 -2.343750e-002 -7.421875e-001
    endloop
  endfacet
  facet normal -1.000000e+000  0.000000e+000  0.000000e+000
    outer loop
      vertex  5.550165e-001 -2.343750e-002 -7.421875e-001
      vertex  5.550165e-001 -2.343750e-002  7.421875e-001
      vertex  5.550165e-001 -7.812500e-003 -7.421875e-001
    endloop
  endfacet
  facet normal -1.000000e+000  0.000000e+000  0.000000e+000
    outer loop
      vertex  5.550165e-001 -7.812500e-003 -7.421875e-001
      vertex  5.550165e-001 -2.343750e-002  7.421875e-001
      vertex  5.550165e-001 -7.812500e-003  7.421875e-001
    endloop
  endfacet
  facet normal  1.000000e+000  0.000000e+000  0.000000e+000
    outer loop
      vertex  5.390625e-001 -2.343750e-002 -7.184210e-001
      vertex  5.390625e-001 -2.343750e-002 -7.421875e-001
      vertex  5.390625e-001 -7.812500e-003 -7.184210e-001
    endloop
  endfacet
  facet normal  1.000000e+000  0.000000e+000  0.000000e+000
    outer loop
      vertex  5.390625e-001 -7.812500e-003 -7.184210e-001
      vertex  5.390625e-001 -2.343750e-002 -7.421875e-001
      vertex  5.390625e-001 -7.812500e-003 -7.421875e-001
    endloop
  endfacet
  facet normal  1.000000e+000  0.000000e+000  0.000000e+000
    outer loop
      vertex  5.390625e-001 -2.343750e-002  7.376111e-001
      vertex  5.390625e-001 -2.343750e-002 -7.184210e-001
      vertex  5.390625e-001 -7.812500e-003  7.376111e-001
    endloop
  endfacet
  facet normal  1.000000e+000  0.000000e+000  0.000000e+000
    outer loop
      vertex  5.390625e-001 -7.812500e-003  7.376111e-001
      vertex  5.390625e-001 -2.343750e-002 -7.184210e-001
      vertex  5.390625e-001 -7.812500e-003 -7.184210e-001
    endloop
  endfacet
  facet normal  0.000000e+000  0.000000e+000 -1.000000e+000
    outer loop
      vertex  5.550165e-001 -2.343750e-002  7.421875e-001
      vertex -5.436389e-001 -2.343750e-002  7.421875e-001
      vertex  5.550165e-001 -7.812500e-003  7.421875e-001
    endloop
  endfacet
  facet normal  -0.000000e+000  0.000000e+000 -1.000000e+000
    outer loop
      vertex  5.550165e-001 -7.812500e-003  7.421875e-001
      vertex -5.436389e-001 -2.343750e-002  7.421875e-001
      vertex -5.436389e-001 -7.812500e-003  7.421875e-001
    endloop
  endfacet
endsolid CATIA STL
