solid CATIA STL
  facet normal  0.000000e+000  0.000000e+000 -1.000000e+000
    outer loop
      vertex  5.234375e-001  2.627467e-001  0.000000e+000
      vertex  5.703125e-001  2.393092e-001  0.000000e+000
      vertex -5.625000e-001  2.627467e-001  0.000000e+000
    endloop
  endfacet
  facet normal  0.000000e+000  0.000000e+000 -1.000000e+000
    outer loop
      vertex -5.625000e-001  2.627467e-001  0.000000e+000
      vertex  5.703125e-001  2.393092e-001  0.000000e+000
      vertex  5.703125e-001 -2.343750e-001  0.000000e+000
    endloop
  endfacet
  facet normal  0.000000e+000  0.000000e+000 -1.000000e+000
    outer loop
      vertex -5.625000e-001  2.627467e-001  0.000000e+000
      vertex  5.703125e-001 -2.343750e-001  0.000000e+000
      vertex -5.625000e-001 -2.343750e-001  0.000000e+000
    endloop
  endfacet
  facet normal  1.000000e+000  0.000000e+000  0.000000e+000
    outer loop
      vertex  5.703125e-001 -2.343750e-001  0.000000e+000
      vertex  5.703125e-001  2.393092e-001  0.000000e+000
      vertex  5.703125e-001 -2.488106e-001  9.645571e-003
    endloop
  endfacet
  facet normal  1.000000e+000  -0.000000e+000  0.000000e+000
    outer loop
      vertex  5.703125e-001  2.393092e-001  7.500000e-001
      vertex  5.703125e-001 -2.500000e-001  7.500000e-001
      vertex  5.703125e-001 -2.500000e-001  1.562500e-002
    endloop
  endfacet
  facet normal  1.000000e+000  -0.000000e+000  0.000000e+000
    outer loop
      vertex  5.703125e-001  2.393092e-001  7.500000e-001
      vertex  5.703125e-001 -2.500000e-001  1.562500e-002
      vertex  5.703125e-001 -2.496998e-001  1.257671e-002
    endloop
  endfacet
  facet normal  1.000000e+000  -0.000000e+000  0.000000e+000
    outer loop
      vertex  5.703125e-001  2.393092e-001  7.500000e-001
      vertex  5.703125e-001 -2.496998e-001  1.257671e-002
      vertex  5.703125e-001 -2.488106e-001  9.645571e-003
    endloop
  endfacet
  facet normal  9.999999e-001  -0.000000e+000  0.000000e+000
    outer loop
      vertex  5.703125e-001  2.393092e-001  7.500000e-001
      vertex  5.703125e-001 -2.488106e-001  9.645571e-003
      vertex  5.703125e-001  2.393092e-001  0.000000e+000
    endloop
  endfacet
  facet normal  1.000000e+000  0.000000e+000  0.000000e+000
    outer loop
      vertex  5.703125e-001 -2.374233e-001  3.002300e-004
      vertex  5.703125e-001 -2.343750e-001  0.000000e+000
      vertex  5.703125e-001 -2.488106e-001  9.645571e-003
    endloop
  endfacet
  facet normal  1.000000e+000  0.000000e+000  0.000000e+000
    outer loop
      vertex  5.703125e-001 -2.374233e-001  3.002300e-004
      vertex  5.703125e-001 -2.488106e-001  9.645571e-003
      vertex  5.703125e-001 -2.473667e-001  6.944215e-003
    endloop
  endfacet
  facet normal  1.000000e+000  0.000000e+000  0.000000e+000
    outer loop
      vertex  5.703125e-001 -2.374233e-001  3.002300e-004
      vertex  5.703125e-001 -2.473667e-001  6.944215e-003
      vertex  5.703125e-001 -2.454235e-001  4.576457e-003
    endloop
  endfacet
  facet normal  1.000000e+000  0.000000e+000  0.000000e+000
    outer loop
      vertex  5.703125e-001 -2.374233e-001  3.002300e-004
      vertex  5.703125e-001 -2.454235e-001  4.576457e-003
      vertex  5.703125e-001 -2.430558e-001  2.633287e-003
    endloop
  endfacet
  facet normal  1.000000e+000  0.000000e+000  0.000000e+000
    outer loop
      vertex  5.703125e-001 -2.374233e-001  3.002300e-004
      vertex  5.703125e-001 -2.430558e-001  2.633287e-003
      vertex  5.703125e-001 -2.403544e-001  1.189382e-003
    endloop
  endfacet
  facet normal  0.000000e+000  0.000000e+000  1.000000e+000
    outer loop
      vertex -5.625000e-001 -2.500000e-001  7.500000e-001
      vertex  5.703125e-001 -2.500000e-001  7.500000e-001
      vertex -5.625000e-001  2.627467e-001  7.500000e-001
    endloop
  endfacet
  facet normal  0.000000e+000  0.000000e+000  1.000000e+000
    outer loop
      vertex -5.625000e-001  2.627467e-001  7.500000e-001
      vertex  5.703125e-001 -2.500000e-001  7.500000e-001
      vertex  5.703125e-001  2.393092e-001  7.500000e-001
    endloop
  endfacet
  facet normal  0.000000e+000  0.000000e+000  1.000000e+000
    outer loop
      vertex -5.625000e-001  2.627467e-001  7.500000e-001
      vertex  5.703125e-001  2.393092e-001  7.500000e-001
      vertex  5.234375e-001  2.627467e-001  7.500000e-001
    endloop
  endfacet
  facet normal  0.000000e+000  1.000000e+000  -0.000000e+000
    outer loop
      vertex  5.234375e-001  2.627467e-001  7.500000e-001
      vertex  5.234375e-001  2.627467e-001  0.000000e+000
      vertex -5.625000e-001  2.627467e-001  7.500000e-001
    endloop
  endfacet
  facet normal  0.000000e+000  1.000000e+000  0.000000e+000
    outer loop
      vertex -5.625000e-001  2.627467e-001  7.500000e-001
      vertex  5.234375e-001  2.627467e-001  0.000000e+000
      vertex -5.625000e-001  2.627467e-001  0.000000e+000
    endloop
  endfacet
  facet normal  4.472138e-001  8.944271e-001  -0.000000e+000
    outer loop
      vertex  5.703125e-001  2.393092e-001  7.500000e-001
      vertex  5.703125e-001  2.393092e-001  0.000000e+000
      vertex  5.234375e-001  2.627467e-001  7.500000e-001
    endloop
  endfacet
  facet normal  4.472138e-001  8.944271e-001  0.000000e+000
    outer loop
      vertex  5.234375e-001  2.627467e-001  7.500000e-001
      vertex  5.703125e-001  2.393092e-001  0.000000e+000
      vertex  5.234375e-001  2.627467e-001  0.000000e+000
    endloop
  endfacet
  facet normal -1.000000e+000  0.000000e+000  0.000000e+000
    outer loop
      vertex -5.625000e-001 -2.343750e-001  0.000000e+000
      vertex -5.625000e-001 -2.374233e-001  3.002300e-004
      vertex -5.625000e-001 -2.403544e-001  1.189382e-003
    endloop
  endfacet
  facet normal -1.000000e+000  0.000000e+000  0.000000e+000
    outer loop
      vertex -5.625000e-001  2.627467e-001  7.500000e-001
      vertex -5.625000e-001  2.627467e-001  0.000000e+000
      vertex -5.625000e-001 -2.488106e-001  9.645571e-003
    endloop
  endfacet
  facet normal -1.000000e+000  0.000000e+000  0.000000e+000
    outer loop
      vertex -5.625000e-001  2.627467e-001  7.500000e-001
      vertex -5.625000e-001 -2.488106e-001  9.645571e-003
      vertex -5.625000e-001 -2.496998e-001  1.257671e-002
    endloop
  endfacet
  facet normal -9.999999e-001  0.000000e+000  0.000000e+000
    outer loop
      vertex -5.625000e-001  2.627467e-001  7.500000e-001
      vertex -5.625000e-001 -2.496998e-001  1.257671e-002
      vertex -5.625000e-001 -2.500000e-001  1.562500e-002
    endloop
  endfacet
  facet normal -1.000000e+000  0.000000e+000  0.000000e+000
    outer loop
      vertex -5.625000e-001  2.627467e-001  7.500000e-001
      vertex -5.625000e-001 -2.500000e-001  1.562500e-002
      vertex -5.625000e-001 -2.500000e-001  7.500000e-001
    endloop
  endfacet
  facet normal -1.000000e+000  0.000000e+000  0.000000e+000
    outer loop
      vertex -5.625000e-001  2.627467e-001  0.000000e+000
      vertex -5.625000e-001 -2.343750e-001  0.000000e+000
      vertex -5.625000e-001 -2.403544e-001  1.189382e-003
    endloop
  endfacet
  facet normal -9.999999e-001  0.000000e+000  0.000000e+000
    outer loop
      vertex -5.625000e-001  2.627467e-001  0.000000e+000
      vertex -5.625000e-001 -2.403544e-001  1.189382e-003
      vertex -5.625000e-001 -2.430558e-001  2.633287e-003
    endloop
  endfacet
  facet normal -1.000000e+000  0.000000e+000  0.000000e+000
    outer loop
      vertex -5.625000e-001  2.627467e-001  0.000000e+000
      vertex -5.625000e-001 -2.430558e-001  2.633287e-003
      vertex -5.625000e-001 -2.454235e-001  4.576457e-003
    endloop
  endfacet
  facet normal -1.000000e+000  0.000000e+000  0.000000e+000
    outer loop
      vertex -5.625000e-001  2.627467e-001  0.000000e+000
      vertex -5.625000e-001 -2.454235e-001  4.576457e-003
      vertex -5.625000e-001 -2.473667e-001  6.944215e-003
    endloop
  endfacet
  facet normal -9.999999e-001  0.000000e+000  0.000000e+000
    outer loop
      vertex -5.625000e-001  2.627467e-001  0.000000e+000
      vertex -5.625000e-001 -2.473667e-001  6.944215e-003
      vertex -5.625000e-001 -2.488106e-001  9.645571e-003
    endloop
  endfacet
  facet normal  0.000000e+000 -1.000000e+000  0.000000e+000
    outer loop
      vertex -5.625000e-001 -2.500000e-001  7.500000e-001
      vertex -5.625000e-001 -2.500000e-001  1.562500e-002
      vertex  5.703125e-001 -2.500000e-001  7.500000e-001
    endloop
  endfacet
  facet normal  0.000000e+000 -1.000000e+000  -0.000000e+000
    outer loop
      vertex  5.703125e-001 -2.500000e-001  7.500000e-001
      vertex -5.625000e-001 -2.500000e-001  1.562500e-002
      vertex  5.703125e-001 -2.500000e-001  1.562500e-002
    endloop
  endfacet
  facet normal  -0.000000e+000 -9.801716e-002 -9.951848e-001
    outer loop
      vertex -5.625000e-001 -2.343750e-001  0.000000e+000
      vertex  5.703125e-001 -2.343750e-001  0.000000e+000
      vertex -5.625000e-001 -2.374233e-001  3.002300e-004
    endloop
  endfacet
  facet normal  0.000000e+000 -9.801716e-002 -9.951848e-001
    outer loop
      vertex -5.625000e-001 -2.374233e-001  3.002300e-004
      vertex  5.703125e-001 -2.343750e-001  0.000000e+000
      vertex  5.703125e-001 -2.374233e-001  3.002300e-004
    endloop
  endfacet
  facet normal  -0.000000e+000 -2.902842e-001 -9.569406e-001
    outer loop
      vertex -5.625000e-001 -2.374233e-001  3.002300e-004
      vertex  5.703125e-001 -2.374233e-001  3.002300e-004
      vertex -5.625000e-001 -2.403544e-001  1.189382e-003
    endloop
  endfacet
  facet normal  0.000000e+000 -2.902842e-001 -9.569406e-001
    outer loop
      vertex -5.625000e-001 -2.403544e-001  1.189382e-003
      vertex  5.703125e-001 -2.374233e-001  3.002300e-004
      vertex  5.703125e-001 -2.403544e-001  1.189382e-003
    endloop
  endfacet
  facet normal  -0.000000e+000 -4.713966e-001 -8.819212e-001
    outer loop
      vertex -5.625000e-001 -2.403544e-001  1.189382e-003
      vertex  5.703125e-001 -2.403544e-001  1.189382e-003
      vertex -5.625000e-001 -2.430558e-001  2.633287e-003
    endloop
  endfacet
  facet normal  0.000000e+000 -4.713966e-001 -8.819212e-001
    outer loop
      vertex -5.625000e-001 -2.430558e-001  2.633287e-003
      vertex  5.703125e-001 -2.403544e-001  1.189382e-003
      vertex  5.703125e-001 -2.430558e-001  2.633287e-003
    endloop
  endfacet
  facet normal  -0.000000e+000 -6.343947e-001 -7.730092e-001
    outer loop
      vertex -5.625000e-001 -2.430558e-001  2.633287e-003
      vertex  5.703125e-001 -2.430558e-001  2.633287e-003
      vertex -5.625000e-001 -2.454235e-001  4.576457e-003
    endloop
  endfacet
  facet normal  0.000000e+000 -6.343947e-001 -7.730092e-001
    outer loop
      vertex -5.625000e-001 -2.454235e-001  4.576457e-003
      vertex  5.703125e-001 -2.430558e-001  2.633287e-003
      vertex  5.703125e-001 -2.454235e-001  4.576457e-003
    endloop
  endfacet
  facet normal  -0.000000e+000 -7.730101e-001 -6.343937e-001
    outer loop
      vertex -5.625000e-001 -2.454235e-001  4.576457e-003
      vertex  5.703125e-001 -2.454235e-001  4.576457e-003
      vertex -5.625000e-001 -2.473667e-001  6.944215e-003
    endloop
  endfacet
  facet normal  0.000000e+000 -7.730101e-001 -6.343937e-001
    outer loop
      vertex -5.625000e-001 -2.473667e-001  6.944215e-003
      vertex  5.703125e-001 -2.454235e-001  4.576457e-003
      vertex  5.703125e-001 -2.473667e-001  6.944215e-003
    endloop
  endfacet
  facet normal  -0.000000e+000 -8.819209e-001 -4.713974e-001
    outer loop
      vertex -5.625000e-001 -2.473667e-001  6.944215e-003
      vertex  5.703125e-001 -2.473667e-001  6.944215e-003
      vertex -5.625000e-001 -2.488106e-001  9.645571e-003
    endloop
  endfacet
  facet normal  0.000000e+000 -8.819209e-001 -4.713974e-001
    outer loop
      vertex -5.625000e-001 -2.488106e-001  9.645571e-003
      vertex  5.703125e-001 -2.473667e-001  6.944215e-003
      vertex  5.703125e-001 -2.488106e-001  9.645571e-003
    endloop
  endfacet
  facet normal  -0.000000e+000 -9.569404e-001 -2.902846e-001
    outer loop
      vertex -5.625000e-001 -2.488106e-001  9.645571e-003
      vertex  5.703125e-001 -2.488106e-001  9.645571e-003
      vertex -5.625000e-001 -2.496998e-001  1.257671e-002
    endloop
  endfacet
  facet normal  0.000000e+000 -9.569404e-001 -2.902846e-001
    outer loop
      vertex -5.625000e-001 -2.496998e-001  1.257671e-002
      vertex  5.703125e-001 -2.488106e-001  9.645571e-003
      vertex  5.703125e-001 -2.496998e-001  1.257671e-002
    endloop
  endfacet
  facet normal  -0.000000e+000 -9.951848e-001 -9.801670e-002
    outer loop
      vertex -5.625000e-001 -2.496998e-001  1.257671e-002
      vertex  5.703125e-001 -2.496998e-001  1.257671e-002
      vertex -5.625000e-001 -2.500000e-001  1.562500e-002
    endloop
  endfacet
  facet normal  0.000000e+000 -9.951848e-001 -9.801670e-002
    outer loop
      vertex -5.625000e-001 -2.500000e-001  1.562500e-002
      vertex  5.703125e-001 -2.496998e-001  1.257671e-002
      vertex  5.703125e-001 -2.500000e-001  1.562500e-002
    endloop
  endfacet
endsolid CATIA STL
