solid CATIA STL
  facet normal  0.000000e+000  0.000000e+000  1.000000e+000
    outer loop
      vertex -1.214306e-016  7.360197e-001  5.468750e-001
      vertex -1.214306e-016  6.632401e-001  5.468750e-001
      vertex  2.500000e-001  7.360197e-001  5.468750e-001
    endloop
  endfacet
  facet normal  0.000000e+000  0.000000e+000  1.000000e+000
    outer loop
      vertex  2.500000e-001  7.360197e-001  5.468750e-001
      vertex -1.214306e-016  6.632401e-001  5.468750e-001
      vertex  2.500000e-001  6.632401e-001  5.468750e-001
    endloop
  endfacet
  facet normal -9.525367e-008  9.146038e-001 -4.043511e-001
    outer loop
      vertex  2.500000e-001  2.603190e-001 -5.467860e-001
      vertex  5.478777e-034  2.602796e-001 -5.468750e-001
      vertex  2.500000e-001  7.406732e-001  5.397297e-001
    endloop
  endfacet
  facet normal  0.000000e+000  9.146038e-001 -4.043512e-001
    outer loop
      vertex  2.500000e-001  7.406732e-001  5.397297e-001
      vertex  5.478777e-034  2.602796e-001 -5.468750e-001
      vertex -1.206374e-016  7.406732e-001  5.397297e-001
    endloop
  endfacet
  facet normal  1.000000e+000  -0.000000e+000  0.000000e+000
    outer loop
      vertex  2.500000e-001  7.360197e-001  5.468750e-001
      vertex  2.500000e-001  6.632401e-001  5.468750e-001
      vertex  2.500000e-001  7.406732e-001  5.397297e-001
    endloop
  endfacet
  facet normal  1.000000e+000  0.000000e+000  0.000000e+000
    outer loop
      vertex  2.500000e-001  2.603190e-001 -5.467860e-001
      vertex  2.500000e-001  1.841182e-001 -5.368533e-001
      vertex  2.500000e-001  1.796875e-001 -5.468750e-001
    endloop
  endfacet
  facet normal  1.000000e+000  0.000000e+000  0.000000e+000
    outer loop
      vertex  2.500000e-001 -2.250458e-001 -5.372695e-001
      vertex  2.500000e-001 -2.265625e-001 -5.468750e-001
      vertex  2.500000e-001 -1.469572e-001 -5.468750e-001
    endloop
  endfacet
  facet normal  1.000000e+000  0.000000e+000  0.000000e+000
    outer loop
      vertex  2.500000e-001 -2.250458e-001 -5.372695e-001
      vertex  2.500000e-001 -1.469572e-001 -5.468750e-001
      vertex  2.500000e-001 -2.080592e-001 -4.296875e-001
    endloop
  endfacet
  facet normal  1.000000e+000  0.000000e+000  0.000000e+000
    outer loop
      vertex  2.500000e-001 -2.250458e-001 -5.372695e-001
      vertex  2.500000e-001 -2.080592e-001 -4.296875e-001
      vertex  2.500000e-001 -6.809211e-001  5.468750e-001
    endloop
  endfacet
  facet normal  1.000000e+000  0.000000e+000  0.000000e+000
    outer loop
      vertex  2.500000e-001 -2.250458e-001 -5.372695e-001
      vertex  2.500000e-001 -6.809211e-001  5.468750e-001
      vertex  2.500000e-001 -7.500000e-001  5.468750e-001
    endloop
  endfacet
  facet normal  1.000000e+000  -0.000000e+000  0.000000e+000
    outer loop
      vertex  2.500000e-001  7.023026e-002  4.062500e-001
      vertex  2.500000e-001  3.060650e-017  4.062500e-001
      vertex  2.500000e-001  1.508763e-003  3.982871e-001
    endloop
  endfacet
  facet normal  1.000000e+000  -0.000000e+000  0.000000e+000
    outer loop
      vertex  2.500000e-001  7.023026e-002  4.062500e-001
      vertex  2.500000e-001  1.508763e-003  3.982871e-001
      vertex  2.500000e-001  2.280750e-003  3.942127e-001
    endloop
  endfacet
  facet normal  1.000000e+000  -0.000000e+000  0.000000e+000
    outer loop
      vertex  2.500000e-001  7.023026e-002  4.062500e-001
      vertex  2.500000e-001  2.280750e-003  3.942127e-001
      vertex  2.500000e-001  1.776833e-001 -5.315231e-001
    endloop
  endfacet
  facet normal  1.000000e+000  0.000000e+000  -0.000000e+000
    outer loop
      vertex  2.500000e-001  7.023026e-002  4.062500e-001
      vertex  2.500000e-001  1.776833e-001 -5.315231e-001
      vertex  2.500000e-001  2.355735e-001 -4.204662e-001
    endloop
  endfacet
  facet normal  1.000000e+000  -0.000000e+000  0.000000e+000
    outer loop
      vertex  2.500000e-001  2.355735e-001 -4.204662e-001
      vertex  2.500000e-001  1.776833e-001 -5.315231e-001
      vertex  2.500000e-001  1.841182e-001 -5.368533e-001
    endloop
  endfacet
  facet normal  1.000000e+000  -0.000000e+000  0.000000e+000
    outer loop
      vertex  2.500000e-001  2.355735e-001 -4.204662e-001
      vertex  2.500000e-001  1.841182e-001 -5.368533e-001
      vertex  2.500000e-001  2.603190e-001 -5.467860e-001
    endloop
  endfacet
  facet normal  9.999999e-001  0.000000e+000  -0.000000e+000
    outer loop
      vertex  2.500000e-001  2.355735e-001 -4.204662e-001
      vertex  2.500000e-001  2.603190e-001 -5.467860e-001
      vertex  2.500000e-001  7.406732e-001  5.397297e-001
    endloop
  endfacet
  facet normal  1.000000e+000  0.000000e+000  0.000000e+000
    outer loop
      vertex  2.500000e-001  2.355735e-001 -4.204662e-001
      vertex  2.500000e-001  7.406732e-001  5.397297e-001
      vertex  2.500000e-001  6.632401e-001  5.468750e-001
    endloop
  endfacet
  facet normal  1.000000e+000  0.000000e+000  -0.000000e+000
    outer loop
      vertex  2.500000e-001 -2.080592e-001 -4.296875e-001
      vertex  2.500000e-001 -1.469572e-001 -5.468750e-001
      vertex  2.500000e-001 -7.730263e-002  3.984375e-001
    endloop
  endfacet
  facet normal  1.000000e+000  0.000000e+000  0.000000e+000
    outer loop
      vertex  2.500000e-001 -7.730263e-002  3.984375e-001
      vertex  2.500000e-001 -1.469572e-001 -5.468750e-001
      vertex  2.500000e-001  2.280750e-003  3.942127e-001
    endloop
  endfacet
  facet normal  1.000000e+000  0.000000e+000  0.000000e+000
    outer loop
      vertex  2.500000e-001 -7.730263e-002  3.984375e-001
      vertex  2.500000e-001  2.280750e-003  3.942127e-001
      vertex  2.500000e-001  1.508763e-003  3.982871e-001
    endloop
  endfacet
  facet normal -1.000000e+000  0.000000e+000 -1.110214e-016
    outer loop
      vertex -1.206374e-016  7.406732e-001  5.397297e-001
      vertex -1.214306e-016  6.632401e-001  5.468750e-001
      vertex -1.214306e-016  7.360197e-001  5.468750e-001
    endloop
  endfacet
  facet normal -1.000000e+000  0.000000e+000 -1.110225e-016
    outer loop
      vertex  0.000000e+000  1.796875e-001 -5.468750e-001
      vertex -1.112639e-018  1.841182e-001 -5.368533e-001
      vertex  5.478777e-034  2.602796e-001 -5.468750e-001
    endloop
  endfacet
  facet normal -1.000000e+000  0.000000e+000 -1.110223e-016
    outer loop
      vertex -1.066428e-018 -2.250458e-001 -5.372695e-001
      vertex -1.214306e-016 -7.500000e-001  5.468750e-001
      vertex -1.214306e-016 -6.809211e-001  5.468750e-001
    endloop
  endfacet
  facet normal -1.000000e+000  0.000000e+000 -1.110223e-016
    outer loop
      vertex -1.066428e-018 -2.250458e-001 -5.372695e-001
      vertex -1.214306e-016 -6.809211e-001  5.468750e-001
      vertex -1.301043e-017 -2.080592e-001 -4.296875e-001
    endloop
  endfacet
  facet normal -1.000000e+000  1.131880e-023 -1.110223e-016
    outer loop
      vertex -1.066428e-018 -2.250458e-001 -5.372695e-001
      vertex -1.301043e-017 -2.080592e-001 -4.296875e-001
      vertex  5.411689e-034 -1.469572e-001 -5.468750e-001
    endloop
  endfacet
  facet normal -1.000000e+000  6.798156e-033 -1.110224e-016
    outer loop
      vertex -1.066428e-018 -2.250458e-001 -5.372695e-001
      vertex  5.411689e-034 -1.469572e-001 -5.468750e-001
      vertex  0.000000e+000 -2.265625e-001 -5.468750e-001
    endloop
  endfacet
  facet normal -1.000000e+000 -4.130660e-023 -1.110223e-016
    outer loop
      vertex -1.058181e-016  7.023026e-002  4.062500e-001
      vertex -1.403420e-017  2.355735e-001 -4.204662e-001
      vertex -1.704399e-018  1.776833e-001 -5.315231e-001
    endloop
  endfacet
  facet normal -1.000000e+000  0.000000e+000 -1.110223e-016
    outer loop
      vertex -1.058181e-016  7.023026e-002  4.062500e-001
      vertex -1.704399e-018  1.776833e-001 -5.315231e-001
      vertex -1.044817e-016  2.280750e-003  3.942127e-001
    endloop
  endfacet
  facet normal -1.000000e+000 -1.391888e-022 -1.110215e-016
    outer loop
      vertex -1.058181e-016  7.023026e-002  4.062500e-001
      vertex -1.044817e-016  2.280750e-003  3.942127e-001
      vertex -1.049341e-016  1.508763e-003  3.982871e-001
    endloop
  endfacet
  facet normal -1.000000e+000  0.000000e+000 -1.110227e-016
    outer loop
      vertex -1.058181e-016  7.023026e-002  4.062500e-001
      vertex -1.049341e-016  1.508763e-003  3.982871e-001
      vertex -1.058181e-016  3.060650e-017  4.062500e-001
    endloop
  endfacet
  facet normal -1.000000e+000 -8.211034e-023 -1.110223e-016
    outer loop
      vertex -1.403420e-017  2.355735e-001 -4.204662e-001
      vertex -1.214306e-016  6.632401e-001  5.468750e-001
      vertex -1.206374e-016  7.406732e-001  5.397297e-001
    endloop
  endfacet
  facet normal -9.999999e-001  6.300593e-023 -1.110223e-016
    outer loop
      vertex -1.403420e-017  2.355735e-001 -4.204662e-001
      vertex -1.206374e-016  7.406732e-001  5.397297e-001
      vertex  5.478777e-034  2.602796e-001 -5.468750e-001
    endloop
  endfacet
  facet normal -1.000000e+000  2.647550e-023 -1.110223e-016
    outer loop
      vertex -1.403420e-017  2.355735e-001 -4.204662e-001
      vertex  5.478777e-034  2.602796e-001 -5.468750e-001
      vertex -1.112639e-018  1.841182e-001 -5.368533e-001
    endloop
  endfacet
  facet normal -1.000000e+000 -5.912090e-022 -1.110220e-016
    outer loop
      vertex -1.403420e-017  2.355735e-001 -4.204662e-001
      vertex -1.112639e-018  1.841182e-001 -5.368533e-001
      vertex -1.704399e-018  1.776833e-001 -5.315231e-001
    endloop
  endfacet
  facet normal -1.000000e+000  4.354841e-023 -1.110215e-016
    outer loop
      vertex -1.049341e-016  1.508763e-003  3.982871e-001
      vertex -1.044817e-016  2.280750e-003  3.942127e-001
      vertex -1.049508e-016 -7.730263e-002  3.984375e-001
    endloop
  endfacet
  facet normal -1.000000e+000  0.000000e+000 -1.110223e-016
    outer loop
      vertex -1.049508e-016 -7.730263e-002  3.984375e-001
      vertex -1.044817e-016  2.280750e-003  3.942127e-001
      vertex  5.411689e-034 -1.469572e-001 -5.468750e-001
    endloop
  endfacet
  facet normal -1.000000e+000  0.000000e+000 -1.110223e-016
    outer loop
      vertex -1.049508e-016 -7.730263e-002  3.984375e-001
      vertex  5.411689e-034 -1.469572e-001 -5.468750e-001
      vertex -1.301043e-017 -2.080592e-001 -4.296875e-001
    endloop
  endfacet
  facet normal  -0.000000e+000  8.379589e-001  5.457333e-001
    outer loop
      vertex  2.500000e-001  7.406732e-001  5.397297e-001
      vertex -1.206374e-016  7.406732e-001  5.397297e-001
      vertex  2.500000e-001  7.360197e-001  5.468750e-001
    endloop
  endfacet
  facet normal  0.000000e+000  8.379589e-001  5.457333e-001
    outer loop
      vertex  2.500000e-001  7.360197e-001  5.468750e-001
      vertex -1.206374e-016  7.406732e-001  5.397297e-001
      vertex -1.214306e-016  7.360197e-001  5.468750e-001
    endloop
  endfacet
  facet normal  0.000000e+000  -0.000000e+000 -1.000000e+000
    outer loop
      vertex  0.000000e+000  1.796875e-001 -5.468750e-001
      vertex  5.478777e-034  2.602796e-001 -5.468750e-001
      vertex  2.500000e-001  1.796875e-001 -5.468750e-001
    endloop
  endfacet
  facet normal  3.557849e-004  1.103660e-003 -9.999994e-001
    outer loop
      vertex  2.500000e-001  1.796875e-001 -5.468750e-001
      vertex  5.478777e-034  2.602796e-001 -5.468750e-001
      vertex  2.500000e-001  2.603190e-001 -5.467860e-001
    endloop
  endfacet
  facet normal  -0.000000e+000 -9.825191e-001 -1.861615e-001
    outer loop
      vertex -1.704399e-018  1.776833e-001 -5.315231e-001
      vertex  2.500000e-001  1.776833e-001 -5.315231e-001
      vertex -1.044817e-016  2.280750e-003  3.942127e-001
    endloop
  endfacet
  facet normal  0.000000e+000 -9.825191e-001 -1.861615e-001
    outer loop
      vertex -1.044817e-016  2.280750e-003  3.942127e-001
      vertex  2.500000e-001  1.776833e-001 -5.315231e-001
      vertex  2.500000e-001  2.280750e-003  3.942127e-001
    endloop
  endfacet
  facet normal  -0.000000e+000 -9.825186e-001 -1.861641e-001
    outer loop
      vertex -1.044817e-016  2.280750e-003  3.942127e-001
      vertex  2.500000e-001  2.280750e-003  3.942127e-001
      vertex  5.650993e-019  1.928828e-003  3.960701e-001
    endloop
  endfacet
  facet normal  0.000000e+000 -9.825186e-001 -1.861641e-001
    outer loop
      vertex  5.650993e-019  1.928828e-003  3.960701e-001
      vertex  2.500000e-001  2.280750e-003  3.942127e-001
      vertex  2.500000e-001  1.928828e-003  3.960701e-001
    endloop
  endfacet
  facet normal  0.000000e+000  9.825186e-001  1.861641e-001
    outer loop
      vertex  5.650993e-019  1.928828e-003  3.960701e-001
      vertex  2.500000e-001  1.928828e-003  3.960701e-001
      vertex -1.044817e-016  2.280750e-003  3.942127e-001
    endloop
  endfacet
  facet normal  -0.000000e+000  9.825186e-001  1.861641e-001
    outer loop
      vertex -1.044817e-016  2.280750e-003  3.942127e-001
      vertex  2.500000e-001  1.928828e-003  3.960701e-001
      vertex  2.500000e-001  2.280750e-003  3.942127e-001
    endloop
  endfacet
  facet normal  0.000000e+000  9.876584e-001 -1.566232e-001
    outer loop
      vertex -1.044817e-016  2.280750e-003  3.942127e-001
      vertex  2.500000e-001  2.280750e-003  3.942127e-001
      vertex  5.411689e-034 -1.469572e-001 -5.468750e-001
    endloop
  endfacet
  facet normal  0.000000e+000  9.876584e-001 -1.566232e-001
    outer loop
      vertex  5.411689e-034 -1.469572e-001 -5.468750e-001
      vertex  2.500000e-001  2.280750e-003  3.942127e-001
      vertex  2.500000e-001 -1.469572e-001 -5.468750e-001
    endloop
  endfacet
  facet normal  0.000000e+000  -0.000000e+000 -1.000000e+000
    outer loop
      vertex  0.000000e+000 -2.265625e-001 -5.468750e-001
      vertex  5.411689e-034 -1.469572e-001 -5.468750e-001
      vertex  2.500000e-001 -2.265625e-001 -5.468750e-001
    endloop
  endfacet
  facet normal  0.000000e+000  0.000000e+000 -1.000000e+000
    outer loop
      vertex  2.500000e-001 -2.265625e-001 -5.468750e-001
      vertex  5.411689e-034 -1.469572e-001 -5.468750e-001
      vertex  2.500000e-001 -1.469572e-001 -5.468750e-001
    endloop
  endfacet
  facet normal  -0.000000e+000  9.000394e-001  4.358086e-001
    outer loop
      vertex  2.500000e-001 -2.080592e-001 -4.296875e-001
      vertex -1.301043e-017 -2.080592e-001 -4.296875e-001
      vertex  2.500000e-001 -6.809211e-001  5.468750e-001
    endloop
  endfacet
  facet normal  0.000000e+000  9.000394e-001  4.358086e-001
    outer loop
      vertex  2.500000e-001 -6.809211e-001  5.468750e-001
      vertex -1.301043e-017 -2.080592e-001 -4.296875e-001
      vertex -1.214306e-016 -6.809211e-001  5.468750e-001
    endloop
  endfacet
  facet normal  0.000000e+000 -9.877629e-001  1.559626e-001
    outer loop
      vertex  2.500000e-001 -7.730263e-002  3.984375e-001
      vertex -1.049508e-016 -7.730263e-002  3.984375e-001
      vertex  2.500000e-001 -2.080592e-001 -4.296875e-001
    endloop
  endfacet
  facet normal  0.000000e+000 -9.877629e-001  1.559626e-001
    outer loop
      vertex  2.500000e-001 -2.080592e-001 -4.296875e-001
      vertex -1.049508e-016 -7.730263e-002  3.984375e-001
      vertex -1.301043e-017 -2.080592e-001 -4.296875e-001
    endloop
  endfacet
  facet normal  0.000000e+000  1.908506e-003  9.999982e-001
    outer loop
      vertex -1.049341e-016  1.508763e-003  3.982871e-001
      vertex -1.049508e-016 -7.730263e-002  3.984375e-001
      vertex  2.500000e-001  1.508763e-003  3.982871e-001
    endloop
  endfacet
  facet normal  0.000000e+000  1.908506e-003  9.999982e-001
    outer loop
      vertex  2.500000e-001  1.508763e-003  3.982871e-001
      vertex -1.049508e-016 -7.730263e-002  3.984375e-001
      vertex  2.500000e-001 -7.730263e-002  3.984375e-001
    endloop
  endfacet
  facet normal  0.000000e+000 -9.825191e-001 -1.861616e-001
    outer loop
      vertex  2.500000e-001  3.060650e-017  4.062500e-001
      vertex -1.058181e-016  3.060650e-017  4.062500e-001
      vertex  2.500000e-001  1.508763e-003  3.982871e-001
    endloop
  endfacet
  facet normal  -0.000000e+000 -9.825191e-001 -1.861616e-001
    outer loop
      vertex  2.500000e-001  1.508763e-003  3.982871e-001
      vertex -1.058181e-016  3.060650e-017  4.062500e-001
      vertex -1.049341e-016  1.508763e-003  3.982871e-001
    endloop
  endfacet
  facet normal  0.000000e+000  0.000000e+000  1.000000e+000
    outer loop
      vertex -1.058181e-016  7.023026e-002  4.062500e-001
      vertex -1.058181e-016  3.060650e-017  4.062500e-001
      vertex  2.500000e-001  7.023026e-002  4.062500e-001
    endloop
  endfacet
  facet normal  0.000000e+000  0.000000e+000  1.000000e+000
    outer loop
      vertex  2.500000e-001  7.023026e-002  4.062500e-001
      vertex -1.058181e-016  3.060650e-017  4.062500e-001
      vertex  2.500000e-001  3.060650e-017  4.062500e-001
    endloop
  endfacet
  facet normal  0.000000e+000 -9.877628e-001  1.559634e-001
    outer loop
      vertex  2.500000e-001 -2.250458e-001 -5.372695e-001
      vertex -1.066428e-018 -2.250458e-001 -5.372695e-001
      vertex  2.500000e-001 -2.265625e-001 -5.468750e-001
    endloop
  endfacet
  facet normal  0.000000e+000 -9.877628e-001  1.559634e-001
    outer loop
      vertex  2.500000e-001 -2.265625e-001 -5.468750e-001
      vertex -1.066428e-018 -2.250458e-001 -5.372695e-001
      vertex  0.000000e+000 -2.265625e-001 -5.468750e-001
    endloop
  endfacet
  facet normal  0.000000e+000  0.000000e+000  1.000000e+000
    outer loop
      vertex -1.214306e-016 -6.809211e-001  5.468750e-001
      vertex -1.214306e-016 -7.500000e-001  5.468750e-001
      vertex  2.500000e-001 -6.809211e-001  5.468750e-001
    endloop
  endfacet
  facet normal  0.000000e+000  0.000000e+000  1.000000e+000
    outer loop
      vertex  2.500000e-001 -6.809211e-001  5.468750e-001
      vertex -1.214306e-016 -7.500000e-001  5.468750e-001
      vertex  2.500000e-001 -7.500000e-001  5.468750e-001
    endloop
  endfacet
  facet normal  0.000000e+000 -9.000394e-001 -4.358086e-001
    outer loop
      vertex  2.500000e-001 -7.500000e-001  5.468750e-001
      vertex -1.214306e-016 -7.500000e-001  5.468750e-001
      vertex  2.500000e-001 -2.250458e-001 -5.372695e-001
    endloop
  endfacet
  facet normal  -0.000000e+000 -9.000394e-001 -4.358086e-001
    outer loop
      vertex  2.500000e-001 -2.250458e-001 -5.372695e-001
      vertex -1.214306e-016 -7.500000e-001  5.468750e-001
      vertex -1.066428e-018 -2.250458e-001 -5.372695e-001
    endloop
  endfacet
  facet normal  0.000000e+000 -9.146038e-001  4.043512e-001
    outer loop
      vertex  2.500000e-001  6.632401e-001  5.468750e-001
      vertex -1.214306e-016  6.632401e-001  5.468750e-001
      vertex  2.500000e-001  2.355735e-001 -4.204662e-001
    endloop
  endfacet
  facet normal  0.000000e+000 -9.146038e-001  4.043512e-001
    outer loop
      vertex  2.500000e-001  2.355735e-001 -4.204662e-001
      vertex -1.214306e-016  6.632401e-001  5.468750e-001
      vertex -1.403420e-017  2.355735e-001 -4.204662e-001
    endloop
  endfacet
  facet normal  0.000000e+000 -9.146033e-001  4.043523e-001
    outer loop
      vertex  2.500000e-001  1.841182e-001 -5.368533e-001
      vertex -1.112639e-018  1.841182e-001 -5.368533e-001
      vertex  2.500000e-001  1.796875e-001 -5.468750e-001
    endloop
  endfacet
  facet normal  0.000000e+000 -9.146033e-001  4.043523e-001
    outer loop
      vertex  2.500000e-001  1.796875e-001 -5.468750e-001
      vertex -1.112639e-018  1.841182e-001 -5.368533e-001
      vertex  0.000000e+000  1.796875e-001 -5.468750e-001
    endloop
  endfacet
  facet normal  -0.000000e+000  9.805807e-001  1.961161e-001
    outer loop
      vertex  2.500000e-001  2.355735e-001 -4.204662e-001
      vertex -1.403420e-017  2.355735e-001 -4.204662e-001
      vertex  2.500000e-001  7.023026e-002  4.062500e-001
    endloop
  endfacet
  facet normal  0.000000e+000  9.805807e-001  1.961161e-001
    outer loop
      vertex  2.500000e-001  7.023026e-002  4.062500e-001
      vertex -1.403420e-017  2.355735e-001 -4.204662e-001
      vertex -1.058181e-016  7.023026e-002  4.062500e-001
    endloop
  endfacet
  facet normal  0.000000e+000 -6.379056e-001 -7.701145e-001
    outer loop
      vertex  2.500000e-001  1.776833e-001 -5.315231e-001
      vertex -1.704399e-018  1.776833e-001 -5.315231e-001
      vertex  2.500000e-001  1.841182e-001 -5.368533e-001
    endloop
  endfacet
  facet normal  -0.000000e+000 -6.379056e-001 -7.701145e-001
    outer loop
      vertex  2.500000e-001  1.841182e-001 -5.368533e-001
      vertex -1.704399e-018  1.776833e-001 -5.315231e-001
      vertex -1.112639e-018  1.841182e-001 -5.368533e-001
    endloop
  endfacet
endsolid CATIA STL
