solid CATIA STL
  facet normal  0.000000e+000  0.000000e+000  1.000000e+000
    outer loop
      vertex -1.230372e-001  6.582392e-001  2.265625e-001
      vertex  1.388267e-001  6.582392e-001  2.265625e-001
      vertex  7.894752e-003  6.711349e-001  2.265625e-001
    endloop
  endfacet
  facet normal  -0.000000e+000  0.000000e+000  1.000000e+000
    outer loop
      vertex  1.388267e-001  6.582392e-001  2.265625e-001
      vertex -1.230372e-001  6.582392e-001  2.265625e-001
      vertex  2.647269e-001  6.200477e-001  2.265625e-001
    endloop
  endfacet
  facet normal  0.000000e+000  0.000000e+000  9.999999e-001
    outer loop
      vertex  2.647269e-001  6.200477e-001  2.265625e-001
      vertex -1.230372e-001  6.582392e-001  2.265625e-001
      vertex -2.489374e-001  6.200477e-001  2.265625e-001
    endloop
  endfacet
  facet normal  -0.000000e+000  0.000000e+000  1.000000e+000
    outer loop
      vertex  2.647269e-001  6.200477e-001  2.265625e-001
      vertex -2.489374e-001  6.200477e-001  2.265625e-001
      vertex  3.807573e-001  5.580282e-001  2.265625e-001
    endloop
  endfacet
  facet normal  0.000000e+000  0.000000e+000  9.999999e-001
    outer loop
      vertex  3.807573e-001  5.580282e-001  2.265625e-001
      vertex -2.489374e-001  6.200477e-001  2.265625e-001
      vertex -3.649678e-001  5.580283e-001  2.265625e-001
    endloop
  endfacet
  facet normal  0.000000e+000  0.000000e+000  9.999999e-001
    outer loop
      vertex  3.807573e-001  5.580282e-001  2.265625e-001
      vertex -3.649678e-001  5.580283e-001  2.265625e-001
      vertex  4.824588e-001  4.745640e-001  2.265625e-001
    endloop
  endfacet
  facet normal  0.000000e+000  0.000000e+000  1.000000e+000
    outer loop
      vertex  4.824588e-001  4.745640e-001  2.265625e-001
      vertex -3.649678e-001  5.580283e-001  2.265625e-001
      vertex -4.666693e-001  4.745640e-001  2.265625e-001
    endloop
  endfacet
  facet normal  0.000000e+000  0.000000e+000  1.000000e+000
    outer loop
      vertex  4.824588e-001  4.745640e-001  2.265625e-001
      vertex -4.666693e-001  4.745640e-001  2.265625e-001
      vertex  5.659230e-001  3.728625e-001  2.265625e-001
    endloop
  endfacet
  facet normal  0.000000e+000  0.000000e+000  1.000000e+000
    outer loop
      vertex  5.659230e-001  3.728625e-001  2.265625e-001
      vertex -4.666693e-001  4.745640e-001  2.265625e-001
      vertex -5.501335e-001  3.728626e-001  2.265625e-001
    endloop
  endfacet
  facet normal  0.000000e+000  0.000000e+000  1.000000e+000
    outer loop
      vertex  5.659230e-001  3.728625e-001  2.265625e-001
      vertex -5.501335e-001  3.728626e-001  2.265625e-001
      vertex  6.279425e-001  2.568322e-001  2.265625e-001
    endloop
  endfacet
  facet normal  0.000000e+000  0.000000e+000  9.999999e-001
    outer loop
      vertex  6.279425e-001  2.568322e-001  2.265625e-001
      vertex -5.501335e-001  3.728626e-001  2.265625e-001
      vertex -6.121530e-001  2.568322e-001  2.265625e-001
    endloop
  endfacet
  facet normal  0.000000e+000  0.000000e+000  1.000000e+000
    outer loop
      vertex  6.279425e-001  2.568322e-001  2.265625e-001
      vertex -6.121530e-001  2.568322e-001  2.265625e-001
      vertex  6.661339e-001  1.309319e-001  2.265625e-001
    endloop
  endfacet
  facet normal  0.000000e+000  0.000000e+000  1.000000e+000
    outer loop
      vertex  6.661339e-001  1.309319e-001  2.265625e-001
      vertex -6.121530e-001  2.568322e-001  2.265625e-001
      vertex -6.503444e-001  1.309319e-001  2.265625e-001
    endloop
  endfacet
  facet normal  0.000000e+000  0.000000e+000  1.000000e+000
    outer loop
      vertex  6.661339e-001  1.309319e-001  2.265625e-001
      vertex -6.503444e-001  1.309319e-001  2.265625e-001
      vertex  6.790296e-001 -3.271836e-016  2.265625e-001
    endloop
  endfacet
  facet normal  0.000000e+000  0.000000e+000  1.000000e+000
    outer loop
      vertex  6.790296e-001 -3.271836e-016  2.265625e-001
      vertex -6.503444e-001  1.309319e-001  2.265625e-001
      vertex -6.632401e-001  2.968544e-008  2.265625e-001
    endloop
  endfacet
  facet normal  0.000000e+000  0.000000e+000  1.000000e+000
    outer loop
      vertex  6.790296e-001 -3.271836e-016  2.265625e-001
      vertex -6.632401e-001  2.968544e-008  2.265625e-001
      vertex  6.661339e-001 -1.309319e-001  2.265625e-001
    endloop
  endfacet
  facet normal  0.000000e+000  0.000000e+000  1.000000e+000
    outer loop
      vertex  6.661339e-001 -1.309319e-001  2.265625e-001
      vertex -6.632401e-001  2.968544e-008  2.265625e-001
      vertex -6.503445e-001 -1.309319e-001  2.265625e-001
    endloop
  endfacet
  facet normal  -0.000000e+000  0.000000e+000  1.000000e+000
    outer loop
      vertex  6.661339e-001 -1.309319e-001  2.265625e-001
      vertex -6.503445e-001 -1.309319e-001  2.265625e-001
      vertex  6.279425e-001 -2.568322e-001  2.265625e-001
    endloop
  endfacet
  facet normal  0.000000e+000  0.000000e+000  1.000000e+000
    outer loop
      vertex  6.279425e-001 -2.568322e-001  2.265625e-001
      vertex -6.503445e-001 -1.309319e-001  2.265625e-001
      vertex -6.121531e-001 -2.568322e-001  2.265625e-001
    endloop
  endfacet
  facet normal  -0.000000e+000  0.000000e+000  9.999999e-001
    outer loop
      vertex  6.279425e-001 -2.568322e-001  2.265625e-001
      vertex -6.121531e-001 -2.568322e-001  2.265625e-001
      vertex  5.659230e-001 -3.728625e-001  2.265625e-001
    endloop
  endfacet
  facet normal  0.000000e+000  0.000000e+000  1.000000e+000
    outer loop
      vertex  5.659230e-001 -3.728625e-001  2.265625e-001
      vertex -6.121531e-001 -2.568322e-001  2.265625e-001
      vertex -5.501335e-001 -3.728625e-001  2.265625e-001
    endloop
  endfacet
  facet normal  -0.000000e+000  0.000000e+000  1.000000e+000
    outer loop
      vertex  5.659230e-001 -3.728625e-001  2.265625e-001
      vertex -5.501335e-001 -3.728625e-001  2.265625e-001
      vertex  4.824587e-001 -4.745640e-001  2.265625e-001
    endloop
  endfacet
  facet normal  0.000000e+000  0.000000e+000  9.999999e-001
    outer loop
      vertex  4.824587e-001 -4.745640e-001  2.265625e-001
      vertex -5.501335e-001 -3.728625e-001  2.265625e-001
      vertex -4.666693e-001 -4.745640e-001  2.265625e-001
    endloop
  endfacet
  facet normal  -0.000000e+000  0.000000e+000  1.000000e+000
    outer loop
      vertex  4.824587e-001 -4.745640e-001  2.265625e-001
      vertex -4.666693e-001 -4.745640e-001  2.265625e-001
      vertex  3.807573e-001 -5.580282e-001  2.265625e-001
    endloop
  endfacet
  facet normal  0.000000e+000  0.000000e+000  1.000000e+000
    outer loop
      vertex  3.807573e-001 -5.580282e-001  2.265625e-001
      vertex -4.666693e-001 -4.745640e-001  2.265625e-001
      vertex -3.649678e-001 -5.580283e-001  2.265625e-001
    endloop
  endfacet
  facet normal  -0.000000e+000  0.000000e+000  1.000000e+000
    outer loop
      vertex  3.807573e-001 -5.580282e-001  2.265625e-001
      vertex -3.649678e-001 -5.580283e-001  2.265625e-001
      vertex  2.647269e-001 -6.200477e-001  2.265625e-001
    endloop
  endfacet
  facet normal  0.000000e+000  0.000000e+000  1.000000e+000
    outer loop
      vertex  2.647269e-001 -6.200477e-001  2.265625e-001
      vertex -3.649678e-001 -5.580283e-001  2.265625e-001
      vertex -2.489375e-001 -6.200477e-001  2.265625e-001
    endloop
  endfacet
  facet normal  -0.000000e+000  0.000000e+000  9.999999e-001
    outer loop
      vertex  2.647269e-001 -6.200477e-001  2.265625e-001
      vertex -2.489375e-001 -6.200477e-001  2.265625e-001
      vertex  1.388267e-001 -6.582392e-001  2.265625e-001
    endloop
  endfacet
  facet normal  0.000000e+000  0.000000e+000  1.000000e+000
    outer loop
      vertex  1.388267e-001 -6.582392e-001  2.265625e-001
      vertex -2.489375e-001 -6.200477e-001  2.265625e-001
      vertex -1.230372e-001 -6.582392e-001  2.265625e-001
    endloop
  endfacet
  facet normal  -0.000000e+000  0.000000e+000  1.000000e+000
    outer loop
      vertex  1.388267e-001 -6.582392e-001  2.265625e-001
      vertex -1.230372e-001 -6.582392e-001  2.265625e-001
      vertex  7.894741e-003 -6.711349e-001  2.265625e-001
    endloop
  endfacet
  facet normal  9.951848e-001 -9.801718e-002 -3.574807e-016
    outer loop
      vertex  6.868421e-001  0.000000e+000  0.000000e+000
      vertex  6.868421e-001 -7.693150e-016  2.109375e-001
      vertex  6.737963e-001 -1.324561e-001  0.000000e+000
    endloop
  endfacet
  facet normal  9.951848e-001 -9.801718e-002  0.000000e+000
    outer loop
      vertex  6.737963e-001 -1.324561e-001  0.000000e+000
      vertex  6.868421e-001 -7.693150e-016  2.109375e-001
      vertex  6.737963e-001 -1.324561e-001  2.109375e-001
    endloop
  endfacet
  facet normal  9.569404e-001 -2.902844e-001  0.000000e+000
    outer loop
      vertex  6.737963e-001 -1.324561e-001  0.000000e+000
      vertex  6.737963e-001 -1.324561e-001  2.109375e-001
      vertex  6.351603e-001 -2.598219e-001  0.000000e+000
    endloop
  endfacet
  facet normal  9.569404e-001 -2.902844e-001  0.000000e+000
    outer loop
      vertex  6.351603e-001 -2.598219e-001  0.000000e+000
      vertex  6.737963e-001 -1.324561e-001  2.109375e-001
      vertex  6.351603e-001 -2.598219e-001  2.109375e-001
    endloop
  endfacet
  facet normal  8.819213e-001 -4.713966e-001  0.000000e+000
    outer loop
      vertex  6.351603e-001 -2.598219e-001  0.000000e+000
      vertex  6.351603e-001 -2.598219e-001  2.109375e-001
      vertex  5.724189e-001 -3.772030e-001  0.000000e+000
    endloop
  endfacet
  facet normal  8.819213e-001 -4.713966e-001  0.000000e+000
    outer loop
      vertex  5.724189e-001 -3.772030e-001  0.000000e+000
      vertex  6.351603e-001 -2.598219e-001  2.109375e-001
      vertex  5.724189e-001 -3.772030e-001  2.109375e-001
    endloop
  endfacet
  facet normal  7.730103e-001 -6.343935e-001  0.000000e+000
    outer loop
      vertex  5.724189e-001 -3.772030e-001  0.000000e+000
      vertex  5.724189e-001 -3.772030e-001  2.109375e-001
      vertex  4.879830e-001 -4.800883e-001  0.000000e+000
    endloop
  endfacet
  facet normal  7.730103e-001 -6.343935e-001  0.000000e+000
    outer loop
      vertex  4.879830e-001 -4.800883e-001  0.000000e+000
      vertex  5.724189e-001 -3.772030e-001  2.109375e-001
      vertex  4.879830e-001 -4.800883e-001  2.109375e-001
    endloop
  endfacet
  facet normal  6.343933e-001 -7.730104e-001  0.000000e+000
    outer loop
      vertex  4.879830e-001 -4.800883e-001  0.000000e+000
      vertex  4.879830e-001 -4.800883e-001  2.109375e-001
      vertex  3.850977e-001 -5.645241e-001  0.000000e+000
    endloop
  endfacet
  facet normal  6.343933e-001 -7.730104e-001  0.000000e+000
    outer loop
      vertex  3.850977e-001 -5.645241e-001  0.000000e+000
      vertex  4.879830e-001 -4.800883e-001  2.109375e-001
      vertex  3.850977e-001 -5.645241e-001  2.109375e-001
    endloop
  endfacet
  facet normal  4.713966e-001 -8.819213e-001  0.000000e+000
    outer loop
      vertex  3.850977e-001 -5.645241e-001  0.000000e+000
      vertex  3.850977e-001 -5.645241e-001  2.109375e-001
      vertex  2.677166e-001 -6.272656e-001  0.000000e+000
    endloop
  endfacet
  facet normal  4.713966e-001 -8.819213e-001  0.000000e+000
    outer loop
      vertex  2.677166e-001 -6.272656e-001  0.000000e+000
      vertex  3.850977e-001 -5.645241e-001  2.109375e-001
      vertex  2.677166e-001 -6.272656e-001  2.109375e-001
    endloop
  endfacet
  facet normal  2.902849e-001 -9.569404e-001  0.000000e+000
    outer loop
      vertex  2.677166e-001 -6.272656e-001  0.000000e+000
      vertex  2.677166e-001 -6.272656e-001  2.109375e-001
      vertex  1.403508e-001 -6.659016e-001  0.000000e+000
    endloop
  endfacet
  facet normal  2.902849e-001 -9.569404e-001  0.000000e+000
    outer loop
      vertex  1.403508e-001 -6.659016e-001  0.000000e+000
      vertex  2.677166e-001 -6.272656e-001  2.109375e-001
      vertex  1.403508e-001 -6.659016e-001  2.109375e-001
    endloop
  endfacet
  facet normal  9.801718e-002 -9.951848e-001  0.000000e+000
    outer loop
      vertex  1.403508e-001 -6.659016e-001  0.000000e+000
      vertex  1.403508e-001 -6.659016e-001  2.109375e-001
      vertex  7.894737e-003 -6.789474e-001  0.000000e+000
    endloop
  endfacet
  facet normal  9.801718e-002 -9.951848e-001  0.000000e+000
    outer loop
      vertex  7.894737e-003 -6.789474e-001  0.000000e+000
      vertex  1.403508e-001 -6.659016e-001  2.109375e-001
      vertex  7.894737e-003 -6.789474e-001  2.109375e-001
    endloop
  endfacet
  facet normal -9.801718e-002 -9.951848e-001  -0.000000e+000
    outer loop
      vertex  7.894737e-003 -6.789474e-001  0.000000e+000
      vertex  7.894737e-003 -6.789474e-001  2.109375e-001
      vertex -1.245613e-001 -6.659016e-001  0.000000e+000
    endloop
  endfacet
  facet normal -9.801718e-002 -9.951848e-001  0.000000e+000
    outer loop
      vertex -1.245613e-001 -6.659016e-001  0.000000e+000
      vertex  7.894737e-003 -6.789474e-001  2.109375e-001
      vertex -1.245613e-001 -6.659016e-001  2.109375e-001
    endloop
  endfacet
  facet normal -2.902849e-001 -9.569404e-001  -0.000000e+000
    outer loop
      vertex -1.245613e-001 -6.659016e-001  0.000000e+000
      vertex -1.245613e-001 -6.659016e-001  2.109375e-001
      vertex -2.519272e-001 -6.272656e-001  0.000000e+000
    endloop
  endfacet
  facet normal -2.902849e-001 -9.569404e-001  0.000000e+000
    outer loop
      vertex -2.519272e-001 -6.272656e-001  0.000000e+000
      vertex -1.245613e-001 -6.659016e-001  2.109375e-001
      vertex -2.519272e-001 -6.272656e-001  2.109375e-001
    endloop
  endfacet
  facet normal -4.713966e-001 -8.819213e-001  -0.000000e+000
    outer loop
      vertex -2.519272e-001 -6.272656e-001  0.000000e+000
      vertex -2.519272e-001 -6.272656e-001  2.109375e-001
      vertex -3.693082e-001 -5.645241e-001  0.000000e+000
    endloop
  endfacet
  facet normal -4.713966e-001 -8.819213e-001  0.000000e+000
    outer loop
      vertex -3.693082e-001 -5.645241e-001  0.000000e+000
      vertex -2.519272e-001 -6.272656e-001  2.109375e-001
      vertex -3.693082e-001 -5.645241e-001  2.109375e-001
    endloop
  endfacet
  facet normal -6.343933e-001 -7.730104e-001  -0.000000e+000
    outer loop
      vertex -3.693082e-001 -5.645241e-001  0.000000e+000
      vertex -3.693082e-001 -5.645241e-001  2.109375e-001
      vertex -4.721935e-001 -4.800883e-001  0.000000e+000
    endloop
  endfacet
  facet normal -6.343933e-001 -7.730104e-001  0.000000e+000
    outer loop
      vertex -4.721935e-001 -4.800883e-001  0.000000e+000
      vertex -3.693082e-001 -5.645241e-001  2.109375e-001
      vertex -4.721935e-001 -4.800883e-001  2.109375e-001
    endloop
  endfacet
  facet normal -7.730104e-001 -6.343933e-001  -0.000000e+000
    outer loop
      vertex -4.721935e-001 -4.800883e-001  0.000000e+000
      vertex -4.721935e-001 -4.800883e-001  2.109375e-001
      vertex -5.566294e-001 -3.772030e-001  0.000000e+000
    endloop
  endfacet
  facet normal -7.730104e-001 -6.343933e-001  0.000000e+000
    outer loop
      vertex -5.566294e-001 -3.772030e-001  0.000000e+000
      vertex -4.721935e-001 -4.800883e-001  2.109375e-001
      vertex -5.566294e-001 -3.772030e-001  2.109375e-001
    endloop
  endfacet
  facet normal -8.819213e-001 -4.713966e-001  -0.000000e+000
    outer loop
      vertex -5.566294e-001 -3.772030e-001  0.000000e+000
      vertex -5.566294e-001 -3.772030e-001  2.109375e-001
      vertex -6.193708e-001 -2.598219e-001  0.000000e+000
    endloop
  endfacet
  facet normal -8.819213e-001 -4.713966e-001  0.000000e+000
    outer loop
      vertex -6.193708e-001 -2.598219e-001  0.000000e+000
      vertex -5.566294e-001 -3.772030e-001  2.109375e-001
      vertex -6.193708e-001 -2.598219e-001  2.109375e-001
    endloop
  endfacet
  facet normal -9.569403e-001 -2.902848e-001  -0.000000e+000
    outer loop
      vertex -6.193708e-001 -2.598219e-001  0.000000e+000
      vertex -6.193708e-001 -2.598219e-001  2.109375e-001
      vertex -6.580068e-001 -1.324561e-001  0.000000e+000
    endloop
  endfacet
  facet normal -9.569403e-001 -2.902848e-001  0.000000e+000
    outer loop
      vertex -6.580068e-001 -1.324561e-001  0.000000e+000
      vertex -6.193708e-001 -2.598219e-001  2.109375e-001
      vertex -6.580068e-001 -1.324561e-001  2.109375e-001
    endloop
  endfacet
  facet normal -9.951848e-001 -9.801718e-002  -0.000000e+000
    outer loop
      vertex -6.580068e-001 -1.324561e-001  0.000000e+000
      vertex -6.580068e-001 -1.324561e-001  2.109375e-001
      vertex -6.710526e-001  3.846575e-016  0.000000e+000
    endloop
  endfacet
  facet normal -9.951848e-001 -9.801718e-002  0.000000e+000
    outer loop
      vertex -6.710526e-001  3.846575e-016  0.000000e+000
      vertex -6.580068e-001 -1.324561e-001  2.109375e-001
      vertex -6.710526e-001  3.846575e-016  2.109375e-001
    endloop
  endfacet
  facet normal -9.951848e-001  9.801718e-002  0.000000e+000
    outer loop
      vertex -6.710526e-001  3.846575e-016  0.000000e+000
      vertex -6.710526e-001  3.846575e-016  2.109375e-001
      vertex -6.580068e-001  1.324561e-001  0.000000e+000
    endloop
  endfacet
  facet normal -9.951848e-001  9.801718e-002  0.000000e+000
    outer loop
      vertex -6.580068e-001  1.324561e-001  0.000000e+000
      vertex -6.710526e-001  3.846575e-016  2.109375e-001
      vertex -6.580068e-001  1.324561e-001  2.109375e-001
    endloop
  endfacet
  facet normal -9.569403e-001  2.902848e-001  0.000000e+000
    outer loop
      vertex -6.580068e-001  1.324561e-001  0.000000e+000
      vertex -6.580068e-001  1.324561e-001  2.109375e-001
      vertex -6.193708e-001  2.598219e-001  0.000000e+000
    endloop
  endfacet
  facet normal -9.569403e-001  2.902848e-001  0.000000e+000
    outer loop
      vertex -6.193708e-001  2.598219e-001  0.000000e+000
      vertex -6.580068e-001  1.324561e-001  2.109375e-001
      vertex -6.193708e-001  2.598219e-001  2.109375e-001
    endloop
  endfacet
  facet normal -8.819213e-001  4.713966e-001  0.000000e+000
    outer loop
      vertex -6.193708e-001  2.598219e-001  0.000000e+000
      vertex -6.193708e-001  2.598219e-001  2.109375e-001
      vertex -5.566294e-001  3.772030e-001  0.000000e+000
    endloop
  endfacet
  facet normal -8.819213e-001  4.713966e-001  0.000000e+000
    outer loop
      vertex -5.566294e-001  3.772030e-001  0.000000e+000
      vertex -6.193708e-001  2.598219e-001  2.109375e-001
      vertex -5.566294e-001  3.772030e-001  2.109375e-001
    endloop
  endfacet
  facet normal -7.730104e-001  6.343933e-001  0.000000e+000
    outer loop
      vertex -5.566294e-001  3.772030e-001  0.000000e+000
      vertex -5.566294e-001  3.772030e-001  2.109375e-001
      vertex -4.721935e-001  4.800883e-001  0.000000e+000
    endloop
  endfacet
  facet normal -7.730104e-001  6.343933e-001  0.000000e+000
    outer loop
      vertex -4.721935e-001  4.800883e-001  0.000000e+000
      vertex -5.566294e-001  3.772030e-001  2.109375e-001
      vertex -4.721935e-001  4.800883e-001  2.109375e-001
    endloop
  endfacet
  facet normal -6.343933e-001  7.730104e-001  0.000000e+000
    outer loop
      vertex -4.721935e-001  4.800883e-001  0.000000e+000
      vertex -4.721935e-001  4.800883e-001  2.109375e-001
      vertex -3.693082e-001  5.645241e-001  0.000000e+000
    endloop
  endfacet
  facet normal -6.343933e-001  7.730104e-001  0.000000e+000
    outer loop
      vertex -3.693082e-001  5.645241e-001  0.000000e+000
      vertex -4.721935e-001  4.800883e-001  2.109375e-001
      vertex -3.693082e-001  5.645241e-001  2.109375e-001
    endloop
  endfacet
  facet normal -4.713966e-001  8.819213e-001  0.000000e+000
    outer loop
      vertex -3.693082e-001  5.645241e-001  0.000000e+000
      vertex -3.693082e-001  5.645241e-001  2.109375e-001
      vertex -2.519272e-001  6.272656e-001  0.000000e+000
    endloop
  endfacet
  facet normal -4.713966e-001  8.819213e-001  0.000000e+000
    outer loop
      vertex -2.519272e-001  6.272656e-001  0.000000e+000
      vertex -3.693082e-001  5.645241e-001  2.109375e-001
      vertex -2.519272e-001  6.272656e-001  2.109375e-001
    endloop
  endfacet
  facet normal -2.902849e-001  9.569404e-001  0.000000e+000
    outer loop
      vertex -2.519272e-001  6.272656e-001  0.000000e+000
      vertex -2.519272e-001  6.272656e-001  2.109375e-001
      vertex -1.245613e-001  6.659016e-001  0.000000e+000
    endloop
  endfacet
  facet normal -2.902849e-001  9.569404e-001  0.000000e+000
    outer loop
      vertex -1.245613e-001  6.659016e-001  0.000000e+000
      vertex -2.519272e-001  6.272656e-001  2.109375e-001
      vertex -1.245613e-001  6.659016e-001  2.109375e-001
    endloop
  endfacet
  facet normal -9.801718e-002  9.951848e-001  0.000000e+000
    outer loop
      vertex -1.245613e-001  6.659016e-001  0.000000e+000
      vertex -1.245613e-001  6.659016e-001  2.109375e-001
      vertex  7.894737e-003  6.789474e-001  0.000000e+000
    endloop
  endfacet
  facet normal -9.801718e-002  9.951848e-001  0.000000e+000
    outer loop
      vertex  7.894737e-003  6.789474e-001  0.000000e+000
      vertex -1.245613e-001  6.659016e-001  2.109375e-001
      vertex  7.894737e-003  6.789474e-001  2.109375e-001
    endloop
  endfacet
  facet normal  9.801718e-002  9.951848e-001  0.000000e+000
    outer loop
      vertex  7.894737e-003  6.789474e-001  0.000000e+000
      vertex  7.894737e-003  6.789474e-001  2.109375e-001
      vertex  1.403508e-001  6.659016e-001  0.000000e+000
    endloop
  endfacet
  facet normal  9.801718e-002  9.951848e-001  -0.000000e+000
    outer loop
      vertex  1.403508e-001  6.659016e-001  0.000000e+000
      vertex  7.894737e-003  6.789474e-001  2.109375e-001
      vertex  1.403508e-001  6.659016e-001  2.109375e-001
    endloop
  endfacet
  facet normal  2.902849e-001  9.569404e-001  0.000000e+000
    outer loop
      vertex  1.403508e-001  6.659016e-001  0.000000e+000
      vertex  1.403508e-001  6.659016e-001  2.109375e-001
      vertex  2.677166e-001  6.272656e-001  0.000000e+000
    endloop
  endfacet
  facet normal  2.902849e-001  9.569404e-001  -0.000000e+000
    outer loop
      vertex  2.677166e-001  6.272656e-001  0.000000e+000
      vertex  1.403508e-001  6.659016e-001  2.109375e-001
      vertex  2.677166e-001  6.272656e-001  2.109375e-001
    endloop
  endfacet
  facet normal  4.713966e-001  8.819213e-001  0.000000e+000
    outer loop
      vertex  2.677166e-001  6.272656e-001  0.000000e+000
      vertex  2.677166e-001  6.272656e-001  2.109375e-001
      vertex  3.850977e-001  5.645241e-001  0.000000e+000
    endloop
  endfacet
  facet normal  4.713966e-001  8.819213e-001  -0.000000e+000
    outer loop
      vertex  3.850977e-001  5.645241e-001  0.000000e+000
      vertex  2.677166e-001  6.272656e-001  2.109375e-001
      vertex  3.850977e-001  5.645241e-001  2.109375e-001
    endloop
  endfacet
  facet normal  6.343933e-001  7.730104e-001  0.000000e+000
    outer loop
      vertex  3.850977e-001  5.645241e-001  0.000000e+000
      vertex  3.850977e-001  5.645241e-001  2.109375e-001
      vertex  4.879830e-001  4.800883e-001  0.000000e+000
    endloop
  endfacet
  facet normal  6.343933e-001  7.730104e-001  -0.000000e+000
    outer loop
      vertex  4.879830e-001  4.800883e-001  0.000000e+000
      vertex  3.850977e-001  5.645241e-001  2.109375e-001
      vertex  4.879830e-001  4.800883e-001  2.109375e-001
    endloop
  endfacet
  facet normal  7.730103e-001  6.343935e-001  0.000000e+000
    outer loop
      vertex  4.879830e-001  4.800883e-001  0.000000e+000
      vertex  4.879830e-001  4.800883e-001  2.109375e-001
      vertex  5.724189e-001  3.772030e-001  0.000000e+000
    endloop
  endfacet
  facet normal  7.730103e-001  6.343935e-001  -0.000000e+000
    outer loop
      vertex  5.724189e-001  3.772030e-001  0.000000e+000
      vertex  4.879830e-001  4.800883e-001  2.109375e-001
      vertex  5.724189e-001  3.772030e-001  2.109375e-001
    endloop
  endfacet
  facet normal  8.819213e-001  4.713966e-001  0.000000e+000
    outer loop
      vertex  5.724189e-001  3.772030e-001  0.000000e+000
      vertex  5.724189e-001  3.772030e-001  2.109375e-001
      vertex  6.351603e-001  2.598219e-001  0.000000e+000
    endloop
  endfacet
  facet normal  8.819213e-001  4.713966e-001  -0.000000e+000
    outer loop
      vertex  6.351603e-001  2.598219e-001  0.000000e+000
      vertex  5.724189e-001  3.772030e-001  2.109375e-001
      vertex  6.351603e-001  2.598219e-001  2.109375e-001
    endloop
  endfacet
  facet normal  9.569404e-001  2.902844e-001  0.000000e+000
    outer loop
      vertex  6.351603e-001  2.598219e-001  0.000000e+000
      vertex  6.351603e-001  2.598219e-001  2.109375e-001
      vertex  6.737963e-001  1.324561e-001  0.000000e+000
    endloop
  endfacet
  facet normal  9.569404e-001  2.902844e-001  -0.000000e+000
    outer loop
      vertex  6.737963e-001  1.324561e-001  0.000000e+000
      vertex  6.351603e-001  2.598219e-001  2.109375e-001
      vertex  6.737963e-001  1.324561e-001  2.109375e-001
    endloop
  endfacet
  facet normal  9.951848e-001  9.801718e-002  0.000000e+000
    outer loop
      vertex  6.737963e-001  1.324561e-001  0.000000e+000
      vertex  6.737963e-001  1.324561e-001  2.109375e-001
      vertex  6.868421e-001  0.000000e+000  0.000000e+000
    endloop
  endfacet
  facet normal  9.951848e-001  9.801718e-002  3.574807e-016
    outer loop
      vertex  6.868421e-001  0.000000e+000  0.000000e+000
      vertex  6.737963e-001  1.324561e-001  2.109375e-001
      vertex  6.868421e-001 -7.693150e-016  2.109375e-001
    endloop
  endfacet
  facet normal  8.775350e-002  8.909760e-001  4.454897e-001
    outer loop
      vertex  7.894737e-003  6.789474e-001  2.109375e-001
      vertex  1.388267e-001  6.582392e-001  2.265625e-001
      vertex  1.403508e-001  6.659016e-001  2.109375e-001
    endloop
  endfacet
  facet normal  2.598882e-001  8.567364e-001  4.454896e-001
    outer loop
      vertex  1.403508e-001  6.659016e-001  2.109375e-001
      vertex  1.388267e-001  6.582392e-001  2.265625e-001
      vertex  2.647269e-001  6.200477e-001  2.265625e-001
    endloop
  endfacet
  facet normal  2.598884e-001  8.567367e-001  4.454890e-001
    outer loop
      vertex  1.403508e-001  6.659016e-001  2.109375e-001
      vertex  2.647269e-001  6.200477e-001  2.265625e-001
      vertex  2.677166e-001  6.272656e-001  2.109375e-001
    endloop
  endfacet
  facet normal  4.220356e-001  7.895731e-001  4.454889e-001
    outer loop
      vertex  2.677166e-001  6.272656e-001  2.109375e-001
      vertex  2.647269e-001  6.200477e-001  2.265625e-001
      vertex  3.807573e-001  5.580282e-001  2.265625e-001
    endloop
  endfacet
  facet normal  4.220354e-001  7.895728e-001  4.454896e-001
    outer loop
      vertex  2.677166e-001  6.272656e-001  2.109375e-001
      vertex  3.807573e-001  5.580282e-001  2.265625e-001
      vertex  3.850977e-001  5.645241e-001  2.109375e-001
    endloop
  endfacet
  facet normal  5.679641e-001  6.920665e-001  4.454893e-001
    outer loop
      vertex  3.850977e-001  5.645241e-001  2.109375e-001
      vertex  3.807573e-001  5.580282e-001  2.265625e-001
      vertex  4.824588e-001  4.745640e-001  2.265625e-001
    endloop
  endfacet
  facet normal  5.679647e-001  6.920670e-001  4.454879e-001
    outer loop
      vertex  3.850977e-001  5.645241e-001  2.109375e-001
      vertex  4.824588e-001  4.745640e-001  2.265625e-001
      vertex  4.879830e-001  4.800883e-001  2.109375e-001
    endloop
  endfacet
  facet normal  6.920671e-001  5.679646e-001  4.454876e-001
    outer loop
      vertex  4.879830e-001  4.800883e-001  2.109375e-001
      vertex  4.824588e-001  4.745640e-001  2.265625e-001
      vertex  5.659230e-001  3.728625e-001  2.265625e-001
    endloop
  endfacet
  facet normal  6.920660e-001  5.679641e-001  4.454902e-001
    outer loop
      vertex  4.879830e-001  4.800883e-001  2.109375e-001
      vertex  5.659230e-001  3.728625e-001  2.265625e-001
      vertex  5.724189e-001  3.772030e-001  2.109375e-001
    endloop
  endfacet
  facet normal  7.895725e-001  4.220353e-001  4.454902e-001
    outer loop
      vertex  5.724189e-001  3.772030e-001  2.109375e-001
      vertex  5.659230e-001  3.728625e-001  2.265625e-001
      vertex  6.279425e-001  2.568322e-001  2.265625e-001
    endloop
  endfacet
  facet normal  7.895728e-001  4.220354e-001  4.454895e-001
    outer loop
      vertex  5.724189e-001  3.772030e-001  2.109375e-001
      vertex  6.279425e-001  2.568322e-001  2.265625e-001
      vertex  6.351603e-001  2.598219e-001  2.109375e-001
    endloop
  endfacet
  facet normal  8.567365e-001  2.598882e-001  4.454894e-001
    outer loop
      vertex  6.351603e-001  2.598219e-001  2.109375e-001
      vertex  6.279425e-001  2.568322e-001  2.265625e-001
      vertex  6.661339e-001  1.309319e-001  2.265625e-001
    endloop
  endfacet
  facet normal  8.567376e-001  2.598882e-001  4.454872e-001
    outer loop
      vertex  6.351603e-001  2.598219e-001  2.109375e-001
      vertex  6.661339e-001  1.309319e-001  2.265625e-001
      vertex  6.737963e-001  1.324561e-001  2.109375e-001
    endloop
  endfacet
  facet normal  8.909774e-001  8.775344e-002  4.454871e-001
    outer loop
      vertex  6.737963e-001  1.324561e-001  2.109375e-001
      vertex  6.661339e-001  1.309319e-001  2.265625e-001
      vertex  6.790296e-001 -3.271836e-016  2.265625e-001
    endloop
  endfacet
  facet normal  8.909767e-001  8.775357e-002  4.454884e-001
    outer loop
      vertex  6.737963e-001  1.324561e-001  2.109375e-001
      vertex  6.790296e-001 -3.271836e-016  2.265625e-001
      vertex  6.868421e-001 -7.693150e-016  2.109375e-001
    endloop
  endfacet
  facet normal  8.775379e-002  8.909767e-001  4.454883e-001
    outer loop
      vertex  1.388267e-001  6.582392e-001  2.265625e-001
      vertex  7.894737e-003  6.789474e-001  2.109375e-001
      vertex  7.894752e-003  6.711349e-001  2.265625e-001
    endloop
  endfacet
  facet normal -8.775357e-002  8.909767e-001  4.454885e-001
    outer loop
      vertex  7.894752e-003  6.711349e-001  2.265625e-001
      vertex  7.894737e-003  6.789474e-001  2.109375e-001
      vertex -1.245613e-001  6.659016e-001  2.109375e-001
    endloop
  endfacet
  facet normal -8.775371e-002  8.909759e-001  4.454898e-001
    outer loop
      vertex  7.894752e-003  6.711349e-001  2.265625e-001
      vertex -1.245613e-001  6.659016e-001  2.109375e-001
      vertex -1.230372e-001  6.582392e-001  2.265625e-001
    endloop
  endfacet
  facet normal -2.598882e-001  8.567362e-001  4.454899e-001
    outer loop
      vertex -1.230372e-001  6.582392e-001  2.265625e-001
      vertex -1.245613e-001  6.659016e-001  2.109375e-001
      vertex -2.519272e-001  6.272656e-001  2.109375e-001
    endloop
  endfacet
  facet normal -2.598882e-001  8.567366e-001  4.454892e-001
    outer loop
      vertex -1.230372e-001  6.582392e-001  2.265625e-001
      vertex -2.519272e-001  6.272656e-001  2.109375e-001
      vertex -2.489374e-001  6.200477e-001  2.265625e-001
    endloop
  endfacet
  facet normal -4.220355e-001  7.895730e-001  4.454892e-001
    outer loop
      vertex -2.489374e-001  6.200477e-001  2.265625e-001
      vertex -2.519272e-001  6.272656e-001  2.109375e-001
      vertex -3.693082e-001  5.645241e-001  2.109375e-001
    endloop
  endfacet
  facet normal -4.220356e-001  7.895737e-001  4.454878e-001
    outer loop
      vertex -2.489374e-001  6.200477e-001  2.265625e-001
      vertex -3.693082e-001  5.645241e-001  2.109375e-001
      vertex -3.649678e-001  5.580283e-001  2.265625e-001
    endloop
  endfacet
  facet normal -5.679647e-001  6.920669e-001  4.454880e-001
    outer loop
      vertex -3.649678e-001  5.580283e-001  2.265625e-001
      vertex -3.693082e-001  5.645241e-001  2.109375e-001
      vertex -4.721935e-001  4.800883e-001  2.109375e-001
    endloop
  endfacet
  facet normal -5.679647e-001  6.920671e-001  4.454877e-001
    outer loop
      vertex -3.649678e-001  5.580283e-001  2.265625e-001
      vertex -4.721935e-001  4.800883e-001  2.109375e-001
      vertex -4.666693e-001  4.745640e-001  2.265625e-001
    endloop
  endfacet
  facet normal -6.920670e-001  5.679647e-001  4.454879e-001
    outer loop
      vertex -4.666693e-001  4.745640e-001  2.265625e-001
      vertex -4.721935e-001  4.800883e-001  2.109375e-001
      vertex -5.566294e-001  3.772030e-001  2.109375e-001
    endloop
  endfacet
  facet normal -6.920671e-001  5.679650e-001  4.454871e-001
    outer loop
      vertex -4.666693e-001  4.745640e-001  2.265625e-001
      vertex -5.566294e-001  3.772030e-001  2.109375e-001
      vertex -5.501335e-001  3.728626e-001  2.265625e-001
    endloop
  endfacet
  facet normal -7.895738e-001  4.220359e-001  4.454872e-001
    outer loop
      vertex -5.501335e-001  3.728626e-001  2.265625e-001
      vertex -5.566294e-001  3.772030e-001  2.109375e-001
      vertex -6.193708e-001  2.598219e-001  2.109375e-001
    endloop
  endfacet
  facet normal -7.895733e-001  4.220353e-001  4.454889e-001
    outer loop
      vertex -5.501335e-001  3.728626e-001  2.265625e-001
      vertex -6.193708e-001  2.598219e-001  2.109375e-001
      vertex -6.121530e-001  2.568322e-001  2.265625e-001
    endloop
  endfacet
  facet normal -8.567367e-001  2.598884e-001  4.454890e-001
    outer loop
      vertex -6.121530e-001  2.568322e-001  2.265625e-001
      vertex -6.193708e-001  2.598219e-001  2.109375e-001
      vertex -6.580068e-001  1.324561e-001  2.109375e-001
    endloop
  endfacet
  facet normal -8.567365e-001  2.598882e-001  4.454894e-001
    outer loop
      vertex -6.121530e-001  2.568322e-001  2.265625e-001
      vertex -6.580068e-001  1.324561e-001  2.109375e-001
      vertex -6.503444e-001  1.309319e-001  2.265625e-001
    endloop
  endfacet
  facet normal -8.909761e-001  8.775351e-002  4.454896e-001
    outer loop
      vertex -6.503444e-001  1.309319e-001  2.265625e-001
      vertex -6.580068e-001  1.324561e-001  2.109375e-001
      vertex -6.710526e-001  3.846575e-016  2.109375e-001
    endloop
  endfacet
  facet normal -8.909767e-001  8.775379e-002  4.454882e-001
    outer loop
      vertex -6.503444e-001  1.309319e-001  2.265625e-001
      vertex -6.710526e-001  3.846575e-016  2.109375e-001
      vertex -6.632401e-001  2.968544e-008  2.265625e-001
    endloop
  endfacet
  facet normal -8.775350e-002 -8.909760e-001  4.454898e-001
    outer loop
      vertex  7.894737e-003 -6.789474e-001  2.109375e-001
      vertex -1.230372e-001 -6.582392e-001  2.265625e-001
      vertex -1.245613e-001 -6.659016e-001  2.109375e-001
    endloop
  endfacet
  facet normal -2.598881e-001 -8.567363e-001  4.454898e-001
    outer loop
      vertex -1.245613e-001 -6.659016e-001  2.109375e-001
      vertex -1.230372e-001 -6.582392e-001  2.265625e-001
      vertex -2.489375e-001 -6.200477e-001  2.265625e-001
    endloop
  endfacet
  facet normal -2.598884e-001 -8.567367e-001  4.454890e-001
    outer loop
      vertex -1.245613e-001 -6.659016e-001  2.109375e-001
      vertex -2.489375e-001 -6.200477e-001  2.265625e-001
      vertex -2.519272e-001 -6.272656e-001  2.109375e-001
    endloop
  endfacet
  facet normal -4.220353e-001 -7.895733e-001  4.454889e-001
    outer loop
      vertex -2.519272e-001 -6.272656e-001  2.109375e-001
      vertex -2.489375e-001 -6.200477e-001  2.265625e-001
      vertex -3.649678e-001 -5.580283e-001  2.265625e-001
    endloop
  endfacet
  facet normal -4.220359e-001 -7.895738e-001  4.454872e-001
    outer loop
      vertex -2.519272e-001 -6.272656e-001  2.109375e-001
      vertex -3.649678e-001 -5.580283e-001  2.265625e-001
      vertex -3.693082e-001 -5.645241e-001  2.109375e-001
    endloop
  endfacet
  facet normal -5.679651e-001 -6.920671e-001  4.454872e-001
    outer loop
      vertex -3.693082e-001 -5.645241e-001  2.109375e-001
      vertex -3.649678e-001 -5.580283e-001  2.265625e-001
      vertex -4.666693e-001 -4.745640e-001  2.265625e-001
    endloop
  endfacet
  facet normal -5.679644e-001 -6.920666e-001  4.454887e-001
    outer loop
      vertex -3.693082e-001 -5.645241e-001  2.109375e-001
      vertex -4.666693e-001 -4.745640e-001  2.265625e-001
      vertex -4.721935e-001 -4.800883e-001  2.109375e-001
    endloop
  endfacet
  facet normal -6.920665e-001 -5.679645e-001  4.454887e-001
    outer loop
      vertex -4.721935e-001 -4.800883e-001  2.109375e-001
      vertex -4.666693e-001 -4.745640e-001  2.265625e-001
      vertex -5.501335e-001 -3.728625e-001  2.265625e-001
    endloop
  endfacet
  facet normal -6.920669e-001 -5.679647e-001  4.454880e-001
    outer loop
      vertex -4.721935e-001 -4.800883e-001  2.109375e-001
      vertex -5.501335e-001 -3.728625e-001  2.265625e-001
      vertex -5.566294e-001 -3.772030e-001  2.109375e-001
    endloop
  endfacet
  facet normal -7.895735e-001 -4.220360e-001  4.454878e-001
    outer loop
      vertex -5.566294e-001 -3.772030e-001  2.109375e-001
      vertex -5.501335e-001 -3.728625e-001  2.265625e-001
      vertex -6.121531e-001 -2.568322e-001  2.265625e-001
    endloop
  endfacet
  facet normal -7.895741e-001 -4.220361e-001  4.454864e-001
    outer loop
      vertex -5.566294e-001 -3.772030e-001  2.109375e-001
      vertex -6.121531e-001 -2.568322e-001  2.265625e-001
      vertex -6.193708e-001 -2.598219e-001  2.109375e-001
    endloop
  endfacet
  facet normal -8.567379e-001 -2.598886e-001  4.454864e-001
    outer loop
      vertex -6.193708e-001 -2.598219e-001  2.109375e-001
      vertex -6.121531e-001 -2.568322e-001  2.265625e-001
      vertex -6.503445e-001 -1.309319e-001  2.265625e-001
    endloop
  endfacet
  facet normal -8.567376e-001 -2.598886e-001  4.454870e-001
    outer loop
      vertex -6.193708e-001 -2.598219e-001  2.109375e-001
      vertex -6.503445e-001 -1.309319e-001  2.265625e-001
      vertex -6.580068e-001 -1.324561e-001  2.109375e-001
    endloop
  endfacet
  facet normal -8.909773e-001 -8.775342e-002  4.454870e-001
    outer loop
      vertex -6.580068e-001 -1.324561e-001  2.109375e-001
      vertex -6.503445e-001 -1.309319e-001  2.265625e-001
      vertex -6.632401e-001  2.968544e-008  2.265625e-001
    endloop
  endfacet
  facet normal -8.909766e-001 -8.775356e-002  4.454885e-001
    outer loop
      vertex -6.580068e-001 -1.324561e-001  2.109375e-001
      vertex -6.632401e-001  2.968544e-008  2.265625e-001
      vertex -6.710526e-001  3.846575e-016  2.109375e-001
    endloop
  endfacet
  facet normal -8.775378e-002 -8.909766e-001  4.454884e-001
    outer loop
      vertex -1.230372e-001 -6.582392e-001  2.265625e-001
      vertex  7.894737e-003 -6.789474e-001  2.109375e-001
      vertex  7.894741e-003 -6.711349e-001  2.265625e-001
    endloop
  endfacet
  facet normal  8.775357e-002 -8.909767e-001  4.454884e-001
    outer loop
      vertex  7.894741e-003 -6.711349e-001  2.265625e-001
      vertex  7.894737e-003 -6.789474e-001  2.109375e-001
      vertex  1.403508e-001 -6.659016e-001  2.109375e-001
    endloop
  endfacet
  facet normal  8.775371e-002 -8.909760e-001  4.454898e-001
    outer loop
      vertex  7.894741e-003 -6.711349e-001  2.265625e-001
      vertex  1.403508e-001 -6.659016e-001  2.109375e-001
      vertex  1.388267e-001 -6.582392e-001  2.265625e-001
    endloop
  endfacet
  facet normal  2.598882e-001 -8.567362e-001  4.454897e-001
    outer loop
      vertex  1.388267e-001 -6.582392e-001  2.265625e-001
      vertex  1.403508e-001 -6.659016e-001  2.109375e-001
      vertex  2.677166e-001 -6.272656e-001  2.109375e-001
    endloop
  endfacet
  facet normal  2.598882e-001 -8.567366e-001  4.454889e-001
    outer loop
      vertex  1.388267e-001 -6.582392e-001  2.265625e-001
      vertex  2.677166e-001 -6.272656e-001  2.109375e-001
      vertex  2.647269e-001 -6.200477e-001  2.265625e-001
    endloop
  endfacet
  facet normal  4.220355e-001 -7.895731e-001  4.454889e-001
    outer loop
      vertex  2.647269e-001 -6.200477e-001  2.265625e-001
      vertex  2.677166e-001 -6.272656e-001  2.109375e-001
      vertex  3.850977e-001 -5.645241e-001  2.109375e-001
    endloop
  endfacet
  facet normal  4.220355e-001 -7.895727e-001  4.454896e-001
    outer loop
      vertex  2.647269e-001 -6.200477e-001  2.265625e-001
      vertex  3.850977e-001 -5.645241e-001  2.109375e-001
      vertex  3.807573e-001 -5.580282e-001  2.265625e-001
    endloop
  endfacet
  facet normal  5.679643e-001 -6.920664e-001  4.454893e-001
    outer loop
      vertex  3.807573e-001 -5.580282e-001  2.265625e-001
      vertex  3.850977e-001 -5.645241e-001  2.109375e-001
      vertex  4.879830e-001 -4.800883e-001  2.109375e-001
    endloop
  endfacet
  facet normal  5.679644e-001 -6.920667e-001  4.454887e-001
    outer loop
      vertex  3.807573e-001 -5.580282e-001  2.265625e-001
      vertex  4.879830e-001 -4.800883e-001  2.109375e-001
      vertex  4.824587e-001 -4.745640e-001  2.265625e-001
    endloop
  endfacet
  facet normal  6.920666e-001 -5.679646e-001  4.454888e-001
    outer loop
      vertex  4.824587e-001 -4.745640e-001  2.265625e-001
      vertex  4.879830e-001 -4.800883e-001  2.109375e-001
      vertex  5.724189e-001 -3.772030e-001  2.109375e-001
    endloop
  endfacet
  facet normal  6.920661e-001 -5.679640e-001  4.454902e-001
    outer loop
      vertex  4.824587e-001 -4.745640e-001  2.265625e-001
      vertex  5.724189e-001 -3.772030e-001  2.109375e-001
      vertex  5.659230e-001 -3.728625e-001  2.265625e-001
    endloop
  endfacet
  facet normal  7.895725e-001 -4.220352e-001  4.454902e-001
    outer loop
      vertex  5.659230e-001 -3.728625e-001  2.265625e-001
      vertex  5.724189e-001 -3.772030e-001  2.109375e-001
      vertex  6.351603e-001 -2.598219e-001  2.109375e-001
    endloop
  endfacet
  facet normal  7.895727e-001 -4.220355e-001  4.454895e-001
    outer loop
      vertex  5.659230e-001 -3.728625e-001  2.265625e-001
      vertex  6.351603e-001 -2.598219e-001  2.109375e-001
      vertex  6.279425e-001 -2.568322e-001  2.265625e-001
    endloop
  endfacet
  facet normal  8.567366e-001 -2.598879e-001  4.454894e-001
    outer loop
      vertex  6.279425e-001 -2.568322e-001  2.265625e-001
      vertex  6.351603e-001 -2.598219e-001  2.109375e-001
      vertex  6.737963e-001 -1.324561e-001  2.109375e-001
    endloop
  endfacet
  facet normal  8.567374e-001 -2.598885e-001  4.454871e-001
    outer loop
      vertex  6.279425e-001 -2.568322e-001  2.265625e-001
      vertex  6.737963e-001 -1.324561e-001  2.109375e-001
      vertex  6.661339e-001 -1.309319e-001  2.265625e-001
    endloop
  endfacet
  facet normal  8.909773e-001 -8.775364e-002  4.454871e-001
    outer loop
      vertex  6.661339e-001 -1.309319e-001  2.265625e-001
      vertex  6.737963e-001 -1.324561e-001  2.109375e-001
      vertex  6.868421e-001 -7.693150e-016  2.109375e-001
    endloop
  endfacet
  facet normal  8.909767e-001 -8.775339e-002  4.454884e-001
    outer loop
      vertex  6.661339e-001 -1.309319e-001  2.265625e-001
      vertex  6.868421e-001 -7.693150e-016  2.109375e-001
      vertex  6.790296e-001 -3.271836e-016  2.265625e-001
    endloop
  endfacet
  facet normal  0.000000e+000  0.000000e+000 -1.000000e+000
    outer loop
      vertex  7.894737e-003  6.789474e-001  0.000000e+000
      vertex  1.403508e-001  6.659016e-001  0.000000e+000
      vertex -1.245613e-001  6.659016e-001  0.000000e+000
    endloop
  endfacet
  facet normal  0.000000e+000  0.000000e+000 -1.000000e+000
    outer loop
      vertex  7.894737e-003 -6.789474e-001  0.000000e+000
      vertex -1.245613e-001 -6.659016e-001  0.000000e+000
      vertex  1.403508e-001 -6.659016e-001  0.000000e+000
    endloop
  endfacet
  facet normal  0.000000e+000  0.000000e+000 -1.000000e+000
    outer loop
      vertex  1.403508e-001 -6.659016e-001  0.000000e+000
      vertex -1.245613e-001 -6.659016e-001  0.000000e+000
      vertex -2.519272e-001 -6.272656e-001  0.000000e+000
    endloop
  endfacet
  facet normal  0.000000e+000  0.000000e+000 -1.000000e+000
    outer loop
      vertex  1.403508e-001 -6.659016e-001  0.000000e+000
      vertex -2.519272e-001 -6.272656e-001  0.000000e+000
      vertex  2.677166e-001 -6.272656e-001  0.000000e+000
    endloop
  endfacet
  facet normal  0.000000e+000  0.000000e+000 -1.000000e+000
    outer loop
      vertex  2.677166e-001 -6.272656e-001  0.000000e+000
      vertex -2.519272e-001 -6.272656e-001  0.000000e+000
      vertex -3.693082e-001 -5.645241e-001  0.000000e+000
    endloop
  endfacet
  facet normal  0.000000e+000  0.000000e+000 -1.000000e+000
    outer loop
      vertex  2.677166e-001 -6.272656e-001  0.000000e+000
      vertex -3.693082e-001 -5.645241e-001  0.000000e+000
      vertex  3.850977e-001 -5.645241e-001  0.000000e+000
    endloop
  endfacet
  facet normal  0.000000e+000  0.000000e+000 -1.000000e+000
    outer loop
      vertex  3.850977e-001 -5.645241e-001  0.000000e+000
      vertex -3.693082e-001 -5.645241e-001  0.000000e+000
      vertex -4.721935e-001 -4.800883e-001  0.000000e+000
    endloop
  endfacet
  facet normal  0.000000e+000  0.000000e+000 -1.000000e+000
    outer loop
      vertex  3.850977e-001 -5.645241e-001  0.000000e+000
      vertex -4.721935e-001 -4.800883e-001  0.000000e+000
      vertex  4.879830e-001 -4.800883e-001  0.000000e+000
    endloop
  endfacet
  facet normal  0.000000e+000  0.000000e+000 -1.000000e+000
    outer loop
      vertex  4.879830e-001 -4.800883e-001  0.000000e+000
      vertex -4.721935e-001 -4.800883e-001  0.000000e+000
      vertex -5.566294e-001 -3.772030e-001  0.000000e+000
    endloop
  endfacet
  facet normal  0.000000e+000  0.000000e+000 -9.999999e-001
    outer loop
      vertex  4.879830e-001 -4.800883e-001  0.000000e+000
      vertex -5.566294e-001 -3.772030e-001  0.000000e+000
      vertex  5.724189e-001 -3.772030e-001  0.000000e+000
    endloop
  endfacet
  facet normal  0.000000e+000  0.000000e+000 -1.000000e+000
    outer loop
      vertex  5.724189e-001 -3.772030e-001  0.000000e+000
      vertex -5.566294e-001 -3.772030e-001  0.000000e+000
      vertex -6.193708e-001 -2.598219e-001  0.000000e+000
    endloop
  endfacet
  facet normal  0.000000e+000  0.000000e+000 -1.000000e+000
    outer loop
      vertex  5.724189e-001 -3.772030e-001  0.000000e+000
      vertex -6.193708e-001 -2.598219e-001  0.000000e+000
      vertex  6.351603e-001 -2.598219e-001  0.000000e+000
    endloop
  endfacet
  facet normal  0.000000e+000  0.000000e+000 -1.000000e+000
    outer loop
      vertex  6.351603e-001 -2.598219e-001  0.000000e+000
      vertex -6.193708e-001 -2.598219e-001  0.000000e+000
      vertex -6.580068e-001 -1.324561e-001  0.000000e+000
    endloop
  endfacet
  facet normal  0.000000e+000  0.000000e+000 -9.999999e-001
    outer loop
      vertex  6.351603e-001 -2.598219e-001  0.000000e+000
      vertex -6.580068e-001 -1.324561e-001  0.000000e+000
      vertex  6.737963e-001 -1.324561e-001  0.000000e+000
    endloop
  endfacet
  facet normal  0.000000e+000  0.000000e+000 -1.000000e+000
    outer loop
      vertex  6.737963e-001 -1.324561e-001  0.000000e+000
      vertex -6.580068e-001 -1.324561e-001  0.000000e+000
      vertex -6.710526e-001  3.846575e-016  0.000000e+000
    endloop
  endfacet
  facet normal  0.000000e+000  0.000000e+000 -1.000000e+000
    outer loop
      vertex  6.737963e-001 -1.324561e-001  0.000000e+000
      vertex -6.710526e-001  3.846575e-016  0.000000e+000
      vertex  6.868421e-001  0.000000e+000  0.000000e+000
    endloop
  endfacet
  facet normal  0.000000e+000  0.000000e+000 -1.000000e+000
    outer loop
      vertex  6.868421e-001  0.000000e+000  0.000000e+000
      vertex -6.710526e-001  3.846575e-016  0.000000e+000
      vertex -6.580068e-001  1.324561e-001  0.000000e+000
    endloop
  endfacet
  facet normal  0.000000e+000  0.000000e+000 -1.000000e+000
    outer loop
      vertex  6.868421e-001  0.000000e+000  0.000000e+000
      vertex -6.580068e-001  1.324561e-001  0.000000e+000
      vertex  6.737963e-001  1.324561e-001  0.000000e+000
    endloop
  endfacet
  facet normal  0.000000e+000  0.000000e+000 -9.999999e-001
    outer loop
      vertex  6.737963e-001  1.324561e-001  0.000000e+000
      vertex -6.580068e-001  1.324561e-001  0.000000e+000
      vertex -6.193708e-001  2.598219e-001  0.000000e+000
    endloop
  endfacet
  facet normal  0.000000e+000  0.000000e+000 -1.000000e+000
    outer loop
      vertex  6.737963e-001  1.324561e-001  0.000000e+000
      vertex -6.193708e-001  2.598219e-001  0.000000e+000
      vertex  6.351603e-001  2.598219e-001  0.000000e+000
    endloop
  endfacet
  facet normal  0.000000e+000  0.000000e+000 -1.000000e+000
    outer loop
      vertex  6.351603e-001  2.598219e-001  0.000000e+000
      vertex -6.193708e-001  2.598219e-001  0.000000e+000
      vertex -5.566294e-001  3.772030e-001  0.000000e+000
    endloop
  endfacet
  facet normal  0.000000e+000  0.000000e+000 -1.000000e+000
    outer loop
      vertex  6.351603e-001  2.598219e-001  0.000000e+000
      vertex -5.566294e-001  3.772030e-001  0.000000e+000
      vertex  5.724189e-001  3.772030e-001  0.000000e+000
    endloop
  endfacet
  facet normal  0.000000e+000  0.000000e+000 -9.999999e-001
    outer loop
      vertex  5.724189e-001  3.772030e-001  0.000000e+000
      vertex -5.566294e-001  3.772030e-001  0.000000e+000
      vertex -4.721935e-001  4.800883e-001  0.000000e+000
    endloop
  endfacet
  facet normal  0.000000e+000  0.000000e+000 -1.000000e+000
    outer loop
      vertex  5.724189e-001  3.772030e-001  0.000000e+000
      vertex -4.721935e-001  4.800883e-001  0.000000e+000
      vertex  4.879830e-001  4.800883e-001  0.000000e+000
    endloop
  endfacet
  facet normal  0.000000e+000  0.000000e+000 -1.000000e+000
    outer loop
      vertex  4.879830e-001  4.800883e-001  0.000000e+000
      vertex -4.721935e-001  4.800883e-001  0.000000e+000
      vertex -3.693082e-001  5.645241e-001  0.000000e+000
    endloop
  endfacet
  facet normal  0.000000e+000  0.000000e+000 -1.000000e+000
    outer loop
      vertex  4.879830e-001  4.800883e-001  0.000000e+000
      vertex -3.693082e-001  5.645241e-001  0.000000e+000
      vertex  3.850977e-001  5.645241e-001  0.000000e+000
    endloop
  endfacet
  facet normal  0.000000e+000  0.000000e+000 -1.000000e+000
    outer loop
      vertex  3.850977e-001  5.645241e-001  0.000000e+000
      vertex -3.693082e-001  5.645241e-001  0.000000e+000
      vertex -2.519272e-001  6.272656e-001  0.000000e+000
    endloop
  endfacet
  facet normal  0.000000e+000  0.000000e+000 -1.000000e+000
    outer loop
      vertex  3.850977e-001  5.645241e-001  0.000000e+000
      vertex -2.519272e-001  6.272656e-001  0.000000e+000
      vertex  2.677166e-001  6.272656e-001  0.000000e+000
    endloop
  endfacet
  facet normal  0.000000e+000  0.000000e+000 -1.000000e+000
    outer loop
      vertex  2.677166e-001  6.272656e-001  0.000000e+000
      vertex -2.519272e-001  6.272656e-001  0.000000e+000
      vertex -1.245613e-001  6.659016e-001  0.000000e+000
    endloop
  endfacet
  facet normal  0.000000e+000  0.000000e+000 -1.000000e+000
    outer loop
      vertex  2.677166e-001  6.272656e-001  0.000000e+000
      vertex -1.245613e-001  6.659016e-001  0.000000e+000
      vertex  1.403508e-001  6.659016e-001  0.000000e+000
    endloop
  endfacet
endsolid CATIA STL
