solid CATIA STL
  facet normal  6.836855e-001 -7.297767e-001  0.000000e+000
    outer loop
      vertex  2.343750e-002  7.812500e-003  6.074836e-001
      vertex  3.125000e-002  1.513158e-002  6.953125e-001
      vertex  2.343750e-002  7.812500e-003  6.953125e-001
    endloop
  endfacet
  facet normal  6.836855e-001 -7.297767e-001  0.000000e+000
    outer loop
      vertex  2.343750e-002  7.812500e-003  5.855263e-001
      vertex  2.343750e-002  7.812500e-003  0.000000e+000
      vertex  3.125000e-002  1.513158e-002 -4.481643e-019
    endloop
  endfacet
  facet normal  6.836855e-001 -7.297767e-001  0.000000e+000
    outer loop
      vertex  2.343750e-002  7.812500e-003  5.855263e-001
      vertex  3.125000e-002  1.513158e-002 -4.481643e-019
      vertex  3.125000e-002  1.513158e-002  6.953125e-001
    endloop
  endfacet
  facet normal  6.836856e-001 -7.297768e-001  0.000000e+000
    outer loop
      vertex  2.343750e-002  7.812500e-003  5.855263e-001
      vertex  3.125000e-002  1.513158e-002  6.953125e-001
      vertex  2.343750e-002  7.812500e-003  6.074836e-001
    endloop
  endfacet
  facet normal  0.000000e+000 -9.999999e-001  0.000000e+000
    outer loop
      vertex  2.343750e-002  7.812500e-003  5.855263e-001
      vertex  0.000000e+000  7.812500e-003  5.855263e-001
      vertex  2.343750e-002  7.812500e-003  0.000000e+000
    endloop
  endfacet
  facet normal  0.000000e+000 -9.999999e-001  0.000000e+000
    outer loop
      vertex  2.343750e-002  7.812500e-003  0.000000e+000
      vertex  0.000000e+000  7.812500e-003  5.855263e-001
      vertex  0.000000e+000  7.812500e-003  0.000000e+000
    endloop
  endfacet
  facet normal  0.000000e+000 -1.000000e+000  0.000000e+000
    outer loop
      vertex  2.343750e-002  7.812500e-003  6.074836e-001
      vertex  0.000000e+000  7.812500e-003  6.074836e-001
      vertex  2.343750e-002  7.812500e-003  5.855263e-001
    endloop
  endfacet
  facet normal  0.000000e+000 -1.000000e+000  0.000000e+000
    outer loop
      vertex  2.343750e-002  7.812500e-003  5.855263e-001
      vertex  0.000000e+000  7.812500e-003  6.074836e-001
      vertex  0.000000e+000  7.812500e-003  5.855263e-001
    endloop
  endfacet
  facet normal  0.000000e+000 -1.000000e+000  0.000000e+000
    outer loop
      vertex  2.343750e-002  7.812500e-003  6.953125e-001
      vertex  0.000000e+000  7.812500e-003  6.953125e-001
      vertex  2.343750e-002  7.812500e-003  6.074836e-001
    endloop
  endfacet
  facet normal  0.000000e+000 -1.000000e+000  0.000000e+000
    outer loop
      vertex  2.343750e-002  7.812500e-003  6.074836e-001
      vertex  0.000000e+000  7.812500e-003  6.953125e-001
      vertex  0.000000e+000  7.812500e-003  6.074836e-001
    endloop
  endfacet
  facet normal  0.000000e+000  0.000000e+000  9.999999e-001
    outer loop
      vertex  0.000000e+000  1.513158e-002  6.953125e-001
      vertex  0.000000e+000  7.812500e-003  6.953125e-001
      vertex  3.125000e-002  1.513158e-002  6.953125e-001
    endloop
  endfacet
  facet normal  0.000000e+000  0.000000e+000  1.000000e+000
    outer loop
      vertex  3.125000e-002  1.513158e-002  6.953125e-001
      vertex  0.000000e+000  7.812500e-003  6.953125e-001
      vertex  2.343750e-002  7.812500e-003  6.953125e-001
    endloop
  endfacet
  facet normal  0.000000e+000 -6.123234e-017 -1.000000e+000
    outer loop
      vertex  0.000000e+000  7.812500e-003  0.000000e+000
      vertex  0.000000e+000  1.513158e-002 -4.481643e-019
      vertex  2.343750e-002  7.812500e-003  0.000000e+000
    endloop
  endfacet
  facet normal  0.000000e+000 -6.123234e-017 -9.999999e-001
    outer loop
      vertex  2.343750e-002  7.812500e-003  0.000000e+000
      vertex  0.000000e+000  1.513158e-002 -4.481643e-019
      vertex  3.125000e-002  1.513158e-002 -4.481643e-019
    endloop
  endfacet
  facet normal  0.000000e+000  1.000000e+000  0.000000e+000
    outer loop
      vertex  3.125000e-002  1.513158e-002 -4.481643e-019
      vertex  0.000000e+000  1.513158e-002 -4.481643e-019
      vertex  3.125000e-002  1.513158e-002  6.953125e-001
    endloop
  endfacet
  facet normal  0.000000e+000  1.000000e+000  0.000000e+000
    outer loop
      vertex  3.125000e-002  1.513158e-002  6.953125e-001
      vertex  0.000000e+000  1.513158e-002 -4.481643e-019
      vertex  0.000000e+000  1.513158e-002  6.953125e-001
    endloop
  endfacet
  facet normal -9.999999e-001  0.000000e+000  0.000000e+000
    outer loop
      vertex  0.000000e+000  1.513158e-002  6.953125e-001
      vertex  0.000000e+000  1.513158e-002 -4.481643e-019
      vertex  0.000000e+000  7.812500e-003  0.000000e+000
    endloop
  endfacet
  facet normal -1.000000e+000  0.000000e+000  0.000000e+000
    outer loop
      vertex  0.000000e+000  1.513158e-002  6.953125e-001
      vertex  0.000000e+000  7.812500e-003  0.000000e+000
      vertex  0.000000e+000  7.812500e-003  5.855263e-001
    endloop
  endfacet
  facet normal -1.000000e+000  0.000000e+000  0.000000e+000
    outer loop
      vertex  0.000000e+000  1.513158e-002  6.953125e-001
      vertex  0.000000e+000  7.812500e-003  5.855263e-001
      vertex  0.000000e+000  7.812500e-003  6.074836e-001
    endloop
  endfacet
  facet normal -1.000000e+000  0.000000e+000  0.000000e+000
    outer loop
      vertex  0.000000e+000  1.513158e-002  6.953125e-001
      vertex  0.000000e+000  7.812500e-003  6.074836e-001
      vertex  0.000000e+000  7.812500e-003  6.953125e-001
    endloop
  endfacet
  facet normal  1.000000e+000  0.000000e+000  -0.000000e+000
    outer loop
      vertex  3.125000e-002 -1.562500e-002  0.000000e+000
      vertex  3.125000e-002 -8.305921e-003 -4.481643e-019
      vertex  3.125000e-002 -8.305921e-003  5.855263e-001
    endloop
  endfacet
  facet normal  9.999999e-001  0.000000e+000  0.000000e+000
    outer loop
      vertex  3.125000e-002 -1.562500e-002  6.953125e-001
      vertex  3.125000e-002 -1.562500e-002  0.000000e+000
      vertex  3.125000e-002 -8.305921e-003  5.855263e-001
    endloop
  endfacet
  facet normal  1.000000e+000  0.000000e+000  -0.000000e+000
    outer loop
      vertex  3.125000e-002 -1.562500e-002  6.953125e-001
      vertex  3.125000e-002 -8.305921e-003  5.855263e-001
      vertex  3.125000e-002 -8.305921e-003  6.074836e-001
    endloop
  endfacet
  facet normal  1.000000e+000  0.000000e+000  -0.000000e+000
    outer loop
      vertex  3.125000e-002 -1.562500e-002  6.953125e-001
      vertex  3.125000e-002 -8.305921e-003  6.074836e-001
      vertex  3.125000e-002 -8.305921e-003  6.953125e-001
    endloop
  endfacet
  facet normal -1.000000e+000  0.000000e+000  0.000000e+000
    outer loop
      vertex  0.000000e+000 -8.305921e-003  5.855263e-001
      vertex  0.000000e+000 -8.305921e-003 -4.481643e-019
      vertex  0.000000e+000 -1.562500e-002  0.000000e+000
    endloop
  endfacet
  facet normal -1.000000e+000  -0.000000e+000  -0.000000e+000
    outer loop
      vertex  0.000000e+000 -1.562500e-002  6.953125e-001
      vertex  0.000000e+000 -8.305921e-003  6.953125e-001
      vertex  0.000000e+000 -8.305921e-003  6.074836e-001
    endloop
  endfacet
  facet normal -1.000000e+000  -0.000000e+000  -0.000000e+000
    outer loop
      vertex  0.000000e+000 -1.562500e-002  6.953125e-001
      vertex  0.000000e+000 -8.305921e-003  6.074836e-001
      vertex  0.000000e+000 -8.305921e-003  5.855263e-001
    endloop
  endfacet
  facet normal -9.999999e-001  -0.000000e+000  0.000000e+000
    outer loop
      vertex  0.000000e+000 -1.562500e-002  6.953125e-001
      vertex  0.000000e+000 -8.305921e-003  5.855263e-001
      vertex  0.000000e+000 -1.562500e-002  0.000000e+000
    endloop
  endfacet
  facet normal  0.000000e+000 -1.000000e+000  0.000000e+000
    outer loop
      vertex  3.125000e-002 -1.562500e-002  6.953125e-001
      vertex  0.000000e+000 -1.562500e-002  6.953125e-001
      vertex  3.125000e-002 -1.562500e-002  0.000000e+000
    endloop
  endfacet
  facet normal  0.000000e+000 -1.000000e+000  0.000000e+000
    outer loop
      vertex  3.125000e-002 -1.562500e-002  0.000000e+000
      vertex  0.000000e+000 -1.562500e-002  6.953125e-001
      vertex  0.000000e+000 -1.562500e-002  0.000000e+000
    endloop
  endfacet
  facet normal  0.000000e+000  0.000000e+000  9.999999e-001
    outer loop
      vertex  0.000000e+000 -8.305921e-003  6.953125e-001
      vertex  0.000000e+000 -1.562500e-002  6.953125e-001
      vertex  3.125000e-002 -8.305921e-003  6.953125e-001
    endloop
  endfacet
  facet normal  0.000000e+000  0.000000e+000  9.999999e-001
    outer loop
      vertex  3.125000e-002 -8.305921e-003  6.953125e-001
      vertex  0.000000e+000 -1.562500e-002  6.953125e-001
      vertex  3.125000e-002 -1.562500e-002  6.953125e-001
    endloop
  endfacet
  facet normal  0.000000e+000  1.000000e+000  0.000000e+000
    outer loop
      vertex  3.125000e-002 -8.305921e-003  6.074836e-001
      vertex  0.000000e+000 -8.305921e-003  6.074836e-001
      vertex  3.125000e-002 -8.305921e-003  6.953125e-001
    endloop
  endfacet
  facet normal  0.000000e+000  1.000000e+000  0.000000e+000
    outer loop
      vertex  3.125000e-002 -8.305921e-003  6.953125e-001
      vertex  0.000000e+000 -8.305921e-003  6.074836e-001
      vertex  0.000000e+000 -8.305921e-003  6.953125e-001
    endloop
  endfacet
  facet normal  0.000000e+000  1.000000e+000  0.000000e+000
    outer loop
      vertex  3.125000e-002 -8.305921e-003  5.855263e-001
      vertex  0.000000e+000 -8.305921e-003  5.855263e-001
      vertex  3.125000e-002 -8.305921e-003  6.074836e-001
    endloop
  endfacet
  facet normal  0.000000e+000  1.000000e+000  0.000000e+000
    outer loop
      vertex  3.125000e-002 -8.305921e-003  6.074836e-001
      vertex  0.000000e+000 -8.305921e-003  5.855263e-001
      vertex  0.000000e+000 -8.305921e-003  6.074836e-001
    endloop
  endfacet
  facet normal  0.000000e+000  1.000000e+000  0.000000e+000
    outer loop
      vertex  3.125000e-002 -8.305921e-003 -4.481643e-019
      vertex  0.000000e+000 -8.305921e-003 -4.481643e-019
      vertex  3.125000e-002 -8.305921e-003  5.855263e-001
    endloop
  endfacet
  facet normal  0.000000e+000  1.000000e+000  0.000000e+000
    outer loop
      vertex  3.125000e-002 -8.305921e-003  5.855263e-001
      vertex  0.000000e+000 -8.305921e-003 -4.481643e-019
      vertex  0.000000e+000 -8.305921e-003  5.855263e-001
    endloop
  endfacet
  facet normal  0.000000e+000 -6.123234e-017 -9.999999e-001
    outer loop
      vertex  0.000000e+000 -1.562500e-002  0.000000e+000
      vertex  0.000000e+000 -8.305921e-003 -4.481643e-019
      vertex  3.125000e-002 -1.562500e-002  0.000000e+000
    endloop
  endfacet
  facet normal  0.000000e+000 -6.123234e-017 -9.999999e-001
    outer loop
      vertex  3.125000e-002 -1.562500e-002  0.000000e+000
      vertex  0.000000e+000 -8.305921e-003 -4.481643e-019
      vertex  3.125000e-002 -8.305921e-003 -4.481643e-019
    endloop
  endfacet
endsolid CATIA STL
