solid CATIA STL
  facet normal  9.999999e-001  -0.000000e+000  0.000000e+000
    outer loop
      vertex  4.687500e-001  3.203125e-001  2.102796e-001
      vertex  4.687500e-001  0.000000e+000  0.000000e+000
      vertex  4.687500e-001  3.203125e-001 -1.961348e-017
    endloop
  endfacet
  facet normal  9.999999e-001  0.000000e+000  0.000000e+000
    outer loop
      vertex  4.687500e-001  3.157361e-001  2.213282e-001
      vertex  4.687500e-001  3.133683e-001  2.232713e-001
      vertex  4.687500e-001  3.106669e-001  2.247152e-001
    endloop
  endfacet
  facet normal  1.000000e+000  0.000000e+000  0.000000e+000
    outer loop
      vertex  4.687500e-001  3.157361e-001  2.213282e-001
      vertex  4.687500e-001  3.106669e-001  2.247152e-001
      vertex  4.687500e-001  3.077358e-001  2.256044e-001
    endloop
  endfacet
  facet normal  1.000000e+000  0.000000e+000  0.000000e+000
    outer loop
      vertex  4.687500e-001  3.157361e-001  2.213282e-001
      vertex  4.687500e-001  3.077358e-001  2.256044e-001
      vertex  4.687500e-001  3.046875e-001  2.259046e-001
    endloop
  endfacet
  facet normal  1.000000e+000  0.000000e+000  0.000000e+000
    outer loop
      vertex  4.687500e-001  1.383267e-017  2.259046e-001
      vertex  4.687500e-001  0.000000e+000  0.000000e+000
      vertex  4.687500e-001  3.203125e-001  2.102796e-001
    endloop
  endfacet
  facet normal  1.000000e+000  0.000000e+000  0.000000e+000
    outer loop
      vertex  4.687500e-001  1.383267e-017  2.259046e-001
      vertex  4.687500e-001  3.203125e-001  2.102796e-001
      vertex  4.687500e-001  3.200123e-001  2.133279e-001
    endloop
  endfacet
  facet normal  1.000000e+000  0.000000e+000  0.000000e+000
    outer loop
      vertex  4.687500e-001  1.383267e-017  2.259046e-001
      vertex  4.687500e-001  3.200123e-001  2.133279e-001
      vertex  4.687500e-001  3.191231e-001  2.162590e-001
    endloop
  endfacet
  facet normal  1.000000e+000  0.000000e+000  0.000000e+000
    outer loop
      vertex  4.687500e-001  1.383267e-017  2.259046e-001
      vertex  4.687500e-001  3.191231e-001  2.162590e-001
      vertex  4.687500e-001  3.176792e-001  2.189604e-001
    endloop
  endfacet
  facet normal  1.000000e+000  0.000000e+000  0.000000e+000
    outer loop
      vertex  4.687500e-001  1.383267e-017  2.259046e-001
      vertex  4.687500e-001  3.176792e-001  2.189604e-001
      vertex  4.687500e-001  3.157361e-001  2.213282e-001
    endloop
  endfacet
  facet normal  1.000000e+000  0.000000e+000  0.000000e+000
    outer loop
      vertex  4.687500e-001  1.383267e-017  2.259046e-001
      vertex  4.687500e-001  3.157361e-001  2.213282e-001
      vertex  4.687500e-001  3.046875e-001  2.259046e-001
    endloop
  endfacet
  facet normal  -0.000000e+000  0.000000e+000 -1.000000e+000
    outer loop
      vertex  4.687500e-001  3.046875e-001  2.259046e-001
      vertex  7.500000e-001  3.046875e-001  2.259046e-001
      vertex  4.687500e-001  1.383267e-017  2.259046e-001
    endloop
  endfacet
  facet normal  0.000000e+000  0.000000e+000 -1.000000e+000
    outer loop
      vertex  4.687500e-001  1.383267e-017  2.259046e-001
      vertex  7.500000e-001  3.046875e-001  2.259046e-001
      vertex  7.500000e-001  0.000000e+000  2.259046e-001
    endloop
  endfacet
  facet normal  0.000000e+000 -1.000000e+000  -0.000000e+000
    outer loop
      vertex  7.500000e-001  3.203125e-001  0.000000e+000
      vertex  7.500000e-001  3.203125e-001  2.102796e-001
      vertex  4.687500e-001  3.203125e-001 -1.961348e-017
    endloop
  endfacet
  facet normal  0.000000e+000 -1.000000e+000  0.000000e+000
    outer loop
      vertex  4.687500e-001  3.203125e-001 -1.961348e-017
      vertex  7.500000e-001  3.203125e-001  2.102796e-001
      vertex  4.687500e-001  3.203125e-001  2.102796e-001
    endloop
  endfacet
  facet normal  1.000000e+000  0.000000e+000  0.000000e+000
    outer loop
      vertex  7.500000e-001  4.973684e-001  0.000000e+000
      vertex  7.500000e-001  3.203125e-001  2.102796e-001
      vertex  7.500000e-001  3.203125e-001  0.000000e+000
    endloop
  endfacet
  facet normal  1.000000e+000  0.000000e+000  0.000000e+000
    outer loop
      vertex  7.500000e-001  3.046875e-001  2.259046e-001
      vertex  7.500000e-001  0.000000e+000  4.843750e-001
      vertex  7.500000e-001  0.000000e+000  2.259046e-001
    endloop
  endfacet
  facet normal  1.000000e+000  -0.000000e+000  0.000000e+000
    outer loop
      vertex  7.500000e-001  4.973684e-001  4.843750e-001
      vertex  7.500000e-001  0.000000e+000  4.843750e-001
      vertex  7.500000e-001  3.046875e-001  2.259046e-001
    endloop
  endfacet
  facet normal  1.000000e+000  -0.000000e+000  0.000000e+000
    outer loop
      vertex  7.500000e-001  4.973684e-001  4.843750e-001
      vertex  7.500000e-001  3.046875e-001  2.259046e-001
      vertex  7.500000e-001  3.077358e-001  2.256044e-001
    endloop
  endfacet
  facet normal  1.000000e+000  -0.000000e+000  0.000000e+000
    outer loop
      vertex  7.500000e-001  4.973684e-001  4.843750e-001
      vertex  7.500000e-001  3.077358e-001  2.256044e-001
      vertex  7.500000e-001  3.106669e-001  2.247152e-001
    endloop
  endfacet
  facet normal  1.000000e+000  -0.000000e+000  0.000000e+000
    outer loop
      vertex  7.500000e-001  4.973684e-001  4.843750e-001
      vertex  7.500000e-001  3.106669e-001  2.247152e-001
      vertex  7.500000e-001  3.133683e-001  2.232713e-001
    endloop
  endfacet
  facet normal  1.000000e+000  -0.000000e+000  0.000000e+000
    outer loop
      vertex  7.500000e-001  4.973684e-001  4.843750e-001
      vertex  7.500000e-001  3.133683e-001  2.232713e-001
      vertex  7.500000e-001  3.157361e-001  2.213282e-001
    endloop
  endfacet
  facet normal  1.000000e+000  -0.000000e+000  0.000000e+000
    outer loop
      vertex  7.500000e-001  4.973684e-001  4.843750e-001
      vertex  7.500000e-001  3.157361e-001  2.213282e-001
      vertex  7.500000e-001  3.176792e-001  2.189604e-001
    endloop
  endfacet
  facet normal  1.000000e+000  -0.000000e+000  0.000000e+000
    outer loop
      vertex  7.500000e-001  4.973684e-001  4.843750e-001
      vertex  7.500000e-001  3.176792e-001  2.189604e-001
      vertex  7.500000e-001  3.191231e-001  2.162590e-001
    endloop
  endfacet
  facet normal  1.000000e+000  -0.000000e+000  0.000000e+000
    outer loop
      vertex  7.500000e-001  4.973684e-001  4.843750e-001
      vertex  7.500000e-001  3.191231e-001  2.162590e-001
      vertex  7.500000e-001  3.200123e-001  2.133279e-001
    endloop
  endfacet
  facet normal  1.000000e+000  -0.000000e+000  0.000000e+000
    outer loop
      vertex  7.500000e-001  4.973684e-001  4.843750e-001
      vertex  7.500000e-001  3.200123e-001  2.133279e-001
      vertex  7.500000e-001  3.203125e-001  2.102796e-001
    endloop
  endfacet
  facet normal  1.000000e+000  -0.000000e+000  0.000000e+000
    outer loop
      vertex  7.500000e-001  4.973684e-001  4.843750e-001
      vertex  7.500000e-001  3.203125e-001  2.102796e-001
      vertex  7.500000e-001  4.973684e-001  0.000000e+000
    endloop
  endfacet
  facet normal  0.000000e+000 -7.730110e-001 -6.343927e-001
    outer loop
      vertex  7.500000e-001  3.157361e-001  2.213282e-001
      vertex  4.687500e-001  3.176792e-001  2.189604e-001
      vertex  7.500000e-001  3.176792e-001  2.189604e-001
    endloop
  endfacet
  facet normal  -0.000000e+000 -8.819230e-001 -4.713935e-001
    outer loop
      vertex  7.500000e-001  3.176792e-001  2.189604e-001
      vertex  4.687500e-001  3.176792e-001  2.189604e-001
      vertex  4.687500e-001  3.191231e-001  2.162590e-001
    endloop
  endfacet
  facet normal  0.000000e+000 -8.819230e-001 -4.713935e-001
    outer loop
      vertex  7.500000e-001  3.176792e-001  2.189604e-001
      vertex  4.687500e-001  3.191231e-001  2.162590e-001
      vertex  7.500000e-001  3.191231e-001  2.162590e-001
    endloop
  endfacet
  facet normal  -0.000000e+000 -9.569405e-001 -2.902842e-001
    outer loop
      vertex  7.500000e-001  3.191231e-001  2.162590e-001
      vertex  4.687500e-001  3.191231e-001  2.162590e-001
      vertex  4.687500e-001  3.200123e-001  2.133279e-001
    endloop
  endfacet
  facet normal  0.000000e+000 -9.569405e-001 -2.902842e-001
    outer loop
      vertex  7.500000e-001  3.191231e-001  2.162590e-001
      vertex  4.687500e-001  3.200123e-001  2.133279e-001
      vertex  7.500000e-001  3.200123e-001  2.133279e-001
    endloop
  endfacet
  facet normal  -0.000000e+000 -9.951848e-001 -9.801670e-002
    outer loop
      vertex  7.500000e-001  3.200123e-001  2.133279e-001
      vertex  4.687500e-001  3.200123e-001  2.133279e-001
      vertex  4.687500e-001  3.203125e-001  2.102796e-001
    endloop
  endfacet
  facet normal  0.000000e+000 -9.951848e-001 -9.801670e-002
    outer loop
      vertex  7.500000e-001  3.200123e-001  2.133279e-001
      vertex  4.687500e-001  3.203125e-001  2.102796e-001
      vertex  7.500000e-001  3.203125e-001  2.102796e-001
    endloop
  endfacet
  facet normal  -0.000000e+000 -7.730110e-001 -6.343927e-001
    outer loop
      vertex  4.687500e-001  3.176792e-001  2.189604e-001
      vertex  7.500000e-001  3.157361e-001  2.213282e-001
      vertex  4.687500e-001  3.157361e-001  2.213282e-001
    endloop
  endfacet
  facet normal  0.000000e+000 -6.343927e-001 -7.730110e-001
    outer loop
      vertex  4.687500e-001  3.157361e-001  2.213282e-001
      vertex  7.500000e-001  3.157361e-001  2.213282e-001
      vertex  7.500000e-001  3.133683e-001  2.232713e-001
    endloop
  endfacet
  facet normal  -0.000000e+000 -6.343927e-001 -7.730110e-001
    outer loop
      vertex  4.687500e-001  3.157361e-001  2.213282e-001
      vertex  7.500000e-001  3.133683e-001  2.232713e-001
      vertex  4.687500e-001  3.133683e-001  2.232713e-001
    endloop
  endfacet
  facet normal  0.000000e+000 -4.713915e-001 -8.819242e-001
    outer loop
      vertex  4.687500e-001  3.133683e-001  2.232713e-001
      vertex  7.500000e-001  3.133683e-001  2.232713e-001
      vertex  7.500000e-001  3.106669e-001  2.247152e-001
    endloop
  endfacet
  facet normal  -0.000000e+000 -4.713915e-001 -8.819242e-001
    outer loop
      vertex  4.687500e-001  3.133683e-001  2.232713e-001
      vertex  7.500000e-001  3.106669e-001  2.247152e-001
      vertex  4.687500e-001  3.106669e-001  2.247152e-001
    endloop
  endfacet
  facet normal  0.000000e+000 -2.902869e-001 -9.569397e-001
    outer loop
      vertex  4.687500e-001  3.106669e-001  2.247152e-001
      vertex  7.500000e-001  3.106669e-001  2.247152e-001
      vertex  7.500000e-001  3.077358e-001  2.256044e-001
    endloop
  endfacet
  facet normal  -0.000000e+000 -2.902869e-001 -9.569397e-001
    outer loop
      vertex  4.687500e-001  3.106669e-001  2.247152e-001
      vertex  7.500000e-001  3.077358e-001  2.256044e-001
      vertex  4.687500e-001  3.077358e-001  2.256044e-001
    endloop
  endfacet
  facet normal  0.000000e+000 -9.801622e-002 -9.951848e-001
    outer loop
      vertex  4.687500e-001  3.077358e-001  2.256044e-001
      vertex  7.500000e-001  3.077358e-001  2.256044e-001
      vertex  7.500000e-001  3.046875e-001  2.259046e-001
    endloop
  endfacet
  facet normal  -0.000000e+000 -9.801622e-002 -9.951848e-001
    outer loop
      vertex  4.687500e-001  3.077358e-001  2.256044e-001
      vertex  7.500000e-001  3.046875e-001  2.259046e-001
      vertex  4.687500e-001  3.046875e-001  2.259046e-001
    endloop
  endfacet
  facet normal  0.000000e+000  0.000000e+000 -1.000000e+000
    outer loop
      vertex  5.368421e-001  3.315789e-001  0.000000e+000
      vertex  5.368421e-001  4.973684e-001  0.000000e+000
      vertex  7.500000e-001  4.973684e-001  0.000000e+000
    endloop
  endfacet
  facet normal  0.000000e+000  -0.000000e+000 -1.000000e+000
    outer loop
      vertex  5.368421e-001  3.315789e-001  0.000000e+000
      vertex  7.500000e-001  4.973684e-001  0.000000e+000
      vertex  7.500000e-001  3.203125e-001  0.000000e+000
    endloop
  endfacet
  facet normal  6.973683e-017  1.319401e-015 -1.000000e+000
    outer loop
      vertex  5.368421e-001  3.315789e-001  0.000000e+000
      vertex  7.500000e-001  3.203125e-001  0.000000e+000
      vertex  4.687500e-001  3.203125e-001 -1.961348e-017
    endloop
  endfacet
  facet normal  0.000000e+000  1.740877e-015 -1.000000e+000
    outer loop
      vertex  5.368421e-001  3.315789e-001  0.000000e+000
      vertex  4.687500e-001  3.203125e-001 -1.961348e-017
      vertex  2.131579e-001  3.315789e-001  0.000000e+000
    endloop
  endfacet
  facet normal  0.000000e+000  0.000000e+000 -1.000000e+000
    outer loop
      vertex  0.000000e+000  0.000000e+000  0.000000e+000
      vertex  0.000000e+000  4.973684e-001  0.000000e+000
      vertex  2.131579e-001  4.973684e-001  0.000000e+000
    endloop
  endfacet
  facet normal  0.000000e+000  -0.000000e+000 -1.000000e+000
    outer loop
      vertex  0.000000e+000  0.000000e+000  0.000000e+000
      vertex  2.131579e-001  4.973684e-001  0.000000e+000
      vertex  2.131579e-001  3.315789e-001  0.000000e+000
    endloop
  endfacet
  facet normal -7.462285e-017  4.797183e-017 -1.000000e+000
    outer loop
      vertex  0.000000e+000  0.000000e+000  0.000000e+000
      vertex  2.131579e-001  3.315789e-001  0.000000e+000
      vertex  4.687500e-001  3.203125e-001 -1.961348e-017
    endloop
  endfacet
  facet normal  0.000000e+000 -6.123234e-017 -1.000000e+000
    outer loop
      vertex  0.000000e+000  0.000000e+000  0.000000e+000
      vertex  4.687500e-001  3.203125e-001 -1.961348e-017
      vertex  4.687500e-001  0.000000e+000  0.000000e+000
    endloop
  endfacet
  facet normal  2.233180e-016 -1.000000e+000  6.123234e-017
    outer loop
      vertex  4.687500e-001  0.000000e+000  0.000000e+000
      vertex  4.687500e-001  1.383267e-017  2.259046e-001
      vertex  3.359375e-001  0.000000e+000  4.843750e-001
    endloop
  endfacet
  facet normal  0.000000e+000 -1.000000e+000  0.000000e+000
    outer loop
      vertex  4.687500e-001  0.000000e+000  0.000000e+000
      vertex  3.359375e-001  0.000000e+000  4.843750e-001
      vertex  3.359375e-001  0.000000e+000  1.875000e-001
    endloop
  endfacet
  facet normal  0.000000e+000 -1.000000e+000  -0.000000e+000
    outer loop
      vertex  4.687500e-001  0.000000e+000  0.000000e+000
      vertex  3.359375e-001  0.000000e+000  1.875000e-001
      vertex  3.350368e-001  0.000000e+000  1.783551e-001
    endloop
  endfacet
  facet normal  0.000000e+000 -1.000000e+000  -0.000000e+000
    outer loop
      vertex  4.687500e-001  0.000000e+000  0.000000e+000
      vertex  3.350368e-001  0.000000e+000  1.783551e-001
      vertex  3.323694e-001  0.000000e+000  1.695617e-001
    endloop
  endfacet
  facet normal  0.000000e+000 -1.000000e+000  -0.000000e+000
    outer loop
      vertex  4.687500e-001  0.000000e+000  0.000000e+000
      vertex  3.323694e-001  0.000000e+000  1.695617e-001
      vertex  3.280376e-001  0.000000e+000  1.614576e-001
    endloop
  endfacet
  facet normal  0.000000e+000 -1.000000e+000  -0.000000e+000
    outer loop
      vertex  4.687500e-001  0.000000e+000  0.000000e+000
      vertex  3.280376e-001  0.000000e+000  1.614576e-001
      vertex  3.222081e-001  0.000000e+000  1.543544e-001
    endloop
  endfacet
  facet normal  0.000000e+000 -1.000000e+000  -0.000000e+000
    outer loop
      vertex  4.687500e-001  0.000000e+000  0.000000e+000
      vertex  3.222081e-001  0.000000e+000  1.543544e-001
      vertex  3.151048e-001  0.000000e+000  1.485249e-001
    endloop
  endfacet
  facet normal  0.000000e+000 -1.000000e+000  -0.000000e+000
    outer loop
      vertex  4.687500e-001  0.000000e+000  0.000000e+000
      vertex  3.151048e-001  0.000000e+000  1.485249e-001
      vertex  3.070008e-001  0.000000e+000  1.441931e-001
    endloop
  endfacet
  facet normal  0.000000e+000 -1.000000e+000  -0.000000e+000
    outer loop
      vertex  4.687500e-001  0.000000e+000  0.000000e+000
      vertex  3.070008e-001  0.000000e+000  1.441931e-001
      vertex  2.982074e-001  0.000000e+000  1.415257e-001
    endloop
  endfacet
  facet normal  0.000000e+000 -1.000000e+000  -0.000000e+000
    outer loop
      vertex  4.687500e-001  0.000000e+000  0.000000e+000
      vertex  2.982074e-001  0.000000e+000  1.415257e-001
      vertex  2.890625e-001  0.000000e+000  1.406250e-001
    endloop
  endfacet
  facet normal  -0.000000e+000 -1.000000e+000  -0.000000e+000
    outer loop
      vertex  4.687500e-001  0.000000e+000  0.000000e+000
      vertex  2.890625e-001  0.000000e+000  1.406250e-001
      vertex  0.000000e+000  0.000000e+000  1.406250e-001
    endloop
  endfacet
  facet normal  0.000000e+000 -1.000000e+000  0.000000e+000
    outer loop
      vertex  4.687500e-001  0.000000e+000  0.000000e+000
      vertex  0.000000e+000  0.000000e+000  1.406250e-001
      vertex  0.000000e+000  0.000000e+000  0.000000e+000
    endloop
  endfacet
  facet normal  0.000000e+000 -9.999999e-001 -5.351741e-017
    outer loop
      vertex  3.359375e-001  0.000000e+000  4.843750e-001
      vertex  4.687500e-001  1.383267e-017  2.259046e-001
      vertex  7.500000e-001  0.000000e+000  4.843750e-001
    endloop
  endfacet
  facet normal -4.918281e-017 -1.000000e+000  -0.000000e+000
    outer loop
      vertex  7.500000e-001  0.000000e+000  4.843750e-001
      vertex  4.687500e-001  1.383267e-017  2.259046e-001
      vertex  7.500000e-001  0.000000e+000  2.259046e-001
    endloop
  endfacet
  facet normal  0.000000e+000  0.000000e+000  1.000000e+000
    outer loop
      vertex  0.000000e+000  0.000000e+000  1.406250e-001
      vertex  2.890625e-001  0.000000e+000  1.406250e-001
      vertex  0.000000e+000  1.202303e-001  1.406250e-001
    endloop
  endfacet
  facet normal  -0.000000e+000  0.000000e+000  1.000000e+000
    outer loop
      vertex  0.000000e+000  1.202303e-001  1.406250e-001
      vertex  2.890625e-001  0.000000e+000  1.406250e-001
      vertex  2.890625e-001  1.202303e-001  1.406250e-001
    endloop
  endfacet
  facet normal  -0.000000e+000 -1.000000e+000  0.000000e+000
    outer loop
      vertex  2.890625e-001  1.202303e-001  1.406250e-001
      vertex  2.982074e-001  1.202303e-001  1.415257e-001
      vertex  3.070008e-001  1.202303e-001  1.441931e-001
    endloop
  endfacet
  facet normal  0.000000e+000 -1.000000e+000  0.000000e+000
    outer loop
      vertex  0.000000e+000  1.202303e-001  1.406250e-001
      vertex  2.890625e-001  1.202303e-001  1.406250e-001
      vertex  3.070008e-001  1.202303e-001  1.441931e-001
    endloop
  endfacet
  facet normal  -0.000000e+000 -9.999999e-001  0.000000e+000
    outer loop
      vertex  0.000000e+000  1.202303e-001  1.406250e-001
      vertex  3.070008e-001  1.202303e-001  1.441931e-001
      vertex  3.151048e-001  1.202303e-001  1.485249e-001
    endloop
  endfacet
  facet normal  -0.000000e+000 -1.000000e+000  0.000000e+000
    outer loop
      vertex  0.000000e+000  1.202303e-001  1.406250e-001
      vertex  3.151048e-001  1.202303e-001  1.485249e-001
      vertex  3.222081e-001  1.202303e-001  1.543544e-001
    endloop
  endfacet
  facet normal  -0.000000e+000 -1.000000e+000  0.000000e+000
    outer loop
      vertex  0.000000e+000  1.202303e-001  1.406250e-001
      vertex  3.222081e-001  1.202303e-001  1.543544e-001
      vertex  3.280376e-001  1.202303e-001  1.614576e-001
    endloop
  endfacet
  facet normal  -0.000000e+000 -1.000000e+000  0.000000e+000
    outer loop
      vertex  0.000000e+000  1.202303e-001  1.406250e-001
      vertex  3.280376e-001  1.202303e-001  1.614576e-001
      vertex  3.323694e-001  1.202303e-001  1.695617e-001
    endloop
  endfacet
  facet normal  -0.000000e+000 -1.000000e+000  0.000000e+000
    outer loop
      vertex  0.000000e+000  1.202303e-001  1.406250e-001
      vertex  3.323694e-001  1.202303e-001  1.695617e-001
      vertex  3.350368e-001  1.202303e-001  1.783551e-001
    endloop
  endfacet
  facet normal  -0.000000e+000 -1.000000e+000  0.000000e+000
    outer loop
      vertex  0.000000e+000  1.202303e-001  1.406250e-001
      vertex  3.350368e-001  1.202303e-001  1.783551e-001
      vertex  3.359375e-001  1.202303e-001  1.875000e-001
    endloop
  endfacet
  facet normal  -0.000000e+000 -1.000000e+000  0.000000e+000
    outer loop
      vertex  0.000000e+000  1.202303e-001  1.406250e-001
      vertex  3.359375e-001  1.202303e-001  1.875000e-001
      vertex  3.359375e-001  1.202303e-001  4.843750e-001
    endloop
  endfacet
  facet normal  -0.000000e+000 -1.000000e+000  0.000000e+000
    outer loop
      vertex  0.000000e+000  1.202303e-001  1.406250e-001
      vertex  3.359375e-001  1.202303e-001  4.843750e-001
      vertex  0.000000e+000  1.202303e-001  4.843750e-001
    endloop
  endfacet
  facet normal -1.000000e+000  -0.000000e+000  0.000000e+000
    outer loop
      vertex  3.359375e-001  0.000000e+000  4.843750e-001
      vertex  3.359375e-001  1.202303e-001  4.843750e-001
      vertex  3.359375e-001  0.000000e+000  1.875000e-001
    endloop
  endfacet
  facet normal -1.000000e+000  0.000000e+000  0.000000e+000
    outer loop
      vertex  3.359375e-001  0.000000e+000  1.875000e-001
      vertex  3.359375e-001  1.202303e-001  4.843750e-001
      vertex  3.359375e-001  1.202303e-001  1.875000e-001
    endloop
  endfacet
  facet normal -6.343917e-001  0.000000e+000  7.730117e-001
    outer loop
      vertex  3.222081e-001  0.000000e+000  1.543544e-001
      vertex  3.151048e-001  1.202303e-001  1.485249e-001
      vertex  3.151048e-001  0.000000e+000  1.485249e-001
    endloop
  endfacet
  facet normal -4.713980e-001  0.000000e+000  8.819206e-001
    outer loop
      vertex  3.151048e-001  0.000000e+000  1.485249e-001
      vertex  3.151048e-001  1.202303e-001  1.485249e-001
      vertex  3.070008e-001  1.202303e-001  1.441931e-001
    endloop
  endfacet
  facet normal -4.713980e-001  0.000000e+000  8.819206e-001
    outer loop
      vertex  3.151048e-001  0.000000e+000  1.485249e-001
      vertex  3.070008e-001  1.202303e-001  1.441931e-001
      vertex  3.070008e-001  0.000000e+000  1.441931e-001
    endloop
  endfacet
  facet normal -2.902851e-001  0.000000e+000  9.569402e-001
    outer loop
      vertex  3.070008e-001  0.000000e+000  1.441931e-001
      vertex  3.070008e-001  1.202303e-001  1.441931e-001
      vertex  2.982074e-001  1.202303e-001  1.415257e-001
    endloop
  endfacet
  facet normal -2.902851e-001  0.000000e+000  9.569402e-001
    outer loop
      vertex  3.070008e-001  0.000000e+000  1.441931e-001
      vertex  2.982074e-001  1.202303e-001  1.415257e-001
      vertex  2.982074e-001  0.000000e+000  1.415257e-001
    endloop
  endfacet
  facet normal -9.801654e-002  0.000000e+000  9.951847e-001
    outer loop
      vertex  2.982074e-001  0.000000e+000  1.415257e-001
      vertex  2.982074e-001  1.202303e-001  1.415257e-001
      vertex  2.890625e-001  1.202303e-001  1.406250e-001
    endloop
  endfacet
  facet normal -9.801654e-002  0.000000e+000  9.951847e-001
    outer loop
      vertex  2.982074e-001  0.000000e+000  1.415257e-001
      vertex  2.890625e-001  1.202303e-001  1.406250e-001
      vertex  2.890625e-001  0.000000e+000  1.406250e-001
    endloop
  endfacet
  facet normal -6.343917e-001  0.000000e+000  7.730117e-001
    outer loop
      vertex  3.151048e-001  1.202303e-001  1.485249e-001
      vertex  3.222081e-001  0.000000e+000  1.543544e-001
      vertex  3.222081e-001  1.202303e-001  1.543544e-001
    endloop
  endfacet
  facet normal -7.730103e-001  0.000000e+000  6.343934e-001
    outer loop
      vertex  3.222081e-001  1.202303e-001  1.543544e-001
      vertex  3.222081e-001  0.000000e+000  1.543544e-001
      vertex  3.280376e-001  0.000000e+000  1.614576e-001
    endloop
  endfacet
  facet normal -7.730103e-001  0.000000e+000  6.343934e-001
    outer loop
      vertex  3.222081e-001  1.202303e-001  1.543544e-001
      vertex  3.280376e-001  0.000000e+000  1.614576e-001
      vertex  3.280376e-001  1.202303e-001  1.614576e-001
    endloop
  endfacet
  facet normal -8.819216e-001  0.000000e+000  4.713960e-001
    outer loop
      vertex  3.280376e-001  1.202303e-001  1.614576e-001
      vertex  3.280376e-001  0.000000e+000  1.614576e-001
      vertex  3.323694e-001  0.000000e+000  1.695617e-001
    endloop
  endfacet
  facet normal -8.819216e-001  0.000000e+000  4.713960e-001
    outer loop
      vertex  3.280376e-001  1.202303e-001  1.614576e-001
      vertex  3.323694e-001  0.000000e+000  1.695617e-001
      vertex  3.323694e-001  1.202303e-001  1.695617e-001
    endloop
  endfacet
  facet normal -9.569404e-001  0.000000e+000  2.902846e-001
    outer loop
      vertex  3.323694e-001  1.202303e-001  1.695617e-001
      vertex  3.323694e-001  0.000000e+000  1.695617e-001
      vertex  3.350368e-001  0.000000e+000  1.783551e-001
    endloop
  endfacet
  facet normal -9.569404e-001  0.000000e+000  2.902846e-001
    outer loop
      vertex  3.323694e-001  1.202303e-001  1.695617e-001
      vertex  3.350368e-001  0.000000e+000  1.783551e-001
      vertex  3.350368e-001  1.202303e-001  1.783551e-001
    endloop
  endfacet
  facet normal -9.951847e-001  0.000000e+000  9.801669e-002
    outer loop
      vertex  3.350368e-001  1.202303e-001  1.783551e-001
      vertex  3.350368e-001  0.000000e+000  1.783551e-001
      vertex  3.359375e-001  0.000000e+000  1.875000e-001
    endloop
  endfacet
  facet normal -9.951847e-001  0.000000e+000  9.801669e-002
    outer loop
      vertex  3.350368e-001  1.202303e-001  1.783551e-001
      vertex  3.359375e-001  0.000000e+000  1.875000e-001
      vertex  3.359375e-001  1.202303e-001  1.875000e-001
    endloop
  endfacet
  facet normal -9.999999e-001  0.000000e+000  0.000000e+000
    outer loop
      vertex  0.000000e+000  0.000000e+000  0.000000e+000
      vertex  0.000000e+000  0.000000e+000  1.406250e-001
      vertex  0.000000e+000  4.973684e-001  0.000000e+000
    endloop
  endfacet
  facet normal -9.999999e-001  0.000000e+000  0.000000e+000
    outer loop
      vertex  0.000000e+000  4.973684e-001  0.000000e+000
      vertex  0.000000e+000  0.000000e+000  1.406250e-001
      vertex  0.000000e+000  1.202303e-001  1.406250e-001
    endloop
  endfacet
  facet normal -1.000000e+000  0.000000e+000  0.000000e+000
    outer loop
      vertex  0.000000e+000  4.973684e-001  0.000000e+000
      vertex  0.000000e+000  1.202303e-001  1.406250e-001
      vertex  0.000000e+000  4.973684e-001  4.843750e-001
    endloop
  endfacet
  facet normal -1.000000e+000  -0.000000e+000  0.000000e+000
    outer loop
      vertex  0.000000e+000  4.973684e-001  4.843750e-001
      vertex  0.000000e+000  1.202303e-001  1.406250e-001
      vertex  0.000000e+000  1.202303e-001  4.843750e-001
    endloop
  endfacet
  facet normal  0.000000e+000  -0.000000e+000  1.000000e+000
    outer loop
      vertex  0.000000e+000  1.202303e-001  4.843750e-001
      vertex  3.359375e-001  1.202303e-001  4.843750e-001
      vertex  5.368421e-001  3.315789e-001  4.843750e-001
    endloop
  endfacet
  facet normal  0.000000e+000  0.000000e+000  1.000000e+000
    outer loop
      vertex  0.000000e+000  1.202303e-001  4.843750e-001
      vertex  5.368421e-001  3.315789e-001  4.843750e-001
      vertex  2.131579e-001  3.315789e-001  4.843750e-001
    endloop
  endfacet
  facet normal  0.000000e+000  -0.000000e+000  1.000000e+000
    outer loop
      vertex  0.000000e+000  1.202303e-001  4.843750e-001
      vertex  2.131579e-001  3.315789e-001  4.843750e-001
      vertex  2.131579e-001  4.973684e-001  4.843750e-001
    endloop
  endfacet
  facet normal  0.000000e+000  0.000000e+000  1.000000e+000
    outer loop
      vertex  0.000000e+000  1.202303e-001  4.843750e-001
      vertex  2.131579e-001  4.973684e-001  4.843750e-001
      vertex  0.000000e+000  4.973684e-001  4.843750e-001
    endloop
  endfacet
  facet normal  -0.000000e+000  0.000000e+000  1.000000e+000
    outer loop
      vertex  7.500000e-001  4.973684e-001  4.843750e-001
      vertex  5.368421e-001  4.973684e-001  4.843750e-001
      vertex  7.500000e-001  0.000000e+000  4.843750e-001
    endloop
  endfacet
  facet normal  0.000000e+000  0.000000e+000  1.000000e+000
    outer loop
      vertex  7.500000e-001  0.000000e+000  4.843750e-001
      vertex  5.368421e-001  4.973684e-001  4.843750e-001
      vertex  5.368421e-001  3.315789e-001  4.843750e-001
    endloop
  endfacet
  facet normal  0.000000e+000  0.000000e+000  1.000000e+000
    outer loop
      vertex  7.500000e-001  0.000000e+000  4.843750e-001
      vertex  5.368421e-001  3.315789e-001  4.843750e-001
      vertex  3.359375e-001  0.000000e+000  4.843750e-001
    endloop
  endfacet
  facet normal  0.000000e+000  0.000000e+000  1.000000e+000
    outer loop
      vertex  3.359375e-001  0.000000e+000  4.843750e-001
      vertex  5.368421e-001  3.315789e-001  4.843750e-001
      vertex  3.359375e-001  1.202303e-001  4.843750e-001
    endloop
  endfacet
  facet normal  0.000000e+000  1.000000e+000  -0.000000e+000
    outer loop
      vertex  2.131579e-001  4.973684e-001  4.843750e-001
      vertex  2.131579e-001  4.973684e-001  0.000000e+000
      vertex  0.000000e+000  4.973684e-001  4.843750e-001
    endloop
  endfacet
  facet normal  0.000000e+000  1.000000e+000  0.000000e+000
    outer loop
      vertex  0.000000e+000  4.973684e-001  4.843750e-001
      vertex  2.131579e-001  4.973684e-001  0.000000e+000
      vertex  0.000000e+000  4.973684e-001  0.000000e+000
    endloop
  endfacet
  facet normal  1.000000e+000  0.000000e+000  0.000000e+000
    outer loop
      vertex  2.131579e-001  3.315789e-001  0.000000e+000
      vertex  2.131579e-001  4.973684e-001  0.000000e+000
      vertex  2.131579e-001  3.315789e-001  4.843750e-001
    endloop
  endfacet
  facet normal  1.000000e+000  -0.000000e+000  0.000000e+000
    outer loop
      vertex  2.131579e-001  3.315789e-001  4.843750e-001
      vertex  2.131579e-001  4.973684e-001  0.000000e+000
      vertex  2.131579e-001  4.973684e-001  4.843750e-001
    endloop
  endfacet
  facet normal  0.000000e+000  1.000000e+000  0.000000e+000
    outer loop
      vertex  5.368421e-001  3.315789e-001  0.000000e+000
      vertex  2.131579e-001  3.315789e-001  0.000000e+000
      vertex  5.368421e-001  3.315789e-001  4.843750e-001
    endloop
  endfacet
  facet normal  0.000000e+000  1.000000e+000  0.000000e+000
    outer loop
      vertex  5.368421e-001  3.315789e-001  4.843750e-001
      vertex  2.131579e-001  3.315789e-001  0.000000e+000
      vertex  2.131579e-001  3.315789e-001  4.843750e-001
    endloop
  endfacet
  facet normal -1.000000e+000  0.000000e+000  0.000000e+000
    outer loop
      vertex  5.368421e-001  4.973684e-001  0.000000e+000
      vertex  5.368421e-001  3.315789e-001  0.000000e+000
      vertex  5.368421e-001  4.973684e-001  4.843750e-001
    endloop
  endfacet
  facet normal -1.000000e+000  -0.000000e+000  0.000000e+000
    outer loop
      vertex  5.368421e-001  4.973684e-001  4.843750e-001
      vertex  5.368421e-001  3.315789e-001  0.000000e+000
      vertex  5.368421e-001  3.315789e-001  4.843750e-001
    endloop
  endfacet
  facet normal  0.000000e+000  1.000000e+000  -0.000000e+000
    outer loop
      vertex  7.500000e-001  4.973684e-001  4.843750e-001
      vertex  7.500000e-001  4.973684e-001  0.000000e+000
      vertex  5.368421e-001  4.973684e-001  4.843750e-001
    endloop
  endfacet
  facet normal  0.000000e+000  1.000000e+000  0.000000e+000
    outer loop
      vertex  5.368421e-001  4.973684e-001  4.843750e-001
      vertex  7.500000e-001  4.973684e-001  0.000000e+000
      vertex  5.368421e-001  4.973684e-001  0.000000e+000
    endloop
  endfacet
endsolid CATIA STL
