solid CATIA STL
  facet normal -6.136725e-003  1.068245e-002 -9.999242e-001
    outer loop
      vertex -4.879977e-003 -1.495267e+000 -7.958564e-003
      vertex  6.825658e-003 -7.435855e-001  0.000000e+000
      vertex  6.484375e-001 -3.750000e-001  0.000000e+000
    endloop
  endfacet
  facet normal -6.136723e-003  1.068245e-002 -9.999241e-001
    outer loop
      vertex -4.879977e-003 -1.495267e+000 -7.958564e-003
      vertex  6.484375e-001 -3.750000e-001  0.000000e+000
      vertex  6.436955e-001 -1.873446e+000 -1.597918e-002
    endloop
  endfacet
  facet normal -6.136724e-003  1.068245e-002 -9.999241e-001
    outer loop
      vertex  6.436955e-001 -1.873446e+000 -1.597918e-002
      vertex  6.484375e-001 -3.750000e-001  0.000000e+000
      vertex  1.297013e+000 -7.531794e-001 -8.020619e-003
    endloop
  endfacet
  facet normal -6.136724e-003  1.068245e-002 -9.999242e-001
    outer loop
      vertex  6.436955e-001 -1.873446e+000 -1.597918e-002
      vertex  1.297013e+000 -7.531794e-001 -8.020619e-003
      vertex  1.292184e+000 -1.493068e+000 -1.589541e-002
    endloop
  endfacet
  facet normal  0.000000e+000  0.000000e+000 -1.000000e+000
    outer loop
      vertex  6.484375e-001 -3.750000e-001  0.000000e+000
      vertex  6.825658e-003 -7.435855e-001  0.000000e+000
      vertex -6.484375e-001 -3.750000e-001  0.000000e+000
    endloop
  endfacet
  facet normal  0.000000e+000  0.000000e+000 -1.000000e+000
    outer loop
      vertex  6.825658e-003  7.444079e-001  0.000000e+000
      vertex  6.484375e-001  3.758224e-001  0.000000e+000
      vertex -6.484375e-001  3.758224e-001  0.000000e+000
    endloop
  endfacet
  facet normal  0.000000e+000  0.000000e+000 -1.000000e+000
    outer loop
      vertex -6.484375e-001  3.758224e-001  0.000000e+000
      vertex  6.484375e-001  3.758224e-001  0.000000e+000
      vertex  6.484375e-001 -3.750000e-001  0.000000e+000
    endloop
  endfacet
  facet normal  0.000000e+000  0.000000e+000 -1.000000e+000
    outer loop
      vertex -6.484375e-001  3.758224e-001  0.000000e+000
      vertex  6.484375e-001 -3.750000e-001  0.000000e+000
      vertex -6.484375e-001 -3.750000e-001  0.000000e+000
    endloop
  endfacet
  facet normal -9.181698e-001 -1.405791e-001  3.704076e-001
    outer loop
      vertex -5.196372e-001 -5.992081e-001  5.169305e-001
      vertex -3.898325e-001 -7.434191e-002  1.037892e+000
      vertex -5.638235e-001 -5.222911e-001  4.365929e-001
    endloop
  endfacet
  facet normal -9.181697e-001 -1.405792e-001  3.704076e-001
    outer loop
      vertex -5.638235e-001 -5.222911e-001  4.365929e-001
      vertex -3.898325e-001 -7.434191e-002  1.037892e+000
      vertex -4.785497e-001  8.009181e-002  8.765901e-001
    endloop
  endfacet
  facet normal -9.493371e-001 -8.632481e-002  3.021705e-001
    outer loop
      vertex -5.638235e-001 -5.222911e-001  4.365929e-001
      vertex -4.785497e-001  8.009181e-002  8.765901e-001
      vertex -5.998698e-001 -4.595438e-001  3.412712e-001
    endloop
  endfacet
  facet normal -9.493371e-001 -8.632485e-002  3.021705e-001
    outer loop
      vertex -5.998698e-001 -4.595438e-001  3.412712e-001
      vertex -4.785497e-001  8.009181e-002  8.765901e-001
      vertex -5.509233e-001  2.060755e-001  6.852034e-001
    endloop
  endfacet
  facet normal -9.736996e-001 -4.391601e-002  2.235629e-001
    outer loop
      vertex -5.998698e-001 -4.595438e-001  3.412712e-001
      vertex -5.509233e-001  2.060755e-001  6.852034e-001
      vertex -6.265389e-001 -4.131198e-001  2.342368e-001
    endloop
  endfacet
  facet normal -9.736996e-001 -4.391608e-002  2.235630e-001
    outer loop
      vertex -6.265389e-001 -4.131198e-001  2.342368e-001
      vertex -5.509233e-001  2.060755e-001  6.852034e-001
      vertex -6.044695e-001  2.992855e-001  4.703001e-001
    endloop
  endfacet
  facet normal -9.904212e-001 -1.480815e-002  1.372827e-001
    outer loop
      vertex -6.265389e-001 -4.131198e-001  2.342368e-001
      vertex -6.044695e-001  2.992855e-001  4.703001e-001
      vertex -6.429155e-001 -3.846124e-001  1.191633e-001
    endloop
  endfacet
  facet normal -9.904212e-001 -1.480811e-002  1.372826e-001
    outer loop
      vertex -6.429155e-001 -3.846124e-001  1.191633e-001
      vertex -6.044695e-001  2.992855e-001  4.703001e-001
      vertex -6.373504e-001  3.565226e-001  2.392557e-001
    endloop
  endfacet
  facet normal -9.989280e-001  5.002320e-008  4.629021e-002
    outer loop
      vertex -6.429155e-001 -3.846124e-001  1.191633e-001
      vertex -6.373504e-001  3.565226e-001  2.392557e-001
      vertex -6.484375e-001 -3.750000e-001  0.000000e+000
    endloop
  endfacet
  facet normal -9.989280e-001  0.000000e+000  4.629036e-002
    outer loop
      vertex -6.484375e-001 -3.750000e-001  0.000000e+000
      vertex -6.373504e-001  3.565226e-001  2.392557e-001
      vertex -6.484375e-001  3.758224e-001  0.000000e+000
    endloop
  endfacet
  facet normal -5.817019e-001 -7.262826e-001  3.662466e-001
    outer loop
      vertex  3.914794e-001 -1.434403e+000  1.028230e+000
      vertex -1.304983e-001 -1.276598e+000  5.121182e-001
      vertex  4.792001e-001 -1.587102e+000  8.647461e-001
    endloop
  endfacet
  facet normal -5.817019e-001 -7.262826e-001  3.662465e-001
    outer loop
      vertex  4.792001e-001 -1.587102e+000  8.647461e-001
      vertex -1.304983e-001 -1.276598e+000  5.121182e-001
      vertex -8.680831e-002 -1.352651e+000  4.306939e-001
    endloop
  endfacet
  facet normal -5.509557e-001 -7.798038e-001  2.972438e-001
    outer loop
      vertex  4.792001e-001 -1.587102e+000  8.647461e-001
      vertex -8.680831e-002 -1.352651e+000  4.306939e-001
      vertex  5.503937e-001 -1.711032e+000  6.715840e-001
    endloop
  endfacet
  facet normal -5.509557e-001 -7.798035e-001  2.972444e-001
    outer loop
      vertex  5.503937e-001 -1.711032e+000  6.715840e-001
      vertex -8.680831e-002 -1.352651e+000  4.306939e-001
      vertex -5.134972e-002 -1.414375e+000  3.344879e-001
    endloop
  endfacet
  facet normal -5.270774e-001 -8.213696e-001  2.180400e-001
    outer loop
      vertex  5.503937e-001 -1.711032e+000  6.715840e-001
      vertex -5.134972e-002 -1.414375e+000  3.344879e-001
      vertex  6.026170e-001 -1.801939e+000  4.553726e-001
    endloop
  endfacet
  facet normal -5.270774e-001 -8.213697e-001  2.180395e-001
    outer loop
      vertex  6.026170e-001 -1.801939e+000  4.553726e-001
      vertex -5.134972e-002 -1.414375e+000  3.344879e-001
      vertex -2.533950e-002 -1.459652e+000  2.268021e-001
    endloop
  endfacet
  facet normal -5.108866e-001 -8.495537e-001  1.313524e-001
    outer loop
      vertex  6.026170e-001 -1.801939e+000  4.553726e-001
      vertex -2.533950e-002 -1.459652e+000  2.268021e-001
      vertex  6.340775e-001 -1.856704e+000  2.235326e-001
    endloop
  endfacet
  facet normal -5.108865e-001 -8.495536e-001  1.313528e-001
    outer loop
      vertex  6.340775e-001 -1.856704e+000  2.235326e-001
      vertex -2.533950e-002 -1.459652e+000  2.268021e-001
      vertex -9.670323e-003 -1.486928e+000  1.113323e-001
    endloop
  endfacet
  facet normal -5.029387e-001 -8.633887e-001  4.015657e-002
    outer loop
      vertex  6.340775e-001 -1.856704e+000  2.235326e-001
      vertex -9.670323e-003 -1.486928e+000  1.113323e-001
      vertex  6.436955e-001 -1.873446e+000 -1.597918e-002
    endloop
  endfacet
  facet normal -5.029388e-001 -8.633887e-001  4.015623e-002
    outer loop
      vertex  6.436955e-001 -1.873446e+000 -1.597918e-002
      vertex -9.670323e-003 -1.486928e+000  1.113323e-001
      vertex -4.879977e-003 -1.495267e+000 -7.958564e-003
    endloop
  endfacet
  facet normal -8.812672e-001 -2.048168e-001  4.259320e-001
    outer loop
      vertex -3.898325e-001 -7.434191e-002  1.037892e+000
      vertex -5.196372e-001 -5.992081e-001  5.169305e-001
      vertex -2.878165e-001 -2.519253e-001  1.163572e+000
    endloop
  endfacet
  facet normal -8.812672e-001 -2.048169e-001  4.259320e-001
    outer loop
      vertex -2.878165e-001 -2.519253e-001  1.163572e+000
      vertex -5.196372e-001 -5.992081e-001  5.169305e-001
      vertex -4.688272e-001 -6.876549e-001  5.795267e-001
    endloop
  endfacet
  facet normal -8.398963e-001 -2.768329e-001  4.668380e-001
    outer loop
      vertex -2.878165e-001 -2.519253e-001  1.163572e+000
      vertex -4.688272e-001 -6.876549e-001  5.795267e-001
      vertex -1.760029e-001 -4.465637e-001  1.249318e+000
    endloop
  endfacet
  facet normal -8.398963e-001 -2.768330e-001  4.668380e-001
    outer loop
      vertex -1.760029e-001 -4.465637e-001  1.249318e+000
      vertex -4.688272e-001 -6.876549e-001  5.795267e-001
      vertex -4.131376e-001 -7.845961e-001  6.222332e-001
    endloop
  endfacet
  facet normal -7.954766e-001 -3.541563e-001  4.917219e-001
    outer loop
      vertex -1.760029e-001 -4.465637e-001  1.249318e+000
      vertex -4.131376e-001 -7.845961e-001  6.222332e-001
      vertex -5.822942e-002 -6.515769e-001  1.292186e+000
    endloop
  endfacet
  facet normal -7.954766e-001 -3.541561e-001  4.917219e-001
    outer loop
      vertex -5.822942e-002 -6.515769e-001  1.292186e+000
      vertex -4.131376e-001 -7.845961e-001  6.222332e-001
      vertex -3.544795e-001 -8.867047e-001  6.435842e-001
    endloop
  endfacet
  facet normal -7.495326e-001 -4.341326e-001  4.997296e-001
    outer loop
      vertex -5.822942e-002 -6.515769e-001  1.292186e+000
      vertex -3.544795e-001 -8.867047e-001  6.435842e-001
      vertex  6.146204e-002 -8.599287e-001  1.290706e+000
    endloop
  endfacet
  facet normal -6.182609e-001 -6.626427e-001  4.226796e-001
    outer loop
      vertex -1.304983e-001 -1.276598e+000  5.121182e-001
      vertex  3.914794e-001 -1.434403e+000  1.028230e+000
      vertex -1.809202e-001 -1.188826e+000  5.759663e-001
    endloop
  endfacet
  facet normal -6.182610e-001 -6.626428e-001  4.226795e-001
    outer loop
      vertex -1.809202e-001 -1.188826e+000  5.759663e-001
      vertex  3.914794e-001 -1.434403e+000  1.028230e+000
      vertex  2.902424e-001 -1.258176e+000  1.156424e+000
    endloop
  endfacet
  facet normal -6.593775e-001 -5.910696e-001  4.646053e-001
    outer loop
      vertex -1.809202e-001 -1.188826e+000  5.759663e-001
      vertex  2.902424e-001 -1.258176e+000  1.156424e+000
      vertex -2.363436e-001 -1.092349e+000  6.200469e-001
    endloop
  endfacet
  facet normal -6.593776e-001 -5.910693e-001  4.646055e-001
    outer loop
      vertex -2.363436e-001 -1.092349e+000  6.200469e-001
      vertex  2.902424e-001 -1.258176e+000  1.156424e+000
      vertex  1.789636e-001 -1.064468e+000  1.244928e+000
    endloop
  endfacet
  facet normal -7.036413e-001 -5.140174e-001  4.905862e-001
    outer loop
      vertex -2.363436e-001 -1.092349e+000  6.200469e-001
      vertex  1.789636e-001 -1.064468e+000  1.244928e+000
      vertex -2.948662e-001 -9.904760e-001  6.428469e-001
    endloop
  endfacet
  facet normal -7.036414e-001 -5.140176e-001  4.905862e-001
    outer loop
      vertex -2.948662e-001 -9.904760e-001  6.428469e-001
      vertex  1.789636e-001 -1.064468e+000  1.244928e+000
      vertex  6.146204e-002 -8.599287e-001  1.290706e+000
    endloop
  endfacet
  facet normal -7.495325e-001 -4.341329e-001  4.997295e-001
    outer loop
      vertex -2.948662e-001 -9.904760e-001  6.428469e-001
      vertex  6.146204e-002 -8.599287e-001  1.290706e+000
      vertex -3.544795e-001 -8.867047e-001  6.435842e-001
    endloop
  endfacet
  facet normal -4.881536e-001  8.678287e-001  9.262548e-002
    outer loop
      vertex  6.825658e-003  7.444079e-001  0.000000e+000
      vertex -6.484375e-001  3.758224e-001  0.000000e+000
      vertex  1.785466e-002  7.252092e-001  2.380014e-001
    endloop
  endfacet
  facet normal -4.881536e-001  8.678287e-001  9.262533e-002
    outer loop
      vertex  1.785466e-002  7.252092e-001  2.380014e-001
      vertex -6.484375e-001  3.758224e-001  0.000000e+000
      vertex -6.373504e-001  3.565226e-001  2.392557e-001
    endloop
  endfacet
  facet normal -4.711318e-001  8.381982e-001  2.746972e-001
    outer loop
      vertex  1.785466e-002  7.252092e-001  2.380014e-001
      vertex -6.373504e-001  3.565226e-001  2.392557e-001
      vertex  5.056315e-002  6.682723e-001  4.678344e-001
    endloop
  endfacet
  facet normal -4.711318e-001  8.381981e-001  2.746973e-001
    outer loop
      vertex  5.056315e-002  6.682723e-001  4.678344e-001
      vertex -6.373504e-001  3.565226e-001  2.392557e-001
      vertex -6.044695e-001  2.992855e-001  4.703001e-001
    endloop
  endfacet
  facet normal -4.376726e-001  7.799543e-001  4.473413e-001
    outer loop
      vertex  5.056315e-002  6.682723e-001  4.678344e-001
      vertex -6.044695e-001  2.992855e-001  4.703001e-001
      vertex  1.038285e-001  5.755510e-001  6.816111e-001
    endloop
  endfacet
  facet normal -4.376725e-001  7.799541e-001  4.473414e-001
    outer loop
      vertex  1.038285e-001  5.755510e-001  6.816111e-001
      vertex -6.044695e-001  2.992855e-001  4.703001e-001
      vertex -5.509233e-001  2.060755e-001  6.852034e-001
    endloop
  endfacet
  facet normal -3.889240e-001  6.950956e-001  6.046324e-001
    outer loop
      vertex  1.038285e-001  5.755510e-001  6.816111e-001
      vertex -5.509233e-001  2.060755e-001  6.852034e-001
      vertex  1.758227e-001  4.502278e-001  8.719944e-001
    endloop
  endfacet
  facet normal -3.889240e-001  6.950957e-001  6.046322e-001
    outer loop
      vertex  1.758227e-001  4.502278e-001  8.719944e-001
      vertex -5.509233e-001  2.060755e-001  6.852034e-001
      vertex -4.785497e-001  8.009181e-002  8.765901e-001
    endloop
  endfacet
  facet normal -3.265593e-001  5.865349e-001  7.411719e-001
    outer loop
      vertex  1.758227e-001  4.502278e-001  8.719944e-001
      vertex -4.785497e-001  8.009181e-002  8.765901e-001
      vertex  2.640749e-001  2.966037e-001  1.032450e+000
    endloop
  endfacet
  facet normal -3.265593e-001  5.865347e-001  7.411721e-001
    outer loop
      vertex  2.640749e-001  2.966037e-001  1.032450e+000
      vertex -4.785497e-001  8.009181e-002  8.765901e-001
      vertex -3.898325e-001 -7.434191e-002  1.037892e+000
    endloop
  endfacet
  facet normal -2.527190e-001  4.579979e-001  8.522741e-001
    outer loop
      vertex  2.640749e-001  2.966037e-001  1.032450e+000
      vertex -3.898325e-001 -7.434191e-002  1.037892e+000
      vertex  3.655560e-001  1.199513e-001  1.157472e+000
    endloop
  endfacet
  facet normal -2.527190e-001  4.579978e-001  8.522741e-001
    outer loop
      vertex  3.655560e-001  1.199513e-001  1.157472e+000
      vertex -3.898325e-001 -7.434191e-002  1.037892e+000
      vertex -2.878165e-001 -2.519253e-001  1.163572e+000
    endloop
  endfacet
  facet normal -1.699369e-001  3.138956e-001  9.341258e-001
    outer loop
      vertex  3.655560e-001  1.199513e-001  1.157472e+000
      vertex -2.878165e-001 -2.519253e-001  1.163572e+000
      vertex  4.767834e-001 -7.366663e-002  1.242768e+000
    endloop
  endfacet
  facet normal -1.699370e-001  3.138961e-001  9.341256e-001
    outer loop
      vertex  4.767834e-001 -7.366663e-002  1.242768e+000
      vertex -2.878165e-001 -2.519253e-001  1.163572e+000
      vertex -1.760029e-001 -4.465637e-001  1.249318e+000
    endloop
  endfacet
  facet normal -8.105474e-002  1.591751e-001  9.839174e-001
    outer loop
      vertex  4.767834e-001 -7.366663e-002  1.242768e+000
      vertex -1.760029e-001 -4.465637e-001  1.249318e+000
      vertex  5.939394e-001 -2.776050e-001  1.285412e+000
    endloop
  endfacet
  facet normal -8.105470e-002  1.591749e-001  9.839174e-001
    outer loop
      vertex  5.939394e-001 -2.776050e-001  1.285412e+000
      vertex -1.760029e-001 -4.465637e-001  1.249318e+000
      vertex -5.822942e-002 -6.515769e-001  1.292186e+000
    endloop
  endfacet
  facet normal  1.087729e-002 -8.548388e-004  9.999405e-001
    outer loop
      vertex  5.939394e-001 -2.776050e-001  1.285412e+000
      vertex -5.822942e-002 -6.515769e-001  1.292186e+000
      vertex  7.130034e-001 -4.848645e-001  1.283940e+000
    endloop
  endfacet
  facet normal  1.087727e-002 -8.547905e-004  9.999405e-001
    outer loop
      vertex  7.130034e-001 -4.848645e-001  1.283940e+000
      vertex -5.822942e-002 -6.515769e-001  1.292186e+000
      vertex  6.146204e-002 -8.599287e-001  1.290706e+000
    endloop
  endfacet
  facet normal  1.027043e-001 -1.607019e-001  9.816450e-001
    outer loop
      vertex  7.130034e-001 -4.848645e-001  1.283940e+000
      vertex  6.146204e-002 -8.599287e-001  1.290706e+000
      vertex  8.298889e-001 -6.883318e-001  1.238402e+000
    endloop
  endfacet
  facet normal  1.027043e-001 -1.607017e-001  9.816450e-001
    outer loop
      vertex  8.298889e-001 -6.883318e-001  1.238402e+000
      vertex  6.146204e-002 -8.599287e-001  1.290706e+000
      vertex  1.789636e-001 -1.064468e+000  1.244928e+000
    endloop
  endfacet
  facet normal  1.912743e-001 -3.148792e-001  9.296587e-001
    outer loop
      vertex  8.298889e-001 -6.883318e-001  1.238402e+000
      vertex  1.789636e-001 -1.064468e+000  1.244928e+000
      vertex  9.405843e-001 -8.810239e-001  1.150361e+000
    endloop
  endfacet
  facet normal  1.912743e-001 -3.148790e-001  9.296587e-001
    outer loop
      vertex  9.405843e-001 -8.810239e-001  1.150361e+000
      vertex  1.789636e-001 -1.064468e+000  1.244928e+000
      vertex  2.902424e-001 -1.258176e+000  1.156424e+000
    endloop
  endfacet
  facet normal  2.735476e-001 -4.580955e-001  8.457661e-001
    outer loop
      vertex  9.405843e-001 -8.810239e-001  1.150361e+000
      vertex  2.902424e-001 -1.258176e+000  1.156424e+000
      vertex  1.041291e+000 -1.056327e+000  1.022839e+000
    endloop
  endfacet
  facet normal  2.735476e-001 -4.580955e-001  8.457661e-001
    outer loop
      vertex  1.041291e+000 -1.056327e+000  1.022839e+000
      vertex  2.902424e-001 -1.258176e+000  1.156424e+000
      vertex  3.914794e-001 -1.434403e+000  1.028230e+000
    endloop
  endfacet
  facet normal  3.467005e-001 -5.854358e-001  7.328463e-001
    outer loop
      vertex  1.041291e+000 -1.056327e+000  1.022839e+000
      vertex  3.914794e-001 -1.434403e+000  1.028230e+000
      vertex  1.128551e+000 -1.208226e+000  8.602124e-001
    endloop
  endfacet
  facet normal  3.467006e-001 -5.854360e-001  7.328461e-001
    outer loop
      vertex  1.128551e+000 -1.208226e+000  8.602124e-001
      vertex  3.914794e-001 -1.434403e+000  1.028230e+000
      vertex  4.792001e-001 -1.587102e+000  8.647461e-001
    endloop
  endfacet
  facet normal  4.082226e-001 -6.925300e-001  5.947742e-001
    outer loop
      vertex  1.128551e+000 -1.208226e+000  8.602124e-001
      vertex  4.792001e-001 -1.587102e+000  8.647461e-001
      vertex  1.199372e+000 -1.331506e+000  6.680630e-001
    endloop
  endfacet
  facet normal  4.082226e-001 -6.925302e-001  5.947741e-001
    outer loop
      vertex  1.199372e+000 -1.331506e+000  6.680630e-001
      vertex  4.792001e-001 -1.587102e+000  8.647461e-001
      vertex  5.503937e-001 -1.711032e+000  6.715840e-001
    endloop
  endfacet
  facet normal  4.560022e-001 -7.757019e-001  4.362895e-001
    outer loop
      vertex  1.199372e+000 -1.331506e+000  6.680630e-001
      vertex  5.503937e-001 -1.711032e+000  6.715840e-001
      vertex  1.251321e+000 -1.421936e+000  4.529852e-001
    endloop
  endfacet
  facet normal  4.560022e-001 -7.757017e-001  4.362898e-001
    outer loop
      vertex  1.251321e+000 -1.421936e+000  4.529852e-001
      vertex  5.503937e-001 -1.711032e+000  6.715840e-001
      vertex  6.026170e-001 -1.801939e+000  4.553726e-001
    endloop
  endfacet
  facet normal  4.883996e-001 -8.320972e-001  2.628314e-001
    outer loop
      vertex  1.251321e+000 -1.421936e+000  4.529852e-001
      vertex  6.026170e-001 -1.801939e+000  4.553726e-001
      vertex  1.282617e+000 -1.476414e+000  2.223607e-001
    endloop
  endfacet
  facet normal  4.883995e-001 -8.320971e-001  2.628312e-001
    outer loop
      vertex  1.282617e+000 -1.476414e+000  2.223607e-001
      vertex  6.026170e-001 -1.801939e+000  4.553726e-001
      vertex  6.340775e-001 -1.856704e+000  2.235326e-001
    endloop
  endfacet
  facet normal  5.043027e-001 -8.597804e-001  8.035214e-002
    outer loop
      vertex  1.282617e+000 -1.476414e+000  2.223607e-001
      vertex  6.340775e-001 -1.856704e+000  2.235326e-001
      vertex  1.292184e+000 -1.493068e+000 -1.589541e-002
    endloop
  endfacet
  facet normal  5.043026e-001 -8.597804e-001  8.035199e-002
    outer loop
      vertex  1.292184e+000 -1.493068e+000 -1.589541e-002
      vertex  6.340775e-001 -1.856704e+000  2.235326e-001
      vertex  6.436955e-001 -1.873446e+000 -1.597918e-002
    endloop
  endfacet
  facet normal  5.792457e-001  7.239934e-001  3.745771e-001
    outer loop
      vertex  2.640749e-001  2.966037e-001  1.032450e+000
      vertex  7.782422e-001  1.498661e-001  5.209612e-001
      vertex  1.758227e-001  4.502278e-001  8.719944e-001
    endloop
  endfacet
  facet normal  5.792457e-001  7.239935e-001  3.745770e-001
    outer loop
      vertex  1.758227e-001  4.502278e-001  8.719944e-001
      vertex  7.782422e-001  1.498661e-001  5.209612e-001
      vertex  7.337112e-001  2.273829e-001  4.399972e-001
    endloop
  endfacet
  facet normal  5.477276e-001  7.788581e-001  3.055722e-001
    outer loop
      vertex  1.758227e-001  4.502278e-001  8.719944e-001
      vertex  7.337112e-001  2.273829e-001  4.399972e-001
      vertex  1.038285e-001  5.755510e-001  6.816111e-001
    endloop
  endfacet
  facet normal  5.477276e-001  7.788582e-001  3.055723e-001
    outer loop
      vertex  1.038285e-001  5.755510e-001  6.816111e-001
      vertex  7.337112e-001  2.273829e-001  4.399972e-001
      vertex  6.973839e-001  2.906193e-001  3.439322e-001
    endloop
  endfacet
  facet normal  5.230907e-001  8.217446e-001  2.260795e-001
    outer loop
      vertex  1.038285e-001  5.755510e-001  6.816111e-001
      vertex  6.973839e-001  2.906193e-001  3.439322e-001
      vertex  5.056315e-002  6.682723e-001  4.678344e-001
    endloop
  endfacet
  facet normal  5.230907e-001  8.217445e-001  2.260796e-001
    outer loop
      vertex  5.056315e-002  6.682723e-001  4.678344e-001
      vertex  6.973839e-001  2.906193e-001  3.439322e-001
      vertex  6.705069e-001  3.374053e-001  2.360632e-001
    endloop
  endfacet
  facet normal  5.061809e-001  8.511801e-001  1.388278e-001
    outer loop
      vertex  5.056315e-002  6.682723e-001  4.678344e-001
      vertex  6.705069e-001  3.374053e-001  2.360632e-001
      vertex  1.785466e-002  7.252092e-001  2.380014e-001
    endloop
  endfacet
  facet normal  5.061809e-001  8.511803e-001  1.388279e-001
    outer loop
      vertex  1.785466e-002  7.252092e-001  2.380014e-001
      vertex  6.705069e-001  3.374053e-001  2.360632e-001
      vertex  6.540026e-001  3.661350e-001  1.200924e-001
    endloop
  endfacet
  facet normal  4.975784e-001  8.661550e-001  4.681156e-002
    outer loop
      vertex  1.785466e-002  7.252092e-001  2.380014e-001
      vertex  6.540026e-001  3.661350e-001  1.200924e-001
      vertex  6.825658e-003  7.444079e-001  0.000000e+000
    endloop
  endfacet
  facet normal  4.975784e-001  8.661549e-001  4.681150e-002
    outer loop
      vertex  6.825658e-003  7.444079e-001  0.000000e+000
      vertex  6.540026e-001  3.661350e-001  1.200924e-001
      vertex  6.484375e-001  3.758224e-001  0.000000e+000
    endloop
  endfacet
  facet normal  9.195012e-001  1.316968e-001  3.703695e-001
    outer loop
      vertex  1.170415e+000 -5.328055e-001  5.161114e-001
      vertex  1.041291e+000 -1.056327e+000  1.022839e+000
      vertex  1.214446e+000 -6.094515e-001  4.340522e-001
    endloop
  endfacet
  facet normal  9.195011e-001  1.316970e-001  3.703696e-001
    outer loop
      vertex  1.214446e+000 -6.094515e-001  4.340522e-001
      vertex  1.041291e+000 -1.056327e+000  1.022839e+000
      vertex  1.128551e+000 -1.208226e+000  8.602124e-001
    endloop
  endfacet
  facet normal  9.505935e-001  7.757336e-002  3.005903e-001
    outer loop
      vertex  1.214446e+000 -6.094515e-001  4.340522e-001
      vertex  1.128551e+000 -1.208226e+000  8.602124e-001
      vertex  1.250181e+000 -6.716570e-001  3.370960e-001
    endloop
  endfacet
  facet normal  9.505935e-001  7.757290e-002  3.005899e-001
    outer loop
      vertex  1.250181e+000 -6.716570e-001  3.370960e-001
      vertex  1.128551e+000 -1.208226e+000  8.602124e-001
      vertex  1.199372e+000 -1.331506e+000  6.680630e-001
    endloop
  endfacet
  facet normal  9.747406e-001  3.553926e-002  2.204944e-001
    outer loop
      vertex  1.250181e+000 -6.716570e-001  3.370960e-001
      vertex  1.199372e+000 -1.331506e+000  6.680630e-001
      vertex  1.276394e+000 -7.172871e-001  2.285705e-001
    endloop
  endfacet
  facet normal  9.747406e-001  3.553924e-002  2.204944e-001
    outer loop
      vertex  1.276394e+000 -7.172871e-001  2.285705e-001
      vertex  1.199372e+000 -1.331506e+000  6.680630e-001
      vertex  1.251321e+000 -1.421936e+000  4.529852e-001
    endloop
  endfacet
  facet normal  9.911138e-001  7.037709e-003  1.328305e-001
    outer loop
      vertex  1.276394e+000 -7.172871e-001  2.285705e-001
      vertex  1.251321e+000 -1.421936e+000  4.529852e-001
      vertex  1.292185e+000 -7.447757e-001  1.122003e-001
    endloop
  endfacet
  facet normal  9.911137e-001  7.037822e-003  1.328308e-001
    outer loop
      vertex  1.292185e+000 -7.447757e-001  1.122003e-001
      vertex  1.251321e+000 -1.421936e+000  4.529852e-001
      vertex  1.282617e+000 -1.476414e+000  2.223607e-001
    endloop
  endfacet
  facet normal  9.991509e-001 -6.952801e-003  4.060913e-002
    outer loop
      vertex  1.292185e+000 -7.447757e-001  1.122003e-001
      vertex  1.282617e+000 -1.476414e+000  2.223607e-001
      vertex  1.297013e+000 -7.531794e-001 -8.020619e-003
    endloop
  endfacet
  facet normal  9.991509e-001 -6.952904e-003  4.060880e-002
    outer loop
      vertex  1.297013e+000 -7.531794e-001 -8.020619e-003
      vertex  1.282617e+000 -1.476414e+000  2.223607e-001
      vertex  1.292184e+000 -1.493068e+000 -1.589541e-002
    endloop
  endfacet
  facet normal  8.825307e-001  1.960527e-001  4.274375e-001
    outer loop
      vertex  1.041291e+000 -1.056327e+000  1.022839e+000
      vertex  1.170415e+000 -5.328055e-001  5.161114e-001
      vertex  9.405843e-001 -8.810239e-001  1.150361e+000
    endloop
  endfacet
  facet normal  8.825310e-001  1.960521e-001  4.274373e-001
    outer loop
      vertex  9.405843e-001 -8.810239e-001  1.150361e+000
      vertex  1.170415e+000 -5.328055e-001  5.161114e-001
      vertex  1.119600e+000 -4.443496e-001  5.804573e-001
    endloop
  endfacet
  facet normal  8.409511e-001  2.684320e-001  4.698356e-001
    outer loop
      vertex  9.405843e-001 -8.810239e-001  1.150361e+000
      vertex  1.119600e+000 -4.443496e-001  5.804573e-001
      vertex  8.298889e-001 -6.883318e-001  1.238402e+000
    endloop
  endfacet
  facet normal  8.409510e-001  2.684323e-001  4.698357e-001
    outer loop
      vertex  8.298889e-001 -6.883318e-001  1.238402e+000
      vertex  1.119600e+000 -4.443496e-001  5.804573e-001
      vertex  1.063745e+000 -3.471197e-001  6.248815e-001
    endloop
  endfacet
  facet normal  7.961891e-001  3.463510e-001  4.961087e-001
    outer loop
      vertex  8.298889e-001 -6.883318e-001  1.238402e+000
      vertex  1.063745e+000 -3.471197e-001  6.248815e-001
      vertex  7.130034e-001 -4.848645e-001  1.283940e+000
    endloop
  endfacet
  facet normal  7.961891e-001  3.463512e-001  4.961087e-001
    outer loop
      vertex  7.130034e-001 -4.848645e-001  1.283940e+000
      vertex  1.063745e+000 -3.471197e-001  6.248815e-001
      vertex  1.004766e+000 -2.444527e-001  6.478594e-001
    endloop
  endfacet
  facet normal  7.497811e-001  4.271354e-001  5.053549e-001
    outer loop
      vertex  7.130034e-001 -4.848645e-001  1.283940e+000
      vertex  1.004766e+000 -2.444527e-001  6.478594e-001
      vertex  5.939394e-001 -2.776050e-001  1.285412e+000
    endloop
  endfacet
  facet normal  6.165637e-001  6.590325e-001  4.307267e-001
    outer loop
      vertex  7.782422e-001  1.498661e-001  5.209612e-001
      vertex  2.640749e-001  2.966037e-001  1.032450e+000
      vertex  8.294482e-001  6.072959e-002  5.840454e-001
    endloop
  endfacet
  facet normal  6.165636e-001  6.590326e-001  4.307265e-001
    outer loop
      vertex  8.294482e-001  6.072959e-002  5.840454e-001
      vertex  2.640749e-001  2.966037e-001  1.032450e+000
      vertex  3.655560e-001  1.199513e-001  1.157472e+000
    endloop
  endfacet
  facet normal  6.584002e-001  5.862059e-001  4.720930e-001
    outer loop
      vertex  8.294482e-001  6.072959e-002  5.840454e-001
      vertex  3.655560e-001  1.199513e-001  1.157472e+000
      vertex  8.855721e-001 -3.696753e-002  6.270849e-001
    endloop
  endfacet
  facet normal  6.584004e-001  5.862055e-001  4.720932e-001
    outer loop
      vertex  8.855721e-001 -3.696753e-002  6.270849e-001
      vertex  3.655560e-001  1.199513e-001  1.157472e+000
      vertex  4.767834e-001 -7.366663e-002  1.242768e+000
    endloop
  endfacet
  facet normal  7.033203e-001  5.080116e-001  4.972573e-001
    outer loop
      vertex  8.855721e-001 -3.696753e-002  6.270849e-001
      vertex  4.767834e-001 -7.366663e-002  1.242768e+000
      vertex  9.446875e-001 -1.398722e-001  6.486024e-001
    endloop
  endfacet
  facet normal  7.033201e-001  5.080120e-001  4.972571e-001
    outer loop
      vertex  9.446875e-001 -1.398722e-001  6.486024e-001
      vertex  4.767834e-001 -7.366663e-002  1.242768e+000
      vertex  5.939394e-001 -2.776050e-001  1.285412e+000
    endloop
  endfacet
  facet normal  7.497811e-001  4.271355e-001  5.053549e-001
    outer loop
      vertex  9.446875e-001 -1.398722e-001  6.486024e-001
      vertex  5.939394e-001 -2.776050e-001  1.285412e+000
      vertex  1.004766e+000 -2.444527e-001  6.478594e-001
    endloop
  endfacet
  facet normal  9.989280e-001  0.000000e+000 -4.629051e-002
    outer loop
      vertex  6.484375e-001 -3.750000e-001  0.000000e+000
      vertex  6.484375e-001  3.758224e-001  0.000000e+000
      vertex  6.540026e-001  3.661350e-001  1.200924e-001
    endloop
  endfacet
  facet normal  9.904212e-001  1.480809e-002 -1.372825e-001
    outer loop
      vertex  6.484375e-001 -3.750000e-001  0.000000e+000
      vertex  6.540026e-001  3.661350e-001  1.200924e-001
      vertex  6.705069e-001  3.374053e-001  2.360632e-001
    endloop
  endfacet
  facet normal  9.736996e-001  4.391610e-002 -2.235631e-001
    outer loop
      vertex  6.484375e-001 -3.750000e-001  0.000000e+000
      vertex  6.705069e-001  3.374053e-001  2.360632e-001
      vertex  6.973839e-001  2.906193e-001  3.439322e-001
    endloop
  endfacet
  facet normal  9.493372e-001  8.632473e-002 -3.021703e-001
    outer loop
      vertex  6.484375e-001 -3.750000e-001  0.000000e+000
      vertex  6.973839e-001  2.906193e-001  3.439322e-001
      vertex  7.337112e-001  2.273829e-001  4.399972e-001
    endloop
  endfacet
  facet normal  9.181697e-001  1.405794e-001 -3.704077e-001
    outer loop
      vertex  6.484375e-001 -3.750000e-001  0.000000e+000
      vertex  7.337112e-001  2.273829e-001  4.399972e-001
      vertex  7.782422e-001  1.498661e-001  5.209612e-001
    endloop
  endfacet
  facet normal  8.812674e-001  2.048166e-001 -4.259318e-001
    outer loop
      vertex  6.484375e-001 -3.750000e-001  0.000000e+000
      vertex  7.782422e-001  1.498661e-001  5.209612e-001
      vertex  8.294482e-001  6.072959e-002  5.840454e-001
    endloop
  endfacet
  facet normal  8.398963e-001  2.768330e-001 -4.668379e-001
    outer loop
      vertex  6.484375e-001 -3.750000e-001  0.000000e+000
      vertex  8.294482e-001  6.072959e-002  5.840454e-001
      vertex  8.855721e-001 -3.696753e-002  6.270849e-001
    endloop
  endfacet
  facet normal  7.954767e-001  3.541562e-001 -4.917218e-001
    outer loop
      vertex  6.484375e-001 -3.750000e-001  0.000000e+000
      vertex  8.855721e-001 -3.696753e-002  6.270849e-001
      vertex  9.446875e-001 -1.398722e-001  6.486024e-001
    endloop
  endfacet
  facet normal  7.495323e-001  4.341331e-001 -4.997295e-001
    outer loop
      vertex  6.484375e-001 -3.750000e-001  0.000000e+000
      vertex  9.446875e-001 -1.398722e-001  6.486024e-001
      vertex  1.004766e+000 -2.444527e-001  6.478594e-001
    endloop
  endfacet
  facet normal  7.036414e-001  5.140175e-001 -4.905862e-001
    outer loop
      vertex  6.484375e-001 -3.750000e-001  0.000000e+000
      vertex  1.004766e+000 -2.444527e-001  6.478594e-001
      vertex  1.063745e+000 -3.471197e-001  6.248815e-001
    endloop
  endfacet
  facet normal  6.593776e-001  5.910693e-001 -4.646056e-001
    outer loop
      vertex  6.484375e-001 -3.750000e-001  0.000000e+000
      vertex  1.063745e+000 -3.471197e-001  6.248815e-001
      vertex  1.119600e+000 -4.443496e-001  5.804573e-001
    endloop
  endfacet
  facet normal  6.182610e-001  6.626425e-001 -4.226797e-001
    outer loop
      vertex  6.484375e-001 -3.750000e-001  0.000000e+000
      vertex  1.119600e+000 -4.443496e-001  5.804573e-001
      vertex  1.170415e+000 -5.328055e-001  5.161114e-001
    endloop
  endfacet
  facet normal  5.817019e-001  7.262825e-001 -3.662466e-001
    outer loop
      vertex  6.484375e-001 -3.750000e-001  0.000000e+000
      vertex  1.170415e+000 -5.328055e-001  5.161114e-001
      vertex  1.214446e+000 -6.094515e-001  4.340522e-001
    endloop
  endfacet
  facet normal  5.509556e-001  7.798038e-001 -2.972437e-001
    outer loop
      vertex  6.484375e-001 -3.750000e-001  0.000000e+000
      vertex  1.214446e+000 -6.094515e-001  4.340522e-001
      vertex  1.250181e+000 -6.716570e-001  3.370960e-001
    endloop
  endfacet
  facet normal  5.270774e-001  8.213696e-001 -2.180398e-001
    outer loop
      vertex  6.484375e-001 -3.750000e-001  0.000000e+000
      vertex  1.250181e+000 -6.716570e-001  3.370960e-001
      vertex  1.276394e+000 -7.172871e-001  2.285705e-001
    endloop
  endfacet
  facet normal  5.108865e-001  8.495536e-001 -1.313526e-001
    outer loop
      vertex  6.484375e-001 -3.750000e-001  0.000000e+000
      vertex  1.276394e+000 -7.172871e-001  2.285705e-001
      vertex  1.292185e+000 -7.447757e-001  1.122003e-001
    endloop
  endfacet
  facet normal  5.029388e-001  8.633887e-001 -4.015622e-002
    outer loop
      vertex  6.484375e-001 -3.750000e-001  0.000000e+000
      vertex  1.292185e+000 -7.447757e-001  1.122003e-001
      vertex  1.297013e+000 -7.531794e-001 -8.020619e-003
    endloop
  endfacet
  facet normal -9.990214e-001  1.599395e-002 -4.123558e-002
    outer loop
      vertex  6.825658e-003 -7.435855e-001  0.000000e+000
      vertex -4.879977e-003 -1.495267e+000 -7.958564e-003
      vertex -9.670323e-003 -1.486928e+000  1.113323e-001
    endloop
  endfacet
  facet normal -9.908602e-001  1.787307e-003 -1.348812e-001
    outer loop
      vertex  6.825658e-003 -7.435855e-001  0.000000e+000
      vertex -9.670323e-003 -1.486928e+000  1.113323e-001
      vertex -2.533950e-002 -1.459652e+000  2.268021e-001
    endloop
  endfacet
  facet normal -9.742342e-001 -2.715399e-002 -2.238977e-001
    outer loop
      vertex  6.825658e-003 -7.435855e-001  0.000000e+000
      vertex -2.533950e-002 -1.459652e+000  2.268021e-001
      vertex -5.134972e-002 -1.414375e+000  3.344879e-001
    endloop
  endfacet
  facet normal -9.497145e-001 -6.983653e-002 -3.052296e-001
    outer loop
      vertex  6.825658e-003 -7.435855e-001  0.000000e+000
      vertex -5.134972e-002 -1.414375e+000  3.344879e-001
      vertex -8.680831e-002 -1.352651e+000  4.306939e-001
    endloop
  endfacet
  facet normal -9.181423e-001 -1.247957e-001 -3.760862e-001
    outer loop
      vertex  6.825658e-003 -7.435855e-001  0.000000e+000
      vertex -8.680831e-002 -1.352651e+000  4.306939e-001
      vertex -1.304983e-001 -1.276598e+000  5.121182e-001
    endloop
  endfacet
  facet normal -8.806012e-001 -1.901449e-001 -4.340350e-001
    outer loop
      vertex  6.825658e-003 -7.435855e-001  0.000000e+000
      vertex -1.304983e-001 -1.276598e+000  5.121182e-001
      vertex -1.809202e-001 -1.188826e+000  5.759663e-001
    endloop
  endfacet
  facet normal -8.383797e-001 -2.636417e-001 -4.770876e-001
    outer loop
      vertex  6.825658e-003 -7.435855e-001  0.000000e+000
      vertex -1.809202e-001 -1.188826e+000  5.759663e-001
      vertex -2.363436e-001 -1.092349e+000  6.200469e-001
    endloop
  endfacet
  facet normal -7.929268e-001 -3.427633e-001 -5.037662e-001
    outer loop
      vertex  6.825658e-003 -7.435855e-001  0.000000e+000
      vertex -2.363436e-001 -1.092349e+000  6.200469e-001
      vertex -2.948662e-001 -9.904760e-001  6.428469e-001
    endloop
  endfacet
  facet normal -7.458028e-001 -4.247941e-001 -5.131551e-001
    outer loop
      vertex  6.825658e-003 -7.435855e-001  0.000000e+000
      vertex -2.948662e-001 -9.904760e-001  6.428469e-001
      vertex -3.544795e-001 -8.867047e-001  6.435842e-001
    endloop
  endfacet
  facet normal -6.986243e-001 -5.069194e-001 -5.049323e-001
    outer loop
      vertex  6.825658e-003 -7.435855e-001  0.000000e+000
      vertex -3.544795e-001 -8.867047e-001  6.435842e-001
      vertex -4.131376e-001 -7.845961e-001  6.222332e-001
    endloop
  endfacet
  facet normal -6.530114e-001 -5.863199e-001 -4.793800e-001
    outer loop
      vertex  6.825658e-003 -7.435855e-001  0.000000e+000
      vertex -4.131376e-001 -7.845961e-001  6.222332e-001
      vertex -4.688272e-001 -6.876549e-001  5.795267e-001
    endloop
  endfacet
  facet normal -6.105286e-001 -6.602713e-001 -4.373747e-001
    outer loop
      vertex  6.825658e-003 -7.435855e-001  0.000000e+000
      vertex -4.688272e-001 -6.876549e-001  5.795267e-001
      vertex -5.196372e-001 -5.992081e-001  5.169305e-001
    endloop
  endfacet
  facet normal -5.726349e-001 -7.262344e-001 -3.803589e-001
    outer loop
      vertex  6.825658e-003 -7.435855e-001  0.000000e+000
      vertex -5.196372e-001 -5.992081e-001  5.169305e-001
      vertex -5.638235e-001 -5.222911e-001  4.365929e-001
    endloop
  endfacet
  facet normal -5.406303e-001 -7.819460e-001 -3.102889e-001
    outer loop
      vertex  6.825658e-003 -7.435855e-001  0.000000e+000
      vertex -5.638235e-001 -5.222911e-001  4.365929e-001
      vertex -5.998698e-001 -4.595438e-001  3.412712e-001
    endloop
  endfacet
  facet normal -5.156132e-001 -8.254944e-001 -2.295692e-001
    outer loop
      vertex  6.825658e-003 -7.435855e-001  0.000000e+000
      vertex -5.998698e-001 -4.595438e-001  3.412712e-001
      vertex -6.265389e-001 -4.131198e-001  2.342368e-001
    endloop
  endfacet
  facet normal -4.984424e-001 -8.553844e-001 -1.409705e-001
    outer loop
      vertex  6.825658e-003 -7.435855e-001  0.000000e+000
      vertex -6.265389e-001 -4.131198e-001  2.342368e-001
      vertex -6.429155e-001 -3.846124e-001  1.191633e-001
    endloop
  endfacet
  facet normal -4.897070e-001 -8.705903e-001 -4.753418e-002
    outer loop
      vertex  6.825658e-003 -7.435855e-001  0.000000e+000
      vertex -6.429155e-001 -3.846124e-001  1.191633e-001
      vertex -6.484375e-001 -3.750000e-001  0.000000e+000
    endloop
  endfacet
endsolid CATIA STL
