solid CATIA STL
  facet normal  0.000000e+000 -1.000000e+000  0.000000e+000
    outer loop
      vertex -5.625000e-001 -4.453125e-001 -5.859375e-001
      vertex  6.187500e-001 -4.453125e-001 -5.859375e-001
      vertex -5.625000e-001 -4.453125e-001  7.187500e-001
    endloop
  endfacet
  facet normal  0.000000e+000 -1.000000e+000  0.000000e+000
    outer loop
      vertex -5.625000e-001 -4.453125e-001  7.187500e-001
      vertex  6.187500e-001 -4.453125e-001 -5.859375e-001
      vertex  6.187500e-001 -4.453125e-001  7.187500e-001
    endloop
  endfacet
  facet normal -1.000000e+000  0.000000e+000  0.000000e+000
    outer loop
      vertex -5.625000e-001  0.000000e+000 -5.859375e-001
      vertex -5.625000e-001 -4.453125e-001 -5.859375e-001
      vertex -5.625000e-001  1.483189e-016  7.500000e-001
    endloop
  endfacet
  facet normal -9.999999e-001  0.000000e+000  0.000000e+000
    outer loop
      vertex -5.625000e-001  1.483189e-016  7.500000e-001
      vertex -5.625000e-001 -4.453125e-001 -5.859375e-001
      vertex -5.625000e-001 -4.453125e-001  7.187500e-001
    endloop
  endfacet
  facet normal -1.000000e+000  0.000000e+000  0.000000e+000
    outer loop
      vertex -5.625000e-001  1.483189e-016  7.500000e-001
      vertex -5.625000e-001 -4.453125e-001  7.187500e-001
      vertex -5.625000e-001 -3.515625e-001  7.500000e-001
    endloop
  endfacet
  facet normal  0.000000e+000  0.000000e+000  9.999999e-001
    outer loop
      vertex  6.187500e-001 -3.515625e-001  7.500000e-001
      vertex  6.187500e-001  2.794640e-016  7.500000e-001
      vertex -5.625000e-001 -3.515625e-001  7.500000e-001
    endloop
  endfacet
  facet normal  0.000000e+000  0.000000e+000  9.999999e-001
    outer loop
      vertex -5.625000e-001 -3.515625e-001  7.500000e-001
      vertex  6.187500e-001  2.794640e-016  7.500000e-001
      vertex -5.625000e-001  1.483189e-016  7.500000e-001
    endloop
  endfacet
  facet normal  9.999999e-001  0.000000e+000  0.000000e+000
    outer loop
      vertex  6.187500e-001 -4.453125e-001 -5.859375e-001
      vertex  6.187500e-001  1.311451e-016 -5.859375e-001
      vertex  6.187500e-001 -4.453125e-001  7.187500e-001
    endloop
  endfacet
  facet normal  1.000000e+000  -0.000000e+000  0.000000e+000
    outer loop
      vertex  6.187500e-001 -4.453125e-001  7.187500e-001
      vertex  6.187500e-001  1.311451e-016 -5.859375e-001
      vertex  6.187500e-001  2.794640e-016  7.500000e-001
    endloop
  endfacet
  facet normal  1.000000e+000  0.000000e+000  0.000000e+000
    outer loop
      vertex  6.187500e-001 -4.453125e-001  7.187500e-001
      vertex  6.187500e-001  2.794640e-016  7.500000e-001
      vertex  6.187500e-001 -3.515625e-001  7.500000e-001
    endloop
  endfacet
  facet normal  0.000000e+000 -3.162278e-001  9.486833e-001
    outer loop
      vertex -5.625000e-001 -4.453125e-001  7.187500e-001
      vertex  6.187500e-001 -4.453125e-001  7.187500e-001
      vertex -5.625000e-001 -3.515625e-001  7.500000e-001
    endloop
  endfacet
  facet normal  0.000000e+000 -3.162278e-001  9.486833e-001
    outer loop
      vertex -5.625000e-001 -3.515625e-001  7.500000e-001
      vertex  6.187500e-001 -4.453125e-001  7.187500e-001
      vertex  6.187500e-001 -3.515625e-001  7.500000e-001
    endloop
  endfacet
  facet normal -1.110223e-016  9.999999e-001 -1.110223e-016
    outer loop
      vertex -5.625000e-001  0.000000e+000 -5.859375e-001
      vertex -5.625000e-001  1.483189e-016  7.500000e-001
      vertex  6.187500e-001  1.311451e-016 -5.859375e-001
    endloop
  endfacet
  facet normal -1.110223e-016  9.999999e-001 -1.110223e-016
    outer loop
      vertex  6.187500e-001  1.311451e-016 -5.859375e-001
      vertex -5.625000e-001  1.483189e-016  7.500000e-001
      vertex  6.187500e-001  2.794640e-016  7.500000e-001
    endloop
  endfacet
  facet normal  0.000000e+000  0.000000e+000 -1.000000e+000
    outer loop
      vertex -5.625000e-001 -4.453125e-001 -5.859375e-001
      vertex -5.625000e-001  0.000000e+000 -5.859375e-001
      vertex  6.187500e-001 -4.453125e-001 -5.859375e-001
    endloop
  endfacet
  facet normal  0.000000e+000  0.000000e+000 -1.000000e+000
    outer loop
      vertex  6.187500e-001 -4.453125e-001 -5.859375e-001
      vertex -5.625000e-001  0.000000e+000 -5.859375e-001
      vertex  6.187500e-001  1.311451e-016 -5.859375e-001
    endloop
  endfacet
endsolid CATIA STL
