solid CATIA STL
  facet normal  0.000000e+000 -1.000000e+000  0.000000e+000
    outer loop
      vertex -3.515625e-001 -7.500000e-001 -3.750000e-001
      vertex  3.750000e-001 -7.500000e-001 -3.750000e-001
      vertex -3.515625e-001 -7.500000e-001 -1.855263e-001
    endloop
  endfacet
  facet normal  0.000000e+000 -1.000000e+000  0.000000e+000
    outer loop
      vertex -3.515625e-001 -7.500000e-001 -1.855263e-001
      vertex  3.750000e-001 -7.500000e-001 -3.750000e-001
      vertex  3.750000e-001 -7.500000e-001 -1.855263e-001
    endloop
  endfacet
  facet normal -1.000000e+000  0.000000e+000  0.000000e+000
    outer loop
      vertex -3.750000e-001  1.051790e-017 -1.855263e-001
      vertex -3.750000e-001  0.000000e+000 -3.750000e-001
      vertex -3.750000e-001 -7.265625e-001 -1.855263e-001
    endloop
  endfacet
  facet normal -1.000000e+000  0.000000e+000  0.000000e+000
    outer loop
      vertex -3.750000e-001 -7.265625e-001 -1.855263e-001
      vertex -3.750000e-001  0.000000e+000 -3.750000e-001
      vertex -3.750000e-001 -7.265625e-001 -3.750000e-001
    endloop
  endfacet
  facet normal  0.000000e+000  0.000000e+000  1.000000e+000
    outer loop
      vertex -3.515625e-001 -7.500000e-001 -1.855263e-001
      vertex -3.605316e-001 -7.482159e-001 -1.855263e-001
      vertex -3.561349e-001 -7.495496e-001 -1.855263e-001
    endloop
  endfacet
  facet normal  0.000000e+000  0.000000e+000  1.000000e+000
    outer loop
      vertex  3.750000e-001 -7.500000e-001 -1.855263e-001
      vertex  3.750000e-001  5.215127e-017 -1.855263e-001
      vertex -3.750000e-001  1.051790e-017 -1.855263e-001
    endloop
  endfacet
  facet normal  0.000000e+000  0.000000e+000  1.000000e+000
    outer loop
      vertex  3.750000e-001 -7.500000e-001 -1.855263e-001
      vertex -3.750000e-001  1.051790e-017 -1.855263e-001
      vertex -3.750000e-001 -7.265625e-001 -1.855263e-001
    endloop
  endfacet
  facet normal  0.000000e+000  0.000000e+000  1.000000e+000
    outer loop
      vertex  3.750000e-001 -7.500000e-001 -1.855263e-001
      vertex -3.750000e-001 -7.265625e-001 -1.855263e-001
      vertex -3.745497e-001 -7.311350e-001 -1.855263e-001
    endloop
  endfacet
  facet normal  0.000000e+000  0.000000e+000  1.000000e+000
    outer loop
      vertex  3.750000e-001 -7.500000e-001 -1.855263e-001
      vertex -3.745497e-001 -7.311350e-001 -1.855263e-001
      vertex -3.732159e-001 -7.355316e-001 -1.855263e-001
    endloop
  endfacet
  facet normal  0.000000e+000  0.000000e+000  1.000000e+000
    outer loop
      vertex  3.750000e-001 -7.500000e-001 -1.855263e-001
      vertex -3.732159e-001 -7.355316e-001 -1.855263e-001
      vertex -3.710501e-001 -7.395837e-001 -1.855263e-001
    endloop
  endfacet
  facet normal  0.000000e+000  0.000000e+000  1.000000e+000
    outer loop
      vertex  3.750000e-001 -7.500000e-001 -1.855263e-001
      vertex -3.710501e-001 -7.395837e-001 -1.855263e-001
      vertex -3.681353e-001 -7.431353e-001 -1.855263e-001
    endloop
  endfacet
  facet normal  0.000000e+000  0.000000e+000  1.000000e+000
    outer loop
      vertex  3.750000e-001 -7.500000e-001 -1.855263e-001
      vertex -3.681353e-001 -7.431353e-001 -1.855263e-001
      vertex -3.645837e-001 -7.460501e-001 -1.855263e-001
    endloop
  endfacet
  facet normal  0.000000e+000  0.000000e+000  1.000000e+000
    outer loop
      vertex  3.750000e-001 -7.500000e-001 -1.855263e-001
      vertex -3.645837e-001 -7.460501e-001 -1.855263e-001
      vertex -3.605316e-001 -7.482159e-001 -1.855263e-001
    endloop
  endfacet
  facet normal  0.000000e+000  0.000000e+000  1.000000e+000
    outer loop
      vertex  3.750000e-001 -7.500000e-001 -1.855263e-001
      vertex -3.605316e-001 -7.482159e-001 -1.855263e-001
      vertex -3.515625e-001 -7.500000e-001 -1.855263e-001
    endloop
  endfacet
  facet normal  0.000000e+000  0.000000e+000 -1.000000e+000
    outer loop
      vertex -3.515625e-001 -7.500000e-001 -3.750000e-001
      vertex -3.561349e-001 -7.495496e-001 -3.750000e-001
      vertex -3.605316e-001 -7.482159e-001 -3.750000e-001
    endloop
  endfacet
  facet normal  0.000000e+000  0.000000e+000 -1.000000e+000
    outer loop
      vertex  3.750000e-001 -7.500000e-001 -3.750000e-001
      vertex -3.515625e-001 -7.500000e-001 -3.750000e-001
      vertex -3.605316e-001 -7.482159e-001 -3.750000e-001
    endloop
  endfacet
  facet normal  0.000000e+000  0.000000e+000 -1.000000e+000
    outer loop
      vertex  3.750000e-001 -7.500000e-001 -3.750000e-001
      vertex -3.605316e-001 -7.482159e-001 -3.750000e-001
      vertex -3.645837e-001 -7.460501e-001 -3.750000e-001
    endloop
  endfacet
  facet normal  0.000000e+000  0.000000e+000 -1.000000e+000
    outer loop
      vertex  3.750000e-001 -7.500000e-001 -3.750000e-001
      vertex -3.645837e-001 -7.460501e-001 -3.750000e-001
      vertex -3.681353e-001 -7.431353e-001 -3.750000e-001
    endloop
  endfacet
  facet normal  0.000000e+000  0.000000e+000 -1.000000e+000
    outer loop
      vertex  3.750000e-001 -7.500000e-001 -3.750000e-001
      vertex -3.681353e-001 -7.431353e-001 -3.750000e-001
      vertex -3.710501e-001 -7.395837e-001 -3.750000e-001
    endloop
  endfacet
  facet normal  0.000000e+000  0.000000e+000 -1.000000e+000
    outer loop
      vertex  3.750000e-001 -7.500000e-001 -3.750000e-001
      vertex -3.710501e-001 -7.395837e-001 -3.750000e-001
      vertex -3.732159e-001 -7.355316e-001 -3.750000e-001
    endloop
  endfacet
  facet normal  0.000000e+000  0.000000e+000 -1.000000e+000
    outer loop
      vertex  3.750000e-001 -7.500000e-001 -3.750000e-001
      vertex -3.732159e-001 -7.355316e-001 -3.750000e-001
      vertex -3.745497e-001 -7.311350e-001 -3.750000e-001
    endloop
  endfacet
  facet normal  0.000000e+000  0.000000e+000 -1.000000e+000
    outer loop
      vertex  3.750000e-001 -7.500000e-001 -3.750000e-001
      vertex -3.745497e-001 -7.311350e-001 -3.750000e-001
      vertex -3.750000e-001 -7.265625e-001 -3.750000e-001
    endloop
  endfacet
  facet normal  0.000000e+000  0.000000e+000 -1.000000e+000
    outer loop
      vertex  3.750000e-001 -7.500000e-001 -3.750000e-001
      vertex -3.750000e-001 -7.265625e-001 -3.750000e-001
      vertex -3.750000e-001  0.000000e+000 -3.750000e-001
    endloop
  endfacet
  facet normal  0.000000e+000  0.000000e+000 -1.000000e+000
    outer loop
      vertex  3.750000e-001 -7.500000e-001 -3.750000e-001
      vertex -3.750000e-001  0.000000e+000 -3.750000e-001
      vertex  3.750000e-001  4.163336e-017 -3.750000e-001
    endloop
  endfacet
  facet normal -9.951848e-001 -9.801623e-002  0.000000e+000
    outer loop
      vertex -3.750000e-001 -7.265625e-001 -1.855263e-001
      vertex -3.750000e-001 -7.265625e-001 -3.750000e-001
      vertex -3.745497e-001 -7.311350e-001 -1.855263e-001
    endloop
  endfacet
  facet normal -9.951848e-001 -9.801623e-002  -0.000000e+000
    outer loop
      vertex -3.745497e-001 -7.311350e-001 -1.855263e-001
      vertex -3.750000e-001 -7.265625e-001 -3.750000e-001
      vertex -3.745497e-001 -7.311350e-001 -3.750000e-001
    endloop
  endfacet
  facet normal -9.569388e-001 -2.902898e-001  0.000000e+000
    outer loop
      vertex -3.745497e-001 -7.311350e-001 -1.855263e-001
      vertex -3.745497e-001 -7.311350e-001 -3.750000e-001
      vertex -3.732159e-001 -7.355316e-001 -1.855263e-001
    endloop
  endfacet
  facet normal -9.569388e-001 -2.902898e-001  -0.000000e+000
    outer loop
      vertex -3.732159e-001 -7.355316e-001 -1.855263e-001
      vertex -3.745497e-001 -7.311350e-001 -3.750000e-001
      vertex -3.732159e-001 -7.355316e-001 -3.750000e-001
    endloop
  endfacet
  facet normal -8.819220e-001 -4.713953e-001  0.000000e+000
    outer loop
      vertex -3.732159e-001 -7.355316e-001 -1.855263e-001
      vertex -3.732159e-001 -7.355316e-001 -3.750000e-001
      vertex -3.710501e-001 -7.395837e-001 -1.855263e-001
    endloop
  endfacet
  facet normal -8.819220e-001 -4.713953e-001  -0.000000e+000
    outer loop
      vertex -3.710501e-001 -7.395837e-001 -1.855263e-001
      vertex -3.732159e-001 -7.355316e-001 -3.750000e-001
      vertex -3.710501e-001 -7.395837e-001 -3.750000e-001
    endloop
  endfacet
  facet normal -7.730123e-001 -6.343911e-001  0.000000e+000
    outer loop
      vertex -3.710501e-001 -7.395837e-001 -1.855263e-001
      vertex -3.710501e-001 -7.395837e-001 -3.750000e-001
      vertex -3.681353e-001 -7.431353e-001 -1.855263e-001
    endloop
  endfacet
  facet normal -7.730123e-001 -6.343911e-001  -0.000000e+000
    outer loop
      vertex -3.681353e-001 -7.431353e-001 -1.855263e-001
      vertex -3.710501e-001 -7.395837e-001 -3.750000e-001
      vertex -3.681353e-001 -7.431353e-001 -3.750000e-001
    endloop
  endfacet
  facet normal -6.343904e-001 -7.730128e-001  0.000000e+000
    outer loop
      vertex -3.681353e-001 -7.431353e-001 -1.855263e-001
      vertex -3.681353e-001 -7.431353e-001 -3.750000e-001
      vertex -3.645837e-001 -7.460501e-001 -1.855263e-001
    endloop
  endfacet
  facet normal -6.343904e-001 -7.730128e-001  -0.000000e+000
    outer loop
      vertex -3.645837e-001 -7.460501e-001 -1.855263e-001
      vertex -3.681353e-001 -7.431353e-001 -3.750000e-001
      vertex -3.645837e-001 -7.460501e-001 -3.750000e-001
    endloop
  endfacet
  facet normal -4.713953e-001 -8.819220e-001  0.000000e+000
    outer loop
      vertex -3.645837e-001 -7.460501e-001 -1.855263e-001
      vertex -3.645837e-001 -7.460501e-001 -3.750000e-001
      vertex -3.605316e-001 -7.482159e-001 -1.855263e-001
    endloop
  endfacet
  facet normal -4.713953e-001 -8.819220e-001  -0.000000e+000
    outer loop
      vertex -3.605316e-001 -7.482159e-001 -1.855263e-001
      vertex -3.645837e-001 -7.460501e-001 -3.750000e-001
      vertex -3.605316e-001 -7.482159e-001 -3.750000e-001
    endloop
  endfacet
  facet normal -2.902821e-001 -9.569411e-001  0.000000e+000
    outer loop
      vertex -3.605316e-001 -7.482159e-001 -1.855263e-001
      vertex -3.605316e-001 -7.482159e-001 -3.750000e-001
      vertex -3.561349e-001 -7.495496e-001 -1.855263e-001
    endloop
  endfacet
  facet normal -2.902821e-001 -9.569411e-001  -0.000000e+000
    outer loop
      vertex -3.561349e-001 -7.495496e-001 -1.855263e-001
      vertex -3.605316e-001 -7.482159e-001 -3.750000e-001
      vertex -3.561349e-001 -7.495496e-001 -3.750000e-001
    endloop
  endfacet
  facet normal -9.802329e-002 -9.951841e-001  0.000000e+000
    outer loop
      vertex -3.561349e-001 -7.495496e-001 -1.855263e-001
      vertex -3.561349e-001 -7.495496e-001 -3.750000e-001
      vertex -3.515625e-001 -7.500000e-001 -1.855263e-001
    endloop
  endfacet
  facet normal -9.802329e-002 -9.951841e-001  -0.000000e+000
    outer loop
      vertex -3.515625e-001 -7.500000e-001 -1.855263e-001
      vertex -3.561349e-001 -7.495496e-001 -3.750000e-001
      vertex -3.515625e-001 -7.500000e-001 -3.750000e-001
    endloop
  endfacet
  facet normal -5.551115e-017  1.000000e+000 -5.551115e-017
    outer loop
      vertex -3.750000e-001  0.000000e+000 -3.750000e-001
      vertex -3.750000e-001  1.051790e-017 -1.855263e-001
      vertex  3.750000e-001  4.163336e-017 -3.750000e-001
    endloop
  endfacet
  facet normal -5.551115e-017  1.000000e+000 -5.551115e-017
    outer loop
      vertex  3.750000e-001  4.163336e-017 -3.750000e-001
      vertex -3.750000e-001  1.051790e-017 -1.855263e-001
      vertex  3.750000e-001  5.215127e-017 -1.855263e-001
    endloop
  endfacet
  facet normal  1.000000e+000  0.000000e+000  0.000000e+000
    outer loop
      vertex  3.750000e-001  4.163336e-017 -3.750000e-001
      vertex  3.750000e-001  5.215127e-017 -1.855263e-001
      vertex  3.750000e-001 -7.500000e-001 -3.750000e-001
    endloop
  endfacet
  facet normal  1.000000e+000  0.000000e+000  0.000000e+000
    outer loop
      vertex  3.750000e-001 -7.500000e-001 -3.750000e-001
      vertex  3.750000e-001  5.215127e-017 -1.855263e-001
      vertex  3.750000e-001 -7.500000e-001 -1.855263e-001
    endloop
  endfacet
  facet normal  9.951847e-001  0.000000e+000 -9.801749e-002
    outer loop
      vertex  9.868421e-002 -7.812500e-003  9.671053e-002
      vertex  9.868421e-002 -1.796875e-001  9.671053e-002
      vertex  9.686387e-002 -7.812500e-003  7.822829e-002
    endloop
  endfacet
  facet normal  9.951847e-001  0.000000e+000 -9.801749e-002
    outer loop
      vertex  9.686387e-002 -7.812500e-003  7.822829e-002
      vertex  9.868421e-002 -1.796875e-001  9.671053e-002
      vertex  9.686387e-002 -1.796875e-001  7.822829e-002
    endloop
  endfacet
  facet normal  9.569404e-001  0.000000e+000 -2.902845e-001
    outer loop
      vertex  9.686387e-002 -7.812500e-003  7.822829e-002
      vertex  9.686387e-002 -1.796875e-001  7.822829e-002
      vertex  9.147280e-002 -7.812500e-003  6.045631e-002
    endloop
  endfacet
  facet normal  9.569404e-001  0.000000e+000 -2.902845e-001
    outer loop
      vertex  9.147280e-002 -7.812500e-003  6.045631e-002
      vertex  9.686387e-002 -1.796875e-001  7.822829e-002
      vertex  9.147280e-002 -1.796875e-001  6.045631e-002
    endloop
  endfacet
  facet normal  8.819212e-001  0.000000e+000 -4.713968e-001
    outer loop
      vertex  9.147280e-002 -7.812500e-003  6.045631e-002
      vertex  9.147280e-002 -1.796875e-001  6.045631e-002
      vertex  8.271817e-002 -7.812500e-003  4.407756e-002
    endloop
  endfacet
  facet normal  8.819212e-001  0.000000e+000 -4.713968e-001
    outer loop
      vertex  8.271817e-002 -7.812500e-003  4.407756e-002
      vertex  9.147280e-002 -1.796875e-001  6.045631e-002
      vertex  8.271817e-002 -1.796875e-001  4.407756e-002
    endloop
  endfacet
  facet normal  7.730106e-001  0.000000e+000 -6.343932e-001
    outer loop
      vertex  8.271817e-002 -7.812500e-003  4.407756e-002
      vertex  8.271817e-002 -1.796875e-001  4.407756e-002
      vertex  7.093643e-002 -7.812500e-003  2.972146e-002
    endloop
  endfacet
  facet normal  7.730106e-001  0.000000e+000 -6.343932e-001
    outer loop
      vertex  7.093643e-002 -7.812500e-003  2.972146e-002
      vertex  8.271817e-002 -1.796875e-001  4.407756e-002
      vertex  7.093643e-002 -1.796875e-001  2.972146e-002
    endloop
  endfacet
  facet normal  6.343932e-001  0.000000e+000 -7.730104e-001
    outer loop
      vertex  7.093643e-002 -7.812500e-003  2.972146e-002
      vertex  7.093643e-002 -1.796875e-001  2.972146e-002
      vertex  5.658034e-002 -7.812500e-003  1.793972e-002
    endloop
  endfacet
  facet normal  6.343932e-001  0.000000e+000 -7.730104e-001
    outer loop
      vertex  5.658034e-002 -7.812500e-003  1.793972e-002
      vertex  7.093643e-002 -1.796875e-001  2.972146e-002
      vertex  5.658034e-002 -1.796875e-001  1.793972e-002
    endloop
  endfacet
  facet normal  4.713967e-001  0.000000e+000 -8.819214e-001
    outer loop
      vertex  5.658034e-002 -7.812500e-003  1.793972e-002
      vertex  5.658034e-002 -1.796875e-001  1.793972e-002
      vertex  4.020159e-002 -7.812500e-003  9.185097e-003
    endloop
  endfacet
  facet normal  4.713967e-001  0.000000e+000 -8.819214e-001
    outer loop
      vertex  4.020159e-002 -7.812500e-003  9.185097e-003
      vertex  5.658034e-002 -1.796875e-001  1.793972e-002
      vertex  4.020159e-002 -1.796875e-001  9.185097e-003
    endloop
  endfacet
  facet normal  2.902847e-001  0.000000e+000 -9.569404e-001
    outer loop
      vertex  4.020159e-002 -7.812500e-003  9.185097e-003
      vertex  4.020159e-002 -1.796875e-001  9.185097e-003
      vertex  2.242961e-002 -7.812500e-003  3.794026e-003
    endloop
  endfacet
  facet normal  2.902847e-001  0.000000e+000 -9.569404e-001
    outer loop
      vertex  2.242961e-002 -7.812500e-003  3.794026e-003
      vertex  4.020159e-002 -1.796875e-001  9.185097e-003
      vertex  2.242961e-002 -1.796875e-001  3.794026e-003
    endloop
  endfacet
  facet normal  9.801714e-002  0.000000e+000 -9.951848e-001
    outer loop
      vertex  2.242961e-002 -7.812500e-003  3.794026e-003
      vertex  2.242961e-002 -1.796875e-001  3.794026e-003
      vertex  3.947368e-003 -7.812500e-003  1.973684e-003
    endloop
  endfacet
  facet normal  9.801714e-002  0.000000e+000 -9.951848e-001
    outer loop
      vertex  3.947368e-003 -7.812500e-003  1.973684e-003
      vertex  2.242961e-002 -1.796875e-001  3.794026e-003
      vertex  3.947368e-003 -1.796875e-001  1.973684e-003
    endloop
  endfacet
  facet normal -9.801714e-002  0.000000e+000 -9.951848e-001
    outer loop
      vertex  3.947368e-003 -7.812500e-003  1.973684e-003
      vertex  3.947368e-003 -1.796875e-001  1.973684e-003
      vertex -1.453487e-002 -7.812500e-003  3.794026e-003
    endloop
  endfacet
  facet normal -9.801714e-002  -0.000000e+000 -9.951848e-001
    outer loop
      vertex -1.453487e-002 -7.812500e-003  3.794026e-003
      vertex  3.947368e-003 -1.796875e-001  1.973684e-003
      vertex -1.453487e-002 -1.796875e-001  3.794026e-003
    endloop
  endfacet
  facet normal -2.902847e-001  0.000000e+000 -9.569404e-001
    outer loop
      vertex -1.453487e-002 -7.812500e-003  3.794026e-003
      vertex -1.453487e-002 -1.796875e-001  3.794026e-003
      vertex -3.230685e-002 -7.812500e-003  9.185097e-003
    endloop
  endfacet
  facet normal -2.902847e-001  -0.000000e+000 -9.569404e-001
    outer loop
      vertex -3.230685e-002 -7.812500e-003  9.185097e-003
      vertex -1.453487e-002 -1.796875e-001  3.794026e-003
      vertex -3.230685e-002 -1.796875e-001  9.185097e-003
    endloop
  endfacet
  facet normal -4.713966e-001  0.000000e+000 -8.819213e-001
    outer loop
      vertex -3.230685e-002 -7.812500e-003  9.185097e-003
      vertex -3.230685e-002 -1.796875e-001  9.185097e-003
      vertex -4.868560e-002 -7.812500e-003  1.793972e-002
    endloop
  endfacet
  facet normal -4.713966e-001  -0.000000e+000 -8.819213e-001
    outer loop
      vertex -4.868560e-002 -7.812500e-003  1.793972e-002
      vertex -3.230685e-002 -1.796875e-001  9.185097e-003
      vertex -4.868560e-002 -1.796875e-001  1.793972e-002
    endloop
  endfacet
  facet normal -6.343934e-001  0.000000e+000 -7.730104e-001
    outer loop
      vertex -4.868560e-002 -7.812500e-003  1.793972e-002
      vertex -4.868560e-002 -1.796875e-001  1.793972e-002
      vertex -6.304169e-002 -7.812500e-003  2.972146e-002
    endloop
  endfacet
  facet normal -6.343934e-001  -0.000000e+000 -7.730104e-001
    outer loop
      vertex -6.304169e-002 -7.812500e-003  2.972146e-002
      vertex -4.868560e-002 -1.796875e-001  1.793972e-002
      vertex -6.304169e-002 -1.796875e-001  2.972146e-002
    endloop
  endfacet
  facet normal -7.730104e-001  0.000000e+000 -6.343934e-001
    outer loop
      vertex -6.304169e-002 -7.812500e-003  2.972146e-002
      vertex -6.304169e-002 -1.796875e-001  2.972146e-002
      vertex -7.482344e-002 -7.812500e-003  4.407756e-002
    endloop
  endfacet
  facet normal -7.730104e-001  -0.000000e+000 -6.343934e-001
    outer loop
      vertex -7.482344e-002 -7.812500e-003  4.407756e-002
      vertex -6.304169e-002 -1.796875e-001  2.972146e-002
      vertex -7.482344e-002 -1.796875e-001  4.407756e-002
    endloop
  endfacet
  facet normal -8.819214e-001  0.000000e+000 -4.713965e-001
    outer loop
      vertex -7.482344e-002 -7.812500e-003  4.407756e-002
      vertex -7.482344e-002 -1.796875e-001  4.407756e-002
      vertex -8.357806e-002 -7.812500e-003  6.045631e-002
    endloop
  endfacet
  facet normal -8.819214e-001  -0.000000e+000 -4.713965e-001
    outer loop
      vertex -8.357806e-002 -7.812500e-003  6.045631e-002
      vertex -7.482344e-002 -1.796875e-001  4.407756e-002
      vertex -8.357806e-002 -1.796875e-001  6.045631e-002
    endloop
  endfacet
  facet normal -9.569402e-001  0.000000e+000 -2.902849e-001
    outer loop
      vertex -8.357806e-002 -7.812500e-003  6.045631e-002
      vertex -8.357806e-002 -1.796875e-001  6.045631e-002
      vertex -8.896913e-002 -7.812500e-003  7.822829e-002
    endloop
  endfacet
  facet normal -9.569402e-001  -0.000000e+000 -2.902849e-001
    outer loop
      vertex -8.896913e-002 -7.812500e-003  7.822829e-002
      vertex -8.357806e-002 -1.796875e-001  6.045631e-002
      vertex -8.896913e-002 -1.796875e-001  7.822829e-002
    endloop
  endfacet
  facet normal -9.951847e-001  0.000000e+000 -9.801710e-002
    outer loop
      vertex -8.896913e-002 -7.812500e-003  7.822829e-002
      vertex -8.896913e-002 -1.796875e-001  7.822829e-002
      vertex -9.078947e-002 -7.812500e-003  9.671053e-002
    endloop
  endfacet
  facet normal -9.951847e-001  -0.000000e+000 -9.801710e-002
    outer loop
      vertex -9.078947e-002 -7.812500e-003  9.671053e-002
      vertex -8.896913e-002 -1.796875e-001  7.822829e-002
      vertex -9.078947e-002 -1.796875e-001  9.671053e-002
    endloop
  endfacet
  facet normal -9.951848e-001  0.000000e+000  9.801706e-002
    outer loop
      vertex -9.078947e-002 -7.812500e-003  9.671053e-002
      vertex -9.078947e-002 -1.796875e-001  9.671053e-002
      vertex -8.896913e-002 -7.812500e-003  1.151928e-001
    endloop
  endfacet
  facet normal -9.951848e-001  0.000000e+000  9.801706e-002
    outer loop
      vertex -8.896913e-002 -7.812500e-003  1.151928e-001
      vertex -9.078947e-002 -1.796875e-001  9.671053e-002
      vertex -8.896913e-002 -1.796875e-001  1.151928e-001
    endloop
  endfacet
  facet normal -9.569402e-001  0.000000e+000  2.902850e-001
    outer loop
      vertex -8.896913e-002 -7.812500e-003  1.151928e-001
      vertex -8.896913e-002 -1.796875e-001  1.151928e-001
      vertex -8.357806e-002 -7.812500e-003  1.329647e-001
    endloop
  endfacet
  facet normal -9.569402e-001  0.000000e+000  2.902850e-001
    outer loop
      vertex -8.357806e-002 -7.812500e-003  1.329647e-001
      vertex -8.896913e-002 -1.796875e-001  1.151928e-001
      vertex -8.357806e-002 -1.796875e-001  1.329647e-001
    endloop
  endfacet
  facet normal -8.819214e-001  0.000000e+000  4.713966e-001
    outer loop
      vertex -8.357806e-002 -7.812500e-003  1.329647e-001
      vertex -8.357806e-002 -1.796875e-001  1.329647e-001
      vertex -7.482344e-002 -7.812500e-003  1.493435e-001
    endloop
  endfacet
  facet normal -8.819214e-001  0.000000e+000  4.713966e-001
    outer loop
      vertex -7.482344e-002 -7.812500e-003  1.493435e-001
      vertex -8.357806e-002 -1.796875e-001  1.329647e-001
      vertex -7.482344e-002 -1.796875e-001  1.493435e-001
    endloop
  endfacet
  facet normal -7.730107e-001  0.000000e+000  6.343930e-001
    outer loop
      vertex -7.482344e-002 -7.812500e-003  1.493435e-001
      vertex -7.482344e-002 -1.796875e-001  1.493435e-001
      vertex -6.304169e-002 -7.812500e-003  1.636996e-001
    endloop
  endfacet
  facet normal -7.730107e-001  0.000000e+000  6.343930e-001
    outer loop
      vertex -6.304169e-002 -7.812500e-003  1.636996e-001
      vertex -7.482344e-002 -1.796875e-001  1.493435e-001
      vertex -6.304169e-002 -1.796875e-001  1.636996e-001
    endloop
  endfacet
  facet normal -6.343932e-001  0.000000e+000  7.730106e-001
    outer loop
      vertex -6.304169e-002 -7.812500e-003  1.636996e-001
      vertex -6.304169e-002 -1.796875e-001  1.636996e-001
      vertex -4.868560e-002 -7.812500e-003  1.754813e-001
    endloop
  endfacet
  facet normal -6.343932e-001  0.000000e+000  7.730106e-001
    outer loop
      vertex -4.868560e-002 -7.812500e-003  1.754813e-001
      vertex -6.304169e-002 -1.796875e-001  1.636996e-001
      vertex -4.868560e-002 -1.796875e-001  1.754813e-001
    endloop
  endfacet
  facet normal -4.713967e-001  0.000000e+000  8.819212e-001
    outer loop
      vertex -4.868560e-002 -7.812500e-003  1.754813e-001
      vertex -4.868560e-002 -1.796875e-001  1.754813e-001
      vertex -3.230685e-002 -7.812500e-003  1.842360e-001
    endloop
  endfacet
  facet normal -4.713967e-001  0.000000e+000  8.819212e-001
    outer loop
      vertex -3.230685e-002 -7.812500e-003  1.842360e-001
      vertex -4.868560e-002 -1.796875e-001  1.754813e-001
      vertex -3.230685e-002 -1.796875e-001  1.842360e-001
    endloop
  endfacet
  facet normal -2.902842e-001  0.000000e+000  9.569405e-001
    outer loop
      vertex -3.230685e-002 -7.812500e-003  1.842360e-001
      vertex -3.230685e-002 -1.796875e-001  1.842360e-001
      vertex -1.453487e-002 -7.812500e-003  1.896270e-001
    endloop
  endfacet
  facet normal -2.902842e-001  0.000000e+000  9.569405e-001
    outer loop
      vertex -1.453487e-002 -7.812500e-003  1.896270e-001
      vertex -3.230685e-002 -1.796875e-001  1.842360e-001
      vertex -1.453487e-002 -1.796875e-001  1.896270e-001
    endloop
  endfacet
  facet normal -9.801708e-002  0.000000e+000  9.951848e-001
    outer loop
      vertex -1.453487e-002 -7.812500e-003  1.896270e-001
      vertex -1.453487e-002 -1.796875e-001  1.896270e-001
      vertex  3.947368e-003 -7.812500e-003  1.914474e-001
    endloop
  endfacet
  facet normal -9.801708e-002  0.000000e+000  9.951848e-001
    outer loop
      vertex  3.947368e-003 -7.812500e-003  1.914474e-001
      vertex -1.453487e-002 -1.796875e-001  1.896270e-001
      vertex  3.947368e-003 -1.796875e-001  1.914474e-001
    endloop
  endfacet
  facet normal  9.801708e-002  -0.000000e+000  9.951848e-001
    outer loop
      vertex  3.947368e-003 -7.812500e-003  1.914474e-001
      vertex  3.947368e-003 -1.796875e-001  1.914474e-001
      vertex  2.242961e-002 -7.812500e-003  1.896270e-001
    endloop
  endfacet
  facet normal  9.801708e-002  0.000000e+000  9.951848e-001
    outer loop
      vertex  2.242961e-002 -7.812500e-003  1.896270e-001
      vertex  3.947368e-003 -1.796875e-001  1.914474e-001
      vertex  2.242961e-002 -1.796875e-001  1.896270e-001
    endloop
  endfacet
  facet normal  2.902842e-001  -0.000000e+000  9.569404e-001
    outer loop
      vertex  2.242961e-002 -7.812500e-003  1.896270e-001
      vertex  2.242961e-002 -1.796875e-001  1.896270e-001
      vertex  4.020159e-002 -7.812500e-003  1.842360e-001
    endloop
  endfacet
  facet normal  2.902842e-001  0.000000e+000  9.569404e-001
    outer loop
      vertex  4.020159e-002 -7.812500e-003  1.842360e-001
      vertex  2.242961e-002 -1.796875e-001  1.896270e-001
      vertex  4.020159e-002 -1.796875e-001  1.842360e-001
    endloop
  endfacet
  facet normal  4.713968e-001  -0.000000e+000  8.819212e-001
    outer loop
      vertex  4.020159e-002 -7.812500e-003  1.842360e-001
      vertex  4.020159e-002 -1.796875e-001  1.842360e-001
      vertex  5.658034e-002 -7.812500e-003  1.754813e-001
    endloop
  endfacet
  facet normal  4.713968e-001  0.000000e+000  8.819212e-001
    outer loop
      vertex  5.658034e-002 -7.812500e-003  1.754813e-001
      vertex  4.020159e-002 -1.796875e-001  1.842360e-001
      vertex  5.658034e-002 -1.796875e-001  1.754813e-001
    endloop
  endfacet
  facet normal  6.343931e-001  -0.000000e+000  7.730106e-001
    outer loop
      vertex  5.658034e-002 -7.812500e-003  1.754813e-001
      vertex  5.658034e-002 -1.796875e-001  1.754813e-001
      vertex  7.093643e-002 -7.812500e-003  1.636996e-001
    endloop
  endfacet
  facet normal  6.343931e-001  0.000000e+000  7.730106e-001
    outer loop
      vertex  7.093643e-002 -7.812500e-003  1.636996e-001
      vertex  5.658034e-002 -1.796875e-001  1.754813e-001
      vertex  7.093643e-002 -1.796875e-001  1.636996e-001
    endloop
  endfacet
  facet normal  7.730108e-001  -0.000000e+000  6.343927e-001
    outer loop
      vertex  7.093643e-002 -7.812500e-003  1.636996e-001
      vertex  7.093643e-002 -1.796875e-001  1.636996e-001
      vertex  8.271817e-002 -7.812500e-003  1.493435e-001
    endloop
  endfacet
  facet normal  7.730108e-001  0.000000e+000  6.343927e-001
    outer loop
      vertex  8.271817e-002 -7.812500e-003  1.493435e-001
      vertex  7.093643e-002 -1.796875e-001  1.636996e-001
      vertex  8.271817e-002 -1.796875e-001  1.493435e-001
    endloop
  endfacet
  facet normal  8.819212e-001  -0.000000e+000  4.713969e-001
    outer loop
      vertex  8.271817e-002 -7.812500e-003  1.493435e-001
      vertex  8.271817e-002 -1.796875e-001  1.493435e-001
      vertex  9.147280e-002 -7.812500e-003  1.329647e-001
    endloop
  endfacet
  facet normal  8.819212e-001  0.000000e+000  4.713969e-001
    outer loop
      vertex  9.147280e-002 -7.812500e-003  1.329647e-001
      vertex  8.271817e-002 -1.796875e-001  1.493435e-001
      vertex  9.147280e-002 -1.796875e-001  1.329647e-001
    endloop
  endfacet
  facet normal  9.569404e-001  -0.000000e+000  2.902846e-001
    outer loop
      vertex  9.147280e-002 -7.812500e-003  1.329647e-001
      vertex  9.147280e-002 -1.796875e-001  1.329647e-001
      vertex  9.686387e-002 -7.812500e-003  1.151928e-001
    endloop
  endfacet
  facet normal  9.569404e-001  0.000000e+000  2.902846e-001
    outer loop
      vertex  9.686387e-002 -7.812500e-003  1.151928e-001
      vertex  9.147280e-002 -1.796875e-001  1.329647e-001
      vertex  9.686387e-002 -1.796875e-001  1.151928e-001
    endloop
  endfacet
  facet normal  9.951848e-001  -0.000000e+000  9.801746e-002
    outer loop
      vertex  9.686387e-002 -7.812500e-003  1.151928e-001
      vertex  9.686387e-002 -1.796875e-001  1.151928e-001
      vertex  9.868421e-002 -7.812500e-003  9.671053e-002
    endloop
  endfacet
  facet normal  9.951848e-001  0.000000e+000  9.801746e-002
    outer loop
      vertex  9.868421e-002 -7.812500e-003  9.671053e-002
      vertex  9.686387e-002 -1.796875e-001  1.151928e-001
      vertex  9.868421e-002 -1.796875e-001  9.671053e-002
    endloop
  endfacet
  facet normal  0.000000e+000 -1.000000e+000  0.000000e+000
    outer loop
      vertex -1.148574e-002 -1.875000e-001  1.743024e-001
      vertex  1.938198e-002 -1.875000e-001  1.743021e-001
      vertex  3.948137e-003 -1.875000e-001  1.758224e-001
    endloop
  endfacet
  facet normal  0.000000e+000 -1.000000e+000  -0.000000e+000
    outer loop
      vertex  1.938198e-002 -1.875000e-001  1.743021e-001
      vertex -1.148574e-002 -1.875000e-001  1.743024e-001
      vertex -2.632654e-002 -1.875000e-001  1.698007e-001
    endloop
  endfacet
  facet normal  0.000000e+000 -1.000000e+000  0.000000e+000
    outer loop
      vertex  1.938198e-002 -1.875000e-001  1.743021e-001
      vertex -2.632654e-002 -1.875000e-001  1.698007e-001
      vertex  3.422269e-002 -1.875000e-001  1.698001e-001
    endloop
  endfacet
  facet normal  0.000000e+000 -1.000000e+000  -0.000000e+000
    outer loop
      vertex  3.422269e-002 -1.875000e-001  1.698001e-001
      vertex -2.632654e-002 -1.875000e-001  1.698007e-001
      vertex -4.000394e-002 -1.875000e-001  1.624902e-001
    endloop
  endfacet
  facet normal  0.000000e+000 -1.000000e+000  0.000000e+000
    outer loop
      vertex  3.422269e-002 -1.875000e-001  1.698001e-001
      vertex -4.000394e-002 -1.875000e-001  1.624902e-001
      vertex  4.789995e-002 -1.875000e-001  1.624894e-001
    endloop
  endfacet
  facet normal  0.000000e+000 -1.000000e+000  -0.000000e+000
    outer loop
      vertex  4.789995e-002 -1.875000e-001  1.624894e-001
      vertex -4.000394e-002 -1.875000e-001  1.624902e-001
      vertex -5.199234e-002 -1.875000e-001  1.526519e-001
    endloop
  endfacet
  facet normal  0.000000e+000 -1.000000e+000  0.000000e+000
    outer loop
      vertex  4.789995e-002 -1.875000e-001  1.624894e-001
      vertex -5.199234e-002 -1.875000e-001  1.526519e-001
      vertex  5.988816e-002 -1.875000e-001  1.526508e-001
    endloop
  endfacet
  facet normal  0.000000e+000 -1.000000e+000  0.000000e+000
    outer loop
      vertex  6.241154e-002 -1.875000e-001  4.341302e-002
      vertex -4.372883e-002 -1.875000e-001  3.357841e-002
      vertex  5.162263e-002 -1.875000e-001  3.357771e-002
    endloop
  endfacet
  facet normal  0.000000e+000 -1.000000e+000  0.000000e+000
    outer loop
      vertex  5.162263e-002 -1.875000e-001  3.357771e-002
      vertex -4.372883e-002 -1.875000e-001  3.357841e-002
      vertex -3.131650e-002 -1.875000e-001  2.589285e-002
    endloop
  endfacet
  facet normal  0.000000e+000 -1.000000e+000  0.000000e+000
    outer loop
      vertex  5.162263e-002 -1.875000e-001  3.357771e-002
      vertex -3.131650e-002 -1.875000e-001  2.589285e-002
      vertex  3.921018e-002 -1.875000e-001  2.589232e-002
    endloop
  endfacet
  facet normal  0.000000e+000 -1.000000e+000  0.000000e+000
    outer loop
      vertex  3.921018e-002 -1.875000e-001  2.589232e-002
      vertex -3.131650e-002 -1.875000e-001  2.589285e-002
      vertex -1.770328e-002 -1.875000e-001  2.061892e-002
    endloop
  endfacet
  facet normal  0.000000e+000 -1.000000e+000  0.000000e+000
    outer loop
      vertex  3.921018e-002 -1.875000e-001  2.589232e-002
      vertex -1.770328e-002 -1.875000e-001  2.061892e-002
      vertex  2.559689e-002 -1.875000e-001  2.061860e-002
    endloop
  endfacet
  facet normal  0.000000e+000 -1.000000e+000  0.000000e+000
    outer loop
      vertex  2.559689e-002 -1.875000e-001  2.061860e-002
      vertex -1.770328e-002 -1.875000e-001  2.061892e-002
      vertex -3.352772e-003 -1.875000e-001  1.793622e-002
    endloop
  endfacet
  facet normal  0.000000e+000 -1.000000e+000  0.000000e+000
    outer loop
      vertex  2.559689e-002 -1.875000e-001  2.061860e-002
      vertex -3.352772e-003 -1.875000e-001  1.793622e-002
      vertex  1.124634e-002 -1.875000e-001  1.793611e-002
    endloop
  endfacet
  facet normal  0.000000e+000 -1.000000e+000  0.000000e+000
    outer loop
      vertex  5.988816e-002 -1.875000e-001  1.526508e-001
      vertex -5.199234e-002 -1.875000e-001  1.526519e-001
      vertex  6.972662e-002 -1.875000e-001  1.406625e-001
    endloop
  endfacet
  facet normal  0.000000e+000 -1.000000e+000  0.000000e+000
    outer loop
      vertex  6.972662e-002 -1.875000e-001  1.406625e-001
      vertex -5.199234e-002 -1.875000e-001  1.526519e-001
      vertex -6.183103e-002 -1.875000e-001  1.406637e-001
    endloop
  endfacet
  facet normal  0.000000e+000 -1.000000e+000  0.000000e+000
    outer loop
      vertex  6.972662e-002 -1.875000e-001  1.406625e-001
      vertex -6.183103e-002 -1.875000e-001  1.406637e-001
      vertex  7.703725e-002 -1.875000e-001  1.269851e-001
    endloop
  endfacet
  facet normal  0.000000e+000 -1.000000e+000  0.000000e+000
    outer loop
      vertex  7.703725e-002 -1.875000e-001  1.269851e-001
      vertex -6.183103e-002 -1.875000e-001  1.406637e-001
      vertex -6.914193e-002 -1.875000e-001  1.269866e-001
    endloop
  endfacet
  facet normal  0.000000e+000 -1.000000e+000  0.000000e+000
    outer loop
      vertex  7.703725e-002 -1.875000e-001  1.269851e-001
      vertex -6.914193e-002 -1.875000e-001  1.269866e-001
      vertex  8.153912e-002 -1.875000e-001  1.121444e-001
    endloop
  endfacet
  facet normal  0.000000e+000 -1.000000e+000  0.000000e+000
    outer loop
      vertex  8.153912e-002 -1.875000e-001  1.121444e-001
      vertex -6.914193e-002 -1.875000e-001  1.269866e-001
      vertex -7.364408e-002 -1.875000e-001  1.121459e-001
    endloop
  endfacet
  facet normal  0.000000e+000 -1.000000e+000  0.000000e+000
    outer loop
      vertex  8.153912e-002 -1.875000e-001  1.121444e-001
      vertex -7.364408e-002 -1.875000e-001  1.121459e-001
      vertex  8.305921e-002 -1.875000e-001  9.671053e-002
    endloop
  endfacet
  facet normal  0.000000e+000 -1.000000e+000  0.000000e+000
    outer loop
      vertex  8.305921e-002 -1.875000e-001  9.671053e-002
      vertex -7.364408e-002 -1.875000e-001  1.121459e-001
      vertex -7.516447e-002 -1.875000e-001  9.671206e-002
    endloop
  endfacet
  facet normal  0.000000e+000 -1.000000e+000  0.000000e+000
    outer loop
      vertex  8.305921e-002 -1.875000e-001  9.671053e-002
      vertex -7.516447e-002 -1.875000e-001  9.671206e-002
      vertex  8.171217e-002 -1.875000e-001  8.217370e-002
    endloop
  endfacet
  facet normal  0.000000e+000 -1.000000e+000  0.000000e+000
    outer loop
      vertex  8.171217e-002 -1.875000e-001  8.217370e-002
      vertex -7.516447e-002 -1.875000e-001  9.671206e-002
      vertex -7.381765e-002 -1.875000e-001  8.217485e-002
    endloop
  endfacet
  facet normal  0.000000e+000 -1.000000e+000  0.000000e+000
    outer loop
      vertex  8.171217e-002 -1.875000e-001  8.217370e-002
      vertex -7.381765e-002 -1.875000e-001  8.217485e-002
      vertex  7.771692e-002 -1.875000e-001  6.813190e-002
    endloop
  endfacet
  facet normal  0.000000e+000 -1.000000e+000  0.000000e+000
    outer loop
      vertex  7.771692e-002 -1.875000e-001  6.813190e-002
      vertex -7.381765e-002 -1.875000e-001  8.217485e-002
      vertex -6.982260e-002 -1.875000e-001  6.813300e-002
    endloop
  endfacet
  facet normal  0.000000e+000 -9.999999e-001  0.000000e+000
    outer loop
      vertex  7.771692e-002 -1.875000e-001  6.813190e-002
      vertex -6.982260e-002 -1.875000e-001  6.813300e-002
      vertex  7.120951e-002 -1.875000e-001  5.506333e-002
    endloop
  endfacet
  facet normal  0.000000e+000 -1.000000e+000  0.000000e+000
    outer loop
      vertex  7.120951e-002 -1.875000e-001  5.506333e-002
      vertex -6.982260e-002 -1.875000e-001  6.813300e-002
      vertex -6.331538e-002 -1.875000e-001  5.506433e-002
    endloop
  endfacet
  facet normal  0.000000e+000 -1.000000e+000  0.000000e+000
    outer loop
      vertex  7.120951e-002 -1.875000e-001  5.506333e-002
      vertex -6.331538e-002 -1.875000e-001  5.506433e-002
      vertex  6.241154e-002 -1.875000e-001  4.341302e-002
    endloop
  endfacet
  facet normal  0.000000e+000 -1.000000e+000  0.000000e+000
    outer loop
      vertex  6.241154e-002 -1.875000e-001  4.341302e-002
      vertex -6.331538e-002 -1.875000e-001  5.506433e-002
      vertex -5.451759e-002 -1.875000e-001  4.341389e-002
    endloop
  endfacet
  facet normal  0.000000e+000 -1.000000e+000  0.000000e+000
    outer loop
      vertex  6.241154e-002 -1.875000e-001  4.341302e-002
      vertex -5.451759e-002 -1.875000e-001  4.341389e-002
      vertex -4.372883e-002 -1.875000e-001  3.357841e-002
    endloop
  endfacet
  facet normal -4.296081e-001 -8.935623e-001  1.303204e-001
    outer loop
      vertex -6.914193e-002 -1.875000e-001  1.269866e-001
      vertex -8.357806e-002 -1.796875e-001  1.329647e-001
      vertex -8.896913e-002 -1.796875e-001  1.151928e-001
    endloop
  endfacet
  facet normal  4.296115e-001 -8.935605e-001  1.303205e-001
    outer loop
      vertex  7.703725e-002 -1.875000e-001  1.269851e-001
      vertex  8.153912e-002 -1.875000e-001  1.121444e-001
      vertex  9.147280e-002 -1.796875e-001  1.329647e-001
    endloop
  endfacet
  facet normal  3.959312e-001 -8.935611e-001  2.116297e-001
    outer loop
      vertex  7.703725e-002 -1.875000e-001  1.269851e-001
      vertex  9.147280e-002 -1.796875e-001  1.329647e-001
      vertex  8.271817e-002 -1.796875e-001  1.493435e-001
    endloop
  endfacet
  facet normal  2.996882e-001 -9.217900e-001  2.459474e-001
    outer loop
      vertex  7.703725e-002 -1.875000e-001  1.269851e-001
      vertex  8.271817e-002 -1.796875e-001  1.493435e-001
      vertex  7.093643e-002 -1.796875e-001  1.636996e-001
    endloop
  endfacet
  facet normal  4.832555e-001 -8.365068e-001  2.583032e-001
    outer loop
      vertex  6.972662e-002 -1.875000e-001  1.406625e-001
      vertex  7.703725e-002 -1.875000e-001  1.269851e-001
      vertex  7.093643e-002 -1.796875e-001  1.636996e-001
    endloop
  endfacet
  facet normal  3.470388e-001 -8.935604e-001  2.848051e-001
    outer loop
      vertex  5.988816e-002 -1.875000e-001  1.526508e-001
      vertex  6.972662e-002 -1.875000e-001  1.406625e-001
      vertex  7.093643e-002 -1.796875e-001  1.636996e-001
    endloop
  endfacet
  facet normal  2.848051e-001 -8.935612e-001  3.470362e-001
    outer loop
      vertex  5.988816e-002 -1.875000e-001  1.526508e-001
      vertex  7.093643e-002 -1.796875e-001  1.636996e-001
      vertex  5.658034e-002 -1.796875e-001  1.754813e-001
    endloop
  endfacet
  facet normal  1.827550e-001 -9.217905e-001  3.419105e-001
    outer loop
      vertex  5.988816e-002 -1.875000e-001  1.526508e-001
      vertex  5.658034e-002 -1.796875e-001  1.754813e-001
      vertex  4.020159e-002 -1.796875e-001  1.842360e-001
    endloop
  endfacet
  facet normal  3.476236e-001 -8.365055e-001  4.235756e-001
    outer loop
      vertex  4.789995e-002 -1.875000e-001  1.624894e-001
      vertex  5.988816e-002 -1.875000e-001  1.526508e-001
      vertex  4.020159e-002 -1.796875e-001  1.842360e-001
    endloop
  endfacet
  facet normal  2.116331e-001 -8.935601e-001  3.959315e-001
    outer loop
      vertex  3.422269e-002 -1.875000e-001  1.698001e-001
      vertex  4.789995e-002 -1.875000e-001  1.624894e-001
      vertex  4.020159e-002 -1.796875e-001  1.842360e-001
    endloop
  endfacet
  facet normal  1.303204e-001 -8.935615e-001  4.296096e-001
    outer loop
      vertex  3.422269e-002 -1.875000e-001  1.698001e-001
      vertex  4.020159e-002 -1.796875e-001  1.842360e-001
      vertex  2.242961e-002 -1.796875e-001  1.896270e-001
    endloop
  endfacet
  facet normal  3.799999e-002 -9.217909e-001  3.858206e-001
    outer loop
      vertex  3.422269e-002 -1.875000e-001  1.698001e-001
      vertex  2.242961e-002 -1.796875e-001  1.896270e-001
      vertex  3.947368e-003 -1.796875e-001  1.914474e-001
    endloop
  endfacet
  facet normal  1.590690e-001 -8.365039e-001  5.243648e-001
    outer loop
      vertex  1.938198e-002 -1.875000e-001  1.743021e-001
      vertex  3.422269e-002 -1.875000e-001  1.698001e-001
      vertex  3.947368e-003 -1.796875e-001  1.914474e-001
    endloop
  endfacet
  facet normal  4.400796e-002 -8.935598e-001  4.467820e-001
    outer loop
      vertex  3.948137e-003 -1.875000e-001  1.758224e-001
      vertex  1.938198e-002 -1.875000e-001  1.743021e-001
      vertex  3.947368e-003 -1.796875e-001  1.914474e-001
    endloop
  endfacet
  facet normal -4.400383e-002 -8.935617e-001  4.467787e-001
    outer loop
      vertex  3.948137e-003 -1.875000e-001  1.758224e-001
      vertex  3.947368e-003 -1.796875e-001  1.914474e-001
      vertex -1.453487e-002 -1.796875e-001  1.896270e-001
    endloop
  endfacet
  facet normal -1.125393e-001 -9.217913e-001  3.709929e-001
    outer loop
      vertex  3.948137e-003 -1.875000e-001  1.758224e-001
      vertex -1.453487e-002 -1.796875e-001  1.896270e-001
      vertex -3.230685e-002 -1.796875e-001  1.842360e-001
    endloop
  endfacet
  facet normal -5.370380e-002 -8.365026e-001  5.453251e-001
    outer loop
      vertex -1.148574e-002 -1.875000e-001  1.743024e-001
      vertex  3.948137e-003 -1.875000e-001  1.758224e-001
      vertex -3.230685e-002 -1.796875e-001  1.842360e-001
    endloop
  endfacet
  facet normal -1.303170e-001 -8.935597e-001  4.296145e-001
    outer loop
      vertex -2.632654e-002 -1.875000e-001  1.698007e-001
      vertex -1.148574e-002 -1.875000e-001  1.743024e-001
      vertex -3.230685e-002 -1.796875e-001  1.842360e-001
    endloop
  endfacet
  facet normal -2.116287e-001 -8.935620e-001  3.959295e-001
    outer loop
      vertex -2.632654e-002 -1.875000e-001  1.698007e-001
      vertex -3.230685e-002 -1.796875e-001  1.842360e-001
      vertex -4.868560e-002 -1.796875e-001  1.754813e-001
    endloop
  endfacet
  facet normal -2.459449e-001 -9.217918e-001  2.996848e-001
    outer loop
      vertex -2.632654e-002 -1.875000e-001  1.698007e-001
      vertex -4.868560e-002 -1.796875e-001  1.754813e-001
      vertex -6.304169e-002 -1.796875e-001  1.636996e-001
    endloop
  endfacet
  facet normal -2.583025e-001 -8.365015e-001  4.832651e-001
    outer loop
      vertex -4.000394e-002 -1.875000e-001  1.624902e-001
      vertex -2.632654e-002 -1.875000e-001  1.698007e-001
      vertex -6.304169e-002 -1.796875e-001  1.636996e-001
    endloop
  endfacet
  facet normal -2.848029e-001 -8.935593e-001  3.470434e-001
    outer loop
      vertex -5.199234e-002 -1.875000e-001  1.526519e-001
      vertex -4.000394e-002 -1.875000e-001  1.624902e-001
      vertex -6.304169e-002 -1.796875e-001  1.636996e-001
    endloop
  endfacet
  facet normal -3.470351e-001 -8.935621e-001  2.848041e-001
    outer loop
      vertex -5.199234e-002 -1.875000e-001  1.526519e-001
      vertex -6.304169e-002 -1.796875e-001  1.636996e-001
      vertex -7.482344e-002 -1.796875e-001  1.493435e-001
    endloop
  endfacet
  facet normal -3.419071e-001 -9.217922e-001  1.827531e-001
    outer loop
      vertex -5.199234e-002 -1.875000e-001  1.526519e-001
      vertex -7.482344e-002 -1.796875e-001  1.493435e-001
      vertex -8.357806e-002 -1.796875e-001  1.329647e-001
    endloop
  endfacet
  facet normal -4.235789e-001 -8.365002e-001  3.476327e-001
    outer loop
      vertex -6.183103e-002 -1.875000e-001  1.406637e-001
      vertex -5.199234e-002 -1.875000e-001  1.526519e-001
      vertex -8.357806e-002 -1.796875e-001  1.329647e-001
    endloop
  endfacet
  facet normal -3.959315e-001 -8.935589e-001  2.116383e-001
    outer loop
      vertex -6.914193e-002 -1.875000e-001  1.269866e-001
      vertex -6.183103e-002 -1.875000e-001  1.406637e-001
      vertex -8.357806e-002 -1.796875e-001  1.329647e-001
    endloop
  endfacet
  facet normal  4.467804e-001 -8.935608e-001  4.400417e-002
    outer loop
      vertex  8.305921e-002 -1.875000e-001  9.671053e-002
      vertex  9.868421e-002 -1.796875e-001  9.671053e-002
      vertex  9.686387e-002 -1.796875e-001  1.151928e-001
    endloop
  endfacet
  facet normal  3.709966e-001 -9.217896e-001  1.125406e-001
    outer loop
      vertex  8.305921e-002 -1.875000e-001  9.671053e-002
      vertex  9.686387e-002 -1.796875e-001  1.151928e-001
      vertex  9.147280e-002 -1.796875e-001  1.329647e-001
    endloop
  endfacet
  facet normal  5.453154e-001 -8.365085e-001  5.370868e-002
    outer loop
      vertex  8.305921e-002 -1.875000e-001  9.671053e-002
      vertex  9.147280e-002 -1.796875e-001  1.329647e-001
      vertex  8.153912e-002 -1.875000e-001  1.121444e-001
    endloop
  endfacet
  facet normal -4.467837e-001 -8.935587e-001  4.401290e-002
    outer loop
      vertex -9.078947e-002 -1.796875e-001  9.671053e-002
      vertex -7.516447e-002 -1.875000e-001  9.671206e-002
      vertex -7.364408e-002 -1.875000e-001  1.121459e-001
    endloop
  endfacet
  facet normal -5.243707e-001 -8.364988e-001  1.590760e-001
    outer loop
      vertex -9.078947e-002 -1.796875e-001  9.671053e-002
      vertex -7.364408e-002 -1.875000e-001  1.121459e-001
      vertex -6.914193e-002 -1.875000e-001  1.269866e-001
    endloop
  endfacet
  facet normal -3.858166e-001 -9.217926e-001  3.799959e-002
    outer loop
      vertex -9.078947e-002 -1.796875e-001  9.671053e-002
      vertex -6.914193e-002 -1.875000e-001  1.269866e-001
      vertex -8.896913e-002 -1.796875e-001  1.151928e-001
    endloop
  endfacet
  facet normal -3.414845e-001 -8.971337e-001 -2.802491e-001
    outer loop
      vertex -7.482344e-002 -1.796875e-001  4.407756e-002
      vertex -6.304169e-002 -1.796875e-001  2.972146e-002
      vertex -6.331538e-002 -1.875000e-001  5.506433e-002
    endloop
  endfacet
  facet normal -4.004786e-001 -8.909518e-001 -2.140602e-001
    outer loop
      vertex -6.331538e-002 -1.875000e-001  5.506433e-002
      vertex -8.357806e-002 -1.796875e-001  6.045631e-002
      vertex -7.482344e-002 -1.796875e-001  4.407756e-002
    endloop
  endfacet
  facet normal -3.980847e-001 -8.956779e-001 -1.982163e-001
    outer loop
      vertex -6.982260e-002 -1.875000e-001  6.813300e-002
      vertex -8.357806e-002 -1.796875e-001  6.045631e-002
      vertex -6.331538e-002 -1.875000e-001  5.506433e-002
    endloop
  endfacet
  facet normal -2.054986e-001 -8.999777e-001 -3.844610e-001
    outer loop
      vertex -4.868560e-002 -1.796875e-001  1.793972e-002
      vertex -3.230685e-002 -1.796875e-001  9.185097e-003
      vertex -4.372883e-002 -1.875000e-001  3.357841e-002
    endloop
  endfacet
  facet normal -2.894987e-001 -8.898058e-001 -3.527551e-001
    outer loop
      vertex -4.372883e-002 -1.875000e-001  3.357841e-002
      vertex -6.304169e-002 -1.796875e-001  2.972146e-002
      vertex -4.868560e-002 -1.796875e-001  1.793972e-002
    endloop
  endfacet
  facet normal -2.976805e-001 -8.970857e-001 -3.265327e-001
    outer loop
      vertex -5.451759e-002 -1.875000e-001  4.341389e-002
      vertex -6.304169e-002 -1.796875e-001  2.972146e-002
      vertex -4.372883e-002 -1.875000e-001  3.357841e-002
    endloop
  endfacet
  facet normal -4.208426e-002 -9.031354e-001 -4.272887e-001
    outer loop
      vertex -1.453487e-002 -1.796875e-001  3.794026e-003
      vertex  3.947368e-003 -1.796875e-001  1.973684e-003
      vertex -1.770328e-002 -1.875000e-001  2.061892e-002
    endloop
  endfacet
  facet normal -1.328323e-001 -8.891617e-001 -4.378895e-001
    outer loop
      vertex -1.770328e-002 -1.875000e-001  2.061892e-002
      vertex -3.230685e-002 -1.796875e-001  9.185097e-003
      vertex -1.453487e-002 -1.796875e-001  3.794026e-003
    endloop
  endfacet
  facet normal -1.590091e-001 -8.979177e-001 -4.104386e-001
    outer loop
      vertex -3.131650e-002 -1.875000e-001  2.589285e-002
      vertex -3.230685e-002 -1.796875e-001  9.185097e-003
      vertex -1.770328e-002 -1.875000e-001  2.061892e-002
    endloop
  endfacet
  facet normal  1.225264e-001 -9.065537e-001 -4.039153e-001
    outer loop
      vertex  2.242961e-002 -1.796875e-001  3.794026e-003
      vertex  4.020159e-002 -1.796875e-001  9.185097e-003
      vertex  1.124634e-002 -1.875000e-001  1.793611e-002
    endloop
  endfacet
  facet normal  4.487661e-002 -8.890323e-001 -4.556399e-001
    outer loop
      vertex  1.124634e-002 -1.875000e-001  1.793611e-002
      vertex  3.947368e-003 -1.796875e-001  1.973684e-003
      vertex  2.242961e-002 -1.796875e-001  3.794026e-003
    endloop
  endfacet
  facet normal -3.253052e-006 -8.981928e-001 -4.396016e-001
    outer loop
      vertex -3.352772e-003 -1.875000e-001  1.793622e-002
      vertex  3.947368e-003 -1.796875e-001  1.973684e-003
      vertex  1.124634e-002 -1.875000e-001  1.793611e-002
    endloop
  endfacet
  facet normal  2.627741e-001 -9.101799e-001 -3.201911e-001
    outer loop
      vertex  5.658034e-002 -1.796875e-001  1.793972e-002
      vertex  7.093643e-002 -1.796875e-001  2.972146e-002
      vertex  3.921018e-002 -1.875000e-001  2.589232e-002
    endloop
  endfacet
  facet normal  2.154708e-001 -8.894203e-001 -4.031175e-001
    outer loop
      vertex  3.921018e-002 -1.875000e-001  2.589232e-002
      vertex  4.020159e-002 -1.796875e-001  9.185097e-003
      vertex  5.658034e-002 -1.796875e-001  1.793972e-002
    endloop
  endfacet
  facet normal  1.590033e-001 -8.979174e-001 -4.104417e-001
    outer loop
      vertex  2.559689e-002 -1.875000e-001  2.061860e-002
      vertex  4.020159e-002 -1.796875e-001  9.185097e-003
      vertex  3.921018e-002 -1.875000e-001  2.589232e-002
    endloop
  endfacet
  facet normal  3.578852e-001 -9.139611e-001 -1.912937e-001
    outer loop
      vertex  8.271817e-002 -1.796875e-001  4.407756e-002
      vertex  9.147280e-002 -1.796875e-001  6.045631e-002
      vertex  6.241154e-002 -1.875000e-001  4.341302e-002
    endloop
  endfacet
  facet normal  3.519821e-001 -8.903180e-001 -2.888641e-001
    outer loop
      vertex  6.241154e-002 -1.875000e-001  4.341302e-002
      vertex  7.093643e-002 -1.796875e-001  2.972146e-002
      vertex  8.271817e-002 -1.796875e-001  4.407756e-002
    endloop
  endfacet
  facet normal  2.976765e-001 -8.970850e-001 -3.265382e-001
    outer loop
      vertex  5.162263e-002 -1.875000e-001  3.357771e-002
      vertex  7.093643e-002 -1.796875e-001  2.972146e-002
      vertex  6.241154e-002 -1.875000e-001  4.341302e-002
    endloop
  endfacet
  facet normal  4.331234e-001 -8.917072e-001 -1.313865e-001
    outer loop
      vertex  7.771692e-002 -1.875000e-001  6.813190e-002
      vertex  9.147280e-002 -1.796875e-001  6.045631e-002
      vertex  9.686387e-002 -1.796875e-001  7.822829e-002
    endloop
  endfacet
  facet normal  3.980838e-001 -8.956768e-001 -1.982233e-001
    outer loop
      vertex  7.120951e-002 -1.875000e-001  5.506333e-002
      vertex  9.147280e-002 -1.796875e-001  6.045631e-002
      vertex  7.771692e-002 -1.875000e-001  6.813190e-002
    endloop
  endfacet
  facet normal -4.367013e-001 -8.909854e-001 -1.242459e-001
    outer loop
      vertex -6.982260e-002 -1.875000e-001  6.813300e-002
      vertex -7.381765e-002 -1.875000e-001  8.217485e-002
      vertex -8.357806e-002 -1.796875e-001  6.045631e-002
    endloop
  endfacet
  facet normal -3.675966e-001 -8.875906e-001 -2.775893e-001
    outer loop
      vertex -5.451759e-002 -1.875000e-001  4.341389e-002
      vertex -6.331538e-002 -1.875000e-001  5.506433e-002
      vertex -6.304169e-002 -1.796875e-001  2.972146e-002
    endloop
  endfacet
  facet normal -2.467128e-001 -8.833876e-001 -3.984458e-001
    outer loop
      vertex -3.131650e-002 -1.875000e-001  2.589285e-002
      vertex -4.372883e-002 -1.875000e-001  3.357841e-002
      vertex -3.230685e-002 -1.796875e-001  9.185097e-003
    endloop
  endfacet
  facet normal -8.786819e-002 -8.782650e-001 -4.700316e-001
    outer loop
      vertex -3.352772e-003 -1.875000e-001  1.793622e-002
      vertex -1.770328e-002 -1.875000e-001  2.061892e-002
      vertex  3.947368e-003 -1.796875e-001  1.973684e-003
    endloop
  endfacet
  facet normal  8.991750e-002 -8.720788e-001 -4.810337e-001
    outer loop
      vertex  2.559689e-002 -1.875000e-001  2.061860e-002
      vertex  1.124634e-002 -1.875000e-001  1.793611e-002
      vertex  4.020159e-002 -1.796875e-001  9.185097e-003
    endloop
  endfacet
  facet normal  2.644687e-001 -8.646450e-001 -4.271363e-001
    outer loop
      vertex  5.162263e-002 -1.875000e-001  3.357771e-002
      vertex  3.921018e-002 -1.875000e-001  2.589232e-002
      vertex  7.093643e-002 -1.796875e-001  2.972146e-002
    endloop
  endfacet
  facet normal  4.129147e-001 -8.557274e-001 -3.118207e-001
    outer loop
      vertex  7.120951e-002 -1.875000e-001  5.506333e-002
      vertex  6.241154e-002 -1.875000e-001  4.341302e-002
      vertex  9.147280e-002 -1.796875e-001  6.045631e-002
    endloop
  endfacet
  facet normal -4.467770e-001 -8.935626e-001 -4.400367e-002
    outer loop
      vertex -7.516447e-002 -1.875000e-001  9.671206e-002
      vertex -9.078947e-002 -1.796875e-001  9.671053e-002
      vertex -8.896913e-002 -1.796875e-001  7.822829e-002
    endloop
  endfacet
  facet normal -3.709889e-001 -9.217930e-001 -1.125383e-001
    outer loop
      vertex -7.516447e-002 -1.875000e-001  9.671206e-002
      vertex -8.896913e-002 -1.796875e-001  7.822829e-002
      vertex -8.357806e-002 -1.796875e-001  6.045631e-002
    endloop
  endfacet
  facet normal -5.522169e-001 -8.321292e-001 -5.116116e-002
    outer loop
      vertex -7.516447e-002 -1.875000e-001  9.671206e-002
      vertex -8.357806e-002 -1.796875e-001  6.045631e-002
      vertex -7.381765e-002 -1.875000e-001  8.217485e-002
    endloop
  endfacet
  facet normal  4.468301e-001 -8.936601e-001 -4.140512e-002
    outer loop
      vertex  9.868421e-002 -1.796875e-001  9.671053e-002
      vertex  8.305921e-002 -1.875000e-001  9.671053e-002
      vertex  8.171217e-002 -1.875000e-001  8.217370e-002
    endloop
  endfacet
  facet normal  5.143170e-001 -8.450229e-001 -1.463365e-001
    outer loop
      vertex  9.868421e-002 -1.796875e-001  9.671053e-002
      vertex  8.171217e-002 -1.875000e-001  8.217370e-002
      vertex  7.771692e-002 -1.875000e-001  6.813190e-002
    endloop
  endfacet
  facet normal  3.950234e-001 -9.178467e-001 -3.890656e-002
    outer loop
      vertex  9.868421e-002 -1.796875e-001  9.671053e-002
      vertex  7.771692e-002 -1.875000e-001  6.813190e-002
      vertex  9.686387e-002 -1.796875e-001  7.822829e-002
    endloop
  endfacet
  facet normal -5.551121e-017  1.000000e+000 -5.551165e-017
    outer loop
      vertex  3.947368e-003  4.163793e-017  1.836349e-001
      vertex  2.090547e-002  4.248658e-017  1.819646e-001
      vertex -1.301073e-002  4.060385e-017  1.819646e-001
    endloop
  endfacet
  facet normal -5.551121e-017  1.000000e+000 -5.551070e-017
    outer loop
      vertex -2.931714e-002  3.942408e-017  1.770182e-001
      vertex -1.301073e-002  4.060385e-017  1.819646e-001
      vertex  2.090547e-002  4.248658e-017  1.819646e-001
    endloop
  endfacet
  facet normal -5.551112e-017  1.000000e+000 -5.551157e-017
    outer loop
      vertex  3.721187e-002  4.311718e-017  1.770182e-001
      vertex -2.931714e-002  3.942408e-017  1.770182e-001
      vertex  2.090547e-002  4.248658e-017  1.819646e-001
    endloop
  endfacet
  facet normal -5.551112e-017  9.999999e-001 -5.551112e-017
    outer loop
      vertex -4.434521e-002  3.814395e-017  1.689855e-001
      vertex -2.931714e-002  3.942408e-017  1.770182e-001
      vertex  3.721187e-002  4.311718e-017  1.770182e-001
    endloop
  endfacet
  facet normal -5.551115e-017  1.000000e+000 -5.551084e-017
    outer loop
      vertex  5.223995e-002  4.350550e-017  1.689855e-001
      vertex -4.434521e-002  3.814395e-017  1.689855e-001
      vertex  3.721187e-002  4.311718e-017  1.770182e-001
    endloop
  endfacet
  facet normal -5.551115e-017  1.000000e+000 -5.551134e-017
    outer loop
      vertex -5.751742e-002  3.681266e-017  1.581753e-001
      vertex -4.434521e-002  3.814395e-017  1.689855e-001
      vertex  5.223995e-002  4.350550e-017  1.689855e-001
    endloop
  endfacet
  facet normal -5.551114e-017  1.000000e+000 -5.551141e-017
    outer loop
      vertex  6.541216e-002  4.363662e-017  1.581753e-001
      vertex -5.751742e-002  3.681266e-017  1.581753e-001
      vertex  5.223995e-002  4.350550e-017  1.689855e-001
    endloop
  endfacet
  facet normal -5.551115e-017  1.000000e+000 -5.551101e-017
    outer loop
      vertex  5.223995e-002  3.548137e-017  2.443558e-002
      vertex -4.434521e-002  3.011982e-017  2.443558e-002
      vertex  6.541216e-002  3.681266e-017  3.524574e-002
    endloop
  endfacet
  facet normal -5.551115e-017  1.000000e+000 -5.551128e-017
    outer loop
      vertex -2.931714e-002  3.050814e-017  1.640291e-002
      vertex -4.434521e-002  3.011982e-017  2.443558e-002
      vertex  5.223995e-002  3.548137e-017  2.443558e-002
    endloop
  endfacet
  facet normal -5.551118e-017  1.000000e+000 -5.551106e-017
    outer loop
      vertex  3.721187e-002  3.420124e-017  1.640291e-002
      vertex -2.931714e-002  3.050814e-017  1.640291e-002
      vertex  5.223995e-002  3.548137e-017  2.443558e-002
    endloop
  endfacet
  facet normal -5.551118e-017  1.000000e+000 -5.551105e-017
    outer loop
      vertex -1.301073e-002  3.113874e-017  1.145641e-002
      vertex -2.931714e-002  3.050814e-017  1.640291e-002
      vertex  3.721187e-002  3.420124e-017  1.640291e-002
    endloop
  endfacet
  facet normal -5.551112e-017  1.000000e+000 -5.551163e-017
    outer loop
      vertex  2.090547e-002  3.302147e-017  1.145641e-002
      vertex -1.301073e-002  3.113874e-017  1.145641e-002
      vertex  3.721187e-002  3.420124e-017  1.640291e-002
    endloop
  endfacet
  facet normal -5.551112e-017  1.000000e+000 -5.551057e-017
    outer loop
      vertex  3.947368e-003  3.198739e-017  9.786184e-003
      vertex -1.301073e-002  3.113874e-017  1.145641e-002
      vertex  2.090547e-002  3.302147e-017  1.145641e-002
    endloop
  endfacet
  facet normal -5.551114e-017  1.000000e+000 -5.551107e-017
    outer loop
      vertex -4.434521e-002  3.011982e-017  2.443558e-002
      vertex -5.751742e-002  2.998870e-017  3.524574e-002
      vertex  6.541216e-002  3.681266e-017  3.524574e-002
    endloop
  endfacet
  facet normal -5.551114e-017  1.000000e+000 -5.551119e-017
    outer loop
      vertex  6.541216e-002  3.681266e-017  3.524574e-002
      vertex -5.751742e-002  2.998870e-017  3.524574e-002
      vertex -6.832758e-002  3.011982e-017  4.841795e-002
    endloop
  endfacet
  facet normal -5.551115e-017  9.999999e-001 -5.551126e-017
    outer loop
      vertex  6.541216e-002  3.681266e-017  3.524574e-002
      vertex -6.832758e-002  3.011982e-017  4.841795e-002
      vertex  7.622232e-002  3.814395e-017  4.841795e-002
    endloop
  endfacet
  facet normal -5.551115e-017  1.000000e+000 -5.551105e-017
    outer loop
      vertex  7.622232e-002  3.814395e-017  4.841795e-002
      vertex -6.832758e-002  3.011982e-017  4.841795e-002
      vertex -7.636026e-002  3.050814e-017  6.344602e-002
    endloop
  endfacet
  facet normal -5.551116e-017  1.000000e+000 -5.551114e-017
    outer loop
      vertex  7.622232e-002  3.814395e-017  4.841795e-002
      vertex -7.636026e-002  3.050814e-017  6.344602e-002
      vertex  8.425499e-002  3.942408e-017  6.344602e-002
    endloop
  endfacet
  facet normal -5.551116e-017  1.000000e+000 -5.551123e-017
    outer loop
      vertex  8.425499e-002  3.942408e-017  6.344602e-002
      vertex -7.636026e-002  3.050814e-017  6.344602e-002
      vertex -8.130675e-002  3.113874e-017  7.975243e-002
    endloop
  endfacet
  facet normal -5.551114e-017  9.999999e-001 -5.551103e-017
    outer loop
      vertex  8.425499e-002  3.942408e-017  6.344602e-002
      vertex -8.130675e-002  3.113874e-017  7.975243e-002
      vertex  8.920148e-002  4.060385e-017  7.975243e-002
    endloop
  endfacet
  facet normal -5.551114e-017  9.999999e-001 -5.551112e-017
    outer loop
      vertex  8.920148e-002  4.060385e-017  7.975243e-002
      vertex -8.130675e-002  3.113874e-017  7.975243e-002
      vertex -8.297697e-002  3.198739e-017  9.671053e-002
    endloop
  endfacet
  facet normal -5.551115e-017  1.000000e+000 -5.551122e-017
    outer loop
      vertex  8.920148e-002  4.060385e-017  7.975243e-002
      vertex -8.297697e-002  3.198739e-017  9.671053e-002
      vertex  9.087171e-002  4.163793e-017  9.671053e-002
    endloop
  endfacet
  facet normal -5.551115e-017  1.000000e+000 -5.551108e-017
    outer loop
      vertex  9.087171e-002  4.163793e-017  9.671053e-002
      vertex -8.297697e-002  3.198739e-017  9.671053e-002
      vertex -8.130675e-002  3.302147e-017  1.136686e-001
    endloop
  endfacet
  facet normal -5.551116e-017  9.999999e-001 -5.551118e-017
    outer loop
      vertex  9.087171e-002  4.163793e-017  9.671053e-002
      vertex -8.130675e-002  3.302147e-017  1.136686e-001
      vertex  8.920148e-002  4.248658e-017  1.136686e-001
    endloop
  endfacet
  facet normal -5.551116e-017  9.999999e-001 -5.551120e-017
    outer loop
      vertex  8.920148e-002  4.248658e-017  1.136686e-001
      vertex -8.130675e-002  3.302147e-017  1.136686e-001
      vertex -7.636026e-002  3.420124e-017  1.299750e-001
    endloop
  endfacet
  facet normal -5.551114e-017  1.000000e+000 -5.551100e-017
    outer loop
      vertex  8.920148e-002  4.248658e-017  1.136686e-001
      vertex -7.636026e-002  3.420124e-017  1.299750e-001
      vertex  8.425499e-002  4.311718e-017  1.299750e-001
    endloop
  endfacet
  facet normal -5.551114e-017  1.000000e+000 -5.551116e-017
    outer loop
      vertex  8.425499e-002  4.311718e-017  1.299750e-001
      vertex -7.636026e-002  3.420124e-017  1.299750e-001
      vertex -6.832758e-002  3.548137e-017  1.450031e-001
    endloop
  endfacet
  facet normal -5.551115e-017  1.000000e+000 -5.551126e-017
    outer loop
      vertex  8.425499e-002  4.311718e-017  1.299750e-001
      vertex -6.832758e-002  3.548137e-017  1.450031e-001
      vertex  7.622232e-002  4.350550e-017  1.450031e-001
    endloop
  endfacet
  facet normal -5.551115e-017  1.000000e+000 -5.551103e-017
    outer loop
      vertex  7.622232e-002  4.350550e-017  1.450031e-001
      vertex -6.832758e-002  3.548137e-017  1.450031e-001
      vertex -5.751742e-002  3.681266e-017  1.581753e-001
    endloop
  endfacet
  facet normal -5.551114e-017  1.000000e+000 -5.551096e-017
    outer loop
      vertex  7.622232e-002  4.350550e-017  1.450031e-001
      vertex -5.751742e-002  3.681266e-017  1.581753e-001
      vertex  6.541216e-002  4.363662e-017  1.581753e-001
    endloop
  endfacet
  facet normal  7.053982e-001  7.053982e-001  6.947588e-002
    outer loop
      vertex  9.087171e-002  4.163793e-017  9.671053e-002
      vertex  9.686387e-002 -7.812500e-003  1.151928e-001
      vertex  9.868421e-002 -7.812500e-003  9.671053e-002
    endloop
  endfacet
  facet normal  7.053981e-001  7.053982e-001  6.947595e-002
    outer loop
      vertex  9.087171e-002  4.163793e-017  9.671053e-002
      vertex  8.920148e-002  4.248658e-017  1.136686e-001
      vertex  9.686387e-002 -7.812500e-003  1.151928e-001
    endloop
  endfacet
  facet normal -7.053981e-001  7.053981e-001  6.947564e-002
    outer loop
      vertex -9.078947e-002 -7.812500e-003  9.671053e-002
      vertex -8.130675e-002  3.302147e-017  1.136686e-001
      vertex -8.297697e-002  3.198739e-017  9.671053e-002
    endloop
  endfacet
  facet normal -7.053981e-001  7.053983e-001  6.947559e-002
    outer loop
      vertex -9.078947e-002 -7.812500e-003  9.671053e-002
      vertex -8.896913e-002 -7.812500e-003  1.151928e-001
      vertex -8.130675e-002  3.302147e-017  1.136686e-001
    endloop
  endfacet
  facet normal  6.782901e-001  7.053981e-001  2.057570e-001
    outer loop
      vertex  8.425499e-002  4.311718e-017  1.299750e-001
      vertex  9.147280e-002 -7.812500e-003  1.329647e-001
      vertex  9.686387e-002 -7.812500e-003  1.151928e-001
    endloop
  endfacet
  facet normal  6.782901e-001  7.053983e-001  2.057569e-001
    outer loop
      vertex  8.425499e-002  4.311718e-017  1.299750e-001
      vertex  9.686387e-002 -7.812500e-003  1.151928e-001
      vertex  8.920148e-002  4.248658e-017  1.136686e-001
    endloop
  endfacet
  facet normal  5.479190e-001  7.053977e-001  4.496650e-001
    outer loop
      vertex  7.622232e-002  4.350550e-017  1.450031e-001
      vertex  7.093643e-002 -7.812500e-003  1.636996e-001
      vertex  8.271817e-002 -7.812500e-003  1.493435e-001
    endloop
  endfacet
  facet normal  6.251159e-001  7.053979e-001  3.341316e-001
    outer loop
      vertex  8.271817e-002 -7.812500e-003  1.493435e-001
      vertex  9.147280e-002 -7.812500e-003  1.329647e-001
      vertex  7.622232e-002  4.350550e-017  1.450031e-001
    endloop
  endfacet
  facet normal  6.251158e-001  7.053981e-001  3.341313e-001
    outer loop
      vertex  7.622232e-002  4.350550e-017  1.450031e-001
      vertex  9.147280e-002 -7.812500e-003  1.329647e-001
      vertex  8.425499e-002  4.311718e-017  1.299750e-001
    endloop
  endfacet
  facet normal  3.341314e-001  7.053983e-001  6.251156e-001
    outer loop
      vertex  3.721187e-002  4.311718e-017  1.770182e-001
      vertex  4.020159e-002 -7.812500e-003  1.842360e-001
      vertex  5.658034e-002 -7.812500e-003  1.754813e-001
    endloop
  endfacet
  facet normal  3.341314e-001  7.053984e-001  6.251154e-001
    outer loop
      vertex  3.721187e-002  4.311718e-017  1.770182e-001
      vertex  5.658034e-002 -7.812500e-003  1.754813e-001
      vertex  5.223995e-002  4.350550e-017  1.689855e-001
    endloop
  endfacet
  facet normal  4.496648e-001  7.053984e-001  5.479185e-001
    outer loop
      vertex  5.658034e-002 -7.812500e-003  1.754813e-001
      vertex  6.541216e-002  4.363662e-017  1.581753e-001
      vertex  5.223995e-002  4.350550e-017  1.689855e-001
    endloop
  endfacet
  facet normal  6.947561e-002  7.053982e-001  7.053981e-001
    outer loop
      vertex  2.090547e-002  4.248658e-017  1.819646e-001
      vertex  3.947368e-003 -7.812500e-003  1.914474e-001
      vertex  2.242961e-002 -7.812500e-003  1.896270e-001
    endloop
  endfacet
  facet normal  2.057567e-001  7.053983e-001  6.782902e-001
    outer loop
      vertex  2.242961e-002 -7.812500e-003  1.896270e-001
      vertex  4.020159e-002 -7.812500e-003  1.842360e-001
      vertex  2.090547e-002  4.248658e-017  1.819646e-001
    endloop
  endfacet
  facet normal  2.057567e-001  7.053982e-001  6.782902e-001
    outer loop
      vertex  2.090547e-002  4.248658e-017  1.819646e-001
      vertex  4.020159e-002 -7.812500e-003  1.842360e-001
      vertex  3.721187e-002  4.311718e-017  1.770182e-001
    endloop
  endfacet
  facet normal -2.057567e-001  7.053982e-001  6.782902e-001
    outer loop
      vertex -2.931714e-002  3.942408e-017  1.770182e-001
      vertex -3.230685e-002 -7.812500e-003  1.842360e-001
      vertex -1.453487e-002 -7.812500e-003  1.896270e-001
    endloop
  endfacet
  facet normal -2.057567e-001  7.053983e-001  6.782902e-001
    outer loop
      vertex -2.931714e-002  3.942408e-017  1.770182e-001
      vertex -1.453487e-002 -7.812500e-003  1.896270e-001
      vertex -1.301073e-002  4.060385e-017  1.819646e-001
    endloop
  endfacet
  facet normal -6.947564e-002  7.053982e-001  7.053981e-001
    outer loop
      vertex -1.453487e-002 -7.812500e-003  1.896270e-001
      vertex  3.947368e-003  4.163793e-017  1.836349e-001
      vertex -1.301073e-002  4.060385e-017  1.819646e-001
    endloop
  endfacet
  facet normal -4.496648e-001  7.053984e-001  5.479183e-001
    outer loop
      vertex -4.434521e-002  3.814395e-017  1.689855e-001
      vertex -6.304169e-002 -7.812500e-003  1.636996e-001
      vertex -4.868560e-002 -7.812500e-003  1.754813e-001
    endloop
  endfacet
  facet normal -3.341312e-001  7.053986e-001  6.251155e-001
    outer loop
      vertex -4.868560e-002 -7.812500e-003  1.754813e-001
      vertex -3.230685e-002 -7.812500e-003  1.842360e-001
      vertex -4.434521e-002  3.814395e-017  1.689855e-001
    endloop
  endfacet
  facet normal -3.341316e-001  7.053981e-001  6.251156e-001
    outer loop
      vertex -4.434521e-002  3.814395e-017  1.689855e-001
      vertex -3.230685e-002 -7.812500e-003  1.842360e-001
      vertex -2.931714e-002  3.942408e-017  1.770182e-001
    endloop
  endfacet
  facet normal -6.251161e-001  7.053977e-001  3.341314e-001
    outer loop
      vertex -7.636026e-002  3.420124e-017  1.299750e-001
      vertex -8.357806e-002 -7.812500e-003  1.329647e-001
      vertex -7.482344e-002 -7.812500e-003  1.493435e-001
    endloop
  endfacet
  facet normal -6.251160e-001  7.053979e-001  3.341314e-001
    outer loop
      vertex -7.636026e-002  3.420124e-017  1.299750e-001
      vertex -7.482344e-002 -7.812500e-003  1.493435e-001
      vertex -6.832758e-002  3.548137e-017  1.450031e-001
    endloop
  endfacet
  facet normal -5.479187e-001  7.053977e-001  4.496655e-001
    outer loop
      vertex -7.482344e-002 -7.812500e-003  1.493435e-001
      vertex -5.751742e-002  3.681266e-017  1.581753e-001
      vertex -6.832758e-002  3.548137e-017  1.450031e-001
    endloop
  endfacet
  facet normal -6.782899e-001  7.053983e-001  2.057573e-001
    outer loop
      vertex -8.896913e-002 -7.812500e-003  1.151928e-001
      vertex -8.357806e-002 -7.812500e-003  1.329647e-001
      vertex -8.130675e-002  3.302147e-017  1.136686e-001
    endloop
  endfacet
  facet normal -6.782905e-001  7.053978e-001  2.057570e-001
    outer loop
      vertex -8.130675e-002  3.302147e-017  1.136686e-001
      vertex -8.357806e-002 -7.812500e-003  1.329647e-001
      vertex -7.636026e-002  3.420124e-017  1.299750e-001
    endloop
  endfacet
  facet normal  5.479184e-001  7.053983e-001  4.496650e-001
    outer loop
      vertex  7.093643e-002 -7.812500e-003  1.636996e-001
      vertex  7.622232e-002  4.350550e-017  1.450031e-001
      vertex  6.541216e-002  4.363662e-017  1.581753e-001
    endloop
  endfacet
  facet normal  4.496649e-001  7.053983e-001  5.479185e-001
    outer loop
      vertex  6.541216e-002  4.363662e-017  1.581753e-001
      vertex  5.658034e-002 -7.812500e-003  1.754813e-001
      vertex  7.093643e-002 -7.812500e-003  1.636996e-001
    endloop
  endfacet
  facet normal  6.947564e-002  7.053982e-001  7.053982e-001
    outer loop
      vertex  3.947368e-003 -7.812500e-003  1.914474e-001
      vertex  2.090547e-002  4.248658e-017  1.819646e-001
      vertex  3.947368e-003  4.163793e-017  1.836349e-001
    endloop
  endfacet
  facet normal -6.947561e-002  7.053982e-001  7.053982e-001
    outer loop
      vertex  3.947368e-003  4.163793e-017  1.836349e-001
      vertex -1.453487e-002 -7.812500e-003  1.896270e-001
      vertex  3.947368e-003 -7.812500e-003  1.914474e-001
    endloop
  endfacet
  facet normal -4.496649e-001  7.053983e-001  5.479186e-001
    outer loop
      vertex -6.304169e-002 -7.812500e-003  1.636996e-001
      vertex -4.434521e-002  3.814395e-017  1.689855e-001
      vertex -5.751742e-002  3.681266e-017  1.581753e-001
    endloop
  endfacet
  facet normal -5.479186e-001  7.053983e-001  4.496649e-001
    outer loop
      vertex -5.751742e-002  3.681266e-017  1.581753e-001
      vertex -7.482344e-002 -7.812500e-003  1.493435e-001
      vertex -6.304169e-002 -7.812500e-003  1.636996e-001
    endloop
  endfacet
  facet normal -7.053982e-001  7.053982e-001 -6.947563e-002
    outer loop
      vertex -8.297697e-002  3.198739e-017  9.671053e-002
      vertex -8.896913e-002 -7.812500e-003  7.822829e-002
      vertex -9.078947e-002 -7.812500e-003  9.671053e-002
    endloop
  endfacet
  facet normal -7.053981e-001  7.053982e-001 -6.947564e-002
    outer loop
      vertex -8.297697e-002  3.198739e-017  9.671053e-002
      vertex -8.130675e-002  3.113874e-017  7.975243e-002
      vertex -8.896913e-002 -7.812500e-003  7.822829e-002
    endloop
  endfacet
  facet normal  7.053981e-001  7.053981e-001 -6.947596e-002
    outer loop
      vertex  9.868421e-002 -7.812500e-003  9.671053e-002
      vertex  8.920148e-002  4.060385e-017  7.975243e-002
      vertex  9.087171e-002  4.163793e-017  9.671053e-002
    endloop
  endfacet
  facet normal  7.053981e-001  7.053983e-001 -6.947590e-002
    outer loop
      vertex  9.868421e-002 -7.812500e-003  9.671053e-002
      vertex  9.686387e-002 -7.812500e-003  7.822829e-002
      vertex  8.920148e-002  4.060385e-017  7.975243e-002
    endloop
  endfacet
  facet normal -6.782902e-001  7.053979e-001 -2.057573e-001
    outer loop
      vertex -7.636026e-002  3.050814e-017  6.344602e-002
      vertex -8.357806e-002 -7.812500e-003  6.045631e-002
      vertex -8.896913e-002 -7.812500e-003  7.822829e-002
    endloop
  endfacet
  facet normal -6.782901e-001  7.053982e-001 -2.057570e-001
    outer loop
      vertex -7.636026e-002  3.050814e-017  6.344602e-002
      vertex -8.896913e-002 -7.812500e-003  7.822829e-002
      vertex -8.130675e-002  3.113874e-017  7.975243e-002
    endloop
  endfacet
  facet normal -5.479185e-001  7.053981e-001 -4.496652e-001
    outer loop
      vertex -6.832758e-002  3.011982e-017  4.841795e-002
      vertex -6.304169e-002 -7.812500e-003  2.972146e-002
      vertex -7.482344e-002 -7.812500e-003  4.407756e-002
    endloop
  endfacet
  facet normal -6.251159e-001  7.053981e-001 -3.341312e-001
    outer loop
      vertex -7.482344e-002 -7.812500e-003  4.407756e-002
      vertex -8.357806e-002 -7.812500e-003  6.045631e-002
      vertex -6.832758e-002  3.011982e-017  4.841795e-002
    endloop
  endfacet
  facet normal -6.251159e-001  7.053980e-001 -3.341314e-001
    outer loop
      vertex -6.832758e-002  3.011982e-017  4.841795e-002
      vertex -8.357806e-002 -7.812500e-003  6.045631e-002
      vertex -7.636026e-002  3.050814e-017  6.344602e-002
    endloop
  endfacet
  facet normal -3.341312e-001  7.053981e-001 -6.251158e-001
    outer loop
      vertex -2.931714e-002  3.050814e-017  1.640291e-002
      vertex -3.230685e-002 -7.812500e-003  9.185097e-003
      vertex -4.868560e-002 -7.812500e-003  1.793972e-002
    endloop
  endfacet
  facet normal -3.341313e-001  7.053983e-001 -6.251156e-001
    outer loop
      vertex -2.931714e-002  3.050814e-017  1.640291e-002
      vertex -4.868560e-002 -7.812500e-003  1.793972e-002
      vertex -4.434521e-002  3.011982e-017  2.443558e-002
    endloop
  endfacet
  facet normal -4.496650e-001  7.053983e-001 -5.479184e-001
    outer loop
      vertex -4.868560e-002 -7.812500e-003  1.793972e-002
      vertex -5.751742e-002  2.998870e-017  3.524574e-002
      vertex -4.434521e-002  3.011982e-017  2.443558e-002
    endloop
  endfacet
  facet normal -6.947565e-002  7.053982e-001 -7.053981e-001
    outer loop
      vertex -1.301073e-002  3.113874e-017  1.145641e-002
      vertex  3.947368e-003 -7.812500e-003  1.973684e-003
      vertex -1.453487e-002 -7.812500e-003  3.794026e-003
    endloop
  endfacet
  facet normal -2.057571e-001  7.053982e-001 -6.782901e-001
    outer loop
      vertex -1.453487e-002 -7.812500e-003  3.794026e-003
      vertex -3.230685e-002 -7.812500e-003  9.185097e-003
      vertex -1.301073e-002  3.113874e-017  1.145641e-002
    endloop
  endfacet
  facet normal -2.057571e-001  7.053981e-001 -6.782901e-001
    outer loop
      vertex -1.301073e-002  3.113874e-017  1.145641e-002
      vertex -3.230685e-002 -7.812500e-003  9.185097e-003
      vertex -2.931714e-002  3.050814e-017  1.640291e-002
    endloop
  endfacet
  facet normal  2.057570e-001  7.053982e-001 -6.782901e-001
    outer loop
      vertex  3.721187e-002  3.420124e-017  1.640291e-002
      vertex  4.020159e-002 -7.812500e-003  9.185097e-003
      vertex  2.242961e-002 -7.812500e-003  3.794026e-003
    endloop
  endfacet
  facet normal  2.057571e-001  7.053982e-001 -6.782901e-001
    outer loop
      vertex  3.721187e-002  3.420124e-017  1.640291e-002
      vertex  2.242961e-002 -7.812500e-003  3.794026e-003
      vertex  2.090547e-002  3.302147e-017  1.145641e-002
    endloop
  endfacet
  facet normal  6.947568e-002  7.053982e-001 -7.053982e-001
    outer loop
      vertex  2.242961e-002 -7.812500e-003  3.794026e-003
      vertex  3.947368e-003  3.198739e-017  9.786184e-003
      vertex  2.090547e-002  3.302147e-017  1.145641e-002
    endloop
  endfacet
  facet normal  4.496651e-001  7.053982e-001 -5.479185e-001
    outer loop
      vertex  5.223995e-002  3.548137e-017  2.443558e-002
      vertex  7.093643e-002 -7.812500e-003  2.972146e-002
      vertex  5.658034e-002 -7.812500e-003  1.793972e-002
    endloop
  endfacet
  facet normal  3.341313e-001  7.053982e-001 -6.251157e-001
    outer loop
      vertex  5.658034e-002 -7.812500e-003  1.793972e-002
      vertex  4.020159e-002 -7.812500e-003  9.185097e-003
      vertex  5.223995e-002  3.548137e-017  2.443558e-002
    endloop
  endfacet
  facet normal  3.341313e-001  7.053982e-001 -6.251157e-001
    outer loop
      vertex  5.223995e-002  3.548137e-017  2.443558e-002
      vertex  4.020159e-002 -7.812500e-003  9.185097e-003
      vertex  3.721187e-002  3.420124e-017  1.640291e-002
    endloop
  endfacet
  facet normal  6.251156e-001  7.053983e-001 -3.341314e-001
    outer loop
      vertex  8.425499e-002  3.942408e-017  6.344602e-002
      vertex  9.147280e-002 -7.812500e-003  6.045631e-002
      vertex  8.271817e-002 -7.812500e-003  4.407756e-002
    endloop
  endfacet
  facet normal  6.251158e-001  7.053981e-001 -3.341313e-001
    outer loop
      vertex  8.425499e-002  3.942408e-017  6.344602e-002
      vertex  8.271817e-002 -7.812500e-003  4.407756e-002
      vertex  7.622232e-002  3.814395e-017  4.841795e-002
    endloop
  endfacet
  facet normal  5.479186e-001  7.053981e-001 -4.496650e-001
    outer loop
      vertex  8.271817e-002 -7.812500e-003  4.407756e-002
      vertex  6.541216e-002  3.681266e-017  3.524574e-002
      vertex  7.622232e-002  3.814395e-017  4.841795e-002
    endloop
  endfacet
  facet normal  6.782901e-001  7.053983e-001 -2.057569e-001
    outer loop
      vertex  9.686387e-002 -7.812500e-003  7.822829e-002
      vertex  9.147280e-002 -7.812500e-003  6.045631e-002
      vertex  8.920148e-002  4.060385e-017  7.975243e-002
    endloop
  endfacet
  facet normal  6.782901e-001  7.053982e-001 -2.057569e-001
    outer loop
      vertex  8.920148e-002  4.060385e-017  7.975243e-002
      vertex  9.147280e-002 -7.812500e-003  6.045631e-002
      vertex  8.425499e-002  3.942408e-017  6.344602e-002
    endloop
  endfacet
  facet normal -5.479185e-001  7.053981e-001 -4.496652e-001
    outer loop
      vertex -6.304169e-002 -7.812500e-003  2.972146e-002
      vertex -6.832758e-002  3.011982e-017  4.841795e-002
      vertex -5.751742e-002  2.998870e-017  3.524574e-002
    endloop
  endfacet
  facet normal -4.496652e-001  7.053981e-001 -5.479185e-001
    outer loop
      vertex -5.751742e-002  2.998870e-017  3.524574e-002
      vertex -4.868560e-002 -7.812500e-003  1.793972e-002
      vertex -6.304169e-002 -7.812500e-003  2.972146e-002
    endloop
  endfacet
  facet normal -6.947568e-002  7.053982e-001 -7.053982e-001
    outer loop
      vertex  3.947368e-003 -7.812500e-003  1.973684e-003
      vertex -1.301073e-002  3.113874e-017  1.145641e-002
      vertex  3.947368e-003  3.198739e-017  9.786184e-003
    endloop
  endfacet
  facet normal  6.947566e-002  7.053982e-001 -7.053982e-001
    outer loop
      vertex  3.947368e-003  3.198739e-017  9.786184e-003
      vertex  2.242961e-002 -7.812500e-003  3.794026e-003
      vertex  3.947368e-003 -7.812500e-003  1.973684e-003
    endloop
  endfacet
  facet normal  4.496651e-001  7.053981e-001 -5.479186e-001
    outer loop
      vertex  7.093643e-002 -7.812500e-003  2.972146e-002
      vertex  5.223995e-002  3.548137e-017  2.443558e-002
      vertex  6.541216e-002  3.681266e-017  3.524574e-002
    endloop
  endfacet
  facet normal  5.479187e-001  7.053981e-001 -4.496651e-001
    outer loop
      vertex  6.541216e-002  3.681266e-017  3.524574e-002
      vertex  8.271817e-002 -7.812500e-003  4.407756e-002
      vertex  7.093643e-002 -7.812500e-003  2.972146e-002
    endloop
  endfacet
endsolid CATIA STL
