solid CATIA STL
  facet normal  1.000000e+000  0.000000e+000  0.000000e+000
    outer loop
      vertex  7.500000e-001 -3.750000e-001  2.526316e-001
      vertex  7.500000e-001 -3.750000e-001  2.513158e-001
      vertex  7.500000e-001 -2.500000e-001  2.513158e-001
    endloop
  endfacet
  facet normal  1.000000e+000  0.000000e+000  0.000000e+000
    outer loop
      vertex  7.500000e-001 -3.750000e-001  1.250000e-001
      vertex  7.500000e-001 -3.750000e-001  4.687500e-002
      vertex  7.500000e-001 -2.500000e-001  1.250000e-001
    endloop
  endfacet
  facet normal  1.000000e+000  0.000000e+000  0.000000e+000
    outer loop
      vertex  7.500000e-001 -2.500000e-001  1.250000e-001
      vertex  7.500000e-001 -3.750000e-001  4.687500e-002
      vertex  7.500000e-001  0.000000e+000  4.687500e-002
    endloop
  endfacet
  facet normal  1.000000e+000  0.000000e+000  0.000000e+000
    outer loop
      vertex  7.500000e-001 -2.500000e-001  1.250000e-001
      vertex  7.500000e-001  0.000000e+000  4.687500e-002
      vertex  7.500000e-001 -2.500000e-001  2.513158e-001
    endloop
  endfacet
  facet normal  1.000000e+000  -0.000000e+000  0.000000e+000
    outer loop
      vertex  7.500000e-001 -2.500000e-001  2.513158e-001
      vertex  7.500000e-001  0.000000e+000  4.687500e-002
      vertex  7.500000e-001  0.000000e+000  2.526316e-001
    endloop
  endfacet
  facet normal  1.000000e+000  0.000000e+000  0.000000e+000
    outer loop
      vertex  7.500000e-001 -2.500000e-001  2.513158e-001
      vertex  7.500000e-001  0.000000e+000  2.526316e-001
      vertex  7.500000e-001 -3.750000e-001  2.526316e-001
    endloop
  endfacet
  facet normal  0.000000e+000 -1.000000e+000  0.000000e+000
    outer loop
      vertex  7.500000e-001 -3.750000e-001  2.526316e-001
      vertex  5.000000e-001 -3.750000e-001  2.513158e-001
      vertex  7.500000e-001 -3.750000e-001  2.513158e-001
    endloop
  endfacet
  facet normal  0.000000e+000 -1.000000e+000  -0.000000e+000
    outer loop
      vertex  7.500000e-001 -3.750000e-001  4.687500e-002
      vertex  7.500000e-001 -3.750000e-001  1.250000e-001
      vertex  2.870266e-018 -3.750000e-001  4.687500e-002
    endloop
  endfacet
  facet normal  0.000000e+000 -1.000000e+000  0.000000e+000
    outer loop
      vertex  2.870266e-018 -3.750000e-001  4.687500e-002
      vertex  7.500000e-001 -3.750000e-001  1.250000e-001
      vertex  5.000000e-001 -3.750000e-001  1.250000e-001
    endloop
  endfacet
  facet normal  -0.000000e+000 -1.000000e+000  0.000000e+000
    outer loop
      vertex  2.870266e-018 -3.750000e-001  4.687500e-002
      vertex  5.000000e-001 -3.750000e-001  1.250000e-001
      vertex  1.546922e-017 -3.750000e-001  2.526316e-001
    endloop
  endfacet
  facet normal  0.000000e+000 -1.000000e+000  0.000000e+000
    outer loop
      vertex  1.546922e-017 -3.750000e-001  2.526316e-001
      vertex  5.000000e-001 -3.750000e-001  1.250000e-001
      vertex  5.000000e-001 -3.750000e-001  2.513158e-001
    endloop
  endfacet
  facet normal  0.000000e+000 -1.000000e+000  0.000000e+000
    outer loop
      vertex  1.546922e-017 -3.750000e-001  2.526316e-001
      vertex  5.000000e-001 -3.750000e-001  2.513158e-001
      vertex  7.500000e-001 -3.750000e-001  2.526316e-001
    endloop
  endfacet
  facet normal  0.000000e+000 -1.000000e+000  0.000000e+000
    outer loop
      vertex  5.000000e-001 -2.500000e-001  1.250000e-001
      vertex  7.500000e-001 -2.500000e-001  1.250000e-001
      vertex  5.000000e-001 -2.500000e-001  2.513158e-001
    endloop
  endfacet
  facet normal  0.000000e+000 -1.000000e+000  0.000000e+000
    outer loop
      vertex  5.000000e-001 -2.500000e-001  2.513158e-001
      vertex  7.500000e-001 -2.500000e-001  1.250000e-001
      vertex  7.500000e-001 -2.500000e-001  2.513158e-001
    endloop
  endfacet
  facet normal  1.000000e+000  -0.000000e+000  0.000000e+000
    outer loop
      vertex  5.000000e-001 -2.500000e-001  2.513158e-001
      vertex  5.000000e-001 -3.750000e-001  2.513158e-001
      vertex  5.000000e-001 -2.500000e-001  1.250000e-001
    endloop
  endfacet
  facet normal  1.000000e+000  0.000000e+000  0.000000e+000
    outer loop
      vertex  5.000000e-001 -2.500000e-001  1.250000e-001
      vertex  5.000000e-001 -3.750000e-001  2.513158e-001
      vertex  5.000000e-001 -3.750000e-001  1.250000e-001
    endloop
  endfacet
  facet normal  0.000000e+000  0.000000e+000 -1.000000e+000
    outer loop
      vertex  7.500000e-001 -2.500000e-001  2.513158e-001
      vertex  7.500000e-001 -3.750000e-001  2.513158e-001
      vertex  5.000000e-001 -2.500000e-001  2.513158e-001
    endloop
  endfacet
  facet normal  0.000000e+000  0.000000e+000 -1.000000e+000
    outer loop
      vertex  5.000000e-001 -2.500000e-001  2.513158e-001
      vertex  7.500000e-001 -3.750000e-001  2.513158e-001
      vertex  5.000000e-001 -3.750000e-001  2.513158e-001
    endloop
  endfacet
  facet normal  0.000000e+000  0.000000e+000  1.000000e+000
    outer loop
      vertex  5.000000e-001 -2.500000e-001  1.250000e-001
      vertex  5.000000e-001 -3.750000e-001  1.250000e-001
      vertex  7.500000e-001 -2.500000e-001  1.250000e-001
    endloop
  endfacet
  facet normal  0.000000e+000  0.000000e+000  1.000000e+000
    outer loop
      vertex  7.500000e-001 -2.500000e-001  1.250000e-001
      vertex  5.000000e-001 -3.750000e-001  1.250000e-001
      vertex  7.500000e-001 -3.750000e-001  1.250000e-001
    endloop
  endfacet
  facet normal  0.000000e+000  9.999999e-001  0.000000e+000
    outer loop
      vertex  2.870266e-018  0.000000e+000  4.687500e-002
      vertex  1.546922e-017  0.000000e+000  2.526316e-001
      vertex  7.500000e-001  0.000000e+000  4.687500e-002
    endloop
  endfacet
  facet normal  0.000000e+000  9.999999e-001  -0.000000e+000
    outer loop
      vertex  7.500000e-001  0.000000e+000  4.687500e-002
      vertex  1.546922e-017  0.000000e+000  2.526316e-001
      vertex  7.500000e-001  0.000000e+000  2.526316e-001
    endloop
  endfacet
  facet normal -9.999999e-001  0.000000e+000  6.123234e-017
    outer loop
      vertex  1.546922e-017  0.000000e+000  2.526316e-001
      vertex  2.870266e-018  0.000000e+000  4.687500e-002
      vertex  1.546922e-017 -3.750000e-001  2.526316e-001
    endloop
  endfacet
  facet normal -9.999999e-001  0.000000e+000  6.123234e-017
    outer loop
      vertex  1.546922e-017 -3.750000e-001  2.526316e-001
      vertex  2.870266e-018  0.000000e+000  4.687500e-002
      vertex  2.870266e-018 -3.750000e-001  4.687500e-002
    endloop
  endfacet
  facet normal -6.123234e-017  -0.000000e+000 -9.999999e-001
    outer loop
      vertex  4.687500e-002 -3.281250e-001 -2.870266e-018
      vertex  4.687500e-002 -4.687500e-002 -2.870266e-018
      vertex  7.031250e-001 -3.281250e-001 -4.305399e-017
    endloop
  endfacet
  facet normal -6.123234e-017  0.000000e+000 -9.999999e-001
    outer loop
      vertex  7.031250e-001 -3.281250e-001 -4.305399e-017
      vertex  4.687500e-002 -4.687500e-002 -2.870266e-018
      vertex  7.031250e-001 -4.687500e-002 -4.305399e-017
    endloop
  endfacet
  facet normal  0.000000e+000  1.211037e-001 -9.926398e-001
    outer loop
      vertex  7.031250e-001 -4.687500e-002 -4.305399e-017
      vertex  3.560509e-002 -3.560509e-002  1.374948e-003
      vertex  7.143949e-001 -3.560509e-002  1.374948e-003
    endloop
  endfacet
  facet normal -6.078166e-017  1.211037e-001 -9.926399e-001
    outer loop
      vertex  7.031250e-001 -4.687500e-002 -4.305399e-017
      vertex  4.687500e-002 -4.687500e-002 -2.870266e-018
      vertex  3.560509e-002 -3.560509e-002  1.374948e-003
    endloop
  endfacet
  facet normal  0.000000e+000  9.830133e-001 -1.835348e-001
    outer loop
      vertex  3.595417e-004 -3.595417e-004  4.108037e-002
      vertex  7.485976e-001 -1.402388e-003  3.549488e-002
      vertex  1.402388e-003 -1.402388e-003  3.549488e-002
    endloop
  endfacet
  facet normal  0.000000e+000  9.535168e-001 -3.013398e-001
    outer loop
      vertex  1.402388e-003 -1.402388e-003  3.549488e-002
      vertex  7.485976e-001 -1.402388e-003  3.549488e-002
      vertex  7.468790e-001 -3.120972e-003  3.005683e-002
    endloop
  endfacet
  facet normal  0.000000e+000  9.535168e-001 -3.013398e-001
    outer loop
      vertex  1.402388e-003 -1.402388e-003  3.549488e-002
      vertex  7.468790e-001 -3.120972e-003  3.005683e-002
      vertex  3.120972e-003 -3.120972e-003  3.005683e-002
    endloop
  endfacet
  facet normal  0.000000e+000  9.012716e-001 -4.332546e-001
    outer loop
      vertex  3.120972e-003 -3.120972e-003  3.005683e-002
      vertex  7.468790e-001 -3.120972e-003  3.005683e-002
      vertex  7.435873e-001 -6.412751e-003  2.320916e-002
    endloop
  endfacet
  facet normal  0.000000e+000  9.012716e-001 -4.332546e-001
    outer loop
      vertex  3.120972e-003 -3.120972e-003  3.005683e-002
      vertex  7.435873e-001 -6.412751e-003  2.320916e-002
      vertex  6.412751e-003 -6.412751e-003  2.320916e-002
    endloop
  endfacet
  facet normal  0.000000e+000  8.372552e-001 -5.468125e-001
    outer loop
      vertex  6.412751e-003 -6.412751e-003  2.320916e-002
      vertex  7.435873e-001 -6.412751e-003  2.320916e-002
      vertex  7.410600e-001 -8.940031e-003  1.933950e-002
    endloop
  endfacet
  facet normal  8.946621e-008  8.372629e-001 -5.468006e-001
    outer loop
      vertex  6.412751e-003 -6.412751e-003  2.320916e-002
      vertex  7.410600e-001 -8.940031e-003  1.933950e-002
      vertex  8.940031e-003 -8.939953e-003  1.933950e-002
    endloop
  endfacet
  facet normal  8.338186e-008  7.803230e-001 -6.253767e-001
    outer loop
      vertex  8.940031e-003 -8.939953e-003  1.933950e-002
      vertex  7.410600e-001 -8.940031e-003  1.933950e-002
      vertex  7.382621e-001 -1.173803e-002  1.584825e-002
    endloop
  endfacet
  facet normal  8.702500e-008  7.803234e-001 -6.253762e-001
    outer loop
      vertex  8.940031e-003 -8.939953e-003  1.933950e-002
      vertex  7.382621e-001 -1.173803e-002  1.584825e-002
      vertex  1.173803e-002 -1.173795e-002  1.584825e-002
    endloop
  endfacet
  facet normal  7.651285e-008  6.860646e-001 -7.275406e-001
    outer loop
      vertex  1.173803e-002 -1.173795e-002  1.584825e-002
      vertex  7.382621e-001 -1.173803e-002  1.584825e-002
      vertex  7.320380e-001 -1.796173e-002  9.979362e-003
    endloop
  endfacet
  facet normal -3.239020e-007  6.860400e-001 -7.275638e-001
    outer loop
      vertex  1.173803e-002 -1.173795e-002  1.584825e-002
      vertex  7.320380e-001 -1.796173e-002  9.979362e-003
      vertex  1.796173e-002 -1.796206e-002  9.979362e-003
    endloop
  endfacet
  facet normal -2.578898e-007  5.462230e-001 -8.376397e-001
    outer loop
      vertex  1.796173e-002 -1.796206e-002  9.979362e-003
      vertex  7.320380e-001 -1.796173e-002  9.979362e-003
      vertex  7.252266e-001 -2.477287e-002  5.537832e-003
    endloop
  endfacet
  facet normal -4.241250e-007  5.462109e-001 -8.376476e-001
    outer loop
      vertex  1.796173e-002 -1.796206e-002  9.979362e-003
      vertex  7.252266e-001 -2.477287e-002  5.537832e-003
      vertex  2.477287e-002 -2.477341e-002  5.537832e-003
    endloop
  endfacet
  facet normal -3.224250e-007  4.152362e-001 -9.097136e-001
    outer loop
      vertex  2.477287e-002 -2.477341e-002  5.537832e-003
      vertex  7.252266e-001 -2.477287e-002  5.537832e-003
      vertex  7.198742e-001 -3.012551e-002  3.094637e-003
    endloop
  endfacet
  facet normal -1.827838e-007  4.152512e-001 -9.097068e-001
    outer loop
      vertex  2.477287e-002 -2.477341e-002  5.537832e-003
      vertex  7.198742e-001 -3.012551e-002  3.094637e-003
      vertex  3.012551e-002 -3.012581e-002  3.094637e-003
    endloop
  endfacet
  facet normal -1.318047e-007  2.994360e-001 -9.541163e-001
    outer loop
      vertex  3.012551e-002 -3.012581e-002  3.094637e-003
      vertex  7.198742e-001 -3.012551e-002  3.094637e-003
      vertex  7.143949e-001 -3.560509e-002  1.374948e-003
    endloop
  endfacet
  facet normal  0.000000e+000  2.994510e-001 -9.541117e-001
    outer loop
      vertex  3.012551e-002 -3.012581e-002  3.094637e-003
      vertex  7.143949e-001 -3.560509e-002  1.374948e-003
      vertex  3.560509e-002 -3.560509e-002  1.374948e-003
    endloop
  endfacet
  facet normal  0.000000e+000  9.980806e-001 -6.192828e-002
    outer loop
      vertex  2.870266e-018  0.000000e+000  4.687500e-002
      vertex  7.500000e-001  0.000000e+000  4.687500e-002
      vertex  3.595417e-004 -3.595417e-004  4.108037e-002
    endloop
  endfacet
  facet normal  0.000000e+000  9.980806e-001 -6.192827e-002
    outer loop
      vertex  3.595417e-004 -3.595417e-004  4.108037e-002
      vertex  7.500000e-001  0.000000e+000  4.687500e-002
      vertex  7.496405e-001 -3.595417e-004  4.108037e-002
    endloop
  endfacet
  facet normal  0.000000e+000  9.830132e-001 -1.835348e-001
    outer loop
      vertex  3.595417e-004 -3.595417e-004  4.108037e-002
      vertex  7.496405e-001 -3.595417e-004  4.108037e-002
      vertex  7.485976e-001 -1.402388e-003  3.549488e-002
    endloop
  endfacet
  facet normal -1.211037e-001  0.000000e+000 -9.926399e-001
    outer loop
      vertex  4.687500e-002 -4.687500e-002 -2.870266e-018
      vertex  3.560509e-002 -3.393949e-001  1.374948e-003
      vertex  3.560509e-002 -3.560509e-002  1.374948e-003
    endloop
  endfacet
  facet normal -1.211037e-001  0.000000e+000 -9.926398e-001
    outer loop
      vertex  4.687500e-002 -4.687500e-002 -2.870266e-018
      vertex  4.687500e-002 -3.281250e-001 -2.870266e-018
      vertex  3.560509e-002 -3.393949e-001  1.374948e-003
    endloop
  endfacet
  facet normal -2.994510e-001  0.000000e+000 -9.541118e-001
    outer loop
      vertex  3.560509e-002 -3.560509e-002  1.374948e-003
      vertex  3.560509e-002 -3.393949e-001  1.374948e-003
      vertex  3.012581e-002 -3.448745e-001  3.094637e-003
    endloop
  endfacet
  facet normal -2.994362e-001 -2.888405e-007 -9.541163e-001
    outer loop
      vertex  3.560509e-002 -3.560509e-002  1.374948e-003
      vertex  3.012581e-002 -3.448745e-001  3.094637e-003
      vertex  3.012551e-002 -3.012581e-002  3.094637e-003
    endloop
  endfacet
  facet normal -4.152510e-001 -4.005572e-007 -9.097069e-001
    outer loop
      vertex  3.012551e-002 -3.012581e-002  3.094637e-003
      vertex  3.012581e-002 -3.448745e-001  3.094637e-003
      vertex  2.477341e-002 -3.502271e-001  5.537832e-003
    endloop
  endfacet
  facet normal -4.152365e-001 -6.939358e-007 -9.097136e-001
    outer loop
      vertex  3.012551e-002 -3.012581e-002  3.094637e-003
      vertex  2.477341e-002 -3.502271e-001  5.537832e-003
      vertex  2.477287e-002 -2.477341e-002  5.537832e-003
    endloop
  endfacet
  facet normal -5.462106e-001 -9.128173e-007 -8.376479e-001
    outer loop
      vertex  2.477287e-002 -2.477341e-002  5.537832e-003
      vertex  2.477341e-002 -3.502271e-001  5.537832e-003
      vertex  1.796206e-002 -3.570383e-001  9.979362e-003
    endloop
  endfacet
  facet normal -5.462232e-001 -5.431021e-007 -8.376396e-001
    outer loop
      vertex  2.477287e-002 -2.477341e-002  5.537832e-003
      vertex  1.796206e-002 -3.570383e-001  9.979362e-003
      vertex  1.796173e-002 -1.796206e-002  9.979362e-003
    endloop
  endfacet
  facet normal -6.860399e-001 -6.821199e-007 -7.275639e-001
    outer loop
      vertex  1.796173e-002 -1.796206e-002  9.979362e-003
      vertex  1.796206e-002 -3.570383e-001  9.979362e-003
      vertex  1.173795e-002 -3.632620e-001  1.584825e-002
    endloop
  endfacet
  facet normal -6.860645e-001  1.581355e-007 -7.275407e-001
    outer loop
      vertex  1.796173e-002 -1.796206e-002  9.979362e-003
      vertex  1.173795e-002 -3.632620e-001  1.584825e-002
      vertex  1.173803e-002 -1.173795e-002  1.584825e-002
    endloop
  endfacet
  facet normal -7.803234e-001  1.798618e-007 -6.253762e-001
    outer loop
      vertex  1.173803e-002 -1.173795e-002  1.584825e-002
      vertex  1.173795e-002 -3.632620e-001  1.584825e-002
      vertex  8.939953e-003 -3.660600e-001  1.933950e-002
    endloop
  endfacet
  facet normal -7.803230e-001  1.709384e-007 -6.253767e-001
    outer loop
      vertex  1.173803e-002 -1.173795e-002  1.584825e-002
      vertex  8.939953e-003 -3.660600e-001  1.933950e-002
      vertex  8.940031e-003 -8.939953e-003  1.933950e-002
    endloop
  endfacet
  facet normal -8.372629e-001  1.834117e-007 -5.468004e-001
    outer loop
      vertex  8.940031e-003 -8.939953e-003  1.933950e-002
      vertex  8.939953e-003 -3.660600e-001  1.933950e-002
      vertex  6.412751e-003 -3.685873e-001  2.320916e-002
    endloop
  endfacet
  facet normal -8.372551e-001  0.000000e+000 -5.468125e-001
    outer loop
      vertex  8.940031e-003 -8.939953e-003  1.933950e-002
      vertex  6.412751e-003 -3.685873e-001  2.320916e-002
      vertex  6.412751e-003 -6.412751e-003  2.320916e-002
    endloop
  endfacet
  facet normal -9.012716e-001  0.000000e+000 -4.332546e-001
    outer loop
      vertex  6.412751e-003 -6.412751e-003  2.320916e-002
      vertex  6.412751e-003 -3.685873e-001  2.320916e-002
      vertex  3.120972e-003 -3.718790e-001  3.005683e-002
    endloop
  endfacet
  facet normal -9.012716e-001  0.000000e+000 -4.332546e-001
    outer loop
      vertex  6.412751e-003 -6.412751e-003  2.320916e-002
      vertex  3.120972e-003 -3.718790e-001  3.005683e-002
      vertex  3.120972e-003 -3.120972e-003  3.005683e-002
    endloop
  endfacet
  facet normal -9.535168e-001  0.000000e+000 -3.013398e-001
    outer loop
      vertex  3.120972e-003 -3.120972e-003  3.005683e-002
      vertex  3.120972e-003 -3.718790e-001  3.005683e-002
      vertex  1.402388e-003 -3.735976e-001  3.549488e-002
    endloop
  endfacet
  facet normal -9.535168e-001  0.000000e+000 -3.013398e-001
    outer loop
      vertex  3.120972e-003 -3.120972e-003  3.005683e-002
      vertex  1.402388e-003 -3.735976e-001  3.549488e-002
      vertex  1.402388e-003 -1.402388e-003  3.549488e-002
    endloop
  endfacet
  facet normal -9.830132e-001  0.000000e+000 -1.835348e-001
    outer loop
      vertex  1.402388e-003 -1.402388e-003  3.549488e-002
      vertex  1.402388e-003 -3.735976e-001  3.549488e-002
      vertex  3.595417e-004 -3.746405e-001  4.108037e-002
    endloop
  endfacet
  facet normal -9.980806e-001  -0.000000e+000 -6.192828e-002
    outer loop
      vertex  2.870266e-018 -3.750000e-001  4.687500e-002
      vertex  2.870266e-018  0.000000e+000  4.687500e-002
      vertex  3.595417e-004 -3.746405e-001  4.108037e-002
    endloop
  endfacet
  facet normal -9.980806e-001  0.000000e+000 -6.192827e-002
    outer loop
      vertex  3.595417e-004 -3.746405e-001  4.108037e-002
      vertex  2.870266e-018  0.000000e+000  4.687500e-002
      vertex  3.595417e-004 -3.595417e-004  4.108037e-002
    endloop
  endfacet
  facet normal -9.830132e-001  -0.000000e+000 -1.835348e-001
    outer loop
      vertex  3.595417e-004 -3.746405e-001  4.108037e-002
      vertex  3.595417e-004 -3.595417e-004  4.108037e-002
      vertex  1.402388e-003 -1.402388e-003  3.549488e-002
    endloop
  endfacet
  facet normal  -0.000000e+000 -1.211038e-001 -9.926399e-001
    outer loop
      vertex  4.687500e-002 -3.281250e-001 -2.870266e-018
      vertex  7.143949e-001 -3.393949e-001  1.374948e-003
      vertex  3.560509e-002 -3.393949e-001  1.374948e-003
    endloop
  endfacet
  facet normal -6.078166e-017 -1.211038e-001 -9.926398e-001
    outer loop
      vertex  4.687500e-002 -3.281250e-001 -2.870266e-018
      vertex  7.031250e-001 -3.281250e-001 -4.305399e-017
      vertex  7.143949e-001 -3.393949e-001  1.374948e-003
    endloop
  endfacet
  facet normal  -0.000000e+000 -2.994511e-001 -9.541117e-001
    outer loop
      vertex  3.560509e-002 -3.393949e-001  1.374948e-003
      vertex  7.143949e-001 -3.393949e-001  1.374948e-003
      vertex  7.198745e-001 -3.448742e-001  3.094637e-003
    endloop
  endfacet
  facet normal  1.423162e-007 -2.994349e-001 -9.541167e-001
    outer loop
      vertex  3.560509e-002 -3.393949e-001  1.374948e-003
      vertex  7.198745e-001 -3.448742e-001  3.094637e-003
      vertex  3.012581e-002 -3.448745e-001  3.094637e-003
    endloop
  endfacet
  facet normal  1.973614e-007 -4.152507e-001 -9.097070e-001
    outer loop
      vertex  3.012581e-002 -3.448745e-001  3.094637e-003
      vertex  7.198745e-001 -3.448742e-001  3.094637e-003
      vertex  7.252271e-001 -3.502266e-001  5.537832e-003
    endloop
  endfacet
  facet normal  3.180095e-007 -4.152378e-001 -9.097130e-001
    outer loop
      vertex  3.012581e-002 -3.448745e-001  3.094637e-003
      vertex  7.252271e-001 -3.502266e-001  5.537832e-003
      vertex  2.477341e-002 -3.502271e-001  5.537832e-003
    endloop
  endfacet
  facet normal  4.183151e-007 -5.462109e-001 -8.376476e-001
    outer loop
      vertex  2.477341e-002 -3.502271e-001  5.537832e-003
      vertex  7.252271e-001 -3.502266e-001  5.537832e-003
      vertex  7.320383e-001 -3.570379e-001  9.979362e-003
    endloop
  endfacet
  facet normal  2.735619e-007 -5.462215e-001 -8.376409e-001
    outer loop
      vertex  2.477341e-002 -3.502271e-001  5.537832e-003
      vertex  7.320383e-001 -3.570379e-001  9.979362e-003
      vertex  1.796206e-002 -3.570383e-001  9.979362e-003
    endloop
  endfacet
  facet normal  3.435862e-007 -6.860391e-001 -7.275646e-001
    outer loop
      vertex  1.796206e-002 -3.570383e-001  9.979362e-003
      vertex  7.320383e-001 -3.570379e-001  9.979362e-003
      vertex  7.382619e-001 -3.632621e-001  1.584825e-002
    endloop
  endfacet
  facet normal -8.442808e-008 -6.860654e-001 -7.275399e-001
    outer loop
      vertex  1.796206e-002 -3.570383e-001  9.979362e-003
      vertex  7.382619e-001 -3.632621e-001  1.584825e-002
      vertex  1.173795e-002 -3.632620e-001  1.584825e-002
    endloop
  endfacet
  facet normal -9.602770e-008 -7.803243e-001 -6.253751e-001
    outer loop
      vertex  1.173795e-002 -3.632620e-001  1.584825e-002
      vertex  7.382619e-001 -3.632621e-001  1.584825e-002
      vertex  7.410600e-001 -3.660600e-001  1.933950e-002
    endloop
  endfacet
  facet normal -9.529369e-008 -7.803242e-001 -6.253752e-001
    outer loop
      vertex  1.173795e-002 -3.632620e-001  1.584825e-002
      vertex  7.410600e-001 -3.660600e-001  1.933950e-002
      vertex  8.939953e-003 -3.660600e-001  1.933950e-002
    endloop
  endfacet
  facet normal -1.022470e-007 -8.372624e-001 -5.468013e-001
    outer loop
      vertex  8.939953e-003 -3.660600e-001  1.933950e-002
      vertex  7.410600e-001 -3.660600e-001  1.933950e-002
      vertex  7.435873e-001 -3.685873e-001  2.320916e-002
    endloop
  endfacet
  facet normal  -0.000000e+000 -8.372536e-001 -5.468149e-001
    outer loop
      vertex  8.939953e-003 -3.660600e-001  1.933950e-002
      vertex  7.435873e-001 -3.685873e-001  2.320916e-002
      vertex  6.412751e-003 -3.685873e-001  2.320916e-002
    endloop
  endfacet
  facet normal  -0.000000e+000 -9.012712e-001 -4.332554e-001
    outer loop
      vertex  6.412751e-003 -3.685873e-001  2.320916e-002
      vertex  7.435873e-001 -3.685873e-001  2.320916e-002
      vertex  7.468790e-001 -3.718790e-001  3.005683e-002
    endloop
  endfacet
  facet normal  -0.000000e+000 -9.012712e-001 -4.332554e-001
    outer loop
      vertex  6.412751e-003 -3.685873e-001  2.320916e-002
      vertex  7.468790e-001 -3.718790e-001  3.005683e-002
      vertex  3.120972e-003 -3.718790e-001  3.005683e-002
    endloop
  endfacet
  facet normal  -0.000000e+000 -9.535171e-001 -3.013392e-001
    outer loop
      vertex  3.120972e-003 -3.718790e-001  3.005683e-002
      vertex  7.468790e-001 -3.718790e-001  3.005683e-002
      vertex  7.485976e-001 -3.735976e-001  3.549488e-002
    endloop
  endfacet
  facet normal  -0.000000e+000 -9.535171e-001 -3.013392e-001
    outer loop
      vertex  3.120972e-003 -3.718790e-001  3.005683e-002
      vertex  7.485976e-001 -3.735976e-001  3.549488e-002
      vertex  1.402388e-003 -3.735976e-001  3.549488e-002
    endloop
  endfacet
  facet normal  -0.000000e+000 -9.830133e-001 -1.835343e-001
    outer loop
      vertex  1.402388e-003 -3.735976e-001  3.549488e-002
      vertex  7.485976e-001 -3.735976e-001  3.549488e-002
      vertex  7.496405e-001 -3.746405e-001  4.108037e-002
    endloop
  endfacet
  facet normal  0.000000e+000 -9.980807e-001 -6.192716e-002
    outer loop
      vertex  7.500000e-001 -3.750000e-001  4.687500e-002
      vertex  2.870266e-018 -3.750000e-001  4.687500e-002
      vertex  7.496405e-001 -3.746405e-001  4.108037e-002
    endloop
  endfacet
  facet normal  -0.000000e+000 -9.980807e-001 -6.192716e-002
    outer loop
      vertex  7.496405e-001 -3.746405e-001  4.108037e-002
      vertex  2.870266e-018 -3.750000e-001  4.687500e-002
      vertex  3.595417e-004 -3.746405e-001  4.108037e-002
    endloop
  endfacet
  facet normal  0.000000e+000 -9.830133e-001 -1.835342e-001
    outer loop
      vertex  7.496405e-001 -3.746405e-001  4.108037e-002
      vertex  3.595417e-004 -3.746405e-001  4.108037e-002
      vertex  1.402388e-003 -3.735976e-001  3.549488e-002
    endloop
  endfacet
  facet normal  1.211035e-001  0.000000e+000 -9.926398e-001
    outer loop
      vertex  7.031250e-001 -3.281250e-001 -4.305399e-017
      vertex  7.143949e-001 -3.560509e-002  1.374948e-003
      vertex  7.143949e-001 -3.393949e-001  1.374948e-003
    endloop
  endfacet
  facet normal  1.211035e-001  0.000000e+000 -9.926399e-001
    outer loop
      vertex  7.031250e-001 -3.281250e-001 -4.305399e-017
      vertex  7.031250e-001 -4.687500e-002 -4.305399e-017
      vertex  7.143949e-001 -3.560509e-002  1.374948e-003
    endloop
  endfacet
  facet normal  9.830133e-001  0.000000e+000 -1.835343e-001
    outer loop
      vertex  7.496405e-001 -3.595417e-004  4.108037e-002
      vertex  7.485976e-001 -3.735976e-001  3.549488e-002
      vertex  7.485976e-001 -1.402388e-003  3.549488e-002
    endloop
  endfacet
  facet normal  9.535170e-001  0.000000e+000 -3.013392e-001
    outer loop
      vertex  7.485976e-001 -1.402388e-003  3.549488e-002
      vertex  7.485976e-001 -3.735976e-001  3.549488e-002
      vertex  7.468790e-001 -3.718790e-001  3.005683e-002
    endloop
  endfacet
  facet normal  9.535170e-001  0.000000e+000 -3.013392e-001
    outer loop
      vertex  7.485976e-001 -1.402388e-003  3.549488e-002
      vertex  7.468790e-001 -3.718790e-001  3.005683e-002
      vertex  7.468790e-001 -3.120972e-003  3.005683e-002
    endloop
  endfacet
  facet normal  9.012712e-001  0.000000e+000 -4.332554e-001
    outer loop
      vertex  7.468790e-001 -3.120972e-003  3.005683e-002
      vertex  7.468790e-001 -3.718790e-001  3.005683e-002
      vertex  7.435873e-001 -3.685873e-001  2.320916e-002
    endloop
  endfacet
  facet normal  9.012711e-001  0.000000e+000 -4.332554e-001
    outer loop
      vertex  7.468790e-001 -3.120972e-003  3.005683e-002
      vertex  7.435873e-001 -3.685873e-001  2.320916e-002
      vertex  7.435873e-001 -6.412751e-003  2.320916e-002
    endloop
  endfacet
  facet normal  8.372535e-001  0.000000e+000 -5.468149e-001
    outer loop
      vertex  7.435873e-001 -6.412751e-003  2.320916e-002
      vertex  7.435873e-001 -3.685873e-001  2.320916e-002
      vertex  7.410600e-001 -3.660600e-001  1.933950e-002
    endloop
  endfacet
  facet normal  8.372595e-001 -1.397417e-007 -5.468058e-001
    outer loop
      vertex  7.435873e-001 -6.412751e-003  2.320916e-002
      vertex  7.410600e-001 -3.660600e-001  1.933950e-002
      vertex  7.410600e-001 -8.940031e-003  1.933950e-002
    endloop
  endfacet
  facet normal  7.803209e-001 -1.302384e-007 -6.253793e-001
    outer loop
      vertex  7.410600e-001 -8.940031e-003  1.933950e-002
      vertex  7.410600e-001 -3.660600e-001  1.933950e-002
      vertex  7.382619e-001 -3.632621e-001  1.584825e-002
    endloop
  endfacet
  facet normal  7.803276e-001 -2.646257e-007 -6.253709e-001
    outer loop
      vertex  7.410600e-001 -8.940031e-003  1.933950e-002
      vertex  7.382619e-001 -3.632621e-001  1.584825e-002
      vertex  7.382621e-001 -1.173803e-002  1.584825e-002
    endloop
  endfacet
  facet normal  6.860653e-001 -2.326594e-007 -7.275400e-001
    outer loop
      vertex  7.382621e-001 -1.173803e-002  1.584825e-002
      vertex  7.382619e-001 -3.632621e-001  1.584825e-002
      vertex  7.320383e-001 -3.570379e-001  9.979362e-003
    endloop
  endfacet
  facet normal  6.860408e-001  6.029797e-007 -7.275631e-001
    outer loop
      vertex  7.382621e-001 -1.173803e-002  1.584825e-002
      vertex  7.320383e-001 -3.570379e-001  9.979362e-003
      vertex  7.320380e-001 -1.796173e-002  9.979362e-003
    endloop
  endfacet
  facet normal  5.462233e-001  4.800904e-007 -8.376396e-001
    outer loop
      vertex  7.320380e-001 -1.796173e-002  9.979362e-003
      vertex  7.320383e-001 -3.570379e-001  9.979362e-003
      vertex  7.252271e-001 -3.502266e-001  5.537832e-003
    endloop
  endfacet
  facet normal  5.462089e-001  9.003102e-007 -8.376490e-001
    outer loop
      vertex  7.320380e-001 -1.796173e-002  9.979362e-003
      vertex  7.252271e-001 -3.502266e-001  5.537832e-003
      vertex  7.252266e-001 -2.477287e-002  5.537832e-003
    endloop
  endfacet
  facet normal  4.152380e-001  6.844323e-007 -9.097128e-001
    outer loop
      vertex  7.252266e-001 -2.477287e-002  5.537832e-003
      vertex  7.252271e-001 -3.502266e-001  5.537832e-003
      vertex  7.198745e-001 -3.448742e-001  3.094637e-003
    endloop
  endfacet
  facet normal  4.152525e-001  3.931863e-007 -9.097062e-001
    outer loop
      vertex  7.252266e-001 -2.477287e-002  5.537832e-003
      vertex  7.198745e-001 -3.448742e-001  3.094637e-003
      vertex  7.198742e-001 -3.012551e-002  3.094637e-003
    endloop
  endfacet
  facet normal  2.994366e-001  2.835248e-007 -9.541163e-001
    outer loop
      vertex  7.198742e-001 -3.012551e-002  3.094637e-003
      vertex  7.198745e-001 -3.448742e-001  3.094637e-003
      vertex  7.143949e-001 -3.393949e-001  1.374948e-003
    endloop
  endfacet
  facet normal  2.994511e-001  0.000000e+000 -9.541116e-001
    outer loop
      vertex  7.198742e-001 -3.012551e-002  3.094637e-003
      vertex  7.143949e-001 -3.393949e-001  1.374948e-003
      vertex  7.143949e-001 -3.560509e-002  1.374948e-003
    endloop
  endfacet
  facet normal  9.980807e-001  0.000000e+000 -6.192716e-002
    outer loop
      vertex  7.500000e-001  0.000000e+000  4.687500e-002
      vertex  7.500000e-001 -3.750000e-001  4.687500e-002
      vertex  7.496405e-001 -3.595417e-004  4.108037e-002
    endloop
  endfacet
  facet normal  9.980807e-001  0.000000e+000 -6.192715e-002
    outer loop
      vertex  7.496405e-001 -3.595417e-004  4.108037e-002
      vertex  7.500000e-001 -3.750000e-001  4.687500e-002
      vertex  7.496405e-001 -3.746405e-001  4.108037e-002
    endloop
  endfacet
  facet normal  9.830133e-001  0.000000e+000 -1.835342e-001
    outer loop
      vertex  7.496405e-001 -3.595417e-004  4.108037e-002
      vertex  7.496405e-001 -3.746405e-001  4.108037e-002
      vertex  7.485976e-001 -3.735976e-001  3.549488e-002
    endloop
  endfacet
  facet normal  0.000000e+000  0.000000e+000  1.000000e+000
    outer loop
      vertex  7.500000e-001 -3.750000e-001  2.526316e-001
      vertex  7.500000e-001  0.000000e+000  2.526316e-001
      vertex  1.546922e-017 -3.750000e-001  2.526316e-001
    endloop
  endfacet
  facet normal  0.000000e+000  0.000000e+000  1.000000e+000
    outer loop
      vertex  1.546922e-017 -3.750000e-001  2.526316e-001
      vertex  7.500000e-001  0.000000e+000  2.526316e-001
      vertex  1.546922e-017  0.000000e+000  2.526316e-001
    endloop
  endfacet
endsolid CATIA STL
