solid CATIA STL
  facet normal  -0.000000e+000  0.000000e+000 -1.000000e+000
    outer loop
      vertex -3.750000e-001  7.500000e-001  0.000000e+000
      vertex  3.910362e-001  7.500000e-001  0.000000e+000
      vertex -3.984375e-001  7.421875e-001  0.000000e+000
    endloop
  endfacet
  facet normal  0.000000e+000  0.000000e+000 -1.000000e+000
    outer loop
      vertex -3.984375e-001  7.421875e-001  0.000000e+000
      vertex  3.910362e-001  7.500000e-001  0.000000e+000
      vertex  3.910362e-001 -6.875000e-001  0.000000e+000
    endloop
  endfacet
  facet normal  0.000000e+000  0.000000e+000 -1.000000e+000
    outer loop
      vertex -3.984375e-001  7.421875e-001  0.000000e+000
      vertex  3.910362e-001 -6.875000e-001  0.000000e+000
      vertex -3.984375e-001 -6.875000e-001  0.000000e+000
    endloop
  endfacet
  facet normal -1.000000e+000  0.000000e+000  0.000000e+000
    outer loop
      vertex -3.984375e-001  7.421875e-001  4.843750e-001
      vertex -3.984375e-001  7.421875e-001  0.000000e+000
      vertex -3.984375e-001 -7.500000e-001  4.843750e-001
    endloop
  endfacet
  facet normal -1.000000e+000  0.000000e+000  0.000000e+000
    outer loop
      vertex -3.984375e-001 -7.500000e-001  4.843750e-001
      vertex -3.984375e-001  7.421875e-001  0.000000e+000
      vertex -3.984375e-001 -6.875000e-001  0.000000e+000
    endloop
  endfacet
  facet normal -9.999999e-001  0.000000e+000  0.000000e+000
    outer loop
      vertex -3.984375e-001 -7.500000e-001  4.843750e-001
      vertex -3.984375e-001 -6.875000e-001  0.000000e+000
      vertex -3.984375e-001 -7.500000e-001  7.812500e-003
    endloop
  endfacet
  facet normal  0.000000e+000  0.000000e+000  1.000000e+000
    outer loop
      vertex -3.984375e-001 -7.500000e-001  4.843750e-001
      vertex  3.910362e-001 -7.500000e-001  4.843750e-001
      vertex -3.984375e-001  7.421875e-001  4.843750e-001
    endloop
  endfacet
  facet normal  -0.000000e+000  0.000000e+000  1.000000e+000
    outer loop
      vertex -3.984375e-001  7.421875e-001  4.843750e-001
      vertex  3.910362e-001 -7.500000e-001  4.843750e-001
      vertex  3.910362e-001  7.500000e-001  4.843750e-001
    endloop
  endfacet
  facet normal  0.000000e+000  0.000000e+000  1.000000e+000
    outer loop
      vertex -3.984375e-001  7.421875e-001  4.843750e-001
      vertex  3.910362e-001  7.500000e-001  4.843750e-001
      vertex -3.750000e-001  7.500000e-001  4.843750e-001
    endloop
  endfacet
  facet normal  0.000000e+000  1.000000e+000  -0.000000e+000
    outer loop
      vertex  3.910362e-001  7.500000e-001  4.843750e-001
      vertex  3.910362e-001  7.500000e-001  0.000000e+000
      vertex -3.750000e-001  7.500000e-001  4.843750e-001
    endloop
  endfacet
  facet normal  0.000000e+000  1.000000e+000  0.000000e+000
    outer loop
      vertex -3.750000e-001  7.500000e-001  4.843750e-001
      vertex  3.910362e-001  7.500000e-001  0.000000e+000
      vertex -3.750000e-001  7.500000e-001  0.000000e+000
    endloop
  endfacet
  facet normal -3.162278e-001  9.486833e-001  0.000000e+000
    outer loop
      vertex -3.750000e-001  7.500000e-001  4.843750e-001
      vertex -3.750000e-001  7.500000e-001  0.000000e+000
      vertex -3.984375e-001  7.421875e-001  4.843750e-001
    endloop
  endfacet
  facet normal -3.162278e-001  9.486833e-001  0.000000e+000
    outer loop
      vertex -3.984375e-001  7.421875e-001  4.843750e-001
      vertex -3.750000e-001  7.500000e-001  0.000000e+000
      vertex -3.984375e-001  7.421875e-001  0.000000e+000
    endloop
  endfacet
  facet normal  1.000000e+000  0.000000e+000  0.000000e+000
    outer loop
      vertex  3.910362e-001  7.500000e-001  0.000000e+000
      vertex  3.910362e-001  7.500000e-001  4.843750e-001
      vertex  3.910362e-001 -6.875000e-001  0.000000e+000
    endloop
  endfacet
  facet normal  1.000000e+000  0.000000e+000  -0.000000e+000
    outer loop
      vertex  3.910362e-001 -6.875000e-001  0.000000e+000
      vertex  3.910362e-001  7.500000e-001  4.843750e-001
      vertex  3.910362e-001 -7.500000e-001  4.843750e-001
    endloop
  endfacet
  facet normal  9.999999e-001  0.000000e+000  0.000000e+000
    outer loop
      vertex  3.910362e-001 -6.875000e-001  0.000000e+000
      vertex  3.910362e-001 -7.500000e-001  4.843750e-001
      vertex  3.910362e-001 -7.500000e-001  7.812500e-003
    endloop
  endfacet
  facet normal  0.000000e+000 -1.000000e+000  0.000000e+000
    outer loop
      vertex -3.984375e-001 -7.500000e-001  4.843750e-001
      vertex -3.984375e-001 -7.500000e-001  7.812500e-003
      vertex  3.910362e-001 -7.500000e-001  4.843750e-001
    endloop
  endfacet
  facet normal  0.000000e+000 -1.000000e+000  -0.000000e+000
    outer loop
      vertex  3.910362e-001 -7.500000e-001  4.843750e-001
      vertex -3.984375e-001 -7.500000e-001  7.812500e-003
      vertex  3.910362e-001 -7.500000e-001  7.812500e-003
    endloop
  endfacet
  facet normal  0.000000e+000 -1.240347e-001 -9.922778e-001
    outer loop
      vertex -3.984375e-001 -7.500000e-001  7.812500e-003
      vertex -3.984375e-001 -6.875000e-001  0.000000e+000
      vertex  3.910362e-001 -7.500000e-001  7.812500e-003
    endloop
  endfacet
  facet normal  0.000000e+000 -1.240347e-001 -9.922778e-001
    outer loop
      vertex  3.910362e-001 -7.500000e-001  7.812500e-003
      vertex -3.984375e-001 -6.875000e-001  0.000000e+000
      vertex  3.910362e-001 -6.875000e-001  0.000000e+000
    endloop
  endfacet
endsolid CATIA STL
