solid CATIA STL
  facet normal -6.417307e-002  9.979388e-001  0.000000e+000
    outer loop
      vertex -7.109375e-001  4.336809e-018  3.906250e-002
      vertex -7.159407e-001 -3.217309e-004  3.459592e-001
      vertex -7.109375e-001  6.938894e-018  3.498143e-001
    endloop
  endfacet
  facet normal -1.123662e-001  9.936665e-001 -7.901433e-004
    outer loop
      vertex -7.109375e-001  4.336809e-018  3.906250e-002
      vertex -7.197203e-001 -1.000164e-003  3.028123e-002
      vertex -7.159407e-001 -3.217309e-004  3.459592e-001
    endloop
  endfacet
  facet normal -2.085359e-001  9.780147e-001  3.949450e-004
    outer loop
      vertex -7.159407e-001 -3.217309e-004  3.459592e-001
      vertex -7.197203e-001 -1.000164e-003  3.028123e-002
      vertex -7.221458e-001 -1.642550e-003  3.403518e-001
    endloop
  endfacet
  facet normal -3.347768e-001  9.422972e-001 -6.665573e-004
    outer loop
      vertex -7.221458e-001 -1.642550e-003  3.403518e-001
      vertex -7.197203e-001 -1.000164e-003  3.028123e-002
      vertex -7.281817e-001 -4.012275e-003  2.182238e-002
    endloop
  endfacet
  facet normal -3.728974e-001  9.278725e-001  1.631108e-004
    outer loop
      vertex -7.221458e-001 -1.642550e-003  3.403518e-001
      vertex -7.281817e-001 -4.012275e-003  2.182238e-002
      vertex -7.287296e-001 -4.287210e-003  3.331286e-001
    endloop
  endfacet
  facet normal -4.974483e-001  8.674936e-001 -1.094420e-004
    outer loop
      vertex -7.287296e-001 -4.287210e-003  3.331286e-001
      vertex -7.281817e-001 -4.012275e-003  2.182238e-002
      vertex -7.324844e-001 -6.480145e-003  1.751918e-002
    endloop
  endfacet
  facet normal -5.302293e-001  8.478543e-001  4.170116e-004
    outer loop
      vertex -7.287296e-001 -4.287210e-003  3.331286e-001
      vertex -7.324844e-001 -6.480145e-003  1.751918e-002
      vertex -7.343866e-001 -7.821178e-003  3.254679e-001
    endloop
  endfacet
  facet normal -6.050257e-001  7.962059e-001 -2.699115e-004
    outer loop
      vertex -7.343866e-001 -7.821178e-003  3.254679e-001
      vertex -7.324844e-001 -6.480145e-003  1.751918e-002
      vertex -7.365693e-001 -9.585577e-003  1.343260e-002
    endloop
  endfacet
  facet normal -6.634970e-001  7.481787e-001  4.106708e-004
    outer loop
      vertex -7.343866e-001 -7.821178e-003  3.254679e-001
      vertex -7.365693e-001 -9.585577e-003  1.343260e-002
      vertex -7.391236e-001 -1.201767e-002  3.174913e-001
    endloop
  endfacet
  facet normal -7.003150e-001  7.138339e-001 -1.733405e-004
    outer loop
      vertex -7.365693e-001 -9.585577e-003  1.343260e-002
      vertex -7.399257e-001 -1.287928e-002  1.007474e-002
      vertex -7.391236e-001 -1.201767e-002  3.174913e-001
    endloop
  endfacet
  facet normal -7.732191e-001  6.341388e-001  2.402591e-004
    outer loop
      vertex -7.429616e-001 -1.669439e-002  3.093029e-001
      vertex -7.391236e-001 -1.201767e-002  3.174913e-001
      vertex -7.399257e-001 -1.287928e-002  1.007474e-002
    endloop
  endfacet
  facet normal -7.826396e-001  6.224751e-001 -4.029824e-006
    outer loop
      vertex -7.429616e-001 -1.669439e-002  3.093029e-001
      vertex -7.399257e-001 -1.287928e-002  1.007474e-002
      vertex -7.429730e-001 -1.671059e-002  7.027034e-003
    endloop
  endfacet
  facet normal -8.637693e-001  5.038875e-001  5.363559e-006
    outer loop
      vertex -7.429616e-001 -1.669439e-002  3.093029e-001
      vertex -7.429730e-001 -1.671059e-002  7.027034e-003
      vertex -7.461622e-001 -2.217763e-002  3.837792e-003
    endloop
  endfacet
  facet normal -8.958188e-001  4.444171e-001  1.408692e-003
    outer loop
      vertex -7.480724e-001 -2.694331e-002  2.925805e-001
      vertex -7.429616e-001 -1.669439e-002  3.093029e-001
      vertex -7.461622e-001 -2.217763e-002  3.837792e-003
    endloop
  endfacet
  facet normal -9.262094e-001  3.770096e-001  9.508329e-005
    outer loop
      vertex -7.480724e-001 -2.694331e-002  2.925805e-001
      vertex -7.461622e-001 -2.217763e-002  3.837792e-003
      vertex -7.479399e-001 -2.654438e-002  2.060128e-003
    endloop
  endfacet
  facet normal -9.649172e-001  2.625542e-001 -7.974617e-005
    outer loop
      vertex -7.480724e-001 -2.694331e-002  2.925805e-001
      vertex -7.479399e-001 -2.654438e-002  2.060128e-003
      vertex -7.491813e-001 -3.110721e-002  8.186470e-004
    endloop
  endfacet
  facet normal -9.865348e-001  1.635456e-001  1.415423e-003
    outer loop
      vertex -7.480724e-001 -2.694331e-002  2.925805e-001
      vertex -7.491813e-001 -3.110721e-002  8.186470e-004
      vertex -7.497004e-001 -3.423364e-002  2.996181e-004
    endloop
  endfacet
  facet normal -9.980877e-001  6.168226e-002  4.020534e-003
    outer loop
      vertex -7.480724e-001 -2.694331e-002  2.925805e-001
      vertex -7.497004e-001 -3.423364e-002  2.996181e-004
      vertex -7.500000e-001 -3.906250e-002  8.497695e-034
    endloop
  endfacet
  facet normal -9.875866e-001  1.570755e-001  0.000000e+000
    outer loop
      vertex -7.480724e-001 -2.694331e-002  2.925805e-001
      vertex -7.500000e-001 -3.906250e-002  8.497695e-034
      vertex -7.500000e-001 -3.906250e-002  2.736675e-001
    endloop
  endfacet
  facet normal  2.817848e-001  9.171995e-001  2.816778e-001
    outer loop
      vertex -3.149081e-001 -1.946365e-003  2.688583e-002
      vertex -6.548702e-001 -2.078379e-003  3.674069e-001
      vertex -6.459956e-001 -4.634796e-003  3.668531e-001
    endloop
  endfacet
  facet normal  3.216665e-001  8.910284e-001  3.203108e-001
    outer loop
      vertex -3.149081e-001 -1.946365e-003  2.688583e-002
      vertex -6.459956e-001 -4.634796e-003  3.668531e-001
      vertex -2.887881e-001 -7.487225e-003  1.606867e-002
    endloop
  endfacet
  facet normal  3.963146e-001  8.279212e-001  3.968389e-001
    outer loop
      vertex -6.459956e-001 -4.634796e-003  3.668531e-001
      vertex -6.346346e-001 -9.131925e-003  3.648895e-001
      vertex -2.887881e-001 -7.487225e-003  1.606867e-002
    endloop
  endfacet
  facet normal  4.653680e-001  7.531621e-001  4.649510e-001
    outer loop
      vertex -2.761665e-001 -1.205721e-002  1.083851e-002
      vertex -2.887881e-001 -7.487225e-003  1.606867e-002
      vertex -6.346346e-001 -9.131925e-003  3.648895e-001
    endloop
  endfacet
  facet normal  5.044121e-001  7.004473e-001  5.049178e-001
    outer loop
      vertex -6.346346e-001 -9.131925e-003  3.648895e-001
      vertex -6.239752e-001 -1.449902e-002  3.616863e-001
      vertex -2.761665e-001 -1.205721e-002  1.083851e-002
    endloop
  endfacet
  facet normal  5.502974e-001  6.283142e-001  5.499036e-001
    outer loop
      vertex -2.661847e-001 -1.718095e-002  6.703939e-003
      vertex -2.761665e-001 -1.205721e-002  1.083851e-002
      vertex -6.239752e-001 -1.449902e-002  3.616863e-001
    endloop
  endfacet
  facet normal  5.880519e-001  5.548411e-001  5.885119e-001
    outer loop
      vertex -6.239752e-001 -1.449902e-002  3.616863e-001
      vertex -6.140940e-001 -2.043036e-002  3.574047e-001
      vertex -2.661847e-001 -1.718095e-002  6.703939e-003
    endloop
  endfacet
  facet normal  6.177173e-001  4.871842e-001  6.173143e-001
    outer loop
      vertex -2.661847e-001 -1.718095e-002  6.703939e-003
      vertex -6.140940e-001 -2.043036e-002  3.574047e-001
      vertex -2.582911e-001 -2.304659e-002  3.434288e-003
    endloop
  endfacet
  facet normal  7.066523e-001  3.584642e-002  7.066523e-001
    outer loop
      vertex -5.899587e-001 -3.906250e-002  3.399587e-001
      vertex -2.500000e-001 -3.906250e-002 -3.061617e-017
      vertex -2.502424e-001 -3.626384e-002  1.003847e-004
    endloop
  endfacet
  facet normal  5.399366e-002  9.970804e-001  5.399366e-002
    outer loop
      vertex -3.443052e-001  4.504117e-017  3.906250e-002
      vertex -6.714240e-001  8.723684e-018  3.661813e-001
      vertex -6.639329e-001 -4.555215e-004  3.671021e-001
    endloop
  endfacet
  facet normal  1.684413e-001  9.717236e-001  1.654713e-001
    outer loop
      vertex -3.443052e-001  4.504117e-017  3.906250e-002
      vertex -6.639329e-001 -4.555215e-004  3.671021e-001
      vertex -6.548702e-001 -2.078379e-003  3.674069e-001
    endloop
  endfacet
  facet normal  1.117446e-001  9.874117e-001  1.119440e-001
    outer loop
      vertex -3.443052e-001  4.504117e-017  3.906250e-002
      vertex -6.548702e-001 -2.078379e-003  3.674069e-001
      vertex -3.149081e-001 -1.946365e-003  2.688583e-002
    endloop
  endfacet
  facet normal  7.007943e-001  1.292030e-001  7.015655e-001
    outer loop
      vertex -6.019825e-001 -2.898962e-002  3.501142e-001
      vertex -5.899587e-001 -3.906250e-002  3.399587e-001
      vertex -2.502424e-001 -3.626384e-002  1.003847e-004
    endloop
  endfacet
  facet normal  7.031993e-001  9.433387e-002  7.047070e-001
    outer loop
      vertex -6.019825e-001 -2.898962e-002  3.501142e-001
      vertex -2.502424e-001 -3.626384e-002  1.003847e-004
      vertex -2.506528e-001 -3.447408e-002  2.704218e-004
    endloop
  endfacet
  facet normal  6.998038e-001  1.394591e-001  7.005897e-001
    outer loop
      vertex -6.019825e-001 -2.898962e-002  3.501142e-001
      vertex -2.506528e-001 -3.447408e-002  2.704218e-004
      vertex -2.512420e-001 -3.274373e-002  5.144505e-004
    endloop
  endfacet
  facet normal  6.950223e-001  1.829372e-001  6.953257e-001
    outer loop
      vertex -6.019825e-001 -2.898962e-002  3.501142e-001
      vertex -2.512420e-001 -3.274373e-002  5.144505e-004
      vertex -2.519870e-001 -3.108618e-002  8.230283e-004
    endloop
  endfacet
  facet normal  6.851802e-001  2.473817e-001  6.850770e-001
    outer loop
      vertex -6.019825e-001 -2.898962e-002  3.501142e-001
      vertex -2.519870e-001 -3.108618e-002  8.230283e-004
      vertex -2.540528e-001 -2.773413e-002  1.678720e-003
    endloop
  endfacet
  facet normal  6.620837e-001  3.505571e-001  6.623858e-001
    outer loop
      vertex -6.019825e-001 -2.898962e-002  3.501142e-001
      vertex -2.540528e-001 -2.773413e-002  1.678720e-003
      vertex -2.582911e-001 -2.304659e-002  3.434288e-003
    endloop
  endfacet
  facet normal  6.567721e-001  3.693514e-001  6.574421e-001
    outer loop
      vertex -6.019825e-001 -2.898962e-002  3.501142e-001
      vertex -2.582911e-001 -2.304659e-002  3.434288e-003
      vertex -6.140940e-001 -2.043036e-002  3.574047e-001
    endloop
  endfacet
  facet normal -1.110223e-016  1.000000e+000 -8.373517e-018
    outer loop
      vertex -3.443052e-001  4.504117e-017  3.906250e-002
      vertex -7.109375e-001  4.336809e-018  3.906250e-002
      vertex -7.109375e-001  6.938894e-018  3.498143e-001
    endloop
  endfacet
  facet normal  1.535852e-017  1.000000e+000  1.407336e-016
    outer loop
      vertex -3.443052e-001  4.504117e-017  3.906250e-002
      vertex -7.109375e-001  6.938894e-018  3.498143e-001
      vertex -6.986586e-001  5.700038e-018  3.572771e-001
    endloop
  endfacet
  facet normal -1.110220e-016  1.000000e+000  3.015341e-022
    outer loop
      vertex -3.443052e-001  4.504117e-017  3.906250e-002
      vertex -6.986586e-001  5.700038e-018  3.572771e-001
      vertex -6.853835e-001  7.173870e-018  3.627758e-001
    endloop
  endfacet
  facet normal -1.110224e-016  1.000000e+000 -9.120459e-023
    outer loop
      vertex -3.443052e-001  4.504117e-017  3.906250e-002
      vertex -6.853835e-001  7.173870e-018  3.627758e-001
      vertex -6.714240e-001  8.723684e-018  3.661813e-001
    endloop
  endfacet
  facet normal -1.000000e+000  -0.000000e+000  0.000000e+000
    outer loop
      vertex -7.500000e-001 -2.500000e-001  2.736675e-001
      vertex -7.500000e-001 -3.906250e-002  2.736675e-001
      vertex -7.500000e-001 -2.500000e-001  0.000000e+000
    endloop
  endfacet
  facet normal -1.000000e+000  0.000000e+000  0.000000e+000
    outer loop
      vertex -7.500000e-001 -2.500000e-001  0.000000e+000
      vertex -7.500000e-001 -3.906250e-002  2.736675e-001
      vertex -7.500000e-001 -3.906250e-002  8.497695e-034
    endloop
  endfacet
  facet normal  7.071068e-001  0.000000e+000  7.071068e-001
    outer loop
      vertex -2.500000e-001 -2.500000e-001 -3.061617e-017
      vertex -2.500000e-001 -3.906250e-002 -3.061617e-017
      vertex -5.899587e-001 -2.500000e-001  3.399587e-001
    endloop
  endfacet
  facet normal  7.071068e-001  -0.000000e+000  7.071068e-001
    outer loop
      vertex -5.899587e-001 -2.500000e-001  3.399587e-001
      vertex -2.500000e-001 -3.906250e-002 -3.061617e-017
      vertex -5.899587e-001 -3.906250e-002  3.399587e-001
    endloop
  endfacet
  facet normal  0.000000e+000 -1.000000e+000  0.000000e+000
    outer loop
      vertex -6.745397e-001 -2.500000e-001  3.656161e-001
      vertex -6.379603e-001 -2.500000e-001  3.656161e-001
      vertex -6.562500e-001 -2.500000e-001  3.674175e-001
    endloop
  endfacet
  facet normal  0.000000e+000 -1.000000e+000  -0.000000e+000
    outer loop
      vertex -6.379603e-001 -2.500000e-001  3.656161e-001
      vertex -6.745397e-001 -2.500000e-001  3.656161e-001
      vertex -6.921266e-001 -2.500000e-001  3.602812e-001
    endloop
  endfacet
  facet normal  0.000000e+000 -1.000000e+000  0.000000e+000
    outer loop
      vertex -6.379603e-001 -2.500000e-001  3.656161e-001
      vertex -6.921266e-001 -2.500000e-001  3.602812e-001
      vertex -6.203734e-001 -2.500000e-001  3.602812e-001
    endloop
  endfacet
  facet normal  0.000000e+000 -1.000000e+000  -0.000000e+000
    outer loop
      vertex -6.203734e-001 -2.500000e-001  3.602812e-001
      vertex -6.921266e-001 -2.500000e-001  3.602812e-001
      vertex -7.083347e-001 -2.500000e-001  3.516178e-001
    endloop
  endfacet
  facet normal  -0.000000e+000 -1.000000e+000  -0.000000e+000
    outer loop
      vertex -2.500000e-001 -2.500000e-001 -3.061617e-017
      vertex -5.899587e-001 -2.500000e-001  3.399587e-001
      vertex -7.225413e-001 -2.500000e-001  3.399587e-001
    endloop
  endfacet
  facet normal  0.000000e+000 -1.000000e+000  -0.000000e+000
    outer loop
      vertex -2.500000e-001 -2.500000e-001 -3.061617e-017
      vertex -7.225413e-001 -2.500000e-001  3.399587e-001
      vertex -7.342003e-001 -2.500000e-001  3.257522e-001
    endloop
  endfacet
  facet normal  0.000000e+000 -1.000000e+000  -0.000000e+000
    outer loop
      vertex -2.500000e-001 -2.500000e-001 -3.061617e-017
      vertex -7.342003e-001 -2.500000e-001  3.257522e-001
      vertex -7.428637e-001 -2.500000e-001  3.095441e-001
    endloop
  endfacet
  facet normal  0.000000e+000 -9.999999e-001  -0.000000e+000
    outer loop
      vertex -2.500000e-001 -2.500000e-001 -3.061617e-017
      vertex -7.428637e-001 -2.500000e-001  3.095441e-001
      vertex -7.481986e-001 -2.500000e-001  2.919572e-001
    endloop
  endfacet
  facet normal  0.000000e+000 -9.999999e-001  -0.000000e+000
    outer loop
      vertex -2.500000e-001 -2.500000e-001 -3.061617e-017
      vertex -7.481986e-001 -2.500000e-001  2.919572e-001
      vertex -7.500000e-001 -2.500000e-001  2.736675e-001
    endloop
  endfacet
  facet normal  0.000000e+000 -1.000000e+000  0.000000e+000
    outer loop
      vertex -2.500000e-001 -2.500000e-001 -3.061617e-017
      vertex -7.500000e-001 -2.500000e-001  2.736675e-001
      vertex -7.500000e-001 -2.500000e-001  0.000000e+000
    endloop
  endfacet
  facet normal  0.000000e+000 -1.000000e+000  0.000000e+000
    outer loop
      vertex -7.225413e-001 -2.500000e-001  3.399587e-001
      vertex -5.899587e-001 -2.500000e-001  3.399587e-001
      vertex -7.083347e-001 -2.500000e-001  3.516178e-001
    endloop
  endfacet
  facet normal  0.000000e+000 -1.000000e+000  0.000000e+000
    outer loop
      vertex -7.083347e-001 -2.500000e-001  3.516178e-001
      vertex -5.899587e-001 -2.500000e-001  3.399587e-001
      vertex -6.041653e-001 -2.500000e-001  3.516178e-001
    endloop
  endfacet
  facet normal  0.000000e+000 -1.000000e+000  0.000000e+000
    outer loop
      vertex -7.083347e-001 -2.500000e-001  3.516178e-001
      vertex -6.041653e-001 -2.500000e-001  3.516178e-001
      vertex -6.203734e-001 -2.500000e-001  3.602812e-001
    endloop
  endfacet
  facet normal -1.220483e-001 -7.228324e-004  9.925239e-001
    outer loop
      vertex -6.714240e-001  8.723684e-018  3.661813e-001
      vertex -6.745397e-001 -2.500000e-001  3.656161e-001
      vertex -6.639329e-001 -4.555215e-004  3.671021e-001
    endloop
  endfacet
  facet normal -2.370043e-001  7.573599e-004  9.715083e-001
    outer loop
      vertex -6.714240e-001  8.723684e-018  3.661813e-001
      vertex -6.853835e-001  7.173870e-018  3.627758e-001
      vertex -6.745397e-001 -2.500000e-001  3.656161e-001
    endloop
  endfacet
  facet normal -8.819200e-001 -1.881617e-003  4.713952e-001
    outer loop
      vertex -7.428637e-001 -2.500000e-001  3.095441e-001
      vertex -7.342003e-001 -2.500000e-001  3.257522e-001
      vertex -7.391236e-001 -1.201767e-002  3.174913e-001
    endloop
  endfacet
  facet normal -8.597987e-001 -6.193839e-005  5.106332e-001
    outer loop
      vertex -7.391236e-001 -1.201767e-002  3.174913e-001
      vertex -7.342003e-001 -2.500000e-001  3.257522e-001
      vertex -7.343866e-001 -7.821178e-003  3.254679e-001
    endloop
  endfacet
  facet normal -8.044589e-001  7.848518e-005  5.940084e-001
    outer loop
      vertex -7.287296e-001 -4.287210e-003  3.331286e-001
      vertex -7.343866e-001 -7.821178e-003  3.254679e-001
      vertex -7.342003e-001 -2.500000e-001  3.257522e-001
    endloop
  endfacet
  facet normal -7.730083e-001 -1.834120e-003  6.343932e-001
    outer loop
      vertex -7.342003e-001 -2.500000e-001  3.257522e-001
      vertex -7.225413e-001 -2.500000e-001  3.399587e-001
      vertex -7.287296e-001 -4.287210e-003  3.331286e-001
    endloop
  endfacet
  facet normal -7.390813e-001  1.106302e-004  6.736163e-001
    outer loop
      vertex -7.287296e-001 -4.287210e-003  3.331286e-001
      vertex -7.225413e-001 -2.500000e-001  3.399587e-001
      vertex -7.221458e-001 -1.642550e-003  3.403518e-001
    endloop
  endfacet
  facet normal -6.704491e-001 -1.068311e-004  7.419556e-001
    outer loop
      vertex -7.221458e-001 -1.642550e-003  3.403518e-001
      vertex -7.225413e-001 -2.500000e-001  3.399587e-001
      vertex -7.159407e-001 -3.217309e-004  3.459592e-001
    endloop
  endfacet
  facet normal -4.713973e-001 -1.719402e-003  8.819193e-001
    outer loop
      vertex -7.083347e-001 -2.500000e-001  3.516178e-001
      vertex -6.921266e-001 -2.500000e-001  3.602812e-001
      vertex -6.986586e-001  5.700038e-018  3.572771e-001
    endloop
  endfacet
  facet normal -3.826810e-001  1.102816e-003  9.238800e-001
    outer loop
      vertex -6.853835e-001  7.173870e-018  3.627758e-001
      vertex -6.986586e-001  5.700038e-018  3.572771e-001
      vertex -6.921266e-001 -2.500000e-001  3.602812e-001
    endloop
  endfacet
  facet normal -2.902847e-001 -1.719202e-003  9.569389e-001
    outer loop
      vertex -6.921266e-001 -2.500000e-001  3.602812e-001
      vertex -6.745397e-001 -2.500000e-001  3.656161e-001
      vertex -6.853835e-001  7.173870e-018  3.627758e-001
    endloop
  endfacet
  facet normal -9.801640e-002 -1.760138e-003  9.951832e-001
    outer loop
      vertex -6.745397e-001 -2.500000e-001  3.656161e-001
      vertex -6.562500e-001 -2.500000e-001  3.674175e-001
      vertex -6.639329e-001 -4.555215e-004  3.671021e-001
    endloop
  endfacet
  facet normal -3.356420e-002  2.295771e-004  9.994366e-001
    outer loop
      vertex -6.562500e-001 -2.500000e-001  3.674175e-001
      vertex -6.548702e-001 -2.078379e-003  3.674069e-001
      vertex -6.639329e-001 -4.555215e-004  3.671021e-001
    endloop
  endfacet
  facet normal  6.218981e-002 -3.034159e-004  9.980643e-001
    outer loop
      vertex -6.459956e-001 -4.634796e-003  3.668531e-001
      vertex -6.548702e-001 -2.078379e-003  3.674069e-001
      vertex -6.562500e-001 -2.500000e-001  3.674175e-001
    endloop
  endfacet
  facet normal  9.801638e-002 -1.807327e-003  9.951831e-001
    outer loop
      vertex -6.562500e-001 -2.500000e-001  3.674175e-001
      vertex -6.379603e-001 -2.500000e-001  3.656161e-001
      vertex -6.459956e-001 -4.634796e-003  3.668531e-001
    endloop
  endfacet
  facet normal  3.978908e-001  6.116474e-004  9.174326e-001
    outer loop
      vertex -6.140940e-001 -2.043036e-002  3.574047e-001
      vertex -6.239752e-001 -1.449902e-002  3.616863e-001
      vertex -6.203734e-001 -2.500000e-001  3.602812e-001
    endloop
  endfacet
  facet normal  4.713972e-001 -1.843964e-003  8.819191e-001
    outer loop
      vertex -6.203734e-001 -2.500000e-001  3.602812e-001
      vertex -6.041653e-001 -2.500000e-001  3.516178e-001
      vertex -6.140940e-001 -2.043036e-002  3.574047e-001
    endloop
  endfacet
  facet normal -6.102431e-001 -2.906187e-003  7.922089e-001
    outer loop
      vertex -7.109375e-001  6.938894e-018  3.498143e-001
      vertex -7.159407e-001 -3.217309e-004  3.459592e-001
      vertex -7.225413e-001 -2.500000e-001  3.399587e-001
    endloop
  endfacet
  facet normal -6.343923e-001 -1.028457e-003  7.730106e-001
    outer loop
      vertex -7.109375e-001  6.938894e-018  3.498143e-001
      vertex -7.225413e-001 -2.500000e-001  3.399587e-001
      vertex -7.083347e-001 -2.500000e-001  3.516178e-001
    endloop
  endfacet
  facet normal -5.193751e-001  7.572004e-004  8.545461e-001
    outer loop
      vertex -7.109375e-001  6.938894e-018  3.498143e-001
      vertex -7.083347e-001 -2.500000e-001  3.516178e-001
      vertex -6.986586e-001  5.700038e-018  3.572771e-001
    endloop
  endfacet
  facet normal -9.948466e-001  0.000000e+000  1.013918e-001
    outer loop
      vertex -7.500000e-001 -3.906250e-002  2.736675e-001
      vertex -7.500000e-001 -2.500000e-001  2.736675e-001
      vertex -7.480724e-001 -2.694331e-002  2.925805e-001
    endloop
  endfacet
  facet normal -9.951848e-001  2.891012e-004  9.801671e-002
    outer loop
      vertex -7.480724e-001 -2.694331e-002  2.925805e-001
      vertex -7.500000e-001 -2.500000e-001  2.736675e-001
      vertex -7.481986e-001 -2.500000e-001  2.919572e-001
    endloop
  endfacet
  facet normal -9.562854e-001 -2.761392e-004  2.924348e-001
    outer loop
      vertex -7.480724e-001 -2.694331e-002  2.925805e-001
      vertex -7.481986e-001 -2.500000e-001  2.919572e-001
      vertex -7.429616e-001 -1.669439e-002  3.093029e-001
    endloop
  endfacet
  facet normal -9.569404e-001 -1.015825e-004  2.902846e-001
    outer loop
      vertex -7.429616e-001 -1.669439e-002  3.093029e-001
      vertex -7.481986e-001 -2.500000e-001  2.919572e-001
      vertex -7.428637e-001 -2.500000e-001  3.095441e-001
    endloop
  endfacet
  facet normal -9.054829e-001  5.864662e-005  4.243826e-001
    outer loop
      vertex -7.429616e-001 -1.669439e-002  3.093029e-001
      vertex -7.428637e-001 -2.500000e-001  3.095441e-001
      vertex -7.391236e-001 -1.201767e-002  3.174913e-001
    endloop
  endfacet
  facet normal  2.902849e-001 -1.269809e-003  9.569395e-001
    outer loop
      vertex -6.203734e-001 -2.500000e-001  3.602812e-001
      vertex -6.239752e-001 -1.449902e-002  3.616863e-001
      vertex -6.379603e-001 -2.500000e-001  3.656161e-001
    endloop
  endfacet
  facet normal  2.872948e-001 -1.077195e-003  9.578416e-001
    outer loop
      vertex -6.379603e-001 -2.500000e-001  3.656161e-001
      vertex -6.239752e-001 -1.449902e-002  3.616863e-001
      vertex -6.346346e-001 -9.131925e-003  3.648895e-001
    endloop
  endfacet
  facet normal  1.705513e-001  6.176502e-004  9.853485e-001
    outer loop
      vertex -6.379603e-001 -2.500000e-001  3.656161e-001
      vertex -6.346346e-001 -9.131925e-003  3.648895e-001
      vertex -6.459956e-001 -4.634796e-003  3.668531e-001
    endloop
  endfacet
  facet normal  6.343927e-001  0.000000e+000  7.730110e-001
    outer loop
      vertex -5.899587e-001 -2.500000e-001  3.399587e-001
      vertex -5.899587e-001 -3.906250e-002  3.399587e-001
      vertex -6.041653e-001 -2.500000e-001  3.516178e-001
    endloop
  endfacet
  facet normal  6.446870e-001 -1.166740e-003  7.644458e-001
    outer loop
      vertex -6.041653e-001 -2.500000e-001  3.516178e-001
      vertex -5.899587e-001 -3.906250e-002  3.399587e-001
      vertex -6.019825e-001 -2.898962e-002  3.501142e-001
    endloop
  endfacet
  facet normal  5.161037e-001  7.296614e-004  8.565258e-001
    outer loop
      vertex -6.041653e-001 -2.500000e-001  3.516178e-001
      vertex -6.019825e-001 -2.898962e-002  3.501142e-001
      vertex -6.140940e-001 -2.043036e-002  3.574047e-001
    endloop
  endfacet
  facet normal -6.123234e-017  4.028537e-033 -1.000000e+000
    outer loop
      vertex -7.500000e-001 -2.500000e-001  0.000000e+000
      vertex -7.500000e-001 -3.906250e-002  8.497695e-034
      vertex -2.500000e-001 -2.500000e-001 -3.061617e-017
    endloop
  endfacet
  facet normal -6.123234e-017  0.000000e+000 -1.000000e+000
    outer loop
      vertex -2.500000e-001 -2.500000e-001 -3.061617e-017
      vertex -7.500000e-001 -3.906250e-002  8.497695e-034
      vertex -2.500000e-001 -3.906250e-002 -3.061617e-017
    endloop
  endfacet
  facet normal -2.530258e-004  3.582393e-002 -9.993581e-001
    outer loop
      vertex -2.500000e-001 -3.906250e-002 -3.061617e-017
      vertex -7.497004e-001 -3.423364e-002  2.996181e-004
      vertex -2.502424e-001 -3.626384e-002  1.003847e-004
    endloop
  endfacet
  facet normal -6.111482e-017  6.192831e-002 -9.980807e-001
    outer loop
      vertex -2.500000e-001 -3.906250e-002 -3.061617e-017
      vertex -7.500000e-001 -3.906250e-002  8.497695e-034
      vertex -7.497004e-001 -3.423364e-002  2.996181e-004
    endloop
  endfacet
  facet normal  1.361542e-003  9.934213e-001 -1.145099e-001
    outer loop
      vertex -7.109375e-001  4.336809e-018  3.906250e-002
      vertex -3.149081e-001 -1.946365e-003  2.688583e-002
      vertex -7.197203e-001 -1.000164e-003  3.028123e-002
    endloop
  endfacet
  facet normal -1.096306e-016  9.874647e-001 -1.578400e-001
    outer loop
      vertex -7.109375e-001  4.336809e-018  3.906250e-002
      vertex -3.443052e-001  4.504117e-017  3.906250e-002
      vertex -3.149081e-001 -1.946365e-003  2.688583e-002
    endloop
  endfacet
  facet normal -6.067663e-004  9.422471e-001 -3.349178e-001
    outer loop
      vertex -7.281817e-001 -4.012275e-003  2.182238e-002
      vertex -7.197203e-001 -1.000164e-003  3.028123e-002
      vertex -3.149081e-001 -1.946365e-003  2.688583e-002
    endloop
  endfacet
  facet normal  1.105211e-003  8.911110e-001 -4.537841e-001
    outer loop
      vertex -3.149081e-001 -1.946365e-003  2.688583e-002
      vertex -2.887881e-001 -7.487225e-003  1.606867e-002
      vertex -7.281817e-001 -4.012275e-003  2.182238e-002
    endloop
  endfacet
  facet normal  3.413979e-004  8.673222e-001 -4.977470e-001
    outer loop
      vertex -2.887881e-001 -7.487225e-003  1.606867e-002
      vertex -7.324844e-001 -6.480145e-003  1.751918e-002
      vertex -7.281817e-001 -4.012275e-003  2.182238e-002
    endloop
  endfacet
  facet normal -1.702499e-004  7.962788e-001 -6.049299e-001
    outer loop
      vertex -7.365693e-001 -9.585577e-003  1.343260e-002
      vertex -7.324844e-001 -6.480145e-003  1.751918e-002
      vertex -2.887881e-001 -7.487225e-003  1.606867e-002
    endloop
  endfacet
  facet normal  3.400795e-004  7.534394e-001 -6.575172e-001
    outer loop
      vertex -2.887881e-001 -7.487225e-003  1.606867e-002
      vertex -2.761665e-001 -1.205721e-002  1.083851e-002
      vertex -7.365693e-001 -9.585577e-003  1.343260e-002
    endloop
  endfacet
  facet normal -1.123937e-004  7.139495e-001 -7.001971e-001
    outer loop
      vertex -7.365693e-001 -9.585577e-003  1.343260e-002
      vertex -2.761665e-001 -1.205721e-002  1.083851e-002
      vertex -7.399257e-001 -1.287928e-002  1.007474e-002
    endloop
  endfacet
  facet normal  1.678795e-004  6.281836e-001 -7.780652e-001
    outer loop
      vertex -7.399257e-001 -1.287928e-002  1.007474e-002
      vertex -2.761665e-001 -1.205721e-002  1.083851e-002
      vertex -2.661847e-001 -1.718095e-002  6.703939e-003
    endloop
  endfacet
  facet normal  8.374680e-005  6.224921e-001 -7.826261e-001
    outer loop
      vertex -7.399257e-001 -1.287928e-002  1.007474e-002
      vertex -2.661847e-001 -1.718095e-002  6.703939e-003
      vertex -7.429730e-001 -1.671059e-002  7.027034e-003
    endloop
  endfacet
  facet normal -1.117384e-004  4.867749e-001 -8.735274e-001
    outer loop
      vertex -7.429730e-001 -1.671059e-002  7.027034e-003
      vertex -2.661847e-001 -1.718095e-002  6.703939e-003
      vertex -2.582911e-001 -2.304659e-002  3.434288e-003
    endloop
  endfacet
  facet normal  1.829067e-004  5.038074e-001 -8.638159e-001
    outer loop
      vertex -7.429730e-001 -1.671059e-002  7.027034e-003
      vertex -2.582911e-001 -2.304659e-002  3.434288e-003
      vertex -7.461622e-001 -2.217763e-002  3.837792e-003
    endloop
  endfacet
  facet normal -9.439395e-005  3.770785e-001 -9.261814e-001
    outer loop
      vertex -7.479399e-001 -2.654438e-002  2.060128e-003
      vertex -7.461622e-001 -2.217763e-002  3.837792e-003
      vertex -2.582911e-001 -2.304659e-002  3.434288e-003
    endloop
  endfacet
  facet normal  1.219474e-004  3.508241e-001 -9.364414e-001
    outer loop
      vertex -2.582911e-001 -2.304659e-002  3.434288e-003
      vertex -2.540528e-001 -2.773413e-002  1.678720e-003
      vertex -7.479399e-001 -2.654438e-002  2.060128e-003
    endloop
  endfacet
  facet normal -1.126417e-004  2.625695e-001 -9.649131e-001
    outer loop
      vertex -7.491813e-001 -3.110721e-002  8.186470e-004
      vertex -7.479399e-001 -2.654438e-002  2.060128e-003
      vertex -2.540528e-001 -2.773413e-002  1.678720e-003
    endloop
  endfacet
  facet normal -1.925264e-006  2.473415e-001 -9.689284e-001
    outer loop
      vertex -7.491813e-001 -3.110721e-002  8.186470e-004
      vertex -2.540528e-001 -2.773413e-002  1.678720e-003
      vertex -2.519870e-001 -3.108618e-002  8.230283e-004
    endloop
  endfacet
  facet normal  9.206956e-007  1.830204e-001 -9.831092e-001
    outer loop
      vertex -7.491813e-001 -3.110721e-002  8.186470e-004
      vertex -2.519870e-001 -3.108618e-002  8.230283e-004
      vertex -2.512420e-001 -3.274373e-002  5.144505e-004
    endloop
  endfacet
  facet normal -6.437644e-005  1.637822e-001 -9.864965e-001
    outer loop
      vertex -7.491813e-001 -3.110721e-002  8.186470e-004
      vertex -2.512420e-001 -3.274373e-002  5.144505e-004
      vertex -7.497004e-001 -3.423364e-002  2.996181e-004
    endloop
  endfacet
  facet normal  9.352532e-006  1.396499e-001 -9.902009e-001
    outer loop
      vertex -7.497004e-001 -3.423364e-002  2.996181e-004
      vertex -2.512420e-001 -3.274373e-002  5.144505e-004
      vertex -2.506528e-001 -3.447408e-002  2.704218e-004
    endloop
  endfacet
  facet normal -1.267476e-005  9.457678e-002 -9.955176e-001
    outer loop
      vertex -7.497004e-001 -3.423364e-002  2.996181e-004
      vertex -2.506528e-001 -3.447408e-002  2.704218e-004
      vertex -2.502424e-001 -3.626384e-002  1.003847e-004
    endloop
  endfacet
endsolid CATIA STL
