solid CATIA STL
  facet normal  0.000000e+000  0.000000e+000  1.000000e+000
    outer loop
      vertex -5.546875e-001 -6.250000e-001  3.281250e-001
      vertex  7.578125e-001 -6.250000e-001  3.281250e-001
      vertex -5.546875e-001  7.031250e-001  3.281250e-001
    endloop
  endfacet
  facet normal  -0.000000e+000  0.000000e+000  1.000000e+000
    outer loop
      vertex -5.546875e-001  7.031250e-001  3.281250e-001
      vertex  7.578125e-001 -6.250000e-001  3.281250e-001
      vertex  7.578125e-001  7.031250e-001  3.281250e-001
    endloop
  endfacet
  facet normal  0.000000e+000 -5.224579e-018 -1.000000e+000
    outer loop
      vertex -5.546875e-001 -6.250000e-001  0.000000e+000
      vertex -5.546875e-001  7.031250e-001 -6.938894e-018
      vertex  7.578125e-001 -6.250000e-001  0.000000e+000
    endloop
  endfacet
  facet normal  5.286776e-018  0.000000e+000 -1.000000e+000
    outer loop
      vertex  7.578125e-001 -6.250000e-001  0.000000e+000
      vertex -5.546875e-001  7.031250e-001 -6.938894e-018
      vertex  7.578125e-001  7.031250e-001  0.000000e+000
    endloop
  endfacet
  facet normal -1.000000e+000  0.000000e+000  0.000000e+000
    outer loop
      vertex -5.703125e-001  6.875000e-001  3.125000e-001
      vertex -5.703125e-001  6.875000e-001  1.562500e-002
      vertex -5.703125e-001 -6.093750e-001  3.125000e-001
    endloop
  endfacet
  facet normal -1.000000e+000  0.000000e+000  0.000000e+000
    outer loop
      vertex -5.703125e-001 -6.093750e-001  3.125000e-001
      vertex -5.703125e-001  6.875000e-001  1.562500e-002
      vertex -5.703125e-001 -6.093750e-001  1.562500e-002
    endloop
  endfacet
  facet normal  0.000000e+000  1.000000e+000  -0.000000e+000
    outer loop
      vertex  7.578125e-001  7.031250e-001  3.281250e-001
      vertex  7.578125e-001  7.031250e-001  0.000000e+000
      vertex -5.546875e-001  7.031250e-001  3.281250e-001
    endloop
  endfacet
  facet normal  0.000000e+000  1.000000e+000  0.000000e+000
    outer loop
      vertex -5.546875e-001  7.031250e-001  3.281250e-001
      vertex  7.578125e-001  7.031250e-001  0.000000e+000
      vertex -5.546875e-001  7.031250e-001 -6.938894e-018
    endloop
  endfacet
  facet normal  0.000000e+000 -1.000000e+000  0.000000e+000
    outer loop
      vertex -5.546875e-001 -6.250000e-001  3.281250e-001
      vertex -5.546875e-001 -6.250000e-001  0.000000e+000
      vertex  7.578125e-001 -6.250000e-001  3.281250e-001
    endloop
  endfacet
  facet normal  0.000000e+000 -1.000000e+000  -0.000000e+000
    outer loop
      vertex  7.578125e-001 -6.250000e-001  3.281250e-001
      vertex -5.546875e-001 -6.250000e-001  0.000000e+000
      vertex  7.578125e-001 -6.250000e-001  0.000000e+000
    endloop
  endfacet
  facet normal -9.929743e-001 -2.095542e-008 -1.183299e-001
    outer loop
      vertex -5.703125e-001 -6.093750e-001  1.562500e-002
      vertex -5.698750e-001  6.911713e-001  1.195347e-002
      vertex -5.698750e-001 -6.130465e-001  1.195370e-002
    endloop
  endfacet
  facet normal -9.929752e-001  -0.000000e+000 -1.183226e-001
    outer loop
      vertex -5.703125e-001 -6.093750e-001  1.562500e-002
      vertex -5.703125e-001  6.875000e-001  1.562500e-002
      vertex -5.698750e-001  6.911713e-001  1.195347e-002
    endloop
  endfacet
  facet normal -5.038838e-001  0.000000e+000 -8.637714e-001
    outer loop
      vertex -5.614414e-001  7.015899e-001  1.535117e-003
      vertex -5.636283e-001 -6.221892e-001  2.810814e-003
      vertex -5.636283e-001  7.003142e-001  2.810814e-003
    endloop
  endfacet
  facet normal -6.366510e-001  0.000000e+000 -7.711521e-001
    outer loop
      vertex -5.636283e-001  7.003142e-001  2.810814e-003
      vertex -5.636283e-001 -6.221892e-001  2.810814e-003
      vertex -5.655768e-001 -6.205805e-001  4.419494e-003
    endloop
  endfacet
  facet normal -6.366510e-001  0.000000e+000 -7.711520e-001
    outer loop
      vertex -5.636283e-001  7.003142e-001  2.810814e-003
      vertex -5.655768e-001 -6.205805e-001  4.419494e-003
      vertex -5.655768e-001  6.987055e-001  4.419494e-003
    endloop
  endfacet
  facet normal -7.523937e-001  0.000000e+000 -6.587138e-001
    outer loop
      vertex -5.655768e-001  6.987055e-001  4.419494e-003
      vertex -5.655768e-001 -6.205805e-001  4.419494e-003
      vertex -5.672344e-001 -6.186872e-001  6.312838e-003
    endloop
  endfacet
  facet normal -7.523937e-001  0.000000e+000 -6.587138e-001
    outer loop
      vertex -5.655768e-001  6.987055e-001  4.419494e-003
      vertex -5.672344e-001 -6.186872e-001  6.312838e-003
      vertex -5.672344e-001  6.968122e-001  6.312838e-003
    endloop
  endfacet
  facet normal -8.481572e-001  0.000000e+000 -5.297446e-001
    outer loop
      vertex -5.672344e-001  6.968122e-001  6.312838e-003
      vertex -5.672344e-001 -6.186872e-001  6.312838e-003
      vertex -5.685603e-001 -6.165643e-001  8.435703e-003
    endloop
  endfacet
  facet normal -8.481572e-001  0.000000e+000 -5.297447e-001
    outer loop
      vertex -5.672344e-001  6.968122e-001  6.312838e-003
      vertex -5.685603e-001 -6.165643e-001  8.435703e-003
      vertex -5.685603e-001  6.946893e-001  8.435703e-003
    endloop
  endfacet
  facet normal -9.367269e-001  0.000000e+000 -3.500609e-001
    outer loop
      vertex -5.685603e-001  6.946893e-001  8.435703e-003
      vertex -5.685603e-001 -6.165643e-001  8.435703e-003
      vertex -5.698750e-001 -6.130465e-001  1.195370e-002
    endloop
  endfacet
  facet normal -9.367194e-001 -6.199696e-008 -3.500811e-001
    outer loop
      vertex -5.685603e-001  6.946893e-001  8.435703e-003
      vertex -5.698750e-001 -6.130465e-001  1.195370e-002
      vertex -5.698750e-001  6.911713e-001  1.195347e-002
    endloop
  endfacet
  facet normal -6.192820e-002 -5.214551e-018 -9.980806e-001
    outer loop
      vertex -5.546875e-001  7.031250e-001 -6.938894e-018
      vertex -5.546875e-001 -6.250000e-001  0.000000e+000
      vertex -5.566190e-001  7.030051e-001  1.198473e-004
    endloop
  endfacet
  facet normal -6.192821e-002  -0.000000e+000 -9.980806e-001
    outer loop
      vertex -5.566190e-001  7.030051e-001  1.198473e-004
      vertex -5.546875e-001 -6.250000e-001  0.000000e+000
      vertex -5.566190e-001 -6.248801e-001  1.198473e-004
    endloop
  endfacet
  facet normal -2.030491e-001  0.000000e+000 -9.791685e-001
    outer loop
      vertex -5.566190e-001  7.030051e-001  1.198473e-004
      vertex -5.566190e-001 -6.248801e-001  1.198473e-004
      vertex -5.590807e-001  7.024947e-001  6.303216e-004
    endloop
  endfacet
  facet normal -2.030491e-001  -0.000000e+000 -9.791687e-001
    outer loop
      vertex -5.590807e-001  7.024947e-001  6.303216e-004
      vertex -5.566190e-001 -6.248801e-001  1.198473e-004
      vertex -5.590807e-001 -6.243697e-001  6.303216e-004
    endloop
  endfacet
  facet normal -3.578877e-001  0.000000e+000 -9.337646e-001
    outer loop
      vertex -5.590807e-001  7.024947e-001  6.303216e-004
      vertex -5.590807e-001 -6.243697e-001  6.303216e-004
      vertex -5.614414e-001  7.015899e-001  1.535117e-003
    endloop
  endfacet
  facet normal -3.578877e-001  -0.000000e+000 -9.337646e-001
    outer loop
      vertex -5.614414e-001  7.015899e-001  1.535117e-003
      vertex -5.590807e-001 -6.243697e-001  6.303216e-004
      vertex -5.614414e-001 -6.234649e-001  1.535117e-003
    endloop
  endfacet
  facet normal -5.038838e-001  0.000000e+000 -8.637714e-001
    outer loop
      vertex -5.614414e-001  7.015899e-001  1.535117e-003
      vertex -5.614414e-001 -6.234649e-001  1.535117e-003
      vertex -5.636283e-001 -6.221892e-001  2.810814e-003
    endloop
  endfacet
  facet normal -9.929743e-001 -1.183301e-001  9.273653e-008
    outer loop
      vertex -5.703125e-001 -6.093750e-001  3.125000e-001
      vertex -5.698750e-001 -6.130465e-001  1.195370e-002
      vertex -5.698750e-001 -6.130463e-001  3.161715e-001
    endloop
  endfacet
  facet normal -9.929752e-001 -1.183226e-001  0.000000e+000
    outer loop
      vertex -5.703125e-001 -6.093750e-001  3.125000e-001
      vertex -5.703125e-001 -6.093750e-001  1.562500e-002
      vertex -5.698750e-001 -6.130465e-001  1.195370e-002
    endloop
  endfacet
  facet normal -5.038900e-001 -8.637677e-001  -0.000000e+000
    outer loop
      vertex -5.614414e-001 -6.234649e-001  1.535117e-003
      vertex -5.636283e-001 -6.221892e-001  3.253142e-001
      vertex -5.636283e-001 -6.221892e-001  2.810814e-003
    endloop
  endfacet
  facet normal -6.366485e-001 -7.711540e-001  -0.000000e+000
    outer loop
      vertex -5.636283e-001 -6.221892e-001  2.810814e-003
      vertex -5.636283e-001 -6.221892e-001  3.253142e-001
      vertex -5.655768e-001 -6.205805e-001  3.237055e-001
    endloop
  endfacet
  facet normal -6.366486e-001 -7.711541e-001  -0.000000e+000
    outer loop
      vertex -5.636283e-001 -6.221892e-001  2.810814e-003
      vertex -5.655768e-001 -6.205805e-001  3.237055e-001
      vertex -5.655768e-001 -6.205805e-001  4.419494e-003
    endloop
  endfacet
  facet normal -7.523932e-001 -6.587142e-001  -0.000000e+000
    outer loop
      vertex -5.655768e-001 -6.205805e-001  4.419494e-003
      vertex -5.655768e-001 -6.205805e-001  3.237055e-001
      vertex -5.672344e-001 -6.186872e-001  3.218122e-001
    endloop
  endfacet
  facet normal -7.523932e-001 -6.587142e-001  -0.000000e+000
    outer loop
      vertex -5.655768e-001 -6.205805e-001  4.419494e-003
      vertex -5.672344e-001 -6.186872e-001  3.218122e-001
      vertex -5.672344e-001 -6.186872e-001  6.312838e-003
    endloop
  endfacet
  facet normal -8.481588e-001 -5.297421e-001  -0.000000e+000
    outer loop
      vertex -5.672344e-001 -6.186872e-001  6.312838e-003
      vertex -5.672344e-001 -6.186872e-001  3.218122e-001
      vertex -5.685603e-001 -6.165643e-001  3.196893e-001
    endloop
  endfacet
  facet normal -8.481587e-001 -5.297420e-001  -0.000000e+000
    outer loop
      vertex -5.672344e-001 -6.186872e-001  6.312838e-003
      vertex -5.685603e-001 -6.165643e-001  3.196893e-001
      vertex -5.685603e-001 -6.165643e-001  8.435703e-003
    endloop
  endfacet
  facet normal -9.367265e-001 -3.500623e-001  -0.000000e+000
    outer loop
      vertex -5.685603e-001 -6.165643e-001  8.435703e-003
      vertex -5.685603e-001 -6.165643e-001  3.196893e-001
      vertex -5.698750e-001 -6.130463e-001  3.161715e-001
    endloop
  endfacet
  facet normal -9.367186e-001 -3.500834e-001  2.743639e-007
    outer loop
      vertex -5.685603e-001 -6.165643e-001  8.435703e-003
      vertex -5.698750e-001 -6.130463e-001  3.161715e-001
      vertex -5.698750e-001 -6.130465e-001  1.195370e-002
    endloop
  endfacet
  facet normal -6.193727e-002 -9.980801e-001  -0.000000e+000
    outer loop
      vertex -5.546875e-001 -6.250000e-001  0.000000e+000
      vertex -5.546875e-001 -6.250000e-001  3.281250e-001
      vertex -5.566190e-001 -6.248801e-001  1.198473e-004
    endloop
  endfacet
  facet normal -6.193726e-002 -9.980800e-001  0.000000e+000
    outer loop
      vertex -5.566190e-001 -6.248801e-001  1.198473e-004
      vertex -5.546875e-001 -6.250000e-001  3.281250e-001
      vertex -5.566190e-001 -6.248801e-001  3.280052e-001
    endloop
  endfacet
  facet normal -2.030415e-001 -9.791701e-001  -0.000000e+000
    outer loop
      vertex -5.566190e-001 -6.248801e-001  1.198473e-004
      vertex -5.566190e-001 -6.248801e-001  3.280052e-001
      vertex -5.590807e-001 -6.243697e-001  6.303216e-004
    endloop
  endfacet
  facet normal -2.030415e-001 -9.791701e-001  0.000000e+000
    outer loop
      vertex -5.590807e-001 -6.243697e-001  6.303216e-004
      vertex -5.566190e-001 -6.248801e-001  3.280052e-001
      vertex -5.590807e-001 -6.243697e-001  3.274947e-001
    endloop
  endfacet
  facet normal -3.578888e-001 -9.337643e-001  -0.000000e+000
    outer loop
      vertex -5.590807e-001 -6.243697e-001  6.303216e-004
      vertex -5.590807e-001 -6.243697e-001  3.274947e-001
      vertex -5.614414e-001 -6.234649e-001  1.535117e-003
    endloop
  endfacet
  facet normal -3.578888e-001 -9.337642e-001  0.000000e+000
    outer loop
      vertex -5.614414e-001 -6.234649e-001  1.535117e-003
      vertex -5.590807e-001 -6.243697e-001  3.274947e-001
      vertex -5.614414e-001 -6.234649e-001  3.265899e-001
    endloop
  endfacet
  facet normal -5.038900e-001 -8.637678e-001  -0.000000e+000
    outer loop
      vertex -5.614414e-001 -6.234649e-001  1.535117e-003
      vertex -5.614414e-001 -6.234649e-001  3.265899e-001
      vertex -5.636283e-001 -6.221892e-001  3.253142e-001
    endloop
  endfacet
  facet normal -9.929743e-001  2.163145e-008  1.183302e-001
    outer loop
      vertex -5.703125e-001  6.875000e-001  3.125000e-001
      vertex -5.698750e-001 -6.130463e-001  3.161715e-001
      vertex -5.698750e-001  6.911715e-001  3.161713e-001
    endloop
  endfacet
  facet normal -9.929752e-001  0.000000e+000  1.183226e-001
    outer loop
      vertex -5.703125e-001  6.875000e-001  3.125000e-001
      vertex -5.703125e-001 -6.093750e-001  3.125000e-001
      vertex -5.698750e-001 -6.130463e-001  3.161715e-001
    endloop
  endfacet
  facet normal -9.367195e-001  6.399674e-008  3.500805e-001
    outer loop
      vertex -5.698750e-001  6.911715e-001  3.161713e-001
      vertex -5.698750e-001 -6.130463e-001  3.161715e-001
      vertex -5.685603e-001 -6.165643e-001  3.196893e-001
    endloop
  endfacet
  facet normal -9.367275e-001  0.000000e+000  3.500597e-001
    outer loop
      vertex -5.698750e-001  6.911715e-001  3.161713e-001
      vertex -5.685603e-001 -6.165643e-001  3.196893e-001
      vertex -5.685603e-001  6.946893e-001  3.196893e-001
    endloop
  endfacet
  facet normal -8.481554e-001  0.000000e+000  5.297474e-001
    outer loop
      vertex -5.685603e-001  6.946893e-001  3.196893e-001
      vertex -5.685603e-001 -6.165643e-001  3.196893e-001
      vertex -5.672344e-001 -6.186872e-001  3.218122e-001
    endloop
  endfacet
  facet normal -8.481555e-001  0.000000e+000  5.297474e-001
    outer loop
      vertex -5.685603e-001  6.946893e-001  3.196893e-001
      vertex -5.672344e-001 -6.186872e-001  3.218122e-001
      vertex -5.672344e-001  6.968122e-001  3.218122e-001
    endloop
  endfacet
  facet normal -7.523933e-001  0.000000e+000  6.587142e-001
    outer loop
      vertex -5.672344e-001  6.968122e-001  3.218122e-001
      vertex -5.672344e-001 -6.186872e-001  3.218122e-001
      vertex -5.655768e-001 -6.205805e-001  3.237055e-001
    endloop
  endfacet
  facet normal -7.523933e-001  0.000000e+000  6.587142e-001
    outer loop
      vertex -5.672344e-001  6.968122e-001  3.218122e-001
      vertex -5.655768e-001 -6.205805e-001  3.237055e-001
      vertex -5.655768e-001  6.987055e-001  3.237055e-001
    endloop
  endfacet
  facet normal -6.366556e-001  0.000000e+000  7.711483e-001
    outer loop
      vertex -5.655768e-001  6.987055e-001  3.237055e-001
      vertex -5.655768e-001 -6.205805e-001  3.237055e-001
      vertex -5.636283e-001 -6.221892e-001  3.253142e-001
    endloop
  endfacet
  facet normal -6.366556e-001  0.000000e+000  7.711483e-001
    outer loop
      vertex -5.655768e-001  6.987055e-001  3.237055e-001
      vertex -5.636283e-001 -6.221892e-001  3.253142e-001
      vertex -5.636283e-001  7.003142e-001  3.253142e-001
    endloop
  endfacet
  facet normal -5.038813e-001  0.000000e+000  8.637729e-001
    outer loop
      vertex -5.636283e-001  7.003142e-001  3.253142e-001
      vertex -5.636283e-001 -6.221892e-001  3.253142e-001
      vertex -5.614414e-001 -6.234649e-001  3.265899e-001
    endloop
  endfacet
  facet normal -6.192192e-002  0.000000e+000  9.980810e-001
    outer loop
      vertex -5.546875e-001 -6.250000e-001  3.281250e-001
      vertex -5.546875e-001  7.031250e-001  3.281250e-001
      vertex -5.566190e-001 -6.248801e-001  3.280052e-001
    endloop
  endfacet
  facet normal -6.192192e-002  0.000000e+000  9.980810e-001
    outer loop
      vertex -5.566190e-001 -6.248801e-001  3.280052e-001
      vertex -5.546875e-001  7.031250e-001  3.281250e-001
      vertex -5.566190e-001  7.030051e-001  3.280052e-001
    endloop
  endfacet
  facet normal -2.030529e-001  0.000000e+000  9.791678e-001
    outer loop
      vertex -5.566190e-001 -6.248801e-001  3.280052e-001
      vertex -5.566190e-001  7.030051e-001  3.280052e-001
      vertex -5.590807e-001 -6.243697e-001  3.274947e-001
    endloop
  endfacet
  facet normal -2.030528e-001  0.000000e+000  9.791678e-001
    outer loop
      vertex -5.590807e-001 -6.243697e-001  3.274947e-001
      vertex -5.566190e-001  7.030051e-001  3.280052e-001
      vertex -5.590807e-001  7.024947e-001  3.274947e-001
    endloop
  endfacet
  facet normal -3.578887e-001  0.000000e+000  9.337642e-001
    outer loop
      vertex -5.590807e-001 -6.243697e-001  3.274947e-001
      vertex -5.590807e-001  7.024947e-001  3.274947e-001
      vertex -5.614414e-001 -6.234649e-001  3.265899e-001
    endloop
  endfacet
  facet normal -3.578887e-001  0.000000e+000  9.337642e-001
    outer loop
      vertex -5.614414e-001 -6.234649e-001  3.265899e-001
      vertex -5.590807e-001  7.024947e-001  3.274947e-001
      vertex -5.614414e-001  7.015899e-001  3.265899e-001
    endloop
  endfacet
  facet normal -5.038813e-001  0.000000e+000  8.637729e-001
    outer loop
      vertex -5.614414e-001 -6.234649e-001  3.265899e-001
      vertex -5.614414e-001  7.015899e-001  3.265899e-001
      vertex -5.636283e-001  7.003142e-001  3.253142e-001
    endloop
  endfacet
  facet normal -9.929743e-001  1.183301e-001 -9.273653e-008
    outer loop
      vertex -5.703125e-001  6.875000e-001  1.562500e-002
      vertex -5.698750e-001  6.911715e-001  3.161713e-001
      vertex -5.698750e-001  6.911713e-001  1.195347e-002
    endloop
  endfacet
  facet normal -9.929752e-001  1.183226e-001  0.000000e+000
    outer loop
      vertex -5.703125e-001  6.875000e-001  1.562500e-002
      vertex -5.703125e-001  6.875000e-001  3.125000e-001
      vertex -5.698750e-001  6.911715e-001  3.161713e-001
    endloop
  endfacet
  facet normal -9.367186e-001  3.500834e-001 -2.743639e-007
    outer loop
      vertex -5.698750e-001  6.911713e-001  1.195347e-002
      vertex -5.698750e-001  6.911715e-001  3.161713e-001
      vertex -5.685603e-001  6.946893e-001  3.196893e-001
    endloop
  endfacet
  facet normal -9.367265e-001  3.500623e-001  0.000000e+000
    outer loop
      vertex -5.698750e-001  6.911713e-001  1.195347e-002
      vertex -5.685603e-001  6.946893e-001  3.196893e-001
      vertex -5.685603e-001  6.946893e-001  8.435703e-003
    endloop
  endfacet
  facet normal -8.481587e-001  5.297420e-001  0.000000e+000
    outer loop
      vertex -5.685603e-001  6.946893e-001  8.435703e-003
      vertex -5.685603e-001  6.946893e-001  3.196893e-001
      vertex -5.672344e-001  6.968122e-001  3.218122e-001
    endloop
  endfacet
  facet normal -8.481588e-001  5.297421e-001  0.000000e+000
    outer loop
      vertex -5.685603e-001  6.946893e-001  8.435703e-003
      vertex -5.672344e-001  6.968122e-001  3.218122e-001
      vertex -5.672344e-001  6.968122e-001  6.312838e-003
    endloop
  endfacet
  facet normal -7.523932e-001  6.587142e-001  0.000000e+000
    outer loop
      vertex -5.672344e-001  6.968122e-001  6.312838e-003
      vertex -5.672344e-001  6.968122e-001  3.218122e-001
      vertex -5.655768e-001  6.987055e-001  3.237055e-001
    endloop
  endfacet
  facet normal -7.523932e-001  6.587142e-001  0.000000e+000
    outer loop
      vertex -5.672344e-001  6.968122e-001  6.312838e-003
      vertex -5.655768e-001  6.987055e-001  3.237055e-001
      vertex -5.655768e-001  6.987055e-001  4.419494e-003
    endloop
  endfacet
  facet normal -6.366486e-001  7.711541e-001  0.000000e+000
    outer loop
      vertex -5.655768e-001  6.987055e-001  4.419494e-003
      vertex -5.655768e-001  6.987055e-001  3.237055e-001
      vertex -5.636283e-001  7.003142e-001  3.253142e-001
    endloop
  endfacet
  facet normal -6.366485e-001  7.711540e-001  0.000000e+000
    outer loop
      vertex -5.655768e-001  6.987055e-001  4.419494e-003
      vertex -5.636283e-001  7.003142e-001  3.253142e-001
      vertex -5.636283e-001  7.003142e-001  2.810814e-003
    endloop
  endfacet
  facet normal -5.038900e-001  8.637677e-001  0.000000e+000
    outer loop
      vertex -5.636283e-001  7.003142e-001  2.810814e-003
      vertex -5.636283e-001  7.003142e-001  3.253142e-001
      vertex -5.614414e-001  7.015899e-001  3.265899e-001
    endloop
  endfacet
  facet normal -6.193727e-002  9.980801e-001  0.000000e+000
    outer loop
      vertex -5.546875e-001  7.031250e-001  3.281250e-001
      vertex -5.546875e-001  7.031250e-001 -6.938894e-018
      vertex -5.566190e-001  7.030051e-001  3.280052e-001
    endloop
  endfacet
  facet normal -6.193726e-002  9.980800e-001  0.000000e+000
    outer loop
      vertex -5.566190e-001  7.030051e-001  3.280052e-001
      vertex -5.546875e-001  7.031250e-001 -6.938894e-018
      vertex -5.566190e-001  7.030051e-001  1.198473e-004
    endloop
  endfacet
  facet normal -2.030415e-001  9.791701e-001  0.000000e+000
    outer loop
      vertex -5.566190e-001  7.030051e-001  3.280052e-001
      vertex -5.566190e-001  7.030051e-001  1.198473e-004
      vertex -5.590807e-001  7.024947e-001  3.274947e-001
    endloop
  endfacet
  facet normal -2.030415e-001  9.791701e-001  0.000000e+000
    outer loop
      vertex -5.590807e-001  7.024947e-001  3.274947e-001
      vertex -5.566190e-001  7.030051e-001  1.198473e-004
      vertex -5.590807e-001  7.024947e-001  6.303216e-004
    endloop
  endfacet
  facet normal -3.578888e-001  9.337643e-001  0.000000e+000
    outer loop
      vertex -5.590807e-001  7.024947e-001  3.274947e-001
      vertex -5.590807e-001  7.024947e-001  6.303216e-004
      vertex -5.614414e-001  7.015899e-001  3.265899e-001
    endloop
  endfacet
  facet normal -3.578888e-001  9.337642e-001  0.000000e+000
    outer loop
      vertex -5.614414e-001  7.015899e-001  3.265899e-001
      vertex -5.590807e-001  7.024947e-001  6.303216e-004
      vertex -5.614414e-001  7.015899e-001  1.535117e-003
    endloop
  endfacet
  facet normal -5.038900e-001  8.637678e-001  0.000000e+000
    outer loop
      vertex -5.614414e-001  7.015899e-001  3.265899e-001
      vertex -5.614414e-001  7.015899e-001  1.535117e-003
      vertex -5.636283e-001  7.003142e-001  2.810814e-003
    endloop
  endfacet
  facet normal  1.000000e+000  0.000000e+000  0.000000e+000
    outer loop
      vertex  7.578125e-001 -6.250000e-001  3.281250e-001
      vertex  7.578125e-001 -6.250000e-001  0.000000e+000
      vertex  7.578125e-001  7.031250e-001  3.281250e-001
    endloop
  endfacet
  facet normal  1.000000e+000  0.000000e+000  0.000000e+000
    outer loop
      vertex  7.578125e-001  7.031250e-001  3.281250e-001
      vertex  7.578125e-001 -6.250000e-001  0.000000e+000
      vertex  7.578125e-001  7.031250e-001  0.000000e+000
    endloop
  endfacet
endsolid CATIA STL
