solid CATIA STL
  facet normal  0.000000e+000 -1.000000e+000  0.000000e+000
    outer loop
      vertex  0.000000e+000 -4.218750e-001  3.730263e-001
      vertex -2.081668e-017 -4.218750e-001  0.000000e+000
      vertex  7.109375e-001 -4.218750e-001  3.730263e-001
    endloop
  endfacet
  facet normal  0.000000e+000 -1.000000e+000  -0.000000e+000
    outer loop
      vertex  7.109375e-001 -4.218750e-001  3.730263e-001
      vertex -2.081668e-017 -4.218750e-001  0.000000e+000
      vertex  7.500000e-001 -4.218750e-001  0.000000e+000
    endloop
  endfacet
  facet normal  0.000000e+000 -9.999999e-001  0.000000e+000
    outer loop
      vertex  7.109375e-001 -4.218750e-001  3.730263e-001
      vertex  7.500000e-001 -4.218750e-001  0.000000e+000
      vertex  7.500000e-001 -4.218750e-001  3.490485e-001
    endloop
  endfacet
  facet normal  0.000000e+000 -6.816670e-001  7.316626e-001
    outer loop
      vertex  0.000000e+000 -4.218750e-001  3.730263e-001
      vertex  7.109375e-001 -4.218750e-001  3.730263e-001
      vertex  0.000000e+000 -3.443485e-001  4.452553e-001
    endloop
  endfacet
  facet normal  0.000000e+000 -6.816670e-001  7.316626e-001
    outer loop
      vertex  0.000000e+000 -3.443485e-001  4.452553e-001
      vertex  7.109375e-001 -4.218750e-001  3.730263e-001
      vertex  7.109375e-001 -3.443485e-001  4.452553e-001
    endloop
  endfacet
  facet normal  0.000000e+000 -5.317805e-001  8.468822e-001
    outer loop
      vertex  0.000000e+000 -3.443485e-001  4.452553e-001
      vertex  7.109375e-001 -3.443485e-001  4.452553e-001
      vertex  0.000000e+000 -2.546133e-001  5.016025e-001
    endloop
  endfacet
  facet normal  0.000000e+000 -5.317805e-001  8.468822e-001
    outer loop
      vertex  0.000000e+000 -2.546133e-001  5.016025e-001
      vertex  7.109375e-001 -3.443485e-001  4.452553e-001
      vertex  7.109375e-001 -2.546133e-001  5.016025e-001
    endloop
  endfacet
  facet normal  0.000000e+000 -3.628872e-001  9.318331e-001
    outer loop
      vertex  0.000000e+000 -2.546133e-001  5.016025e-001
      vertex  7.109375e-001 -2.546133e-001  5.016025e-001
      vertex  0.000000e+000 -1.558769e-001  5.400538e-001
    endloop
  endfacet
  facet normal  0.000000e+000 -3.628872e-001  9.318331e-001
    outer loop
      vertex  0.000000e+000 -1.558769e-001  5.400538e-001
      vertex  7.109375e-001 -2.546133e-001  5.016025e-001
      vertex  7.109375e-001 -1.558769e-001  5.400538e-001
    endloop
  endfacet
  facet normal  0.000000e+000 -1.810240e-001  9.834787e-001
    outer loop
      vertex  0.000000e+000 -1.558769e-001  5.400538e-001
      vertex  7.109375e-001 -1.558769e-001  5.400538e-001
      vertex  0.000000e+000 -5.166806e-002  5.592350e-001
    endloop
  endfacet
  facet normal  0.000000e+000 -1.810240e-001  9.834787e-001
    outer loop
      vertex  0.000000e+000 -5.166806e-002  5.592350e-001
      vertex  7.109375e-001 -1.558769e-001  5.400538e-001
      vertex  7.109375e-001 -5.166806e-002  5.592350e-001
    endloop
  endfacet
  facet normal  0.000000e+000  7.309992e-003  9.999733e-001
    outer loop
      vertex  0.000000e+000 -5.166806e-002  5.592350e-001
      vertex  7.109375e-001 -5.166806e-002  5.592350e-001
      vertex  0.000000e+000  5.428851e-002  5.584604e-001
    endloop
  endfacet
  facet normal  -0.000000e+000  7.309992e-003  9.999733e-001
    outer loop
      vertex  0.000000e+000  5.428851e-002  5.584604e-001
      vertex  7.109375e-001 -5.166806e-002  5.592350e-001
      vertex  7.109375e-001  5.428851e-002  5.584604e-001
    endloop
  endfacet
  facet normal  0.000000e+000  1.953818e-001  9.807273e-001
    outer loop
      vertex  0.000000e+000  5.428851e-002  5.584604e-001
      vertex  7.109375e-001  5.428851e-002  5.584604e-001
      vertex  0.000000e+000  1.582058e-001  5.377579e-001
    endloop
  endfacet
  facet normal  -0.000000e+000  1.953818e-001  9.807273e-001
    outer loop
      vertex  0.000000e+000  1.582058e-001  5.377579e-001
      vertex  7.109375e-001  5.428851e-002  5.584604e-001
      vertex  7.109375e-001  1.582058e-001  5.377579e-001
    endloop
  endfacet
  facet normal  0.000000e+000  3.764705e-001  9.264286e-001
    outer loop
      vertex  0.000000e+000  1.582058e-001  5.377579e-001
      vertex  7.109375e-001  1.582058e-001  5.377579e-001
      vertex  0.000000e+000  2.563696e-001  4.978673e-001
    endloop
  endfacet
  facet normal  -0.000000e+000  3.764705e-001  9.264286e-001
    outer loop
      vertex  0.000000e+000  2.563696e-001  4.978673e-001
      vertex  7.109375e-001  1.582058e-001  5.377579e-001
      vertex  7.109375e-001  2.563696e-001  4.978673e-001
    endloop
  endfacet
  facet normal  0.000000e+000  5.441039e-001  8.390177e-001
    outer loop
      vertex  0.000000e+000  2.563696e-001  4.978673e-001
      vertex  7.109375e-001  2.563696e-001  4.978673e-001
      vertex  0.000000e+000  3.452714e-001  4.402144e-001
    endloop
  endfacet
  facet normal  -0.000000e+000  5.441039e-001  8.390177e-001
    outer loop
      vertex  0.000000e+000  3.452714e-001  4.402144e-001
      vertex  7.109375e-001  2.563696e-001  4.978673e-001
      vertex  7.109375e-001  3.452714e-001  4.402144e-001
    endloop
  endfacet
  facet normal  0.000000e+000  6.922903e-001  7.216191e-001
    outer loop
      vertex  0.000000e+000  3.452714e-001  4.402144e-001
      vertex  7.109375e-001  3.452714e-001  4.402144e-001
      vertex  0.000000e+000  4.217337e-001  3.668597e-001
    endloop
  endfacet
  facet normal  -0.000000e+000  6.922903e-001  7.216191e-001
    outer loop
      vertex  0.000000e+000  4.217337e-001  3.668597e-001
      vertex  7.109375e-001  3.452714e-001  4.402144e-001
      vertex  7.109375e-001  4.217337e-001  3.668597e-001
    endloop
  endfacet
  facet normal  0.000000e+000  8.157327e-001  5.784290e-001
    outer loop
      vertex  0.000000e+000  4.217337e-001  3.668597e-001
      vertex  7.109375e-001  4.217337e-001  3.668597e-001
      vertex  0.000000e+000  4.830237e-001  2.804252e-001
    endloop
  endfacet
  facet normal  -0.000000e+000  8.157327e-001  5.784290e-001
    outer loop
      vertex  0.000000e+000  4.830237e-001  2.804252e-001
      vertex  7.109375e-001  4.217337e-001  3.668597e-001
      vertex  7.109375e-001  4.830237e-001  2.804252e-001
    endloop
  endfacet
  facet normal  0.000000e+000  9.100200e-001  4.145643e-001
    outer loop
      vertex  0.000000e+000  4.830237e-001  2.804252e-001
      vertex  7.109375e-001  4.830237e-001  2.804252e-001
      vertex  0.000000e+000  5.269507e-001  1.840000e-001
    endloop
  endfacet
  facet normal  -0.000000e+000  9.100200e-001  4.145643e-001
    outer loop
      vertex  0.000000e+000  5.269507e-001  1.840000e-001
      vertex  7.109375e-001  4.830237e-001  2.804252e-001
      vertex  7.109375e-001  5.269507e-001  1.840000e-001
    endloop
  endfacet
  facet normal  0.000000e+000  9.717814e-001  2.358835e-001
    outer loop
      vertex  0.000000e+000  5.269507e-001  1.840000e-001
      vertex  7.109375e-001  5.269507e-001  1.840000e-001
      vertex  0.000000e+000  5.519448e-001  8.103061e-002
    endloop
  endfacet
  facet normal  -0.000000e+000  9.717814e-001  2.358835e-001
    outer loop
      vertex  0.000000e+000  5.519448e-001  8.103061e-002
      vertex  7.109375e-001  5.269507e-001  1.840000e-001
      vertex  7.109375e-001  5.519448e-001  8.103061e-002
    endloop
  endfacet
  facet normal  0.000000e+000  9.988100e-001  4.877078e-002
    outer loop
      vertex  0.000000e+000  5.519448e-001  8.103061e-002
      vertex  7.109375e-001  5.519448e-001  8.103061e-002
      vertex  0.000000e+000  5.571125e-001 -2.480269e-002
    endloop
  endfacet
  facet normal  -0.000000e+000  9.988100e-001  4.877078e-002
    outer loop
      vertex  0.000000e+000  5.571125e-001 -2.480269e-002
      vertex  7.109375e-001  5.519448e-001  8.103061e-002
      vertex  7.109375e-001  5.571125e-001 -2.480269e-002
    endloop
  endfacet
  facet normal  0.000000e+000  9.901395e-001 -1.400847e-001
    outer loop
      vertex  0.000000e+000  5.571125e-001 -2.480269e-002
      vertex  7.109375e-001  5.571125e-001 -2.480269e-002
      vertex  0.000000e+000  5.422692e-001 -1.297173e-001
    endloop
  endfacet
  facet normal  0.000000e+000  9.901395e-001 -1.400847e-001
    outer loop
      vertex  0.000000e+000  5.422692e-001 -1.297173e-001
      vertex  7.109375e-001  5.571125e-001 -2.480269e-002
      vertex  7.109375e-001  5.422692e-001 -1.297173e-001
    endloop
  endfacet
  facet normal  0.000000e+000  9.460800e-001 -3.239331e-001
    outer loop
      vertex  0.000000e+000  5.422692e-001 -1.297173e-001
      vertex  7.109375e-001  5.422692e-001 -1.297173e-001
      vertex  0.000000e+000  5.079455e-001 -2.299633e-001
    endloop
  endfacet
  facet normal  0.000000e+000  9.460800e-001 -3.239331e-001
    outer loop
      vertex  0.000000e+000  5.079455e-001 -2.299633e-001
      vertex  7.109375e-001  5.422692e-001 -1.297173e-001
      vertex  7.109375e-001  5.079455e-001 -2.299633e-001
    endloop
  endfacet
  facet normal  0.000000e+000  8.682058e-001 -4.962042e-001
    outer loop
      vertex  0.000000e+000  5.079455e-001 -2.299633e-001
      vertex  7.109375e-001  5.079455e-001 -2.299633e-001
      vertex  0.000000e+000  4.553680e-001 -3.219579e-001
    endloop
  endfacet
  facet normal  0.000000e+000  8.682058e-001 -4.962042e-001
    outer loop
      vertex  0.000000e+000  4.553680e-001 -3.219579e-001
      vertex  7.109375e-001  5.079455e-001 -2.299633e-001
      vertex  7.109375e-001  4.553680e-001 -3.219579e-001
    endloop
  endfacet
  facet normal  0.000000e+000  7.593011e-001 -6.507395e-001
    outer loop
      vertex  0.000000e+000  4.553680e-001 -3.219579e-001
      vertex  7.109375e-001  4.553680e-001 -3.219579e-001
      vertex  0.000000e+000  3.864160e-001 -4.024130e-001
    endloop
  endfacet
  facet normal  0.000000e+000  7.593011e-001 -6.507395e-001
    outer loop
      vertex  0.000000e+000  3.864160e-001 -4.024130e-001
      vertex  7.109375e-001  4.553680e-001 -3.219579e-001
      vertex  7.109375e-001  3.864160e-001 -4.024130e-001
    endloop
  endfacet
  facet normal  0.000000e+000  6.232574e-001 -7.820167e-001
    outer loop
      vertex  0.000000e+000  3.864160e-001 -4.024130e-001
      vertex  7.109375e-001  3.864160e-001 -4.024130e-001
      vertex  0.000000e+000  3.035540e-001 -4.684530e-001
    endloop
  endfacet
  facet normal  0.000000e+000  6.232574e-001 -7.820167e-001
    outer loop
      vertex  0.000000e+000  3.035540e-001 -4.684530e-001
      vertex  7.109375e-001  3.864160e-001 -4.024130e-001
      vertex  7.109375e-001  3.035540e-001 -4.684530e-001
    endloop
  endfacet
  facet normal  0.000000e+000  4.649374e-001 -8.853435e-001
    outer loop
      vertex  0.000000e+000  3.035540e-001 -4.684530e-001
      vertex  7.109375e-001  3.035540e-001 -4.684530e-001
      vertex  0.000000e+000  2.097435e-001 -5.177175e-001
    endloop
  endfacet
  facet normal  0.000000e+000  4.649374e-001 -8.853435e-001
    outer loop
      vertex  0.000000e+000  2.097435e-001 -5.177175e-001
      vertex  7.109375e-001  3.035540e-001 -4.684530e-001
      vertex  7.109375e-001  2.097435e-001 -5.177175e-001
    endloop
  endfacet
  facet normal  0.000000e+000  2.900005e-001 -9.570265e-001
    outer loop
      vertex  0.000000e+000  2.097435e-001 -5.177175e-001
      vertex  7.109375e-001  2.097435e-001 -5.177175e-001
      vertex  0.000000e+000  1.083376e-001 -5.484458e-001
    endloop
  endfacet
  facet normal  0.000000e+000  2.900005e-001 -9.570265e-001
    outer loop
      vertex  0.000000e+000  1.083376e-001 -5.484458e-001
      vertex  7.109375e-001  2.097435e-001 -5.177175e-001
      vertex  7.109375e-001  1.083376e-001 -5.484458e-001
    endloop
  endfacet
  facet normal  0.000000e+000  1.046980e-001 -9.945040e-001
    outer loop
      vertex  0.000000e+000  1.083376e-001 -5.484458e-001
      vertex  7.109375e-001  1.083376e-001 -5.484458e-001
      vertex  1.024400e-017  2.960526e-003 -5.595395e-001
    endloop
  endfacet
  facet normal  0.000000e+000  1.046980e-001 -9.945040e-001
    outer loop
      vertex  1.024400e-017  2.960526e-003 -5.595395e-001
      vertex  7.109375e-001  1.083376e-001 -5.484458e-001
      vertex  7.109375e-001  2.960526e-003 -5.595395e-001
    endloop
  endfacet
  facet normal  0.000000e+000 -9.999999e-001  0.000000e+000
    outer loop
      vertex  0.000000e+000  2.960526e-003 -1.865132e-001
      vertex  1.024400e-017  2.960526e-003 -5.595395e-001
      vertex  7.500000e-001  2.960526e-003 -1.865132e-001
    endloop
  endfacet
  facet normal  0.000000e+000 -1.000000e+000  0.000000e+000
    outer loop
      vertex  7.500000e-001  2.960526e-003 -1.865132e-001
      vertex  1.024400e-017  2.960526e-003 -5.595395e-001
      vertex  7.109375e-001  2.960526e-003 -5.595395e-001
    endloop
  endfacet
  facet normal  0.000000e+000 -1.000000e+000  0.000000e+000
    outer loop
      vertex  7.500000e-001  2.960526e-003 -1.865132e-001
      vertex  7.109375e-001  2.960526e-003 -5.595395e-001
      vertex  7.500000e-001  2.960526e-003 -5.439137e-001
    endloop
  endfacet
  facet normal  1.000000e+000  0.000000e+000  0.000000e+000
    outer loop
      vertex  7.500000e-001  1.413622e-001  5.263378e-001
      vertex  7.500000e-001  3.905144e-002  5.441399e-001
      vertex  7.500000e-001 -6.477854e-002  5.422069e-001
    endloop
  endfacet
  facet normal  1.000000e+000  -0.000000e+000  0.000000e+000
    outer loop
      vertex  7.500000e-001  4.646867e-001  2.807990e-001
      vertex  7.500000e-001 -5.756649e-003  1.969124e-001
      vertex  7.500000e-001  3.161505e-002  1.939364e-001
    endloop
  endfacet
  facet normal  1.000000e+000  -0.000000e+000  0.000000e+000
    outer loop
      vertex  7.500000e-001  4.646867e-001  2.807990e-001
      vertex  7.500000e-001  3.161505e-002  1.939364e-001
      vertex  7.500000e-001  5.093015e-001  1.870231e-001
    endloop
  endfacet
  facet normal  1.000000e+000  0.000000e+000  -0.000000e+000
    outer loop
      vertex  7.500000e-001  3.161505e-002  1.939364e-001
      vertex  7.500000e-001  6.769355e-002  1.837460e-001
      vertex  7.500000e-001  5.093015e-001  1.870231e-001
    endloop
  endfacet
  facet normal  1.000000e+000  0.000000e+000  0.000000e+000
    outer loop
      vertex  7.500000e-001  5.353135e-001  8.648564e-002
      vertex  7.500000e-001  1.305573e-001  1.435411e-001
      vertex  7.500000e-001  1.549398e-001  1.150632e-001
    endloop
  endfacet
  facet normal  9.999999e-001  0.000000e+000  -0.000000e+000
    outer loop
      vertex  7.500000e-001  1.549398e-001  1.150632e-001
      vertex  7.500000e-001  1.733157e-001  8.238555e-002
      vertex  7.500000e-001  5.353135e-001  8.648564e-002
    endloop
  endfacet
  facet normal  1.000000e+000  0.000000e+000  0.000000e+000
    outer loop
      vertex  7.500000e-001  1.894941e-001  9.539549e-003
      vertex  7.500000e-001  1.866785e-001 -2.784457e-002
      vertex  7.500000e-001  5.417777e-001 -1.716094e-002
    endloop
  endfacet
  facet normal  1.000000e+000  0.000000e+000  0.000000e+000
    outer loop
      vertex  7.500000e-001  1.597712e-001 -9.744547e-002
      vertex  7.500000e-001  1.367081e-001 -1.270021e-001
      vertex  7.500000e-001  5.284594e-001 -1.201513e-001
    endloop
  endfacet
  facet normal  1.000000e+000  -0.000000e+000  -0.000000e+000
    outer loop
      vertex  7.500000e-001 -3.203125e-001 -4.631937e-001
      vertex  7.500000e-001 -2.466756e-001 -5.055428e-001
      vertex  7.500000e-001 -1.675557e-001 -5.364598e-001
    endloop
  endfacet
  facet normal  1.000000e+000  -0.000000e+000  -0.000000e+000
    outer loop
      vertex  7.500000e-001 -3.203125e-001 -4.631937e-001
      vertex  7.500000e-001 -1.675557e-001 -5.364598e-001
      vertex  7.500000e-001 -8.471530e-002 -5.552562e-001
    endloop
  endfacet
  facet normal  1.000000e+000  -0.000000e+000  -0.000000e+000
    outer loop
      vertex  7.500000e-001 -3.203125e-001 -4.631937e-001
      vertex  7.500000e-001 -8.471530e-002 -5.552562e-001
      vertex  7.500000e-001 -2.704459e-016 -5.615132e-001
    endloop
  endfacet
  facet normal  1.000000e+000  0.000000e+000  -0.000000e+000
    outer loop
      vertex  7.500000e-001 -3.203125e-001 -4.631937e-001
      vertex  7.500000e-001 -2.704459e-016 -5.615132e-001
      vertex  7.500000e-001  1.142064e-017 -1.884868e-001
    endloop
  endfacet
  facet normal  1.000000e+000  0.000000e+000  0.000000e+000
    outer loop
      vertex  7.500000e-001 -3.203125e-001 -4.631937e-001
      vertex  7.500000e-001  1.142064e-017 -1.884868e-001
      vertex  7.500000e-001 -3.677743e-002 -1.844272e-001
    endloop
  endfacet
  facet normal  1.000000e+000  0.000000e+000  0.000000e+000
    outer loop
      vertex  7.500000e-001 -3.203125e-001 -4.631937e-001
      vertex  7.500000e-001 -3.677743e-002 -1.844272e-001
      vertex  7.500000e-001 -7.205619e-002 -1.732706e-001
    endloop
  endfacet
  facet normal  1.000000e+000  0.000000e+000  0.000000e+000
    outer loop
      vertex  7.500000e-001 -3.203125e-001 -4.631937e-001
      vertex  7.500000e-001 -7.205619e-002 -1.732706e-001
      vertex  7.500000e-001 -1.044805e-001 -1.554459e-001
    endloop
  endfacet
  facet normal  1.000000e+000  0.000000e+000  0.000000e+000
    outer loop
      vertex  7.500000e-001 -3.203125e-001 -4.631937e-001
      vertex  7.500000e-001 -1.044805e-001 -1.554459e-001
      vertex  7.500000e-001 -1.328044e-001 -1.316380e-001
    endloop
  endfacet
  facet normal  1.000000e+000  0.000000e+000  0.000000e+000
    outer loop
      vertex  7.500000e-001 -3.203125e-001 -4.631937e-001
      vertex  7.500000e-001 -1.328044e-001 -1.316380e-001
      vertex  7.500000e-001 -1.559394e-001 -1.027618e-001
    endloop
  endfacet
  facet normal  1.000000e+000  0.000000e+000  0.000000e+000
    outer loop
      vertex  7.500000e-001 -3.203125e-001 -4.631937e-001
      vertex  7.500000e-001 -1.559394e-001 -1.027618e-001
      vertex  7.500000e-001 -1.729964e-001 -6.992712e-002
    endloop
  endfacet
  facet normal  1.000000e+000  0.000000e+000  0.000000e+000
    outer loop
      vertex  7.500000e-001 -3.203125e-001 -4.631937e-001
      vertex  7.500000e-001 -1.729964e-001 -6.992712e-002
      vertex  7.500000e-001 -1.833199e-001 -3.439565e-002
    endloop
  endfacet
  facet normal  1.000000e+000  0.000000e+000  0.000000e+000
    outer loop
      vertex  7.500000e-001 -3.203125e-001 -4.631937e-001
      vertex  7.500000e-001 -1.833199e-001 -3.439565e-002
      vertex  7.500000e-001 -1.865132e-001  2.467105e-003
    endloop
  endfacet
  facet normal  1.000000e+000  0.000000e+000  0.000000e+000
    outer loop
      vertex  7.500000e-001 -3.203125e-001 -4.631937e-001
      vertex  7.500000e-001 -1.865132e-001  2.467105e-003
      vertex  7.500000e-001 -3.203125e-001  0.000000e+000
    endloop
  endfacet
  facet normal  1.000000e+000  0.000000e+000  -0.000000e+000
    outer loop
      vertex  7.500000e-001 -4.218750e-001  0.000000e+000
      vertex  7.500000e-001 -3.203125e-001  0.000000e+000
      vertex  7.500000e-001 -1.865132e-001  2.467105e-003
    endloop
  endfacet
  facet normal  1.000000e+000  0.000000e+000  0.000000e+000
    outer loop
      vertex  7.500000e-001 -4.218750e-001  0.000000e+000
      vertex  7.500000e-001 -1.865132e-001  2.467105e-003
      vertex  7.500000e-001 -1.939653e-001  2.467105e-003
    endloop
  endfacet
  facet normal  1.000000e+000  0.000000e+000  -0.000000e+000
    outer loop
      vertex  7.500000e-001 -4.218750e-001  0.000000e+000
      vertex  7.500000e-001 -1.939653e-001  2.467105e-003
      vertex  7.500000e-001 -1.908290e-001  3.982570e-002
    endloop
  endfacet
  facet normal  1.000000e+000  0.000000e+000  -0.000000e+000
    outer loop
      vertex  7.500000e-001 -4.218750e-001  0.000000e+000
      vertex  7.500000e-001 -1.908290e-001  3.982570e-002
      vertex  7.500000e-001 -1.804840e-001  7.586015e-002
    endloop
  endfacet
  facet normal  1.000000e+000  0.000000e+000  -0.000000e+000
    outer loop
      vertex  7.500000e-001 -4.218750e-001  0.000000e+000
      vertex  7.500000e-001 -1.804840e-001  7.586015e-002
      vertex  7.500000e-001 -1.633257e-001  1.091932e-001
    endloop
  endfacet
  facet normal  1.000000e+000  0.000000e+000  -0.000000e+000
    outer loop
      vertex  7.500000e-001 -4.218750e-001  0.000000e+000
      vertex  7.500000e-001 -1.633257e-001  1.091932e-001
      vertex  7.500000e-001 -1.400098e-001  1.385509e-001
    endloop
  endfacet
  facet normal  1.000000e+000  0.000000e+000  0.000000e+000
    outer loop
      vertex  7.500000e-001 -4.218750e-001  3.490485e-001
      vertex  7.500000e-001 -4.218750e-001  0.000000e+000
      vertex  7.500000e-001 -1.400098e-001  1.385509e-001
    endloop
  endfacet
  facet normal  1.000000e+000  0.000000e+000  -0.000000e+000
    outer loop
      vertex  7.500000e-001 -4.218750e-001  3.490485e-001
      vertex  7.500000e-001 -1.400098e-001  1.385509e-001
      vertex  7.500000e-001 -1.114276e-001  1.628110e-001
    endloop
  endfacet
  facet normal  1.000000e+000  0.000000e+000  -0.000000e+000
    outer loop
      vertex  7.500000e-001 -4.218750e-001  3.490485e-001
      vertex  7.500000e-001 -1.114276e-001  1.628110e-001
      vertex  7.500000e-001 -7.867138e-002  1.810465e-001
    endloop
  endfacet
  facet normal  1.000000e+000  0.000000e+000  -0.000000e+000
    outer loop
      vertex  7.500000e-001 -4.218750e-001  3.490485e-001
      vertex  7.500000e-001 -7.867138e-002  1.810465e-001
      vertex  7.500000e-001 -4.299319e-002  1.925603e-001
    endloop
  endfacet
  facet normal  1.000000e+000  0.000000e+000  -0.000000e+000
    outer loop
      vertex  7.500000e-001 -4.218750e-001  3.490485e-001
      vertex  7.500000e-001 -4.299319e-002  1.925603e-001
      vertex  7.500000e-001 -5.756649e-003  1.969124e-001
    endloop
  endfacet
  facet normal  1.000000e+000  0.000000e+000  -0.000000e+000
    outer loop
      vertex  7.500000e-001 -4.218750e-001  3.490485e-001
      vertex  7.500000e-001 -5.756649e-003  1.969124e-001
      vertex  7.500000e-001  4.646867e-001  2.807990e-001
    endloop
  endfacet
  facet normal  1.000000e+000  0.000000e+000  0.000000e+000
    outer loop
      vertex  7.500000e-001 -4.218750e-001  3.490485e-001
      vertex  7.500000e-001  4.646867e-001  2.807990e-001
      vertex  7.500000e-001  4.030899e-001  3.644066e-001
    endloop
  endfacet
  facet normal  1.000000e+000  0.000000e+000  0.000000e+000
    outer loop
      vertex  7.500000e-001 -4.218750e-001  3.490485e-001
      vertex  7.500000e-001  4.030899e-001  3.644066e-001
      vertex  7.500000e-001  3.267488e-001  4.348086e-001
    endloop
  endfacet
  facet normal  1.000000e+000  0.000000e+000  0.000000e+000
    outer loop
      vertex  7.500000e-001 -4.218750e-001  3.490485e-001
      vertex  7.500000e-001  3.267488e-001  4.348086e-001
      vertex  7.500000e-001 -3.482072e-001  4.222431e-001
    endloop
  endfacet
  facet normal  1.000000e+000  0.000000e+000  0.000000e+000
    outer loop
      vertex  7.500000e-001  4.958422e-001 -2.187440e-001
      vertex  7.500000e-001  5.284594e-001 -1.201513e-001
      vertex  7.500000e-001  1.367081e-001 -1.270021e-001
    endloop
  endfacet
  facet normal  1.000000e+000  0.000000e+000  0.000000e+000
    outer loop
      vertex  7.500000e-001  4.958422e-001 -2.187440e-001
      vertex  7.500000e-001  1.367081e-001 -1.270021e-001
      vertex  7.500000e-001  1.083350e-001 -1.515065e-001
    endloop
  endfacet
  facet normal  1.000000e+000  0.000000e+000  0.000000e+000
    outer loop
      vertex  7.500000e-001  4.958422e-001 -2.187440e-001
      vertex  7.500000e-001  1.083350e-001 -1.515065e-001
      vertex  7.500000e-001  7.573647e-002 -1.700224e-001
    endloop
  endfacet
  facet normal  9.999999e-001  0.000000e+000  0.000000e+000
    outer loop
      vertex  7.500000e-001  4.958422e-001 -2.187440e-001
      vertex  7.500000e-001  7.573647e-002 -1.700224e-001
      vertex  7.500000e-001  4.015836e-002 -1.818418e-001
    endloop
  endfacet
  facet normal  1.000000e+000  0.000000e+000  0.000000e+000
    outer loop
      vertex  7.500000e-001  4.958422e-001 -2.187440e-001
      vertex  7.500000e-001  4.015836e-002 -1.818418e-001
      vertex  7.500000e-001  2.960526e-003 -1.865132e-001
    endloop
  endfacet
  facet normal  1.000000e+000  0.000000e+000  0.000000e+000
    outer loop
      vertex  7.500000e-001  2.960526e-003 -1.865132e-001
      vertex  7.500000e-001  2.960526e-003 -5.439137e-001
      vertex  7.500000e-001  1.062261e-001 -5.329305e-001
    endloop
  endfacet
  facet normal  1.000000e+000  0.000000e+000  -0.000000e+000
    outer loop
      vertex  7.500000e-001  2.960526e-003 -1.865132e-001
      vertex  7.500000e-001  1.062261e-001 -5.329305e-001
      vertex  7.500000e-001  2.055320e-001 -5.025539e-001
    endloop
  endfacet
  facet normal  1.000000e+000  0.000000e+000  -0.000000e+000
    outer loop
      vertex  7.500000e-001  2.960526e-003 -1.865132e-001
      vertex  7.500000e-001  2.055320e-001 -5.025539e-001
      vertex  7.500000e-001  2.972706e-001 -4.538875e-001
    endloop
  endfacet
  facet normal  1.000000e+000  0.000000e+000  -0.000000e+000
    outer loop
      vertex  7.500000e-001  2.960526e-003 -1.865132e-001
      vertex  7.500000e-001  2.972706e-001 -4.538875e-001
      vertex  7.500000e-001  3.781093e-001 -3.886992e-001
    endloop
  endfacet
  facet normal  1.000000e+000  0.000000e+000  -0.000000e+000
    outer loop
      vertex  7.500000e-001  2.960526e-003 -1.865132e-001
      vertex  7.500000e-001  3.781093e-001 -3.886992e-001
      vertex  7.500000e-001  4.451112e-001 -3.093573e-001
    endloop
  endfacet
  facet normal  1.000000e+000  0.000000e+000  -0.000000e+000
    outer loop
      vertex  7.500000e-001  2.960526e-003 -1.865132e-001
      vertex  7.500000e-001  4.451112e-001 -3.093573e-001
      vertex  7.500000e-001  4.958422e-001 -2.187440e-001
    endloop
  endfacet
  facet normal  1.000000e+000  0.000000e+000  0.000000e+000
    outer loop
      vertex  7.500000e-001 -3.482072e-001  4.222431e-001
      vertex  7.500000e-001  3.267488e-001  4.348086e-001
      vertex  7.500000e-001 -2.619901e-001  4.801310e-001
    endloop
  endfacet
  facet normal  1.000000e+000  -0.000000e+000  0.000000e+000
    outer loop
      vertex  7.500000e-001 -2.619901e-001  4.801310e-001
      vertex  7.500000e-001  3.267488e-001  4.348086e-001
      vertex  7.500000e-001  2.384368e-001  4.894473e-001
    endloop
  endfacet
  facet normal  1.000000e+000  0.000000e+000  0.000000e+000
    outer loop
      vertex  7.500000e-001 -2.619901e-001  4.801310e-001
      vertex  7.500000e-001  2.384368e-001  4.894473e-001
      vertex  7.500000e-001 -1.663558e-001  5.206091e-001
    endloop
  endfacet
  facet normal  1.000000e+000  -0.000000e+000  0.000000e+000
    outer loop
      vertex  7.500000e-001 -1.663558e-001  5.206091e-001
      vertex  7.500000e-001  2.384368e-001  4.894473e-001
      vertex  7.500000e-001  1.413622e-001  5.263378e-001
    endloop
  endfacet
  facet normal  9.999999e-001  0.000000e+000  0.000000e+000
    outer loop
      vertex  7.500000e-001 -1.663558e-001  5.206091e-001
      vertex  7.500000e-001  1.413622e-001  5.263378e-001
      vertex  7.500000e-001 -6.477854e-002  5.422069e-001
    endloop
  endfacet
  facet normal  1.000000e+000  0.000000e+000  0.000000e+000
    outer loop
      vertex  7.500000e-001  1.305573e-001  1.435411e-001
      vertex  7.500000e-001  5.353135e-001  8.648564e-002
      vertex  7.500000e-001  1.010999e-001  1.667309e-001
    endloop
  endfacet
  facet normal  1.000000e+000  -0.000000e+000  0.000000e+000
    outer loop
      vertex  7.500000e-001  1.010999e-001  1.667309e-001
      vertex  7.500000e-001  5.353135e-001  8.648564e-002
      vertex  7.500000e-001  5.093015e-001  1.870231e-001
    endloop
  endfacet
  facet normal  1.000000e+000  0.000000e+000  0.000000e+000
    outer loop
      vertex  7.500000e-001  1.010999e-001  1.667309e-001
      vertex  7.500000e-001  5.093015e-001  1.870231e-001
      vertex  7.500000e-001  6.769355e-002  1.837460e-001
    endloop
  endfacet
  facet normal  1.000000e+000  -0.000000e+000  0.000000e+000
    outer loop
      vertex  7.500000e-001  5.353135e-001  8.648564e-002
      vertex  7.500000e-001  1.733157e-001  8.238555e-002
      vertex  7.500000e-001  5.417777e-001 -1.716094e-002
    endloop
  endfacet
  facet normal  1.000000e+000  0.000000e+000  0.000000e+000
    outer loop
      vertex  7.500000e-001  5.417777e-001 -1.716094e-002
      vertex  7.500000e-001  1.733157e-001  8.238555e-002
      vertex  7.500000e-001  1.849824e-001  4.675708e-002
    endloop
  endfacet
  facet normal  1.000000e+000  0.000000e+000  0.000000e+000
    outer loop
      vertex  7.500000e-001  5.417777e-001 -1.716094e-002
      vertex  7.500000e-001  1.849824e-001  4.675708e-002
      vertex  7.500000e-001  1.894941e-001  9.539549e-003
    endloop
  endfacet
  facet normal  1.000000e+000  -0.000000e+000  0.000000e+000
    outer loop
      vertex  7.500000e-001  5.417777e-001 -1.716094e-002
      vertex  7.500000e-001  1.866785e-001 -2.784457e-002
      vertex  7.500000e-001  5.284594e-001 -1.201513e-001
    endloop
  endfacet
  facet normal  1.000000e+000  0.000000e+000  0.000000e+000
    outer loop
      vertex  7.500000e-001  5.284594e-001 -1.201513e-001
      vertex  7.500000e-001  1.866785e-001 -2.784457e-002
      vertex  7.500000e-001  1.766430e-001 -6.396645e-002
    endloop
  endfacet
  facet normal  9.999999e-001  0.000000e+000  0.000000e+000
    outer loop
      vertex  7.500000e-001  5.284594e-001 -1.201513e-001
      vertex  7.500000e-001  1.766430e-001 -6.396645e-002
      vertex  7.500000e-001  1.597712e-001 -9.744547e-002
    endloop
  endfacet
  facet normal  3.992341e-001 -6.462180e-001  6.503955e-001
    outer loop
      vertex  7.500000e-001 -4.218750e-001  3.490485e-001
      vertex  7.500000e-001 -3.482072e-001  4.222431e-001
      vertex  7.109375e-001 -4.218750e-001  3.730263e-001
    endloop
  endfacet
  facet normal  3.417915e-001 -6.406140e-001  6.875988e-001
    outer loop
      vertex  7.500000e-001 -3.482072e-001  4.222431e-001
      vertex  7.109375e-001 -3.443485e-001  4.452553e-001
      vertex  7.109375e-001 -4.218750e-001  3.730263e-001
    endloop
  endfacet
  facet normal  3.935107e-001  1.575943e-001  9.057115e-001
    outer loop
      vertex  7.109375e-001  5.428851e-002  5.584604e-001
      vertex  7.500000e-001  3.905144e-002  5.441399e-001
      vertex  7.500000e-001  1.413622e-001  5.263378e-001
    endloop
  endfacet
  facet normal  3.947136e-001 -1.710220e-002  9.186450e-001
    outer loop
      vertex  7.109375e-001 -5.166806e-002  5.592350e-001
      vertex  7.500000e-001 -6.477854e-002  5.422069e-001
      vertex  7.500000e-001  3.905144e-002  5.441399e-001
    endloop
  endfacet
  facet normal  3.465519e-001  6.856997e-003  9.380057e-001
    outer loop
      vertex  7.500000e-001  3.905144e-002  5.441399e-001
      vertex  7.109375e-001  5.428851e-002  5.584604e-001
      vertex  7.109375e-001 -5.166806e-002  5.592350e-001
    endloop
  endfacet
  facet normal  3.958865e-001 -1.909840e-001  8.982198e-001
    outer loop
      vertex  7.109375e-001 -1.558769e-001  5.400538e-001
      vertex  7.500000e-001 -1.663558e-001  5.206091e-001
      vertex  7.500000e-001 -6.477854e-002  5.422069e-001
    endloop
  endfacet
  facet normal  3.453235e-001 -1.698881e-001  9.229787e-001
    outer loop
      vertex  7.500000e-001 -6.477854e-002  5.422069e-001
      vertex  7.109375e-001 -5.166806e-002  5.592350e-001
      vertex  7.109375e-001 -1.558769e-001  5.400538e-001
    endloop
  endfacet
  facet normal  3.429425e-001 -4.995314e-001  7.955242e-001
    outer loop
      vertex  7.109375e-001 -2.546133e-001  5.016025e-001
      vertex  7.109375e-001 -3.443485e-001  4.452553e-001
      vertex  7.500000e-001 -2.619901e-001  4.801310e-001
    endloop
  endfacet
  facet normal  3.970307e-001 -3.577444e-001  8.452133e-001
    outer loop
      vertex  7.500000e-001 -1.663558e-001  5.206091e-001
      vertex  7.109375e-001 -2.546133e-001  5.016025e-001
      vertex  7.500000e-001 -2.619901e-001  4.801310e-001
    endloop
  endfacet
  facet normal  3.441200e-001 -3.407241e-001  8.749220e-001
    outer loop
      vertex  7.500000e-001 -1.663558e-001  5.206091e-001
      vertex  7.109375e-001 -1.558769e-001  5.400538e-001
      vertex  7.109375e-001 -2.546133e-001  5.016025e-001
    endloop
  endfacet
  facet normal  3.981466e-001 -5.113419e-001  7.615830e-001
    outer loop
      vertex  7.500000e-001 -2.619901e-001  4.801310e-001
      vertex  7.109375e-001 -3.443485e-001  4.452553e-001
      vertex  7.500000e-001 -3.482072e-001  4.222431e-001
    endloop
  endfacet
  facet normal  3.813765e-001  8.776391e-001 -2.903472e-001
    outer loop
      vertex  7.500000e-001  4.958422e-001 -2.187440e-001
      vertex  7.109375e-001  5.422692e-001 -1.297173e-001
      vertex  7.500000e-001  5.284594e-001 -1.201513e-001
    endloop
  endfacet
  facet normal  3.587645e-001  9.242241e-001 -1.307590e-001
    outer loop
      vertex  7.500000e-001  5.284594e-001 -1.201513e-001
      vertex  7.109375e-001  5.422692e-001 -1.297173e-001
      vertex  7.109375e-001  5.571125e-001 -2.480269e-002
    endloop
  endfacet
  facet normal  3.828445e-001  9.161841e-001 -1.184777e-001
    outer loop
      vertex  7.500000e-001  5.284594e-001 -1.201513e-001
      vertex  7.109375e-001  5.571125e-001 -2.480269e-002
      vertex  7.500000e-001  5.417777e-001 -1.716094e-002
    endloop
  endfacet
  facet normal  3.573081e-001  9.328751e-001  4.555126e-002
    outer loop
      vertex  7.500000e-001  5.417777e-001 -1.716094e-002
      vertex  7.109375e-001  5.571125e-001 -2.480269e-002
      vertex  7.109375e-001  5.519448e-001  8.103061e-002
    endloop
  endfacet
  facet normal  3.842810e-001  9.214259e-001  5.746708e-002
    outer loop
      vertex  7.500000e-001  5.417777e-001 -1.716094e-002
      vertex  7.109375e-001  5.519448e-001  8.103061e-002
      vertex  7.500000e-001  5.353135e-001  8.648564e-002
    endloop
  endfacet
  facet normal  3.558748e-001  9.081624e-001  2.204411e-001
    outer loop
      vertex  7.500000e-001  5.353135e-001  8.648564e-002
      vertex  7.109375e-001  5.519448e-001  8.103061e-002
      vertex  7.109375e-001  5.269507e-001  1.840000e-001
    endloop
  endfacet
  facet normal  3.856873e-001  8.932174e-001  2.311017e-001
    outer loop
      vertex  7.500000e-001  5.353135e-001  8.648564e-002
      vertex  7.109375e-001  5.269507e-001  1.840000e-001
      vertex  7.500000e-001  5.093015e-001  1.870231e-001
    endloop
  endfacet
  facet normal  3.544665e-001  8.509313e-001  3.876461e-001
    outer loop
      vertex  7.500000e-001  5.093015e-001  1.870231e-001
      vertex  7.109375e-001  5.269507e-001  1.840000e-001
      vertex  7.109375e-001  4.830237e-001  2.804252e-001
    endloop
  endfacet
  facet normal  3.870656e-001  8.326235e-001  3.961290e-001
    outer loop
      vertex  7.500000e-001  5.093015e-001  1.870231e-001
      vertex  7.109375e-001  4.830237e-001  2.804252e-001
      vertex  7.500000e-001  4.646867e-001  2.807990e-001
    endloop
  endfacet
  facet normal  3.530847e-001  7.631925e-001  5.411732e-001
    outer loop
      vertex  7.500000e-001  4.646867e-001  2.807990e-001
      vertex  7.109375e-001  4.830237e-001  2.804252e-001
      vertex  7.109375e-001  4.217337e-001  3.668597e-001
    endloop
  endfacet
  facet normal  3.884129e-001  7.418846e-001  5.465738e-001
    outer loop
      vertex  7.500000e-001  4.646867e-001  2.807990e-001
      vertex  7.109375e-001  4.217337e-001  3.668597e-001
      vertex  7.500000e-001  4.030899e-001  3.644066e-001
    endloop
  endfacet
  facet normal  3.602468e-001  8.825575e-001 -3.021832e-001
    outer loop
      vertex  7.109375e-001  5.422692e-001 -1.297173e-001
      vertex  7.500000e-001  4.958422e-001 -2.187440e-001
      vertex  7.109375e-001  5.079455e-001 -2.299633e-001
    endloop
  endfacet
  facet normal  3.798796e-001  8.071464e-001 -4.518916e-001
    outer loop
      vertex  7.109375e-001  5.079455e-001 -2.299633e-001
      vertex  7.500000e-001  4.958422e-001 -2.187440e-001
      vertex  7.500000e-001  4.451112e-001 -3.093573e-001
    endloop
  endfacet
  facet normal  3.617527e-001  8.094059e-001 -4.625983e-001
    outer loop
      vertex  7.109375e-001  5.079455e-001 -2.299633e-001
      vertex  7.500000e-001  4.451112e-001 -3.093573e-001
      vertex  7.109375e-001  4.553680e-001 -3.219579e-001
    endloop
  endfacet
  facet normal  3.783514e-001  7.072246e-001 -5.972298e-001
    outer loop
      vertex  7.109375e-001  4.553680e-001 -3.219579e-001
      vertex  7.500000e-001  4.451112e-001 -3.093573e-001
      vertex  7.500000e-001  3.781093e-001 -3.886992e-001
    endloop
  endfacet
  facet normal  3.632840e-001  7.074245e-001 -6.062800e-001
    outer loop
      vertex  7.109375e-001  4.553680e-001 -3.219579e-001
      vertex  7.500000e-001  3.781093e-001 -3.886992e-001
      vertex  7.109375e-001  3.864160e-001 -4.024130e-001
    endloop
  endfacet
  facet normal  3.767940e-001  5.814627e-001 -7.210599e-001
    outer loop
      vertex  7.109375e-001  3.864160e-001 -4.024130e-001
      vertex  7.500000e-001  3.781093e-001 -3.886992e-001
      vertex  7.500000e-001  2.972706e-001 -4.538875e-001
    endloop
  endfacet
  facet normal  3.648390e-001  5.802967e-001 -7.281128e-001
    outer loop
      vertex  7.109375e-001  3.864160e-001 -4.024130e-001
      vertex  7.500000e-001  2.972706e-001 -4.538875e-001
      vertex  7.109375e-001  3.035540e-001 -4.684530e-001
    endloop
  endfacet
  facet normal  3.752054e-001  4.343940e-001 -8.188546e-001
    outer loop
      vertex  7.109375e-001  3.035540e-001 -4.684530e-001
      vertex  7.500000e-001  2.972706e-001 -4.538875e-001
      vertex  7.500000e-001  2.055320e-001 -5.025539e-001
    endloop
  endfacet
  facet normal  3.664174e-001  4.326014e-001 -8.237684e-001
    outer loop
      vertex  7.109375e-001  3.035540e-001 -4.684530e-001
      vertex  7.500000e-001  2.055320e-001 -5.025539e-001
      vertex  7.109375e-001  2.097435e-001 -5.177175e-001
    endloop
  endfacet
  facet normal  3.735852e-001  2.713310e-001 -8.870252e-001
    outer loop
      vertex  7.109375e-001  2.097435e-001 -5.177175e-001
      vertex  7.500000e-001  2.055320e-001 -5.025539e-001
      vertex  7.500000e-001  1.062261e-001 -5.329305e-001
    endloop
  endfacet
  facet normal  3.680202e-001  2.696476e-001 -8.898603e-001
    outer loop
      vertex  7.109375e-001  2.097435e-001 -5.177175e-001
      vertex  7.500000e-001  1.062261e-001 -5.329305e-001
      vertex  7.109375e-001  1.083376e-001 -5.484458e-001
    endloop
  endfacet
  facet normal  3.719349e-001  9.817451e-002 -9.230527e-001
    outer loop
      vertex  7.109375e-001  1.083376e-001 -5.484458e-001
      vertex  7.500000e-001  1.062261e-001 -5.329305e-001
      vertex  7.500000e-001  2.960526e-003 -5.439137e-001
    endloop
  endfacet
  facet normal  3.696461e-001  9.728251e-002 -9.240660e-001
    outer loop
      vertex  7.109375e-001  1.083376e-001 -5.484458e-001
      vertex  7.500000e-001  2.960526e-003 -5.439137e-001
      vertex  7.109375e-001  2.960526e-003 -5.595395e-001
    endloop
  endfacet
  facet normal  3.478065e-001  1.831834e-001  9.194969e-001
    outer loop
      vertex  7.109375e-001  5.428851e-002  5.584604e-001
      vertex  7.500000e-001  1.413622e-001  5.263378e-001
      vertex  7.109375e-001  1.582058e-001  5.377579e-001
    endloop
  endfacet
  facet normal  3.922795e-001  3.267625e-001  8.598507e-001
    outer loop
      vertex  7.109375e-001  1.582058e-001  5.377579e-001
      vertex  7.500000e-001  1.413622e-001  5.263378e-001
      vertex  7.500000e-001  2.384368e-001  4.894473e-001
    endloop
  endfacet
  facet normal  3.490882e-001  3.527867e-001  8.681469e-001
    outer loop
      vertex  7.109375e-001  1.582058e-001  5.377579e-001
      vertex  7.500000e-001  2.384368e-001  4.894473e-001
      vertex  7.109375e-001  2.563696e-001  4.978673e-001
    endloop
  endfacet
  facet normal  3.910204e-001  4.842511e-001  7.826902e-001
    outer loop
      vertex  7.109375e-001  2.563696e-001  4.978673e-001
      vertex  7.500000e-001  2.384368e-001  4.894473e-001
      vertex  7.500000e-001  3.267488e-001  4.348086e-001
    endloop
  endfacet
  facet normal  3.503950e-001  5.096088e-001  7.858258e-001
    outer loop
      vertex  7.109375e-001  2.563696e-001  4.978673e-001
      vertex  7.500000e-001  3.267488e-001  4.348086e-001
      vertex  7.109375e-001  3.452714e-001  4.402144e-001
    endloop
  endfacet
  facet normal  3.897315e-001  6.243279e-001  6.769964e-001
    outer loop
      vertex  7.109375e-001  3.452714e-001  4.402144e-001
      vertex  7.500000e-001  3.267488e-001  4.348086e-001
      vertex  7.500000e-001  4.030899e-001  3.644066e-001
    endloop
  endfacet
  facet normal  3.517268e-001  6.480548e-001  6.755096e-001
    outer loop
      vertex  7.109375e-001  3.452714e-001  4.402144e-001
      vertex  7.500000e-001  4.030899e-001  3.644066e-001
      vertex  7.109375e-001  4.217337e-001  3.668597e-001
    endloop
  endfacet
  facet normal -1.000000e+000  0.000000e+000  0.000000e+000
    outer loop
      vertex  0.000000e+000  3.161505e-002  1.939364e-001
      vertex  0.000000e+000 -5.756649e-003  1.969124e-001
      vertex  0.000000e+000  4.830237e-001  2.804252e-001
    endloop
  endfacet
  facet normal -1.000000e+000  0.000000e+000  0.000000e+000
    outer loop
      vertex  0.000000e+000  6.769355e-002  1.837460e-001
      vertex  0.000000e+000  3.161505e-002  1.939364e-001
      vertex  0.000000e+000  4.830237e-001  2.804252e-001
    endloop
  endfacet
  facet normal -1.000000e+000  0.000000e+000  0.000000e+000
    outer loop
      vertex  0.000000e+000  5.269507e-001  1.840000e-001
      vertex  0.000000e+000  6.769355e-002  1.837460e-001
      vertex  0.000000e+000  4.830237e-001  2.804252e-001
    endloop
  endfacet
  facet normal -1.000000e+000  0.000000e+000  0.000000e+000
    outer loop
      vertex  0.000000e+000  1.010999e-001  1.667309e-001
      vertex  0.000000e+000  6.769355e-002  1.837460e-001
      vertex  0.000000e+000  5.269507e-001  1.840000e-001
    endloop
  endfacet
  facet normal -1.000000e+000  0.000000e+000  0.000000e+000
    outer loop
      vertex  0.000000e+000  1.894941e-001  9.539549e-003
      vertex  0.000000e+000  1.849824e-001  4.675708e-002
      vertex  0.000000e+000  5.571125e-001 -2.480269e-002
    endloop
  endfacet
  facet normal -1.000000e+000  0.000000e+000  0.000000e+000
    outer loop
      vertex  0.000000e+000  5.571125e-001 -2.480269e-002
      vertex  0.000000e+000  1.866785e-001 -2.784457e-002
      vertex  0.000000e+000  1.894941e-001  9.539549e-003
    endloop
  endfacet
  facet normal -9.999999e-001  1.565292e-016 -1.013649e-016
    outer loop
      vertex  2.613490e-017 -3.203125e-001 -4.631937e-001
      vertex -2.081668e-017 -3.203125e-001  0.000000e+000
      vertex -1.232567e-019 -1.865132e-001  2.467105e-003
    endloop
  endfacet
  facet normal -1.000000e+000 -2.347494e-018 -5.571451e-017
    outer loop
      vertex  2.613490e-017 -3.203125e-001 -4.631937e-001
      vertex -1.232567e-019 -1.865132e-001  2.467105e-003
      vertex  1.923037e-018 -1.833199e-001 -3.439565e-002
    endloop
  endfacet
  facet normal -1.000000e+000 -1.562768e-018 -5.596521e-017
    outer loop
      vertex  2.613490e-017 -3.203125e-001 -4.631937e-001
      vertex  1.923037e-018 -1.833199e-001 -3.439565e-002
      vertex  3.895430e-018 -1.729964e-001 -6.992712e-002
    endloop
  endfacet
  facet normal -1.000000e+000 -1.162616e-018 -5.611511e-017
    outer loop
      vertex  2.613490e-017 -3.203125e-001 -4.631937e-001
      vertex  3.895430e-018 -1.729964e-001 -6.992712e-002
      vertex  5.718123e-018 -1.559394e-001 -1.027618e-001
    endloop
  endfacet
  facet normal -1.000000e+000 -9.021004e-019 -5.623391e-017
    outer loop
      vertex  2.613490e-017 -3.203125e-001 -4.631937e-001
      vertex  5.718123e-018 -1.559394e-001 -1.027618e-001
      vertex  7.321073e-018 -1.328044e-001 -1.316380e-001
    endloop
  endfacet
  facet normal -1.000000e+000 -7.024589e-019 -5.634682e-017
    outer loop
      vertex  2.613490e-017 -3.203125e-001 -4.631937e-001
      vertex  7.321073e-018 -1.328044e-001 -1.316380e-001
      vertex  8.642677e-018 -1.044805e-001 -1.554459e-001
    endloop
  endfacet
  facet normal -9.999999e-001 -5.270083e-019 -5.646986e-017
    outer loop
      vertex  2.613490e-017 -3.203125e-001 -4.631937e-001
      vertex  8.642677e-018 -1.044805e-001 -1.554459e-001
      vertex  9.632148e-018 -7.205619e-002 -1.732706e-001
    endloop
  endfacet
  facet normal -1.000000e+000 -3.508977e-019 -5.662067e-017
    outer loop
      vertex  2.613490e-017 -3.203125e-001 -4.631937e-001
      vertex  9.632148e-018 -7.205619e-002 -1.732706e-001
      vertex  1.025146e-017 -3.677743e-002 -1.844272e-001
    endloop
  endfacet
  facet normal -1.000000e+000 -5.093646e-016  4.611001e-016
    outer loop
      vertex  2.613490e-017 -3.203125e-001 -4.631937e-001
      vertex  1.025146e-017 -3.677743e-002 -1.844272e-001
      vertex -1.035356e-017  1.142064e-017 -1.884868e-001
    endloop
  endfacet
  facet normal -1.000000e+000 -1.747685e-017 -1.124486e-016
    outer loop
      vertex  2.613490e-017 -3.203125e-001 -4.631937e-001
      vertex -1.035356e-017  1.142064e-017 -1.884868e-001
      vertex  3.159273e-017 -2.704459e-016 -5.615132e-001
    endloop
  endfacet
  facet normal -1.000000e+000 -1.636583e-024 -5.551117e-017
    outer loop
      vertex  2.613490e-017 -3.203125e-001 -4.631937e-001
      vertex  3.159273e-017 -2.704459e-016 -5.615132e-001
      vertex  3.124539e-017 -8.471530e-002 -5.552562e-001
    endloop
  endfacet
  facet normal -1.000000e+000 -9.723243e-024 -5.551119e-017
    outer loop
      vertex  2.613490e-017 -3.203125e-001 -4.631937e-001
      vertex  3.124539e-017 -8.471530e-002 -5.552562e-001
      vertex  3.020199e-017 -1.675557e-001 -5.364598e-001
    endloop
  endfacet
  facet normal -1.000000e+000 -4.762308e-023 -5.551127e-017
    outer loop
      vertex  2.613490e-017 -3.203125e-001 -4.631937e-001
      vertex  3.020199e-017 -1.675557e-001 -5.364598e-001
      vertex  2.848574e-017 -2.466756e-001 -5.055428e-001
    endloop
  endfacet
  facet normal -1.000000e+000  1.211483e-016 -9.621605e-017
    outer loop
      vertex -2.081668e-017 -4.218750e-001  0.000000e+000
      vertex  0.000000e+000 -1.400098e-001  1.385509e-001
      vertex  0.000000e+000 -1.633257e-001  1.091932e-001
    endloop
  endfacet
  facet normal -1.000000e+000  1.028788e-016 -5.295727e-017
    outer loop
      vertex -2.081668e-017 -4.218750e-001  0.000000e+000
      vertex  0.000000e+000 -1.633257e-001  1.091932e-001
      vertex  0.000000e+000 -1.804840e-001  7.586015e-002
    endloop
  endfacet
  facet normal -1.000000e+000  9.478821e-017 -2.721243e-017
    outer loop
      vertex -2.081668e-017 -4.218750e-001  0.000000e+000
      vertex  0.000000e+000 -1.804840e-001  7.586015e-002
      vertex  0.000000e+000 -1.908290e-001  3.982570e-002
    endloop
  endfacet
  facet normal -1.000000e+000  9.142048e-017 -7.674808e-018
    outer loop
      vertex -2.081668e-017 -4.218750e-001  0.000000e+000
      vertex  0.000000e+000 -1.908290e-001  3.982570e-002
      vertex  0.000000e+000 -1.939653e-001  2.467105e-003
    endloop
  endfacet
  facet normal -1.000000e+000 -1.653982e-017  9.965635e-015
    outer loop
      vertex -2.081668e-017 -4.218750e-001  0.000000e+000
      vertex  0.000000e+000 -1.939653e-001  2.467105e-003
      vertex -1.232567e-019 -1.865132e-001  2.467105e-003
    endloop
  endfacet
  facet normal -1.000000e+000  0.000000e+000  8.387736e-015
    outer loop
      vertex -2.081668e-017 -4.218750e-001  0.000000e+000
      vertex -1.232567e-019 -1.865132e-001  2.467105e-003
      vertex -2.081668e-017 -3.203125e-001  0.000000e+000
    endloop
  endfacet
  facet normal -9.999999e-001  0.000000e+000  -0.000000e+000
    outer loop
      vertex  0.000000e+000 -4.218750e-001  3.730263e-001
      vertex  0.000000e+000 -3.443485e-001  4.452553e-001
      vertex  0.000000e+000  3.452714e-001  4.402144e-001
    endloop
  endfacet
  facet normal -9.999999e-001  0.000000e+000  -0.000000e+000
    outer loop
      vertex  0.000000e+000 -4.218750e-001  3.730263e-001
      vertex  0.000000e+000  3.452714e-001  4.402144e-001
      vertex  0.000000e+000  4.217337e-001  3.668597e-001
    endloop
  endfacet
  facet normal -1.000000e+000  -0.000000e+000  -0.000000e+000
    outer loop
      vertex  0.000000e+000 -4.218750e-001  3.730263e-001
      vertex  0.000000e+000  4.217337e-001  3.668597e-001
      vertex  0.000000e+000  4.830237e-001  2.804252e-001
    endloop
  endfacet
  facet normal -1.000000e+000  -0.000000e+000  0.000000e+000
    outer loop
      vertex  0.000000e+000 -4.218750e-001  3.730263e-001
      vertex  0.000000e+000  4.830237e-001  2.804252e-001
      vertex  0.000000e+000 -5.756649e-003  1.969124e-001
    endloop
  endfacet
  facet normal -1.000000e+000  -0.000000e+000  0.000000e+000
    outer loop
      vertex  0.000000e+000 -4.218750e-001  3.730263e-001
      vertex  0.000000e+000 -5.756649e-003  1.969124e-001
      vertex  0.000000e+000 -4.299319e-002  1.925603e-001
    endloop
  endfacet
  facet normal -9.999999e-001  -0.000000e+000  0.000000e+000
    outer loop
      vertex  0.000000e+000 -4.218750e-001  3.730263e-001
      vertex  0.000000e+000 -4.299319e-002  1.925603e-001
      vertex  0.000000e+000 -7.867138e-002  1.810465e-001
    endloop
  endfacet
  facet normal -1.000000e+000  -0.000000e+000  0.000000e+000
    outer loop
      vertex  0.000000e+000 -4.218750e-001  3.730263e-001
      vertex  0.000000e+000 -7.867138e-002  1.810465e-001
      vertex  0.000000e+000 -1.114276e-001  1.628110e-001
    endloop
  endfacet
  facet normal -1.000000e+000  -0.000000e+000  0.000000e+000
    outer loop
      vertex  0.000000e+000 -4.218750e-001  3.730263e-001
      vertex  0.000000e+000 -1.114276e-001  1.628110e-001
      vertex  0.000000e+000 -1.400098e-001  1.385509e-001
    endloop
  endfacet
  facet normal -1.000000e+000  4.642244e-017  5.580486e-017
    outer loop
      vertex  0.000000e+000 -4.218750e-001  3.730263e-001
      vertex  0.000000e+000 -1.400098e-001  1.385509e-001
      vertex -2.081668e-017 -4.218750e-001  0.000000e+000
    endloop
  endfacet
  facet normal -1.000000e+000  0.000000e+000  0.000000e+000
    outer loop
      vertex  0.000000e+000  5.519448e-001  8.103061e-002
      vertex  0.000000e+000  5.571125e-001 -2.480269e-002
      vertex  0.000000e+000  1.849824e-001  4.675708e-002
    endloop
  endfacet
  facet normal -1.000000e+000  0.000000e+000  0.000000e+000
    outer loop
      vertex  0.000000e+000  5.519448e-001  8.103061e-002
      vertex  0.000000e+000  1.849824e-001  4.675708e-002
      vertex  0.000000e+000  1.733157e-001  8.238555e-002
    endloop
  endfacet
  facet normal -1.000000e+000  0.000000e+000  0.000000e+000
    outer loop
      vertex  0.000000e+000  5.519448e-001  8.103061e-002
      vertex  0.000000e+000  1.733157e-001  8.238555e-002
      vertex  0.000000e+000  1.549398e-001  1.150632e-001
    endloop
  endfacet
  facet normal -9.999999e-001  0.000000e+000  0.000000e+000
    outer loop
      vertex  0.000000e+000  5.519448e-001  8.103061e-002
      vertex  0.000000e+000  1.549398e-001  1.150632e-001
      vertex  0.000000e+000  1.305573e-001  1.435411e-001
    endloop
  endfacet
  facet normal -1.000000e+000  0.000000e+000  0.000000e+000
    outer loop
      vertex  0.000000e+000  5.519448e-001  8.103061e-002
      vertex  0.000000e+000  1.305573e-001  1.435411e-001
      vertex  0.000000e+000  1.010999e-001  1.667309e-001
    endloop
  endfacet
  facet normal -1.000000e+000  0.000000e+000  0.000000e+000
    outer loop
      vertex  0.000000e+000  5.519448e-001  8.103061e-002
      vertex  0.000000e+000  1.010999e-001  1.667309e-001
      vertex  0.000000e+000  5.269507e-001  1.840000e-001
    endloop
  endfacet
  facet normal -1.000000e+000  0.000000e+000  0.000000e+000
    outer loop
      vertex  0.000000e+000  5.422692e-001 -1.297173e-001
      vertex  0.000000e+000  5.079455e-001 -2.299633e-001
      vertex  0.000000e+000  1.083350e-001 -1.515065e-001
    endloop
  endfacet
  facet normal -1.000000e+000  0.000000e+000  0.000000e+000
    outer loop
      vertex  0.000000e+000  5.422692e-001 -1.297173e-001
      vertex  0.000000e+000  1.083350e-001 -1.515065e-001
      vertex  0.000000e+000  1.367081e-001 -1.270021e-001
    endloop
  endfacet
  facet normal -1.000000e+000  0.000000e+000  0.000000e+000
    outer loop
      vertex  0.000000e+000  5.422692e-001 -1.297173e-001
      vertex  0.000000e+000  1.367081e-001 -1.270021e-001
      vertex  0.000000e+000  1.597712e-001 -9.744547e-002
    endloop
  endfacet
  facet normal -1.000000e+000  0.000000e+000  0.000000e+000
    outer loop
      vertex  0.000000e+000  5.422692e-001 -1.297173e-001
      vertex  0.000000e+000  1.597712e-001 -9.744547e-002
      vertex  0.000000e+000  1.766430e-001 -6.396645e-002
    endloop
  endfacet
  facet normal -1.000000e+000  0.000000e+000  0.000000e+000
    outer loop
      vertex  0.000000e+000  5.422692e-001 -1.297173e-001
      vertex  0.000000e+000  1.766430e-001 -6.396645e-002
      vertex  0.000000e+000  1.866785e-001 -2.784457e-002
    endloop
  endfacet
  facet normal -1.000000e+000  0.000000e+000  0.000000e+000
    outer loop
      vertex  0.000000e+000  5.422692e-001 -1.297173e-001
      vertex  0.000000e+000  1.866785e-001 -2.784457e-002
      vertex  0.000000e+000  5.571125e-001 -2.480269e-002
    endloop
  endfacet
  facet normal -1.000000e+000  0.000000e+000  0.000000e+000
    outer loop
      vertex  0.000000e+000  5.079455e-001 -2.299633e-001
      vertex  0.000000e+000  2.960526e-003 -1.865132e-001
      vertex  0.000000e+000  4.015836e-002 -1.818418e-001
    endloop
  endfacet
  facet normal -1.000000e+000  0.000000e+000  0.000000e+000
    outer loop
      vertex  0.000000e+000  5.079455e-001 -2.299633e-001
      vertex  0.000000e+000  4.015836e-002 -1.818418e-001
      vertex  0.000000e+000  7.573647e-002 -1.700224e-001
    endloop
  endfacet
  facet normal -1.000000e+000  0.000000e+000  0.000000e+000
    outer loop
      vertex  0.000000e+000  5.079455e-001 -2.299633e-001
      vertex  0.000000e+000  7.573647e-002 -1.700224e-001
      vertex  0.000000e+000  1.083350e-001 -1.515065e-001
    endloop
  endfacet
  facet normal -1.000000e+000 -2.362888e-018 -2.746186e-017
    outer loop
      vertex  1.024400e-017  2.960526e-003 -5.595395e-001
      vertex  0.000000e+000  2.960526e-003 -1.865132e-001
      vertex  0.000000e+000  5.079455e-001 -2.299633e-001
    endloop
  endfacet
  facet normal -1.000000e+000 -3.235394e-017  1.849119e-017
    outer loop
      vertex  1.024400e-017  2.960526e-003 -5.595395e-001
      vertex  0.000000e+000  5.079455e-001 -2.299633e-001
      vertex  0.000000e+000  4.553680e-001 -3.219579e-001
    endloop
  endfacet
  facet normal -1.000000e+000 -4.117457e-017  3.528761e-017
    outer loop
      vertex  1.024400e-017  2.960526e-003 -5.595395e-001
      vertex  0.000000e+000  4.553680e-001 -3.219579e-001
      vertex  0.000000e+000  3.864160e-001 -4.024130e-001
    endloop
  endfacet
  facet normal -1.000000e+000 -5.498512e-017  6.899120e-017
    outer loop
      vertex  1.024400e-017  2.960526e-003 -5.595395e-001
      vertex  0.000000e+000  3.864160e-001 -4.024130e-001
      vertex  0.000000e+000  3.035540e-001 -4.684530e-001
    endloop
  endfacet
  facet normal -1.000000e+000 -8.056962e-017  1.534223e-016
    outer loop
      vertex  1.024400e-017  2.960526e-003 -5.595395e-001
      vertex  0.000000e+000  3.035540e-001 -4.684530e-001
      vertex  0.000000e+000  2.097435e-001 -5.177175e-001
    endloop
  endfacet
  facet normal -1.000000e+000 -1.489673e-016  4.916048e-016
    outer loop
      vertex  1.024400e-017  2.960526e-003 -5.595395e-001
      vertex  0.000000e+000  2.097435e-001 -5.177175e-001
      vertex  0.000000e+000  1.083376e-001 -5.484458e-001
    endloop
  endfacet
  facet normal -1.000000e+000  0.000000e+000  0.000000e+000
    outer loop
      vertex  0.000000e+000  1.582058e-001  5.377579e-001
      vertex  0.000000e+000 -5.166806e-002  5.592350e-001
      vertex  0.000000e+000  5.428851e-002  5.584604e-001
    endloop
  endfacet
  facet normal -1.000000e+000  0.000000e+000  0.000000e+000
    outer loop
      vertex  0.000000e+000 -5.166806e-002  5.592350e-001
      vertex  0.000000e+000  1.582058e-001  5.377579e-001
      vertex  0.000000e+000 -1.558769e-001  5.400538e-001
    endloop
  endfacet
  facet normal -1.000000e+000  0.000000e+000  0.000000e+000
    outer loop
      vertex  0.000000e+000 -1.558769e-001  5.400538e-001
      vertex  0.000000e+000  1.582058e-001  5.377579e-001
      vertex  0.000000e+000  2.563696e-001  4.978673e-001
    endloop
  endfacet
  facet normal -1.000000e+000  0.000000e+000  0.000000e+000
    outer loop
      vertex  0.000000e+000 -1.558769e-001  5.400538e-001
      vertex  0.000000e+000  2.563696e-001  4.978673e-001
      vertex  0.000000e+000 -2.546133e-001  5.016025e-001
    endloop
  endfacet
  facet normal -1.000000e+000  0.000000e+000  0.000000e+000
    outer loop
      vertex  0.000000e+000 -2.546133e-001  5.016025e-001
      vertex  0.000000e+000  2.563696e-001  4.978673e-001
      vertex  0.000000e+000  3.452714e-001  4.402144e-001
    endloop
  endfacet
  facet normal -1.000000e+000  0.000000e+000  0.000000e+000
    outer loop
      vertex  0.000000e+000 -2.546133e-001  5.016025e-001
      vertex  0.000000e+000  3.452714e-001  4.402144e-001
      vertex  0.000000e+000 -3.443485e-001  4.452553e-001
    endloop
  endfacet
  facet normal  0.000000e+000  0.000000e+000 -1.000000e+000
    outer loop
      vertex  2.467105e-003 -3.310033e-001  0.000000e+000
      vertex -2.081668e-017 -4.218750e-001  0.000000e+000
      vertex -2.081668e-017 -3.203125e-001  0.000000e+000
    endloop
  endfacet
  facet normal  0.000000e+000  -0.000000e+000 -1.000000e+000
    outer loop
      vertex -2.081668e-017 -4.218750e-001  0.000000e+000
      vertex  2.467105e-003 -3.310033e-001  0.000000e+000
      vertex  7.500000e-001 -4.218750e-001  0.000000e+000
    endloop
  endfacet
  facet normal  4.190908e-016  3.447543e-015 -1.000000e+000
    outer loop
      vertex  7.500000e-001 -4.218750e-001  0.000000e+000
      vertex  2.467105e-003 -3.310033e-001  0.000000e+000
      vertex  7.475329e-001 -3.310033e-001  3.122502e-016
    endloop
  endfacet
  facet normal -1.265659e-013  0.000000e+000 -1.000000e+000
    outer loop
      vertex  7.500000e-001 -4.218750e-001  0.000000e+000
      vertex  7.475329e-001 -3.310033e-001  3.122502e-016
      vertex  7.500000e-001 -3.203125e-001  0.000000e+000
    endloop
  endfacet
  facet normal  -0.000000e+000 -6.185572e-001 -7.857399e-001
    outer loop
      vertex  0.000000e+000  1.305573e-001  1.435411e-001
      vertex  7.500000e-001  1.010999e-001  1.667309e-001
      vertex  0.000000e+000  1.010999e-001  1.667309e-001
    endloop
  endfacet
  facet normal  0.000000e+000 -4.538593e-001 -8.910733e-001
    outer loop
      vertex  0.000000e+000  1.010999e-001  1.667309e-001
      vertex  7.500000e-001  1.010999e-001  1.667309e-001
      vertex  7.500000e-001  6.769355e-002  1.837460e-001
    endloop
  endfacet
  facet normal  -0.000000e+000 -4.538593e-001 -8.910733e-001
    outer loop
      vertex  0.000000e+000  1.010999e-001  1.667309e-001
      vertex  7.500000e-001  6.769355e-002  1.837460e-001
      vertex  0.000000e+000  6.769355e-002  1.837460e-001
    endloop
  endfacet
  facet normal  0.000000e+000 -2.718148e-001 -9.623496e-001
    outer loop
      vertex  0.000000e+000  6.769355e-002  1.837460e-001
      vertex  7.500000e-001  6.769355e-002  1.837460e-001
      vertex  7.500000e-001  3.161505e-002  1.939364e-001
    endloop
  endfacet
  facet normal  -0.000000e+000 -2.718148e-001 -9.623496e-001
    outer loop
      vertex  0.000000e+000  6.769355e-002  1.837460e-001
      vertex  7.500000e-001  3.161505e-002  1.939364e-001
      vertex  0.000000e+000  3.161505e-002  1.939364e-001
    endloop
  endfacet
  facet normal  0.000000e+000 -7.938155e-002 -9.968443e-001
    outer loop
      vertex  0.000000e+000  3.161505e-002  1.939364e-001
      vertex  7.500000e-001  3.161505e-002  1.939364e-001
      vertex  7.500000e-001 -5.756649e-003  1.969124e-001
    endloop
  endfacet
  facet normal  -0.000000e+000 -7.938155e-002 -9.968443e-001
    outer loop
      vertex  0.000000e+000  3.161505e-002  1.939364e-001
      vertex  7.500000e-001 -5.756649e-003  1.969124e-001
      vertex  0.000000e+000 -5.756649e-003  1.969124e-001
    endloop
  endfacet
  facet normal  0.000000e+000  1.160859e-001 -9.932391e-001
    outer loop
      vertex  0.000000e+000 -5.756649e-003  1.969124e-001
      vertex  7.500000e-001 -5.756649e-003  1.969124e-001
      vertex  7.500000e-001 -4.299319e-002  1.925603e-001
    endloop
  endfacet
  facet normal  0.000000e+000  1.160859e-001 -9.932391e-001
    outer loop
      vertex  0.000000e+000 -5.756649e-003  1.969124e-001
      vertex  7.500000e-001 -4.299319e-002  1.925603e-001
      vertex  0.000000e+000 -4.299319e-002  1.925603e-001
    endloop
  endfacet
  facet normal  0.000000e+000  3.071169e-001 -9.516718e-001
    outer loop
      vertex  0.000000e+000 -4.299319e-002  1.925603e-001
      vertex  7.500000e-001 -4.299319e-002  1.925603e-001
      vertex  7.500000e-001 -7.867138e-002  1.810465e-001
    endloop
  endfacet
  facet normal  0.000000e+000  3.071169e-001 -9.516718e-001
    outer loop
      vertex  0.000000e+000 -4.299319e-002  1.925603e-001
      vertex  7.500000e-001 -7.867138e-002  1.810465e-001
      vertex  0.000000e+000 -7.867138e-002  1.810465e-001
    endloop
  endfacet
  facet normal  0.000000e+000  4.864090e-001 -8.737313e-001
    outer loop
      vertex  0.000000e+000 -7.867138e-002  1.810465e-001
      vertex  7.500000e-001 -7.867138e-002  1.810465e-001
      vertex  7.500000e-001 -1.114276e-001  1.628110e-001
    endloop
  endfacet
  facet normal  0.000000e+000  4.864090e-001 -8.737313e-001
    outer loop
      vertex  0.000000e+000 -7.867138e-002  1.810465e-001
      vertex  7.500000e-001 -1.114276e-001  1.628110e-001
      vertex  0.000000e+000 -1.114276e-001  1.628110e-001
    endloop
  endfacet
  facet normal  0.000000e+000  6.471105e-001 -7.623962e-001
    outer loop
      vertex  0.000000e+000 -1.114276e-001  1.628110e-001
      vertex  7.500000e-001 -1.114276e-001  1.628110e-001
      vertex  7.500000e-001 -1.400098e-001  1.385509e-001
    endloop
  endfacet
  facet normal  0.000000e+000  6.471105e-001 -7.623962e-001
    outer loop
      vertex  0.000000e+000 -1.114276e-001  1.628110e-001
      vertex  7.500000e-001 -1.400098e-001  1.385509e-001
      vertex  0.000000e+000 -1.400098e-001  1.385509e-001
    endloop
  endfacet
  facet normal  0.000000e+000  7.830793e-001 -6.219218e-001
    outer loop
      vertex  0.000000e+000 -1.400098e-001  1.385509e-001
      vertex  7.500000e-001 -1.400098e-001  1.385509e-001
      vertex  7.500000e-001 -1.633257e-001  1.091932e-001
    endloop
  endfacet
  facet normal  0.000000e+000  7.830793e-001 -6.219218e-001
    outer loop
      vertex  0.000000e+000 -1.400098e-001  1.385509e-001
      vertex  7.500000e-001 -1.633257e-001  1.091932e-001
      vertex  0.000000e+000 -1.633257e-001  1.091932e-001
    endloop
  endfacet
  facet normal  0.000000e+000  8.891185e-001 -4.576771e-001
    outer loop
      vertex  0.000000e+000 -1.633257e-001  1.091932e-001
      vertex  7.500000e-001 -1.633257e-001  1.091932e-001
      vertex  7.500000e-001 -1.804840e-001  7.586015e-002
    endloop
  endfacet
  facet normal  0.000000e+000  8.891185e-001 -4.576771e-001
    outer loop
      vertex  0.000000e+000 -1.633257e-001  1.091932e-001
      vertex  7.500000e-001 -1.804840e-001  7.586015e-002
      vertex  0.000000e+000 -1.804840e-001  7.586015e-002
    endloop
  endfacet
  facet normal  0.000000e+000  9.611747e-001 -2.759404e-001
    outer loop
      vertex  0.000000e+000 -1.804840e-001  7.586015e-002
      vertex  7.500000e-001 -1.804840e-001  7.586015e-002
      vertex  7.500000e-001 -1.908290e-001  3.982570e-002
    endloop
  endfacet
  facet normal  0.000000e+000  9.611747e-001 -2.759404e-001
    outer loop
      vertex  0.000000e+000 -1.804840e-001  7.586015e-002
      vertex  7.500000e-001 -1.908290e-001  3.982570e-002
      vertex  0.000000e+000 -1.908290e-001  3.982570e-002
    endloop
  endfacet
  facet normal  0.000000e+000  9.964947e-001 -8.365636e-002
    outer loop
      vertex  0.000000e+000 -1.908290e-001  3.982570e-002
      vertex  7.500000e-001 -1.908290e-001  3.982570e-002
      vertex  7.500000e-001 -1.939653e-001  2.467105e-003
    endloop
  endfacet
  facet normal  0.000000e+000  9.964947e-001 -8.365636e-002
    outer loop
      vertex  0.000000e+000 -1.908290e-001  3.982570e-002
      vertex  7.500000e-001 -1.939653e-001  2.467105e-003
      vertex  0.000000e+000 -1.939653e-001  2.467105e-003
    endloop
  endfacet
  facet normal  0.000000e+000 -6.185572e-001 -7.857399e-001
    outer loop
      vertex  7.500000e-001  1.010999e-001  1.667309e-001
      vertex  0.000000e+000  1.305573e-001  1.435411e-001
      vertex  7.500000e-001  1.305573e-001  1.435411e-001
    endloop
  endfacet
  facet normal  -0.000000e+000 -7.596134e-001 -6.503749e-001
    outer loop
      vertex  7.500000e-001  1.305573e-001  1.435411e-001
      vertex  0.000000e+000  1.305573e-001  1.435411e-001
      vertex  0.000000e+000  1.549398e-001  1.150632e-001
    endloop
  endfacet
  facet normal  0.000000e+000 -7.596134e-001 -6.503749e-001
    outer loop
      vertex  7.500000e-001  1.305573e-001  1.435411e-001
      vertex  0.000000e+000  1.549398e-001  1.150632e-001
      vertex  7.500000e-001  1.549398e-001  1.150632e-001
    endloop
  endfacet
  facet normal  -0.000000e+000 -8.716368e-001 -4.901523e-001
    outer loop
      vertex  7.500000e-001  1.549398e-001  1.150632e-001
      vertex  0.000000e+000  1.549398e-001  1.150632e-001
      vertex  0.000000e+000  1.733157e-001  8.238555e-002
    endloop
  endfacet
  facet normal  0.000000e+000 -8.716368e-001 -4.901523e-001
    outer loop
      vertex  7.500000e-001  1.549398e-001  1.150632e-001
      vertex  0.000000e+000  1.733157e-001  8.238555e-002
      vertex  7.500000e-001  1.733157e-001  8.238555e-002
    endloop
  endfacet
  facet normal  -0.000000e+000 -9.503459e-001 -3.111957e-001
    outer loop
      vertex  7.500000e-001  1.733157e-001  8.238555e-002
      vertex  0.000000e+000  1.733157e-001  8.238555e-002
      vertex  0.000000e+000  1.849824e-001  4.675708e-002
    endloop
  endfacet
  facet normal  0.000000e+000 -9.503459e-001 -3.111957e-001
    outer loop
      vertex  7.500000e-001  1.733157e-001  8.238555e-002
      vertex  0.000000e+000  1.849824e-001  4.675708e-002
      vertex  7.500000e-001  1.849824e-001  4.675708e-002
    endloop
  endfacet
  facet normal  -0.000000e+000 -9.927320e-001 -1.203456e-001
    outer loop
      vertex  7.500000e-001  1.849824e-001  4.675708e-002
      vertex  0.000000e+000  1.849824e-001  4.675708e-002
      vertex  0.000000e+000  1.894941e-001  9.539549e-003
    endloop
  endfacet
  facet normal  0.000000e+000 -9.927320e-001 -1.203456e-001
    outer loop
      vertex  7.500000e-001  1.849824e-001  4.675708e-002
      vertex  0.000000e+000  1.894941e-001  9.539549e-003
      vertex  7.500000e-001  1.894941e-001  9.539549e-003
    endloop
  endfacet
  facet normal  0.000000e+000 -9.971757e-001  7.510478e-002
    outer loop
      vertex  7.500000e-001  1.894941e-001  9.539549e-003
      vertex  0.000000e+000  1.894941e-001  9.539549e-003
      vertex  0.000000e+000  1.866785e-001 -2.784457e-002
    endloop
  endfacet
  facet normal  0.000000e+000 -9.971757e-001  7.510478e-002
    outer loop
      vertex  7.500000e-001  1.894941e-001  9.539549e-003
      vertex  0.000000e+000  1.866785e-001 -2.784457e-002
      vertex  7.500000e-001  1.866785e-001 -2.784457e-002
    endloop
  endfacet
  facet normal  0.000000e+000 -9.635065e-001  2.676846e-001
    outer loop
      vertex  7.500000e-001  1.866785e-001 -2.784457e-002
      vertex  0.000000e+000  1.866785e-001 -2.784457e-002
      vertex  0.000000e+000  1.766430e-001 -6.396645e-002
    endloop
  endfacet
  facet normal  0.000000e+000 -9.635065e-001  2.676846e-001
    outer loop
      vertex  7.500000e-001  1.866785e-001 -2.784457e-002
      vertex  0.000000e+000  1.766430e-001 -6.396645e-002
      vertex  7.500000e-001  1.766430e-001 -6.396645e-002
    endloop
  endfacet
  facet normal  0.000000e+000 -8.930120e-001  4.500329e-001
    outer loop
      vertex  7.500000e-001  1.766430e-001 -6.396645e-002
      vertex  0.000000e+000  1.766430e-001 -6.396645e-002
      vertex  0.000000e+000  1.597712e-001 -9.744547e-002
    endloop
  endfacet
  facet normal  0.000000e+000 -8.930120e-001  4.500329e-001
    outer loop
      vertex  7.500000e-001  1.766430e-001 -6.396645e-002
      vertex  0.000000e+000  1.597712e-001 -9.744547e-002
      vertex  7.500000e-001  1.597712e-001 -9.744547e-002
    endloop
  endfacet
  facet normal  0.000000e+000 -7.883857e-001  6.151813e-001
    outer loop
      vertex  7.500000e-001  1.597712e-001 -9.744547e-002
      vertex  0.000000e+000  1.597712e-001 -9.744547e-002
      vertex  0.000000e+000  1.367081e-001 -1.270021e-001
    endloop
  endfacet
  facet normal  0.000000e+000 -7.883857e-001  6.151813e-001
    outer loop
      vertex  7.500000e-001  1.597712e-001 -9.744547e-002
      vertex  0.000000e+000  1.367081e-001 -1.270021e-001
      vertex  7.500000e-001  1.367081e-001 -1.270021e-001
    endloop
  endfacet
  facet normal  0.000000e+000 -6.536271e-001  7.568167e-001
    outer loop
      vertex  7.500000e-001  1.367081e-001 -1.270021e-001
      vertex  0.000000e+000  1.367081e-001 -1.270021e-001
      vertex  0.000000e+000  1.083350e-001 -1.515065e-001
    endloop
  endfacet
  facet normal  0.000000e+000 -6.536271e-001  7.568167e-001
    outer loop
      vertex  7.500000e-001  1.367081e-001 -1.270021e-001
      vertex  0.000000e+000  1.083350e-001 -1.515065e-001
      vertex  7.500000e-001  1.083350e-001 -1.515065e-001
    endloop
  endfacet
  facet normal  0.000000e+000 -4.938866e-001  8.695263e-001
    outer loop
      vertex  7.500000e-001  1.083350e-001 -1.515065e-001
      vertex  0.000000e+000  1.083350e-001 -1.515065e-001
      vertex  0.000000e+000  7.573647e-002 -1.700224e-001
    endloop
  endfacet
  facet normal  0.000000e+000 -4.938866e-001  8.695263e-001
    outer loop
      vertex  7.500000e-001  1.083350e-001 -1.515065e-001
      vertex  0.000000e+000  7.573647e-002 -1.700224e-001
      vertex  7.500000e-001  7.573647e-002 -1.700224e-001
    endloop
  endfacet
  facet normal  0.000000e+000 -3.152694e-001  9.490023e-001
    outer loop
      vertex  7.500000e-001  7.573647e-002 -1.700224e-001
      vertex  0.000000e+000  7.573647e-002 -1.700224e-001
      vertex  0.000000e+000  4.015836e-002 -1.818418e-001
    endloop
  endfacet
  facet normal  0.000000e+000 -3.152694e-001  9.490023e-001
    outer loop
      vertex  7.500000e-001  7.573647e-002 -1.700224e-001
      vertex  0.000000e+000  4.015836e-002 -1.818418e-001
      vertex  7.500000e-001  4.015836e-002 -1.818418e-001
    endloop
  endfacet
  facet normal  0.000000e+000 -1.246025e-001  9.922068e-001
    outer loop
      vertex  7.500000e-001  4.015836e-002 -1.818418e-001
      vertex  0.000000e+000  4.015836e-002 -1.818418e-001
      vertex  0.000000e+000  2.960526e-003 -1.865132e-001
    endloop
  endfacet
  facet normal  0.000000e+000 -1.246025e-001  9.922068e-001
    outer loop
      vertex  7.500000e-001  4.015836e-002 -1.818418e-001
      vertex  0.000000e+000  2.960526e-003 -1.865132e-001
      vertex  7.500000e-001  2.960526e-003 -1.865132e-001
    endloop
  endfacet
  facet normal  0.000000e+000  -0.000000e+000  1.000000e+000
    outer loop
      vertex -1.232567e-019 -1.865132e-001  2.467105e-003
      vertex  0.000000e+000 -1.939653e-001  2.467105e-003
      vertex  7.500000e-001 -1.865132e-001  2.467105e-003
    endloop
  endfacet
  facet normal  0.000000e+000  0.000000e+000  1.000000e+000
    outer loop
      vertex  7.500000e-001 -1.865132e-001  2.467105e-003
      vertex  0.000000e+000 -1.939653e-001  2.467105e-003
      vertex  7.500000e-001 -1.939653e-001  2.467105e-003
    endloop
  endfacet
  facet normal  9.743913e-001 -2.248587e-001  8.637975e-007
    outer loop
      vertex  7.453623e-001 -3.404090e-001 -4.488987e-001
      vertex  7.500000e-001 -3.203125e-001 -4.631937e-001
      vertex  7.265625e-001 -4.218750e-001 -3.648127e-001
    endloop
  endfacet
  facet normal  9.743913e-001 -2.248589e-001 -3.035840e-006
    outer loop
      vertex  7.475329e-001 -3.310033e-001  3.122502e-016
      vertex  7.265625e-001 -4.218750e-001 -2.097039e-002
      vertex  7.500000e-001 -3.203125e-001  0.000000e+000
    endloop
  endfacet
  facet normal  9.743912e-001 -2.248595e-001  0.000000e+000
    outer loop
      vertex  7.500000e-001 -3.203125e-001  0.000000e+000
      vertex  7.265625e-001 -4.218750e-001 -2.097039e-002
      vertex  7.265625e-001 -4.218750e-001 -3.648127e-001
    endloop
  endfacet
  facet normal  9.743912e-001 -2.248595e-001  0.000000e+000
    outer loop
      vertex  7.500000e-001 -3.203125e-001  0.000000e+000
      vertex  7.265625e-001 -4.218750e-001 -3.648127e-001
      vertex  7.500000e-001 -3.203125e-001 -4.631937e-001
    endloop
  endfacet
  facet normal -9.743912e-001 -2.248596e-001 -1.012263e-007
    outer loop
      vertex  2.343750e-002 -4.218750e-001 -3.648127e-001
      vertex  2.613490e-017 -3.203125e-001 -4.631937e-001
      vertex  4.637664e-003 -3.404090e-001 -4.488987e-001
    endloop
  endfacet
  facet normal -9.743912e-001 -2.248595e-001  0.000000e+000
    outer loop
      vertex  2.613490e-017 -3.203125e-001 -4.631937e-001
      vertex  2.343750e-002 -4.218750e-001 -3.648127e-001
      vertex -2.081668e-017 -3.203125e-001  0.000000e+000
    endloop
  endfacet
  facet normal -9.743912e-001 -2.248595e-001  0.000000e+000
    outer loop
      vertex -2.081668e-017 -3.203125e-001  0.000000e+000
      vertex  2.343750e-002 -4.218750e-001 -3.648127e-001
      vertex  2.343750e-002 -4.218750e-001 -2.097039e-002
    endloop
  endfacet
  facet normal -9.743912e-001 -2.248597e-001  1.075193e-006
    outer loop
      vertex -2.081668e-017 -3.203125e-001  0.000000e+000
      vertex  2.343750e-002 -4.218750e-001 -2.097039e-002
      vertex  2.467105e-003 -3.310033e-001  0.000000e+000
    endloop
  endfacet
  facet normal -4.083584e-016 -2.248595e-001  9.743912e-001
    outer loop
      vertex  7.475329e-001 -3.310033e-001  3.122502e-016
      vertex  2.467105e-003 -3.310033e-001  0.000000e+000
      vertex  7.265625e-001 -4.218750e-001 -2.097039e-002
    endloop
  endfacet
  facet normal  0.000000e+000 -2.248595e-001  9.743912e-001
    outer loop
      vertex  7.265625e-001 -4.218750e-001 -2.097039e-002
      vertex  2.467105e-003 -3.310033e-001  0.000000e+000
      vertex  2.343750e-002 -4.218750e-001 -2.097039e-002
    endloop
  endfacet
  facet normal  0.000000e+000 -1.000000e+000  0.000000e+000
    outer loop
      vertex  2.343750e-002 -4.218750e-001 -2.097039e-002
      vertex  2.343750e-002 -4.218750e-001 -3.648127e-001
      vertex  7.265625e-001 -4.218750e-001 -2.097039e-002
    endloop
  endfacet
  facet normal  0.000000e+000 -1.000000e+000  -0.000000e+000
    outer loop
      vertex  7.265625e-001 -4.218750e-001 -2.097039e-002
      vertex  2.343750e-002 -4.218750e-001 -3.648127e-001
      vertex  7.265625e-001 -4.218750e-001 -3.648127e-001
    endloop
  endfacet
  facet normal  -0.000000e+000 -7.365848e-002 -9.972835e-001
    outer loop
      vertex  3.159273e-017 -2.704459e-016 -5.615132e-001
      vertex  7.500000e-001 -2.704459e-016 -5.615132e-001
      vertex  3.124539e-017 -8.471530e-002 -5.552562e-001
    endloop
  endfacet
  facet normal  0.000000e+000 -7.365848e-002 -9.972835e-001
    outer loop
      vertex  3.124539e-017 -8.471530e-002 -5.552562e-001
      vertex  7.500000e-001 -2.704459e-016 -5.615132e-001
      vertex  7.500000e-001 -8.471530e-002 -5.552562e-001
    endloop
  endfacet
  facet normal  -0.000000e+000 -2.212744e-001 -9.752115e-001
    outer loop
      vertex  3.124539e-017 -8.471530e-002 -5.552562e-001
      vertex  7.500000e-001 -8.471530e-002 -5.552562e-001
      vertex  3.020199e-017 -1.675557e-001 -5.364598e-001
    endloop
  endfacet
  facet normal  0.000000e+000 -2.212744e-001 -9.752115e-001
    outer loop
      vertex  3.020199e-017 -1.675557e-001 -5.364598e-001
      vertex  7.500000e-001 -8.471530e-002 -5.552562e-001
      vertex  7.500000e-001 -1.675557e-001 -5.364598e-001
    endloop
  endfacet
  facet normal  -0.000000e+000 -3.639610e-001 -9.314141e-001
    outer loop
      vertex  3.020199e-017 -1.675557e-001 -5.364598e-001
      vertex  7.500000e-001 -1.675557e-001 -5.364598e-001
      vertex  2.848574e-017 -2.466756e-001 -5.055428e-001
    endloop
  endfacet
  facet normal  0.000000e+000 -3.639610e-001 -9.314141e-001
    outer loop
      vertex  2.848574e-017 -2.466756e-001 -5.055428e-001
      vertex  7.500000e-001 -1.675557e-001 -5.364598e-001
      vertex  7.500000e-001 -2.466756e-001 -5.055428e-001
    endloop
  endfacet
  facet normal  -0.000000e+000 -4.985401e-001 -8.668666e-001
    outer loop
      vertex  2.848574e-017 -2.466756e-001 -5.055428e-001
      vertex  7.500000e-001 -2.466756e-001 -5.055428e-001
      vertex  2.613490e-017 -3.203125e-001 -4.631937e-001
    endloop
  endfacet
  facet normal  0.000000e+000 -4.985401e-001 -8.668666e-001
    outer loop
      vertex  2.613490e-017 -3.203125e-001 -4.631937e-001
      vertex  7.500000e-001 -2.466756e-001 -5.055428e-001
      vertex  7.500000e-001 -3.203125e-001 -4.631937e-001
    endloop
  endfacet
  facet normal  -0.000000e+000 -5.796352e-001 -8.148761e-001
    outer loop
      vertex  2.613490e-017 -3.203125e-001 -4.631937e-001
      vertex  7.500000e-001 -3.203125e-001 -4.631937e-001
      vertex  4.637664e-003 -3.404090e-001 -4.488987e-001
    endloop
  endfacet
  facet normal  0.000000e+000 -5.796352e-001 -8.148761e-001
    outer loop
      vertex  4.637664e-003 -3.404090e-001 -4.488987e-001
      vertex  7.500000e-001 -3.203125e-001 -4.631937e-001
      vertex  7.453623e-001 -3.404090e-001 -4.488987e-001
    endloop
  endfacet
  facet normal  -0.000000e+000 -7.182077e-001 -6.958289e-001
    outer loop
      vertex  4.637664e-003 -3.404090e-001 -4.488987e-001
      vertex  7.453623e-001 -3.404090e-001 -4.488987e-001
      vertex  2.343750e-002 -4.218750e-001 -3.648127e-001
    endloop
  endfacet
  facet normal  0.000000e+000 -7.182076e-001 -6.958289e-001
    outer loop
      vertex  2.343750e-002 -4.218750e-001 -3.648127e-001
      vertex  7.453623e-001 -3.404090e-001 -4.488987e-001
      vertex  7.265625e-001 -4.218750e-001 -3.648127e-001
    endloop
  endfacet
  facet normal  0.000000e+000  6.434430e-001  7.654940e-001
    outer loop
      vertex  7.321073e-018 -1.328044e-001 -1.316380e-001
      vertex  7.500000e-001 -1.044805e-001 -1.554459e-001
      vertex  8.642677e-018 -1.044805e-001 -1.554459e-001
    endloop
  endfacet
  facet normal  -0.000000e+000  4.817388e-001  8.763148e-001
    outer loop
      vertex  8.642677e-018 -1.044805e-001 -1.554459e-001
      vertex  7.500000e-001 -1.044805e-001 -1.554459e-001
      vertex  7.500000e-001 -7.205619e-002 -1.732706e-001
    endloop
  endfacet
  facet normal  0.000000e+000  4.817388e-001  8.763148e-001
    outer loop
      vertex  8.642677e-018 -1.044805e-001 -1.554459e-001
      vertex  7.500000e-001 -7.205619e-002 -1.732706e-001
      vertex  9.632148e-018 -7.205619e-002 -1.732706e-001
    endloop
  endfacet
  facet normal  -0.000000e+000  3.015220e-001  9.534592e-001
    outer loop
      vertex  9.632148e-018 -7.205619e-002 -1.732706e-001
      vertex  7.500000e-001 -7.205619e-002 -1.732706e-001
      vertex  7.500000e-001 -3.677743e-002 -1.844272e-001
    endloop
  endfacet
  facet normal  0.000000e+000  3.015220e-001  9.534592e-001
    outer loop
      vertex  9.632148e-018 -7.205619e-002 -1.732706e-001
      vertex  7.500000e-001 -3.677743e-002 -1.844272e-001
      vertex  1.025146e-017 -3.677743e-002 -1.844272e-001
    endloop
  endfacet
  facet normal  -0.000000e+000  1.097177e-001  9.939628e-001
    outer loop
      vertex  1.025146e-017 -3.677743e-002 -1.844272e-001
      vertex  7.500000e-001 -3.677743e-002 -1.844272e-001
      vertex  7.500000e-001  1.142064e-017 -1.884868e-001
    endloop
  endfacet
  facet normal  0.000000e+000  1.097177e-001  9.939628e-001
    outer loop
      vertex  1.025146e-017 -3.677743e-002 -1.844272e-001
      vertex  7.500000e-001  1.142064e-017 -1.884868e-001
      vertex -1.035356e-017  1.142064e-017 -1.884868e-001
    endloop
  endfacet
  facet normal  -0.000000e+000  6.434430e-001  7.654940e-001
    outer loop
      vertex  7.500000e-001 -1.044805e-001 -1.554459e-001
      vertex  7.321073e-018 -1.328044e-001 -1.316380e-001
      vertex  7.500000e-001 -1.328044e-001 -1.316380e-001
    endloop
  endfacet
  facet normal  0.000000e+000  7.804199e-001  6.252557e-001
    outer loop
      vertex  7.500000e-001 -1.328044e-001 -1.316380e-001
      vertex  7.321073e-018 -1.328044e-001 -1.316380e-001
      vertex  5.718123e-018 -1.559394e-001 -1.027618e-001
    endloop
  endfacet
  facet normal  -0.000000e+000  7.804199e-001  6.252557e-001
    outer loop
      vertex  7.500000e-001 -1.328044e-001 -1.316380e-001
      vertex  5.718123e-018 -1.559394e-001 -1.027618e-001
      vertex  7.500000e-001 -1.559394e-001 -1.027618e-001
    endloop
  endfacet
  facet normal  0.000000e+000  8.874056e-001  4.609896e-001
    outer loop
      vertex  7.500000e-001 -1.559394e-001 -1.027618e-001
      vertex  5.718123e-018 -1.559394e-001 -1.027618e-001
      vertex  3.895430e-018 -1.729964e-001 -6.992712e-002
    endloop
  endfacet
  facet normal  -0.000000e+000  8.874056e-001  4.609896e-001
    outer loop
      vertex  7.500000e-001 -1.559394e-001 -1.027618e-001
      vertex  3.895430e-018 -1.729964e-001 -6.992712e-002
      vertex  7.500000e-001 -1.729964e-001 -6.992712e-002
    endloop
  endfacet
  facet normal  0.000000e+000  9.602891e-001  2.790069e-001
    outer loop
      vertex  7.500000e-001 -1.729964e-001 -6.992712e-002
      vertex  3.895430e-018 -1.729964e-001 -6.992712e-002
      vertex  1.923037e-018 -1.833199e-001 -3.439565e-002
    endloop
  endfacet
  facet normal  -0.000000e+000  9.602891e-001  2.790069e-001
    outer loop
      vertex  7.500000e-001 -1.729964e-001 -6.992712e-002
      vertex  1.923037e-018 -1.833199e-001 -3.439565e-002
      vertex  7.500000e-001 -1.833199e-001 -3.439565e-002
    endloop
  endfacet
  facet normal  0.000000e+000  9.962688e-001  8.630322e-002
    outer loop
      vertex  7.500000e-001 -1.833199e-001 -3.439565e-002
      vertex  1.923037e-018 -1.833199e-001 -3.439565e-002
      vertex -1.232567e-019 -1.865132e-001  2.467105e-003
    endloop
  endfacet
  facet normal  -0.000000e+000  9.962688e-001  8.630322e-002
    outer loop
      vertex  7.500000e-001 -1.833199e-001 -3.439565e-002
      vertex -1.232567e-019 -1.865132e-001  2.467105e-003
      vertex  7.500000e-001 -1.865132e-001  2.467105e-003
    endloop
  endfacet
  facet normal  0.000000e+000  9.999999e-001 -7.556210e-016
    outer loop
      vertex  3.159273e-017 -2.704459e-016 -5.615132e-001
      vertex -1.035356e-017  1.142064e-017 -1.884868e-001
      vertex  7.500000e-001 -2.704459e-016 -5.615132e-001
    endloop
  endfacet
  facet normal  0.000000e+000  9.999999e-001 -7.556210e-016
    outer loop
      vertex  7.500000e-001 -2.704459e-016 -5.615132e-001
      vertex -1.035356e-017  1.142064e-017 -1.884868e-001
      vertex  7.500000e-001  1.142064e-017 -1.884868e-001
    endloop
  endfacet
endsolid CATIA STL
