solid CATIA STL
  facet normal -1.000000e+000  0.000000e+000  0.000000e+000
    outer loop
      vertex -5.078125e-001 -7.500000e-001 -1.406250e-001
      vertex -5.078125e-001 -7.500000e-001  1.123355e-001
      vertex -5.078125e-001  7.500000e-001 -1.406250e-001
    endloop
  endfacet
  facet normal -1.000000e+000  0.000000e+000  0.000000e+000
    outer loop
      vertex -5.078125e-001  7.500000e-001 -1.406250e-001
      vertex -5.078125e-001 -7.500000e-001  1.123355e-001
      vertex -5.078125e-001  7.500000e-001  1.123355e-001
    endloop
  endfacet
  facet normal  0.000000e+000 -1.000000e+000  0.000000e+000
    outer loop
      vertex -5.025460e-001 -7.500000e-001  1.296971e-001
      vertex -4.885214e-001 -7.500000e-001  1.412068e-001
      vertex -4.939241e-001 -7.500000e-001  1.383190e-001
    endloop
  endfacet
  facet normal  0.000000e+000 -9.999999e-001  0.000000e+000
    outer loop
      vertex -5.025460e-001 -7.500000e-001  1.296971e-001
      vertex -4.939241e-001 -7.500000e-001  1.383190e-001
      vertex -4.986596e-001 -7.500000e-001  1.344326e-001
    endloop
  endfacet
  facet normal  -0.000000e+000 -9.999999e-001  -0.000000e+000
    outer loop
      vertex  5.078125e-001 -7.500000e-001 -1.406250e-001
      vertex  5.078125e-001 -7.500000e-001  1.435855e-001
      vertex -4.765625e-001 -7.500000e-001  1.435855e-001
    endloop
  endfacet
  facet normal  0.000000e+000 -1.000000e+000  -0.000000e+000
    outer loop
      vertex  5.078125e-001 -7.500000e-001 -1.406250e-001
      vertex -4.765625e-001 -7.500000e-001  1.435855e-001
      vertex -4.826591e-001 -7.500000e-001  1.429851e-001
    endloop
  endfacet
  facet normal  0.000000e+000 -1.000000e+000  -0.000000e+000
    outer loop
      vertex  5.078125e-001 -7.500000e-001 -1.406250e-001
      vertex -4.826591e-001 -7.500000e-001  1.429851e-001
      vertex -5.078125e-001 -7.500000e-001 -1.406250e-001
    endloop
  endfacet
  facet normal  0.000000e+000 -1.000000e+000  -0.000000e+000
    outer loop
      vertex -4.826591e-001 -7.500000e-001  1.429851e-001
      vertex -4.885214e-001 -7.500000e-001  1.412068e-001
      vertex -5.025460e-001 -7.500000e-001  1.296971e-001
    endloop
  endfacet
  facet normal  0.000000e+000 -1.000000e+000  -0.000000e+000
    outer loop
      vertex -4.826591e-001 -7.500000e-001  1.429851e-001
      vertex -5.025460e-001 -7.500000e-001  1.296971e-001
      vertex -5.054337e-001 -7.500000e-001  1.242944e-001
    endloop
  endfacet
  facet normal  0.000000e+000 -1.000000e+000  -0.000000e+000
    outer loop
      vertex -4.826591e-001 -7.500000e-001  1.429851e-001
      vertex -5.054337e-001 -7.500000e-001  1.242944e-001
      vertex -5.072120e-001 -7.500000e-001  1.184321e-001
    endloop
  endfacet
  facet normal  0.000000e+000 -1.000000e+000  -0.000000e+000
    outer loop
      vertex -4.826591e-001 -7.500000e-001  1.429851e-001
      vertex -5.072120e-001 -7.500000e-001  1.184321e-001
      vertex -5.078125e-001 -7.500000e-001  1.123355e-001
    endloop
  endfacet
  facet normal  0.000000e+000 -1.000000e+000  0.000000e+000
    outer loop
      vertex -4.826591e-001 -7.500000e-001  1.429851e-001
      vertex -5.078125e-001 -7.500000e-001  1.123355e-001
      vertex -5.078125e-001 -7.500000e-001 -1.406250e-001
    endloop
  endfacet
  facet normal  -0.000000e+000  0.000000e+000  9.999999e-001
    outer loop
      vertex  5.078125e-001  7.500000e-001  1.435855e-001
      vertex -4.765625e-001  7.500000e-001  1.435855e-001
      vertex  5.078125e-001 -7.500000e-001  1.435855e-001
    endloop
  endfacet
  facet normal  0.000000e+000  0.000000e+000  9.999999e-001
    outer loop
      vertex  5.078125e-001 -7.500000e-001  1.435855e-001
      vertex -4.765625e-001  7.500000e-001  1.435855e-001
      vertex -4.765625e-001 -7.500000e-001  1.435855e-001
    endloop
  endfacet
  facet normal  0.000000e+000  9.999999e-001  0.000000e+000
    outer loop
      vertex -5.078125e-001  7.500000e-001  1.123355e-001
      vertex -5.054337e-001  7.500000e-001  1.242944e-001
      vertex -5.078125e-001  7.500000e-001 -1.406250e-001
    endloop
  endfacet
  facet normal  -0.000000e+000  1.000000e+000  0.000000e+000
    outer loop
      vertex -5.078125e-001  7.500000e-001  1.123355e-001
      vertex -5.072120e-001  7.500000e-001  1.184321e-001
      vertex -5.054337e-001  7.500000e-001  1.242944e-001
    endloop
  endfacet
  facet normal  0.000000e+000  1.000000e+000  0.000000e+000
    outer loop
      vertex -4.939241e-001  7.500000e-001  1.383190e-001
      vertex -4.885214e-001  7.500000e-001  1.412068e-001
      vertex -5.025460e-001  7.500000e-001  1.296971e-001
    endloop
  endfacet
  facet normal  -0.000000e+000  9.999999e-001  0.000000e+000
    outer loop
      vertex -5.025460e-001  7.500000e-001  1.296971e-001
      vertex -4.986596e-001  7.500000e-001  1.344326e-001
      vertex -4.939241e-001  7.500000e-001  1.383190e-001
    endloop
  endfacet
  facet normal  0.000000e+000  1.000000e+000  0.000000e+000
    outer loop
      vertex  5.078125e-001  7.500000e-001 -1.406250e-001
      vertex -5.078125e-001  7.500000e-001 -1.406250e-001
      vertex -4.826591e-001  7.500000e-001  1.429851e-001
    endloop
  endfacet
  facet normal  -0.000000e+000  1.000000e+000  0.000000e+000
    outer loop
      vertex  5.078125e-001  7.500000e-001 -1.406250e-001
      vertex -4.826591e-001  7.500000e-001  1.429851e-001
      vertex -4.765625e-001  7.500000e-001  1.435855e-001
    endloop
  endfacet
  facet normal  -0.000000e+000  9.999999e-001  0.000000e+000
    outer loop
      vertex  5.078125e-001  7.500000e-001 -1.406250e-001
      vertex -4.765625e-001  7.500000e-001  1.435855e-001
      vertex  5.078125e-001  7.500000e-001  1.435855e-001
    endloop
  endfacet
  facet normal  0.000000e+000  1.000000e+000  0.000000e+000
    outer loop
      vertex -4.826591e-001  7.500000e-001  1.429851e-001
      vertex -5.078125e-001  7.500000e-001 -1.406250e-001
      vertex -5.054337e-001  7.500000e-001  1.242944e-001
    endloop
  endfacet
  facet normal  0.000000e+000  1.000000e+000  0.000000e+000
    outer loop
      vertex -4.826591e-001  7.500000e-001  1.429851e-001
      vertex -5.054337e-001  7.500000e-001  1.242944e-001
      vertex -5.025460e-001  7.500000e-001  1.296971e-001
    endloop
  endfacet
  facet normal  0.000000e+000  1.000000e+000  0.000000e+000
    outer loop
      vertex -4.826591e-001  7.500000e-001  1.429851e-001
      vertex -5.025460e-001  7.500000e-001  1.296971e-001
      vertex -4.885214e-001  7.500000e-001  1.412068e-001
    endloop
  endfacet
  facet normal -9.951847e-001  0.000000e+000  9.801669e-002
    outer loop
      vertex -5.078125e-001  7.500000e-001  1.123355e-001
      vertex -5.078125e-001 -7.500000e-001  1.123355e-001
      vertex -5.072120e-001  7.500000e-001  1.184321e-001
    endloop
  endfacet
  facet normal -9.951847e-001  0.000000e+000  9.801669e-002
    outer loop
      vertex -5.072120e-001  7.500000e-001  1.184321e-001
      vertex -5.078125e-001 -7.500000e-001  1.123355e-001
      vertex -5.072120e-001 -7.500000e-001  1.184321e-001
    endloop
  endfacet
  facet normal -9.569404e-001  0.000000e+000  2.902845e-001
    outer loop
      vertex -5.072120e-001  7.500000e-001  1.184321e-001
      vertex -5.072120e-001 -7.500000e-001  1.184321e-001
      vertex -5.054337e-001  7.500000e-001  1.242944e-001
    endloop
  endfacet
  facet normal -9.569404e-001  0.000000e+000  2.902845e-001
    outer loop
      vertex -5.054337e-001  7.500000e-001  1.242944e-001
      vertex -5.072120e-001 -7.500000e-001  1.184321e-001
      vertex -5.054337e-001 -7.500000e-001  1.242944e-001
    endloop
  endfacet
  facet normal -8.819230e-001  0.000000e+000  4.713935e-001
    outer loop
      vertex -5.054337e-001  7.500000e-001  1.242944e-001
      vertex -5.054337e-001 -7.500000e-001  1.242944e-001
      vertex -5.025460e-001  7.500000e-001  1.296971e-001
    endloop
  endfacet
  facet normal -8.819230e-001  0.000000e+000  4.713935e-001
    outer loop
      vertex -5.025460e-001  7.500000e-001  1.296971e-001
      vertex -5.054337e-001 -7.500000e-001  1.242944e-001
      vertex -5.025460e-001 -7.500000e-001  1.296971e-001
    endloop
  endfacet
  facet normal -7.730076e-001  0.000000e+000  6.343967e-001
    outer loop
      vertex -5.025460e-001  7.500000e-001  1.296971e-001
      vertex -5.025460e-001 -7.500000e-001  1.296971e-001
      vertex -4.986596e-001  7.500000e-001  1.344326e-001
    endloop
  endfacet
  facet normal -7.730076e-001  0.000000e+000  6.343967e-001
    outer loop
      vertex -4.986596e-001  7.500000e-001  1.344326e-001
      vertex -5.025460e-001 -7.500000e-001  1.296971e-001
      vertex -4.986596e-001 -7.500000e-001  1.344326e-001
    endloop
  endfacet
  facet normal -6.343951e-001  0.000000e+000  7.730091e-001
    outer loop
      vertex -4.986596e-001  7.500000e-001  1.344326e-001
      vertex -4.986596e-001 -7.500000e-001  1.344326e-001
      vertex -4.939241e-001  7.500000e-001  1.383190e-001
    endloop
  endfacet
  facet normal -6.343951e-001  0.000000e+000  7.730091e-001
    outer loop
      vertex -4.939241e-001  7.500000e-001  1.383190e-001
      vertex -4.986596e-001 -7.500000e-001  1.344326e-001
      vertex -4.939241e-001 -7.500000e-001  1.383190e-001
    endloop
  endfacet
  facet normal -4.713954e-001  0.000000e+000  8.819220e-001
    outer loop
      vertex -4.939241e-001  7.500000e-001  1.383190e-001
      vertex -4.939241e-001 -7.500000e-001  1.383190e-001
      vertex -4.885214e-001  7.500000e-001  1.412068e-001
    endloop
  endfacet
  facet normal -4.713954e-001  0.000000e+000  8.819220e-001
    outer loop
      vertex -4.885214e-001  7.500000e-001  1.412068e-001
      vertex -4.939241e-001 -7.500000e-001  1.383190e-001
      vertex -4.885214e-001 -7.500000e-001  1.412068e-001
    endloop
  endfacet
  facet normal -2.902842e-001  0.000000e+000  9.569405e-001
    outer loop
      vertex -4.885214e-001  7.500000e-001  1.412068e-001
      vertex -4.885214e-001 -7.500000e-001  1.412068e-001
      vertex -4.826591e-001  7.500000e-001  1.429851e-001
    endloop
  endfacet
  facet normal -2.902842e-001  0.000000e+000  9.569405e-001
    outer loop
      vertex -4.826591e-001  7.500000e-001  1.429851e-001
      vertex -4.885214e-001 -7.500000e-001  1.412068e-001
      vertex -4.826591e-001 -7.500000e-001  1.429851e-001
    endloop
  endfacet
  facet normal -9.801912e-002  0.000000e+000  9.951845e-001
    outer loop
      vertex -4.826591e-001  7.500000e-001  1.429851e-001
      vertex -4.826591e-001 -7.500000e-001  1.429851e-001
      vertex -4.765625e-001  7.500000e-001  1.435855e-001
    endloop
  endfacet
  facet normal -9.801912e-002  0.000000e+000  9.951845e-001
    outer loop
      vertex -4.765625e-001  7.500000e-001  1.435855e-001
      vertex -4.826591e-001 -7.500000e-001  1.429851e-001
      vertex -4.765625e-001 -7.500000e-001  1.435855e-001
    endloop
  endfacet
  facet normal  1.000000e+000  0.000000e+000  0.000000e+000
    outer loop
      vertex  5.078125e-001 -7.500000e-001 -1.406250e-001
      vertex  5.078125e-001  7.500000e-001 -1.406250e-001
      vertex  5.078125e-001 -7.500000e-001  1.435855e-001
    endloop
  endfacet
  facet normal  1.000000e+000  -0.000000e+000  0.000000e+000
    outer loop
      vertex  5.078125e-001 -7.500000e-001  1.435855e-001
      vertex  5.078125e-001  7.500000e-001 -1.406250e-001
      vertex  5.078125e-001  7.500000e-001  1.435855e-001
    endloop
  endfacet
  facet normal  0.000000e+000  0.000000e+000 -1.000000e+000
    outer loop
      vertex  5.078125e-001 -7.500000e-001 -1.406250e-001
      vertex -5.078125e-001 -7.500000e-001 -1.406250e-001
      vertex  5.078125e-001  7.500000e-001 -1.406250e-001
    endloop
  endfacet
  facet normal  -0.000000e+000  0.000000e+000 -1.000000e+000
    outer loop
      vertex  5.078125e-001  7.500000e-001 -1.406250e-001
      vertex -5.078125e-001 -7.500000e-001 -1.406250e-001
      vertex -5.078125e-001  7.500000e-001 -1.406250e-001
    endloop
  endfacet
endsolid CATIA STL
