solid CATIA STL
  facet normal  9.801701e-002 -9.951847e-001  0.000000e+000
    outer loop
      vertex  1.069079e-003 -1.473684e-001  2.591283e-001
      vertex -1.895335e-002 -1.493405e-001  3.437500e-001
      vertex -1.895335e-002 -1.493405e-001  2.591283e-001
    endloop
  endfacet
  facet normal  2.902848e-001 -9.569403e-001  0.000000e+000
    outer loop
      vertex -1.895335e-002 -1.493405e-001  2.591283e-001
      vertex -1.895335e-002 -1.493405e-001  3.437500e-001
      vertex -3.820633e-002 -1.551808e-001  3.437500e-001
    endloop
  endfacet
  facet normal  2.902848e-001 -9.569403e-001  0.000000e+000
    outer loop
      vertex -1.895335e-002 -1.493405e-001  2.591283e-001
      vertex -3.820633e-002 -1.551808e-001  3.437500e-001
      vertex -3.820633e-002 -1.551808e-001  2.591283e-001
    endloop
  endfacet
  facet normal  4.713966e-001 -8.819213e-001  0.000000e+000
    outer loop
      vertex -3.820633e-002 -1.551808e-001  2.591283e-001
      vertex -3.820633e-002 -1.551808e-001  3.437500e-001
      vertex -5.594997e-002 -1.646650e-001  3.437500e-001
    endloop
  endfacet
  facet normal  4.713966e-001 -8.819213e-001  0.000000e+000
    outer loop
      vertex -3.820633e-002 -1.551808e-001  2.591283e-001
      vertex -5.594997e-002 -1.646650e-001  3.437500e-001
      vertex -5.594997e-002 -1.646650e-001  2.591283e-001
    endloop
  endfacet
  facet normal  6.343934e-001 -7.730104e-001  0.000000e+000
    outer loop
      vertex -5.594997e-002 -1.646650e-001  2.591283e-001
      vertex -5.594997e-002 -1.646650e-001  3.437500e-001
      vertex -7.150241e-002 -1.774285e-001  3.437500e-001
    endloop
  endfacet
  facet normal  6.343934e-001 -7.730104e-001  0.000000e+000
    outer loop
      vertex -5.594997e-002 -1.646650e-001  2.591283e-001
      vertex -7.150241e-002 -1.774285e-001  3.437500e-001
      vertex -7.150241e-002 -1.774285e-001  2.591283e-001
    endloop
  endfacet
  facet normal  7.730104e-001 -6.343933e-001  0.000000e+000
    outer loop
      vertex -7.150241e-002 -1.774285e-001  2.591283e-001
      vertex -7.150241e-002 -1.774285e-001  3.437500e-001
      vertex -8.426596e-002 -1.929809e-001  3.437500e-001
    endloop
  endfacet
  facet normal  7.730104e-001 -6.343933e-001  0.000000e+000
    outer loop
      vertex -7.150241e-002 -1.774285e-001  2.591283e-001
      vertex -8.426596e-002 -1.929809e-001  3.437500e-001
      vertex -8.426596e-002 -1.929809e-001  2.591283e-001
    endloop
  endfacet
  facet normal  8.819214e-001 -4.713965e-001  0.000000e+000
    outer loop
      vertex -8.426596e-002 -1.929809e-001  2.591283e-001
      vertex -8.426596e-002 -1.929809e-001  3.437500e-001
      vertex -9.375013e-002 -2.107246e-001  3.437500e-001
    endloop
  endfacet
  facet normal  8.819214e-001 -4.713965e-001  0.000000e+000
    outer loop
      vertex -8.426596e-002 -1.929809e-001  2.591283e-001
      vertex -9.375013e-002 -2.107246e-001  3.437500e-001
      vertex -9.375013e-002 -2.107246e-001  2.591283e-001
    endloop
  endfacet
  facet normal  9.569403e-001 -2.902848e-001  0.000000e+000
    outer loop
      vertex -9.375013e-002 -2.107246e-001  2.591283e-001
      vertex -9.375013e-002 -2.107246e-001  3.437500e-001
      vertex -9.959047e-002 -2.299776e-001  3.437500e-001
    endloop
  endfacet
  facet normal  9.569403e-001 -2.902848e-001  0.000000e+000
    outer loop
      vertex -9.375013e-002 -2.107246e-001  2.591283e-001
      vertex -9.959047e-002 -2.299776e-001  3.437500e-001
      vertex -9.959047e-002 -2.299776e-001  2.591283e-001
    endloop
  endfacet
  facet normal  9.951848e-001 -9.801705e-002  0.000000e+000
    outer loop
      vertex -9.959047e-002 -2.299776e-001  2.591283e-001
      vertex -9.959047e-002 -2.299776e-001  3.437500e-001
      vertex -1.015625e-001 -2.500000e-001  3.437500e-001
    endloop
  endfacet
  facet normal  9.951848e-001 -9.801705e-002  0.000000e+000
    outer loop
      vertex -9.959047e-002 -2.299776e-001  2.591283e-001
      vertex -1.015625e-001 -2.500000e-001  3.437500e-001
      vertex -1.015625e-001 -2.500000e-001  2.591283e-001
    endloop
  endfacet
  facet normal  9.801701e-002 -9.951847e-001  0.000000e+000
    outer loop
      vertex -1.895335e-002 -1.493405e-001  3.437500e-001
      vertex  1.069079e-003 -1.473684e-001  2.591283e-001
      vertex  1.069079e-003 -1.473684e-001  3.437500e-001
    endloop
  endfacet
  facet normal -9.801701e-002 -9.951847e-001  -0.000000e+000
    outer loop
      vertex  1.069079e-003 -1.473684e-001  3.437500e-001
      vertex  1.069079e-003 -1.473684e-001  2.591283e-001
      vertex  2.109151e-002 -1.493405e-001  2.591283e-001
    endloop
  endfacet
  facet normal -9.801701e-002 -9.951847e-001  0.000000e+000
    outer loop
      vertex  1.069079e-003 -1.473684e-001  3.437500e-001
      vertex  2.109151e-002 -1.493405e-001  2.591283e-001
      vertex  2.109151e-002 -1.493405e-001  3.437500e-001
    endloop
  endfacet
  facet normal -2.902848e-001 -9.569403e-001  -0.000000e+000
    outer loop
      vertex  2.109151e-002 -1.493405e-001  3.437500e-001
      vertex  2.109151e-002 -1.493405e-001  2.591283e-001
      vertex  4.034448e-002 -1.551808e-001  2.591283e-001
    endloop
  endfacet
  facet normal -2.902848e-001 -9.569403e-001  0.000000e+000
    outer loop
      vertex  2.109151e-002 -1.493405e-001  3.437500e-001
      vertex  4.034448e-002 -1.551808e-001  2.591283e-001
      vertex  4.034448e-002 -1.551808e-001  3.437500e-001
    endloop
  endfacet
  facet normal -4.713966e-001 -8.819213e-001  -0.000000e+000
    outer loop
      vertex  4.034448e-002 -1.551808e-001  3.437500e-001
      vertex  4.034448e-002 -1.551808e-001  2.591283e-001
      vertex  5.808813e-002 -1.646650e-001  2.591283e-001
    endloop
  endfacet
  facet normal -4.713966e-001 -8.819213e-001  0.000000e+000
    outer loop
      vertex  4.034448e-002 -1.551808e-001  3.437500e-001
      vertex  5.808813e-002 -1.646650e-001  2.591283e-001
      vertex  5.808813e-002 -1.646650e-001  3.437500e-001
    endloop
  endfacet
  facet normal -6.343935e-001 -7.730103e-001  -0.000000e+000
    outer loop
      vertex  5.808813e-002 -1.646650e-001  3.437500e-001
      vertex  5.808813e-002 -1.646650e-001  2.591283e-001
      vertex  7.364056e-002 -1.774285e-001  2.591283e-001
    endloop
  endfacet
  facet normal -6.343935e-001 -7.730103e-001  0.000000e+000
    outer loop
      vertex  5.808813e-002 -1.646650e-001  3.437500e-001
      vertex  7.364056e-002 -1.774285e-001  2.591283e-001
      vertex  7.364056e-002 -1.774285e-001  3.437500e-001
    endloop
  endfacet
  facet normal -7.730104e-001 -6.343933e-001  -0.000000e+000
    outer loop
      vertex  7.364056e-002 -1.774285e-001  3.437500e-001
      vertex  7.364056e-002 -1.774285e-001  2.591283e-001
      vertex  8.640411e-002 -1.929809e-001  2.591283e-001
    endloop
  endfacet
  facet normal -7.730104e-001 -6.343933e-001  0.000000e+000
    outer loop
      vertex  7.364056e-002 -1.774285e-001  3.437500e-001
      vertex  8.640411e-002 -1.929809e-001  2.591283e-001
      vertex  8.640411e-002 -1.929809e-001  3.437500e-001
    endloop
  endfacet
  facet normal -8.819212e-001 -4.713968e-001  -0.000000e+000
    outer loop
      vertex  8.640411e-002 -1.929809e-001  3.437500e-001
      vertex  8.640411e-002 -1.929809e-001  2.591283e-001
      vertex  9.588829e-002 -2.107246e-001  2.591283e-001
    endloop
  endfacet
  facet normal -8.819212e-001 -4.713968e-001  0.000000e+000
    outer loop
      vertex  8.640411e-002 -1.929809e-001  3.437500e-001
      vertex  9.588829e-002 -2.107246e-001  2.591283e-001
      vertex  9.588829e-002 -2.107246e-001  3.437500e-001
    endloop
  endfacet
  facet normal -9.569404e-001 -2.902845e-001  -0.000000e+000
    outer loop
      vertex  9.588829e-002 -2.107246e-001  3.437500e-001
      vertex  9.588829e-002 -2.107246e-001  2.591283e-001
      vertex  1.017286e-001 -2.299776e-001  2.591283e-001
    endloop
  endfacet
  facet normal -9.569404e-001 -2.902845e-001  0.000000e+000
    outer loop
      vertex  9.588829e-002 -2.107246e-001  3.437500e-001
      vertex  1.017286e-001 -2.299776e-001  2.591283e-001
      vertex  1.017286e-001 -2.299776e-001  3.437500e-001
    endloop
  endfacet
  facet normal -9.951847e-001 -9.801741e-002  -0.000000e+000
    outer loop
      vertex  1.017286e-001 -2.299776e-001  3.437500e-001
      vertex  1.017286e-001 -2.299776e-001  2.591283e-001
      vertex  1.037007e-001 -2.500000e-001  2.591283e-001
    endloop
  endfacet
  facet normal -9.951847e-001 -9.801741e-002  0.000000e+000
    outer loop
      vertex  1.017286e-001 -2.299776e-001  3.437500e-001
      vertex  1.037007e-001 -2.500000e-001  2.591283e-001
      vertex  1.037007e-001 -2.500000e-001  3.437500e-001
    endloop
  endfacet
  facet normal -9.569319e-001  2.902819e-001 -4.228846e-003
    outer loop
      vertex  9.761575e-002 -2.848135e-001  2.591283e-001
      vertex  9.588829e-002 -2.892754e-001  3.437500e-001
      vertex  1.017286e-001 -2.700224e-001  3.437500e-001
    endloop
  endfacet
  facet normal -9.078754e-001  4.192251e-001  3.571433e-003
    outer loop
      vertex  9.588829e-002 -2.892754e-001  3.437500e-001
      vertex  9.761575e-002 -2.848135e-001  2.591283e-001
      vertex  9.017991e-002 -3.009166e-001  2.591283e-001
    endloop
  endfacet
  facet normal -8.819086e-001  4.713901e-001 -5.356439e-003
    outer loop
      vertex  9.017991e-002 -3.009166e-001  2.591283e-001
      vertex  8.640411e-002 -3.070191e-001  3.437500e-001
      vertex  9.588829e-002 -2.892754e-001  3.437500e-001
    endloop
  endfacet
  facet normal -8.221344e-001  5.692766e-001  4.369692e-003
    outer loop
      vertex  8.640411e-002 -3.070191e-001  3.437500e-001
      vertex  9.017991e-002 -3.009166e-001  2.591283e-001
      vertex  8.008255e-002 -3.154989e-001  2.591283e-001
    endloop
  endfacet
  facet normal -7.729973e-001  6.343825e-001 -5.825272e-003
    outer loop
      vertex  8.008255e-002 -3.154989e-001  2.591283e-001
      vertex  7.364056e-002 -3.225715e-001  3.437500e-001
      vertex  8.640411e-002 -3.070191e-001  3.437500e-001
    endloop
  endfacet
  facet normal -2.902832e-001  9.569348e-001 -3.404861e-003
    outer loop
      vertex  2.660482e-002 -3.494041e-001  2.265625e-001
      vertex  2.109151e-002 -3.506595e-001  3.437500e-001
      vertex  4.034448e-002 -3.448192e-001  3.437500e-001
    endloop
  endfacet
  facet normal -1.668495e-001  9.859787e-001  2.713477e-003
    outer loop
      vertex  2.109151e-002 -3.506595e-001  3.437500e-001
      vertex  2.660482e-002 -3.494041e-001  2.265625e-001
      vertex  9.661287e-003 -3.522713e-001  2.265625e-001
    endloop
  endfacet
  facet normal -9.801545e-002  9.951763e-001 -4.126948e-003
    outer loop
      vertex  9.661287e-003 -3.522713e-001  2.265625e-001
      vertex  1.069079e-003 -3.526316e-001  3.437500e-001
      vertex  2.109151e-002 -3.506595e-001  3.437500e-001
    endloop
  endfacet
  facet normal  0.000000e+000  9.999953e-001  3.074377e-003
    outer loop
      vertex -7.523129e-003 -3.522713e-001  2.265625e-001
      vertex  1.069079e-003 -3.526316e-001  3.437500e-001
      vertex  9.661287e-003 -3.522713e-001  2.265625e-001
    endloop
  endfacet
  facet normal  9.801545e-002  9.951763e-001 -4.126948e-003
    outer loop
      vertex -1.895335e-002 -3.506595e-001  3.437500e-001
      vertex  1.069079e-003 -3.526316e-001  3.437500e-001
      vertex -7.523129e-003 -3.522713e-001  2.265625e-001
    endloop
  endfacet
  facet normal  1.668495e-001  9.859787e-001  2.713479e-003
    outer loop
      vertex -2.446666e-002 -3.494041e-001  2.265625e-001
      vertex -1.895335e-002 -3.506595e-001  3.437500e-001
      vertex -7.523129e-003 -3.522713e-001  2.265625e-001
    endloop
  endfacet
  facet normal  2.902832e-001  9.569348e-001 -3.404856e-003
    outer loop
      vertex -3.820633e-002 -3.448192e-001  3.437500e-001
      vertex -1.895335e-002 -3.506595e-001  3.437500e-001
      vertex -2.446666e-002 -3.494041e-001  2.265625e-001
    endloop
  endfacet
  facet normal  7.729973e-001  6.343825e-001 -5.825204e-003
    outer loop
      vertex -7.794439e-002 -3.154989e-001  2.591283e-001
      vertex -8.426596e-002 -3.070191e-001  3.437500e-001
      vertex -7.150241e-002 -3.225715e-001  3.437500e-001
    endloop
  endfacet
  facet normal  8.221344e-001  5.692766e-001  4.369764e-003
    outer loop
      vertex -8.804175e-002 -3.009166e-001  2.591283e-001
      vertex -8.426596e-002 -3.070191e-001  3.437500e-001
      vertex -7.794439e-002 -3.154989e-001  2.591283e-001
    endloop
  endfacet
  facet normal  8.819087e-001  4.713897e-001 -5.356389e-003
    outer loop
      vertex -9.375013e-002 -2.892754e-001  3.437500e-001
      vertex -8.426596e-002 -3.070191e-001  3.437500e-001
      vertex -8.804175e-002 -3.009166e-001  2.591283e-001
    endloop
  endfacet
  facet normal  9.078754e-001  4.192251e-001  3.571433e-003
    outer loop
      vertex -9.547759e-002 -2.848135e-001  2.591283e-001
      vertex -9.375013e-002 -2.892754e-001  3.437500e-001
      vertex -8.804175e-002 -3.009166e-001  2.591283e-001
    endloop
  endfacet
  facet normal  9.569318e-001  2.902822e-001 -4.228826e-003
    outer loop
      vertex -9.959047e-002 -2.700224e-001  3.437500e-001
      vertex -9.375013e-002 -2.892754e-001  3.437500e-001
      vertex -9.547759e-002 -2.848135e-001  2.591283e-001
    endloop
  endfacet
  facet normal  7.118409e-001  7.023262e-001  4.509056e-003
    outer loop
      vertex -7.794439e-002 -3.154989e-001  2.591283e-001
      vertex -7.150241e-002 -3.225715e-001  3.437500e-001
      vertex -6.548710e-002 -3.281250e-001  2.591283e-001
    endloop
  endfacet
  facet normal  6.343834e-001  7.729982e-001 -5.635015e-003
    outer loop
      vertex -6.548710e-002 -3.281250e-001  2.591283e-001
      vertex -7.150241e-002 -3.225715e-001  3.437500e-001
      vertex -5.594997e-002 -3.353350e-001  3.437500e-001
    endloop
  endfacet
  facet normal  6.034234e-001  7.974210e-001 -6.481874e-005
    outer loop
      vertex -6.548710e-002 -3.281250e-001  2.591283e-001
      vertex -5.594997e-002 -3.353350e-001  3.437500e-001
      vertex -5.604100e-002 -3.352736e-001  2.519796e-001
    endloop
  endfacet
  facet normal  4.713966e-001  8.819213e-001  1.226959e-004
    outer loop
      vertex -5.604100e-002 -3.352736e-001  2.519796e-001
      vertex -5.594997e-002 -3.353350e-001  3.437500e-001
      vertex -3.820633e-002 -3.448192e-001  3.437500e-001
    endloop
  endfacet
  facet normal  4.823662e-001  8.759658e-001 -2.628596e-003
    outer loop
      vertex -5.604100e-002 -3.352736e-001  2.519796e-001
      vertex -3.820633e-002 -3.448192e-001  3.437500e-001
      vertex -4.069429e-002 -3.437500e-001  2.435033e-001
    endloop
  endfacet
  facet normal  3.307503e-001  9.437164e-001  1.856876e-003
    outer loop
      vertex -4.069429e-002 -3.437500e-001  2.435033e-001
      vertex -3.820633e-002 -3.448192e-001  3.437500e-001
      vertex -2.446666e-002 -3.494041e-001  2.265625e-001
    endloop
  endfacet
  facet normal  3.290229e-001  9.443220e-001  0.000000e+000
    outer loop
      vertex -4.069429e-002 -3.437500e-001  2.435033e-001
      vertex -2.446666e-002 -3.494041e-001  2.265625e-001
      vertex -4.069429e-002 -3.437500e-001  2.265625e-001
    endloop
  endfacet
  facet normal -7.118409e-001  7.023262e-001  4.508993e-003
    outer loop
      vertex  8.008255e-002 -3.154989e-001  2.591283e-001
      vertex  6.762526e-002 -3.281250e-001  2.591283e-001
      vertex  7.364056e-002 -3.225715e-001  3.437500e-001
    endloop
  endfacet
  facet normal -5.985935e-001  8.009903e-001 -1.001624e-002
    outer loop
      vertex  7.364056e-002 -3.225715e-001  3.437500e-001
      vertex  6.762526e-002 -3.281250e-001  2.591283e-001
      vertex  5.817916e-002 -3.352736e-001  2.519796e-001
    endloop
  endfacet
  facet normal -6.343935e-001  7.730103e-001 -1.119022e-004
    outer loop
      vertex  7.364056e-002 -3.225715e-001  3.437500e-001
      vertex  5.817916e-002 -3.352736e-001  2.519796e-001
      vertex  5.808813e-002 -3.353350e-001  3.437500e-001
    endloop
  endfacet
  facet normal -4.835255e-001  8.753302e-001  1.062341e-004
    outer loop
      vertex  5.808813e-002 -3.353350e-001  3.437500e-001
      vertex  5.817916e-002 -3.352736e-001  2.519796e-001
      vertex  4.283244e-002 -3.437500e-001  2.435033e-001
    endloop
  endfacet
  facet normal -4.713954e-001  8.819190e-001 -2.292824e-003
    outer loop
      vertex  5.808813e-002 -3.353350e-001  3.437500e-001
      vertex  4.283244e-002 -3.437500e-001  2.435033e-001
      vertex  4.034448e-002 -3.448192e-001  3.437500e-001
    endloop
  endfacet
  facet normal -3.948396e-001  9.187501e-001  0.000000e+000
    outer loop
      vertex  4.034448e-002 -3.448192e-001  3.437500e-001
      vertex  4.283244e-002 -3.437500e-001  2.435033e-001
      vertex  4.283244e-002 -3.437500e-001  2.265625e-001
    endloop
  endfacet
  facet normal -3.290225e-001  9.443207e-001  1.630641e-003
    outer loop
      vertex  4.034448e-002 -3.448192e-001  3.437500e-001
      vertex  4.283244e-002 -3.437500e-001  2.265625e-001
      vertex  2.660482e-002 -3.494041e-001  2.265625e-001
    endloop
  endfacet
  facet normal -9.665017e-001  2.566517e-001  2.114510e-003
    outer loop
      vertex  9.761575e-002 -2.848135e-001  2.591283e-001
      vertex  1.017286e-001 -2.700224e-001  3.437500e-001
      vertex  1.021680e-001 -2.676707e-001  2.591283e-001
    endloop
  endfacet
  facet normal -9.951817e-001  9.801712e-002 -2.443089e-003
    outer loop
      vertex  1.021680e-001 -2.676707e-001  2.591283e-001
      vertex  1.017286e-001 -2.700224e-001  3.437500e-001
      vertex  1.037007e-001 -2.500000e-001  3.437500e-001
    endloop
  endfacet
  facet normal -9.962596e-001  8.641109e-002  0.000000e+000
    outer loop
      vertex  1.021680e-001 -2.676707e-001  2.591283e-001
      vertex  1.037007e-001 -2.500000e-001  3.437500e-001
      vertex  1.037007e-001 -2.500000e-001  2.591283e-001
    endloop
  endfacet
  facet normal  9.665017e-001  2.566517e-001  2.114595e-003
    outer loop
      vertex -9.547759e-002 -2.848135e-001  2.591283e-001
      vertex -1.000298e-001 -2.676707e-001  2.591283e-001
      vertex -9.959047e-002 -2.700224e-001  3.437500e-001
    endloop
  endfacet
  facet normal  9.962558e-001  8.641075e-002 -2.771136e-003
    outer loop
      vertex -9.959047e-002 -2.700224e-001  3.437500e-001
      vertex -1.000298e-001 -2.676707e-001  2.591283e-001
      vertex -1.015625e-001 -2.500000e-001  2.591283e-001
    endloop
  endfacet
  facet normal  9.951848e-001  9.801705e-002  -0.000000e+000
    outer loop
      vertex -9.959047e-002 -2.700224e-001  3.437500e-001
      vertex -1.015625e-001 -2.500000e-001  2.591283e-001
      vertex -1.015625e-001 -2.500000e-001  3.437500e-001
    endloop
  endfacet
  facet normal  0.000000e+000  0.000000e+000  1.000000e+000
    outer loop
      vertex  4.283244e-002 -3.437500e-001  2.265625e-001
      vertex -2.446666e-002 -3.494041e-001  2.265625e-001
      vertex  2.660482e-002 -3.494041e-001  2.265625e-001
    endloop
  endfacet
  facet normal  -0.000000e+000  0.000000e+000  9.999999e-001
    outer loop
      vertex  4.283244e-002 -3.437500e-001  2.265625e-001
      vertex  1.069079e-003 -3.437500e-001  2.265625e-001
      vertex -2.446666e-002 -3.494041e-001  2.265625e-001
    endloop
  endfacet
  facet normal  0.000000e+000  -0.000000e+000  1.000000e+000
    outer loop
      vertex -4.069429e-002 -3.437500e-001  2.265625e-001
      vertex -2.446666e-002 -3.494041e-001  2.265625e-001
      vertex  1.069079e-003 -3.437500e-001  2.265625e-001
    endloop
  endfacet
  facet normal  -0.000000e+000  0.000000e+000  1.000000e+000
    outer loop
      vertex  2.660482e-002 -3.494041e-001  2.265625e-001
      vertex -2.446666e-002 -3.494041e-001  2.265625e-001
      vertex -7.523129e-003 -3.522713e-001  2.265625e-001
    endloop
  endfacet
  facet normal  0.000000e+000  0.000000e+000  1.000000e+000
    outer loop
      vertex  2.660482e-002 -3.494041e-001  2.265625e-001
      vertex -7.523129e-003 -3.522713e-001  2.265625e-001
      vertex  9.661287e-003 -3.522713e-001  2.265625e-001
    endloop
  endfacet
  facet normal  0.000000e+000  0.000000e+000  1.000000e+000
    outer loop
      vertex -6.796875e-001  3.990132e-001  3.437500e-001
      vertex -6.796875e-001 -4.062500e-001  3.437500e-001
      vertex -7.150241e-002 -1.774285e-001  3.437500e-001
    endloop
  endfacet
  facet normal  0.000000e+000  -0.000000e+000  1.000000e+000
    outer loop
      vertex -6.796875e-001  3.990132e-001  3.437500e-001
      vertex -7.150241e-002 -1.774285e-001  3.437500e-001
      vertex -5.594997e-002 -1.646650e-001  3.437500e-001
    endloop
  endfacet
  facet normal  0.000000e+000  -0.000000e+000  1.000000e+000
    outer loop
      vertex -6.796875e-001  3.990132e-001  3.437500e-001
      vertex -5.594997e-002 -1.646650e-001  3.437500e-001
      vertex -3.820633e-002 -1.551808e-001  3.437500e-001
    endloop
  endfacet
  facet normal  0.000000e+000  -0.000000e+000  1.000000e+000
    outer loop
      vertex -6.796875e-001  3.990132e-001  3.437500e-001
      vertex -3.820633e-002 -1.551808e-001  3.437500e-001
      vertex -1.895335e-002 -1.493405e-001  3.437500e-001
    endloop
  endfacet
  facet normal  0.000000e+000  -0.000000e+000  1.000000e+000
    outer loop
      vertex -6.796875e-001  3.990132e-001  3.437500e-001
      vertex -1.895335e-002 -1.493405e-001  3.437500e-001
      vertex  1.069079e-003 -1.473684e-001  3.437500e-001
    endloop
  endfacet
  facet normal  0.000000e+000  -0.000000e+000  1.000000e+000
    outer loop
      vertex -6.796875e-001  3.990132e-001  3.437500e-001
      vertex  1.069079e-003 -1.473684e-001  3.437500e-001
      vertex  7.500000e-001  3.990132e-001  3.437500e-001
    endloop
  endfacet
  facet normal  0.000000e+000  0.000000e+000  1.000000e+000
    outer loop
      vertex -6.796875e-001 -4.062500e-001  3.437500e-001
      vertex  6.796875e-001 -4.062500e-001  3.437500e-001
      vertex  1.069079e-003 -3.526316e-001  3.437500e-001
    endloop
  endfacet
  facet normal  0.000000e+000  0.000000e+000  1.000000e+000
    outer loop
      vertex -6.796875e-001 -4.062500e-001  3.437500e-001
      vertex  1.069079e-003 -3.526316e-001  3.437500e-001
      vertex -1.895335e-002 -3.506595e-001  3.437500e-001
    endloop
  endfacet
  facet normal  0.000000e+000  0.000000e+000  1.000000e+000
    outer loop
      vertex -6.796875e-001 -4.062500e-001  3.437500e-001
      vertex -1.895335e-002 -3.506595e-001  3.437500e-001
      vertex -3.820633e-002 -3.448192e-001  3.437500e-001
    endloop
  endfacet
  facet normal  0.000000e+000  0.000000e+000  1.000000e+000
    outer loop
      vertex -6.796875e-001 -4.062500e-001  3.437500e-001
      vertex -3.820633e-002 -3.448192e-001  3.437500e-001
      vertex -5.594997e-002 -3.353350e-001  3.437500e-001
    endloop
  endfacet
  facet normal  0.000000e+000  0.000000e+000  1.000000e+000
    outer loop
      vertex -6.796875e-001 -4.062500e-001  3.437500e-001
      vertex -5.594997e-002 -3.353350e-001  3.437500e-001
      vertex -7.150241e-002 -3.225715e-001  3.437500e-001
    endloop
  endfacet
  facet normal  0.000000e+000  0.000000e+000  1.000000e+000
    outer loop
      vertex -6.796875e-001 -4.062500e-001  3.437500e-001
      vertex -7.150241e-002 -3.225715e-001  3.437500e-001
      vertex -8.426596e-002 -3.070191e-001  3.437500e-001
    endloop
  endfacet
  facet normal  0.000000e+000  0.000000e+000  1.000000e+000
    outer loop
      vertex -6.796875e-001 -4.062500e-001  3.437500e-001
      vertex -8.426596e-002 -3.070191e-001  3.437500e-001
      vertex -9.375013e-002 -2.892754e-001  3.437500e-001
    endloop
  endfacet
  facet normal  0.000000e+000  0.000000e+000  1.000000e+000
    outer loop
      vertex -6.796875e-001 -4.062500e-001  3.437500e-001
      vertex -9.375013e-002 -2.892754e-001  3.437500e-001
      vertex -9.959047e-002 -2.700224e-001  3.437500e-001
    endloop
  endfacet
  facet normal  0.000000e+000  0.000000e+000  1.000000e+000
    outer loop
      vertex -6.796875e-001 -4.062500e-001  3.437500e-001
      vertex -9.959047e-002 -2.700224e-001  3.437500e-001
      vertex -1.015625e-001 -2.500000e-001  3.437500e-001
    endloop
  endfacet
  facet normal  0.000000e+000  -0.000000e+000  1.000000e+000
    outer loop
      vertex -6.796875e-001 -4.062500e-001  3.437500e-001
      vertex -1.015625e-001 -2.500000e-001  3.437500e-001
      vertex -9.959047e-002 -2.299776e-001  3.437500e-001
    endloop
  endfacet
  facet normal  0.000000e+000  -0.000000e+000  1.000000e+000
    outer loop
      vertex -6.796875e-001 -4.062500e-001  3.437500e-001
      vertex -9.959047e-002 -2.299776e-001  3.437500e-001
      vertex -9.375013e-002 -2.107246e-001  3.437500e-001
    endloop
  endfacet
  facet normal  0.000000e+000  -0.000000e+000  1.000000e+000
    outer loop
      vertex -6.796875e-001 -4.062500e-001  3.437500e-001
      vertex -9.375013e-002 -2.107246e-001  3.437500e-001
      vertex -8.426596e-002 -1.929809e-001  3.437500e-001
    endloop
  endfacet
  facet normal  0.000000e+000  -0.000000e+000  9.999999e-001
    outer loop
      vertex -6.796875e-001 -4.062500e-001  3.437500e-001
      vertex -8.426596e-002 -1.929809e-001  3.437500e-001
      vertex -7.150241e-002 -1.774285e-001  3.437500e-001
    endloop
  endfacet
  facet normal  0.000000e+000  0.000000e+000  1.000000e+000
    outer loop
      vertex  7.500000e-001 -3.281250e-001  3.437500e-001
      vertex  7.364056e-002 -1.774285e-001  3.437500e-001
      vertex  8.640411e-002 -1.929809e-001  3.437500e-001
    endloop
  endfacet
  facet normal  0.000000e+000  0.000000e+000  1.000000e+000
    outer loop
      vertex  7.500000e-001 -3.281250e-001  3.437500e-001
      vertex  8.640411e-002 -1.929809e-001  3.437500e-001
      vertex  9.588829e-002 -2.107246e-001  3.437500e-001
    endloop
  endfacet
  facet normal  0.000000e+000  0.000000e+000  1.000000e+000
    outer loop
      vertex  7.500000e-001 -3.281250e-001  3.437500e-001
      vertex  9.588829e-002 -2.107246e-001  3.437500e-001
      vertex  1.017286e-001 -2.299776e-001  3.437500e-001
    endloop
  endfacet
  facet normal  0.000000e+000  0.000000e+000  9.999999e-001
    outer loop
      vertex  7.500000e-001 -3.281250e-001  3.437500e-001
      vertex  1.017286e-001 -2.299776e-001  3.437500e-001
      vertex  1.037007e-001 -2.500000e-001  3.437500e-001
    endloop
  endfacet
  facet normal  0.000000e+000  0.000000e+000  1.000000e+000
    outer loop
      vertex  7.500000e-001 -3.281250e-001  3.437500e-001
      vertex  1.037007e-001 -2.500000e-001  3.437500e-001
      vertex  1.017286e-001 -2.700224e-001  3.437500e-001
    endloop
  endfacet
  facet normal  0.000000e+000  0.000000e+000  9.999999e-001
    outer loop
      vertex  7.500000e-001 -3.281250e-001  3.437500e-001
      vertex  1.017286e-001 -2.700224e-001  3.437500e-001
      vertex  9.588829e-002 -2.892754e-001  3.437500e-001
    endloop
  endfacet
  facet normal  0.000000e+000  0.000000e+000  1.000000e+000
    outer loop
      vertex  7.500000e-001 -3.281250e-001  3.437500e-001
      vertex  9.588829e-002 -2.892754e-001  3.437500e-001
      vertex  8.640411e-002 -3.070191e-001  3.437500e-001
    endloop
  endfacet
  facet normal  0.000000e+000  0.000000e+000  1.000000e+000
    outer loop
      vertex  7.500000e-001 -3.281250e-001  3.437500e-001
      vertex  8.640411e-002 -3.070191e-001  3.437500e-001
      vertex  7.364056e-002 -3.225715e-001  3.437500e-001
    endloop
  endfacet
  facet normal  0.000000e+000  0.000000e+000  1.000000e+000
    outer loop
      vertex  7.500000e-001 -3.281250e-001  3.437500e-001
      vertex  7.364056e-002 -3.225715e-001  3.437500e-001
      vertex  5.808813e-002 -3.353350e-001  3.437500e-001
    endloop
  endfacet
  facet normal  -0.000000e+000  0.000000e+000  1.000000e+000
    outer loop
      vertex  7.500000e-001 -3.281250e-001  3.437500e-001
      vertex  5.808813e-002 -3.353350e-001  3.437500e-001
      vertex  6.796875e-001 -4.062500e-001  3.437500e-001
    endloop
  endfacet
  facet normal  -0.000000e+000  0.000000e+000  1.000000e+000
    outer loop
      vertex  7.500000e-001  3.990132e-001  3.437500e-001
      vertex  1.069079e-003 -1.473684e-001  3.437500e-001
      vertex  2.109151e-002 -1.493405e-001  3.437500e-001
    endloop
  endfacet
  facet normal  -0.000000e+000  0.000000e+000  1.000000e+000
    outer loop
      vertex  7.500000e-001  3.990132e-001  3.437500e-001
      vertex  2.109151e-002 -1.493405e-001  3.437500e-001
      vertex  4.034448e-002 -1.551808e-001  3.437500e-001
    endloop
  endfacet
  facet normal  -0.000000e+000  0.000000e+000  1.000000e+000
    outer loop
      vertex  7.500000e-001  3.990132e-001  3.437500e-001
      vertex  4.034448e-002 -1.551808e-001  3.437500e-001
      vertex  5.808813e-002 -1.646650e-001  3.437500e-001
    endloop
  endfacet
  facet normal  -0.000000e+000  0.000000e+000  1.000000e+000
    outer loop
      vertex  7.500000e-001  3.990132e-001  3.437500e-001
      vertex  5.808813e-002 -1.646650e-001  3.437500e-001
      vertex  7.364056e-002 -1.774285e-001  3.437500e-001
    endloop
  endfacet
  facet normal  -0.000000e+000  0.000000e+000  1.000000e+000
    outer loop
      vertex  7.500000e-001  3.990132e-001  3.437500e-001
      vertex  7.364056e-002 -1.774285e-001  3.437500e-001
      vertex  7.500000e-001 -3.281250e-001  3.437500e-001
    endloop
  endfacet
  facet normal  0.000000e+000  0.000000e+000  1.000000e+000
    outer loop
      vertex  6.796875e-001 -4.062500e-001  3.437500e-001
      vertex  5.808813e-002 -3.353350e-001  3.437500e-001
      vertex  4.034448e-002 -3.448192e-001  3.437500e-001
    endloop
  endfacet
  facet normal  0.000000e+000  0.000000e+000  1.000000e+000
    outer loop
      vertex  6.796875e-001 -4.062500e-001  3.437500e-001
      vertex  4.034448e-002 -3.448192e-001  3.437500e-001
      vertex  2.109151e-002 -3.506595e-001  3.437500e-001
    endloop
  endfacet
  facet normal  0.000000e+000  0.000000e+000  1.000000e+000
    outer loop
      vertex  6.796875e-001 -4.062500e-001  3.437500e-001
      vertex  2.109151e-002 -3.506595e-001  3.437500e-001
      vertex  1.069079e-003 -3.526316e-001  3.437500e-001
    endloop
  endfacet
  facet normal  0.000000e+000  0.000000e+000 -9.999999e-001
    outer loop
      vertex  6.250000e-001 -3.281250e-001  2.591283e-001
      vertex  6.762526e-002 -3.281250e-001  2.591283e-001
      vertex  8.008255e-002 -3.154989e-001  2.591283e-001
    endloop
  endfacet
  facet normal  0.000000e+000  0.000000e+000 -1.000000e+000
    outer loop
      vertex  6.250000e-001 -3.281250e-001  2.591283e-001
      vertex  8.008255e-002 -3.154989e-001  2.591283e-001
      vertex  9.017991e-002 -3.009166e-001  2.591283e-001
    endloop
  endfacet
  facet normal  0.000000e+000  0.000000e+000 -1.000000e+000
    outer loop
      vertex  6.250000e-001 -3.281250e-001  2.591283e-001
      vertex  9.017991e-002 -3.009166e-001  2.591283e-001
      vertex  9.761575e-002 -2.848135e-001  2.591283e-001
    endloop
  endfacet
  facet normal  0.000000e+000  0.000000e+000 -1.000000e+000
    outer loop
      vertex  6.250000e-001 -3.281250e-001  2.591283e-001
      vertex  9.761575e-002 -2.848135e-001  2.591283e-001
      vertex  1.021680e-001 -2.676707e-001  2.591283e-001
    endloop
  endfacet
  facet normal  0.000000e+000  0.000000e+000 -1.000000e+000
    outer loop
      vertex  6.250000e-001 -3.281250e-001  2.591283e-001
      vertex  1.021680e-001 -2.676707e-001  2.591283e-001
      vertex  1.037007e-001 -2.500000e-001  2.591283e-001
    endloop
  endfacet
  facet normal  0.000000e+000  0.000000e+000 -1.000000e+000
    outer loop
      vertex  6.250000e-001 -3.281250e-001  2.591283e-001
      vertex  1.037007e-001 -2.500000e-001  2.591283e-001
      vertex  6.250000e-001  3.990132e-001  2.591283e-001
    endloop
  endfacet
  facet normal  0.000000e+000  0.000000e+000 -1.000000e+000
    outer loop
      vertex -6.562500e-001  3.990132e-001  2.591283e-001
      vertex  2.109151e-002 -1.493405e-001  2.591283e-001
      vertex  1.069079e-003 -1.473684e-001  2.591283e-001
    endloop
  endfacet
  facet normal  -0.000000e+000  0.000000e+000 -9.999999e-001
    outer loop
      vertex -6.562500e-001  3.990132e-001  2.591283e-001
      vertex  1.069079e-003 -1.473684e-001  2.591283e-001
      vertex -1.895335e-002 -1.493405e-001  2.591283e-001
    endloop
  endfacet
  facet normal  -0.000000e+000  0.000000e+000 -1.000000e+000
    outer loop
      vertex -6.562500e-001  3.990132e-001  2.591283e-001
      vertex -1.895335e-002 -1.493405e-001  2.591283e-001
      vertex -3.820633e-002 -1.551808e-001  2.591283e-001
    endloop
  endfacet
  facet normal  -0.000000e+000  0.000000e+000 -1.000000e+000
    outer loop
      vertex -6.562500e-001  3.990132e-001  2.591283e-001
      vertex -3.820633e-002 -1.551808e-001  2.591283e-001
      vertex -5.594997e-002 -1.646650e-001  2.591283e-001
    endloop
  endfacet
  facet normal  -0.000000e+000  0.000000e+000 -1.000000e+000
    outer loop
      vertex -6.562500e-001  3.990132e-001  2.591283e-001
      vertex -5.594997e-002 -1.646650e-001  2.591283e-001
      vertex -7.150241e-002 -1.774285e-001  2.591283e-001
    endloop
  endfacet
  facet normal  -0.000000e+000  0.000000e+000 -1.000000e+000
    outer loop
      vertex -6.562500e-001  3.990132e-001  2.591283e-001
      vertex -7.150241e-002 -1.774285e-001  2.591283e-001
      vertex -8.426596e-002 -1.929809e-001  2.591283e-001
    endloop
  endfacet
  facet normal  -0.000000e+000  0.000000e+000 -1.000000e+000
    outer loop
      vertex -6.562500e-001  3.990132e-001  2.591283e-001
      vertex -8.426596e-002 -1.929809e-001  2.591283e-001
      vertex -9.375013e-002 -2.107246e-001  2.591283e-001
    endloop
  endfacet
  facet normal  -0.000000e+000  0.000000e+000 -1.000000e+000
    outer loop
      vertex -6.562500e-001  3.990132e-001  2.591283e-001
      vertex -9.375013e-002 -2.107246e-001  2.591283e-001
      vertex -9.959047e-002 -2.299776e-001  2.591283e-001
    endloop
  endfacet
  facet normal  -0.000000e+000  0.000000e+000 -9.999999e-001
    outer loop
      vertex -6.562500e-001  3.990132e-001  2.591283e-001
      vertex -9.959047e-002 -2.299776e-001  2.591283e-001
      vertex -1.015625e-001 -2.500000e-001  2.591283e-001
    endloop
  endfacet
  facet normal  -0.000000e+000  0.000000e+000 -9.999999e-001
    outer loop
      vertex -6.562500e-001  3.990132e-001  2.591283e-001
      vertex -1.015625e-001 -2.500000e-001  2.591283e-001
      vertex -6.562500e-001 -3.281250e-001  2.591283e-001
    endloop
  endfacet
  facet normal  0.000000e+000  0.000000e+000 -9.999999e-001
    outer loop
      vertex  6.250000e-001  3.990132e-001  2.591283e-001
      vertex  1.037007e-001 -2.500000e-001  2.591283e-001
      vertex  1.017286e-001 -2.299776e-001  2.591283e-001
    endloop
  endfacet
  facet normal  0.000000e+000  0.000000e+000 -1.000000e+000
    outer loop
      vertex  6.250000e-001  3.990132e-001  2.591283e-001
      vertex  1.017286e-001 -2.299776e-001  2.591283e-001
      vertex  9.588829e-002 -2.107246e-001  2.591283e-001
    endloop
  endfacet
  facet normal  0.000000e+000  0.000000e+000 -9.999999e-001
    outer loop
      vertex  6.250000e-001  3.990132e-001  2.591283e-001
      vertex  9.588829e-002 -2.107246e-001  2.591283e-001
      vertex  8.640411e-002 -1.929809e-001  2.591283e-001
    endloop
  endfacet
  facet normal  0.000000e+000  0.000000e+000 -1.000000e+000
    outer loop
      vertex  6.250000e-001  3.990132e-001  2.591283e-001
      vertex  8.640411e-002 -1.929809e-001  2.591283e-001
      vertex  7.364056e-002 -1.774285e-001  2.591283e-001
    endloop
  endfacet
  facet normal  0.000000e+000  0.000000e+000 -1.000000e+000
    outer loop
      vertex  6.250000e-001  3.990132e-001  2.591283e-001
      vertex  7.364056e-002 -1.774285e-001  2.591283e-001
      vertex  5.808813e-002 -1.646650e-001  2.591283e-001
    endloop
  endfacet
  facet normal  0.000000e+000  0.000000e+000 -1.000000e+000
    outer loop
      vertex  6.250000e-001  3.990132e-001  2.591283e-001
      vertex  5.808813e-002 -1.646650e-001  2.591283e-001
      vertex  4.034448e-002 -1.551808e-001  2.591283e-001
    endloop
  endfacet
  facet normal  0.000000e+000  0.000000e+000 -1.000000e+000
    outer loop
      vertex  6.250000e-001  3.990132e-001  2.591283e-001
      vertex  4.034448e-002 -1.551808e-001  2.591283e-001
      vertex  2.109151e-002 -1.493405e-001  2.591283e-001
    endloop
  endfacet
  facet normal  0.000000e+000  0.000000e+000 -1.000000e+000
    outer loop
      vertex  6.250000e-001  3.990132e-001  2.591283e-001
      vertex  2.109151e-002 -1.493405e-001  2.591283e-001
      vertex -6.562500e-001  3.990132e-001  2.591283e-001
    endloop
  endfacet
  facet normal  0.000000e+000  -0.000000e+000 -1.000000e+000
    outer loop
      vertex -6.562500e-001 -3.281250e-001  2.591283e-001
      vertex -1.015625e-001 -2.500000e-001  2.591283e-001
      vertex -1.000298e-001 -2.676707e-001  2.591283e-001
    endloop
  endfacet
  facet normal  0.000000e+000  -0.000000e+000 -1.000000e+000
    outer loop
      vertex -6.562500e-001 -3.281250e-001  2.591283e-001
      vertex -1.000298e-001 -2.676707e-001  2.591283e-001
      vertex -9.547759e-002 -2.848135e-001  2.591283e-001
    endloop
  endfacet
  facet normal  0.000000e+000  -0.000000e+000 -1.000000e+000
    outer loop
      vertex -6.562500e-001 -3.281250e-001  2.591283e-001
      vertex -9.547759e-002 -2.848135e-001  2.591283e-001
      vertex -8.804175e-002 -3.009166e-001  2.591283e-001
    endloop
  endfacet
  facet normal  0.000000e+000  -0.000000e+000 -1.000000e+000
    outer loop
      vertex -6.562500e-001 -3.281250e-001  2.591283e-001
      vertex -8.804175e-002 -3.009166e-001  2.591283e-001
      vertex -7.794439e-002 -3.154989e-001  2.591283e-001
    endloop
  endfacet
  facet normal  0.000000e+000  -0.000000e+000 -1.000000e+000
    outer loop
      vertex -6.562500e-001 -3.281250e-001  2.591283e-001
      vertex -7.794439e-002 -3.154989e-001  2.591283e-001
      vertex -6.548710e-002 -3.281250e-001  2.591283e-001
    endloop
  endfacet
  facet normal  0.000000e+000  1.000000e+000  0.000000e+000
    outer loop
      vertex  6.250000e-001 -3.437500e-001  7.031250e-002
      vertex -6.562500e-001 -3.437500e-001  7.031250e-002
      vertex -4.069429e-002 -3.437500e-001  2.265625e-001
    endloop
  endfacet
  facet normal  -0.000000e+000  1.000000e+000  0.000000e+000
    outer loop
      vertex  6.250000e-001 -3.437500e-001  7.031250e-002
      vertex -4.069429e-002 -3.437500e-001  2.265625e-001
      vertex  1.069079e-003 -3.437500e-001  2.265625e-001
    endloop
  endfacet
  facet normal  -0.000000e+000  1.000000e+000  0.000000e+000
    outer loop
      vertex  6.250000e-001 -3.437500e-001  7.031250e-002
      vertex  1.069079e-003 -3.437500e-001  2.265625e-001
      vertex  4.283244e-002 -3.437500e-001  2.265625e-001
    endloop
  endfacet
  facet normal  -0.000000e+000  1.000000e+000  0.000000e+000
    outer loop
      vertex  6.250000e-001 -3.437500e-001  7.031250e-002
      vertex  4.283244e-002 -3.437500e-001  2.265625e-001
      vertex  4.283244e-002 -3.437500e-001  2.435033e-001
    endloop
  endfacet
  facet normal  -0.000000e+000  1.000000e+000  0.000000e+000
    outer loop
      vertex  6.250000e-001 -3.437500e-001  7.031250e-002
      vertex  4.283244e-002 -3.437500e-001  2.435033e-001
      vertex  6.250000e-001 -3.437500e-001  2.435033e-001
    endloop
  endfacet
  facet normal  0.000000e+000  1.000000e+000  0.000000e+000
    outer loop
      vertex -4.069429e-002 -3.437500e-001  2.265625e-001
      vertex -6.562500e-001 -3.437500e-001  7.031250e-002
      vertex -4.069429e-002 -3.437500e-001  2.435033e-001
    endloop
  endfacet
  facet normal  0.000000e+000  9.999999e-001  0.000000e+000
    outer loop
      vertex -4.069429e-002 -3.437500e-001  2.435033e-001
      vertex -6.562500e-001 -3.437500e-001  7.031250e-002
      vertex -6.562500e-001 -3.437500e-001  2.435033e-001
    endloop
  endfacet
  facet normal  0.000000e+000  7.071071e-001 -7.071065e-001
    outer loop
      vertex -6.562500e-001 -3.437500e-001  2.435033e-001
      vertex -6.562500e-001 -3.281250e-001  2.591283e-001
      vertex -6.548710e-002 -3.281250e-001  2.591283e-001
    endloop
  endfacet
  facet normal -5.810205e-008  7.071082e-001 -7.071053e-001
    outer loop
      vertex -6.562500e-001 -3.437500e-001  2.435033e-001
      vertex -6.548710e-002 -3.281250e-001  2.591283e-001
      vertex -5.604100e-002 -3.352736e-001  2.519796e-001
    endloop
  endfacet
  facet normal  0.000000e+000  7.071061e-001 -7.071074e-001
    outer loop
      vertex -6.562500e-001 -3.437500e-001  2.435033e-001
      vertex -5.604100e-002 -3.352736e-001  2.519796e-001
      vertex -4.069429e-002 -3.437500e-001  2.435033e-001
    endloop
  endfacet
  facet normal  0.000000e+000  7.071062e-001 -7.071074e-001
    outer loop
      vertex  6.250000e-001 -3.437500e-001  2.435033e-001
      vertex  4.283244e-002 -3.437500e-001  2.435033e-001
      vertex  5.817916e-002 -3.352736e-001  2.519796e-001
    endloop
  endfacet
  facet normal  6.145818e-008  7.071081e-001 -7.071053e-001
    outer loop
      vertex  6.250000e-001 -3.437500e-001  2.435033e-001
      vertex  5.817916e-002 -3.352736e-001  2.519796e-001
      vertex  6.762526e-002 -3.281250e-001  2.591283e-001
    endloop
  endfacet
  facet normal  0.000000e+000  7.071072e-001 -7.071065e-001
    outer loop
      vertex  6.250000e-001 -3.437500e-001  2.435033e-001
      vertex  6.762526e-002 -3.281250e-001  2.591283e-001
      vertex  6.250000e-001 -3.281250e-001  2.591283e-001
    endloop
  endfacet
  facet normal -1.000000e+000  0.000000e+000  0.000000e+000
    outer loop
      vertex  6.250000e-001  3.990132e-001  2.591283e-001
      vertex  6.250000e-001  3.990132e-001  7.031250e-002
      vertex  6.250000e-001 -3.281250e-001  2.591283e-001
    endloop
  endfacet
  facet normal -9.999999e-001  0.000000e+000  -0.000000e+000
    outer loop
      vertex  6.250000e-001 -3.281250e-001  2.591283e-001
      vertex  6.250000e-001  3.990132e-001  7.031250e-002
      vertex  6.250000e-001 -3.437500e-001  7.031250e-002
    endloop
  endfacet
  facet normal -1.000000e+000  0.000000e+000  0.000000e+000
    outer loop
      vertex  6.250000e-001 -3.281250e-001  2.591283e-001
      vertex  6.250000e-001 -3.437500e-001  7.031250e-002
      vertex  6.250000e-001 -3.437500e-001  2.435033e-001
    endloop
  endfacet
  facet normal  9.999999e-001  0.000000e+000  0.000000e+000
    outer loop
      vertex -6.562500e-001  3.990132e-001  7.031250e-002
      vertex -6.562500e-001  3.990132e-001  2.591283e-001
      vertex -6.562500e-001 -3.437500e-001  7.031250e-002
    endloop
  endfacet
  facet normal  1.000000e+000  0.000000e+000  0.000000e+000
    outer loop
      vertex -6.562500e-001 -3.437500e-001  7.031250e-002
      vertex -6.562500e-001  3.990132e-001  2.591283e-001
      vertex -6.562500e-001 -3.281250e-001  2.591283e-001
    endloop
  endfacet
  facet normal  1.000000e+000  0.000000e+000  0.000000e+000
    outer loop
      vertex -6.562500e-001 -3.437500e-001  7.031250e-002
      vertex -6.562500e-001 -3.281250e-001  2.591283e-001
      vertex -6.562500e-001 -3.437500e-001  2.435033e-001
    endloop
  endfacet
  facet normal  0.000000e+000  0.000000e+000  1.000000e+000
    outer loop
      vertex  6.250000e-001 -3.437500e-001  7.031250e-002
      vertex  6.250000e-001  3.990132e-001  7.031250e-002
      vertex -6.562500e-001 -3.437500e-001  7.031250e-002
    endloop
  endfacet
  facet normal  0.000000e+000  0.000000e+000  1.000000e+000
    outer loop
      vertex -6.562500e-001 -3.437500e-001  7.031250e-002
      vertex  6.250000e-001  3.990132e-001  7.031250e-002
      vertex -6.562500e-001  3.990132e-001  7.031250e-002
    endloop
  endfacet
  facet normal  0.000000e+000  1.000000e+000  0.000000e+000
    outer loop
      vertex -6.796875e-001  3.990132e-001  3.437500e-001
      vertex -6.562500e-001  3.990132e-001  2.591283e-001
      vertex -6.796875e-001  3.990132e-001  0.000000e+000
    endloop
  endfacet
  facet normal  0.000000e+000  1.000000e+000  0.000000e+000
    outer loop
      vertex -6.796875e-001  3.990132e-001  0.000000e+000
      vertex -6.562500e-001  3.990132e-001  2.591283e-001
      vertex -6.562500e-001  3.990132e-001  7.031250e-002
    endloop
  endfacet
  facet normal  0.000000e+000  9.999999e-001  0.000000e+000
    outer loop
      vertex -6.796875e-001  3.990132e-001  0.000000e+000
      vertex -6.562500e-001  3.990132e-001  7.031250e-002
      vertex  7.500000e-001  3.990132e-001  0.000000e+000
    endloop
  endfacet
  facet normal  0.000000e+000  1.000000e+000  0.000000e+000
    outer loop
      vertex  7.500000e-001  3.990132e-001  0.000000e+000
      vertex -6.562500e-001  3.990132e-001  7.031250e-002
      vertex  6.250000e-001  3.990132e-001  7.031250e-002
    endloop
  endfacet
  facet normal  -0.000000e+000  1.000000e+000  0.000000e+000
    outer loop
      vertex  7.500000e-001  3.990132e-001  0.000000e+000
      vertex  6.250000e-001  3.990132e-001  7.031250e-002
      vertex  7.500000e-001  3.990132e-001  3.437500e-001
    endloop
  endfacet
  facet normal  0.000000e+000  1.000000e+000  0.000000e+000
    outer loop
      vertex  7.500000e-001  3.990132e-001  3.437500e-001
      vertex  6.250000e-001  3.990132e-001  7.031250e-002
      vertex  6.250000e-001  3.990132e-001  2.591283e-001
    endloop
  endfacet
  facet normal  0.000000e+000  1.000000e+000  -0.000000e+000
    outer loop
      vertex  7.500000e-001  3.990132e-001  3.437500e-001
      vertex  6.250000e-001  3.990132e-001  2.591283e-001
      vertex -6.796875e-001  3.990132e-001  3.437500e-001
    endloop
  endfacet
  facet normal  0.000000e+000  1.000000e+000  0.000000e+000
    outer loop
      vertex -6.796875e-001  3.990132e-001  3.437500e-001
      vertex  6.250000e-001  3.990132e-001  2.591283e-001
      vertex -6.562500e-001  3.990132e-001  2.591283e-001
    endloop
  endfacet
  facet normal  0.000000e+000  0.000000e+000 -1.000000e+000
    outer loop
      vertex  6.796875e-001 -4.062500e-001  0.000000e+000
      vertex -6.796875e-001 -4.062500e-001  0.000000e+000
      vertex  7.500000e-001 -3.281250e-001  0.000000e+000
    endloop
  endfacet
  facet normal  -0.000000e+000  0.000000e+000 -1.000000e+000
    outer loop
      vertex  7.500000e-001 -3.281250e-001  0.000000e+000
      vertex -6.796875e-001 -4.062500e-001  0.000000e+000
      vertex -6.796875e-001  3.990132e-001  0.000000e+000
    endloop
  endfacet
  facet normal  0.000000e+000  0.000000e+000 -1.000000e+000
    outer loop
      vertex  7.500000e-001 -3.281250e-001  0.000000e+000
      vertex -6.796875e-001  3.990132e-001  0.000000e+000
      vertex  7.500000e-001  3.990132e-001  0.000000e+000
    endloop
  endfacet
  facet normal  0.000000e+000 -1.000000e+000  0.000000e+000
    outer loop
      vertex -6.796875e-001 -4.062500e-001  3.437500e-001
      vertex -6.796875e-001 -4.062500e-001  0.000000e+000
      vertex  6.796875e-001 -4.062500e-001  3.437500e-001
    endloop
  endfacet
  facet normal  0.000000e+000 -1.000000e+000  -0.000000e+000
    outer loop
      vertex  6.796875e-001 -4.062500e-001  3.437500e-001
      vertex -6.796875e-001 -4.062500e-001  0.000000e+000
      vertex  6.796875e-001 -4.062500e-001  0.000000e+000
    endloop
  endfacet
  facet normal  9.999999e-001  0.000000e+000  0.000000e+000
    outer loop
      vertex  7.500000e-001 -3.281250e-001  3.437500e-001
      vertex  7.500000e-001 -3.281250e-001  0.000000e+000
      vertex  7.500000e-001  3.990132e-001  3.437500e-001
    endloop
  endfacet
  facet normal  9.999999e-001  0.000000e+000  0.000000e+000
    outer loop
      vertex  7.500000e-001  3.990132e-001  3.437500e-001
      vertex  7.500000e-001 -3.281250e-001  0.000000e+000
      vertex  7.500000e-001  3.990132e-001  0.000000e+000
    endloop
  endfacet
  facet normal  7.432941e-001 -6.689647e-001  0.000000e+000
    outer loop
      vertex  6.796875e-001 -4.062500e-001  3.437500e-001
      vertex  6.796875e-001 -4.062500e-001  0.000000e+000
      vertex  7.500000e-001 -3.281250e-001  3.437500e-001
    endloop
  endfacet
  facet normal  7.432941e-001 -6.689647e-001  0.000000e+000
    outer loop
      vertex  7.500000e-001 -3.281250e-001  3.437500e-001
      vertex  6.796875e-001 -4.062500e-001  0.000000e+000
      vertex  7.500000e-001 -3.281250e-001  0.000000e+000
    endloop
  endfacet
  facet normal -1.000000e+000  0.000000e+000  0.000000e+000
    outer loop
      vertex -7.500000e-001  3.208882e-001  2.656250e-001
      vertex -7.500000e-001  3.208882e-001  7.812500e-002
      vertex -7.500000e-001 -3.281250e-001  2.656250e-001
    endloop
  endfacet
  facet normal -1.000000e+000  0.000000e+000  0.000000e+000
    outer loop
      vertex -7.500000e-001 -3.281250e-001  2.656250e-001
      vertex -7.500000e-001  3.208882e-001  7.812500e-002
      vertex -7.500000e-001 -3.281250e-001  7.812500e-002
    endloop
  endfacet
  facet normal -7.432941e-001  6.689647e-001  0.000000e+000
    outer loop
      vertex -6.796875e-001  3.990132e-001  3.437500e-001
      vertex -6.796875e-001  3.990132e-001  0.000000e+000
      vertex -7.500000e-001  3.208882e-001  2.656250e-001
    endloop
  endfacet
  facet normal -7.432942e-001  6.689647e-001  0.000000e+000
    outer loop
      vertex -7.500000e-001  3.208882e-001  2.656250e-001
      vertex -6.796875e-001  3.990132e-001  0.000000e+000
      vertex -7.500000e-001  3.208882e-001  7.812500e-002
    endloop
  endfacet
  facet normal -7.432941e-001  0.000000e+000 -6.689647e-001
    outer loop
      vertex -6.796875e-001 -4.062500e-001  0.000000e+000
      vertex -7.500000e-001 -3.281250e-001  7.812500e-002
      vertex -6.796875e-001  3.990132e-001  0.000000e+000
    endloop
  endfacet
  facet normal -7.432941e-001  0.000000e+000 -6.689647e-001
    outer loop
      vertex -6.796875e-001  3.990132e-001  0.000000e+000
      vertex -7.500000e-001 -3.281250e-001  7.812500e-002
      vertex -7.500000e-001  3.208882e-001  7.812500e-002
    endloop
  endfacet
  facet normal -7.432941e-001 -6.689647e-001  -0.000000e+000
    outer loop
      vertex -6.796875e-001 -4.062500e-001  0.000000e+000
      vertex -6.796875e-001 -4.062500e-001  3.437500e-001
      vertex -7.500000e-001 -3.281250e-001  7.812500e-002
    endloop
  endfacet
  facet normal -7.432942e-001 -6.689647e-001  0.000000e+000
    outer loop
      vertex -7.500000e-001 -3.281250e-001  7.812500e-002
      vertex -6.796875e-001 -4.062500e-001  3.437500e-001
      vertex -7.500000e-001 -3.281250e-001  2.656250e-001
    endloop
  endfacet
  facet normal -7.432941e-001  0.000000e+000  6.689647e-001
    outer loop
      vertex -6.796875e-001 -4.062500e-001  3.437500e-001
      vertex -6.796875e-001  3.990132e-001  3.437500e-001
      vertex -7.500000e-001 -3.281250e-001  2.656250e-001
    endloop
  endfacet
  facet normal -7.432941e-001  0.000000e+000  6.689647e-001
    outer loop
      vertex -7.500000e-001 -3.281250e-001  2.656250e-001
      vertex -6.796875e-001  3.990132e-001  3.437500e-001
      vertex -7.500000e-001  3.208882e-001  2.656250e-001
    endloop
  endfacet
endsolid CATIA STL
