solid CATIA STL
  facet normal  0.000000e+000  1.231966e-002 -9.999241e-001
    outer loop
      vertex -7.031250e-001 -4.687500e-001  0.000000e+000
      vertex  7.500000e-001 -4.687500e-001  0.000000e+000
      vertex -7.031250e-001 -1.401738e+000 -1.149497e-002
    endloop
  endfacet
  facet normal  0.000000e+000  1.231966e-002 -9.999241e-001
    outer loop
      vertex -7.031250e-001 -1.401738e+000 -1.149497e-002
      vertex  7.500000e-001 -4.687500e-001  0.000000e+000
      vertex  7.500000e-001 -1.401738e+000 -1.149497e-002
    endloop
  endfacet
  facet normal  0.000000e+000  0.000000e+000 -1.000000e+000
    outer loop
      vertex -7.031250e-001 -4.687500e-001  0.000000e+000
      vertex -7.031250e-001  4.643092e-001  0.000000e+000
      vertex  7.500000e-001 -4.687500e-001  0.000000e+000
    endloop
  endfacet
  facet normal  0.000000e+000  0.000000e+000 -1.000000e+000
    outer loop
      vertex  7.500000e-001 -4.687500e-001  0.000000e+000
      vertex -7.031250e-001  4.643092e-001  0.000000e+000
      vertex  7.500000e-001  4.643092e-001  0.000000e+000
    endloop
  endfacet
  facet normal -1.000000e+000  0.000000e+000  -0.000000e+000
    outer loop
      vertex -7.031250e-001 -1.387848e+000  1.608030e-001
      vertex -7.031250e-001 -1.342414e+000  3.275822e-001
      vertex -7.031250e-001  4.008124e-001  3.383206e-001
    endloop
  endfacet
  facet normal -1.000000e+000  0.000000e+000  -0.000000e+000
    outer loop
      vertex -7.031250e-001 -1.387848e+000  1.608030e-001
      vertex -7.031250e-001  4.008124e-001  3.383206e-001
      vertex -7.031250e-001  4.482976e-001  1.721138e-001
    endloop
  endfacet
  facet normal -1.000000e+000  0.000000e+000  -0.000000e+000
    outer loop
      vertex -7.031250e-001 -1.387848e+000  1.608030e-001
      vertex -7.031250e-001  4.482976e-001  1.721138e-001
      vertex -7.031250e-001  4.643092e-001  0.000000e+000
    endloop
  endfacet
  facet normal -1.000000e+000  0.000000e+000  0.000000e+000
    outer loop
      vertex -7.031250e-001 -1.387848e+000  1.608030e-001
      vertex -7.031250e-001  4.643092e-001  0.000000e+000
      vertex -7.031250e-001 -4.687500e-001  0.000000e+000
    endloop
  endfacet
  facet normal -9.999999e-001  -0.000000e+000  0.000000e+000
    outer loop
      vertex -7.031250e-001 -1.387848e+000  1.608030e-001
      vertex -7.031250e-001 -4.687500e-001  0.000000e+000
      vertex -7.031250e-001 -1.401738e+000 -1.149497e-002
    endloop
  endfacet
  facet normal -1.000000e+000  0.000000e+000  0.000000e+000
    outer loop
      vertex -7.031250e-001  9.084205e-002  7.466299e-001
      vertex -7.031250e-001 -8.912953e-001  8.318984e-001
      vertex -7.031250e-001 -5.648546e-002  8.370409e-001
    endloop
  endfacet
  facet normal -1.000000e+000  -0.000000e+000  0.000000e+000
    outer loop
      vertex -7.031250e-001 -5.648546e-002  8.370409e-001
      vertex -7.031250e-001 -8.912953e-001  8.318984e-001
      vertex -7.031250e-001 -7.305908e-001  8.955662e-001
    endloop
  endfacet
  facet normal -1.000000e+000  0.000000e+000  0.000000e+000
    outer loop
      vertex -7.031250e-001 -5.648546e-002  8.370409e-001
      vertex -7.031250e-001 -7.305908e-001  8.955662e-001
      vertex -7.031250e-001 -2.179621e-001  8.987241e-001
    endloop
  endfacet
  facet normal -1.000000e+000  -0.000000e+000  0.000000e+000
    outer loop
      vertex -7.031250e-001 -2.179621e-001  8.987241e-001
      vertex -7.031250e-001 -7.305908e-001  8.955662e-001
      vertex -7.031250e-001 -5.608997e-001  9.284977e-001
    endloop
  endfacet
  facet normal -1.000000e+000  0.000000e+000  0.000000e+000
    outer loop
      vertex -7.031250e-001 -2.179621e-001  8.987241e-001
      vertex -7.031250e-001 -5.608997e-001  9.284977e-001
      vertex -7.031250e-001 -3.880460e-001  9.295624e-001
    endloop
  endfacet
  facet normal -1.000000e+000  -0.000000e+000  0.000000e+000
    outer loop
      vertex -7.031250e-001 -8.912953e-001  8.318984e-001
      vertex -7.031250e-001  9.084205e-002  7.466299e-001
      vertex -7.031250e-001 -1.037498e+000  7.396793e-001
    endloop
  endfacet
  facet normal -1.000000e+000  0.000000e+000  0.000000e+000
    outer loop
      vertex -7.031250e-001 -1.037498e+000  7.396793e-001
      vertex -7.031250e-001  9.084205e-002  7.466299e-001
      vertex -7.031250e-001  2.189640e-001  6.305941e-001
    endloop
  endfacet
  facet normal -1.000000e+000  -0.000000e+000  0.000000e+000
    outer loop
      vertex -7.031250e-001 -1.037498e+000  7.396793e-001
      vertex -7.031250e-001  2.189640e-001  6.305941e-001
      vertex -7.031250e-001 -1.164181e+000  6.220739e-001
    endloop
  endfacet
  facet normal -1.000000e+000  0.000000e+000  0.000000e+000
    outer loop
      vertex -7.031250e-001 -1.164181e+000  6.220739e-001
      vertex -7.031250e-001  2.189640e-001  6.305941e-001
      vertex -7.031250e-001  3.234831e-001  4.929160e-001
    endloop
  endfacet
  facet normal -1.000000e+000  -0.000000e+000  0.000000e+000
    outer loop
      vertex -7.031250e-001 -1.164181e+000  6.220739e-001
      vertex -7.031250e-001  3.234831e-001  4.929160e-001
      vertex -7.031250e-001 -1.266996e+000  4.831185e-001
    endloop
  endfacet
  facet normal -1.000000e+000  0.000000e+000  0.000000e+000
    outer loop
      vertex -7.031250e-001 -1.266996e+000  4.831185e-001
      vertex -7.031250e-001  3.234831e-001  4.929160e-001
      vertex -7.031250e-001  4.008124e-001  3.383206e-001
    endloop
  endfacet
  facet normal -1.000000e+000  -0.000000e+000  0.000000e+000
    outer loop
      vertex -7.031250e-001 -1.266996e+000  4.831185e-001
      vertex -7.031250e-001  4.008124e-001  3.383206e-001
      vertex -7.031250e-001 -1.342414e+000  3.275822e-001
    endloop
  endfacet
  facet normal  0.000000e+000 -9.967663e-001  8.035560e-002
    outer loop
      vertex -7.031250e-001 -1.401738e+000 -1.149497e-002
      vertex  7.500000e-001 -1.401738e+000 -1.149497e-002
      vertex -7.031250e-001 -1.387848e+000  1.608030e-001
    endloop
  endfacet
  facet normal  0.000000e+000 -9.967663e-001  8.035560e-002
    outer loop
      vertex -7.031250e-001 -1.387848e+000  1.608030e-001
      vertex  7.500000e-001 -1.401738e+000 -1.149497e-002
      vertex  7.500000e-001 -1.387848e+000  1.608030e-001
    endloop
  endfacet
  facet normal  0.000000e+000 -9.648390e-001  2.628416e-001
    outer loop
      vertex -7.031250e-001 -1.387848e+000  1.608030e-001
      vertex  7.500000e-001 -1.387848e+000  1.608030e-001
      vertex -7.031250e-001 -1.342414e+000  3.275822e-001
    endloop
  endfacet
  facet normal  0.000000e+000 -9.648390e-001  2.628416e-001
    outer loop
      vertex -7.031250e-001 -1.342414e+000  3.275822e-001
      vertex  7.500000e-001 -1.387848e+000  1.608030e-001
      vertex  7.500000e-001 -1.342414e+000  3.275822e-001
    endloop
  endfacet
  facet normal  0.000000e+000 -8.997976e-001  4.363076e-001
    outer loop
      vertex -7.031250e-001 -1.342414e+000  3.275822e-001
      vertex  7.500000e-001 -1.342414e+000  3.275822e-001
      vertex -7.031250e-001 -1.266996e+000  4.831185e-001
    endloop
  endfacet
  facet normal  0.000000e+000 -8.997976e-001  4.363076e-001
    outer loop
      vertex -7.031250e-001 -1.266996e+000  4.831185e-001
      vertex  7.500000e-001 -1.342414e+000  3.275822e-001
      vertex  7.500000e-001 -1.266996e+000  4.831185e-001
    endloop
  endfacet
  facet normal  0.000000e+000 -8.038750e-001  5.947984e-001
    outer loop
      vertex -7.031250e-001 -1.266996e+000  4.831185e-001
      vertex  7.500000e-001 -1.266996e+000  4.831185e-001
      vertex -7.031250e-001 -1.164181e+000  6.220739e-001
    endloop
  endfacet
  facet normal  0.000000e+000 -8.038750e-001  5.947984e-001
    outer loop
      vertex -7.031250e-001 -1.164181e+000  6.220739e-001
      vertex  7.500000e-001 -1.266996e+000  4.831185e-001
      vertex  7.500000e-001 -1.164181e+000  6.220739e-001
    endloop
  endfacet
  facet normal  0.000000e+000 -6.803622e-001  7.328759e-001
    outer loop
      vertex -7.031250e-001 -1.164181e+000  6.220739e-001
      vertex  7.500000e-001 -1.164181e+000  6.220739e-001
      vertex -7.031250e-001 -1.037498e+000  7.396793e-001
    endloop
  endfacet
  facet normal  0.000000e+000 -6.803622e-001  7.328759e-001
    outer loop
      vertex -7.031250e-001 -1.037498e+000  7.396793e-001
      vertex  7.500000e-001 -1.164181e+000  6.220739e-001
      vertex  7.500000e-001 -1.037498e+000  7.396793e-001
    endloop
  endfacet
  facet normal  0.000000e+000 -5.334997e-001  8.458003e-001
    outer loop
      vertex -7.031250e-001 -1.037498e+000  7.396793e-001
      vertex  7.500000e-001 -1.037498e+000  7.396793e-001
      vertex -7.031250e-001 -8.912953e-001  8.318984e-001
    endloop
  endfacet
  facet normal  0.000000e+000 -5.334997e-001  8.458003e-001
    outer loop
      vertex -7.031250e-001 -8.912953e-001  8.318984e-001
      vertex  7.500000e-001 -1.037498e+000  7.396793e-001
      vertex  7.500000e-001 -8.912953e-001  8.318984e-001
    endloop
  endfacet
  facet normal  0.000000e+000 -3.683267e-001  9.296964e-001
    outer loop
      vertex -7.031250e-001 -8.912953e-001  8.318984e-001
      vertex  7.500000e-001 -8.912953e-001  8.318984e-001
      vertex -7.031250e-001 -7.305908e-001  8.955662e-001
    endloop
  endfacet
  facet normal  0.000000e+000 -3.683267e-001  9.296964e-001
    outer loop
      vertex -7.031250e-001 -7.305908e-001  8.955662e-001
      vertex  7.500000e-001 -8.912953e-001  8.318984e-001
      vertex  7.500000e-001 -7.305908e-001  8.955662e-001
    endloop
  endfacet
  facet normal  0.000000e+000 -1.905126e-001  9.816847e-001
    outer loop
      vertex -7.031250e-001 -7.305908e-001  8.955662e-001
      vertex  7.500000e-001 -7.305908e-001  8.955662e-001
      vertex -7.031250e-001 -5.608997e-001  9.284977e-001
    endloop
  endfacet
  facet normal  0.000000e+000 -1.905126e-001  9.816847e-001
    outer loop
      vertex -7.031250e-001 -5.608997e-001  9.284977e-001
      vertex  7.500000e-001 -7.305908e-001  8.955662e-001
      vertex  7.500000e-001 -5.608997e-001  9.284977e-001
    endloop
  endfacet
  facet normal  0.000000e+000 -6.159874e-003  9.999810e-001
    outer loop
      vertex -7.031250e-001 -5.608997e-001  9.284977e-001
      vertex  7.500000e-001 -5.608997e-001  9.284977e-001
      vertex -7.031250e-001 -3.880460e-001  9.295624e-001
    endloop
  endfacet
  facet normal  0.000000e+000 -6.159874e-003  9.999810e-001
    outer loop
      vertex -7.031250e-001 -3.880460e-001  9.295624e-001
      vertex  7.500000e-001 -5.608997e-001  9.284977e-001
      vertex  7.500000e-001 -3.880460e-001  9.295624e-001
    endloop
  endfacet
  facet normal  0.000000e+000  1.784040e-001  9.839573e-001
    outer loop
      vertex -7.031250e-001 -3.880460e-001  9.295624e-001
      vertex  7.500000e-001 -3.880460e-001  9.295624e-001
      vertex -7.031250e-001 -2.179621e-001  8.987241e-001
    endloop
  endfacet
  facet normal  -0.000000e+000  1.784040e-001  9.839573e-001
    outer loop
      vertex -7.031250e-001 -2.179621e-001  8.987241e-001
      vertex  7.500000e-001 -3.880460e-001  9.295624e-001
      vertex  7.500000e-001 -2.179621e-001  8.987241e-001
    endloop
  endfacet
  facet normal  0.000000e+000  3.568452e-001  9.341636e-001
    outer loop
      vertex -7.031250e-001 -2.179621e-001  8.987241e-001
      vertex  7.500000e-001 -2.179621e-001  8.987241e-001
      vertex -7.031250e-001 -5.648546e-002  8.370409e-001
    endloop
  endfacet
  facet normal  -0.000000e+000  3.568452e-001  9.341636e-001
    outer loop
      vertex -7.031250e-001 -5.648546e-002  8.370409e-001
      vertex  7.500000e-001 -2.179621e-001  8.987241e-001
      vertex  7.500000e-001 -5.648546e-002  8.370409e-001
    endloop
  endfacet
  facet normal  0.000000e+000  5.230393e-001  8.523086e-001
    outer loop
      vertex -7.031250e-001 -5.648546e-002  8.370409e-001
      vertex  7.500000e-001 -5.648546e-002  8.370409e-001
      vertex -7.031250e-001  9.084205e-002  7.466299e-001
    endloop
  endfacet
  facet normal  -0.000000e+000  5.230393e-001  8.523086e-001
    outer loop
      vertex -7.031250e-001  9.084205e-002  7.466299e-001
      vertex  7.500000e-001 -5.648546e-002  8.370409e-001
      vertex  7.500000e-001  9.084205e-002  7.466299e-001
    endloop
  endfacet
  facet normal  0.000000e+000  6.712820e-001  7.412021e-001
    outer loop
      vertex -7.031250e-001  9.084205e-002  7.466299e-001
      vertex  7.500000e-001  9.084205e-002  7.466299e-001
      vertex -7.031250e-001  2.189640e-001  6.305941e-001
    endloop
  endfacet
  facet normal  -0.000000e+000  6.712820e-001  7.412021e-001
    outer loop
      vertex -7.031250e-001  2.189640e-001  6.305941e-001
      vertex  7.500000e-001  9.084205e-002  7.466299e-001
      vertex  7.500000e-001  2.189640e-001  6.305941e-001
    endloop
  endfacet
  facet normal  0.000000e+000  7.964861e-001  6.046568e-001
    outer loop
      vertex -7.031250e-001  2.189640e-001  6.305941e-001
      vertex  7.500000e-001  2.189640e-001  6.305941e-001
      vertex -7.031250e-001  3.234831e-001  4.929160e-001
    endloop
  endfacet
  facet normal  -0.000000e+000  7.964861e-001  6.046568e-001
    outer loop
      vertex -7.031250e-001  3.234831e-001  4.929160e-001
      vertex  7.500000e-001  2.189640e-001  6.305941e-001
      vertex  7.500000e-001  3.234831e-001  4.929160e-001
    endloop
  endfacet
  facet normal  0.000000e+000  8.943542e-001  4.473595e-001
    outer loop
      vertex -7.031250e-001  3.234831e-001  4.929160e-001
      vertex  7.500000e-001  3.234831e-001  4.929160e-001
      vertex -7.031250e-001  4.008124e-001  3.383206e-001
    endloop
  endfacet
  facet normal  -0.000000e+000  8.943542e-001  4.473595e-001
    outer loop
      vertex -7.031250e-001  4.008124e-001  3.383206e-001
      vertex  7.500000e-001  3.234831e-001  4.929160e-001
      vertex  7.500000e-001  4.008124e-001  3.383206e-001
    endloop
  endfacet
  facet normal  0.000000e+000  9.615275e-001  2.747083e-001
    outer loop
      vertex -7.031250e-001  4.008124e-001  3.383206e-001
      vertex  7.500000e-001  4.008124e-001  3.383206e-001
      vertex -7.031250e-001  4.482976e-001  1.721138e-001
    endloop
  endfacet
  facet normal  -0.000000e+000  9.615275e-001  2.747083e-001
    outer loop
      vertex -7.031250e-001  4.482976e-001  1.721138e-001
      vertex  7.500000e-001  4.008124e-001  3.383206e-001
      vertex  7.500000e-001  4.482976e-001  1.721138e-001
    endloop
  endfacet
  facet normal  0.000000e+000  9.957007e-001  9.262916e-002
    outer loop
      vertex -7.031250e-001  4.482976e-001  1.721138e-001
      vertex  7.500000e-001  4.482976e-001  1.721138e-001
      vertex -7.031250e-001  4.643092e-001  0.000000e+000
    endloop
  endfacet
  facet normal  -0.000000e+000  9.957007e-001  9.262916e-002
    outer loop
      vertex -7.031250e-001  4.643092e-001  0.000000e+000
      vertex  7.500000e-001  4.482976e-001  1.721138e-001
      vertex  7.500000e-001  4.643092e-001  0.000000e+000
    endloop
  endfacet
  facet normal  9.999999e-001  0.000000e+000  0.000000e+000
    outer loop
      vertex  7.500000e-001 -1.387848e+000  1.608030e-001
      vertex  7.500000e-001 -1.401738e+000 -1.149497e-002
      vertex  7.500000e-001 -4.687500e-001  0.000000e+000
    endloop
  endfacet
  facet normal  1.000000e+000  0.000000e+000  -0.000000e+000
    outer loop
      vertex  7.500000e-001 -1.387848e+000  1.608030e-001
      vertex  7.500000e-001 -4.687500e-001  0.000000e+000
      vertex  7.500000e-001  4.643092e-001  0.000000e+000
    endloop
  endfacet
  facet normal  1.000000e+000  0.000000e+000  0.000000e+000
    outer loop
      vertex  7.500000e-001 -1.387848e+000  1.608030e-001
      vertex  7.500000e-001  4.643092e-001  0.000000e+000
      vertex  7.500000e-001  4.482976e-001  1.721138e-001
    endloop
  endfacet
  facet normal  1.000000e+000  0.000000e+000  0.000000e+000
    outer loop
      vertex  7.500000e-001 -1.387848e+000  1.608030e-001
      vertex  7.500000e-001  4.482976e-001  1.721138e-001
      vertex  7.500000e-001  4.008124e-001  3.383206e-001
    endloop
  endfacet
  facet normal  1.000000e+000  0.000000e+000  0.000000e+000
    outer loop
      vertex  7.500000e-001 -1.387848e+000  1.608030e-001
      vertex  7.500000e-001  4.008124e-001  3.383206e-001
      vertex  7.500000e-001 -1.342414e+000  3.275822e-001
    endloop
  endfacet
  facet normal  1.000000e+000  -0.000000e+000  0.000000e+000
    outer loop
      vertex  7.500000e-001 -3.880460e-001  9.295624e-001
      vertex  7.500000e-001 -5.608997e-001  9.284977e-001
      vertex  7.500000e-001 -2.179621e-001  8.987241e-001
    endloop
  endfacet
  facet normal  1.000000e+000  0.000000e+000  0.000000e+000
    outer loop
      vertex  7.500000e-001 -2.179621e-001  8.987241e-001
      vertex  7.500000e-001 -5.608997e-001  9.284977e-001
      vertex  7.500000e-001 -7.305908e-001  8.955662e-001
    endloop
  endfacet
  facet normal  1.000000e+000  -0.000000e+000  0.000000e+000
    outer loop
      vertex  7.500000e-001 -2.179621e-001  8.987241e-001
      vertex  7.500000e-001 -7.305908e-001  8.955662e-001
      vertex  7.500000e-001 -5.648546e-002  8.370409e-001
    endloop
  endfacet
  facet normal  1.000000e+000  0.000000e+000  0.000000e+000
    outer loop
      vertex  7.500000e-001 -5.648546e-002  8.370409e-001
      vertex  7.500000e-001 -7.305908e-001  8.955662e-001
      vertex  7.500000e-001 -8.912953e-001  8.318984e-001
    endloop
  endfacet
  facet normal  1.000000e+000  -0.000000e+000  0.000000e+000
    outer loop
      vertex  7.500000e-001 -5.648546e-002  8.370409e-001
      vertex  7.500000e-001 -8.912953e-001  8.318984e-001
      vertex  7.500000e-001  9.084205e-002  7.466299e-001
    endloop
  endfacet
  facet normal  1.000000e+000  0.000000e+000  0.000000e+000
    outer loop
      vertex  7.500000e-001  9.084205e-002  7.466299e-001
      vertex  7.500000e-001 -8.912953e-001  8.318984e-001
      vertex  7.500000e-001 -1.037498e+000  7.396793e-001
    endloop
  endfacet
  facet normal  1.000000e+000  -0.000000e+000  0.000000e+000
    outer loop
      vertex  7.500000e-001  9.084205e-002  7.466299e-001
      vertex  7.500000e-001 -1.037498e+000  7.396793e-001
      vertex  7.500000e-001  2.189640e-001  6.305941e-001
    endloop
  endfacet
  facet normal  1.000000e+000  0.000000e+000  0.000000e+000
    outer loop
      vertex  7.500000e-001  2.189640e-001  6.305941e-001
      vertex  7.500000e-001 -1.037498e+000  7.396793e-001
      vertex  7.500000e-001 -1.164181e+000  6.220739e-001
    endloop
  endfacet
  facet normal  1.000000e+000  -0.000000e+000  0.000000e+000
    outer loop
      vertex  7.500000e-001  2.189640e-001  6.305941e-001
      vertex  7.500000e-001 -1.164181e+000  6.220739e-001
      vertex  7.500000e-001  3.234831e-001  4.929160e-001
    endloop
  endfacet
  facet normal  1.000000e+000  0.000000e+000  0.000000e+000
    outer loop
      vertex  7.500000e-001  3.234831e-001  4.929160e-001
      vertex  7.500000e-001 -1.164181e+000  6.220739e-001
      vertex  7.500000e-001 -1.266996e+000  4.831185e-001
    endloop
  endfacet
  facet normal  1.000000e+000  -0.000000e+000  0.000000e+000
    outer loop
      vertex  7.500000e-001  3.234831e-001  4.929160e-001
      vertex  7.500000e-001 -1.266996e+000  4.831185e-001
      vertex  7.500000e-001  4.008124e-001  3.383206e-001
    endloop
  endfacet
  facet normal  1.000000e+000  0.000000e+000  0.000000e+000
    outer loop
      vertex  7.500000e-001  4.008124e-001  3.383206e-001
      vertex  7.500000e-001 -1.266996e+000  4.831185e-001
      vertex  7.500000e-001 -1.342414e+000  3.275822e-001
    endloop
  endfacet
endsolid CATIA STL
