solid CATIA STL
  facet normal  0.000000e+000  0.000000e+000 -1.000000e+000
    outer loop
      vertex  7.894737e-003  4.583881e-001  0.000000e+000
      vertex  9.732183e-002  4.495804e-001  0.000000e+000
      vertex -8.153236e-002  4.495804e-001  0.000000e+000
    endloop
  endfacet
  facet normal  0.000000e+000  0.000000e+000 -1.000000e+000
    outer loop
      vertex  7.894737e-003 -4.583881e-001  0.000000e+000
      vertex -8.153236e-002 -4.495804e-001  0.000000e+000
      vertex  9.732183e-002 -4.495804e-001  0.000000e+000
    endloop
  endfacet
  facet normal  0.000000e+000  0.000000e+000 -9.999999e-001
    outer loop
      vertex  9.732183e-002 -4.495804e-001  0.000000e+000
      vertex -8.153236e-002 -4.495804e-001  0.000000e+000
      vertex -1.675228e-001 -4.234954e-001  0.000000e+000
    endloop
  endfacet
  facet normal  0.000000e+000  0.000000e+000 -1.000000e+000
    outer loop
      vertex  9.732183e-002 -4.495804e-001  0.000000e+000
      vertex -1.675228e-001 -4.234954e-001  0.000000e+000
      vertex  1.833123e-001 -4.234954e-001  0.000000e+000
    endloop
  endfacet
  facet normal  0.000000e+000  0.000000e+000 -1.000000e+000
    outer loop
      vertex  1.833123e-001 -4.234954e-001  0.000000e+000
      vertex -1.675228e-001 -4.234954e-001  0.000000e+000
      vertex -2.467721e-001 -3.811358e-001  0.000000e+000
    endloop
  endfacet
  facet normal  0.000000e+000  0.000000e+000 -9.999999e-001
    outer loop
      vertex  1.833123e-001 -4.234954e-001  0.000000e+000
      vertex -2.467721e-001 -3.811358e-001  0.000000e+000
      vertex  2.625616e-001 -3.811358e-001  0.000000e+000
    endloop
  endfacet
  facet normal  0.000000e+000  0.000000e+000 -9.999999e-001
    outer loop
      vertex  2.625616e-001 -3.811358e-001  0.000000e+000
      vertex -2.467721e-001 -3.811358e-001  0.000000e+000
      vertex -3.162346e-001 -3.241294e-001  0.000000e+000
    endloop
  endfacet
  facet normal  0.000000e+000  0.000000e+000 -1.000000e+000
    outer loop
      vertex  2.625616e-001 -3.811358e-001  0.000000e+000
      vertex -3.162346e-001 -3.241294e-001  0.000000e+000
      vertex  3.320241e-001 -3.241294e-001  0.000000e+000
    endloop
  endfacet
  facet normal  0.000000e+000  0.000000e+000 -1.000000e+000
    outer loop
      vertex  3.320241e-001 -3.241294e-001  0.000000e+000
      vertex -3.162346e-001 -3.241294e-001  0.000000e+000
      vertex -3.732411e-001 -2.546668e-001  0.000000e+000
    endloop
  endfacet
  facet normal  0.000000e+000  0.000000e+000 -1.000000e+000
    outer loop
      vertex  3.320241e-001 -3.241294e-001  0.000000e+000
      vertex -3.732411e-001 -2.546668e-001  0.000000e+000
      vertex  3.890305e-001 -2.546668e-001  0.000000e+000
    endloop
  endfacet
  facet normal  0.000000e+000  0.000000e+000 -1.000000e+000
    outer loop
      vertex  3.890305e-001 -2.546668e-001  0.000000e+000
      vertex -3.732411e-001 -2.546668e-001  0.000000e+000
      vertex -4.156007e-001 -1.754176e-001  0.000000e+000
    endloop
  endfacet
  facet normal  0.000000e+000  0.000000e+000 -1.000000e+000
    outer loop
      vertex  3.890305e-001 -2.546668e-001  0.000000e+000
      vertex -4.156007e-001 -1.754176e-001  0.000000e+000
      vertex  4.313902e-001 -1.754176e-001  0.000000e+000
    endloop
  endfacet
  facet normal  0.000000e+000  0.000000e+000 -1.000000e+000
    outer loop
      vertex  4.313902e-001 -1.754176e-001  0.000000e+000
      vertex -4.156007e-001 -1.754176e-001  0.000000e+000
      vertex -4.416856e-001 -8.942709e-002  0.000000e+000
    endloop
  endfacet
  facet normal  0.000000e+000  0.000000e+000 -1.000000e+000
    outer loop
      vertex  4.313902e-001 -1.754176e-001  0.000000e+000
      vertex -4.416856e-001 -8.942709e-002  0.000000e+000
      vertex  4.574751e-001 -8.942709e-002  0.000000e+000
    endloop
  endfacet
  facet normal  0.000000e+000  0.000000e+000 -1.000000e+000
    outer loop
      vertex  4.574751e-001 -8.942709e-002  0.000000e+000
      vertex -4.416856e-001 -8.942709e-002  0.000000e+000
      vertex -4.504934e-001 -1.772561e-016  0.000000e+000
    endloop
  endfacet
  facet normal  0.000000e+000  0.000000e+000 -1.000000e+000
    outer loop
      vertex  4.574751e-001 -8.942709e-002  0.000000e+000
      vertex -4.504934e-001 -1.772561e-016  0.000000e+000
      vertex  4.662829e-001 -1.420944e-016  0.000000e+000
    endloop
  endfacet
  facet normal  -0.000000e+000  0.000000e+000 -1.000000e+000
    outer loop
      vertex  4.662829e-001 -1.420944e-016  0.000000e+000
      vertex -4.504934e-001 -1.772561e-016  0.000000e+000
      vertex -4.416856e-001  8.942709e-002  0.000000e+000
    endloop
  endfacet
  facet normal  0.000000e+000  0.000000e+000 -1.000000e+000
    outer loop
      vertex  4.662829e-001 -1.420944e-016  0.000000e+000
      vertex -4.416856e-001  8.942709e-002  0.000000e+000
      vertex  4.574751e-001  8.942709e-002  0.000000e+000
    endloop
  endfacet
  facet normal  0.000000e+000  0.000000e+000 -1.000000e+000
    outer loop
      vertex  4.574751e-001  8.942709e-002  0.000000e+000
      vertex -4.416856e-001  8.942709e-002  0.000000e+000
      vertex -4.156007e-001  1.754176e-001  0.000000e+000
    endloop
  endfacet
  facet normal  0.000000e+000  0.000000e+000 -1.000000e+000
    outer loop
      vertex  4.574751e-001  8.942709e-002  0.000000e+000
      vertex -4.156007e-001  1.754176e-001  0.000000e+000
      vertex  4.313902e-001  1.754176e-001  0.000000e+000
    endloop
  endfacet
  facet normal  0.000000e+000  0.000000e+000 -1.000000e+000
    outer loop
      vertex  4.313902e-001  1.754176e-001  0.000000e+000
      vertex -4.156007e-001  1.754176e-001  0.000000e+000
      vertex -3.732411e-001  2.546668e-001  0.000000e+000
    endloop
  endfacet
  facet normal  0.000000e+000  0.000000e+000 -1.000000e+000
    outer loop
      vertex  4.313902e-001  1.754176e-001  0.000000e+000
      vertex -3.732411e-001  2.546668e-001  0.000000e+000
      vertex  3.890305e-001  2.546668e-001  0.000000e+000
    endloop
  endfacet
  facet normal  0.000000e+000  0.000000e+000 -1.000000e+000
    outer loop
      vertex  3.890305e-001  2.546668e-001  0.000000e+000
      vertex -3.732411e-001  2.546668e-001  0.000000e+000
      vertex -3.162346e-001  3.241294e-001  0.000000e+000
    endloop
  endfacet
  facet normal  0.000000e+000  0.000000e+000 -1.000000e+000
    outer loop
      vertex  3.890305e-001  2.546668e-001  0.000000e+000
      vertex -3.162346e-001  3.241294e-001  0.000000e+000
      vertex  3.320241e-001  3.241294e-001  0.000000e+000
    endloop
  endfacet
  facet normal  0.000000e+000  0.000000e+000 -1.000000e+000
    outer loop
      vertex  3.320241e-001  3.241294e-001  0.000000e+000
      vertex -3.162346e-001  3.241294e-001  0.000000e+000
      vertex -2.467721e-001  3.811358e-001  0.000000e+000
    endloop
  endfacet
  facet normal  0.000000e+000  0.000000e+000 -9.999999e-001
    outer loop
      vertex  3.320241e-001  3.241294e-001  0.000000e+000
      vertex -2.467721e-001  3.811358e-001  0.000000e+000
      vertex  2.625616e-001  3.811358e-001  0.000000e+000
    endloop
  endfacet
  facet normal  0.000000e+000  0.000000e+000 -9.999999e-001
    outer loop
      vertex  2.625616e-001  3.811358e-001  0.000000e+000
      vertex -2.467721e-001  3.811358e-001  0.000000e+000
      vertex -1.675228e-001  4.234954e-001  0.000000e+000
    endloop
  endfacet
  facet normal  0.000000e+000  0.000000e+000 -1.000000e+000
    outer loop
      vertex  2.625616e-001  3.811358e-001  0.000000e+000
      vertex -1.675228e-001  4.234954e-001  0.000000e+000
      vertex  1.833123e-001  4.234954e-001  0.000000e+000
    endloop
  endfacet
  facet normal  0.000000e+000  0.000000e+000 -1.000000e+000
    outer loop
      vertex  1.833123e-001  4.234954e-001  0.000000e+000
      vertex -1.675228e-001  4.234954e-001  0.000000e+000
      vertex -8.153236e-002  4.495804e-001  0.000000e+000
    endloop
  endfacet
  facet normal  0.000000e+000  0.000000e+000 -9.999999e-001
    outer loop
      vertex  1.833123e-001  4.234954e-001  0.000000e+000
      vertex -8.153236e-002  4.495804e-001  0.000000e+000
      vertex  9.732183e-002  4.495804e-001  0.000000e+000
    endloop
  endfacet
  facet normal  9.951847e-001 -9.801748e-002  1.596198e-016
    outer loop
      vertex  5.131579e-001 -5.725135e-016  4.687500e-002
      vertex  5.131579e-001  0.000000e+000  3.984375e-001
      vertex  5.034494e-001 -9.857195e-002  4.687500e-002
    endloop
  endfacet
  facet normal  9.951847e-001 -9.801748e-002  0.000000e+000
    outer loop
      vertex  5.034494e-001 -9.857195e-002  4.687500e-002
      vertex  5.131579e-001  0.000000e+000  3.984375e-001
      vertex  5.034494e-001 -9.857195e-002  3.984375e-001
    endloop
  endfacet
  facet normal  9.569405e-001 -2.902845e-001  0.000000e+000
    outer loop
      vertex  5.034494e-001 -9.857195e-002  4.687500e-002
      vertex  5.034494e-001 -9.857195e-002  3.984375e-001
      vertex  4.746970e-001 -1.933558e-001  4.687500e-002
    endloop
  endfacet
  facet normal  9.569405e-001 -2.902845e-001  0.000000e+000
    outer loop
      vertex  4.746970e-001 -1.933558e-001  4.687500e-002
      vertex  5.034494e-001 -9.857195e-002  3.984375e-001
      vertex  4.746970e-001 -1.933558e-001  3.984375e-001
    endloop
  endfacet
  facet normal  8.819213e-001 -4.713967e-001  0.000000e+000
    outer loop
      vertex  4.746970e-001 -1.933558e-001  4.687500e-002
      vertex  4.746970e-001 -1.933558e-001  3.984375e-001
      vertex  4.280057e-001 -2.807092e-001  4.687500e-002
    endloop
  endfacet
  facet normal  8.819213e-001 -4.713967e-001  0.000000e+000
    outer loop
      vertex  4.280057e-001 -2.807092e-001  4.687500e-002
      vertex  4.746970e-001 -1.933558e-001  3.984375e-001
      vertex  4.280057e-001 -2.807092e-001  3.984375e-001
    endloop
  endfacet
  facet normal  7.730104e-001 -6.343933e-001  0.000000e+000
    outer loop
      vertex  4.280057e-001 -2.807092e-001  4.687500e-002
      vertex  4.280057e-001 -2.807092e-001  3.984375e-001
      vertex  3.651697e-001 -3.572750e-001  4.687500e-002
    endloop
  endfacet
  facet normal  7.730104e-001 -6.343933e-001  0.000000e+000
    outer loop
      vertex  3.651697e-001 -3.572750e-001  4.687500e-002
      vertex  4.280057e-001 -2.807092e-001  3.984375e-001
      vertex  3.651697e-001 -3.572750e-001  3.984375e-001
    endloop
  endfacet
  facet normal  6.343933e-001 -7.730104e-001  0.000000e+000
    outer loop
      vertex  3.651697e-001 -3.572750e-001  4.687500e-002
      vertex  3.651697e-001 -3.572750e-001  3.984375e-001
      vertex  2.886039e-001 -4.201110e-001  4.687500e-002
    endloop
  endfacet
  facet normal  6.343933e-001 -7.730104e-001  0.000000e+000
    outer loop
      vertex  2.886039e-001 -4.201110e-001  4.687500e-002
      vertex  3.651697e-001 -3.572750e-001  3.984375e-001
      vertex  2.886039e-001 -4.201110e-001  3.984375e-001
    endloop
  endfacet
  facet normal  4.713968e-001 -8.819212e-001  0.000000e+000
    outer loop
      vertex  2.886039e-001 -4.201110e-001  4.687500e-002
      vertex  2.886039e-001 -4.201110e-001  3.984375e-001
      vertex  2.012506e-001 -4.668023e-001  4.687500e-002
    endloop
  endfacet
  facet normal  4.713968e-001 -8.819212e-001  0.000000e+000
    outer loop
      vertex  2.012506e-001 -4.668023e-001  4.687500e-002
      vertex  2.886039e-001 -4.201110e-001  3.984375e-001
      vertex  2.012506e-001 -4.668023e-001  3.984375e-001
    endloop
  endfacet
  facet normal  2.902845e-001 -9.569405e-001  0.000000e+000
    outer loop
      vertex  2.012506e-001 -4.668023e-001  4.687500e-002
      vertex  2.012506e-001 -4.668023e-001  3.984375e-001
      vertex  1.064667e-001 -4.955547e-001  4.687500e-002
    endloop
  endfacet
  facet normal  2.902845e-001 -9.569405e-001  0.000000e+000
    outer loop
      vertex  1.064667e-001 -4.955547e-001  4.687500e-002
      vertex  2.012506e-001 -4.668023e-001  3.984375e-001
      vertex  1.064667e-001 -4.955547e-001  3.984375e-001
    endloop
  endfacet
  facet normal  9.801719e-002 -9.951848e-001  0.000000e+000
    outer loop
      vertex  1.064667e-001 -4.955547e-001  4.687500e-002
      vertex  1.064667e-001 -4.955547e-001  3.984375e-001
      vertex  7.894737e-003 -5.052631e-001  4.687500e-002
    endloop
  endfacet
  facet normal  9.801719e-002 -9.951848e-001  0.000000e+000
    outer loop
      vertex  7.894737e-003 -5.052631e-001  4.687500e-002
      vertex  1.064667e-001 -4.955547e-001  3.984375e-001
      vertex  7.894737e-003 -5.052631e-001  3.984375e-001
    endloop
  endfacet
  facet normal -9.801718e-002 -9.951848e-001  -0.000000e+000
    outer loop
      vertex  7.894737e-003 -5.052631e-001  4.687500e-002
      vertex  7.894737e-003 -5.052631e-001  3.984375e-001
      vertex -9.067722e-002 -4.955547e-001  4.687500e-002
    endloop
  endfacet
  facet normal -9.801718e-002 -9.951848e-001  0.000000e+000
    outer loop
      vertex -9.067722e-002 -4.955547e-001  4.687500e-002
      vertex  7.894737e-003 -5.052631e-001  3.984375e-001
      vertex -9.067722e-002 -4.955547e-001  3.984375e-001
    endloop
  endfacet
  facet normal -2.902845e-001 -9.569405e-001  -0.000000e+000
    outer loop
      vertex -9.067722e-002 -4.955547e-001  4.687500e-002
      vertex -9.067722e-002 -4.955547e-001  3.984375e-001
      vertex -1.854611e-001 -4.668023e-001  4.687500e-002
    endloop
  endfacet
  facet normal -2.902845e-001 -9.569405e-001  0.000000e+000
    outer loop
      vertex -1.854611e-001 -4.668023e-001  4.687500e-002
      vertex -9.067722e-002 -4.955547e-001  3.984375e-001
      vertex -1.854611e-001 -4.668023e-001  3.984375e-001
    endloop
  endfacet
  facet normal -4.713968e-001 -8.819212e-001  -0.000000e+000
    outer loop
      vertex -1.854611e-001 -4.668023e-001  4.687500e-002
      vertex -1.854611e-001 -4.668023e-001  3.984375e-001
      vertex -2.728144e-001 -4.201110e-001  4.687500e-002
    endloop
  endfacet
  facet normal -4.713968e-001 -8.819212e-001  0.000000e+000
    outer loop
      vertex -2.728144e-001 -4.201110e-001  4.687500e-002
      vertex -1.854611e-001 -4.668023e-001  3.984375e-001
      vertex -2.728144e-001 -4.201110e-001  3.984375e-001
    endloop
  endfacet
  facet normal -6.343933e-001 -7.730104e-001  -0.000000e+000
    outer loop
      vertex -2.728144e-001 -4.201110e-001  4.687500e-002
      vertex -2.728144e-001 -4.201110e-001  3.984375e-001
      vertex -3.493803e-001 -3.572750e-001  4.687500e-002
    endloop
  endfacet
  facet normal -6.343933e-001 -7.730104e-001  0.000000e+000
    outer loop
      vertex -3.493803e-001 -3.572750e-001  4.687500e-002
      vertex -2.728144e-001 -4.201110e-001  3.984375e-001
      vertex -3.493803e-001 -3.572750e-001  3.984375e-001
    endloop
  endfacet
  facet normal -7.730104e-001 -6.343933e-001  -0.000000e+000
    outer loop
      vertex -3.493803e-001 -3.572750e-001  4.687500e-002
      vertex -3.493803e-001 -3.572750e-001  3.984375e-001
      vertex -4.122162e-001 -2.807092e-001  4.687500e-002
    endloop
  endfacet
  facet normal -7.730104e-001 -6.343933e-001  0.000000e+000
    outer loop
      vertex -4.122162e-001 -2.807092e-001  4.687500e-002
      vertex -3.493803e-001 -3.572750e-001  3.984375e-001
      vertex -4.122162e-001 -2.807092e-001  3.984375e-001
    endloop
  endfacet
  facet normal -8.819213e-001 -4.713967e-001  -0.000000e+000
    outer loop
      vertex -4.122162e-001 -2.807092e-001  4.687500e-002
      vertex -4.122162e-001 -2.807092e-001  3.984375e-001
      vertex -4.589075e-001 -1.933558e-001  4.687500e-002
    endloop
  endfacet
  facet normal -8.819213e-001 -4.713967e-001  0.000000e+000
    outer loop
      vertex -4.589075e-001 -1.933558e-001  4.687500e-002
      vertex -4.122162e-001 -2.807092e-001  3.984375e-001
      vertex -4.589075e-001 -1.933558e-001  3.984375e-001
    endloop
  endfacet
  facet normal -9.569403e-001 -2.902847e-001  -0.000000e+000
    outer loop
      vertex -4.589075e-001 -1.933558e-001  4.687500e-002
      vertex -4.589075e-001 -1.933558e-001  3.984375e-001
      vertex -4.876599e-001 -9.857195e-002  4.687500e-002
    endloop
  endfacet
  facet normal -9.569403e-001 -2.902847e-001  0.000000e+000
    outer loop
      vertex -4.876599e-001 -9.857195e-002  4.687500e-002
      vertex -4.589075e-001 -1.933558e-001  3.984375e-001
      vertex -4.876599e-001 -9.857195e-002  3.984375e-001
    endloop
  endfacet
  facet normal -9.951848e-001 -9.801719e-002  -0.000000e+000
    outer loop
      vertex -4.876599e-001 -9.857195e-002  4.687500e-002
      vertex -4.876599e-001 -9.857195e-002  3.984375e-001
      vertex -4.973684e-001  6.187485e-017  4.687500e-002
    endloop
  endfacet
  facet normal -9.951848e-001 -9.801719e-002  0.000000e+000
    outer loop
      vertex -4.973684e-001  6.187485e-017  4.687500e-002
      vertex -4.876599e-001 -9.857195e-002  3.984375e-001
      vertex -4.973684e-001  6.187485e-017  3.984375e-001
    endloop
  endfacet
  facet normal -9.951848e-001  9.801719e-002  0.000000e+000
    outer loop
      vertex -4.973684e-001  6.187485e-017  4.687500e-002
      vertex -4.973684e-001  6.187485e-017  3.984375e-001
      vertex -4.876599e-001  9.857195e-002  4.687500e-002
    endloop
  endfacet
  facet normal -9.951848e-001  9.801719e-002  0.000000e+000
    outer loop
      vertex -4.876599e-001  9.857195e-002  4.687500e-002
      vertex -4.973684e-001  6.187485e-017  3.984375e-001
      vertex -4.876599e-001  9.857195e-002  3.984375e-001
    endloop
  endfacet
  facet normal -9.569403e-001  2.902847e-001  0.000000e+000
    outer loop
      vertex -4.876599e-001  9.857195e-002  4.687500e-002
      vertex -4.876599e-001  9.857195e-002  3.984375e-001
      vertex -4.589075e-001  1.933558e-001  4.687500e-002
    endloop
  endfacet
  facet normal -9.569403e-001  2.902847e-001  0.000000e+000
    outer loop
      vertex -4.589075e-001  1.933558e-001  4.687500e-002
      vertex -4.876599e-001  9.857195e-002  3.984375e-001
      vertex -4.589075e-001  1.933558e-001  3.984375e-001
    endloop
  endfacet
  facet normal -8.819213e-001  4.713967e-001  0.000000e+000
    outer loop
      vertex -4.589075e-001  1.933558e-001  4.687500e-002
      vertex -4.589075e-001  1.933558e-001  3.984375e-001
      vertex -4.122162e-001  2.807092e-001  4.687500e-002
    endloop
  endfacet
  facet normal -8.819213e-001  4.713967e-001  0.000000e+000
    outer loop
      vertex -4.122162e-001  2.807092e-001  4.687500e-002
      vertex -4.589075e-001  1.933558e-001  3.984375e-001
      vertex -4.122162e-001  2.807092e-001  3.984375e-001
    endloop
  endfacet
  facet normal -7.730104e-001  6.343933e-001  0.000000e+000
    outer loop
      vertex -4.122162e-001  2.807092e-001  4.687500e-002
      vertex -4.122162e-001  2.807092e-001  3.984375e-001
      vertex -3.493803e-001  3.572750e-001  4.687500e-002
    endloop
  endfacet
  facet normal -7.730104e-001  6.343933e-001  0.000000e+000
    outer loop
      vertex -3.493803e-001  3.572750e-001  4.687500e-002
      vertex -4.122162e-001  2.807092e-001  3.984375e-001
      vertex -3.493803e-001  3.572750e-001  3.984375e-001
    endloop
  endfacet
  facet normal -6.343933e-001  7.730104e-001  0.000000e+000
    outer loop
      vertex -3.493803e-001  3.572750e-001  4.687500e-002
      vertex -3.493803e-001  3.572750e-001  3.984375e-001
      vertex -2.728144e-001  4.201110e-001  4.687500e-002
    endloop
  endfacet
  facet normal -6.343933e-001  7.730104e-001  0.000000e+000
    outer loop
      vertex -2.728144e-001  4.201110e-001  4.687500e-002
      vertex -3.493803e-001  3.572750e-001  3.984375e-001
      vertex -2.728144e-001  4.201110e-001  3.984375e-001
    endloop
  endfacet
  facet normal -4.713968e-001  8.819212e-001  0.000000e+000
    outer loop
      vertex -2.728144e-001  4.201110e-001  4.687500e-002
      vertex -2.728144e-001  4.201110e-001  3.984375e-001
      vertex -1.854611e-001  4.668023e-001  4.687500e-002
    endloop
  endfacet
  facet normal -4.713968e-001  8.819212e-001  0.000000e+000
    outer loop
      vertex -1.854611e-001  4.668023e-001  4.687500e-002
      vertex -2.728144e-001  4.201110e-001  3.984375e-001
      vertex -1.854611e-001  4.668023e-001  3.984375e-001
    endloop
  endfacet
  facet normal -2.902845e-001  9.569405e-001  0.000000e+000
    outer loop
      vertex -1.854611e-001  4.668023e-001  4.687500e-002
      vertex -1.854611e-001  4.668023e-001  3.984375e-001
      vertex -9.067722e-002  4.955547e-001  4.687500e-002
    endloop
  endfacet
  facet normal -2.902845e-001  9.569405e-001  0.000000e+000
    outer loop
      vertex -9.067722e-002  4.955547e-001  4.687500e-002
      vertex -1.854611e-001  4.668023e-001  3.984375e-001
      vertex -9.067722e-002  4.955547e-001  3.984375e-001
    endloop
  endfacet
  facet normal -9.801718e-002  9.951848e-001  0.000000e+000
    outer loop
      vertex -9.067722e-002  4.955547e-001  4.687500e-002
      vertex -9.067722e-002  4.955547e-001  3.984375e-001
      vertex  7.894737e-003  5.052631e-001  4.687500e-002
    endloop
  endfacet
  facet normal -9.801718e-002  9.951848e-001  0.000000e+000
    outer loop
      vertex  7.894737e-003  5.052631e-001  4.687500e-002
      vertex -9.067722e-002  4.955547e-001  3.984375e-001
      vertex  7.894737e-003  5.052631e-001  3.984375e-001
    endloop
  endfacet
  facet normal  9.801719e-002  9.951848e-001  0.000000e+000
    outer loop
      vertex  7.894737e-003  5.052631e-001  4.687500e-002
      vertex  7.894737e-003  5.052631e-001  3.984375e-001
      vertex  1.064667e-001  4.955547e-001  4.687500e-002
    endloop
  endfacet
  facet normal  9.801719e-002  9.951848e-001  -0.000000e+000
    outer loop
      vertex  1.064667e-001  4.955547e-001  4.687500e-002
      vertex  7.894737e-003  5.052631e-001  3.984375e-001
      vertex  1.064667e-001  4.955547e-001  3.984375e-001
    endloop
  endfacet
  facet normal  2.902845e-001  9.569405e-001  0.000000e+000
    outer loop
      vertex  1.064667e-001  4.955547e-001  4.687500e-002
      vertex  1.064667e-001  4.955547e-001  3.984375e-001
      vertex  2.012506e-001  4.668023e-001  4.687500e-002
    endloop
  endfacet
  facet normal  2.902845e-001  9.569405e-001  -0.000000e+000
    outer loop
      vertex  2.012506e-001  4.668023e-001  4.687500e-002
      vertex  1.064667e-001  4.955547e-001  3.984375e-001
      vertex  2.012506e-001  4.668023e-001  3.984375e-001
    endloop
  endfacet
  facet normal  4.713968e-001  8.819212e-001  0.000000e+000
    outer loop
      vertex  2.012506e-001  4.668023e-001  4.687500e-002
      vertex  2.012506e-001  4.668023e-001  3.984375e-001
      vertex  2.886039e-001  4.201110e-001  4.687500e-002
    endloop
  endfacet
  facet normal  4.713968e-001  8.819212e-001  -0.000000e+000
    outer loop
      vertex  2.886039e-001  4.201110e-001  4.687500e-002
      vertex  2.012506e-001  4.668023e-001  3.984375e-001
      vertex  2.886039e-001  4.201110e-001  3.984375e-001
    endloop
  endfacet
  facet normal  6.343933e-001  7.730104e-001  0.000000e+000
    outer loop
      vertex  2.886039e-001  4.201110e-001  4.687500e-002
      vertex  2.886039e-001  4.201110e-001  3.984375e-001
      vertex  3.651697e-001  3.572750e-001  4.687500e-002
    endloop
  endfacet
  facet normal  6.343933e-001  7.730104e-001  -0.000000e+000
    outer loop
      vertex  3.651697e-001  3.572750e-001  4.687500e-002
      vertex  2.886039e-001  4.201110e-001  3.984375e-001
      vertex  3.651697e-001  3.572750e-001  3.984375e-001
    endloop
  endfacet
  facet normal  7.730104e-001  6.343933e-001  0.000000e+000
    outer loop
      vertex  3.651697e-001  3.572750e-001  4.687500e-002
      vertex  3.651697e-001  3.572750e-001  3.984375e-001
      vertex  4.280057e-001  2.807092e-001  4.687500e-002
    endloop
  endfacet
  facet normal  7.730104e-001  6.343933e-001  -0.000000e+000
    outer loop
      vertex  4.280057e-001  2.807092e-001  4.687500e-002
      vertex  3.651697e-001  3.572750e-001  3.984375e-001
      vertex  4.280057e-001  2.807092e-001  3.984375e-001
    endloop
  endfacet
  facet normal  8.819213e-001  4.713967e-001  0.000000e+000
    outer loop
      vertex  4.280057e-001  2.807092e-001  4.687500e-002
      vertex  4.280057e-001  2.807092e-001  3.984375e-001
      vertex  4.746970e-001  1.933558e-001  4.687500e-002
    endloop
  endfacet
  facet normal  8.819213e-001  4.713967e-001  -0.000000e+000
    outer loop
      vertex  4.746970e-001  1.933558e-001  4.687500e-002
      vertex  4.280057e-001  2.807092e-001  3.984375e-001
      vertex  4.746970e-001  1.933558e-001  3.984375e-001
    endloop
  endfacet
  facet normal  9.569405e-001  2.902845e-001  0.000000e+000
    outer loop
      vertex  4.746970e-001  1.933558e-001  4.687500e-002
      vertex  4.746970e-001  1.933558e-001  3.984375e-001
      vertex  5.034494e-001  9.857195e-002  4.687500e-002
    endloop
  endfacet
  facet normal  9.569405e-001  2.902845e-001  -0.000000e+000
    outer loop
      vertex  5.034494e-001  9.857195e-002  4.687500e-002
      vertex  4.746970e-001  1.933558e-001  3.984375e-001
      vertex  5.034494e-001  9.857195e-002  3.984375e-001
    endloop
  endfacet
  facet normal  9.951847e-001  9.801748e-002  0.000000e+000
    outer loop
      vertex  5.034494e-001  9.857195e-002  4.687500e-002
      vertex  5.034494e-001  9.857195e-002  3.984375e-001
      vertex  5.131579e-001 -5.725135e-016  4.687500e-002
    endloop
  endfacet
  facet normal  9.951847e-001  9.801748e-002 -1.596198e-016
    outer loop
      vertex  5.131579e-001 -5.725135e-016  4.687500e-002
      vertex  5.034494e-001  9.857195e-002  3.984375e-001
      vertex  5.131579e-001  0.000000e+000  3.984375e-001
    endloop
  endfacet
  facet normal -6.947548e-002 -7.053981e-001 -7.053981e-001
    outer loop
      vertex  7.894737e-003 -5.052631e-001  4.687500e-002
      vertex -8.153236e-002 -4.495804e-001  0.000000e+000
      vertex  7.894737e-003 -4.583881e-001  0.000000e+000
    endloop
  endfacet
  facet normal  6.947569e-002 -7.053982e-001 -7.053982e-001
    outer loop
      vertex  7.894737e-003 -4.583881e-001  0.000000e+000
      vertex  1.064667e-001 -4.955547e-001  4.687500e-002
      vertex  7.894737e-003 -5.052631e-001  4.687500e-002
    endloop
  endfacet
  facet normal -4.496651e-001 -5.479186e-001 -7.053981e-001
    outer loop
      vertex -2.467721e-001 -3.811358e-001  0.000000e+000
      vertex -2.728144e-001 -4.201110e-001  4.687500e-002
      vertex -3.162346e-001 -3.241294e-001  0.000000e+000
    endloop
  endfacet
  facet normal -4.496652e-001 -5.479186e-001 -7.053980e-001
    outer loop
      vertex -3.162346e-001 -3.241294e-001  0.000000e+000
      vertex -2.728144e-001 -4.201110e-001  4.687500e-002
      vertex -3.493803e-001 -3.572750e-001  4.687500e-002
    endloop
  endfacet
  facet normal -5.479186e-001 -4.496651e-001 -7.053980e-001
    outer loop
      vertex -3.162346e-001 -3.241294e-001  0.000000e+000
      vertex -3.493803e-001 -3.572750e-001  4.687500e-002
      vertex -3.732411e-001 -2.546668e-001  0.000000e+000
    endloop
  endfacet
  facet normal -5.479186e-001 -4.496652e-001 -7.053982e-001
    outer loop
      vertex -3.732411e-001 -2.546668e-001  0.000000e+000
      vertex -3.493803e-001 -3.572750e-001  4.687500e-002
      vertex -4.122162e-001 -2.807092e-001  4.687500e-002
    endloop
  endfacet
  facet normal -6.251158e-001 -3.341313e-001 -7.053981e-001
    outer loop
      vertex -3.732411e-001 -2.546668e-001  0.000000e+000
      vertex -4.122162e-001 -2.807092e-001  4.687500e-002
      vertex -4.156007e-001 -1.754176e-001  0.000000e+000
    endloop
  endfacet
  facet normal -6.251156e-001 -3.341313e-001 -7.053982e-001
    outer loop
      vertex -4.156007e-001 -1.754176e-001  0.000000e+000
      vertex -4.122162e-001 -2.807092e-001  4.687500e-002
      vertex -4.589075e-001 -1.933558e-001  4.687500e-002
    endloop
  endfacet
  facet normal -6.782900e-001 -2.057571e-001 -7.053982e-001
    outer loop
      vertex -4.156007e-001 -1.754176e-001  0.000000e+000
      vertex -4.589075e-001 -1.933558e-001  4.687500e-002
      vertex -4.416856e-001 -8.942709e-002  0.000000e+000
    endloop
  endfacet
  facet normal -6.782901e-001 -2.057571e-001 -7.053982e-001
    outer loop
      vertex -4.416856e-001 -8.942709e-002  0.000000e+000
      vertex -4.589075e-001 -1.933558e-001  4.687500e-002
      vertex -4.876599e-001 -9.857195e-002  4.687500e-002
    endloop
  endfacet
  facet normal -7.053981e-001 -6.947571e-002 -7.053981e-001
    outer loop
      vertex -4.416856e-001 -8.942709e-002  0.000000e+000
      vertex -4.876599e-001 -9.857195e-002  4.687500e-002
      vertex -4.504934e-001 -1.772561e-016  0.000000e+000
    endloop
  endfacet
  facet normal -7.053982e-001 -6.947569e-002 -7.053982e-001
    outer loop
      vertex -4.504934e-001 -1.772561e-016  0.000000e+000
      vertex -4.876599e-001 -9.857195e-002  4.687500e-002
      vertex -4.973684e-001  6.187485e-017  4.687500e-002
    endloop
  endfacet
  facet normal  4.496652e-001 -5.479185e-001 -7.053982e-001
    outer loop
      vertex  2.886039e-001 -4.201110e-001  4.687500e-002
      vertex  2.625616e-001 -3.811358e-001  0.000000e+000
      vertex  3.651697e-001 -3.572750e-001  4.687500e-002
    endloop
  endfacet
  facet normal  4.496651e-001 -5.479184e-001 -7.053982e-001
    outer loop
      vertex  3.651697e-001 -3.572750e-001  4.687500e-002
      vertex  2.625616e-001 -3.811358e-001  0.000000e+000
      vertex  3.320241e-001 -3.241294e-001  0.000000e+000
    endloop
  endfacet
  facet normal  5.479184e-001 -4.496651e-001 -7.053983e-001
    outer loop
      vertex  3.651697e-001 -3.572750e-001  4.687500e-002
      vertex  3.320241e-001 -3.241294e-001  0.000000e+000
      vertex  4.280057e-001 -2.807092e-001  4.687500e-002
    endloop
  endfacet
  facet normal  5.479185e-001 -4.496650e-001 -7.053983e-001
    outer loop
      vertex  4.280057e-001 -2.807092e-001  4.687500e-002
      vertex  3.320241e-001 -3.241294e-001  0.000000e+000
      vertex  3.890305e-001 -2.546668e-001  0.000000e+000
    endloop
  endfacet
  facet normal  6.251156e-001 -3.341313e-001 -7.053983e-001
    outer loop
      vertex  4.280057e-001 -2.807092e-001  4.687500e-002
      vertex  3.890305e-001 -2.546668e-001  0.000000e+000
      vertex  4.746970e-001 -1.933558e-001  4.687500e-002
    endloop
  endfacet
  facet normal  6.251157e-001 -3.341314e-001 -7.053982e-001
    outer loop
      vertex  4.746970e-001 -1.933558e-001  4.687500e-002
      vertex  3.890305e-001 -2.546668e-001  0.000000e+000
      vertex  4.313902e-001 -1.754176e-001  0.000000e+000
    endloop
  endfacet
  facet normal  6.782901e-001 -2.057569e-001 -7.053982e-001
    outer loop
      vertex  4.746970e-001 -1.933558e-001  4.687500e-002
      vertex  4.313902e-001 -1.754176e-001  0.000000e+000
      vertex  5.034494e-001 -9.857195e-002  4.687500e-002
    endloop
  endfacet
  facet normal  6.782902e-001 -2.057572e-001 -7.053980e-001
    outer loop
      vertex  5.034494e-001 -9.857195e-002  4.687500e-002
      vertex  4.313902e-001 -1.754176e-001  0.000000e+000
      vertex  4.574751e-001 -8.942709e-002  0.000000e+000
    endloop
  endfacet
  facet normal  7.053983e-001 -6.947592e-002 -7.053980e-001
    outer loop
      vertex  5.034494e-001 -9.857195e-002  4.687500e-002
      vertex  4.574751e-001 -8.942709e-002  0.000000e+000
      vertex  5.131579e-001 -5.725135e-016  4.687500e-002
    endloop
  endfacet
  facet normal  7.053981e-001 -6.947572e-002 -7.053981e-001
    outer loop
      vertex  5.131579e-001 -5.725135e-016  4.687500e-002
      vertex  4.574751e-001 -8.942709e-002  0.000000e+000
      vertex  4.662829e-001 -1.420944e-016  0.000000e+000
    endloop
  endfacet
  facet normal -3.341314e-001 -6.251157e-001 -7.053982e-001
    outer loop
      vertex -2.728144e-001 -4.201110e-001  4.687500e-002
      vertex -2.467721e-001 -3.811358e-001  0.000000e+000
      vertex -1.854611e-001 -4.668023e-001  4.687500e-002
    endloop
  endfacet
  facet normal -3.341313e-001 -6.251157e-001 -7.053981e-001
    outer loop
      vertex -1.854611e-001 -4.668023e-001  4.687500e-002
      vertex -2.467721e-001 -3.811358e-001  0.000000e+000
      vertex -1.675228e-001 -4.234954e-001  0.000000e+000
    endloop
  endfacet
  facet normal -2.057569e-001 -6.782901e-001 -7.053983e-001
    outer loop
      vertex -1.854611e-001 -4.668023e-001  4.687500e-002
      vertex -1.675228e-001 -4.234954e-001  0.000000e+000
      vertex -9.067722e-002 -4.955547e-001  4.687500e-002
    endloop
  endfacet
  facet normal -2.057572e-001 -6.782903e-001 -7.053980e-001
    outer loop
      vertex -9.067722e-002 -4.955547e-001  4.687500e-002
      vertex -1.675228e-001 -4.234954e-001  0.000000e+000
      vertex -8.153236e-002 -4.495804e-001  0.000000e+000
    endloop
  endfacet
  facet normal -6.947570e-002 -7.053983e-001 -7.053980e-001
    outer loop
      vertex -9.067722e-002 -4.955547e-001  4.687500e-002
      vertex -8.153236e-002 -4.495804e-001  0.000000e+000
      vertex  7.894737e-003 -5.052631e-001  4.687500e-002
    endloop
  endfacet
  facet normal  3.341313e-001 -6.251157e-001 -7.053981e-001
    outer loop
      vertex  2.625616e-001 -3.811358e-001  0.000000e+000
      vertex  2.886039e-001 -4.201110e-001  4.687500e-002
      vertex  1.833123e-001 -4.234954e-001  0.000000e+000
    endloop
  endfacet
  facet normal  3.341314e-001 -6.251157e-001 -7.053982e-001
    outer loop
      vertex  1.833123e-001 -4.234954e-001  0.000000e+000
      vertex  2.886039e-001 -4.201110e-001  4.687500e-002
      vertex  2.012506e-001 -4.668023e-001  4.687500e-002
    endloop
  endfacet
  facet normal  2.057571e-001 -6.782900e-001 -7.053982e-001
    outer loop
      vertex  1.833123e-001 -4.234954e-001  0.000000e+000
      vertex  2.012506e-001 -4.668023e-001  4.687500e-002
      vertex  9.732183e-002 -4.495804e-001  0.000000e+000
    endloop
  endfacet
  facet normal  2.057569e-001 -6.782902e-001 -7.053980e-001
    outer loop
      vertex  9.732183e-002 -4.495804e-001  0.000000e+000
      vertex  2.012506e-001 -4.668023e-001  4.687500e-002
      vertex  1.064667e-001 -4.955547e-001  4.687500e-002
    endloop
  endfacet
  facet normal  6.947551e-002 -7.053984e-001 -7.053979e-001
    outer loop
      vertex  9.732183e-002 -4.495804e-001  0.000000e+000
      vertex  1.064667e-001 -4.955547e-001  4.687500e-002
      vertex  7.894737e-003 -4.583881e-001  0.000000e+000
    endloop
  endfacet
  facet normal  6.947548e-002  7.053981e-001 -7.053981e-001
    outer loop
      vertex  7.894737e-003  5.052631e-001  4.687500e-002
      vertex  9.732183e-002  4.495804e-001  0.000000e+000
      vertex  7.894737e-003  4.583881e-001  0.000000e+000
    endloop
  endfacet
  facet normal -6.947568e-002  7.053982e-001 -7.053982e-001
    outer loop
      vertex  7.894737e-003  4.583881e-001  0.000000e+000
      vertex -9.067722e-002  4.955547e-001  4.687500e-002
      vertex  7.894737e-003  5.052631e-001  4.687500e-002
    endloop
  endfacet
  facet normal  4.496652e-001  5.479185e-001 -7.053982e-001
    outer loop
      vertex  2.625616e-001  3.811358e-001  0.000000e+000
      vertex  2.886039e-001  4.201110e-001  4.687500e-002
      vertex  3.320241e-001  3.241294e-001  0.000000e+000
    endloop
  endfacet
  facet normal  4.496651e-001  5.479184e-001 -7.053983e-001
    outer loop
      vertex  3.320241e-001  3.241294e-001  0.000000e+000
      vertex  2.886039e-001  4.201110e-001  4.687500e-002
      vertex  3.651697e-001  3.572750e-001  4.687500e-002
    endloop
  endfacet
  facet normal  5.479185e-001  4.496650e-001 -7.053982e-001
    outer loop
      vertex  3.320241e-001  3.241294e-001  0.000000e+000
      vertex  3.651697e-001  3.572750e-001  4.687500e-002
      vertex  3.890305e-001  2.546668e-001  0.000000e+000
    endloop
  endfacet
  facet normal  5.479184e-001  4.496651e-001 -7.053983e-001
    outer loop
      vertex  3.890305e-001  2.546668e-001  0.000000e+000
      vertex  3.651697e-001  3.572750e-001  4.687500e-002
      vertex  4.280057e-001  2.807092e-001  4.687500e-002
    endloop
  endfacet
  facet normal  6.251155e-001  3.341313e-001 -7.053983e-001
    outer loop
      vertex  3.890305e-001  2.546668e-001  0.000000e+000
      vertex  4.280057e-001  2.807092e-001  4.687500e-002
      vertex  4.313902e-001  1.754176e-001  0.000000e+000
    endloop
  endfacet
  facet normal  6.251156e-001  3.341313e-001 -7.053982e-001
    outer loop
      vertex  4.313902e-001  1.754176e-001  0.000000e+000
      vertex  4.280057e-001  2.807092e-001  4.687500e-002
      vertex  4.746970e-001  1.933558e-001  4.687500e-002
    endloop
  endfacet
  facet normal  6.782900e-001  2.057571e-001 -7.053982e-001
    outer loop
      vertex  4.313902e-001  1.754176e-001  0.000000e+000
      vertex  4.746970e-001  1.933558e-001  4.687500e-002
      vertex  4.574751e-001  8.942709e-002  0.000000e+000
    endloop
  endfacet
  facet normal  6.782902e-001  2.057569e-001 -7.053980e-001
    outer loop
      vertex  4.574751e-001  8.942709e-002  0.000000e+000
      vertex  4.746970e-001  1.933558e-001  4.687500e-002
      vertex  5.034494e-001  9.857195e-002  4.687500e-002
    endloop
  endfacet
  facet normal  7.053984e-001  6.947574e-002 -7.053980e-001
    outer loop
      vertex  4.574751e-001  8.942709e-002  0.000000e+000
      vertex  5.034494e-001  9.857195e-002  4.687500e-002
      vertex  4.662829e-001 -1.420944e-016  0.000000e+000
    endloop
  endfacet
  facet normal  7.053982e-001  6.947590e-002 -7.053982e-001
    outer loop
      vertex  4.662829e-001 -1.420944e-016  0.000000e+000
      vertex  5.034494e-001  9.857195e-002  4.687500e-002
      vertex  5.131579e-001 -5.725135e-016  4.687500e-002
    endloop
  endfacet
  facet normal -4.496652e-001  5.479185e-001 -7.053982e-001
    outer loop
      vertex -2.728144e-001  4.201110e-001  4.687500e-002
      vertex -2.467721e-001  3.811358e-001  0.000000e+000
      vertex -3.493803e-001  3.572750e-001  4.687500e-002
    endloop
  endfacet
  facet normal -4.496651e-001  5.479186e-001 -7.053980e-001
    outer loop
      vertex -3.493803e-001  3.572750e-001  4.687500e-002
      vertex -2.467721e-001  3.811358e-001  0.000000e+000
      vertex -3.162346e-001  3.241294e-001  0.000000e+000
    endloop
  endfacet
  facet normal -5.479186e-001  4.496652e-001 -7.053980e-001
    outer loop
      vertex -3.493803e-001  3.572750e-001  4.687500e-002
      vertex -3.162346e-001  3.241294e-001  0.000000e+000
      vertex -4.122162e-001  2.807092e-001  4.687500e-002
    endloop
  endfacet
  facet normal -5.479186e-001  4.496651e-001 -7.053981e-001
    outer loop
      vertex -4.122162e-001  2.807092e-001  4.687500e-002
      vertex -3.162346e-001  3.241294e-001  0.000000e+000
      vertex -3.732411e-001  2.546668e-001  0.000000e+000
    endloop
  endfacet
  facet normal -6.251158e-001  3.341314e-001 -7.053981e-001
    outer loop
      vertex -4.122162e-001  2.807092e-001  4.687500e-002
      vertex -3.732411e-001  2.546668e-001  0.000000e+000
      vertex -4.589075e-001  1.933558e-001  4.687500e-002
    endloop
  endfacet
  facet normal -6.251158e-001  3.341312e-001 -7.053982e-001
    outer loop
      vertex -4.589075e-001  1.933558e-001  4.687500e-002
      vertex -3.732411e-001  2.546668e-001  0.000000e+000
      vertex -4.156007e-001  1.754176e-001  0.000000e+000
    endloop
  endfacet
  facet normal -6.782901e-001  2.057571e-001 -7.053982e-001
    outer loop
      vertex -4.589075e-001  1.933558e-001  4.687500e-002
      vertex -4.156007e-001  1.754176e-001  0.000000e+000
      vertex -4.876599e-001  9.857195e-002  4.687500e-002
    endloop
  endfacet
  facet normal -6.782900e-001  2.057571e-001 -7.053981e-001
    outer loop
      vertex -4.876599e-001  9.857195e-002  4.687500e-002
      vertex -4.156007e-001  1.754176e-001  0.000000e+000
      vertex -4.416856e-001  8.942709e-002  0.000000e+000
    endloop
  endfacet
  facet normal -7.053981e-001  6.947568e-002 -7.053982e-001
    outer loop
      vertex -4.876599e-001  9.857195e-002  4.687500e-002
      vertex -4.416856e-001  8.942709e-002  0.000000e+000
      vertex -4.973684e-001  6.187485e-017  4.687500e-002
    endloop
  endfacet
  facet normal -7.053981e-001  6.947572e-002 -7.053981e-001
    outer loop
      vertex -4.973684e-001  6.187485e-017  4.687500e-002
      vertex -4.416856e-001  8.942709e-002  0.000000e+000
      vertex -4.504934e-001 -1.772561e-016  0.000000e+000
    endloop
  endfacet
  facet normal  3.341314e-001  6.251157e-001 -7.053982e-001
    outer loop
      vertex  2.886039e-001  4.201110e-001  4.687500e-002
      vertex  2.625616e-001  3.811358e-001  0.000000e+000
      vertex  2.012506e-001  4.668023e-001  4.687500e-002
    endloop
  endfacet
  facet normal  3.341313e-001  6.251157e-001 -7.053981e-001
    outer loop
      vertex  2.012506e-001  4.668023e-001  4.687500e-002
      vertex  2.625616e-001  3.811358e-001  0.000000e+000
      vertex  1.833123e-001  4.234954e-001  0.000000e+000
    endloop
  endfacet
  facet normal  2.057569e-001  6.782901e-001 -7.053982e-001
    outer loop
      vertex  2.012506e-001  4.668023e-001  4.687500e-002
      vertex  1.833123e-001  4.234954e-001  0.000000e+000
      vertex  1.064667e-001  4.955547e-001  4.687500e-002
    endloop
  endfacet
  facet normal  2.057572e-001  6.782902e-001 -7.053980e-001
    outer loop
      vertex  1.064667e-001  4.955547e-001  4.687500e-002
      vertex  1.833123e-001  4.234954e-001  0.000000e+000
      vertex  9.732183e-002  4.495804e-001  0.000000e+000
    endloop
  endfacet
  facet normal  6.947570e-002  7.053983e-001 -7.053980e-001
    outer loop
      vertex  1.064667e-001  4.955547e-001  4.687500e-002
      vertex  9.732183e-002  4.495804e-001  0.000000e+000
      vertex  7.894737e-003  5.052631e-001  4.687500e-002
    endloop
  endfacet
  facet normal -3.341313e-001  6.251157e-001 -7.053981e-001
    outer loop
      vertex -2.467721e-001  3.811358e-001  0.000000e+000
      vertex -2.728144e-001  4.201110e-001  4.687500e-002
      vertex -1.675228e-001  4.234954e-001  0.000000e+000
    endloop
  endfacet
  facet normal -3.341314e-001  6.251157e-001 -7.053982e-001
    outer loop
      vertex -1.675228e-001  4.234954e-001  0.000000e+000
      vertex -2.728144e-001  4.201110e-001  4.687500e-002
      vertex -1.854611e-001  4.668023e-001  4.687500e-002
    endloop
  endfacet
  facet normal -2.057571e-001  6.782900e-001 -7.053981e-001
    outer loop
      vertex -1.675228e-001  4.234954e-001  0.000000e+000
      vertex -1.854611e-001  4.668023e-001  4.687500e-002
      vertex -8.153236e-002  4.495804e-001  0.000000e+000
    endloop
  endfacet
  facet normal -2.057570e-001  6.782903e-001 -7.053980e-001
    outer loop
      vertex -8.153236e-002  4.495804e-001  0.000000e+000
      vertex -1.854611e-001  4.668023e-001  4.687500e-002
      vertex -9.067722e-002  4.955547e-001  4.687500e-002
    endloop
  endfacet
  facet normal -6.947551e-002  7.053984e-001 -7.053980e-001
    outer loop
      vertex -8.153236e-002  4.495804e-001  0.000000e+000
      vertex -9.067722e-002  4.955547e-001  4.687500e-002
      vertex  7.894737e-003  4.583881e-001  0.000000e+000
    endloop
  endfacet
  facet normal  0.000000e+000  0.000000e+000  1.000000e+000
    outer loop
      vertex -9.067722e-002  4.955547e-001  3.984375e-001
      vertex  1.064667e-001  4.955547e-001  3.984375e-001
      vertex  7.894737e-003  5.052631e-001  3.984375e-001
    endloop
  endfacet
  facet normal  -0.000000e+000  0.000000e+000  1.000000e+000
    outer loop
      vertex  1.064667e-001  4.955547e-001  3.984375e-001
      vertex -9.067722e-002  4.955547e-001  3.984375e-001
      vertex  2.012506e-001  4.668023e-001  3.984375e-001
    endloop
  endfacet
  facet normal  0.000000e+000  0.000000e+000  1.000000e+000
    outer loop
      vertex  2.012506e-001  4.668023e-001  3.984375e-001
      vertex -9.067722e-002  4.955547e-001  3.984375e-001
      vertex -1.854611e-001  4.668023e-001  3.984375e-001
    endloop
  endfacet
  facet normal  -0.000000e+000  0.000000e+000  1.000000e+000
    outer loop
      vertex  2.012506e-001  4.668023e-001  3.984375e-001
      vertex -1.854611e-001  4.668023e-001  3.984375e-001
      vertex  2.886039e-001  4.201110e-001  3.984375e-001
    endloop
  endfacet
  facet normal  0.000000e+000  0.000000e+000  1.000000e+000
    outer loop
      vertex  2.886039e-001  4.201110e-001  3.984375e-001
      vertex -1.854611e-001  4.668023e-001  3.984375e-001
      vertex -2.728144e-001  4.201110e-001  3.984375e-001
    endloop
  endfacet
  facet normal  -0.000000e+000  0.000000e+000  1.000000e+000
    outer loop
      vertex  2.886039e-001  4.201110e-001  3.984375e-001
      vertex -2.728144e-001  4.201110e-001  3.984375e-001
      vertex  3.651697e-001  3.572750e-001  3.984375e-001
    endloop
  endfacet
  facet normal  0.000000e+000  0.000000e+000  1.000000e+000
    outer loop
      vertex  3.651697e-001  3.572750e-001  3.984375e-001
      vertex -2.728144e-001  4.201110e-001  3.984375e-001
      vertex -3.493803e-001  3.572750e-001  3.984375e-001
    endloop
  endfacet
  facet normal  -0.000000e+000  0.000000e+000  9.999999e-001
    outer loop
      vertex  3.651697e-001  3.572750e-001  3.984375e-001
      vertex -3.493803e-001  3.572750e-001  3.984375e-001
      vertex  4.280057e-001  2.807092e-001  3.984375e-001
    endloop
  endfacet
  facet normal  0.000000e+000  0.000000e+000  1.000000e+000
    outer loop
      vertex  4.280057e-001  2.807092e-001  3.984375e-001
      vertex -3.493803e-001  3.572750e-001  3.984375e-001
      vertex -4.122162e-001  2.807092e-001  3.984375e-001
    endloop
  endfacet
  facet normal  -0.000000e+000  0.000000e+000  1.000000e+000
    outer loop
      vertex  4.280057e-001  2.807092e-001  3.984375e-001
      vertex -4.122162e-001  2.807092e-001  3.984375e-001
      vertex  4.746970e-001  1.933558e-001  3.984375e-001
    endloop
  endfacet
  facet normal  0.000000e+000  0.000000e+000  1.000000e+000
    outer loop
      vertex  4.746970e-001  1.933558e-001  3.984375e-001
      vertex -4.122162e-001  2.807092e-001  3.984375e-001
      vertex -4.589075e-001  1.933558e-001  3.984375e-001
    endloop
  endfacet
  facet normal  -0.000000e+000  0.000000e+000  1.000000e+000
    outer loop
      vertex  4.746970e-001  1.933558e-001  3.984375e-001
      vertex -4.589075e-001  1.933558e-001  3.984375e-001
      vertex  5.034494e-001  9.857195e-002  3.984375e-001
    endloop
  endfacet
  facet normal  0.000000e+000  0.000000e+000  1.000000e+000
    outer loop
      vertex  5.034494e-001  9.857195e-002  3.984375e-001
      vertex -4.589075e-001  1.933558e-001  3.984375e-001
      vertex -4.876599e-001  9.857195e-002  3.984375e-001
    endloop
  endfacet
  facet normal  -0.000000e+000  0.000000e+000  1.000000e+000
    outer loop
      vertex  5.034494e-001  9.857195e-002  3.984375e-001
      vertex -4.876599e-001  9.857195e-002  3.984375e-001
      vertex  5.131579e-001  0.000000e+000  3.984375e-001
    endloop
  endfacet
  facet normal  0.000000e+000  0.000000e+000  1.000000e+000
    outer loop
      vertex  5.131579e-001  0.000000e+000  3.984375e-001
      vertex -4.876599e-001  9.857195e-002  3.984375e-001
      vertex -4.973684e-001  6.187485e-017  3.984375e-001
    endloop
  endfacet
  facet normal  0.000000e+000  0.000000e+000  1.000000e+000
    outer loop
      vertex  5.131579e-001  0.000000e+000  3.984375e-001
      vertex -4.973684e-001  6.187485e-017  3.984375e-001
      vertex  5.034494e-001 -9.857195e-002  3.984375e-001
    endloop
  endfacet
  facet normal  0.000000e+000  0.000000e+000  1.000000e+000
    outer loop
      vertex  5.034494e-001 -9.857195e-002  3.984375e-001
      vertex -4.973684e-001  6.187485e-017  3.984375e-001
      vertex -4.876599e-001 -9.857195e-002  3.984375e-001
    endloop
  endfacet
  facet normal  -0.000000e+000  0.000000e+000  1.000000e+000
    outer loop
      vertex  5.034494e-001 -9.857195e-002  3.984375e-001
      vertex -4.876599e-001 -9.857195e-002  3.984375e-001
      vertex  4.746970e-001 -1.933558e-001  3.984375e-001
    endloop
  endfacet
  facet normal  0.000000e+000  0.000000e+000  1.000000e+000
    outer loop
      vertex  4.746970e-001 -1.933558e-001  3.984375e-001
      vertex -4.876599e-001 -9.857195e-002  3.984375e-001
      vertex -4.589075e-001 -1.933558e-001  3.984375e-001
    endloop
  endfacet
  facet normal  -0.000000e+000  0.000000e+000  1.000000e+000
    outer loop
      vertex  4.746970e-001 -1.933558e-001  3.984375e-001
      vertex -4.589075e-001 -1.933558e-001  3.984375e-001
      vertex  4.280057e-001 -2.807092e-001  3.984375e-001
    endloop
  endfacet
  facet normal  0.000000e+000  0.000000e+000  1.000000e+000
    outer loop
      vertex  4.280057e-001 -2.807092e-001  3.984375e-001
      vertex -4.589075e-001 -1.933558e-001  3.984375e-001
      vertex -4.122162e-001 -2.807092e-001  3.984375e-001
    endloop
  endfacet
  facet normal  -0.000000e+000  0.000000e+000  1.000000e+000
    outer loop
      vertex  4.280057e-001 -2.807092e-001  3.984375e-001
      vertex -4.122162e-001 -2.807092e-001  3.984375e-001
      vertex  3.651697e-001 -3.572750e-001  3.984375e-001
    endloop
  endfacet
  facet normal  0.000000e+000  0.000000e+000  9.999999e-001
    outer loop
      vertex  3.651697e-001 -3.572750e-001  3.984375e-001
      vertex -4.122162e-001 -2.807092e-001  3.984375e-001
      vertex -3.493803e-001 -3.572750e-001  3.984375e-001
    endloop
  endfacet
  facet normal  -0.000000e+000  0.000000e+000  1.000000e+000
    outer loop
      vertex  3.651697e-001 -3.572750e-001  3.984375e-001
      vertex -3.493803e-001 -3.572750e-001  3.984375e-001
      vertex  2.886039e-001 -4.201110e-001  3.984375e-001
    endloop
  endfacet
  facet normal  0.000000e+000  0.000000e+000  1.000000e+000
    outer loop
      vertex  2.886039e-001 -4.201110e-001  3.984375e-001
      vertex -3.493803e-001 -3.572750e-001  3.984375e-001
      vertex -2.728144e-001 -4.201110e-001  3.984375e-001
    endloop
  endfacet
  facet normal  -0.000000e+000  0.000000e+000  1.000000e+000
    outer loop
      vertex  2.886039e-001 -4.201110e-001  3.984375e-001
      vertex -2.728144e-001 -4.201110e-001  3.984375e-001
      vertex  2.012506e-001 -4.668023e-001  3.984375e-001
    endloop
  endfacet
  facet normal  0.000000e+000  0.000000e+000  1.000000e+000
    outer loop
      vertex  2.012506e-001 -4.668023e-001  3.984375e-001
      vertex -2.728144e-001 -4.201110e-001  3.984375e-001
      vertex -1.854611e-001 -4.668023e-001  3.984375e-001
    endloop
  endfacet
  facet normal  -0.000000e+000  0.000000e+000  1.000000e+000
    outer loop
      vertex  2.012506e-001 -4.668023e-001  3.984375e-001
      vertex -1.854611e-001 -4.668023e-001  3.984375e-001
      vertex  1.064667e-001 -4.955547e-001  3.984375e-001
    endloop
  endfacet
  facet normal  0.000000e+000  0.000000e+000  1.000000e+000
    outer loop
      vertex  1.064667e-001 -4.955547e-001  3.984375e-001
      vertex -1.854611e-001 -4.668023e-001  3.984375e-001
      vertex -9.067722e-002 -4.955547e-001  3.984375e-001
    endloop
  endfacet
  facet normal  -0.000000e+000  0.000000e+000  1.000000e+000
    outer loop
      vertex  1.064667e-001 -4.955547e-001  3.984375e-001
      vertex -9.067722e-002 -4.955547e-001  3.984375e-001
      vertex  7.894737e-003 -5.052631e-001  3.984375e-001
    endloop
  endfacet
endsolid CATIA STL
