solid CATIA STL
  facet normal -7.341449e-001  0.000000e+000  6.789928e-001
    outer loop
      vertex -1.840461e-001 -2.187500e-001  6.118421e-001
      vertex -1.840461e-001 -1.562500e-002  6.118421e-001
      vertex -7.500000e-001 -2.187500e-001 -8.223685e-005
    endloop
  endfacet
  facet normal -7.341449e-001  0.000000e+000  6.789928e-001
    outer loop
      vertex -7.500000e-001 -2.187500e-001 -8.223685e-005
      vertex -1.840461e-001 -1.562500e-002  6.118421e-001
      vertex -7.500000e-001 -1.562500e-002 -8.223685e-005
    endloop
  endfacet
  facet normal -1.365994e-001  0.000000e+000  9.906264e-001
    outer loop
      vertex  1.281614e-002 -1.562500e-002  3.000606e-001
      vertex  5.293990e-002 -2.187500e-001  3.055934e-001
      vertex  5.293990e-002 -1.562500e-002  3.055934e-001
    endloop
  endfacet
  facet normal -3.219607e-001  0.000000e+000  9.467530e-001
    outer loop
      vertex  5.293990e-002 -1.562500e-002  3.055934e-001
      vertex  5.293990e-002 -2.187500e-001  3.055934e-001
      vertex  9.128664e-002 -2.187500e-001  3.186339e-001
    endloop
  endfacet
  facet normal -3.219607e-001  0.000000e+000  9.467530e-001
    outer loop
      vertex  5.293990e-002 -1.562500e-002  3.055934e-001
      vertex  9.128664e-002 -2.187500e-001  3.186339e-001
      vertex  9.128664e-002 -1.562500e-002  3.186339e-001
    endloop
  endfacet
  facet normal -4.956398e-001  0.000000e+000  8.685281e-001
    outer loop
      vertex  9.128664e-002 -1.562500e-002  3.186339e-001
      vertex  9.128664e-002 -2.187500e-001  3.186339e-001
      vertex  1.264650e-001 -2.187500e-001  3.387090e-001
    endloop
  endfacet
  facet normal -4.956398e-001  0.000000e+000  8.685281e-001
    outer loop
      vertex  9.128664e-002 -1.562500e-002  3.186339e-001
      vertex  1.264650e-001 -2.187500e-001  3.387090e-001
      vertex  1.264650e-001 -1.562500e-002  3.387090e-001
    endloop
  endfacet
  facet normal -6.513352e-001  0.000000e+000  7.587900e-001
    outer loop
      vertex  1.264650e-001 -1.562500e-002  3.387090e-001
      vertex  1.264650e-001 -2.187500e-001  3.387090e-001
      vertex  1.571986e-001 -2.187500e-001  3.650903e-001
    endloop
  endfacet
  facet normal -6.513352e-001  0.000000e+000  7.587900e-001
    outer loop
      vertex  1.264650e-001 -1.562500e-002  3.387090e-001
      vertex  1.571986e-001 -2.187500e-001  3.650903e-001
      vertex  1.571986e-001 -1.562500e-002  3.650903e-001
    endloop
  endfacet
  facet normal -7.833976e-001  0.000000e+000  6.215208e-001
    outer loop
      vertex  1.571986e-001 -1.562500e-002  3.650903e-001
      vertex  1.571986e-001 -2.187500e-001  3.650903e-001
      vertex  1.823723e-001 -2.187500e-001  3.968206e-001
    endloop
  endfacet
  facet normal -7.833976e-001  0.000000e+000  6.215208e-001
    outer loop
      vertex  1.571986e-001 -1.562500e-002  3.650903e-001
      vertex  1.823723e-001 -2.187500e-001  3.968206e-001
      vertex  1.823723e-001 -1.562500e-002  3.968206e-001
    endloop
  endfacet
  facet normal -8.870360e-001  0.000000e+000  4.617003e-001
    outer loop
      vertex  1.823723e-001 -1.562500e-002  3.968206e-001
      vertex  1.823723e-001 -2.187500e-001  3.968206e-001
      vertex  2.010728e-001 -2.187500e-001  4.327486e-001
    endloop
  endfacet
  facet normal -8.870360e-001  0.000000e+000  4.617003e-001
    outer loop
      vertex  1.823723e-001 -1.562500e-002  3.968206e-001
      vertex  2.010728e-001 -2.187500e-001  4.327486e-001
      vertex  2.010728e-001 -1.562500e-002  4.327486e-001
    endloop
  endfacet
  facet normal -9.584896e-001  0.000000e+000  2.851274e-001
    outer loop
      vertex  2.010728e-001 -1.562500e-002  4.327486e-001
      vertex  2.010728e-001 -2.187500e-001  4.327486e-001
      vertex  2.126214e-001 -2.187500e-001  4.715707e-001
    endloop
  endfacet
  facet normal -9.584896e-001  0.000000e+000  2.851274e-001
    outer loop
      vertex  2.010728e-001 -1.562500e-002  4.327486e-001
      vertex  2.126214e-001 -2.187500e-001  4.715707e-001
      vertex  2.126214e-001 -1.562500e-002  4.715707e-001
    endloop
  endfacet
  facet normal -9.951658e-001  0.000000e+000  9.820950e-002
    outer loop
      vertex  2.126214e-001 -1.562500e-002  4.715707e-001
      vertex  2.126214e-001 -2.187500e-001  4.715707e-001
      vertex  2.165992e-001 -2.187500e-001  5.118783e-001
    endloop
  endfacet
  facet normal -9.951658e-001  0.000000e+000  9.820950e-002
    outer loop
      vertex  2.126214e-001 -1.562500e-002  4.715707e-001
      vertex  2.165992e-001 -2.187500e-001  5.118783e-001
      vertex  2.165992e-001 -1.562500e-002  5.118783e-001
    endloop
  endfacet
  facet normal -9.957339e-001  -0.000000e+000 -9.227192e-002
    outer loop
      vertex  2.165992e-001 -1.562500e-002  5.118783e-001
      vertex  2.165992e-001 -2.187500e-001  5.118783e-001
      vertex  2.128619e-001 -2.187500e-001  5.522090e-001
    endloop
  endfacet
  facet normal -9.957339e-001  0.000000e+000 -9.227192e-002
    outer loop
      vertex  2.165992e-001 -1.562500e-002  5.118783e-001
      vertex  2.128619e-001 -2.187500e-001  5.522090e-001
      vertex  2.128619e-001 -1.562500e-002  5.522090e-001
    endloop
  endfacet
  facet normal -9.601732e-001  -0.000000e+000 -2.794055e-001
    outer loop
      vertex  2.128619e-001 -1.562500e-002  5.522090e-001
      vertex  2.128619e-001 -2.187500e-001  5.522090e-001
      vertex  2.015450e-001 -2.187500e-001  5.910993e-001
    endloop
  endfacet
  facet normal -9.601732e-001  0.000000e+000 -2.794055e-001
    outer loop
      vertex  2.128619e-001 -1.562500e-002  5.522090e-001
      vertex  2.015450e-001 -2.187500e-001  5.910993e-001
      vertex  2.015450e-001 -1.562500e-002  5.910993e-001
    endloop
  endfacet
  facet normal -8.897742e-001  -0.000000e+000 -4.564012e-001
    outer loop
      vertex  2.015450e-001 -1.562500e-002  5.910993e-001
      vertex  2.015450e-001 -2.187500e-001  5.910993e-001
      vertex  1.830592e-001 -2.187500e-001  6.271381e-001
    endloop
  endfacet
  facet normal -8.897742e-001  0.000000e+000 -4.564012e-001
    outer loop
      vertex  2.015450e-001 -1.562500e-002  5.910993e-001
      vertex  1.830592e-001 -2.187500e-001  6.271381e-001
      vertex  1.830592e-001 -1.562500e-002  6.271381e-001
    endloop
  endfacet
  facet normal -1.365994e-001  0.000000e+000  9.906264e-001
    outer loop
      vertex  5.293990e-002 -2.187500e-001  3.055934e-001
      vertex  1.281614e-002 -1.562500e-002  3.000606e-001
      vertex  1.281614e-002 -2.187500e-001  3.000606e-001
    endloop
  endfacet
  facet normal  5.371690e-002  -0.000000e+000  9.985561e-001
    outer loop
      vertex  1.281614e-002 -2.187500e-001  3.000606e-001
      vertex  1.281614e-002 -1.562500e-002  3.000606e-001
      vertex -2.762880e-002 -1.562500e-002  3.022363e-001
    endloop
  endfacet
  facet normal  5.371690e-002  0.000000e+000  9.985561e-001
    outer loop
      vertex  1.281614e-002 -2.187500e-001  3.000606e-001
      vertex -2.762880e-002 -1.562500e-002  3.022363e-001
      vertex -2.762880e-002 -2.187500e-001  3.022363e-001
    endloop
  endfacet
  facet normal  2.420854e-001  -0.000000e+000  9.702548e-001
    outer loop
      vertex -2.762880e-002 -2.187500e-001  3.022363e-001
      vertex -2.762880e-002 -1.562500e-002  3.022363e-001
      vertex -6.692746e-002 -1.562500e-002  3.120416e-001
    endloop
  endfacet
  facet normal  2.420854e-001  0.000000e+000  9.702548e-001
    outer loop
      vertex -2.762880e-002 -2.187500e-001  3.022363e-001
      vertex -6.692746e-002 -1.562500e-002  3.120416e-001
      vertex -6.692746e-002 -2.187500e-001  3.120416e-001
    endloop
  endfacet
  facet normal  4.216695e-001  -0.000000e+000  9.067497e-001
    outer loop
      vertex -6.692746e-002 -2.187500e-001  3.120416e-001
      vertex -6.692746e-002 -1.562500e-002  3.120416e-001
      vertex -1.036539e-001 -1.562500e-002  3.291207e-001
    endloop
  endfacet
  facet normal  4.216695e-001  0.000000e+000  9.067497e-001
    outer loop
      vertex -6.692746e-002 -2.187500e-001  3.120416e-001
      vertex -1.036539e-001 -1.562500e-002  3.291207e-001
      vertex -1.036539e-001 -2.187500e-001  3.291207e-001
    endloop
  endfacet
  facet normal  5.859545e-001  -0.000000e+000  8.103439e-001
    outer loop
      vertex -1.036539e-001 -2.187500e-001  3.291207e-001
      vertex -1.036539e-001 -1.562500e-002  3.291207e-001
      vertex -1.364756e-001 -1.562500e-002  3.528539e-001
    endloop
  endfacet
  facet normal  5.859545e-001  0.000000e+000  8.103439e-001
    outer loop
      vertex -1.036539e-001 -2.187500e-001  3.291207e-001
      vertex -1.364756e-001 -1.562500e-002  3.528539e-001
      vertex -1.364756e-001 -2.187500e-001  3.528539e-001
    endloop
  endfacet
  facet normal  7.289788e-001  -0.000000e+000  6.845362e-001
    outer loop
      vertex -1.364756e-001 -2.187500e-001  3.528539e-001
      vertex -1.364756e-001 -1.562500e-002  3.528539e-001
      vertex -1.642017e-001 -1.562500e-002  3.823800e-001
    endloop
  endfacet
  facet normal  7.289788e-001  0.000000e+000  6.845362e-001
    outer loop
      vertex -1.364756e-001 -2.187500e-001  3.528539e-001
      vertex -1.642017e-001 -1.562500e-002  3.823800e-001
      vertex -1.642017e-001 -2.187500e-001  3.823800e-001
    endloop
  endfacet
  facet normal  8.455531e-001  -0.000000e+000  5.338913e-001
    outer loop
      vertex -1.642017e-001 -2.187500e-001  3.823800e-001
      vertex -1.642017e-001 -1.562500e-002  3.823800e-001
      vertex -1.858261e-001 -1.562500e-002  4.166278e-001
    endloop
  endfacet
  facet normal  8.455531e-001  0.000000e+000  5.338913e-001
    outer loop
      vertex -1.642017e-001 -2.187500e-001  3.823800e-001
      vertex -1.858261e-001 -1.562500e-002  4.166278e-001
      vertex -1.858261e-001 -2.187500e-001  4.166278e-001
    endloop
  endfacet
  facet normal  9.314479e-001  -0.000000e+000  3.638749e-001
    outer loop
      vertex -1.858261e-001 -2.187500e-001  4.166278e-001
      vertex -1.858261e-001 -1.562500e-002  4.166278e-001
      vertex -2.005643e-001 -1.562500e-002  4.543546e-001
    endloop
  endfacet
  facet normal  9.314479e-001  0.000000e+000  3.638749e-001
    outer loop
      vertex -1.858261e-001 -2.187500e-001  4.166278e-001
      vertex -2.005643e-001 -1.562500e-002  4.543546e-001
      vertex -2.005643e-001 -2.187500e-001  4.543546e-001
    endloop
  endfacet
  facet normal  9.835464e-001  -0.000000e+000  1.806557e-001
    outer loop
      vertex -2.005643e-001 -2.187500e-001  4.543546e-001
      vertex -2.005643e-001 -1.562500e-002  4.543546e-001
      vertex -2.078815e-001 -1.562500e-002  4.941916e-001
    endloop
  endfacet
  facet normal  9.835464e-001  0.000000e+000  1.806557e-001
    outer loop
      vertex -2.005643e-001 -2.187500e-001  4.543546e-001
      vertex -2.078815e-001 -1.562500e-002  4.941916e-001
      vertex -2.078815e-001 -2.187500e-001  4.941916e-001
    endloop
  endfacet
  facet normal  9.999585e-001  0.000000e+000 -9.118004e-003
    outer loop
      vertex -2.078815e-001 -2.187500e-001  4.941916e-001
      vertex -2.078815e-001 -1.562500e-002  4.941916e-001
      vertex -2.075122e-001 -1.562500e-002  5.346934e-001
    endloop
  endfacet
  facet normal  9.999585e-001  0.000000e+000 -9.118004e-003
    outer loop
      vertex -2.078815e-001 -2.187500e-001  4.941916e-001
      vertex -2.075122e-001 -1.562500e-002  5.346934e-001
      vertex -2.075122e-001 -2.187500e-001  5.346934e-001
    endloop
  endfacet
  facet normal  9.800885e-001  0.000000e+000 -1.985613e-001
    outer loop
      vertex -2.075122e-001 -2.187500e-001  5.346934e-001
      vertex -2.075122e-001 -1.562500e-002  5.346934e-001
      vertex -1.994697e-001 -1.562500e-002  5.743903e-001
    endloop
  endfacet
  facet normal  9.800885e-001  0.000000e+000 -1.985613e-001
    outer loop
      vertex -2.075122e-001 -2.187500e-001  5.346934e-001
      vertex -1.994697e-001 -1.562500e-002  5.743903e-001
      vertex -1.994697e-001 -2.187500e-001  5.743903e-001
    endloop
  endfacet
  facet normal  9.246576e-001  0.000000e+000 -3.807995e-001
    outer loop
      vertex -1.994697e-001 -2.187500e-001  5.743903e-001
      vertex -1.994697e-001 -1.562500e-002  5.743903e-001
      vertex -1.840461e-001 -1.562500e-002  6.118421e-001
    endloop
  endfacet
  facet normal  9.246576e-001  0.000000e+000 -3.807995e-001
    outer loop
      vertex -1.994697e-001 -2.187500e-001  5.743903e-001
      vertex -1.840461e-001 -1.562500e-002  6.118421e-001
      vertex -1.840461e-001 -2.187500e-001  6.118421e-001
    endloop
  endfacet
  facet normal  7.697580e-001 -6.927515e-017  6.383359e-001
    outer loop
      vertex  7.031250e-001 -2.187500e-001  1.110223e-016
      vertex  7.031250e-001 -1.562500e-002  1.330664e-016
      vertex  1.830592e-001 -2.187500e-001  6.271381e-001
    endloop
  endfacet
  facet normal  7.697580e-001  -0.000000e+000  6.383359e-001
    outer loop
      vertex  1.830592e-001 -2.187500e-001  6.271381e-001
      vertex  7.031250e-001 -1.562500e-002  1.330664e-016
      vertex  1.830592e-001 -1.562500e-002  6.271381e-001
    endloop
  endfacet
  facet normal -1.110223e-016  1.000000e+000 -5.551116e-017
    outer loop
      vertex  6.484820e-001  1.665018e-016 -1.647211e-001
      vertex -6.053259e-001  2.925052e-017 -1.296053e-001
      vertex -7.265625e-001  2.247562e-017 -9.177702e-003
    endloop
  endfacet
  facet normal -1.110223e-016  1.000000e+000 -5.551123e-017
    outer loop
      vertex  6.484820e-001  1.665018e-016 -1.647211e-001
      vertex -7.265625e-001  2.247562e-017 -9.177702e-003
      vertex  6.796875e-001  1.786409e-016 -8.453697e-003
    endloop
  endfacet
  facet normal -1.110224e-016  1.000000e+000 -5.551116e-017
    outer loop
      vertex  6.484820e-001  1.665018e-016 -1.647211e-001
      vertex  6.796875e-001  1.786409e-016 -8.453697e-003
      vertex  6.796875e-001  1.600282e-016 -3.437500e-001
    endloop
  endfacet
  facet normal -1.110223e-016  1.000000e+000 -5.551114e-017
    outer loop
      vertex  6.484820e-001  1.665018e-016 -1.647211e-001
      vertex  6.796875e-001  1.600282e-016 -3.437500e-001
      vertex  4.566654e-001  1.352678e-016 -3.437500e-001
    endloop
  endfacet
  facet normal -1.110223e-016  1.000000e+000 -5.551114e-017
    outer loop
      vertex  6.796875e-001  1.786409e-016 -8.453697e-003
      vertex -7.265625e-001  2.247562e-017 -9.177702e-003
      vertex  2.450173e-002  1.217651e-016  2.773339e-001
    endloop
  endfacet
  facet normal -1.110223e-016  9.999999e-001 -5.551116e-017
    outer loop
      vertex  6.796875e-001  1.786409e-016 -8.453697e-003
      vertex  2.450173e-002  1.217651e-016  2.773339e-001
      vertex  6.865078e-002  1.271185e-016  2.854742e-001
    endloop
  endfacet
  facet normal -1.110224e-016  1.000000e+000 -5.551126e-017
    outer loop
      vertex  6.796875e-001  1.786409e-016 -8.453697e-003
      vertex  6.865078e-002  1.271185e-016  2.854742e-001
      vertex  1.104606e-001  1.326680e-016  3.018249e-001
    endloop
  endfacet
  facet normal -1.110223e-016  1.000000e+000 -5.551116e-017
    outer loop
      vertex  6.796875e-001  1.786409e-016 -8.453697e-003
      vertex  1.104606e-001  1.326680e-016  3.018249e-001
      vertex  1.484191e-001  1.382128e-016  3.257947e-001
    endloop
  endfacet
  facet normal -1.110222e-016  1.000000e+000 -5.551103e-017
    outer loop
      vertex  6.796875e-001  1.786409e-016 -8.453697e-003
      vertex  1.484191e-001  1.382128e-016  3.257947e-001
      vertex  1.811536e-001  1.435525e-016  3.565169e-001
    endloop
  endfacet
  facet normal -1.110224e-016  9.999999e-001 -5.551120e-017
    outer loop
      vertex  6.796875e-001  1.786409e-016 -8.453697e-003
      vertex  1.811536e-001  1.435525e-016  3.565169e-001
      vertex  2.074804e-001  1.484939e-016  3.928804e-001
    endloop
  endfacet
  facet normal -1.110223e-016  1.000000e+000 -5.551115e-017
    outer loop
      vertex  6.796875e-001  1.786409e-016 -8.453697e-003
      vertex  2.074804e-001  1.484939e-016  3.928804e-001
      vertex  2.264474e-001  1.528584e-016  4.335701e-001
    endloop
  endfacet
  facet normal -1.110222e-016  1.000000e+000 -5.551100e-017
    outer loop
      vertex  6.796875e-001  1.786409e-016 -8.453697e-003
      vertex  2.264474e-001  1.528584e-016  4.335701e-001
      vertex  2.373687e-001  1.564881e-016  4.771147e-001
    endloop
  endfacet
  facet normal -1.110226e-016  1.000000e+000 -5.551136e-017
    outer loop
      vertex  6.796875e-001  1.786409e-016 -8.453697e-003
      vertex  2.373687e-001  1.564881e-016  4.771147e-001
      vertex  2.398494e-001  1.592518e-016  5.219393e-001
    endloop
  endfacet
  facet normal -1.110223e-016  1.000000e+000 -5.551115e-017
    outer loop
      vertex -7.265625e-001  2.247562e-017 -9.177702e-003
      vertex -2.317372e-001  1.071077e-016  5.257685e-001
      vertex -2.299848e-001  1.048121e-016  4.809095e-001
    endloop
  endfacet
  facet normal -1.110223e-016  1.000000e+000 -5.551115e-017
    outer loop
      vertex -7.265625e-001  2.247562e-017 -9.177702e-003
      vertex -2.299848e-001  1.048121e-016  4.809095e-001
      vertex -2.197721e-001  1.035192e-016  4.371933e-001
    endloop
  endfacet
  facet normal -1.110223e-016  9.999999e-001 -5.551117e-017
    outer loop
      vertex -7.265625e-001  2.247562e-017 -9.177702e-003
      vertex -2.197721e-001  1.035192e-016  4.371933e-001
      vertex -2.014683e-001  1.032758e-016  3.962010e-001
    endloop
  endfacet
  facet normal -1.110223e-016  9.999999e-001 -5.551111e-017
    outer loop
      vertex -7.265625e-001  2.247562e-017 -9.177702e-003
      vertex -2.014683e-001  1.032758e-016  3.962010e-001
      vertex -1.757354e-001  1.040907e-016  3.594148e-001
    endloop
  endfacet
  facet normal -1.110223e-016  1.000000e+000 -5.551115e-017
    outer loop
      vertex -7.265625e-001  2.247562e-017 -9.177702e-003
      vertex -1.757354e-001  1.040907e-016  3.594148e-001
      vertex -1.435041e-001  1.059344e-016  3.281651e-001
    endloop
  endfacet
  facet normal -1.110223e-016  1.000000e+000 -5.551113e-017
    outer loop
      vertex -7.265625e-001  2.247562e-017 -9.177702e-003
      vertex -1.435041e-001  1.059344e-016  3.281651e-001
      vertex -1.059398e-001  1.087402e-016  3.035820e-001
    endloop
  endfacet
  facet normal -1.110223e-016  1.000000e+000 -5.551124e-017
    outer loop
      vertex -7.265625e-001  2.247562e-017 -9.177702e-003
      vertex -1.059398e-001  1.087402e-016  3.035820e-001
      vertex -6.440107e-002  1.124067e-016  2.865545e-001
    endloop
  endfacet
  facet normal -1.110223e-016  1.000000e+000 -5.551120e-017
    outer loop
      vertex -7.265625e-001  2.247562e-017 -9.177702e-003
      vertex -6.440107e-002  1.124067e-016  2.865545e-001
      vertex -2.039003e-002  1.168013e-016  2.776984e-001
    endloop
  endfacet
  facet normal -1.110224e-016  1.000000e+000 -5.551077e-017
    outer loop
      vertex -7.265625e-001  2.247562e-017 -9.177702e-003
      vertex -2.039003e-002  1.168013e-016  2.776984e-001
      vertex  2.450173e-002  1.217651e-016  2.773339e-001
    endloop
  endfacet
  facet normal -1.110223e-016  1.000000e+000 -5.551115e-017
    outer loop
      vertex -7.265625e-001  3.903128e-018 -3.437500e-001
      vertex -7.265625e-001  2.247562e-017 -9.177702e-003
      vertex -4.394779e-001  3.577593e-017 -3.437500e-001
    endloop
  endfacet
  facet normal -1.110222e-016  1.000000e+000 -5.551108e-017
    outer loop
      vertex -4.394779e-001  3.577593e-017 -3.437500e-001
      vertex -7.265625e-001  2.247562e-017 -9.177702e-003
      vertex -6.053259e-001  2.925052e-017 -1.296053e-001
    endloop
  endfacet
  facet normal -1.000000e+000  -0.000000e+000  0.000000e+000
    outer loop
      vertex -7.500000e-001 -2.187500e-001 -8.223685e-005
      vertex -7.500000e-001 -1.562500e-002 -8.223685e-005
      vertex -7.500000e-001 -2.187500e-001 -3.671875e-001
    endloop
  endfacet
  facet normal -1.000000e+000  0.000000e+000  0.000000e+000
    outer loop
      vertex -7.500000e-001 -2.187500e-001 -3.671875e-001
      vertex -7.500000e-001 -1.562500e-002 -8.223685e-005
      vertex -7.500000e-001 -1.562500e-002 -3.671875e-001
    endloop
  endfacet
  facet normal  1.000000e+000  0.000000e+000  0.000000e+000
    outer loop
      vertex  7.031250e-001 -2.187500e-001 -3.671875e-001
      vertex  7.031250e-001 -1.562500e-002 -3.671875e-001
      vertex  7.031250e-001 -2.187500e-001  1.110223e-016
    endloop
  endfacet
  facet normal  1.000000e+000  -0.000000e+000  0.000000e+000
    outer loop
      vertex  7.031250e-001 -2.187500e-001  1.110223e-016
      vertex  7.031250e-001 -1.562500e-002 -3.671875e-001
      vertex  7.031250e-001 -1.562500e-002  1.330664e-016
    endloop
  endfacet
  facet normal  0.000000e+000  0.000000e+000 -1.000000e+000
    outer loop
      vertex  3.972040e-001 -2.187500e-001 -3.671875e-001
      vertex  3.972040e-001 -1.562500e-002 -3.671875e-001
      vertex  7.031250e-001 -2.187500e-001 -3.671875e-001
    endloop
  endfacet
  facet normal  0.000000e+000  0.000000e+000 -1.000000e+000
    outer loop
      vertex  7.031250e-001 -2.187500e-001 -3.671875e-001
      vertex  3.972040e-001 -1.562500e-002 -3.671875e-001
      vertex  7.031250e-001 -1.562500e-002 -3.671875e-001
    endloop
  endfacet
  facet normal -6.823183e-001  0.000000e+000  7.310553e-001
    outer loop
      vertex  6.266447e-001 -2.187500e-001 -1.530428e-001
      vertex  6.266447e-001 -1.562500e-002 -1.530428e-001
      vertex  3.972040e-001 -2.187500e-001 -3.671875e-001
    endloop
  endfacet
  facet normal -6.823183e-001  0.000000e+000  7.310553e-001
    outer loop
      vertex  3.972040e-001 -2.187500e-001 -3.671875e-001
      vertex  6.266447e-001 -1.562500e-002 -1.530428e-001
      vertex  3.972040e-001 -1.562500e-002 -3.671875e-001
    endloop
  endfacet
  facet normal  0.000000e+000  0.000000e+000 -1.000000e+000
    outer loop
      vertex -5.970395e-001 -2.187500e-001 -1.530428e-001
      vertex -5.970395e-001 -1.562500e-002 -1.530428e-001
      vertex  6.266447e-001 -2.187500e-001 -1.530428e-001
    endloop
  endfacet
  facet normal  0.000000e+000  0.000000e+000 -1.000000e+000
    outer loop
      vertex  6.266447e-001 -2.187500e-001 -1.530428e-001
      vertex -5.970395e-001 -1.562500e-002 -1.530428e-001
      vertex  6.266447e-001 -1.562500e-002 -1.530428e-001
    endloop
  endfacet
  facet normal  7.071068e-001  0.000000e+000  7.071068e-001
    outer loop
      vertex -3.828947e-001 -2.187500e-001 -3.671875e-001
      vertex -3.828947e-001 -1.562500e-002 -3.671875e-001
      vertex -5.970395e-001 -2.187500e-001 -1.530428e-001
    endloop
  endfacet
  facet normal  7.071068e-001  -0.000000e+000  7.071068e-001
    outer loop
      vertex -5.970395e-001 -2.187500e-001 -1.530428e-001
      vertex -3.828947e-001 -1.562500e-002 -3.671875e-001
      vertex -5.970395e-001 -1.562500e-002 -1.530428e-001
    endloop
  endfacet
  facet normal  0.000000e+000  0.000000e+000 -1.000000e+000
    outer loop
      vertex -7.500000e-001 -2.187500e-001 -3.671875e-001
      vertex -7.500000e-001 -1.562500e-002 -3.671875e-001
      vertex -3.828947e-001 -2.187500e-001 -3.671875e-001
    endloop
  endfacet
  facet normal  0.000000e+000  0.000000e+000 -1.000000e+000
    outer loop
      vertex -3.828947e-001 -2.187500e-001 -3.671875e-001
      vertex -7.500000e-001 -1.562500e-002 -3.671875e-001
      vertex -3.828947e-001 -1.562500e-002 -3.671875e-001
    endloop
  endfacet
  facet normal -4.078899e-001  8.314431e-001  3.772642e-001
    outer loop
      vertex -7.500000e-001 -1.562500e-002 -8.223685e-005
      vertex -2.092716e-001 -9.835743e-003  5.717828e-001
      vertex -7.265625e-001  2.247562e-017 -9.177702e-003
    endloop
  endfacet
  facet normal -4.073316e-001  8.319584e-001  3.767311e-001
    outer loop
      vertex -7.500000e-001 -1.562500e-002 -8.223685e-005
      vertex -1.840461e-001 -1.562500e-002  6.118421e-001
      vertex -2.092716e-001 -9.835743e-003  5.717828e-001
    endloop
  endfacet
  facet normal -4.072050e-001  8.320504e-001  3.766646e-001
    outer loop
      vertex -7.265625e-001  2.247562e-017 -9.177702e-003
      vertex -2.092716e-001 -9.835743e-003  5.717828e-001
      vertex -2.317372e-001  1.071077e-016  5.257685e-001
    endloop
  endfacet
  facet normal  5.265347e-001  8.434346e-001 -1.066734e-001
    outer loop
      vertex -2.075122e-001 -1.562500e-002  5.346934e-001
      vertex -2.092716e-001 -9.835743e-003  5.717828e-001
      vertex -1.994697e-001 -1.562500e-002  5.743903e-001
    endloop
  endfacet
  facet normal  4.904790e-001  8.434846e-001  2.190069e-001
    outer loop
      vertex -2.005643e-001 -1.562500e-002  4.543546e-001
      vertex -2.014683e-001  1.032758e-016  3.962010e-001
      vertex -2.197721e-001  1.035192e-016  4.371933e-001
    endloop
  endfacet
  facet normal  5.536433e-001  8.226485e-001  1.293395e-001
    outer loop
      vertex -2.197721e-001  1.035192e-016  4.371933e-001
      vertex -2.299848e-001  1.048121e-016  4.809095e-001
      vertex -2.005643e-001 -1.562500e-002  4.543546e-001
    endloop
  endfacet
  facet normal  5.344464e-001  8.394823e-001  9.816598e-002
    outer loop
      vertex -2.005643e-001 -1.562500e-002  4.543546e-001
      vertex -2.299848e-001  1.048121e-016  4.809095e-001
      vertex -2.078815e-001 -1.562500e-002  4.941916e-001
    endloop
  endfacet
  facet normal  3.741148e-001  8.432940e-001  3.858670e-001
    outer loop
      vertex -1.642017e-001 -1.562500e-002  3.823800e-001
      vertex -1.435041e-001  1.059344e-016  3.281651e-001
      vertex -1.757354e-001  1.040907e-016  3.594148e-001
    endloop
  endfacet
  facet normal  4.657886e-001  8.227243e-001  3.258308e-001
    outer loop
      vertex -1.757354e-001  1.040907e-016  3.594148e-001
      vertex -2.014683e-001  1.032758e-016  3.962010e-001
      vertex -1.642017e-001 -1.562500e-002  3.823800e-001
    endloop
  endfacet
  facet normal  4.595587e-001  8.394087e-001  2.901702e-001
    outer loop
      vertex -1.642017e-001 -1.562500e-002  3.823800e-001
      vertex -2.014683e-001  1.032758e-016  3.962010e-001
      vertex -1.858261e-001 -1.562500e-002  4.166278e-001
    endloop
  endfacet
  facet normal  5.393065e-001  8.153289e-001  2.106828e-001
    outer loop
      vertex -2.014683e-001  1.032758e-016  3.962010e-001
      vertex -2.005643e-001 -1.562500e-002  4.543546e-001
      vertex -1.858261e-001 -1.562500e-002  4.166278e-001
    endloop
  endfacet
  facet normal  3.112115e-001  8.228013e-001  4.755476e-001
    outer loop
      vertex -1.036539e-001 -1.562500e-002  3.291207e-001
      vertex -1.059398e-001  1.087402e-016  3.035820e-001
      vertex -1.435041e-001  1.059344e-016  3.281651e-001
    endloop
  endfacet
  facet normal  3.185341e-001  8.393343e-001  4.405156e-001
    outer loop
      vertex -1.036539e-001 -1.562500e-002  3.291207e-001
      vertex -1.435041e-001  1.059344e-016  3.281651e-001
      vertex -1.364756e-001 -1.562500e-002  3.528539e-001
    endloop
  endfacet
  facet normal  4.218061e-001  8.155929e-001  3.960905e-001
    outer loop
      vertex -1.435041e-001  1.059344e-016  3.281651e-001
      vertex -1.642017e-001 -1.562500e-002  3.823800e-001
      vertex -1.364756e-001 -1.562500e-002  3.528539e-001
    endloop
  endfacet
  facet normal  1.120925e-001  8.228790e-001  5.570506e-001
    outer loop
      vertex -2.762880e-002 -1.562500e-002  3.022363e-001
      vertex -2.039003e-002  1.168013e-016  2.776984e-001
      vertex -6.440107e-002  1.124067e-016  2.865545e-001
    endloop
  endfacet
  facet normal  1.316296e-001  8.392589e-001  5.275586e-001
    outer loop
      vertex -2.762880e-002 -1.562500e-002  3.022363e-001
      vertex -6.440107e-002  1.124067e-016  2.865545e-001
      vertex -6.692746e-002 -1.562500e-002  3.120416e-001
    endloop
  endfacet
  facet normal  2.155394e-001  8.228402e-001  5.258105e-001
    outer loop
      vertex -6.440107e-002  1.124067e-016  2.865545e-001
      vertex -1.059398e-001  1.087402e-016  3.035820e-001
      vertex -6.692746e-002 -1.562500e-002  3.120416e-001
    endloop
  endfacet
  facet normal  2.292506e-001  8.392968e-001  4.929758e-001
    outer loop
      vertex -6.692746e-002 -1.562500e-002  3.120416e-001
      vertex -1.059398e-001  1.087402e-016  3.035820e-001
      vertex -1.036539e-001 -1.562500e-002  3.291207e-001
    endloop
  endfacet
  facet normal  4.613191e-003  8.229185e-001  5.681408e-001
    outer loop
      vertex  1.281614e-002 -1.562500e-002  3.000606e-001
      vertex  2.450173e-002  1.217651e-016  2.773339e-001
      vertex -2.039003e-002  1.168013e-016  2.776984e-001
    endloop
  endfacet
  facet normal  2.921078e-002  8.392206e-001  5.430061e-001
    outer loop
      vertex  1.281614e-002 -1.562500e-002  3.000606e-001
      vertex -2.039003e-002  1.168013e-016  2.776984e-001
      vertex -2.762880e-002 -1.562500e-002  3.022363e-001
    endloop
  endfacet
  facet normal -2.875164e-001  8.426315e-001  4.553092e-001
    outer loop
      vertex  9.128664e-002 -1.562500e-002  3.186339e-001
      vertex  1.484191e-001  1.382128e-016  3.257947e-001
      vertex  1.104606e-001  1.326680e-016  3.018249e-001
    endloop
  endfacet
  facet normal -2.068895e-001  8.229976e-001  5.290290e-001
    outer loop
      vertex  1.104606e-001  1.326680e-016  3.018249e-001
      vertex  6.865078e-002  1.271185e-016  2.854742e-001
      vertex  9.128664e-002 -1.562500e-002  3.186339e-001
    endloop
  endfacet
  facet normal -1.751177e-001  8.391435e-001  5.149485e-001
    outer loop
      vertex  9.128664e-002 -1.562500e-002  3.186339e-001
      vertex  6.865078e-002  1.271185e-016  2.854742e-001
      vertex  5.293990e-002 -1.562500e-002  3.055934e-001
    endloop
  endfacet
  facet normal -7.891415e-002  8.162456e-001  5.722899e-001
    outer loop
      vertex  6.865078e-002  1.271185e-016  2.854742e-001
      vertex  1.281614e-002 -1.562500e-002  3.000606e-001
      vertex  5.293990e-002 -1.562500e-002  3.055934e-001
    endloop
  endfacet
  facet normal -4.364148e-001  8.424436e-001  3.159601e-001
    outer loop
      vertex  1.571986e-001 -1.562500e-002  3.650903e-001
      vertex  2.074804e-001  1.484939e-016  3.928804e-001
      vertex  1.811536e-001  1.435525e-016  3.565169e-001
    endloop
  endfacet
  facet normal -3.886550e-001  8.230783e-001  4.141129e-001
    outer loop
      vertex  1.811536e-001  1.435525e-016  3.565169e-001
      vertex  1.484191e-001  1.382128e-016  3.257947e-001
      vertex  1.571986e-001 -1.562500e-002  3.650903e-001
    endloop
  endfacet
  facet normal -3.543459e-001  8.390657e-001  4.128046e-001
    outer loop
      vertex  1.571986e-001 -1.562500e-002  3.650903e-001
      vertex  1.484191e-001  1.382128e-016  3.257947e-001
      vertex  1.264650e-001 -1.562500e-002  3.387090e-001
    endloop
  endfacet
  facet normal -2.861524e-001  8.165043e-001  5.014355e-001
    outer loop
      vertex  1.484191e-001  1.382128e-016  3.257947e-001
      vertex  9.128664e-002 -1.562500e-002  3.186339e-001
      vertex  1.264650e-001 -1.562500e-002  3.387090e-001
    endloop
  endfacet
  facet normal -5.228829e-001  8.422559e-001  1.311429e-001
    outer loop
      vertex  2.010728e-001 -1.562500e-002  4.327486e-001
      vertex  2.373687e-001  1.564881e-016  4.771147e-001
      vertex  2.264474e-001  1.528584e-016  4.335701e-001
    endloop
  endfacet
  facet normal -5.146447e-001  8.231593e-001  2.398953e-001
    outer loop
      vertex  2.264474e-001  1.528584e-016  4.335701e-001
      vertex  2.074804e-001  1.484939e-016  3.928804e-001
      vertex  2.010728e-001 -1.562500e-002  4.327486e-001
    endloop
  endfacet
  facet normal -4.826825e-001  8.389865e-001  2.512352e-001
    outer loop
      vertex  2.010728e-001 -1.562500e-002  4.327486e-001
      vertex  2.074804e-001  1.484939e-016  3.928804e-001
      vertex  1.823723e-001 -1.562500e-002  3.968206e-001
    endloop
  endfacet
  facet normal -4.520020e-001  8.167608e-001  3.586029e-001
    outer loop
      vertex  2.074804e-001  1.484939e-016  3.928804e-001
      vertex  1.571986e-001 -1.562500e-002  3.650903e-001
      vertex  1.823723e-001 -1.562500e-002  3.968206e-001
    endloop
  endfacet
  facet normal -5.416443e-001  8.389066e-001  5.345302e-002
    outer loop
      vertex  2.165992e-001 -1.562500e-002  5.118783e-001
      vertex  2.373687e-001  1.564881e-016  4.771147e-001
      vertex  2.126214e-001 -1.562500e-002  4.715707e-001
    endloop
  endfacet
  facet normal -5.526796e-001  8.170159e-001  1.644088e-001
    outer loop
      vertex  2.373687e-001  1.564881e-016  4.771147e-001
      vertex  2.010728e-001 -1.562500e-002  4.327486e-001
      vertex  2.126214e-001 -1.562500e-002  4.715707e-001
    endloop
  endfacet
  facet normal -4.897411e-001  8.601419e-001 -1.425122e-001
    outer loop
      vertex  2.138308e-001 -1.071746e-002  5.784993e-001
      vertex  2.128619e-001 -1.562500e-002  5.522090e-001
      vertex  2.015450e-001 -1.562500e-002  5.910993e-001
    endloop
  endfacet
  facet normal -6.118936e-001  7.259992e-001 -3.138650e-001
    outer loop
      vertex  1.830592e-001 -1.562500e-002  6.271381e-001
      vertex  2.138308e-001 -1.071746e-002  5.784993e-001
      vertex  2.015450e-001 -1.562500e-002  5.910993e-001
    endloop
  endfacet
  facet normal  5.389661e-001  8.125569e-001 -2.219611e-001
    outer loop
      vertex -1.840461e-001 -1.562500e-002  6.118421e-001
      vertex -1.994697e-001 -1.562500e-002  5.743903e-001
      vertex -2.092716e-001 -9.835743e-003  5.717828e-001
    endloop
  endfacet
  facet normal -9.758862e-002  8.428202e-001  5.292737e-001
    outer loop
      vertex  1.281614e-002 -1.562500e-002  3.000606e-001
      vertex  6.865078e-002  1.271185e-016  2.854742e-001
      vertex  2.450173e-002  1.217651e-016  2.773339e-001
    endloop
  endfacet
  facet normal  5.652618e-001  8.187081e-001 -1.009768e-001
    outer loop
      vertex -2.317372e-001  1.071077e-016  5.257685e-001
      vertex -2.092716e-001 -9.835743e-003  5.717828e-001
      vertex -2.075122e-001 -1.562500e-002  5.346934e-001
    endloop
  endfacet
  facet normal  5.433084e-001  8.395186e-001 -4.954094e-003
    outer loop
      vertex -2.317372e-001  1.071077e-016  5.257685e-001
      vertex -2.075122e-001 -1.562500e-002  5.346934e-001
      vertex -2.078815e-001 -1.562500e-002  4.941916e-001
    endloop
  endfacet
  facet normal  5.681713e-001  8.226110e-001  2.219566e-002
    outer loop
      vertex -2.317372e-001  1.071077e-016  5.257685e-001
      vertex -2.078815e-001 -1.562500e-002  4.941916e-001
      vertex -2.299848e-001  1.048121e-016  4.809095e-001
    endloop
  endfacet
  facet normal -5.668242e-001  8.232414e-001  3.136842e-002
    outer loop
      vertex  2.398494e-001  1.592518e-016  5.219393e-001
      vertex  2.373687e-001  1.564881e-016  4.771147e-001
      vertex  2.165992e-001 -1.562500e-002  5.118783e-001
    endloop
  endfacet
  facet normal -5.420157e-001  8.388660e-001 -5.022711e-002
    outer loop
      vertex  2.398494e-001  1.592518e-016  5.219393e-001
      vertex  2.165992e-001 -1.562500e-002  5.118783e-001
      vertex  2.128619e-001 -1.562500e-002  5.522090e-001
    endloop
  endfacet
  facet normal -5.988124e-001  7.909821e-001 -1.255827e-001
    outer loop
      vertex  2.398494e-001  1.592518e-016  5.219393e-001
      vertex  2.128619e-001 -1.562500e-002  5.522090e-001
      vertex  2.138308e-001 -1.071746e-002  5.784993e-001
    endloop
  endfacet
  facet normal  4.269849e-001  8.320503e-001  3.540851e-001
    outer loop
      vertex  7.031250e-001 -1.562500e-002  1.330664e-016
      vertex  6.796875e-001  1.786409e-016 -8.453697e-003
      vertex  2.398494e-001  1.592518e-016  5.219393e-001
    endloop
  endfacet
  facet normal  4.269847e-001  8.320505e-001  3.540848e-001
    outer loop
      vertex  7.031250e-001 -1.562500e-002  1.330664e-016
      vertex  2.398494e-001  1.592518e-016  5.219393e-001
      vertex  2.138308e-001 -1.071746e-002  5.784993e-001
    endloop
  endfacet
  facet normal  4.269858e-001  8.320495e-001  3.540858e-001
    outer loop
      vertex  7.031250e-001 -1.562500e-002  1.330664e-016
      vertex  2.138308e-001 -1.071746e-002  5.784993e-001
      vertex  1.830592e-001 -1.562500e-002  6.271381e-001
    endloop
  endfacet
  facet normal  5.547002e-001  8.320503e-001  0.000000e+000
    outer loop
      vertex  7.031250e-001 -1.562500e-002 -3.671875e-001
      vertex  6.796875e-001  1.600282e-016 -3.437500e-001
      vertex  7.031250e-001 -1.562500e-002  1.330664e-016
    endloop
  endfacet
  facet normal  5.547002e-001  8.320503e-001  0.000000e+000
    outer loop
      vertex  7.031250e-001 -1.562500e-002  1.330664e-016
      vertex  6.796875e-001  1.600282e-016 -3.437500e-001
      vertex  6.796875e-001  1.786409e-016 -8.453697e-003
    endloop
  endfacet
  facet normal  0.000000e+000  8.320503e-001 -5.547002e-001
    outer loop
      vertex  3.972040e-001 -1.562500e-002 -3.671875e-001
      vertex  4.566654e-001  1.352678e-016 -3.437500e-001
      vertex  7.031250e-001 -1.562500e-002 -3.671875e-001
    endloop
  endfacet
  facet normal  0.000000e+000  8.320503e-001 -5.547002e-001
    outer loop
      vertex  7.031250e-001 -1.562500e-002 -3.671875e-001
      vertex  4.566654e-001  1.352678e-016 -3.437500e-001
      vertex  6.796875e-001  1.600282e-016 -3.437500e-001
    endloop
  endfacet
  facet normal -3.784820e-001  8.320503e-001  4.055164e-001
    outer loop
      vertex  6.266447e-001 -1.562500e-002 -1.530428e-001
      vertex  6.484820e-001  1.665018e-016 -1.647211e-001
      vertex  3.972040e-001 -1.562500e-002 -3.671875e-001
    endloop
  endfacet
  facet normal -3.784820e-001  8.320503e-001  4.055165e-001
    outer loop
      vertex  3.972040e-001 -1.562500e-002 -3.671875e-001
      vertex  6.484820e-001  1.665018e-016 -1.647211e-001
      vertex  4.566654e-001  1.352678e-016 -3.437500e-001
    endloop
  endfacet
  facet normal  0.000000e+000  8.320503e-001 -5.547001e-001
    outer loop
      vertex -5.970395e-001 -1.562500e-002 -1.530428e-001
      vertex -6.053259e-001  2.925052e-017 -1.296053e-001
      vertex  6.266447e-001 -1.562500e-002 -1.530428e-001
    endloop
  endfacet
  facet normal -2.284939e-002 -5.778331e-001 -8.158351e-001
    outer loop
      vertex  6.266447e-001 -1.562500e-002 -1.530428e-001
      vertex -6.053259e-001  2.925052e-017 -1.296053e-001
      vertex  6.484820e-001  1.665018e-016 -1.647211e-001
    endloop
  endfacet
  facet normal  3.922322e-001  8.320503e-001  3.922322e-001
    outer loop
      vertex -3.828947e-001 -1.562500e-002 -3.671875e-001
      vertex -4.394779e-001  3.577593e-017 -3.437500e-001
      vertex -5.970395e-001 -1.562500e-002 -1.530428e-001
    endloop
  endfacet
  facet normal  7.073851e-001 -4.466215e-001  5.478463e-001
    outer loop
      vertex -5.970395e-001 -1.562500e-002 -1.530428e-001
      vertex -4.394779e-001  3.577593e-017 -3.437500e-001
      vertex -6.053259e-001  2.925052e-017 -1.296053e-001
    endloop
  endfacet
  facet normal  0.000000e+000  8.320503e-001 -5.547002e-001
    outer loop
      vertex -7.500000e-001 -1.562500e-002 -3.671875e-001
      vertex -7.265625e-001  3.903128e-018 -3.437500e-001
      vertex -3.828947e-001 -1.562500e-002 -3.671875e-001
    endloop
  endfacet
  facet normal  0.000000e+000  8.320503e-001 -5.547002e-001
    outer loop
      vertex -3.828947e-001 -1.562500e-002 -3.671875e-001
      vertex -7.265625e-001  3.903128e-018 -3.437500e-001
      vertex -4.394779e-001  3.577593e-017 -3.437500e-001
    endloop
  endfacet
  facet normal -5.547002e-001  8.320503e-001  0.000000e+000
    outer loop
      vertex -7.500000e-001 -1.562500e-002 -8.223685e-005
      vertex -7.265625e-001  2.247562e-017 -9.177702e-003
      vertex -7.500000e-001 -1.562500e-002 -3.671875e-001
    endloop
  endfacet
  facet normal -5.547002e-001  8.320503e-001  0.000000e+000
    outer loop
      vertex -7.500000e-001 -1.562500e-002 -3.671875e-001
      vertex -7.265625e-001  2.247562e-017 -9.177702e-003
      vertex -7.265625e-001  3.903128e-018 -3.437500e-001
    endloop
  endfacet
  facet normal  0.000000e+000 -1.000000e+000  0.000000e+000
    outer loop
      vertex  6.266447e-001 -2.187500e-001 -1.530428e-001
      vertex  7.031250e-001 -2.187500e-001 -3.671875e-001
      vertex  7.031250e-001 -2.187500e-001  1.110223e-016
    endloop
  endfacet
  facet normal  0.000000e+000 -1.000000e+000  0.000000e+000
    outer loop
      vertex  6.266447e-001 -2.187500e-001 -1.530428e-001
      vertex  3.972040e-001 -2.187500e-001 -3.671875e-001
      vertex  7.031250e-001 -2.187500e-001 -3.671875e-001
    endloop
  endfacet
  facet normal  0.000000e+000 -9.999999e-001  0.000000e+000
    outer loop
      vertex -5.970395e-001 -2.187500e-001 -1.530428e-001
      vertex  6.266447e-001 -2.187500e-001 -1.530428e-001
      vertex  7.031250e-001 -2.187500e-001  1.110223e-016
    endloop
  endfacet
  facet normal  0.000000e+000 -1.000000e+000  0.000000e+000
    outer loop
      vertex -5.970395e-001 -2.187500e-001 -1.530428e-001
      vertex  7.031250e-001 -2.187500e-001  1.110223e-016
      vertex -7.500000e-001 -2.187500e-001 -8.223685e-005
    endloop
  endfacet
  facet normal  0.000000e+000 -1.000000e+000  0.000000e+000
    outer loop
      vertex -5.970395e-001 -2.187500e-001 -1.530428e-001
      vertex -7.500000e-001 -2.187500e-001 -8.223685e-005
      vertex -7.500000e-001 -2.187500e-001 -3.671875e-001
    endloop
  endfacet
  facet normal  0.000000e+000 -1.000000e+000  0.000000e+000
    outer loop
      vertex -5.970395e-001 -2.187500e-001 -1.530428e-001
      vertex -7.500000e-001 -2.187500e-001 -3.671875e-001
      vertex -3.828947e-001 -2.187500e-001 -3.671875e-001
    endloop
  endfacet
  facet normal  0.000000e+000 -1.000000e+000  0.000000e+000
    outer loop
      vertex  7.031250e-001 -2.187500e-001  1.110223e-016
      vertex  1.830592e-001 -2.187500e-001  6.271381e-001
      vertex  2.015450e-001 -2.187500e-001  5.910993e-001
    endloop
  endfacet
  facet normal  0.000000e+000 -1.000000e+000  0.000000e+000
    outer loop
      vertex  7.031250e-001 -2.187500e-001  1.110223e-016
      vertex  2.015450e-001 -2.187500e-001  5.910993e-001
      vertex  2.128619e-001 -2.187500e-001  5.522090e-001
    endloop
  endfacet
  facet normal  0.000000e+000 -1.000000e+000  0.000000e+000
    outer loop
      vertex  7.031250e-001 -2.187500e-001  1.110223e-016
      vertex  2.128619e-001 -2.187500e-001  5.522090e-001
      vertex  2.165992e-001 -2.187500e-001  5.118783e-001
    endloop
  endfacet
  facet normal  0.000000e+000 -1.000000e+000  -0.000000e+000
    outer loop
      vertex  7.031250e-001 -2.187500e-001  1.110223e-016
      vertex  2.165992e-001 -2.187500e-001  5.118783e-001
      vertex  2.126214e-001 -2.187500e-001  4.715707e-001
    endloop
  endfacet
  facet normal  0.000000e+000 -1.000000e+000  -0.000000e+000
    outer loop
      vertex  7.031250e-001 -2.187500e-001  1.110223e-016
      vertex  2.126214e-001 -2.187500e-001  4.715707e-001
      vertex  2.010728e-001 -2.187500e-001  4.327486e-001
    endloop
  endfacet
  facet normal  0.000000e+000 -1.000000e+000  -0.000000e+000
    outer loop
      vertex  7.031250e-001 -2.187500e-001  1.110223e-016
      vertex  2.010728e-001 -2.187500e-001  4.327486e-001
      vertex  1.823723e-001 -2.187500e-001  3.968206e-001
    endloop
  endfacet
  facet normal  0.000000e+000 -1.000000e+000  -0.000000e+000
    outer loop
      vertex  7.031250e-001 -2.187500e-001  1.110223e-016
      vertex  1.823723e-001 -2.187500e-001  3.968206e-001
      vertex  1.571986e-001 -2.187500e-001  3.650903e-001
    endloop
  endfacet
  facet normal  0.000000e+000 -9.999999e-001  -0.000000e+000
    outer loop
      vertex  7.031250e-001 -2.187500e-001  1.110223e-016
      vertex  1.571986e-001 -2.187500e-001  3.650903e-001
      vertex  1.264650e-001 -2.187500e-001  3.387090e-001
    endloop
  endfacet
  facet normal  0.000000e+000 -1.000000e+000  -0.000000e+000
    outer loop
      vertex  7.031250e-001 -2.187500e-001  1.110223e-016
      vertex  1.264650e-001 -2.187500e-001  3.387090e-001
      vertex  9.128664e-002 -2.187500e-001  3.186339e-001
    endloop
  endfacet
  facet normal  0.000000e+000 -1.000000e+000  -0.000000e+000
    outer loop
      vertex  7.031250e-001 -2.187500e-001  1.110223e-016
      vertex  9.128664e-002 -2.187500e-001  3.186339e-001
      vertex  5.293990e-002 -2.187500e-001  3.055934e-001
    endloop
  endfacet
  facet normal  0.000000e+000 -1.000000e+000  -0.000000e+000
    outer loop
      vertex  7.031250e-001 -2.187500e-001  1.110223e-016
      vertex  5.293990e-002 -2.187500e-001  3.055934e-001
      vertex  1.281614e-002 -2.187500e-001  3.000606e-001
    endloop
  endfacet
  facet normal  0.000000e+000 -9.999999e-001  -0.000000e+000
    outer loop
      vertex  7.031250e-001 -2.187500e-001  1.110223e-016
      vertex  1.281614e-002 -2.187500e-001  3.000606e-001
      vertex -7.500000e-001 -2.187500e-001 -8.223685e-005
    endloop
  endfacet
  facet normal  -0.000000e+000 -1.000000e+000  0.000000e+000
    outer loop
      vertex -7.500000e-001 -2.187500e-001 -8.223685e-005
      vertex  1.281614e-002 -2.187500e-001  3.000606e-001
      vertex -2.762880e-002 -2.187500e-001  3.022363e-001
    endloop
  endfacet
  facet normal  -0.000000e+000 -1.000000e+000  0.000000e+000
    outer loop
      vertex -7.500000e-001 -2.187500e-001 -8.223685e-005
      vertex -2.762880e-002 -2.187500e-001  3.022363e-001
      vertex -6.692746e-002 -2.187500e-001  3.120416e-001
    endloop
  endfacet
  facet normal  -0.000000e+000 -1.000000e+000  0.000000e+000
    outer loop
      vertex -7.500000e-001 -2.187500e-001 -8.223685e-005
      vertex -6.692746e-002 -2.187500e-001  3.120416e-001
      vertex -1.036539e-001 -2.187500e-001  3.291207e-001
    endloop
  endfacet
  facet normal  -0.000000e+000 -1.000000e+000  0.000000e+000
    outer loop
      vertex -7.500000e-001 -2.187500e-001 -8.223685e-005
      vertex -1.036539e-001 -2.187500e-001  3.291207e-001
      vertex -1.364756e-001 -2.187500e-001  3.528539e-001
    endloop
  endfacet
  facet normal  -0.000000e+000 -1.000000e+000  0.000000e+000
    outer loop
      vertex -7.500000e-001 -2.187500e-001 -8.223685e-005
      vertex -1.364756e-001 -2.187500e-001  3.528539e-001
      vertex -1.642017e-001 -2.187500e-001  3.823800e-001
    endloop
  endfacet
  facet normal  -0.000000e+000 -9.999999e-001  0.000000e+000
    outer loop
      vertex -7.500000e-001 -2.187500e-001 -8.223685e-005
      vertex -1.642017e-001 -2.187500e-001  3.823800e-001
      vertex -1.858261e-001 -2.187500e-001  4.166278e-001
    endloop
  endfacet
  facet normal  -0.000000e+000 -1.000000e+000  0.000000e+000
    outer loop
      vertex -7.500000e-001 -2.187500e-001 -8.223685e-005
      vertex -1.858261e-001 -2.187500e-001  4.166278e-001
      vertex -2.005643e-001 -2.187500e-001  4.543546e-001
    endloop
  endfacet
  facet normal  -0.000000e+000 -9.999999e-001  0.000000e+000
    outer loop
      vertex -7.500000e-001 -2.187500e-001 -8.223685e-005
      vertex -2.005643e-001 -2.187500e-001  4.543546e-001
      vertex -2.078815e-001 -2.187500e-001  4.941916e-001
    endloop
  endfacet
  facet normal  -0.000000e+000 -1.000000e+000  0.000000e+000
    outer loop
      vertex -7.500000e-001 -2.187500e-001 -8.223685e-005
      vertex -2.078815e-001 -2.187500e-001  4.941916e-001
      vertex -2.075122e-001 -2.187500e-001  5.346934e-001
    endloop
  endfacet
  facet normal  -0.000000e+000 -1.000000e+000  0.000000e+000
    outer loop
      vertex -7.500000e-001 -2.187500e-001 -8.223685e-005
      vertex -2.075122e-001 -2.187500e-001  5.346934e-001
      vertex -1.994697e-001 -2.187500e-001  5.743903e-001
    endloop
  endfacet
  facet normal  -0.000000e+000 -1.000000e+000  0.000000e+000
    outer loop
      vertex -7.500000e-001 -2.187500e-001 -8.223685e-005
      vertex -1.994697e-001 -2.187500e-001  5.743903e-001
      vertex -1.840461e-001 -2.187500e-001  6.118421e-001
    endloop
  endfacet
  facet normal -5.551117e-017  1.000000e+000 -1.110226e-016
    outer loop
      vertex -2.580672e-002  2.167869e-017  6.066052e-001
      vertex -7.174958e-003  2.309965e-017  6.100881e-001
      vertex  1.177955e-002  2.415184e-017  6.100882e-001
    endloop
  endfacet
  facet normal -5.551118e-017  1.000000e+000 -1.110224e-016
    outer loop
      vertex  3.041133e-002  2.479944e-017  6.066054e-001
      vertex -2.580672e-002  2.167869e-017  6.066052e-001
      vertex  1.177955e-002  2.415184e-017  6.100882e-001
    endloop
  endfacet
  facet normal -5.551118e-017  1.000000e+000 -1.110225e-016
    outer loop
      vertex -4.348125e-002  1.993737e-017  5.997580e-001
      vertex -2.580672e-002  2.167869e-017  6.066052e-001
      vertex  3.041133e-002  2.479944e-017  6.066054e-001
    endloop
  endfacet
  facet normal -5.551116e-017  1.000000e+000 -1.110229e-016
    outer loop
      vertex  4.808591e-002  2.502040e-017  5.997583e-001
      vertex -4.348125e-002  1.993737e-017  5.997580e-001
      vertex  3.041133e-002  2.479944e-017  6.066054e-001
    endloop
  endfacet
  facet normal -5.551115e-017  1.000000e+000 -1.110221e-016
    outer loop
      vertex -5.959665e-002  1.793496e-017  5.897796e-001
      vertex -4.348125e-002  1.993737e-017  5.997580e-001
      vertex  4.808591e-002  2.502040e-017  5.997583e-001
    endloop
  endfacet
  facet normal -5.551113e-017  1.000000e+000 -1.110224e-016
    outer loop
      vertex  6.420138e-002  2.480718e-017  5.897800e-001
      vertex -5.959665e-002  1.793496e-017  5.897796e-001
      vertex  4.808591e-002  2.502040e-017  5.997583e-001
    endloop
  endfacet
  facet normal -5.551115e-017  1.000000e+000 -1.110223e-016
    outer loop
      vertex  4.160951e-002  3.917373e-018  4.129173e-001
      vertex -3.700424e-002 -4.465666e-019  4.129173e-001
      vertex  5.936737e-002  5.956931e-018  4.224091e-001
    endloop
  endfacet
  facet normal -5.551115e-017  9.999999e-001 -1.110222e-016
    outer loop
      vertex -1.773584e-002 -2.588136e-020  4.070723e-001
      vertex -3.700424e-002 -4.465666e-019  4.129173e-001
      vertex  4.160951e-002  3.917373e-018  4.129173e-001
    endloop
  endfacet
  facet normal -5.551116e-017  1.000000e+000 -1.110221e-016
    outer loop
      vertex  2.234110e-002  2.198836e-018  4.070723e-001
      vertex -1.773584e-002 -2.588136e-020  4.070723e-001
      vertex  4.160951e-002  3.917373e-018  4.129173e-001
    endloop
  endfacet
  facet normal -5.551116e-017  1.000000e+000 -1.110217e-016
    outer loop
      vertex  2.302632e-003  8.673617e-019  4.050987e-001
      vertex -1.773584e-002 -2.588136e-020  4.070723e-001
      vertex  2.234110e-002  2.198836e-018  4.070723e-001
    endloop
  endfacet
  facet normal -5.551115e-017  1.000000e+000 -1.110224e-016
    outer loop
      vertex -3.700424e-002 -4.465666e-019  4.129173e-001
      vertex -5.476211e-002 -3.785272e-019  4.224091e-001
      vertex  5.936737e-002  5.956931e-018  4.224091e-001
    endloop
  endfacet
  facet normal -5.551115e-017  1.000000e+000 -1.110223e-016
    outer loop
      vertex  5.936737e-002  5.956931e-018  4.224091e-001
      vertex -5.476211e-002 -3.785272e-019  4.224091e-001
      vertex -7.032701e-002  1.756220e-019  4.351829e-001
    endloop
  endfacet
  facet normal -5.551115e-017  1.000000e+000 -1.110223e-016
    outer loop
      vertex  5.936737e-002  5.956931e-018  4.224091e-001
      vertex -7.032701e-002  1.756220e-019  4.351829e-001
      vertex  7.493227e-002  8.239132e-018  4.351829e-001
    endloop
  endfacet
  facet normal -5.551115e-017  1.000000e+000 -1.110224e-016
    outer loop
      vertex  7.493227e-002  8.239132e-018  4.351829e-001
      vertex -7.032701e-002  1.756220e-019  4.351829e-001
      vertex -8.310079e-002  1.194585e-018  4.507478e-001
    endloop
  endfacet
  facet normal -5.551115e-017  1.000000e+000 -1.110224e-016
    outer loop
      vertex  7.493227e-002  8.239132e-018  4.351829e-001
      vertex -8.310079e-002  1.194585e-018  4.507478e-001
      vertex  8.770605e-002  1.067627e-017  4.507478e-001
    endloop
  endfacet
  facet normal -5.551115e-017  1.000000e+000 -1.110223e-016
    outer loop
      vertex  8.770605e-002  1.067627e-017  4.507478e-001
      vertex -8.310079e-002  1.194585e-018  4.507478e-001
      vertex -9.259256e-002  2.639205e-018  4.685056e-001
    endloop
  endfacet
  facet normal -5.551115e-017  1.000000e+000 -1.110223e-016
    outer loop
      vertex  8.770605e-002  1.067627e-017  4.507478e-001
      vertex -9.259256e-002  2.639205e-018  4.685056e-001
      vertex  9.719782e-002  1.317469e-017  4.685056e-001
    endloop
  endfacet
  facet normal -5.551115e-017  1.000000e+000 -1.110224e-016
    outer loop
      vertex  9.719782e-002  1.317469e-017  4.685056e-001
      vertex -9.259256e-002  2.639205e-018  4.685056e-001
      vertex -9.843757e-002  4.453964e-018  4.877740e-001
    endloop
  endfacet
  facet normal -5.551116e-017  1.000000e+000 -1.110224e-016
    outer loop
      vertex  9.719782e-002  1.317469e-017  4.685056e-001
      vertex -9.843757e-002  4.453964e-018  4.877740e-001
      vertex  1.030428e-001  1.563837e-017  4.877740e-001
    endloop
  endfacet
  facet normal -5.551115e-017  1.000000e+000 -1.110221e-016
    outer loop
      vertex  1.030428e-001  1.563837e-017  4.877740e-001
      vertex -9.843757e-002  4.453964e-018  4.877740e-001
      vertex -1.004112e-001  6.569049e-018  5.078118e-001
    endloop
  endfacet
  facet normal -5.551116e-017  1.000000e+000 -1.110222e-016
    outer loop
      vertex  1.030428e-001  1.563837e-017  4.877740e-001
      vertex -1.004112e-001  6.569049e-018  5.078118e-001
      vertex  1.050164e-001  1.797265e-017  5.078125e-001
    endloop
  endfacet
  facet normal -5.551116e-017  1.000000e+000 -1.110225e-016
    outer loop
      vertex  1.050164e-001  1.797265e-017  5.078125e-001
      vertex -1.004112e-001  6.569049e-018  5.078118e-001
      vertex -9.866241e-002  8.761524e-018  5.266855e-001
    endloop
  endfacet
  facet normal -5.551115e-017  1.000000e+000 -1.110224e-016
    outer loop
      vertex  1.050164e-001  1.797265e-017  5.078125e-001
      vertex -9.866241e-002  8.761524e-018  5.266855e-001
      vertex  1.032675e-001  1.997096e-017  5.266861e-001
    endloop
  endfacet
  facet normal -5.551115e-017  1.000000e+000 -1.110222e-016
    outer loop
      vertex  1.032675e-001  1.997096e-017  5.266861e-001
      vertex -9.866241e-002  8.761524e-018  5.266855e-001
      vertex -9.347536e-002  1.107351e-017  5.449165e-001
    endloop
  endfacet
  facet normal -5.551113e-017  1.000000e+000 -1.110221e-016
    outer loop
      vertex  1.032675e-001  1.997096e-017  5.266861e-001
      vertex -9.347536e-002  1.107351e-017  5.449165e-001
      vertex  9.808038e-002  2.170706e-017  5.449171e-001
    endloop
  endfacet
  facet normal -5.551114e-017  1.000000e+000 -1.110224e-016
    outer loop
      vertex  9.808038e-002  2.170706e-017  5.449171e-001
      vertex -9.347536e-002  1.107351e-017  5.449165e-001
      vertex -8.502670e-002  1.342626e-017  5.618839e-001
    endloop
  endfacet
  facet normal -5.551113e-017  1.000000e+000 -1.110224e-016
    outer loop
      vertex  9.808038e-002  2.170706e-017  5.449171e-001
      vertex -8.502670e-002  1.342626e-017  5.618839e-001
      vertex  8.963162e-002  2.312181e-017  5.618845e-001
    endloop
  endfacet
  facet normal -5.551113e-017  1.000000e+000 -1.110220e-016
    outer loop
      vertex  8.963162e-002  2.312181e-017  5.618845e-001
      vertex -8.502670e-002  1.342626e-017  5.618839e-001
      vertex -7.360414e-002  1.573968e-017  5.770100e-001
    endloop
  endfacet
  facet normal -5.551118e-017  1.000000e+000 -1.110224e-016
    outer loop
      vertex  8.963162e-002  2.312181e-017  5.618845e-001
      vertex -7.360414e-002  1.573968e-017  5.770100e-001
      vertex  7.820895e-002  2.416705e-017  5.770105e-001
    endloop
  endfacet
  facet normal -5.551118e-017  1.000000e+000 -1.110224e-016
    outer loop
      vertex  7.820895e-002  2.416705e-017  5.770105e-001
      vertex -7.360414e-002  1.573968e-017  5.770100e-001
      vertex -5.959665e-002  1.793496e-017  5.897796e-001
    endloop
  endfacet
  facet normal -5.551113e-017  1.000000e+000 -1.110220e-016
    outer loop
      vertex  7.820895e-002  2.416705e-017  5.770105e-001
      vertex -5.959665e-002  1.793496e-017  5.897796e-001
      vertex  6.420138e-002  2.480718e-017  5.897800e-001
    endloop
  endfacet
  facet normal  9.951847e-001  0.000000e+000 -9.801735e-002
    outer loop
      vertex  1.128289e-001 -3.125000e-002  5.078125e-001
      vertex  1.128289e-001 -2.187500e-001  5.078125e-001
      vertex  1.107052e-001 -3.125000e-002  4.862499e-001
    endloop
  endfacet
  facet normal  9.951847e-001  0.000000e+000 -9.801735e-002
    outer loop
      vertex  1.107052e-001 -3.125000e-002  4.862499e-001
      vertex  1.128289e-001 -2.187500e-001  5.078125e-001
      vertex  1.107052e-001 -2.187500e-001  4.862499e-001
    endloop
  endfacet
  facet normal  9.569404e-001  0.000000e+000 -2.902844e-001
    outer loop
      vertex  1.107052e-001 -3.125000e-002  4.862499e-001
      vertex  1.107052e-001 -2.187500e-001  4.862499e-001
      vertex  1.044156e-001 -3.125000e-002  4.655159e-001
    endloop
  endfacet
  facet normal  9.569404e-001  0.000000e+000 -2.902844e-001
    outer loop
      vertex  1.044156e-001 -3.125000e-002  4.655159e-001
      vertex  1.107052e-001 -2.187500e-001  4.862499e-001
      vertex  1.044156e-001 -2.187500e-001  4.655159e-001
    endloop
  endfacet
  facet normal  8.819213e-001  0.000000e+000 -4.713968e-001
    outer loop
      vertex  1.044156e-001 -3.125000e-002  4.655159e-001
      vertex  1.044156e-001 -2.187500e-001  4.655159e-001
      vertex  9.420191e-002 -3.125000e-002  4.464074e-001
    endloop
  endfacet
  facet normal  8.819213e-001  0.000000e+000 -4.713968e-001
    outer loop
      vertex  9.420191e-002 -3.125000e-002  4.464074e-001
      vertex  1.044156e-001 -2.187500e-001  4.655159e-001
      vertex  9.420191e-002 -2.187500e-001  4.464074e-001
    endloop
  endfacet
  facet normal  7.730107e-001  0.000000e+000 -6.343932e-001
    outer loop
      vertex  9.420191e-002 -3.125000e-002  4.464074e-001
      vertex  9.420191e-002 -2.187500e-001  4.464074e-001
      vertex  8.045654e-002 -3.125000e-002  4.296586e-001
    endloop
  endfacet
  facet normal  7.730107e-001  0.000000e+000 -6.343932e-001
    outer loop
      vertex  8.045654e-002 -3.125000e-002  4.296586e-001
      vertex  9.420191e-002 -2.187500e-001  4.464074e-001
      vertex  8.045654e-002 -2.187500e-001  4.296586e-001
    endloop
  endfacet
  facet normal  6.343933e-001  0.000000e+000 -7.730104e-001
    outer loop
      vertex  8.045654e-002 -3.125000e-002  4.296586e-001
      vertex  8.045654e-002 -2.187500e-001  4.296586e-001
      vertex  6.370776e-002 -3.125000e-002  4.159132e-001
    endloop
  endfacet
  facet normal  6.343933e-001  0.000000e+000 -7.730104e-001
    outer loop
      vertex  6.370776e-002 -3.125000e-002  4.159132e-001
      vertex  8.045654e-002 -2.187500e-001  4.296586e-001
      vertex  6.370776e-002 -2.187500e-001  4.159132e-001
    endloop
  endfacet
  facet normal  4.713969e-001  0.000000e+000 -8.819212e-001
    outer loop
      vertex  6.370776e-002 -3.125000e-002  4.159132e-001
      vertex  6.370776e-002 -2.187500e-001  4.159132e-001
      vertex  4.459922e-002 -3.125000e-002  4.056995e-001
    endloop
  endfacet
  facet normal  4.713969e-001  0.000000e+000 -8.819212e-001
    outer loop
      vertex  4.459922e-002 -3.125000e-002  4.056995e-001
      vertex  6.370776e-002 -2.187500e-001  4.159132e-001
      vertex  4.459922e-002 -2.187500e-001  4.056995e-001
    endloop
  endfacet
  facet normal  2.902842e-001  0.000000e+000 -9.569404e-001
    outer loop
      vertex  4.459922e-002 -3.125000e-002  4.056995e-001
      vertex  4.459922e-002 -2.187500e-001  4.056995e-001
      vertex  2.386525e-002 -3.125000e-002  3.994099e-001
    endloop
  endfacet
  facet normal  2.902842e-001  0.000000e+000 -9.569404e-001
    outer loop
      vertex  2.386525e-002 -3.125000e-002  3.994099e-001
      vertex  4.459922e-002 -2.187500e-001  4.056995e-001
      vertex  2.386525e-002 -2.187500e-001  3.994099e-001
    endloop
  endfacet
  facet normal  9.801766e-002  0.000000e+000 -9.951847e-001
    outer loop
      vertex  2.386525e-002 -3.125000e-002  3.994099e-001
      vertex  2.386525e-002 -2.187500e-001  3.994099e-001
      vertex  2.302632e-003 -3.125000e-002  3.972862e-001
    endloop
  endfacet
  facet normal  9.801766e-002  0.000000e+000 -9.951847e-001
    outer loop
      vertex  2.302632e-003 -3.125000e-002  3.972862e-001
      vertex  2.386525e-002 -2.187500e-001  3.994099e-001
      vertex  2.302632e-003 -2.187500e-001  3.972862e-001
    endloop
  endfacet
  facet normal -9.801764e-002  0.000000e+000 -9.951847e-001
    outer loop
      vertex  2.302632e-003 -3.125000e-002  3.972862e-001
      vertex  2.302632e-003 -2.187500e-001  3.972862e-001
      vertex -1.925998e-002 -3.125000e-002  3.994099e-001
    endloop
  endfacet
  facet normal -9.801764e-002  -0.000000e+000 -9.951847e-001
    outer loop
      vertex -1.925998e-002 -3.125000e-002  3.994099e-001
      vertex  2.302632e-003 -2.187500e-001  3.972862e-001
      vertex -1.925998e-002 -2.187500e-001  3.994099e-001
    endloop
  endfacet
  facet normal -2.902842e-001  0.000000e+000 -9.569405e-001
    outer loop
      vertex -1.925998e-002 -3.125000e-002  3.994099e-001
      vertex -1.925998e-002 -2.187500e-001  3.994099e-001
      vertex -3.999396e-002 -3.125000e-002  4.056995e-001
    endloop
  endfacet
  facet normal -2.902842e-001  -0.000000e+000 -9.569405e-001
    outer loop
      vertex -3.999396e-002 -3.125000e-002  4.056995e-001
      vertex -1.925998e-002 -2.187500e-001  3.994099e-001
      vertex -3.999396e-002 -2.187500e-001  4.056995e-001
    endloop
  endfacet
  facet normal -4.713969e-001  0.000000e+000 -8.819212e-001
    outer loop
      vertex -3.999396e-002 -3.125000e-002  4.056995e-001
      vertex -3.999396e-002 -2.187500e-001  4.056995e-001
      vertex -5.910250e-002 -3.125000e-002  4.159132e-001
    endloop
  endfacet
  facet normal -4.713969e-001  -0.000000e+000 -8.819212e-001
    outer loop
      vertex -5.910250e-002 -3.125000e-002  4.159132e-001
      vertex -3.999396e-002 -2.187500e-001  4.056995e-001
      vertex -5.910250e-002 -2.187500e-001  4.159132e-001
    endloop
  endfacet
  facet normal -6.343933e-001  0.000000e+000 -7.730104e-001
    outer loop
      vertex -5.910250e-002 -3.125000e-002  4.159132e-001
      vertex -5.910250e-002 -2.187500e-001  4.159132e-001
      vertex -7.585128e-002 -3.125000e-002  4.296586e-001
    endloop
  endfacet
  facet normal -6.343933e-001  -0.000000e+000 -7.730104e-001
    outer loop
      vertex -7.585128e-002 -3.125000e-002  4.296586e-001
      vertex -5.910250e-002 -2.187500e-001  4.159132e-001
      vertex -7.585128e-002 -2.187500e-001  4.296586e-001
    endloop
  endfacet
  facet normal -7.730107e-001  0.000000e+000 -6.343932e-001
    outer loop
      vertex -7.585128e-002 -3.125000e-002  4.296586e-001
      vertex -7.585128e-002 -2.187500e-001  4.296586e-001
      vertex -8.959664e-002 -3.125000e-002  4.464074e-001
    endloop
  endfacet
  facet normal -7.730107e-001  -0.000000e+000 -6.343932e-001
    outer loop
      vertex -8.959664e-002 -3.125000e-002  4.464074e-001
      vertex -7.585128e-002 -2.187500e-001  4.296586e-001
      vertex -8.959664e-002 -2.187500e-001  4.464074e-001
    endloop
  endfacet
  facet normal -8.819213e-001  0.000000e+000 -4.713968e-001
    outer loop
      vertex -8.959664e-002 -3.125000e-002  4.464074e-001
      vertex -8.959664e-002 -2.187500e-001  4.464074e-001
      vertex -9.981037e-002 -3.125000e-002  4.655159e-001
    endloop
  endfacet
  facet normal -8.819213e-001  -0.000000e+000 -4.713968e-001
    outer loop
      vertex -9.981037e-002 -3.125000e-002  4.655159e-001
      vertex -8.959664e-002 -2.187500e-001  4.464074e-001
      vertex -9.981037e-002 -2.187500e-001  4.655159e-001
    endloop
  endfacet
  facet normal -9.569404e-001  0.000000e+000 -2.902848e-001
    outer loop
      vertex -9.981037e-002 -3.125000e-002  4.655159e-001
      vertex -9.981037e-002 -2.187500e-001  4.655159e-001
      vertex -1.061000e-001 -3.125000e-002  4.862499e-001
    endloop
  endfacet
  facet normal -9.569404e-001  -0.000000e+000 -2.902848e-001
    outer loop
      vertex -1.061000e-001 -3.125000e-002  4.862499e-001
      vertex -9.981037e-002 -2.187500e-001  4.655159e-001
      vertex -1.061000e-001 -2.187500e-001  4.862499e-001
    endloop
  endfacet
  facet normal -9.951847e-001  0.000000e+000 -9.801701e-002
    outer loop
      vertex -1.061000e-001 -3.125000e-002  4.862499e-001
      vertex -1.061000e-001 -2.187500e-001  4.862499e-001
      vertex -1.082237e-001 -3.125000e-002  5.078125e-001
    endloop
  endfacet
  facet normal -9.951847e-001  -0.000000e+000 -9.801701e-002
    outer loop
      vertex -1.082237e-001 -3.125000e-002  5.078125e-001
      vertex -1.061000e-001 -2.187500e-001  4.862499e-001
      vertex -1.082237e-001 -2.187500e-001  5.078125e-001
    endloop
  endfacet
  facet normal -9.951847e-001  0.000000e+000  9.801687e-002
    outer loop
      vertex -1.082237e-001 -3.125000e-002  5.078125e-001
      vertex -1.082237e-001 -2.187500e-001  5.078125e-001
      vertex -1.061000e-001 -3.125000e-002  5.293751e-001
    endloop
  endfacet
  facet normal -9.951847e-001  0.000000e+000  9.801687e-002
    outer loop
      vertex -1.061000e-001 -3.125000e-002  5.293751e-001
      vertex -1.082237e-001 -2.187500e-001  5.078125e-001
      vertex -1.061000e-001 -2.187500e-001  5.293751e-001
    endloop
  endfacet
  facet normal -9.569402e-001  0.000000e+000  2.902851e-001
    outer loop
      vertex -1.061000e-001 -3.125000e-002  5.293751e-001
      vertex -1.061000e-001 -2.187500e-001  5.293751e-001
      vertex -9.981037e-002 -3.125000e-002  5.501091e-001
    endloop
  endfacet
  facet normal -9.569402e-001  0.000000e+000  2.902851e-001
    outer loop
      vertex -9.981037e-002 -3.125000e-002  5.501091e-001
      vertex -1.061000e-001 -2.187500e-001  5.293751e-001
      vertex -9.981037e-002 -2.187500e-001  5.501091e-001
    endloop
  endfacet
  facet normal -8.819213e-001  0.000000e+000  4.713968e-001
    outer loop
      vertex -9.981037e-002 -3.125000e-002  5.501091e-001
      vertex -9.981037e-002 -2.187500e-001  5.501091e-001
      vertex -8.959664e-002 -3.125000e-002  5.692176e-001
    endloop
  endfacet
  facet normal -8.819213e-001  0.000000e+000  4.713968e-001
    outer loop
      vertex -8.959664e-002 -3.125000e-002  5.692176e-001
      vertex -9.981037e-002 -2.187500e-001  5.501091e-001
      vertex -8.959664e-002 -2.187500e-001  5.692176e-001
    endloop
  endfacet
  facet normal -7.730107e-001  0.000000e+000  6.343932e-001
    outer loop
      vertex -8.959664e-002 -3.125000e-002  5.692176e-001
      vertex -8.959664e-002 -2.187500e-001  5.692176e-001
      vertex -7.585128e-002 -3.125000e-002  5.859664e-001
    endloop
  endfacet
  facet normal -7.730107e-001  0.000000e+000  6.343932e-001
    outer loop
      vertex -7.585128e-002 -3.125000e-002  5.859664e-001
      vertex -8.959664e-002 -2.187500e-001  5.692176e-001
      vertex -7.585128e-002 -2.187500e-001  5.859664e-001
    endloop
  endfacet
  facet normal -6.343933e-001  0.000000e+000  7.730104e-001
    outer loop
      vertex -7.585128e-002 -3.125000e-002  5.859664e-001
      vertex -7.585128e-002 -2.187500e-001  5.859664e-001
      vertex -5.910250e-002 -3.125000e-002  5.997118e-001
    endloop
  endfacet
  facet normal -6.343933e-001  0.000000e+000  7.730104e-001
    outer loop
      vertex -5.910250e-002 -3.125000e-002  5.997118e-001
      vertex -7.585128e-002 -2.187500e-001  5.859664e-001
      vertex -5.910250e-002 -2.187500e-001  5.997118e-001
    endloop
  endfacet
  facet normal -4.713969e-001  0.000000e+000  8.819212e-001
    outer loop
      vertex -5.910250e-002 -3.125000e-002  5.997118e-001
      vertex -5.910250e-002 -2.187500e-001  5.997118e-001
      vertex -3.999396e-002 -3.125000e-002  6.099255e-001
    endloop
  endfacet
  facet normal -4.713969e-001  0.000000e+000  8.819212e-001
    outer loop
      vertex -3.999396e-002 -3.125000e-002  6.099255e-001
      vertex -5.910250e-002 -2.187500e-001  5.997118e-001
      vertex -3.999396e-002 -2.187500e-001  6.099255e-001
    endloop
  endfacet
  facet normal -2.902855e-001  0.000000e+000  9.569401e-001
    outer loop
      vertex -3.999396e-002 -3.125000e-002  6.099255e-001
      vertex -3.999396e-002 -2.187500e-001  6.099255e-001
      vertex -1.925998e-002 -3.125000e-002  6.162151e-001
    endloop
  endfacet
  facet normal -2.902855e-001  0.000000e+000  9.569401e-001
    outer loop
      vertex -1.925998e-002 -3.125000e-002  6.162151e-001
      vertex -3.999396e-002 -2.187500e-001  6.099255e-001
      vertex -1.925998e-002 -2.187500e-001  6.162151e-001
    endloop
  endfacet
  facet normal -9.801628e-002  0.000000e+000  9.951848e-001
    outer loop
      vertex -1.925998e-002 -3.125000e-002  6.162151e-001
      vertex -1.925998e-002 -2.187500e-001  6.162151e-001
      vertex  2.302632e-003 -3.125000e-002  6.183388e-001
    endloop
  endfacet
  facet normal -9.801628e-002  0.000000e+000  9.951848e-001
    outer loop
      vertex  2.302632e-003 -3.125000e-002  6.183388e-001
      vertex -1.925998e-002 -2.187500e-001  6.162151e-001
      vertex  2.302632e-003 -2.187500e-001  6.183388e-001
    endloop
  endfacet
  facet normal  9.801629e-002  -0.000000e+000  9.951848e-001
    outer loop
      vertex  2.302632e-003 -3.125000e-002  6.183388e-001
      vertex  2.302632e-003 -2.187500e-001  6.183388e-001
      vertex  2.386525e-002 -3.125000e-002  6.162151e-001
    endloop
  endfacet
  facet normal  9.801629e-002  0.000000e+000  9.951848e-001
    outer loop
      vertex  2.386525e-002 -3.125000e-002  6.162151e-001
      vertex  2.302632e-003 -2.187500e-001  6.183388e-001
      vertex  2.386525e-002 -2.187500e-001  6.162151e-001
    endloop
  endfacet
  facet normal  2.902855e-001  -0.000000e+000  9.569401e-001
    outer loop
      vertex  2.386525e-002 -3.125000e-002  6.162151e-001
      vertex  2.386525e-002 -2.187500e-001  6.162151e-001
      vertex  4.459922e-002 -3.125000e-002  6.099255e-001
    endloop
  endfacet
  facet normal  2.902855e-001  0.000000e+000  9.569401e-001
    outer loop
      vertex  4.459922e-002 -3.125000e-002  6.099255e-001
      vertex  2.386525e-002 -2.187500e-001  6.162151e-001
      vertex  4.459922e-002 -2.187500e-001  6.099255e-001
    endloop
  endfacet
  facet normal  4.713969e-001  -0.000000e+000  8.819212e-001
    outer loop
      vertex  4.459922e-002 -3.125000e-002  6.099255e-001
      vertex  4.459922e-002 -2.187500e-001  6.099255e-001
      vertex  6.370776e-002 -3.125000e-002  5.997118e-001
    endloop
  endfacet
  facet normal  4.713969e-001  0.000000e+000  8.819212e-001
    outer loop
      vertex  6.370776e-002 -3.125000e-002  5.997118e-001
      vertex  4.459922e-002 -2.187500e-001  6.099255e-001
      vertex  6.370776e-002 -2.187500e-001  5.997118e-001
    endloop
  endfacet
  facet normal  6.343933e-001  -0.000000e+000  7.730104e-001
    outer loop
      vertex  6.370776e-002 -3.125000e-002  5.997118e-001
      vertex  6.370776e-002 -2.187500e-001  5.997118e-001
      vertex  8.045654e-002 -3.125000e-002  5.859664e-001
    endloop
  endfacet
  facet normal  6.343933e-001  0.000000e+000  7.730104e-001
    outer loop
      vertex  8.045654e-002 -3.125000e-002  5.859664e-001
      vertex  6.370776e-002 -2.187500e-001  5.997118e-001
      vertex  8.045654e-002 -2.187500e-001  5.859664e-001
    endloop
  endfacet
  facet normal  7.730107e-001  -0.000000e+000  6.343932e-001
    outer loop
      vertex  8.045654e-002 -3.125000e-002  5.859664e-001
      vertex  8.045654e-002 -2.187500e-001  5.859664e-001
      vertex  9.420191e-002 -3.125000e-002  5.692176e-001
    endloop
  endfacet
  facet normal  7.730107e-001  0.000000e+000  6.343932e-001
    outer loop
      vertex  9.420191e-002 -3.125000e-002  5.692176e-001
      vertex  8.045654e-002 -2.187500e-001  5.859664e-001
      vertex  9.420191e-002 -2.187500e-001  5.692176e-001
    endloop
  endfacet
  facet normal  8.819213e-001  -0.000000e+000  4.713968e-001
    outer loop
      vertex  9.420191e-002 -3.125000e-002  5.692176e-001
      vertex  9.420191e-002 -2.187500e-001  5.692176e-001
      vertex  1.044156e-001 -3.125000e-002  5.501091e-001
    endloop
  endfacet
  facet normal  8.819213e-001  0.000000e+000  4.713968e-001
    outer loop
      vertex  1.044156e-001 -3.125000e-002  5.501091e-001
      vertex  9.420191e-002 -2.187500e-001  5.692176e-001
      vertex  1.044156e-001 -2.187500e-001  5.501091e-001
    endloop
  endfacet
  facet normal  9.569403e-001  -0.000000e+000  2.902848e-001
    outer loop
      vertex  1.044156e-001 -3.125000e-002  5.501091e-001
      vertex  1.044156e-001 -2.187500e-001  5.501091e-001
      vertex  1.107052e-001 -3.125000e-002  5.293751e-001
    endloop
  endfacet
  facet normal  9.569403e-001  0.000000e+000  2.902848e-001
    outer loop
      vertex  1.107052e-001 -3.125000e-002  5.293751e-001
      vertex  1.044156e-001 -2.187500e-001  5.501091e-001
      vertex  1.107052e-001 -2.187500e-001  5.293751e-001
    endloop
  endfacet
  facet normal  9.951847e-001  -0.000000e+000  9.801721e-002
    outer loop
      vertex  1.107052e-001 -3.125000e-002  5.293751e-001
      vertex  1.107052e-001 -2.187500e-001  5.293751e-001
      vertex  1.128289e-001 -3.125000e-002  5.078125e-001
    endloop
  endfacet
  facet normal  9.951847e-001  0.000000e+000  9.801721e-002
    outer loop
      vertex  1.128289e-001 -3.125000e-002  5.078125e-001
      vertex  1.107052e-001 -2.187500e-001  5.293751e-001
      vertex  1.128289e-001 -2.187500e-001  5.078125e-001
    endloop
  endfacet
  facet normal -9.657444e-001  2.414341e-001 -9.511739e-002
    outer loop
      vertex -1.082237e-001 -3.125000e-002  5.078125e-001
      vertex -1.004112e-001  6.569049e-018  5.078118e-001
      vertex -1.061000e-001 -3.125000e-002  4.862499e-001
    endloop
  endfacet
  facet normal -9.657436e-001  2.414360e-001 -9.512034e-002
    outer loop
      vertex -1.061000e-001 -3.125000e-002  4.862499e-001
      vertex -1.004112e-001  6.569049e-018  5.078118e-001
      vertex -9.843757e-002  4.453964e-018  4.877740e-001
    endloop
  endfacet
  facet normal -9.286310e-001  2.414358e-001 -2.816972e-001
    outer loop
      vertex -1.061000e-001 -3.125000e-002  4.862499e-001
      vertex -9.843757e-002  4.453964e-018  4.877740e-001
      vertex -9.981037e-002 -3.125000e-002  4.655159e-001
    endloop
  endfacet
  facet normal -9.286308e-001  2.414360e-001 -2.816974e-001
    outer loop
      vertex -9.981037e-002 -3.125000e-002  4.655159e-001
      vertex -9.843757e-002  4.453964e-018  4.877740e-001
      vertex -9.259256e-002  2.639205e-018  4.685056e-001
    endloop
  endfacet
  facet normal -8.558311e-001  2.414359e-001 -4.574513e-001
    outer loop
      vertex -9.981037e-002 -3.125000e-002  4.655159e-001
      vertex -9.259256e-002  2.639205e-018  4.685056e-001
      vertex -8.959664e-002 -3.125000e-002  4.464074e-001
    endloop
  endfacet
  facet normal -8.558313e-001  2.414358e-001 -4.574512e-001
    outer loop
      vertex -8.959664e-002 -3.125000e-002  4.464074e-001
      vertex -9.259256e-002  2.639205e-018  4.685056e-001
      vertex -8.310079e-002  1.194585e-018  4.507478e-001
    endloop
  endfacet
  facet normal -7.501425e-001  2.414358e-001 -6.156257e-001
    outer loop
      vertex -8.959664e-002 -3.125000e-002  4.464074e-001
      vertex -8.310079e-002  1.194585e-018  4.507478e-001
      vertex -7.585128e-002 -3.125000e-002  4.296586e-001
    endloop
  endfacet
  facet normal -7.501421e-001  2.414361e-001 -6.156261e-001
    outer loop
      vertex -7.585128e-002 -3.125000e-002  4.296586e-001
      vertex -8.310079e-002  1.194585e-018  4.507478e-001
      vertex -7.032701e-002  1.756220e-019  4.351829e-001
    endloop
  endfacet
  facet normal -6.156259e-001  2.414361e-001 -7.501423e-001
    outer loop
      vertex -7.585128e-002 -3.125000e-002  4.296586e-001
      vertex -7.032701e-002  1.756220e-019  4.351829e-001
      vertex -5.910250e-002 -3.125000e-002  4.159132e-001
    endloop
  endfacet
  facet normal -6.156258e-001  2.414361e-001 -7.501423e-001
    outer loop
      vertex -5.910250e-002 -3.125000e-002  4.159132e-001
      vertex -7.032701e-002  1.756220e-019  4.351829e-001
      vertex -5.476211e-002 -3.785272e-019  4.224091e-001
    endloop
  endfacet
  facet normal -4.574514e-001  2.414361e-001 -8.558310e-001
    outer loop
      vertex -5.910250e-002 -3.125000e-002  4.159132e-001
      vertex -5.476211e-002 -3.785272e-019  4.224091e-001
      vertex -3.999396e-002 -3.125000e-002  4.056995e-001
    endloop
  endfacet
  facet normal -4.574511e-001  2.414364e-001 -8.558311e-001
    outer loop
      vertex -3.999396e-002 -3.125000e-002  4.056995e-001
      vertex -5.476211e-002 -3.785272e-019  4.224091e-001
      vertex -3.700424e-002 -4.465666e-019  4.129173e-001
    endloop
  endfacet
  facet normal -2.816966e-001  2.414364e-001 -9.286309e-001
    outer loop
      vertex -3.999396e-002 -3.125000e-002  4.056995e-001
      vertex -3.700424e-002 -4.465666e-019  4.129173e-001
      vertex -1.925998e-002 -3.125000e-002  3.994099e-001
    endloop
  endfacet
  facet normal -2.816973e-001  2.414360e-001 -9.286308e-001
    outer loop
      vertex -1.925998e-002 -3.125000e-002  3.994099e-001
      vertex -3.700424e-002 -4.465666e-019  4.129173e-001
      vertex -1.773584e-002 -2.588136e-020  4.070723e-001
    endloop
  endfacet
  facet normal -9.511797e-002  2.414360e-001 -9.657439e-001
    outer loop
      vertex -1.925998e-002 -3.125000e-002  3.994099e-001
      vertex -1.773584e-002 -2.588136e-020  4.070723e-001
      vertex  2.302632e-003 -3.125000e-002  3.972862e-001
    endloop
  endfacet
  facet normal -9.511804e-002  2.414360e-001 -9.657438e-001
    outer loop
      vertex  2.302632e-003 -3.125000e-002  3.972862e-001
      vertex -1.773584e-002 -2.588136e-020  4.070723e-001
      vertex  2.302632e-003  8.673617e-019  4.050987e-001
    endloop
  endfacet
  facet normal  9.511798e-002  2.414360e-001 -9.657439e-001
    outer loop
      vertex  2.302632e-003 -3.125000e-002  3.972862e-001
      vertex  2.302632e-003  8.673617e-019  4.050987e-001
      vertex  2.386525e-002 -3.125000e-002  3.994099e-001
    endloop
  endfacet
  facet normal  9.511804e-002  2.414360e-001 -9.657438e-001
    outer loop
      vertex  2.386525e-002 -3.125000e-002  3.994099e-001
      vertex  2.302632e-003  8.673617e-019  4.050987e-001
      vertex  2.234110e-002  2.198836e-018  4.070723e-001
    endloop
  endfacet
  facet normal  2.816967e-001  2.414360e-001 -9.286311e-001
    outer loop
      vertex  2.386525e-002 -3.125000e-002  3.994099e-001
      vertex  2.234110e-002  2.198836e-018  4.070723e-001
      vertex  4.459922e-002 -3.125000e-002  4.056995e-001
    endloop
  endfacet
  facet normal  2.816972e-001  2.414364e-001 -9.286308e-001
    outer loop
      vertex  4.459922e-002 -3.125000e-002  4.056995e-001
      vertex  2.234110e-002  2.198836e-018  4.070723e-001
      vertex  4.160951e-002  3.917373e-018  4.129173e-001
    endloop
  endfacet
  facet normal  4.574514e-001  2.414363e-001 -8.558310e-001
    outer loop
      vertex  4.459922e-002 -3.125000e-002  4.056995e-001
      vertex  4.160951e-002  3.917373e-018  4.129173e-001
      vertex  6.370776e-002 -3.125000e-002  4.159132e-001
    endloop
  endfacet
  facet normal  4.574511e-001  2.414362e-001 -8.558313e-001
    outer loop
      vertex  6.370776e-002 -3.125000e-002  4.159132e-001
      vertex  4.160951e-002  3.917373e-018  4.129173e-001
      vertex  5.936737e-002  5.956931e-018  4.224091e-001
    endloop
  endfacet
  facet normal  6.156259e-001  2.414361e-001 -7.501423e-001
    outer loop
      vertex  6.370776e-002 -3.125000e-002  4.159132e-001
      vertex  5.936737e-002  5.956931e-018  4.224091e-001
      vertex  8.045654e-002 -3.125000e-002  4.296586e-001
    endloop
  endfacet
  facet normal  6.156258e-001  2.414361e-001 -7.501423e-001
    outer loop
      vertex  8.045654e-002 -3.125000e-002  4.296586e-001
      vertex  5.936737e-002  5.956931e-018  4.224091e-001
      vertex  7.493227e-002  8.239132e-018  4.351829e-001
    endloop
  endfacet
  facet normal  7.501424e-001  2.414361e-001 -6.156257e-001
    outer loop
      vertex  8.045654e-002 -3.125000e-002  4.296586e-001
      vertex  7.493227e-002  8.239132e-018  4.351829e-001
      vertex  9.420191e-002 -3.125000e-002  4.464074e-001
    endloop
  endfacet
  facet normal  7.501422e-001  2.414357e-001 -6.156262e-001
    outer loop
      vertex  9.420191e-002 -3.125000e-002  4.464074e-001
      vertex  7.493227e-002  8.239132e-018  4.351829e-001
      vertex  8.770605e-002  1.067627e-017  4.507478e-001
    endloop
  endfacet
  facet normal  8.558311e-001  2.414358e-001 -4.574513e-001
    outer loop
      vertex  9.420191e-002 -3.125000e-002  4.464074e-001
      vertex  8.770605e-002  1.067627e-017  4.507478e-001
      vertex  1.044156e-001 -3.125000e-002  4.655159e-001
    endloop
  endfacet
  facet normal  8.558313e-001  2.414359e-001 -4.574511e-001
    outer loop
      vertex  1.044156e-001 -3.125000e-002  4.655159e-001
      vertex  8.770605e-002  1.067627e-017  4.507478e-001
      vertex  9.719782e-002  1.317469e-017  4.685056e-001
    endloop
  endfacet
  facet normal  9.286310e-001  2.414360e-001 -2.816969e-001
    outer loop
      vertex  1.044156e-001 -3.125000e-002  4.655159e-001
      vertex  9.719782e-002  1.317469e-017  4.685056e-001
      vertex  1.107052e-001 -3.125000e-002  4.862499e-001
    endloop
  endfacet
  facet normal  9.286309e-001  2.414356e-001 -2.816974e-001
    outer loop
      vertex  1.107052e-001 -3.125000e-002  4.862499e-001
      vertex  9.719782e-002  1.317469e-017  4.685056e-001
      vertex  1.030428e-001  1.563837e-017  4.877740e-001
    endloop
  endfacet
  facet normal  9.657439e-001  2.414357e-001 -9.511767e-002
    outer loop
      vertex  1.107052e-001 -3.125000e-002  4.862499e-001
      vertex  1.030428e-001  1.563837e-017  4.877740e-001
      vertex  1.128289e-001 -3.125000e-002  5.078125e-001
    endloop
  endfacet
  facet normal  9.657440e-001  2.414360e-001 -9.511727e-002
    outer loop
      vertex  1.128289e-001 -3.125000e-002  5.078125e-001
      vertex  1.030428e-001  1.563837e-017  4.877740e-001
      vertex  1.050164e-001  1.797265e-017  5.078125e-001
    endloop
  endfacet
  facet normal  9.300445e-001  2.354195e-001  2.821260e-001
    outer loop
      vertex  9.808038e-002  2.170706e-017  5.449171e-001
      vertex  1.044156e-001 -3.125000e-002  5.501091e-001
      vertex  1.107052e-001 -3.125000e-002  5.293751e-001
    endloop
  endfacet
  facet normal  8.576470e-001  2.330041e-001  4.584219e-001
    outer loop
      vertex  8.963162e-002  2.312181e-017  5.618845e-001
      vertex  9.420191e-002 -3.125000e-002  5.692176e-001
      vertex  1.044156e-001 -3.125000e-002  5.501091e-001
    endloop
  endfacet
  facet normal  8.672949e-001  2.475762e-001  4.318628e-001
    outer loop
      vertex  8.963162e-002  2.312181e-017  5.618845e-001
      vertex  1.044156e-001 -3.125000e-002  5.501091e-001
      vertex  9.808038e-002  2.170706e-017  5.449171e-001
    endloop
  endfacet
  facet normal  7.521058e-001  2.309878e-001  6.172370e-001
    outer loop
      vertex  7.820895e-002  2.416705e-017  5.770105e-001
      vertex  8.045654e-002 -3.125000e-002  5.859664e-001
      vertex  9.420191e-002 -3.125000e-002  5.692176e-001
    endloop
  endfacet
  facet normal  7.726896e-001  2.499325e-001  5.835105e-001
    outer loop
      vertex  7.820895e-002  2.416705e-017  5.770105e-001
      vertex  9.420191e-002 -3.125000e-002  5.692176e-001
      vertex  8.963162e-002  2.312181e-017  5.618845e-001
    endloop
  endfacet
  facet normal  6.174797e-001  2.293715e-001  7.524012e-001
    outer loop
      vertex  6.420138e-002  2.480718e-017  5.897800e-001
      vertex  6.370776e-002 -3.125000e-002  5.997118e-001
      vertex  8.045654e-002 -3.125000e-002  5.859664e-001
    endloop
  endfacet
  facet normal  6.519782e-001  2.518578e-001  7.151867e-001
    outer loop
      vertex  6.420138e-002  2.480718e-017  5.897800e-001
      vertex  8.045654e-002 -3.125000e-002  5.859664e-001
      vertex  7.820895e-002  2.416705e-017  5.770105e-001
    endloop
  endfacet
  facet normal  4.589634e-001  2.281581e-001  8.586597e-001
    outer loop
      vertex  4.808591e-002  2.502040e-017  5.997583e-001
      vertex  4.459922e-002 -3.125000e-002  6.099255e-001
      vertex  6.370776e-002 -3.125000e-002  5.997118e-001
    endloop
  endfacet
  facet normal  5.092552e-001  2.533527e-001  8.224789e-001
    outer loop
      vertex  4.808591e-002  2.502040e-017  5.997583e-001
      vertex  6.370776e-002 -3.125000e-002  5.997118e-001
      vertex  6.420138e-002  2.480718e-017  5.897800e-001
    endloop
  endfacet
  facet normal  2.826838e-001  2.273497e-001  9.318809e-001
    outer loop
      vertex  3.041133e-002  2.479944e-017  6.066054e-001
      vertex  2.386525e-002 -3.125000e-002  6.162151e-001
      vertex  4.459922e-002 -3.125000e-002  6.099255e-001
    endloop
  endfacet
  facet normal  3.493510e-001  2.544203e-001  9.017895e-001
    outer loop
      vertex  3.041133e-002  2.479944e-017  6.066054e-001
      vertex  4.459922e-002 -3.125000e-002  6.099255e-001
      vertex  4.808591e-002  2.502040e-017  5.997583e-001
    endloop
  endfacet
  facet normal  9.545882e-002  2.269449e-001  9.692181e-001
    outer loop
      vertex  1.177955e-002  2.415184e-017  6.100882e-001
      vertex  2.302632e-003 -3.125000e-002  6.183388e-001
      vertex  2.386525e-002 -3.125000e-002  6.162151e-001
    endloop
  endfacet
  facet normal  1.776688e-001  2.550615e-001  9.504617e-001
    outer loop
      vertex  1.177955e-002  2.415184e-017  6.100882e-001
      vertex  2.386525e-002 -3.125000e-002  6.162151e-001
      vertex  3.041133e-002  2.479944e-017  6.066054e-001
    endloop
  endfacet
  facet normal -9.545881e-002  2.269447e-001  9.692181e-001
    outer loop
      vertex -7.174958e-003  2.309965e-017  6.100881e-001
      vertex -1.925998e-002 -3.125000e-002  6.162151e-001
      vertex  2.302632e-003 -3.125000e-002  6.183388e-001
    endloop
  endfacet
  facet normal -3.040430e-006  2.552745e-001  9.668686e-001
    outer loop
      vertex -7.174958e-003  2.309965e-017  6.100881e-001
      vertex  2.302632e-003 -3.125000e-002  6.183388e-001
      vertex  1.177955e-002  2.415184e-017  6.100882e-001
    endloop
  endfacet
  facet normal -2.826839e-001  2.273492e-001  9.318811e-001
    outer loop
      vertex -2.580672e-002  2.167869e-017  6.066052e-001
      vertex -3.999396e-002 -3.125000e-002  6.099255e-001
      vertex -1.925998e-002 -3.125000e-002  6.162151e-001
    endloop
  endfacet
  facet normal -1.776748e-001  2.550617e-001  9.504606e-001
    outer loop
      vertex -2.580672e-002  2.167869e-017  6.066052e-001
      vertex -1.925998e-002 -3.125000e-002  6.162151e-001
      vertex -7.174958e-003  2.309965e-017  6.100881e-001
    endloop
  endfacet
  facet normal -4.589635e-001  2.281574e-001  8.586599e-001
    outer loop
      vertex -4.348125e-002  1.993737e-017  5.997580e-001
      vertex -5.910250e-002 -3.125000e-002  5.997118e-001
      vertex -3.999396e-002 -3.125000e-002  6.099255e-001
    endloop
  endfacet
  facet normal -3.493569e-001  2.544207e-001  9.017870e-001
    outer loop
      vertex -4.348125e-002  1.993737e-017  5.997580e-001
      vertex -3.999396e-002 -3.125000e-002  6.099255e-001
      vertex -2.580672e-002  2.167869e-017  6.066052e-001
    endloop
  endfacet
  facet normal -6.174798e-001  2.293709e-001  7.524013e-001
    outer loop
      vertex -5.959665e-002  1.793496e-017  5.897796e-001
      vertex -7.585128e-002 -3.125000e-002  5.859664e-001
      vertex -5.910250e-002 -3.125000e-002  5.997118e-001
    endloop
  endfacet
  facet normal -5.092610e-001  2.533536e-001  8.224750e-001
    outer loop
      vertex -5.959665e-002  1.793496e-017  5.897796e-001
      vertex -5.910250e-002 -3.125000e-002  5.997118e-001
      vertex -4.348125e-002  1.993737e-017  5.997580e-001
    endloop
  endfacet
  facet normal -7.521060e-001  2.309864e-001  6.172372e-001
    outer loop
      vertex -7.360414e-002  1.573968e-017  5.770100e-001
      vertex -8.959664e-002 -3.125000e-002  5.692176e-001
      vertex -7.585128e-002 -3.125000e-002  5.859664e-001
    endloop
  endfacet
  facet normal -6.519818e-001  2.518585e-001  7.151831e-001
    outer loop
      vertex -7.360414e-002  1.573968e-017  5.770100e-001
      vertex -7.585128e-002 -3.125000e-002  5.859664e-001
      vertex -5.959665e-002  1.793496e-017  5.897796e-001
    endloop
  endfacet
  facet normal -8.576472e-001  2.330032e-001  4.584220e-001
    outer loop
      vertex -8.502670e-002  1.342626e-017  5.618839e-001
      vertex -9.981037e-002 -3.125000e-002  5.501091e-001
      vertex -8.959664e-002 -3.125000e-002  5.692176e-001
    endloop
  endfacet
  facet normal -7.726941e-001  2.499341e-001  5.835039e-001
    outer loop
      vertex -8.502670e-002  1.342626e-017  5.618839e-001
      vertex -8.959664e-002 -3.125000e-002  5.692176e-001
      vertex -7.360414e-002  1.573968e-017  5.770100e-001
    endloop
  endfacet
  facet normal -9.300446e-001  2.354182e-001  2.821264e-001
    outer loop
      vertex -9.347536e-002  1.107351e-017  5.449165e-001
      vertex -1.061000e-001 -3.125000e-002  5.293751e-001
      vertex -9.981037e-002 -3.125000e-002  5.501091e-001
    endloop
  endfacet
  facet normal -8.672973e-001  2.475779e-001  4.318572e-001
    outer loop
      vertex -9.347536e-002  1.107351e-017  5.449165e-001
      vertex -9.981037e-002 -3.125000e-002  5.501091e-001
      vertex -8.502670e-002  1.342626e-017  5.618839e-001
    endloop
  endfacet
  facet normal -9.662461e-001  2.415634e-001  8.952966e-002
    outer loop
      vertex -1.004112e-001  6.569049e-018  5.078118e-001
      vertex -1.082237e-001 -3.125000e-002  5.078125e-001
      vertex -9.866241e-002  8.761524e-018  5.266855e-001
    endloop
  endfacet
  facet normal -9.665322e-001  2.382295e-001  9.519485e-002
    outer loop
      vertex -9.866241e-002  8.761524e-018  5.266855e-001
      vertex -1.082237e-001 -3.125000e-002  5.078125e-001
      vertex -1.061000e-001 -3.125000e-002  5.293751e-001
    endloop
  endfacet
  facet normal -9.325650e-001  2.447888e-001  2.653316e-001
    outer loop
      vertex -9.866241e-002  8.761524e-018  5.266855e-001
      vertex -1.061000e-001 -3.125000e-002  5.293751e-001
      vertex -9.347536e-002  1.107351e-017  5.449165e-001
    endloop
  endfacet
  facet normal  9.657439e-001  2.414360e-001  9.511755e-002
    outer loop
      vertex  1.128289e-001 -3.125000e-002  5.078125e-001
      vertex  1.050164e-001  1.797265e-017  5.078125e-001
      vertex  1.107052e-001 -3.125000e-002  5.293751e-001
    endloop
  endfacet
  facet normal  9.671469e-001  2.378978e-001  8.961961e-002
    outer loop
      vertex  1.107052e-001 -3.125000e-002  5.293751e-001
      vertex  1.050164e-001  1.797265e-017  5.078125e-001
      vertex  1.032675e-001  1.997096e-017  5.266861e-001
    endloop
  endfacet
  facet normal  9.325638e-001  2.447870e-001  2.653374e-001
    outer loop
      vertex  1.107052e-001 -3.125000e-002  5.293751e-001
      vertex  1.032675e-001  1.997096e-017  5.266861e-001
      vertex  9.808038e-002  2.170706e-017  5.449171e-001
    endloop
  endfacet
  facet normal  0.000000e+000 -9.999999e-001  0.000000e+000
    outer loop
      vertex -1.925998e-002 -2.187500e-001  6.162151e-001
      vertex  2.386525e-002 -2.187500e-001  6.162151e-001
      vertex  2.302632e-003 -2.187500e-001  6.183388e-001
    endloop
  endfacet
  facet normal  0.000000e+000 -1.000000e+000  -0.000000e+000
    outer loop
      vertex  2.386525e-002 -2.187500e-001  6.162151e-001
      vertex -1.925998e-002 -2.187500e-001  6.162151e-001
      vertex -3.999396e-002 -2.187500e-001  6.099255e-001
    endloop
  endfacet
  facet normal  0.000000e+000 -1.000000e+000  0.000000e+000
    outer loop
      vertex  2.386525e-002 -2.187500e-001  6.162151e-001
      vertex -3.999396e-002 -2.187500e-001  6.099255e-001
      vertex  4.459922e-002 -2.187500e-001  6.099255e-001
    endloop
  endfacet
  facet normal  0.000000e+000 -1.000000e+000  -0.000000e+000
    outer loop
      vertex  4.459922e-002 -2.187500e-001  6.099255e-001
      vertex -3.999396e-002 -2.187500e-001  6.099255e-001
      vertex -5.910250e-002 -2.187500e-001  5.997118e-001
    endloop
  endfacet
  facet normal  0.000000e+000 -1.000000e+000  0.000000e+000
    outer loop
      vertex  4.459922e-002 -2.187500e-001  6.099255e-001
      vertex -5.910250e-002 -2.187500e-001  5.997118e-001
      vertex  6.370776e-002 -2.187500e-001  5.997118e-001
    endloop
  endfacet
  facet normal  0.000000e+000 -1.000000e+000  0.000000e+000
    outer loop
      vertex  6.370776e-002 -2.187500e-001  4.159132e-001
      vertex -3.999396e-002 -2.187500e-001  4.056995e-001
      vertex  4.459922e-002 -2.187500e-001  4.056995e-001
    endloop
  endfacet
  facet normal  0.000000e+000 -1.000000e+000  0.000000e+000
    outer loop
      vertex  4.459922e-002 -2.187500e-001  4.056995e-001
      vertex -3.999396e-002 -2.187500e-001  4.056995e-001
      vertex -1.925998e-002 -2.187500e-001  3.994099e-001
    endloop
  endfacet
  facet normal  0.000000e+000 -1.000000e+000  0.000000e+000
    outer loop
      vertex  4.459922e-002 -2.187500e-001  4.056995e-001
      vertex -1.925998e-002 -2.187500e-001  3.994099e-001
      vertex  2.386525e-002 -2.187500e-001  3.994099e-001
    endloop
  endfacet
  facet normal  0.000000e+000 -1.000000e+000  0.000000e+000
    outer loop
      vertex  2.386525e-002 -2.187500e-001  3.994099e-001
      vertex -1.925998e-002 -2.187500e-001  3.994099e-001
      vertex  2.302632e-003 -2.187500e-001  3.972862e-001
    endloop
  endfacet
  facet normal  0.000000e+000 -1.000000e+000  0.000000e+000
    outer loop
      vertex  6.370776e-002 -2.187500e-001  5.997118e-001
      vertex -5.910250e-002 -2.187500e-001  5.997118e-001
      vertex  8.045654e-002 -2.187500e-001  5.859664e-001
    endloop
  endfacet
  facet normal  0.000000e+000 -1.000000e+000  0.000000e+000
    outer loop
      vertex  8.045654e-002 -2.187500e-001  5.859664e-001
      vertex -5.910250e-002 -2.187500e-001  5.997118e-001
      vertex -7.585128e-002 -2.187500e-001  5.859664e-001
    endloop
  endfacet
  facet normal  0.000000e+000 -1.000000e+000  0.000000e+000
    outer loop
      vertex  8.045654e-002 -2.187500e-001  5.859664e-001
      vertex -7.585128e-002 -2.187500e-001  5.859664e-001
      vertex  9.420191e-002 -2.187500e-001  5.692176e-001
    endloop
  endfacet
  facet normal  0.000000e+000 -1.000000e+000  0.000000e+000
    outer loop
      vertex  9.420191e-002 -2.187500e-001  5.692176e-001
      vertex -7.585128e-002 -2.187500e-001  5.859664e-001
      vertex -8.959664e-002 -2.187500e-001  5.692176e-001
    endloop
  endfacet
  facet normal  0.000000e+000 -1.000000e+000  0.000000e+000
    outer loop
      vertex  9.420191e-002 -2.187500e-001  5.692176e-001
      vertex -8.959664e-002 -2.187500e-001  5.692176e-001
      vertex  1.044156e-001 -2.187500e-001  5.501091e-001
    endloop
  endfacet
  facet normal  0.000000e+000 -1.000000e+000  0.000000e+000
    outer loop
      vertex  1.044156e-001 -2.187500e-001  5.501091e-001
      vertex -8.959664e-002 -2.187500e-001  5.692176e-001
      vertex -9.981037e-002 -2.187500e-001  5.501091e-001
    endloop
  endfacet
  facet normal  0.000000e+000 -9.999999e-001  0.000000e+000
    outer loop
      vertex  1.044156e-001 -2.187500e-001  5.501091e-001
      vertex -9.981037e-002 -2.187500e-001  5.501091e-001
      vertex  1.107052e-001 -2.187500e-001  5.293751e-001
    endloop
  endfacet
  facet normal  0.000000e+000 -1.000000e+000  0.000000e+000
    outer loop
      vertex  1.107052e-001 -2.187500e-001  5.293751e-001
      vertex -9.981037e-002 -2.187500e-001  5.501091e-001
      vertex -1.061000e-001 -2.187500e-001  5.293751e-001
    endloop
  endfacet
  facet normal  0.000000e+000 -1.000000e+000  0.000000e+000
    outer loop
      vertex  1.107052e-001 -2.187500e-001  5.293751e-001
      vertex -1.061000e-001 -2.187500e-001  5.293751e-001
      vertex  1.128289e-001 -2.187500e-001  5.078125e-001
    endloop
  endfacet
  facet normal  0.000000e+000 -9.999999e-001  0.000000e+000
    outer loop
      vertex  1.128289e-001 -2.187500e-001  5.078125e-001
      vertex -1.061000e-001 -2.187500e-001  5.293751e-001
      vertex -1.082237e-001 -2.187500e-001  5.078125e-001
    endloop
  endfacet
  facet normal  0.000000e+000 -1.000000e+000  0.000000e+000
    outer loop
      vertex  1.128289e-001 -2.187500e-001  5.078125e-001
      vertex -1.082237e-001 -2.187500e-001  5.078125e-001
      vertex  1.107052e-001 -2.187500e-001  4.862499e-001
    endloop
  endfacet
  facet normal  0.000000e+000 -1.000000e+000  0.000000e+000
    outer loop
      vertex  1.107052e-001 -2.187500e-001  4.862499e-001
      vertex -1.082237e-001 -2.187500e-001  5.078125e-001
      vertex -1.061000e-001 -2.187500e-001  4.862499e-001
    endloop
  endfacet
  facet normal  0.000000e+000 -1.000000e+000  0.000000e+000
    outer loop
      vertex  1.107052e-001 -2.187500e-001  4.862499e-001
      vertex -1.061000e-001 -2.187500e-001  4.862499e-001
      vertex  1.044156e-001 -2.187500e-001  4.655159e-001
    endloop
  endfacet
  facet normal  0.000000e+000 -1.000000e+000  0.000000e+000
    outer loop
      vertex  1.044156e-001 -2.187500e-001  4.655159e-001
      vertex -1.061000e-001 -2.187500e-001  4.862499e-001
      vertex -9.981037e-002 -2.187500e-001  4.655159e-001
    endloop
  endfacet
  facet normal  0.000000e+000 -1.000000e+000  0.000000e+000
    outer loop
      vertex  1.044156e-001 -2.187500e-001  4.655159e-001
      vertex -9.981037e-002 -2.187500e-001  4.655159e-001
      vertex  9.420191e-002 -2.187500e-001  4.464074e-001
    endloop
  endfacet
  facet normal  0.000000e+000 -1.000000e+000  0.000000e+000
    outer loop
      vertex  9.420191e-002 -2.187500e-001  4.464074e-001
      vertex -9.981037e-002 -2.187500e-001  4.655159e-001
      vertex -8.959664e-002 -2.187500e-001  4.464074e-001
    endloop
  endfacet
  facet normal  0.000000e+000 -1.000000e+000  0.000000e+000
    outer loop
      vertex  9.420191e-002 -2.187500e-001  4.464074e-001
      vertex -8.959664e-002 -2.187500e-001  4.464074e-001
      vertex  8.045654e-002 -2.187500e-001  4.296586e-001
    endloop
  endfacet
  facet normal  0.000000e+000 -1.000000e+000  0.000000e+000
    outer loop
      vertex  8.045654e-002 -2.187500e-001  4.296586e-001
      vertex -8.959664e-002 -2.187500e-001  4.464074e-001
      vertex -7.585128e-002 -2.187500e-001  4.296586e-001
    endloop
  endfacet
  facet normal  0.000000e+000 -1.000000e+000  0.000000e+000
    outer loop
      vertex  8.045654e-002 -2.187500e-001  4.296586e-001
      vertex -7.585128e-002 -2.187500e-001  4.296586e-001
      vertex  6.370776e-002 -2.187500e-001  4.159132e-001
    endloop
  endfacet
  facet normal  0.000000e+000 -1.000000e+000  0.000000e+000
    outer loop
      vertex  6.370776e-002 -2.187500e-001  4.159132e-001
      vertex -7.585128e-002 -2.187500e-001  4.296586e-001
      vertex -5.910250e-002 -2.187500e-001  4.159132e-001
    endloop
  endfacet
  facet normal  0.000000e+000 -1.000000e+000  0.000000e+000
    outer loop
      vertex  6.370776e-002 -2.187500e-001  4.159132e-001
      vertex -5.910250e-002 -2.187500e-001  4.159132e-001
      vertex -3.999396e-002 -2.187500e-001  4.056995e-001
    endloop
  endfacet
endsolid CATIA STL
