solid CATIA STL
  facet normal  0.000000e+000  0.000000e+000  1.000000e+000
    outer loop
      vertex -6.646382e-001 -6.568257e-001  1.718750e-001
      vertex  7.349507e-001 -6.568257e-001  1.718750e-001
      vertex -6.646382e-001 -1.306743e-001  1.718750e-001
    endloop
  endfacet
  facet normal  -0.000000e+000  0.000000e+000  1.000000e+000
    outer loop
      vertex -6.646382e-001 -1.306743e-001  1.718750e-001
      vertex  7.349507e-001 -6.568257e-001  1.718750e-001
      vertex  7.349507e-001 -1.306743e-001  1.718750e-001
    endloop
  endfacet
  facet normal -1.000000e+000  0.000000e+000  0.000000e+000
    outer loop
      vertex -6.646382e-001 -6.568257e-001  0.000000e+000
      vertex -6.646382e-001 -6.568257e-001  1.718750e-001
      vertex -6.646382e-001 -1.150493e-001  0.000000e+000
    endloop
  endfacet
  facet normal -1.000000e+000  0.000000e+000  0.000000e+000
    outer loop
      vertex -6.646382e-001 -1.150493e-001  0.000000e+000
      vertex -6.646382e-001 -6.568257e-001  1.718750e-001
      vertex -6.646382e-001 -1.306743e-001  1.718750e-001
    endloop
  endfacet
  facet normal -1.000000e+000  0.000000e+000  0.000000e+000
    outer loop
      vertex -6.646382e-001 -1.150493e-001  0.000000e+000
      vertex -6.646382e-001 -1.306743e-001  1.718750e-001
      vertex -6.646382e-001 -1.150493e-001  1.171875e-001
    endloop
  endfacet
  facet normal  0.000000e+000  1.000000e+000  -0.000000e+000
    outer loop
      vertex  7.349507e-001 -1.150493e-001  1.171875e-001
      vertex  7.349507e-001 -1.150493e-001  0.000000e+000
      vertex -6.646382e-001 -1.150493e-001  1.171875e-001
    endloop
  endfacet
  facet normal  0.000000e+000  1.000000e+000  0.000000e+000
    outer loop
      vertex -6.646382e-001 -1.150493e-001  1.171875e-001
      vertex  7.349507e-001 -1.150493e-001  0.000000e+000
      vertex -6.646382e-001 -1.150493e-001  0.000000e+000
    endloop
  endfacet
  facet normal  1.000000e+000  0.000000e+000  0.000000e+000
    outer loop
      vertex  7.349507e-001 -6.568257e-001  1.718750e-001
      vertex  7.349507e-001 -6.568257e-001  0.000000e+000
      vertex  7.349507e-001 -1.306743e-001  1.718750e-001
    endloop
  endfacet
  facet normal  1.000000e+000  0.000000e+000  0.000000e+000
    outer loop
      vertex  7.349507e-001 -1.306743e-001  1.718750e-001
      vertex  7.349507e-001 -6.568257e-001  0.000000e+000
      vertex  7.349507e-001 -1.150493e-001  0.000000e+000
    endloop
  endfacet
  facet normal  1.000000e+000  0.000000e+000  -0.000000e+000
    outer loop
      vertex  7.349507e-001 -1.306743e-001  1.718750e-001
      vertex  7.349507e-001 -1.150493e-001  0.000000e+000
      vertex  7.349507e-001 -1.150493e-001  1.171875e-001
    endloop
  endfacet
  facet normal  0.000000e+000  9.615239e-001  2.747212e-001
    outer loop
      vertex -6.646382e-001 -1.306743e-001  1.718750e-001
      vertex  7.349507e-001 -1.306743e-001  1.718750e-001
      vertex -6.646382e-001 -1.150493e-001  1.171875e-001
    endloop
  endfacet
  facet normal  -0.000000e+000  9.615239e-001  2.747212e-001
    outer loop
      vertex -6.646382e-001 -1.150493e-001  1.171875e-001
      vertex  7.349507e-001 -1.306743e-001  1.718750e-001
      vertex  7.349507e-001 -1.150493e-001  1.171875e-001
    endloop
  endfacet
  facet normal  0.000000e+000  0.000000e+000 -1.000000e+000
    outer loop
      vertex -6.646382e-001 -6.568257e-001  0.000000e+000
      vertex -6.646382e-001 -1.150493e-001  0.000000e+000
      vertex  7.349507e-001 -6.568257e-001  0.000000e+000
    endloop
  endfacet
  facet normal  0.000000e+000  0.000000e+000 -1.000000e+000
    outer loop
      vertex  7.349507e-001 -6.568257e-001  0.000000e+000
      vertex -6.646382e-001 -1.150493e-001  0.000000e+000
      vertex  7.349507e-001 -1.150493e-001  0.000000e+000
    endloop
  endfacet
  facet normal  0.000000e+000 -1.000000e+000  0.000000e+000
    outer loop
      vertex -6.646382e-001 -6.568257e-001  1.718750e-001
      vertex -6.646382e-001 -6.568257e-001  0.000000e+000
      vertex  7.349507e-001 -6.568257e-001  1.718750e-001
    endloop
  endfacet
  facet normal  0.000000e+000 -1.000000e+000  -0.000000e+000
    outer loop
      vertex  7.349507e-001 -6.568257e-001  1.718750e-001
      vertex -6.646382e-001 -6.568257e-001  0.000000e+000
      vertex  7.349507e-001 -6.568257e-001  0.000000e+000
    endloop
  endfacet
endsolid CATIA STL
