solid CATIA STL
  facet normal  -0.000000e+000  0.000000e+000  1.000000e+000
    outer loop
      vertex  2.370066e-001 -1.562500e-002  2.526316e-001
      vertex  1.562500e-002 -1.562500e-002  2.526316e-001
      vertex  2.370066e-001 -7.343750e-001  2.526316e-001
    endloop
  endfacet
  facet normal  0.000000e+000  0.000000e+000  1.000000e+000
    outer loop
      vertex  2.370066e-001 -7.343750e-001  2.526316e-001
      vertex  1.562500e-002 -1.562500e-002  2.526316e-001
      vertex  1.562500e-002 -7.343750e-001  2.526316e-001
    endloop
  endfacet
  facet normal  0.000000e+000  1.000000e+000  0.000000e+000
    outer loop
      vertex  2.213816e-001  0.000000e+000  2.135691e-001
      vertex  2.526316e-001  0.000000e+000  2.916941e-001
      vertex  4.973684e-001  0.000000e+000 -3.045503e-017
    endloop
  endfacet
  facet normal  0.000000e+000  1.000000e+000  0.000000e+000
    outer loop
      vertex  4.973684e-001  0.000000e+000 -3.045503e-017
      vertex  2.526316e-001  0.000000e+000  2.916941e-001
      vertex  2.526316e-001  0.000000e+000  7.500000e-001
    endloop
  endfacet
  facet normal  -0.000000e+000  1.000000e+000  0.000000e+000
    outer loop
      vertex  4.973684e-001  0.000000e+000 -3.045503e-017
      vertex  2.526316e-001  0.000000e+000  7.500000e-001
      vertex  4.973684e-001  0.000000e+000  7.500000e-001
    endloop
  endfacet
  facet normal  0.000000e+000  1.000000e+000  0.000000e+000
    outer loop
      vertex  1.307733e-017  0.000000e+000  2.135691e-001
      vertex  2.213816e-001  0.000000e+000  2.135691e-001
      vertex  0.000000e+000  0.000000e+000  0.000000e+000
    endloop
  endfacet
  facet normal  -0.000000e+000  1.000000e+000  0.000000e+000
    outer loop
      vertex  0.000000e+000  0.000000e+000  0.000000e+000
      vertex  2.213816e-001  0.000000e+000  2.135691e-001
      vertex  4.973684e-001  0.000000e+000 -3.045503e-017
    endloop
  endfacet
  facet normal  0.000000e+000 -1.000000e+000  0.000000e+000
    outer loop
      vertex  4.973684e-001 -7.500000e-001  7.500000e-001
      vertex  2.526316e-001 -7.500000e-001  7.500000e-001
      vertex  4.973684e-001 -7.500000e-001 -3.045503e-017
    endloop
  endfacet
  facet normal  0.000000e+000 -1.000000e+000  0.000000e+000
    outer loop
      vertex  4.973684e-001 -7.500000e-001 -3.045503e-017
      vertex  2.526316e-001 -7.500000e-001  7.500000e-001
      vertex  2.526316e-001 -7.500000e-001  2.916941e-001
    endloop
  endfacet
  facet normal  0.000000e+000 -1.000000e+000  -0.000000e+000
    outer loop
      vertex  4.973684e-001 -7.500000e-001 -3.045503e-017
      vertex  2.526316e-001 -7.500000e-001  2.916941e-001
      vertex  2.213816e-001 -7.500000e-001  2.135691e-001
    endloop
  endfacet
  facet normal  0.000000e+000 -1.000000e+000  0.000000e+000
    outer loop
      vertex  1.307733e-017 -7.500000e-001  2.135691e-001
      vertex  0.000000e+000 -7.500000e-001  0.000000e+000
      vertex  2.213816e-001 -7.500000e-001  2.135691e-001
    endloop
  endfacet
  facet normal  0.000000e+000 -1.000000e+000  -0.000000e+000
    outer loop
      vertex  2.213816e-001 -7.500000e-001  2.135691e-001
      vertex  0.000000e+000 -7.500000e-001  0.000000e+000
      vertex  4.973684e-001 -7.500000e-001 -3.045503e-017
    endloop
  endfacet
  facet normal -9.999999e-001  0.000000e+000  6.123234e-017
    outer loop
      vertex  1.307733e-017  0.000000e+000  2.135691e-001
      vertex  0.000000e+000  0.000000e+000  0.000000e+000
      vertex  1.307733e-017 -7.500000e-001  2.135691e-001
    endloop
  endfacet
  facet normal -9.999999e-001  0.000000e+000  6.123234e-017
    outer loop
      vertex  1.307733e-017 -7.500000e-001  2.135691e-001
      vertex  0.000000e+000  0.000000e+000  0.000000e+000
      vertex  0.000000e+000 -7.500000e-001  0.000000e+000
    endloop
  endfacet
  facet normal -9.284767e-001  0.000000e+000  3.713907e-001
    outer loop
      vertex  2.370066e-001 -1.562500e-002  2.526316e-001
      vertex  2.526316e-001  0.000000e+000  2.916941e-001
      vertex  2.213816e-001  0.000000e+000  2.135691e-001
    endloop
  endfacet
  facet normal -9.284766e-001  0.000000e+000  3.713907e-001
    outer loop
      vertex  2.526316e-001  0.000000e+000  2.916941e-001
      vertex  2.370066e-001 -1.562500e-002  2.526316e-001
      vertex  2.526316e-001 -7.500000e-001  2.916941e-001
    endloop
  endfacet
  facet normal -9.284768e-001  0.000000e+000  3.713907e-001
    outer loop
      vertex  2.526316e-001 -7.500000e-001  2.916941e-001
      vertex  2.370066e-001 -1.562500e-002  2.526316e-001
      vertex  2.370066e-001 -7.343750e-001  2.526316e-001
    endloop
  endfacet
  facet normal -9.284767e-001  0.000000e+000  3.713907e-001
    outer loop
      vertex  2.526316e-001 -7.500000e-001  2.916941e-001
      vertex  2.370066e-001 -7.343750e-001  2.526316e-001
      vertex  2.213816e-001 -7.500000e-001  2.135691e-001
    endloop
  endfacet
  facet normal  1.000000e+000  0.000000e+000  0.000000e+000
    outer loop
      vertex  4.973684e-001  0.000000e+000 -3.045503e-017
      vertex  4.973684e-001  0.000000e+000  7.500000e-001
      vertex  4.973684e-001 -7.500000e-001 -3.045503e-017
    endloop
  endfacet
  facet normal  1.000000e+000  0.000000e+000  0.000000e+000
    outer loop
      vertex  4.973684e-001 -7.500000e-001 -3.045503e-017
      vertex  4.973684e-001  0.000000e+000  7.500000e-001
      vertex  4.973684e-001 -7.500000e-001  7.500000e-001
    endloop
  endfacet
  facet normal  0.000000e+000 -9.284767e-001  3.713907e-001
    outer loop
      vertex  1.307733e-017 -7.500000e-001  2.135691e-001
      vertex  2.213816e-001 -7.500000e-001  2.135691e-001
      vertex  1.562500e-002 -7.343750e-001  2.526316e-001
    endloop
  endfacet
  facet normal  0.000000e+000 -9.284767e-001  3.713907e-001
    outer loop
      vertex  1.562500e-002 -7.343750e-001  2.526316e-001
      vertex  2.213816e-001 -7.500000e-001  2.135691e-001
      vertex  2.370066e-001 -7.343750e-001  2.526316e-001
    endloop
  endfacet
  facet normal -9.284766e-001  0.000000e+000  3.713907e-001
    outer loop
      vertex  1.307733e-017  0.000000e+000  2.135691e-001
      vertex  1.307733e-017 -7.500000e-001  2.135691e-001
      vertex  1.562500e-002 -1.562500e-002  2.526316e-001
    endloop
  endfacet
  facet normal -9.284768e-001  0.000000e+000  3.713907e-001
    outer loop
      vertex  1.562500e-002 -1.562500e-002  2.526316e-001
      vertex  1.307733e-017 -7.500000e-001  2.135691e-001
      vertex  1.562500e-002 -7.343750e-001  2.526316e-001
    endloop
  endfacet
  facet normal  0.000000e+000  9.284767e-001  3.713907e-001
    outer loop
      vertex  1.307733e-017  0.000000e+000  2.135691e-001
      vertex  1.562500e-002 -1.562500e-002  2.526316e-001
      vertex  2.213816e-001  0.000000e+000  2.135691e-001
    endloop
  endfacet
  facet normal  0.000000e+000  9.284767e-001  3.713907e-001
    outer loop
      vertex  2.213816e-001  0.000000e+000  2.135691e-001
      vertex  1.562500e-002 -1.562500e-002  2.526316e-001
      vertex  2.370066e-001 -1.562500e-002  2.526316e-001
    endloop
  endfacet
  facet normal -1.000000e+000  0.000000e+000  0.000000e+000
    outer loop
      vertex  2.526316e-001  0.000000e+000  7.500000e-001
      vertex  2.526316e-001  0.000000e+000  2.916941e-001
      vertex  2.526316e-001 -7.500000e-001  7.500000e-001
    endloop
  endfacet
  facet normal -1.000000e+000  0.000000e+000  0.000000e+000
    outer loop
      vertex  2.526316e-001 -7.500000e-001  7.500000e-001
      vertex  2.526316e-001  0.000000e+000  2.916941e-001
      vertex  2.526316e-001 -7.500000e-001  2.916941e-001
    endloop
  endfacet
  facet normal  -0.000000e+000  0.000000e+000  1.000000e+000
    outer loop
      vertex  4.973684e-001  0.000000e+000  7.500000e-001
      vertex  2.526316e-001  0.000000e+000  7.500000e-001
      vertex  4.973684e-001 -7.500000e-001  7.500000e-001
    endloop
  endfacet
  facet normal  0.000000e+000  0.000000e+000  1.000000e+000
    outer loop
      vertex  4.973684e-001 -7.500000e-001  7.500000e-001
      vertex  2.526316e-001  0.000000e+000  7.500000e-001
      vertex  2.526316e-001 -7.500000e-001  7.500000e-001
    endloop
  endfacet
  facet normal -6.123235e-017  0.000000e+000 -1.000000e+000
    outer loop
      vertex  0.000000e+000  0.000000e+000  0.000000e+000
      vertex  4.973684e-001  0.000000e+000 -3.045503e-017
      vertex  0.000000e+000 -7.500000e-001  0.000000e+000
    endloop
  endfacet
  facet normal -6.123235e-017  0.000000e+000 -1.000000e+000
    outer loop
      vertex  0.000000e+000 -7.500000e-001  0.000000e+000
      vertex  4.973684e-001  0.000000e+000 -3.045503e-017
      vertex  4.973684e-001 -7.500000e-001 -3.045503e-017
    endloop
  endfacet
endsolid CATIA STL
