solid CATIA STL
  facet normal -1.318913e-016  1.000000e+000  6.736765e-017
    outer loop
      vertex  2.859409e-001  4.202072e-017 -5.176046e-001
      vertex  1.810855e-001  3.121570e-017 -5.625000e-001
      vertex  1.810855e-001  2.682656e-017 -4.973480e-001
    endloop
  endfacet
  facet normal -4.870114e-017  1.000000e+000 -1.446370e-016
    outer loop
      vertex -1.482572e-001  1.304091e-016  5.048080e-001
      vertex -2.697692e-001  1.253169e-016  5.105155e-001
      vertex -4.960104e-002  1.381047e-016  5.247951e-001
    endloop
  endfacet
  facet normal -5.551115e-017  1.000000e+000 -1.110223e-016
    outer loop
      vertex  1.796875e-001  2.704799e-017 -4.946546e-001
      vertex  1.796875e-001  1.924173e-017 -5.649671e-001
      vertex -1.718750e-001 -2.739037e-019 -5.649671e-001
    endloop
  endfacet
  facet normal -5.551107e-017  1.000000e+000 -1.110227e-016
    outer loop
      vertex  1.796875e-001  2.704799e-017 -4.946546e-001
      vertex -1.718750e-001 -2.739037e-019 -5.649671e-001
      vertex -1.718750e-001  8.341047e-033 -5.625000e-001
    endloop
  endfacet
  facet normal -2.107374e-017  1.000000e+000 -2.894707e-016
    outer loop
      vertex  1.796875e-001  2.704799e-017 -4.946546e-001
      vertex -1.718750e-001  8.341047e-033 -5.625000e-001
      vertex -2.767304e-001  1.078619e-017 -5.176046e-001
    endloop
  endfacet
  facet normal -5.551115e-017  9.999999e-001  3.954014e-016
    outer loop
      vertex  1.796875e-001  2.704799e-017 -4.946546e-001
      vertex -2.767304e-001  1.078619e-017 -5.176046e-001
      vertex -1.718750e-001  7.532352e-018 -4.946546e-001
    endloop
  endfacet
  facet normal -5.551115e-017  1.000000e+000 -1.110223e-016
    outer loop
      vertex  1.796875e-001  2.704799e-017 -4.946546e-001
      vertex -1.718750e-001  7.532352e-018 -4.946546e-001
      vertex -1.052632e-001  1.821460e-017 -4.317434e-001
    endloop
  endfacet
  facet normal -5.551116e-017  1.000000e+000 -1.110224e-016
    outer loop
      vertex  1.796875e-001  2.704799e-017 -4.946546e-001
      vertex -1.052632e-001  1.821460e-017 -4.317434e-001
      vertex  9.827302e-002  2.951313e-017 -4.317434e-001
    endloop
  endfacet
  facet normal -5.551120e-017  1.000000e+000 -1.110221e-016
    outer loop
      vertex -1.643155e-001  1.359970e-016  5.539869e-001
      vertex -5.242596e-002  1.446682e-016  5.761447e-001
      vertex  6.163649e-002  1.509999e-016  5.761447e-001
    endloop
  endfacet
  facet normal -5.551114e-017  9.999999e-001 -1.110228e-016
    outer loop
      vertex -1.643155e-001  1.359970e-016  5.539869e-001
      vertex  6.163649e-002  1.509999e-016  5.761447e-001
      vertex  1.735260e-001  1.547510e-016  5.539869e-001
    endloop
  endfacet
  facet normal -5.551114e-017  1.000000e+000 -1.468598e-016
    outer loop
      vertex -1.643155e-001  1.359970e-016  5.539869e-001
      vertex  1.735260e-001  1.547510e-016  5.539869e-001
      vertex  5.105660e-002  1.437754e-016  5.255436e-001
    endloop
  endfacet
  facet normal -5.525889e-017  1.000000e+000 -1.449498e-016
    outer loop
      vertex -1.643155e-001  1.359970e-016  5.539869e-001
      vertex  5.105660e-002  1.437754e-016  5.255436e-001
      vertex -4.960104e-002  1.381047e-016  5.247951e-001
    endloop
  endfacet
  facet normal -5.001687e-017  1.000000e+000 -1.243503e-016
    outer loop
      vertex -1.643155e-001  1.359970e-016  5.539869e-001
      vertex -4.960104e-002  1.381047e-016  5.247951e-001
      vertex -2.697692e-001  1.253169e-016  5.105155e-001
    endloop
  endfacet
  facet normal -4.436521e-017  1.000000e+000 -1.001005e-016
    outer loop
      vertex -3.708669e-001  1.271143e-017 -4.531954e-001
      vertex -4.506980e-001  1.732483e-017 -3.717261e-001
      vertex -3.441551e-001  2.051032e-017 -3.871237e-001
    endloop
  endfacet
  facet normal -4.679106e-017  1.000000e+000 -9.911976e-017
    outer loop
      vertex -3.708669e-001  1.271143e-017 -4.531954e-001
      vertex -3.441551e-001  2.051032e-017 -3.871237e-001
      vertex -2.629547e-001  1.841318e-017 -4.466133e-001
    endloop
  endfacet
  facet normal -3.379098e-017  1.000000e+000 -3.122531e-016
    outer loop
      vertex -3.708669e-001  1.271143e-017 -4.531954e-001
      vertex -2.629547e-001  1.841318e-017 -4.466133e-001
      vertex -1.718750e-001  8.107550e-018 -4.894737e-001
    endloop
  endfacet
  facet normal  2.895541e-018  1.000000e+000 -1.110221e-016
    outer loop
      vertex -3.708669e-001  1.271143e-017 -4.531954e-001
      vertex -1.718750e-001  8.107550e-018 -4.894737e-001
      vertex -1.718750e-001  7.532352e-018 -4.946546e-001
    endloop
  endfacet
  facet normal  2.846748e-017  1.000000e+000  1.171550e-017
    outer loop
      vertex -3.708669e-001  1.271143e-017 -4.531954e-001
      vertex -1.718750e-001  7.532352e-018 -4.946546e-001
      vertex -2.767304e-001  1.078619e-017 -5.176046e-001
    endloop
  endfacet
  facet normal -5.551115e-017  1.000000e+000 -1.110223e-016
    outer loop
      vertex -1.718750e-001 -2.081668e-017 -7.500000e-001
      vertex -1.718750e-001 -2.739037e-019 -5.649671e-001
      vertex  1.796875e-001 -1.301043e-018 -7.500000e-001
    endloop
  endfacet
  facet normal -5.551115e-017  1.000000e+000 -1.110223e-016
    outer loop
      vertex  1.796875e-001 -1.301043e-018 -7.500000e-001
      vertex -1.718750e-001 -2.739037e-019 -5.649671e-001
      vertex  1.796875e-001  1.924173e-017 -5.649671e-001
    endloop
  endfacet
  facet normal -4.210335e-017  1.000000e+000 -1.246506e-016
    outer loop
      vertex -3.969585e-001  9.832370e-017  3.401586e-001
      vertex -4.456961e-001  9.961822e-017  3.670060e-001
      vertex -3.252026e-001  1.101445e-016  4.107534e-001
    endloop
  endfacet
  facet normal -4.217745e-017  1.000000e+000 -1.244466e-016
    outer loop
      vertex -3.252026e-001  1.101445e-016  4.107534e-001
      vertex -4.456961e-001  9.961822e-017  3.670060e-001
      vertex -3.647693e-001  1.130346e-016  4.473868e-001
    endloop
  endfacet
  facet normal -4.477005e-017  1.000000e+000 -1.272467e-016
    outer loop
      vertex -3.252026e-001  1.101445e-016  4.107534e-001
      vertex -3.647693e-001  1.130346e-016  4.473868e-001
      vertex -2.412692e-001  1.209730e-016  4.663204e-001
    endloop
  endfacet
  facet normal -4.478212e-017  1.000000e+000 -1.271681e-016
    outer loop
      vertex -2.412692e-001  1.209730e-016  4.663204e-001
      vertex -3.647693e-001  1.130346e-016  4.473868e-001
      vertex -2.697692e-001  1.253169e-016  5.105155e-001
    endloop
  endfacet
  facet normal -4.797740e-017  1.000000e+000 -1.292286e-016
    outer loop
      vertex -2.412692e-001  1.209730e-016  4.663204e-001
      vertex -2.697692e-001  1.253169e-016  5.105155e-001
      vertex -1.482572e-001  1.304091e-016  5.048080e-001
    endloop
  endfacet
  facet normal -4.242516e-017  1.000000e+000 -1.029342e-016
    outer loop
      vertex -4.124781e-001  2.492463e-017 -3.132015e-001
      vertex -5.131820e-001  2.445060e-017 -2.763008e-001
      vertex -4.654011e-001  3.149313e-017 -2.275763e-001
    endloop
  endfacet
  facet normal -4.040561e-017  1.000000e+000 -1.049146e-016
    outer loop
      vertex -4.654011e-001  3.149313e-017 -2.275763e-001
      vertex -5.131820e-001  2.445060e-017 -2.763008e-001
      vertex -5.559384e-001  3.381726e-017 -1.705552e-001
    endloop
  endfacet
  facet normal -4.073784e-017  9.999999e-001 -1.054421e-016
    outer loop
      vertex -4.654011e-001  3.149313e-017 -2.275763e-001
      vertex -5.559384e-001  3.381726e-017 -1.705552e-001
      vertex -5.009698e-001  3.997329e-017 -1.334095e-001
    endloop
  endfacet
  facet normal -3.908692e-017  1.000000e+000 -1.078852e-016
    outer loop
      vertex -5.009698e-001  3.997329e-017 -1.334095e-001
      vertex -5.559384e-001  3.381726e-017 -1.705552e-001
      vertex -5.773381e-001  4.506795e-017 -5.851819e-002
    endloop
  endfacet
  facet normal -3.948687e-017  1.000000e+000 -1.082930e-016
    outer loop
      vertex -5.009698e-001  3.997329e-017 -1.334095e-001
      vertex -5.773381e-001  4.506795e-017 -5.851819e-002
      vertex -5.178710e-001  5.005198e-017 -3.417809e-002
    endloop
  endfacet
  facet normal -3.832212e-017  1.000000e+000 -1.111387e-016
    outer loop
      vertex -5.178710e-001  5.005198e-017 -3.417809e-002
      vertex -5.773381e-001  4.506795e-017 -5.851819e-002
      vertex -5.765658e-001  5.777401e-017  5.554164e-002
    endloop
  endfacet
  facet normal -3.875270e-017  1.000000e+000 -1.114204e-016
    outer loop
      vertex -5.178710e-001  5.005198e-017 -3.417809e-002
      vertex -5.765658e-001  5.777401e-017  5.554164e-002
      vertex -5.154806e-001  6.135707e-017  6.645395e-002
    endloop
  endfacet
  facet normal -3.818921e-017  1.000000e+000 -1.145747e-016
    outer loop
      vertex -5.154806e-001  6.135707e-017  6.645395e-002
      vertex -5.765658e-001  5.777401e-017  5.554164e-002
      vertex -5.536510e-001  7.145133e-017  1.672786e-001
    endloop
  endfacet
  facet normal -3.861058e-017  9.999999e-001 -1.147342e-016
    outer loop
      vertex -5.154806e-001  6.135707e-017  6.645395e-002
      vertex -5.536510e-001  7.145133e-017  1.672786e-001
      vertex -4.938869e-001  7.347114e-017  1.647709e-001
    endloop
  endfacet
  facet normal -3.875032e-017  1.000000e+000 -1.180648e-016
    outer loop
      vertex -4.938869e-001  7.347114e-017  1.647709e-001
      vertex -5.536510e-001  7.145133e-017  1.672786e-001
      vertex -5.094666e-001  8.557882e-017  2.724355e-001
    endloop
  endfacet
  facet normal -3.912326e-017  1.000000e+000 -1.181187e-016
    outer loop
      vertex -4.938869e-001  7.347114e-017  1.647709e-001
      vertex -5.094666e-001  8.557882e-017  2.724355e-001
      vertex -4.538873e-001  8.594690e-017  2.571427e-001
    endloop
  endfacet
  facet normal -4.004098e-017  1.000000e+000 -1.214541e-016
    outer loop
      vertex -4.538873e-001  8.594690e-017  2.571427e-001
      vertex -5.094666e-001  8.557882e-017  2.724355e-001
      vertex -4.456961e-001  9.961822e-017  3.670060e-001
    endloop
  endfacet
  facet normal -4.033063e-017  1.000000e+000 -1.214325e-016
    outer loop
      vertex -4.538873e-001  8.594690e-017  2.571427e-001
      vertex -4.456961e-001  9.961822e-017  3.670060e-001
      vertex -3.969585e-001  9.832370e-017  3.401586e-001
    endloop
  endfacet
  facet normal -4.494361e-017  1.000000e+000 -1.041027e-016
    outer loop
      vertex -4.506980e-001  1.732483e-017 -3.717261e-001
      vertex -5.131820e-001  2.445060e-017 -2.763008e-001
      vertex -3.441551e-001  2.051032e-017 -3.871237e-001
    endloop
  endfacet
  facet normal -4.020515e-017  1.000000e+000 -9.687564e-017
    outer loop
      vertex -3.441551e-001  2.051032e-017 -3.871237e-001
      vertex -5.131820e-001  2.445060e-017 -2.763008e-001
      vertex -4.124781e-001  2.492463e-017 -3.132015e-001
    endloop
  endfacet
  facet normal -6.897976e-017  1.000000e+000 -1.251260e-016
    outer loop
      vertex  4.011216e-001  1.432849e-016  3.460935e-001
      vertex  3.283238e-001  1.469621e-016  4.156133e-001
      vertex  4.549067e-001  1.496117e-016  3.670060e-001
    endloop
  endfacet
  facet normal -7.560297e-017  1.000000e+000 -1.423741e-016
    outer loop
      vertex  4.549067e-001  1.496117e-016  3.670060e-001
      vertex  3.283238e-001  1.469621e-016  4.156133e-001
      vertex  2.435732e-001  1.482874e-016  4.699259e-001
    endloop
  endfacet
  facet normal -6.497455e-017  1.000000e+000 -1.205500e-016
    outer loop
      vertex  4.549067e-001  1.496117e-016  3.670060e-001
      vertex  2.435732e-001  1.482874e-016  4.699259e-001
      vertex  3.739798e-001  1.540434e-016  4.473868e-001
    endloop
  endfacet
  facet normal -6.936885e-017  1.000000e+000 -1.459744e-016
    outer loop
      vertex  3.739798e-001  1.540434e-016  4.473868e-001
      vertex  2.435732e-001  1.482874e-016  4.699259e-001
      vertex  1.499991e-001  1.472119e-016  5.070260e-001
    endloop
  endfacet
  facet normal -6.310506e-017  1.000000e+000 -1.224502e-016
    outer loop
      vertex  3.739798e-001  1.540434e-016  4.473868e-001
      vertex  1.499991e-001  1.472119e-016  5.070260e-001
      vertex  2.789797e-001  1.557786e-016  5.105155e-001
    endloop
  endfacet
  facet normal -6.241608e-017  1.000000e+000 -1.479164e-016
    outer loop
      vertex  2.789797e-001  1.557786e-016  5.105155e-001
      vertex  1.499991e-001  1.472119e-016  5.070260e-001
      vertex  5.105660e-002  1.437754e-016  5.255436e-001
    endloop
  endfacet
  facet normal -6.083498e-017  1.000000e+000 -1.239367e-016
    outer loop
      vertex  2.789797e-001  1.557786e-016  5.105155e-001
      vertex  5.105660e-002  1.437754e-016  5.255436e-001
      vertex  1.735260e-001  1.547510e-016  5.539869e-001
    endloop
  endfacet
  facet normal -6.862873e-017  1.000000e+000 -1.031818e-016
    outer loop
      vertex  4.263564e-001  7.218186e-017 -3.069636e-001
      vertex  4.780000e-001  8.464130e-017 -2.205607e-001
      vertex  5.223925e-001  8.193653e-017 -2.763008e-001
    endloop
  endfacet
  facet normal -7.131390e-017  1.000000e+000 -1.053204e-016
    outer loop
      vertex  5.223925e-001  8.193653e-017 -2.763008e-001
      vertex  4.780000e-001  8.464130e-017 -2.205607e-001
      vertex  5.121644e-001  9.704999e-017 -1.258753e-001
    endloop
  endfacet
  facet normal -6.985801e-017  1.000000e+000 -1.052214e-016
    outer loop
      vertex  5.223925e-001  8.193653e-017 -2.763008e-001
      vertex  5.121644e-001  9.704999e-017 -1.258753e-001
      vertex  5.651489e-001  9.605011e-017 -1.705552e-001
    endloop
  endfacet
  facet normal -7.252513e-017  1.000000e+000 -1.083842e-016
    outer loop
      vertex  5.651489e-001  9.605011e-017 -1.705552e-001
      vertex  5.121644e-001  9.704999e-017 -1.258753e-001
      vertex  5.275879e-001  1.089498e-016 -2.640356e-002
    endloop
  endfacet
  facet normal -7.117049e-017  1.000000e+000 -1.080313e-016
    outer loop
      vertex  5.651489e-001  9.605011e-017 -1.705552e-001
      vertex  5.275879e-001  1.089498e-016 -2.640356e-002
      vertex  5.865486e-001  1.096766e-016 -5.851819e-002
    endloop
  endfacet
  facet normal -7.317132e-017  1.000000e+000 -1.117047e-016
    outer loop
      vertex  5.865486e-001  1.096766e-016 -5.851819e-002
      vertex  5.275879e-001  1.089498e-016 -2.640356e-002
      vertex  5.237012e-001  1.199012e-016  7.418180e-002
    endloop
  endfacet
  facet normal -7.196588e-017  1.000000e+000 -1.111338e-016
    outer loop
      vertex  5.865486e-001  1.096766e-016 -5.851819e-002
      vertex  5.237012e-001  1.199012e-016  7.418180e-002
      vertex  5.857763e-001  1.222970e-016  5.554164e-002
    endloop
  endfacet
  facet normal -7.318073e-017  1.000000e+000 -1.151795e-016
    outer loop
      vertex  5.857763e-001  1.222970e-016  5.554164e-002
      vertex  5.237012e-001  1.199012e-016  7.418180e-002
      vertex  5.006477e-001  1.295000e-016  1.721668e-001
    endloop
  endfacet
  facet normal -7.216427e-017  9.999999e-001 -1.144375e-016
    outer loop
      vertex  5.857763e-001  1.222970e-016  5.554164e-002
      vertex  5.006477e-001  1.295000e-016  1.721668e-001
      vertex  5.628615e-001  1.334302e-016  1.672786e-001
    endloop
  endfacet
  facet normal -7.249762e-017  1.000000e+000 -1.186800e-016
    outer loop
      vertex  5.628615e-001  1.334302e-016  1.672786e-001
      vertex  5.006477e-001  1.295000e-016  1.721668e-001
      vertex  4.592787e-001  1.373917e-016  2.639335e-001
    endloop
  endfacet
  facet normal -7.169871e-017  1.000000e+000 -1.178238e-016
    outer loop
      vertex  5.628615e-001  1.334302e-016  1.672786e-001
      vertex  4.592787e-001  1.373917e-016  2.639335e-001
      vertex  5.186771e-001  1.426523e-016  2.724355e-001
    endloop
  endfacet
  facet normal -7.109348e-017  1.000000e+000 -1.220522e-016
    outer loop
      vertex  5.186771e-001  1.426523e-016  2.724355e-001
      vertex  4.592787e-001  1.373917e-016  2.639335e-001
      vertex  4.011216e-001  1.432849e-016  3.460935e-001
    endloop
  endfacet
  facet normal -7.052663e-017  1.000000e+000 -1.211475e-016
    outer loop
      vertex  5.186771e-001  1.426523e-016  2.724355e-001
      vertex  4.011216e-001  1.432849e-016  3.460935e-001
      vertex  4.549067e-001  1.496117e-016  3.670060e-001
    endloop
  endfacet
  facet normal -3.244334e-016  1.000000e+000 -9.292983e-016
    outer loop
      vertex  1.810855e-001  2.682656e-017 -4.973480e-001
      vertex  1.884014e-001  3.900746e-017 -4.867945e-001
      vertex  2.859409e-001  4.202072e-017 -5.176046e-001
    endloop
  endfacet
  facet normal -6.185977e-017  1.000000e+000 -9.803620e-017
    outer loop
      vertex  2.859409e-001  4.202072e-017 -5.176046e-001
      vertex  1.884014e-001  3.900746e-017 -4.867945e-001
      vertex  2.788335e-001  4.893578e-017 -4.425842e-001
    endloop
  endfacet
  facet normal -6.424199e-017  1.000000e+000 -9.826188e-017
    outer loop
      vertex  2.859409e-001  4.202072e-017 -5.176046e-001
      vertex  2.788335e-001  4.893578e-017 -4.425842e-001
      vertex  3.800774e-001  5.439722e-017 -4.531954e-001
    endloop
  endfacet
  facet normal -6.435314e-017  1.000000e+000 -9.932238e-017
    outer loop
      vertex  3.800774e-001  5.439722e-017 -4.531954e-001
      vertex  2.788335e-001  4.893578e-017 -4.425842e-001
      vertex  3.591403e-001  6.013170e-017 -3.818936e-001
    endloop
  endfacet
  facet normal -6.673685e-017  1.000000e+000 -1.000223e-016
    outer loop
      vertex  3.800774e-001  5.439722e-017 -4.531954e-001
      vertex  3.591403e-001  6.013170e-017 -3.818936e-001
      vertex  4.599085e-001  6.787364e-017 -3.717261e-001
    endloop
  endfacet
  facet normal -6.663368e-017  1.000000e+000 -1.010449e-016
    outer loop
      vertex  4.599085e-001  6.787364e-017 -3.717261e-001
      vertex  3.591403e-001  6.013170e-017 -3.818936e-001
      vertex  4.263564e-001  7.218186e-017 -3.069636e-001
    endloop
  endfacet
  facet normal -6.893101e-017  1.000000e+000 -1.022351e-016
    outer loop
      vertex  4.599085e-001  6.787364e-017 -3.717261e-001
      vertex  4.263564e-001  7.218186e-017 -3.069636e-001
      vertex  5.223925e-001  8.193653e-017 -2.763008e-001
    endloop
  endfacet
  facet normal  0.000000e+000 -1.000000e+000  0.000000e+000
    outer loop
      vertex  1.810855e-001 -2.968750e-001 -4.973480e-001
      vertex  1.810855e-001 -2.968750e-001 -5.625000e-001
      vertex  2.859409e-001 -2.968750e-001 -5.176046e-001
    endloop
  endfacet
  facet normal  0.000000e+000 -1.000000e+000  0.000000e+000
    outer loop
      vertex -4.960104e-002 -2.968750e-001  5.247951e-001
      vertex -2.697692e-001 -2.968750e-001  5.105155e-001
      vertex -1.482572e-001 -2.968750e-001  5.048080e-001
    endloop
  endfacet
  facet normal  -0.000000e+000 -1.000000e+000  -0.000000e+000
    outer loop
      vertex  1.796875e-001 -2.968750e-001 -4.946546e-001
      vertex  9.827302e-002 -2.968750e-001 -4.317434e-001
      vertex -1.052632e-001 -2.968750e-001 -4.317434e-001
    endloop
  endfacet
  facet normal  0.000000e+000 -1.000000e+000  -0.000000e+000
    outer loop
      vertex  1.796875e-001 -2.968750e-001 -4.946546e-001
      vertex -1.052632e-001 -2.968750e-001 -4.317434e-001
      vertex -1.718750e-001 -2.968750e-001 -4.946546e-001
    endloop
  endfacet
  facet normal  0.000000e+000 -9.999999e-001  -0.000000e+000
    outer loop
      vertex  1.796875e-001 -2.968750e-001 -4.946546e-001
      vertex -1.718750e-001 -2.968750e-001 -4.946546e-001
      vertex -2.767304e-001 -2.968750e-001 -5.176046e-001
    endloop
  endfacet
  facet normal  0.000000e+000 -1.000000e+000  0.000000e+000
    outer loop
      vertex  1.796875e-001 -2.968750e-001 -4.946546e-001
      vertex -2.767304e-001 -2.968750e-001 -5.176046e-001
      vertex -1.718750e-001 -2.968750e-001 -5.625000e-001
    endloop
  endfacet
  facet normal  0.000000e+000 -1.000000e+000  0.000000e+000
    outer loop
      vertex  1.796875e-001 -2.968750e-001 -4.946546e-001
      vertex -1.718750e-001 -2.968750e-001 -5.625000e-001
      vertex -1.718750e-001 -2.968750e-001 -5.649671e-001
    endloop
  endfacet
  facet normal  0.000000e+000 -1.000000e+000  0.000000e+000
    outer loop
      vertex  1.796875e-001 -2.968750e-001 -4.946546e-001
      vertex -1.718750e-001 -2.968750e-001 -5.649671e-001
      vertex  1.796875e-001 -2.968750e-001 -5.649671e-001
    endloop
  endfacet
  facet normal  0.000000e+000 -1.000000e+000  0.000000e+000
    outer loop
      vertex -1.643155e-001 -2.968750e-001  5.539869e-001
      vertex -2.697692e-001 -2.968750e-001  5.105155e-001
      vertex -4.960104e-002 -2.968750e-001  5.247951e-001
    endloop
  endfacet
  facet normal  0.000000e+000 -1.000000e+000  0.000000e+000
    outer loop
      vertex -1.643155e-001 -2.968750e-001  5.539869e-001
      vertex -4.960104e-002 -2.968750e-001  5.247951e-001
      vertex  5.105660e-002 -2.968750e-001  5.255436e-001
    endloop
  endfacet
  facet normal  0.000000e+000 -1.000000e+000  0.000000e+000
    outer loop
      vertex -1.643155e-001 -2.968750e-001  5.539869e-001
      vertex  5.105660e-002 -2.968750e-001  5.255436e-001
      vertex  1.735260e-001 -2.968750e-001  5.539869e-001
    endloop
  endfacet
  facet normal  0.000000e+000 -9.999999e-001  0.000000e+000
    outer loop
      vertex -1.643155e-001 -2.968750e-001  5.539869e-001
      vertex  1.735260e-001 -2.968750e-001  5.539869e-001
      vertex  6.163649e-002 -2.968750e-001  5.761447e-001
    endloop
  endfacet
  facet normal  -0.000000e+000 -1.000000e+000  0.000000e+000
    outer loop
      vertex -1.643155e-001 -2.968750e-001  5.539869e-001
      vertex  6.163649e-002 -2.968750e-001  5.761447e-001
      vertex -5.242596e-002 -2.968750e-001  5.761447e-001
    endloop
  endfacet
  facet normal  0.000000e+000 -1.000000e+000  0.000000e+000
    outer loop
      vertex -3.708669e-001 -2.968750e-001 -4.531954e-001
      vertex -2.767304e-001 -2.968750e-001 -5.176046e-001
      vertex -1.718750e-001 -2.968750e-001 -4.946546e-001
    endloop
  endfacet
  facet normal  0.000000e+000 -1.000000e+000  0.000000e+000
    outer loop
      vertex -3.708669e-001 -2.968750e-001 -4.531954e-001
      vertex -1.718750e-001 -2.968750e-001 -4.946546e-001
      vertex -1.718750e-001 -2.968750e-001 -4.894737e-001
    endloop
  endfacet
  facet normal  0.000000e+000 -1.000000e+000  0.000000e+000
    outer loop
      vertex -3.708669e-001 -2.968750e-001 -4.531954e-001
      vertex -1.718750e-001 -2.968750e-001 -4.894737e-001
      vertex -2.629547e-001 -2.968750e-001 -4.466133e-001
    endloop
  endfacet
  facet normal  -0.000000e+000 -1.000000e+000  0.000000e+000
    outer loop
      vertex -3.708669e-001 -2.968750e-001 -4.531954e-001
      vertex -2.629547e-001 -2.968750e-001 -4.466133e-001
      vertex -3.441551e-001 -2.968750e-001 -3.871237e-001
    endloop
  endfacet
  facet normal  -0.000000e+000 -1.000000e+000  0.000000e+000
    outer loop
      vertex -3.708669e-001 -2.968750e-001 -4.531954e-001
      vertex -3.441551e-001 -2.968750e-001 -3.871237e-001
      vertex -4.506980e-001 -2.968750e-001 -3.717261e-001
    endloop
  endfacet
  facet normal  0.000000e+000 -1.000000e+000  0.000000e+000
    outer loop
      vertex -1.718750e-001 -2.968750e-001 -7.500000e-001
      vertex  1.796875e-001 -2.968750e-001 -7.500000e-001
      vertex -1.718750e-001 -2.968750e-001 -5.649671e-001
    endloop
  endfacet
  facet normal  0.000000e+000 -1.000000e+000  0.000000e+000
    outer loop
      vertex -1.718750e-001 -2.968750e-001 -5.649671e-001
      vertex  1.796875e-001 -2.968750e-001 -7.500000e-001
      vertex  1.796875e-001 -2.968750e-001 -5.649671e-001
    endloop
  endfacet
  facet normal  0.000000e+000 -1.000000e+000  0.000000e+000
    outer loop
      vertex -1.482572e-001 -2.968750e-001  5.048080e-001
      vertex -2.697692e-001 -2.968750e-001  5.105155e-001
      vertex -2.412692e-001 -2.968750e-001  4.663204e-001
    endloop
  endfacet
  facet normal  -0.000000e+000 -1.000000e+000  0.000000e+000
    outer loop
      vertex -2.412692e-001 -2.968750e-001  4.663204e-001
      vertex -2.697692e-001 -2.968750e-001  5.105155e-001
      vertex -3.647693e-001 -2.968750e-001  4.473868e-001
    endloop
  endfacet
  facet normal  0.000000e+000 -1.000000e+000  0.000000e+000
    outer loop
      vertex -2.412692e-001 -2.968750e-001  4.663204e-001
      vertex -3.647693e-001 -2.968750e-001  4.473868e-001
      vertex -3.252026e-001 -2.968750e-001  4.107534e-001
    endloop
  endfacet
  facet normal  -0.000000e+000 -1.000000e+000  0.000000e+000
    outer loop
      vertex -3.252026e-001 -2.968750e-001  4.107534e-001
      vertex -3.647693e-001 -2.968750e-001  4.473868e-001
      vertex -4.456961e-001 -2.968750e-001  3.670060e-001
    endloop
  endfacet
  facet normal  0.000000e+000 -1.000000e+000  0.000000e+000
    outer loop
      vertex -3.252026e-001 -2.968750e-001  4.107534e-001
      vertex -4.456961e-001 -2.968750e-001  3.670060e-001
      vertex -3.969585e-001 -2.968750e-001  3.401586e-001
    endloop
  endfacet
  facet normal  0.000000e+000 -1.000000e+000  -0.000000e+000
    outer loop
      vertex -3.969585e-001 -2.968750e-001  3.401586e-001
      vertex -4.456961e-001 -2.968750e-001  3.670060e-001
      vertex -4.538873e-001 -2.968750e-001  2.571427e-001
    endloop
  endfacet
  facet normal  0.000000e+000 -1.000000e+000  0.000000e+000
    outer loop
      vertex -4.538873e-001 -2.968750e-001  2.571427e-001
      vertex -4.456961e-001 -2.968750e-001  3.670060e-001
      vertex -5.094666e-001 -2.968750e-001  2.724355e-001
    endloop
  endfacet
  facet normal  0.000000e+000 -1.000000e+000  0.000000e+000
    outer loop
      vertex -4.538873e-001 -2.968750e-001  2.571427e-001
      vertex -5.094666e-001 -2.968750e-001  2.724355e-001
      vertex -4.938869e-001 -2.968750e-001  1.647709e-001
    endloop
  endfacet
  facet normal  0.000000e+000 -1.000000e+000  0.000000e+000
    outer loop
      vertex -4.938869e-001 -2.968750e-001  1.647709e-001
      vertex -5.094666e-001 -2.968750e-001  2.724355e-001
      vertex -5.536510e-001 -2.968750e-001  1.672786e-001
    endloop
  endfacet
  facet normal  0.000000e+000 -9.999999e-001  0.000000e+000
    outer loop
      vertex -4.938869e-001 -2.968750e-001  1.647709e-001
      vertex -5.536510e-001 -2.968750e-001  1.672786e-001
      vertex -5.154806e-001 -2.968750e-001  6.645395e-002
    endloop
  endfacet
  facet normal  -0.000000e+000 -1.000000e+000  0.000000e+000
    outer loop
      vertex -5.154806e-001 -2.968750e-001  6.645395e-002
      vertex -5.536510e-001 -2.968750e-001  1.672786e-001
      vertex -5.765658e-001 -2.968750e-001  5.554164e-002
    endloop
  endfacet
  facet normal  0.000000e+000 -1.000000e+000  0.000000e+000
    outer loop
      vertex -5.154806e-001 -2.968750e-001  6.645395e-002
      vertex -5.765658e-001 -2.968750e-001  5.554164e-002
      vertex -5.178710e-001 -2.968750e-001 -3.417809e-002
    endloop
  endfacet
  facet normal  -0.000000e+000 -1.000000e+000  0.000000e+000
    outer loop
      vertex -5.178710e-001 -2.968750e-001 -3.417809e-002
      vertex -5.765658e-001 -2.968750e-001  5.554164e-002
      vertex -5.773381e-001 -2.968750e-001 -5.851819e-002
    endloop
  endfacet
  facet normal  0.000000e+000 -1.000000e+000  0.000000e+000
    outer loop
      vertex -5.178710e-001 -2.968750e-001 -3.417809e-002
      vertex -5.773381e-001 -2.968750e-001 -5.851819e-002
      vertex -5.009698e-001 -2.968750e-001 -1.334095e-001
    endloop
  endfacet
  facet normal  -0.000000e+000 -1.000000e+000  0.000000e+000
    outer loop
      vertex -5.009698e-001 -2.968750e-001 -1.334095e-001
      vertex -5.773381e-001 -2.968750e-001 -5.851819e-002
      vertex -5.559384e-001 -2.968750e-001 -1.705552e-001
    endloop
  endfacet
  facet normal  0.000000e+000 -9.999999e-001  0.000000e+000
    outer loop
      vertex -5.009698e-001 -2.968750e-001 -1.334095e-001
      vertex -5.559384e-001 -2.968750e-001 -1.705552e-001
      vertex -4.654011e-001 -2.968750e-001 -2.275763e-001
    endloop
  endfacet
  facet normal  -0.000000e+000 -1.000000e+000  0.000000e+000
    outer loop
      vertex -4.654011e-001 -2.968750e-001 -2.275763e-001
      vertex -5.559384e-001 -2.968750e-001 -1.705552e-001
      vertex -5.131820e-001 -2.968750e-001 -2.763008e-001
    endloop
  endfacet
  facet normal  0.000000e+000 -1.000000e+000  0.000000e+000
    outer loop
      vertex -4.654011e-001 -2.968750e-001 -2.275763e-001
      vertex -5.131820e-001 -2.968750e-001 -2.763008e-001
      vertex -4.124781e-001 -2.968750e-001 -3.132015e-001
    endloop
  endfacet
  facet normal  0.000000e+000 -1.000000e+000  0.000000e+000
    outer loop
      vertex -4.506980e-001 -2.968750e-001 -3.717261e-001
      vertex -3.441551e-001 -2.968750e-001 -3.871237e-001
      vertex -5.131820e-001 -2.968750e-001 -2.763008e-001
    endloop
  endfacet
  facet normal  0.000000e+000 -1.000000e+000  0.000000e+000
    outer loop
      vertex -5.131820e-001 -2.968750e-001 -2.763008e-001
      vertex -3.441551e-001 -2.968750e-001 -3.871237e-001
      vertex -4.124781e-001 -2.968750e-001 -3.132015e-001
    endloop
  endfacet
  facet normal  0.000000e+000 -1.000000e+000  0.000000e+000
    outer loop
      vertex  1.735260e-001 -2.968750e-001  5.539869e-001
      vertex  5.105660e-002 -2.968750e-001  5.255436e-001
      vertex  2.789797e-001 -2.968750e-001  5.105155e-001
    endloop
  endfacet
  facet normal  -0.000000e+000 -1.000000e+000  0.000000e+000
    outer loop
      vertex  2.789797e-001 -2.968750e-001  5.105155e-001
      vertex  5.105660e-002 -2.968750e-001  5.255436e-001
      vertex  1.499991e-001 -2.968750e-001  5.070260e-001
    endloop
  endfacet
  facet normal  0.000000e+000 -1.000000e+000  0.000000e+000
    outer loop
      vertex  2.789797e-001 -2.968750e-001  5.105155e-001
      vertex  1.499991e-001 -2.968750e-001  5.070260e-001
      vertex  3.739798e-001 -2.968750e-001  4.473868e-001
    endloop
  endfacet
  facet normal  0.000000e+000 -1.000000e+000  0.000000e+000
    outer loop
      vertex  3.739798e-001 -2.968750e-001  4.473868e-001
      vertex  1.499991e-001 -2.968750e-001  5.070260e-001
      vertex  2.435732e-001 -2.968750e-001  4.699259e-001
    endloop
  endfacet
  facet normal  0.000000e+000 -1.000000e+000  0.000000e+000
    outer loop
      vertex  3.739798e-001 -2.968750e-001  4.473868e-001
      vertex  2.435732e-001 -2.968750e-001  4.699259e-001
      vertex  4.549067e-001 -2.968750e-001  3.670060e-001
    endloop
  endfacet
  facet normal  0.000000e+000 -1.000000e+000  0.000000e+000
    outer loop
      vertex  4.549067e-001 -2.968750e-001  3.670060e-001
      vertex  2.435732e-001 -2.968750e-001  4.699259e-001
      vertex  3.283238e-001 -2.968750e-001  4.156133e-001
    endloop
  endfacet
  facet normal  0.000000e+000 -1.000000e+000  0.000000e+000
    outer loop
      vertex  4.549067e-001 -2.968750e-001  3.670060e-001
      vertex  3.283238e-001 -2.968750e-001  4.156133e-001
      vertex  4.011216e-001 -2.968750e-001  3.460935e-001
    endloop
  endfacet
  facet normal  0.000000e+000 -1.000000e+000  0.000000e+000
    outer loop
      vertex  4.549067e-001 -2.968750e-001  3.670060e-001
      vertex  4.011216e-001 -2.968750e-001  3.460935e-001
      vertex  5.186771e-001 -2.968750e-001  2.724355e-001
    endloop
  endfacet
  facet normal  -0.000000e+000 -1.000000e+000  0.000000e+000
    outer loop
      vertex  5.186771e-001 -2.968750e-001  2.724355e-001
      vertex  4.011216e-001 -2.968750e-001  3.460935e-001
      vertex  4.592787e-001 -2.968750e-001  2.639335e-001
    endloop
  endfacet
  facet normal  0.000000e+000 -1.000000e+000  0.000000e+000
    outer loop
      vertex  5.186771e-001 -2.968750e-001  2.724355e-001
      vertex  4.592787e-001 -2.968750e-001  2.639335e-001
      vertex  5.628615e-001 -2.968750e-001  1.672786e-001
    endloop
  endfacet
  facet normal  0.000000e+000 -1.000000e+000  0.000000e+000
    outer loop
      vertex  5.628615e-001 -2.968750e-001  1.672786e-001
      vertex  4.592787e-001 -2.968750e-001  2.639335e-001
      vertex  5.006477e-001 -2.968750e-001  1.721668e-001
    endloop
  endfacet
  facet normal  0.000000e+000 -9.999999e-001  0.000000e+000
    outer loop
      vertex  5.628615e-001 -2.968750e-001  1.672786e-001
      vertex  5.006477e-001 -2.968750e-001  1.721668e-001
      vertex  5.857763e-001 -2.968750e-001  5.554164e-002
    endloop
  endfacet
  facet normal  0.000000e+000 -1.000000e+000  0.000000e+000
    outer loop
      vertex  5.857763e-001 -2.968750e-001  5.554164e-002
      vertex  5.006477e-001 -2.968750e-001  1.721668e-001
      vertex  5.237012e-001 -2.968750e-001  7.418180e-002
    endloop
  endfacet
  facet normal  0.000000e+000 -1.000000e+000  0.000000e+000
    outer loop
      vertex  5.857763e-001 -2.968750e-001  5.554164e-002
      vertex  5.237012e-001 -2.968750e-001  7.418180e-002
      vertex  5.865486e-001 -2.968750e-001 -5.851819e-002
    endloop
  endfacet
  facet normal  0.000000e+000 -1.000000e+000  0.000000e+000
    outer loop
      vertex  5.865486e-001 -2.968750e-001 -5.851819e-002
      vertex  5.237012e-001 -2.968750e-001  7.418180e-002
      vertex  5.275879e-001 -2.968750e-001 -2.640356e-002
    endloop
  endfacet
  facet normal  0.000000e+000 -1.000000e+000  0.000000e+000
    outer loop
      vertex  5.865486e-001 -2.968750e-001 -5.851819e-002
      vertex  5.275879e-001 -2.968750e-001 -2.640356e-002
      vertex  5.651489e-001 -2.968750e-001 -1.705552e-001
    endloop
  endfacet
  facet normal  0.000000e+000 -1.000000e+000  0.000000e+000
    outer loop
      vertex  5.651489e-001 -2.968750e-001 -1.705552e-001
      vertex  5.275879e-001 -2.968750e-001 -2.640356e-002
      vertex  5.121644e-001 -2.968750e-001 -1.258753e-001
    endloop
  endfacet
  facet normal  0.000000e+000 -1.000000e+000  0.000000e+000
    outer loop
      vertex  5.651489e-001 -2.968750e-001 -1.705552e-001
      vertex  5.121644e-001 -2.968750e-001 -1.258753e-001
      vertex  5.223925e-001 -2.968750e-001 -2.763008e-001
    endloop
  endfacet
  facet normal  0.000000e+000 -1.000000e+000  0.000000e+000
    outer loop
      vertex  5.223925e-001 -2.968750e-001 -2.763008e-001
      vertex  5.121644e-001 -2.968750e-001 -1.258753e-001
      vertex  4.780000e-001 -2.968750e-001 -2.205607e-001
    endloop
  endfacet
  facet normal  0.000000e+000 -1.000000e+000  -0.000000e+000
    outer loop
      vertex  5.223925e-001 -2.968750e-001 -2.763008e-001
      vertex  4.780000e-001 -2.968750e-001 -2.205607e-001
      vertex  4.263564e-001 -2.968750e-001 -3.069636e-001
    endloop
  endfacet
  facet normal  0.000000e+000 -1.000000e+000  0.000000e+000
    outer loop
      vertex  5.223925e-001 -2.968750e-001 -2.763008e-001
      vertex  4.263564e-001 -2.968750e-001 -3.069636e-001
      vertex  4.599085e-001 -2.968750e-001 -3.717261e-001
    endloop
  endfacet
  facet normal  -0.000000e+000 -1.000000e+000  0.000000e+000
    outer loop
      vertex  4.599085e-001 -2.968750e-001 -3.717261e-001
      vertex  4.263564e-001 -2.968750e-001 -3.069636e-001
      vertex  3.591403e-001 -2.968750e-001 -3.818936e-001
    endloop
  endfacet
  facet normal  0.000000e+000 -1.000000e+000  0.000000e+000
    outer loop
      vertex  4.599085e-001 -2.968750e-001 -3.717261e-001
      vertex  3.591403e-001 -2.968750e-001 -3.818936e-001
      vertex  3.800774e-001 -2.968750e-001 -4.531954e-001
    endloop
  endfacet
  facet normal  0.000000e+000 -1.000000e+000  0.000000e+000
    outer loop
      vertex  3.800774e-001 -2.968750e-001 -4.531954e-001
      vertex  3.591403e-001 -2.968750e-001 -3.818936e-001
      vertex  2.788335e-001 -2.968750e-001 -4.425842e-001
    endloop
  endfacet
  facet normal  0.000000e+000 -1.000000e+000  0.000000e+000
    outer loop
      vertex  3.800774e-001 -2.968750e-001 -4.531954e-001
      vertex  2.788335e-001 -2.968750e-001 -4.425842e-001
      vertex  2.859409e-001 -2.968750e-001 -5.176046e-001
    endloop
  endfacet
  facet normal  0.000000e+000 -1.000000e+000  0.000000e+000
    outer loop
      vertex  2.859409e-001 -2.968750e-001 -5.176046e-001
      vertex  2.788335e-001 -2.968750e-001 -4.425842e-001
      vertex  1.884014e-001 -2.968750e-001 -4.867945e-001
    endloop
  endfacet
  facet normal  0.000000e+000 -1.000000e+000  -0.000000e+000
    outer loop
      vertex  2.859409e-001 -2.968750e-001 -5.176046e-001
      vertex  1.884014e-001 -2.968750e-001 -4.867945e-001
      vertex  1.810855e-001 -2.968750e-001 -4.973480e-001
    endloop
  endfacet
  facet normal  -0.000000e+000  0.000000e+000  1.000000e+000
    outer loop
      vertex  9.827302e-002  2.951313e-017 -4.317434e-001
      vertex -1.052632e-001  1.821460e-017 -4.317434e-001
      vertex  9.827302e-002 -2.968750e-001 -4.317434e-001
    endloop
  endfacet
  facet normal  0.000000e+000  0.000000e+000  1.000000e+000
    outer loop
      vertex  9.827302e-002 -2.968750e-001 -4.317434e-001
      vertex -1.052632e-001  1.821460e-017 -4.317434e-001
      vertex -1.052632e-001 -2.968750e-001 -4.317434e-001
    endloop
  endfacet
  facet normal  6.114475e-001  0.000000e+000  7.912850e-001
    outer loop
      vertex  1.796875e-001  2.704799e-017 -4.946546e-001
      vertex  9.827302e-002  2.951313e-017 -4.317434e-001
      vertex  1.796875e-001 -2.968750e-001 -4.946546e-001
    endloop
  endfacet
  facet normal  6.114475e-001  0.000000e+000  7.912850e-001
    outer loop
      vertex  1.796875e-001 -2.968750e-001 -4.946546e-001
      vertex  9.827302e-002  2.951313e-017 -4.317434e-001
      vertex  9.827302e-002 -2.968750e-001 -4.317434e-001
    endloop
  endfacet
  facet normal  1.000000e+000  0.000000e+000  0.000000e+000
    outer loop
      vertex  1.796875e-001  1.924173e-017 -5.649671e-001
      vertex  1.796875e-001  2.704799e-017 -4.946546e-001
      vertex  1.796875e-001 -2.968750e-001 -5.649671e-001
    endloop
  endfacet
  facet normal  1.000000e+000  0.000000e+000  0.000000e+000
    outer loop
      vertex  1.796875e-001 -2.968750e-001 -5.649671e-001
      vertex  1.796875e-001  2.704799e-017 -4.946546e-001
      vertex  1.796875e-001 -2.968750e-001 -4.946546e-001
    endloop
  endfacet
  facet normal  1.000000e+000  0.000000e+000  0.000000e+000
    outer loop
      vertex  1.796875e-001 -1.301043e-018 -7.500000e-001
      vertex  1.796875e-001  1.924173e-017 -5.649671e-001
      vertex  1.796875e-001 -2.968750e-001 -7.500000e-001
    endloop
  endfacet
  facet normal  1.000000e+000  0.000000e+000  0.000000e+000
    outer loop
      vertex  1.796875e-001 -2.968750e-001 -7.500000e-001
      vertex  1.796875e-001  1.924173e-017 -5.649671e-001
      vertex  1.796875e-001 -2.968750e-001 -5.649671e-001
    endloop
  endfacet
  facet normal -1.000000e+000  0.000000e+000  0.000000e+000
    outer loop
      vertex -1.718750e-001 -2.739037e-019 -5.649671e-001
      vertex -1.718750e-001 -2.081668e-017 -7.500000e-001
      vertex -1.718750e-001 -2.968750e-001 -5.649671e-001
    endloop
  endfacet
  facet normal -1.000000e+000  0.000000e+000  0.000000e+000
    outer loop
      vertex -1.718750e-001 -2.968750e-001 -5.649671e-001
      vertex -1.718750e-001 -2.081668e-017 -7.500000e-001
      vertex -1.718750e-001 -2.968750e-001 -7.500000e-001
    endloop
  endfacet
  facet normal  0.000000e+000  0.000000e+000 -1.000000e+000
    outer loop
      vertex -1.718750e-001 -2.968750e-001 -7.500000e-001
      vertex -1.718750e-001 -2.081668e-017 -7.500000e-001
      vertex  1.796875e-001 -2.968750e-001 -7.500000e-001
    endloop
  endfacet
  facet normal  0.000000e+000  0.000000e+000 -1.000000e+000
    outer loop
      vertex  1.796875e-001 -2.968750e-001 -7.500000e-001
      vertex -1.718750e-001 -2.081668e-017 -7.500000e-001
      vertex  1.796875e-001 -1.301043e-018 -7.500000e-001
    endloop
  endfacet
  facet normal -9.999999e-001  0.000000e+000  0.000000e+000
    outer loop
      vertex -1.718750e-001  8.341047e-033 -5.625000e-001
      vertex -1.718750e-001 -2.739037e-019 -5.649671e-001
      vertex -1.718750e-001 -2.968750e-001 -5.625000e-001
    endloop
  endfacet
  facet normal -9.999999e-001  0.000000e+000  0.000000e+000
    outer loop
      vertex -1.718750e-001 -2.968750e-001 -5.625000e-001
      vertex -1.718750e-001 -2.739037e-019 -5.649671e-001
      vertex -1.718750e-001 -2.968750e-001 -5.649671e-001
    endloop
  endfacet
  facet normal  1.000000e+000  -0.000000e+000  0.000000e+000
    outer loop
      vertex -1.718750e-001  8.107550e-018 -4.894737e-001
      vertex -1.718750e-001 -2.968750e-001 -4.894737e-001
      vertex -1.718750e-001  7.532352e-018 -4.946546e-001
    endloop
  endfacet
  facet normal  1.000000e+000  0.000000e+000  0.000000e+000
    outer loop
      vertex -1.718750e-001  7.532352e-018 -4.946546e-001
      vertex -1.718750e-001 -2.968750e-001 -4.894737e-001
      vertex -1.718750e-001 -2.968750e-001 -4.946546e-001
    endloop
  endfacet
  facet normal -3.936032e-001  0.000000e+000 -9.192805e-001
    outer loop
      vertex -1.718750e-001  8.341047e-033 -5.625000e-001
      vertex -1.718750e-001 -2.968750e-001 -5.625000e-001
      vertex -2.767304e-001  1.078619e-017 -5.176046e-001
    endloop
  endfacet
  facet normal -3.936032e-001  -0.000000e+000 -9.192805e-001
    outer loop
      vertex -2.767304e-001  1.078619e-017 -5.176046e-001
      vertex -1.718750e-001 -2.968750e-001 -5.625000e-001
      vertex -2.767304e-001 -2.968750e-001 -5.176046e-001
    endloop
  endfacet
  facet normal -5.646845e-001  0.000000e+000 -8.253068e-001
    outer loop
      vertex -2.767304e-001  1.078619e-017 -5.176046e-001
      vertex -2.767304e-001 -2.968750e-001 -5.176046e-001
      vertex -3.708669e-001  1.271143e-017 -4.531954e-001
    endloop
  endfacet
  facet normal -5.646845e-001  -0.000000e+000 -8.253068e-001
    outer loop
      vertex -3.708669e-001  1.271143e-017 -4.531954e-001
      vertex -2.767304e-001 -2.968750e-001 -5.176046e-001
      vertex -3.708669e-001 -2.968750e-001 -4.531954e-001
    endloop
  endfacet
  facet normal -7.142515e-001  0.000000e+000 -6.998892e-001
    outer loop
      vertex -3.708669e-001  1.271143e-017 -4.531954e-001
      vertex -3.708669e-001 -2.968750e-001 -4.531954e-001
      vertex -4.506980e-001  1.732483e-017 -3.717261e-001
    endloop
  endfacet
  facet normal -7.142515e-001  -0.000000e+000 -6.998892e-001
    outer loop
      vertex -4.506980e-001  1.732483e-017 -3.717261e-001
      vertex -3.708669e-001 -2.968750e-001 -4.531954e-001
      vertex -4.506980e-001 -2.968750e-001 -3.717261e-001
    endloop
  endfacet
  facet normal -8.366057e-001  0.000000e+000 -5.478055e-001
    outer loop
      vertex -4.506980e-001  1.732483e-017 -3.717261e-001
      vertex -4.506980e-001 -2.968750e-001 -3.717261e-001
      vertex -5.131820e-001  2.445060e-017 -2.763008e-001
    endloop
  endfacet
  facet normal -8.366057e-001  -0.000000e+000 -5.478055e-001
    outer loop
      vertex -5.131820e-001  2.445060e-017 -2.763008e-001
      vertex -4.506980e-001 -2.968750e-001 -3.717261e-001
      vertex -5.131820e-001 -2.968750e-001 -2.763008e-001
    endloop
  endfacet
  facet normal -9.270853e-001  0.000000e+000 -3.748506e-001
    outer loop
      vertex -5.131820e-001  2.445060e-017 -2.763008e-001
      vertex -5.131820e-001 -2.968750e-001 -2.763008e-001
      vertex -5.559384e-001  3.381726e-017 -1.705552e-001
    endloop
  endfacet
  facet normal -9.270853e-001  -0.000000e+000 -3.748506e-001
    outer loop
      vertex -5.559384e-001  3.381726e-017 -1.705552e-001
      vertex -5.131820e-001 -2.968750e-001 -2.763008e-001
      vertex -5.559384e-001 -2.968750e-001 -1.705552e-001
    endloop
  endfacet
  facet normal -9.822428e-001  0.000000e+000 -1.876142e-001
    outer loop
      vertex -5.559384e-001  3.381726e-017 -1.705552e-001
      vertex -5.559384e-001 -2.968750e-001 -1.705552e-001
      vertex -5.773381e-001  4.506795e-017 -5.851819e-002
    endloop
  endfacet
  facet normal -9.822428e-001  -0.000000e+000 -1.876142e-001
    outer loop
      vertex -5.773381e-001  4.506795e-017 -5.851819e-002
      vertex -5.559384e-001 -2.968750e-001 -1.705552e-001
      vertex -5.773381e-001 -2.968750e-001 -5.851819e-002
    endloop
  endfacet
  facet normal -9.999771e-001  0.000000e+000  6.770830e-003
    outer loop
      vertex -5.773381e-001  4.506795e-017 -5.851819e-002
      vertex -5.773381e-001 -2.968750e-001 -5.851819e-002
      vertex -5.765658e-001  5.777401e-017  5.554164e-002
    endloop
  endfacet
  facet normal -9.999771e-001  0.000000e+000  6.770830e-003
    outer loop
      vertex -5.765658e-001  5.777401e-017  5.554164e-002
      vertex -5.773381e-001 -2.968750e-001 -5.851819e-002
      vertex -5.765658e-001 -2.968750e-001  5.554164e-002
    endloop
  endfacet
  facet normal -9.796123e-001  0.000000e+000  2.008972e-001
    outer loop
      vertex -5.765658e-001  5.777401e-017  5.554164e-002
      vertex -5.765658e-001 -2.968750e-001  5.554164e-002
      vertex -5.536510e-001  7.145133e-017  1.672786e-001
    endloop
  endfacet
  facet normal -9.796123e-001  0.000000e+000  2.008972e-001
    outer loop
      vertex -5.536510e-001  7.145133e-017  1.672786e-001
      vertex -5.765658e-001 -2.968750e-001  5.554164e-002
      vertex -5.536510e-001 -2.968750e-001  1.672786e-001
    endloop
  endfacet
  facet normal -9.219243e-001  0.000000e+000  3.873701e-001
    outer loop
      vertex -5.536510e-001  7.145133e-017  1.672786e-001
      vertex -5.536510e-001 -2.968750e-001  1.672786e-001
      vertex -5.094666e-001  8.557882e-017  2.724355e-001
    endloop
  endfacet
  facet normal -9.219243e-001  0.000000e+000  3.873701e-001
    outer loop
      vertex -5.094666e-001  8.557882e-017  2.724355e-001
      vertex -5.536510e-001 -2.968750e-001  1.672786e-001
      vertex -5.094666e-001 -2.968750e-001  2.724355e-001
    endloop
  endfacet
  facet normal -8.291113e-001  0.000000e+000  5.590836e-001
    outer loop
      vertex -5.094666e-001  8.557882e-017  2.724355e-001
      vertex -5.094666e-001 -2.968750e-001  2.724355e-001
      vertex -4.456961e-001  9.961822e-017  3.670060e-001
    endloop
  endfacet
  facet normal -8.291113e-001  0.000000e+000  5.590836e-001
    outer loop
      vertex -4.456961e-001  9.961822e-017  3.670060e-001
      vertex -5.094666e-001 -2.968750e-001  2.724355e-001
      vertex -4.456961e-001 -2.968750e-001  3.670060e-001
    endloop
  endfacet
  facet normal -7.047091e-001  0.000000e+000  7.094965e-001
    outer loop
      vertex -4.456961e-001  9.961822e-017  3.670060e-001
      vertex -4.456961e-001 -2.968750e-001  3.670060e-001
      vertex -3.647693e-001  1.130346e-016  4.473868e-001
    endloop
  endfacet
  facet normal -7.047091e-001  0.000000e+000  7.094965e-001
    outer loop
      vertex -3.647693e-001  1.130346e-016  4.473868e-001
      vertex -4.456961e-001 -2.968750e-001  3.670060e-001
      vertex -3.647693e-001 -2.968750e-001  4.473868e-001
    endloop
  endfacet
  facet normal -5.534571e-001  0.000000e+000  8.328776e-001
    outer loop
      vertex -3.647693e-001  1.130346e-016  4.473868e-001
      vertex -3.647693e-001 -2.968750e-001  4.473868e-001
      vertex -2.697692e-001  1.253169e-016  5.105155e-001
    endloop
  endfacet
  facet normal -5.534571e-001  0.000000e+000  8.328776e-001
    outer loop
      vertex -2.697692e-001  1.253169e-016  5.105155e-001
      vertex -3.647693e-001 -2.968750e-001  4.473868e-001
      vertex -2.697692e-001 -2.968750e-001  5.105155e-001
    endloop
  endfacet
  facet normal -3.811193e-001  0.000000e+000  9.245259e-001
    outer loop
      vertex -2.697692e-001  1.253169e-016  5.105155e-001
      vertex -2.697692e-001 -2.968750e-001  5.105155e-001
      vertex -1.643155e-001  1.359970e-016  5.539869e-001
    endloop
  endfacet
  facet normal -3.811193e-001  0.000000e+000  9.245259e-001
    outer loop
      vertex -1.643155e-001  1.359970e-016  5.539869e-001
      vertex -2.697692e-001 -2.968750e-001  5.105155e-001
      vertex -1.643155e-001 -2.968750e-001  5.539869e-001
    endloop
  endfacet
  facet normal -1.942602e-001  0.000000e+000  9.809501e-001
    outer loop
      vertex -1.643155e-001  1.359970e-016  5.539869e-001
      vertex -1.643155e-001 -2.968750e-001  5.539869e-001
      vertex -5.242596e-002  1.446682e-016  5.761447e-001
    endloop
  endfacet
  facet normal -1.942602e-001  0.000000e+000  9.809501e-001
    outer loop
      vertex -5.242596e-002  1.446682e-016  5.761447e-001
      vertex -1.643155e-001 -2.968750e-001  5.539869e-001
      vertex -5.242596e-002 -2.968750e-001  5.761447e-001
    endloop
  endfacet
  facet normal  0.000000e+000  0.000000e+000  1.000000e+000
    outer loop
      vertex -5.242596e-002  1.446682e-016  5.761447e-001
      vertex -5.242596e-002 -2.968750e-001  5.761447e-001
      vertex  6.163649e-002  1.509999e-016  5.761447e-001
    endloop
  endfacet
  facet normal  0.000000e+000  0.000000e+000  1.000000e+000
    outer loop
      vertex  6.163649e-002  1.509999e-016  5.761447e-001
      vertex -5.242596e-002 -2.968750e-001  5.761447e-001
      vertex  6.163649e-002 -2.968750e-001  5.761447e-001
    endloop
  endfacet
  facet normal  1.942602e-001  -0.000000e+000  9.809501e-001
    outer loop
      vertex  6.163649e-002  1.509999e-016  5.761447e-001
      vertex  6.163649e-002 -2.968750e-001  5.761447e-001
      vertex  1.735260e-001  1.547510e-016  5.539869e-001
    endloop
  endfacet
  facet normal  1.942602e-001  0.000000e+000  9.809501e-001
    outer loop
      vertex  1.735260e-001  1.547510e-016  5.539869e-001
      vertex  6.163649e-002 -2.968750e-001  5.761447e-001
      vertex  1.735260e-001 -2.968750e-001  5.539869e-001
    endloop
  endfacet
  facet normal  3.811193e-001  -0.000000e+000  9.245259e-001
    outer loop
      vertex  1.735260e-001  1.547510e-016  5.539869e-001
      vertex  1.735260e-001 -2.968750e-001  5.539869e-001
      vertex  2.789797e-001  1.557786e-016  5.105155e-001
    endloop
  endfacet
  facet normal  3.811193e-001  0.000000e+000  9.245259e-001
    outer loop
      vertex  2.789797e-001  1.557786e-016  5.105155e-001
      vertex  1.735260e-001 -2.968750e-001  5.539869e-001
      vertex  2.789797e-001 -2.968750e-001  5.105155e-001
    endloop
  endfacet
  facet normal  5.534571e-001  -0.000000e+000  8.328776e-001
    outer loop
      vertex  2.789797e-001  1.557786e-016  5.105155e-001
      vertex  2.789797e-001 -2.968750e-001  5.105155e-001
      vertex  3.739798e-001  1.540434e-016  4.473868e-001
    endloop
  endfacet
  facet normal  5.534571e-001  0.000000e+000  8.328776e-001
    outer loop
      vertex  3.739798e-001  1.540434e-016  4.473868e-001
      vertex  2.789797e-001 -2.968750e-001  5.105155e-001
      vertex  3.739798e-001 -2.968750e-001  4.473868e-001
    endloop
  endfacet
  facet normal  7.047091e-001  -0.000000e+000  7.094965e-001
    outer loop
      vertex  3.739798e-001  1.540434e-016  4.473868e-001
      vertex  3.739798e-001 -2.968750e-001  4.473868e-001
      vertex  4.549067e-001  1.496117e-016  3.670060e-001
    endloop
  endfacet
  facet normal  7.047091e-001  0.000000e+000  7.094965e-001
    outer loop
      vertex  4.549067e-001  1.496117e-016  3.670060e-001
      vertex  3.739798e-001 -2.968750e-001  4.473868e-001
      vertex  4.549067e-001 -2.968750e-001  3.670060e-001
    endloop
  endfacet
  facet normal  8.291113e-001  -0.000000e+000  5.590836e-001
    outer loop
      vertex  4.549067e-001  1.496117e-016  3.670060e-001
      vertex  4.549067e-001 -2.968750e-001  3.670060e-001
      vertex  5.186771e-001  1.426523e-016  2.724355e-001
    endloop
  endfacet
  facet normal  8.291113e-001  0.000000e+000  5.590836e-001
    outer loop
      vertex  5.186771e-001  1.426523e-016  2.724355e-001
      vertex  4.549067e-001 -2.968750e-001  3.670060e-001
      vertex  5.186771e-001 -2.968750e-001  2.724355e-001
    endloop
  endfacet
  facet normal  9.219243e-001  -0.000000e+000  3.873701e-001
    outer loop
      vertex  5.186771e-001  1.426523e-016  2.724355e-001
      vertex  5.186771e-001 -2.968750e-001  2.724355e-001
      vertex  5.628615e-001  1.334302e-016  1.672786e-001
    endloop
  endfacet
  facet normal  9.219243e-001  0.000000e+000  3.873701e-001
    outer loop
      vertex  5.628615e-001  1.334302e-016  1.672786e-001
      vertex  5.186771e-001 -2.968750e-001  2.724355e-001
      vertex  5.628615e-001 -2.968750e-001  1.672786e-001
    endloop
  endfacet
  facet normal  9.796123e-001  -0.000000e+000  2.008972e-001
    outer loop
      vertex  5.628615e-001  1.334302e-016  1.672786e-001
      vertex  5.628615e-001 -2.968750e-001  1.672786e-001
      vertex  5.857763e-001  1.222970e-016  5.554164e-002
    endloop
  endfacet
  facet normal  9.796123e-001  0.000000e+000  2.008972e-001
    outer loop
      vertex  5.857763e-001  1.222970e-016  5.554164e-002
      vertex  5.628615e-001 -2.968750e-001  1.672786e-001
      vertex  5.857763e-001 -2.968750e-001  5.554164e-002
    endloop
  endfacet
  facet normal  9.999771e-001  -0.000000e+000  6.770830e-003
    outer loop
      vertex  5.857763e-001  1.222970e-016  5.554164e-002
      vertex  5.857763e-001 -2.968750e-001  5.554164e-002
      vertex  5.865486e-001  1.096766e-016 -5.851819e-002
    endloop
  endfacet
  facet normal  9.999771e-001  0.000000e+000  6.770830e-003
    outer loop
      vertex  5.865486e-001  1.096766e-016 -5.851819e-002
      vertex  5.857763e-001 -2.968750e-001  5.554164e-002
      vertex  5.865486e-001 -2.968750e-001 -5.851819e-002
    endloop
  endfacet
  facet normal  9.822428e-001  0.000000e+000 -1.876142e-001
    outer loop
      vertex  5.865486e-001  1.096766e-016 -5.851819e-002
      vertex  5.865486e-001 -2.968750e-001 -5.851819e-002
      vertex  5.651489e-001  9.605011e-017 -1.705552e-001
    endloop
  endfacet
  facet normal  9.822428e-001  0.000000e+000 -1.876142e-001
    outer loop
      vertex  5.651489e-001  9.605011e-017 -1.705552e-001
      vertex  5.865486e-001 -2.968750e-001 -5.851819e-002
      vertex  5.651489e-001 -2.968750e-001 -1.705552e-001
    endloop
  endfacet
  facet normal  9.270853e-001  0.000000e+000 -3.748506e-001
    outer loop
      vertex  5.651489e-001  9.605011e-017 -1.705552e-001
      vertex  5.651489e-001 -2.968750e-001 -1.705552e-001
      vertex  5.223925e-001  8.193653e-017 -2.763008e-001
    endloop
  endfacet
  facet normal  9.270853e-001  0.000000e+000 -3.748506e-001
    outer loop
      vertex  5.223925e-001  8.193653e-017 -2.763008e-001
      vertex  5.651489e-001 -2.968750e-001 -1.705552e-001
      vertex  5.223925e-001 -2.968750e-001 -2.763008e-001
    endloop
  endfacet
  facet normal  8.366057e-001  0.000000e+000 -5.478055e-001
    outer loop
      vertex  5.223925e-001  8.193653e-017 -2.763008e-001
      vertex  5.223925e-001 -2.968750e-001 -2.763008e-001
      vertex  4.599085e-001  6.787364e-017 -3.717261e-001
    endloop
  endfacet
  facet normal  8.366057e-001  0.000000e+000 -5.478055e-001
    outer loop
      vertex  4.599085e-001  6.787364e-017 -3.717261e-001
      vertex  5.223925e-001 -2.968750e-001 -2.763008e-001
      vertex  4.599085e-001 -2.968750e-001 -3.717261e-001
    endloop
  endfacet
  facet normal  7.142515e-001  0.000000e+000 -6.998892e-001
    outer loop
      vertex  4.599085e-001  6.787364e-017 -3.717261e-001
      vertex  4.599085e-001 -2.968750e-001 -3.717261e-001
      vertex  3.800774e-001  5.439722e-017 -4.531954e-001
    endloop
  endfacet
  facet normal  7.142515e-001  0.000000e+000 -6.998892e-001
    outer loop
      vertex  3.800774e-001  5.439722e-017 -4.531954e-001
      vertex  4.599085e-001 -2.968750e-001 -3.717261e-001
      vertex  3.800774e-001 -2.968750e-001 -4.531954e-001
    endloop
  endfacet
  facet normal  5.646845e-001  0.000000e+000 -8.253068e-001
    outer loop
      vertex  3.800774e-001  5.439722e-017 -4.531954e-001
      vertex  3.800774e-001 -2.968750e-001 -4.531954e-001
      vertex  2.859409e-001  4.202072e-017 -5.176046e-001
    endloop
  endfacet
  facet normal  5.646845e-001  0.000000e+000 -8.253068e-001
    outer loop
      vertex  2.859409e-001  4.202072e-017 -5.176046e-001
      vertex  3.800774e-001 -2.968750e-001 -4.531954e-001
      vertex  2.859409e-001 -2.968750e-001 -5.176046e-001
    endloop
  endfacet
  facet normal  3.936032e-001  0.000000e+000 -9.192805e-001
    outer loop
      vertex  2.859409e-001  4.202072e-017 -5.176046e-001
      vertex  2.859409e-001 -2.968750e-001 -5.176046e-001
      vertex  1.810855e-001  3.121570e-017 -5.625000e-001
    endloop
  endfacet
  facet normal  3.936032e-001  0.000000e+000 -9.192805e-001
    outer loop
      vertex  1.810855e-001  3.121570e-017 -5.625000e-001
      vertex  2.859409e-001 -2.968750e-001 -5.176046e-001
      vertex  1.810855e-001 -2.968750e-001 -5.625000e-001
    endloop
  endfacet
  facet normal -6.866236e-001  0.000000e+000  7.270132e-001
    outer loop
      vertex -1.052632e-001  1.821460e-017 -4.317434e-001
      vertex -1.718750e-001  7.532352e-018 -4.946546e-001
      vertex -1.052632e-001 -2.968750e-001 -4.317434e-001
    endloop
  endfacet
  facet normal -6.866236e-001  0.000000e+000  7.270132e-001
    outer loop
      vertex -1.052632e-001 -2.968750e-001 -4.317434e-001
      vertex -1.718750e-001  7.532352e-018 -4.946546e-001
      vertex -1.718750e-001 -2.968750e-001 -4.946546e-001
    endloop
  endfacet
  facet normal -1.000000e+000  0.000000e+000  0.000000e+000
    outer loop
      vertex  1.810855e-001  3.121570e-017 -5.625000e-001
      vertex  1.810855e-001 -2.968750e-001 -5.625000e-001
      vertex  1.810855e-001  2.682656e-017 -4.973480e-001
    endloop
  endfacet
  facet normal -1.000000e+000  -0.000000e+000  0.000000e+000
    outer loop
      vertex  1.810855e-001  2.682656e-017 -4.973480e-001
      vertex  1.810855e-001 -2.968750e-001 -5.625000e-001
      vertex  1.810855e-001 -2.968750e-001 -4.973480e-001
    endloop
  endfacet
  facet normal  1.985592e-001  0.000000e+000 -9.800889e-001
    outer loop
      vertex -4.960104e-002  1.381047e-016  5.247951e-001
      vertex -1.482572e-001 -2.968750e-001  5.048080e-001
      vertex -1.482572e-001  1.304091e-016  5.048080e-001
    endloop
  endfacet
  facet normal  3.823510e-001  0.000000e+000 -9.240172e-001
    outer loop
      vertex -1.482572e-001  1.304091e-016  5.048080e-001
      vertex -1.482572e-001 -2.968750e-001  5.048080e-001
      vertex -2.412692e-001 -2.968750e-001  4.663204e-001
    endloop
  endfacet
  facet normal  3.823510e-001  0.000000e+000 -9.240172e-001
    outer loop
      vertex -1.482572e-001  1.304091e-016  5.048080e-001
      vertex -2.412692e-001 -2.968750e-001  4.663204e-001
      vertex -2.412692e-001  1.209730e-016  4.663204e-001
    endloop
  endfacet
  facet normal  5.520245e-001  0.000000e+000 -8.338279e-001
    outer loop
      vertex -2.412692e-001  1.209730e-016  4.663204e-001
      vertex -2.412692e-001 -2.968750e-001  4.663204e-001
      vertex -3.252026e-001 -2.968750e-001  4.107534e-001
    endloop
  endfacet
  facet normal  5.520245e-001  0.000000e+000 -8.338279e-001
    outer loop
      vertex -2.412692e-001  1.209730e-016  4.663204e-001
      vertex -3.252026e-001 -2.968750e-001  4.107534e-001
      vertex -3.252026e-001  1.101445e-016  4.107534e-001
    endloop
  endfacet
  facet normal  7.013161e-001  0.000000e+000 -7.128506e-001
    outer loop
      vertex -3.252026e-001  1.101445e-016  4.107534e-001
      vertex -3.252026e-001 -2.968750e-001  4.107534e-001
      vertex -3.969585e-001 -2.968750e-001  3.401586e-001
    endloop
  endfacet
  facet normal  7.013161e-001  0.000000e+000 -7.128506e-001
    outer loop
      vertex -3.252026e-001  1.101445e-016  4.107534e-001
      vertex -3.969585e-001 -2.968750e-001  3.401586e-001
      vertex -3.969585e-001  9.832370e-017  3.401586e-001
    endloop
  endfacet
  facet normal  8.247122e-001  0.000000e+000 -5.655527e-001
    outer loop
      vertex -3.969585e-001  9.832370e-017  3.401586e-001
      vertex -3.969585e-001 -2.968750e-001  3.401586e-001
      vertex -4.538873e-001 -2.968750e-001  2.571427e-001
    endloop
  endfacet
  facet normal  8.247122e-001  0.000000e+000 -5.655527e-001
    outer loop
      vertex -3.969585e-001  9.832370e-017  3.401586e-001
      vertex -4.538873e-001 -2.968750e-001  2.571427e-001
      vertex -4.538873e-001  8.594690e-017  2.571427e-001
    endloop
  endfacet
  facet normal  9.176573e-001  0.000000e+000 -3.973726e-001
    outer loop
      vertex -4.538873e-001  8.594690e-017  2.571427e-001
      vertex -4.538873e-001 -2.968750e-001  2.571427e-001
      vertex -4.938869e-001 -2.968750e-001  1.647709e-001
    endloop
  endfacet
  facet normal  9.176573e-001  0.000000e+000 -3.973726e-001
    outer loop
      vertex -4.538873e-001  8.594690e-017  2.571427e-001
      vertex -4.938869e-001 -2.968750e-001  1.647709e-001
      vertex -4.938869e-001  7.347114e-017  1.647709e-001
    endloop
  endfacet
  facet normal  9.767196e-001  0.000000e+000 -2.145202e-001
    outer loop
      vertex -4.938869e-001  7.347114e-017  1.647709e-001
      vertex -4.938869e-001 -2.968750e-001  1.647709e-001
      vertex -5.154806e-001 -2.968750e-001  6.645395e-002
    endloop
  endfacet
  facet normal  9.767196e-001  0.000000e+000 -2.145202e-001
    outer loop
      vertex -4.938869e-001  7.347114e-017  1.647709e-001
      vertex -5.154806e-001 -2.968750e-001  6.645395e-002
      vertex -5.154806e-001  6.135707e-017  6.645395e-002
    endloop
  endfacet
  facet normal  9.997180e-001  0.000000e+000 -2.374702e-002
    outer loop
      vertex -5.154806e-001  6.135707e-017  6.645395e-002
      vertex -5.154806e-001 -2.968750e-001  6.645395e-002
      vertex -5.178710e-001 -2.968750e-001 -3.417809e-002
    endloop
  endfacet
  facet normal  9.997180e-001  0.000000e+000 -2.374702e-002
    outer loop
      vertex -5.154806e-001  6.135707e-017  6.645395e-002
      vertex -5.178710e-001 -2.968750e-001 -3.417809e-002
      vertex -5.178710e-001  5.005198e-017 -3.417809e-002
    endloop
  endfacet
  facet normal  9.858035e-001  0.000000e+000  1.679031e-001
    outer loop
      vertex -5.178710e-001  5.005198e-017 -3.417809e-002
      vertex -5.178710e-001 -2.968750e-001 -3.417809e-002
      vertex -5.009698e-001 -2.968750e-001 -1.334095e-001
    endloop
  endfacet
  facet normal  9.858035e-001  -0.000000e+000  1.679031e-001
    outer loop
      vertex -5.178710e-001  5.005198e-017 -3.417809e-002
      vertex -5.009698e-001 -2.968750e-001 -1.334095e-001
      vertex -5.009698e-001  3.997329e-017 -1.334095e-001
    endloop
  endfacet
  facet normal  9.354898e-001  0.000000e+000  3.533537e-001
    outer loop
      vertex -5.009698e-001  3.997329e-017 -1.334095e-001
      vertex -5.009698e-001 -2.968750e-001 -1.334095e-001
      vertex -4.654011e-001 -2.968750e-001 -2.275763e-001
    endloop
  endfacet
  facet normal  9.354898e-001  -0.000000e+000  3.533537e-001
    outer loop
      vertex -5.009698e-001  3.997329e-017 -1.334095e-001
      vertex -4.654011e-001 -2.968750e-001 -2.275763e-001
      vertex -4.654011e-001  3.149313e-017 -2.275763e-001
    endloop
  endfacet
  facet normal  8.506348e-001  0.000000e+000  5.257571e-001
    outer loop
      vertex -4.654011e-001  3.149313e-017 -2.275763e-001
      vertex -4.654011e-001 -2.968750e-001 -2.275763e-001
      vertex -4.124781e-001 -2.968750e-001 -3.132015e-001
    endloop
  endfacet
  facet normal  8.506348e-001  -0.000000e+000  5.257571e-001
    outer loop
      vertex -4.654011e-001  3.149313e-017 -2.275763e-001
      vertex -4.124781e-001 -2.968750e-001 -3.132015e-001
      vertex -4.124781e-001  2.492463e-017 -3.132015e-001
    endloop
  endfacet
  facet normal  7.343714e-001  0.000000e+000  6.787480e-001
    outer loop
      vertex -4.124781e-001  2.492463e-017 -3.132015e-001
      vertex -4.124781e-001 -2.968750e-001 -3.132015e-001
      vertex -3.441551e-001 -2.968750e-001 -3.871237e-001
    endloop
  endfacet
  facet normal  7.343714e-001  -0.000000e+000  6.787480e-001
    outer loop
      vertex -4.124781e-001  2.492463e-017 -3.132015e-001
      vertex -3.441551e-001 -2.968750e-001 -3.871237e-001
      vertex -3.441551e-001  2.051032e-017 -3.871237e-001
    endloop
  endfacet
  facet normal  5.909927e-001  0.000000e+000  8.066770e-001
    outer loop
      vertex -3.441551e-001  2.051032e-017 -3.871237e-001
      vertex -3.441551e-001 -2.968750e-001 -3.871237e-001
      vertex -2.629547e-001 -2.968750e-001 -4.466133e-001
    endloop
  endfacet
  facet normal  5.909927e-001  -0.000000e+000  8.066770e-001
    outer loop
      vertex -3.441551e-001  2.051032e-017 -3.871237e-001
      vertex -2.629547e-001 -2.968750e-001 -4.466133e-001
      vertex -2.629547e-001  1.841318e-017 -4.466133e-001
    endloop
  endfacet
  facet normal  4.257922e-001  0.000000e+000  9.048209e-001
    outer loop
      vertex -2.629547e-001  1.841318e-017 -4.466133e-001
      vertex -2.629547e-001 -2.968750e-001 -4.466133e-001
      vertex -1.718750e-001 -2.968750e-001 -4.894737e-001
    endloop
  endfacet
  facet normal  4.257922e-001  -0.000000e+000  9.048209e-001
    outer loop
      vertex -2.629547e-001  1.841318e-017 -4.466133e-001
      vertex -1.718750e-001 -2.968750e-001 -4.894737e-001
      vertex -1.718750e-001  8.107550e-018 -4.894737e-001
    endloop
  endfacet
  facet normal  1.985592e-001  0.000000e+000 -9.800889e-001
    outer loop
      vertex -1.482572e-001 -2.968750e-001  5.048080e-001
      vertex -4.960104e-002  1.381047e-016  5.247951e-001
      vertex -4.960104e-002 -2.968750e-001  5.247951e-001
    endloop
  endfacet
  facet normal  7.436042e-003  0.000000e+000 -9.999723e-001
    outer loop
      vertex -4.960104e-002 -2.968750e-001  5.247951e-001
      vertex -4.960104e-002  1.381047e-016  5.247951e-001
      vertex  5.105660e-002  1.437754e-016  5.255436e-001
    endloop
  endfacet
  facet normal  7.436042e-003  0.000000e+000 -9.999723e-001
    outer loop
      vertex -4.960104e-002 -2.968750e-001  5.247951e-001
      vertex  5.105660e-002  1.437754e-016  5.255436e-001
      vertex  5.105660e-002 -2.968750e-001  5.255436e-001
    endloop
  endfacet
  facet normal -1.839612e-001  0.000000e+000 -9.829335e-001
    outer loop
      vertex  5.105660e-002 -2.968750e-001  5.255436e-001
      vertex  5.105660e-002  1.437754e-016  5.255436e-001
      vertex  1.499991e-001  1.472119e-016  5.070260e-001
    endloop
  endfacet
  facet normal -1.839612e-001  -0.000000e+000 -9.829335e-001
    outer loop
      vertex  5.105660e-002 -2.968750e-001  5.255436e-001
      vertex  1.499991e-001  1.472119e-016  5.070260e-001
      vertex  1.499991e-001 -2.968750e-001  5.070260e-001
    endloop
  endfacet
  facet normal -3.685663e-001  0.000000e+000 -9.296015e-001
    outer loop
      vertex  1.499991e-001 -2.968750e-001  5.070260e-001
      vertex  1.499991e-001  1.472119e-016  5.070260e-001
      vertex  2.435732e-001  1.482874e-016  4.699259e-001
    endloop
  endfacet
  facet normal -3.685663e-001  -0.000000e+000 -9.296015e-001
    outer loop
      vertex  1.499991e-001 -2.968750e-001  5.070260e-001
      vertex  2.435732e-001  1.482874e-016  4.699259e-001
      vertex  2.435732e-001 -2.968750e-001  4.699259e-001
    endloop
  endfacet
  facet normal -5.395628e-001  0.000000e+000 -8.419454e-001
    outer loop
      vertex  2.435732e-001 -2.968750e-001  4.699259e-001
      vertex  2.435732e-001  1.482874e-016  4.699259e-001
      vertex  3.283238e-001  1.469621e-016  4.156133e-001
    endloop
  endfacet
  facet normal -5.395628e-001  -0.000000e+000 -8.419454e-001
    outer loop
      vertex  2.435732e-001 -2.968750e-001  4.699259e-001
      vertex  3.283238e-001  1.469621e-016  4.156133e-001
      vertex  3.283238e-001 -2.968750e-001  4.156133e-001
    endloop
  endfacet
  facet normal -6.906368e-001  0.000000e+000 -7.232019e-001
    outer loop
      vertex  3.283238e-001 -2.968750e-001  4.156133e-001
      vertex  3.283238e-001  1.469621e-016  4.156133e-001
      vertex  4.011216e-001  1.432849e-016  3.460935e-001
    endloop
  endfacet
  facet normal -6.906368e-001  -0.000000e+000 -7.232019e-001
    outer loop
      vertex  3.283238e-001 -2.968750e-001  4.156133e-001
      vertex  4.011216e-001  1.432849e-016  3.460935e-001
      vertex  4.011216e-001 -2.968750e-001  3.460935e-001
    endloop
  endfacet
  facet normal -8.162099e-001  0.000000e+000 -5.777556e-001
    outer loop
      vertex  4.011216e-001 -2.968750e-001  3.460935e-001
      vertex  4.011216e-001  1.432849e-016  3.460935e-001
      vertex  4.592787e-001  1.373917e-016  2.639335e-001
    endloop
  endfacet
  facet normal -8.162099e-001  -0.000000e+000 -5.777556e-001
    outer loop
      vertex  4.011216e-001 -2.968750e-001  3.460935e-001
      vertex  4.592787e-001  1.373917e-016  2.639335e-001
      vertex  4.592787e-001 -2.968750e-001  2.639335e-001
    endloop
  endfacet
  facet normal -9.116461e-001  0.000000e+000 -4.109763e-001
    outer loop
      vertex  4.592787e-001 -2.968750e-001  2.639335e-001
      vertex  4.592787e-001  1.373917e-016  2.639335e-001
      vertex  5.006477e-001  1.295000e-016  1.721668e-001
    endloop
  endfacet
  facet normal -9.116461e-001  -0.000000e+000 -4.109763e-001
    outer loop
      vertex  4.592787e-001 -2.968750e-001  2.639335e-001
      vertex  5.006477e-001  1.295000e-016  1.721668e-001
      vertex  5.006477e-001 -2.968750e-001  1.721668e-001
    endloop
  endfacet
  facet normal -9.734212e-001  0.000000e+000 -2.290222e-001
    outer loop
      vertex  5.006477e-001 -2.968750e-001  1.721668e-001
      vertex  5.006477e-001  1.295000e-016  1.721668e-001
      vertex  5.237012e-001  1.199012e-016  7.418180e-002
    endloop
  endfacet
  facet normal -9.734212e-001  -0.000000e+000 -2.290222e-001
    outer loop
      vertex  5.006477e-001 -2.968750e-001  1.721668e-001
      vertex  5.237012e-001  1.199012e-016  7.418180e-002
      vertex  5.237012e-001 -2.968750e-001  7.418180e-002
    endloop
  endfacet
  facet normal -9.992543e-001  0.000000e+000 -3.861200e-002
    outer loop
      vertex  5.237012e-001 -2.968750e-001  7.418180e-002
      vertex  5.237012e-001  1.199012e-016  7.418180e-002
      vertex  5.275879e-001  1.089498e-016 -2.640356e-002
    endloop
  endfacet
  facet normal -9.992543e-001  -0.000000e+000 -3.861200e-002
    outer loop
      vertex  5.237012e-001 -2.968750e-001  7.418180e-002
      vertex  5.275879e-001  1.089498e-016 -2.640356e-002
      vertex  5.275879e-001 -2.968750e-001 -2.640356e-002
    endloop
  endfacet
  facet normal -9.881916e-001  0.000000e+000  1.532235e-001
    outer loop
      vertex  5.275879e-001 -2.968750e-001 -2.640356e-002
      vertex  5.275879e-001  1.089498e-016 -2.640356e-002
      vertex  5.121644e-001  9.704999e-017 -1.258753e-001
    endloop
  endfacet
  facet normal -9.881916e-001  0.000000e+000  1.532235e-001
    outer loop
      vertex  5.275879e-001 -2.968750e-001 -2.640356e-002
      vertex  5.121644e-001  9.704999e-017 -1.258753e-001
      vertex  5.121644e-001 -2.968750e-001 -1.258753e-001
    endloop
  endfacet
  facet normal -9.406416e-001  0.000000e+000  3.394016e-001
    outer loop
      vertex  5.121644e-001 -2.968750e-001 -1.258753e-001
      vertex  5.121644e-001  9.704999e-017 -1.258753e-001
      vertex  4.780000e-001  8.464130e-017 -2.205607e-001
    endloop
  endfacet
  facet normal -9.406416e-001  0.000000e+000  3.394016e-001
    outer loop
      vertex  5.121644e-001 -2.968750e-001 -1.258753e-001
      vertex  4.780000e-001  8.464130e-017 -2.205607e-001
      vertex  4.780000e-001 -2.968750e-001 -2.205607e-001
    endloop
  endfacet
  facet normal -8.583597e-001  0.000000e+000  5.130484e-001
    outer loop
      vertex  4.780000e-001 -2.968750e-001 -2.205607e-001
      vertex  4.780000e-001  8.464130e-017 -2.205607e-001
      vertex  4.263564e-001  7.218186e-017 -3.069636e-001
    endloop
  endfacet
  facet normal -8.583597e-001  0.000000e+000  5.130484e-001
    outer loop
      vertex  4.780000e-001 -2.968750e-001 -2.205607e-001
      vertex  4.263564e-001  7.218186e-017 -3.069636e-001
      vertex  4.263564e-001 -2.968750e-001 -3.069636e-001
    endloop
  endfacet
  facet normal -7.443847e-001  0.000000e+000  6.677510e-001
    outer loop
      vertex  4.263564e-001 -2.968750e-001 -3.069636e-001
      vertex  4.263564e-001  7.218186e-017 -3.069636e-001
      vertex  3.591403e-001  6.013170e-017 -3.818936e-001
    endloop
  endfacet
  facet normal -7.443847e-001  0.000000e+000  6.677510e-001
    outer loop
      vertex  4.263564e-001 -2.968750e-001 -3.069636e-001
      vertex  3.591403e-001  6.013170e-017 -3.818936e-001
      vertex  3.591403e-001 -2.968750e-001 -3.818936e-001
    endloop
  endfacet
  facet normal -6.029242e-001  0.000000e+000  7.977985e-001
    outer loop
      vertex  3.591403e-001 -2.968750e-001 -3.818936e-001
      vertex  3.591403e-001  6.013170e-017 -3.818936e-001
      vertex  2.788335e-001  4.893578e-017 -4.425842e-001
    endloop
  endfacet
  facet normal -6.029242e-001  0.000000e+000  7.977985e-001
    outer loop
      vertex  3.591403e-001 -2.968750e-001 -3.818936e-001
      vertex  2.788335e-001  4.893578e-017 -4.425842e-001
      vertex  2.788335e-001 -2.968750e-001 -4.425842e-001
    endloop
  endfacet
  facet normal -4.392020e-001  0.000000e+000  8.983884e-001
    outer loop
      vertex  2.788335e-001 -2.968750e-001 -4.425842e-001
      vertex  2.788335e-001  4.893578e-017 -4.425842e-001
      vertex  1.884014e-001  3.900746e-017 -4.867945e-001
    endloop
  endfacet
  facet normal -4.392020e-001  0.000000e+000  8.983884e-001
    outer loop
      vertex  2.788335e-001 -2.968750e-001 -4.425842e-001
      vertex  1.884014e-001  3.900746e-017 -4.867945e-001
      vertex  1.884014e-001 -2.968750e-001 -4.867945e-001
    endloop
  endfacet
  facet normal -8.218436e-001  0.000000e+000  5.697134e-001
    outer loop
      vertex  1.810855e-001  2.682656e-017 -4.973480e-001
      vertex  1.810855e-001 -2.968750e-001 -4.973480e-001
      vertex  1.884014e-001  3.900746e-017 -4.867945e-001
    endloop
  endfacet
  facet normal -8.218436e-001  0.000000e+000  5.697134e-001
    outer loop
      vertex  1.884014e-001  3.900746e-017 -4.867945e-001
      vertex  1.810855e-001 -2.968750e-001 -4.973480e-001
      vertex  1.884014e-001 -2.968750e-001 -4.867945e-001
    endloop
  endfacet
endsolid CATIA STL
