solid CATIA STL
  facet normal  3.532345e-017  3.870468e-015 -1.000000e+000
    outer loop
      vertex  1.055773e-001 -3.598311e-001  1.665335e-016
      vertex  3.334912e-002 -3.735142e-001  1.110223e-016
      vertex -4.016067e-002 -3.728433e-001  1.110223e-016
    endloop
  endfacet
  facet normal  3.532349e-017  3.870467e-015 -1.000000e+000
    outer loop
      vertex -4.016067e-002 -3.728433e-001  1.110223e-016
      vertex -1.121271e-001 -3.578443e-001  1.665335e-016
      vertex  1.055773e-001 -3.598311e-001  1.665335e-016
    endloop
  endfacet
  facet normal  3.532344e-017  3.870467e-015 -1.000000e+000
    outer loop
      vertex  1.121271e-001  3.578443e-001  2.775558e-016
      vertex -3.334912e-002  3.735142e-001  3.330669e-016
      vertex  4.016067e-002  3.728433e-001  3.330669e-016
    endloop
  endfacet
  facet normal  0.000000e+000  0.000000e+000 -1.000000e+000
    outer loop
      vertex  1.055773e-001 -3.598311e-001  1.665335e-016
      vertex -1.121271e-001 -3.578443e-001  1.665335e-016
      vertex  1.737483e-001 -3.323199e-001  1.665335e-016
    endloop
  endfacet
  facet normal  -0.000000e+000  0.000000e+000 -1.000000e+000
    outer loop
      vertex  1.737483e-001 -3.323199e-001  1.665335e-016
      vertex -1.121271e-001 -3.578443e-001  1.665335e-016
      vertex -1.797846e-001 -3.290935e-001  1.665335e-016
    endloop
  endfacet
  facet normal  0.000000e+000  0.000000e+000 -1.000000e+000
    outer loop
      vertex  1.737483e-001 -3.323199e-001  1.665335e-016
      vertex -1.797846e-001 -3.290935e-001  1.665335e-016
      vertex  2.352421e-001 -2.920379e-001  1.665335e-016
    endloop
  endfacet
  facet normal  -0.000000e+000  0.000000e+000 -1.000000e+000
    outer loop
      vertex  2.352421e-001 -2.920379e-001  1.665335e-016
      vertex -1.797846e-001 -3.290935e-001  1.665335e-016
      vertex -2.405330e-001 -2.876958e-001  1.665335e-016
    endloop
  endfacet
  facet normal  0.000000e+000  0.000000e+000 -1.000000e+000
    outer loop
      vertex  2.352421e-001 -2.920379e-001  1.665335e-016
      vertex -2.405330e-001 -2.876958e-001  1.665335e-016
      vertex  2.876958e-001 -2.405330e-001  1.665335e-016
    endloop
  endfacet
  facet normal  -0.000000e+000  0.000000e+000 -9.999999e-001
    outer loop
      vertex  2.876958e-001 -2.405330e-001  1.665335e-016
      vertex -2.405330e-001 -2.876958e-001  1.665335e-016
      vertex -2.920379e-001 -2.352421e-001  1.665335e-016
    endloop
  endfacet
  facet normal  0.000000e+000  0.000000e+000 -1.000000e+000
    outer loop
      vertex  2.876958e-001 -2.405330e-001  1.665335e-016
      vertex -2.920379e-001 -2.352421e-001  1.665335e-016
      vertex  3.290935e-001 -1.797846e-001  1.665335e-016
    endloop
  endfacet
  facet normal  -0.000000e+000  0.000000e+000 -9.999999e-001
    outer loop
      vertex  3.290935e-001 -1.797846e-001  1.665335e-016
      vertex -2.920379e-001 -2.352421e-001  1.665335e-016
      vertex -3.323199e-001 -1.737483e-001  1.665335e-016
    endloop
  endfacet
  facet normal  7.459044e-018  8.173037e-016 -9.999999e-001
    outer loop
      vertex  3.290935e-001 -1.797846e-001  1.665335e-016
      vertex -3.323199e-001 -1.737483e-001  1.665335e-016
      vertex  3.578443e-001 -1.121271e-001  2.220446e-016
    endloop
  endfacet
  facet normal  7.459039e-018  8.173038e-016 -1.000000e+000
    outer loop
      vertex  3.578443e-001 -1.121271e-001  2.220446e-016
      vertex -3.323199e-001 -1.737483e-001  1.665335e-016
      vertex -3.598311e-001 -1.055773e-001  2.220446e-016
    endloop
  endfacet
  facet normal  0.000000e+000  0.000000e+000 -1.000000e+000
    outer loop
      vertex  3.578443e-001 -1.121271e-001  2.220446e-016
      vertex -3.598311e-001 -1.055773e-001  2.220446e-016
      vertex  3.728433e-001 -4.016067e-002  2.220446e-016
    endloop
  endfacet
  facet normal  -0.000000e+000  0.000000e+000 -1.000000e+000
    outer loop
      vertex  3.728433e-001 -4.016067e-002  2.220446e-016
      vertex -3.598311e-001 -1.055773e-001  2.220446e-016
      vertex -3.735142e-001 -3.334912e-002  2.220446e-016
    endloop
  endfacet
  facet normal  0.000000e+000  0.000000e+000 -9.999999e-001
    outer loop
      vertex  3.728433e-001 -4.016067e-002  2.220446e-016
      vertex -3.735142e-001 -3.334912e-002  2.220446e-016
      vertex  3.735142e-001  3.334912e-002  2.220446e-016
    endloop
  endfacet
  facet normal  -0.000000e+000  0.000000e+000 -9.999999e-001
    outer loop
      vertex  3.735142e-001  3.334912e-002  2.220446e-016
      vertex -3.735142e-001 -3.334912e-002  2.220446e-016
      vertex -3.728433e-001  4.016067e-002  2.220446e-016
    endloop
  endfacet
  facet normal  0.000000e+000  0.000000e+000 -1.000000e+000
    outer loop
      vertex  3.735142e-001  3.334912e-002  2.220446e-016
      vertex -3.728433e-001  4.016067e-002  2.220446e-016
      vertex  3.598311e-001  1.055773e-001  2.220446e-016
    endloop
  endfacet
  facet normal  -0.000000e+000  0.000000e+000 -1.000000e+000
    outer loop
      vertex  3.598311e-001  1.055773e-001  2.220446e-016
      vertex -3.728433e-001  4.016067e-002  2.220446e-016
      vertex -3.578443e-001  1.121271e-001  2.220446e-016
    endloop
  endfacet
  facet normal  7.459039e-018  8.173038e-016 -1.000000e+000
    outer loop
      vertex  3.598311e-001  1.055773e-001  2.220446e-016
      vertex -3.578443e-001  1.121271e-001  2.220446e-016
      vertex  3.323199e-001  1.737483e-001  2.775558e-016
    endloop
  endfacet
  facet normal  7.459044e-018  8.173037e-016 -9.999999e-001
    outer loop
      vertex  3.323199e-001  1.737483e-001  2.775558e-016
      vertex -3.578443e-001  1.121271e-001  2.220446e-016
      vertex -3.290935e-001  1.797846e-001  2.775558e-016
    endloop
  endfacet
  facet normal  0.000000e+000  0.000000e+000 -9.999999e-001
    outer loop
      vertex  3.323199e-001  1.737483e-001  2.775558e-016
      vertex -3.290935e-001  1.797846e-001  2.775558e-016
      vertex  2.920379e-001  2.352421e-001  2.775558e-016
    endloop
  endfacet
  facet normal  -0.000000e+000  0.000000e+000 -1.000000e+000
    outer loop
      vertex  2.920379e-001  2.352421e-001  2.775558e-016
      vertex -3.290935e-001  1.797846e-001  2.775558e-016
      vertex -2.876958e-001  2.405330e-001  2.775558e-016
    endloop
  endfacet
  facet normal  0.000000e+000  0.000000e+000 -9.999999e-001
    outer loop
      vertex  2.920379e-001  2.352421e-001  2.775558e-016
      vertex -2.876958e-001  2.405330e-001  2.775558e-016
      vertex  2.405330e-001  2.876958e-001  2.775558e-016
    endloop
  endfacet
  facet normal  -0.000000e+000  0.000000e+000 -1.000000e+000
    outer loop
      vertex  2.405330e-001  2.876958e-001  2.775558e-016
      vertex -2.876958e-001  2.405330e-001  2.775558e-016
      vertex -2.352421e-001  2.920379e-001  2.775558e-016
    endloop
  endfacet
  facet normal  0.000000e+000  0.000000e+000 -1.000000e+000
    outer loop
      vertex  2.405330e-001  2.876958e-001  2.775558e-016
      vertex -2.352421e-001  2.920379e-001  2.775558e-016
      vertex  1.797846e-001  3.290935e-001  2.775558e-016
    endloop
  endfacet
  facet normal  -0.000000e+000  0.000000e+000 -1.000000e+000
    outer loop
      vertex  1.797846e-001  3.290935e-001  2.775558e-016
      vertex -2.352421e-001  2.920379e-001  2.775558e-016
      vertex -1.737483e-001  3.323199e-001  2.775558e-016
    endloop
  endfacet
  facet normal  0.000000e+000  0.000000e+000 -1.000000e+000
    outer loop
      vertex  1.797846e-001  3.290935e-001  2.775558e-016
      vertex -1.737483e-001  3.323199e-001  2.775558e-016
      vertex  1.121271e-001  3.578443e-001  2.775558e-016
    endloop
  endfacet
  facet normal  -0.000000e+000  0.000000e+000 -1.000000e+000
    outer loop
      vertex  1.121271e-001  3.578443e-001  2.775558e-016
      vertex -1.737483e-001  3.323199e-001  2.775558e-016
      vertex -1.055773e-001  3.598311e-001  2.775558e-016
    endloop
  endfacet
  facet normal  3.532349e-017  3.870468e-015 -1.000000e+000
    outer loop
      vertex  1.121271e-001  3.578443e-001  2.775558e-016
      vertex -1.055773e-001  3.598311e-001  2.775558e-016
      vertex -3.334912e-002  3.735142e-001  3.330669e-016
    endloop
  endfacet
  facet normal  7.061606e-003  1.661766e-002  9.998370e-001
    outer loop
      vertex -1.729875e-016 -3.454009e-016  1.460526e-001
      vertex  3.981394e-002  7.287893e-002  1.445602e-001
      vertex  2.483095e-002  7.924589e-002  1.445602e-001
    endloop
  endfacet
  facet normal  3.683986e-003  1.767600e-002  9.998370e-001
    outer loop
      vertex -1.729875e-016 -3.454009e-016  1.460526e-001
      vertex  2.483095e-002  7.924589e-002  1.445602e-001
      vertex  8.893725e-003  8.256748e-002  1.445602e-001
    endloop
  endfacet
  facet normal  1.647732e-004  1.805507e-002  9.998370e-001
    outer loop
      vertex -1.729875e-016 -3.454009e-016  1.460526e-001
      vertex  8.893725e-003  8.256748e-002  1.445602e-001
      vertex -7.385282e-003  8.271605e-002  1.445602e-001
    endloop
  endfacet
  facet normal -3.360754e-003  1.774030e-002  9.998370e-001
    outer loop
      vertex -1.729875e-016 -3.454009e-016  1.460526e-001
      vertex -7.385282e-003  8.271605e-002  1.445602e-001
      vertex -2.338048e-002  7.968589e-002  1.445602e-001
    endloop
  endfacet
  facet normal -6.757140e-003  1.674377e-002  9.998370e-001
    outer loop
      vertex -1.729875e-016 -3.454009e-016  1.460526e-001
      vertex -2.338048e-002  7.968589e-002  1.445602e-001
      vertex -3.847717e-002  7.359345e-002  1.445602e-001
    endloop
  endfacet
  facet normal -9.893853e-003  1.510379e-002  9.998370e-001
    outer loop
      vertex -1.729875e-016 -3.454009e-016  1.460526e-001
      vertex -3.847717e-002  7.359345e-002  1.445602e-001
      vertex -5.209521e-002  6.467284e-002  1.445602e-001
    endloop
  endfacet
  facet normal -1.265035e-002  1.288338e-002  9.998370e-001
    outer loop
      vertex -1.729875e-016 -3.454009e-016  1.460526e-001
      vertex -5.209521e-002  6.467284e-002  1.445602e-001
      vertex -6.371126e-002  5.326690e-002  1.445602e-001
    endloop
  endfacet
  facet normal -1.492070e-002  1.016787e-002  9.998370e-001
    outer loop
      vertex -1.729875e-016 -3.454009e-016  1.460526e-001
      vertex -6.371126e-002  5.326690e-002  1.445602e-001
      vertex -7.287893e-002  3.981394e-002  1.445602e-001
    endloop
  endfacet
  facet normal -1.661766e-002  7.061606e-003  9.998370e-001
    outer loop
      vertex -1.729875e-016 -3.454009e-016  1.460526e-001
      vertex -7.287893e-002  3.981394e-002  1.445602e-001
      vertex -7.924589e-002  2.483095e-002  1.445602e-001
    endloop
  endfacet
  facet normal -1.767600e-002  3.683986e-003  9.998370e-001
    outer loop
      vertex -1.729875e-016 -3.454009e-016  1.460526e-001
      vertex -7.924589e-002  2.483095e-002  1.445602e-001
      vertex -8.256748e-002  8.893725e-003  1.445602e-001
    endloop
  endfacet
  facet normal -1.805507e-002  1.647732e-004  9.998370e-001
    outer loop
      vertex -1.729875e-016 -3.454009e-016  1.460526e-001
      vertex -8.256748e-002  8.893725e-003  1.445602e-001
      vertex -8.271605e-002 -7.385282e-003  1.445602e-001
    endloop
  endfacet
  facet normal -1.774030e-002 -3.360754e-003  9.998370e-001
    outer loop
      vertex -1.729875e-016 -3.454009e-016  1.460526e-001
      vertex -8.271605e-002 -7.385282e-003  1.445602e-001
      vertex -7.968589e-002 -2.338048e-002  1.445602e-001
    endloop
  endfacet
  facet normal -1.674377e-002 -6.757140e-003  9.998370e-001
    outer loop
      vertex -1.729875e-016 -3.454009e-016  1.460526e-001
      vertex -7.968589e-002 -2.338048e-002  1.445602e-001
      vertex -7.359345e-002 -3.847717e-002  1.445602e-001
    endloop
  endfacet
  facet normal -1.510379e-002 -9.893853e-003  9.998370e-001
    outer loop
      vertex -1.729875e-016 -3.454009e-016  1.460526e-001
      vertex -7.359345e-002 -3.847717e-002  1.445602e-001
      vertex -6.467284e-002 -5.209521e-002  1.445602e-001
    endloop
  endfacet
  facet normal -1.288338e-002 -1.265035e-002  9.998370e-001
    outer loop
      vertex -1.729875e-016 -3.454009e-016  1.460526e-001
      vertex -6.467284e-002 -5.209521e-002  1.445602e-001
      vertex -5.326690e-002 -6.371126e-002  1.445602e-001
    endloop
  endfacet
  facet normal -1.016787e-002 -1.492070e-002  9.998370e-001
    outer loop
      vertex -1.729875e-016 -3.454009e-016  1.460526e-001
      vertex -5.326690e-002 -6.371126e-002  1.445602e-001
      vertex -3.981394e-002 -7.287893e-002  1.445602e-001
    endloop
  endfacet
  facet normal  2.600022e-001  6.118469e-001  7.470223e-001
    outer loop
      vertex  1.797846e-001  3.290935e-001  2.775558e-016
      vertex  1.121271e-001  3.578443e-001  2.775558e-016
      vertex  1.499745e-001  2.745265e-001  5.506836e-002
    endloop
  endfacet
  facet normal  2.600024e-001  6.118469e-001  7.470222e-001
    outer loop
      vertex  1.499745e-001  2.745265e-001  5.506836e-002
      vertex  1.121271e-001  3.578443e-001  2.775558e-016
      vertex  9.353533e-002  2.985102e-001  5.506836e-002
    endloop
  endfacet
  facet normal  2.045102e-001  4.812607e-001  8.523871e-001
    outer loop
      vertex  1.499745e-001  2.745265e-001  5.506836e-002
      vertex  9.353533e-002  2.985102e-001  5.506836e-002
      vertex  1.159875e-001  2.123137e-001  9.834834e-002
    endloop
  endfacet
  facet normal  2.045100e-001  4.812607e-001  8.523871e-001
    outer loop
      vertex  1.159875e-001  2.123137e-001  9.834834e-002
      vertex  9.353533e-002  2.985102e-001  5.506836e-002
      vertex  7.233848e-002  2.308622e-001  9.834834e-002
    endloop
  endfacet
  facet normal  1.425332e-001  3.354144e-001  9.312258e-001
    outer loop
      vertex  1.159875e-001  2.123137e-001  9.834834e-002
      vertex  7.233848e-002  2.308622e-001  9.834834e-002
      vertex  7.888205e-002  1.443926e-001  1.284919e-001
    endloop
  endfacet
  facet normal  1.425331e-001  3.354144e-001  9.312258e-001
    outer loop
      vertex  7.888205e-002  1.443926e-001  1.284919e-001
      vertex  7.233848e-002  2.308622e-001  9.834834e-002
      vertex  4.919675e-002  1.570073e-001  1.284919e-001
    endloop
  endfacet
  facet normal  7.601314e-002  1.788771e-001  9.809306e-001
    outer loop
      vertex  7.888205e-002  1.443926e-001  1.284919e-001
      vertex  4.919675e-002  1.570073e-001  1.284919e-001
      vertex  3.981394e-002  7.287893e-002  1.445602e-001
    endloop
  endfacet
  facet normal  7.601312e-002  1.788771e-001  9.809307e-001
    outer loop
      vertex  3.981394e-002  7.287893e-002  1.445602e-001
      vertex  4.919675e-002  1.570073e-001  1.284919e-001
      vertex  2.483095e-002  7.924589e-002  1.445602e-001
    endloop
  endfacet
  facet normal -3.743717e-001 -5.493666e-001  7.470223e-001
    outer loop
      vertex -2.405330e-001 -2.876958e-001  1.665335e-016
      vertex -1.797846e-001 -3.290935e-001  1.665335e-016
      vertex -2.006503e-001 -2.399930e-001  5.506836e-002
    endloop
  endfacet
  facet normal -3.743716e-001 -5.493666e-001  7.470223e-001
    outer loop
      vertex -2.006503e-001 -2.399930e-001  5.506836e-002
      vertex -1.797846e-001 -3.290935e-001  1.665335e-016
      vertex -1.499745e-001 -2.745265e-001  5.506836e-002
    endloop
  endfacet
  facet normal -2.944696e-001 -4.321156e-001  8.523871e-001
    outer loop
      vertex -2.006503e-001 -2.399930e-001  5.506836e-002
      vertex -1.499745e-001 -2.745265e-001  5.506836e-002
      vertex -1.551792e-001 -1.856061e-001  9.834834e-002
    endloop
  endfacet
  facet normal -2.944698e-001 -4.321155e-001  8.523870e-001
    outer loop
      vertex -1.551792e-001 -1.856061e-001  9.834834e-002
      vertex -1.499745e-001 -2.745265e-001  5.506836e-002
      vertex -1.159875e-001 -2.123137e-001  9.834834e-002
    endloop
  endfacet
  facet normal -2.052305e-001 -3.011627e-001  9.312258e-001
    outer loop
      vertex -1.551792e-001 -1.856061e-001  9.834834e-002
      vertex -1.159875e-001 -2.123137e-001  9.834834e-002
      vertex -1.055360e-001 -1.262290e-001  1.284919e-001
    endloop
  endfacet
  facet normal -2.052305e-001 -3.011627e-001  9.312258e-001
    outer loop
      vertex -1.055360e-001 -1.262290e-001  1.284919e-001
      vertex -1.159875e-001 -2.123137e-001  9.834834e-002
      vertex -7.888205e-002 -1.443926e-001  1.284919e-001
    endloop
  endfacet
  facet normal -1.094498e-001 -1.606106e-001  9.809307e-001
    outer loop
      vertex -1.055360e-001 -1.262290e-001  1.284919e-001
      vertex -7.888205e-002 -1.443926e-001  1.284919e-001
      vertex -5.326690e-002 -6.371126e-002  1.445602e-001
    endloop
  endfacet
  facet normal -1.094498e-001 -1.606106e-001  9.809307e-001
    outer loop
      vertex -5.326690e-002 -6.371126e-002  1.445602e-001
      vertex -7.888205e-002 -1.443926e-001  1.284919e-001
      vertex -3.981394e-002 -7.287893e-002  1.445602e-001
    endloop
  endfacet
  facet normal -4.743544e-001 -4.657743e-001  7.470223e-001
    outer loop
      vertex -2.920379e-001 -2.352421e-001  1.665335e-016
      vertex -2.405330e-001 -2.876958e-001  1.665335e-016
      vertex -2.436151e-001 -1.962367e-001  5.506836e-002
    endloop
  endfacet
  facet normal -4.743544e-001 -4.657743e-001  7.470223e-001
    outer loop
      vertex -2.436151e-001 -1.962367e-001  5.506836e-002
      vertex -2.405330e-001 -2.876958e-001  1.665335e-016
      vertex -2.006503e-001 -2.399930e-001  5.506836e-002
    endloop
  endfacet
  facet normal -3.731132e-001 -3.663643e-001  8.523871e-001
    outer loop
      vertex -2.436151e-001 -1.962367e-001  5.506836e-002
      vertex -2.006503e-001 -2.399930e-001  5.506836e-002
      vertex -1.884074e-001 -1.517658e-001  9.834834e-002
    endloop
  endfacet
  facet normal -3.731132e-001 -3.663644e-001  8.523871e-001
    outer loop
      vertex -1.884074e-001 -1.517658e-001  9.834834e-002
      vertex -2.006503e-001 -2.399930e-001  5.506836e-002
      vertex -1.551792e-001 -1.856061e-001  9.834834e-002
    endloop
  endfacet
  facet normal -2.600410e-001 -2.553374e-001  9.312258e-001
    outer loop
      vertex -1.884074e-001 -1.517658e-001  9.834834e-002
      vertex -1.551792e-001 -1.856061e-001  9.834834e-002
      vertex -1.281342e-001 -1.032145e-001  1.284919e-001
    endloop
  endfacet
  facet normal -2.600410e-001 -2.553375e-001  9.312258e-001
    outer loop
      vertex -1.281342e-001 -1.032145e-001  1.284919e-001
      vertex -1.551792e-001 -1.856061e-001  9.834834e-002
      vertex -1.055360e-001 -1.262290e-001  1.284919e-001
    endloop
  endfacet
  facet normal -1.386803e-001 -1.361719e-001  9.809307e-001
    outer loop
      vertex -1.281342e-001 -1.032145e-001  1.284919e-001
      vertex -1.055360e-001 -1.262290e-001  1.284919e-001
      vertex -6.467284e-002 -5.209521e-002  1.445602e-001
    endloop
  endfacet
  facet normal -1.386803e-001 -1.361719e-001  9.809307e-001
    outer loop
      vertex -6.467284e-002 -5.209521e-002  1.445602e-001
      vertex -1.055360e-001 -1.262290e-001  1.284919e-001
      vertex -5.326690e-002 -6.371126e-002  1.445602e-001
    endloop
  endfacet
  facet normal -5.561077e-001 -3.642827e-001  7.470222e-001
    outer loop
      vertex -3.323199e-001 -1.737483e-001  1.665335e-016
      vertex -2.920379e-001 -2.352421e-001  1.665335e-016
      vertex -2.772180e-001 -1.449391e-001  5.506836e-002
    endloop
  endfacet
  facet normal -5.561078e-001 -3.642827e-001  7.470222e-001
    outer loop
      vertex -2.772180e-001 -1.449391e-001  5.506836e-002
      vertex -2.920379e-001 -2.352421e-001  1.665335e-016
      vertex -2.436151e-001 -1.962367e-001  5.506836e-002
    endloop
  endfacet
  facet normal -4.374180e-001 -2.865340e-001  8.523870e-001
    outer loop
      vertex -2.772180e-001 -1.449391e-001  5.506836e-002
      vertex -2.436151e-001 -1.962367e-001  5.506836e-002
      vertex -2.143952e-001 -1.120932e-001  9.834834e-002
    endloop
  endfacet
  facet normal -4.374180e-001 -2.865341e-001  8.523871e-001
    outer loop
      vertex -2.143952e-001 -1.120932e-001  9.834834e-002
      vertex -2.436151e-001 -1.962367e-001  5.506836e-002
      vertex -1.884074e-001 -1.517658e-001  9.834834e-002
    endloop
  endfacet
  facet normal -3.048582e-001 -1.996998e-001  9.312259e-001
    outer loop
      vertex -2.143952e-001 -1.120932e-001  9.834834e-002
      vertex -1.884074e-001 -1.517658e-001  9.834834e-002
      vertex -1.458083e-001 -7.623356e-002  1.284919e-001
    endloop
  endfacet
  facet normal -3.048583e-001 -1.996997e-001  9.312258e-001
    outer loop
      vertex -1.458083e-001 -7.623356e-002  1.284919e-001
      vertex -1.884074e-001 -1.517658e-001  9.834834e-002
      vertex -1.281342e-001 -1.032145e-001  1.284919e-001
    endloop
  endfacet
  facet normal -1.625815e-001 -1.065002e-001  9.809306e-001
    outer loop
      vertex -1.458083e-001 -7.623356e-002  1.284919e-001
      vertex -1.281342e-001 -1.032145e-001  1.284919e-001
      vertex -7.359345e-002 -3.847717e-002  1.445602e-001
    endloop
  endfacet
  facet normal -1.625814e-001 -1.065002e-001  9.809307e-001
    outer loop
      vertex -7.359345e-002 -3.847717e-002  1.445602e-001
      vertex -1.281342e-001 -1.032145e-001  1.284919e-001
      vertex -6.467284e-002 -5.209521e-002  1.445602e-001
    endloop
  endfacet
  facet normal -6.164903e-001 -2.487919e-001  7.470224e-001
    outer loop
      vertex -3.598311e-001 -1.055773e-001  2.220446e-016
      vertex -3.323199e-001 -1.737483e-001  1.665335e-016
      vertex -3.001676e-001 -8.807156e-002  5.506836e-002
    endloop
  endfacet
  facet normal -6.164903e-001 -2.487918e-001  7.470223e-001
    outer loop
      vertex -3.001676e-001 -8.807156e-002  5.506836e-002
      vertex -3.323199e-001 -1.737483e-001  1.665335e-016
      vertex -2.772180e-001 -1.449391e-001  5.506836e-002
    endloop
  endfacet
  facet normal -4.849132e-001 -1.956923e-001  8.523870e-001
    outer loop
      vertex -3.001676e-001 -8.807156e-002  5.506836e-002
      vertex -2.772180e-001 -1.449391e-001  5.506836e-002
      vertex -2.321440e-001 -6.811289e-002  9.834834e-002
    endloop
  endfacet
  facet normal -4.849132e-001 -1.956923e-001  8.523871e-001
    outer loop
      vertex -2.321440e-001 -6.811289e-002  9.834834e-002
      vertex -2.772180e-001 -1.449391e-001  5.506836e-002
      vertex -2.143952e-001 -1.120932e-001  9.834834e-002
    endloop
  endfacet
  facet normal -3.379600e-001 -1.363876e-001  9.312258e-001
    outer loop
      vertex -2.321440e-001 -6.811289e-002  9.834834e-002
      vertex -2.143952e-001 -1.120932e-001  9.834834e-002
      vertex -1.578790e-001 -4.632297e-002  1.284919e-001
    endloop
  endfacet
  facet normal -3.379599e-001 -1.363878e-001  9.312258e-001
    outer loop
      vertex -1.578790e-001 -4.632297e-002  1.284919e-001
      vertex -2.143952e-001 -1.120932e-001  9.834834e-002
      vertex -1.458083e-001 -7.623356e-002  1.284919e-001
    endloop
  endfacet
  facet normal -1.802346e-001 -7.273583e-002  9.809307e-001
    outer loop
      vertex -1.578790e-001 -4.632297e-002  1.284919e-001
      vertex -1.458083e-001 -7.623356e-002  1.284919e-001
      vertex -7.968589e-002 -2.338048e-002  1.445602e-001
    endloop
  endfacet
  facet normal -1.802347e-001 -7.273576e-002  9.809306e-001
    outer loop
      vertex -7.968589e-002 -2.338048e-002  1.445602e-001
      vertex -1.458083e-001 -7.623356e-002  1.284919e-001
      vertex -7.359345e-002 -3.847717e-002  1.445602e-001
    endloop
  endfacet
  facet normal -6.531816e-001 -1.237400e-001  7.470222e-001
    outer loop
      vertex -3.735142e-001 -3.334912e-002  2.220446e-016
      vertex -3.598311e-001 -1.055773e-001  2.220446e-016
      vertex -3.115819e-001 -2.781950e-002  5.506836e-002
    endloop
  endfacet
  facet normal -6.531814e-001 -1.237402e-001  7.470223e-001
    outer loop
      vertex -3.115819e-001 -2.781950e-002  5.506836e-002
      vertex -3.598311e-001 -1.055773e-001  2.220446e-016
      vertex -3.001676e-001 -8.807156e-002  5.506836e-002
    endloop
  endfacet
  facet normal -5.137733e-001 -9.733041e-002  8.523871e-001
    outer loop
      vertex -3.115819e-001 -2.781950e-002  5.506836e-002
      vertex -3.001676e-001 -8.807156e-002  5.506836e-002
      vertex -2.409716e-001 -2.151508e-002  9.834834e-002
    endloop
  endfacet
  facet normal -5.137734e-001 -9.733026e-002  8.523871e-001
    outer loop
      vertex -2.409716e-001 -2.151508e-002  9.834834e-002
      vertex -3.001676e-001 -8.807156e-002  5.506836e-002
      vertex -2.321440e-001 -6.811289e-002  9.834834e-002
    endloop
  endfacet
  facet normal -3.580741e-001 -6.783427e-002  9.312258e-001
    outer loop
      vertex -2.409716e-001 -2.151508e-002  9.834834e-002
      vertex -2.321440e-001 -6.811289e-002  9.834834e-002
      vertex -1.638826e-001 -1.463222e-002  1.284919e-001
    endloop
  endfacet
  facet normal -3.580741e-001 -6.783427e-002  9.312258e-001
    outer loop
      vertex -1.638826e-001 -1.463222e-002  1.284919e-001
      vertex -2.321440e-001 -6.811289e-002  9.834834e-002
      vertex -1.578790e-001 -4.632297e-002  1.284919e-001
    endloop
  endfacet
  facet normal -1.909615e-001 -3.617613e-002  9.809307e-001
    outer loop
      vertex -1.638826e-001 -1.463222e-002  1.284919e-001
      vertex -1.578790e-001 -4.632297e-002  1.284919e-001
      vertex -8.271605e-002 -7.385282e-003  1.445602e-001
    endloop
  endfacet
  facet normal -1.909615e-001 -3.617610e-002  9.809307e-001
    outer loop
      vertex -8.271605e-002 -7.385282e-003  1.445602e-001
      vertex -1.578790e-001 -4.632297e-002  1.284919e-001
      vertex -7.968589e-002 -2.338048e-002  1.445602e-001
    endloop
  endfacet
  facet normal -6.647713e-001  6.066971e-003  7.470223e-001
    outer loop
      vertex -3.728433e-001  4.016067e-002  2.220446e-016
      vertex -3.735142e-001 -3.334912e-002  2.220446e-016
      vertex -3.110222e-001  3.350164e-002  5.506836e-002
    endloop
  endfacet
  facet normal -6.647714e-001  6.067149e-003  7.470222e-001
    outer loop
      vertex -3.110222e-001  3.350164e-002  5.506836e-002
      vertex -3.735142e-001 -3.334912e-002  2.220446e-016
      vertex -3.115819e-001 -2.781950e-002  5.506836e-002
    endloop
  endfacet
  facet normal -5.228896e-001  4.772240e-003  8.523871e-001
    outer loop
      vertex -3.110222e-001  3.350164e-002  5.506836e-002
      vertex -3.115819e-001 -2.781950e-002  5.506836e-002
      vertex -2.405387e-001  2.590954e-002  9.834834e-002
    endloop
  endfacet
  facet normal -5.228895e-001  4.772132e-003  8.523871e-001
    outer loop
      vertex -2.405387e-001  2.590954e-002  9.834834e-002
      vertex -3.115819e-001 -2.781950e-002  5.506836e-002
      vertex -2.409716e-001 -2.151508e-002  9.834834e-002
    endloop
  endfacet
  facet normal -3.644276e-001  3.325936e-003  9.312258e-001
    outer loop
      vertex -2.405387e-001  2.590954e-002  9.834834e-002
      vertex -2.409716e-001 -2.151508e-002  9.834834e-002
      vertex -1.635882e-001  1.762085e-002  1.284919e-001
    endloop
  endfacet
  facet normal -3.644276e-001  3.325948e-003  9.312257e-001
    outer loop
      vertex -1.635882e-001  1.762085e-002  1.284919e-001
      vertex -2.409716e-001 -2.151508e-002  9.834834e-002
      vertex -1.638826e-001 -1.463222e-002  1.284919e-001
    endloop
  endfacet
  facet normal -1.943499e-001  1.773734e-003  9.809307e-001
    outer loop
      vertex -1.635882e-001  1.762085e-002  1.284919e-001
      vertex -1.638826e-001 -1.463222e-002  1.284919e-001
      vertex -8.256748e-002  8.893725e-003  1.445602e-001
    endloop
  endfacet
  facet normal -1.943499e-001  1.773665e-003  9.809307e-001
    outer loop
      vertex -8.256748e-002  8.893725e-003  1.445602e-001
      vertex -1.638826e-001 -1.463222e-002  1.284919e-001
      vertex -8.271605e-002 -7.385282e-003  1.445602e-001
    endloop
  endfacet
  facet normal -6.508144e-001  1.356408e-001  7.470222e-001
    outer loop
      vertex -3.578443e-001  1.121271e-001  2.220446e-016
      vertex -3.728433e-001  4.016067e-002  2.220446e-016
      vertex -2.985102e-001  9.353533e-002  5.506836e-002
    endloop
  endfacet
  facet normal -6.508142e-001  1.356406e-001  7.470223e-001
    outer loop
      vertex -2.985102e-001  9.353533e-002  5.506836e-002
      vertex -3.728433e-001  4.016067e-002  2.220446e-016
      vertex -3.110222e-001  3.350164e-002  5.506836e-002
    endloop
  endfacet
  facet normal -5.119113e-001  1.066909e-001  8.523871e-001
    outer loop
      vertex -2.985102e-001  9.353533e-002  5.506836e-002
      vertex -3.110222e-001  3.350164e-002  5.506836e-002
      vertex -2.308622e-001  7.233848e-002  9.834834e-002
    endloop
  endfacet
  facet normal -5.119115e-001  1.066910e-001  8.523871e-001
    outer loop
      vertex -2.308622e-001  7.233848e-002  9.834834e-002
      vertex -3.110222e-001  3.350164e-002  5.506836e-002
      vertex -2.405387e-001  2.590954e-002  9.834834e-002
    endloop
  endfacet
  facet normal -3.567764e-001  7.435822e-002  9.312258e-001
    outer loop
      vertex -2.308622e-001  7.233848e-002  9.834834e-002
      vertex -2.405387e-001  2.590954e-002  9.834834e-002
      vertex -1.570073e-001  4.919675e-002  1.284919e-001
    endloop
  endfacet
  facet normal -3.567764e-001  7.435836e-002  9.312257e-001
    outer loop
      vertex -1.570073e-001  4.919675e-002  1.284919e-001
      vertex -2.405387e-001  2.590954e-002  9.834834e-002
      vertex -1.635882e-001  1.762085e-002  1.284919e-001
    endloop
  endfacet
  facet normal -1.902695e-001  3.965544e-002  9.809307e-001
    outer loop
      vertex -1.570073e-001  4.919675e-002  1.284919e-001
      vertex -1.635882e-001  1.762085e-002  1.284919e-001
      vertex -7.924589e-002  2.483095e-002  1.445602e-001
    endloop
  endfacet
  facet normal -1.902694e-001  3.965547e-002  9.809307e-001
    outer loop
      vertex -7.924589e-002  2.483095e-002  1.445602e-001
      vertex -1.635882e-001  1.762085e-002  1.284919e-001
      vertex -8.256748e-002  8.893725e-003  1.445602e-001
    endloop
  endfacet
  facet normal -6.118469e-001  2.600022e-001  7.470223e-001
    outer loop
      vertex -3.290935e-001  1.797846e-001  2.775558e-016
      vertex -3.578443e-001  1.121271e-001  2.220446e-016
      vertex -2.745265e-001  1.499745e-001  5.506836e-002
    endloop
  endfacet
  facet normal -6.118469e-001  2.600024e-001  7.470222e-001
    outer loop
      vertex -2.745265e-001  1.499745e-001  5.506836e-002
      vertex -3.578443e-001  1.121271e-001  2.220446e-016
      vertex -2.985102e-001  9.353533e-002  5.506836e-002
    endloop
  endfacet
  facet normal -4.812607e-001  2.045102e-001  8.523871e-001
    outer loop
      vertex -2.745265e-001  1.499745e-001  5.506836e-002
      vertex -2.985102e-001  9.353533e-002  5.506836e-002
      vertex -2.123137e-001  1.159875e-001  9.834834e-002
    endloop
  endfacet
  facet normal -4.812607e-001  2.045100e-001  8.523871e-001
    outer loop
      vertex -2.123137e-001  1.159875e-001  9.834834e-002
      vertex -2.985102e-001  9.353533e-002  5.506836e-002
      vertex -2.308622e-001  7.233848e-002  9.834834e-002
    endloop
  endfacet
  facet normal -3.354144e-001  1.425332e-001  9.312258e-001
    outer loop
      vertex -2.123137e-001  1.159875e-001  9.834834e-002
      vertex -2.308622e-001  7.233848e-002  9.834834e-002
      vertex -1.443926e-001  7.888205e-002  1.284919e-001
    endloop
  endfacet
  facet normal -3.354144e-001  1.425331e-001  9.312258e-001
    outer loop
      vertex -1.443926e-001  7.888205e-002  1.284919e-001
      vertex -2.308622e-001  7.233848e-002  9.834834e-002
      vertex -1.570073e-001  4.919675e-002  1.284919e-001
    endloop
  endfacet
  facet normal -1.788771e-001  7.601314e-002  9.809306e-001
    outer loop
      vertex -1.443926e-001  7.888205e-002  1.284919e-001
      vertex -1.570073e-001  4.919675e-002  1.284919e-001
      vertex -7.287893e-002  3.981394e-002  1.445602e-001
    endloop
  endfacet
  facet normal -1.788771e-001  7.601312e-002  9.809307e-001
    outer loop
      vertex -7.287893e-002  3.981394e-002  1.445602e-001
      vertex -1.570073e-001  4.919675e-002  1.284919e-001
      vertex -7.924589e-002  2.483095e-002  1.445602e-001
    endloop
  endfacet
  facet normal -5.493666e-001  3.743717e-001  7.470223e-001
    outer loop
      vertex -2.876958e-001  2.405330e-001  2.775558e-016
      vertex -3.290935e-001  1.797846e-001  2.775558e-016
      vertex -2.399930e-001  2.006503e-001  5.506836e-002
    endloop
  endfacet
  facet normal -5.493666e-001  3.743716e-001  7.470223e-001
    outer loop
      vertex -2.399930e-001  2.006503e-001  5.506836e-002
      vertex -3.290935e-001  1.797846e-001  2.775558e-016
      vertex -2.745265e-001  1.499745e-001  5.506836e-002
    endloop
  endfacet
  facet normal -4.321156e-001  2.944696e-001  8.523871e-001
    outer loop
      vertex -2.399930e-001  2.006503e-001  5.506836e-002
      vertex -2.745265e-001  1.499745e-001  5.506836e-002
      vertex -1.856061e-001  1.551792e-001  9.834834e-002
    endloop
  endfacet
  facet normal -4.321155e-001  2.944698e-001  8.523870e-001
    outer loop
      vertex -1.856061e-001  1.551792e-001  9.834834e-002
      vertex -2.745265e-001  1.499745e-001  5.506836e-002
      vertex -2.123137e-001  1.159875e-001  9.834834e-002
    endloop
  endfacet
  facet normal -3.011627e-001  2.052305e-001  9.312258e-001
    outer loop
      vertex -1.856061e-001  1.551792e-001  9.834834e-002
      vertex -2.123137e-001  1.159875e-001  9.834834e-002
      vertex -1.262290e-001  1.055360e-001  1.284919e-001
    endloop
  endfacet
  facet normal -3.011627e-001  2.052305e-001  9.312258e-001
    outer loop
      vertex -1.262290e-001  1.055360e-001  1.284919e-001
      vertex -2.123137e-001  1.159875e-001  9.834834e-002
      vertex -1.443926e-001  7.888205e-002  1.284919e-001
    endloop
  endfacet
  facet normal -1.606106e-001  1.094498e-001  9.809307e-001
    outer loop
      vertex -1.262290e-001  1.055360e-001  1.284919e-001
      vertex -1.443926e-001  7.888205e-002  1.284919e-001
      vertex -6.371126e-002  5.326690e-002  1.445602e-001
    endloop
  endfacet
  facet normal -1.606106e-001  1.094498e-001  9.809307e-001
    outer loop
      vertex -6.371126e-002  5.326690e-002  1.445602e-001
      vertex -1.443926e-001  7.888205e-002  1.284919e-001
      vertex -7.287893e-002  3.981394e-002  1.445602e-001
    endloop
  endfacet
  facet normal -4.657743e-001  4.743544e-001  7.470223e-001
    outer loop
      vertex -2.352421e-001  2.920379e-001  2.775558e-016
      vertex -2.876958e-001  2.405330e-001  2.775558e-016
      vertex -1.962367e-001  2.436151e-001  5.506836e-002
    endloop
  endfacet
  facet normal -4.657743e-001  4.743544e-001  7.470223e-001
    outer loop
      vertex -1.962367e-001  2.436151e-001  5.506836e-002
      vertex -2.876958e-001  2.405330e-001  2.775558e-016
      vertex -2.399930e-001  2.006503e-001  5.506836e-002
    endloop
  endfacet
  facet normal -3.663643e-001  3.731132e-001  8.523871e-001
    outer loop
      vertex -1.962367e-001  2.436151e-001  5.506836e-002
      vertex -2.399930e-001  2.006503e-001  5.506836e-002
      vertex -1.517658e-001  1.884074e-001  9.834834e-002
    endloop
  endfacet
  facet normal -3.663644e-001  3.731132e-001  8.523871e-001
    outer loop
      vertex -1.517658e-001  1.884074e-001  9.834834e-002
      vertex -2.399930e-001  2.006503e-001  5.506836e-002
      vertex -1.856061e-001  1.551792e-001  9.834834e-002
    endloop
  endfacet
  facet normal -2.553374e-001  2.600410e-001  9.312258e-001
    outer loop
      vertex -1.517658e-001  1.884074e-001  9.834834e-002
      vertex -1.856061e-001  1.551792e-001  9.834834e-002
      vertex -1.032145e-001  1.281342e-001  1.284919e-001
    endloop
  endfacet
  facet normal -2.553375e-001  2.600410e-001  9.312258e-001
    outer loop
      vertex -1.032145e-001  1.281342e-001  1.284919e-001
      vertex -1.856061e-001  1.551792e-001  9.834834e-002
      vertex -1.262290e-001  1.055360e-001  1.284919e-001
    endloop
  endfacet
  facet normal -1.361719e-001  1.386803e-001  9.809307e-001
    outer loop
      vertex -1.032145e-001  1.281342e-001  1.284919e-001
      vertex -1.262290e-001  1.055360e-001  1.284919e-001
      vertex -5.209521e-002  6.467284e-002  1.445602e-001
    endloop
  endfacet
  facet normal -1.361719e-001  1.386803e-001  9.809307e-001
    outer loop
      vertex -5.209521e-002  6.467284e-002  1.445602e-001
      vertex -1.262290e-001  1.055360e-001  1.284919e-001
      vertex -6.371126e-002  5.326690e-002  1.445602e-001
    endloop
  endfacet
  facet normal -3.642827e-001  5.561077e-001  7.470222e-001
    outer loop
      vertex -1.737483e-001  3.323199e-001  2.775558e-016
      vertex -2.352421e-001  2.920379e-001  2.775558e-016
      vertex -1.449391e-001  2.772180e-001  5.506836e-002
    endloop
  endfacet
  facet normal -3.642827e-001  5.561078e-001  7.470222e-001
    outer loop
      vertex -1.449391e-001  2.772180e-001  5.506836e-002
      vertex -2.352421e-001  2.920379e-001  2.775558e-016
      vertex -1.962367e-001  2.436151e-001  5.506836e-002
    endloop
  endfacet
  facet normal -2.865340e-001  4.374180e-001  8.523870e-001
    outer loop
      vertex -1.449391e-001  2.772180e-001  5.506836e-002
      vertex -1.962367e-001  2.436151e-001  5.506836e-002
      vertex -1.120932e-001  2.143952e-001  9.834834e-002
    endloop
  endfacet
  facet normal -2.865341e-001  4.374180e-001  8.523871e-001
    outer loop
      vertex -1.120932e-001  2.143952e-001  9.834834e-002
      vertex -1.962367e-001  2.436151e-001  5.506836e-002
      vertex -1.517658e-001  1.884074e-001  9.834834e-002
    endloop
  endfacet
  facet normal -1.996998e-001  3.048582e-001  9.312259e-001
    outer loop
      vertex -1.120932e-001  2.143952e-001  9.834834e-002
      vertex -1.517658e-001  1.884074e-001  9.834834e-002
      vertex -7.623356e-002  1.458083e-001  1.284919e-001
    endloop
  endfacet
  facet normal -1.996997e-001  3.048583e-001  9.312258e-001
    outer loop
      vertex -7.623356e-002  1.458083e-001  1.284919e-001
      vertex -1.517658e-001  1.884074e-001  9.834834e-002
      vertex -1.032145e-001  1.281342e-001  1.284919e-001
    endloop
  endfacet
  facet normal -1.065002e-001  1.625815e-001  9.809306e-001
    outer loop
      vertex -7.623356e-002  1.458083e-001  1.284919e-001
      vertex -1.032145e-001  1.281342e-001  1.284919e-001
      vertex -3.847717e-002  7.359345e-002  1.445602e-001
    endloop
  endfacet
  facet normal -1.065002e-001  1.625814e-001  9.809307e-001
    outer loop
      vertex -3.847717e-002  7.359345e-002  1.445602e-001
      vertex -1.032145e-001  1.281342e-001  1.284919e-001
      vertex -5.209521e-002  6.467284e-002  1.445602e-001
    endloop
  endfacet
  facet normal -2.487919e-001  6.164903e-001  7.470224e-001
    outer loop
      vertex -1.055773e-001  3.598311e-001  2.775558e-016
      vertex -1.737483e-001  3.323199e-001  2.775558e-016
      vertex -8.807156e-002  3.001676e-001  5.506836e-002
    endloop
  endfacet
  facet normal -2.487918e-001  6.164903e-001  7.470223e-001
    outer loop
      vertex -8.807156e-002  3.001676e-001  5.506836e-002
      vertex -1.737483e-001  3.323199e-001  2.775558e-016
      vertex -1.449391e-001  2.772180e-001  5.506836e-002
    endloop
  endfacet
  facet normal -1.956923e-001  4.849132e-001  8.523870e-001
    outer loop
      vertex -8.807156e-002  3.001676e-001  5.506836e-002
      vertex -1.449391e-001  2.772180e-001  5.506836e-002
      vertex -6.811289e-002  2.321440e-001  9.834834e-002
    endloop
  endfacet
  facet normal -1.956923e-001  4.849132e-001  8.523871e-001
    outer loop
      vertex -6.811289e-002  2.321440e-001  9.834834e-002
      vertex -1.449391e-001  2.772180e-001  5.506836e-002
      vertex -1.120932e-001  2.143952e-001  9.834834e-002
    endloop
  endfacet
  facet normal -1.363876e-001  3.379600e-001  9.312258e-001
    outer loop
      vertex -6.811289e-002  2.321440e-001  9.834834e-002
      vertex -1.120932e-001  2.143952e-001  9.834834e-002
      vertex -4.632297e-002  1.578790e-001  1.284919e-001
    endloop
  endfacet
  facet normal -1.363878e-001  3.379599e-001  9.312258e-001
    outer loop
      vertex -4.632297e-002  1.578790e-001  1.284919e-001
      vertex -1.120932e-001  2.143952e-001  9.834834e-002
      vertex -7.623356e-002  1.458083e-001  1.284919e-001
    endloop
  endfacet
  facet normal -7.273583e-002  1.802346e-001  9.809307e-001
    outer loop
      vertex -4.632297e-002  1.578790e-001  1.284919e-001
      vertex -7.623356e-002  1.458083e-001  1.284919e-001
      vertex -2.338048e-002  7.968589e-002  1.445602e-001
    endloop
  endfacet
  facet normal -7.273576e-002  1.802347e-001  9.809306e-001
    outer loop
      vertex -2.338048e-002  7.968589e-002  1.445602e-001
      vertex -7.623356e-002  1.458083e-001  1.284919e-001
      vertex -3.847717e-002  7.359345e-002  1.445602e-001
    endloop
  endfacet
  facet normal -1.237400e-001  6.531816e-001  7.470222e-001
    outer loop
      vertex -3.334912e-002  3.735142e-001  3.330669e-016
      vertex -1.055773e-001  3.598311e-001  2.775558e-016
      vertex -2.781950e-002  3.115819e-001  5.506836e-002
    endloop
  endfacet
  facet normal -1.237402e-001  6.531814e-001  7.470223e-001
    outer loop
      vertex -2.781950e-002  3.115819e-001  5.506836e-002
      vertex -1.055773e-001  3.598311e-001  2.775558e-016
      vertex -8.807156e-002  3.001676e-001  5.506836e-002
    endloop
  endfacet
  facet normal -9.733041e-002  5.137733e-001  8.523871e-001
    outer loop
      vertex -2.781950e-002  3.115819e-001  5.506836e-002
      vertex -8.807156e-002  3.001676e-001  5.506836e-002
      vertex -2.151508e-002  2.409716e-001  9.834834e-002
    endloop
  endfacet
  facet normal -9.733026e-002  5.137734e-001  8.523871e-001
    outer loop
      vertex -2.151508e-002  2.409716e-001  9.834834e-002
      vertex -8.807156e-002  3.001676e-001  5.506836e-002
      vertex -6.811289e-002  2.321440e-001  9.834834e-002
    endloop
  endfacet
  facet normal -6.783427e-002  3.580741e-001  9.312258e-001
    outer loop
      vertex -2.151508e-002  2.409716e-001  9.834834e-002
      vertex -6.811289e-002  2.321440e-001  9.834834e-002
      vertex -1.463222e-002  1.638826e-001  1.284919e-001
    endloop
  endfacet
  facet normal -6.783427e-002  3.580741e-001  9.312258e-001
    outer loop
      vertex -1.463222e-002  1.638826e-001  1.284919e-001
      vertex -6.811289e-002  2.321440e-001  9.834834e-002
      vertex -4.632297e-002  1.578790e-001  1.284919e-001
    endloop
  endfacet
  facet normal -3.617613e-002  1.909615e-001  9.809307e-001
    outer loop
      vertex -1.463222e-002  1.638826e-001  1.284919e-001
      vertex -4.632297e-002  1.578790e-001  1.284919e-001
      vertex -7.385282e-003  8.271605e-002  1.445602e-001
    endloop
  endfacet
  facet normal -3.617610e-002  1.909615e-001  9.809307e-001
    outer loop
      vertex -7.385282e-003  8.271605e-002  1.445602e-001
      vertex -4.632297e-002  1.578790e-001  1.284919e-001
      vertex -2.338048e-002  7.968589e-002  1.445602e-001
    endloop
  endfacet
  facet normal  6.066971e-003  6.647713e-001  7.470223e-001
    outer loop
      vertex  4.016067e-002  3.728433e-001  3.330669e-016
      vertex -3.334912e-002  3.735142e-001  3.330669e-016
      vertex  3.350164e-002  3.110222e-001  5.506836e-002
    endloop
  endfacet
  facet normal  6.067149e-003  6.647714e-001  7.470222e-001
    outer loop
      vertex  3.350164e-002  3.110222e-001  5.506836e-002
      vertex -3.334912e-002  3.735142e-001  3.330669e-016
      vertex -2.781950e-002  3.115819e-001  5.506836e-002
    endloop
  endfacet
  facet normal  4.772240e-003  5.228896e-001  8.523871e-001
    outer loop
      vertex  3.350164e-002  3.110222e-001  5.506836e-002
      vertex -2.781950e-002  3.115819e-001  5.506836e-002
      vertex  2.590954e-002  2.405387e-001  9.834834e-002
    endloop
  endfacet
  facet normal  4.772132e-003  5.228895e-001  8.523871e-001
    outer loop
      vertex  2.590954e-002  2.405387e-001  9.834834e-002
      vertex -2.781950e-002  3.115819e-001  5.506836e-002
      vertex -2.151508e-002  2.409716e-001  9.834834e-002
    endloop
  endfacet
  facet normal  3.325936e-003  3.644276e-001  9.312258e-001
    outer loop
      vertex  2.590954e-002  2.405387e-001  9.834834e-002
      vertex -2.151508e-002  2.409716e-001  9.834834e-002
      vertex  1.762085e-002  1.635882e-001  1.284919e-001
    endloop
  endfacet
  facet normal  3.325948e-003  3.644276e-001  9.312257e-001
    outer loop
      vertex  1.762085e-002  1.635882e-001  1.284919e-001
      vertex -2.151508e-002  2.409716e-001  9.834834e-002
      vertex -1.463222e-002  1.638826e-001  1.284919e-001
    endloop
  endfacet
  facet normal  1.773734e-003  1.943499e-001  9.809307e-001
    outer loop
      vertex  1.762085e-002  1.635882e-001  1.284919e-001
      vertex -1.463222e-002  1.638826e-001  1.284919e-001
      vertex  8.893725e-003  8.256748e-002  1.445602e-001
    endloop
  endfacet
  facet normal  1.773665e-003  1.943499e-001  9.809307e-001
    outer loop
      vertex  8.893725e-003  8.256748e-002  1.445602e-001
      vertex -1.463222e-002  1.638826e-001  1.284919e-001
      vertex -7.385282e-003  8.271605e-002  1.445602e-001
    endloop
  endfacet
  facet normal  1.356408e-001  6.508144e-001  7.470222e-001
    outer loop
      vertex  1.121271e-001  3.578443e-001  2.775558e-016
      vertex  4.016067e-002  3.728433e-001  3.330669e-016
      vertex  9.353533e-002  2.985102e-001  5.506836e-002
    endloop
  endfacet
  facet normal  1.356406e-001  6.508142e-001  7.470223e-001
    outer loop
      vertex  9.353533e-002  2.985102e-001  5.506836e-002
      vertex  4.016067e-002  3.728433e-001  3.330669e-016
      vertex  3.350164e-002  3.110222e-001  5.506836e-002
    endloop
  endfacet
  facet normal  1.066909e-001  5.119113e-001  8.523871e-001
    outer loop
      vertex  9.353533e-002  2.985102e-001  5.506836e-002
      vertex  3.350164e-002  3.110222e-001  5.506836e-002
      vertex  7.233848e-002  2.308622e-001  9.834834e-002
    endloop
  endfacet
  facet normal  1.066910e-001  5.119115e-001  8.523871e-001
    outer loop
      vertex  7.233848e-002  2.308622e-001  9.834834e-002
      vertex  3.350164e-002  3.110222e-001  5.506836e-002
      vertex  2.590954e-002  2.405387e-001  9.834834e-002
    endloop
  endfacet
  facet normal  7.435822e-002  3.567764e-001  9.312258e-001
    outer loop
      vertex  7.233848e-002  2.308622e-001  9.834834e-002
      vertex  2.590954e-002  2.405387e-001  9.834834e-002
      vertex  4.919675e-002  1.570073e-001  1.284919e-001
    endloop
  endfacet
  facet normal  7.435836e-002  3.567764e-001  9.312257e-001
    outer loop
      vertex  4.919675e-002  1.570073e-001  1.284919e-001
      vertex  2.590954e-002  2.405387e-001  9.834834e-002
      vertex  1.762085e-002  1.635882e-001  1.284919e-001
    endloop
  endfacet
  facet normal  3.965544e-002  1.902695e-001  9.809307e-001
    outer loop
      vertex  4.919675e-002  1.570073e-001  1.284919e-001
      vertex  1.762085e-002  1.635882e-001  1.284919e-001
      vertex  2.483095e-002  7.924589e-002  1.445602e-001
    endloop
  endfacet
  facet normal  3.965547e-002  1.902694e-001  9.809307e-001
    outer loop
      vertex  2.483095e-002  7.924589e-002  1.445602e-001
      vertex  1.762085e-002  1.635882e-001  1.284919e-001
      vertex  8.893725e-003  8.256748e-002  1.445602e-001
    endloop
  endfacet
  facet normal -7.061606e-003 -1.661766e-002  9.998370e-001
    outer loop
      vertex -1.729875e-016 -3.454009e-016  1.460526e-001
      vertex -3.981394e-002 -7.287893e-002  1.445602e-001
      vertex -2.483095e-002 -7.924589e-002  1.445602e-001
    endloop
  endfacet
  facet normal -3.683986e-003 -1.767600e-002  9.998370e-001
    outer loop
      vertex -1.729875e-016 -3.454009e-016  1.460526e-001
      vertex -2.483095e-002 -7.924589e-002  1.445602e-001
      vertex -8.893725e-003 -8.256748e-002  1.445602e-001
    endloop
  endfacet
  facet normal -1.647732e-004 -1.805507e-002  9.998370e-001
    outer loop
      vertex -1.729875e-016 -3.454009e-016  1.460526e-001
      vertex -8.893725e-003 -8.256748e-002  1.445602e-001
      vertex  7.385282e-003 -8.271605e-002  1.445602e-001
    endloop
  endfacet
  facet normal  3.360754e-003 -1.774030e-002  9.998370e-001
    outer loop
      vertex -1.729875e-016 -3.454009e-016  1.460526e-001
      vertex  7.385282e-003 -8.271605e-002  1.445602e-001
      vertex  2.338048e-002 -7.968589e-002  1.445602e-001
    endloop
  endfacet
  facet normal  6.757140e-003 -1.674377e-002  9.998370e-001
    outer loop
      vertex -1.729875e-016 -3.454009e-016  1.460526e-001
      vertex  2.338048e-002 -7.968589e-002  1.445602e-001
      vertex  3.847717e-002 -7.359345e-002  1.445602e-001
    endloop
  endfacet
  facet normal  9.893853e-003 -1.510379e-002  9.998370e-001
    outer loop
      vertex -1.729875e-016 -3.454009e-016  1.460526e-001
      vertex  3.847717e-002 -7.359345e-002  1.445602e-001
      vertex  5.209521e-002 -6.467284e-002  1.445602e-001
    endloop
  endfacet
  facet normal  1.265035e-002 -1.288338e-002  9.998370e-001
    outer loop
      vertex -1.729875e-016 -3.454009e-016  1.460526e-001
      vertex  5.209521e-002 -6.467284e-002  1.445602e-001
      vertex  6.371126e-002 -5.326690e-002  1.445602e-001
    endloop
  endfacet
  facet normal  1.492070e-002 -1.016787e-002  9.998370e-001
    outer loop
      vertex -1.729875e-016 -3.454009e-016  1.460526e-001
      vertex  6.371126e-002 -5.326690e-002  1.445602e-001
      vertex  7.287893e-002 -3.981394e-002  1.445602e-001
    endloop
  endfacet
  facet normal  1.661766e-002 -7.061606e-003  9.998370e-001
    outer loop
      vertex -1.729875e-016 -3.454009e-016  1.460526e-001
      vertex  7.287893e-002 -3.981394e-002  1.445602e-001
      vertex  7.924589e-002 -2.483095e-002  1.445602e-001
    endloop
  endfacet
  facet normal  1.767600e-002 -3.683986e-003  9.998370e-001
    outer loop
      vertex -1.729875e-016 -3.454009e-016  1.460526e-001
      vertex  7.924589e-002 -2.483095e-002  1.445602e-001
      vertex  8.256748e-002 -8.893725e-003  1.445602e-001
    endloop
  endfacet
  facet normal  1.805507e-002 -1.647732e-004  9.998370e-001
    outer loop
      vertex -1.729875e-016 -3.454009e-016  1.460526e-001
      vertex  8.256748e-002 -8.893725e-003  1.445602e-001
      vertex  8.271605e-002  7.385282e-003  1.445602e-001
    endloop
  endfacet
  facet normal  1.774030e-002  3.360754e-003  9.998370e-001
    outer loop
      vertex -1.729875e-016 -3.454009e-016  1.460526e-001
      vertex  8.271605e-002  7.385282e-003  1.445602e-001
      vertex  7.968589e-002  2.338048e-002  1.445602e-001
    endloop
  endfacet
  facet normal  1.674377e-002  6.757140e-003  9.998370e-001
    outer loop
      vertex -1.729875e-016 -3.454009e-016  1.460526e-001
      vertex  7.968589e-002  2.338048e-002  1.445602e-001
      vertex  7.359345e-002  3.847717e-002  1.445602e-001
    endloop
  endfacet
  facet normal  1.510379e-002  9.893853e-003  9.998370e-001
    outer loop
      vertex -1.729875e-016 -3.454009e-016  1.460526e-001
      vertex  7.359345e-002  3.847717e-002  1.445602e-001
      vertex  6.467284e-002  5.209521e-002  1.445602e-001
    endloop
  endfacet
  facet normal  1.288338e-002  1.265035e-002  9.998370e-001
    outer loop
      vertex -1.729875e-016 -3.454009e-016  1.460526e-001
      vertex  6.467284e-002  5.209521e-002  1.445602e-001
      vertex  5.326690e-002  6.371126e-002  1.445602e-001
    endloop
  endfacet
  facet normal  1.016787e-002  1.492070e-002  9.998370e-001
    outer loop
      vertex -1.729875e-016 -3.454009e-016  1.460526e-001
      vertex  5.326690e-002  6.371126e-002  1.445602e-001
      vertex  3.981394e-002  7.287893e-002  1.445602e-001
    endloop
  endfacet
  facet normal -2.600022e-001 -6.118469e-001  7.470223e-001
    outer loop
      vertex -1.797846e-001 -3.290935e-001  1.665335e-016
      vertex -1.121271e-001 -3.578443e-001  1.665335e-016
      vertex -1.499745e-001 -2.745265e-001  5.506836e-002
    endloop
  endfacet
  facet normal -2.600024e-001 -6.118469e-001  7.470222e-001
    outer loop
      vertex -1.499745e-001 -2.745265e-001  5.506836e-002
      vertex -1.121271e-001 -3.578443e-001  1.665335e-016
      vertex -9.353533e-002 -2.985102e-001  5.506836e-002
    endloop
  endfacet
  facet normal -2.045102e-001 -4.812607e-001  8.523871e-001
    outer loop
      vertex -1.499745e-001 -2.745265e-001  5.506836e-002
      vertex -9.353533e-002 -2.985102e-001  5.506836e-002
      vertex -1.159875e-001 -2.123137e-001  9.834834e-002
    endloop
  endfacet
  facet normal -2.045100e-001 -4.812607e-001  8.523871e-001
    outer loop
      vertex -1.159875e-001 -2.123137e-001  9.834834e-002
      vertex -9.353533e-002 -2.985102e-001  5.506836e-002
      vertex -7.233848e-002 -2.308622e-001  9.834834e-002
    endloop
  endfacet
  facet normal -1.425332e-001 -3.354144e-001  9.312258e-001
    outer loop
      vertex -1.159875e-001 -2.123137e-001  9.834834e-002
      vertex -7.233848e-002 -2.308622e-001  9.834834e-002
      vertex -7.888205e-002 -1.443926e-001  1.284919e-001
    endloop
  endfacet
  facet normal -1.425331e-001 -3.354144e-001  9.312258e-001
    outer loop
      vertex -7.888205e-002 -1.443926e-001  1.284919e-001
      vertex -7.233848e-002 -2.308622e-001  9.834834e-002
      vertex -4.919675e-002 -1.570073e-001  1.284919e-001
    endloop
  endfacet
  facet normal -7.601314e-002 -1.788771e-001  9.809306e-001
    outer loop
      vertex -7.888205e-002 -1.443926e-001  1.284919e-001
      vertex -4.919675e-002 -1.570073e-001  1.284919e-001
      vertex -3.981394e-002 -7.287893e-002  1.445602e-001
    endloop
  endfacet
  facet normal -7.601312e-002 -1.788771e-001  9.809307e-001
    outer loop
      vertex -3.981394e-002 -7.287893e-002  1.445602e-001
      vertex -4.919675e-002 -1.570073e-001  1.284919e-001
      vertex -2.483095e-002 -7.924589e-002  1.445602e-001
    endloop
  endfacet
  facet normal  3.743717e-001  5.493666e-001  7.470223e-001
    outer loop
      vertex  2.405330e-001  2.876958e-001  2.775558e-016
      vertex  1.797846e-001  3.290935e-001  2.775558e-016
      vertex  2.006503e-001  2.399930e-001  5.506836e-002
    endloop
  endfacet
  facet normal  3.743716e-001  5.493666e-001  7.470223e-001
    outer loop
      vertex  2.006503e-001  2.399930e-001  5.506836e-002
      vertex  1.797846e-001  3.290935e-001  2.775558e-016
      vertex  1.499745e-001  2.745265e-001  5.506836e-002
    endloop
  endfacet
  facet normal  2.944696e-001  4.321156e-001  8.523871e-001
    outer loop
      vertex  2.006503e-001  2.399930e-001  5.506836e-002
      vertex  1.499745e-001  2.745265e-001  5.506836e-002
      vertex  1.551792e-001  1.856061e-001  9.834834e-002
    endloop
  endfacet
  facet normal  2.944698e-001  4.321155e-001  8.523870e-001
    outer loop
      vertex  1.551792e-001  1.856061e-001  9.834834e-002
      vertex  1.499745e-001  2.745265e-001  5.506836e-002
      vertex  1.159875e-001  2.123137e-001  9.834834e-002
    endloop
  endfacet
  facet normal  2.052305e-001  3.011627e-001  9.312258e-001
    outer loop
      vertex  1.551792e-001  1.856061e-001  9.834834e-002
      vertex  1.159875e-001  2.123137e-001  9.834834e-002
      vertex  1.055360e-001  1.262290e-001  1.284919e-001
    endloop
  endfacet
  facet normal  2.052305e-001  3.011627e-001  9.312258e-001
    outer loop
      vertex  1.055360e-001  1.262290e-001  1.284919e-001
      vertex  1.159875e-001  2.123137e-001  9.834834e-002
      vertex  7.888205e-002  1.443926e-001  1.284919e-001
    endloop
  endfacet
  facet normal  1.094498e-001  1.606106e-001  9.809307e-001
    outer loop
      vertex  1.055360e-001  1.262290e-001  1.284919e-001
      vertex  7.888205e-002  1.443926e-001  1.284919e-001
      vertex  5.326690e-002  6.371126e-002  1.445602e-001
    endloop
  endfacet
  facet normal  1.094498e-001  1.606106e-001  9.809307e-001
    outer loop
      vertex  5.326690e-002  6.371126e-002  1.445602e-001
      vertex  7.888205e-002  1.443926e-001  1.284919e-001
      vertex  3.981394e-002  7.287893e-002  1.445602e-001
    endloop
  endfacet
  facet normal  4.743544e-001  4.657743e-001  7.470223e-001
    outer loop
      vertex  2.920379e-001  2.352421e-001  2.775558e-016
      vertex  2.405330e-001  2.876958e-001  2.775558e-016
      vertex  2.436151e-001  1.962367e-001  5.506836e-002
    endloop
  endfacet
  facet normal  4.743544e-001  4.657743e-001  7.470223e-001
    outer loop
      vertex  2.436151e-001  1.962367e-001  5.506836e-002
      vertex  2.405330e-001  2.876958e-001  2.775558e-016
      vertex  2.006503e-001  2.399930e-001  5.506836e-002
    endloop
  endfacet
  facet normal  3.731132e-001  3.663643e-001  8.523871e-001
    outer loop
      vertex  2.436151e-001  1.962367e-001  5.506836e-002
      vertex  2.006503e-001  2.399930e-001  5.506836e-002
      vertex  1.884074e-001  1.517658e-001  9.834834e-002
    endloop
  endfacet
  facet normal  3.731132e-001  3.663644e-001  8.523871e-001
    outer loop
      vertex  1.884074e-001  1.517658e-001  9.834834e-002
      vertex  2.006503e-001  2.399930e-001  5.506836e-002
      vertex  1.551792e-001  1.856061e-001  9.834834e-002
    endloop
  endfacet
  facet normal  2.600410e-001  2.553374e-001  9.312258e-001
    outer loop
      vertex  1.884074e-001  1.517658e-001  9.834834e-002
      vertex  1.551792e-001  1.856061e-001  9.834834e-002
      vertex  1.281342e-001  1.032145e-001  1.284919e-001
    endloop
  endfacet
  facet normal  2.600410e-001  2.553375e-001  9.312258e-001
    outer loop
      vertex  1.281342e-001  1.032145e-001  1.284919e-001
      vertex  1.551792e-001  1.856061e-001  9.834834e-002
      vertex  1.055360e-001  1.262290e-001  1.284919e-001
    endloop
  endfacet
  facet normal  1.386803e-001  1.361719e-001  9.809307e-001
    outer loop
      vertex  1.281342e-001  1.032145e-001  1.284919e-001
      vertex  1.055360e-001  1.262290e-001  1.284919e-001
      vertex  6.467284e-002  5.209521e-002  1.445602e-001
    endloop
  endfacet
  facet normal  1.386803e-001  1.361719e-001  9.809307e-001
    outer loop
      vertex  6.467284e-002  5.209521e-002  1.445602e-001
      vertex  1.055360e-001  1.262290e-001  1.284919e-001
      vertex  5.326690e-002  6.371126e-002  1.445602e-001
    endloop
  endfacet
  facet normal  5.561077e-001  3.642827e-001  7.470222e-001
    outer loop
      vertex  3.323199e-001  1.737483e-001  2.775558e-016
      vertex  2.920379e-001  2.352421e-001  2.775558e-016
      vertex  2.772180e-001  1.449391e-001  5.506836e-002
    endloop
  endfacet
  facet normal  5.561078e-001  3.642827e-001  7.470222e-001
    outer loop
      vertex  2.772180e-001  1.449391e-001  5.506836e-002
      vertex  2.920379e-001  2.352421e-001  2.775558e-016
      vertex  2.436151e-001  1.962367e-001  5.506836e-002
    endloop
  endfacet
  facet normal  4.374180e-001  2.865340e-001  8.523870e-001
    outer loop
      vertex  2.772180e-001  1.449391e-001  5.506836e-002
      vertex  2.436151e-001  1.962367e-001  5.506836e-002
      vertex  2.143952e-001  1.120932e-001  9.834834e-002
    endloop
  endfacet
  facet normal  4.374180e-001  2.865341e-001  8.523871e-001
    outer loop
      vertex  2.143952e-001  1.120932e-001  9.834834e-002
      vertex  2.436151e-001  1.962367e-001  5.506836e-002
      vertex  1.884074e-001  1.517658e-001  9.834834e-002
    endloop
  endfacet
  facet normal  3.048582e-001  1.996998e-001  9.312259e-001
    outer loop
      vertex  2.143952e-001  1.120932e-001  9.834834e-002
      vertex  1.884074e-001  1.517658e-001  9.834834e-002
      vertex  1.458083e-001  7.623356e-002  1.284919e-001
    endloop
  endfacet
  facet normal  3.048583e-001  1.996997e-001  9.312258e-001
    outer loop
      vertex  1.458083e-001  7.623356e-002  1.284919e-001
      vertex  1.884074e-001  1.517658e-001  9.834834e-002
      vertex  1.281342e-001  1.032145e-001  1.284919e-001
    endloop
  endfacet
  facet normal  1.625815e-001  1.065002e-001  9.809306e-001
    outer loop
      vertex  1.458083e-001  7.623356e-002  1.284919e-001
      vertex  1.281342e-001  1.032145e-001  1.284919e-001
      vertex  7.359345e-002  3.847717e-002  1.445602e-001
    endloop
  endfacet
  facet normal  1.625814e-001  1.065002e-001  9.809307e-001
    outer loop
      vertex  7.359345e-002  3.847717e-002  1.445602e-001
      vertex  1.281342e-001  1.032145e-001  1.284919e-001
      vertex  6.467284e-002  5.209521e-002  1.445602e-001
    endloop
  endfacet
  facet normal  6.164903e-001  2.487919e-001  7.470224e-001
    outer loop
      vertex  3.598311e-001  1.055773e-001  2.220446e-016
      vertex  3.323199e-001  1.737483e-001  2.775558e-016
      vertex  3.001676e-001  8.807156e-002  5.506836e-002
    endloop
  endfacet
  facet normal  6.164903e-001  2.487918e-001  7.470223e-001
    outer loop
      vertex  3.001676e-001  8.807156e-002  5.506836e-002
      vertex  3.323199e-001  1.737483e-001  2.775558e-016
      vertex  2.772180e-001  1.449391e-001  5.506836e-002
    endloop
  endfacet
  facet normal  4.849132e-001  1.956923e-001  8.523870e-001
    outer loop
      vertex  3.001676e-001  8.807156e-002  5.506836e-002
      vertex  2.772180e-001  1.449391e-001  5.506836e-002
      vertex  2.321440e-001  6.811289e-002  9.834834e-002
    endloop
  endfacet
  facet normal  4.849132e-001  1.956923e-001  8.523871e-001
    outer loop
      vertex  2.321440e-001  6.811289e-002  9.834834e-002
      vertex  2.772180e-001  1.449391e-001  5.506836e-002
      vertex  2.143952e-001  1.120932e-001  9.834834e-002
    endloop
  endfacet
  facet normal  3.379600e-001  1.363876e-001  9.312258e-001
    outer loop
      vertex  2.321440e-001  6.811289e-002  9.834834e-002
      vertex  2.143952e-001  1.120932e-001  9.834834e-002
      vertex  1.578790e-001  4.632297e-002  1.284919e-001
    endloop
  endfacet
  facet normal  3.379599e-001  1.363878e-001  9.312258e-001
    outer loop
      vertex  1.578790e-001  4.632297e-002  1.284919e-001
      vertex  2.143952e-001  1.120932e-001  9.834834e-002
      vertex  1.458083e-001  7.623356e-002  1.284919e-001
    endloop
  endfacet
  facet normal  1.802346e-001  7.273583e-002  9.809307e-001
    outer loop
      vertex  1.578790e-001  4.632297e-002  1.284919e-001
      vertex  1.458083e-001  7.623356e-002  1.284919e-001
      vertex  7.968589e-002  2.338048e-002  1.445602e-001
    endloop
  endfacet
  facet normal  1.802347e-001  7.273576e-002  9.809306e-001
    outer loop
      vertex  7.968589e-002  2.338048e-002  1.445602e-001
      vertex  1.458083e-001  7.623356e-002  1.284919e-001
      vertex  7.359345e-002  3.847717e-002  1.445602e-001
    endloop
  endfacet
  facet normal  6.531816e-001  1.237400e-001  7.470222e-001
    outer loop
      vertex  3.735142e-001  3.334912e-002  2.220446e-016
      vertex  3.598311e-001  1.055773e-001  2.220446e-016
      vertex  3.115819e-001  2.781950e-002  5.506836e-002
    endloop
  endfacet
  facet normal  6.531814e-001  1.237402e-001  7.470223e-001
    outer loop
      vertex  3.115819e-001  2.781950e-002  5.506836e-002
      vertex  3.598311e-001  1.055773e-001  2.220446e-016
      vertex  3.001676e-001  8.807156e-002  5.506836e-002
    endloop
  endfacet
  facet normal  5.137733e-001  9.733041e-002  8.523871e-001
    outer loop
      vertex  3.115819e-001  2.781950e-002  5.506836e-002
      vertex  3.001676e-001  8.807156e-002  5.506836e-002
      vertex  2.409716e-001  2.151508e-002  9.834834e-002
    endloop
  endfacet
  facet normal  5.137734e-001  9.733026e-002  8.523871e-001
    outer loop
      vertex  2.409716e-001  2.151508e-002  9.834834e-002
      vertex  3.001676e-001  8.807156e-002  5.506836e-002
      vertex  2.321440e-001  6.811289e-002  9.834834e-002
    endloop
  endfacet
  facet normal  3.580741e-001  6.783427e-002  9.312258e-001
    outer loop
      vertex  2.409716e-001  2.151508e-002  9.834834e-002
      vertex  2.321440e-001  6.811289e-002  9.834834e-002
      vertex  1.638826e-001  1.463222e-002  1.284919e-001
    endloop
  endfacet
  facet normal  3.580741e-001  6.783427e-002  9.312258e-001
    outer loop
      vertex  1.638826e-001  1.463222e-002  1.284919e-001
      vertex  2.321440e-001  6.811289e-002  9.834834e-002
      vertex  1.578790e-001  4.632297e-002  1.284919e-001
    endloop
  endfacet
  facet normal  1.909615e-001  3.617613e-002  9.809307e-001
    outer loop
      vertex  1.638826e-001  1.463222e-002  1.284919e-001
      vertex  1.578790e-001  4.632297e-002  1.284919e-001
      vertex  8.271605e-002  7.385282e-003  1.445602e-001
    endloop
  endfacet
  facet normal  1.909615e-001  3.617610e-002  9.809307e-001
    outer loop
      vertex  8.271605e-002  7.385282e-003  1.445602e-001
      vertex  1.578790e-001  4.632297e-002  1.284919e-001
      vertex  7.968589e-002  2.338048e-002  1.445602e-001
    endloop
  endfacet
  facet normal  6.647713e-001 -6.066971e-003  7.470223e-001
    outer loop
      vertex  3.728433e-001 -4.016067e-002  2.220446e-016
      vertex  3.735142e-001  3.334912e-002  2.220446e-016
      vertex  3.110222e-001 -3.350164e-002  5.506836e-002
    endloop
  endfacet
  facet normal  6.647714e-001 -6.067149e-003  7.470222e-001
    outer loop
      vertex  3.110222e-001 -3.350164e-002  5.506836e-002
      vertex  3.735142e-001  3.334912e-002  2.220446e-016
      vertex  3.115819e-001  2.781950e-002  5.506836e-002
    endloop
  endfacet
  facet normal  5.228896e-001 -4.772240e-003  8.523871e-001
    outer loop
      vertex  3.110222e-001 -3.350164e-002  5.506836e-002
      vertex  3.115819e-001  2.781950e-002  5.506836e-002
      vertex  2.405387e-001 -2.590954e-002  9.834834e-002
    endloop
  endfacet
  facet normal  5.228895e-001 -4.772132e-003  8.523871e-001
    outer loop
      vertex  2.405387e-001 -2.590954e-002  9.834834e-002
      vertex  3.115819e-001  2.781950e-002  5.506836e-002
      vertex  2.409716e-001  2.151508e-002  9.834834e-002
    endloop
  endfacet
  facet normal  3.644276e-001 -3.325936e-003  9.312258e-001
    outer loop
      vertex  2.405387e-001 -2.590954e-002  9.834834e-002
      vertex  2.409716e-001  2.151508e-002  9.834834e-002
      vertex  1.635882e-001 -1.762085e-002  1.284919e-001
    endloop
  endfacet
  facet normal  3.644276e-001 -3.325948e-003  9.312257e-001
    outer loop
      vertex  1.635882e-001 -1.762085e-002  1.284919e-001
      vertex  2.409716e-001  2.151508e-002  9.834834e-002
      vertex  1.638826e-001  1.463222e-002  1.284919e-001
    endloop
  endfacet
  facet normal  1.943499e-001 -1.773734e-003  9.809307e-001
    outer loop
      vertex  1.635882e-001 -1.762085e-002  1.284919e-001
      vertex  1.638826e-001  1.463222e-002  1.284919e-001
      vertex  8.256748e-002 -8.893725e-003  1.445602e-001
    endloop
  endfacet
  facet normal  1.943499e-001 -1.773665e-003  9.809307e-001
    outer loop
      vertex  8.256748e-002 -8.893725e-003  1.445602e-001
      vertex  1.638826e-001  1.463222e-002  1.284919e-001
      vertex  8.271605e-002  7.385282e-003  1.445602e-001
    endloop
  endfacet
  facet normal  6.508144e-001 -1.356408e-001  7.470222e-001
    outer loop
      vertex  3.578443e-001 -1.121271e-001  2.220446e-016
      vertex  3.728433e-001 -4.016067e-002  2.220446e-016
      vertex  2.985102e-001 -9.353533e-002  5.506836e-002
    endloop
  endfacet
  facet normal  6.508142e-001 -1.356406e-001  7.470223e-001
    outer loop
      vertex  2.985102e-001 -9.353533e-002  5.506836e-002
      vertex  3.728433e-001 -4.016067e-002  2.220446e-016
      vertex  3.110222e-001 -3.350164e-002  5.506836e-002
    endloop
  endfacet
  facet normal  5.119113e-001 -1.066909e-001  8.523871e-001
    outer loop
      vertex  2.985102e-001 -9.353533e-002  5.506836e-002
      vertex  3.110222e-001 -3.350164e-002  5.506836e-002
      vertex  2.308622e-001 -7.233848e-002  9.834834e-002
    endloop
  endfacet
  facet normal  5.119115e-001 -1.066910e-001  8.523871e-001
    outer loop
      vertex  2.308622e-001 -7.233848e-002  9.834834e-002
      vertex  3.110222e-001 -3.350164e-002  5.506836e-002
      vertex  2.405387e-001 -2.590954e-002  9.834834e-002
    endloop
  endfacet
  facet normal  3.567764e-001 -7.435822e-002  9.312258e-001
    outer loop
      vertex  2.308622e-001 -7.233848e-002  9.834834e-002
      vertex  2.405387e-001 -2.590954e-002  9.834834e-002
      vertex  1.570073e-001 -4.919675e-002  1.284919e-001
    endloop
  endfacet
  facet normal  3.567764e-001 -7.435836e-002  9.312257e-001
    outer loop
      vertex  1.570073e-001 -4.919675e-002  1.284919e-001
      vertex  2.405387e-001 -2.590954e-002  9.834834e-002
      vertex  1.635882e-001 -1.762085e-002  1.284919e-001
    endloop
  endfacet
  facet normal  1.902695e-001 -3.965544e-002  9.809307e-001
    outer loop
      vertex  1.570073e-001 -4.919675e-002  1.284919e-001
      vertex  1.635882e-001 -1.762085e-002  1.284919e-001
      vertex  7.924589e-002 -2.483095e-002  1.445602e-001
    endloop
  endfacet
  facet normal  1.902694e-001 -3.965547e-002  9.809307e-001
    outer loop
      vertex  7.924589e-002 -2.483095e-002  1.445602e-001
      vertex  1.635882e-001 -1.762085e-002  1.284919e-001
      vertex  8.256748e-002 -8.893725e-003  1.445602e-001
    endloop
  endfacet
  facet normal  6.118469e-001 -2.600022e-001  7.470223e-001
    outer loop
      vertex  3.290935e-001 -1.797846e-001  1.665335e-016
      vertex  3.578443e-001 -1.121271e-001  2.220446e-016
      vertex  2.745265e-001 -1.499745e-001  5.506836e-002
    endloop
  endfacet
  facet normal  6.118469e-001 -2.600024e-001  7.470222e-001
    outer loop
      vertex  2.745265e-001 -1.499745e-001  5.506836e-002
      vertex  3.578443e-001 -1.121271e-001  2.220446e-016
      vertex  2.985102e-001 -9.353533e-002  5.506836e-002
    endloop
  endfacet
  facet normal  4.812607e-001 -2.045102e-001  8.523871e-001
    outer loop
      vertex  2.745265e-001 -1.499745e-001  5.506836e-002
      vertex  2.985102e-001 -9.353533e-002  5.506836e-002
      vertex  2.123137e-001 -1.159875e-001  9.834834e-002
    endloop
  endfacet
  facet normal  4.812607e-001 -2.045100e-001  8.523871e-001
    outer loop
      vertex  2.123137e-001 -1.159875e-001  9.834834e-002
      vertex  2.985102e-001 -9.353533e-002  5.506836e-002
      vertex  2.308622e-001 -7.233848e-002  9.834834e-002
    endloop
  endfacet
  facet normal  3.354144e-001 -1.425332e-001  9.312258e-001
    outer loop
      vertex  2.123137e-001 -1.159875e-001  9.834834e-002
      vertex  2.308622e-001 -7.233848e-002  9.834834e-002
      vertex  1.443926e-001 -7.888205e-002  1.284919e-001
    endloop
  endfacet
  facet normal  3.354144e-001 -1.425331e-001  9.312258e-001
    outer loop
      vertex  1.443926e-001 -7.888205e-002  1.284919e-001
      vertex  2.308622e-001 -7.233848e-002  9.834834e-002
      vertex  1.570073e-001 -4.919675e-002  1.284919e-001
    endloop
  endfacet
  facet normal  1.788771e-001 -7.601314e-002  9.809306e-001
    outer loop
      vertex  1.443926e-001 -7.888205e-002  1.284919e-001
      vertex  1.570073e-001 -4.919675e-002  1.284919e-001
      vertex  7.287893e-002 -3.981394e-002  1.445602e-001
    endloop
  endfacet
  facet normal  1.788771e-001 -7.601312e-002  9.809307e-001
    outer loop
      vertex  7.287893e-002 -3.981394e-002  1.445602e-001
      vertex  1.570073e-001 -4.919675e-002  1.284919e-001
      vertex  7.924589e-002 -2.483095e-002  1.445602e-001
    endloop
  endfacet
  facet normal  5.493666e-001 -3.743717e-001  7.470223e-001
    outer loop
      vertex  2.876958e-001 -2.405330e-001  1.665335e-016
      vertex  3.290935e-001 -1.797846e-001  1.665335e-016
      vertex  2.399930e-001 -2.006503e-001  5.506836e-002
    endloop
  endfacet
  facet normal  5.493666e-001 -3.743716e-001  7.470223e-001
    outer loop
      vertex  2.399930e-001 -2.006503e-001  5.506836e-002
      vertex  3.290935e-001 -1.797846e-001  1.665335e-016
      vertex  2.745265e-001 -1.499745e-001  5.506836e-002
    endloop
  endfacet
  facet normal  4.321156e-001 -2.944696e-001  8.523871e-001
    outer loop
      vertex  2.399930e-001 -2.006503e-001  5.506836e-002
      vertex  2.745265e-001 -1.499745e-001  5.506836e-002
      vertex  1.856061e-001 -1.551792e-001  9.834834e-002
    endloop
  endfacet
  facet normal  4.321155e-001 -2.944698e-001  8.523870e-001
    outer loop
      vertex  1.856061e-001 -1.551792e-001  9.834834e-002
      vertex  2.745265e-001 -1.499745e-001  5.506836e-002
      vertex  2.123137e-001 -1.159875e-001  9.834834e-002
    endloop
  endfacet
  facet normal  3.011627e-001 -2.052305e-001  9.312258e-001
    outer loop
      vertex  1.856061e-001 -1.551792e-001  9.834834e-002
      vertex  2.123137e-001 -1.159875e-001  9.834834e-002
      vertex  1.262290e-001 -1.055360e-001  1.284919e-001
    endloop
  endfacet
  facet normal  3.011627e-001 -2.052305e-001  9.312258e-001
    outer loop
      vertex  1.262290e-001 -1.055360e-001  1.284919e-001
      vertex  2.123137e-001 -1.159875e-001  9.834834e-002
      vertex  1.443926e-001 -7.888205e-002  1.284919e-001
    endloop
  endfacet
  facet normal  1.606106e-001 -1.094498e-001  9.809307e-001
    outer loop
      vertex  1.262290e-001 -1.055360e-001  1.284919e-001
      vertex  1.443926e-001 -7.888205e-002  1.284919e-001
      vertex  6.371126e-002 -5.326690e-002  1.445602e-001
    endloop
  endfacet
  facet normal  1.606106e-001 -1.094498e-001  9.809307e-001
    outer loop
      vertex  6.371126e-002 -5.326690e-002  1.445602e-001
      vertex  1.443926e-001 -7.888205e-002  1.284919e-001
      vertex  7.287893e-002 -3.981394e-002  1.445602e-001
    endloop
  endfacet
  facet normal  4.657743e-001 -4.743544e-001  7.470223e-001
    outer loop
      vertex  2.352421e-001 -2.920379e-001  1.665335e-016
      vertex  2.876958e-001 -2.405330e-001  1.665335e-016
      vertex  1.962367e-001 -2.436151e-001  5.506836e-002
    endloop
  endfacet
  facet normal  4.657743e-001 -4.743544e-001  7.470223e-001
    outer loop
      vertex  1.962367e-001 -2.436151e-001  5.506836e-002
      vertex  2.876958e-001 -2.405330e-001  1.665335e-016
      vertex  2.399930e-001 -2.006503e-001  5.506836e-002
    endloop
  endfacet
  facet normal  3.663643e-001 -3.731132e-001  8.523871e-001
    outer loop
      vertex  1.962367e-001 -2.436151e-001  5.506836e-002
      vertex  2.399930e-001 -2.006503e-001  5.506836e-002
      vertex  1.517658e-001 -1.884074e-001  9.834834e-002
    endloop
  endfacet
  facet normal  3.663644e-001 -3.731132e-001  8.523871e-001
    outer loop
      vertex  1.517658e-001 -1.884074e-001  9.834834e-002
      vertex  2.399930e-001 -2.006503e-001  5.506836e-002
      vertex  1.856061e-001 -1.551792e-001  9.834834e-002
    endloop
  endfacet
  facet normal  2.553374e-001 -2.600410e-001  9.312258e-001
    outer loop
      vertex  1.517658e-001 -1.884074e-001  9.834834e-002
      vertex  1.856061e-001 -1.551792e-001  9.834834e-002
      vertex  1.032145e-001 -1.281342e-001  1.284919e-001
    endloop
  endfacet
  facet normal  2.553375e-001 -2.600410e-001  9.312258e-001
    outer loop
      vertex  1.032145e-001 -1.281342e-001  1.284919e-001
      vertex  1.856061e-001 -1.551792e-001  9.834834e-002
      vertex  1.262290e-001 -1.055360e-001  1.284919e-001
    endloop
  endfacet
  facet normal  1.361719e-001 -1.386803e-001  9.809307e-001
    outer loop
      vertex  1.032145e-001 -1.281342e-001  1.284919e-001
      vertex  1.262290e-001 -1.055360e-001  1.284919e-001
      vertex  5.209521e-002 -6.467284e-002  1.445602e-001
    endloop
  endfacet
  facet normal  1.361719e-001 -1.386803e-001  9.809307e-001
    outer loop
      vertex  5.209521e-002 -6.467284e-002  1.445602e-001
      vertex  1.262290e-001 -1.055360e-001  1.284919e-001
      vertex  6.371126e-002 -5.326690e-002  1.445602e-001
    endloop
  endfacet
  facet normal  3.642827e-001 -5.561077e-001  7.470222e-001
    outer loop
      vertex  1.737483e-001 -3.323199e-001  1.665335e-016
      vertex  2.352421e-001 -2.920379e-001  1.665335e-016
      vertex  1.449391e-001 -2.772180e-001  5.506836e-002
    endloop
  endfacet
  facet normal  3.642827e-001 -5.561078e-001  7.470222e-001
    outer loop
      vertex  1.449391e-001 -2.772180e-001  5.506836e-002
      vertex  2.352421e-001 -2.920379e-001  1.665335e-016
      vertex  1.962367e-001 -2.436151e-001  5.506836e-002
    endloop
  endfacet
  facet normal  2.865340e-001 -4.374180e-001  8.523870e-001
    outer loop
      vertex  1.449391e-001 -2.772180e-001  5.506836e-002
      vertex  1.962367e-001 -2.436151e-001  5.506836e-002
      vertex  1.120932e-001 -2.143952e-001  9.834834e-002
    endloop
  endfacet
  facet normal  2.865341e-001 -4.374180e-001  8.523871e-001
    outer loop
      vertex  1.120932e-001 -2.143952e-001  9.834834e-002
      vertex  1.962367e-001 -2.436151e-001  5.506836e-002
      vertex  1.517658e-001 -1.884074e-001  9.834834e-002
    endloop
  endfacet
  facet normal  1.996998e-001 -3.048582e-001  9.312259e-001
    outer loop
      vertex  1.120932e-001 -2.143952e-001  9.834834e-002
      vertex  1.517658e-001 -1.884074e-001  9.834834e-002
      vertex  7.623356e-002 -1.458083e-001  1.284919e-001
    endloop
  endfacet
  facet normal  1.996997e-001 -3.048583e-001  9.312258e-001
    outer loop
      vertex  7.623356e-002 -1.458083e-001  1.284919e-001
      vertex  1.517658e-001 -1.884074e-001  9.834834e-002
      vertex  1.032145e-001 -1.281342e-001  1.284919e-001
    endloop
  endfacet
  facet normal  1.065002e-001 -1.625815e-001  9.809306e-001
    outer loop
      vertex  7.623356e-002 -1.458083e-001  1.284919e-001
      vertex  1.032145e-001 -1.281342e-001  1.284919e-001
      vertex  3.847717e-002 -7.359345e-002  1.445602e-001
    endloop
  endfacet
  facet normal  1.065002e-001 -1.625814e-001  9.809307e-001
    outer loop
      vertex  3.847717e-002 -7.359345e-002  1.445602e-001
      vertex  1.032145e-001 -1.281342e-001  1.284919e-001
      vertex  5.209521e-002 -6.467284e-002  1.445602e-001
    endloop
  endfacet
  facet normal  2.487919e-001 -6.164903e-001  7.470224e-001
    outer loop
      vertex  1.055773e-001 -3.598311e-001  1.665335e-016
      vertex  1.737483e-001 -3.323199e-001  1.665335e-016
      vertex  8.807156e-002 -3.001676e-001  5.506836e-002
    endloop
  endfacet
  facet normal  2.487918e-001 -6.164903e-001  7.470223e-001
    outer loop
      vertex  8.807156e-002 -3.001676e-001  5.506836e-002
      vertex  1.737483e-001 -3.323199e-001  1.665335e-016
      vertex  1.449391e-001 -2.772180e-001  5.506836e-002
    endloop
  endfacet
  facet normal  1.956923e-001 -4.849132e-001  8.523870e-001
    outer loop
      vertex  8.807156e-002 -3.001676e-001  5.506836e-002
      vertex  1.449391e-001 -2.772180e-001  5.506836e-002
      vertex  6.811289e-002 -2.321440e-001  9.834834e-002
    endloop
  endfacet
  facet normal  1.956923e-001 -4.849132e-001  8.523871e-001
    outer loop
      vertex  6.811289e-002 -2.321440e-001  9.834834e-002
      vertex  1.449391e-001 -2.772180e-001  5.506836e-002
      vertex  1.120932e-001 -2.143952e-001  9.834834e-002
    endloop
  endfacet
  facet normal  1.363876e-001 -3.379600e-001  9.312258e-001
    outer loop
      vertex  6.811289e-002 -2.321440e-001  9.834834e-002
      vertex  1.120932e-001 -2.143952e-001  9.834834e-002
      vertex  4.632297e-002 -1.578790e-001  1.284919e-001
    endloop
  endfacet
  facet normal  1.363878e-001 -3.379599e-001  9.312258e-001
    outer loop
      vertex  4.632297e-002 -1.578790e-001  1.284919e-001
      vertex  1.120932e-001 -2.143952e-001  9.834834e-002
      vertex  7.623356e-002 -1.458083e-001  1.284919e-001
    endloop
  endfacet
  facet normal  7.273583e-002 -1.802346e-001  9.809307e-001
    outer loop
      vertex  4.632297e-002 -1.578790e-001  1.284919e-001
      vertex  7.623356e-002 -1.458083e-001  1.284919e-001
      vertex  2.338048e-002 -7.968589e-002  1.445602e-001
    endloop
  endfacet
  facet normal  7.273576e-002 -1.802347e-001  9.809306e-001
    outer loop
      vertex  2.338048e-002 -7.968589e-002  1.445602e-001
      vertex  7.623356e-002 -1.458083e-001  1.284919e-001
      vertex  3.847717e-002 -7.359345e-002  1.445602e-001
    endloop
  endfacet
  facet normal  1.237400e-001 -6.531816e-001  7.470222e-001
    outer loop
      vertex  3.334912e-002 -3.735142e-001  1.110223e-016
      vertex  1.055773e-001 -3.598311e-001  1.665335e-016
      vertex  2.781950e-002 -3.115819e-001  5.506836e-002
    endloop
  endfacet
  facet normal  1.237402e-001 -6.531814e-001  7.470223e-001
    outer loop
      vertex  2.781950e-002 -3.115819e-001  5.506836e-002
      vertex  1.055773e-001 -3.598311e-001  1.665335e-016
      vertex  8.807156e-002 -3.001676e-001  5.506836e-002
    endloop
  endfacet
  facet normal  9.733041e-002 -5.137733e-001  8.523871e-001
    outer loop
      vertex  2.781950e-002 -3.115819e-001  5.506836e-002
      vertex  8.807156e-002 -3.001676e-001  5.506836e-002
      vertex  2.151508e-002 -2.409716e-001  9.834834e-002
    endloop
  endfacet
  facet normal  9.733026e-002 -5.137734e-001  8.523871e-001
    outer loop
      vertex  2.151508e-002 -2.409716e-001  9.834834e-002
      vertex  8.807156e-002 -3.001676e-001  5.506836e-002
      vertex  6.811289e-002 -2.321440e-001  9.834834e-002
    endloop
  endfacet
  facet normal  6.783427e-002 -3.580741e-001  9.312258e-001
    outer loop
      vertex  2.151508e-002 -2.409716e-001  9.834834e-002
      vertex  6.811289e-002 -2.321440e-001  9.834834e-002
      vertex  1.463222e-002 -1.638826e-001  1.284919e-001
    endloop
  endfacet
  facet normal  6.783427e-002 -3.580741e-001  9.312258e-001
    outer loop
      vertex  1.463222e-002 -1.638826e-001  1.284919e-001
      vertex  6.811289e-002 -2.321440e-001  9.834834e-002
      vertex  4.632297e-002 -1.578790e-001  1.284919e-001
    endloop
  endfacet
  facet normal  3.617613e-002 -1.909615e-001  9.809307e-001
    outer loop
      vertex  1.463222e-002 -1.638826e-001  1.284919e-001
      vertex  4.632297e-002 -1.578790e-001  1.284919e-001
      vertex  7.385282e-003 -8.271605e-002  1.445602e-001
    endloop
  endfacet
  facet normal  3.617610e-002 -1.909615e-001  9.809307e-001
    outer loop
      vertex  7.385282e-003 -8.271605e-002  1.445602e-001
      vertex  4.632297e-002 -1.578790e-001  1.284919e-001
      vertex  2.338048e-002 -7.968589e-002  1.445602e-001
    endloop
  endfacet
  facet normal -6.066971e-003 -6.647713e-001  7.470223e-001
    outer loop
      vertex -4.016067e-002 -3.728433e-001  1.110223e-016
      vertex  3.334912e-002 -3.735142e-001  1.110223e-016
      vertex -3.350164e-002 -3.110222e-001  5.506836e-002
    endloop
  endfacet
  facet normal -6.067149e-003 -6.647714e-001  7.470222e-001
    outer loop
      vertex -3.350164e-002 -3.110222e-001  5.506836e-002
      vertex  3.334912e-002 -3.735142e-001  1.110223e-016
      vertex  2.781950e-002 -3.115819e-001  5.506836e-002
    endloop
  endfacet
  facet normal -4.772240e-003 -5.228896e-001  8.523871e-001
    outer loop
      vertex -3.350164e-002 -3.110222e-001  5.506836e-002
      vertex  2.781950e-002 -3.115819e-001  5.506836e-002
      vertex -2.590954e-002 -2.405387e-001  9.834834e-002
    endloop
  endfacet
  facet normal -4.772132e-003 -5.228895e-001  8.523871e-001
    outer loop
      vertex -2.590954e-002 -2.405387e-001  9.834834e-002
      vertex  2.781950e-002 -3.115819e-001  5.506836e-002
      vertex  2.151508e-002 -2.409716e-001  9.834834e-002
    endloop
  endfacet
  facet normal -3.325936e-003 -3.644276e-001  9.312258e-001
    outer loop
      vertex -2.590954e-002 -2.405387e-001  9.834834e-002
      vertex  2.151508e-002 -2.409716e-001  9.834834e-002
      vertex -1.762085e-002 -1.635882e-001  1.284919e-001
    endloop
  endfacet
  facet normal -3.325948e-003 -3.644276e-001  9.312257e-001
    outer loop
      vertex -1.762085e-002 -1.635882e-001  1.284919e-001
      vertex  2.151508e-002 -2.409716e-001  9.834834e-002
      vertex  1.463222e-002 -1.638826e-001  1.284919e-001
    endloop
  endfacet
  facet normal -1.773734e-003 -1.943499e-001  9.809307e-001
    outer loop
      vertex -1.762085e-002 -1.635882e-001  1.284919e-001
      vertex  1.463222e-002 -1.638826e-001  1.284919e-001
      vertex -8.893725e-003 -8.256748e-002  1.445602e-001
    endloop
  endfacet
  facet normal -1.773665e-003 -1.943499e-001  9.809307e-001
    outer loop
      vertex -8.893725e-003 -8.256748e-002  1.445602e-001
      vertex  1.463222e-002 -1.638826e-001  1.284919e-001
      vertex  7.385282e-003 -8.271605e-002  1.445602e-001
    endloop
  endfacet
  facet normal -1.356408e-001 -6.508144e-001  7.470222e-001
    outer loop
      vertex -1.121271e-001 -3.578443e-001  1.665335e-016
      vertex -4.016067e-002 -3.728433e-001  1.110223e-016
      vertex -9.353533e-002 -2.985102e-001  5.506836e-002
    endloop
  endfacet
  facet normal -1.356406e-001 -6.508142e-001  7.470223e-001
    outer loop
      vertex -9.353533e-002 -2.985102e-001  5.506836e-002
      vertex -4.016067e-002 -3.728433e-001  1.110223e-016
      vertex -3.350164e-002 -3.110222e-001  5.506836e-002
    endloop
  endfacet
  facet normal -1.066909e-001 -5.119113e-001  8.523871e-001
    outer loop
      vertex -9.353533e-002 -2.985102e-001  5.506836e-002
      vertex -3.350164e-002 -3.110222e-001  5.506836e-002
      vertex -7.233848e-002 -2.308622e-001  9.834834e-002
    endloop
  endfacet
  facet normal -1.066910e-001 -5.119115e-001  8.523871e-001
    outer loop
      vertex -7.233848e-002 -2.308622e-001  9.834834e-002
      vertex -3.350164e-002 -3.110222e-001  5.506836e-002
      vertex -2.590954e-002 -2.405387e-001  9.834834e-002
    endloop
  endfacet
  facet normal -7.435822e-002 -3.567764e-001  9.312258e-001
    outer loop
      vertex -7.233848e-002 -2.308622e-001  9.834834e-002
      vertex -2.590954e-002 -2.405387e-001  9.834834e-002
      vertex -4.919675e-002 -1.570073e-001  1.284919e-001
    endloop
  endfacet
  facet normal -7.435836e-002 -3.567764e-001  9.312257e-001
    outer loop
      vertex -4.919675e-002 -1.570073e-001  1.284919e-001
      vertex -2.590954e-002 -2.405387e-001  9.834834e-002
      vertex -1.762085e-002 -1.635882e-001  1.284919e-001
    endloop
  endfacet
  facet normal -3.965544e-002 -1.902695e-001  9.809307e-001
    outer loop
      vertex -4.919675e-002 -1.570073e-001  1.284919e-001
      vertex -1.762085e-002 -1.635882e-001  1.284919e-001
      vertex -2.483095e-002 -7.924589e-002  1.445602e-001
    endloop
  endfacet
  facet normal -3.965547e-002 -1.902694e-001  9.809307e-001
    outer loop
      vertex -2.483095e-002 -7.924589e-002  1.445602e-001
      vertex -1.762085e-002 -1.635882e-001  1.284919e-001
      vertex -8.893725e-003 -8.256748e-002  1.445602e-001
    endloop
  endfacet
endsolid CATIA STL
