solid CATIA STL
  facet normal  0.000000e+000 -1.000000e+000  0.000000e+000
    outer loop
      vertex  3.789474e-001 -7.812500e-002  1.894737e-001
      vertex  7.488106e-001 -7.812500e-002  1.889810e-001
      vertex  7.473667e-001 -7.812500e-002  1.916824e-001
    endloop
  endfacet
  facet normal  -0.000000e+000 -1.000000e+000  0.000000e+000
    outer loop
      vertex  3.789474e-001 -7.812500e-002  1.894737e-001
      vertex  7.473667e-001 -7.812500e-002  1.916824e-001
      vertex  7.454236e-001 -7.812500e-002  1.940501e-001
    endloop
  endfacet
  facet normal  -0.000000e+000 -1.000000e+000  0.000000e+000
    outer loop
      vertex  3.789474e-001 -7.812500e-002  1.894737e-001
      vertex  7.454236e-001 -7.812500e-002  1.940501e-001
      vertex  6.000000e-001 -7.812500e-002  3.394737e-001
    endloop
  endfacet
  facet normal  -0.000000e+000 -1.000000e+000  0.000000e+000
    outer loop
      vertex  3.789474e-001 -7.812500e-002  1.894737e-001
      vertex  6.000000e-001 -7.812500e-002  3.394737e-001
      vertex  3.789474e-001 -7.812500e-002  3.394737e-001
    endloop
  endfacet
  facet normal  0.000000e+000 -1.000000e+000  0.000000e+000
    outer loop
      vertex  1.562500e-002 -7.812500e-002 -9.567554e-019
      vertex  7.500000e-001 -7.812500e-002 -4.592425e-017
      vertex  7.500000e-001 -7.812500e-002  1.830016e-001
    endloop
  endfacet
  facet normal  -0.000000e+000 -1.000000e+000  0.000000e+000
    outer loop
      vertex  1.562500e-002 -7.812500e-002 -9.567554e-019
      vertex  7.500000e-001 -7.812500e-002  1.830016e-001
      vertex  7.496998e-001 -7.812500e-002  1.860499e-001
    endloop
  endfacet
  facet normal  -0.000000e+000 -1.000000e+000  0.000000e+000
    outer loop
      vertex  1.562500e-002 -7.812500e-002 -9.567554e-019
      vertex  7.496998e-001 -7.812500e-002  1.860499e-001
      vertex  7.488106e-001 -7.812500e-002  1.889810e-001
    endloop
  endfacet
  facet normal  -0.000000e+000 -1.000000e+000  0.000000e+000
    outer loop
      vertex  1.562500e-002 -7.812500e-002 -9.567554e-019
      vertex  7.488106e-001 -7.812500e-002  1.889810e-001
      vertex  3.789474e-001 -7.812500e-002  1.894737e-001
    endloop
  endfacet
  facet normal  -0.000000e+000 -9.999999e-001  0.000000e+000
    outer loop
      vertex  1.562500e-002 -7.812500e-002 -9.567554e-019
      vertex  3.789474e-001 -7.812500e-002  1.894737e-001
      vertex  2.210526e-001 -7.812500e-002  1.894737e-001
    endloop
  endfacet
  facet normal  -0.000000e+000 -1.000000e+000  0.000000e+000
    outer loop
      vertex  1.562500e-002 -7.812500e-002 -9.567554e-019
      vertex  2.210526e-001 -7.812500e-002  1.894737e-001
      vertex  1.562500e-002 -7.812500e-002  2.761513e-001
    endloop
  endfacet
  facet normal  0.000000e+000 -1.000000e+000  0.000000e+000
    outer loop
      vertex  1.562500e-002 -7.812500e-002  2.761513e-001
      vertex  2.210526e-001 -7.812500e-002  1.894737e-001
      vertex  7.894737e-002 -7.812500e-002  3.394737e-001
    endloop
  endfacet
  facet normal  0.000000e+000 -1.000000e+000  0.000000e+000
    outer loop
      vertex  7.894737e-002 -7.812500e-002  3.394737e-001
      vertex  2.210526e-001 -7.812500e-002  1.894737e-001
      vertex  2.210526e-001 -7.812500e-002  3.394737e-001
    endloop
  endfacet
  facet normal  -0.000000e+000  1.000000e+000  0.000000e+000
    outer loop
      vertex  3.789474e-001  0.000000e+000  1.894737e-001
      vertex  3.789474e-001  0.000000e+000  3.394737e-001
      vertex  6.000000e-001  0.000000e+000  3.394737e-001
    endloop
  endfacet
  facet normal  0.000000e+000  1.000000e+000  0.000000e+000
    outer loop
      vertex  3.789474e-001  0.000000e+000  1.894737e-001
      vertex  6.000000e-001  0.000000e+000  3.394737e-001
      vertex  7.454236e-001  0.000000e+000  1.940501e-001
    endloop
  endfacet
  facet normal  0.000000e+000  1.000000e+000  0.000000e+000
    outer loop
      vertex  3.789474e-001  0.000000e+000  1.894737e-001
      vertex  7.454236e-001  0.000000e+000  1.940501e-001
      vertex  7.473667e-001  0.000000e+000  1.916824e-001
    endloop
  endfacet
  facet normal  0.000000e+000  1.000000e+000  0.000000e+000
    outer loop
      vertex  3.789474e-001  0.000000e+000  1.894737e-001
      vertex  7.473667e-001  0.000000e+000  1.916824e-001
      vertex  7.488106e-001  0.000000e+000  1.889810e-001
    endloop
  endfacet
  facet normal  0.000000e+000  1.000000e+000  0.000000e+000
    outer loop
      vertex  0.000000e+000  0.000000e+000  0.000000e+000
      vertex -1.180294e-017  0.000000e+000  2.605263e-001
      vertex  2.210526e-001  0.000000e+000  1.894737e-001
    endloop
  endfacet
  facet normal  -0.000000e+000  9.999999e-001  0.000000e+000
    outer loop
      vertex  0.000000e+000  0.000000e+000  0.000000e+000
      vertex  2.210526e-001  0.000000e+000  1.894737e-001
      vertex  3.789474e-001  0.000000e+000  1.894737e-001
    endloop
  endfacet
  facet normal  0.000000e+000  1.000000e+000  0.000000e+000
    outer loop
      vertex  0.000000e+000  0.000000e+000  0.000000e+000
      vertex  3.789474e-001  0.000000e+000  1.894737e-001
      vertex  7.488106e-001  0.000000e+000  1.889810e-001
    endloop
  endfacet
  facet normal  0.000000e+000  1.000000e+000  0.000000e+000
    outer loop
      vertex  0.000000e+000  0.000000e+000  0.000000e+000
      vertex  7.488106e-001  0.000000e+000  1.889810e-001
      vertex  7.496998e-001  0.000000e+000  1.860499e-001
    endloop
  endfacet
  facet normal  0.000000e+000  1.000000e+000  0.000000e+000
    outer loop
      vertex  0.000000e+000  0.000000e+000  0.000000e+000
      vertex  7.496998e-001  0.000000e+000  1.860499e-001
      vertex  7.500000e-001  0.000000e+000  1.830016e-001
    endloop
  endfacet
  facet normal  0.000000e+000  1.000000e+000  0.000000e+000
    outer loop
      vertex  0.000000e+000  0.000000e+000  0.000000e+000
      vertex  7.500000e-001  0.000000e+000  1.830016e-001
      vertex  7.500000e-001  0.000000e+000 -4.592425e-017
    endloop
  endfacet
  facet normal  0.000000e+000  9.999999e-001  0.000000e+000
    outer loop
      vertex -1.180294e-017  0.000000e+000  2.605263e-001
      vertex  7.894737e-002  0.000000e+000  3.394737e-001
      vertex  2.210526e-001  0.000000e+000  1.894737e-001
    endloop
  endfacet
  facet normal  0.000000e+000  1.000000e+000  -0.000000e+000
    outer loop
      vertex  2.210526e-001  0.000000e+000  1.894737e-001
      vertex  7.894737e-002  0.000000e+000  3.394737e-001
      vertex  2.210526e-001  0.000000e+000  3.394737e-001
    endloop
  endfacet
  facet normal  7.071068e-001  0.000000e+000  7.071068e-001
    outer loop
      vertex  7.454236e-001 -7.812500e-002  1.940501e-001
      vertex  7.454236e-001  0.000000e+000  1.940501e-001
      vertex  6.000000e-001 -7.812500e-002  3.394737e-001
    endloop
  endfacet
  facet normal  7.071068e-001  -0.000000e+000  7.071068e-001
    outer loop
      vertex  6.000000e-001 -7.812500e-002  3.394737e-001
      vertex  7.454236e-001  0.000000e+000  1.940501e-001
      vertex  6.000000e-001  0.000000e+000  3.394737e-001
    endloop
  endfacet
  facet normal  1.000000e+000  0.000000e+000  0.000000e+000
    outer loop
      vertex  7.500000e-001 -7.812500e-002 -4.592425e-017
      vertex  7.500000e-001  0.000000e+000 -4.592425e-017
      vertex  7.500000e-001 -7.812500e-002  1.830016e-001
    endloop
  endfacet
  facet normal  1.000000e+000  -0.000000e+000  0.000000e+000
    outer loop
      vertex  7.500000e-001 -7.812500e-002  1.830016e-001
      vertex  7.500000e-001  0.000000e+000 -4.592425e-017
      vertex  7.500000e-001  0.000000e+000  1.830016e-001
    endloop
  endfacet
  facet normal  7.730110e-001  -0.000000e+000  6.343927e-001
    outer loop
      vertex  7.454236e-001  0.000000e+000  1.940501e-001
      vertex  7.454236e-001 -7.812500e-002  1.940501e-001
      vertex  7.473667e-001  0.000000e+000  1.916824e-001
    endloop
  endfacet
  facet normal  7.730110e-001  0.000000e+000  6.343927e-001
    outer loop
      vertex  7.473667e-001  0.000000e+000  1.916824e-001
      vertex  7.454236e-001 -7.812500e-002  1.940501e-001
      vertex  7.473667e-001 -7.812500e-002  1.916824e-001
    endloop
  endfacet
  facet normal  8.819271e-001  -0.000000e+000  4.713860e-001
    outer loop
      vertex  7.473667e-001  0.000000e+000  1.916824e-001
      vertex  7.473667e-001 -7.812500e-002  1.916824e-001
      vertex  7.488106e-001  0.000000e+000  1.889810e-001
    endloop
  endfacet
  facet normal  8.819271e-001  0.000000e+000  4.713860e-001
    outer loop
      vertex  7.488106e-001  0.000000e+000  1.889810e-001
      vertex  7.473667e-001 -7.812500e-002  1.916824e-001
      vertex  7.488106e-001 -7.812500e-002  1.889810e-001
    endloop
  endfacet
  facet normal  9.569377e-001  -0.000000e+000  2.902931e-001
    outer loop
      vertex  7.488106e-001  0.000000e+000  1.889810e-001
      vertex  7.488106e-001 -7.812500e-002  1.889810e-001
      vertex  7.496998e-001  0.000000e+000  1.860499e-001
    endloop
  endfacet
  facet normal  9.569377e-001  0.000000e+000  2.902931e-001
    outer loop
      vertex  7.496998e-001  0.000000e+000  1.860499e-001
      vertex  7.488106e-001 -7.812500e-002  1.889810e-001
      vertex  7.496998e-001 -7.812500e-002  1.860499e-001
    endloop
  endfacet
  facet normal  9.951848e-001  -0.000000e+000  9.801670e-002
    outer loop
      vertex  7.496998e-001  0.000000e+000  1.860499e-001
      vertex  7.496998e-001 -7.812500e-002  1.860499e-001
      vertex  7.500000e-001  0.000000e+000  1.830016e-001
    endloop
  endfacet
  facet normal  9.951848e-001  0.000000e+000  9.801670e-002
    outer loop
      vertex  7.500000e-001  0.000000e+000  1.830016e-001
      vertex  7.496998e-001 -7.812500e-002  1.860499e-001
      vertex  7.500000e-001 -7.812500e-002  1.830016e-001
    endloop
  endfacet
  facet normal -1.000000e+000  2.552422e-016 -1.065365e-016
    outer loop
      vertex -2.775558e-017 -6.250000e-002  2.605263e-001
      vertex -1.180294e-017  0.000000e+000  2.605263e-001
      vertex  0.000000e+000 -6.250000e-002  0.000000e+000
    endloop
  endfacet
  facet normal -1.000000e+000  0.000000e+000 -4.530421e-017
    outer loop
      vertex  0.000000e+000 -6.250000e-002  0.000000e+000
      vertex -1.180294e-017  0.000000e+000  2.605263e-001
      vertex  0.000000e+000  0.000000e+000  0.000000e+000
    endloop
  endfacet
  facet normal -7.071068e-001  0.000000e+000  7.071068e-001
    outer loop
      vertex  7.894737e-002 -7.812500e-002  3.394737e-001
      vertex  7.894737e-002  0.000000e+000  3.394737e-001
      vertex  1.562500e-002 -7.812500e-002  2.761513e-001
    endloop
  endfacet
  facet normal -7.071067e-001  0.000000e+000  7.071067e-001
    outer loop
      vertex  1.562500e-002 -7.812500e-002  2.761513e-001
      vertex  7.894737e-002  0.000000e+000  3.394737e-001
      vertex -1.180294e-017  0.000000e+000  2.605263e-001
    endloop
  endfacet
  facet normal -7.071068e-001  1.804835e-016  7.071068e-001
    outer loop
      vertex  1.562500e-002 -7.812500e-002  2.761513e-001
      vertex -1.180294e-017  0.000000e+000  2.605263e-001
      vertex -2.775558e-017 -6.250000e-002  2.605263e-001
    endloop
  endfacet
  facet normal -6.123234e-017  0.000000e+000 -1.000000e+000
    outer loop
      vertex  7.500000e-001  0.000000e+000 -4.592425e-017
      vertex  7.500000e-001 -7.812500e-002 -4.592425e-017
      vertex  0.000000e+000  0.000000e+000  0.000000e+000
    endloop
  endfacet
  facet normal -6.123234e-017  9.010989e-025 -9.999999e-001
    outer loop
      vertex  0.000000e+000  0.000000e+000  0.000000e+000
      vertex  7.500000e-001 -7.812500e-002 -4.592425e-017
      vertex  1.562500e-002 -7.812500e-002 -9.567554e-019
    endloop
  endfacet
  facet normal -6.123234e-017  0.000000e+000 -1.000000e+000
    outer loop
      vertex  0.000000e+000  0.000000e+000  0.000000e+000
      vertex  1.562500e-002 -7.812500e-002 -9.567554e-019
      vertex  0.000000e+000 -6.250000e-002  0.000000e+000
    endloop
  endfacet
  facet normal -7.071068e-001 -7.071068e-001  0.000000e+000
    outer loop
      vertex  1.562500e-002 -7.812500e-002  2.761513e-001
      vertex -2.775558e-017 -6.250000e-002  2.605263e-001
      vertex  1.562500e-002 -7.812500e-002 -9.567554e-019
    endloop
  endfacet
  facet normal -7.071068e-001 -7.071068e-001  0.000000e+000
    outer loop
      vertex  1.562500e-002 -7.812500e-002 -9.567554e-019
      vertex -2.775558e-017 -6.250000e-002  2.605263e-001
      vertex  0.000000e+000 -6.250000e-002  0.000000e+000
    endloop
  endfacet
  facet normal  0.000000e+000  0.000000e+000  1.000000e+000
    outer loop
      vertex  2.210526e-001 -7.812500e-002  3.394737e-001
      vertex  2.210526e-001  0.000000e+000  3.394737e-001
      vertex  7.894737e-002 -7.812500e-002  3.394737e-001
    endloop
  endfacet
  facet normal  0.000000e+000  0.000000e+000  1.000000e+000
    outer loop
      vertex  7.894737e-002 -7.812500e-002  3.394737e-001
      vertex  2.210526e-001  0.000000e+000  3.394737e-001
      vertex  7.894737e-002  0.000000e+000  3.394737e-001
    endloop
  endfacet
  facet normal  1.000000e+000  0.000000e+000  0.000000e+000
    outer loop
      vertex  2.210526e-001 -7.812500e-002  1.894737e-001
      vertex  2.210526e-001  0.000000e+000  1.894737e-001
      vertex  2.210526e-001 -7.812500e-002  3.394737e-001
    endloop
  endfacet
  facet normal  1.000000e+000  -0.000000e+000  0.000000e+000
    outer loop
      vertex  2.210526e-001 -7.812500e-002  3.394737e-001
      vertex  2.210526e-001  0.000000e+000  1.894737e-001
      vertex  2.210526e-001  0.000000e+000  3.394737e-001
    endloop
  endfacet
  facet normal  0.000000e+000  0.000000e+000  1.000000e+000
    outer loop
      vertex  3.789474e-001 -7.812500e-002  1.894737e-001
      vertex  3.789474e-001  0.000000e+000  1.894737e-001
      vertex  2.210526e-001 -7.812500e-002  1.894737e-001
    endloop
  endfacet
  facet normal  0.000000e+000  0.000000e+000  1.000000e+000
    outer loop
      vertex  2.210526e-001 -7.812500e-002  1.894737e-001
      vertex  3.789474e-001  0.000000e+000  1.894737e-001
      vertex  2.210526e-001  0.000000e+000  1.894737e-001
    endloop
  endfacet
  facet normal -1.000000e+000  -0.000000e+000  0.000000e+000
    outer loop
      vertex  3.789474e-001 -7.812500e-002  3.394737e-001
      vertex  3.789474e-001  0.000000e+000  3.394737e-001
      vertex  3.789474e-001 -7.812500e-002  1.894737e-001
    endloop
  endfacet
  facet normal -1.000000e+000  0.000000e+000  0.000000e+000
    outer loop
      vertex  3.789474e-001 -7.812500e-002  1.894737e-001
      vertex  3.789474e-001  0.000000e+000  3.394737e-001
      vertex  3.789474e-001  0.000000e+000  1.894737e-001
    endloop
  endfacet
  facet normal  0.000000e+000  0.000000e+000  1.000000e+000
    outer loop
      vertex  6.000000e-001 -7.812500e-002  3.394737e-001
      vertex  6.000000e-001  0.000000e+000  3.394737e-001
      vertex  3.789474e-001 -7.812500e-002  3.394737e-001
    endloop
  endfacet
  facet normal  0.000000e+000  0.000000e+000  1.000000e+000
    outer loop
      vertex  3.789474e-001 -7.812500e-002  3.394737e-001
      vertex  6.000000e-001  0.000000e+000  3.394737e-001
      vertex  3.789474e-001  0.000000e+000  3.394737e-001
    endloop
  endfacet
endsolid CATIA STL
