solid CATIA STL
  facet normal  8.674484e-001 -4.975271e-001  0.000000e+000
    outer loop
      vertex  6.810533e-001  4.045439e-002  0.000000e+000
      vertex  6.810533e-001  4.045439e-002  3.906250e-001
      vertex  6.741897e-001  2.848757e-002  0.000000e+000
    endloop
  endfacet
  facet normal  8.674484e-001 -4.975271e-001  0.000000e+000
    outer loop
      vertex  6.741897e-001  2.848757e-002  0.000000e+000
      vertex  6.810533e-001  4.045439e-002  3.906250e-001
      vertex  6.741897e-001  2.848757e-002  3.906250e-001
    endloop
  endfacet
  facet normal  7.572739e-001 -6.530975e-001  0.000000e+000
    outer loop
      vertex  6.741897e-001  2.848757e-002  0.000000e+000
      vertex  6.741897e-001  2.848757e-002  3.906250e-001
      vertex  6.651800e-001  1.804064e-002  0.000000e+000
    endloop
  endfacet
  facet normal  7.572739e-001 -6.530975e-001  0.000000e+000
    outer loop
      vertex  6.651800e-001  1.804064e-002  0.000000e+000
      vertex  6.741897e-001  2.848757e-002  3.906250e-001
      vertex  6.651800e-001  1.804064e-002  3.906250e-001
    endloop
  endfacet
  facet normal  6.195826e-001 -7.849315e-001  0.000000e+000
    outer loop
      vertex  6.651800e-001  1.804064e-002  0.000000e+000
      vertex  6.651800e-001  1.804064e-002  3.906250e-001
      vertex  6.543515e-001  9.493207e-003  0.000000e+000
    endloop
  endfacet
  facet normal  6.195826e-001 -7.849315e-001  0.000000e+000
    outer loop
      vertex  6.543515e-001  9.493207e-003  0.000000e+000
      vertex  6.651800e-001  1.804064e-002  3.906250e-001
      vertex  6.543515e-001  9.493207e-003  3.906250e-001
    endloop
  endfacet
  facet normal  4.593787e-001 -8.882406e-001  0.000000e+000
    outer loop
      vertex  6.543515e-001  9.493207e-003  0.000000e+000
      vertex  6.543515e-001  9.493207e-003  3.906250e-001
      vertex  6.420978e-001  3.155890e-003  0.000000e+000
    endloop
  endfacet
  facet normal  4.593787e-001 -8.882406e-001  0.000000e+000
    outer loop
      vertex  6.420978e-001  3.155890e-003  0.000000e+000
      vertex  6.543515e-001  9.493207e-003  3.906250e-001
      vertex  6.420978e-001  3.155890e-003  3.906250e-001
    endloop
  endfacet
  facet normal  2.824784e-001 -9.592737e-001  0.000000e+000
    outer loop
      vertex  6.420978e-001  3.155890e-003  0.000000e+000
      vertex  6.420978e-001  3.155890e-003  3.906250e-001
      vertex  6.288642e-001 -7.410228e-004  0.000000e+000
    endloop
  endfacet
  facet normal  2.824784e-001 -9.592737e-001  0.000000e+000
    outer loop
      vertex  6.288642e-001 -7.410228e-004  0.000000e+000
      vertex  6.420978e-001  3.155890e-003  3.906250e-001
      vertex  6.288642e-001 -7.410228e-004  3.906250e-001
    endloop
  endfacet
  facet normal  9.531372e-002 -9.954473e-001  0.000000e+000
    outer loop
      vertex  6.288642e-001 -7.410228e-004  0.000000e+000
      vertex  6.288642e-001 -7.410228e-004  3.906250e-001
      vertex  6.151316e-001 -2.055921e-003  0.000000e+000
    endloop
  endfacet
  facet normal  9.531372e-002 -9.954473e-001  0.000000e+000
    outer loop
      vertex  6.151316e-001 -2.055921e-003  0.000000e+000
      vertex  6.288642e-001 -7.410228e-004  3.906250e-001
      vertex  6.151316e-001 -2.055921e-003  3.906250e-001
    endloop
  endfacet
  facet normal  0.000000e+000  0.000000e+000  9.999999e-001
    outer loop
      vertex  6.151316e-001  4.538651e-001  3.906250e-001
      vertex  5.825004e-002  4.524746e-001  3.906250e-001
      vertex  6.292499e-001  4.524746e-001  3.906250e-001
    endloop
  endfacet
  facet normal  -0.000000e+000  0.000000e+000  1.000000e+000
    outer loop
      vertex  6.151316e-001  4.538651e-001  3.906250e-001
      vertex  7.236842e-002  4.538651e-001  3.906250e-001
      vertex  5.825004e-002  4.524746e-001  3.906250e-001
    endloop
  endfacet
  facet normal  0.000000e+000  0.000000e+000  1.000000e+000
    outer loop
      vertex  7.236842e-002 -2.055921e-003  3.906250e-001
      vertex  6.288642e-001 -7.410228e-004  3.906250e-001
      vertex  5.825004e-002 -6.653821e-004  3.906250e-001
    endloop
  endfacet
  facet normal  0.000000e+000  -0.000000e+000  1.000000e+000
    outer loop
      vertex  7.236842e-002 -2.055921e-003  3.906250e-001
      vertex  6.151316e-001 -2.055921e-003  3.906250e-001
      vertex  6.288642e-001 -7.410228e-004  3.906250e-001
    endloop
  endfacet
  facet normal  -0.000000e+000  0.000000e+000  1.000000e+000
    outer loop
      vertex  6.292499e-001  4.524746e-001  3.906250e-001
      vertex  5.825004e-002  4.524746e-001  3.906250e-001
      vertex  4.467423e-002  4.483564e-001  3.906250e-001
    endloop
  endfacet
  facet normal  0.000000e+000  0.000000e+000  1.000000e+000
    outer loop
      vertex  6.292499e-001  4.524746e-001  3.906250e-001
      vertex  4.467423e-002  4.483564e-001  3.906250e-001
      vertex  6.428258e-001  4.483564e-001  3.906250e-001
    endloop
  endfacet
  facet normal  -0.000000e+000  0.000000e+000  1.000000e+000
    outer loop
      vertex  6.428258e-001  4.483564e-001  3.906250e-001
      vertex  4.467423e-002  4.483564e-001  3.906250e-001
      vertex  3.216268e-002  4.416689e-001  3.906250e-001
    endloop
  endfacet
  facet normal  0.000000e+000  0.000000e+000  1.000000e+000
    outer loop
      vertex  6.428258e-001  4.483564e-001  3.906250e-001
      vertex  3.216268e-002  4.416689e-001  3.906250e-001
      vertex  6.553373e-001  4.416689e-001  3.906250e-001
    endloop
  endfacet
  facet normal  -0.000000e+000  0.000000e+000  1.000000e+000
    outer loop
      vertex  6.553373e-001  4.416689e-001  3.906250e-001
      vertex  3.216268e-002  4.416689e-001  3.906250e-001
      vertex  2.119622e-002  4.326689e-001  3.906250e-001
    endloop
  endfacet
  facet normal  0.000000e+000  0.000000e+000  1.000000e+000
    outer loop
      vertex  6.553373e-001  4.416689e-001  3.906250e-001
      vertex  2.119622e-002  4.326689e-001  3.906250e-001
      vertex  6.663038e-001  4.326689e-001  3.906250e-001
    endloop
  endfacet
  facet normal  -0.000000e+000  0.000000e+000  9.999999e-001
    outer loop
      vertex  6.651800e-001  1.804064e-002  3.906250e-001
      vertex  3.216268e-002  1.014036e-002  3.906250e-001
      vertex  6.543515e-001  9.493207e-003  3.906250e-001
    endloop
  endfacet
  facet normal  0.000000e+000  0.000000e+000  1.000000e+000
    outer loop
      vertex  6.543515e-001  9.493207e-003  3.906250e-001
      vertex  3.216268e-002  1.014036e-002  3.906250e-001
      vertex  4.467423e-002  3.452797e-003  3.906250e-001
    endloop
  endfacet
  facet normal  -0.000000e+000  0.000000e+000  1.000000e+000
    outer loop
      vertex  6.543515e-001  9.493207e-003  3.906250e-001
      vertex  4.467423e-002  3.452797e-003  3.906250e-001
      vertex  6.420978e-001  3.155890e-003  3.906250e-001
    endloop
  endfacet
  facet normal  0.000000e+000  0.000000e+000  1.000000e+000
    outer loop
      vertex  6.420978e-001  3.155890e-003  3.906250e-001
      vertex  4.467423e-002  3.452797e-003  3.906250e-001
      vertex  5.825004e-002 -6.653821e-004  3.906250e-001
    endloop
  endfacet
  facet normal  -0.000000e+000  0.000000e+000  1.000000e+000
    outer loop
      vertex  6.420978e-001  3.155890e-003  3.906250e-001
      vertex  5.825004e-002 -6.653821e-004  3.906250e-001
      vertex  6.288642e-001 -7.410228e-004  3.906250e-001
    endloop
  endfacet
  facet normal  -0.000000e+000  0.000000e+000  1.000000e+000
    outer loop
      vertex  6.663038e-001  4.326689e-001  3.906250e-001
      vertex  2.119622e-002  4.326689e-001  3.906250e-001
      vertex  6.753037e-001  4.217024e-001  3.906250e-001
    endloop
  endfacet
  facet normal  0.000000e+000  0.000000e+000  9.999999e-001
    outer loop
      vertex  6.753037e-001  4.217024e-001  3.906250e-001
      vertex  2.119622e-002  4.326689e-001  3.906250e-001
      vertex  1.219628e-002  4.217024e-001  3.906250e-001
    endloop
  endfacet
  facet normal  -0.000000e+000  0.000000e+000  1.000000e+000
    outer loop
      vertex  6.753037e-001  4.217024e-001  3.906250e-001
      vertex  1.219628e-002  4.217024e-001  3.906250e-001
      vertex  6.819913e-001  4.091909e-001  3.906250e-001
    endloop
  endfacet
  facet normal  0.000000e+000  0.000000e+000  1.000000e+000
    outer loop
      vertex  6.819913e-001  4.091909e-001  3.906250e-001
      vertex  1.219628e-002  4.217024e-001  3.906250e-001
      vertex  5.508718e-003  4.091909e-001  3.906250e-001
    endloop
  endfacet
  facet normal  -0.000000e+000  0.000000e+000  1.000000e+000
    outer loop
      vertex  6.819913e-001  4.091909e-001  3.906250e-001
      vertex  5.508718e-003  4.091909e-001  3.906250e-001
      vertex  6.861095e-001  3.956151e-001  3.906250e-001
    endloop
  endfacet
  facet normal  0.000000e+000  0.000000e+000  1.000000e+000
    outer loop
      vertex  6.861095e-001  3.956151e-001  3.906250e-001
      vertex  5.508718e-003  4.091909e-001  3.906250e-001
      vertex  1.390539e-003  3.956151e-001  3.906250e-001
    endloop
  endfacet
  facet normal  -0.000000e+000  0.000000e+000  1.000000e+000
    outer loop
      vertex  6.861095e-001  3.956151e-001  3.906250e-001
      vertex  1.390539e-003  3.956151e-001  3.906250e-001
      vertex  6.875000e-001  3.814967e-001  3.906250e-001
    endloop
  endfacet
  facet normal  0.000000e+000  0.000000e+000  1.000000e+000
    outer loop
      vertex  6.875000e-001  3.814967e-001  3.906250e-001
      vertex  1.390539e-003  3.956151e-001  3.906250e-001
      vertex  0.000000e+000  3.814967e-001  3.906250e-001
    endloop
  endfacet
  facet normal  -0.000000e+000  0.000000e+000  1.000000e+000
    outer loop
      vertex  6.875000e-001  3.814967e-001  3.906250e-001
      vertex  0.000000e+000  3.814967e-001  3.906250e-001
      vertex  6.875000e-001  7.031250e-002  3.906250e-001
    endloop
  endfacet
  facet normal  0.000000e+000  0.000000e+000  1.000000e+000
    outer loop
      vertex  6.875000e-001  7.031250e-002  3.906250e-001
      vertex  0.000000e+000  3.814967e-001  3.906250e-001
      vertex  0.000000e+000  7.031250e-002  3.906250e-001
    endloop
  endfacet
  facet normal  -0.000000e+000  0.000000e+000  1.000000e+000
    outer loop
      vertex  6.875000e-001  7.031250e-002  3.906250e-001
      vertex  0.000000e+000  7.031250e-002  3.906250e-001
      vertex  6.810533e-001  4.045439e-002  3.906250e-001
    endloop
  endfacet
  facet normal  0.000000e+000  0.000000e+000  1.000000e+000
    outer loop
      vertex  6.810533e-001  4.045439e-002  3.906250e-001
      vertex  0.000000e+000  7.031250e-002  3.906250e-001
      vertex  1.390539e-003  5.619412e-002  3.906250e-001
    endloop
  endfacet
  facet normal  0.000000e+000  0.000000e+000  9.999999e-001
    outer loop
      vertex  6.810533e-001  4.045439e-002  3.906250e-001
      vertex  1.390539e-003  5.619412e-002  3.906250e-001
      vertex  5.508718e-003  4.261830e-002  3.906250e-001
    endloop
  endfacet
  facet normal  0.000000e+000  0.000000e+000  1.000000e+000
    outer loop
      vertex  6.810533e-001  4.045439e-002  3.906250e-001
      vertex  5.508718e-003  4.261830e-002  3.906250e-001
      vertex  6.741897e-001  2.848757e-002  3.906250e-001
    endloop
  endfacet
  facet normal  0.000000e+000  0.000000e+000  1.000000e+000
    outer loop
      vertex  6.741897e-001  2.848757e-002  3.906250e-001
      vertex  5.508718e-003  4.261830e-002  3.906250e-001
      vertex  1.219628e-002  3.010676e-002  3.906250e-001
    endloop
  endfacet
  facet normal  0.000000e+000  0.000000e+000  9.999999e-001
    outer loop
      vertex  6.741897e-001  2.848757e-002  3.906250e-001
      vertex  1.219628e-002  3.010676e-002  3.906250e-001
      vertex  6.651800e-001  1.804064e-002  3.906250e-001
    endloop
  endfacet
  facet normal  0.000000e+000  0.000000e+000  1.000000e+000
    outer loop
      vertex  6.651800e-001  1.804064e-002  3.906250e-001
      vertex  1.219628e-002  3.010676e-002  3.906250e-001
      vertex  2.119622e-002  1.914030e-002  3.906250e-001
    endloop
  endfacet
  facet normal  0.000000e+000  0.000000e+000  1.000000e+000
    outer loop
      vertex  6.651800e-001  1.804064e-002  3.906250e-001
      vertex  2.119622e-002  1.914030e-002  3.906250e-001
      vertex  3.216268e-002  1.014036e-002  3.906250e-001
    endloop
  endfacet
  facet normal  0.000000e+000  0.000000e+000 -9.999999e-001
    outer loop
      vertex  6.292499e-001  4.524746e-001  0.000000e+000
      vertex  5.825004e-002  4.524746e-001  0.000000e+000
      vertex  6.151316e-001  4.538651e-001  0.000000e+000
    endloop
  endfacet
  facet normal  0.000000e+000  -0.000000e+000 -1.000000e+000
    outer loop
      vertex  5.825004e-002  4.524746e-001  0.000000e+000
      vertex  7.236842e-002  4.538651e-001  0.000000e+000
      vertex  6.151316e-001  4.538651e-001  0.000000e+000
    endloop
  endfacet
  facet normal  -0.000000e+000  0.000000e+000 -1.000000e+000
    outer loop
      vertex  5.825004e-002 -6.653821e-004  0.000000e+000
      vertex  6.288642e-001 -7.410228e-004  0.000000e+000
      vertex  7.236842e-002 -2.055921e-003  0.000000e+000
    endloop
  endfacet
  facet normal  0.000000e+000  0.000000e+000 -1.000000e+000
    outer loop
      vertex  6.288642e-001 -7.410228e-004  0.000000e+000
      vertex  6.151316e-001 -2.055921e-003  0.000000e+000
      vertex  7.236842e-002 -2.055921e-003  0.000000e+000
    endloop
  endfacet
  facet normal  0.000000e+000  -0.000000e+000 -1.000000e+000
    outer loop
      vertex  4.467423e-002  4.483564e-001  0.000000e+000
      vertex  5.825004e-002  4.524746e-001  0.000000e+000
      vertex  6.292499e-001  4.524746e-001  0.000000e+000
    endloop
  endfacet
  facet normal  0.000000e+000  0.000000e+000 -1.000000e+000
    outer loop
      vertex  6.428258e-001  4.483564e-001  0.000000e+000
      vertex  4.467423e-002  4.483564e-001  0.000000e+000
      vertex  6.292499e-001  4.524746e-001  0.000000e+000
    endloop
  endfacet
  facet normal  0.000000e+000  -0.000000e+000 -1.000000e+000
    outer loop
      vertex  3.216268e-002  4.416689e-001  0.000000e+000
      vertex  4.467423e-002  4.483564e-001  0.000000e+000
      vertex  6.428258e-001  4.483564e-001  0.000000e+000
    endloop
  endfacet
  facet normal  0.000000e+000  0.000000e+000 -1.000000e+000
    outer loop
      vertex  6.553373e-001  4.416689e-001  0.000000e+000
      vertex  3.216268e-002  4.416689e-001  0.000000e+000
      vertex  6.428258e-001  4.483564e-001  0.000000e+000
    endloop
  endfacet
  facet normal  0.000000e+000  -0.000000e+000 -1.000000e+000
    outer loop
      vertex  2.119622e-002  4.326689e-001  0.000000e+000
      vertex  3.216268e-002  4.416689e-001  0.000000e+000
      vertex  6.553373e-001  4.416689e-001  0.000000e+000
    endloop
  endfacet
  facet normal  0.000000e+000  0.000000e+000 -1.000000e+000
    outer loop
      vertex  6.663038e-001  4.326689e-001  0.000000e+000
      vertex  2.119622e-002  4.326689e-001  0.000000e+000
      vertex  6.553373e-001  4.416689e-001  0.000000e+000
    endloop
  endfacet
  facet normal  0.000000e+000  0.000000e+000 -9.999999e-001
    outer loop
      vertex  6.543515e-001  9.493207e-003  0.000000e+000
      vertex  3.216268e-002  1.014036e-002  0.000000e+000
      vertex  6.651800e-001  1.804064e-002  0.000000e+000
    endloop
  endfacet
  facet normal  0.000000e+000  0.000000e+000 -1.000000e+000
    outer loop
      vertex  4.467423e-002  3.452797e-003  0.000000e+000
      vertex  3.216268e-002  1.014036e-002  0.000000e+000
      vertex  6.543515e-001  9.493207e-003  0.000000e+000
    endloop
  endfacet
  facet normal  0.000000e+000  0.000000e+000 -1.000000e+000
    outer loop
      vertex  6.420978e-001  3.155890e-003  0.000000e+000
      vertex  4.467423e-002  3.452797e-003  0.000000e+000
      vertex  6.543515e-001  9.493207e-003  0.000000e+000
    endloop
  endfacet
  facet normal  0.000000e+000  0.000000e+000 -1.000000e+000
    outer loop
      vertex  5.825004e-002 -6.653821e-004  0.000000e+000
      vertex  4.467423e-002  3.452797e-003  0.000000e+000
      vertex  6.420978e-001  3.155890e-003  0.000000e+000
    endloop
  endfacet
  facet normal  0.000000e+000  0.000000e+000 -1.000000e+000
    outer loop
      vertex  6.288642e-001 -7.410228e-004  0.000000e+000
      vertex  5.825004e-002 -6.653821e-004  0.000000e+000
      vertex  6.420978e-001  3.155890e-003  0.000000e+000
    endloop
  endfacet
  facet normal  0.000000e+000  0.000000e+000 -9.999999e-001
    outer loop
      vertex  5.508718e-003  4.261830e-002  0.000000e+000
      vertex  1.390539e-003  5.619412e-002  0.000000e+000
      vertex  6.810533e-001  4.045439e-002  0.000000e+000
    endloop
  endfacet
  facet normal  0.000000e+000  0.000000e+000 -1.000000e+000
    outer loop
      vertex  6.810533e-001  4.045439e-002  0.000000e+000
      vertex  1.390539e-003  5.619412e-002  0.000000e+000
      vertex  0.000000e+000  7.031250e-002  0.000000e+000
    endloop
  endfacet
  facet normal  0.000000e+000  0.000000e+000 -1.000000e+000
    outer loop
      vertex  6.810533e-001  4.045439e-002  0.000000e+000
      vertex  0.000000e+000  7.031250e-002  0.000000e+000
      vertex  6.875000e-001  7.031250e-002  0.000000e+000
    endloop
  endfacet
  facet normal  0.000000e+000  0.000000e+000 -1.000000e+000
    outer loop
      vertex  6.875000e-001  7.031250e-002  0.000000e+000
      vertex  0.000000e+000  7.031250e-002  0.000000e+000
      vertex  0.000000e+000  3.814967e-001  0.000000e+000
    endloop
  endfacet
  facet normal  0.000000e+000  0.000000e+000 -1.000000e+000
    outer loop
      vertex  6.875000e-001  7.031250e-002  0.000000e+000
      vertex  0.000000e+000  3.814967e-001  0.000000e+000
      vertex  6.875000e-001  3.814967e-001  0.000000e+000
    endloop
  endfacet
  facet normal  0.000000e+000  0.000000e+000 -1.000000e+000
    outer loop
      vertex  6.875000e-001  3.814967e-001  0.000000e+000
      vertex  0.000000e+000  3.814967e-001  0.000000e+000
      vertex  1.390539e-003  3.956151e-001  0.000000e+000
    endloop
  endfacet
  facet normal  0.000000e+000  0.000000e+000 -1.000000e+000
    outer loop
      vertex  6.875000e-001  3.814967e-001  0.000000e+000
      vertex  1.390539e-003  3.956151e-001  0.000000e+000
      vertex  6.861095e-001  3.956151e-001  0.000000e+000
    endloop
  endfacet
  facet normal  0.000000e+000  0.000000e+000 -1.000000e+000
    outer loop
      vertex  6.861095e-001  3.956151e-001  0.000000e+000
      vertex  1.390539e-003  3.956151e-001  0.000000e+000
      vertex  5.508718e-003  4.091909e-001  0.000000e+000
    endloop
  endfacet
  facet normal  0.000000e+000  0.000000e+000 -1.000000e+000
    outer loop
      vertex  6.861095e-001  3.956151e-001  0.000000e+000
      vertex  5.508718e-003  4.091909e-001  0.000000e+000
      vertex  6.819913e-001  4.091909e-001  0.000000e+000
    endloop
  endfacet
  facet normal  0.000000e+000  0.000000e+000 -1.000000e+000
    outer loop
      vertex  6.819913e-001  4.091909e-001  0.000000e+000
      vertex  5.508718e-003  4.091909e-001  0.000000e+000
      vertex  1.219628e-002  4.217024e-001  0.000000e+000
    endloop
  endfacet
  facet normal  0.000000e+000  0.000000e+000 -1.000000e+000
    outer loop
      vertex  6.819913e-001  4.091909e-001  0.000000e+000
      vertex  1.219628e-002  4.217024e-001  0.000000e+000
      vertex  6.753037e-001  4.217024e-001  0.000000e+000
    endloop
  endfacet
  facet normal  0.000000e+000  0.000000e+000 -9.999999e-001
    outer loop
      vertex  6.753037e-001  4.217024e-001  0.000000e+000
      vertex  1.219628e-002  4.217024e-001  0.000000e+000
      vertex  2.119622e-002  4.326689e-001  0.000000e+000
    endloop
  endfacet
  facet normal  0.000000e+000  0.000000e+000 -1.000000e+000
    outer loop
      vertex  6.753037e-001  4.217024e-001  0.000000e+000
      vertex  2.119622e-002  4.326689e-001  0.000000e+000
      vertex  6.663038e-001  4.326689e-001  0.000000e+000
    endloop
  endfacet
  facet normal  0.000000e+000  0.000000e+000 -1.000000e+000
    outer loop
      vertex  3.216268e-002  1.014036e-002  0.000000e+000
      vertex  2.119622e-002  1.914030e-002  0.000000e+000
      vertex  6.651800e-001  1.804064e-002  0.000000e+000
    endloop
  endfacet
  facet normal  0.000000e+000  0.000000e+000 -1.000000e+000
    outer loop
      vertex  6.651800e-001  1.804064e-002  0.000000e+000
      vertex  2.119622e-002  1.914030e-002  0.000000e+000
      vertex  1.219628e-002  3.010676e-002  0.000000e+000
    endloop
  endfacet
  facet normal  0.000000e+000  0.000000e+000 -9.999999e-001
    outer loop
      vertex  6.651800e-001  1.804064e-002  0.000000e+000
      vertex  1.219628e-002  3.010676e-002  0.000000e+000
      vertex  6.741897e-001  2.848757e-002  0.000000e+000
    endloop
  endfacet
  facet normal  0.000000e+000  0.000000e+000 -1.000000e+000
    outer loop
      vertex  6.741897e-001  2.848757e-002  0.000000e+000
      vertex  1.219628e-002  3.010676e-002  0.000000e+000
      vertex  5.508718e-003  4.261830e-002  0.000000e+000
    endloop
  endfacet
  facet normal  0.000000e+000  0.000000e+000 -1.000000e+000
    outer loop
      vertex  6.741897e-001  2.848757e-002  0.000000e+000
      vertex  5.508718e-003  4.261830e-002  0.000000e+000
      vertex  6.810533e-001  4.045439e-002  0.000000e+000
    endloop
  endfacet
  facet normal  1.000000e+000  0.000000e+000  0.000000e+000
    outer loop
      vertex  6.875000e-001  7.031250e-002  0.000000e+000
      vertex  6.875000e-001  3.814967e-001  0.000000e+000
      vertex  6.875000e-001  7.031250e-002  3.906250e-001
    endloop
  endfacet
  facet normal  1.000000e+000  -0.000000e+000  0.000000e+000
    outer loop
      vertex  6.875000e-001  7.031250e-002  3.906250e-001
      vertex  6.875000e-001  3.814967e-001  0.000000e+000
      vertex  6.875000e-001  3.814967e-001  3.906250e-001
    endloop
  endfacet
  facet normal  9.774760e-001 -2.110467e-001  0.000000e+000
    outer loop
      vertex  6.810533e-001  4.045439e-002  3.906250e-001
      vertex  6.810533e-001  4.045439e-002  0.000000e+000
      vertex  6.875000e-001  7.031250e-002  3.906250e-001
    endloop
  endfacet
  facet normal  9.774760e-001 -2.110467e-001  0.000000e+000
    outer loop
      vertex  6.875000e-001  7.031250e-002  3.906250e-001
      vertex  6.810533e-001  4.045439e-002  0.000000e+000
      vertex  6.875000e-001  7.031250e-002  0.000000e+000
    endloop
  endfacet
  facet normal -1.000000e+000  0.000000e+000  0.000000e+000
    outer loop
      vertex  0.000000e+000  3.814967e-001  0.000000e+000
      vertex  0.000000e+000  7.031250e-002  0.000000e+000
      vertex  0.000000e+000  3.814967e-001  3.906250e-001
    endloop
  endfacet
  facet normal -1.000000e+000  -0.000000e+000  0.000000e+000
    outer loop
      vertex  0.000000e+000  3.814967e-001  3.906250e-001
      vertex  0.000000e+000  7.031250e-002  0.000000e+000
      vertex  0.000000e+000  7.031250e-002  3.906250e-001
    endloop
  endfacet
  facet normal -9.951847e-001  9.801696e-002  0.000000e+000
    outer loop
      vertex  0.000000e+000  3.814967e-001  0.000000e+000
      vertex  0.000000e+000  3.814967e-001  3.906250e-001
      vertex  1.390539e-003  3.956151e-001  0.000000e+000
    endloop
  endfacet
  facet normal -9.951847e-001  9.801696e-002  0.000000e+000
    outer loop
      vertex  1.390539e-003  3.956151e-001  0.000000e+000
      vertex  0.000000e+000  3.814967e-001  3.906250e-001
      vertex  1.390539e-003  3.956151e-001  3.906250e-001
    endloop
  endfacet
  facet normal -9.569402e-001  2.902851e-001  0.000000e+000
    outer loop
      vertex  1.390539e-003  3.956151e-001  0.000000e+000
      vertex  1.390539e-003  3.956151e-001  3.906250e-001
      vertex  5.508718e-003  4.091909e-001  0.000000e+000
    endloop
  endfacet
  facet normal -9.569402e-001  2.902851e-001  0.000000e+000
    outer loop
      vertex  5.508718e-003  4.091909e-001  0.000000e+000
      vertex  1.390539e-003  3.956151e-001  3.906250e-001
      vertex  5.508718e-003  4.091909e-001  3.906250e-001
    endloop
  endfacet
  facet normal -8.819214e-001  4.713966e-001  0.000000e+000
    outer loop
      vertex  5.508718e-003  4.091909e-001  0.000000e+000
      vertex  5.508718e-003  4.091909e-001  3.906250e-001
      vertex  1.219628e-002  4.217024e-001  0.000000e+000
    endloop
  endfacet
  facet normal -8.819214e-001  4.713966e-001  0.000000e+000
    outer loop
      vertex  1.219628e-002  4.217024e-001  0.000000e+000
      vertex  5.508718e-003  4.091909e-001  3.906250e-001
      vertex  1.219628e-002  4.217024e-001  3.906250e-001
    endloop
  endfacet
  facet normal -7.730110e-001  6.343926e-001  0.000000e+000
    outer loop
      vertex  1.219628e-002  4.217024e-001  0.000000e+000
      vertex  1.219628e-002  4.217024e-001  3.906250e-001
      vertex  2.119622e-002  4.326689e-001  0.000000e+000
    endloop
  endfacet
  facet normal -7.730110e-001  6.343926e-001  0.000000e+000
    outer loop
      vertex  2.119622e-002  4.326689e-001  0.000000e+000
      vertex  1.219628e-002  4.217024e-001  3.906250e-001
      vertex  2.119622e-002  4.326689e-001  3.906250e-001
    endloop
  endfacet
  facet normal -6.343933e-001  7.730104e-001  0.000000e+000
    outer loop
      vertex  2.119622e-002  4.326689e-001  0.000000e+000
      vertex  2.119622e-002  4.326689e-001  3.906250e-001
      vertex  3.216268e-002  4.416689e-001  0.000000e+000
    endloop
  endfacet
  facet normal -6.343933e-001  7.730104e-001  0.000000e+000
    outer loop
      vertex  3.216268e-002  4.416689e-001  0.000000e+000
      vertex  2.119622e-002  4.326689e-001  3.906250e-001
      vertex  3.216268e-002  4.416689e-001  3.906250e-001
    endloop
  endfacet
  facet normal -4.713963e-001  8.819215e-001  0.000000e+000
    outer loop
      vertex  3.216268e-002  4.416689e-001  0.000000e+000
      vertex  3.216268e-002  4.416689e-001  3.906250e-001
      vertex  4.467423e-002  4.483564e-001  0.000000e+000
    endloop
  endfacet
  facet normal -4.713963e-001  8.819215e-001  0.000000e+000
    outer loop
      vertex  4.467423e-002  4.483564e-001  0.000000e+000
      vertex  3.216268e-002  4.416689e-001  3.906250e-001
      vertex  4.467423e-002  4.483564e-001  3.906250e-001
    endloop
  endfacet
  facet normal -2.902843e-001  9.569405e-001  0.000000e+000
    outer loop
      vertex  4.467423e-002  4.483564e-001  0.000000e+000
      vertex  4.467423e-002  4.483564e-001  3.906250e-001
      vertex  5.825004e-002  4.524746e-001  0.000000e+000
    endloop
  endfacet
  facet normal -2.902843e-001  9.569405e-001  0.000000e+000
    outer loop
      vertex  5.825004e-002  4.524746e-001  0.000000e+000
      vertex  4.467423e-002  4.483564e-001  3.906250e-001
      vertex  5.825004e-002  4.524746e-001  3.906250e-001
    endloop
  endfacet
  facet normal -9.801769e-002  9.951847e-001  0.000000e+000
    outer loop
      vertex  5.825004e-002  4.524746e-001  0.000000e+000
      vertex  5.825004e-002  4.524746e-001  3.906250e-001
      vertex  7.236842e-002  4.538651e-001  0.000000e+000
    endloop
  endfacet
  facet normal -9.801769e-002  9.951847e-001  0.000000e+000
    outer loop
      vertex  7.236842e-002  4.538651e-001  0.000000e+000
      vertex  5.825004e-002  4.524746e-001  3.906250e-001
      vertex  7.236842e-002  4.538651e-001  3.906250e-001
    endloop
  endfacet
  facet normal  0.000000e+000  1.000000e+000  -0.000000e+000
    outer loop
      vertex  6.151316e-001  4.538651e-001  3.906250e-001
      vertex  6.151316e-001  4.538651e-001  0.000000e+000
      vertex  7.236842e-002  4.538651e-001  3.906250e-001
    endloop
  endfacet
  facet normal  0.000000e+000  1.000000e+000  0.000000e+000
    outer loop
      vertex  7.236842e-002  4.538651e-001  3.906250e-001
      vertex  6.151316e-001  4.538651e-001  0.000000e+000
      vertex  7.236842e-002  4.538651e-001  0.000000e+000
    endloop
  endfacet
  facet normal  9.801771e-002  9.951847e-001  0.000000e+000
    outer loop
      vertex  6.151316e-001  4.538651e-001  0.000000e+000
      vertex  6.151316e-001  4.538651e-001  3.906250e-001
      vertex  6.292499e-001  4.524746e-001  0.000000e+000
    endloop
  endfacet
  facet normal  9.801771e-002  9.951847e-001  -0.000000e+000
    outer loop
      vertex  6.292499e-001  4.524746e-001  0.000000e+000
      vertex  6.151316e-001  4.538651e-001  3.906250e-001
      vertex  6.292499e-001  4.524746e-001  3.906250e-001
    endloop
  endfacet
  facet normal  2.902837e-001  9.569407e-001  0.000000e+000
    outer loop
      vertex  6.292499e-001  4.524746e-001  0.000000e+000
      vertex  6.292499e-001  4.524746e-001  3.906250e-001
      vertex  6.428258e-001  4.483564e-001  0.000000e+000
    endloop
  endfacet
  facet normal  2.902837e-001  9.569407e-001  -0.000000e+000
    outer loop
      vertex  6.428258e-001  4.483564e-001  0.000000e+000
      vertex  6.292499e-001  4.524746e-001  3.906250e-001
      vertex  6.428258e-001  4.483564e-001  3.906250e-001
    endloop
  endfacet
  facet normal  4.713961e-001  8.819216e-001  0.000000e+000
    outer loop
      vertex  6.428258e-001  4.483564e-001  0.000000e+000
      vertex  6.428258e-001  4.483564e-001  3.906250e-001
      vertex  6.553373e-001  4.416689e-001  0.000000e+000
    endloop
  endfacet
  facet normal  4.713961e-001  8.819216e-001  -0.000000e+000
    outer loop
      vertex  6.553373e-001  4.416689e-001  0.000000e+000
      vertex  6.428258e-001  4.483564e-001  3.906250e-001
      vertex  6.553373e-001  4.416689e-001  3.906250e-001
    endloop
  endfacet
  facet normal  6.343948e-001  7.730092e-001  0.000000e+000
    outer loop
      vertex  6.553373e-001  4.416689e-001  0.000000e+000
      vertex  6.553373e-001  4.416689e-001  3.906250e-001
      vertex  6.663038e-001  4.326689e-001  0.000000e+000
    endloop
  endfacet
  facet normal  6.343948e-001  7.730092e-001  -0.000000e+000
    outer loop
      vertex  6.663038e-001  4.326689e-001  0.000000e+000
      vertex  6.553373e-001  4.416689e-001  3.906250e-001
      vertex  6.663038e-001  4.326689e-001  3.906250e-001
    endloop
  endfacet
  facet normal  7.730109e-001  6.343927e-001  0.000000e+000
    outer loop
      vertex  6.663038e-001  4.326689e-001  0.000000e+000
      vertex  6.663038e-001  4.326689e-001  3.906250e-001
      vertex  6.753037e-001  4.217024e-001  0.000000e+000
    endloop
  endfacet
  facet normal  7.730109e-001  6.343927e-001  -0.000000e+000
    outer loop
      vertex  6.753037e-001  4.217024e-001  0.000000e+000
      vertex  6.663038e-001  4.326689e-001  3.906250e-001
      vertex  6.753037e-001  4.217024e-001  3.906250e-001
    endloop
  endfacet
  facet normal  8.819207e-001  4.713977e-001  0.000000e+000
    outer loop
      vertex  6.753037e-001  4.217024e-001  0.000000e+000
      vertex  6.753037e-001  4.217024e-001  3.906250e-001
      vertex  6.819913e-001  4.091909e-001  0.000000e+000
    endloop
  endfacet
  facet normal  8.819207e-001  4.713977e-001  -0.000000e+000
    outer loop
      vertex  6.819913e-001  4.091909e-001  0.000000e+000
      vertex  6.753037e-001  4.217024e-001  3.906250e-001
      vertex  6.819913e-001  4.091909e-001  3.906250e-001
    endloop
  endfacet
  facet normal  9.569398e-001  2.902868e-001  0.000000e+000
    outer loop
      vertex  6.819913e-001  4.091909e-001  0.000000e+000
      vertex  6.819913e-001  4.091909e-001  3.906250e-001
      vertex  6.861095e-001  3.956151e-001  0.000000e+000
    endloop
  endfacet
  facet normal  9.569398e-001  2.902868e-001  -0.000000e+000
    outer loop
      vertex  6.861095e-001  3.956151e-001  0.000000e+000
      vertex  6.819913e-001  4.091909e-001  3.906250e-001
      vertex  6.861095e-001  3.956151e-001  3.906250e-001
    endloop
  endfacet
  facet normal  9.951849e-001  9.801543e-002  0.000000e+000
    outer loop
      vertex  6.861095e-001  3.956151e-001  0.000000e+000
      vertex  6.861095e-001  3.956151e-001  3.906250e-001
      vertex  6.875000e-001  3.814967e-001  0.000000e+000
    endloop
  endfacet
  facet normal  9.951849e-001  9.801543e-002  -0.000000e+000
    outer loop
      vertex  6.875000e-001  3.814967e-001  0.000000e+000
      vertex  6.861095e-001  3.956151e-001  3.906250e-001
      vertex  6.875000e-001  3.814967e-001  3.906250e-001
    endloop
  endfacet
  facet normal  0.000000e+000 -1.000000e+000  0.000000e+000
    outer loop
      vertex  7.236842e-002 -2.055921e-003  3.906250e-001
      vertex  7.236842e-002 -2.055921e-003  0.000000e+000
      vertex  6.151316e-001 -2.055921e-003  3.906250e-001
    endloop
  endfacet
  facet normal  0.000000e+000 -1.000000e+000  -0.000000e+000
    outer loop
      vertex  6.151316e-001 -2.055921e-003  3.906250e-001
      vertex  7.236842e-002 -2.055921e-003  0.000000e+000
      vertex  6.151316e-001 -2.055921e-003  0.000000e+000
    endloop
  endfacet
  facet normal -9.801716e-002 -9.951847e-001  -0.000000e+000
    outer loop
      vertex  7.236842e-002 -2.055921e-003  0.000000e+000
      vertex  7.236842e-002 -2.055921e-003  3.906250e-001
      vertex  5.825004e-002 -6.653821e-004  0.000000e+000
    endloop
  endfacet
  facet normal -9.801716e-002 -9.951847e-001  0.000000e+000
    outer loop
      vertex  5.825004e-002 -6.653821e-004  0.000000e+000
      vertex  7.236842e-002 -2.055921e-003  3.906250e-001
      vertex  5.825004e-002 -6.653821e-004  3.906250e-001
    endloop
  endfacet
  facet normal -2.902846e-001 -9.569403e-001  -0.000000e+000
    outer loop
      vertex  5.825004e-002 -6.653821e-004  0.000000e+000
      vertex  5.825004e-002 -6.653821e-004  3.906250e-001
      vertex  4.467423e-002  3.452797e-003  0.000000e+000
    endloop
  endfacet
  facet normal -2.902846e-001 -9.569403e-001  0.000000e+000
    outer loop
      vertex  4.467423e-002  3.452797e-003  0.000000e+000
      vertex  5.825004e-002 -6.653821e-004  3.906250e-001
      vertex  4.467423e-002  3.452797e-003  3.906250e-001
    endloop
  endfacet
  facet normal -4.713967e-001 -8.819212e-001  -0.000000e+000
    outer loop
      vertex  4.467423e-002  3.452797e-003  0.000000e+000
      vertex  4.467423e-002  3.452797e-003  3.906250e-001
      vertex  3.216268e-002  1.014036e-002  0.000000e+000
    endloop
  endfacet
  facet normal -4.713967e-001 -8.819212e-001  0.000000e+000
    outer loop
      vertex  3.216268e-002  1.014036e-002  0.000000e+000
      vertex  4.467423e-002  3.452797e-003  3.906250e-001
      vertex  3.216268e-002  1.014036e-002  3.906250e-001
    endloop
  endfacet
  facet normal -6.343933e-001 -7.730104e-001  -0.000000e+000
    outer loop
      vertex  3.216268e-002  1.014036e-002  0.000000e+000
      vertex  3.216268e-002  1.014036e-002  3.906250e-001
      vertex  2.119622e-002  1.914030e-002  0.000000e+000
    endloop
  endfacet
  facet normal -6.343933e-001 -7.730104e-001  0.000000e+000
    outer loop
      vertex  2.119622e-002  1.914030e-002  0.000000e+000
      vertex  3.216268e-002  1.014036e-002  3.906250e-001
      vertex  2.119622e-002  1.914030e-002  3.906250e-001
    endloop
  endfacet
  facet normal -7.730104e-001 -6.343933e-001  -0.000000e+000
    outer loop
      vertex  2.119622e-002  1.914030e-002  0.000000e+000
      vertex  2.119622e-002  1.914030e-002  3.906250e-001
      vertex  1.219628e-002  3.010676e-002  0.000000e+000
    endloop
  endfacet
  facet normal -7.730104e-001 -6.343933e-001  0.000000e+000
    outer loop
      vertex  1.219628e-002  3.010676e-002  0.000000e+000
      vertex  2.119622e-002  1.914030e-002  3.906250e-001
      vertex  1.219628e-002  3.010676e-002  3.906250e-001
    endloop
  endfacet
  facet normal -8.819213e-001 -4.713967e-001  -0.000000e+000
    outer loop
      vertex  1.219628e-002  3.010676e-002  0.000000e+000
      vertex  1.219628e-002  3.010676e-002  3.906250e-001
      vertex  5.508718e-003  4.261830e-002  0.000000e+000
    endloop
  endfacet
  facet normal -8.819213e-001 -4.713967e-001  0.000000e+000
    outer loop
      vertex  5.508718e-003  4.261830e-002  0.000000e+000
      vertex  1.219628e-002  3.010676e-002  3.906250e-001
      vertex  5.508718e-003  4.261830e-002  3.906250e-001
    endloop
  endfacet
  facet normal -9.569403e-001 -2.902846e-001  -0.000000e+000
    outer loop
      vertex  5.508718e-003  4.261830e-002  0.000000e+000
      vertex  5.508718e-003  4.261830e-002  3.906250e-001
      vertex  1.390539e-003  5.619412e-002  0.000000e+000
    endloop
  endfacet
  facet normal -9.569403e-001 -2.902846e-001  0.000000e+000
    outer loop
      vertex  1.390539e-003  5.619412e-002  0.000000e+000
      vertex  5.508718e-003  4.261830e-002  3.906250e-001
      vertex  1.390539e-003  5.619412e-002  3.906250e-001
    endloop
  endfacet
  facet normal -9.951847e-001 -9.801715e-002  -0.000000e+000
    outer loop
      vertex  1.390539e-003  5.619412e-002  0.000000e+000
      vertex  1.390539e-003  5.619412e-002  3.906250e-001
      vertex  0.000000e+000  7.031250e-002  0.000000e+000
    endloop
  endfacet
  facet normal -9.951847e-001 -9.801715e-002  0.000000e+000
    outer loop
      vertex  0.000000e+000  7.031250e-002  0.000000e+000
      vertex  1.390539e-003  5.619412e-002  3.906250e-001
      vertex  0.000000e+000  7.031250e-002  3.906250e-001
    endloop
  endfacet
endsolid CATIA STL
