solid CATIA STL
  facet normal -6.123234e-017  0.000000e+000 -1.000000e+000
    outer loop
      vertex  4.375000e-001 -7.421875e-001 -5.357830e-017
      vertex -4.375000e-001 -7.421875e-001  8.497695e-034
      vertex  4.375000e-001  7.500000e-001 -5.357830e-017
    endloop
  endfacet
  facet normal -6.123234e-017  0.000000e+000 -1.000000e+000
    outer loop
      vertex  4.375000e-001  7.500000e-001 -5.357830e-017
      vertex -4.375000e-001 -7.421875e-001  8.497695e-034
      vertex -4.375000e-001  7.421875e-001  8.497695e-034
    endloop
  endfacet
  facet normal -6.123234e-017 -1.907732e-024 -1.000000e+000
    outer loop
      vertex  4.375000e-001  7.500000e-001 -5.357830e-017
      vertex -4.375000e-001  7.421875e-001  8.497695e-034
      vertex -4.296875e-001  7.500000e-001 -4.783777e-019
    endloop
  endfacet
  facet normal -1.000000e+000  0.000000e+000  -0.000000e+000
    outer loop
      vertex -4.375000e-001 -7.421875e-001  8.497695e-034
      vertex -4.375000e-001  7.421875e-001  9.210526e-003
      vertex -4.375000e-001  7.421875e-001  8.497695e-034
    endloop
  endfacet
  facet normal -1.000000e+000  0.000000e+000  0.000000e+000
    outer loop
      vertex -4.375000e-001 -7.421875e-001  8.497695e-034
      vertex -4.375000e-001 -7.500000e-001  7.812500e-003
      vertex -4.375000e-001  7.421875e-001  9.210526e-003
    endloop
  endfacet
  facet normal -1.000000e+000  0.000000e+000  0.000000e+000
    outer loop
      vertex -4.375000e-001  7.421875e-001  9.210526e-003
      vertex -4.375000e-001 -7.500000e-001  7.812500e-003
      vertex -4.375000e-001 -7.500000e-001  9.210526e-003
    endloop
  endfacet
  facet normal  0.000000e+000  1.000000e+000  0.000000e+000
    outer loop
      vertex -4.296875e-001  7.500000e-001 -4.783777e-019
      vertex -4.296875e-001  7.500000e-001  9.210526e-003
      vertex  4.375000e-001  7.500000e-001 -5.357830e-017
    endloop
  endfacet
  facet normal  0.000000e+000  1.000000e+000  -0.000000e+000
    outer loop
      vertex  4.375000e-001  7.500000e-001 -5.357830e-017
      vertex -4.296875e-001  7.500000e-001  9.210526e-003
      vertex  4.375000e-001  7.500000e-001  9.210526e-003
    endloop
  endfacet
  facet normal  0.000000e+000  0.000000e+000  1.000000e+000
    outer loop
      vertex  4.375000e-001 -7.500000e-001  9.210526e-003
      vertex  4.296875e-001  7.421875e-001  9.210526e-003
      vertex  4.296875e-001 -7.421875e-001  9.210526e-003
    endloop
  endfacet
  facet normal  0.000000e+000  0.000000e+000  1.000000e+000
    outer loop
      vertex  4.375000e-001 -7.500000e-001  9.210526e-003
      vertex  4.375000e-001  7.500000e-001  9.210526e-003
      vertex  4.296875e-001  7.421875e-001  9.210526e-003
    endloop
  endfacet
  facet normal  0.000000e+000  0.000000e+000  1.000000e+000
    outer loop
      vertex -4.296875e-001  7.500000e-001  9.210526e-003
      vertex -4.375000e-001  7.421875e-001  9.210526e-003
      vertex -4.296875e-001  7.421875e-001  9.210526e-003
    endloop
  endfacet
  facet normal  0.000000e+000  0.000000e+000  9.999999e-001
    outer loop
      vertex -4.296875e-001  7.500000e-001  9.210526e-003
      vertex -4.296875e-001  7.421875e-001  9.210526e-003
      vertex  4.296875e-001  7.421875e-001  9.210526e-003
    endloop
  endfacet
  facet normal  0.000000e+000  -0.000000e+000  1.000000e+000
    outer loop
      vertex -4.296875e-001  7.500000e-001  9.210526e-003
      vertex  4.296875e-001  7.421875e-001  9.210526e-003
      vertex  4.375000e-001  7.500000e-001  9.210526e-003
    endloop
  endfacet
  facet normal  0.000000e+000  0.000000e+000  1.000000e+000
    outer loop
      vertex -4.375000e-001 -7.500000e-001  9.210526e-003
      vertex  4.375000e-001 -7.500000e-001  9.210526e-003
      vertex  4.296875e-001 -7.421875e-001  9.210526e-003
    endloop
  endfacet
  facet normal  0.000000e+000  0.000000e+000  9.999999e-001
    outer loop
      vertex -4.375000e-001 -7.500000e-001  9.210526e-003
      vertex  4.296875e-001 -7.421875e-001  9.210526e-003
      vertex -4.296875e-001 -7.421875e-001  9.210526e-003
    endloop
  endfacet
  facet normal  0.000000e+000  -0.000000e+000  1.000000e+000
    outer loop
      vertex -4.375000e-001 -7.500000e-001  9.210526e-003
      vertex -4.296875e-001 -7.421875e-001  9.210526e-003
      vertex -4.296875e-001  7.421875e-001  9.210526e-003
    endloop
  endfacet
  facet normal  0.000000e+000  0.000000e+000  1.000000e+000
    outer loop
      vertex -4.375000e-001 -7.500000e-001  9.210526e-003
      vertex -4.296875e-001  7.421875e-001  9.210526e-003
      vertex -4.375000e-001  7.421875e-001  9.210526e-003
    endloop
  endfacet
  facet normal -7.071068e-001  7.071068e-001  0.000000e+000
    outer loop
      vertex -4.375000e-001  7.421875e-001  9.210526e-003
      vertex -4.296875e-001  7.500000e-001  9.210526e-003
      vertex -4.375000e-001  7.421875e-001  8.497695e-034
    endloop
  endfacet
  facet normal -7.071068e-001  7.071068e-001  0.000000e+000
    outer loop
      vertex -4.375000e-001  7.421875e-001  8.497695e-034
      vertex -4.296875e-001  7.500000e-001  9.210526e-003
      vertex -4.296875e-001  7.500000e-001 -4.783777e-019
    endloop
  endfacet
  facet normal  1.000000e+000  0.000000e+000  0.000000e+000
    outer loop
      vertex  4.375000e-001  7.500000e-001 -5.357830e-017
      vertex  4.375000e-001 -7.500000e-001  9.210526e-003
      vertex  4.375000e-001 -7.421875e-001 -5.357830e-017
    endloop
  endfacet
  facet normal  1.000000e+000  0.000000e+000  0.000000e+000
    outer loop
      vertex  4.375000e-001  7.500000e-001 -5.357830e-017
      vertex  4.375000e-001  7.500000e-001  9.210526e-003
      vertex  4.375000e-001 -7.500000e-001  9.210526e-003
    endloop
  endfacet
  facet normal  9.999999e-001  0.000000e+000  0.000000e+000
    outer loop
      vertex  4.375000e-001 -7.421875e-001 -5.357830e-017
      vertex  4.375000e-001 -7.500000e-001  9.210526e-003
      vertex  4.375000e-001 -7.500000e-001  7.812500e-003
    endloop
  endfacet
  facet normal  0.000000e+000 -1.000000e+000  0.000000e+000
    outer loop
      vertex -4.375000e-001 -7.500000e-001  7.812500e-003
      vertex  4.375000e-001 -7.500000e-001  7.812500e-003
      vertex -4.375000e-001 -7.500000e-001  9.210526e-003
    endloop
  endfacet
  facet normal  0.000000e+000 -1.000000e+000  0.000000e+000
    outer loop
      vertex -4.375000e-001 -7.500000e-001  9.210526e-003
      vertex  4.375000e-001 -7.500000e-001  7.812500e-003
      vertex  4.375000e-001 -7.500000e-001  9.210526e-003
    endloop
  endfacet
  facet normal  0.000000e+000 -7.071068e-001 -7.071068e-001
    outer loop
      vertex -4.375000e-001 -7.500000e-001  7.812500e-003
      vertex -4.375000e-001 -7.421875e-001  8.497695e-034
      vertex  4.375000e-001 -7.500000e-001  7.812500e-003
    endloop
  endfacet
  facet normal  0.000000e+000 -7.071068e-001 -7.071068e-001
    outer loop
      vertex  4.375000e-001 -7.500000e-001  7.812500e-003
      vertex -4.375000e-001 -7.421875e-001  8.497695e-034
      vertex  4.375000e-001 -7.421875e-001 -5.357830e-017
    endloop
  endfacet
  facet normal -9.999999e-001  0.000000e+000  0.000000e+000
    outer loop
      vertex  4.296875e-001  7.421875e-001  7.812500e-003
      vertex  4.296875e-001 -7.421875e-001  7.812500e-003
      vertex  4.296875e-001  7.421875e-001  9.210526e-003
    endloop
  endfacet
  facet normal -9.999999e-001  -0.000000e+000  0.000000e+000
    outer loop
      vertex  4.296875e-001  7.421875e-001  9.210526e-003
      vertex  4.296875e-001 -7.421875e-001  7.812500e-003
      vertex  4.296875e-001 -7.421875e-001  9.210526e-003
    endloop
  endfacet
  facet normal  9.999999e-001  -0.000000e+000  0.000000e+000
    outer loop
      vertex -4.296875e-001  7.421875e-001  9.210526e-003
      vertex -4.296875e-001 -7.421875e-001  9.210526e-003
      vertex -4.296875e-001  7.421875e-001  7.812500e-003
    endloop
  endfacet
  facet normal  9.999999e-001  0.000000e+000  0.000000e+000
    outer loop
      vertex -4.296875e-001  7.421875e-001  7.812500e-003
      vertex -4.296875e-001 -7.421875e-001  9.210526e-003
      vertex -4.296875e-001 -7.421875e-001  7.812500e-003
    endloop
  endfacet
  facet normal  0.000000e+000 -9.999999e-001  0.000000e+000
    outer loop
      vertex -4.296875e-001  7.421875e-001  9.210526e-003
      vertex -4.296875e-001  7.421875e-001  7.812500e-003
      vertex  4.296875e-001  7.421875e-001  9.210526e-003
    endloop
  endfacet
  facet normal  0.000000e+000 -9.999999e-001  -0.000000e+000
    outer loop
      vertex  4.296875e-001  7.421875e-001  9.210526e-003
      vertex -4.296875e-001  7.421875e-001  7.812500e-003
      vertex  4.296875e-001  7.421875e-001  7.812500e-003
    endloop
  endfacet
  facet normal  0.000000e+000  9.999999e-001  0.000000e+000
    outer loop
      vertex -4.296875e-001 -7.421875e-001  9.210526e-003
      vertex  4.296875e-001 -7.421875e-001  9.210526e-003
      vertex -4.296875e-001 -7.421875e-001  7.812500e-003
    endloop
  endfacet
  facet normal  0.000000e+000  9.999999e-001  0.000000e+000
    outer loop
      vertex -4.296875e-001 -7.421875e-001  7.812500e-003
      vertex  4.296875e-001 -7.421875e-001  9.210526e-003
      vertex  4.296875e-001 -7.421875e-001  7.812500e-003
    endloop
  endfacet
  facet normal  0.000000e+000  0.000000e+000  1.000000e+000
    outer loop
      vertex -4.296875e-001  7.421875e-001  7.812500e-003
      vertex -4.296875e-001 -7.421875e-001  7.812500e-003
      vertex  4.296875e-001  7.421875e-001  7.812500e-003
    endloop
  endfacet
  facet normal  0.000000e+000  0.000000e+000  1.000000e+000
    outer loop
      vertex  4.296875e-001  7.421875e-001  7.812500e-003
      vertex -4.296875e-001 -7.421875e-001  7.812500e-003
      vertex  4.296875e-001 -7.421875e-001  7.812500e-003
    endloop
  endfacet
endsolid CATIA STL
