solid CATIA STL
  facet normal  1.000000e+000  0.000000e+000  0.000000e+000
    outer loop
      vertex  4.218750e-001  3.160628e-001  5.453335e-001
      vertex  4.218750e-001  2.158425e-001  6.026022e-001
      vertex  4.218750e-001  5.098684e-003 -5.921053e-003
    endloop
  endfacet
  facet normal  1.000000e+000  0.000000e+000  -0.000000e+000
    outer loop
      vertex  4.218750e-001  5.098684e-003 -5.921053e-003
      vertex  4.218750e-001  2.158425e-001  6.026022e-001
      vertex  4.218750e-001 -1.093750e-001  3.700658e-002
    endloop
  endfacet
  facet normal  1.000000e+000  0.000000e+000  0.000000e+000
    outer loop
      vertex  4.218750e-001  5.098684e-003 -5.921053e-003
      vertex  4.218750e-001 -1.093750e-001  3.700658e-002
      vertex  4.218750e-001  5.098684e-003 -7.500000e-001
    endloop
  endfacet
  facet normal  1.000000e+000  0.000000e+000  0.000000e+000
    outer loop
      vertex  4.218750e-001  5.098684e-003 -7.500000e-001
      vertex  4.218750e-001 -1.093750e-001  3.700658e-002
      vertex  4.218750e-001 -1.093750e-001 -7.500000e-001
    endloop
  endfacet
  facet normal  2.501884e-005 -8.669036e-001  4.984759e-001
    outer loop
      vertex  4.218750e-001  2.158425e-001  6.026022e-001
      vertex  4.215071e-001  2.170235e-001  6.046562e-001
      vertex  4.204032e-001  2.181176e-001  6.065590e-001
    endloop
  endfacet
  facet normal  7.880579e-006 -8.669063e-001  4.984711e-001
    outer loop
      vertex  4.218750e-001 -1.093750e-001  3.700658e-002
      vertex  4.218750e-001  2.158425e-001  6.026022e-001
      vertex  4.204032e-001  2.181176e-001  6.065590e-001
    endloop
  endfacet
  facet normal -4.511458e-006 -8.669063e-001  4.984711e-001
    outer loop
      vertex  4.218750e-001 -1.093750e-001  3.700658e-002
      vertex  4.204032e-001  2.181176e-001  6.065590e-001
      vertex  4.186721e-001  2.189867e-001  6.080704e-001
    endloop
  endfacet
  facet normal  4.731198e-006 -8.669063e-001  4.984711e-001
    outer loop
      vertex  4.218750e-001 -1.093750e-001  3.700658e-002
      vertex  4.186721e-001  2.189867e-001  6.080704e-001
      vertex  4.164852e-001  2.195449e-001  6.090412e-001
    endloop
  endfacet
  facet normal -3.738581e-006 -8.669063e-001  4.984711e-001
    outer loop
      vertex  4.218750e-001 -1.093750e-001  3.700658e-002
      vertex  4.164852e-001  2.195449e-001  6.090412e-001
      vertex  4.140625e-001  2.197368e-001  6.093750e-001
    endloop
  endfacet
  facet normal  0.000000e+000 -8.669063e-001  4.984711e-001
    outer loop
      vertex  4.218750e-001 -1.093750e-001  3.700658e-002
      vertex  4.140625e-001  2.197368e-001  6.093750e-001
      vertex -4.218750e-001  2.197368e-001  6.093750e-001
    endloop
  endfacet
  facet normal  0.000000e+000 -8.669063e-001  4.984711e-001
    outer loop
      vertex  4.218750e-001 -1.093750e-001  3.700658e-002
      vertex -4.218750e-001  2.197368e-001  6.093750e-001
      vertex -4.218750e-001 -1.093750e-001  3.700658e-002
    endloop
  endfacet
  facet normal  0.000000e+000  4.961390e-001  8.682432e-001
    outer loop
      vertex -4.218750e-001  3.199013e-001  5.521381e-001
      vertex -4.218750e-001  2.197368e-001  6.093750e-001
      vertex  4.140625e-001  3.199013e-001  5.521381e-001
    endloop
  endfacet
  facet normal  0.000000e+000  4.961390e-001  8.682432e-001
    outer loop
      vertex  4.140625e-001  3.199013e-001  5.521381e-001
      vertex -4.218750e-001  2.197368e-001  6.093750e-001
      vertex  4.140625e-001  2.197368e-001  6.093750e-001
    endloop
  endfacet
  facet normal  2.171572e-005  8.709840e-001 -4.913114e-001
    outer loop
      vertex  4.218750e-001  3.160628e-001  5.453335e-001
      vertex  4.186721e-001  3.191620e-001  5.508274e-001
      vertex  4.215071e-001  3.172269e-001  5.473971e-001
    endloop
  endfacet
  facet normal  2.305591e-005  8.709845e-001 -4.913106e-001
    outer loop
      vertex  4.186721e-001  3.191620e-001  5.508274e-001
      vertex  4.204032e-001  3.183053e-001  5.493089e-001
      vertex  4.215071e-001  3.172269e-001  5.473971e-001
    endloop
  endfacet
  facet normal  0.000000e+000  8.709784e-001 -4.913212e-001
    outer loop
      vertex  4.218750e-001  5.098684e-003 -5.921053e-003
      vertex -4.218750e-001  5.098684e-003 -5.921053e-003
      vertex -4.218750e-001  3.199013e-001  5.521381e-001
    endloop
  endfacet
  facet normal  0.000000e+000  8.709784e-001 -4.913212e-001
    outer loop
      vertex  4.218750e-001  5.098684e-003 -5.921053e-003
      vertex -4.218750e-001  3.199013e-001  5.521381e-001
      vertex  4.140625e-001  3.199013e-001  5.521381e-001
    endloop
  endfacet
  facet normal -5.783106e-006  8.709785e-001 -4.913213e-001
    outer loop
      vertex  4.218750e-001  5.098684e-003 -5.921053e-003
      vertex  4.140625e-001  3.199013e-001  5.521381e-001
      vertex  4.164852e-001  3.197121e-001  5.518027e-001
    endloop
  endfacet
  facet normal  3.648062e-006  8.709784e-001 -4.913212e-001
    outer loop
      vertex  4.218750e-001  5.098684e-003 -5.921053e-003
      vertex  4.164852e-001  3.197121e-001  5.518027e-001
      vertex  4.186721e-001  3.191620e-001  5.508274e-001
    endloop
  endfacet
  facet normal -4.715231e-007  8.709785e-001 -4.913212e-001
    outer loop
      vertex  4.218750e-001  5.098684e-003 -5.921053e-003
      vertex  4.186721e-001  3.191620e-001  5.508274e-001
      vertex  4.218750e-001  3.160628e-001  5.453335e-001
    endloop
  endfacet
  facet normal  1.569998e-001  4.899862e-001  8.574757e-001
    outer loop
      vertex  4.140625e-001  3.199013e-001  5.521381e-001
      vertex  4.140625e-001  2.197368e-001  6.093750e-001
      vertex  4.164852e-001  3.197121e-001  5.518027e-001
    endloop
  endfacet
  facet normal  1.569880e-001  4.899874e-001  8.574772e-001
    outer loop
      vertex  4.164852e-001  3.197121e-001  5.518027e-001
      vertex  4.140625e-001  2.197368e-001  6.093750e-001
      vertex  4.164852e-001  2.195449e-001  6.090412e-001
    endloop
  endfacet
  facet normal  4.557338e-001  4.416215e-001  7.728370e-001
    outer loop
      vertex  4.164852e-001  3.197121e-001  5.518027e-001
      vertex  4.164852e-001  2.195449e-001  6.090412e-001
      vertex  4.186721e-001  3.191620e-001  5.508274e-001
    endloop
  endfacet
  facet normal  4.557457e-001  4.416182e-001  7.728320e-001
    outer loop
      vertex  4.186721e-001  3.191620e-001  5.508274e-001
      vertex  4.164852e-001  2.195449e-001  6.090412e-001
      vertex  4.186721e-001  2.189867e-001  6.080704e-001
    endloop
  endfacet
  facet normal  7.096343e-001  3.495647e-001  6.117382e-001
    outer loop
      vertex  4.186721e-001  3.191620e-001  5.508274e-001
      vertex  4.186721e-001  2.189867e-001  6.080704e-001
      vertex  4.204032e-001  3.183053e-001  5.493089e-001
    endloop
  endfacet
  facet normal  7.096388e-001  3.495623e-001  6.117344e-001
    outer loop
      vertex  4.204032e-001  3.183053e-001  5.493089e-001
      vertex  4.186721e-001  2.189867e-001  6.080704e-001
      vertex  4.204032e-001  2.181176e-001  6.065590e-001
    endloop
  endfacet
  facet normal  8.933702e-001  2.229257e-001  3.901202e-001
    outer loop
      vertex  4.204032e-001  3.183053e-001  5.493089e-001
      vertex  4.204032e-001  2.181176e-001  6.065590e-001
      vertex  4.215071e-001  3.172269e-001  5.473971e-001
    endloop
  endfacet
  facet normal  8.933714e-001  2.229245e-001  3.901181e-001
    outer loop
      vertex  4.215071e-001  3.172269e-001  5.473971e-001
      vertex  4.204032e-001  2.181176e-001  6.065590e-001
      vertex  4.215071e-001  2.170235e-001  6.046562e-001
    endloop
  endfacet
  facet normal  9.881573e-001  7.612970e-002  1.332271e-001
    outer loop
      vertex  4.215071e-001  3.172269e-001  5.473971e-001
      vertex  4.215071e-001  2.170235e-001  6.046562e-001
      vertex  4.218750e-001  3.160628e-001  5.453335e-001
    endloop
  endfacet
  facet normal  9.881570e-001  7.613091e-002  1.332291e-001
    outer loop
      vertex  4.218750e-001  3.160628e-001  5.453335e-001
      vertex  4.215071e-001  2.170235e-001  6.046562e-001
      vertex  4.218750e-001  2.158425e-001  6.026022e-001
    endloop
  endfacet
  facet normal -1.000000e+000  0.000000e+000  0.000000e+000
    outer loop
      vertex -4.218750e-001  3.199013e-001  5.521381e-001
      vertex -4.218750e-001  5.098684e-003 -5.921053e-003
      vertex -4.218750e-001  2.197368e-001  6.093750e-001
    endloop
  endfacet
  facet normal -1.000000e+000  0.000000e+000  0.000000e+000
    outer loop
      vertex -4.218750e-001  2.197368e-001  6.093750e-001
      vertex -4.218750e-001  5.098684e-003 -5.921053e-003
      vertex -4.218750e-001 -1.093750e-001  3.700658e-002
    endloop
  endfacet
  facet normal -1.000000e+000  0.000000e+000  0.000000e+000
    outer loop
      vertex -4.218750e-001  5.098684e-003 -5.921053e-003
      vertex -4.218750e-001  5.098684e-003 -7.500000e-001
      vertex -4.218750e-001 -1.093750e-001  3.700658e-002
    endloop
  endfacet
  facet normal -1.000000e+000  0.000000e+000  0.000000e+000
    outer loop
      vertex -4.218750e-001 -1.093750e-001  3.700658e-002
      vertex -4.218750e-001  5.098684e-003 -7.500000e-001
      vertex -4.218750e-001 -1.093750e-001 -7.500000e-001
    endloop
  endfacet
  facet normal  0.000000e+000 -9.999999e-001  0.000000e+000
    outer loop
      vertex -4.218750e-001 -1.093750e-001  3.700658e-002
      vertex -4.218750e-001 -1.093750e-001 -7.500000e-001
      vertex  4.218750e-001 -1.093750e-001  3.700658e-002
    endloop
  endfacet
  facet normal  0.000000e+000 -9.999999e-001  -0.000000e+000
    outer loop
      vertex  4.218750e-001 -1.093750e-001  3.700658e-002
      vertex -4.218750e-001 -1.093750e-001 -7.500000e-001
      vertex  4.218750e-001 -1.093750e-001 -7.500000e-001
    endloop
  endfacet
  facet normal  0.000000e+000  1.000000e+000  0.000000e+000
    outer loop
      vertex -4.218750e-001  5.098684e-003 -7.500000e-001
      vertex -4.218750e-001  5.098684e-003 -5.921053e-003
      vertex  4.218750e-001  5.098684e-003 -7.500000e-001
    endloop
  endfacet
  facet normal  0.000000e+000  1.000000e+000  -0.000000e+000
    outer loop
      vertex  4.218750e-001  5.098684e-003 -7.500000e-001
      vertex -4.218750e-001  5.098684e-003 -5.921053e-003
      vertex  4.218750e-001  5.098684e-003 -5.921053e-003
    endloop
  endfacet
  facet normal  0.000000e+000  0.000000e+000 -9.999999e-001
    outer loop
      vertex -4.218750e-001 -1.093750e-001 -7.500000e-001
      vertex -4.218750e-001  5.098684e-003 -7.500000e-001
      vertex  4.218750e-001 -1.093750e-001 -7.500000e-001
    endloop
  endfacet
  facet normal  0.000000e+000  0.000000e+000 -9.999999e-001
    outer loop
      vertex  4.218750e-001 -1.093750e-001 -7.500000e-001
      vertex -4.218750e-001  5.098684e-003 -7.500000e-001
      vertex  4.218750e-001  5.098684e-003 -7.500000e-001
    endloop
  endfacet
endsolid CATIA STL
