solid CATIA STL
  facet normal  0.000000e+000 -1.000000e+000  0.000000e+000
    outer loop
      vertex -1.417352e-002 -7.812500e-002  1.026760e-001
      vertex  2.667352e-002 -7.812500e-002  1.026760e-001
      vertex  6.250000e-003 -7.812500e-002  1.046875e-001
    endloop
  endfacet
  facet normal  0.000000e+000 -9.999999e-001  -0.000000e+000
    outer loop
      vertex  2.667352e-002 -7.812500e-002  1.026760e-001
      vertex -1.417352e-002 -7.812500e-002  1.026760e-001
      vertex -3.381217e-002 -7.812500e-002  9.671864e-002
    endloop
  endfacet
  facet normal  0.000000e+000 -1.000000e+000  0.000000e+000
    outer loop
      vertex  2.667352e-002 -7.812500e-002  1.026760e-001
      vertex -3.381217e-002 -7.812500e-002  9.671864e-002
      vertex  4.631217e-002 -7.812500e-002  9.671864e-002
    endloop
  endfacet
  facet normal  0.000000e+000 -1.000000e+000  -0.000000e+000
    outer loop
      vertex  4.631217e-002 -7.812500e-002  9.671864e-002
      vertex -3.381217e-002 -7.812500e-002  9.671864e-002
      vertex -5.191126e-002 -7.812500e-002  8.704448e-002
    endloop
  endfacet
  facet normal  0.000000e+000 -1.000000e+000  0.000000e+000
    outer loop
      vertex  4.631217e-002 -7.812500e-002  9.671864e-002
      vertex -5.191126e-002 -7.812500e-002  8.704448e-002
      vertex  6.441126e-002 -7.812500e-002  8.704448e-002
    endloop
  endfacet
  facet normal  0.000000e+000 -1.000000e+000  0.000000e+000
    outer loop
      vertex  6.441126e-002 -7.812500e-002 -8.704448e-002
      vertex -3.381217e-002 -7.812500e-002 -9.671864e-002
      vertex  4.631217e-002 -7.812500e-002 -9.671864e-002
    endloop
  endfacet
  facet normal  0.000000e+000 -1.000000e+000  0.000000e+000
    outer loop
      vertex  4.631217e-002 -7.812500e-002 -9.671864e-002
      vertex -3.381217e-002 -7.812500e-002 -9.671864e-002
      vertex -1.417352e-002 -7.812500e-002 -1.026760e-001
    endloop
  endfacet
  facet normal  0.000000e+000 -9.999999e-001  0.000000e+000
    outer loop
      vertex  4.631217e-002 -7.812500e-002 -9.671864e-002
      vertex -1.417352e-002 -7.812500e-002 -1.026760e-001
      vertex  2.667352e-002 -7.812500e-002 -1.026760e-001
    endloop
  endfacet
  facet normal  0.000000e+000 -1.000000e+000  0.000000e+000
    outer loop
      vertex  2.667352e-002 -7.812500e-002 -1.026760e-001
      vertex -1.417352e-002 -7.812500e-002 -1.026760e-001
      vertex  6.250000e-003 -7.812500e-002 -1.046875e-001
    endloop
  endfacet
  facet normal  0.000000e+000 -1.000000e+000  0.000000e+000
    outer loop
      vertex  6.441126e-002 -7.812500e-002  8.704448e-002
      vertex -5.191126e-002 -7.812500e-002  8.704448e-002
      vertex  8.027524e-002 -7.812500e-002  7.402524e-002
    endloop
  endfacet
  facet normal  0.000000e+000 -1.000000e+000  0.000000e+000
    outer loop
      vertex  8.027524e-002 -7.812500e-002  7.402524e-002
      vertex -5.191126e-002 -7.812500e-002  8.704448e-002
      vertex -6.777524e-002 -7.812500e-002  7.402524e-002
    endloop
  endfacet
  facet normal  0.000000e+000 -9.999999e-001  0.000000e+000
    outer loop
      vertex  8.027524e-002 -7.812500e-002  7.402524e-002
      vertex -6.777524e-002 -7.812500e-002  7.402524e-002
      vertex  9.329447e-002 -7.812500e-002  5.816126e-002
    endloop
  endfacet
  facet normal  0.000000e+000 -1.000000e+000  0.000000e+000
    outer loop
      vertex  9.329447e-002 -7.812500e-002  5.816126e-002
      vertex -6.777524e-002 -7.812500e-002  7.402524e-002
      vertex -8.079448e-002 -7.812500e-002  5.816126e-002
    endloop
  endfacet
  facet normal  0.000000e+000 -1.000000e+000  0.000000e+000
    outer loop
      vertex  9.329447e-002 -7.812500e-002  5.816126e-002
      vertex -8.079448e-002 -7.812500e-002  5.816126e-002
      vertex  1.029686e-001 -7.812500e-002  4.006217e-002
    endloop
  endfacet
  facet normal  0.000000e+000 -1.000000e+000  0.000000e+000
    outer loop
      vertex  1.029686e-001 -7.812500e-002  4.006217e-002
      vertex -8.079448e-002 -7.812500e-002  5.816126e-002
      vertex -9.046864e-002 -7.812500e-002  4.006217e-002
    endloop
  endfacet
  facet normal  0.000000e+000 -9.999999e-001  0.000000e+000
    outer loop
      vertex  1.029686e-001 -7.812500e-002  4.006217e-002
      vertex -9.046864e-002 -7.812500e-002  4.006217e-002
      vertex  1.089260e-001 -7.812500e-002  2.042352e-002
    endloop
  endfacet
  facet normal  0.000000e+000 -1.000000e+000  0.000000e+000
    outer loop
      vertex  1.089260e-001 -7.812500e-002  2.042352e-002
      vertex -9.046864e-002 -7.812500e-002  4.006217e-002
      vertex -9.642596e-002 -7.812500e-002  2.042352e-002
    endloop
  endfacet
  facet normal  0.000000e+000 -1.000000e+000  0.000000e+000
    outer loop
      vertex  1.089260e-001 -7.812500e-002  2.042352e-002
      vertex -9.642596e-002 -7.812500e-002  2.042352e-002
      vertex  1.109375e-001 -7.812500e-002  0.000000e+000
    endloop
  endfacet
  facet normal  0.000000e+000 -1.000000e+000  0.000000e+000
    outer loop
      vertex  1.109375e-001 -7.812500e-002  0.000000e+000
      vertex -9.642596e-002 -7.812500e-002  2.042352e-002
      vertex -9.843750e-002 -7.812500e-002  2.220446e-016
    endloop
  endfacet
  facet normal  0.000000e+000 -1.000000e+000  0.000000e+000
    outer loop
      vertex  1.109375e-001 -7.812500e-002  0.000000e+000
      vertex -9.843750e-002 -7.812500e-002  2.220446e-016
      vertex  1.089260e-001 -7.812500e-002 -2.042352e-002
    endloop
  endfacet
  facet normal  0.000000e+000 -1.000000e+000  0.000000e+000
    outer loop
      vertex  1.089260e-001 -7.812500e-002 -2.042352e-002
      vertex -9.843750e-002 -7.812500e-002  2.220446e-016
      vertex -9.642596e-002 -7.812500e-002 -2.042352e-002
    endloop
  endfacet
  facet normal  0.000000e+000 -1.000000e+000  0.000000e+000
    outer loop
      vertex  1.089260e-001 -7.812500e-002 -2.042352e-002
      vertex -9.642596e-002 -7.812500e-002 -2.042352e-002
      vertex  1.029686e-001 -7.812500e-002 -4.006217e-002
    endloop
  endfacet
  facet normal  0.000000e+000 -9.999999e-001  0.000000e+000
    outer loop
      vertex  1.029686e-001 -7.812500e-002 -4.006217e-002
      vertex -9.642596e-002 -7.812500e-002 -2.042352e-002
      vertex -9.046864e-002 -7.812500e-002 -4.006217e-002
    endloop
  endfacet
  facet normal  0.000000e+000 -1.000000e+000  0.000000e+000
    outer loop
      vertex  1.029686e-001 -7.812500e-002 -4.006217e-002
      vertex -9.046864e-002 -7.812500e-002 -4.006217e-002
      vertex  9.329447e-002 -7.812500e-002 -5.816126e-002
    endloop
  endfacet
  facet normal  0.000000e+000 -1.000000e+000  0.000000e+000
    outer loop
      vertex  9.329447e-002 -7.812500e-002 -5.816126e-002
      vertex -9.046864e-002 -7.812500e-002 -4.006217e-002
      vertex -8.079448e-002 -7.812500e-002 -5.816126e-002
    endloop
  endfacet
  facet normal  0.000000e+000 -1.000000e+000  0.000000e+000
    outer loop
      vertex  9.329447e-002 -7.812500e-002 -5.816126e-002
      vertex -8.079448e-002 -7.812500e-002 -5.816126e-002
      vertex  8.027524e-002 -7.812500e-002 -7.402524e-002
    endloop
  endfacet
  facet normal  0.000000e+000 -9.999999e-001  0.000000e+000
    outer loop
      vertex  8.027524e-002 -7.812500e-002 -7.402524e-002
      vertex -8.079448e-002 -7.812500e-002 -5.816126e-002
      vertex -6.777524e-002 -7.812500e-002 -7.402524e-002
    endloop
  endfacet
  facet normal  0.000000e+000 -1.000000e+000  0.000000e+000
    outer loop
      vertex  8.027524e-002 -7.812500e-002 -7.402524e-002
      vertex -6.777524e-002 -7.812500e-002 -7.402524e-002
      vertex  6.441126e-002 -7.812500e-002 -8.704448e-002
    endloop
  endfacet
  facet normal  0.000000e+000 -1.000000e+000  0.000000e+000
    outer loop
      vertex  6.441126e-002 -7.812500e-002 -8.704448e-002
      vertex -6.777524e-002 -7.812500e-002 -7.402524e-002
      vertex -5.191126e-002 -7.812500e-002 -8.704448e-002
    endloop
  endfacet
  facet normal  0.000000e+000 -1.000000e+000  0.000000e+000
    outer loop
      vertex  6.441126e-002 -7.812500e-002 -8.704448e-002
      vertex -5.191126e-002 -7.812500e-002 -8.704448e-002
      vertex -3.381217e-002 -7.812500e-002 -9.671864e-002
    endloop
  endfacet
  facet normal  9.951847e-001  3.157121e-016 -9.801695e-002
    outer loop
      vertex  1.187500e-001  1.103284e-016  0.000000e+000
      vertex  1.187500e-001 -7.031250e-002 -2.264762e-016
      vertex  1.165883e-001  1.077717e-016 -2.194766e-002
    endloop
  endfacet
  facet normal  9.951847e-001  0.000000e+000 -9.801695e-002
    outer loop
      vertex  1.165883e-001  1.077717e-016 -2.194766e-002
      vertex  1.187500e-001 -7.031250e-002 -2.264762e-016
      vertex  1.165883e-001 -7.031250e-002 -2.194766e-002
    endloop
  endfacet
  facet normal  9.569404e-001  0.000000e+000 -2.902847e-001
    outer loop
      vertex  1.165883e-001  1.077717e-016 -2.194766e-002
      vertex  1.165883e-001 -7.031250e-002 -2.194766e-002
      vertex  1.101865e-001  1.050733e-016 -4.305189e-002
    endloop
  endfacet
  facet normal  9.569404e-001  0.000000e+000 -2.902847e-001
    outer loop
      vertex  1.101865e-001  1.050733e-016 -4.305189e-002
      vertex  1.165883e-001 -7.031250e-002 -2.194766e-002
      vertex  1.101865e-001 -7.031250e-002 -4.305189e-002
    endloop
  endfacet
  facet normal  8.819214e-001  0.000000e+000 -4.713967e-001
    outer loop
      vertex  1.101865e-001  1.050733e-016 -4.305189e-002
      vertex  1.101865e-001 -7.031250e-002 -4.305189e-002
      vertex  9.979033e-002  1.023369e-016 -6.250165e-002
    endloop
  endfacet
  facet normal  8.819214e-001  0.000000e+000 -4.713967e-001
    outer loop
      vertex  9.979033e-002  1.023369e-016 -6.250165e-002
      vertex  1.101865e-001 -7.031250e-002 -4.305189e-002
      vertex  9.979033e-002 -7.031250e-002 -6.250165e-002
    endloop
  endfacet
  facet normal  7.730104e-001  0.000000e+000 -6.343934e-001
    outer loop
      vertex  9.979033e-002  1.023369e-016 -6.250165e-002
      vertex  9.979033e-002 -7.031250e-002 -6.250165e-002
      vertex  8.579952e-002  9.966752e-017 -7.954951e-002
    endloop
  endfacet
  facet normal  7.730104e-001  0.000000e+000 -6.343934e-001
    outer loop
      vertex  8.579952e-002  9.966752e-017 -7.954951e-002
      vertex  9.979033e-002 -7.031250e-002 -6.250165e-002
      vertex  8.579952e-002 -7.031250e-002 -7.954951e-002
    endloop
  endfacet
  facet normal  6.343932e-001  0.000000e+000 -7.730106e-001
    outer loop
      vertex  8.579952e-002  9.966752e-017 -7.954951e-002
      vertex  8.579952e-002 -7.031250e-002 -7.954951e-002
      vertex  6.875165e-002  9.716789e-017 -9.354033e-002
    endloop
  endfacet
  facet normal  6.343932e-001  0.000000e+000 -7.730106e-001
    outer loop
      vertex  6.875165e-002  9.716789e-017 -9.354033e-002
      vertex  8.579952e-002 -7.031250e-002 -7.954951e-002
      vertex  6.875165e-002 -7.031250e-002 -9.354033e-002
    endloop
  endfacet
  facet normal  4.713967e-001  0.000000e+000 -8.819212e-001
    outer loop
      vertex  6.875165e-002  9.716789e-017 -9.354033e-002
      vertex  6.875165e-002 -7.031250e-002 -9.354033e-002
      vertex  4.930189e-002  9.493400e-017 -1.039364e-001
    endloop
  endfacet
  facet normal  4.713967e-001  0.000000e+000 -8.819212e-001
    outer loop
      vertex  4.930189e-002  9.493400e-017 -1.039364e-001
      vertex  6.875165e-002 -7.031250e-002 -9.354033e-002
      vertex  4.930189e-002 -7.031250e-002 -1.039364e-001
    endloop
  endfacet
  facet normal  2.902847e-001  0.000000e+000 -9.569403e-001
    outer loop
      vertex  4.930189e-002  9.493400e-017 -1.039364e-001
      vertex  4.930189e-002 -7.031250e-002 -1.039364e-001
      vertex  2.819766e-002  9.305173e-017 -1.103383e-001
    endloop
  endfacet
  facet normal  2.902847e-001  0.000000e+000 -9.569403e-001
    outer loop
      vertex  2.819766e-002  9.305173e-017 -1.103383e-001
      vertex  4.930189e-002 -7.031250e-002 -1.039364e-001
      vertex  2.819766e-002 -7.031250e-002 -1.103383e-001
    endloop
  endfacet
  facet normal  9.801695e-002  0.000000e+000 -9.951847e-001
    outer loop
      vertex  2.819766e-002  9.305173e-017 -1.103383e-001
      vertex  2.819766e-002 -7.031250e-002 -1.103383e-001
      vertex  6.250000e-003  9.159340e-017 -1.125000e-001
    endloop
  endfacet
  facet normal  9.801695e-002  0.000000e+000 -9.951847e-001
    outer loop
      vertex  6.250000e-003  9.159340e-017 -1.125000e-001
      vertex  2.819766e-002 -7.031250e-002 -1.103383e-001
      vertex  6.250000e-003 -7.031250e-002 -1.125000e-001
    endloop
  endfacet
  facet normal -9.801695e-002  0.000000e+000 -9.951847e-001
    outer loop
      vertex  6.250000e-003  9.159340e-017 -1.125000e-001
      vertex  6.250000e-003 -7.031250e-002 -1.125000e-001
      vertex -1.569766e-002  9.061505e-017 -1.103383e-001
    endloop
  endfacet
  facet normal -9.801695e-002  -0.000000e+000 -9.951847e-001
    outer loop
      vertex -1.569766e-002  9.061505e-017 -1.103383e-001
      vertex  6.250000e-003 -7.031250e-002 -1.125000e-001
      vertex -1.569766e-002 -7.031250e-002 -1.103383e-001
    endloop
  endfacet
  facet normal -2.902847e-001  0.000000e+000 -9.569403e-001
    outer loop
      vertex -1.569766e-002  9.061505e-017 -1.103383e-001
      vertex -1.569766e-002 -7.031250e-002 -1.103383e-001
      vertex -3.680189e-002  9.015428e-017 -1.039364e-001
    endloop
  endfacet
  facet normal -2.902847e-001  -0.000000e+000 -9.569403e-001
    outer loop
      vertex -3.680189e-002  9.015428e-017 -1.039364e-001
      vertex -1.569766e-002 -7.031250e-002 -1.103383e-001
      vertex -3.680189e-002 -7.031250e-002 -1.039364e-001
    endloop
  endfacet
  facet normal -4.713967e-001  0.000000e+000 -8.819214e-001
    outer loop
      vertex -3.680189e-002  9.015428e-017 -1.039364e-001
      vertex -3.680189e-002 -7.031250e-002 -1.039364e-001
      vertex -5.625165e-002  9.022881e-017 -9.354033e-002
    endloop
  endfacet
  facet normal -4.713967e-001  -0.000000e+000 -8.819214e-001
    outer loop
      vertex -5.625165e-002  9.022881e-017 -9.354033e-002
      vertex -3.680189e-002 -7.031250e-002 -1.039364e-001
      vertex -5.625165e-002 -7.031250e-002 -9.354033e-002
    endloop
  endfacet
  facet normal -6.343934e-001  0.000000e+000 -7.730104e-001
    outer loop
      vertex -5.625165e-002  9.022881e-017 -9.354033e-002
      vertex -5.625165e-002 -7.031250e-002 -9.354033e-002
      vertex -7.329951e-002  9.083575e-017 -7.954951e-002
    endloop
  endfacet
  facet normal -6.343934e-001  -0.000000e+000 -7.730104e-001
    outer loop
      vertex -7.329951e-002  9.083575e-017 -7.954951e-002
      vertex -5.625165e-002 -7.031250e-002 -9.354033e-002
      vertex -7.329951e-002 -7.031250e-002 -7.954951e-002
    endloop
  endfacet
  facet normal -7.730104e-001  0.000000e+000 -6.343934e-001
    outer loop
      vertex -7.329951e-002  9.083575e-017 -7.954951e-002
      vertex -7.329951e-002 -7.031250e-002 -7.954951e-002
      vertex -8.729033e-002  9.195180e-017 -6.250165e-002
    endloop
  endfacet
  facet normal -7.730104e-001  -0.000000e+000 -6.343934e-001
    outer loop
      vertex -8.729033e-002  9.195180e-017 -6.250165e-002
      vertex -7.329951e-002 -7.031250e-002 -7.954951e-002
      vertex -8.729033e-002 -7.031250e-002 -6.250165e-002
    endloop
  endfacet
  facet normal -8.819214e-001  0.000000e+000 -4.713967e-001
    outer loop
      vertex -8.729033e-002  9.195180e-017 -6.250165e-002
      vertex -8.729033e-002 -7.031250e-002 -6.250165e-002
      vertex -9.768645e-002  9.353406e-017 -4.305189e-002
    endloop
  endfacet
  facet normal -8.819214e-001  -0.000000e+000 -4.713967e-001
    outer loop
      vertex -9.768645e-002  9.353406e-017 -4.305189e-002
      vertex -8.729033e-002 -7.031250e-002 -6.250165e-002
      vertex -9.768645e-002 -7.031250e-002 -4.305189e-002
    endloop
  endfacet
  facet normal -9.569404e-001  0.000000e+000 -2.902847e-001
    outer loop
      vertex -9.768645e-002  9.353406e-017 -4.305189e-002
      vertex -9.768645e-002 -7.031250e-002 -4.305189e-002
      vertex -1.040883e-001  9.552172e-017 -2.194766e-002
    endloop
  endfacet
  facet normal -9.569404e-001  -0.000000e+000 -2.902847e-001
    outer loop
      vertex -1.040883e-001  9.552172e-017 -2.194766e-002
      vertex -9.768645e-002 -7.031250e-002 -4.305189e-002
      vertex -1.040883e-001 -7.031250e-002 -2.194766e-002
    endloop
  endfacet
  facet normal -9.951847e-001  0.000000e+000 -9.801729e-002
    outer loop
      vertex -1.040883e-001  9.552172e-017 -2.194766e-002
      vertex -1.040883e-001 -7.031250e-002 -2.194766e-002
      vertex -1.062500e-001  9.783841e-017  2.066546e-017
    endloop
  endfacet
  facet normal -9.951847e-001 -1.501730e-016 -9.801729e-002
    outer loop
      vertex -1.062500e-001  9.783841e-017  2.066546e-017
      vertex -1.040883e-001 -7.031250e-002 -2.194766e-002
      vertex -1.062500e-001 -7.031250e-002  1.283918e-016
    endloop
  endfacet
  facet normal -9.951847e-001  1.501730e-016  9.801729e-002
    outer loop
      vertex -1.062500e-001  9.783841e-017  2.066546e-017
      vertex -1.062500e-001 -7.031250e-002  1.283918e-016
      vertex -1.040883e-001  1.003951e-016  2.194766e-002
    endloop
  endfacet
  facet normal -9.951847e-001  0.000000e+000  9.801729e-002
    outer loop
      vertex -1.040883e-001  1.003951e-016  2.194766e-002
      vertex -1.062500e-001 -7.031250e-002  1.283918e-016
      vertex -1.040883e-001 -7.031250e-002  2.194766e-002
    endloop
  endfacet
  facet normal -9.569404e-001  0.000000e+000  2.902847e-001
    outer loop
      vertex -1.040883e-001  1.003951e-016  2.194766e-002
      vertex -1.040883e-001 -7.031250e-002  2.194766e-002
      vertex -9.768645e-002  1.030935e-016  4.305189e-002
    endloop
  endfacet
  facet normal -9.569404e-001  0.000000e+000  2.902847e-001
    outer loop
      vertex -9.768645e-002  1.030935e-016  4.305189e-002
      vertex -1.040883e-001 -7.031250e-002  2.194766e-002
      vertex -9.768645e-002 -7.031250e-002  4.305189e-002
    endloop
  endfacet
  facet normal -8.819214e-001  0.000000e+000  4.713967e-001
    outer loop
      vertex -9.768645e-002  1.030935e-016  4.305189e-002
      vertex -9.768645e-002 -7.031250e-002  4.305189e-002
      vertex -8.729033e-002  1.058300e-016  6.250165e-002
    endloop
  endfacet
  facet normal -8.819214e-001  0.000000e+000  4.713967e-001
    outer loop
      vertex -8.729033e-002  1.058300e-016  6.250165e-002
      vertex -9.768645e-002 -7.031250e-002  4.305189e-002
      vertex -8.729033e-002 -7.031250e-002  6.250165e-002
    endloop
  endfacet
  facet normal -7.730104e-001  0.000000e+000  6.343934e-001
    outer loop
      vertex -8.729033e-002  1.058300e-016  6.250165e-002
      vertex -8.729033e-002 -7.031250e-002  6.250165e-002
      vertex -7.329951e-002  1.084993e-016  7.954951e-002
    endloop
  endfacet
  facet normal -7.730104e-001  0.000000e+000  6.343934e-001
    outer loop
      vertex -7.329951e-002  1.084993e-016  7.954951e-002
      vertex -8.729033e-002 -7.031250e-002  6.250165e-002
      vertex -7.329951e-002 -7.031250e-002  7.954951e-002
    endloop
  endfacet
  facet normal -6.343934e-001  0.000000e+000  7.730104e-001
    outer loop
      vertex -7.329951e-002  1.084993e-016  7.954951e-002
      vertex -7.329951e-002 -7.031250e-002  7.954951e-002
      vertex -5.625165e-002  1.109989e-016  9.354033e-002
    endloop
  endfacet
  facet normal -6.343934e-001  0.000000e+000  7.730104e-001
    outer loop
      vertex -5.625165e-002  1.109989e-016  9.354033e-002
      vertex -7.329951e-002 -7.031250e-002  7.954951e-002
      vertex -5.625165e-002 -7.031250e-002  9.354033e-002
    endloop
  endfacet
  facet normal -4.713967e-001  0.000000e+000  8.819214e-001
    outer loop
      vertex -5.625165e-002  1.109989e-016  9.354033e-002
      vertex -5.625165e-002 -7.031250e-002  9.354033e-002
      vertex -3.680189e-002  1.132328e-016  1.039364e-001
    endloop
  endfacet
  facet normal -4.713967e-001  0.000000e+000  8.819214e-001
    outer loop
      vertex -3.680189e-002  1.132328e-016  1.039364e-001
      vertex -5.625165e-002 -7.031250e-002  9.354033e-002
      vertex -3.680189e-002 -7.031250e-002  1.039364e-001
    endloop
  endfacet
  facet normal -2.902847e-001  0.000000e+000  9.569403e-001
    outer loop
      vertex -3.680189e-002  1.132328e-016  1.039364e-001
      vertex -3.680189e-002 -7.031250e-002  1.039364e-001
      vertex -1.569766e-002  1.151151e-016  1.103383e-001
    endloop
  endfacet
  facet normal -2.902847e-001  0.000000e+000  9.569403e-001
    outer loop
      vertex -1.569766e-002  1.151151e-016  1.103383e-001
      vertex -3.680189e-002 -7.031250e-002  1.039364e-001
      vertex -1.569766e-002 -7.031250e-002  1.103383e-001
    endloop
  endfacet
  facet normal -9.801695e-002  0.000000e+000  9.951847e-001
    outer loop
      vertex -1.569766e-002  1.151151e-016  1.103383e-001
      vertex -1.569766e-002 -7.031250e-002  1.103383e-001
      vertex  6.250000e-003  1.165734e-016  1.125000e-001
    endloop
  endfacet
  facet normal -9.801695e-002  0.000000e+000  9.951847e-001
    outer loop
      vertex  6.250000e-003  1.165734e-016  1.125000e-001
      vertex -1.569766e-002 -7.031250e-002  1.103383e-001
      vertex  6.250000e-003 -7.031250e-002  1.125000e-001
    endloop
  endfacet
  facet normal  9.801695e-002  -0.000000e+000  9.951847e-001
    outer loop
      vertex  6.250000e-003  1.165734e-016  1.125000e-001
      vertex  6.250000e-003 -7.031250e-002  1.125000e-001
      vertex  2.819766e-002  1.175518e-016  1.103383e-001
    endloop
  endfacet
  facet normal  9.801695e-002  0.000000e+000  9.951847e-001
    outer loop
      vertex  2.819766e-002  1.175518e-016  1.103383e-001
      vertex  6.250000e-003 -7.031250e-002  1.125000e-001
      vertex  2.819766e-002 -7.031250e-002  1.103383e-001
    endloop
  endfacet
  facet normal  2.902847e-001  -0.000000e+000  9.569403e-001
    outer loop
      vertex  2.819766e-002  1.175518e-016  1.103383e-001
      vertex  2.819766e-002 -7.031250e-002  1.103383e-001
      vertex  4.930189e-002  1.180125e-016  1.039364e-001
    endloop
  endfacet
  facet normal  2.902847e-001  0.000000e+000  9.569403e-001
    outer loop
      vertex  4.930189e-002  1.180125e-016  1.039364e-001
      vertex  2.819766e-002 -7.031250e-002  1.103383e-001
      vertex  4.930189e-002 -7.031250e-002  1.039364e-001
    endloop
  endfacet
  facet normal  4.713967e-001  -0.000000e+000  8.819212e-001
    outer loop
      vertex  4.930189e-002  1.180125e-016  1.039364e-001
      vertex  4.930189e-002 -7.031250e-002  1.039364e-001
      vertex  6.875165e-002  1.179380e-016  9.354033e-002
    endloop
  endfacet
  facet normal  4.713967e-001  0.000000e+000  8.819212e-001
    outer loop
      vertex  6.875165e-002  1.179380e-016  9.354033e-002
      vertex  4.930189e-002 -7.031250e-002  1.039364e-001
      vertex  6.875165e-002 -7.031250e-002  9.354033e-002
    endloop
  endfacet
  facet normal  6.343932e-001  -0.000000e+000  7.730106e-001
    outer loop
      vertex  6.875165e-002  1.179380e-016  9.354033e-002
      vertex  6.875165e-002 -7.031250e-002  9.354033e-002
      vertex  8.579952e-002  1.173311e-016  7.954951e-002
    endloop
  endfacet
  facet normal  6.343932e-001  0.000000e+000  7.730106e-001
    outer loop
      vertex  8.579952e-002  1.173311e-016  7.954951e-002
      vertex  6.875165e-002 -7.031250e-002  9.354033e-002
      vertex  8.579952e-002 -7.031250e-002  7.954951e-002
    endloop
  endfacet
  facet normal  7.730104e-001  -0.000000e+000  6.343934e-001
    outer loop
      vertex  8.579952e-002  1.173311e-016  7.954951e-002
      vertex  8.579952e-002 -7.031250e-002  7.954951e-002
      vertex  9.979033e-002  1.162150e-016  6.250165e-002
    endloop
  endfacet
  facet normal  7.730104e-001  0.000000e+000  6.343934e-001
    outer loop
      vertex  9.979033e-002  1.162150e-016  6.250165e-002
      vertex  8.579952e-002 -7.031250e-002  7.954951e-002
      vertex  9.979033e-002 -7.031250e-002  6.250165e-002
    endloop
  endfacet
  facet normal  8.819214e-001  -0.000000e+000  4.713967e-001
    outer loop
      vertex  9.979033e-002  1.162150e-016  6.250165e-002
      vertex  9.979033e-002 -7.031250e-002  6.250165e-002
      vertex  1.101865e-001  1.146328e-016  4.305189e-002
    endloop
  endfacet
  facet normal  8.819214e-001  0.000000e+000  4.713967e-001
    outer loop
      vertex  1.101865e-001  1.146328e-016  4.305189e-002
      vertex  9.979033e-002 -7.031250e-002  6.250165e-002
      vertex  1.101865e-001 -7.031250e-002  4.305189e-002
    endloop
  endfacet
  facet normal  9.569404e-001  -0.000000e+000  2.902847e-001
    outer loop
      vertex  1.101865e-001  1.146328e-016  4.305189e-002
      vertex  1.101865e-001 -7.031250e-002  4.305189e-002
      vertex  1.165883e-001  1.126451e-016  2.194766e-002
    endloop
  endfacet
  facet normal  9.569404e-001  0.000000e+000  2.902847e-001
    outer loop
      vertex  1.165883e-001  1.126451e-016  2.194766e-002
      vertex  1.101865e-001 -7.031250e-002  4.305189e-002
      vertex  1.165883e-001 -7.031250e-002  2.194766e-002
    endloop
  endfacet
  facet normal  9.951847e-001  -0.000000e+000  9.801695e-002
    outer loop
      vertex  1.165883e-001  1.126451e-016  2.194766e-002
      vertex  1.165883e-001 -7.031250e-002  2.194766e-002
      vertex  1.187500e-001  1.103284e-016  0.000000e+000
    endloop
  endfacet
  facet normal  9.951847e-001 -3.157121e-016  9.801695e-002
    outer loop
      vertex  1.187500e-001  1.103284e-016  0.000000e+000
      vertex  1.165883e-001 -7.031250e-002  2.194766e-002
      vertex  1.187500e-001 -7.031250e-002 -2.264762e-016
    endloop
  endfacet
  facet normal  7.053982e-001 -7.053982e-001 -6.947554e-002
    outer loop
      vertex  1.109375e-001 -7.812500e-002  0.000000e+000
      vertex  1.089260e-001 -7.812500e-002 -2.042352e-002
      vertex  1.187500e-001 -7.031250e-002 -2.264762e-016
    endloop
  endfacet
  facet normal  7.053981e-001 -7.053982e-001 -6.947552e-002
    outer loop
      vertex  1.089260e-001 -7.812500e-002 -2.042352e-002
      vertex  1.165883e-001 -7.031250e-002 -2.194766e-002
      vertex  1.187500e-001 -7.031250e-002 -2.264762e-016
    endloop
  endfacet
  facet normal -7.053981e-001 -7.053981e-001 -6.947576e-002
    outer loop
      vertex -1.062500e-001 -7.031250e-002  1.283918e-016
      vertex -1.040883e-001 -7.031250e-002 -2.194766e-002
      vertex -9.843750e-002 -7.812500e-002  2.220446e-016
    endloop
  endfacet
  facet normal -7.053981e-001 -7.053982e-001 -6.947579e-002
    outer loop
      vertex -1.040883e-001 -7.031250e-002 -2.194766e-002
      vertex -9.642596e-002 -7.812500e-002 -2.042352e-002
      vertex -9.843750e-002 -7.812500e-002  2.220446e-016
    endloop
  endfacet
  facet normal -6.782901e-001 -7.053982e-001 -2.057570e-001
    outer loop
      vertex -1.040883e-001 -7.031250e-002 -2.194766e-002
      vertex -9.768645e-002 -7.031250e-002 -4.305189e-002
      vertex -9.046864e-002 -7.812500e-002 -4.006217e-002
    endloop
  endfacet
  facet normal -6.782901e-001 -7.053982e-001 -2.057571e-001
    outer loop
      vertex -9.642596e-002 -7.812500e-002 -2.042352e-002
      vertex -1.040883e-001 -7.031250e-002 -2.194766e-002
      vertex -9.046864e-002 -7.812500e-002 -4.006217e-002
    endloop
  endfacet
  facet normal -5.479184e-001 -7.053982e-001 -4.496651e-001
    outer loop
      vertex -8.729033e-002 -7.031250e-002 -6.250165e-002
      vertex -7.329951e-002 -7.031250e-002 -7.954951e-002
      vertex -8.079448e-002 -7.812500e-002 -5.816126e-002
    endloop
  endfacet
  facet normal -6.251157e-001 -7.053982e-001 -3.341313e-001
    outer loop
      vertex -8.079448e-002 -7.812500e-002 -5.816126e-002
      vertex -9.768645e-002 -7.031250e-002 -4.305189e-002
      vertex -8.729033e-002 -7.031250e-002 -6.250165e-002
    endloop
  endfacet
  facet normal -6.251157e-001 -7.053983e-001 -3.341312e-001
    outer loop
      vertex -9.046864e-002 -7.812500e-002 -4.006217e-002
      vertex -9.768645e-002 -7.031250e-002 -4.305189e-002
      vertex -8.079448e-002 -7.812500e-002 -5.816126e-002
    endloop
  endfacet
  facet normal -3.341313e-001 -7.053981e-001 -6.251157e-001
    outer loop
      vertex -5.625165e-002 -7.031250e-002 -9.354033e-002
      vertex -3.680189e-002 -7.031250e-002 -1.039364e-001
      vertex -3.381217e-002 -7.812500e-002 -9.671864e-002
    endloop
  endfacet
  facet normal -3.341313e-001 -7.053982e-001 -6.251158e-001
    outer loop
      vertex -5.191126e-002 -7.812500e-002 -8.704448e-002
      vertex -5.625165e-002 -7.031250e-002 -9.354033e-002
      vertex -3.381217e-002 -7.812500e-002 -9.671864e-002
    endloop
  endfacet
  facet normal -4.496650e-001 -7.053983e-001 -5.479185e-001
    outer loop
      vertex -5.191126e-002 -7.812500e-002 -8.704448e-002
      vertex -6.777524e-002 -7.812500e-002 -7.402524e-002
      vertex -5.625165e-002 -7.031250e-002 -9.354033e-002
    endloop
  endfacet
  facet normal -6.947552e-002 -7.053982e-001 -7.053981e-001
    outer loop
      vertex -1.569766e-002 -7.031250e-002 -1.103383e-001
      vertex  6.250000e-003 -7.031250e-002 -1.125000e-001
      vertex -1.417352e-002 -7.812500e-002 -1.026760e-001
    endloop
  endfacet
  facet normal -2.057571e-001 -7.053981e-001 -6.782901e-001
    outer loop
      vertex -1.417352e-002 -7.812500e-002 -1.026760e-001
      vertex -3.680189e-002 -7.031250e-002 -1.039364e-001
      vertex -1.569766e-002 -7.031250e-002 -1.103383e-001
    endloop
  endfacet
  facet normal -2.057571e-001 -7.053982e-001 -6.782901e-001
    outer loop
      vertex -3.381217e-002 -7.812500e-002 -9.671864e-002
      vertex -3.680189e-002 -7.031250e-002 -1.039364e-001
      vertex -1.417352e-002 -7.812500e-002 -1.026760e-001
    endloop
  endfacet
  facet normal  2.057571e-001 -7.053981e-001 -6.782901e-001
    outer loop
      vertex  2.819766e-002 -7.031250e-002 -1.103383e-001
      vertex  4.930189e-002 -7.031250e-002 -1.039364e-001
      vertex  4.631217e-002 -7.812500e-002 -9.671864e-002
    endloop
  endfacet
  facet normal  2.057570e-001 -7.053982e-001 -6.782901e-001
    outer loop
      vertex  2.667352e-002 -7.812500e-002 -1.026760e-001
      vertex  2.819766e-002 -7.031250e-002 -1.103383e-001
      vertex  4.631217e-002 -7.812500e-002 -9.671864e-002
    endloop
  endfacet
  facet normal  6.947553e-002 -7.053982e-001 -7.053981e-001
    outer loop
      vertex  2.667352e-002 -7.812500e-002 -1.026760e-001
      vertex  6.250000e-003 -7.812500e-002 -1.046875e-001
      vertex  2.819766e-002 -7.031250e-002 -1.103383e-001
    endloop
  endfacet
  facet normal  4.496651e-001 -7.053980e-001 -5.479187e-001
    outer loop
      vertex  6.875165e-002 -7.031250e-002 -9.354033e-002
      vertex  8.579952e-002 -7.031250e-002 -7.954951e-002
      vertex  6.441126e-002 -7.812500e-002 -8.704448e-002
    endloop
  endfacet
  facet normal  3.341314e-001 -7.053980e-001 -6.251158e-001
    outer loop
      vertex  6.441126e-002 -7.812500e-002 -8.704448e-002
      vertex  4.930189e-002 -7.031250e-002 -1.039364e-001
      vertex  6.875165e-002 -7.031250e-002 -9.354033e-002
    endloop
  endfacet
  facet normal  3.341313e-001 -7.053982e-001 -6.251158e-001
    outer loop
      vertex  4.631217e-002 -7.812500e-002 -9.671864e-002
      vertex  4.930189e-002 -7.031250e-002 -1.039364e-001
      vertex  6.441126e-002 -7.812500e-002 -8.704448e-002
    endloop
  endfacet
  facet normal  6.251157e-001 -7.053983e-001 -3.341313e-001
    outer loop
      vertex  9.979033e-002 -7.031250e-002 -6.250165e-002
      vertex  1.101865e-001 -7.031250e-002 -4.305189e-002
      vertex  1.029686e-001 -7.812500e-002 -4.006217e-002
    endloop
  endfacet
  facet normal  6.251154e-001 -7.053985e-001 -3.341313e-001
    outer loop
      vertex  9.329447e-002 -7.812500e-002 -5.816126e-002
      vertex  9.979033e-002 -7.031250e-002 -6.250165e-002
      vertex  1.029686e-001 -7.812500e-002 -4.006217e-002
    endloop
  endfacet
  facet normal  5.479183e-001 -7.053985e-001 -4.496649e-001
    outer loop
      vertex  9.329447e-002 -7.812500e-002 -5.816126e-002
      vertex  8.027524e-002 -7.812500e-002 -7.402524e-002
      vertex  9.979033e-002 -7.031250e-002 -6.250165e-002
    endloop
  endfacet
  facet normal  6.782901e-001 -7.053981e-001 -2.057570e-001
    outer loop
      vertex  1.089260e-001 -7.812500e-002 -2.042352e-002
      vertex  1.101865e-001 -7.031250e-002 -4.305189e-002
      vertex  1.165883e-001 -7.031250e-002 -2.194766e-002
    endloop
  endfacet
  facet normal  6.782901e-001 -7.053983e-001 -2.057571e-001
    outer loop
      vertex  1.029686e-001 -7.812500e-002 -4.006217e-002
      vertex  1.101865e-001 -7.031250e-002 -4.305189e-002
      vertex  1.089260e-001 -7.812500e-002 -2.042352e-002
    endloop
  endfacet
  facet normal -5.479186e-001 -7.053981e-001 -4.496651e-001
    outer loop
      vertex -6.777524e-002 -7.812500e-002 -7.402524e-002
      vertex -8.079448e-002 -7.812500e-002 -5.816126e-002
      vertex -7.329951e-002 -7.031250e-002 -7.954951e-002
    endloop
  endfacet
  facet normal -4.496652e-001 -7.053981e-001 -5.479186e-001
    outer loop
      vertex -7.329951e-002 -7.031250e-002 -7.954951e-002
      vertex -5.625165e-002 -7.031250e-002 -9.354033e-002
      vertex -6.777524e-002 -7.812500e-002 -7.402524e-002
    endloop
  endfacet
  facet normal -6.947554e-002 -7.053982e-001 -7.053982e-001
    outer loop
      vertex  6.250000e-003 -7.812500e-002 -1.046875e-001
      vertex -1.417352e-002 -7.812500e-002 -1.026760e-001
      vertex  6.250000e-003 -7.031250e-002 -1.125000e-001
    endloop
  endfacet
  facet normal  6.947552e-002 -7.053981e-001 -7.053981e-001
    outer loop
      vertex  6.250000e-003 -7.031250e-002 -1.125000e-001
      vertex  2.819766e-002 -7.031250e-002 -1.103383e-001
      vertex  6.250000e-003 -7.812500e-002 -1.046875e-001
    endloop
  endfacet
  facet normal  4.496651e-001 -7.053983e-001 -5.479184e-001
    outer loop
      vertex  8.027524e-002 -7.812500e-002 -7.402524e-002
      vertex  6.441126e-002 -7.812500e-002 -8.704448e-002
      vertex  8.579952e-002 -7.031250e-002 -7.954951e-002
    endloop
  endfacet
  facet normal  5.479183e-001 -7.053983e-001 -4.496650e-001
    outer loop
      vertex  8.579952e-002 -7.031250e-002 -7.954951e-002
      vertex  9.979033e-002 -7.031250e-002 -6.250165e-002
      vertex  8.027524e-002 -7.812500e-002 -7.402524e-002
    endloop
  endfacet
  facet normal -7.053982e-001 -7.053982e-001  6.947580e-002
    outer loop
      vertex -9.843750e-002 -7.812500e-002  2.220446e-016
      vertex -9.642596e-002 -7.812500e-002  2.042352e-002
      vertex -1.062500e-001 -7.031250e-002  1.283918e-016
    endloop
  endfacet
  facet normal -7.053981e-001 -7.053981e-001  6.947576e-002
    outer loop
      vertex -9.642596e-002 -7.812500e-002  2.042352e-002
      vertex -1.040883e-001 -7.031250e-002  2.194766e-002
      vertex -1.062500e-001 -7.031250e-002  1.283918e-016
    endloop
  endfacet
  facet normal  7.053981e-001 -7.053981e-001  6.947552e-002
    outer loop
      vertex  1.187500e-001 -7.031250e-002 -2.264762e-016
      vertex  1.165883e-001 -7.031250e-002  2.194766e-002
      vertex  1.109375e-001 -7.812500e-002  0.000000e+000
    endloop
  endfacet
  facet normal  7.053981e-001 -7.053982e-001  6.947553e-002
    outer loop
      vertex  1.165883e-001 -7.031250e-002  2.194766e-002
      vertex  1.089260e-001 -7.812500e-002  2.042352e-002
      vertex  1.109375e-001 -7.812500e-002  0.000000e+000
    endloop
  endfacet
  facet normal  6.782901e-001 -7.053982e-001  2.057570e-001
    outer loop
      vertex  1.165883e-001 -7.031250e-002  2.194766e-002
      vertex  1.101865e-001 -7.031250e-002  4.305189e-002
      vertex  1.029686e-001 -7.812500e-002  4.006217e-002
    endloop
  endfacet
  facet normal  6.782901e-001 -7.053982e-001  2.057571e-001
    outer loop
      vertex  1.089260e-001 -7.812500e-002  2.042352e-002
      vertex  1.165883e-001 -7.031250e-002  2.194766e-002
      vertex  1.029686e-001 -7.812500e-002  4.006217e-002
    endloop
  endfacet
  facet normal  5.479183e-001 -7.053985e-001  4.496650e-001
    outer loop
      vertex  9.979033e-002 -7.031250e-002  6.250165e-002
      vertex  8.579952e-002 -7.031250e-002  7.954951e-002
      vertex  9.329447e-002 -7.812500e-002  5.816126e-002
    endloop
  endfacet
  facet normal  6.251155e-001 -7.053986e-001  3.341312e-001
    outer loop
      vertex  9.329447e-002 -7.812500e-002  5.816126e-002
      vertex  1.101865e-001 -7.031250e-002  4.305189e-002
      vertex  9.979033e-002 -7.031250e-002  6.250165e-002
    endloop
  endfacet
  facet normal  6.251156e-001 -7.053982e-001  3.341314e-001
    outer loop
      vertex  1.029686e-001 -7.812500e-002  4.006217e-002
      vertex  1.101865e-001 -7.031250e-002  4.305189e-002
      vertex  9.329447e-002 -7.812500e-002  5.816126e-002
    endloop
  endfacet
  facet normal  3.341313e-001 -7.053982e-001  6.251158e-001
    outer loop
      vertex  6.875165e-002 -7.031250e-002  9.354033e-002
      vertex  4.930189e-002 -7.031250e-002  1.039364e-001
      vertex  4.631217e-002 -7.812500e-002  9.671864e-002
    endloop
  endfacet
  facet normal  3.341313e-001 -7.053980e-001  6.251159e-001
    outer loop
      vertex  6.441126e-002 -7.812500e-002  8.704448e-002
      vertex  6.875165e-002 -7.031250e-002  9.354033e-002
      vertex  4.631217e-002 -7.812500e-002  9.671864e-002
    endloop
  endfacet
  facet normal  4.496653e-001 -7.053981e-001  5.479186e-001
    outer loop
      vertex  6.441126e-002 -7.812500e-002  8.704448e-002
      vertex  8.027524e-002 -7.812500e-002  7.402524e-002
      vertex  6.875165e-002 -7.031250e-002  9.354033e-002
    endloop
  endfacet
  facet normal  6.947552e-002 -7.053982e-001  7.053981e-001
    outer loop
      vertex  2.819766e-002 -7.031250e-002  1.103383e-001
      vertex  6.250000e-003 -7.031250e-002  1.125000e-001
      vertex  2.667352e-002 -7.812500e-002  1.026760e-001
    endloop
  endfacet
  facet normal  2.057571e-001 -7.053981e-001  6.782901e-001
    outer loop
      vertex  2.667352e-002 -7.812500e-002  1.026760e-001
      vertex  4.930189e-002 -7.031250e-002  1.039364e-001
      vertex  2.819766e-002 -7.031250e-002  1.103383e-001
    endloop
  endfacet
  facet normal  2.057571e-001 -7.053982e-001  6.782901e-001
    outer loop
      vertex  4.631217e-002 -7.812500e-002  9.671864e-002
      vertex  4.930189e-002 -7.031250e-002  1.039364e-001
      vertex  2.667352e-002 -7.812500e-002  1.026760e-001
    endloop
  endfacet
  facet normal -2.057571e-001 -7.053981e-001  6.782901e-001
    outer loop
      vertex -1.569766e-002 -7.031250e-002  1.103383e-001
      vertex -3.680189e-002 -7.031250e-002  1.039364e-001
      vertex -3.381217e-002 -7.812500e-002  9.671864e-002
    endloop
  endfacet
  facet normal -2.057570e-001 -7.053983e-001  6.782901e-001
    outer loop
      vertex -1.417352e-002 -7.812500e-002  1.026760e-001
      vertex -1.569766e-002 -7.031250e-002  1.103383e-001
      vertex -3.381217e-002 -7.812500e-002  9.671864e-002
    endloop
  endfacet
  facet normal -6.947553e-002 -7.053982e-001  7.053981e-001
    outer loop
      vertex -1.417352e-002 -7.812500e-002  1.026760e-001
      vertex  6.250000e-003 -7.812500e-002  1.046875e-001
      vertex -1.569766e-002 -7.031250e-002  1.103383e-001
    endloop
  endfacet
  facet normal -4.496651e-001 -7.053982e-001  5.479184e-001
    outer loop
      vertex -5.625165e-002 -7.031250e-002  9.354033e-002
      vertex -7.329951e-002 -7.031250e-002  7.954951e-002
      vertex -5.191126e-002 -7.812500e-002  8.704448e-002
    endloop
  endfacet
  facet normal -3.341313e-001 -7.053982e-001  6.251157e-001
    outer loop
      vertex -5.191126e-002 -7.812500e-002  8.704448e-002
      vertex -3.680189e-002 -7.031250e-002  1.039364e-001
      vertex -5.625165e-002 -7.031250e-002  9.354033e-002
    endloop
  endfacet
  facet normal -3.341313e-001 -7.053981e-001  6.251158e-001
    outer loop
      vertex -3.381217e-002 -7.812500e-002  9.671864e-002
      vertex -3.680189e-002 -7.031250e-002  1.039364e-001
      vertex -5.191126e-002 -7.812500e-002  8.704448e-002
    endloop
  endfacet
  facet normal -6.251157e-001 -7.053983e-001  3.341313e-001
    outer loop
      vertex -8.729033e-002 -7.031250e-002  6.250165e-002
      vertex -9.768645e-002 -7.031250e-002  4.305189e-002
      vertex -9.046864e-002 -7.812500e-002  4.006217e-002
    endloop
  endfacet
  facet normal -6.251158e-001 -7.053982e-001  3.341312e-001
    outer loop
      vertex -8.079448e-002 -7.812500e-002  5.816126e-002
      vertex -8.729033e-002 -7.031250e-002  6.250165e-002
      vertex -9.046864e-002 -7.812500e-002  4.006217e-002
    endloop
  endfacet
  facet normal -5.479185e-001 -7.053983e-001  4.496650e-001
    outer loop
      vertex -8.079448e-002 -7.812500e-002  5.816126e-002
      vertex -6.777524e-002 -7.812500e-002  7.402524e-002
      vertex -8.729033e-002 -7.031250e-002  6.250165e-002
    endloop
  endfacet
  facet normal -6.782901e-001 -7.053981e-001  2.057570e-001
    outer loop
      vertex -9.642596e-002 -7.812500e-002  2.042352e-002
      vertex -9.768645e-002 -7.031250e-002  4.305189e-002
      vertex -1.040883e-001 -7.031250e-002  2.194766e-002
    endloop
  endfacet
  facet normal -6.782901e-001 -7.053983e-001  2.057571e-001
    outer loop
      vertex -9.046864e-002 -7.812500e-002  4.006217e-002
      vertex -9.768645e-002 -7.031250e-002  4.305189e-002
      vertex -9.642596e-002 -7.812500e-002  2.042352e-002
    endloop
  endfacet
  facet normal  5.479184e-001 -7.053983e-001  4.496650e-001
    outer loop
      vertex  8.027524e-002 -7.812500e-002  7.402524e-002
      vertex  9.329447e-002 -7.812500e-002  5.816126e-002
      vertex  8.579952e-002 -7.031250e-002  7.954951e-002
    endloop
  endfacet
  facet normal  4.496650e-001 -7.053983e-001  5.479185e-001
    outer loop
      vertex  8.579952e-002 -7.031250e-002  7.954951e-002
      vertex  6.875165e-002 -7.031250e-002  9.354033e-002
      vertex  8.027524e-002 -7.812500e-002  7.402524e-002
    endloop
  endfacet
  facet normal  6.947554e-002 -7.053982e-001  7.053982e-001
    outer loop
      vertex  6.250000e-003 -7.812500e-002  1.046875e-001
      vertex  2.667352e-002 -7.812500e-002  1.026760e-001
      vertex  6.250000e-003 -7.031250e-002  1.125000e-001
    endloop
  endfacet
  facet normal -6.947552e-002 -7.053981e-001  7.053981e-001
    outer loop
      vertex  6.250000e-003 -7.031250e-002  1.125000e-001
      vertex -1.569766e-002 -7.031250e-002  1.103383e-001
      vertex  6.250000e-003 -7.812500e-002  1.046875e-001
    endloop
  endfacet
  facet normal -4.496651e-001 -7.053981e-001  5.479186e-001
    outer loop
      vertex -6.777524e-002 -7.812500e-002  7.402524e-002
      vertex -5.191126e-002 -7.812500e-002  8.704448e-002
      vertex -7.329951e-002 -7.031250e-002  7.954951e-002
    endloop
  endfacet
  facet normal -5.479186e-001 -7.053981e-001  4.496652e-001
    outer loop
      vertex -7.329951e-002 -7.031250e-002  7.954951e-002
      vertex -8.729033e-002 -7.031250e-002  6.250165e-002
      vertex -6.777524e-002 -7.812500e-002  7.402524e-002
    endloop
  endfacet
  facet normal -5.551106e-017  1.000000e+000 -1.110208e-016
    outer loop
      vertex  6.250000e-003  1.165734e-016  1.125000e-001
      vertex  2.819766e-002  1.175518e-016  1.103383e-001
      vertex -1.569766e-002  1.151151e-016  1.103383e-001
    endloop
  endfacet
  facet normal -5.551106e-017  1.000000e+000 -1.110236e-016
    outer loop
      vertex -3.680189e-002  1.132328e-016  1.039364e-001
      vertex -1.569766e-002  1.151151e-016  1.103383e-001
      vertex  2.819766e-002  1.175518e-016  1.103383e-001
    endloop
  endfacet
  facet normal -5.551124e-017  1.000000e+000 -1.110216e-016
    outer loop
      vertex  4.930189e-002  1.180125e-016  1.039364e-001
      vertex -3.680189e-002  1.132328e-016  1.039364e-001
      vertex  2.819766e-002  1.175518e-016  1.103383e-001
    endloop
  endfacet
  facet normal -5.551125e-017  1.000000e+000 -1.110219e-016
    outer loop
      vertex -5.625165e-002  1.109989e-016  9.354033e-002
      vertex -3.680189e-002  1.132328e-016  1.039364e-001
      vertex  4.930189e-002  1.180125e-016  1.039364e-001
    endloop
  endfacet
  facet normal -5.551116e-017  1.000000e+000 -1.110227e-016
    outer loop
      vertex  6.875165e-002  1.179380e-016  9.354033e-002
      vertex -5.625165e-002  1.109989e-016  9.354033e-002
      vertex  4.930189e-002  1.180125e-016  1.039364e-001
    endloop
  endfacet
  facet normal -5.551117e-017  1.000000e+000 -1.110227e-016
    outer loop
      vertex  4.930189e-002  9.493400e-017 -1.039364e-001
      vertex -3.680189e-002  9.015428e-017 -1.039364e-001
      vertex  6.875165e-002  9.716789e-017 -9.354033e-002
    endloop
  endfacet
  facet normal -5.551117e-017  1.000000e+000 -1.110224e-016
    outer loop
      vertex -1.569766e-002  9.061505e-017 -1.103383e-001
      vertex -3.680189e-002  9.015428e-017 -1.039364e-001
      vertex  4.930189e-002  9.493400e-017 -1.039364e-001
    endloop
  endfacet
  facet normal -5.551120e-017  1.000000e+000 -1.110220e-016
    outer loop
      vertex  2.819766e-002  9.305173e-017 -1.103383e-001
      vertex -1.569766e-002  9.061505e-017 -1.103383e-001
      vertex  4.930189e-002  9.493400e-017 -1.039364e-001
    endloop
  endfacet
  facet normal -5.551120e-017  1.000000e+000 -1.110223e-016
    outer loop
      vertex  6.250000e-003  9.159340e-017 -1.125000e-001
      vertex -1.569766e-002  9.061505e-017 -1.103383e-001
      vertex  2.819766e-002  9.305173e-017 -1.103383e-001
    endloop
  endfacet
  facet normal -5.551116e-017  1.000000e+000 -1.110227e-016
    outer loop
      vertex -3.680189e-002  9.015428e-017 -1.039364e-001
      vertex -5.625165e-002  9.022881e-017 -9.354033e-002
      vertex  6.875165e-002  9.716789e-017 -9.354033e-002
    endloop
  endfacet
  facet normal -5.551116e-017  1.000000e+000 -1.110222e-016
    outer loop
      vertex  6.875165e-002  9.716789e-017 -9.354033e-002
      vertex -5.625165e-002  9.022881e-017 -9.354033e-002
      vertex -7.329951e-002  9.083575e-017 -7.954951e-002
    endloop
  endfacet
  facet normal -5.551114e-017  1.000000e+000 -1.110219e-016
    outer loop
      vertex  6.875165e-002  9.716789e-017 -9.354033e-002
      vertex -7.329951e-002  9.083575e-017 -7.954951e-002
      vertex  8.579952e-002  9.966752e-017 -7.954951e-002
    endloop
  endfacet
  facet normal -5.551114e-017  1.000000e+000 -1.110222e-016
    outer loop
      vertex  8.579952e-002  9.966752e-017 -7.954951e-002
      vertex -7.329951e-002  9.083575e-017 -7.954951e-002
      vertex -8.729033e-002  9.195180e-017 -6.250165e-002
    endloop
  endfacet
  facet normal -5.551114e-017  1.000000e+000 -1.110223e-016
    outer loop
      vertex  8.579952e-002  9.966752e-017 -7.954951e-002
      vertex -8.729033e-002  9.195180e-017 -6.250165e-002
      vertex  9.979033e-002  1.023369e-016 -6.250165e-002
    endloop
  endfacet
  facet normal -5.551114e-017  1.000000e+000 -1.110223e-016
    outer loop
      vertex  9.979033e-002  1.023369e-016 -6.250165e-002
      vertex -8.729033e-002  9.195180e-017 -6.250165e-002
      vertex -9.768645e-002  9.353406e-017 -4.305189e-002
    endloop
  endfacet
  facet normal -5.551114e-017  1.000000e+000 -1.110223e-016
    outer loop
      vertex  9.979033e-002  1.023369e-016 -6.250165e-002
      vertex -9.768645e-002  9.353406e-017 -4.305189e-002
      vertex  1.101865e-001  1.050733e-016 -4.305189e-002
    endloop
  endfacet
  facet normal -5.551114e-017  1.000000e+000 -1.110223e-016
    outer loop
      vertex  1.101865e-001  1.050733e-016 -4.305189e-002
      vertex -9.768645e-002  9.353406e-017 -4.305189e-002
      vertex -1.040883e-001  9.552172e-017 -2.194766e-002
    endloop
  endfacet
  facet normal -5.551114e-017  1.000000e+000 -1.110223e-016
    outer loop
      vertex  1.101865e-001  1.050733e-016 -4.305189e-002
      vertex -1.040883e-001  9.552172e-017 -2.194766e-002
      vertex  1.165883e-001  1.077717e-016 -2.194766e-002
    endloop
  endfacet
  facet normal -5.551114e-017  1.000000e+000 -1.110225e-016
    outer loop
      vertex  1.165883e-001  1.077717e-016 -2.194766e-002
      vertex -1.040883e-001  9.552172e-017 -2.194766e-002
      vertex -1.062500e-001  9.783841e-017  2.066546e-017
    endloop
  endfacet
  facet normal -5.551112e-017  1.000000e+000 -1.110223e-016
    outer loop
      vertex  1.165883e-001  1.077717e-016 -2.194766e-002
      vertex -1.062500e-001  9.783841e-017  2.066546e-017
      vertex  1.187500e-001  1.103284e-016  0.000000e+000
    endloop
  endfacet
  facet normal -5.551112e-017  1.000000e+000 -1.110223e-016
    outer loop
      vertex  1.187500e-001  1.103284e-016  0.000000e+000
      vertex -1.062500e-001  9.783841e-017  2.066546e-017
      vertex -1.040883e-001  1.003951e-016  2.194766e-002
    endloop
  endfacet
  facet normal -5.551114e-017  1.000000e+000 -1.110225e-016
    outer loop
      vertex  1.187500e-001  1.103284e-016  0.000000e+000
      vertex -1.040883e-001  1.003951e-016  2.194766e-002
      vertex  1.165883e-001  1.126451e-016  2.194766e-002
    endloop
  endfacet
  facet normal -5.551114e-017  1.000000e+000 -1.110223e-016
    outer loop
      vertex  1.165883e-001  1.126451e-016  2.194766e-002
      vertex -1.040883e-001  1.003951e-016  2.194766e-002
      vertex -9.768645e-002  1.030935e-016  4.305189e-002
    endloop
  endfacet
  facet normal -5.551112e-017  1.000000e+000 -1.110219e-016
    outer loop
      vertex  1.165883e-001  1.126451e-016  2.194766e-002
      vertex -9.768645e-002  1.030935e-016  4.305189e-002
      vertex  1.101865e-001  1.146328e-016  4.305189e-002
    endloop
  endfacet
  facet normal -5.551111e-017  1.000000e+000 -1.110223e-016
    outer loop
      vertex  1.101865e-001  1.146328e-016  4.305189e-002
      vertex -9.768645e-002  1.030935e-016  4.305189e-002
      vertex -8.729033e-002  1.058300e-016  6.250165e-002
    endloop
  endfacet
  facet normal -5.551110e-017  1.000000e+000 -1.110223e-016
    outer loop
      vertex  1.101865e-001  1.146328e-016  4.305189e-002
      vertex -8.729033e-002  1.058300e-016  6.250165e-002
      vertex  9.979033e-002  1.162150e-016  6.250165e-002
    endloop
  endfacet
  facet normal -5.551110e-017  1.000000e+000 -1.110223e-016
    outer loop
      vertex  9.979033e-002  1.162150e-016  6.250165e-002
      vertex -8.729033e-002  1.058300e-016  6.250165e-002
      vertex -7.329951e-002  1.084993e-016  7.954951e-002
    endloop
  endfacet
  facet normal -5.551118e-017  1.000000e+000 -1.110230e-016
    outer loop
      vertex  9.979033e-002  1.162150e-016  6.250165e-002
      vertex -7.329951e-002  1.084993e-016  7.954951e-002
      vertex  8.579952e-002  1.173311e-016  7.954951e-002
    endloop
  endfacet
  facet normal -5.551118e-017  1.000000e+000 -1.110219e-016
    outer loop
      vertex  8.579952e-002  1.173311e-016  7.954951e-002
      vertex -7.329951e-002  1.084993e-016  7.954951e-002
      vertex -5.625165e-002  1.109989e-016  9.354033e-002
    endloop
  endfacet
  facet normal -5.551116e-017  1.000000e+000 -1.110217e-016
    outer loop
      vertex  8.579952e-002  1.173311e-016  7.954951e-002
      vertex -5.625165e-002  1.109989e-016  9.354033e-002
      vertex  6.875165e-002  1.179380e-016  9.354033e-002
    endloop
  endfacet
endsolid CATIA STL
