solid CATIA STL
  facet normal  0.000000e+000  0.000000e+000  1.000000e+000
    outer loop
      vertex -7.500000e-001 -4.531250e-001  5.468750e-002
      vertex  7.500000e-001 -4.531250e-001  5.468750e-002
      vertex -7.500000e-001  4.078125e-001  5.468750e-002
    endloop
  endfacet
  facet normal  -0.000000e+000  0.000000e+000  1.000000e+000
    outer loop
      vertex -7.500000e-001  4.078125e-001  5.468750e-002
      vertex  7.500000e-001 -4.531250e-001  5.468750e-002
      vertex  7.500000e-001  4.078125e-001  5.468750e-002
    endloop
  endfacet
  facet normal -1.000000e+000  0.000000e+000  0.000000e+000
    outer loop
      vertex -7.500000e-001  4.354339e-001  4.324636e-002
      vertex -7.500000e-001  4.227611e-001  5.171404e-002
      vertex -7.500000e-001  4.295145e-001  4.810428e-002
    endloop
  endfacet
  facet normal -1.000000e+000  -0.000000e+000  -0.000000e+000
    outer loop
      vertex -7.500000e-001  4.154332e-001  5.393692e-002
      vertex -7.500000e-001  4.227611e-001  5.171404e-002
      vertex -7.500000e-001  4.354339e-001  4.324636e-002
    endloop
  endfacet
  facet normal -1.000000e+000  -0.000000e+000  -0.000000e+000
    outer loop
      vertex -7.500000e-001  4.154332e-001  5.393692e-002
      vertex -7.500000e-001  4.354339e-001  4.324636e-002
      vertex -7.500000e-001  4.402918e-001  3.732696e-002
    endloop
  endfacet
  facet normal -1.000000e+000  -0.000000e+000  -0.000000e+000
    outer loop
      vertex -7.500000e-001  4.154332e-001  5.393692e-002
      vertex -7.500000e-001  4.402918e-001  3.732696e-002
      vertex -7.500000e-001  4.439015e-001  3.057357e-002
    endloop
  endfacet
  facet normal -1.000000e+000  -0.000000e+000  -0.000000e+000
    outer loop
      vertex -7.500000e-001  4.154332e-001  5.393692e-002
      vertex -7.500000e-001  4.439015e-001  3.057357e-002
      vertex -7.500000e-001  4.461244e-001  2.324572e-002
    endloop
  endfacet
  facet normal -1.000000e+000  -0.000000e+000  -0.000000e+000
    outer loop
      vertex -7.500000e-001  4.154332e-001  5.393692e-002
      vertex -7.500000e-001  4.461244e-001  2.324572e-002
      vertex -7.500000e-001  4.468750e-001  1.562500e-002
    endloop
  endfacet
  facet normal -1.000000e+000  -0.000000e+000  -0.000000e+000
    outer loop
      vertex -7.500000e-001  4.154332e-001  5.393692e-002
      vertex -7.500000e-001  4.468750e-001  1.562500e-002
      vertex -7.500000e-001  4.468750e-001  0.000000e+000
    endloop
  endfacet
  facet normal -1.000000e+000  0.000000e+000  0.000000e+000
    outer loop
      vertex -7.500000e-001  4.154332e-001  5.393692e-002
      vertex -7.500000e-001  4.468750e-001  0.000000e+000
      vertex -7.500000e-001  4.078125e-001  5.468750e-002
    endloop
  endfacet
  facet normal -9.999999e-001  0.000000e+000  0.000000e+000
    outer loop
      vertex -7.500000e-001  4.078125e-001  5.468750e-002
      vertex -7.500000e-001  4.468750e-001  0.000000e+000
      vertex -7.500000e-001 -4.531250e-001  5.468750e-002
    endloop
  endfacet
  facet normal -1.000000e+000  0.000000e+000  0.000000e+000
    outer loop
      vertex -7.500000e-001 -4.531250e-001  5.468750e-002
      vertex -7.500000e-001  4.468750e-001  0.000000e+000
      vertex -7.500000e-001 -4.531250e-001  0.000000e+000
    endloop
  endfacet
  facet normal  0.000000e+000  1.000000e+000  -0.000000e+000
    outer loop
      vertex  7.500000e-001  4.468750e-001  1.562500e-002
      vertex  7.500000e-001  4.468750e-001  0.000000e+000
      vertex -7.500000e-001  4.468750e-001  1.562500e-002
    endloop
  endfacet
  facet normal  0.000000e+000  1.000000e+000  0.000000e+000
    outer loop
      vertex -7.500000e-001  4.468750e-001  1.562500e-002
      vertex  7.500000e-001  4.468750e-001  0.000000e+000
      vertex -7.500000e-001  4.468750e-001  0.000000e+000
    endloop
  endfacet
  facet normal  1.000000e+000  0.000000e+000  0.000000e+000
    outer loop
      vertex  7.500000e-001  4.468750e-001  1.562500e-002
      vertex  7.500000e-001  4.461244e-001  2.324572e-002
      vertex  7.500000e-001  4.439015e-001  3.057357e-002
    endloop
  endfacet
  facet normal  1.000000e+000  0.000000e+000  0.000000e+000
    outer loop
      vertex  7.500000e-001  4.468750e-001  0.000000e+000
      vertex  7.500000e-001  4.468750e-001  1.562500e-002
      vertex  7.500000e-001  4.439015e-001  3.057357e-002
    endloop
  endfacet
  facet normal  1.000000e+000  0.000000e+000  0.000000e+000
    outer loop
      vertex  7.500000e-001  4.468750e-001  0.000000e+000
      vertex  7.500000e-001  4.439015e-001  3.057357e-002
      vertex  7.500000e-001  4.402918e-001  3.732696e-002
    endloop
  endfacet
  facet normal  1.000000e+000  0.000000e+000  0.000000e+000
    outer loop
      vertex  7.500000e-001  4.468750e-001  0.000000e+000
      vertex  7.500000e-001  4.402918e-001  3.732696e-002
      vertex  7.500000e-001  4.354339e-001  4.324636e-002
    endloop
  endfacet
  facet normal  1.000000e+000  0.000000e+000  0.000000e+000
    outer loop
      vertex  7.500000e-001  4.468750e-001  0.000000e+000
      vertex  7.500000e-001  4.354339e-001  4.324636e-002
      vertex  7.500000e-001  4.295145e-001  4.810428e-002
    endloop
  endfacet
  facet normal  1.000000e+000  0.000000e+000  0.000000e+000
    outer loop
      vertex  7.500000e-001  4.468750e-001  0.000000e+000
      vertex  7.500000e-001  4.295145e-001  4.810428e-002
      vertex  7.500000e-001  4.227611e-001  5.171404e-002
    endloop
  endfacet
  facet normal  1.000000e+000  0.000000e+000  0.000000e+000
    outer loop
      vertex  7.500000e-001  4.468750e-001  0.000000e+000
      vertex  7.500000e-001  4.227611e-001  5.171404e-002
      vertex  7.500000e-001  4.154332e-001  5.393692e-002
    endloop
  endfacet
  facet normal  1.000000e+000  0.000000e+000  0.000000e+000
    outer loop
      vertex  7.500000e-001  4.468750e-001  0.000000e+000
      vertex  7.500000e-001  4.154332e-001  5.393692e-002
      vertex  7.500000e-001  4.078125e-001  5.468750e-002
    endloop
  endfacet
  facet normal  9.999999e-001  0.000000e+000  0.000000e+000
    outer loop
      vertex  7.500000e-001  4.468750e-001  0.000000e+000
      vertex  7.500000e-001  4.078125e-001  5.468750e-002
      vertex  7.500000e-001 -4.531250e-001  5.468750e-002
    endloop
  endfacet
  facet normal  1.000000e+000  0.000000e+000  0.000000e+000
    outer loop
      vertex  7.500000e-001  4.468750e-001  0.000000e+000
      vertex  7.500000e-001 -4.531250e-001  5.468750e-002
      vertex  7.500000e-001 -4.531250e-001  0.000000e+000
    endloop
  endfacet
  facet normal  -0.000000e+000  9.951848e-001  9.801668e-002
    outer loop
      vertex  7.500000e-001  4.468750e-001  1.562500e-002
      vertex -7.500000e-001  4.468750e-001  1.562500e-002
      vertex  7.500000e-001  4.461244e-001  2.324572e-002
    endloop
  endfacet
  facet normal  0.000000e+000  9.951848e-001  9.801668e-002
    outer loop
      vertex  7.500000e-001  4.461244e-001  2.324572e-002
      vertex -7.500000e-001  4.468750e-001  1.562500e-002
      vertex -7.500000e-001  4.461244e-001  2.324572e-002
    endloop
  endfacet
  facet normal  -0.000000e+000  9.569398e-001  2.902865e-001
    outer loop
      vertex  7.500000e-001  4.461244e-001  2.324572e-002
      vertex -7.500000e-001  4.461244e-001  2.324572e-002
      vertex  7.500000e-001  4.439015e-001  3.057357e-002
    endloop
  endfacet
  facet normal  0.000000e+000  9.569398e-001  2.902865e-001
    outer loop
      vertex  7.500000e-001  4.439015e-001  3.057357e-002
      vertex -7.500000e-001  4.461244e-001  2.324572e-002
      vertex -7.500000e-001  4.439015e-001  3.057357e-002
    endloop
  endfacet
  facet normal  -0.000000e+000  8.819221e-001  4.713951e-001
    outer loop
      vertex  7.500000e-001  4.439015e-001  3.057357e-002
      vertex -7.500000e-001  4.439015e-001  3.057357e-002
      vertex  7.500000e-001  4.402918e-001  3.732696e-002
    endloop
  endfacet
  facet normal  0.000000e+000  8.819221e-001  4.713951e-001
    outer loop
      vertex  7.500000e-001  4.402918e-001  3.732696e-002
      vertex -7.500000e-001  4.439015e-001  3.057357e-002
      vertex -7.500000e-001  4.402918e-001  3.732696e-002
    endloop
  endfacet
  facet normal  -0.000000e+000  7.730101e-001  6.343936e-001
    outer loop
      vertex  7.500000e-001  4.402918e-001  3.732696e-002
      vertex -7.500000e-001  4.402918e-001  3.732696e-002
      vertex  7.500000e-001  4.354339e-001  4.324636e-002
    endloop
  endfacet
  facet normal  0.000000e+000  7.730101e-001  6.343936e-001
    outer loop
      vertex  7.500000e-001  4.354339e-001  4.324636e-002
      vertex -7.500000e-001  4.402918e-001  3.732696e-002
      vertex -7.500000e-001  4.354339e-001  4.324636e-002
    endloop
  endfacet
  facet normal  -0.000000e+000  6.343933e-001  7.730104e-001
    outer loop
      vertex  7.500000e-001  4.354339e-001  4.324636e-002
      vertex -7.500000e-001  4.354339e-001  4.324636e-002
      vertex  7.500000e-001  4.295145e-001  4.810428e-002
    endloop
  endfacet
  facet normal  0.000000e+000  6.343933e-001  7.730104e-001
    outer loop
      vertex  7.500000e-001  4.295145e-001  4.810428e-002
      vertex -7.500000e-001  4.354339e-001  4.324636e-002
      vertex -7.500000e-001  4.295145e-001  4.810428e-002
    endloop
  endfacet
  facet normal  -0.000000e+000  4.713969e-001  8.819211e-001
    outer loop
      vertex  7.500000e-001  4.295145e-001  4.810428e-002
      vertex -7.500000e-001  4.295145e-001  4.810428e-002
      vertex  7.500000e-001  4.227611e-001  5.171404e-002
    endloop
  endfacet
  facet normal  0.000000e+000  4.713969e-001  8.819211e-001
    outer loop
      vertex  7.500000e-001  4.227611e-001  5.171404e-002
      vertex -7.500000e-001  4.295145e-001  4.810428e-002
      vertex -7.500000e-001  4.227611e-001  5.171404e-002
    endloop
  endfacet
  facet normal  -0.000000e+000  2.902848e-001  9.569404e-001
    outer loop
      vertex  7.500000e-001  4.227611e-001  5.171404e-002
      vertex -7.500000e-001  4.227611e-001  5.171404e-002
      vertex  7.500000e-001  4.154332e-001  5.393692e-002
    endloop
  endfacet
  facet normal  0.000000e+000  2.902848e-001  9.569404e-001
    outer loop
      vertex  7.500000e-001  4.154332e-001  5.393692e-002
      vertex -7.500000e-001  4.227611e-001  5.171404e-002
      vertex -7.500000e-001  4.154332e-001  5.393692e-002
    endloop
  endfacet
  facet normal  -0.000000e+000  9.801709e-002  9.951847e-001
    outer loop
      vertex  7.500000e-001  4.154332e-001  5.393692e-002
      vertex -7.500000e-001  4.154332e-001  5.393692e-002
      vertex  7.500000e-001  4.078125e-001  5.468750e-002
    endloop
  endfacet
  facet normal  0.000000e+000  9.801709e-002  9.951847e-001
    outer loop
      vertex  7.500000e-001  4.078125e-001  5.468750e-002
      vertex -7.500000e-001  4.154332e-001  5.393692e-002
      vertex -7.500000e-001  4.078125e-001  5.468750e-002
    endloop
  endfacet
  facet normal  0.000000e+000  0.000000e+000 -1.000000e+000
    outer loop
      vertex -7.500000e-001 -4.531250e-001  0.000000e+000
      vertex -7.500000e-001  4.468750e-001  0.000000e+000
      vertex  7.500000e-001 -4.531250e-001  0.000000e+000
    endloop
  endfacet
  facet normal  0.000000e+000  0.000000e+000 -1.000000e+000
    outer loop
      vertex  7.500000e-001 -4.531250e-001  0.000000e+000
      vertex -7.500000e-001  4.468750e-001  0.000000e+000
      vertex  7.500000e-001  4.468750e-001  0.000000e+000
    endloop
  endfacet
  facet normal  0.000000e+000 -1.000000e+000  0.000000e+000
    outer loop
      vertex -7.500000e-001 -4.531250e-001  5.468750e-002
      vertex -7.500000e-001 -4.531250e-001  0.000000e+000
      vertex  7.500000e-001 -4.531250e-001  5.468750e-002
    endloop
  endfacet
  facet normal  0.000000e+000 -1.000000e+000  -0.000000e+000
    outer loop
      vertex  7.500000e-001 -4.531250e-001  5.468750e-002
      vertex -7.500000e-001 -4.531250e-001  0.000000e+000
      vertex  7.500000e-001 -4.531250e-001  0.000000e+000
    endloop
  endfacet
endsolid CATIA STL
