solid CATIA STL
  facet normal  -0.000000e+000  -0.000000e+000  1.000000e+000
    outer loop
      vertex -6.953125e-001  4.062500e-001  3.046875e-001
      vertex -6.926104e-001  3.788154e-001  3.046875e-001
      vertex -6.846080e-001  3.524351e-001  3.046875e-001
    endloop
  endfacet
  facet normal  -0.000000e+000  -0.000000e+000  1.000000e+000
    outer loop
      vertex -6.953125e-001  4.062500e-001  3.046875e-001
      vertex -6.846080e-001  3.524351e-001  3.046875e-001
      vertex -6.716129e-001  3.281229e-001  3.046875e-001
    endloop
  endfacet
  facet normal  -0.000000e+000  -0.000000e+000  1.000000e+000
    outer loop
      vertex -6.953125e-001  4.062500e-001  3.046875e-001
      vertex -6.716129e-001  3.281229e-001  3.046875e-001
      vertex -6.541244e-001  3.068131e-001  3.046875e-001
    endloop
  endfacet
  facet normal  -0.000000e+000  -0.000000e+000  1.000000e+000
    outer loop
      vertex -6.953125e-001  4.062500e-001  3.046875e-001
      vertex -6.541244e-001  3.068131e-001  3.046875e-001
      vertex -6.328146e-001  2.893246e-001  3.046875e-001
    endloop
  endfacet
  facet normal  -0.000000e+000  -0.000000e+000  1.000000e+000
    outer loop
      vertex -6.953125e-001  4.062500e-001  3.046875e-001
      vertex -6.328146e-001  2.893246e-001  3.046875e-001
      vertex -6.085023e-001  2.763294e-001  3.046875e-001
    endloop
  endfacet
  facet normal  -0.000000e+000  -0.000000e+000  1.000000e+000
    outer loop
      vertex -6.953125e-001  4.062500e-001  3.046875e-001
      vertex -6.085023e-001  2.763294e-001  3.046875e-001
      vertex -5.821221e-001  2.683271e-001  3.046875e-001
    endloop
  endfacet
  facet normal  -0.000000e+000  -0.000000e+000  1.000000e+000
    outer loop
      vertex -6.953125e-001  4.062500e-001  3.046875e-001
      vertex -5.821221e-001  2.683271e-001  3.046875e-001
      vertex -5.546875e-001  2.656250e-001  3.046875e-001
    endloop
  endfacet
  facet normal  0.000000e+000  -0.000000e+000  9.999999e-001
    outer loop
      vertex -6.953125e-001  4.062500e-001  3.046875e-001
      vertex -5.546875e-001  2.656250e-001  3.046875e-001
      vertex -1.406250e-001  2.656250e-001  3.046875e-001
    endloop
  endfacet
  facet normal  0.000000e+000  -0.000000e+000  1.000000e+000
    outer loop
      vertex -6.953125e-001  4.062500e-001  3.046875e-001
      vertex -1.406250e-001  2.656250e-001  3.046875e-001
      vertex -1.406250e-001  7.502467e-001  3.046875e-001
    endloop
  endfacet
  facet normal  0.000000e+000  0.000000e+000  1.000000e+000
    outer loop
      vertex -6.953125e-001  4.062500e-001  3.046875e-001
      vertex -1.406250e-001  7.502467e-001  3.046875e-001
      vertex -6.953125e-001  7.502467e-001  3.046875e-001
    endloop
  endfacet
  facet normal  0.000000e+000  0.000000e+000 -1.000000e+000
    outer loop
      vertex -6.953125e-001  4.062500e-001  0.000000e+000
      vertex -6.953125e-001  7.502467e-001  0.000000e+000
      vertex -1.406250e-001  7.502467e-001  0.000000e+000
    endloop
  endfacet
  facet normal  0.000000e+000  -0.000000e+000 -1.000000e+000
    outer loop
      vertex -6.953125e-001  4.062500e-001  0.000000e+000
      vertex -1.406250e-001  7.502467e-001  0.000000e+000
      vertex -1.406250e-001  2.656250e-001  0.000000e+000
    endloop
  endfacet
  facet normal  0.000000e+000  0.000000e+000 -9.999999e-001
    outer loop
      vertex -6.953125e-001  4.062500e-001  0.000000e+000
      vertex -1.406250e-001  2.656250e-001  0.000000e+000
      vertex -5.546875e-001  2.656250e-001  0.000000e+000
    endloop
  endfacet
  facet normal  0.000000e+000  0.000000e+000 -1.000000e+000
    outer loop
      vertex -6.953125e-001  4.062500e-001  0.000000e+000
      vertex -5.546875e-001  2.656250e-001  0.000000e+000
      vertex -5.821221e-001  2.683271e-001  0.000000e+000
    endloop
  endfacet
  facet normal  0.000000e+000  0.000000e+000 -1.000000e+000
    outer loop
      vertex -6.953125e-001  4.062500e-001  0.000000e+000
      vertex -5.821221e-001  2.683271e-001  0.000000e+000
      vertex -6.085023e-001  2.763294e-001  0.000000e+000
    endloop
  endfacet
  facet normal  0.000000e+000  0.000000e+000 -1.000000e+000
    outer loop
      vertex -6.953125e-001  4.062500e-001  0.000000e+000
      vertex -6.085023e-001  2.763294e-001  0.000000e+000
      vertex -6.328146e-001  2.893246e-001  0.000000e+000
    endloop
  endfacet
  facet normal  0.000000e+000  0.000000e+000 -1.000000e+000
    outer loop
      vertex -6.953125e-001  4.062500e-001  0.000000e+000
      vertex -6.328146e-001  2.893246e-001  0.000000e+000
      vertex -6.541244e-001  3.068131e-001  0.000000e+000
    endloop
  endfacet
  facet normal  0.000000e+000  0.000000e+000 -1.000000e+000
    outer loop
      vertex -6.953125e-001  4.062500e-001  0.000000e+000
      vertex -6.541244e-001  3.068131e-001  0.000000e+000
      vertex -6.716129e-001  3.281229e-001  0.000000e+000
    endloop
  endfacet
  facet normal  0.000000e+000  0.000000e+000 -1.000000e+000
    outer loop
      vertex -6.953125e-001  4.062500e-001  0.000000e+000
      vertex -6.716129e-001  3.281229e-001  0.000000e+000
      vertex -6.846080e-001  3.524351e-001  0.000000e+000
    endloop
  endfacet
  facet normal  0.000000e+000  0.000000e+000 -1.000000e+000
    outer loop
      vertex -6.953125e-001  4.062500e-001  0.000000e+000
      vertex -6.846080e-001  3.524351e-001  0.000000e+000
      vertex -6.926104e-001  3.788154e-001  0.000000e+000
    endloop
  endfacet
  facet normal -1.000000e+000  0.000000e+000  0.000000e+000
    outer loop
      vertex -6.953125e-001  7.502467e-001  3.046875e-001
      vertex -6.953125e-001  7.502467e-001  0.000000e+000
      vertex -6.953125e-001  4.062500e-001  3.046875e-001
    endloop
  endfacet
  facet normal -1.000000e+000  0.000000e+000  0.000000e+000
    outer loop
      vertex -6.953125e-001  4.062500e-001  3.046875e-001
      vertex -6.953125e-001  7.502467e-001  0.000000e+000
      vertex -6.953125e-001  4.062500e-001  0.000000e+000
    endloop
  endfacet
  facet normal  0.000000e+000 -1.000000e+000  0.000000e+000
    outer loop
      vertex -5.546875e-001  2.656250e-001  3.046875e-001
      vertex -5.546875e-001  2.656250e-001  0.000000e+000
      vertex -1.406250e-001  2.656250e-001  3.046875e-001
    endloop
  endfacet
  facet normal  0.000000e+000 -1.000000e+000  -0.000000e+000
    outer loop
      vertex -1.406250e-001  2.656250e-001  3.046875e-001
      vertex -5.546875e-001  2.656250e-001  0.000000e+000
      vertex -1.406250e-001  2.656250e-001  0.000000e+000
    endloop
  endfacet
  facet normal -9.801664e-002 -9.951847e-001  -0.000000e+000
    outer loop
      vertex -5.546875e-001  2.656250e-001  0.000000e+000
      vertex -5.546875e-001  2.656250e-001  3.046875e-001
      vertex -5.821221e-001  2.683271e-001  0.000000e+000
    endloop
  endfacet
  facet normal -9.801664e-002 -9.951847e-001  0.000000e+000
    outer loop
      vertex -5.821221e-001  2.683271e-001  0.000000e+000
      vertex -5.546875e-001  2.656250e-001  3.046875e-001
      vertex -5.821221e-001  2.683271e-001  3.046875e-001
    endloop
  endfacet
  facet normal -2.902851e-001 -9.569402e-001  -0.000000e+000
    outer loop
      vertex -5.821221e-001  2.683271e-001  0.000000e+000
      vertex -5.821221e-001  2.683271e-001  3.046875e-001
      vertex -6.085023e-001  2.763294e-001  0.000000e+000
    endloop
  endfacet
  facet normal -2.902851e-001 -9.569402e-001  0.000000e+000
    outer loop
      vertex -6.085023e-001  2.763294e-001  0.000000e+000
      vertex -5.821221e-001  2.683271e-001  3.046875e-001
      vertex -6.085023e-001  2.763294e-001  3.046875e-001
    endloop
  endfacet
  facet normal -4.713962e-001 -8.819215e-001  -0.000000e+000
    outer loop
      vertex -6.085023e-001  2.763294e-001  0.000000e+000
      vertex -6.085023e-001  2.763294e-001  3.046875e-001
      vertex -6.328146e-001  2.893246e-001  0.000000e+000
    endloop
  endfacet
  facet normal -4.713962e-001 -8.819215e-001  0.000000e+000
    outer loop
      vertex -6.328146e-001  2.893246e-001  0.000000e+000
      vertex -6.085023e-001  2.763294e-001  3.046875e-001
      vertex -6.328146e-001  2.893246e-001  3.046875e-001
    endloop
  endfacet
  facet normal -6.343942e-001 -7.730097e-001  -0.000000e+000
    outer loop
      vertex -6.328146e-001  2.893246e-001  0.000000e+000
      vertex -6.328146e-001  2.893246e-001  3.046875e-001
      vertex -6.541244e-001  3.068131e-001  0.000000e+000
    endloop
  endfacet
  facet normal -6.343942e-001 -7.730097e-001  0.000000e+000
    outer loop
      vertex -6.541244e-001  3.068131e-001  0.000000e+000
      vertex -6.328146e-001  2.893246e-001  3.046875e-001
      vertex -6.541244e-001  3.068131e-001  3.046875e-001
    endloop
  endfacet
  facet normal -7.730101e-001 -6.343938e-001  -0.000000e+000
    outer loop
      vertex -6.541244e-001  3.068131e-001  0.000000e+000
      vertex -6.541244e-001  3.068131e-001  3.046875e-001
      vertex -6.716129e-001  3.281229e-001  0.000000e+000
    endloop
  endfacet
  facet normal -7.730101e-001 -6.343938e-001  0.000000e+000
    outer loop
      vertex -6.716129e-001  3.281229e-001  0.000000e+000
      vertex -6.541244e-001  3.068131e-001  3.046875e-001
      vertex -6.716129e-001  3.281229e-001  3.046875e-001
    endloop
  endfacet
  facet normal -8.819215e-001 -4.713962e-001  -0.000000e+000
    outer loop
      vertex -6.716129e-001  3.281229e-001  0.000000e+000
      vertex -6.716129e-001  3.281229e-001  3.046875e-001
      vertex -6.846080e-001  3.524351e-001  0.000000e+000
    endloop
  endfacet
  facet normal -8.819215e-001 -4.713962e-001  0.000000e+000
    outer loop
      vertex -6.846080e-001  3.524351e-001  0.000000e+000
      vertex -6.716129e-001  3.281229e-001  3.046875e-001
      vertex -6.846080e-001  3.524351e-001  3.046875e-001
    endloop
  endfacet
  facet normal -9.569399e-001 -2.902858e-001  -0.000000e+000
    outer loop
      vertex -6.846080e-001  3.524351e-001  0.000000e+000
      vertex -6.846080e-001  3.524351e-001  3.046875e-001
      vertex -6.926104e-001  3.788154e-001  0.000000e+000
    endloop
  endfacet
  facet normal -9.569399e-001 -2.902858e-001  0.000000e+000
    outer loop
      vertex -6.926104e-001  3.788154e-001  0.000000e+000
      vertex -6.846080e-001  3.524351e-001  3.046875e-001
      vertex -6.926104e-001  3.788154e-001  3.046875e-001
    endloop
  endfacet
  facet normal -9.951847e-001 -9.801664e-002  -0.000000e+000
    outer loop
      vertex -6.926104e-001  3.788154e-001  0.000000e+000
      vertex -6.926104e-001  3.788154e-001  3.046875e-001
      vertex -6.953125e-001  4.062500e-001  0.000000e+000
    endloop
  endfacet
  facet normal -9.951847e-001 -9.801664e-002  0.000000e+000
    outer loop
      vertex -6.953125e-001  4.062500e-001  0.000000e+000
      vertex -6.926104e-001  3.788154e-001  3.046875e-001
      vertex -6.953125e-001  4.062500e-001  3.046875e-001
    endloop
  endfacet
  facet normal  0.000000e+000  1.000000e+000  -0.000000e+000
    outer loop
      vertex -1.406250e-001  7.502467e-001  3.046875e-001
      vertex -1.406250e-001  7.502467e-001  0.000000e+000
      vertex -6.953125e-001  7.502467e-001  3.046875e-001
    endloop
  endfacet
  facet normal  0.000000e+000  1.000000e+000  0.000000e+000
    outer loop
      vertex -6.953125e-001  7.502467e-001  3.046875e-001
      vertex -1.406250e-001  7.502467e-001  0.000000e+000
      vertex -6.953125e-001  7.502467e-001  0.000000e+000
    endloop
  endfacet
  facet normal  1.000000e+000  0.000000e+000  0.000000e+000
    outer loop
      vertex -1.406250e-001  2.656250e-001  3.046875e-001
      vertex -1.406250e-001  2.656250e-001  0.000000e+000
      vertex -1.406250e-001  7.502467e-001  3.046875e-001
    endloop
  endfacet
  facet normal  1.000000e+000  0.000000e+000  0.000000e+000
    outer loop
      vertex -1.406250e-001  7.502467e-001  3.046875e-001
      vertex -1.406250e-001  2.656250e-001  0.000000e+000
      vertex -1.406250e-001  7.502467e-001  0.000000e+000
    endloop
  endfacet
endsolid CATIA STL
