solid CATIA STL
  facet normal  0.000000e+000  4.472136e-001  8.944272e-001
    outer loop
      vertex -5.411184e-002  1.093750e-001  7.500000e-001
      vertex  1.151316e-003  1.093750e-001  7.500000e-001
      vertex  1.151316e-003  1.250000e-001  7.421875e-001
    endloop
  endfacet
  facet normal  0.000000e+000  4.472136e-001  8.944272e-001
    outer loop
      vertex -5.411184e-002  1.093750e-001  7.500000e-001
      vertex  1.151316e-003  1.250000e-001  7.421875e-001
      vertex -1.093750e-001  1.250000e-001  7.421875e-001
    endloop
  endfacet
  facet normal  0.000000e+000  4.472136e-001  8.944272e-001
    outer loop
      vertex -5.411184e-002  1.093750e-001  7.500000e-001
      vertex -1.093750e-001  1.250000e-001  7.421875e-001
      vertex -1.093750e-001  1.093750e-001  7.500000e-001
    endloop
  endfacet
  facet normal  0.000000e+000  1.000000e+000  0.000000e+000
    outer loop
      vertex -1.093750e-001  1.250000e-001  0.000000e+000
      vertex -1.093750e-001  1.250000e-001  7.421875e-001
      vertex  1.151316e-003  1.250000e-001 -6.767785e-018
    endloop
  endfacet
  facet normal  0.000000e+000  1.000000e+000  -0.000000e+000
    outer loop
      vertex  1.151316e-003  1.250000e-001 -6.767785e-018
      vertex -1.093750e-001  1.250000e-001  7.421875e-001
      vertex  1.151316e-003  1.250000e-001  7.421875e-001
    endloop
  endfacet
  facet normal -1.000000e+000  0.000000e+000  0.000000e+000
    outer loop
      vertex -1.093750e-001  1.250000e-001  0.000000e+000
      vertex -1.093750e-001 -1.250000e-001  0.000000e+000
      vertex -1.093750e-001  1.250000e-001  7.421875e-001
    endloop
  endfacet
  facet normal -1.000000e+000  -0.000000e+000  0.000000e+000
    outer loop
      vertex -1.093750e-001  1.250000e-001  7.421875e-001
      vertex -1.093750e-001 -1.250000e-001  0.000000e+000
      vertex -1.093750e-001 -1.250000e-001  7.500000e-001
    endloop
  endfacet
  facet normal -1.000000e+000  0.000000e+000  0.000000e+000
    outer loop
      vertex -1.093750e-001  1.250000e-001  7.421875e-001
      vertex -1.093750e-001 -1.250000e-001  7.500000e-001
      vertex -1.093750e-001  1.093750e-001  7.500000e-001
    endloop
  endfacet
  facet normal  -0.000000e+000  0.000000e+000  1.000000e+000
    outer loop
      vertex -5.411184e-002  1.093750e-001  7.500000e-001
      vertex -1.093750e-001  1.093750e-001  7.500000e-001
      vertex -5.411184e-002 -1.250000e-001  7.500000e-001
    endloop
  endfacet
  facet normal  0.000000e+000  0.000000e+000  1.000000e+000
    outer loop
      vertex -5.411184e-002 -1.250000e-001  7.500000e-001
      vertex -1.093750e-001  1.093750e-001  7.500000e-001
      vertex -1.093750e-001 -1.250000e-001  7.500000e-001
    endloop
  endfacet
  facet normal  -0.000000e+000  0.000000e+000  1.000000e+000
    outer loop
      vertex  1.151316e-003  1.093750e-001  7.500000e-001
      vertex -5.411184e-002  1.093750e-001  7.500000e-001
      vertex  1.151316e-003 -1.250000e-001  7.500000e-001
    endloop
  endfacet
  facet normal  0.000000e+000  0.000000e+000  1.000000e+000
    outer loop
      vertex  1.151316e-003 -1.250000e-001  7.500000e-001
      vertex -5.411184e-002  1.093750e-001  7.500000e-001
      vertex -5.411184e-002 -1.250000e-001  7.500000e-001
    endloop
  endfacet
  facet normal  1.000000e+000  0.000000e+000  0.000000e+000
    outer loop
      vertex  1.151316e-003 -1.250000e-001 -6.767785e-018
      vertex  1.151316e-003  1.250000e-001 -6.767785e-018
      vertex  1.151316e-003 -1.250000e-001  7.500000e-001
    endloop
  endfacet
  facet normal  1.000000e+000  0.000000e+000  0.000000e+000
    outer loop
      vertex  1.151316e-003 -1.250000e-001  7.500000e-001
      vertex  1.151316e-003  1.250000e-001 -6.767785e-018
      vertex  1.151316e-003  1.250000e-001  7.421875e-001
    endloop
  endfacet
  facet normal  1.000000e+000  0.000000e+000  0.000000e+000
    outer loop
      vertex  1.151316e-003 -1.250000e-001  7.500000e-001
      vertex  1.151316e-003  1.250000e-001  7.421875e-001
      vertex  1.151316e-003  1.093750e-001  7.500000e-001
    endloop
  endfacet
  facet normal  0.000000e+000 -1.000000e+000  -0.000000e+000
    outer loop
      vertex  1.151316e-003 -1.250000e-001 -6.767785e-018
      vertex  1.151316e-003 -1.250000e-001  7.500000e-001
      vertex -1.093750e-001 -1.250000e-001  0.000000e+000
    endloop
  endfacet
  facet normal  0.000000e+000 -1.000000e+000  0.000000e+000
    outer loop
      vertex -1.093750e-001 -1.250000e-001  0.000000e+000
      vertex  1.151316e-003 -1.250000e-001  7.500000e-001
      vertex -5.411184e-002 -1.250000e-001  7.500000e-001
    endloop
  endfacet
  facet normal  -0.000000e+000 -1.000000e+000  0.000000e+000
    outer loop
      vertex -1.093750e-001 -1.250000e-001  0.000000e+000
      vertex -5.411184e-002 -1.250000e-001  7.500000e-001
      vertex -1.093750e-001 -1.250000e-001  7.500000e-001
    endloop
  endfacet
  facet normal -6.123234e-017  0.000000e+000 -1.000000e+000
    outer loop
      vertex -1.093750e-001  1.250000e-001  0.000000e+000
      vertex  1.151316e-003  1.250000e-001 -6.767785e-018
      vertex -1.093750e-001 -1.250000e-001  0.000000e+000
    endloop
  endfacet
  facet normal -6.123234e-017  0.000000e+000 -1.000000e+000
    outer loop
      vertex -1.093750e-001 -1.250000e-001  0.000000e+000
      vertex  1.151316e-003  1.250000e-001 -6.767785e-018
      vertex  1.151316e-003 -1.250000e-001 -6.767785e-018
    endloop
  endfacet
endsolid CATIA STL
