solid CATIA STL
  facet normal -1.000000e+000  0.000000e+000 -5.551115e-017
    outer loop
      vertex -2.350094e-017 -2.328946e-001  4.936678e-001
      vertex -2.304937e-017 -1.503021e-001  4.855331e-001
      vertex -2.304938e-017 -3.154871e-001  4.855331e-001
    endloop
  endfacet
  facet normal -1.000000e+000  0.000000e+000 -5.551115e-017
    outer loop
      vertex  2.340069e-017 -1.938325e-001 -3.512368e-001
      vertex  2.340069e-017 -2.719571e-001 -3.512368e-001
      vertex  2.260381e-017 -1.170381e-001 -3.368815e-001
    endloop
  endfacet
  facet normal -1.000000e+000  0.000000e+000 -5.551115e-017
    outer loop
      vertex  2.340069e-017 -2.719571e-001 -3.512368e-001
      vertex  2.260380e-017 -3.487515e-001 -3.368814e-001
      vertex  2.260381e-017 -1.170381e-001 -3.368815e-001
    endloop
  endfacet
  facet normal -1.000000e+000  0.000000e+000 -5.551115e-017
    outer loop
      vertex  2.260381e-017 -1.170381e-001 -3.368815e-001
      vertex  2.260380e-017 -3.487515e-001 -3.368814e-001
      vertex  2.103717e-017 -4.216005e-001 -3.086596e-001
    endloop
  endfacet
  facet normal -1.000000e+000  0.000000e+000 -5.551115e-017
    outer loop
      vertex  2.260381e-017 -1.170381e-001 -3.368815e-001
      vertex  2.103717e-017 -4.216005e-001 -3.086596e-001
      vertex  2.103718e-017 -4.418909e-002 -3.086596e-001
    endloop
  endfacet
  facet normal -1.000000e+000  0.000000e+000 -5.551115e-017
    outer loop
      vertex  2.103718e-017 -4.418909e-002 -3.086596e-001
      vertex  2.103717e-017 -4.216005e-001 -3.086596e-001
      vertex  1.875415e-017 -4.880233e-001 -2.675323e-001
    endloop
  endfacet
  facet normal -9.999999e-001  0.000000e+000 -5.551115e-017
    outer loop
      vertex  2.103718e-017 -4.418909e-002 -3.086596e-001
      vertex  1.875415e-017 -4.880233e-001 -2.675323e-001
      vertex  1.875415e-017  2.223379e-002 -2.675323e-001
    endloop
  endfacet
  facet normal -1.000000e+000  0.000000e+000 -5.551115e-017
    outer loop
      vertex  1.875415e-017  2.223379e-002 -2.675323e-001
      vertex  1.875415e-017 -4.880233e-001 -2.675323e-001
      vertex  1.583248e-017 -5.457581e-001 -2.149000e-001
    endloop
  endfacet
  facet normal -1.000000e+000  0.000000e+000 -5.551115e-017
    outer loop
      vertex  1.875415e-017  2.223379e-002 -2.675323e-001
      vertex  1.583248e-017 -5.457581e-001 -2.149000e-001
      vertex  1.583248e-017  7.996856e-002 -2.149001e-001
    endloop
  endfacet
  facet normal -9.999999e-001  0.000000e+000 -5.551115e-017
    outer loop
      vertex  1.583248e-017  7.996856e-002 -2.149001e-001
      vertex  1.583248e-017 -5.457581e-001 -2.149000e-001
      vertex  1.237165e-017 -5.928387e-001 -1.525553e-001
    endloop
  endfacet
  facet normal -1.000000e+000  0.000000e+000 -5.551115e-017
    outer loop
      vertex  1.583248e-017  7.996856e-002 -2.149001e-001
      vertex  1.237165e-017 -5.928387e-001 -1.525553e-001
      vertex  1.237165e-017  1.270491e-001 -1.525553e-001
    endloop
  endfacet
  facet normal -1.000000e+000 -7.344917e-031 -5.551116e-017
    outer loop
      vertex  1.237165e-017  1.270491e-001 -1.525553e-001
      vertex  1.237165e-017 -5.928387e-001 -1.525553e-001
      vertex  8.489513e-018 -6.276618e-001 -8.262099e-002
    endloop
  endfacet
  facet normal -9.999999e-001  5.238410e-025 -5.551115e-017
    outer loop
      vertex  1.237165e-017  1.270491e-001 -1.525553e-001
      vertex  8.489513e-018 -6.276618e-001 -8.262099e-002
      vertex  8.489518e-018  1.618723e-001 -8.262107e-002
    endloop
  endfacet
  facet normal -1.000000e+000  5.238416e-025 -5.551114e-017
    outer loop
      vertex  8.489518e-018  1.618723e-001 -8.262107e-002
      vertex  8.489513e-018 -6.276618e-001 -8.262099e-002
      vertex  4.318281e-018 -6.490416e-001 -7.478740e-003
    endloop
  endfacet
  facet normal -1.000000e+000  3.726967e-025 -5.551115e-017
    outer loop
      vertex  8.489518e-018  1.618723e-001 -8.262107e-002
      vertex  4.318281e-018 -6.490416e-001 -7.478740e-003
      vertex  4.318286e-018  1.832521e-001 -7.478831e-003
    endloop
  endfacet
  facet normal -1.000000e+000  3.726967e-025 -5.551114e-017
    outer loop
      vertex  4.318286e-018  1.832521e-001 -7.478831e-003
      vertex  4.318281e-018 -6.490416e-001 -7.478740e-003
      vertex -1.799163e-023 -6.562500e-001  7.031283e-002
    endloop
  endfacet
  facet normal -1.000000e+000 -2.436998e-025 -5.551115e-017
    outer loop
      vertex  4.318286e-018  1.832521e-001 -7.478831e-003
      vertex -1.799163e-023 -6.562500e-001  7.031283e-002
      vertex  6.647544e-033  1.904605e-001  7.031250e-002
    endloop
  endfacet
  facet normal -1.000000e+000 -2.436998e-025 -5.551116e-017
    outer loop
      vertex  6.647544e-033  1.904605e-001  7.031250e-002
      vertex -1.799163e-023 -6.562500e-001  7.031283e-002
      vertex -4.584822e-018 -6.481153e-001  1.529053e-001
    endloop
  endfacet
  facet normal -1.000000e+000 -4.980389e-025 -5.551116e-017
    outer loop
      vertex  6.647544e-033  1.904605e-001  7.031250e-002
      vertex -4.584822e-018 -6.481153e-001  1.529053e-001
      vertex -4.584804e-018  1.823259e-001  1.529050e-001
    endloop
  endfacet
  facet normal -1.000000e+000 -4.980368e-025 -5.551115e-017
    outer loop
      vertex -4.584804e-018  1.823259e-001  1.529050e-001
      vertex -4.584822e-018 -6.481153e-001  1.529053e-001
      vertex -8.993434e-018 -6.240239e-001  2.323238e-001
    endloop
  endfacet
  facet normal -1.000000e+000  1.984031e-030 -5.551114e-017
    outer loop
      vertex -4.584804e-018  1.823259e-001  1.529050e-001
      vertex -8.993434e-018 -6.240239e-001  2.323238e-001
      vertex -8.993418e-018  1.582345e-001  2.323235e-001
    endloop
  endfacet
  facet normal -1.000000e+000  0.000000e+000 -5.551115e-017
    outer loop
      vertex -8.993418e-018  1.582345e-001  2.323235e-001
      vertex -8.993434e-018 -6.240239e-001  2.323238e-001
      vertex -1.305643e-017 -5.849016e-001  3.055163e-001
    endloop
  endfacet
  facet normal -1.000000e+000  0.000000e+000 -5.551115e-017
    outer loop
      vertex -8.993418e-018  1.582345e-001  2.323235e-001
      vertex -1.305643e-017 -5.849016e-001  3.055163e-001
      vertex -1.305642e-017  1.191123e-001  3.055160e-001
    endloop
  endfacet
  facet normal -1.000000e+000  0.000000e+000 -5.551115e-017
    outer loop
      vertex -1.305642e-017  1.191123e-001  3.055160e-001
      vertex -1.305643e-017 -5.849016e-001  3.055163e-001
      vertex -1.661768e-017 -5.322520e-001  3.696701e-001
    endloop
  endfacet
  facet normal -1.000000e+000  0.000000e+000 -5.551115e-017
    outer loop
      vertex -1.305642e-017  1.191123e-001  3.055160e-001
      vertex -1.661768e-017 -5.322520e-001  3.696701e-001
      vertex -1.661767e-017  6.646270e-002  3.696698e-001
    endloop
  endfacet
  facet normal -1.000000e+000  0.000000e+000 -5.551115e-017
    outer loop
      vertex -1.661767e-017  6.646270e-002  3.696698e-001
      vertex -1.661768e-017 -5.322520e-001  3.696701e-001
      vertex -1.954032e-017 -4.680981e-001  4.223197e-001
    endloop
  endfacet
  facet normal -1.000000e+000  0.000000e+000 -5.551115e-017
    outer loop
      vertex -1.661767e-017  6.646270e-002  3.696698e-001
      vertex -1.954032e-017 -4.680981e-001  4.223197e-001
      vertex -1.954031e-017  2.308930e-003  4.223195e-001
    endloop
  endfacet
  facet normal -1.000000e+000  0.000000e+000 -5.551115e-017
    outer loop
      vertex -1.954031e-017  2.308930e-003  4.223195e-001
      vertex -1.954032e-017 -4.680981e-001  4.223197e-001
      vertex -2.171204e-017 -3.949056e-001  4.614418e-001
    endloop
  endfacet
  facet normal -9.999999e-001  0.000000e+000 -5.551115e-017
    outer loop
      vertex -1.954031e-017  2.308930e-003  4.223195e-001
      vertex -2.171204e-017 -3.949056e-001  4.614418e-001
      vertex -2.171203e-017 -7.088358e-002  4.614417e-001
    endloop
  endfacet
  facet normal -1.000000e+000  0.000000e+000 -5.551115e-017
    outer loop
      vertex -2.171203e-017 -7.088358e-002  4.614417e-001
      vertex -2.171204e-017 -3.949056e-001  4.614418e-001
      vertex -2.304938e-017 -3.154871e-001  4.855331e-001
    endloop
  endfacet
  facet normal -1.000000e+000  0.000000e+000 -5.551115e-017
    outer loop
      vertex -2.171203e-017 -7.088358e-002  4.614417e-001
      vertex -2.304938e-017 -3.154871e-001  4.855331e-001
      vertex -2.304937e-017 -1.503021e-001  4.855331e-001
    endloop
  endfacet
  facet normal  0.000000e+000  9.951848e-001 -9.801716e-002
    outer loop
      vertex  1.562500e-002  2.842105e-001  7.031250e-002
      vertex  4.531250e-001  2.842105e-001  7.031250e-002
      vertex  1.562500e-002  2.742745e-001 -3.056973e-002
    endloop
  endfacet
  facet normal  0.000000e+000  9.951848e-001 -9.801716e-002
    outer loop
      vertex  1.562500e-002  2.742745e-001 -3.056973e-002
      vertex  4.531250e-001  2.842105e-001  7.031250e-002
      vertex  4.531250e-001  2.742745e-001 -3.056973e-002
    endloop
  endfacet
  facet normal  0.000000e+000  9.569404e-001 -2.902847e-001
    outer loop
      vertex  1.562500e-002  2.742745e-001 -3.056973e-002
      vertex  4.531250e-001  2.742745e-001 -3.056973e-002
      vertex  1.562500e-002  2.448482e-001 -1.275751e-001
    endloop
  endfacet
  facet normal  0.000000e+000  9.569404e-001 -2.902847e-001
    outer loop
      vertex  1.562500e-002  2.448482e-001 -1.275751e-001
      vertex  4.531250e-001  2.742745e-001 -3.056973e-002
      vertex  4.531250e-001  2.448482e-001 -1.275751e-001
    endloop
  endfacet
  facet normal  0.000000e+000  8.819213e-001 -4.713967e-001
    outer loop
      vertex  1.562500e-002  2.448482e-001 -1.275751e-001
      vertex  4.531250e-001  2.448482e-001 -1.275751e-001
      vertex  1.562500e-002  1.970626e-001 -2.169758e-001
    endloop
  endfacet
  facet normal  0.000000e+000  8.819213e-001 -4.713967e-001
    outer loop
      vertex  1.562500e-002  1.970626e-001 -2.169758e-001
      vertex  4.531250e-001  2.448482e-001 -1.275751e-001
      vertex  4.531250e-001  1.970626e-001 -2.169758e-001
    endloop
  endfacet
  facet normal  0.000000e+000  7.730104e-001 -6.343933e-001
    outer loop
      vertex  1.562500e-002  1.970626e-001 -2.169758e-001
      vertex  4.531250e-001  1.970626e-001 -2.169758e-001
      vertex  1.562500e-002  1.327539e-001 -2.953361e-001
    endloop
  endfacet
  facet normal  0.000000e+000  7.730104e-001 -6.343933e-001
    outer loop
      vertex  1.562500e-002  1.327539e-001 -2.953361e-001
      vertex  4.531250e-001  1.970626e-001 -2.169758e-001
      vertex  4.531250e-001  1.327539e-001 -2.953361e-001
    endloop
  endfacet
  facet normal  0.000000e+000  6.343932e-001 -7.730105e-001
    outer loop
      vertex  1.562500e-002  1.327539e-001 -2.953361e-001
      vertex  4.531250e-001  1.327539e-001 -2.953361e-001
      vertex  1.562500e-002  5.439356e-002 -3.596448e-001
    endloop
  endfacet
  facet normal  0.000000e+000  6.343932e-001 -7.730105e-001
    outer loop
      vertex  1.562500e-002  5.439356e-002 -3.596448e-001
      vertex  4.531250e-001  1.327539e-001 -2.953361e-001
      vertex  4.531250e-001  5.439356e-002 -3.596448e-001
    endloop
  endfacet
  facet normal  0.000000e+000  4.713968e-001 -8.819212e-001
    outer loop
      vertex  1.562500e-002  5.439356e-002 -3.596448e-001
      vertex  4.531250e-001  5.439356e-002 -3.596448e-001
      vertex  1.562500e-002 -3.500712e-002 -4.074305e-001
    endloop
  endfacet
  facet normal  0.000000e+000  4.713968e-001 -8.819212e-001
    outer loop
      vertex  1.562500e-002 -3.500712e-002 -4.074305e-001
      vertex  4.531250e-001  5.439356e-002 -3.596448e-001
      vertex  4.531250e-001 -3.500712e-002 -4.074305e-001
    endloop
  endfacet
  facet normal  0.000000e+000  2.902845e-001 -9.569404e-001
    outer loop
      vertex  1.562500e-002 -3.500712e-002 -4.074305e-001
      vertex  4.531250e-001 -3.500712e-002 -4.074305e-001
      vertex  1.562500e-002 -1.320125e-001 -4.368567e-001
    endloop
  endfacet
  facet normal  0.000000e+000  2.902845e-001 -9.569404e-001
    outer loop
      vertex  1.562500e-002 -1.320125e-001 -4.368567e-001
      vertex  4.531250e-001 -3.500712e-002 -4.074305e-001
      vertex  4.531250e-001 -1.320125e-001 -4.368567e-001
    endloop
  endfacet
  facet normal  0.000000e+000  9.801716e-002 -9.951848e-001
    outer loop
      vertex  1.562500e-002 -1.320125e-001 -4.368567e-001
      vertex  4.531250e-001 -1.320125e-001 -4.368567e-001
      vertex  1.562500e-002 -2.328947e-001 -4.467928e-001
    endloop
  endfacet
  facet normal  0.000000e+000  9.801716e-002 -9.951848e-001
    outer loop
      vertex  1.562500e-002 -2.328947e-001 -4.467928e-001
      vertex  4.531250e-001 -1.320125e-001 -4.368567e-001
      vertex  4.531250e-001 -2.328947e-001 -4.467928e-001
    endloop
  endfacet
  facet normal  -0.000000e+000 -9.801715e-002 -9.951847e-001
    outer loop
      vertex  1.562500e-002 -2.328947e-001 -4.467928e-001
      vertex  4.531250e-001 -2.328947e-001 -4.467928e-001
      vertex  1.562500e-002 -3.337770e-001 -4.368567e-001
    endloop
  endfacet
  facet normal  0.000000e+000 -9.801715e-002 -9.951847e-001
    outer loop
      vertex  1.562500e-002 -3.337770e-001 -4.368567e-001
      vertex  4.531250e-001 -2.328947e-001 -4.467928e-001
      vertex  4.531250e-001 -3.337770e-001 -4.368567e-001
    endloop
  endfacet
  facet normal  -0.000000e+000 -2.902846e-001 -9.569404e-001
    outer loop
      vertex  1.562500e-002 -3.337770e-001 -4.368567e-001
      vertex  4.531250e-001 -3.337770e-001 -4.368567e-001
      vertex  1.562500e-002 -4.307823e-001 -4.074305e-001
    endloop
  endfacet
  facet normal  0.000000e+000 -2.902846e-001 -9.569404e-001
    outer loop
      vertex  1.562500e-002 -4.307823e-001 -4.074305e-001
      vertex  4.531250e-001 -3.337770e-001 -4.368567e-001
      vertex  4.531250e-001 -4.307823e-001 -4.074305e-001
    endloop
  endfacet
  facet normal  -0.000000e+000 -4.713968e-001 -8.819212e-001
    outer loop
      vertex  1.562500e-002 -4.307823e-001 -4.074305e-001
      vertex  4.531250e-001 -4.307823e-001 -4.074305e-001
      vertex  1.562500e-002 -5.201830e-001 -3.596448e-001
    endloop
  endfacet
  facet normal  0.000000e+000 -4.713968e-001 -8.819212e-001
    outer loop
      vertex  1.562500e-002 -5.201830e-001 -3.596448e-001
      vertex  4.531250e-001 -4.307823e-001 -4.074305e-001
      vertex  4.531250e-001 -5.201830e-001 -3.596448e-001
    endloop
  endfacet
  facet normal  -0.000000e+000 -6.343934e-001 -7.730103e-001
    outer loop
      vertex  1.562500e-002 -5.201830e-001 -3.596448e-001
      vertex  4.531250e-001 -5.201830e-001 -3.596448e-001
      vertex  1.562500e-002 -5.985433e-001 -2.953361e-001
    endloop
  endfacet
  facet normal  0.000000e+000 -6.343934e-001 -7.730103e-001
    outer loop
      vertex  1.562500e-002 -5.985433e-001 -2.953361e-001
      vertex  4.531250e-001 -5.201830e-001 -3.596448e-001
      vertex  4.531250e-001 -5.985433e-001 -2.953361e-001
    endloop
  endfacet
  facet normal  -0.000000e+000 -7.730103e-001 -6.343935e-001
    outer loop
      vertex  1.562500e-002 -5.985433e-001 -2.953361e-001
      vertex  4.531250e-001 -5.985433e-001 -2.953361e-001
      vertex  1.562500e-002 -6.628520e-001 -2.169758e-001
    endloop
  endfacet
  facet normal  0.000000e+000 -7.730103e-001 -6.343935e-001
    outer loop
      vertex  1.562500e-002 -6.628520e-001 -2.169758e-001
      vertex  4.531250e-001 -5.985433e-001 -2.953361e-001
      vertex  4.531250e-001 -6.628520e-001 -2.169758e-001
    endloop
  endfacet
  facet normal  -0.000000e+000 -8.819214e-001 -4.713966e-001
    outer loop
      vertex  1.562500e-002 -6.628520e-001 -2.169758e-001
      vertex  4.531250e-001 -6.628520e-001 -2.169758e-001
      vertex  1.562500e-002 -7.106377e-001 -1.275751e-001
    endloop
  endfacet
  facet normal  0.000000e+000 -8.819214e-001 -4.713966e-001
    outer loop
      vertex  1.562500e-002 -7.106377e-001 -1.275751e-001
      vertex  4.531250e-001 -6.628520e-001 -2.169758e-001
      vertex  4.531250e-001 -7.106377e-001 -1.275751e-001
    endloop
  endfacet
  facet normal  -0.000000e+000 -9.569403e-001 -2.902848e-001
    outer loop
      vertex  1.562500e-002 -7.106377e-001 -1.275751e-001
      vertex  4.531250e-001 -7.106377e-001 -1.275751e-001
      vertex  1.562500e-002 -7.400640e-001 -3.056973e-002
    endloop
  endfacet
  facet normal  0.000000e+000 -9.569403e-001 -2.902848e-001
    outer loop
      vertex  1.562500e-002 -7.400640e-001 -3.056973e-002
      vertex  4.531250e-001 -7.106377e-001 -1.275751e-001
      vertex  4.531250e-001 -7.400640e-001 -3.056973e-002
    endloop
  endfacet
  facet normal  -0.000000e+000 -9.951848e-001 -9.801716e-002
    outer loop
      vertex  1.562500e-002 -7.400640e-001 -3.056973e-002
      vertex  4.531250e-001 -7.400640e-001 -3.056973e-002
      vertex  1.562500e-002 -7.500000e-001  7.031250e-002
    endloop
  endfacet
  facet normal  0.000000e+000 -9.951848e-001 -9.801716e-002
    outer loop
      vertex  1.562500e-002 -7.500000e-001  7.031250e-002
      vertex  4.531250e-001 -7.400640e-001 -3.056973e-002
      vertex  4.531250e-001 -7.500000e-001  7.031250e-002
    endloop
  endfacet
  facet normal  0.000000e+000 -9.951848e-001  9.801716e-002
    outer loop
      vertex  1.562500e-002 -7.500000e-001  7.031250e-002
      vertex  4.531250e-001 -7.500000e-001  7.031250e-002
      vertex  1.562500e-002 -7.400640e-001  1.711947e-001
    endloop
  endfacet
  facet normal  0.000000e+000 -9.951848e-001  9.801716e-002
    outer loop
      vertex  1.562500e-002 -7.400640e-001  1.711947e-001
      vertex  4.531250e-001 -7.500000e-001  7.031250e-002
      vertex  4.531250e-001 -7.400640e-001  1.711947e-001
    endloop
  endfacet
  facet normal  0.000000e+000 -9.569404e-001  2.902848e-001
    outer loop
      vertex  1.562500e-002 -7.400640e-001  1.711947e-001
      vertex  4.531250e-001 -7.400640e-001  1.711947e-001
      vertex  1.562500e-002 -7.106377e-001  2.682001e-001
    endloop
  endfacet
  facet normal  0.000000e+000 -9.569404e-001  2.902848e-001
    outer loop
      vertex  1.562500e-002 -7.106377e-001  2.682001e-001
      vertex  4.531250e-001 -7.400640e-001  1.711947e-001
      vertex  4.531250e-001 -7.106377e-001  2.682001e-001
    endloop
  endfacet
  facet normal  0.000000e+000 -8.819212e-001  4.713967e-001
    outer loop
      vertex  1.562500e-002 -7.106377e-001  2.682001e-001
      vertex  4.531250e-001 -7.106377e-001  2.682001e-001
      vertex  1.562500e-002 -6.628520e-001  3.576008e-001
    endloop
  endfacet
  facet normal  0.000000e+000 -8.819212e-001  4.713967e-001
    outer loop
      vertex  1.562500e-002 -6.628520e-001  3.576008e-001
      vertex  4.531250e-001 -7.106377e-001  2.682001e-001
      vertex  4.531250e-001 -6.628520e-001  3.576008e-001
    endloop
  endfacet
  facet normal  0.000000e+000 -7.730104e-001  6.343935e-001
    outer loop
      vertex  1.562500e-002 -6.628520e-001  3.576008e-001
      vertex  4.531250e-001 -6.628520e-001  3.576008e-001
      vertex  1.562500e-002 -5.985433e-001  4.359611e-001
    endloop
  endfacet
  facet normal  0.000000e+000 -7.730104e-001  6.343935e-001
    outer loop
      vertex  1.562500e-002 -5.985433e-001  4.359611e-001
      vertex  4.531250e-001 -6.628520e-001  3.576008e-001
      vertex  4.531250e-001 -5.985433e-001  4.359611e-001
    endloop
  endfacet
  facet normal  0.000000e+000 -6.343936e-001  7.730102e-001
    outer loop
      vertex  1.562500e-002 -5.985433e-001  4.359611e-001
      vertex  4.531250e-001 -5.985433e-001  4.359611e-001
      vertex  1.562500e-002 -5.201830e-001  5.002698e-001
    endloop
  endfacet
  facet normal  0.000000e+000 -6.343936e-001  7.730102e-001
    outer loop
      vertex  1.562500e-002 -5.201830e-001  5.002698e-001
      vertex  4.531250e-001 -5.985433e-001  4.359611e-001
      vertex  4.531250e-001 -5.201830e-001  5.002698e-001
    endloop
  endfacet
  facet normal  0.000000e+000 -4.713966e-001  8.819214e-001
    outer loop
      vertex  1.562500e-002 -5.201830e-001  5.002698e-001
      vertex  4.531250e-001 -5.201830e-001  5.002698e-001
      vertex  1.562500e-002 -4.307823e-001  5.480555e-001
    endloop
  endfacet
  facet normal  0.000000e+000 -4.713966e-001  8.819214e-001
    outer loop
      vertex  1.562500e-002 -4.307823e-001  5.480555e-001
      vertex  4.531250e-001 -5.201830e-001  5.002698e-001
      vertex  4.531250e-001 -4.307823e-001  5.480555e-001
    endloop
  endfacet
  facet normal  0.000000e+000 -2.902848e-001  9.569403e-001
    outer loop
      vertex  1.562500e-002 -4.307823e-001  5.480555e-001
      vertex  4.531250e-001 -4.307823e-001  5.480555e-001
      vertex  1.562500e-002 -3.337770e-001  5.774817e-001
    endloop
  endfacet
  facet normal  0.000000e+000 -2.902848e-001  9.569403e-001
    outer loop
      vertex  1.562500e-002 -3.337770e-001  5.774817e-001
      vertex  4.531250e-001 -4.307823e-001  5.480555e-001
      vertex  4.531250e-001 -3.337770e-001  5.774817e-001
    endloop
  endfacet
  facet normal  0.000000e+000 -9.801715e-002  9.951847e-001
    outer loop
      vertex  1.562500e-002 -3.337770e-001  5.774817e-001
      vertex  4.531250e-001 -3.337770e-001  5.774817e-001
      vertex  1.562500e-002 -2.328947e-001  5.874178e-001
    endloop
  endfacet
  facet normal  0.000000e+000 -9.801715e-002  9.951847e-001
    outer loop
      vertex  1.562500e-002 -2.328947e-001  5.874178e-001
      vertex  4.531250e-001 -3.337770e-001  5.774817e-001
      vertex  4.531250e-001 -2.328947e-001  5.874178e-001
    endloop
  endfacet
  facet normal  0.000000e+000  9.801716e-002  9.951848e-001
    outer loop
      vertex  1.562500e-002 -2.328947e-001  5.874178e-001
      vertex  4.531250e-001 -2.328947e-001  5.874178e-001
      vertex  1.562500e-002 -1.320125e-001  5.774817e-001
    endloop
  endfacet
  facet normal  -0.000000e+000  9.801716e-002  9.951848e-001
    outer loop
      vertex  1.562500e-002 -1.320125e-001  5.774817e-001
      vertex  4.531250e-001 -2.328947e-001  5.874178e-001
      vertex  4.531250e-001 -1.320125e-001  5.774817e-001
    endloop
  endfacet
  facet normal  0.000000e+000  2.902848e-001  9.569403e-001
    outer loop
      vertex  1.562500e-002 -1.320125e-001  5.774817e-001
      vertex  4.531250e-001 -1.320125e-001  5.774817e-001
      vertex  1.562500e-002 -3.500712e-002  5.480555e-001
    endloop
  endfacet
  facet normal  -0.000000e+000  2.902848e-001  9.569403e-001
    outer loop
      vertex  1.562500e-002 -3.500712e-002  5.480555e-001
      vertex  4.531250e-001 -1.320125e-001  5.774817e-001
      vertex  4.531250e-001 -3.500712e-002  5.480555e-001
    endloop
  endfacet
  facet normal  0.000000e+000  4.713966e-001  8.819214e-001
    outer loop
      vertex  1.562500e-002 -3.500712e-002  5.480555e-001
      vertex  4.531250e-001 -3.500712e-002  5.480555e-001
      vertex  1.562500e-002  5.439356e-002  5.002698e-001
    endloop
  endfacet
  facet normal  -0.000000e+000  4.713966e-001  8.819214e-001
    outer loop
      vertex  1.562500e-002  5.439356e-002  5.002698e-001
      vertex  4.531250e-001 -3.500712e-002  5.480555e-001
      vertex  4.531250e-001  5.439356e-002  5.002698e-001
    endloop
  endfacet
  facet normal  0.000000e+000  6.343935e-001  7.730104e-001
    outer loop
      vertex  1.562500e-002  5.439356e-002  5.002698e-001
      vertex  4.531250e-001  5.439356e-002  5.002698e-001
      vertex  1.562500e-002  1.327539e-001  4.359611e-001
    endloop
  endfacet
  facet normal  -0.000000e+000  6.343935e-001  7.730104e-001
    outer loop
      vertex  1.562500e-002  1.327539e-001  4.359611e-001
      vertex  4.531250e-001  5.439356e-002  5.002698e-001
      vertex  4.531250e-001  1.327539e-001  4.359611e-001
    endloop
  endfacet
  facet normal  0.000000e+000  7.730105e-001  6.343932e-001
    outer loop
      vertex  1.562500e-002  1.327539e-001  4.359611e-001
      vertex  4.531250e-001  1.327539e-001  4.359611e-001
      vertex  1.562500e-002  1.970626e-001  3.576008e-001
    endloop
  endfacet
  facet normal  -0.000000e+000  7.730105e-001  6.343932e-001
    outer loop
      vertex  1.562500e-002  1.970626e-001  3.576008e-001
      vertex  4.531250e-001  1.327539e-001  4.359611e-001
      vertex  4.531250e-001  1.970626e-001  3.576008e-001
    endloop
  endfacet
  facet normal  0.000000e+000  8.819212e-001  4.713968e-001
    outer loop
      vertex  1.562500e-002  1.970626e-001  3.576008e-001
      vertex  4.531250e-001  1.970626e-001  3.576008e-001
      vertex  1.562500e-002  2.448482e-001  2.682001e-001
    endloop
  endfacet
  facet normal  -0.000000e+000  8.819212e-001  4.713968e-001
    outer loop
      vertex  1.562500e-002  2.448482e-001  2.682001e-001
      vertex  4.531250e-001  1.970626e-001  3.576008e-001
      vertex  4.531250e-001  2.448482e-001  2.682001e-001
    endloop
  endfacet
  facet normal  0.000000e+000  9.569404e-001  2.902846e-001
    outer loop
      vertex  1.562500e-002  2.448482e-001  2.682001e-001
      vertex  4.531250e-001  2.448482e-001  2.682001e-001
      vertex  1.562500e-002  2.742745e-001  1.711947e-001
    endloop
  endfacet
  facet normal  -0.000000e+000  9.569404e-001  2.902846e-001
    outer loop
      vertex  1.562500e-002  2.742745e-001  1.711947e-001
      vertex  4.531250e-001  2.448482e-001  2.682001e-001
      vertex  4.531250e-001  2.742745e-001  1.711947e-001
    endloop
  endfacet
  facet normal  0.000000e+000  9.951848e-001  9.801716e-002
    outer loop
      vertex  1.562500e-002  2.742745e-001  1.711947e-001
      vertex  4.531250e-001  2.742745e-001  1.711947e-001
      vertex  1.562500e-002  2.842105e-001  7.031250e-002
    endloop
  endfacet
  facet normal  -0.000000e+000  9.951848e-001  9.801716e-002
    outer loop
      vertex  1.562500e-002  2.842105e-001  7.031250e-002
      vertex  4.531250e-001  2.742745e-001  1.711947e-001
      vertex  4.531250e-001  2.842105e-001  7.031250e-002
    endloop
  endfacet
  facet normal -9.862646e-001 -1.580605e-001  4.794715e-002
    outer loop
      vertex  1.562500e-002 -7.400640e-001  1.711947e-001
      vertex  1.562500e-002 -7.106377e-001  2.682001e-001
      vertex -8.993434e-018 -6.240239e-001  2.323238e-001
    endloop
  endfacet
  facet normal -9.862646e-001  1.643774e-001  1.618977e-002
    outer loop
      vertex  1.562500e-002  2.842105e-001  7.031250e-002
      vertex  6.647544e-033  1.904605e-001  7.031250e-002
      vertex  1.562500e-002  2.742745e-001  1.711947e-001
    endloop
  endfacet
  facet normal -9.862646e-001  1.456694e-001  7.786192e-002
    outer loop
      vertex  1.562500e-002  1.970626e-001  3.576008e-001
      vertex  1.562500e-002  2.448482e-001  2.682001e-001
      vertex -8.993418e-018  1.582345e-001  2.323235e-001
    endloop
  endfacet
  facet normal -9.862647e-001  1.047845e-001  1.276803e-001
    outer loop
      vertex  1.562500e-002  5.439356e-002  5.002698e-001
      vertex  1.562500e-002  1.327539e-001  4.359611e-001
      vertex -1.661767e-017  6.646270e-002  3.696698e-001
    endloop
  endfacet
  facet normal -9.862646e-001  4.794715e-002  1.580605e-001
    outer loop
      vertex  1.562500e-002 -1.320125e-001  5.774817e-001
      vertex  1.562500e-002 -3.500712e-002  5.480555e-001
      vertex -2.171203e-017 -7.088358e-002  4.614417e-001
    endloop
  endfacet
  facet normal -9.862646e-001 -1.618976e-002  1.643774e-001
    outer loop
      vertex  1.562500e-002 -3.337770e-001  5.774817e-001
      vertex  1.562500e-002 -2.328947e-001  5.874178e-001
      vertex -2.350094e-017 -2.328946e-001  4.936678e-001
    endloop
  endfacet
  facet normal -9.862646e-001 -7.786188e-002  1.456694e-001
    outer loop
      vertex  1.562500e-002 -5.201830e-001  5.002698e-001
      vertex  1.562500e-002 -4.307823e-001  5.480555e-001
      vertex -2.171204e-017 -3.949056e-001  4.614418e-001
    endloop
  endfacet
  facet normal -9.862646e-001 -1.276803e-001  1.047846e-001
    outer loop
      vertex  1.562500e-002 -6.628520e-001  3.576008e-001
      vertex  1.562500e-002 -5.985433e-001  4.359611e-001
      vertex -1.661768e-017 -5.322520e-001  3.696701e-001
    endloop
  endfacet
  facet normal -9.899702e-001 -1.405960e-001  1.384750e-002
    outer loop
      vertex  1.562500e-002 -7.400640e-001  1.711947e-001
      vertex -8.993434e-018 -6.240239e-001  2.323238e-001
      vertex  1.562500e-002 -7.500000e-001  7.031250e-002
    endloop
  endfacet
  facet normal -9.781546e-001 -1.989272e-001  6.034398e-002
    outer loop
      vertex  1.562500e-002 -7.500000e-001  7.031250e-002
      vertex -8.993434e-018 -6.240239e-001  2.323238e-001
      vertex -4.584822e-018 -6.481153e-001  1.529053e-001
    endloop
  endfacet
  facet normal -9.862646e-001 -1.643775e-001  1.618991e-002
    outer loop
      vertex  1.562500e-002 -7.500000e-001  7.031250e-002
      vertex -4.584822e-018 -6.481153e-001  1.529053e-001
      vertex -1.799163e-023 -6.562500e-001  7.031283e-002
    endloop
  endfacet
  facet normal -9.899702e-001  1.351931e-001  4.101036e-002
    outer loop
      vertex  1.562500e-002  2.742745e-001  1.711947e-001
      vertex  6.647544e-033  1.904605e-001  7.031250e-002
      vertex  1.562500e-002  2.448482e-001  2.682001e-001
    endloop
  endfacet
  facet normal -9.781547e-001  2.068773e-001  2.037563e-002
    outer loop
      vertex  1.562500e-002  2.448482e-001  2.682001e-001
      vertex  6.647544e-033  1.904605e-001  7.031250e-002
      vertex -4.584804e-018  1.823259e-001  1.529050e-001
    endloop
  endfacet
  facet normal -9.862646e-001  1.580605e-001  4.794713e-002
    outer loop
      vertex  1.562500e-002  2.448482e-001  2.682001e-001
      vertex -4.584804e-018  1.823259e-001  1.529050e-001
      vertex -8.993418e-018  1.582345e-001  2.323235e-001
    endloop
  endfacet
  facet normal -9.899702e-001  1.092081e-001  8.962478e-002
    outer loop
      vertex  1.562500e-002  1.970626e-001  3.576008e-001
      vertex -8.993418e-018  1.582345e-001  2.323235e-001
      vertex  1.562500e-002  1.327539e-001  4.359611e-001
    endloop
  endfacet
  facet normal -9.781547e-001  1.833324e-001  9.799314e-002
    outer loop
      vertex  1.562500e-002  1.327539e-001  4.359611e-001
      vertex -8.993418e-018  1.582345e-001  2.323235e-001
      vertex -1.305642e-017  1.191123e-001  3.055160e-001
    endloop
  endfacet
  facet normal -9.862646e-001  1.276803e-001  1.047845e-001
    outer loop
      vertex  1.562500e-002  1.327539e-001  4.359611e-001
      vertex -1.305642e-017  1.191123e-001  3.055160e-001
      vertex -1.661767e-017  6.646270e-002  3.696698e-001
    endloop
  endfacet
  facet normal -9.899702e-001  6.659718e-002  1.245946e-001
    outer loop
      vertex  1.562500e-002  5.439356e-002  5.002698e-001
      vertex -1.661767e-017  6.646270e-002  3.696698e-001
      vertex  1.562500e-002 -3.500712e-002  5.480555e-001
    endloop
  endfacet
  facet normal -9.781547e-001  1.318766e-001  1.606921e-001
    outer loop
      vertex  1.562500e-002 -3.500712e-002  5.480555e-001
      vertex -1.661767e-017  6.646270e-002  3.696698e-001
      vertex -1.954031e-017  2.308930e-003  4.223195e-001
    endloop
  endfacet
  facet normal -9.862646e-001  7.786200e-002  1.456694e-001
    outer loop
      vertex  1.562500e-002 -3.500712e-002  5.480555e-001
      vertex -1.954031e-017  2.308930e-003  4.223195e-001
      vertex -2.171203e-017 -7.088358e-002  4.614417e-001
    endloop
  endfacet
  facet normal -9.899702e-001  1.384750e-002  1.405960e-001
    outer loop
      vertex  1.562500e-002 -1.320125e-001  5.774817e-001
      vertex -2.171203e-017 -7.088358e-002  4.614417e-001
      vertex  1.562500e-002 -2.328947e-001  5.874178e-001
    endloop
  endfacet
  facet normal -9.781547e-001  6.034396e-002  1.989272e-001
    outer loop
      vertex  1.562500e-002 -2.328947e-001  5.874178e-001
      vertex -2.171203e-017 -7.088358e-002  4.614417e-001
      vertex -2.304937e-017 -1.503021e-001  4.855331e-001
    endloop
  endfacet
  facet normal -9.862646e-001  1.618979e-002  1.643774e-001
    outer loop
      vertex  1.562500e-002 -2.328947e-001  5.874178e-001
      vertex -2.304937e-017 -1.503021e-001  4.855331e-001
      vertex -2.350094e-017 -2.328946e-001  4.936678e-001
    endloop
  endfacet
  facet normal -9.899701e-001 -4.101036e-002  1.351929e-001
    outer loop
      vertex  1.562500e-002 -3.337770e-001  5.774817e-001
      vertex -2.350094e-017 -2.328946e-001  4.936678e-001
      vertex  1.562500e-002 -4.307823e-001  5.480555e-001
    endloop
  endfacet
  facet normal -9.781547e-001 -2.037553e-002  2.068775e-001
    outer loop
      vertex  1.562500e-002 -4.307823e-001  5.480555e-001
      vertex -2.350094e-017 -2.328946e-001  4.936678e-001
      vertex -2.304938e-017 -3.154871e-001  4.855331e-001
    endloop
  endfacet
  facet normal -9.862646e-001 -4.794707e-002  1.580606e-001
    outer loop
      vertex  1.562500e-002 -4.307823e-001  5.480555e-001
      vertex -2.304938e-017 -3.154871e-001  4.855331e-001
      vertex -2.171204e-017 -3.949056e-001  4.614418e-001
    endloop
  endfacet
  facet normal -9.899701e-001 -8.962475e-002  1.092080e-001
    outer loop
      vertex  1.562500e-002 -5.201830e-001  5.002698e-001
      vertex -2.171204e-017 -3.949056e-001  4.614418e-001
      vertex  1.562500e-002 -5.985433e-001  4.359611e-001
    endloop
  endfacet
  facet normal -9.781547e-001 -9.799317e-002  1.833325e-001
    outer loop
      vertex  1.562500e-002 -5.985433e-001  4.359611e-001
      vertex -2.171204e-017 -3.949056e-001  4.614418e-001
      vertex -1.954032e-017 -4.680981e-001  4.223197e-001
    endloop
  endfacet
  facet normal -9.862646e-001 -1.047845e-001  1.276805e-001
    outer loop
      vertex  1.562500e-002 -5.985433e-001  4.359611e-001
      vertex -1.954032e-017 -4.680981e-001  4.223197e-001
      vertex -1.661768e-017 -5.322520e-001  3.696701e-001
    endloop
  endfacet
  facet normal -9.899702e-001 -1.245946e-001  6.659719e-002
    outer loop
      vertex  1.562500e-002 -6.628520e-001  3.576008e-001
      vertex -1.661768e-017 -5.322520e-001  3.696701e-001
      vertex  1.562500e-002 -7.106377e-001  2.682001e-001
    endloop
  endfacet
  facet normal -9.781547e-001 -1.606922e-001  1.318768e-001
    outer loop
      vertex  1.562500e-002 -7.106377e-001  2.682001e-001
      vertex -1.661768e-017 -5.322520e-001  3.696701e-001
      vertex -1.305643e-017 -5.849016e-001  3.055163e-001
    endloop
  endfacet
  facet normal -9.862646e-001 -1.456694e-001  7.786210e-002
    outer loop
      vertex  1.562500e-002 -7.106377e-001  2.682001e-001
      vertex -1.305643e-017 -5.849016e-001  3.055163e-001
      vertex -8.993434e-018 -6.240239e-001  2.323238e-001
    endloop
  endfacet
  facet normal -9.879833e-001  4.486642e-002 -1.479049e-001
    outer loop
      vertex  2.340069e-017 -1.938325e-001 -3.512368e-001
      vertex  1.562500e-002 -3.500712e-002 -4.074305e-001
      vertex  1.562500e-002 -1.320125e-001 -4.368567e-001
    endloop
  endfacet
  facet normal -9.856596e-001  1.653999e-002 -1.679333e-001
    outer loop
      vertex  1.562500e-002 -1.320125e-001 -4.368567e-001
      vertex  1.562500e-002 -2.328947e-001 -4.467928e-001
      vertex  2.340069e-017 -1.938325e-001 -3.512368e-001
    endloop
  endfacet
  facet normal -9.884588e-001  9.610375e-002 -1.171028e-001
    outer loop
      vertex  2.103718e-017 -4.418909e-002 -3.086596e-001
      vertex  1.562500e-002  1.327539e-001 -2.953361e-001
      vertex  1.562500e-002  5.439356e-002 -3.596448e-001
    endloop
  endfacet
  facet normal -9.857116e-001  7.940304e-002 -1.485526e-001
    outer loop
      vertex  1.562500e-002  5.439356e-002 -3.596448e-001
      vertex  1.562500e-002 -3.500712e-002 -4.074305e-001
      vertex  2.103718e-017 -4.418909e-002 -3.086596e-001
    endloop
  endfacet
  facet normal -9.868562e-001  5.837693e-002 -1.506883e-001
    outer loop
      vertex  2.103718e-017 -4.418909e-002 -3.086596e-001
      vertex  1.562500e-002 -3.500712e-002 -4.074305e-001
      vertex  2.260381e-017 -1.170381e-001 -3.368815e-001
    endloop
  endfacet
  facet normal -9.889529e-001  1.307270e-001 -6.987503e-002
    outer loop
      vertex  1.583248e-017  7.996856e-002 -2.149001e-001
      vertex  1.562500e-002  2.448482e-001 -1.275751e-001
      vertex  1.562500e-002  1.970626e-001 -2.169758e-001
    endloop
  endfacet
  facet normal -9.858317e-001  1.296628e-001 -1.064116e-001
    outer loop
      vertex  1.562500e-002  1.970626e-001 -2.169758e-001
      vertex  1.562500e-002  1.327539e-001 -2.953361e-001
      vertex  1.583248e-017  7.996856e-002 -2.149001e-001
    endloop
  endfacet
  facet normal -9.867437e-001  1.093315e-001 -1.199309e-001
    outer loop
      vertex  1.583248e-017  7.996856e-002 -2.149001e-001
      vertex  1.562500e-002  1.327539e-001 -2.953361e-001
      vertex  1.875415e-017  2.223379e-002 -2.675323e-001
    endloop
  endfacet
  facet normal -9.860174e-001  1.594670e-001 -4.837378e-002
    outer loop
      vertex  1.562500e-002  2.742745e-001 -3.056973e-002
      vertex  1.562500e-002  2.448482e-001 -1.275751e-001
      vertex  8.489518e-018  1.618723e-001 -8.262107e-002
    endloop
  endfacet
  facet normal -9.865532e-001  1.463063e-001 -7.285189e-002
    outer loop
      vertex  8.489518e-018  1.618723e-001 -8.262107e-002
      vertex  1.562500e-002  2.448482e-001 -1.275751e-001
      vertex  1.237165e-017  1.270491e-001 -1.525553e-001
    endloop
  endfacet
  facet normal -9.832997e-001  3.344122e-002 -1.788947e-001
    outer loop
      vertex  1.562500e-002 -3.500712e-002 -4.074305e-001
      vertex  2.340069e-017 -1.938325e-001 -3.512368e-001
      vertex  2.260381e-017 -1.170381e-001 -3.368815e-001
    endloop
  endfacet
  facet normal -9.822499e-001  9.874648e-002 -1.594811e-001
    outer loop
      vertex  1.562500e-002  1.327539e-001 -2.953361e-001
      vertex  2.103718e-017 -4.418909e-002 -3.086596e-001
      vertex  1.875415e-017  2.223379e-002 -2.675323e-001
    endloop
  endfacet
  facet normal -9.809738e-001  1.549273e-001 -1.169957e-001
    outer loop
      vertex  1.562500e-002  2.448482e-001 -1.275751e-001
      vertex  1.583248e-017  7.996856e-002 -2.149001e-001
      vertex  1.237165e-017  1.270491e-001 -1.525553e-001
    endloop
  endfacet
  facet normal -9.894587e-001  1.441175e-001 -1.419434e-002
    outer loop
      vertex  1.562500e-002  2.842105e-001  7.031250e-002
      vertex  1.562500e-002  2.742745e-001 -3.056973e-002
      vertex  8.489518e-018  1.618723e-001 -8.262107e-002
    endloop
  endfacet
  facet normal -9.794165e-001  1.941441e-001 -5.523876e-002
    outer loop
      vertex  1.562500e-002  2.842105e-001  7.031250e-002
      vertex  8.489518e-018  1.618723e-001 -8.262107e-002
      vertex  4.318286e-018  1.832521e-001 -7.478831e-003
    endloop
  endfacet
  facet normal -9.862794e-001  1.643799e-001 -1.523206e-002
    outer loop
      vertex  1.562500e-002  2.842105e-001  7.031250e-002
      vertex  4.318286e-018  1.832521e-001 -7.478831e-003
      vertex  6.647544e-033  1.904605e-001  7.031250e-002
    endloop
  endfacet
  facet normal -9.854514e-001 -1.356293e-001 -1.024224e-001
    outer loop
      vertex  1.583248e-017 -5.457581e-001 -2.149000e-001
      vertex  1.562500e-002 -5.985433e-001 -2.953361e-001
      vertex  1.237165e-017 -5.928387e-001 -1.525553e-001
    endloop
  endfacet
  facet normal -9.867396e-001 -1.254684e-001 -1.029694e-001
    outer loop
      vertex  1.237165e-017 -5.928387e-001 -1.525553e-001
      vertex  1.562500e-002 -5.985433e-001 -2.953361e-001
      vertex  1.562500e-002 -6.628520e-001 -2.169758e-001
    endloop
  endfacet
  facet normal -9.856967e-001 -1.508608e-001 -7.511959e-002
    outer loop
      vertex  1.237165e-017 -5.928387e-001 -1.525553e-001
      vertex  1.562500e-002 -6.628520e-001 -2.169758e-001
      vertex  8.489513e-018 -6.276618e-001 -8.262099e-002
    endloop
  endfacet
  facet normal -9.865684e-001 -1.440607e-001 -7.700203e-002
    outer loop
      vertex  8.489513e-018 -6.276618e-001 -8.262099e-002
      vertex  1.562500e-002 -6.628520e-001 -2.169758e-001
      vertex  1.562500e-002 -7.106377e-001 -1.275751e-001
    endloop
  endfacet
  facet normal -9.859156e-001 -1.608593e-001 -4.576845e-002
    outer loop
      vertex  8.489513e-018 -6.276618e-001 -8.262099e-002
      vertex  1.562500e-002 -7.106377e-001 -1.275751e-001
      vertex  4.318281e-018 -6.490416e-001 -7.478740e-003
    endloop
  endfacet
  facet normal -9.869224e-001 -1.022612e-001 -1.246056e-001
    outer loop
      vertex  1.562500e-002 -5.985433e-001 -2.953361e-001
      vertex  1.583248e-017 -5.457581e-001 -2.149000e-001
      vertex  1.562500e-002 -5.201830e-001 -3.596448e-001
    endloop
  endfacet
  facet normal -9.851776e-001 -1.155640e-001 -1.267677e-001
    outer loop
      vertex  1.562500e-002 -5.201830e-001 -3.596448e-001
      vertex  1.583248e-017 -5.457581e-001 -2.149000e-001
      vertex  1.875415e-017 -4.880233e-001 -2.675323e-001
    endloop
  endfacet
  facet normal -9.871165e-001 -7.542514e-002 -1.411105e-001
    outer loop
      vertex  1.562500e-002 -5.201830e-001 -3.596448e-001
      vertex  1.875415e-017 -4.880233e-001 -2.675323e-001
      vertex  1.562500e-002 -4.307823e-001 -4.074305e-001
    endloop
  endfacet
  facet normal -9.848734e-001 -9.121769e-002 -1.473217e-001
    outer loop
      vertex  1.562500e-002 -4.307823e-001 -4.074305e-001
      vertex  1.875415e-017 -4.880233e-001 -2.675323e-001
      vertex  2.103717e-017 -4.216005e-001 -3.086596e-001
    endloop
  endfacet
  facet normal -9.873204e-001 -4.607982e-002 -1.519049e-001
    outer loop
      vertex  1.562500e-002 -4.307823e-001 -4.074305e-001
      vertex  2.103717e-017 -4.216005e-001 -3.086596e-001
      vertex  1.562500e-002 -3.337770e-001 -4.368567e-001
    endloop
  endfacet
  facet normal -9.845365e-001 -6.328233e-002 -1.633504e-001
    outer loop
      vertex  1.562500e-002 -3.337770e-001 -4.368567e-001
      vertex  2.103717e-017 -4.216005e-001 -3.086596e-001
      vertex  2.260380e-017 -3.487515e-001 -3.368814e-001
    endloop
  endfacet
  facet normal -9.875335e-001 -1.542880e-002 -1.566512e-001
    outer loop
      vertex  1.562500e-002 -3.337770e-001 -4.368567e-001
      vertex  2.260380e-017 -3.487515e-001 -3.368814e-001
      vertex  1.562500e-002 -2.328947e-001 -4.467928e-001
    endloop
  endfacet
  facet normal -9.841639e-001 -3.257152e-002 -1.742422e-001
    outer loop
      vertex  1.562500e-002 -2.328947e-001 -4.467928e-001
      vertex  2.260380e-017 -3.487515e-001 -3.368814e-001
      vertex  2.340069e-017 -2.719571e-001 -3.512368e-001
    endloop
  endfacet
  facet normal -9.868933e-001 -6.155948e-008 -1.613736e-001
    outer loop
      vertex  1.562500e-002 -2.328947e-001 -4.467928e-001
      vertex  2.340069e-017 -2.719571e-001 -3.512368e-001
      vertex  2.340069e-017 -1.938325e-001 -3.512368e-001
    endloop
  endfacet
  facet normal -9.775038e-001 -2.100183e-001 -1.946095e-002
    outer loop
      vertex  4.318281e-018 -6.490416e-001 -7.478740e-003
      vertex  1.562500e-002 -7.106377e-001 -1.275751e-001
      vertex -1.799163e-023 -6.562500e-001  7.031283e-002
    endloop
  endfacet
  facet normal -9.899703e-001 -1.351929e-001 -4.101035e-002
    outer loop
      vertex -1.799163e-023 -6.562500e-001  7.031283e-002
      vertex  1.562500e-002 -7.106377e-001 -1.275751e-001
      vertex  1.562500e-002 -7.400640e-001 -3.056973e-002
    endloop
  endfacet
  facet normal -9.862646e-001 -1.643774e-001 -1.618976e-002
    outer loop
      vertex -1.799163e-023 -6.562500e-001  7.031283e-002
      vertex  1.562500e-002 -7.400640e-001 -3.056973e-002
      vertex  1.562500e-002 -7.500000e-001  7.031250e-002
    endloop
  endfacet
  facet normal  1.000000e+000  0.000000e+000  0.000000e+000
    outer loop
      vertex  4.531250e-001 -3.337770e-001  5.774817e-001
      vertex  4.531250e-001 -1.320125e-001  5.774817e-001
      vertex  4.531250e-001 -2.328947e-001  5.874178e-001
    endloop
  endfacet
  facet normal  1.000000e+000  -0.000000e+000  0.000000e+000
    outer loop
      vertex  4.531250e-001 -1.320125e-001  5.774817e-001
      vertex  4.531250e-001 -3.337770e-001  5.774817e-001
      vertex  4.531250e-001 -3.500712e-002  5.480555e-001
    endloop
  endfacet
  facet normal  1.000000e+000  0.000000e+000  0.000000e+000
    outer loop
      vertex  4.531250e-001 -3.500712e-002  5.480555e-001
      vertex  4.531250e-001 -3.337770e-001  5.774817e-001
      vertex  4.531250e-001 -4.307823e-001  5.480555e-001
    endloop
  endfacet
  facet normal  1.000000e+000  -0.000000e+000  0.000000e+000
    outer loop
      vertex  4.531250e-001 -3.500712e-002  5.480555e-001
      vertex  4.531250e-001 -4.307823e-001  5.480555e-001
      vertex  4.531250e-001  5.439356e-002  5.002698e-001
    endloop
  endfacet
  facet normal  1.000000e+000  0.000000e+000  0.000000e+000
    outer loop
      vertex  4.531250e-001  5.439356e-002  5.002698e-001
      vertex  4.531250e-001 -4.307823e-001  5.480555e-001
      vertex  4.531250e-001 -5.201830e-001  5.002698e-001
    endloop
  endfacet
  facet normal  1.000000e+000  -0.000000e+000  0.000000e+000
    outer loop
      vertex  4.531250e-001  5.439356e-002  5.002698e-001
      vertex  4.531250e-001 -5.201830e-001  5.002698e-001
      vertex  4.531250e-001  1.327539e-001  4.359611e-001
    endloop
  endfacet
  facet normal  1.000000e+000  0.000000e+000  0.000000e+000
    outer loop
      vertex  4.531250e-001  1.327539e-001  4.359611e-001
      vertex  4.531250e-001 -5.201830e-001  5.002698e-001
      vertex  4.531250e-001 -5.985433e-001  4.359611e-001
    endloop
  endfacet
  facet normal  9.999999e-001  -0.000000e+000  0.000000e+000
    outer loop
      vertex  4.531250e-001  1.327539e-001  4.359611e-001
      vertex  4.531250e-001 -5.985433e-001  4.359611e-001
      vertex  4.531250e-001  1.970626e-001  3.576008e-001
    endloop
  endfacet
  facet normal  1.000000e+000  0.000000e+000  0.000000e+000
    outer loop
      vertex  4.531250e-001  1.970626e-001  3.576008e-001
      vertex  4.531250e-001 -5.985433e-001  4.359611e-001
      vertex  4.531250e-001 -6.628520e-001  3.576008e-001
    endloop
  endfacet
  facet normal  9.999999e-001  -0.000000e+000  0.000000e+000
    outer loop
      vertex  4.531250e-001  1.970626e-001  3.576008e-001
      vertex  4.531250e-001 -6.628520e-001  3.576008e-001
      vertex  4.531250e-001  2.448482e-001  2.682001e-001
    endloop
  endfacet
  facet normal  1.000000e+000  0.000000e+000  0.000000e+000
    outer loop
      vertex  4.531250e-001  2.448482e-001  2.682001e-001
      vertex  4.531250e-001 -6.628520e-001  3.576008e-001
      vertex  4.531250e-001 -7.106377e-001  2.682001e-001
    endloop
  endfacet
  facet normal  1.000000e+000  -0.000000e+000  0.000000e+000
    outer loop
      vertex  4.531250e-001  2.448482e-001  2.682001e-001
      vertex  4.531250e-001 -7.106377e-001  2.682001e-001
      vertex  4.531250e-001  2.742745e-001  1.711947e-001
    endloop
  endfacet
  facet normal  1.000000e+000  0.000000e+000  0.000000e+000
    outer loop
      vertex  4.531250e-001  2.742745e-001  1.711947e-001
      vertex  4.531250e-001 -7.106377e-001  2.682001e-001
      vertex  4.531250e-001 -7.400640e-001  1.711947e-001
    endloop
  endfacet
  facet normal  1.000000e+000  -0.000000e+000  0.000000e+000
    outer loop
      vertex  4.531250e-001  2.742745e-001  1.711947e-001
      vertex  4.531250e-001 -7.400640e-001  1.711947e-001
      vertex  4.531250e-001  2.842105e-001  7.031250e-002
    endloop
  endfacet
  facet normal  1.000000e+000  0.000000e+000  0.000000e+000
    outer loop
      vertex  4.531250e-001  2.842105e-001  7.031250e-002
      vertex  4.531250e-001 -7.400640e-001  1.711947e-001
      vertex  4.531250e-001 -7.500000e-001  7.031250e-002
    endloop
  endfacet
  facet normal  1.000000e+000  -0.000000e+000  0.000000e+000
    outer loop
      vertex  4.531250e-001  2.842105e-001  7.031250e-002
      vertex  4.531250e-001 -7.500000e-001  7.031250e-002
      vertex  4.531250e-001  2.742745e-001 -3.056973e-002
    endloop
  endfacet
  facet normal  1.000000e+000  0.000000e+000  0.000000e+000
    outer loop
      vertex  4.531250e-001  2.742745e-001 -3.056973e-002
      vertex  4.531250e-001 -7.500000e-001  7.031250e-002
      vertex  4.531250e-001 -7.400640e-001 -3.056973e-002
    endloop
  endfacet
  facet normal  1.000000e+000  -0.000000e+000  0.000000e+000
    outer loop
      vertex  4.531250e-001  2.742745e-001 -3.056973e-002
      vertex  4.531250e-001 -7.400640e-001 -3.056973e-002
      vertex  4.531250e-001  2.448482e-001 -1.275751e-001
    endloop
  endfacet
  facet normal  1.000000e+000  0.000000e+000  0.000000e+000
    outer loop
      vertex  4.531250e-001  2.448482e-001 -1.275751e-001
      vertex  4.531250e-001 -7.400640e-001 -3.056973e-002
      vertex  4.531250e-001 -7.106377e-001 -1.275751e-001
    endloop
  endfacet
  facet normal  1.000000e+000  -0.000000e+000  0.000000e+000
    outer loop
      vertex  4.531250e-001  2.448482e-001 -1.275751e-001
      vertex  4.531250e-001 -7.106377e-001 -1.275751e-001
      vertex  4.531250e-001  1.970626e-001 -2.169758e-001
    endloop
  endfacet
  facet normal  9.999999e-001  0.000000e+000  0.000000e+000
    outer loop
      vertex  4.531250e-001  1.970626e-001 -2.169758e-001
      vertex  4.531250e-001 -7.106377e-001 -1.275751e-001
      vertex  4.531250e-001 -6.628520e-001 -2.169758e-001
    endloop
  endfacet
  facet normal  1.000000e+000  -0.000000e+000  0.000000e+000
    outer loop
      vertex  4.531250e-001  1.970626e-001 -2.169758e-001
      vertex  4.531250e-001 -6.628520e-001 -2.169758e-001
      vertex  4.531250e-001  1.327539e-001 -2.953361e-001
    endloop
  endfacet
  facet normal  1.000000e+000  0.000000e+000  0.000000e+000
    outer loop
      vertex  4.531250e-001  1.327539e-001 -2.953361e-001
      vertex  4.531250e-001 -6.628520e-001 -2.169758e-001
      vertex  4.531250e-001 -5.985433e-001 -2.953361e-001
    endloop
  endfacet
  facet normal  1.000000e+000  -0.000000e+000  0.000000e+000
    outer loop
      vertex  4.531250e-001  1.327539e-001 -2.953361e-001
      vertex  4.531250e-001 -5.985433e-001 -2.953361e-001
      vertex  4.531250e-001  5.439356e-002 -3.596448e-001
    endloop
  endfacet
  facet normal  1.000000e+000  0.000000e+000  0.000000e+000
    outer loop
      vertex  4.531250e-001  5.439356e-002 -3.596448e-001
      vertex  4.531250e-001 -5.985433e-001 -2.953361e-001
      vertex  4.531250e-001 -5.201830e-001 -3.596448e-001
    endloop
  endfacet
  facet normal  1.000000e+000  -0.000000e+000  0.000000e+000
    outer loop
      vertex  4.531250e-001  5.439356e-002 -3.596448e-001
      vertex  4.531250e-001 -5.201830e-001 -3.596448e-001
      vertex  4.531250e-001 -3.500712e-002 -4.074305e-001
    endloop
  endfacet
  facet normal  9.999999e-001  0.000000e+000  0.000000e+000
    outer loop
      vertex  4.531250e-001 -3.500712e-002 -4.074305e-001
      vertex  4.531250e-001 -5.201830e-001 -3.596448e-001
      vertex  4.531250e-001 -4.307823e-001 -4.074305e-001
    endloop
  endfacet
  facet normal  1.000000e+000  -0.000000e+000  0.000000e+000
    outer loop
      vertex  4.531250e-001 -3.500712e-002 -4.074305e-001
      vertex  4.531250e-001 -4.307823e-001 -4.074305e-001
      vertex  4.531250e-001 -1.320125e-001 -4.368567e-001
    endloop
  endfacet
  facet normal  9.999999e-001  0.000000e+000  0.000000e+000
    outer loop
      vertex  4.531250e-001 -1.320125e-001 -4.368567e-001
      vertex  4.531250e-001 -4.307823e-001 -4.074305e-001
      vertex  4.531250e-001 -3.337770e-001 -4.368567e-001
    endloop
  endfacet
  facet normal  1.000000e+000  -0.000000e+000  0.000000e+000
    outer loop
      vertex  4.531250e-001 -1.320125e-001 -4.368567e-001
      vertex  4.531250e-001 -3.337770e-001 -4.368567e-001
      vertex  4.531250e-001 -2.328947e-001 -4.467928e-001
    endloop
  endfacet
endsolid CATIA STL
