solid CATIA STL
  facet normal -9.999999e-001  5.580486e-017  0.000000e+000
    outer loop
      vertex  0.000000e+000  4.973684e-001  2.031250e-001
      vertex  0.000000e+000  4.973684e-001  3.125000e-002
      vertex -2.775558e-017  0.000000e+000  2.031250e-001
    endloop
  endfacet
  facet normal -9.999999e-001  0.000000e+000 -1.614870e-016
    outer loop
      vertex -2.775558e-017  0.000000e+000  2.031250e-001
      vertex  0.000000e+000  4.973684e-001  3.125000e-002
      vertex  0.000000e+000  0.000000e+000  3.125000e-002
    endloop
  endfacet
  facet normal  0.000000e+000  1.000000e+000  0.000000e+000
    outer loop
      vertex  0.000000e+000  4.973684e-001  3.125000e-002
      vertex  2.378765e-003  4.973684e-001  1.929114e-002
      vertex  6.004600e-004  4.973684e-001  2.515343e-002
    endloop
  endfacet
  facet normal  0.000000e+000  1.000000e+000  0.000000e+000
    outer loop
      vertex  0.000000e+000  4.973684e-001  2.031250e-001
      vertex  7.500000e-001  4.973684e-001  2.031250e-001
      vertex  7.500000e-001  4.973684e-001  0.000000e+000
    endloop
  endfacet
  facet normal  0.000000e+000  1.000000e+000  0.000000e+000
    outer loop
      vertex  0.000000e+000  4.973684e-001  2.031250e-001
      vertex  7.500000e-001  4.973684e-001  0.000000e+000
      vertex  3.125000e-002  4.973684e-001  0.000000e+000
    endloop
  endfacet
  facet normal  0.000000e+000  1.000000e+000  0.000000e+000
    outer loop
      vertex  0.000000e+000  4.973684e-001  2.031250e-001
      vertex  3.125000e-002  4.973684e-001  0.000000e+000
      vertex  2.515343e-002  4.973684e-001  6.004600e-004
    endloop
  endfacet
  facet normal  0.000000e+000  1.000000e+000  0.000000e+000
    outer loop
      vertex  0.000000e+000  4.973684e-001  2.031250e-001
      vertex  2.515343e-002  4.973684e-001  6.004600e-004
      vertex  1.929114e-002  4.973684e-001  2.378765e-003
    endloop
  endfacet
  facet normal  0.000000e+000  1.000000e+000  0.000000e+000
    outer loop
      vertex  0.000000e+000  4.973684e-001  2.031250e-001
      vertex  1.929114e-002  4.973684e-001  2.378765e-003
      vertex  1.388843e-002  4.973684e-001  5.266575e-003
    endloop
  endfacet
  facet normal  0.000000e+000  1.000000e+000  0.000000e+000
    outer loop
      vertex  0.000000e+000  4.973684e-001  2.031250e-001
      vertex  1.388843e-002  4.973684e-001  5.266575e-003
      vertex  9.152913e-003  4.973684e-001  9.152913e-003
    endloop
  endfacet
  facet normal  0.000000e+000  1.000000e+000  0.000000e+000
    outer loop
      vertex  0.000000e+000  4.973684e-001  2.031250e-001
      vertex  9.152913e-003  4.973684e-001  9.152913e-003
      vertex  5.266575e-003  4.973684e-001  1.388843e-002
    endloop
  endfacet
  facet normal  0.000000e+000  1.000000e+000  0.000000e+000
    outer loop
      vertex  0.000000e+000  4.973684e-001  2.031250e-001
      vertex  5.266575e-003  4.973684e-001  1.388843e-002
      vertex  2.378765e-003  4.973684e-001  1.929114e-002
    endloop
  endfacet
  facet normal  0.000000e+000  1.000000e+000  0.000000e+000
    outer loop
      vertex  0.000000e+000  4.973684e-001  2.031250e-001
      vertex  2.378765e-003  4.973684e-001  1.929114e-002
      vertex  0.000000e+000  4.973684e-001  3.125000e-002
    endloop
  endfacet
  facet normal  0.000000e+000 -1.000000e+000  0.000000e+000
    outer loop
      vertex  0.000000e+000  0.000000e+000  3.125000e-002
      vertex  2.378765e-003  0.000000e+000  1.929114e-002
      vertex -2.775558e-017  0.000000e+000  2.031250e-001
    endloop
  endfacet
  facet normal  0.000000e+000 -1.000000e+000  0.000000e+000
    outer loop
      vertex  0.000000e+000  0.000000e+000  3.125000e-002
      vertex  6.004600e-004  0.000000e+000  2.515343e-002
      vertex  2.378765e-003  0.000000e+000  1.929114e-002
    endloop
  endfacet
  facet normal  0.000000e+000 -1.000000e+000  0.000000e+000
    outer loop
      vertex  1.388843e-002  0.000000e+000  5.266575e-003
      vertex  1.929114e-002  0.000000e+000  2.378765e-003
      vertex  5.266575e-003  0.000000e+000  1.388843e-002
    endloop
  endfacet
  facet normal  0.000000e+000 -9.999999e-001  0.000000e+000
    outer loop
      vertex  5.266575e-003  0.000000e+000  1.388843e-002
      vertex  9.152913e-003  0.000000e+000  9.152913e-003
      vertex  1.388843e-002  0.000000e+000  5.266575e-003
    endloop
  endfacet
  facet normal  0.000000e+000 -1.000000e+000  0.000000e+000
    outer loop
      vertex  7.500000e-001  0.000000e+000  2.031250e-001
      vertex -2.775558e-017  0.000000e+000  2.031250e-001
      vertex  2.515343e-002  0.000000e+000  6.004600e-004
    endloop
  endfacet
  facet normal  0.000000e+000 -1.000000e+000  0.000000e+000
    outer loop
      vertex  7.500000e-001  0.000000e+000  2.031250e-001
      vertex  2.515343e-002  0.000000e+000  6.004600e-004
      vertex  3.125000e-002  0.000000e+000  0.000000e+000
    endloop
  endfacet
  facet normal  0.000000e+000 -1.000000e+000  0.000000e+000
    outer loop
      vertex  7.500000e-001  0.000000e+000  2.031250e-001
      vertex  3.125000e-002  0.000000e+000  0.000000e+000
      vertex  7.500000e-001  0.000000e+000  0.000000e+000
    endloop
  endfacet
  facet normal  0.000000e+000 -1.000000e+000  0.000000e+000
    outer loop
      vertex  2.515343e-002  0.000000e+000  6.004600e-004
      vertex -2.775558e-017  0.000000e+000  2.031250e-001
      vertex  2.378765e-003  0.000000e+000  1.929114e-002
    endloop
  endfacet
  facet normal  0.000000e+000 -1.000000e+000  0.000000e+000
    outer loop
      vertex  2.515343e-002  0.000000e+000  6.004600e-004
      vertex  2.378765e-003  0.000000e+000  1.929114e-002
      vertex  5.266575e-003  0.000000e+000  1.388843e-002
    endloop
  endfacet
  facet normal  0.000000e+000 -1.000000e+000  0.000000e+000
    outer loop
      vertex  2.515343e-002  0.000000e+000  6.004600e-004
      vertex  5.266575e-003  0.000000e+000  1.388843e-002
      vertex  1.929114e-002  0.000000e+000  2.378765e-003
    endloop
  endfacet
  facet normal  0.000000e+000  0.000000e+000 -1.000000e+000
    outer loop
      vertex  3.125000e-002  0.000000e+000  0.000000e+000
      vertex  3.125000e-002  4.973684e-001  0.000000e+000
      vertex  7.500000e-001  0.000000e+000  0.000000e+000
    endloop
  endfacet
  facet normal  0.000000e+000  0.000000e+000 -1.000000e+000
    outer loop
      vertex  7.500000e-001  0.000000e+000  0.000000e+000
      vertex  3.125000e-002  4.973684e-001  0.000000e+000
      vertex  7.500000e-001  4.973684e-001  0.000000e+000
    endloop
  endfacet
  facet normal -9.801715e-002  0.000000e+000 -9.951847e-001
    outer loop
      vertex  3.125000e-002  4.973684e-001  0.000000e+000
      vertex  3.125000e-002  0.000000e+000  0.000000e+000
      vertex  2.515343e-002  4.973684e-001  6.004600e-004
    endloop
  endfacet
  facet normal -9.801715e-002  -0.000000e+000 -9.951847e-001
    outer loop
      vertex  2.515343e-002  4.973684e-001  6.004600e-004
      vertex  3.125000e-002  0.000000e+000  0.000000e+000
      vertex  2.515343e-002  0.000000e+000  6.004600e-004
    endloop
  endfacet
  facet normal -2.902846e-001  0.000000e+000 -9.569404e-001
    outer loop
      vertex  2.515343e-002  4.973684e-001  6.004600e-004
      vertex  2.515343e-002  0.000000e+000  6.004600e-004
      vertex  1.929114e-002  4.973684e-001  2.378765e-003
    endloop
  endfacet
  facet normal -2.902846e-001  -0.000000e+000 -9.569404e-001
    outer loop
      vertex  1.929114e-002  4.973684e-001  2.378765e-003
      vertex  2.515343e-002  0.000000e+000  6.004600e-004
      vertex  1.929114e-002  0.000000e+000  2.378765e-003
    endloop
  endfacet
  facet normal -4.713967e-001  0.000000e+000 -8.819212e-001
    outer loop
      vertex  1.929114e-002  4.973684e-001  2.378765e-003
      vertex  1.929114e-002  0.000000e+000  2.378765e-003
      vertex  1.388843e-002  4.973684e-001  5.266575e-003
    endloop
  endfacet
  facet normal -4.713967e-001  -0.000000e+000 -8.819212e-001
    outer loop
      vertex  1.388843e-002  4.973684e-001  5.266575e-003
      vertex  1.929114e-002  0.000000e+000  2.378765e-003
      vertex  1.388843e-002  0.000000e+000  5.266575e-003
    endloop
  endfacet
  facet normal -6.343933e-001  0.000000e+000 -7.730104e-001
    outer loop
      vertex  1.388843e-002  4.973684e-001  5.266575e-003
      vertex  1.388843e-002  0.000000e+000  5.266575e-003
      vertex  9.152913e-003  4.973684e-001  9.152913e-003
    endloop
  endfacet
  facet normal -6.343933e-001  -0.000000e+000 -7.730104e-001
    outer loop
      vertex  9.152913e-003  4.973684e-001  9.152913e-003
      vertex  1.388843e-002  0.000000e+000  5.266575e-003
      vertex  9.152913e-003  0.000000e+000  9.152913e-003
    endloop
  endfacet
  facet normal -7.730104e-001  0.000000e+000 -6.343933e-001
    outer loop
      vertex  9.152913e-003  4.973684e-001  9.152913e-003
      vertex  9.152913e-003  0.000000e+000  9.152913e-003
      vertex  5.266575e-003  4.973684e-001  1.388843e-002
    endloop
  endfacet
  facet normal -7.730104e-001  -0.000000e+000 -6.343933e-001
    outer loop
      vertex  5.266575e-003  4.973684e-001  1.388843e-002
      vertex  9.152913e-003  0.000000e+000  9.152913e-003
      vertex  5.266575e-003  0.000000e+000  1.388843e-002
    endloop
  endfacet
  facet normal -8.819212e-001  0.000000e+000 -4.713967e-001
    outer loop
      vertex  5.266575e-003  4.973684e-001  1.388843e-002
      vertex  5.266575e-003  0.000000e+000  1.388843e-002
      vertex  2.378765e-003  4.973684e-001  1.929114e-002
    endloop
  endfacet
  facet normal -8.819212e-001  -0.000000e+000 -4.713967e-001
    outer loop
      vertex  2.378765e-003  4.973684e-001  1.929114e-002
      vertex  5.266575e-003  0.000000e+000  1.388843e-002
      vertex  2.378765e-003  0.000000e+000  1.929114e-002
    endloop
  endfacet
  facet normal -9.569404e-001  0.000000e+000 -2.902846e-001
    outer loop
      vertex  2.378765e-003  4.973684e-001  1.929114e-002
      vertex  2.378765e-003  0.000000e+000  1.929114e-002
      vertex  6.004600e-004  4.973684e-001  2.515343e-002
    endloop
  endfacet
  facet normal -9.569404e-001  -0.000000e+000 -2.902846e-001
    outer loop
      vertex  6.004600e-004  4.973684e-001  2.515343e-002
      vertex  2.378765e-003  0.000000e+000  1.929114e-002
      vertex  6.004600e-004  0.000000e+000  2.515343e-002
    endloop
  endfacet
  facet normal -9.951847e-001  0.000000e+000 -9.801715e-002
    outer loop
      vertex  6.004600e-004  4.973684e-001  2.515343e-002
      vertex  6.004600e-004  0.000000e+000  2.515343e-002
      vertex  0.000000e+000  4.973684e-001  3.125000e-002
    endloop
  endfacet
  facet normal -9.951847e-001  -0.000000e+000 -9.801715e-002
    outer loop
      vertex  0.000000e+000  4.973684e-001  3.125000e-002
      vertex  6.004600e-004  0.000000e+000  2.515343e-002
      vertex  0.000000e+000  0.000000e+000  3.125000e-002
    endloop
  endfacet
  facet normal  0.000000e+000  0.000000e+000  1.000000e+000
    outer loop
      vertex  1.093750e-001  1.093750e-001  3.125000e-001
      vertex  6.406250e-001  1.093750e-001  3.125000e-001
      vertex  1.093750e-001  3.879934e-001  3.125000e-001
    endloop
  endfacet
  facet normal  -0.000000e+000  0.000000e+000  1.000000e+000
    outer loop
      vertex  1.093750e-001  3.879934e-001  3.125000e-001
      vertex  6.406250e-001  1.093750e-001  3.125000e-001
      vertex  6.406250e-001  3.879934e-001  3.125000e-001
    endloop
  endfacet
  facet normal  1.000000e+000  0.000000e+000  0.000000e+000
    outer loop
      vertex  7.500000e-001  0.000000e+000  2.031250e-001
      vertex  7.500000e-001  0.000000e+000  0.000000e+000
      vertex  7.500000e-001  4.973684e-001  2.031250e-001
    endloop
  endfacet
  facet normal  1.000000e+000  0.000000e+000  0.000000e+000
    outer loop
      vertex  7.500000e-001  4.973684e-001  2.031250e-001
      vertex  7.500000e-001  0.000000e+000  0.000000e+000
      vertex  7.500000e-001  4.973684e-001  0.000000e+000
    endloop
  endfacet
  facet normal  6.051860e-009  1.183168e-001  9.929759e-001
    outer loop
      vertex  1.093750e-001  3.879934e-001  3.125000e-001
      vertex  6.663250e-001  4.136934e-001  3.094378e-001
      vertex  8.367504e-002  4.136934e-001  3.094378e-001
    endloop
  endfacet
  facet normal  0.000000e+000  1.183169e-001  9.929759e-001
    outer loop
      vertex  1.093750e-001  3.879934e-001  3.125000e-001
      vertex  6.406250e-001  3.879934e-001  3.125000e-001
      vertex  6.663250e-001  4.136934e-001  3.094378e-001
    endloop
  endfacet
  facet normal  1.696081e-006  9.867958e-001  1.619692e-001
    outer loop
      vertex  7.491611e-001  4.965295e-001  2.166458e-001
      vertex  2.206289e-003  4.951634e-001  2.249765e-001
      vertex  7.477950e-001  4.951621e-001  2.249765e-001
    endloop
  endfacet
  facet normal  1.669784e-006  9.714960e-001  2.370559e-001
    outer loop
      vertex  7.477950e-001  4.951621e-001  2.249765e-001
      vertex  2.206289e-003  4.951634e-001  2.249765e-001
      vertex  4.188567e-003  4.931832e-001  2.330916e-001
    endloop
  endfacet
  facet normal  4.411219e-006  9.714382e-001  2.372930e-001
    outer loop
      vertex  7.477950e-001  4.951621e-001  2.249765e-001
      vertex  4.188567e-003  4.931832e-001  2.330916e-001
      vertex  7.458148e-001  4.931799e-001  2.330916e-001
    endloop
  endfacet
  facet normal  4.309674e-006  9.490761e-001  3.150471e-001
    outer loop
      vertex  7.458148e-001  4.931799e-001  2.330916e-001
      vertex  4.188567e-003  4.931832e-001  2.330916e-001
      vertex  7.147748e-003  4.902222e-001  2.420115e-001
    endloop
  endfacet
  facet normal  2.037738e-006  9.491323e-001  3.148776e-001
    outer loop
      vertex  7.458148e-001  4.931799e-001  2.330916e-001
      vertex  7.147748e-003  4.902222e-001  2.420115e-001
      vertex  7.428538e-001  4.902207e-001  2.420115e-001
    endloop
  endfacet
  facet normal  1.973066e-006  9.190093e-001  3.942357e-001
    outer loop
      vertex  7.428538e-001  4.902207e-001  2.420115e-001
      vertex  7.147748e-003  4.902222e-001  2.420115e-001
      vertex  1.074582e-002  4.866226e-001  2.504026e-001
    endloop
  endfacet
  facet normal  -0.000000e+000  9.190717e-001  3.940902e-001
    outer loop
      vertex  7.428538e-001  4.902207e-001  2.420115e-001
      vertex  1.074582e-002  4.866226e-001  2.504026e-001
      vertex  7.392542e-001  4.866226e-001  2.504026e-001
    endloop
  endfacet
  facet normal  1.790643e-008  3.500795e-001  9.367200e-001
    outer loop
      vertex  6.909501e-001  4.383185e-001  3.002346e-001
      vertex  8.367504e-002  4.136934e-001  3.094378e-001
      vertex  6.663250e-001  4.136934e-001  3.094378e-001
    endloop
  endfacet
  facet normal  -0.000000e+000  9.980805e-001  6.192863e-002
    outer loop
      vertex  7.500000e-001  4.973684e-001  2.031250e-001
      vertex  0.000000e+000  4.973684e-001  2.031250e-001
      vertex  7.491611e-001  4.965295e-001  2.166458e-001
    endloop
  endfacet
  facet normal  0.000000e+000  9.980806e-001  6.192863e-002
    outer loop
      vertex  7.491611e-001  4.965295e-001  2.166458e-001
      vertex  0.000000e+000  4.973684e-001  2.031250e-001
      vertex  8.389305e-004  4.965295e-001  2.166458e-001
    endloop
  endfacet
  facet normal  -0.000000e+000  9.868200e-001  1.618211e-001
    outer loop
      vertex  7.491611e-001  4.965295e-001  2.166458e-001
      vertex  8.389305e-004  4.965295e-001  2.166458e-001
      vertex  2.206289e-003  4.951634e-001  2.249765e-001
    endloop
  endfacet
  facet normal  -0.000000e+000  8.748025e-001  4.844798e-001
    outer loop
      vertex  7.392542e-001  4.866226e-001  2.504026e-001
      vertex  1.074582e-002  4.866226e-001  2.504026e-001
      vertex  7.330366e-001  4.804040e-001  2.616313e-001
    endloop
  endfacet
  facet normal  1.274350e-006  8.748372e-001  4.844171e-001
    outer loop
      vertex  7.330366e-001  4.804040e-001  2.616313e-001
      vertex  1.074582e-002  4.866226e-001  2.504026e-001
      vertex  1.696445e-002  4.804050e-001  2.616313e-001
    endloop
  endfacet
  facet normal  1.184541e-006  8.131841e-001  5.820066e-001
    outer loop
      vertex  7.330366e-001  4.804040e-001  2.616313e-001
      vertex  1.696445e-002  4.804050e-001  2.616313e-001
      vertex  7.258382e-001  4.732026e-001  2.716932e-001
    endloop
  endfacet
  facet normal  4.732475e-006  8.133023e-001  5.818412e-001
    outer loop
      vertex  7.258382e-001  4.732026e-001  2.716932e-001
      vertex  1.696445e-002  4.804050e-001  2.616313e-001
      vertex  2.416585e-002  4.732067e-001  2.716932e-001
    endloop
  endfacet
  facet normal  4.327298e-006  7.436703e-001  6.685465e-001
    outer loop
      vertex  7.258382e-001  4.732026e-001  2.716932e-001
      vertex  2.416585e-002  4.732067e-001  2.716932e-001
      vertex  7.178596e-001  4.652226e-001  2.805699e-001
    endloop
  endfacet
  facet normal  5.850606e-006  7.437295e-001  6.684806e-001
    outer loop
      vertex  7.178596e-001  4.652226e-001  2.805699e-001
      vertex  2.416585e-002  4.732067e-001  2.716932e-001
      vertex  3.214579e-002  4.652280e-001  2.805699e-001
    endloop
  endfacet
  facet normal  5.254591e-006  6.679642e-001  7.441934e-001
    outer loop
      vertex  7.178596e-001  4.652226e-001  2.805699e-001
      vertex  3.214579e-002  4.652280e-001  2.805699e-001
      vertex  7.092869e-001  4.566519e-001  2.882628e-001
    endloop
  endfacet
  facet normal  3.393971e-006  6.678827e-001  7.442665e-001
    outer loop
      vertex  7.092869e-001  4.566519e-001  2.882628e-001
      vertex  3.214579e-002  4.652280e-001  2.805699e-001
      vertex  4.071653e-002  4.566553e-001  2.882628e-001
    endloop
  endfacet
  facet normal  2.778444e-006  5.467563e-001  8.372917e-001
    outer loop
      vertex  7.092869e-001  4.566519e-001  2.882628e-001
      vertex  4.071653e-002  4.566553e-001  2.882628e-001
      vertex  6.909501e-001  4.383185e-001  3.002346e-001
    endloop
  endfacet
  facet normal  0.000000e+000  5.466873e-001  8.373369e-001
    outer loop
      vertex  6.909501e-001  4.383185e-001  3.002346e-001
      vertex  4.071653e-002  4.566553e-001  2.882628e-001
      vertex  5.904991e-002  4.383185e-001  3.002346e-001
    endloop
  endfacet
  facet normal  -0.000000e+000  3.500799e-001  9.367198e-001
    outer loop
      vertex  6.909501e-001  4.383185e-001  3.002346e-001
      vertex  5.904991e-002  4.383185e-001  3.002346e-001
      vertex  8.367504e-002  4.136934e-001  3.094378e-001
    endloop
  endfacet
  facet normal  1.183168e-001  -0.000000e+000  9.929760e-001
    outer loop
      vertex  6.406250e-001  3.879934e-001  3.125000e-001
      vertex  6.663250e-001  8.367501e-002  3.094378e-001
      vertex  6.663250e-001  4.136934e-001  3.094378e-001
    endloop
  endfacet
  facet normal  1.183168e-001  -0.000000e+000  9.929758e-001
    outer loop
      vertex  6.406250e-001  3.879934e-001  3.125000e-001
      vertex  6.406250e-001  1.093750e-001  3.125000e-001
      vertex  6.663250e-001  8.367501e-002  3.094378e-001
    endloop
  endfacet
  facet normal  9.867963e-001 -2.505635e-006  1.619659e-001
    outer loop
      vertex  7.491611e-001  8.389305e-004  2.166458e-001
      vertex  7.477950e-001  4.951621e-001  2.249765e-001
      vertex  7.477937e-001  2.205020e-003  2.249765e-001
    endloop
  endfacet
  facet normal  9.714960e-001 -2.466785e-006  2.370557e-001
    outer loop
      vertex  7.477937e-001  2.205020e-003  2.249765e-001
      vertex  7.477950e-001  4.951621e-001  2.249765e-001
      vertex  7.458148e-001  4.931799e-001  2.330916e-001
    endloop
  endfacet
  facet normal  9.714380e-001 -6.631001e-006  2.372935e-001
    outer loop
      vertex  7.477937e-001  2.205020e-003  2.249765e-001
      vertex  7.458148e-001  4.931799e-001  2.330916e-001
      vertex  7.458115e-001  4.185196e-003  2.330916e-001
    endloop
  endfacet
  facet normal  9.490762e-001 -6.478361e-006  3.150465e-001
    outer loop
      vertex  7.458115e-001  4.185196e-003  2.330916e-001
      vertex  7.458148e-001  4.931799e-001  2.330916e-001
      vertex  7.428538e-001  4.902207e-001  2.420115e-001
    endloop
  endfacet
  facet normal  9.491322e-001 -3.044851e-006  3.148779e-001
    outer loop
      vertex  7.458115e-001  4.185196e-003  2.330916e-001
      vertex  7.428538e-001  4.902207e-001  2.420115e-001
      vertex  7.428523e-001  7.146169e-003  2.420115e-001
    endloop
  endfacet
  facet normal  9.190096e-001 -2.948216e-006  3.942353e-001
    outer loop
      vertex  7.428523e-001  7.146169e-003  2.420115e-001
      vertex  7.428538e-001  4.902207e-001  2.420115e-001
      vertex  7.392542e-001  4.866226e-001  2.504026e-001
    endloop
  endfacet
  facet normal  9.190706e-001  0.000000e+000  3.940930e-001
    outer loop
      vertex  7.428523e-001  7.146169e-003  2.420115e-001
      vertex  7.392542e-001  4.866226e-001  2.504026e-001
      vertex  7.392542e-001  1.074582e-002  2.504026e-001
    endloop
  endfacet
  facet normal  3.500799e-001  0.000000e+000  9.367198e-001
    outer loop
      vertex  6.909501e-001  5.904991e-002  3.002346e-001
      vertex  6.663250e-001  4.136934e-001  3.094378e-001
      vertex  6.663250e-001  8.367501e-002  3.094378e-001
    endloop
  endfacet
  facet normal  9.980806e-001  0.000000e+000  6.192863e-002
    outer loop
      vertex  7.500000e-001  0.000000e+000  2.031250e-001
      vertex  7.500000e-001  4.973684e-001  2.031250e-001
      vertex  7.491611e-001  8.389305e-004  2.166458e-001
    endloop
  endfacet
  facet normal  9.980806e-001  -0.000000e+000  6.192864e-002
    outer loop
      vertex  7.491611e-001  8.389305e-004  2.166458e-001
      vertex  7.500000e-001  4.973684e-001  2.031250e-001
      vertex  7.491611e-001  4.965295e-001  2.166458e-001
    endloop
  endfacet
  facet normal  9.868202e-001  0.000000e+000  1.618211e-001
    outer loop
      vertex  7.491611e-001  8.389305e-004  2.166458e-001
      vertex  7.491611e-001  4.965295e-001  2.166458e-001
      vertex  7.477950e-001  4.951621e-001  2.249765e-001
    endloop
  endfacet
  facet normal  8.748035e-001  0.000000e+000  4.844780e-001
    outer loop
      vertex  7.392542e-001  1.074582e-002  2.504026e-001
      vertex  7.392542e-001  4.866226e-001  2.504026e-001
      vertex  7.330356e-001  1.696343e-002  2.616313e-001
    endloop
  endfacet
  facet normal  8.748374e-001 -1.912768e-006  4.844168e-001
    outer loop
      vertex  7.330356e-001  1.696343e-002  2.616313e-001
      vertex  7.392542e-001  4.866226e-001  2.504026e-001
      vertex  7.330366e-001  4.804040e-001  2.616313e-001
    endloop
  endfacet
  facet normal  8.131816e-001 -1.777962e-006  5.820100e-001
    outer loop
      vertex  7.330356e-001  1.696343e-002  2.616313e-001
      vertex  7.330366e-001  4.804040e-001  2.616313e-001
      vertex  7.258341e-001  2.416176e-002  2.716932e-001
    endloop
  endfacet
  facet normal  8.133033e-001 -7.448964e-006  5.818399e-001
    outer loop
      vertex  7.258341e-001  2.416176e-002  2.716932e-001
      vertex  7.330366e-001  4.804040e-001  2.616313e-001
      vertex  7.258382e-001  4.732026e-001  2.716932e-001
    endloop
  endfacet
  facet normal  7.436705e-001 -6.811204e-006  6.685463e-001
    outer loop
      vertex  7.258341e-001  2.416176e-002  2.716932e-001
      vertex  7.258382e-001  4.732026e-001  2.716932e-001
      vertex  7.178542e-001  3.214041e-002  2.805699e-001
    endloop
  endfacet
  facet normal  7.437298e-001 -9.212287e-006  6.684804e-001
    outer loop
      vertex  7.178542e-001  3.214041e-002  2.805699e-001
      vertex  7.258382e-001  4.732026e-001  2.716932e-001
      vertex  7.178596e-001  4.652226e-001  2.805699e-001
    endloop
  endfacet
  facet normal  6.679625e-001 -8.273787e-006  7.441949e-001
    outer loop
      vertex  7.178542e-001  3.214041e-002  2.805699e-001
      vertex  7.178596e-001  4.652226e-001  2.805699e-001
      vertex  7.092835e-001  4.071312e-002  2.882628e-001
    endloop
  endfacet
  facet normal  6.678852e-001 -5.455409e-006  7.442642e-001
    outer loop
      vertex  7.092835e-001  4.071312e-002  2.882628e-001
      vertex  7.178596e-001  4.652226e-001  2.805699e-001
      vertex  7.092869e-001  4.566519e-001  2.882628e-001
    endloop
  endfacet
  facet normal  5.467551e-001 -4.465996e-006  8.372925e-001
    outer loop
      vertex  7.092835e-001  4.071312e-002  2.882628e-001
      vertex  7.092869e-001  4.566519e-001  2.882628e-001
      vertex  6.909501e-001  5.904991e-002  3.002346e-001
    endloop
  endfacet
  facet normal  5.466872e-001  -0.000000e+000  8.373368e-001
    outer loop
      vertex  6.909501e-001  5.904991e-002  3.002346e-001
      vertex  7.092869e-001  4.566519e-001  2.882628e-001
      vertex  6.909501e-001  4.383185e-001  3.002346e-001
    endloop
  endfacet
  facet normal  3.500799e-001  0.000000e+000  9.367198e-001
    outer loop
      vertex  6.909501e-001  5.904991e-002  3.002346e-001
      vertex  6.909501e-001  4.383185e-001  3.002346e-001
      vertex  6.663250e-001  4.136934e-001  3.094378e-001
    endloop
  endfacet
  facet normal -6.051856e-009 -1.183167e-001  9.929759e-001
    outer loop
      vertex  6.406250e-001  1.093750e-001  3.125000e-001
      vertex  8.367501e-002  8.367504e-002  3.094378e-001
      vertex  6.663250e-001  8.367501e-002  3.094378e-001
    endloop
  endfacet
  facet normal  0.000000e+000 -1.183169e-001  9.929759e-001
    outer loop
      vertex  6.406250e-001  1.093750e-001  3.125000e-001
      vertex  1.093750e-001  1.093750e-001  3.125000e-001
      vertex  8.367501e-002  8.367504e-002  3.094378e-001
    endloop
  endfacet
  facet normal -1.680365e-006 -9.867958e-001  1.619690e-001
    outer loop
      vertex  8.389305e-004  8.389305e-004  2.166458e-001
      vertex  7.477937e-001  2.205020e-003  2.249765e-001
      vertex  2.205020e-003  2.206289e-003  2.249765e-001
    endloop
  endfacet
  facet normal -1.654312e-006 -9.714963e-001  2.370549e-001
    outer loop
      vertex  2.205020e-003  2.206289e-003  2.249765e-001
      vertex  7.477937e-001  2.205020e-003  2.249765e-001
      vertex  7.458115e-001  4.185196e-003  2.330916e-001
    endloop
  endfacet
  facet normal -4.416097e-006 -9.714379e-001  2.372937e-001
    outer loop
      vertex  2.205020e-003  2.206289e-003  2.249765e-001
      vertex  7.458115e-001  4.185196e-003  2.330916e-001
      vertex  4.185196e-003  4.188567e-003  2.330916e-001
    endloop
  endfacet
  facet normal -4.314443e-006 -9.490762e-001  3.150465e-001
    outer loop
      vertex  4.185196e-003  4.188567e-003  2.330916e-001
      vertex  7.458115e-001  4.185196e-003  2.330916e-001
      vertex  7.428523e-001  7.146169e-003  2.420115e-001
    endloop
  endfacet
  facet normal -2.036537e-006 -9.491326e-001  3.148765e-001
    outer loop
      vertex  4.185196e-003  4.188567e-003  2.330916e-001
      vertex  7.428523e-001  7.146169e-003  2.420115e-001
      vertex  7.146169e-003  7.147748e-003  2.420115e-001
    endloop
  endfacet
  facet normal -1.971902e-006 -9.190093e-001  3.942360e-001
    outer loop
      vertex  7.146169e-003  7.147748e-003  2.420115e-001
      vertex  7.428523e-001  7.146169e-003  2.420115e-001
      vertex  7.392542e-001  1.074582e-002  2.504026e-001
    endloop
  endfacet
  facet normal  0.000000e+000 -9.190716e-001  3.940906e-001
    outer loop
      vertex  7.146169e-003  7.147748e-003  2.420115e-001
      vertex  7.392542e-001  1.074582e-002  2.504026e-001
      vertex  1.074582e-002  1.074582e-002  2.504026e-001
    endloop
  endfacet
  facet normal -1.790645e-008 -3.500798e-001  9.367199e-001
    outer loop
      vertex  5.904991e-002  5.904991e-002  3.002346e-001
      vertex  6.663250e-001  8.367501e-002  3.094378e-001
      vertex  8.367501e-002  8.367504e-002  3.094378e-001
    endloop
  endfacet
  facet normal  0.000000e+000 -9.980807e-001  6.192828e-002
    outer loop
      vertex -2.775558e-017  0.000000e+000  2.031250e-001
      vertex  7.500000e-001  0.000000e+000  2.031250e-001
      vertex  8.389305e-004  8.389305e-004  2.166458e-001
    endloop
  endfacet
  facet normal  0.000000e+000 -9.980806e-001  6.192828e-002
    outer loop
      vertex  8.389305e-004  8.389305e-004  2.166458e-001
      vertex  7.500000e-001  0.000000e+000  2.031250e-001
      vertex  7.491611e-001  8.389305e-004  2.166458e-001
    endloop
  endfacet
  facet normal  0.000000e+000 -9.868199e-001  1.618223e-001
    outer loop
      vertex  8.389305e-004  8.389305e-004  2.166458e-001
      vertex  7.491611e-001  8.389305e-004  2.166458e-001
      vertex  7.477937e-001  2.205020e-003  2.249765e-001
    endloop
  endfacet
  facet normal  0.000000e+000 -8.748026e-001  4.844795e-001
    outer loop
      vertex  1.074582e-002  1.074582e-002  2.504026e-001
      vertex  7.392542e-001  1.074582e-002  2.504026e-001
      vertex  1.696343e-002  1.696445e-002  2.616313e-001
    endloop
  endfacet
  facet normal -1.249317e-006 -8.748367e-001  4.844179e-001
    outer loop
      vertex  1.696343e-002  1.696445e-002  2.616313e-001
      vertex  7.392542e-001  1.074582e-002  2.504026e-001
      vertex  7.330356e-001  1.696343e-002  2.616313e-001
    endloop
  endfacet
  facet normal -1.161273e-006 -8.131833e-001  5.820076e-001
    outer loop
      vertex  1.696343e-002  1.696445e-002  2.616313e-001
      vertex  7.330356e-001  1.696343e-002  2.616313e-001
      vertex  2.416176e-002  2.416585e-002  2.716932e-001
    endloop
  endfacet
  facet normal -4.734634e-006 -8.133024e-001  5.818411e-001
    outer loop
      vertex  2.416176e-002  2.416585e-002  2.716932e-001
      vertex  7.330356e-001  1.696343e-002  2.616313e-001
      vertex  7.258341e-001  2.416176e-002  2.716932e-001
    endloop
  endfacet
  facet normal -4.329274e-006 -7.436708e-001  6.685459e-001
    outer loop
      vertex  2.416176e-002  2.416585e-002  2.716932e-001
      vertex  7.258341e-001  2.416176e-002  2.716932e-001
      vertex  3.214041e-002  3.214579e-002  2.805699e-001
    endloop
  endfacet
  facet normal -5.838484e-006 -7.437294e-001  6.684807e-001
    outer loop
      vertex  3.214041e-002  3.214579e-002  2.805699e-001
      vertex  7.258341e-001  2.416176e-002  2.716932e-001
      vertex  7.178542e-001  3.214041e-002  2.805699e-001
    endloop
  endfacet
  facet normal -5.243705e-006 -6.679642e-001  7.441934e-001
    outer loop
      vertex  3.214041e-002  3.214579e-002  2.805699e-001
      vertex  7.178542e-001  3.214041e-002  2.805699e-001
      vertex  4.071312e-002  4.071653e-002  2.882628e-001
    endloop
  endfacet
  facet normal -3.405140e-006 -6.678838e-001  7.442656e-001
    outer loop
      vertex  4.071312e-002  4.071653e-002  2.882628e-001
      vertex  7.178542e-001  3.214041e-002  2.805699e-001
      vertex  7.092835e-001  4.071312e-002  2.882628e-001
    endloop
  endfacet
  facet normal -2.787583e-006 -5.467561e-001  8.372919e-001
    outer loop
      vertex  4.071312e-002  4.071653e-002  2.882628e-001
      vertex  7.092835e-001  4.071312e-002  2.882628e-001
      vertex  5.904991e-002  5.904991e-002  3.002346e-001
    endloop
  endfacet
  facet normal  0.000000e+000 -5.466868e-001  8.373371e-001
    outer loop
      vertex  5.904991e-002  5.904991e-002  3.002346e-001
      vertex  7.092835e-001  4.071312e-002  2.882628e-001
      vertex  6.909501e-001  5.904991e-002  3.002346e-001
    endloop
  endfacet
  facet normal  0.000000e+000 -3.500802e-001  9.367197e-001
    outer loop
      vertex  5.904991e-002  5.904991e-002  3.002346e-001
      vertex  6.909501e-001  5.904991e-002  3.002346e-001
      vertex  6.663250e-001  8.367501e-002  3.094378e-001
    endloop
  endfacet
  facet normal -1.183167e-001  1.068460e-008  9.929759e-001
    outer loop
      vertex  1.093750e-001  1.093750e-001  3.125000e-001
      vertex  8.367504e-002  4.136934e-001  3.094378e-001
      vertex  8.367501e-002  8.367504e-002  3.094378e-001
    endloop
  endfacet
  facet normal -1.183169e-001  0.000000e+000  9.929760e-001
    outer loop
      vertex  1.093750e-001  1.093750e-001  3.125000e-001
      vertex  1.093750e-001  3.879934e-001  3.125000e-001
      vertex  8.367504e-002  4.136934e-001  3.094378e-001
    endloop
  endfacet
  facet normal -9.867958e-001  2.541522e-006  1.619692e-001
    outer loop
      vertex  8.389305e-004  4.965295e-001  2.166458e-001
      vertex  2.205020e-003  2.206289e-003  2.249765e-001
      vertex  2.206289e-003  4.951634e-001  2.249765e-001
    endloop
  endfacet
  facet normal -9.714963e-001  2.502117e-006  2.370546e-001
    outer loop
      vertex  2.206289e-003  4.951634e-001  2.249765e-001
      vertex  2.205020e-003  2.206289e-003  2.249765e-001
      vertex  4.185196e-003  4.188567e-003  2.330916e-001
    endloop
  endfacet
  facet normal -9.714379e-001  6.697606e-006  2.372942e-001
    outer loop
      vertex  2.206289e-003  4.951634e-001  2.249765e-001
      vertex  4.185196e-003  4.188567e-003  2.330916e-001
      vertex  4.188567e-003  4.931832e-001  2.330916e-001
    endloop
  endfacet
  facet normal -9.490765e-001  6.543436e-006  3.150458e-001
    outer loop
      vertex  4.188567e-003  4.931832e-001  2.330916e-001
      vertex  4.185196e-003  4.188567e-003  2.330916e-001
      vertex  7.146169e-003  7.147748e-003  2.420115e-001
    endloop
  endfacet
  facet normal -9.491326e-001  3.101577e-006  3.148769e-001
    outer loop
      vertex  4.188567e-003  4.931832e-001  2.330916e-001
      vertex  7.146169e-003  7.147748e-003  2.420115e-001
      vertex  7.147748e-003  4.902222e-001  2.420115e-001
    endloop
  endfacet
  facet normal -9.190094e-001  3.003141e-006  3.942356e-001
    outer loop
      vertex  7.147748e-003  4.902222e-001  2.420115e-001
      vertex  7.146169e-003  7.147748e-003  2.420115e-001
      vertex  1.074582e-002  1.074582e-002  2.504026e-001
    endloop
  endfacet
  facet normal -9.190716e-001  0.000000e+000  3.940907e-001
    outer loop
      vertex  7.147748e-003  4.902222e-001  2.420115e-001
      vertex  1.074582e-002  1.074582e-002  2.504026e-001
      vertex  1.074582e-002  4.866226e-001  2.504026e-001
    endloop
  endfacet
  facet normal -3.500797e-001  3.161397e-008  9.367198e-001
    outer loop
      vertex  5.904991e-002  4.383185e-001  3.002346e-001
      vertex  8.367501e-002  8.367504e-002  3.094378e-001
      vertex  8.367504e-002  4.136934e-001  3.094378e-001
    endloop
  endfacet
  facet normal -9.980806e-001  5.569775e-017  6.192828e-002
    outer loop
      vertex  0.000000e+000  4.973684e-001  2.031250e-001
      vertex -2.775558e-017  0.000000e+000  2.031250e-001
      vertex  8.389305e-004  4.965295e-001  2.166458e-001
    endloop
  endfacet
  facet normal -9.980807e-001  0.000000e+000  6.192828e-002
    outer loop
      vertex  8.389305e-004  4.965295e-001  2.166458e-001
      vertex -2.775558e-017  0.000000e+000  2.031250e-001
      vertex  8.389305e-004  8.389305e-004  2.166458e-001
    endloop
  endfacet
  facet normal -9.868200e-001  0.000000e+000  1.618223e-001
    outer loop
      vertex  8.389305e-004  4.965295e-001  2.166458e-001
      vertex  8.389305e-004  8.389305e-004  2.166458e-001
      vertex  2.205020e-003  2.206289e-003  2.249765e-001
    endloop
  endfacet
  facet normal -8.748026e-001  0.000000e+000  4.844795e-001
    outer loop
      vertex  1.074582e-002  4.866226e-001  2.504026e-001
      vertex  1.074582e-002  1.074582e-002  2.504026e-001
      vertex  1.696445e-002  4.804050e-001  2.616313e-001
    endloop
  endfacet
  facet normal -8.748369e-001  1.930348e-006  4.844177e-001
    outer loop
      vertex  1.696445e-002  4.804050e-001  2.616313e-001
      vertex  1.074582e-002  1.074582e-002  2.504026e-001
      vertex  1.696343e-002  1.696445e-002  2.616313e-001
    endloop
  endfacet
  facet normal -8.131831e-001  1.794307e-006  5.820079e-001
    outer loop
      vertex  1.696445e-002  4.804050e-001  2.616313e-001
      vertex  1.696343e-002  1.696445e-002  2.616313e-001
      vertex  2.416585e-002  4.732067e-001  2.716932e-001
    endloop
  endfacet
  facet normal -8.133034e-001  7.398360e-006  5.818399e-001
    outer loop
      vertex  2.416585e-002  4.732067e-001  2.716932e-001
      vertex  1.696343e-002  1.696445e-002  2.616313e-001
      vertex  2.416176e-002  2.416585e-002  2.716932e-001
    endloop
  endfacet
  facet normal -7.436697e-001  6.764926e-006  6.685472e-001
    outer loop
      vertex  2.416585e-002  4.732067e-001  2.716932e-001
      vertex  2.416176e-002  2.416585e-002  2.716932e-001
      vertex  3.214579e-002  4.652280e-001  2.805699e-001
    endloop
  endfacet
  facet normal -7.437310e-001  9.244289e-006  6.684790e-001
    outer loop
      vertex  3.214579e-002  4.652280e-001  2.805699e-001
      vertex  2.416176e-002  2.416585e-002  2.716932e-001
      vertex  3.214041e-002  3.214579e-002  2.805699e-001
    endloop
  endfacet
  facet normal -6.679625e-001  8.302515e-006  7.441949e-001
    outer loop
      vertex  3.214579e-002  4.652280e-001  2.805699e-001
      vertex  3.214041e-002  3.214579e-002  2.805699e-001
      vertex  4.071653e-002  4.566553e-001  2.882628e-001
    endloop
  endfacet
  facet normal -6.678849e-001  5.473352e-006  7.442646e-001
    outer loop
      vertex  4.071653e-002  4.566553e-001  2.882628e-001
      vertex  3.214041e-002  3.214579e-002  2.805699e-001
      vertex  4.071312e-002  4.071653e-002  2.882628e-001
    endloop
  endfacet
  facet normal -5.467550e-001  4.480687e-006  8.372927e-001
    outer loop
      vertex  4.071653e-002  4.566553e-001  2.882628e-001
      vertex  4.071312e-002  4.071653e-002  2.882628e-001
      vertex  5.904991e-002  4.383185e-001  3.002346e-001
    endloop
  endfacet
  facet normal -5.466868e-001  0.000000e+000  8.373373e-001
    outer loop
      vertex  5.904991e-002  4.383185e-001  3.002346e-001
      vertex  4.071312e-002  4.071653e-002  2.882628e-001
      vertex  5.904991e-002  5.904991e-002  3.002346e-001
    endloop
  endfacet
  facet normal -3.500802e-001  0.000000e+000  9.367197e-001
    outer loop
      vertex  5.904991e-002  4.383185e-001  3.002346e-001
      vertex  5.904991e-002  5.904991e-002  3.002346e-001
      vertex  8.367501e-002  8.367504e-002  3.094378e-001
    endloop
  endfacet
endsolid CATIA STL
