solid CATIA STL
  facet normal  0.000000e+000 -9.999999e-001  0.000000e+000
    outer loop
      vertex -7.031250e-001 -3.906250e-001 -5.156250e-001
      vertex  4.296875e-001 -3.906250e-001 -5.156250e-001
      vertex  4.296875e-001 -3.906250e-001 -1.338816e-001
    endloop
  endfacet
  facet normal  -0.000000e+000 -9.999999e-001  0.000000e+000
    outer loop
      vertex -7.031250e-001 -3.906250e-001 -5.156250e-001
      vertex  4.296875e-001 -3.906250e-001 -1.338816e-001
      vertex -4.934210e-003 -3.906250e-001 -1.338816e-001
    endloop
  endfacet
  facet normal  -0.000000e+000 -1.000000e+000  0.000000e+000
    outer loop
      vertex -7.031250e-001 -3.906250e-001 -5.156250e-001
      vertex -4.934210e-003 -3.906250e-001 -1.338816e-001
      vertex -3.526316e-001 -3.906250e-001 -1.338816e-001
    endloop
  endfacet
  facet normal  -0.000000e+000 -1.000000e+000  0.000000e+000
    outer loop
      vertex -7.031250e-001 -3.906250e-001 -5.156250e-001
      vertex -3.526316e-001 -3.906250e-001 -1.338816e-001
      vertex -7.031250e-001 -3.906250e-001 -1.338816e-001
    endloop
  endfacet
  facet normal  0.000000e+000 -1.000000e+000  0.000000e+000
    outer loop
      vertex -3.526316e-001 -3.906250e-001 -1.338816e-001
      vertex -4.934210e-003 -3.906250e-001 -1.338816e-001
      vertex -3.526316e-001 -3.906250e-001  5.937500e-001
    endloop
  endfacet
  facet normal  0.000000e+000 -1.000000e+000  0.000000e+000
    outer loop
      vertex -3.526316e-001 -3.906250e-001  5.937500e-001
      vertex -4.934210e-003 -3.906250e-001 -1.338816e-001
      vertex -4.934210e-003 -3.906250e-001  5.937500e-001
    endloop
  endfacet
  facet normal -8.944091e-001  1.074155e-005 -4.472497e-001
    outer loop
      vertex -7.494205e-001 -3.510980e-001 -5.167840e-001
      vertex -7.498514e-001 -3.474796e-001 -5.159222e-001
      vertex -7.500000e-001 -3.437500e-001 -5.156250e-001
    endloop
  endfacet
  facet normal -8.944290e-001  0.000000e+000 -4.472099e-001
    outer loop
      vertex -7.421875e-001 -7.812500e-003 -5.312500e-001
      vertex -7.421875e-001 -3.696611e-001 -5.312500e-001
      vertex -7.450880e-001 -3.646394e-001 -5.254489e-001
    endloop
  endfacet
  facet normal -8.944240e-001 -2.053505e-007 -4.472200e-001
    outer loop
      vertex -7.421875e-001 -7.812500e-003 -5.312500e-001
      vertex -7.450880e-001 -3.646394e-001 -5.254489e-001
      vertex -7.467004e-001 -3.610257e-001 -5.222242e-001
    endloop
  endfacet
  facet normal -8.944272e-001  0.000000e+000 -4.472136e-001
    outer loop
      vertex -7.421875e-001 -7.812500e-003 -5.312500e-001
      vertex -7.467004e-001 -3.610257e-001 -5.222242e-001
      vertex -7.483830e-001 -3.559555e-001 -5.188589e-001
    endloop
  endfacet
  facet normal -8.944358e-001  7.704304e-007 -4.471963e-001
    outer loop
      vertex -7.421875e-001 -7.812500e-003 -5.312500e-001
      vertex -7.483830e-001 -3.559555e-001 -5.188589e-001
      vertex -7.489566e-001 -3.535852e-001 -5.177118e-001
    endloop
  endfacet
  facet normal -8.944065e-001 -2.105776e-006 -4.472550e-001
    outer loop
      vertex -7.421875e-001 -7.812500e-003 -5.312500e-001
      vertex -7.489566e-001 -3.535852e-001 -5.177118e-001
      vertex -7.494205e-001 -3.510980e-001 -5.167840e-001
    endloop
  endfacet
  facet normal -8.944343e-001  8.261207e-007 -4.471994e-001
    outer loop
      vertex -7.421875e-001 -7.812500e-003 -5.312500e-001
      vertex -7.494205e-001 -3.510980e-001 -5.167840e-001
      vertex -7.500000e-001 -3.437500e-001 -5.156250e-001
    endloop
  endfacet
  facet normal -8.944272e-001  0.000000e+000 -4.472136e-001
    outer loop
      vertex -7.421875e-001 -7.812500e-003 -5.312500e-001
      vertex -7.500000e-001 -3.437500e-001 -5.156250e-001
      vertex -7.500000e-001  1.734723e-018 -5.156250e-001
    endloop
  endfacet
  facet normal  -0.000000e+000 -8.944272e-001 -4.472136e-001
    outer loop
      vertex -7.290362e-001 -3.828125e-001 -5.312500e-001
      vertex  4.218750e-001 -3.828125e-001 -5.312500e-001
      vertex  4.296875e-001 -3.906250e-001 -5.156250e-001
    endloop
  endfacet
  facet normal  -0.000000e+000 -8.944272e-001 -4.472136e-001
    outer loop
      vertex -7.290362e-001 -3.828125e-001 -5.312500e-001
      vertex  4.296875e-001 -3.906250e-001 -5.156250e-001
      vertex -7.031250e-001 -3.906250e-001 -5.156250e-001
    endloop
  endfacet
  facet normal  0.000000e+000 -8.944272e-001 -4.472136e-001
    outer loop
      vertex -7.290362e-001 -3.828125e-001 -5.312500e-001
      vertex -7.031250e-001 -3.906250e-001 -5.156250e-001
      vertex -7.060660e-001 -3.905326e-001 -5.158097e-001
    endloop
  endfacet
  facet normal  0.000000e+000 -8.944272e-001 -4.472136e-001
    outer loop
      vertex -7.290362e-001 -3.828125e-001 -5.312500e-001
      vertex -7.060660e-001 -3.905326e-001 -5.158097e-001
      vertex -7.236465e-001 -3.858942e-001 -5.250866e-001
    endloop
  endfacet
  facet normal  0.000000e+000 -8.944272e-001 -4.472136e-001
    outer loop
      vertex -7.060660e-001 -3.905326e-001 -5.158097e-001
      vertex -7.089512e-001 -3.902615e-001 -5.163520e-001
      vertex -7.128055e-001 -3.896145e-001 -5.176460e-001
    endloop
  endfacet
  facet normal  0.000000e+000 -8.944272e-001 -4.472136e-001
    outer loop
      vertex -7.060660e-001 -3.905326e-001 -5.158097e-001
      vertex -7.128055e-001 -3.896145e-001 -5.176460e-001
      vertex -7.157117e-001 -3.889035e-001 -5.190679e-001
    endloop
  endfacet
  facet normal  0.000000e+000 -8.944272e-001 -4.472136e-001
    outer loop
      vertex -7.060660e-001 -3.905326e-001 -5.158097e-001
      vertex -7.157117e-001 -3.889035e-001 -5.190679e-001
      vertex -7.181061e-001 -3.881666e-001 -5.205418e-001
    endloop
  endfacet
  facet normal  0.000000e+000 -8.944271e-001 -4.472136e-001
    outer loop
      vertex -7.060660e-001 -3.905326e-001 -5.158097e-001
      vertex -7.181061e-001 -3.881666e-001 -5.205418e-001
      vertex -7.236465e-001 -3.858942e-001 -5.250866e-001
    endloop
  endfacet
  facet normal -1.000000e+000  -0.000000e+000  0.000000e+000
    outer loop
      vertex -7.500000e-001 -3.437500e-001 -1.338816e-001
      vertex -7.500000e-001  4.411676e-017 -1.338816e-001
      vertex -7.500000e-001 -3.437500e-001 -5.156250e-001
    endloop
  endfacet
  facet normal -1.000000e+000  0.000000e+000  0.000000e+000
    outer loop
      vertex -7.500000e-001 -3.437500e-001 -5.156250e-001
      vertex -7.500000e-001  4.411676e-017 -1.338816e-001
      vertex -7.500000e-001  1.734723e-018 -5.156250e-001
    endloop
  endfacet
  facet normal  -0.000000e+000  -0.000000e+000 -1.000000e+000
    outer loop
      vertex -7.421875e-001 -7.812500e-003 -5.312500e-001
      vertex  4.218750e-001 -7.812500e-003 -5.312500e-001
      vertex  4.218750e-001 -3.828125e-001 -5.312500e-001
    endloop
  endfacet
  facet normal  0.000000e+000  0.000000e+000 -1.000000e+000
    outer loop
      vertex -7.421875e-001 -7.812500e-003 -5.312500e-001
      vertex  4.218750e-001 -3.828125e-001 -5.312500e-001
      vertex -7.290362e-001 -3.828125e-001 -5.312500e-001
    endloop
  endfacet
  facet normal  0.000000e+000  0.000000e+000 -1.000000e+000
    outer loop
      vertex -7.421875e-001 -7.812500e-003 -5.312500e-001
      vertex -7.290362e-001 -3.828125e-001 -5.312500e-001
      vertex -7.339923e-001 -3.790271e-001 -5.312500e-001
    endloop
  endfacet
  facet normal  0.000000e+000  0.000000e+000 -1.000000e+000
    outer loop
      vertex -7.421875e-001 -7.812500e-003 -5.312500e-001
      vertex -7.339923e-001 -3.790271e-001 -5.312500e-001
      vertex -7.384021e-001 -3.746173e-001 -5.312500e-001
    endloop
  endfacet
  facet normal  0.000000e+000  0.000000e+000 -1.000000e+000
    outer loop
      vertex -7.421875e-001 -7.812500e-003 -5.312500e-001
      vertex -7.384021e-001 -3.746173e-001 -5.312500e-001
      vertex -7.421875e-001 -3.696611e-001 -5.312500e-001
    endloop
  endfacet
  facet normal  -0.000000e+000  -0.000000e+000  1.000000e+000
    outer loop
      vertex -7.500000e-001 -3.437500e-001 -1.338816e-001
      vertex -7.490993e-001 -3.528949e-001 -1.338816e-001
      vertex -7.464318e-001 -3.616883e-001 -1.338816e-001
    endloop
  endfacet
  facet normal  -0.000000e+000  0.000000e+000  1.000000e+000
    outer loop
      vertex -7.500000e-001  4.411676e-017 -1.338816e-001
      vertex -7.500000e-001 -3.437500e-001 -1.338816e-001
      vertex -7.464318e-001 -3.616883e-001 -1.338816e-001
    endloop
  endfacet
  facet normal  -0.000000e+000  -0.000000e+000  1.000000e+000
    outer loop
      vertex -7.500000e-001  4.411676e-017 -1.338816e-001
      vertex -7.464318e-001 -3.616883e-001 -1.338816e-001
      vertex -7.421001e-001 -3.697923e-001 -1.338816e-001
    endloop
  endfacet
  facet normal  -0.000000e+000  -0.000000e+000  1.000000e+000
    outer loop
      vertex -7.500000e-001  4.411676e-017 -1.338816e-001
      vertex -7.421001e-001 -3.697923e-001 -1.338816e-001
      vertex -7.362706e-001 -3.768956e-001 -1.338816e-001
    endloop
  endfacet
  facet normal  -0.000000e+000  -0.000000e+000  1.000000e+000
    outer loop
      vertex -7.500000e-001  4.411676e-017 -1.338816e-001
      vertex -7.362706e-001 -3.768956e-001 -1.338816e-001
      vertex -7.291673e-001 -3.827251e-001 -1.338816e-001
    endloop
  endfacet
  facet normal  -0.000000e+000  -0.000000e+000  1.000000e+000
    outer loop
      vertex -7.500000e-001  4.411676e-017 -1.338816e-001
      vertex -7.291673e-001 -3.827251e-001 -1.338816e-001
      vertex -7.210633e-001 -3.870569e-001 -1.338816e-001
    endloop
  endfacet
  facet normal  -0.000000e+000  -0.000000e+000  1.000000e+000
    outer loop
      vertex -7.500000e-001  4.411676e-017 -1.338816e-001
      vertex -7.210633e-001 -3.870569e-001 -1.338816e-001
      vertex -7.122698e-001 -3.897243e-001 -1.338816e-001
    endloop
  endfacet
  facet normal  -0.000000e+000  -0.000000e+000  9.999999e-001
    outer loop
      vertex -7.500000e-001  4.411676e-017 -1.338816e-001
      vertex -7.122698e-001 -3.897243e-001 -1.338816e-001
      vertex -7.031250e-001 -3.906250e-001 -1.338816e-001
    endloop
  endfacet
  facet normal  0.000000e+000  -0.000000e+000  1.000000e+000
    outer loop
      vertex -7.500000e-001  4.411676e-017 -1.338816e-001
      vertex -7.031250e-001 -3.906250e-001 -1.338816e-001
      vertex -3.526316e-001 -3.906250e-001 -1.338816e-001
    endloop
  endfacet
  facet normal  0.000000e+000  -0.000000e+000  1.000000e+000
    outer loop
      vertex -7.500000e-001  4.411676e-017 -1.338816e-001
      vertex -3.526316e-001 -3.906250e-001 -1.338816e-001
      vertex -3.526316e-001  8.823352e-017 -1.338816e-001
    endloop
  endfacet
  facet normal -8.659195e-001 -5.001833e-001  2.524239e-005
    outer loop
      vertex -7.421875e-001 -3.696611e-001 -5.312500e-001
      vertex -7.421001e-001 -3.697923e-001 -1.338816e-001
      vertex -7.450880e-001 -3.646394e-001 -5.254489e-001
    endloop
  endfacet
  facet normal -7.947177e-001 -6.069792e-001 -2.568103e-005
    outer loop
      vertex -7.421875e-001 -3.696611e-001 -5.312500e-001
      vertex -7.384021e-001 -3.746173e-001 -5.312500e-001
      vertex -7.421001e-001 -3.697923e-001 -1.338816e-001
    endloop
  endfacet
  facet normal -6.069839e-001 -7.947142e-001 -2.569741e-005
    outer loop
      vertex -7.290362e-001 -3.828125e-001 -5.312500e-001
      vertex -7.291673e-001 -3.827251e-001 -1.338816e-001
      vertex -7.339923e-001 -3.790271e-001 -5.312500e-001
    endloop
  endfacet
  facet normal -4.963917e-001 -8.680987e-001  2.694580e-005
    outer loop
      vertex -7.290362e-001 -3.828125e-001 -5.312500e-001
      vertex -7.236465e-001 -3.858942e-001 -5.250866e-001
      vertex -7.291673e-001 -3.827251e-001 -1.338816e-001
    endloop
  endfacet
  facet normal -3.148839e-002 -9.995029e-001  1.603909e-003
    outer loop
      vertex -7.031250e-001 -3.906250e-001 -5.156250e-001
      vertex -7.122698e-001 -3.897243e-001 -1.338816e-001
      vertex -7.060660e-001 -3.905326e-001 -5.158097e-001
    endloop
  endfacet
  facet normal -9.801686e-002 -9.951847e-001  -0.000000e+000
    outer loop
      vertex -7.031250e-001 -3.906250e-001 -5.156250e-001
      vertex -7.031250e-001 -3.906250e-001 -1.338816e-001
      vertex -7.122698e-001 -3.897243e-001 -1.338816e-001
    endloop
  endfacet
  facet normal -9.951847e-001 -9.801653e-002  5.697947e-004
    outer loop
      vertex -7.500000e-001 -3.437500e-001 -1.338816e-001
      vertex -7.498514e-001 -3.474796e-001 -5.159222e-001
      vertex -7.490993e-001 -3.528949e-001 -1.338816e-001
    endloop
  endfacet
  facet normal -9.992072e-001 -3.981020e-002  0.000000e+000
    outer loop
      vertex -7.500000e-001 -3.437500e-001 -1.338816e-001
      vertex -7.500000e-001 -3.437500e-001 -5.156250e-001
      vertex -7.498514e-001 -3.474796e-001 -5.159222e-001
    endloop
  endfacet
  facet normal -9.929764e-001 -1.183119e-001  2.777694e-004
    outer loop
      vertex -7.490993e-001 -3.528949e-001 -1.338816e-001
      vertex -7.498514e-001 -3.474796e-001 -5.159222e-001
      vertex -7.494205e-001 -3.510980e-001 -5.167840e-001
    endloop
  endfacet
  facet normal -9.830461e-001 -1.833588e-001 -3.581610e-005
    outer loop
      vertex -7.490993e-001 -3.528949e-001 -1.338816e-001
      vertex -7.494205e-001 -3.510980e-001 -5.167840e-001
      vertex -7.489566e-001 -3.535852e-001 -5.177118e-001
    endloop
  endfacet
  facet normal -9.719453e-001 -2.352070e-001  6.156845e-005
    outer loop
      vertex -7.490993e-001 -3.528949e-001 -1.338816e-001
      vertex -7.489566e-001 -3.535852e-001 -5.177118e-001
      vertex -7.483830e-001 -3.559555e-001 -5.188589e-001
    endloop
  endfacet
  facet normal -9.569392e-001 -2.902880e-001  5.273875e-004
    outer loop
      vertex -7.490993e-001 -3.528949e-001 -1.338816e-001
      vertex -7.483830e-001 -3.559555e-001 -5.188589e-001
      vertex -7.464318e-001 -3.616883e-001 -1.338816e-001
    endloop
  endfacet
  facet normal -9.490767e-001 -3.150450e-001  1.188738e-004
    outer loop
      vertex -7.464318e-001 -3.616883e-001 -1.338816e-001
      vertex -7.483830e-001 -3.559555e-001 -5.188589e-001
      vertex -7.467004e-001 -3.610257e-001 -5.222242e-001
    endloop
  endfacet
  facet normal -9.132422e-001 -4.074171e-001 -6.350872e-005
    outer loop
      vertex -7.464318e-001 -3.616883e-001 -1.338816e-001
      vertex -7.467004e-001 -3.610257e-001 -5.222242e-001
      vertex -7.450880e-001 -3.646394e-001 -5.254489e-001
    endloop
  endfacet
  facet normal -8.819212e-001 -4.713967e-001  5.261725e-004
    outer loop
      vertex -7.464318e-001 -3.616883e-001 -1.338816e-001
      vertex -7.450880e-001 -3.646394e-001 -5.254489e-001
      vertex -7.421001e-001 -3.697923e-001 -1.338816e-001
    endloop
  endfacet
  facet normal -7.730108e-001 -6.343926e-001  5.091878e-004
    outer loop
      vertex -7.421001e-001 -3.697923e-001 -1.338816e-001
      vertex -7.384021e-001 -3.746173e-001 -5.312500e-001
      vertex -7.362706e-001 -3.768956e-001 -1.338816e-001
    endloop
  endfacet
  facet normal -7.071044e-001 -7.071092e-001 -2.612644e-004
    outer loop
      vertex -7.384021e-001 -3.746173e-001 -5.312500e-001
      vertex -7.339923e-001 -3.790271e-001 -5.312500e-001
      vertex -7.362706e-001 -3.768956e-001 -1.338816e-001
    endloop
  endfacet
  facet normal -6.343941e-001 -7.730096e-001  5.091137e-004
    outer loop
      vertex -7.291673e-001 -3.827251e-001 -1.338816e-001
      vertex -7.362706e-001 -3.768956e-001 -1.338816e-001
      vertex -7.339923e-001 -3.790271e-001 -5.312500e-001
    endloop
  endfacet
  facet normal -1.655273e-001 -9.862052e-001 -5.109832e-005
    outer loop
      vertex -7.122698e-001 -3.897243e-001 -1.338816e-001
      vertex -7.128055e-001 -3.896145e-001 -5.176460e-001
      vertex -7.089512e-001 -3.902615e-001 -5.163520e-001
    endloop
  endfacet
  facet normal -9.367279e-002 -9.956029e-001  5.855656e-004
    outer loop
      vertex -7.122698e-001 -3.897243e-001 -1.338816e-001
      vertex -7.089512e-001 -3.902615e-001 -5.163520e-001
      vertex -7.060660e-001 -3.905326e-001 -5.158097e-001
    endloop
  endfacet
  facet normal -4.713953e-001 -8.819218e-001  4.916806e-004
    outer loop
      vertex -7.210633e-001 -3.870569e-001 -1.338816e-001
      vertex -7.291673e-001 -3.827251e-001 -1.338816e-001
      vertex -7.236465e-001 -3.858942e-001 -5.250866e-001
    endloop
  endfacet
  facet normal -3.792984e-001 -9.252744e-001 -2.453137e-004
    outer loop
      vertex -7.210633e-001 -3.870569e-001 -1.338816e-001
      vertex -7.236465e-001 -3.858942e-001 -5.250866e-001
      vertex -7.181061e-001 -3.881666e-001 -5.205418e-001
    endloop
  endfacet
  facet normal -2.944421e-001 -9.556692e-001  4.908976e-004
    outer loop
      vertex -7.210633e-001 -3.870569e-001 -1.338816e-001
      vertex -7.181061e-001 -3.881666e-001 -5.205418e-001
      vertex -7.157117e-001 -3.889035e-001 -5.190679e-001
    endloop
  endfacet
  facet normal -2.382599e-001 -9.712005e-001  1.345919e-003
    outer loop
      vertex -7.210633e-001 -3.870569e-001 -1.338816e-001
      vertex -7.157117e-001 -3.889035e-001 -5.190679e-001
      vertex -7.128055e-001 -3.896145e-001 -5.176460e-001
    endloop
  endfacet
  facet normal -2.902851e-001 -9.569402e-001  1.314139e-004
    outer loop
      vertex -7.210633e-001 -3.870569e-001 -1.338816e-001
      vertex -7.128055e-001 -3.896145e-001 -5.176460e-001
      vertex -7.122698e-001 -3.897243e-001 -1.338816e-001
    endloop
  endfacet
  facet normal -9.999999e-001  0.000000e+000  0.000000e+000
    outer loop
      vertex -3.526316e-001  8.823352e-017 -1.338816e-001
      vertex -3.526316e-001 -3.906250e-001 -1.338816e-001
      vertex -3.526316e-001  1.750884e-016  6.484375e-001
    endloop
  endfacet
  facet normal -1.000000e+000  0.000000e+000  0.000000e+000
    outer loop
      vertex -3.526316e-001  1.750884e-016  6.484375e-001
      vertex -3.526316e-001 -3.906250e-001 -1.338816e-001
      vertex -3.526316e-001 -3.906250e-001  5.937500e-001
    endloop
  endfacet
  facet normal -1.000000e+000  0.000000e+000  0.000000e+000
    outer loop
      vertex -3.526316e-001  1.750884e-016  6.484375e-001
      vertex -3.526316e-001 -3.906250e-001  5.937500e-001
      vertex -3.526316e-001 -3.437500e-001  6.484375e-001
    endloop
  endfacet
  facet normal  -0.000000e+000  0.000000e+000  1.000000e+000
    outer loop
      vertex -4.934210e-003  2.136905e-016  6.484375e-001
      vertex -3.526316e-001  1.750884e-016  6.484375e-001
      vertex -4.934210e-003 -3.437500e-001  6.484375e-001
    endloop
  endfacet
  facet normal  0.000000e+000  0.000000e+000  1.000000e+000
    outer loop
      vertex -4.934210e-003 -3.437500e-001  6.484375e-001
      vertex -3.526316e-001  1.750884e-016  6.484375e-001
      vertex -3.526316e-001 -3.437500e-001  6.484375e-001
    endloop
  endfacet
  facet normal  1.000000e+000  0.000000e+000  0.000000e+000
    outer loop
      vertex -4.934210e-003 -3.906250e-001 -1.338816e-001
      vertex -4.934210e-003  1.268357e-016 -1.338816e-001
      vertex -4.934210e-003 -3.906250e-001  5.937500e-001
    endloop
  endfacet
  facet normal  9.999999e-001  -0.000000e+000  0.000000e+000
    outer loop
      vertex -4.934210e-003 -3.906250e-001  5.937500e-001
      vertex -4.934210e-003  1.268357e-016 -1.338816e-001
      vertex -4.934210e-003  2.136905e-016  6.484375e-001
    endloop
  endfacet
  facet normal  1.000000e+000  0.000000e+000  0.000000e+000
    outer loop
      vertex -4.934210e-003 -3.906250e-001  5.937500e-001
      vertex -4.934210e-003  2.136905e-016  6.484375e-001
      vertex -4.934210e-003 -3.437500e-001  6.484375e-001
    endloop
  endfacet
  facet normal  0.000000e+000 -7.592566e-001  6.507913e-001
    outer loop
      vertex -3.526316e-001 -3.906250e-001  5.937500e-001
      vertex -4.934210e-003 -3.906250e-001  5.937500e-001
      vertex -3.526316e-001 -3.437500e-001  6.484375e-001
    endloop
  endfacet
  facet normal  0.000000e+000 -7.592566e-001  6.507913e-001
    outer loop
      vertex -3.526316e-001 -3.437500e-001  6.484375e-001
      vertex -4.934210e-003 -3.906250e-001  5.937500e-001
      vertex -4.934210e-003 -3.437500e-001  6.484375e-001
    endloop
  endfacet
  facet normal -1.110223e-016  1.000000e+000 -1.110223e-016
    outer loop
      vertex -7.500000e-001  1.734723e-018 -5.156250e-001
      vertex -7.500000e-001  4.411676e-017 -1.338816e-001
      vertex -3.526316e-001  8.823352e-017 -1.338816e-001
    endloop
  endfacet
  facet normal -1.110223e-016  1.000000e+000 -1.110223e-016
    outer loop
      vertex -7.500000e-001  1.734723e-018 -5.156250e-001
      vertex -3.526316e-001  8.823352e-017 -1.338816e-001
      vertex -4.934210e-003  1.268357e-016 -1.338816e-001
    endloop
  endfacet
  facet normal -1.110223e-016  9.999999e-001 -1.110223e-016
    outer loop
      vertex -7.500000e-001  1.734723e-018 -5.156250e-001
      vertex -4.934210e-003  1.268357e-016 -1.338816e-001
      vertex  4.296875e-001  1.750884e-016 -1.338816e-001
    endloop
  endfacet
  facet normal -1.110223e-016  1.000000e+000 -1.110223e-016
    outer loop
      vertex -7.500000e-001  1.734723e-018 -5.156250e-001
      vertex  4.296875e-001  1.750884e-016 -1.338816e-001
      vertex  4.296875e-001  1.327063e-016 -5.156250e-001
    endloop
  endfacet
  facet normal -1.110223e-016  1.000000e+000 -1.110223e-016
    outer loop
      vertex -3.526316e-001  8.823352e-017 -1.338816e-001
      vertex -3.526316e-001  1.750884e-016  6.484375e-001
      vertex -4.934210e-003  1.268357e-016 -1.338816e-001
    endloop
  endfacet
  facet normal -1.110223e-016  1.000000e+000 -1.110223e-016
    outer loop
      vertex -4.934210e-003  1.268357e-016 -1.338816e-001
      vertex -3.526316e-001  1.750884e-016  6.484375e-001
      vertex -4.934210e-003  2.136905e-016  6.484375e-001
    endloop
  endfacet
  facet normal  1.000000e+000  0.000000e+000  0.000000e+000
    outer loop
      vertex  4.296875e-001 -3.906250e-001 -5.156250e-001
      vertex  4.296875e-001  1.327063e-016 -5.156250e-001
      vertex  4.296875e-001 -3.906250e-001 -1.338816e-001
    endloop
  endfacet
  facet normal  1.000000e+000  -0.000000e+000  0.000000e+000
    outer loop
      vertex  4.296875e-001 -3.906250e-001 -1.338816e-001
      vertex  4.296875e-001  1.327063e-016 -5.156250e-001
      vertex  4.296875e-001  1.750884e-016 -1.338816e-001
    endloop
  endfacet
  facet normal  0.000000e+000  8.944272e-001 -4.472136e-001
    outer loop
      vertex  4.296875e-001  1.327063e-016 -5.156250e-001
      vertex  4.218750e-001 -7.812500e-003 -5.312500e-001
      vertex -7.500000e-001  1.734723e-018 -5.156250e-001
    endloop
  endfacet
  facet normal  0.000000e+000  8.944272e-001 -4.472136e-001
    outer loop
      vertex -7.500000e-001  1.734723e-018 -5.156250e-001
      vertex  4.218750e-001 -7.812500e-003 -5.312500e-001
      vertex -7.421875e-001 -7.812500e-003 -5.312500e-001
    endloop
  endfacet
  facet normal  8.944272e-001  0.000000e+000 -4.472136e-001
    outer loop
      vertex  4.296875e-001  1.327063e-016 -5.156250e-001
      vertex  4.296875e-001 -3.906250e-001 -5.156250e-001
      vertex  4.218750e-001 -7.812500e-003 -5.312500e-001
    endloop
  endfacet
  facet normal  8.944272e-001  0.000000e+000 -4.472136e-001
    outer loop
      vertex  4.218750e-001 -7.812500e-003 -5.312500e-001
      vertex  4.296875e-001 -3.906250e-001 -5.156250e-001
      vertex  4.218750e-001 -3.828125e-001 -5.312500e-001
    endloop
  endfacet
  facet normal  0.000000e+000  0.000000e+000  1.000000e+000
    outer loop
      vertex  4.296875e-001 -3.906250e-001 -1.338816e-001
      vertex  4.296875e-001  1.750884e-016 -1.338816e-001
      vertex -4.934210e-003 -3.906250e-001 -1.338816e-001
    endloop
  endfacet
  facet normal  0.000000e+000  0.000000e+000  1.000000e+000
    outer loop
      vertex -4.934210e-003 -3.906250e-001 -1.338816e-001
      vertex  4.296875e-001  1.750884e-016 -1.338816e-001
      vertex -4.934210e-003  1.268357e-016 -1.338816e-001
    endloop
  endfacet
endsolid CATIA STL
