solid CATIA STL
  facet normal  0.000000e+000 -1.000000e+000  0.000000e+000
    outer loop
      vertex -7.026316e-001 -8.593750e-002 -5.385691e-001
      vertex  7.026316e-001 -8.593750e-002 -5.385691e-001
      vertex -7.026316e-001 -8.593750e-002  5.351151e-001
    endloop
  endfacet
  facet normal  0.000000e+000 -1.000000e+000  0.000000e+000
    outer loop
      vertex -7.026316e-001 -8.593750e-002  5.351151e-001
      vertex  7.026316e-001 -8.593750e-002 -5.385691e-001
      vertex  7.026316e-001 -8.593750e-002  5.273026e-001
    endloop
  endfacet
  facet normal  0.000000e+000 -1.000000e+000  0.000000e+000
    outer loop
      vertex -7.026316e-001 -8.593750e-002  5.351151e-001
      vertex  7.026316e-001 -8.593750e-002  5.273026e-001
      vertex  6.713816e-001 -8.593750e-002  5.351151e-001
    endloop
  endfacet
  facet normal -1.110223e-016  1.000000e+000 -1.110223e-016
    outer loop
      vertex  6.713816e-001  2.822669e-016  5.351151e-001
      vertex  7.026316e-001  2.848690e-016  5.273026e-001
      vertex -7.026316e-001  1.297208e-016  5.351151e-001
    endloop
  endfacet
  facet normal -1.110223e-016  1.000000e+000 -1.110223e-016
    outer loop
      vertex -7.026316e-001  1.297208e-016  5.351151e-001
      vertex  7.026316e-001  2.848690e-016  5.273026e-001
      vertex  7.026316e-001  1.665335e-016 -5.385691e-001
    endloop
  endfacet
  facet normal -1.110223e-016  1.000000e+000 -1.110223e-016
    outer loop
      vertex -7.026316e-001  1.297208e-016  5.351151e-001
      vertex  7.026316e-001  1.665335e-016 -5.385691e-001
      vertex -7.026316e-001  1.051790e-017 -5.385691e-001
    endloop
  endfacet
  facet normal  0.000000e+000  0.000000e+000  9.999999e-001
    outer loop
      vertex  6.713816e-001 -8.593750e-002  5.351151e-001
      vertex  6.713816e-001  2.822669e-016  5.351151e-001
      vertex -7.026316e-001 -8.593750e-002  5.351151e-001
    endloop
  endfacet
  facet normal  0.000000e+000  0.000000e+000  9.999999e-001
    outer loop
      vertex -7.026316e-001 -8.593750e-002  5.351151e-001
      vertex  6.713816e-001  2.822669e-016  5.351151e-001
      vertex -7.026316e-001  1.297208e-016  5.351151e-001
    endloop
  endfacet
  facet normal  1.000000e+000  0.000000e+000  0.000000e+000
    outer loop
      vertex  7.026316e-001 -8.593750e-002 -5.385691e-001
      vertex  7.026316e-001  1.665335e-016 -5.385691e-001
      vertex  7.026316e-001 -8.593750e-002  5.273026e-001
    endloop
  endfacet
  facet normal  1.000000e+000  -0.000000e+000  0.000000e+000
    outer loop
      vertex  7.026316e-001 -8.593750e-002  5.273026e-001
      vertex  7.026316e-001  1.665335e-016 -5.385691e-001
      vertex  7.026316e-001  2.848690e-016  5.273026e-001
    endloop
  endfacet
  facet normal  2.425356e-001  0.000000e+000  9.701425e-001
    outer loop
      vertex  7.026316e-001 -8.593750e-002  5.273026e-001
      vertex  7.026316e-001  2.848690e-016  5.273026e-001
      vertex  6.713816e-001 -8.593750e-002  5.351151e-001
    endloop
  endfacet
  facet normal  2.425356e-001  -0.000000e+000  9.701425e-001
    outer loop
      vertex  6.713816e-001 -8.593750e-002  5.351151e-001
      vertex  7.026316e-001  2.848690e-016  5.273026e-001
      vertex  6.713816e-001  2.822669e-016  5.351151e-001
    endloop
  endfacet
  facet normal -1.000000e+000  -0.000000e+000  0.000000e+000
    outer loop
      vertex -7.026316e-001 -8.593750e-002  5.351151e-001
      vertex -7.026316e-001  1.297208e-016  5.351151e-001
      vertex -7.026316e-001 -8.593750e-002 -5.385691e-001
    endloop
  endfacet
  facet normal -1.000000e+000  0.000000e+000  0.000000e+000
    outer loop
      vertex -7.026316e-001 -8.593750e-002 -5.385691e-001
      vertex -7.026316e-001  1.297208e-016  5.351151e-001
      vertex -7.026316e-001  1.051790e-017 -5.385691e-001
    endloop
  endfacet
  facet normal  0.000000e+000  0.000000e+000 -9.999999e-001
    outer loop
      vertex -7.026316e-001 -8.593750e-002 -5.385691e-001
      vertex -7.026316e-001  1.051790e-017 -5.385691e-001
      vertex  7.026316e-001 -8.593750e-002 -5.385691e-001
    endloop
  endfacet
  facet normal  0.000000e+000  0.000000e+000 -9.999999e-001
    outer loop
      vertex  7.026316e-001 -8.593750e-002 -5.385691e-001
      vertex -7.026316e-001  1.051790e-017 -5.385691e-001
      vertex  7.026316e-001  1.665335e-016 -5.385691e-001
    endloop
  endfacet
endsolid CATIA STL
