solid CATIA STL
  facet normal  -0.000000e+000  0.000000e+000 -1.000000e+000
    outer loop
      vertex  4.513763e-001  2.500000e-001  5.797697e-001
      vertex  4.853792e-001  1.731203e-001  5.797697e-001
      vertex  4.746970e-001 -1.854611e-001  5.797697e-001
    endloop
  endfacet
  facet normal  -0.000000e+000  0.000000e+000 -1.000000e+000
    outer loop
      vertex  4.513763e-001  2.500000e-001  5.797697e-001
      vertex  4.746970e-001 -1.854611e-001  5.797697e-001
      vertex  4.280057e-001 -2.728144e-001  5.797697e-001
    endloop
  endfacet
  facet normal  -0.000000e+000  0.000000e+000 -1.000000e+000
    outer loop
      vertex  4.513763e-001  2.500000e-001  5.797697e-001
      vertex  4.280057e-001 -2.728144e-001  5.797697e-001
      vertex  3.651697e-001 -3.493803e-001  5.797697e-001
    endloop
  endfacet
  facet normal  -0.000000e+000  0.000000e+000 -1.000000e+000
    outer loop
      vertex  4.513763e-001  2.500000e-001  5.797697e-001
      vertex  3.651697e-001 -3.493803e-001  5.797697e-001
      vertex  2.886039e-001 -4.122162e-001  5.797697e-001
    endloop
  endfacet
  facet normal  -0.000000e+000  0.000000e+000 -1.000000e+000
    outer loop
      vertex  4.513763e-001  2.500000e-001  5.797697e-001
      vertex  2.886039e-001 -4.122162e-001  5.797697e-001
      vertex  2.012506e-001 -4.589075e-001  5.797697e-001
    endloop
  endfacet
  facet normal  -0.000000e+000  0.000000e+000 -1.000000e+000
    outer loop
      vertex  4.513763e-001  2.500000e-001  5.797697e-001
      vertex  2.012506e-001 -4.589075e-001  5.797697e-001
      vertex  1.064667e-001 -4.876599e-001  5.797697e-001
    endloop
  endfacet
  facet normal  -0.000000e+000  0.000000e+000 -1.000000e+000
    outer loop
      vertex  4.513763e-001  2.500000e-001  5.797697e-001
      vertex  1.064667e-001 -4.876599e-001  5.797697e-001
      vertex  7.894737e-003 -4.973684e-001  5.797697e-001
    endloop
  endfacet
  facet normal  0.000000e+000  0.000000e+000 -1.000000e+000
    outer loop
      vertex  4.513763e-001  2.500000e-001  5.797697e-001
      vertex  7.894737e-003 -4.973684e-001  5.797697e-001
      vertex -9.067722e-002 -4.876599e-001  5.797697e-001
    endloop
  endfacet
  facet normal  0.000000e+000  0.000000e+000 -1.000000e+000
    outer loop
      vertex  4.513763e-001  2.500000e-001  5.797697e-001
      vertex -9.067722e-002 -4.876599e-001  5.797697e-001
      vertex -1.854611e-001 -4.589075e-001  5.797697e-001
    endloop
  endfacet
  facet normal  0.000000e+000  0.000000e+000 -1.000000e+000
    outer loop
      vertex  4.513763e-001  2.500000e-001  5.797697e-001
      vertex -1.854611e-001 -4.589075e-001  5.797697e-001
      vertex -2.728144e-001 -4.122162e-001  5.797697e-001
    endloop
  endfacet
  facet normal  0.000000e+000  0.000000e+000 -1.000000e+000
    outer loop
      vertex  4.513763e-001  2.500000e-001  5.797697e-001
      vertex -2.728144e-001 -4.122162e-001  5.797697e-001
      vertex -3.493803e-001 -3.493803e-001  5.797697e-001
    endloop
  endfacet
  facet normal  0.000000e+000  0.000000e+000 -1.000000e+000
    outer loop
      vertex  4.513763e-001  2.500000e-001  5.797697e-001
      vertex -3.493803e-001 -3.493803e-001  5.797697e-001
      vertex -4.122162e-001 -2.728144e-001  5.797697e-001
    endloop
  endfacet
  facet normal  0.000000e+000  0.000000e+000 -1.000000e+000
    outer loop
      vertex  4.513763e-001  2.500000e-001  5.797697e-001
      vertex -4.122162e-001 -2.728144e-001  5.797697e-001
      vertex -4.355868e-001  2.500000e-001  5.797697e-001
    endloop
  endfacet
  facet normal  0.000000e+000  0.000000e+000 -1.000000e+000
    outer loop
      vertex -4.355868e-001  2.500000e-001  5.797697e-001
      vertex -4.122162e-001 -2.728144e-001  5.797697e-001
      vertex -4.695897e-001  1.731203e-001  5.797697e-001
    endloop
  endfacet
  facet normal  0.000000e+000  0.000000e+000 -1.000000e+000
    outer loop
      vertex -4.695897e-001  1.731203e-001  5.797697e-001
      vertex -4.122162e-001 -2.728144e-001  5.797697e-001
      vertex -4.589075e-001 -1.854611e-001  5.797697e-001
    endloop
  endfacet
  facet normal  0.000000e+000  0.000000e+000 -1.000000e+000
    outer loop
      vertex -4.695897e-001  1.731203e-001  5.797697e-001
      vertex -4.589075e-001 -1.854611e-001  5.797697e-001
      vertex -4.903753e-001  9.166695e-002  5.797697e-001
    endloop
  endfacet
  facet normal  0.000000e+000  0.000000e+000 -1.000000e+000
    outer loop
      vertex -4.903753e-001  9.166695e-002  5.797697e-001
      vertex -4.589075e-001 -1.854611e-001  5.797697e-001
      vertex -4.876599e-001 -9.067722e-002  5.797697e-001
    endloop
  endfacet
  facet normal  0.000000e+000  0.000000e+000 -1.000000e+000
    outer loop
      vertex -4.903753e-001  9.166695e-002  5.797697e-001
      vertex -4.876599e-001 -9.067722e-002  5.797697e-001
      vertex -4.973684e-001  7.894737e-003  5.797697e-001
    endloop
  endfacet
  facet normal  0.000000e+000  -0.000000e+000 -1.000000e+000
    outer loop
      vertex  4.746970e-001 -1.854611e-001  5.797697e-001
      vertex  4.853792e-001  1.731203e-001  5.797697e-001
      vertex  5.034494e-001 -9.067722e-002  5.797697e-001
    endloop
  endfacet
  facet normal  0.000000e+000  0.000000e+000 -1.000000e+000
    outer loop
      vertex  5.034494e-001 -9.067722e-002  5.797697e-001
      vertex  4.853792e-001  1.731203e-001  5.797697e-001
      vertex  5.061648e-001  9.166695e-002  5.797697e-001
    endloop
  endfacet
  facet normal  0.000000e+000  -0.000000e+000 -1.000000e+000
    outer loop
      vertex  5.034494e-001 -9.067722e-002  5.797697e-001
      vertex  5.061648e-001  9.166695e-002  5.797697e-001
      vertex  5.131579e-001  7.894737e-003  5.797697e-001
    endloop
  endfacet
  facet normal  0.000000e+000 -1.000000e+000  0.000000e+000
    outer loop
      vertex  4.424545e-001  2.500000e-001  0.000000e+000
      vertex  4.513763e-001  2.500000e-001  5.468750e-002
      vertex  7.894737e-003  2.500000e-001  0.000000e+000
    endloop
  endfacet
  facet normal  0.000000e+000 -1.000000e+000  0.000000e+000
    outer loop
      vertex  4.513763e-001  2.500000e-001  5.797697e-001
      vertex -4.355868e-001  2.500000e-001  5.797697e-001
      vertex  4.513763e-001  2.500000e-001  5.468750e-002
    endloop
  endfacet
  facet normal  0.000000e+000 -1.000000e+000  0.000000e+000
    outer loop
      vertex  4.513763e-001  2.500000e-001  5.468750e-002
      vertex -4.355868e-001  2.500000e-001  5.797697e-001
      vertex -4.355868e-001  2.500000e-001  5.468750e-002
    endloop
  endfacet
  facet normal  0.000000e+000 -1.000000e+000  0.000000e+000
    outer loop
      vertex  4.513763e-001  2.500000e-001  5.468750e-002
      vertex -4.355868e-001  2.500000e-001  5.468750e-002
      vertex  7.894737e-003  2.500000e-001  0.000000e+000
    endloop
  endfacet
  facet normal  0.000000e+000 -1.000000e+000  0.000000e+000
    outer loop
      vertex  7.894737e-003  2.500000e-001  0.000000e+000
      vertex -4.355868e-001  2.500000e-001  5.468750e-002
      vertex -4.266650e-001  2.500000e-001  0.000000e+000
    endloop
  endfacet
  facet normal -8.818326e-001  4.713494e-001  1.417522e-002
    outer loop
      vertex -4.355868e-001  2.500000e-001  5.797697e-001
      vertex -4.589075e-001  2.012506e-001  7.500000e-001
      vertex -4.122162e-001  2.886039e-001  7.500000e-001
    endloop
  endfacet
  facet normal -9.145018e-001  4.044715e-001 -9.452348e-003
    outer loop
      vertex -4.355868e-001  2.500000e-001  5.797697e-001
      vertex -4.695897e-001  1.731203e-001  5.797697e-001
      vertex -4.589075e-001  2.012506e-001  7.500000e-001
    endloop
  endfacet
  facet normal -9.568706e-001  2.902636e-001  1.207904e-002
    outer loop
      vertex -4.876599e-001  1.064667e-001  7.500000e-001
      vertex -4.589075e-001  2.012506e-001  7.500000e-001
      vertex -4.695897e-001  1.731203e-001  5.797697e-001
    endloop
  endfacet
  facet normal -7.025466e-001  7.116294e-001 -3.427125e-003
    outer loop
      vertex -3.104408e-001  4.002636e-001  5.468750e-002
      vertex -3.803528e-001  3.312440e-001  5.468750e-002
      vertex -3.493803e-001  3.651697e-001  7.500000e-001
    endloop
  endfacet
  facet normal -6.343895e-001  7.730057e-001  3.487660e-003
    outer loop
      vertex -3.493803e-001  3.651697e-001  7.500000e-001
      vertex -2.728144e-001  4.280057e-001  7.500000e-001
      vertex -3.104408e-001  4.002636e-001  5.468750e-002
    endloop
  endfacet
  facet normal -5.515553e-001  8.341312e-001 -3.433689e-003
    outer loop
      vertex -2.284940e-001  4.544496e-001  5.468750e-002
      vertex -3.104408e-001  4.002636e-001  5.468750e-002
      vertex -2.728144e-001  4.280057e-001  7.500000e-001
    endloop
  endfacet
  facet normal -4.713939e-001  8.819159e-001  3.493257e-003
    outer loop
      vertex -2.728144e-001  4.280057e-001  7.500000e-001
      vertex -1.854611e-001  4.746970e-001  7.500000e-001
      vertex -2.284940e-001  4.544496e-001  5.468750e-002
    endloop
  endfacet
  facet normal -3.797123e-001  9.250983e-001 -3.438396e-003
    outer loop
      vertex -1.376105e-001  4.917533e-001  5.468750e-002
      vertex -2.284940e-001  4.544496e-001  5.468750e-002
      vertex -1.854611e-001  4.746970e-001  7.500000e-001
    endloop
  endfacet
  facet normal -2.902827e-001  9.569345e-001  3.497000e-003
    outer loop
      vertex -1.854611e-001  4.746970e-001  7.500000e-001
      vertex -9.067722e-002  5.034494e-001  7.500000e-001
      vertex -1.376105e-001  4.917533e-001  5.468750e-002
    endloop
  endfacet
  facet normal -1.935144e-001  9.810914e-001 -3.441162e-003
    outer loop
      vertex -4.122601e-002  5.107645e-001  5.468750e-002
      vertex -1.376105e-001  4.917533e-001  5.468750e-002
      vertex -9.067722e-002  5.034494e-001  7.500000e-001
    endloop
  endfacet
  facet normal -9.801687e-002  9.951786e-001  3.498910e-003
    outer loop
      vertex -9.067722e-002  5.034494e-001  7.500000e-001
      vertex  7.894737e-003  5.131579e-001  7.500000e-001
      vertex -4.122601e-002  5.107645e-001  5.468750e-002
    endloop
  endfacet
  facet normal  0.000000e+000  9.999942e-001 -3.442123e-003
    outer loop
      vertex -4.122601e-002  5.107645e-001  5.468750e-002
      vertex  7.894737e-003  5.131579e-001  7.500000e-001
      vertex  5.701548e-002  5.107645e-001  5.468750e-002
    endloop
  endfacet
  facet normal  9.801688e-002  9.951786e-001  3.498912e-003
    outer loop
      vertex  5.701548e-002  5.107645e-001  5.468750e-002
      vertex  7.894737e-003  5.131579e-001  7.500000e-001
      vertex  1.064667e-001  5.034494e-001  7.500000e-001
    endloop
  endfacet
  facet normal  1.935145e-001  9.810914e-001 -3.441163e-003
    outer loop
      vertex  5.701548e-002  5.107645e-001  5.468750e-002
      vertex  1.064667e-001  5.034494e-001  7.500000e-001
      vertex  1.533999e-001  4.917533e-001  5.468750e-002
    endloop
  endfacet
  facet normal  2.902827e-001  9.569345e-001  3.496996e-003
    outer loop
      vertex  1.533999e-001  4.917533e-001  5.468750e-002
      vertex  1.064667e-001  5.034494e-001  7.500000e-001
      vertex  2.012506e-001  4.746970e-001  7.500000e-001
    endloop
  endfacet
  facet normal  3.797123e-001  9.250983e-001 -3.438404e-003
    outer loop
      vertex  1.533999e-001  4.917533e-001  5.468750e-002
      vertex  2.012506e-001  4.746970e-001  7.500000e-001
      vertex  2.442835e-001  4.544496e-001  5.468750e-002
    endloop
  endfacet
  facet normal  4.713939e-001  8.819159e-001  3.493247e-003
    outer loop
      vertex  2.442835e-001  4.544496e-001  5.468750e-002
      vertex  2.012506e-001  4.746970e-001  7.500000e-001
      vertex  2.886039e-001  4.280057e-001  7.500000e-001
    endloop
  endfacet
  facet normal  5.515552e-001  8.341313e-001 -3.433694e-003
    outer loop
      vertex  2.442835e-001  4.544496e-001  5.468750e-002
      vertex  2.886039e-001  4.280057e-001  7.500000e-001
      vertex  3.262303e-001  4.002636e-001  5.468750e-002
    endloop
  endfacet
  facet normal  6.343895e-001  7.730057e-001  3.487660e-003
    outer loop
      vertex  3.262303e-001  4.002636e-001  5.468750e-002
      vertex  2.886039e-001  4.280057e-001  7.500000e-001
      vertex  3.651697e-001  3.651697e-001  7.500000e-001
    endloop
  endfacet
  facet normal  7.025468e-001  7.116293e-001 -3.427141e-003
    outer loop
      vertex  3.262303e-001  4.002636e-001  5.468750e-002
      vertex  3.651697e-001  3.651697e-001  7.500000e-001
      vertex  3.961422e-001  3.312440e-001  5.468750e-002
    endloop
  endfacet
  facet normal  7.730057e-001  6.343895e-001  3.480121e-003
    outer loop
      vertex  3.961422e-001  3.312440e-001  5.468750e-002
      vertex  3.651697e-001  3.651697e-001  7.500000e-001
      vertex  4.280057e-001  2.886039e-001  7.500000e-001
    endloop
  endfacet
  facet normal  8.269777e-001  5.622243e-001 -3.418740e-003
    outer loop
      vertex  4.513763e-001  2.500000e-001  5.468750e-002
      vertex  3.961422e-001  3.312440e-001  5.468750e-002
      vertex  4.280057e-001  2.886039e-001  7.500000e-001
    endloop
  endfacet
  facet normal  9.568706e-001  2.902633e-001  1.207909e-002
    outer loop
      vertex  4.853792e-001  1.731203e-001  5.797697e-001
      vertex  4.746970e-001  2.012506e-001  7.500000e-001
      vertex  5.034494e-001  1.064667e-001  7.500000e-001
    endloop
  endfacet
  facet normal  8.554503e-001  5.178850e-001  -0.000000e+000
    outer loop
      vertex  4.513763e-001  2.500000e-001  5.797697e-001
      vertex  4.513763e-001  2.500000e-001  5.468750e-002
      vertex  4.280057e-001  2.886039e-001  7.500000e-001
    endloop
  endfacet
  facet normal  8.818326e-001  4.713494e-001  1.417506e-002
    outer loop
      vertex  4.513763e-001  2.500000e-001  5.797697e-001
      vertex  4.280057e-001  2.886039e-001  7.500000e-001
      vertex  4.746970e-001  2.012506e-001  7.500000e-001
    endloop
  endfacet
  facet normal  9.145015e-001  4.044718e-001 -9.452404e-003
    outer loop
      vertex  4.513763e-001  2.500000e-001  5.797697e-001
      vertex  4.746970e-001  2.012506e-001  7.500000e-001
      vertex  4.853792e-001  1.731203e-001  5.797697e-001
    endloop
  endfacet
  facet normal -8.269826e-001  5.622276e-001  0.000000e+000
    outer loop
      vertex -4.355868e-001  2.500000e-001  5.468750e-002
      vertex -4.355868e-001  2.500000e-001  5.797697e-001
      vertex -3.803528e-001  3.312440e-001  5.468750e-002
    endloop
  endfacet
  facet normal -8.439415e-001  5.364040e-001 -5.779520e-003
    outer loop
      vertex -3.803528e-001  3.312440e-001  5.468750e-002
      vertex -4.355868e-001  2.500000e-001  5.797697e-001
      vertex -4.122162e-001  2.886039e-001  7.500000e-001
    endloop
  endfacet
  facet normal -7.730057e-001  6.343895e-001  3.480154e-003
    outer loop
      vertex -3.803528e-001  3.312440e-001  5.468750e-002
      vertex -4.122162e-001  2.886039e-001  7.500000e-001
      vertex -3.493803e-001  3.651697e-001  7.500000e-001
    endloop
  endfacet
  facet normal -9.965339e-001  8.318804e-002  0.000000e+000
    outer loop
      vertex -4.973684e-001  7.894737e-003  5.797697e-001
      vertex -4.973684e-001  7.894737e-003  7.500000e-001
      vertex -4.903753e-001  9.166695e-002  5.797697e-001
    endloop
  endfacet
  facet normal -9.951578e-001  9.801453e-002  7.352811e-003
    outer loop
      vertex -4.903753e-001  9.166695e-002  5.797697e-001
      vertex -4.973684e-001  7.894737e-003  7.500000e-001
      vertex -4.876599e-001  1.064667e-001  7.500000e-001
    endloop
  endfacet
  facet normal -9.689311e-001  2.472566e-001 -6.040575e-003
    outer loop
      vertex -4.903753e-001  9.166695e-002  5.797697e-001
      vertex -4.876599e-001  1.064667e-001  7.500000e-001
      vertex -4.695897e-001  1.731203e-001  5.797697e-001
    endloop
  endfacet
  facet normal  9.951847e-001  9.801749e-002  -0.000000e+000
    outer loop
      vertex  5.131579e-001  7.894737e-003  7.500000e-001
      vertex  5.131579e-001  7.894737e-003  5.797697e-001
      vertex  5.034494e-001  1.064667e-001  7.500000e-001
    endloop
  endfacet
  facet normal  9.964966e-001  8.318457e-002  8.663825e-003
    outer loop
      vertex  5.034494e-001  1.064667e-001  7.500000e-001
      vertex  5.131579e-001  7.894737e-003  5.797697e-001
      vertex  5.061648e-001  9.166695e-002  5.797697e-001
    endloop
  endfacet
  facet normal  9.689311e-001  2.472570e-001 -6.040266e-003
    outer loop
      vertex  5.034494e-001  1.064667e-001  7.500000e-001
      vertex  5.061648e-001  9.166695e-002  5.797697e-001
      vertex  4.853792e-001  1.731203e-001  5.797697e-001
    endloop
  endfacet
  facet normal  9.951847e-001 -9.801748e-002  0.000000e+000
    outer loop
      vertex  5.131579e-001  7.894737e-003  5.797697e-001
      vertex  5.131579e-001  7.894737e-003  7.500000e-001
      vertex  5.034494e-001 -9.067722e-002  5.797697e-001
    endloop
  endfacet
  facet normal  9.951847e-001 -9.801748e-002  0.000000e+000
    outer loop
      vertex  5.034494e-001 -9.067722e-002  5.797697e-001
      vertex  5.131579e-001  7.894737e-003  7.500000e-001
      vertex  5.034494e-001 -9.067722e-002  7.500000e-001
    endloop
  endfacet
  facet normal  9.569404e-001 -2.902845e-001  0.000000e+000
    outer loop
      vertex  5.034494e-001 -9.067722e-002  5.797697e-001
      vertex  5.034494e-001 -9.067722e-002  7.500000e-001
      vertex  4.746970e-001 -1.854611e-001  5.797697e-001
    endloop
  endfacet
  facet normal  9.569404e-001 -2.902845e-001  0.000000e+000
    outer loop
      vertex  4.746970e-001 -1.854611e-001  5.797697e-001
      vertex  5.034494e-001 -9.067722e-002  7.500000e-001
      vertex  4.746970e-001 -1.854611e-001  7.500000e-001
    endloop
  endfacet
  facet normal  8.819213e-001 -4.713968e-001  0.000000e+000
    outer loop
      vertex  4.746970e-001 -1.854611e-001  5.797697e-001
      vertex  4.746970e-001 -1.854611e-001  7.500000e-001
      vertex  4.280057e-001 -2.728144e-001  5.797697e-001
    endloop
  endfacet
  facet normal  8.819213e-001 -4.713968e-001  0.000000e+000
    outer loop
      vertex  4.280057e-001 -2.728144e-001  5.797697e-001
      vertex  4.746970e-001 -1.854611e-001  7.500000e-001
      vertex  4.280057e-001 -2.728144e-001  7.500000e-001
    endloop
  endfacet
  facet normal  7.730104e-001 -6.343933e-001  0.000000e+000
    outer loop
      vertex  4.280057e-001 -2.728144e-001  5.797697e-001
      vertex  4.280057e-001 -2.728144e-001  7.500000e-001
      vertex  3.651697e-001 -3.493803e-001  5.797697e-001
    endloop
  endfacet
  facet normal  7.730104e-001 -6.343933e-001  0.000000e+000
    outer loop
      vertex  3.651697e-001 -3.493803e-001  5.797697e-001
      vertex  4.280057e-001 -2.728144e-001  7.500000e-001
      vertex  3.651697e-001 -3.493803e-001  7.500000e-001
    endloop
  endfacet
  facet normal  6.343933e-001 -7.730104e-001  0.000000e+000
    outer loop
      vertex  3.651697e-001 -3.493803e-001  5.797697e-001
      vertex  3.651697e-001 -3.493803e-001  7.500000e-001
      vertex  2.886039e-001 -4.122162e-001  5.797697e-001
    endloop
  endfacet
  facet normal  6.343933e-001 -7.730104e-001  0.000000e+000
    outer loop
      vertex  2.886039e-001 -4.122162e-001  5.797697e-001
      vertex  3.651697e-001 -3.493803e-001  7.500000e-001
      vertex  2.886039e-001 -4.122162e-001  7.500000e-001
    endloop
  endfacet
  facet normal  4.713968e-001 -8.819213e-001  0.000000e+000
    outer loop
      vertex  2.886039e-001 -4.122162e-001  5.797697e-001
      vertex  2.886039e-001 -4.122162e-001  7.500000e-001
      vertex  2.012506e-001 -4.589075e-001  5.797697e-001
    endloop
  endfacet
  facet normal  4.713968e-001 -8.819213e-001  0.000000e+000
    outer loop
      vertex  2.012506e-001 -4.589075e-001  5.797697e-001
      vertex  2.886039e-001 -4.122162e-001  7.500000e-001
      vertex  2.012506e-001 -4.589075e-001  7.500000e-001
    endloop
  endfacet
  facet normal  2.902848e-001 -9.569403e-001  0.000000e+000
    outer loop
      vertex  2.012506e-001 -4.589075e-001  5.797697e-001
      vertex  2.012506e-001 -4.589075e-001  7.500000e-001
      vertex  1.064667e-001 -4.876599e-001  5.797697e-001
    endloop
  endfacet
  facet normal  2.902848e-001 -9.569403e-001  0.000000e+000
    outer loop
      vertex  1.064667e-001 -4.876599e-001  5.797697e-001
      vertex  2.012506e-001 -4.589075e-001  7.500000e-001
      vertex  1.064667e-001 -4.876599e-001  7.500000e-001
    endloop
  endfacet
  facet normal  9.801719e-002 -9.951847e-001  0.000000e+000
    outer loop
      vertex  1.064667e-001 -4.876599e-001  5.797697e-001
      vertex  1.064667e-001 -4.876599e-001  7.500000e-001
      vertex  7.894737e-003 -4.973684e-001  5.797697e-001
    endloop
  endfacet
  facet normal  9.801719e-002 -9.951847e-001  0.000000e+000
    outer loop
      vertex  7.894737e-003 -4.973684e-001  5.797697e-001
      vertex  1.064667e-001 -4.876599e-001  7.500000e-001
      vertex  7.894737e-003 -4.973684e-001  7.500000e-001
    endloop
  endfacet
  facet normal -9.801717e-002 -9.951847e-001  -0.000000e+000
    outer loop
      vertex  7.894737e-003 -4.973684e-001  5.797697e-001
      vertex  7.894737e-003 -4.973684e-001  7.500000e-001
      vertex -9.067722e-002 -4.876599e-001  5.797697e-001
    endloop
  endfacet
  facet normal -9.801717e-002 -9.951847e-001  0.000000e+000
    outer loop
      vertex -9.067722e-002 -4.876599e-001  5.797697e-001
      vertex  7.894737e-003 -4.973684e-001  7.500000e-001
      vertex -9.067722e-002 -4.876599e-001  7.500000e-001
    endloop
  endfacet
  facet normal -2.902848e-001 -9.569403e-001  -0.000000e+000
    outer loop
      vertex -9.067722e-002 -4.876599e-001  5.797697e-001
      vertex -9.067722e-002 -4.876599e-001  7.500000e-001
      vertex -1.854611e-001 -4.589075e-001  5.797697e-001
    endloop
  endfacet
  facet normal -2.902848e-001 -9.569403e-001  0.000000e+000
    outer loop
      vertex -1.854611e-001 -4.589075e-001  5.797697e-001
      vertex -9.067722e-002 -4.876599e-001  7.500000e-001
      vertex -1.854611e-001 -4.589075e-001  7.500000e-001
    endloop
  endfacet
  facet normal -4.713968e-001 -8.819213e-001  -0.000000e+000
    outer loop
      vertex -1.854611e-001 -4.589075e-001  5.797697e-001
      vertex -1.854611e-001 -4.589075e-001  7.500000e-001
      vertex -2.728144e-001 -4.122162e-001  5.797697e-001
    endloop
  endfacet
  facet normal -4.713968e-001 -8.819213e-001  0.000000e+000
    outer loop
      vertex -2.728144e-001 -4.122162e-001  5.797697e-001
      vertex -1.854611e-001 -4.589075e-001  7.500000e-001
      vertex -2.728144e-001 -4.122162e-001  7.500000e-001
    endloop
  endfacet
  facet normal -6.343933e-001 -7.730104e-001  -0.000000e+000
    outer loop
      vertex -2.728144e-001 -4.122162e-001  5.797697e-001
      vertex -2.728144e-001 -4.122162e-001  7.500000e-001
      vertex -3.493803e-001 -3.493803e-001  5.797697e-001
    endloop
  endfacet
  facet normal -6.343933e-001 -7.730104e-001  0.000000e+000
    outer loop
      vertex -3.493803e-001 -3.493803e-001  5.797697e-001
      vertex -2.728144e-001 -4.122162e-001  7.500000e-001
      vertex -3.493803e-001 -3.493803e-001  7.500000e-001
    endloop
  endfacet
  facet normal -7.730104e-001 -6.343933e-001  -0.000000e+000
    outer loop
      vertex -3.493803e-001 -3.493803e-001  5.797697e-001
      vertex -3.493803e-001 -3.493803e-001  7.500000e-001
      vertex -4.122162e-001 -2.728144e-001  5.797697e-001
    endloop
  endfacet
  facet normal -7.730104e-001 -6.343933e-001  0.000000e+000
    outer loop
      vertex -4.122162e-001 -2.728144e-001  5.797697e-001
      vertex -3.493803e-001 -3.493803e-001  7.500000e-001
      vertex -4.122162e-001 -2.728144e-001  7.500000e-001
    endloop
  endfacet
  facet normal -8.819213e-001 -4.713968e-001  -0.000000e+000
    outer loop
      vertex -4.122162e-001 -2.728144e-001  5.797697e-001
      vertex -4.122162e-001 -2.728144e-001  7.500000e-001
      vertex -4.589075e-001 -1.854611e-001  5.797697e-001
    endloop
  endfacet
  facet normal -8.819213e-001 -4.713968e-001  0.000000e+000
    outer loop
      vertex -4.589075e-001 -1.854611e-001  5.797697e-001
      vertex -4.122162e-001 -2.728144e-001  7.500000e-001
      vertex -4.589075e-001 -1.854611e-001  7.500000e-001
    endloop
  endfacet
  facet normal -9.569403e-001 -2.902848e-001  -0.000000e+000
    outer loop
      vertex -4.589075e-001 -1.854611e-001  5.797697e-001
      vertex -4.589075e-001 -1.854611e-001  7.500000e-001
      vertex -4.876599e-001 -9.067722e-002  5.797697e-001
    endloop
  endfacet
  facet normal -9.569403e-001 -2.902848e-001  0.000000e+000
    outer loop
      vertex -4.876599e-001 -9.067722e-002  5.797697e-001
      vertex -4.589075e-001 -1.854611e-001  7.500000e-001
      vertex -4.876599e-001 -9.067722e-002  7.500000e-001
    endloop
  endfacet
  facet normal -9.951847e-001 -9.801717e-002  -0.000000e+000
    outer loop
      vertex -4.876599e-001 -9.067722e-002  5.797697e-001
      vertex -4.876599e-001 -9.067722e-002  7.500000e-001
      vertex -4.973684e-001  7.894737e-003  5.797697e-001
    endloop
  endfacet
  facet normal -9.951847e-001 -9.801717e-002  0.000000e+000
    outer loop
      vertex -4.973684e-001  7.894737e-003  5.797697e-001
      vertex -4.876599e-001 -9.067722e-002  7.500000e-001
      vertex -4.973684e-001  7.894737e-003  7.500000e-001
    endloop
  endfacet
  facet normal  0.000000e+000  -0.000000e+000 -9.999999e-001
    outer loop
      vertex -1.342437e-001  4.846062e-001  0.000000e+000
      vertex -4.007967e-002  5.030267e-001  0.000000e+000
      vertex  5.586915e-002  5.030267e-001  0.000000e+000
    endloop
  endfacet
  facet normal  0.000000e+000  -0.000000e+000 -1.000000e+000
    outer loop
      vertex  7.894737e-003  2.500000e-001  0.000000e+000
      vertex  3.878912e-001  3.289241e-001  0.000000e+000
      vertex  4.424545e-001  2.500000e-001  0.000000e+000
    endloop
  endfacet
  facet normal  0.000000e+000  0.000000e+000 -1.000000e+000
    outer loop
      vertex  5.586915e-002  5.030267e-001  0.000000e+000
      vertex  1.500332e-001  4.846062e-001  0.000000e+000
      vertex -1.342437e-001  4.846062e-001  0.000000e+000
    endloop
  endfacet
  facet normal  0.000000e+000  0.000000e+000 -1.000000e+000
    outer loop
      vertex -1.342437e-001  4.846062e-001  0.000000e+000
      vertex  1.500332e-001  4.846062e-001  0.000000e+000
      vertex  2.389092e-001  4.484506e-001  0.000000e+000
    endloop
  endfacet
  facet normal  0.000000e+000  0.000000e+000 -1.000000e+000
    outer loop
      vertex -1.342437e-001  4.846062e-001  0.000000e+000
      vertex  2.389092e-001  4.484506e-001  0.000000e+000
      vertex -2.231197e-001  4.484506e-001  0.000000e+000
    endloop
  endfacet
  facet normal  0.000000e+000  0.000000e+000 -1.000000e+000
    outer loop
      vertex -2.231197e-001  4.484506e-001  0.000000e+000
      vertex  2.389092e-001  4.484506e-001  0.000000e+000
      vertex  3.191908e-001  3.959050e-001  0.000000e+000
    endloop
  endfacet
  facet normal  0.000000e+000  0.000000e+000 -1.000000e+000
    outer loop
      vertex -2.231197e-001  4.484506e-001  0.000000e+000
      vertex  3.191908e-001  3.959050e-001  0.000000e+000
      vertex -3.034013e-001  3.959050e-001  0.000000e+000
    endloop
  endfacet
  facet normal  0.000000e+000  0.000000e+000 -1.000000e+000
    outer loop
      vertex -3.034013e-001  3.959050e-001  0.000000e+000
      vertex  3.191908e-001  3.959050e-001  0.000000e+000
      vertex  3.878912e-001  3.289241e-001  0.000000e+000
    endloop
  endfacet
  facet normal  0.000000e+000  0.000000e+000 -1.000000e+000
    outer loop
      vertex -3.034013e-001  3.959050e-001  0.000000e+000
      vertex  3.878912e-001  3.289241e-001  0.000000e+000
      vertex -3.721017e-001  3.289241e-001  0.000000e+000
    endloop
  endfacet
  facet normal  0.000000e+000  0.000000e+000 -1.000000e+000
    outer loop
      vertex -3.721017e-001  3.289241e-001  0.000000e+000
      vertex  3.878912e-001  3.289241e-001  0.000000e+000
      vertex  7.894737e-003  2.500000e-001  0.000000e+000
    endloop
  endfacet
  facet normal  0.000000e+000  0.000000e+000 -1.000000e+000
    outer loop
      vertex -3.721017e-001  3.289241e-001  0.000000e+000
      vertex  7.894737e-003  2.500000e-001  0.000000e+000
      vertex -4.266650e-001  2.500000e-001  0.000000e+000
    endloop
  endfacet
  facet normal  8.195574e-001  5.571796e-001 -1.337034e-001
    outer loop
      vertex  4.424545e-001  2.500000e-001  0.000000e+000
      vertex  3.961422e-001  3.312440e-001  5.468750e-002
      vertex  4.513763e-001  2.500000e-001  5.468750e-002
    endloop
  endfacet
  facet normal -8.136744e-001  5.625251e-001 -1.466271e-001
    outer loop
      vertex -4.266650e-001  2.500000e-001  0.000000e+000
      vertex -3.803528e-001  3.312440e-001  5.468750e-002
      vertex -3.721017e-001  3.289241e-001  0.000000e+000
    endloop
  endfacet
  facet normal -8.195574e-001  5.571796e-001 -1.337038e-001
    outer loop
      vertex -4.266650e-001  2.500000e-001  0.000000e+000
      vertex -4.355868e-001  2.500000e-001  5.468750e-002
      vertex -3.803528e-001  3.312440e-001  5.468750e-002
    endloop
  endfacet
  facet normal -6.917492e-001  7.095081e-001 -1.344666e-001
    outer loop
      vertex -3.721017e-001  3.289241e-001  0.000000e+000
      vertex -3.803528e-001  3.312440e-001  5.468750e-002
      vertex -3.034013e-001  3.959050e-001  0.000000e+000
    endloop
  endfacet
  facet normal -6.950656e-001  7.040517e-001 -1.455847e-001
    outer loop
      vertex -3.034013e-001  3.959050e-001  0.000000e+000
      vertex -3.803528e-001  3.312440e-001  5.468750e-002
      vertex -3.104408e-001  4.002636e-001  5.468750e-002
    endloop
  endfacet
  facet normal -5.425611e-001  8.289490e-001 -1.359084e-001
    outer loop
      vertex -3.034013e-001  3.959050e-001  0.000000e+000
      vertex -3.104408e-001  4.002636e-001  5.468750e-002
      vertex -2.231197e-001  4.484506e-001  0.000000e+000
    endloop
  endfacet
  facet normal -5.457954e-001  8.254204e-001 -1.441819e-001
    outer loop
      vertex -2.231197e-001  4.484506e-001  0.000000e+000
      vertex -3.104408e-001  4.002636e-001  5.468750e-002
      vertex -2.284940e-001  4.544496e-001  5.468750e-002
    endloop
  endfacet
  facet normal -3.732518e-001  9.175099e-001 -1.373273e-001
    outer loop
      vertex -2.231197e-001  4.484506e-001  0.000000e+000
      vertex -2.284940e-001  4.544496e-001  5.468750e-002
      vertex -1.342437e-001  4.846062e-001  0.000000e+000
    endloop
  endfacet
  facet normal -3.758230e-001  9.156229e-001 -1.427992e-001
    outer loop
      vertex -1.342437e-001  4.846062e-001  0.000000e+000
      vertex -2.284940e-001  4.544496e-001  5.468750e-002
      vertex -1.376105e-001  4.917533e-001  5.468750e-002
    endloop
  endfacet
  facet normal -1.901259e-001  9.719095e-001 -1.387231e-001
    outer loop
      vertex -1.342437e-001  4.846062e-001  0.000000e+000
      vertex -1.376105e-001  4.917533e-001  5.468750e-002
      vertex -4.007967e-002  5.030267e-001  0.000000e+000
    endloop
  endfacet
  facet normal -1.915702e-001  9.712344e-001 -1.414381e-001
    outer loop
      vertex -4.007967e-002  5.030267e-001  0.000000e+000
      vertex -1.376105e-001  4.917533e-001  5.468750e-002
      vertex -4.122601e-002  5.107645e-001  5.468750e-002
    endloop
  endfacet
  facet normal  0.000000e+000  9.901378e-001 -1.400972e-001
    outer loop
      vertex -4.007967e-002  5.030267e-001  0.000000e+000
      vertex -4.122601e-002  5.107645e-001  5.468750e-002
      vertex  5.586915e-002  5.030267e-001  0.000000e+000
    endloop
  endfacet
  facet normal  0.000000e+000  9.901378e-001 -1.400971e-001
    outer loop
      vertex  5.586915e-002  5.030267e-001  0.000000e+000
      vertex -4.122601e-002  5.107645e-001  5.468750e-002
      vertex  5.701548e-002  5.107645e-001  5.468750e-002
    endloop
  endfacet
  facet normal  1.900519e-001  9.715312e-001 -1.414482e-001
    outer loop
      vertex  5.586915e-002  5.030267e-001  0.000000e+000
      vertex  5.701548e-002  5.107645e-001  5.468750e-002
      vertex  1.500332e-001  4.846062e-001  0.000000e+000
    endloop
  endfacet
  facet normal  1.916431e-001  9.716038e-001 -1.387765e-001
    outer loop
      vertex  1.500332e-001  4.846062e-001  0.000000e+000
      vertex  5.701548e-002  5.107645e-001  5.468750e-002
      vertex  1.533999e-001  4.917533e-001  5.468750e-002
    endloop
  endfacet
  facet normal  3.729613e-001  9.167960e-001 -1.427763e-001
    outer loop
      vertex  1.500332e-001  4.846062e-001  0.000000e+000
      vertex  1.533999e-001  4.917533e-001  5.468750e-002
      vertex  2.389092e-001  4.484506e-001  0.000000e+000
    endloop
  endfacet
  facet normal  3.761090e-001  9.163198e-001 -1.374774e-001
    outer loop
      vertex  2.389092e-001  4.484506e-001  0.000000e+000
      vertex  1.533999e-001  4.917533e-001  5.468750e-002
      vertex  2.442835e-001  4.544496e-001  5.468750e-002
    endloop
  endfacet
  facet normal  5.419281e-001  8.279819e-001 -1.440827e-001
    outer loop
      vertex  2.389092e-001  4.484506e-001  0.000000e+000
      vertex  2.442835e-001  4.544496e-001  5.468750e-002
      vertex  3.191908e-001  3.959050e-001  0.000000e+000
    endloop
  endfacet
  facet normal  5.464187e-001  8.263633e-001 -1.361989e-001
    outer loop
      vertex  3.191908e-001  3.959050e-001  0.000000e+000
      vertex  2.442835e-001  4.544496e-001  5.468750e-002
      vertex  3.262303e-001  4.002636e-001  5.468750e-002
    endloop
  endfacet
  facet normal  6.906740e-001  7.084053e-001 -1.453664e-001
    outer loop
      vertex  3.191908e-001  3.959050e-001  0.000000e+000
      vertex  3.262303e-001  4.002636e-001  5.468750e-002
      vertex  3.878912e-001  3.289241e-001  0.000000e+000
    endloop
  endfacet
  facet normal  6.961252e-001  7.051247e-001 -1.349405e-001
    outer loop
      vertex  3.878912e-001  3.289241e-001  0.000000e+000
      vertex  3.262303e-001  4.002636e-001  5.468750e-002
      vertex  3.961422e-001  3.312440e-001  5.468750e-002
    endloop
  endfacet
  facet normal  8.136744e-001  5.625251e-001 -1.466267e-001
    outer loop
      vertex  3.878912e-001  3.289241e-001  0.000000e+000
      vertex  3.961422e-001  3.312440e-001  5.468750e-002
      vertex  4.424545e-001  2.500000e-001  0.000000e+000
    endloop
  endfacet
  facet normal  0.000000e+000  0.000000e+000  1.000000e+000
    outer loop
      vertex -9.067722e-002  5.034494e-001  7.500000e-001
      vertex  1.064667e-001  5.034494e-001  7.500000e-001
      vertex  7.894737e-003  5.131579e-001  7.500000e-001
    endloop
  endfacet
  facet normal  -0.000000e+000  0.000000e+000  1.000000e+000
    outer loop
      vertex  1.064667e-001  5.034494e-001  7.500000e-001
      vertex -9.067722e-002  5.034494e-001  7.500000e-001
      vertex  2.012506e-001  4.746970e-001  7.500000e-001
    endloop
  endfacet
  facet normal  0.000000e+000  0.000000e+000  1.000000e+000
    outer loop
      vertex  2.012506e-001  4.746970e-001  7.500000e-001
      vertex -9.067722e-002  5.034494e-001  7.500000e-001
      vertex -1.854611e-001  4.746970e-001  7.500000e-001
    endloop
  endfacet
  facet normal  -0.000000e+000  0.000000e+000  1.000000e+000
    outer loop
      vertex  2.012506e-001  4.746970e-001  7.500000e-001
      vertex -1.854611e-001  4.746970e-001  7.500000e-001
      vertex  2.886039e-001  4.280057e-001  7.500000e-001
    endloop
  endfacet
  facet normal  0.000000e+000  0.000000e+000  1.000000e+000
    outer loop
      vertex  2.886039e-001  4.280057e-001  7.500000e-001
      vertex -1.854611e-001  4.746970e-001  7.500000e-001
      vertex -2.728144e-001  4.280057e-001  7.500000e-001
    endloop
  endfacet
  facet normal  -0.000000e+000  0.000000e+000  1.000000e+000
    outer loop
      vertex  2.886039e-001  4.280057e-001  7.500000e-001
      vertex -2.728144e-001  4.280057e-001  7.500000e-001
      vertex  3.651697e-001  3.651697e-001  7.500000e-001
    endloop
  endfacet
  facet normal  0.000000e+000  0.000000e+000  1.000000e+000
    outer loop
      vertex  3.651697e-001  3.651697e-001  7.500000e-001
      vertex -2.728144e-001  4.280057e-001  7.500000e-001
      vertex -3.493803e-001  3.651697e-001  7.500000e-001
    endloop
  endfacet
  facet normal  -0.000000e+000  0.000000e+000  9.999999e-001
    outer loop
      vertex  3.651697e-001  3.651697e-001  7.500000e-001
      vertex -3.493803e-001  3.651697e-001  7.500000e-001
      vertex  4.280057e-001  2.886039e-001  7.500000e-001
    endloop
  endfacet
  facet normal  0.000000e+000  0.000000e+000  1.000000e+000
    outer loop
      vertex  4.280057e-001  2.886039e-001  7.500000e-001
      vertex -3.493803e-001  3.651697e-001  7.500000e-001
      vertex -4.122162e-001  2.886039e-001  7.500000e-001
    endloop
  endfacet
  facet normal  -0.000000e+000  0.000000e+000  1.000000e+000
    outer loop
      vertex  4.280057e-001  2.886039e-001  7.500000e-001
      vertex -4.122162e-001  2.886039e-001  7.500000e-001
      vertex  4.746970e-001  2.012506e-001  7.500000e-001
    endloop
  endfacet
  facet normal  0.000000e+000  0.000000e+000  9.999999e-001
    outer loop
      vertex  4.746970e-001  2.012506e-001  7.500000e-001
      vertex -4.122162e-001  2.886039e-001  7.500000e-001
      vertex -4.589075e-001  2.012506e-001  7.500000e-001
    endloop
  endfacet
  facet normal  -0.000000e+000  0.000000e+000  1.000000e+000
    outer loop
      vertex  4.746970e-001  2.012506e-001  7.500000e-001
      vertex -4.589075e-001  2.012506e-001  7.500000e-001
      vertex  5.034494e-001  1.064667e-001  7.500000e-001
    endloop
  endfacet
  facet normal  0.000000e+000  0.000000e+000  1.000000e+000
    outer loop
      vertex  5.034494e-001  1.064667e-001  7.500000e-001
      vertex -4.589075e-001  2.012506e-001  7.500000e-001
      vertex -4.876599e-001  1.064667e-001  7.500000e-001
    endloop
  endfacet
  facet normal  -0.000000e+000  0.000000e+000  1.000000e+000
    outer loop
      vertex  5.034494e-001  1.064667e-001  7.500000e-001
      vertex -4.876599e-001  1.064667e-001  7.500000e-001
      vertex  5.131579e-001  7.894737e-003  7.500000e-001
    endloop
  endfacet
  facet normal  0.000000e+000  0.000000e+000  1.000000e+000
    outer loop
      vertex  5.131579e-001  7.894737e-003  7.500000e-001
      vertex -4.876599e-001  1.064667e-001  7.500000e-001
      vertex -4.973684e-001  7.894737e-003  7.500000e-001
    endloop
  endfacet
  facet normal  -0.000000e+000  0.000000e+000  1.000000e+000
    outer loop
      vertex  5.131579e-001  7.894737e-003  7.500000e-001
      vertex -4.973684e-001  7.894737e-003  7.500000e-001
      vertex  5.034494e-001 -9.067722e-002  7.500000e-001
    endloop
  endfacet
  facet normal  0.000000e+000  0.000000e+000  9.999999e-001
    outer loop
      vertex  5.034494e-001 -9.067722e-002  7.500000e-001
      vertex -4.973684e-001  7.894737e-003  7.500000e-001
      vertex -4.876599e-001 -9.067722e-002  7.500000e-001
    endloop
  endfacet
  facet normal  -0.000000e+000  0.000000e+000  9.999999e-001
    outer loop
      vertex  5.034494e-001 -9.067722e-002  7.500000e-001
      vertex -4.876599e-001 -9.067722e-002  7.500000e-001
      vertex  4.746970e-001 -1.854611e-001  7.500000e-001
    endloop
  endfacet
  facet normal  0.000000e+000  0.000000e+000  1.000000e+000
    outer loop
      vertex  4.746970e-001 -1.854611e-001  7.500000e-001
      vertex -4.876599e-001 -9.067722e-002  7.500000e-001
      vertex -4.589075e-001 -1.854611e-001  7.500000e-001
    endloop
  endfacet
  facet normal  -0.000000e+000  0.000000e+000  9.999999e-001
    outer loop
      vertex  4.746970e-001 -1.854611e-001  7.500000e-001
      vertex -4.589075e-001 -1.854611e-001  7.500000e-001
      vertex  4.280057e-001 -2.728144e-001  7.500000e-001
    endloop
  endfacet
  facet normal  0.000000e+000  0.000000e+000  1.000000e+000
    outer loop
      vertex  4.280057e-001 -2.728144e-001  7.500000e-001
      vertex -4.589075e-001 -1.854611e-001  7.500000e-001
      vertex -4.122162e-001 -2.728144e-001  7.500000e-001
    endloop
  endfacet
  facet normal  -0.000000e+000  0.000000e+000  1.000000e+000
    outer loop
      vertex  4.280057e-001 -2.728144e-001  7.500000e-001
      vertex -4.122162e-001 -2.728144e-001  7.500000e-001
      vertex  3.651697e-001 -3.493803e-001  7.500000e-001
    endloop
  endfacet
  facet normal  0.000000e+000  0.000000e+000  9.999999e-001
    outer loop
      vertex  3.651697e-001 -3.493803e-001  7.500000e-001
      vertex -4.122162e-001 -2.728144e-001  7.500000e-001
      vertex -3.493803e-001 -3.493803e-001  7.500000e-001
    endloop
  endfacet
  facet normal  -0.000000e+000  0.000000e+000  1.000000e+000
    outer loop
      vertex  3.651697e-001 -3.493803e-001  7.500000e-001
      vertex -3.493803e-001 -3.493803e-001  7.500000e-001
      vertex  2.886039e-001 -4.122162e-001  7.500000e-001
    endloop
  endfacet
  facet normal  0.000000e+000  0.000000e+000  1.000000e+000
    outer loop
      vertex  2.886039e-001 -4.122162e-001  7.500000e-001
      vertex -3.493803e-001 -3.493803e-001  7.500000e-001
      vertex -2.728144e-001 -4.122162e-001  7.500000e-001
    endloop
  endfacet
  facet normal  -0.000000e+000  0.000000e+000  1.000000e+000
    outer loop
      vertex  2.886039e-001 -4.122162e-001  7.500000e-001
      vertex -2.728144e-001 -4.122162e-001  7.500000e-001
      vertex  2.012506e-001 -4.589075e-001  7.500000e-001
    endloop
  endfacet
  facet normal  0.000000e+000  0.000000e+000  1.000000e+000
    outer loop
      vertex  2.012506e-001 -4.589075e-001  7.500000e-001
      vertex -2.728144e-001 -4.122162e-001  7.500000e-001
      vertex -1.854611e-001 -4.589075e-001  7.500000e-001
    endloop
  endfacet
  facet normal  -0.000000e+000  0.000000e+000  1.000000e+000
    outer loop
      vertex  2.012506e-001 -4.589075e-001  7.500000e-001
      vertex -1.854611e-001 -4.589075e-001  7.500000e-001
      vertex  1.064667e-001 -4.876599e-001  7.500000e-001
    endloop
  endfacet
  facet normal  0.000000e+000  0.000000e+000  1.000000e+000
    outer loop
      vertex  1.064667e-001 -4.876599e-001  7.500000e-001
      vertex -1.854611e-001 -4.589075e-001  7.500000e-001
      vertex -9.067722e-002 -4.876599e-001  7.500000e-001
    endloop
  endfacet
  facet normal  -0.000000e+000  0.000000e+000  1.000000e+000
    outer loop
      vertex  1.064667e-001 -4.876599e-001  7.500000e-001
      vertex -9.067722e-002 -4.876599e-001  7.500000e-001
      vertex  7.894737e-003 -4.973684e-001  7.500000e-001
    endloop
  endfacet
endsolid CATIA STL
