solid CATIA STL
  facet normal  0.000000e+000  -0.000000e+000  1.000000e+000
    outer loop
      vertex -2.537006e-001 -4.453125e-001  4.453125e-001
      vertex -2.506524e-001 -4.450123e-001  4.453125e-001
      vertex -2.477212e-001 -4.441231e-001  4.453125e-001
    endloop
  endfacet
  facet normal  0.000000e+000  0.000000e+000  1.000000e+000
    outer loop
      vertex -7.500000e-001  1.406250e-001  4.453125e-001
      vertex -7.500000e-001 -4.453125e-001  4.453125e-001
      vertex -2.392650e-001 -4.356669e-001  4.453125e-001
    endloop
  endfacet
  facet normal  0.000000e+000  -0.000000e+000  1.000000e+000
    outer loop
      vertex -7.500000e-001  1.406250e-001  4.453125e-001
      vertex -2.392650e-001 -4.356669e-001  4.453125e-001
      vertex -2.383759e-001 -4.327358e-001  4.453125e-001
    endloop
  endfacet
  facet normal  0.000000e+000  -0.000000e+000  1.000000e+000
    outer loop
      vertex -7.500000e-001  1.406250e-001  4.453125e-001
      vertex -2.383759e-001 -4.327358e-001  4.453125e-001
      vertex -2.380757e-001 -4.296875e-001  4.453125e-001
    endloop
  endfacet
  facet normal  0.000000e+000  -0.000000e+000  1.000000e+000
    outer loop
      vertex -7.500000e-001  1.406250e-001  4.453125e-001
      vertex -2.380757e-001 -4.296875e-001  4.453125e-001
      vertex -2.380757e-001  1.406250e-001  4.453125e-001
    endloop
  endfacet
  facet normal  0.000000e+000  -0.000000e+000  1.000000e+000
    outer loop
      vertex -7.500000e-001 -4.453125e-001  4.453125e-001
      vertex -2.537006e-001 -4.453125e-001  4.453125e-001
      vertex -2.477212e-001 -4.441231e-001  4.453125e-001
    endloop
  endfacet
  facet normal  0.000000e+000  -0.000000e+000  1.000000e+000
    outer loop
      vertex -7.500000e-001 -4.453125e-001  4.453125e-001
      vertex -2.477212e-001 -4.441231e-001  4.453125e-001
      vertex -2.450199e-001 -4.426792e-001  4.453125e-001
    endloop
  endfacet
  facet normal  0.000000e+000  -0.000000e+000  1.000000e+000
    outer loop
      vertex -7.500000e-001 -4.453125e-001  4.453125e-001
      vertex -2.450199e-001 -4.426792e-001  4.453125e-001
      vertex -2.426521e-001 -4.407361e-001  4.453125e-001
    endloop
  endfacet
  facet normal  0.000000e+000  -0.000000e+000  1.000000e+000
    outer loop
      vertex -7.500000e-001 -4.453125e-001  4.453125e-001
      vertex -2.426521e-001 -4.407361e-001  4.453125e-001
      vertex -2.407089e-001 -4.383683e-001  4.453125e-001
    endloop
  endfacet
  facet normal  0.000000e+000  -0.000000e+000  1.000000e+000
    outer loop
      vertex -7.500000e-001 -4.453125e-001  4.453125e-001
      vertex -2.407089e-001 -4.383683e-001  4.453125e-001
      vertex -2.392650e-001 -4.356669e-001  4.453125e-001
    endloop
  endfacet
  facet normal  0.000000e+000  0.000000e+000 -1.000000e+000
    outer loop
      vertex -2.537006e-001 -4.453125e-001  0.000000e+000
      vertex -7.500000e-001 -4.453125e-001  0.000000e+000
      vertex -7.187500e-001  9.540979e-018  0.000000e+000
    endloop
  endfacet
  facet normal -6.890727e-017 -7.196133e-017 -1.000000e+000
    outer loop
      vertex -2.537006e-001 -4.453125e-001  0.000000e+000
      vertex -7.187500e-001  9.540979e-018  0.000000e+000
      vertex -3.159539e-001  5.426033e-017 -2.775558e-017
    endloop
  endfacet
  facet normal  1.206245e-017 -6.064202e-017 -1.000000e+000
    outer loop
      vertex -2.537006e-001 -4.453125e-001  0.000000e+000
      vertex -3.159539e-001  5.426033e-017 -2.775558e-017
      vertex -2.477212e-001 -4.441231e-001  0.000000e+000
    endloop
  endfacet
  facet normal  0.000000e+000  0.000000e+000 -1.000000e+000
    outer loop
      vertex -2.537006e-001 -4.453125e-001  0.000000e+000
      vertex -2.477212e-001 -4.441231e-001  0.000000e+000
      vertex -2.506524e-001 -4.450123e-001  0.000000e+000
    endloop
  endfacet
  facet normal  0.000000e+000  3.552714e-016 -1.000000e+000
    outer loop
      vertex -7.500000e-001  1.406250e-001  0.000000e+000
      vertex -2.380757e-001  1.406250e-001  0.000000e+000
      vertex -3.159539e-001  6.250000e-002 -2.775558e-017
    endloop
  endfacet
  facet normal -6.890726e-017 -2.756291e-017 -1.000000e+000
    outer loop
      vertex -7.500000e-001  1.406250e-001  0.000000e+000
      vertex -3.159539e-001  6.250000e-002 -2.775558e-017
      vertex -7.187500e-001  6.250000e-002  0.000000e+000
    endloop
  endfacet
  facet normal  -0.000000e+000  -0.000000e+000 -1.000000e+000
    outer loop
      vertex -7.500000e-001  1.406250e-001  0.000000e+000
      vertex -7.187500e-001  6.250000e-002  0.000000e+000
      vertex -7.187500e-001  9.540979e-018  0.000000e+000
    endloop
  endfacet
  facet normal  -0.000000e+000  0.000000e+000 -1.000000e+000
    outer loop
      vertex -7.500000e-001  1.406250e-001  0.000000e+000
      vertex -7.187500e-001  9.540979e-018  0.000000e+000
      vertex -7.500000e-001 -4.453125e-001  0.000000e+000
    endloop
  endfacet
  facet normal  3.563969e-016  0.000000e+000 -1.000000e+000
    outer loop
      vertex -3.159539e-001  5.426033e-017 -2.775558e-017
      vertex -3.159539e-001  6.250000e-002 -2.775558e-017
      vertex -2.380757e-001  1.406250e-001  0.000000e+000
    endloop
  endfacet
  facet normal  3.563969e-016  0.000000e+000 -1.000000e+000
    outer loop
      vertex -3.159539e-001  5.426033e-017 -2.775558e-017
      vertex -2.380757e-001  1.406250e-001  0.000000e+000
      vertex -2.380757e-001 -4.296875e-001  0.000000e+000
    endloop
  endfacet
  facet normal  2.309147e-016 -2.274290e-017 -1.000000e+000
    outer loop
      vertex -3.159539e-001  5.426033e-017 -2.775558e-017
      vertex -2.380757e-001 -4.296875e-001  0.000000e+000
      vertex -2.383759e-001 -4.327358e-001  0.000000e+000
    endloop
  endfacet
  facet normal  1.328984e-016 -4.031462e-017 -1.000000e+000
    outer loop
      vertex -3.159539e-001  5.426033e-017 -2.775558e-017
      vertex -2.383759e-001 -4.327358e-001  0.000000e+000
      vertex -2.392650e-001 -4.356669e-001  0.000000e+000
    endloop
  endfacet
  facet normal  8.966230e-017 -4.792531e-017 -1.000000e+000
    outer loop
      vertex -3.159539e-001  5.426033e-017 -2.775558e-017
      vertex -2.392650e-001 -4.356669e-001  0.000000e+000
      vertex -2.407089e-001 -4.383683e-001  0.000000e+000
    endloop
  endfacet
  facet normal  6.380534e-017 -5.236360e-017 -1.000000e+000
    outer loop
      vertex -3.159539e-001  5.426033e-017 -2.775558e-017
      vertex -2.407089e-001 -4.383683e-001  0.000000e+000
      vertex -2.426521e-001 -4.407361e-001  0.000000e+000
    endloop
  endfacet
  facet normal  4.547577e-017 -5.541212e-017 -1.000000e+000
    outer loop
      vertex -3.159539e-001  5.426033e-017 -2.775558e-017
      vertex -2.426521e-001 -4.407361e-001  0.000000e+000
      vertex -2.450199e-001 -4.426792e-001  0.000000e+000
    endloop
  endfacet
  facet normal  3.086916e-017 -5.775265e-017 -9.999999e-001
    outer loop
      vertex -3.159539e-001  5.426033e-017 -2.775558e-017
      vertex -2.450199e-001 -4.426792e-001  0.000000e+000
      vertex -2.477212e-001 -4.441231e-001  0.000000e+000
    endloop
  endfacet
  facet normal  1.000000e+000  0.000000e+000  0.000000e+000
    outer loop
      vertex -2.380757e-001 -4.296875e-001  4.453125e-001
      vertex -2.380757e-001 -4.296875e-001  0.000000e+000
      vertex -2.380757e-001  1.406250e-001  4.453125e-001
    endloop
  endfacet
  facet normal  1.000000e+000  0.000000e+000  0.000000e+000
    outer loop
      vertex -2.380757e-001  1.406250e-001  4.453125e-001
      vertex -2.380757e-001 -4.296875e-001  0.000000e+000
      vertex -2.380757e-001  1.406250e-001  0.000000e+000
    endloop
  endfacet
  facet normal  0.000000e+000 -1.000000e+000  0.000000e+000
    outer loop
      vertex -7.500000e-001 -4.453125e-001  4.453125e-001
      vertex -7.500000e-001 -4.453125e-001  0.000000e+000
      vertex -2.537006e-001 -4.453125e-001  4.453125e-001
    endloop
  endfacet
  facet normal  0.000000e+000 -1.000000e+000  -0.000000e+000
    outer loop
      vertex -2.537006e-001 -4.453125e-001  4.453125e-001
      vertex -7.500000e-001 -4.453125e-001  0.000000e+000
      vertex -2.537006e-001 -4.453125e-001  0.000000e+000
    endloop
  endfacet
  facet normal  9.951848e-001 -9.801622e-002  0.000000e+000
    outer loop
      vertex -2.380757e-001 -4.296875e-001  0.000000e+000
      vertex -2.380757e-001 -4.296875e-001  4.453125e-001
      vertex -2.383759e-001 -4.327358e-001  0.000000e+000
    endloop
  endfacet
  facet normal  9.951848e-001 -9.801622e-002  0.000000e+000
    outer loop
      vertex -2.383759e-001 -4.327358e-001  0.000000e+000
      vertex -2.380757e-001 -4.296875e-001  4.453125e-001
      vertex -2.383759e-001 -4.327358e-001  4.453125e-001
    endloop
  endfacet
  facet normal  9.569396e-001 -2.902869e-001  0.000000e+000
    outer loop
      vertex -2.383759e-001 -4.327358e-001  0.000000e+000
      vertex -2.383759e-001 -4.327358e-001  4.453125e-001
      vertex -2.392650e-001 -4.356669e-001  0.000000e+000
    endloop
  endfacet
  facet normal  9.569396e-001 -2.902869e-001  0.000000e+000
    outer loop
      vertex -2.392650e-001 -4.356669e-001  0.000000e+000
      vertex -2.383759e-001 -4.327358e-001  4.453125e-001
      vertex -2.392650e-001 -4.356669e-001  4.453125e-001
    endloop
  endfacet
  facet normal  8.819220e-001 -4.713953e-001  0.000000e+000
    outer loop
      vertex -2.392650e-001 -4.356669e-001  0.000000e+000
      vertex -2.392650e-001 -4.356669e-001  4.453125e-001
      vertex -2.407089e-001 -4.383683e-001  0.000000e+000
    endloop
  endfacet
  facet normal  8.819220e-001 -4.713953e-001  0.000000e+000
    outer loop
      vertex -2.407089e-001 -4.383683e-001  0.000000e+000
      vertex -2.392650e-001 -4.356669e-001  4.453125e-001
      vertex -2.407089e-001 -4.383683e-001  4.453125e-001
    endloop
  endfacet
  facet normal  7.730110e-001 -6.343927e-001  0.000000e+000
    outer loop
      vertex -2.407089e-001 -4.383683e-001  0.000000e+000
      vertex -2.407089e-001 -4.383683e-001  4.453125e-001
      vertex -2.426521e-001 -4.407361e-001  0.000000e+000
    endloop
  endfacet
  facet normal  7.730110e-001 -6.343927e-001  0.000000e+000
    outer loop
      vertex -2.426521e-001 -4.407361e-001  0.000000e+000
      vertex -2.407089e-001 -4.383683e-001  4.453125e-001
      vertex -2.426521e-001 -4.407361e-001  4.453125e-001
    endloop
  endfacet
  facet normal  6.343951e-001 -7.730091e-001  0.000000e+000
    outer loop
      vertex -2.426521e-001 -4.407361e-001  0.000000e+000
      vertex -2.426521e-001 -4.407361e-001  4.453125e-001
      vertex -2.450199e-001 -4.426792e-001  0.000000e+000
    endloop
  endfacet
  facet normal  6.343951e-001 -7.730091e-001  0.000000e+000
    outer loop
      vertex -2.450199e-001 -4.426792e-001  0.000000e+000
      vertex -2.426521e-001 -4.407361e-001  4.453125e-001
      vertex -2.450199e-001 -4.426792e-001  4.453125e-001
    endloop
  endfacet
  facet normal  4.713935e-001 -8.819230e-001  0.000000e+000
    outer loop
      vertex -2.450199e-001 -4.426792e-001  0.000000e+000
      vertex -2.450199e-001 -4.426792e-001  4.453125e-001
      vertex -2.477212e-001 -4.441231e-001  0.000000e+000
    endloop
  endfacet
  facet normal  4.713935e-001 -8.819230e-001  0.000000e+000
    outer loop
      vertex -2.477212e-001 -4.441231e-001  0.000000e+000
      vertex -2.450199e-001 -4.426792e-001  4.453125e-001
      vertex -2.477212e-001 -4.441231e-001  4.453125e-001
    endloop
  endfacet
  facet normal  2.902842e-001 -9.569405e-001  0.000000e+000
    outer loop
      vertex -2.477212e-001 -4.441231e-001  0.000000e+000
      vertex -2.477212e-001 -4.441231e-001  4.453125e-001
      vertex -2.506524e-001 -4.450123e-001  0.000000e+000
    endloop
  endfacet
  facet normal  2.902842e-001 -9.569405e-001  0.000000e+000
    outer loop
      vertex -2.506524e-001 -4.450123e-001  0.000000e+000
      vertex -2.477212e-001 -4.441231e-001  4.453125e-001
      vertex -2.506524e-001 -4.450123e-001  4.453125e-001
    endloop
  endfacet
  facet normal  9.801718e-002 -9.951848e-001  0.000000e+000
    outer loop
      vertex -2.506524e-001 -4.450123e-001  0.000000e+000
      vertex -2.506524e-001 -4.450123e-001  4.453125e-001
      vertex -2.537006e-001 -4.453125e-001  0.000000e+000
    endloop
  endfacet
  facet normal  9.801718e-002 -9.951848e-001  0.000000e+000
    outer loop
      vertex -2.537006e-001 -4.453125e-001  0.000000e+000
      vertex -2.506524e-001 -4.450123e-001  4.453125e-001
      vertex -2.537006e-001 -4.453125e-001  4.453125e-001
    endloop
  endfacet
  facet normal  1.110223e-016 -1.000000e+000  5.551115e-017
    outer loop
      vertex -7.187500e-001  0.000000e+000 -1.718750e-001
      vertex -3.159539e-001  4.471935e-017 -1.718750e-001
      vertex -7.187500e-001  9.540979e-018  0.000000e+000
    endloop
  endfacet
  facet normal  1.110223e-016 -1.000000e+000  5.551115e-017
    outer loop
      vertex -7.187500e-001  9.540979e-018  0.000000e+000
      vertex -3.159539e-001  4.471935e-017 -1.718750e-001
      vertex -3.159539e-001  5.426033e-017 -2.775558e-017
    endloop
  endfacet
  facet normal  1.000000e+000  0.000000e+000  0.000000e+000
    outer loop
      vertex -3.159539e-001  6.250000e-002 -1.718750e-001
      vertex -3.159539e-001  6.250000e-002 -2.775558e-017
      vertex -3.159539e-001  4.471935e-017 -1.718750e-001
    endloop
  endfacet
  facet normal  1.000000e+000  0.000000e+000  0.000000e+000
    outer loop
      vertex -3.159539e-001  4.471935e-017 -1.718750e-001
      vertex -3.159539e-001  6.250000e-002 -2.775558e-017
      vertex -3.159539e-001  5.426033e-017 -2.775558e-017
    endloop
  endfacet
  facet normal -1.000000e+000  0.000000e+000  0.000000e+000
    outer loop
      vertex -7.187500e-001  6.250000e-002  0.000000e+000
      vertex -7.187500e-001  6.250000e-002 -1.718750e-001
      vertex -7.187500e-001  9.540979e-018  0.000000e+000
    endloop
  endfacet
  facet normal -1.000000e+000  0.000000e+000  -0.000000e+000
    outer loop
      vertex -7.187500e-001  9.540979e-018  0.000000e+000
      vertex -7.187500e-001  6.250000e-002 -1.718750e-001
      vertex -7.187500e-001  0.000000e+000 -1.718750e-001
    endloop
  endfacet
  facet normal  0.000000e+000  1.000000e+000  0.000000e+000
    outer loop
      vertex -7.187500e-001  6.250000e-002 -1.718750e-001
      vertex -7.187500e-001  6.250000e-002  0.000000e+000
      vertex -3.159539e-001  6.250000e-002 -1.718750e-001
    endloop
  endfacet
  facet normal  0.000000e+000  1.000000e+000  -0.000000e+000
    outer loop
      vertex -3.159539e-001  6.250000e-002 -1.718750e-001
      vertex -7.187500e-001  6.250000e-002  0.000000e+000
      vertex -3.159539e-001  6.250000e-002 -2.775558e-017
    endloop
  endfacet
  facet normal -1.000000e+000  0.000000e+000  0.000000e+000
    outer loop
      vertex -7.500000e-001  1.406250e-001  4.453125e-001
      vertex -7.500000e-001  1.406250e-001  0.000000e+000
      vertex -7.500000e-001 -4.453125e-001  4.453125e-001
    endloop
  endfacet
  facet normal -1.000000e+000  0.000000e+000  0.000000e+000
    outer loop
      vertex -7.500000e-001 -4.453125e-001  4.453125e-001
      vertex -7.500000e-001  1.406250e-001  0.000000e+000
      vertex -7.500000e-001 -4.453125e-001  0.000000e+000
    endloop
  endfacet
  facet normal  0.000000e+000  9.999999e-001  -0.000000e+000
    outer loop
      vertex -2.380757e-001  1.406250e-001  4.453125e-001
      vertex -2.380757e-001  1.406250e-001  0.000000e+000
      vertex -7.500000e-001  1.406250e-001  4.453125e-001
    endloop
  endfacet
  facet normal  0.000000e+000  9.999999e-001  0.000000e+000
    outer loop
      vertex -7.500000e-001  1.406250e-001  4.453125e-001
      vertex -2.380757e-001  1.406250e-001  0.000000e+000
      vertex -7.500000e-001  1.406250e-001  0.000000e+000
    endloop
  endfacet
  facet normal  -0.000000e+000  0.000000e+000 -1.000000e+000
    outer loop
      vertex -7.187500e-001  6.250000e-002 -1.718750e-001
      vertex -3.159539e-001  6.250000e-002 -1.718750e-001
      vertex -7.187500e-001  0.000000e+000 -1.718750e-001
    endloop
  endfacet
  facet normal  0.000000e+000  0.000000e+000 -1.000000e+000
    outer loop
      vertex -7.187500e-001  0.000000e+000 -1.718750e-001
      vertex -3.159539e-001  6.250000e-002 -1.718750e-001
      vertex -3.159539e-001  4.471935e-017 -1.718750e-001
    endloop
  endfacet
endsolid CATIA STL
