solid CATIA STL
  facet normal  0.000000e+000 -3.369642e-001 -9.415175e-001
    outer loop
      vertex  7.421875e-001 -1.171875e-001  1.562500e-002
      vertex  7.421875e-001  4.453125e-001 -1.856908e-001
      vertex  7.500000e-001 -1.171875e-001  1.562500e-002
    endloop
  endfacet
  facet normal  0.000000e+000 -3.369642e-001 -9.415175e-001
    outer loop
      vertex  7.500000e-001 -1.171875e-001  1.562500e-002
      vertex  7.421875e-001  4.453125e-001 -1.856908e-001
      vertex  7.500000e-001  4.453125e-001 -1.856908e-001
    endloop
  endfacet
  facet normal  0.000000e+000  1.000000e+000  0.000000e+000
    outer loop
      vertex  7.421875e-001  4.453125e-001 -1.856908e-001
      vertex  7.421875e-001  4.453125e-001 -1.560855e-001
      vertex  7.500000e-001  4.453125e-001 -1.856908e-001
    endloop
  endfacet
  facet normal  0.000000e+000  1.000000e+000  -0.000000e+000
    outer loop
      vertex  7.500000e-001  4.453125e-001 -1.856908e-001
      vertex  7.421875e-001  4.453125e-001 -1.560855e-001
      vertex  7.500000e-001  4.453125e-001 -1.560855e-001
    endloop
  endfacet
  facet normal  0.000000e+000  3.369642e-001  9.415175e-001
    outer loop
      vertex  7.421875e-001  4.453125e-001 -1.560855e-001
      vertex  7.421875e-001 -1.171875e-001  4.523026e-002
      vertex  7.500000e-001  4.453125e-001 -1.560855e-001
    endloop
  endfacet
  facet normal  0.000000e+000  3.369642e-001  9.415175e-001
    outer loop
      vertex  7.500000e-001  4.453125e-001 -1.560855e-001
      vertex  7.421875e-001 -1.171875e-001  4.523026e-002
      vertex  7.500000e-001 -1.171875e-001  4.523026e-002
    endloop
  endfacet
  facet normal  0.000000e+000 -1.000000e+000  0.000000e+000
    outer loop
      vertex  7.421875e-001 -1.171875e-001  4.523026e-002
      vertex  7.421875e-001 -1.171875e-001  1.562500e-002
      vertex  7.500000e-001 -1.171875e-001  4.523026e-002
    endloop
  endfacet
  facet normal  0.000000e+000 -1.000000e+000  -0.000000e+000
    outer loop
      vertex  7.500000e-001 -1.171875e-001  4.523026e-002
      vertex  7.421875e-001 -1.171875e-001  1.562500e-002
      vertex  7.500000e-001 -1.171875e-001  1.562500e-002
    endloop
  endfacet
  facet normal -1.000000e+000  0.000000e+000  0.000000e+000
    outer loop
      vertex  7.421875e-001 -1.171875e-001  4.523026e-002
      vertex  7.421875e-001  4.453125e-001 -1.560855e-001
      vertex  7.421875e-001 -1.171875e-001  1.562500e-002
    endloop
  endfacet
  facet normal -1.000000e+000  0.000000e+000  0.000000e+000
    outer loop
      vertex  7.421875e-001 -1.171875e-001  1.562500e-002
      vertex  7.421875e-001  4.453125e-001 -1.560855e-001
      vertex  7.421875e-001  4.453125e-001 -1.856908e-001
    endloop
  endfacet
  facet normal  1.000000e+000  0.000000e+000  0.000000e+000
    outer loop
      vertex  7.500000e-001 -1.171875e-001  1.562500e-002
      vertex  7.500000e-001  4.453125e-001 -1.856908e-001
      vertex  7.500000e-001 -1.171875e-001  4.523026e-002
    endloop
  endfacet
  facet normal  1.000000e+000  0.000000e+000  0.000000e+000
    outer loop
      vertex  7.500000e-001 -1.171875e-001  4.523026e-002
      vertex  7.500000e-001  4.453125e-001 -1.856908e-001
      vertex  7.500000e-001  4.453125e-001 -1.560855e-001
    endloop
  endfacet
endsolid CATIA STL
