solid CATIA STL
  facet normal  1.000000e+000  0.000000e+000  0.000000e+000
    outer loop
      vertex  6.562500e-001  1.166830e-016 -1.116776e+000
      vertex  6.562500e-001  2.109375e-001 -1.116776e+000
      vertex  6.562500e-001  1.554723e-016 -4.180099e-001
    endloop
  endfacet
  facet normal  1.000000e+000  -0.000000e+000  0.000000e+000
    outer loop
      vertex  6.562500e-001  2.109375e-001  3.042763e-001
      vertex  6.562500e-001  1.955672e-016  3.042763e-001
      vertex  6.562500e-001  1.567779e-016 -3.944901e-001
    endloop
  endfacet
  facet normal  1.000000e+000  -0.000000e+000  0.000000e+000
    outer loop
      vertex  6.562500e-001  2.109375e-001  3.042763e-001
      vertex  6.562500e-001  1.567779e-016 -3.944901e-001
      vertex  6.562500e-001  1.565588e-016 -3.984375e-001
    endloop
  endfacet
  facet normal  1.000000e+000  -0.000000e+000  0.000000e+000
    outer loop
      vertex  6.562500e-001  2.109375e-001  3.042763e-001
      vertex  6.562500e-001  1.565588e-016 -3.984375e-001
      vertex  6.562500e-001  1.556914e-016 -4.140625e-001
    endloop
  endfacet
  facet normal  1.000000e+000  -0.000000e+000  0.000000e+000
    outer loop
      vertex  6.562500e-001  2.109375e-001  3.042763e-001
      vertex  6.562500e-001  1.556914e-016 -4.140625e-001
      vertex  6.562500e-001  1.554723e-016 -4.180099e-001
    endloop
  endfacet
  facet normal  9.999999e-001  -0.000000e+000  0.000000e+000
    outer loop
      vertex  6.562500e-001  2.109375e-001  3.042763e-001
      vertex  6.562500e-001  1.554723e-016 -4.180099e-001
      vertex  6.562500e-001  2.109375e-001 -1.116776e+000
    endloop
  endfacet
  facet normal  0.000000e+000  1.000000e+000  0.000000e+000
    outer loop
      vertex -7.500000e-001  2.109375e-001 -4.062500e-001
      vertex  6.562500e-001  2.109375e-001  3.042763e-001
      vertex  6.562500e-001  2.109375e-001 -1.116776e+000
    endloop
  endfacet
  facet normal  1.110223e-016 -1.000000e+000  5.551144e-017
    outer loop
      vertex -7.345378e-001  2.150334e-018 -3.984375e-001
      vertex -7.500000e-001  0.000000e+000 -4.062500e-001
      vertex  6.562500e-001  1.565588e-016 -3.984375e-001
    endloop
  endfacet
  facet normal  1.110223e-016 -1.000000e+000  5.550947e-017
    outer loop
      vertex  6.562500e-001  1.565588e-016 -3.984375e-001
      vertex -7.500000e-001  0.000000e+000 -4.062500e-001
      vertex -7.345378e-001  1.282973e-018 -4.140625e-001
    endloop
  endfacet
  facet normal  1.110223e-016 -1.000000e+000  5.551115e-017
    outer loop
      vertex  6.562500e-001  1.565588e-016 -3.984375e-001
      vertex -7.345378e-001  1.282973e-018 -4.140625e-001
      vertex  6.562500e-001  1.556914e-016 -4.140625e-001
    endloop
  endfacet
  facet normal -4.509677e-001  0.000000e+000  8.925402e-001
    outer loop
      vertex -3.523763e-002  9.940203e-017 -4.510691e-002
      vertex  6.562500e-001  1.955672e-016  3.042763e-001
      vertex  6.562500e-001  2.109375e-001  3.042763e-001
    endloop
  endfacet
  facet normal -4.509682e-001  0.000000e+000  8.925400e-001
    outer loop
      vertex -7.500000e-001  0.000000e+000 -4.062500e-001
      vertex -7.345378e-001  2.150334e-018 -3.984375e-001
      vertex -7.500000e-001  2.109375e-001 -4.062500e-001
    endloop
  endfacet
  facet normal -4.509677e-001  4.526493e-008  8.925403e-001
    outer loop
      vertex -7.500000e-001  2.109375e-001 -4.062500e-001
      vertex -7.345378e-001  2.150334e-018 -3.984375e-001
      vertex -3.523763e-002  9.940203e-017 -4.510691e-002
    endloop
  endfacet
  facet normal -4.509677e-001 -8.699937e-008  8.925403e-001
    outer loop
      vertex -7.500000e-001  2.109375e-001 -4.062500e-001
      vertex -3.523763e-002  9.940203e-017 -4.510691e-002
      vertex  6.562500e-001  2.109375e-001  3.042763e-001
    endloop
  endfacet
  facet normal -4.509677e-001  0.000000e+000 -8.925402e-001
    outer loop
      vertex  6.562500e-001  2.109375e-001 -1.116776e+000
      vertex  6.562500e-001  1.166830e-016 -1.116776e+000
      vertex -3.523763e-002  5.930710e-017 -7.673931e-001
    endloop
  endfacet
  facet normal -4.509678e-001 -2.499161e-008 -8.925403e-001
    outer loop
      vertex  6.562500e-001  2.109375e-001 -1.116776e+000
      vertex -3.523763e-002  5.930710e-017 -7.673931e-001
      vertex -7.500000e-001  2.109375e-001 -4.062500e-001
    endloop
  endfacet
  facet normal -4.509677e-001  4.247667e-008 -8.925402e-001
    outer loop
      vertex -7.500000e-001  2.109375e-001 -4.062500e-001
      vertex -3.523763e-002  5.930710e-017 -7.673931e-001
      vertex -7.345378e-001  1.282973e-018 -4.140625e-001
    endloop
  endfacet
  facet normal -4.509682e-001  0.000000e+000 -8.925400e-001
    outer loop
      vertex -7.500000e-001  2.109375e-001 -4.062500e-001
      vertex -7.345378e-001  1.282973e-018 -4.140625e-001
      vertex -7.500000e-001  0.000000e+000 -4.062500e-001
    endloop
  endfacet
  facet normal  1.110223e-016 -1.000000e+000  5.551115e-017
    outer loop
      vertex  6.562500e-001  1.554723e-016 -4.180099e-001
      vertex -3.523763e-002  5.930710e-017 -7.673931e-001
      vertex  6.562500e-001  1.166830e-016 -1.116776e+000
    endloop
  endfacet
  facet normal  0.000000e+000 -1.000000e+000  0.000000e+000
    outer loop
      vertex -7.421875e-001 -2.109375e-001 -4.140625e-001
      vertex -7.421875e-001 -2.109375e-001 -1.124589e+000
      vertex  6.640625e-001 -2.109375e-001 -4.140625e-001
    endloop
  endfacet
  facet normal  5.551115e-017  1.000000e+000 -5.550947e-017
    outer loop
      vertex  6.640625e-001  1.552578e-016 -4.140625e-001
      vertex  6.562500e-001  1.554723e-016 -4.180099e-001
      vertex  6.562500e-001  1.556914e-016 -4.140625e-001
    endloop
  endfacet
  facet normal -2.810995e-016  1.000000e+000 -3.921222e-016
    outer loop
      vertex -7.345378e-001  1.282973e-018 -4.140625e-001
      vertex -3.523763e-002  5.930710e-017 -7.673931e-001
      vertex -7.421875e-001 -8.673617e-019 -4.140625e-001
    endloop
  endfacet
  facet normal -1.128627e-016  1.000000e+000 -5.551114e-017
    outer loop
      vertex -3.523763e-002  5.930710e-017 -7.673931e-001
      vertex -7.421875e-001 -4.030949e-017 -1.124589e+000
      vertex -7.421875e-001 -8.673617e-019 -4.140625e-001
    endloop
  endfacet
  facet normal -9.999999e-001  -0.000000e+000  0.000000e+000
    outer loop
      vertex -7.421875e-001 -2.109375e-001 -4.140625e-001
      vertex -7.421875e-001 -8.673617e-019 -4.140625e-001
      vertex -7.421875e-001 -2.109375e-001 -1.124589e+000
    endloop
  endfacet
  facet normal -9.999999e-001  0.000000e+000  0.000000e+000
    outer loop
      vertex -7.421875e-001 -2.109375e-001 -1.124589e+000
      vertex -7.421875e-001 -8.673617e-019 -4.140625e-001
      vertex -7.421875e-001 -4.030949e-017 -1.124589e+000
    endloop
  endfacet
  facet normal  4.509678e-001  0.000000e+000 -8.925403e-001
    outer loop
      vertex  6.640625e-001 -2.109375e-001 -4.140625e-001
      vertex -7.421875e-001 -2.109375e-001 -1.124589e+000
      vertex -7.421875e-001 -4.030949e-017 -1.124589e+000
    endloop
  endfacet
  facet normal  4.509678e-001 -1.221779e-007 -8.925403e-001
    outer loop
      vertex  6.640625e-001 -2.109375e-001 -4.140625e-001
      vertex -7.421875e-001 -4.030949e-017 -1.124589e+000
      vertex -3.523763e-002  5.930710e-017 -7.673931e-001
    endloop
  endfacet
  facet normal  4.509677e-001 -3.614729e-008 -8.925402e-001
    outer loop
      vertex  6.640625e-001 -2.109375e-001 -4.140625e-001
      vertex -3.523763e-002  5.930710e-017 -7.673931e-001
      vertex  6.562500e-001  1.554723e-016 -4.180099e-001
    endloop
  endfacet
  facet normal  4.509685e-001  0.000000e+000 -8.925398e-001
    outer loop
      vertex  6.640625e-001 -2.109375e-001 -4.140625e-001
      vertex  6.562500e-001  1.554723e-016 -4.180099e-001
      vertex  6.640625e-001  1.552578e-016 -4.140625e-001
    endloop
  endfacet
  facet normal  -0.000000e+000  0.000000e+000  9.999999e-001
    outer loop
      vertex -7.345378e-001  1.282973e-018 -4.140625e-001
      vertex -7.421875e-001 -8.673617e-019 -4.140625e-001
      vertex -7.421875e-001 -2.109375e-001 -4.140625e-001
    endloop
  endfacet
  facet normal  0.000000e+000  0.000000e+000  1.000000e+000
    outer loop
      vertex  6.640625e-001  1.552578e-016 -4.140625e-001
      vertex  6.562500e-001  1.556914e-016 -4.140625e-001
      vertex  6.640625e-001 -2.109375e-001 -4.140625e-001
    endloop
  endfacet
  facet normal  0.000000e+000  0.000000e+000  1.000000e+000
    outer loop
      vertex  6.640625e-001 -2.109375e-001 -4.140625e-001
      vertex  6.562500e-001  1.556914e-016 -4.140625e-001
      vertex -7.345378e-001  1.282973e-018 -4.140625e-001
    endloop
  endfacet
  facet normal  0.000000e+000  0.000000e+000  1.000000e+000
    outer loop
      vertex  6.640625e-001 -2.109375e-001 -4.140625e-001
      vertex -7.345378e-001  1.282973e-018 -4.140625e-001
      vertex -7.421875e-001 -2.109375e-001 -4.140625e-001
    endloop
  endfacet
  facet normal  1.110223e-016 -1.000000e+000  5.551115e-017
    outer loop
      vertex  6.562500e-001  1.567779e-016 -3.944901e-001
      vertex  6.562500e-001  1.955672e-016  3.042763e-001
      vertex -3.523763e-002  9.940203e-017 -4.510691e-002
    endloop
  endfacet
  facet normal -1.128627e-016  1.000000e+000 -5.551114e-017
    outer loop
      vertex -7.421875e-001  3.944213e-017  3.120888e-001
      vertex -3.523763e-002  9.940203e-017 -4.510691e-002
      vertex -7.421875e-001  0.000000e+000 -3.984375e-001
    endloop
  endfacet
  facet normal -2.810997e-016  1.000000e+000  2.811005e-016
    outer loop
      vertex -3.523763e-002  9.940203e-017 -4.510691e-002
      vertex -7.345378e-001  2.150334e-018 -3.984375e-001
      vertex -7.421875e-001  0.000000e+000 -3.984375e-001
    endloop
  endfacet
  facet normal  5.551115e-017  1.000000e+000 -5.550947e-017
    outer loop
      vertex  6.562500e-001  1.567779e-016 -3.944901e-001
      vertex  6.640625e-001  1.561251e-016 -3.984375e-001
      vertex  6.562500e-001  1.565588e-016 -3.984375e-001
    endloop
  endfacet
  facet normal  4.509685e-001  0.000000e+000  8.925398e-001
    outer loop
      vertex  6.640625e-001 -2.109375e-001 -3.984375e-001
      vertex  6.640625e-001  1.561251e-016 -3.984375e-001
      vertex  6.562500e-001  1.567779e-016 -3.944901e-001
    endloop
  endfacet
  facet normal  4.509677e-001 -3.757201e-008  8.925402e-001
    outer loop
      vertex  6.640625e-001 -2.109375e-001 -3.984375e-001
      vertex  6.562500e-001  1.567779e-016 -3.944901e-001
      vertex -3.523763e-002  9.940203e-017 -4.510691e-002
    endloop
  endfacet
  facet normal  4.509678e-001  3.924734e-009  8.925403e-001
    outer loop
      vertex  6.640625e-001 -2.109375e-001 -3.984375e-001
      vertex -3.523763e-002  9.940203e-017 -4.510691e-002
      vertex -7.421875e-001  3.944213e-017  3.120888e-001
    endloop
  endfacet
  facet normal  4.509678e-001  0.000000e+000  8.925403e-001
    outer loop
      vertex  6.640625e-001 -2.109375e-001 -3.984375e-001
      vertex -7.421875e-001  3.944213e-017  3.120888e-001
      vertex -7.421875e-001 -2.109375e-001  3.120888e-001
    endloop
  endfacet
  facet normal  0.000000e+000  0.000000e+000 -9.999999e-001
    outer loop
      vertex -7.421875e-001 -2.109375e-001 -3.984375e-001
      vertex -7.421875e-001  0.000000e+000 -3.984375e-001
      vertex -7.345378e-001  2.150334e-018 -3.984375e-001
    endloop
  endfacet
  facet normal  0.000000e+000  -0.000000e+000 -1.000000e+000
    outer loop
      vertex -7.421875e-001 -2.109375e-001 -3.984375e-001
      vertex -7.345378e-001  2.150334e-018 -3.984375e-001
      vertex  6.640625e-001 -2.109375e-001 -3.984375e-001
    endloop
  endfacet
  facet normal  0.000000e+000  0.000000e+000 -1.000000e+000
    outer loop
      vertex  6.640625e-001 -2.109375e-001 -3.984375e-001
      vertex -7.345378e-001  2.150334e-018 -3.984375e-001
      vertex  6.562500e-001  1.565588e-016 -3.984375e-001
    endloop
  endfacet
  facet normal  0.000000e+000  0.000000e+000 -1.000000e+000
    outer loop
      vertex  6.640625e-001 -2.109375e-001 -3.984375e-001
      vertex  6.562500e-001  1.565588e-016 -3.984375e-001
      vertex  6.640625e-001  1.561251e-016 -3.984375e-001
    endloop
  endfacet
  facet normal  0.000000e+000 -1.000000e+000  0.000000e+000
    outer loop
      vertex -7.421875e-001 -2.109375e-001 -3.984375e-001
      vertex  6.640625e-001 -2.109375e-001 -3.984375e-001
      vertex -7.421875e-001 -2.109375e-001  3.120888e-001
    endloop
  endfacet
  facet normal -9.999999e-001  -0.000000e+000  0.000000e+000
    outer loop
      vertex -7.421875e-001 -2.109375e-001  3.120888e-001
      vertex -7.421875e-001  3.944213e-017  3.120888e-001
      vertex -7.421875e-001 -2.109375e-001 -3.984375e-001
    endloop
  endfacet
  facet normal -9.999999e-001  0.000000e+000  0.000000e+000
    outer loop
      vertex -7.421875e-001 -2.109375e-001 -3.984375e-001
      vertex -7.421875e-001  3.944213e-017  3.120888e-001
      vertex -7.421875e-001  0.000000e+000 -3.984375e-001
    endloop
  endfacet
endsolid CATIA STL
