solid CATIA STL
  facet normal -1.000000e+000  0.000000e+000  0.000000e+000
    outer loop
      vertex  4.296875e-001  2.617972e-016  4.596217e-001
      vertex  4.296875e-001  1.471776e-017 -5.861842e-001
      vertex  4.296875e-001 -3.125000e-002 -5.705592e-001
    endloop
  endfacet
  facet normal -1.000000e+000  0.000000e+000  0.000000e+000
    outer loop
      vertex  4.296875e-001  2.617972e-016  4.596217e-001
      vertex  4.296875e-001 -3.125000e-002 -5.705592e-001
      vertex  4.296875e-001 -3.671875e-001 -5.705592e-001
    endloop
  endfacet
  facet normal -9.999999e-001  0.000000e+000  0.000000e+000
    outer loop
      vertex  4.296875e-001  2.617972e-016  4.596217e-001
      vertex  4.296875e-001 -3.671875e-001 -5.705592e-001
      vertex  4.296875e-001 -3.671875e-001  4.596217e-001
    endloop
  endfacet
  facet normal -1.000000e+000  0.000000e+000  0.000000e+000
    outer loop
      vertex  4.296875e-001  2.617972e-016  4.596217e-001
      vertex  4.296875e-001 -3.671875e-001  4.596217e-001
      vertex  4.296875e-001 -3.671875e-001  4.609375e-001
    endloop
  endfacet
  facet normal -1.000000e+000  0.000000e+000  0.000000e+000
    outer loop
      vertex  4.296875e-001  2.617972e-016  4.596217e-001
      vertex  4.296875e-001 -3.671875e-001  4.609375e-001
      vertex  4.296875e-001 -7.812500e-003  4.609375e-001
    endloop
  endfacet
  facet normal -9.999999e-001  0.000000e+000  0.000000e+000
    outer loop
      vertex  4.296875e-001  2.617972e-016  4.596217e-001
      vertex  4.296875e-001 -7.812500e-003  4.609375e-001
      vertex  4.296875e-001 -6.288357e-003  4.610876e-001
    endloop
  endfacet
  facet normal -1.000000e+000  0.000000e+000  0.000000e+000
    outer loop
      vertex  4.296875e-001  2.617972e-016  4.596217e-001
      vertex  4.296875e-001 -6.288357e-003  4.610876e-001
      vertex  4.296875e-001 -4.822786e-003  4.615322e-001
    endloop
  endfacet
  facet normal -1.000000e+000  0.000000e+000  0.000000e+000
    outer loop
      vertex  4.296875e-001  2.617972e-016  4.596217e-001
      vertex  4.296875e-001 -4.822786e-003  4.615322e-001
      vertex  4.296875e-001 -3.472107e-003  4.622541e-001
    endloop
  endfacet
  facet normal -1.000000e+000  0.000000e+000  0.000000e+000
    outer loop
      vertex  4.296875e-001  2.617972e-016  4.596217e-001
      vertex  4.296875e-001 -3.472107e-003  4.622541e-001
      vertex  4.296875e-001 -2.288228e-003  4.632257e-001
    endloop
  endfacet
  facet normal -1.000000e+000  0.000000e+000  0.000000e+000
    outer loop
      vertex  4.296875e-001  2.617972e-016  4.596217e-001
      vertex  4.296875e-001 -2.288228e-003  4.632257e-001
      vertex  4.296875e-001 -1.316644e-003  4.644096e-001
    endloop
  endfacet
  facet normal -1.000000e+000  0.000000e+000  0.000000e+000
    outer loop
      vertex  4.296875e-001  2.617972e-016  4.596217e-001
      vertex  4.296875e-001 -1.316644e-003  4.644096e-001
      vertex  4.296875e-001 -5.946911e-004  4.657603e-001
    endloop
  endfacet
  facet normal  3.458638e-001 -9.382824e-001  2.057323e-003
    outer loop
      vertex -6.362325e-001 -7.164159e-002 -6.406250e-001
      vertex -6.501752e-001 -7.678106e-002 -6.406250e-001
      vertex -6.482661e-001 -7.624863e-002 -7.187500e-001
    endloop
  endfacet
  facet normal  1.905124e-001 -9.816827e-001 -2.034770e-003
    outer loop
      vertex -6.627136e-001 -7.905242e-002 -7.187500e-001
      vertex -6.482661e-001 -7.624863e-002 -7.187500e-001
      vertex -6.501752e-001 -7.678106e-002 -6.406250e-001
    endloop
  endfacet
  facet normal  1.650723e-001 -9.862790e-001  2.181778e-003
    outer loop
      vertex -6.501752e-001 -7.678106e-002 -6.406250e-001
      vertex -6.648312e-001 -7.923401e-002 -6.406250e-001
      vertex -6.627136e-001 -7.905242e-002 -7.187500e-001
    endloop
  endfacet
  facet normal  6.160108e-003 -9.999787e-001 -2.157371e-003
    outer loop
      vertex -6.774303e-001 -7.914308e-002 -7.187500e-001
      vertex -6.627136e-001 -7.905242e-002 -7.187500e-001
      vertex -6.648312e-001 -7.923401e-002 -6.406250e-001
    endloop
  endfacet
  facet normal  9.826230e-001 -1.856129e-001  2.934216e-004
    outer loop
      vertex -5.915035e-001 -7.812500e-003  4.609375e-001
      vertex -5.941010e-001 -2.156324e-002  4.609375e-001
      vertex -5.923796e-001 -1.409453e-002 -5.791370e-001
    endloop
  endfacet
  facet normal  9.691661e-001 -2.464083e-001 -1.654184e-004
    outer loop
      vertex -5.923796e-001 -1.409453e-002 -5.791370e-001
      vertex -5.941010e-001 -2.156324e-002  4.609375e-001
      vertex -5.951402e-001 -2.495628e-002 -5.737061e-001
    endloop
  endfacet
  facet normal  8.579850e-001 -5.136747e-001  2.108707e-004
    outer loop
      vertex -5.990710e-001 -3.464486e-002  4.609375e-001
      vertex -6.062593e-001 -4.665143e-002  4.609375e-001
      vertex -6.044337e-001 -4.402555e-002 -5.705592e-001
    endloop
  endfacet
  facet normal  7.782391e-001 -6.279681e-001 -2.212277e-004
    outer loop
      vertex -6.135548e-001 -5.532933e-002 -5.705592e-001
      vertex -6.044337e-001 -4.402555e-002 -5.705592e-001
      vertex -6.062593e-001 -4.665143e-002  4.609375e-001
    endloop
  endfacet
  facet normal  7.545384e-001 -6.562559e-001  1.843846e-004
    outer loop
      vertex -6.062593e-001 -4.665143e-002  4.609375e-001
      vertex -6.154429e-001 -5.721037e-002  4.609375e-001
      vertex -6.135548e-001 -5.532933e-002 -5.705592e-001
    endloop
  endfacet
  facet normal  6.508939e-001 -7.591686e-001 -1.930033e-004
    outer loop
      vertex -6.245816e-001 -6.478345e-002 -5.705592e-001
      vertex -6.135548e-001 -5.532933e-002 -5.705592e-001
      vertex -6.154429e-001 -5.721037e-002  4.609375e-001
    endloop
  endfacet
  facet normal  6.697679e-001 -7.424479e-001 -1.349584e-002
    outer loop
      vertex -6.120272e-001 -5.371070e-002  5.310033e-001
      vertex -6.221359e-001 -6.297640e-002  5.390625e-001
      vertex -6.231412e-001 -6.373673e-002  5.310033e-001
    endloop
  endfacet
  facet normal  5.334523e-001 -8.457264e-001  1.325058e-002
    outer loop
      vertex -6.231412e-001 -6.373673e-002  5.310033e-001
      vertex -6.221359e-001 -6.297640e-002  5.390625e-001
      vertex -6.345837e-001 -7.082795e-002  5.390625e-001
    endloop
  endfacet
  facet normal  5.185918e-001 -8.548741e-001 -1.589734e-002
    outer loop
      vertex -6.231412e-001 -6.373673e-002  5.310033e-001
      vertex -6.345837e-001 -7.082795e-002  5.390625e-001
      vertex -6.359386e-001 -7.150002e-002  5.310033e-001
    endloop
  endfacet
  facet normal  3.682812e-001 -9.295835e-001  1.560340e-002
    outer loop
      vertex -6.359386e-001 -7.150002e-002  5.310033e-001
      vertex -6.345837e-001 -7.082795e-002  5.390625e-001
      vertex -6.482661e-001 -7.624863e-002  5.390625e-001
    endloop
  endfacet
  facet normal  3.490150e-001 -9.369404e-001 -1.820116e-002
    outer loop
      vertex -6.359386e-001 -7.150002e-002  5.310033e-001
      vertex -6.482661e-001 -7.624863e-002  5.390625e-001
      vertex -6.499651e-001 -7.672497e-002  5.310033e-001
    endloop
  endfacet
  facet normal  1.904824e-001 -9.815282e-001  1.785583e-002
    outer loop
      vertex -6.499651e-001 -7.672497e-002  5.310033e-001
      vertex -6.482661e-001 -7.624863e-002  5.390625e-001
      vertex -6.627136e-001 -7.905242e-002  5.390625e-001
    endloop
  endfacet
  facet normal  1.670630e-001 -9.857351e-001 -2.040519e-002
    outer loop
      vertex -6.499651e-001 -7.672497e-002  5.310033e-001
      vertex -6.627136e-001 -7.905242e-002  5.390625e-001
      vertex -6.647227e-001 -7.922609e-002  5.310033e-001
    endloop
  endfacet
  facet normal  6.158889e-003 -9.997808e-001  2.000957e-002
    outer loop
      vertex -6.647227e-001 -7.922609e-002  5.310033e-001
      vertex -6.627136e-001 -7.905242e-002  5.390625e-001
      vertex -6.774303e-001 -7.914308e-002  5.390625e-001
    endloop
  endfacet
  facet normal  9.999926e-001  3.839198e-003 -3.642628e-006
    outer loop
      vertex -5.911245e-001  3.409121e-017 -5.705592e-001
      vertex -5.911245e-001  9.786835e-004  4.609375e-001
      vertex -5.911193e-001 -3.668388e-004  4.663841e-001
    endloop
  endfacet
  facet normal  9.999333e-001 -1.154536e-002 -9.084916e-006
    outer loop
      vertex -5.911245e-001  3.409121e-017 -5.705592e-001
      vertex -5.911193e-001 -3.668388e-004  4.663841e-001
      vertex -5.911320e-001 -1.469845e-003  4.641887e-001
    endloop
  endfacet
  facet normal  9.657274e-001  2.595583e-001  3.757637e-004
    outer loop
      vertex -5.911245e-001  3.409121e-017 -5.705592e-001
      vertex -5.911320e-001 -1.469845e-003  4.641887e-001
      vertex -5.911184e-001  3.235716e-017 -5.861842e-001
    endloop
  endfacet
  facet normal  9.352506e-001 -3.539861e-001  2.214424e-004
    outer loop
      vertex -5.975231e-001 -3.125000e-002 -5.705592e-001
      vertex -5.951402e-001 -2.495628e-002 -5.737061e-001
      vertex -5.941010e-001 -2.156324e-002  4.609375e-001
    endloop
  endfacet
  facet normal  9.348072e-001 -3.551552e-001  2.338923e-004
    outer loop
      vertex -5.975231e-001 -3.125000e-002 -5.705592e-001
      vertex -5.941010e-001 -2.156324e-002  4.609375e-001
      vertex -5.990710e-001 -3.464486e-002  4.609375e-001
    endloop
  endfacet
  facet normal  8.795665e-001 -4.757760e-001 -2.459900e-004
    outer loop
      vertex -5.975231e-001 -3.125000e-002 -5.705592e-001
      vertex -5.990710e-001 -3.464486e-002  4.609375e-001
      vertex -6.044337e-001 -4.402555e-002 -5.705592e-001
    endloop
  endfacet
  facet normal -1.924356e-001 -9.813095e-001  -0.000000e+000
    outer loop
      vertex -6.796875e-001 -7.891460e-002 -6.406250e-001
      vertex -6.796875e-001 -7.891460e-002 -5.705592e-001
      vertex -6.919113e-001 -7.651749e-002 -7.187500e-001
    endloop
  endfacet
  facet normal -1.784031e-001 -9.839549e-001 -2.276765e-003
    outer loop
      vertex -6.796875e-001 -7.891460e-002 -6.406250e-001
      vertex -6.919113e-001 -7.651749e-002 -7.187500e-001
      vertex -6.774303e-001 -7.914308e-002 -7.187500e-001
    endloop
  endfacet
  facet normal -2.149515e-002 -9.997663e-001  2.302821e-003
    outer loop
      vertex -6.796875e-001 -7.891460e-002 -6.406250e-001
      vertex -6.774303e-001 -7.914308e-002 -7.187500e-001
      vertex -6.648312e-001 -7.923401e-002 -6.406250e-001
    endloop
  endfacet
  facet normal -2.080530e-002 -9.995301e-001 -2.250980e-002
    outer loop
      vertex -6.796875e-001 -7.891460e-002  5.310033e-001
      vertex -6.647227e-001 -7.922609e-002  5.310033e-001
      vertex -6.774303e-001 -7.914308e-002  5.390625e-001
    endloop
  endfacet
  facet normal -1.783601e-001 -9.837179e-001  2.206539e-002
    outer loop
      vertex -6.796875e-001 -7.891460e-002  5.310033e-001
      vertex -6.774303e-001 -7.914308e-002  5.390625e-001
      vertex -6.919113e-001 -7.651749e-002  5.390625e-001
    endloop
  endfacet
  facet normal -1.924356e-001 -9.813095e-001  0.000000e+000
    outer loop
      vertex -6.796875e-001 -7.891460e-002  5.310033e-001
      vertex -6.919113e-001 -7.651749e-002  5.390625e-001
      vertex -6.796875e-001 -7.891460e-002  4.609375e-001
    endloop
  endfacet
  facet normal  9.995695e-001 -2.933718e-002 -2.806385e-005
    outer loop
      vertex -5.911184e-001  3.235716e-017 -5.861842e-001
      vertex -5.911320e-001 -1.469845e-003  4.641887e-001
      vertex -5.911829e-001 -3.200479e-003  4.624441e-001
    endloop
  endfacet
  facet normal  9.985391e-001 -5.403316e-002 -1.035009e-004
    outer loop
      vertex -5.911184e-001  3.235716e-017 -5.861842e-001
      vertex -5.911829e-001 -3.200479e-003  4.624441e-001
      vertex -5.913014e-001 -5.388116e-003  4.613232e-001
    endloop
  endfacet
  facet normal  9.965461e-001 -8.304114e-002 -2.530588e-004
    outer loop
      vertex -5.911184e-001  3.235716e-017 -5.861842e-001
      vertex -5.913014e-001 -5.388116e-003  4.613232e-001
      vertex -5.915035e-001 -7.812500e-003  4.609375e-001
    endloop
  endfacet
  facet normal  9.960071e-001 -8.927232e-002 -2.997474e-004
    outer loop
      vertex -5.911184e-001  3.235716e-017 -5.861842e-001
      vertex -5.915035e-001 -7.812500e-003  4.609375e-001
      vertex -5.923796e-001 -1.409453e-002 -5.791370e-001
    endloop
  endfacet
  facet normal  9.967660e-001 -8.035268e-002 -1.006590e-003
    outer loop
      vertex -5.911245e-001  9.786835e-004 -7.187500e-001
      vertex -5.911245e-001  2.631235e-017 -6.406250e-001
      vertex -5.923070e-001 -1.369079e-002 -7.187500e-001
    endloop
  endfacet
  facet normal  9.956540e-001 -9.312206e-002  1.247976e-003
    outer loop
      vertex -5.923070e-001 -1.369079e-002 -7.187500e-001
      vertex -5.911245e-001  2.631235e-017 -6.406250e-001
      vertex -5.925082e-001 -1.479465e-002 -6.406250e-001
    endloop
  endfacet
  facet normal  9.648378e-001 -2.628430e-001 -1.229420e-003
    outer loop
      vertex -5.923070e-001 -1.369079e-002 -7.187500e-001
      vertex -5.925082e-001 -1.479465e-002 -6.406250e-001
      vertex -5.961753e-001 -2.789039e-002 -7.187500e-001
    endloop
  endfacet
  facet normal  9.607795e-001 -2.773097e-001  1.386071e-003
    outer loop
      vertex -5.961753e-001 -2.789039e-002 -7.187500e-001
      vertex -5.925082e-001 -1.479465e-002 -6.406250e-001
      vertex -5.966290e-001 -2.907164e-002 -6.406250e-001
    endloop
  endfacet
  facet normal  8.997973e-001 -4.363061e-001 -1.372058e-003
    outer loop
      vertex -5.961753e-001 -2.789039e-002 -7.187500e-001
      vertex -5.966290e-001 -2.907164e-002 -6.406250e-001
      vertex -6.025965e-001 -4.113277e-002 -7.187500e-001
    endloop
  endfacet
  facet normal  8.923260e-001 -4.513889e-001  1.527146e-003
    outer loop
      vertex -6.025965e-001 -4.113277e-002 -7.187500e-001
      vertex -5.966290e-001 -2.907164e-002 -6.406250e-001
      vertex -6.033365e-001 -4.233143e-002 -6.406250e-001
    endloop
  endfacet
  facet normal  8.038730e-001 -5.947990e-001 -1.511046e-003
    outer loop
      vertex -6.025965e-001 -4.113277e-002 -7.187500e-001
      vertex -6.033365e-001 -4.233143e-002 -6.406250e-001
      vertex -6.113502e-001 -5.296345e-002 -7.187500e-001
    endloop
  endfacet
  facet normal  7.926496e-001 -6.096752e-001  1.664704e-003
    outer loop
      vertex -6.113502e-001 -5.296345e-002 -7.187500e-001
      vertex -6.033365e-001 -4.233143e-002 -6.406250e-001
      vertex -6.123962e-001 -5.411006e-002 -6.406250e-001
    endloop
  endfacet
  facet normal  6.803625e-001 -7.328739e-001 -1.646823e-003
    outer loop
      vertex -6.113502e-001 -5.296345e-002 -7.187500e-001
      vertex -6.123962e-001 -5.411006e-002 -6.406250e-001
      vertex -6.221359e-001 -6.297640e-002 -7.187500e-001
    endloop
  endfacet
  facet normal  6.652419e-001 -7.466257e-001  1.798914e-003
    outer loop
      vertex -6.221359e-001 -6.297640e-002 -7.187500e-001
      vertex -6.123962e-001 -5.411006e-002 -6.406250e-001
      vertex -6.234909e-001 -6.399541e-002 -6.406250e-001
    endloop
  endfacet
  facet normal  5.334983e-001 -8.457993e-001 -1.779486e-003
    outer loop
      vertex -6.221359e-001 -6.297640e-002 -7.187500e-001
      vertex -6.234909e-001 -6.399541e-002 -6.406250e-001
      vertex -6.345837e-001 -7.082795e-002 -7.187500e-001
    endloop
  endfacet
  facet normal  5.145544e-001 -8.574556e-001  1.929715e-003
    outer loop
      vertex -6.345837e-001 -7.082795e-002 -7.187500e-001
      vertex -6.234909e-001 -6.399541e-002 -6.406250e-001
      vertex -6.362325e-001 -7.164159e-002 -6.406250e-001
    endloop
  endfacet
  facet normal  3.683253e-001 -9.296950e-001 -1.908825e-003
    outer loop
      vertex -6.345837e-001 -7.082795e-002 -7.187500e-001
      vertex -6.362325e-001 -7.164159e-002 -6.406250e-001
      vertex -6.482661e-001 -7.624863e-002 -7.187500e-001
    endloop
  endfacet
  facet normal -9.957007e-001 -9.262837e-002  1.028381e-017
    outer loop
      vertex -7.500000e-001  1.396452e-016  5.390625e-001
      vertex -7.500000e-001  0.000000e+000 -7.187500e-001
      vertex -7.486368e-001 -1.465379e-002  5.390625e-001
    endloop
  endfacet
  facet normal -9.957007e-001 -9.262837e-002  -0.000000e+000
    outer loop
      vertex -7.486368e-001 -1.465379e-002  5.390625e-001
      vertex -7.500000e-001  0.000000e+000 -7.187500e-001
      vertex -7.486368e-001 -1.465379e-002 -7.187500e-001
    endloop
  endfacet
  facet normal -9.615272e-001 -2.747097e-001  0.000000e+000
    outer loop
      vertex -7.486368e-001 -1.465379e-002  5.390625e-001
      vertex -7.486368e-001 -1.465379e-002 -7.187500e-001
      vertex -7.445939e-001 -2.880466e-002  5.390625e-001
    endloop
  endfacet
  facet normal -9.615272e-001 -2.747097e-001  -0.000000e+000
    outer loop
      vertex -7.445939e-001 -2.880466e-002  5.390625e-001
      vertex -7.486368e-001 -1.465379e-002 -7.187500e-001
      vertex -7.445939e-001 -2.880466e-002 -7.187500e-001
    endloop
  endfacet
  facet normal -8.943545e-001 -4.473590e-001  0.000000e+000
    outer loop
      vertex -7.445939e-001 -2.880466e-002  5.390625e-001
      vertex -7.445939e-001 -2.880466e-002 -7.187500e-001
      vertex -7.380100e-001 -4.196693e-002  5.390625e-001
    endloop
  endfacet
  facet normal -8.943545e-001 -4.473590e-001  -0.000000e+000
    outer loop
      vertex -7.380100e-001 -4.196693e-002  5.390625e-001
      vertex -7.445939e-001 -2.880466e-002 -7.187500e-001
      vertex -7.380100e-001 -4.196693e-002 -7.187500e-001
    endloop
  endfacet
  facet normal -7.964855e-001 -6.046575e-001  0.000000e+000
    outer loop
      vertex -7.380100e-001 -4.196693e-002  5.390625e-001
      vertex -7.380100e-001 -4.196693e-002 -7.187500e-001
      vertex -7.291113e-001 -5.368887e-002  5.390625e-001
    endloop
  endfacet
  facet normal -7.964855e-001 -6.046575e-001  -0.000000e+000
    outer loop
      vertex -7.291113e-001 -5.368887e-002  5.390625e-001
      vertex -7.380100e-001 -4.196693e-002 -7.187500e-001
      vertex -7.291113e-001 -5.368887e-002 -7.187500e-001
    endloop
  endfacet
  facet normal -6.712825e-001 -7.412016e-001  0.000000e+000
    outer loop
      vertex -7.291113e-001 -5.368887e-002  5.390625e-001
      vertex -7.291113e-001 -5.368887e-002 -7.187500e-001
      vertex -7.182029e-001 -6.356817e-002  5.390625e-001
    endloop
  endfacet
  facet normal -6.712825e-001 -7.412016e-001  -0.000000e+000
    outer loop
      vertex -7.182029e-001 -6.356817e-002  5.390625e-001
      vertex -7.291113e-001 -5.368887e-002 -7.187500e-001
      vertex -7.182029e-001 -6.356817e-002 -7.187500e-001
    endloop
  endfacet
  facet normal -5.230384e-001 -8.523091e-001  0.000000e+000
    outer loop
      vertex -7.182029e-001 -6.356817e-002  5.390625e-001
      vertex -7.182029e-001 -6.356817e-002 -7.187500e-001
      vertex -7.056594e-001 -7.126577e-002  5.390625e-001
    endloop
  endfacet
  facet normal -5.230384e-001 -8.523091e-001  -0.000000e+000
    outer loop
      vertex -7.056594e-001 -7.126577e-002  5.390625e-001
      vertex -7.182029e-001 -6.356817e-002 -7.187500e-001
      vertex -7.056594e-001 -7.126577e-002 -7.187500e-001
    endloop
  endfacet
  facet normal -3.568464e-001 -9.341631e-001  0.000000e+000
    outer loop
      vertex -7.056594e-001 -7.126577e-002  5.390625e-001
      vertex -7.056594e-001 -7.126577e-002 -7.187500e-001
      vertex -6.919113e-001 -7.651749e-002  5.390625e-001
    endloop
  endfacet
  facet normal -3.568464e-001 -9.341631e-001  -0.000000e+000
    outer loop
      vertex -6.919113e-001 -7.651749e-002  5.390625e-001
      vertex -7.056594e-001 -7.126577e-002 -7.187500e-001
      vertex -6.919113e-001 -7.651749e-002 -7.187500e-001
    endloop
  endfacet
  facet normal -1.924356e-001 -9.813096e-001  0.000000e+000
    outer loop
      vertex -6.919113e-001 -7.651749e-002  5.390625e-001
      vertex -6.919113e-001 -7.651749e-002 -7.187500e-001
      vertex -6.796875e-001 -7.891460e-002  4.609375e-001
    endloop
  endfacet
  facet normal -1.924356e-001 -9.813096e-001  -0.000000e+000
    outer loop
      vertex -6.796875e-001 -7.891460e-002  4.609375e-001
      vertex -6.919113e-001 -7.651749e-002 -7.187500e-001
      vertex -6.796875e-001 -7.891460e-002 -5.705592e-001
    endloop
  endfacet
  facet normal -2.696574e-002 -9.996364e-001  0.000000e+000
    outer loop
      vertex -6.796875e-001 -7.891460e-002  4.609375e-001
      vertex -6.796875e-001 -7.891460e-002 -5.705592e-001
      vertex -6.656986e-001 -7.929195e-002  4.609375e-001
    endloop
  endfacet
  facet normal -2.361185e-002 -9.997212e-001 -4.551557e-005
    outer loop
      vertex -6.656986e-001 -7.929195e-002  4.609375e-001
      vertex -6.796875e-001 -7.891460e-002 -5.705592e-001
      vertex -6.651667e-001 -7.925756e-002 -5.705592e-001
    endloop
  endfacet
  facet normal  1.488592e-001 -9.888583e-001  4.378485e-005
    outer loop
      vertex -6.656986e-001 -7.929195e-002  4.609375e-001
      vertex -6.651667e-001 -7.925756e-002 -5.705592e-001
      vertex -6.518607e-001 -7.720883e-002  4.609375e-001
    endloop
  endfacet
  facet normal  1.588045e-001 -9.873101e-001 -8.758227e-005
    outer loop
      vertex -6.518607e-001 -7.720883e-002  4.609375e-001
      vertex -6.651667e-001 -7.925756e-002 -5.705592e-001
      vertex -6.508262e-001 -7.695094e-002 -5.705592e-001
    endloop
  endfacet
  facet normal  3.200661e-001 -9.473953e-001  8.411839e-005
    outer loop
      vertex -6.518607e-001 -7.720883e-002  4.609375e-001
      vertex -6.508262e-001 -7.695094e-002 -5.705592e-001
      vertex -6.386029e-001 -7.272986e-002  4.609375e-001
    endloop
  endfacet
  facet normal  3.359130e-001 -9.418930e-001 -1.261849e-004
    outer loop
      vertex -6.386029e-001 -7.272986e-002  4.609375e-001
      vertex -6.508262e-001 -7.695094e-002 -5.705592e-001
      vertex -6.371454e-001 -7.207187e-002 -5.705592e-001
    endloop
  endfacet
  facet normal  4.813391e-001 -8.765345e-001  1.209953e-004
    outer loop
      vertex -6.386029e-001 -7.272986e-002  4.609375e-001
      vertex -6.371454e-001 -7.207187e-002 -5.705592e-001
      vertex -6.263368e-001 -6.599404e-002  4.609375e-001
    endloop
  endfacet
  facet normal  5.017902e-001 -8.649893e-001 -1.613308e-004
    outer loop
      vertex -6.263368e-001 -6.599404e-002  4.609375e-001
      vertex -6.371454e-001 -7.207187e-002 -5.705592e-001
      vertex -6.245816e-001 -6.478345e-002 -5.705592e-001
    endloop
  endfacet
  facet normal  6.276779e-001 -7.784733e-001  1.544145e-004
    outer loop
      vertex -6.263368e-001 -6.599404e-002  4.609375e-001
      vertex -6.245816e-001 -6.478345e-002 -5.705592e-001
      vertex -6.154429e-001 -5.721037e-002  4.609375e-001
    endloop
  endfacet
  facet normal  9.960952e-001 -8.764138e-002  1.064289e-002
    outer loop
      vertex -5.911245e-001  1.563892e-016  5.310033e-001
      vertex -5.911245e-001  9.786835e-004  5.390625e-001
      vertex -5.923509e-001 -1.393904e-002  5.310033e-001
    endloop
  endfacet
  facet normal  9.967622e-001 -8.035237e-002 -2.950680e-003
    outer loop
      vertex -5.923509e-001 -1.393904e-002  5.310033e-001
      vertex -5.911245e-001  9.786835e-004  5.390625e-001
      vertex -5.923070e-001 -1.369079e-002  5.390625e-001
    endloop
  endfacet
  facet normal  9.635725e-001 -2.674303e-001  2.992418e-003
    outer loop
      vertex -5.923509e-001 -1.393904e-002  5.310033e-001
      vertex -5.923070e-001 -1.369079e-002  5.390625e-001
      vertex -5.963538e-001 -2.836190e-002  5.310033e-001
    endloop
  endfacet
  facet normal  9.648213e-001 -2.628385e-001 -5.993767e-003
    outer loop
      vertex -5.963538e-001 -2.836190e-002  5.310033e-001
      vertex -5.923070e-001 -1.369079e-002  5.390625e-001
      vertex -5.961753e-001 -2.789039e-002  5.390625e-001
    endloop
  endfacet
  facet normal  8.962923e-001 -4.434217e-001  6.089351e-003
    outer loop
      vertex -5.963538e-001 -2.836190e-002  5.310033e-001
      vertex -5.961753e-001 -2.789039e-002  5.390625e-001
      vertex -6.029911e-001 -4.177789e-002  5.310033e-001
    endloop
  endfacet
  facet normal  8.997605e-001 -4.362883e-001 -9.135977e-003
    outer loop
      vertex -6.029911e-001 -4.177789e-002  5.310033e-001
      vertex -5.961753e-001 -2.789039e-002  5.390625e-001
      vertex -6.025965e-001 -4.113277e-002  5.390625e-001
    endloop
  endfacet
  facet normal  7.971847e-001 -6.036640e-001  9.284816e-003
    outer loop
      vertex -6.029911e-001 -4.177789e-002  5.310033e-001
      vertex -6.025965e-001 -4.113277e-002  5.390625e-001
      vertex -6.120272e-001 -5.371070e-002  5.310033e-001
    endloop
  endfacet
  facet normal  8.038124e-001 -5.947542e-001 -1.237634e-002
    outer loop
      vertex -6.120272e-001 -5.371070e-002  5.310033e-001
      vertex -6.025965e-001 -4.113277e-002  5.390625e-001
      vertex -6.113502e-001 -5.296345e-002  5.390625e-001
    endloop
  endfacet
  facet normal  6.803237e-001 -7.328322e-001  1.079955e-002
    outer loop
      vertex -6.120272e-001 -5.371070e-002  5.310033e-001
      vertex -6.113502e-001 -5.296345e-002  5.390625e-001
      vertex -6.221359e-001 -6.297640e-002  5.390625e-001
    endloop
  endfacet
  facet normal  0.000000e+000  -0.000000e+000  1.000000e+000
    outer loop
      vertex -6.796875e-001 -3.671875e-001 -5.705592e-001
      vertex  4.296875e-001 -3.671875e-001 -5.705592e-001
      vertex  4.296875e-001 -3.125000e-002 -5.705592e-001
    endloop
  endfacet
  facet normal  0.000000e+000  0.000000e+000  1.000000e+000
    outer loop
      vertex -6.796875e-001 -3.671875e-001 -5.705592e-001
      vertex  4.296875e-001 -3.125000e-002 -5.705592e-001
      vertex -5.975231e-001 -3.125000e-002 -5.705592e-001
    endloop
  endfacet
  facet normal  0.000000e+000  0.000000e+000  1.000000e+000
    outer loop
      vertex -6.796875e-001 -3.671875e-001 -5.705592e-001
      vertex -5.975231e-001 -3.125000e-002 -5.705592e-001
      vertex -6.044337e-001 -4.402555e-002 -5.705592e-001
    endloop
  endfacet
  facet normal  0.000000e+000  0.000000e+000  1.000000e+000
    outer loop
      vertex -6.796875e-001 -3.671875e-001 -5.705592e-001
      vertex -6.044337e-001 -4.402555e-002 -5.705592e-001
      vertex -6.135548e-001 -5.532933e-002 -5.705592e-001
    endloop
  endfacet
  facet normal  0.000000e+000  0.000000e+000  1.000000e+000
    outer loop
      vertex -6.796875e-001 -3.671875e-001 -5.705592e-001
      vertex -6.135548e-001 -5.532933e-002 -5.705592e-001
      vertex -6.245816e-001 -6.478345e-002 -5.705592e-001
    endloop
  endfacet
  facet normal  0.000000e+000  0.000000e+000  9.999999e-001
    outer loop
      vertex -6.796875e-001 -3.671875e-001 -5.705592e-001
      vertex -6.245816e-001 -6.478345e-002 -5.705592e-001
      vertex -6.371454e-001 -7.207187e-002 -5.705592e-001
    endloop
  endfacet
  facet normal  0.000000e+000  0.000000e+000  9.999999e-001
    outer loop
      vertex -6.796875e-001 -3.671875e-001 -5.705592e-001
      vertex -6.371454e-001 -7.207187e-002 -5.705592e-001
      vertex -6.508262e-001 -7.695094e-002 -5.705592e-001
    endloop
  endfacet
  facet normal  0.000000e+000  0.000000e+000  1.000000e+000
    outer loop
      vertex -6.796875e-001 -3.671875e-001 -5.705592e-001
      vertex -6.508262e-001 -7.695094e-002 -5.705592e-001
      vertex -6.651667e-001 -7.925756e-002 -5.705592e-001
    endloop
  endfacet
  facet normal  0.000000e+000  0.000000e+000  1.000000e+000
    outer loop
      vertex -6.796875e-001 -3.671875e-001 -5.705592e-001
      vertex -6.651667e-001 -7.925756e-002 -5.705592e-001
      vertex -6.796875e-001 -7.891460e-002 -5.705592e-001
    endloop
  endfacet
  facet normal -9.598085e-002  9.907448e-001  9.598082e-002
    outer loop
      vertex  4.296875e-001  2.617972e-016  4.596217e-001
      vertex  4.296875e-001 -5.946911e-004  4.657603e-001
      vertex  5.091283e-001  2.794366e-016  5.390625e-001
    endloop
  endfacet
  facet normal  8.642928e-002  9.914608e-001 -9.764990e-002
    outer loop
      vertex  4.296875e-001  2.628106e-016  4.687500e-001
      vertex  5.091283e-001  2.794366e-016  5.390625e-001
      vertex  4.296875e-001 -1.501150e-004  4.672258e-001
    endloop
  endfacet
  facet normal  2.522612e-001  9.259915e-001 -2.808988e-001
    outer loop
      vertex  4.296875e-001 -1.501150e-004  4.672258e-001
      vertex  5.091283e-001  2.794366e-016  5.390625e-001
      vertex  4.296875e-001 -5.946911e-004  4.657603e-001
    endloop
  endfacet
  facet normal -1.110223e-016  1.000000e+000 -1.110222e-016
    outer loop
      vertex -6.705592e-001  1.397913e-016  4.609375e-001
      vertex -7.500000e-001  1.396452e-016  5.390625e-001
      vertex -6.705592e-001  1.475702e-016  5.310033e-001
    endloop
  endfacet
  facet normal -1.110224e-016  1.000000e+000 -1.110231e-016
    outer loop
      vertex -7.500000e-001  1.396452e-016  5.390625e-001
      vertex -6.705592e-001  1.484649e-016  5.390625e-001
      vertex -6.705592e-001  1.475702e-016  5.310033e-001
    endloop
  endfacet
  facet normal -1.110223e-016  1.000000e+000 -1.110219e-016
    outer loop
      vertex -5.911184e-001  3.235716e-017 -5.861842e-001
      vertex  4.296875e-001  1.396452e-016 -6.406250e-001
      vertex -5.911245e-001  2.631235e-017 -6.406250e-001
    endloop
  endfacet
  facet normal -1.110224e-016  1.000000e+000 -1.110223e-016
    outer loop
      vertex  5.091283e-001  1.397913e-016 -7.187500e-001
      vertex  4.296875e-001  1.309716e-016 -7.187500e-001
      vertex  4.296875e-001  1.396452e-016 -6.406250e-001
    endloop
  endfacet
  facet normal  1.727989e-017  1.000000e+000  2.294740e-015
    outer loop
      vertex  4.296875e-001  1.471776e-017 -5.861842e-001
      vertex  4.296875e-001  1.396452e-016 -6.406250e-001
      vertex -5.911184e-001  3.235716e-017 -5.861842e-001
    endloop
  endfacet
  facet normal -1.110224e-016  9.999999e-001 -1.110223e-016
    outer loop
      vertex  5.091283e-001  2.794366e-016  5.390625e-001
      vertex  5.091283e-001  1.397913e-016 -7.187500e-001
      vertex  4.296875e-001  1.396452e-016 -6.406250e-001
    endloop
  endfacet
  facet normal -3.583635e-014  1.000000e+000  2.294740e-015
    outer loop
      vertex  5.091283e-001  2.794366e-016  5.390625e-001
      vertex  4.296875e-001  1.396452e-016 -6.406250e-001
      vertex  4.296875e-001  1.471776e-017 -5.861842e-001
    endloop
  endfacet
  facet normal  1.421282e-017  1.000000e+000 -2.362574e-016
    outer loop
      vertex  5.091283e-001  2.794366e-016  5.390625e-001
      vertex  4.296875e-001  1.471776e-017 -5.861842e-001
      vertex  4.296875e-001  2.617972e-016  4.596217e-001
    endloop
  endfacet
  facet normal -1.110224e-016  9.999999e-001 -1.110223e-016
    outer loop
      vertex -7.500000e-001  0.000000e+000 -7.187500e-001
      vertex -7.500000e-001  1.396452e-016  5.390625e-001
      vertex -6.705592e-001  1.397913e-016  4.609375e-001
    endloop
  endfacet
  facet normal -1.109850e-016  1.000000e+000 -1.110248e-016
    outer loop
      vertex -7.500000e-001  0.000000e+000 -7.187500e-001
      vertex -6.705592e-001  1.397913e-016  4.609375e-001
      vertex -6.705592e-001  1.396452e-016  4.596217e-001
    endloop
  endfacet
  facet normal -1.110224e-016  1.000000e+000 -1.110223e-016
    outer loop
      vertex -7.500000e-001  0.000000e+000 -7.187500e-001
      vertex -6.705592e-001  1.396452e-016  4.596217e-001
      vertex -6.705592e-001  2.527218e-017 -5.705592e-001
    endloop
  endfacet
  facet normal -1.110223e-016  1.000000e+000 -1.110223e-016
    outer loop
      vertex -6.705592e-001  1.749332e-017 -6.406250e-001
      vertex -6.705592e-001  8.819699e-018 -7.187500e-001
      vertex -7.500000e-001  0.000000e+000 -7.187500e-001
    endloop
  endfacet
  facet normal -1.110223e-016  1.000000e+000 -1.110223e-016
    outer loop
      vertex -6.705592e-001  1.749332e-017 -6.406250e-001
      vertex -7.500000e-001  0.000000e+000 -7.187500e-001
      vertex -6.705592e-001  2.527218e-017 -5.705592e-001
    endloop
  endfacet
  facet normal -1.110223e-016  1.000000e+000 -1.110223e-016
    outer loop
      vertex -6.705592e-001  1.749332e-017 -6.406250e-001
      vertex -6.705592e-001  2.527218e-017 -5.705592e-001
      vertex -5.911245e-001  3.409121e-017 -5.705592e-001
    endloop
  endfacet
  facet normal -1.110219e-016  1.000000e+000 -1.110227e-016
    outer loop
      vertex -6.705592e-001  1.749332e-017 -6.406250e-001
      vertex -5.911245e-001  3.409121e-017 -5.705592e-001
      vertex -5.911184e-001  3.235716e-017 -5.861842e-001
    endloop
  endfacet
  facet normal -1.110223e-016  1.000000e+000 -1.110222e-016
    outer loop
      vertex -6.705592e-001  1.749332e-017 -6.406250e-001
      vertex -5.911184e-001  3.235716e-017 -5.861842e-001
      vertex -5.911245e-001  2.631235e-017 -6.406250e-001
    endloop
  endfacet
  facet normal -1.110225e-016  1.000000e+000 -1.110222e-016
    outer loop
      vertex  5.091283e-001  2.794366e-016  5.390625e-001
      vertex  4.296875e-001  2.628106e-016  4.687500e-001
      vertex  4.296875e-001  2.697221e-016  5.310033e-001
    endloop
  endfacet
  facet normal -1.110224e-016  1.000000e+000 -1.110231e-016
    outer loop
      vertex  5.091283e-001  2.794366e-016  5.390625e-001
      vertex  4.296875e-001  2.697221e-016  5.310033e-001
      vertex  4.296875e-001  2.706169e-016  5.390625e-001
    endloop
  endfacet
  facet normal -1.110223e-016  1.000000e+000 -1.110222e-016
    outer loop
      vertex -5.911245e-001  1.563892e-016  5.310033e-001
      vertex  4.296875e-001  2.697221e-016  5.310033e-001
      vertex -5.911245e-001  1.494777e-016  4.687500e-001
    endloop
  endfacet
  facet normal -1.110223e-016  1.000000e+000 -1.110222e-016
    outer loop
      vertex -5.911245e-001  1.494777e-016  4.687500e-001
      vertex  4.296875e-001  2.697221e-016  5.310033e-001
      vertex  4.296875e-001  2.628106e-016  4.687500e-001
    endloop
  endfacet
  facet normal  1.000000e+000  0.000000e+000  0.000000e+000
    outer loop
      vertex  5.091283e-001 -3.671875e-001 -7.187500e-001
      vertex  5.091283e-001  1.397913e-016 -7.187500e-001
      vertex  5.091283e-001 -3.671875e-001  5.390625e-001
    endloop
  endfacet
  facet normal  1.000000e+000  -0.000000e+000  0.000000e+000
    outer loop
      vertex  5.091283e-001 -3.671875e-001  5.390625e-001
      vertex  5.091283e-001  1.397913e-016 -7.187500e-001
      vertex  5.091283e-001  2.794366e-016  5.390625e-001
    endloop
  endfacet
  facet normal -1.194234e-001  9.810797e-001 -1.523834e-001
    outer loop
      vertex -5.911193e-001 -3.668388e-004  4.663841e-001
      vertex -6.705592e-001  1.475702e-016  5.310033e-001
      vertex -5.911245e-001  1.494777e-016  4.687500e-001
    endloop
  endfacet
  facet normal  1.955705e-001  9.521121e-001  2.350207e-001
    outer loop
      vertex -6.705592e-001  1.475702e-016  5.310033e-001
      vertex -5.911193e-001 -3.668388e-004  4.663841e-001
      vertex -5.911245e-001  9.786835e-004  4.609375e-001
    endloop
  endfacet
  facet normal -1.231966e-002  9.999241e-001 -1.110138e-016
    outer loop
      vertex -6.705592e-001  1.397913e-016  4.609375e-001
      vertex -6.705592e-001  1.475702e-016  5.310033e-001
      vertex -5.911245e-001  9.786835e-004  4.609375e-001
    endloop
  endfacet
  facet normal -1.231966e-002  9.999241e-001 -1.110147e-016
    outer loop
      vertex -6.705592e-001  1.475702e-016  5.310033e-001
      vertex -6.705592e-001  1.484649e-016  5.390625e-001
      vertex -5.911245e-001  9.786835e-004  5.390625e-001
    endloop
  endfacet
  facet normal  0.000000e+000  9.927071e-001 -1.205511e-001
    outer loop
      vertex -6.705592e-001  1.475702e-016  5.310033e-001
      vertex -5.911245e-001  9.786835e-004  5.390625e-001
      vertex -5.911245e-001  1.563892e-016  5.310033e-001
    endloop
  endfacet
  facet normal -1.110223e-016  9.999999e-001 -1.110222e-016
    outer loop
      vertex -6.705592e-001  1.475702e-016  5.310033e-001
      vertex -5.911245e-001  1.563892e-016  5.310033e-001
      vertex -5.911245e-001  1.494777e-016  4.687500e-001
    endloop
  endfacet
  facet normal -1.110223e-016  9.999995e-001 -9.487990e-004
    outer loop
      vertex -5.911245e-001  3.409121e-017 -5.705592e-001
      vertex -6.705592e-001  2.527218e-017 -5.705592e-001
      vertex -5.911245e-001  9.786835e-004  4.609375e-001
    endloop
  endfacet
  facet normal -1.231966e-002  9.999241e-001  0.000000e+000
    outer loop
      vertex -5.911245e-001  9.786835e-004  4.609375e-001
      vertex -6.705592e-001  2.527218e-017 -5.705592e-001
      vertex -6.705592e-001  1.396452e-016  4.596217e-001
    endloop
  endfacet
  facet normal -1.231966e-002  9.999241e-001 -1.110164e-016
    outer loop
      vertex -5.911245e-001  9.786835e-004  4.609375e-001
      vertex -6.705592e-001  1.396452e-016  4.596217e-001
      vertex -6.705592e-001  1.397913e-016  4.609375e-001
    endloop
  endfacet
  facet normal  7.727795e-018  4.472136e-001  8.944272e-001
    outer loop
      vertex  4.296875e-001 -3.125000e-002 -5.705592e-001
      vertex  4.296875e-001  1.471776e-017 -5.861842e-001
      vertex -5.911184e-001  3.235716e-017 -5.861842e-001
    endloop
  endfacet
  facet normal -5.773826e-008  4.472121e-001  8.944280e-001
    outer loop
      vertex  4.296875e-001 -3.125000e-002 -5.705592e-001
      vertex -5.911184e-001  3.235716e-017 -5.861842e-001
      vertex -5.923796e-001 -1.409453e-002 -5.791370e-001
    endloop
  endfacet
  facet normal -2.468790e-008  4.472137e-001  8.944272e-001
    outer loop
      vertex  4.296875e-001 -3.125000e-002 -5.705592e-001
      vertex -5.923796e-001 -1.409453e-002 -5.791370e-001
      vertex -5.951402e-001 -2.495628e-002 -5.737061e-001
    endloop
  endfacet
  facet normal  0.000000e+000  4.472168e-001  8.944255e-001
    outer loop
      vertex  4.296875e-001 -3.125000e-002 -5.705592e-001
      vertex -5.951402e-001 -2.495628e-002 -5.737061e-001
      vertex -5.975231e-001 -3.125000e-002 -5.705592e-001
    endloop
  endfacet
  facet normal  0.000000e+000  0.000000e+000 -1.000000e+000
    outer loop
      vertex  4.296875e-001  1.309716e-016 -7.187500e-001
      vertex  5.091283e-001  1.397913e-016 -7.187500e-001
      vertex  4.296875e-001 -3.671875e-001 -7.187500e-001
    endloop
  endfacet
  facet normal  0.000000e+000  0.000000e+000 -1.000000e+000
    outer loop
      vertex  4.296875e-001 -3.671875e-001 -7.187500e-001
      vertex  5.091283e-001  1.397913e-016 -7.187500e-001
      vertex  5.091283e-001 -3.671875e-001 -7.187500e-001
    endloop
  endfacet
  facet normal -1.000000e+000  0.000000e+000  0.000000e+000
    outer loop
      vertex -6.796875e-001 -7.891460e-002 -5.705592e-001
      vertex -6.796875e-001 -7.891460e-002 -6.406250e-001
      vertex -6.796875e-001 -3.671875e-001 -5.705592e-001
    endloop
  endfacet
  facet normal -1.000000e+000  0.000000e+000  0.000000e+000
    outer loop
      vertex -6.796875e-001 -3.671875e-001 -5.705592e-001
      vertex -6.796875e-001 -7.891460e-002 -6.406250e-001
      vertex -6.796875e-001 -3.437500e-001 -6.406250e-001
    endloop
  endfacet
  facet normal -1.000000e+000  0.000000e+000  0.000000e+000
    outer loop
      vertex -6.796875e-001 -3.671875e-001 -5.705592e-001
      vertex -6.796875e-001 -3.437500e-001 -6.406250e-001
      vertex -6.796875e-001 -3.671875e-001 -6.171875e-001
    endloop
  endfacet
  facet normal  0.000000e+000  0.000000e+000 -1.000000e+000
    outer loop
      vertex -6.796875e-001 -3.437500e-001 -6.406250e-001
      vertex -6.796875e-001 -7.891460e-002 -6.406250e-001
      vertex -6.648312e-001 -7.923401e-002 -6.406250e-001
    endloop
  endfacet
  facet normal  0.000000e+000  0.000000e+000 -1.000000e+000
    outer loop
      vertex  4.296875e-001  1.396452e-016 -6.406250e-001
      vertex -6.123962e-001 -5.411006e-002 -6.406250e-001
      vertex -6.033365e-001 -4.233143e-002 -6.406250e-001
    endloop
  endfacet
  facet normal  0.000000e+000  0.000000e+000 -1.000000e+000
    outer loop
      vertex  4.296875e-001  1.396452e-016 -6.406250e-001
      vertex -6.033365e-001 -4.233143e-002 -6.406250e-001
      vertex -5.966290e-001 -2.907164e-002 -6.406250e-001
    endloop
  endfacet
  facet normal  0.000000e+000  0.000000e+000 -1.000000e+000
    outer loop
      vertex  4.296875e-001  1.396452e-016 -6.406250e-001
      vertex -5.966290e-001 -2.907164e-002 -6.406250e-001
      vertex -5.925082e-001 -1.479465e-002 -6.406250e-001
    endloop
  endfacet
  facet normal  0.000000e+000  0.000000e+000 -1.000000e+000
    outer loop
      vertex  4.296875e-001  1.396452e-016 -6.406250e-001
      vertex -5.925082e-001 -1.479465e-002 -6.406250e-001
      vertex -5.911245e-001  2.631235e-017 -6.406250e-001
    endloop
  endfacet
  facet normal  0.000000e+000  0.000000e+000 -1.000000e+000
    outer loop
      vertex  4.296875e-001 -3.437500e-001 -6.406250e-001
      vertex -6.796875e-001 -3.437500e-001 -6.406250e-001
      vertex -6.648312e-001 -7.923401e-002 -6.406250e-001
    endloop
  endfacet
  facet normal  0.000000e+000  0.000000e+000 -1.000000e+000
    outer loop
      vertex  4.296875e-001 -3.437500e-001 -6.406250e-001
      vertex -6.648312e-001 -7.923401e-002 -6.406250e-001
      vertex -6.501752e-001 -7.678106e-002 -6.406250e-001
    endloop
  endfacet
  facet normal  0.000000e+000  0.000000e+000 -1.000000e+000
    outer loop
      vertex  4.296875e-001 -3.437500e-001 -6.406250e-001
      vertex -6.501752e-001 -7.678106e-002 -6.406250e-001
      vertex -6.362325e-001 -7.164159e-002 -6.406250e-001
    endloop
  endfacet
  facet normal  0.000000e+000  0.000000e+000 -1.000000e+000
    outer loop
      vertex  4.296875e-001 -3.437500e-001 -6.406250e-001
      vertex -6.362325e-001 -7.164159e-002 -6.406250e-001
      vertex -6.234909e-001 -6.399541e-002 -6.406250e-001
    endloop
  endfacet
  facet normal  0.000000e+000  0.000000e+000 -1.000000e+000
    outer loop
      vertex  4.296875e-001 -3.437500e-001 -6.406250e-001
      vertex -6.234909e-001 -6.399541e-002 -6.406250e-001
      vertex -6.123962e-001 -5.411006e-002 -6.406250e-001
    endloop
  endfacet
  facet normal  0.000000e+000  0.000000e+000 -1.000000e+000
    outer loop
      vertex  4.296875e-001 -3.437500e-001 -6.406250e-001
      vertex -6.123962e-001 -5.411006e-002 -6.406250e-001
      vertex  4.296875e-001  1.396452e-016 -6.406250e-001
    endloop
  endfacet
  facet normal  0.000000e+000 -1.000000e+000  0.000000e+000
    outer loop
      vertex  5.091283e-001 -3.671875e-001 -7.187500e-001
      vertex  4.296875e-001 -3.671875e-001 -6.171875e-001
      vertex  4.296875e-001 -3.671875e-001 -7.187500e-001
    endloop
  endfacet
  facet normal  0.000000e+000 -1.000000e+000  0.000000e+000
    outer loop
      vertex  5.091283e-001 -3.671875e-001  5.390625e-001
      vertex  4.296875e-001 -3.671875e-001  5.390625e-001
      vertex  4.296875e-001 -3.671875e-001  5.310033e-001
    endloop
  endfacet
  facet normal  0.000000e+000 -1.000000e+000  0.000000e+000
    outer loop
      vertex  5.091283e-001 -3.671875e-001  5.390625e-001
      vertex  4.296875e-001 -3.671875e-001  5.310033e-001
      vertex  4.296875e-001 -3.671875e-001  4.609375e-001
    endloop
  endfacet
  facet normal  0.000000e+000 -1.000000e+000  0.000000e+000
    outer loop
      vertex  5.091283e-001 -3.671875e-001  5.390625e-001
      vertex  4.296875e-001 -3.671875e-001  4.609375e-001
      vertex  4.296875e-001 -3.671875e-001  4.596217e-001
    endloop
  endfacet
  facet normal  0.000000e+000 -1.000000e+000  0.000000e+000
    outer loop
      vertex  5.091283e-001 -3.671875e-001  5.390625e-001
      vertex  4.296875e-001 -3.671875e-001  4.596217e-001
      vertex  4.296875e-001 -3.671875e-001 -5.705592e-001
    endloop
  endfacet
  facet normal  0.000000e+000 -9.999999e-001  0.000000e+000
    outer loop
      vertex  5.091283e-001 -3.671875e-001  5.390625e-001
      vertex  4.296875e-001 -3.671875e-001 -5.705592e-001
      vertex  4.296875e-001 -3.671875e-001 -6.171875e-001
    endloop
  endfacet
  facet normal  0.000000e+000 -9.999999e-001  0.000000e+000
    outer loop
      vertex  5.091283e-001 -3.671875e-001  5.390625e-001
      vertex  4.296875e-001 -3.671875e-001 -6.171875e-001
      vertex  5.091283e-001 -3.671875e-001 -7.187500e-001
    endloop
  endfacet
  facet normal  0.000000e+000 -1.000000e+000  0.000000e+000
    outer loop
      vertex -6.796875e-001 -3.671875e-001 -5.705592e-001
      vertex -6.796875e-001 -3.671875e-001 -6.171875e-001
      vertex  4.296875e-001 -3.671875e-001 -5.705592e-001
    endloop
  endfacet
  facet normal  0.000000e+000 -1.000000e+000  -0.000000e+000
    outer loop
      vertex  4.296875e-001 -3.671875e-001 -5.705592e-001
      vertex -6.796875e-001 -3.671875e-001 -6.171875e-001
      vertex  4.296875e-001 -3.671875e-001 -6.171875e-001
    endloop
  endfacet
  facet normal  0.000000e+000 -1.000000e+000  0.000000e+000
    outer loop
      vertex -6.796875e-001 -3.671875e-001  5.310033e-001
      vertex -6.796875e-001 -3.671875e-001  4.609375e-001
      vertex  4.296875e-001 -3.671875e-001  5.310033e-001
    endloop
  endfacet
  facet normal  0.000000e+000 -1.000000e+000  -0.000000e+000
    outer loop
      vertex  4.296875e-001 -3.671875e-001  5.310033e-001
      vertex -6.796875e-001 -3.671875e-001  4.609375e-001
      vertex  4.296875e-001 -3.671875e-001  4.609375e-001
    endloop
  endfacet
  facet normal -9.999999e-001  -0.000000e+000  0.000000e+000
    outer loop
      vertex  4.296875e-001 -3.437500e-001 -6.406250e-001
      vertex  4.296875e-001  1.396452e-016 -6.406250e-001
      vertex  4.296875e-001  1.309716e-016 -7.187500e-001
    endloop
  endfacet
  facet normal -9.999999e-001  0.000000e+000  0.000000e+000
    outer loop
      vertex  4.296875e-001 -3.437500e-001 -6.406250e-001
      vertex  4.296875e-001  1.309716e-016 -7.187500e-001
      vertex  4.296875e-001 -3.671875e-001 -7.187500e-001
    endloop
  endfacet
  facet normal -1.000000e+000  0.000000e+000  0.000000e+000
    outer loop
      vertex  4.296875e-001 -3.437500e-001 -6.406250e-001
      vertex  4.296875e-001 -3.671875e-001 -7.187500e-001
      vertex  4.296875e-001 -3.671875e-001 -6.171875e-001
    endloop
  endfacet
  facet normal  0.000000e+000 -7.071068e-001 -7.071068e-001
    outer loop
      vertex -6.796875e-001 -3.671875e-001 -6.171875e-001
      vertex -6.796875e-001 -3.437500e-001 -6.406250e-001
      vertex  4.296875e-001 -3.671875e-001 -6.171875e-001
    endloop
  endfacet
  facet normal  0.000000e+000 -7.071068e-001 -7.071068e-001
    outer loop
      vertex  4.296875e-001 -3.671875e-001 -6.171875e-001
      vertex -6.796875e-001 -3.437500e-001 -6.406250e-001
      vertex  4.296875e-001 -3.437500e-001 -6.406250e-001
    endloop
  endfacet
  facet normal  -0.000000e+000  0.000000e+000  1.000000e+000
    outer loop
      vertex  5.091283e-001  2.794366e-016  5.390625e-001
      vertex  4.296875e-001  2.706169e-016  5.390625e-001
      vertex  5.091283e-001 -3.671875e-001  5.390625e-001
    endloop
  endfacet
  facet normal  0.000000e+000  0.000000e+000  1.000000e+000
    outer loop
      vertex  5.091283e-001 -3.671875e-001  5.390625e-001
      vertex  4.296875e-001  2.706169e-016  5.390625e-001
      vertex  4.296875e-001 -3.671875e-001  5.390625e-001
    endloop
  endfacet
  facet normal -1.000000e+000  -0.000000e+000  0.000000e+000
    outer loop
      vertex  4.296875e-001 -3.671875e-001  5.390625e-001
      vertex  4.296875e-001  2.706169e-016  5.390625e-001
      vertex  4.296875e-001 -3.671875e-001  5.310033e-001
    endloop
  endfacet
  facet normal -1.000000e+000  0.000000e+000  0.000000e+000
    outer loop
      vertex  4.296875e-001 -3.671875e-001  5.310033e-001
      vertex  4.296875e-001  2.706169e-016  5.390625e-001
      vertex  4.296875e-001  2.697221e-016  5.310033e-001
    endloop
  endfacet
  facet normal  0.000000e+000  0.000000e+000  1.000000e+000
    outer loop
      vertex  4.296875e-001 -3.671875e-001  5.310033e-001
      vertex  4.296875e-001  2.697221e-016  5.310033e-001
      vertex -5.911245e-001  1.563892e-016  5.310033e-001
    endloop
  endfacet
  facet normal  0.000000e+000  0.000000e+000  1.000000e+000
    outer loop
      vertex  4.296875e-001 -3.671875e-001  5.310033e-001
      vertex -5.911245e-001  1.563892e-016  5.310033e-001
      vertex -5.923509e-001 -1.393904e-002  5.310033e-001
    endloop
  endfacet
  facet normal  0.000000e+000  0.000000e+000  1.000000e+000
    outer loop
      vertex  4.296875e-001 -3.671875e-001  5.310033e-001
      vertex -5.923509e-001 -1.393904e-002  5.310033e-001
      vertex -5.963538e-001 -2.836190e-002  5.310033e-001
    endloop
  endfacet
  facet normal  0.000000e+000  0.000000e+000  1.000000e+000
    outer loop
      vertex  4.296875e-001 -3.671875e-001  5.310033e-001
      vertex -5.963538e-001 -2.836190e-002  5.310033e-001
      vertex -6.029911e-001 -4.177789e-002  5.310033e-001
    endloop
  endfacet
  facet normal  0.000000e+000  0.000000e+000  1.000000e+000
    outer loop
      vertex  4.296875e-001 -3.671875e-001  5.310033e-001
      vertex -6.029911e-001 -4.177789e-002  5.310033e-001
      vertex -6.120272e-001 -5.371070e-002  5.310033e-001
    endloop
  endfacet
  facet normal  0.000000e+000  0.000000e+000  1.000000e+000
    outer loop
      vertex  4.296875e-001 -3.671875e-001  5.310033e-001
      vertex -6.120272e-001 -5.371070e-002  5.310033e-001
      vertex -6.231412e-001 -6.373673e-002  5.310033e-001
    endloop
  endfacet
  facet normal  0.000000e+000  0.000000e+000  1.000000e+000
    outer loop
      vertex  4.296875e-001 -3.671875e-001  5.310033e-001
      vertex -6.231412e-001 -6.373673e-002  5.310033e-001
      vertex -6.359386e-001 -7.150002e-002  5.310033e-001
    endloop
  endfacet
  facet normal  0.000000e+000  0.000000e+000  1.000000e+000
    outer loop
      vertex -6.796875e-001 -3.671875e-001  5.310033e-001
      vertex  4.296875e-001 -3.671875e-001  5.310033e-001
      vertex -6.359386e-001 -7.150002e-002  5.310033e-001
    endloop
  endfacet
  facet normal  0.000000e+000  0.000000e+000  1.000000e+000
    outer loop
      vertex -6.796875e-001 -3.671875e-001  5.310033e-001
      vertex -6.359386e-001 -7.150002e-002  5.310033e-001
      vertex -6.499651e-001 -7.672497e-002  5.310033e-001
    endloop
  endfacet
  facet normal  0.000000e+000  0.000000e+000  1.000000e+000
    outer loop
      vertex -6.796875e-001 -3.671875e-001  5.310033e-001
      vertex -6.499651e-001 -7.672497e-002  5.310033e-001
      vertex -6.647227e-001 -7.922609e-002  5.310033e-001
    endloop
  endfacet
  facet normal  0.000000e+000  0.000000e+000  1.000000e+000
    outer loop
      vertex -6.796875e-001 -3.671875e-001  5.310033e-001
      vertex -6.647227e-001 -7.922609e-002  5.310033e-001
      vertex -6.796875e-001 -7.891460e-002  5.310033e-001
    endloop
  endfacet
  facet normal  0.000000e+000  0.000000e+000 -1.000000e+000
    outer loop
      vertex -6.796875e-001 -3.671875e-001  4.609375e-001
      vertex -6.796875e-001 -7.891460e-002  4.609375e-001
      vertex -6.656986e-001 -7.929195e-002  4.609375e-001
    endloop
  endfacet
  facet normal  0.000000e+000  0.000000e+000 -1.000000e+000
    outer loop
      vertex  4.296875e-001 -7.812500e-003  4.609375e-001
      vertex -6.154429e-001 -5.721037e-002  4.609375e-001
      vertex -6.062593e-001 -4.665143e-002  4.609375e-001
    endloop
  endfacet
  facet normal  0.000000e+000  0.000000e+000 -1.000000e+000
    outer loop
      vertex  4.296875e-001 -7.812500e-003  4.609375e-001
      vertex -6.062593e-001 -4.665143e-002  4.609375e-001
      vertex -5.990710e-001 -3.464486e-002  4.609375e-001
    endloop
  endfacet
  facet normal  0.000000e+000  0.000000e+000 -1.000000e+000
    outer loop
      vertex  4.296875e-001 -7.812500e-003  4.609375e-001
      vertex -5.990710e-001 -3.464486e-002  4.609375e-001
      vertex -5.941010e-001 -2.156324e-002  4.609375e-001
    endloop
  endfacet
  facet normal  0.000000e+000  0.000000e+000 -1.000000e+000
    outer loop
      vertex  4.296875e-001 -7.812500e-003  4.609375e-001
      vertex -5.941010e-001 -2.156324e-002  4.609375e-001
      vertex -5.915035e-001 -7.812500e-003  4.609375e-001
    endloop
  endfacet
  facet normal  0.000000e+000  0.000000e+000 -1.000000e+000
    outer loop
      vertex  4.296875e-001 -3.671875e-001  4.609375e-001
      vertex -6.796875e-001 -3.671875e-001  4.609375e-001
      vertex -6.656986e-001 -7.929195e-002  4.609375e-001
    endloop
  endfacet
  facet normal  0.000000e+000  0.000000e+000 -1.000000e+000
    outer loop
      vertex  4.296875e-001 -3.671875e-001  4.609375e-001
      vertex -6.656986e-001 -7.929195e-002  4.609375e-001
      vertex -6.518607e-001 -7.720883e-002  4.609375e-001
    endloop
  endfacet
  facet normal  0.000000e+000  0.000000e+000 -1.000000e+000
    outer loop
      vertex  4.296875e-001 -3.671875e-001  4.609375e-001
      vertex -6.518607e-001 -7.720883e-002  4.609375e-001
      vertex -6.386029e-001 -7.272986e-002  4.609375e-001
    endloop
  endfacet
  facet normal  0.000000e+000  0.000000e+000 -1.000000e+000
    outer loop
      vertex  4.296875e-001 -3.671875e-001  4.609375e-001
      vertex -6.386029e-001 -7.272986e-002  4.609375e-001
      vertex -6.263368e-001 -6.599404e-002  4.609375e-001
    endloop
  endfacet
  facet normal  0.000000e+000  0.000000e+000 -1.000000e+000
    outer loop
      vertex  4.296875e-001 -3.671875e-001  4.609375e-001
      vertex -6.263368e-001 -6.599404e-002  4.609375e-001
      vertex -6.154429e-001 -5.721037e-002  4.609375e-001
    endloop
  endfacet
  facet normal  0.000000e+000  0.000000e+000 -1.000000e+000
    outer loop
      vertex  4.296875e-001 -3.671875e-001  4.609375e-001
      vertex -6.154429e-001 -5.721037e-002  4.609375e-001
      vertex  4.296875e-001 -7.812500e-003  4.609375e-001
    endloop
  endfacet
  facet normal -8.345793e-005  9.881914e-001 -1.532245e-001
    outer loop
      vertex -5.911245e-001  1.494777e-016  4.687500e-001
      vertex  4.296875e-001 -1.501150e-004  4.672258e-001
      vertex -5.911193e-001 -3.668388e-004  4.663841e-001
    endloop
  endfacet
  facet normal -1.104877e-016  9.951848e-001 -9.801669e-002
    outer loop
      vertex -5.911245e-001  1.494777e-016  4.687500e-001
      vertex  4.296875e-001  2.628106e-016  4.687500e-001
      vertex  4.296875e-001 -1.501150e-004  4.672258e-001
    endloop
  endfacet
  facet normal  2.130062e-005  7.730151e-001 -6.343876e-001
    outer loop
      vertex -5.911320e-001 -1.469845e-003  4.641887e-001
      vertex  4.296875e-001 -1.316644e-003  4.644096e-001
      vertex  4.296875e-001 -2.288228e-003  4.632257e-001
    endloop
  endfacet
  facet normal -9.518326e-005  7.099377e-001 -7.042645e-001
    outer loop
      vertex -5.911320e-001 -1.469845e-003  4.641887e-001
      vertex  4.296875e-001 -2.288228e-003  4.632257e-001
      vertex -5.911829e-001 -3.200479e-003  4.624441e-001
    endloop
  endfacet
  facet normal  2.495774e-005  6.343937e-001 -7.730101e-001
    outer loop
      vertex -5.911829e-001 -3.200479e-003  4.624441e-001
      vertex  4.296875e-001 -2.288228e-003  4.632257e-001
      vertex  4.296875e-001 -3.472107e-003  4.622541e-001
    endloop
  endfacet
  facet normal -3.868149e-005  4.713861e-001 -8.819270e-001
    outer loop
      vertex -5.911829e-001 -3.200479e-003  4.624441e-001
      vertex  4.296875e-001 -3.472107e-003  4.622541e-001
      vertex  4.296875e-001 -4.822786e-003  4.615322e-001
    endloop
  endfacet
  facet normal -7.031055e-005  4.560072e-001 -8.899761e-001
    outer loop
      vertex -5.911829e-001 -3.200479e-003  4.624441e-001
      vertex  4.296875e-001 -4.822786e-003  4.615322e-001
      vertex -5.913014e-001 -5.388116e-003  4.613232e-001
    endloop
  endfacet
  facet normal -3.032209e-005  8.819202e-001 -4.713987e-001
    outer loop
      vertex  4.296875e-001 -1.316644e-003  4.644096e-001
      vertex -5.911320e-001 -1.469845e-003  4.641887e-001
      vertex  4.296875e-001 -5.946911e-004  4.657603e-001
    endloop
  endfacet
  facet normal -7.490411e-005  8.935682e-001 -4.489274e-001
    outer loop
      vertex  4.296875e-001 -5.946911e-004  4.657603e-001
      vertex -5.911320e-001 -1.469845e-003  4.641887e-001
      vertex -5.911193e-001 -3.668388e-004  4.663841e-001
    endloop
  endfacet
  facet normal  3.619189e-005  9.569397e-001 -2.902869e-001
    outer loop
      vertex  4.296875e-001 -5.946911e-004  4.657603e-001
      vertex -5.911193e-001 -3.668388e-004  4.663841e-001
      vertex  4.296875e-001 -1.501150e-004  4.672258e-001
    endloop
  endfacet
  facet normal  0.000000e+000  9.801670e-002 -9.951848e-001
    outer loop
      vertex  4.296875e-001 -7.812500e-003  4.609375e-001
      vertex -5.915035e-001 -7.812500e-003  4.609375e-001
      vertex  4.296875e-001 -6.288357e-003  4.610876e-001
    endloop
  endfacet
  facet normal -8.933651e-005  1.571240e-001 -9.875789e-001
    outer loop
      vertex  4.296875e-001 -6.288357e-003  4.610876e-001
      vertex -5.915035e-001 -7.812500e-003  4.609375e-001
      vertex -5.913014e-001 -5.388116e-003  4.613232e-001
    endloop
  endfacet
  facet normal  3.515401e-005  2.902935e-001 -9.569377e-001
    outer loop
      vertex  4.296875e-001 -6.288357e-003  4.610876e-001
      vertex -5.913014e-001 -5.388116e-003  4.613232e-001
      vertex  4.296875e-001 -4.822786e-003  4.615322e-001
    endloop
  endfacet
  facet normal -1.231869e-002  9.998457e-001  1.252522e-002
    outer loop
      vertex -5.911245e-001  9.786835e-004 -7.187500e-001
      vertex -6.705592e-001  8.819699e-018 -7.187500e-001
      vertex -5.911245e-001  2.631235e-017 -6.406250e-001
    endloop
  endfacet
  facet normal -1.110223e-016  9.999999e-001 -1.110223e-016
    outer loop
      vertex -5.911245e-001  2.631235e-017 -6.406250e-001
      vertex -6.705592e-001  8.819699e-018 -7.187500e-001
      vertex -6.705592e-001  1.749332e-017 -6.406250e-001
    endloop
  endfacet
  facet normal -1.000000e+000  0.000000e+000  0.000000e+000
    outer loop
      vertex -6.796875e-001 -7.891460e-002  5.310033e-001
      vertex -6.796875e-001 -7.891460e-002  4.609375e-001
      vertex -6.796875e-001 -3.671875e-001  5.310033e-001
    endloop
  endfacet
  facet normal -1.000000e+000  0.000000e+000  0.000000e+000
    outer loop
      vertex -6.796875e-001 -3.671875e-001  5.310033e-001
      vertex -6.796875e-001 -7.891460e-002  4.609375e-001
      vertex -6.796875e-001 -3.671875e-001  4.609375e-001
    endloop
  endfacet
  facet normal  -0.000000e+000  0.000000e+000  1.000000e+000
    outer loop
      vertex -6.705592e-001  1.484649e-016  5.390625e-001
      vertex -7.500000e-001  1.396452e-016  5.390625e-001
      vertex -7.486368e-001 -1.465379e-002  5.390625e-001
    endloop
  endfacet
  facet normal  0.000000e+000  0.000000e+000  9.999999e-001
    outer loop
      vertex -6.113502e-001 -5.296345e-002  5.390625e-001
      vertex -7.182029e-001 -6.356817e-002  5.390625e-001
      vertex -6.221359e-001 -6.297640e-002  5.390625e-001
    endloop
  endfacet
  facet normal  -0.000000e+000  0.000000e+000  1.000000e+000
    outer loop
      vertex -6.221359e-001 -6.297640e-002  5.390625e-001
      vertex -7.182029e-001 -6.356817e-002  5.390625e-001
      vertex -7.056594e-001 -7.126577e-002  5.390625e-001
    endloop
  endfacet
  facet normal  0.000000e+000  0.000000e+000  1.000000e+000
    outer loop
      vertex -6.221359e-001 -6.297640e-002  5.390625e-001
      vertex -7.056594e-001 -7.126577e-002  5.390625e-001
      vertex -6.345837e-001 -7.082795e-002  5.390625e-001
    endloop
  endfacet
  facet normal  -0.000000e+000  0.000000e+000  1.000000e+000
    outer loop
      vertex -6.345837e-001 -7.082795e-002  5.390625e-001
      vertex -7.056594e-001 -7.126577e-002  5.390625e-001
      vertex -6.919113e-001 -7.651749e-002  5.390625e-001
    endloop
  endfacet
  facet normal  0.000000e+000  0.000000e+000  1.000000e+000
    outer loop
      vertex -6.345837e-001 -7.082795e-002  5.390625e-001
      vertex -6.919113e-001 -7.651749e-002  5.390625e-001
      vertex -6.482661e-001 -7.624863e-002  5.390625e-001
    endloop
  endfacet
  facet normal  -0.000000e+000  0.000000e+000  1.000000e+000
    outer loop
      vertex -6.482661e-001 -7.624863e-002  5.390625e-001
      vertex -6.919113e-001 -7.651749e-002  5.390625e-001
      vertex -6.774303e-001 -7.914308e-002  5.390625e-001
    endloop
  endfacet
  facet normal  0.000000e+000  0.000000e+000  9.999999e-001
    outer loop
      vertex -6.482661e-001 -7.624863e-002  5.390625e-001
      vertex -6.774303e-001 -7.914308e-002  5.390625e-001
      vertex -6.627136e-001 -7.905242e-002  5.390625e-001
    endloop
  endfacet
  facet normal  -0.000000e+000  0.000000e+000  1.000000e+000
    outer loop
      vertex -5.911245e-001  9.786835e-004  5.390625e-001
      vertex -6.705592e-001  1.484649e-016  5.390625e-001
      vertex -5.923070e-001 -1.369079e-002  5.390625e-001
    endloop
  endfacet
  facet normal  0.000000e+000  0.000000e+000  1.000000e+000
    outer loop
      vertex -5.923070e-001 -1.369079e-002  5.390625e-001
      vertex -6.705592e-001  1.484649e-016  5.390625e-001
      vertex -7.486368e-001 -1.465379e-002  5.390625e-001
    endloop
  endfacet
  facet normal  -0.000000e+000  0.000000e+000  1.000000e+000
    outer loop
      vertex -5.923070e-001 -1.369079e-002  5.390625e-001
      vertex -7.486368e-001 -1.465379e-002  5.390625e-001
      vertex -5.961753e-001 -2.789039e-002  5.390625e-001
    endloop
  endfacet
  facet normal  0.000000e+000  0.000000e+000  1.000000e+000
    outer loop
      vertex -5.961753e-001 -2.789039e-002  5.390625e-001
      vertex -7.486368e-001 -1.465379e-002  5.390625e-001
      vertex -7.445939e-001 -2.880466e-002  5.390625e-001
    endloop
  endfacet
  facet normal  -0.000000e+000  0.000000e+000  1.000000e+000
    outer loop
      vertex -5.961753e-001 -2.789039e-002  5.390625e-001
      vertex -7.445939e-001 -2.880466e-002  5.390625e-001
      vertex -6.025965e-001 -4.113277e-002  5.390625e-001
    endloop
  endfacet
  facet normal  0.000000e+000  0.000000e+000  1.000000e+000
    outer loop
      vertex -6.025965e-001 -4.113277e-002  5.390625e-001
      vertex -7.445939e-001 -2.880466e-002  5.390625e-001
      vertex -7.380100e-001 -4.196693e-002  5.390625e-001
    endloop
  endfacet
  facet normal  -0.000000e+000  0.000000e+000  1.000000e+000
    outer loop
      vertex -6.025965e-001 -4.113277e-002  5.390625e-001
      vertex -7.380100e-001 -4.196693e-002  5.390625e-001
      vertex -6.113502e-001 -5.296345e-002  5.390625e-001
    endloop
  endfacet
  facet normal  0.000000e+000  0.000000e+000  1.000000e+000
    outer loop
      vertex -6.113502e-001 -5.296345e-002  5.390625e-001
      vertex -7.380100e-001 -4.196693e-002  5.390625e-001
      vertex -7.291113e-001 -5.368887e-002  5.390625e-001
    endloop
  endfacet
  facet normal  -0.000000e+000  0.000000e+000  1.000000e+000
    outer loop
      vertex -6.113502e-001 -5.296345e-002  5.390625e-001
      vertex -7.291113e-001 -5.368887e-002  5.390625e-001
      vertex -7.182029e-001 -6.356817e-002  5.390625e-001
    endloop
  endfacet
  facet normal  0.000000e+000  0.000000e+000 -1.000000e+000
    outer loop
      vertex -5.911245e-001  9.786835e-004 -7.187500e-001
      vertex -7.486368e-001 -1.465379e-002 -7.187500e-001
      vertex -6.705592e-001  8.819699e-018 -7.187500e-001
    endloop
  endfacet
  facet normal  0.000000e+000  0.000000e+000 -1.000000e+000
    outer loop
      vertex -7.486368e-001 -1.465379e-002 -7.187500e-001
      vertex -7.500000e-001  0.000000e+000 -7.187500e-001
      vertex -6.705592e-001  8.819699e-018 -7.187500e-001
    endloop
  endfacet
  facet normal  0.000000e+000  0.000000e+000 -1.000000e+000
    outer loop
      vertex -5.923070e-001 -1.369079e-002 -7.187500e-001
      vertex -7.486368e-001 -1.465379e-002 -7.187500e-001
      vertex -5.911245e-001  9.786835e-004 -7.187500e-001
    endloop
  endfacet
  facet normal  0.000000e+000  0.000000e+000 -9.999999e-001
    outer loop
      vertex -6.221359e-001 -6.297640e-002 -7.187500e-001
      vertex -7.182029e-001 -6.356817e-002 -7.187500e-001
      vertex -6.113502e-001 -5.296345e-002 -7.187500e-001
    endloop
  endfacet
  facet normal  0.000000e+000  0.000000e+000 -1.000000e+000
    outer loop
      vertex -7.056594e-001 -7.126577e-002 -7.187500e-001
      vertex -7.182029e-001 -6.356817e-002 -7.187500e-001
      vertex -6.221359e-001 -6.297640e-002 -7.187500e-001
    endloop
  endfacet
  facet normal  0.000000e+000  0.000000e+000 -1.000000e+000
    outer loop
      vertex -6.345837e-001 -7.082795e-002 -7.187500e-001
      vertex -7.056594e-001 -7.126577e-002 -7.187500e-001
      vertex -6.221359e-001 -6.297640e-002 -7.187500e-001
    endloop
  endfacet
  facet normal  0.000000e+000  0.000000e+000 -1.000000e+000
    outer loop
      vertex -6.919113e-001 -7.651749e-002 -7.187500e-001
      vertex -7.056594e-001 -7.126577e-002 -7.187500e-001
      vertex -6.345837e-001 -7.082795e-002 -7.187500e-001
    endloop
  endfacet
  facet normal  0.000000e+000  0.000000e+000 -1.000000e+000
    outer loop
      vertex -6.482661e-001 -7.624863e-002 -7.187500e-001
      vertex -6.919113e-001 -7.651749e-002 -7.187500e-001
      vertex -6.345837e-001 -7.082795e-002 -7.187500e-001
    endloop
  endfacet
  facet normal  0.000000e+000  0.000000e+000 -1.000000e+000
    outer loop
      vertex -6.774303e-001 -7.914308e-002 -7.187500e-001
      vertex -6.919113e-001 -7.651749e-002 -7.187500e-001
      vertex -6.482661e-001 -7.624863e-002 -7.187500e-001
    endloop
  endfacet
  facet normal  0.000000e+000  0.000000e+000 -9.999999e-001
    outer loop
      vertex -6.627136e-001 -7.905242e-002 -7.187500e-001
      vertex -6.774303e-001 -7.914308e-002 -7.187500e-001
      vertex -6.482661e-001 -7.624863e-002 -7.187500e-001
    endloop
  endfacet
  facet normal  0.000000e+000  0.000000e+000 -1.000000e+000
    outer loop
      vertex -7.182029e-001 -6.356817e-002 -7.187500e-001
      vertex -7.291113e-001 -5.368887e-002 -7.187500e-001
      vertex -6.113502e-001 -5.296345e-002 -7.187500e-001
    endloop
  endfacet
  facet normal  -0.000000e+000  0.000000e+000 -1.000000e+000
    outer loop
      vertex -6.113502e-001 -5.296345e-002 -7.187500e-001
      vertex -7.291113e-001 -5.368887e-002 -7.187500e-001
      vertex -7.380100e-001 -4.196693e-002 -7.187500e-001
    endloop
  endfacet
  facet normal  0.000000e+000  0.000000e+000 -1.000000e+000
    outer loop
      vertex -6.113502e-001 -5.296345e-002 -7.187500e-001
      vertex -7.380100e-001 -4.196693e-002 -7.187500e-001
      vertex -6.025965e-001 -4.113277e-002 -7.187500e-001
    endloop
  endfacet
  facet normal  -0.000000e+000  0.000000e+000 -1.000000e+000
    outer loop
      vertex -6.025965e-001 -4.113277e-002 -7.187500e-001
      vertex -7.380100e-001 -4.196693e-002 -7.187500e-001
      vertex -7.445939e-001 -2.880466e-002 -7.187500e-001
    endloop
  endfacet
  facet normal  0.000000e+000  0.000000e+000 -1.000000e+000
    outer loop
      vertex -6.025965e-001 -4.113277e-002 -7.187500e-001
      vertex -7.445939e-001 -2.880466e-002 -7.187500e-001
      vertex -5.961753e-001 -2.789039e-002 -7.187500e-001
    endloop
  endfacet
  facet normal  -0.000000e+000  0.000000e+000 -1.000000e+000
    outer loop
      vertex -5.961753e-001 -2.789039e-002 -7.187500e-001
      vertex -7.445939e-001 -2.880466e-002 -7.187500e-001
      vertex -7.486368e-001 -1.465379e-002 -7.187500e-001
    endloop
  endfacet
  facet normal  0.000000e+000  0.000000e+000 -1.000000e+000
    outer loop
      vertex -5.961753e-001 -2.789039e-002 -7.187500e-001
      vertex -7.486368e-001 -1.465379e-002 -7.187500e-001
      vertex -5.923070e-001 -1.369079e-002 -7.187500e-001
    endloop
  endfacet
endsolid CATIA STL
