solid CATIA STL
  facet normal  0.000000e+000  1.000000e+000  0.000000e+000
    outer loop
      vertex  4.687500e-002  7.473684e-001  7.500000e-001
      vertex  2.893671e-002  7.473684e-001  7.464318e-001
      vertex  3.773014e-002  7.473684e-001  7.490993e-001
    endloop
  endfacet
  facet normal  0.000000e+000  1.000000e+000  -0.000000e+000
    outer loop
      vertex  7.500000e-001  7.473684e-001  7.500000e-001
      vertex  7.500000e-001  7.473684e-001  0.000000e+000
      vertex  0.000000e+000  7.473684e-001  0.000000e+000
    endloop
  endfacet
  facet normal  0.000000e+000  1.000000e+000  0.000000e+000
    outer loop
      vertex  7.500000e-001  7.473684e-001  7.500000e-001
      vertex  0.000000e+000  7.473684e-001  0.000000e+000
      vertex  0.000000e+000  7.473684e-001  7.031250e-001
    endloop
  endfacet
  facet normal  0.000000e+000  1.000000e+000  0.000000e+000
    outer loop
      vertex  7.500000e-001  7.473684e-001  7.500000e-001
      vertex  0.000000e+000  7.473684e-001  7.031250e-001
      vertex  9.006900e-004  7.473684e-001  7.122698e-001
    endloop
  endfacet
  facet normal  0.000000e+000  1.000000e+000  0.000000e+000
    outer loop
      vertex  7.500000e-001  7.473684e-001  7.500000e-001
      vertex  9.006900e-004  7.473684e-001  7.122698e-001
      vertex  3.568147e-003  7.473684e-001  7.210633e-001
    endloop
  endfacet
  facet normal  0.000000e+000  1.000000e+000  0.000000e+000
    outer loop
      vertex  7.500000e-001  7.473684e-001  7.500000e-001
      vertex  3.568147e-003  7.473684e-001  7.210633e-001
      vertex  7.899862e-003  7.473684e-001  7.291673e-001
    endloop
  endfacet
  facet normal  0.000000e+000  1.000000e+000  0.000000e+000
    outer loop
      vertex  7.500000e-001  7.473684e-001  7.500000e-001
      vertex  7.899862e-003  7.473684e-001  7.291673e-001
      vertex  1.372937e-002  7.473684e-001  7.362706e-001
    endloop
  endfacet
  facet normal  0.000000e+000  1.000000e+000  0.000000e+000
    outer loop
      vertex  7.500000e-001  7.473684e-001  7.500000e-001
      vertex  1.372937e-002  7.473684e-001  7.362706e-001
      vertex  2.083264e-002  7.473684e-001  7.421001e-001
    endloop
  endfacet
  facet normal  0.000000e+000  9.999999e-001  0.000000e+000
    outer loop
      vertex  7.500000e-001  7.473684e-001  7.500000e-001
      vertex  2.083264e-002  7.473684e-001  7.421001e-001
      vertex  2.893671e-002  7.473684e-001  7.464318e-001
    endloop
  endfacet
  facet normal  0.000000e+000  1.000000e+000  0.000000e+000
    outer loop
      vertex  7.500000e-001  7.473684e-001  7.500000e-001
      vertex  2.893671e-002  7.473684e-001  7.464318e-001
      vertex  4.687500e-002  7.473684e-001  7.500000e-001
    endloop
  endfacet
  facet normal  0.000000e+000  0.000000e+000 -1.000000e+000
    outer loop
      vertex  7.500000e-001  7.473684e-001  0.000000e+000
      vertex  7.500000e-001 -2.631579e-003  0.000000e+000
      vertex  2.526316e-001 -2.631579e-003  0.000000e+000
    endloop
  endfacet
  facet normal  0.000000e+000  0.000000e+000 -1.000000e+000
    outer loop
      vertex  7.500000e-001  7.473684e-001  0.000000e+000
      vertex  2.526316e-001 -2.631579e-003  0.000000e+000
      vertex  2.500000e-001  0.000000e+000  0.000000e+000
    endloop
  endfacet
  facet normal  0.000000e+000  0.000000e+000 -1.000000e+000
    outer loop
      vertex  7.500000e-001  7.473684e-001  0.000000e+000
      vertex  2.500000e-001  0.000000e+000  0.000000e+000
      vertex  0.000000e+000  0.000000e+000  0.000000e+000
    endloop
  endfacet
  facet normal  0.000000e+000  0.000000e+000 -1.000000e+000
    outer loop
      vertex  7.500000e-001  7.473684e-001  0.000000e+000
      vertex  0.000000e+000  0.000000e+000  0.000000e+000
      vertex  0.000000e+000  7.473684e-001  0.000000e+000
    endloop
  endfacet
  facet normal -1.000000e+000  0.000000e+000  0.000000e+000
    outer loop
      vertex  0.000000e+000  7.473684e-001  0.000000e+000
      vertex  0.000000e+000  0.000000e+000  0.000000e+000
      vertex  0.000000e+000  0.000000e+000  5.000000e-001
    endloop
  endfacet
  facet normal -1.000000e+000  0.000000e+000  0.000000e+000
    outer loop
      vertex  0.000000e+000  7.473684e-001  0.000000e+000
      vertex  0.000000e+000  0.000000e+000  5.000000e-001
      vertex  0.000000e+000  2.500000e-001  5.000000e-001
    endloop
  endfacet
  facet normal -1.000000e+000  0.000000e+000  0.000000e+000
    outer loop
      vertex  0.000000e+000  7.473684e-001  0.000000e+000
      vertex  0.000000e+000  2.500000e-001  5.000000e-001
      vertex  0.000000e+000  2.500000e-001  7.031250e-001
    endloop
  endfacet
  facet normal -1.000000e+000  0.000000e+000  0.000000e+000
    outer loop
      vertex  0.000000e+000  7.473684e-001  0.000000e+000
      vertex  0.000000e+000  2.500000e-001  7.031250e-001
      vertex  0.000000e+000  7.473684e-001  7.031250e-001
    endloop
  endfacet
  facet normal -7.071064e-001 -7.071072e-001 -5.548349e-006
    outer loop
      vertex  4.687500e-002  2.031250e-001  7.500000e-001
      vertex  3.881640e-002  2.111836e-001  7.493021e-001
      vertex  2.992325e-002  2.200768e-001  7.468210e-001
    endloop
  endfacet
  facet normal -7.071067e-001 -7.071067e-001  -0.000000e+000
    outer loop
      vertex  2.500000e-001  0.000000e+000  5.000000e-001
      vertex  0.000000e+000  2.500000e-001  7.031250e-001
      vertex  0.000000e+000  2.500000e-001  5.000000e-001
    endloop
  endfacet
  facet normal -7.071068e-001 -7.071068e-001 -1.242946e-006
    outer loop
      vertex  2.526316e-001 -2.631579e-003  7.500000e-001
      vertex  4.687500e-002  2.031250e-001  7.500000e-001
      vertex  2.992325e-002  2.200768e-001  7.468210e-001
    endloop
  endfacet
  facet normal -7.071068e-001 -7.071068e-001 -3.087119e-007
    outer loop
      vertex  2.526316e-001 -2.631579e-003  7.500000e-001
      vertex  2.992325e-002  2.200768e-001  7.468210e-001
      vertex  2.134780e-002  2.286522e-001  7.424322e-001
    endloop
  endfacet
  facet normal -7.071068e-001 -7.071068e-001  1.877748e-006
    outer loop
      vertex  2.526316e-001 -2.631579e-003  7.500000e-001
      vertex  2.134780e-002  2.286522e-001  7.424322e-001
      vertex  1.730464e-002  2.326954e-001  7.394943e-001
    endloop
  endfacet
  facet normal -7.071067e-001 -7.071068e-001 -1.001795e-006
    outer loop
      vertex  2.526316e-001 -2.631579e-003  7.500000e-001
      vertex  1.730464e-002  2.326954e-001  7.394943e-001
      vertex  1.349785e-002  2.365022e-001  7.360375e-001
    endloop
  endfacet
  facet normal -7.071068e-001 -7.071067e-001  1.256749e-006
    outer loop
      vertex  2.526316e-001 -2.631579e-003  7.500000e-001
      vertex  1.349785e-002  2.365022e-001  7.360375e-001
      vertex  8.842508e-003  2.411575e-001  7.305256e-001
    endloop
  endfacet
  facet normal -7.071068e-001 -7.071068e-001 -3.361363e-007
    outer loop
      vertex  2.526316e-001 -2.631579e-003  7.500000e-001
      vertex  8.842508e-003  2.411575e-001  7.305256e-001
      vertex  5.079417e-003  2.449206e-001  7.243475e-001
    endloop
  endfacet
  facet normal -7.071068e-001 -7.071068e-001 -5.880771e-007
    outer loop
      vertex  2.526316e-001 -2.631579e-003  7.500000e-001
      vertex  5.079417e-003  2.449206e-001  7.243475e-001
      vertex  2.297509e-003  2.477025e-001  7.176203e-001
    endloop
  endfacet
  facet normal -7.071069e-001 -7.071066e-001  9.984773e-007
    outer loop
      vertex  2.526316e-001 -2.631579e-003  7.500000e-001
      vertex  2.297509e-003  2.477025e-001  7.176203e-001
      vertex  1.305460e-003  2.486945e-001  7.141106e-001
    endloop
  endfacet
  facet normal -7.071068e-001 -7.071068e-001  3.494030e-007
    outer loop
      vertex  2.526316e-001 -2.631579e-003  7.500000e-001
      vertex  1.305460e-003  2.486945e-001  7.141106e-001
      vertex  5.795032e-004  2.494205e-001  7.104729e-001
    endloop
  endfacet
  facet normal -7.071068e-001 -7.071069e-001 -1.217561e-006
    outer loop
      vertex  2.526316e-001 -2.631579e-003  7.500000e-001
      vertex  5.795032e-004  2.494205e-001  7.104729e-001
      vertex  1.459899e-004  2.498540e-001  7.068217e-001
    endloop
  endfacet
  facet normal -7.071069e-001 -7.071067e-001  6.310651e-007
    outer loop
      vertex  2.526316e-001 -2.631579e-003  7.500000e-001
      vertex  1.459899e-004  2.498540e-001  7.068217e-001
      vertex  0.000000e+000  2.500000e-001  7.031250e-001
    endloop
  endfacet
  facet normal -7.071068e-001 -7.071068e-001  0.000000e+000
    outer loop
      vertex  2.526316e-001 -2.631579e-003  7.500000e-001
      vertex  0.000000e+000  2.500000e-001  7.031250e-001
      vertex  2.500000e-001  0.000000e+000  5.000000e-001
    endloop
  endfacet
  facet normal -7.071073e-001 -7.071062e-001  -0.000000e+000
    outer loop
      vertex  2.526316e-001 -2.631579e-003  7.500000e-001
      vertex  2.500000e-001  0.000000e+000  5.000000e-001
      vertex  2.500000e-001  0.000000e+000  0.000000e+000
    endloop
  endfacet
  facet normal -7.071074e-001 -7.071062e-001  0.000000e+000
    outer loop
      vertex  2.526316e-001 -2.631579e-003  7.500000e-001
      vertex  2.500000e-001  0.000000e+000  0.000000e+000
      vertex  2.526316e-001 -2.631579e-003  0.000000e+000
    endloop
  endfacet
  facet normal  0.000000e+000  0.000000e+000  1.000000e+000
    outer loop
      vertex  0.000000e+000  0.000000e+000  5.000000e-001
      vertex  2.500000e-001  0.000000e+000  5.000000e-001
      vertex  0.000000e+000  2.500000e-001  5.000000e-001
    endloop
  endfacet
  facet normal  0.000000e+000 -1.000000e+000  0.000000e+000
    outer loop
      vertex  0.000000e+000  0.000000e+000  0.000000e+000
      vertex  2.500000e-001  0.000000e+000  0.000000e+000
      vertex  0.000000e+000  0.000000e+000  5.000000e-001
    endloop
  endfacet
  facet normal  0.000000e+000 -1.000000e+000  0.000000e+000
    outer loop
      vertex  0.000000e+000  0.000000e+000  5.000000e-001
      vertex  2.500000e-001  0.000000e+000  0.000000e+000
      vertex  2.500000e-001  0.000000e+000  5.000000e-001
    endloop
  endfacet
  facet normal  -0.000000e+000  0.000000e+000  1.000000e+000
    outer loop
      vertex  7.500000e-001  7.473684e-001  7.500000e-001
      vertex  4.687500e-002  7.473684e-001  7.500000e-001
      vertex  7.500000e-001 -2.631579e-003  7.500000e-001
    endloop
  endfacet
  facet normal  0.000000e+000  0.000000e+000  9.999999e-001
    outer loop
      vertex  7.500000e-001 -2.631579e-003  7.500000e-001
      vertex  4.687500e-002  7.473684e-001  7.500000e-001
      vertex  4.687500e-002  2.031250e-001  7.500000e-001
    endloop
  endfacet
  facet normal  0.000000e+000  0.000000e+000  1.000000e+000
    outer loop
      vertex  7.500000e-001 -2.631579e-003  7.500000e-001
      vertex  4.687500e-002  2.031250e-001  7.500000e-001
      vertex  2.526316e-001 -2.631579e-003  7.500000e-001
    endloop
  endfacet
  facet normal -8.628155e-002  0.000000e+000  9.962708e-001
    outer loop
      vertex  4.687500e-002  7.473684e-001  7.500000e-001
      vertex  3.881640e-002  2.111836e-001  7.493021e-001
      vertex  4.687500e-002  2.031250e-001  7.500000e-001
    endloop
  endfacet
  facet normal -9.801670e-002  1.777873e-004  9.951847e-001
    outer loop
      vertex  4.687500e-002  7.473684e-001  7.500000e-001
      vertex  3.773014e-002  7.473684e-001  7.490993e-001
      vertex  3.881640e-002  2.111836e-001  7.493021e-001
    endloop
  endfacet
  facet normal -9.951846e-001  4.362722e-004  9.801731e-002
    outer loop
      vertex  0.000000e+000  7.473684e-001  7.031250e-001
      vertex  1.459899e-004  2.498540e-001  7.068217e-001
      vertex  9.006900e-004  7.473684e-001  7.122698e-001
    endloop
  endfacet
  facet normal -9.992211e-001  0.000000e+000  3.946142e-002
    outer loop
      vertex  0.000000e+000  7.473684e-001  7.031250e-001
      vertex  0.000000e+000  2.500000e-001  7.031250e-001
      vertex  1.459899e-004  2.498540e-001  7.068217e-001
    endloop
  endfacet
  facet normal -9.930223e-001  2.149678e-004  1.179268e-001
    outer loop
      vertex  9.006900e-004  7.473684e-001  7.122698e-001
      vertex  1.459899e-004  2.498540e-001  7.068217e-001
      vertex  5.795032e-004  2.494205e-001  7.104729e-001
    endloop
  endfacet
  facet normal -9.806646e-001 -7.364239e-005  1.956961e-001
    outer loop
      vertex  9.006900e-004  7.473684e-001  7.122698e-001
      vertex  5.795032e-004  2.494205e-001  7.104729e-001
      vertex  1.305460e-003  2.486945e-001  7.141106e-001
    endloop
  endfacet
  facet normal -9.569402e-001  2.947625e-004  2.902851e-001
    outer loop
      vertex  9.006900e-004  7.473684e-001  7.122698e-001
      vertex  1.305460e-003  2.486945e-001  7.141106e-001
      vertex  3.568147e-003  7.473684e-001  7.210633e-001
    endloop
  endfacet
  facet normal -9.622542e-001  5.716967e-004  2.721517e-001
    outer loop
      vertex  3.568147e-003  7.473684e-001  7.210633e-001
      vertex  1.305460e-003  2.486945e-001  7.141106e-001
      vertex  2.297509e-003  2.477025e-001  7.176203e-001
    endloop
  endfacet
  facet normal -9.241450e-001 -2.824224e-004  3.820416e-001
    outer loop
      vertex  5.079417e-003  2.449206e-001  7.243475e-001
      vertex  3.568147e-003  7.473684e-001  7.210633e-001
      vertex  2.297509e-003  2.477025e-001  7.176203e-001
    endloop
  endfacet
  facet normal -8.819216e-001  4.286468e-004  4.713959e-001
    outer loop
      vertex  7.899862e-003  7.473684e-001  7.291673e-001
      vertex  3.568147e-003  7.473684e-001  7.210633e-001
      vertex  5.079417e-003  2.449206e-001  7.243475e-001
    endloop
  endfacet
  facet normal -8.540965e-001 -1.948885e-004  5.201146e-001
    outer loop
      vertex  5.079417e-003  2.449206e-001  7.243475e-001
      vertex  8.842508e-003  2.411575e-001  7.305256e-001
      vertex  7.899862e-003  7.473684e-001  7.291673e-001
    endloop
  endfacet
  facet normal -7.730100e-001  2.627431e-004  6.343938e-001
    outer loop
      vertex  1.372937e-002  7.473684e-001  7.362706e-001
      vertex  7.899862e-003  7.473684e-001  7.291673e-001
      vertex  8.842508e-003  2.411575e-001  7.305256e-001
    endloop
  endfacet
  facet normal -7.639493e-001  5.176888e-005  6.452763e-001
    outer loop
      vertex  1.372937e-002  7.473684e-001  7.362706e-001
      vertex  8.842508e-003  2.411575e-001  7.305256e-001
      vertex  1.349785e-002  2.365022e-001  7.360375e-001
    endloop
  endfacet
  facet normal -6.722701e-001 -3.314242e-005  7.403060e-001
    outer loop
      vertex  1.372937e-002  7.473684e-001  7.362706e-001
      vertex  1.349785e-002  2.365022e-001  7.360375e-001
      vertex  1.730464e-002  2.326954e-001  7.394943e-001
    endloop
  endfacet
  facet normal -6.343936e-001  4.348168e-004  7.730101e-001
    outer loop
      vertex  1.372937e-002  7.473684e-001  7.362706e-001
      vertex  1.730464e-002  2.326954e-001  7.394943e-001
      vertex  2.083264e-002  7.473684e-001  7.421001e-001
    endloop
  endfacet
  facet normal -5.878872e-001 -6.590973e-005  8.089429e-001
    outer loop
      vertex  2.083264e-002  7.473684e-001  7.421001e-001
      vertex  1.730464e-002  2.326954e-001  7.394943e-001
      vertex  2.134780e-002  2.286522e-001  7.424322e-001
    endloop
  endfacet
  facet normal -4.713961e-001  9.650710e-005  8.819215e-001
    outer loop
      vertex  2.893671e-002  7.473684e-001  7.464318e-001
      vertex  2.083264e-002  7.473684e-001  7.421001e-001
      vertex  2.134780e-002  2.286522e-001  7.424322e-001
    endloop
  endfacet
  facet normal -4.557434e-001 -1.956415e-004  8.901112e-001
    outer loop
      vertex  2.134780e-002  2.286522e-001  7.424322e-001
      vertex  2.992325e-002  2.200768e-001  7.468210e-001
      vertex  2.893671e-002  7.473684e-001  7.464318e-001
    endloop
  endfacet
  facet normal -2.902876e-001  1.632473e-004  9.569394e-001
    outer loop
      vertex  3.773014e-002  7.473684e-001  7.490993e-001
      vertex  2.893671e-002  7.473684e-001  7.464318e-001
      vertex  2.992325e-002  2.200768e-001  7.468210e-001
    endloop
  endfacet
  facet normal -2.688894e-001 -1.804920e-004  9.631710e-001
    outer loop
      vertex  2.992325e-002  2.200768e-001  7.468210e-001
      vertex  3.881640e-002  2.111836e-001  7.493021e-001
      vertex  3.773014e-002  7.473684e-001  7.490993e-001
    endloop
  endfacet
  facet normal  1.000000e+000  0.000000e+000  0.000000e+000
    outer loop
      vertex  7.500000e-001 -2.631579e-003  0.000000e+000
      vertex  7.500000e-001  7.473684e-001  0.000000e+000
      vertex  7.500000e-001 -2.631579e-003  7.500000e-001
    endloop
  endfacet
  facet normal  1.000000e+000  -0.000000e+000  0.000000e+000
    outer loop
      vertex  7.500000e-001 -2.631579e-003  7.500000e-001
      vertex  7.500000e-001  7.473684e-001  0.000000e+000
      vertex  7.500000e-001  7.473684e-001  7.500000e-001
    endloop
  endfacet
  facet normal  0.000000e+000 -1.000000e+000  0.000000e+000
    outer loop
      vertex  2.526316e-001 -2.631579e-003  0.000000e+000
      vertex  7.500000e-001 -2.631579e-003  0.000000e+000
      vertex  2.526316e-001 -2.631579e-003  7.500000e-001
    endloop
  endfacet
  facet normal  0.000000e+000 -1.000000e+000  0.000000e+000
    outer loop
      vertex  2.526316e-001 -2.631579e-003  7.500000e-001
      vertex  7.500000e-001 -2.631579e-003  0.000000e+000
      vertex  7.500000e-001 -2.631579e-003  7.500000e-001
    endloop
  endfacet
endsolid CATIA STL
