solid CATIA STL
  facet normal -7.071068e-001  0.000000e+000 -7.071068e-001
    outer loop
      vertex -6.315789e-002 -7.812500e-003 -2.277960e-002
      vertex -6.315789e-002 -1.250000e-001 -2.277960e-002
      vertex -1.987664e-001 -1.250000e-001  1.128289e-001
    endloop
  endfacet
  facet normal -7.071068e-001  0.000000e+000 -7.071068e-001
    outer loop
      vertex -6.315789e-002 -7.812500e-003 -2.277960e-002
      vertex -1.987664e-001 -1.250000e-001  1.128289e-001
      vertex -1.987664e-001 -6.250000e-002  1.128289e-001
    endloop
  endfacet
  facet normal -7.071067e-001 -3.008664e-007 -7.071068e-001
    outer loop
      vertex -6.315789e-002 -7.812500e-003 -2.277960e-002
      vertex -1.987664e-001 -6.250000e-002  1.128289e-001
      vertex -2.421875e-001 -6.250000e-002  1.562500e-001
    endloop
  endfacet
  facet normal -7.071068e-001  1.926713e-007 -7.071068e-001
    outer loop
      vertex -6.315789e-002 -7.812500e-003 -2.277960e-002
      vertex -2.421875e-001 -6.250000e-002  1.562500e-001
      vertex -3.940789e-001 -6.250000e-002  3.081414e-001
    endloop
  endfacet
  facet normal -7.071068e-001  0.000000e+000 -7.071068e-001
    outer loop
      vertex -6.315789e-002 -7.812500e-003 -2.277960e-002
      vertex -3.940789e-001 -6.250000e-002  3.081414e-001
      vertex -4.375000e-001 -6.250000e-002  3.515625e-001
    endloop
  endfacet
  facet normal -7.071068e-001  0.000000e+000 -7.071068e-001
    outer loop
      vertex -6.315789e-002 -7.812500e-003 -2.277960e-002
      vertex -4.375000e-001 -6.250000e-002  3.515625e-001
      vertex -5.893915e-001 -6.250000e-002  5.034540e-001
    endloop
  endfacet
  facet normal -7.071068e-001  0.000000e+000 -7.071068e-001
    outer loop
      vertex -6.315789e-002 -7.812500e-003 -2.277960e-002
      vertex -5.893915e-001 -6.250000e-002  5.034540e-001
      vertex -7.500000e-001 -7.812500e-003  6.640625e-001
    endloop
  endfacet
  facet normal -7.071068e-001  0.000000e+000 -7.071068e-001
    outer loop
      vertex -4.375000e-001 -1.250000e-001  3.515625e-001
      vertex -5.893915e-001 -1.250000e-001  5.034540e-001
      vertex -4.375000e-001 -6.250000e-002  3.515625e-001
    endloop
  endfacet
  facet normal -7.071068e-001  0.000000e+000 -7.071068e-001
    outer loop
      vertex -4.375000e-001 -6.250000e-002  3.515625e-001
      vertex -5.893915e-001 -1.250000e-001  5.034540e-001
      vertex -5.893915e-001 -6.250000e-002  5.034540e-001
    endloop
  endfacet
  facet normal -7.071068e-001  0.000000e+000 -7.071068e-001
    outer loop
      vertex -2.421875e-001 -1.250000e-001  1.562500e-001
      vertex -3.940789e-001 -1.250000e-001  3.081414e-001
      vertex -2.421875e-001 -6.250000e-002  1.562500e-001
    endloop
  endfacet
  facet normal -7.071068e-001  0.000000e+000 -7.071068e-001
    outer loop
      vertex -2.421875e-001 -6.250000e-002  1.562500e-001
      vertex -3.940789e-001 -1.250000e-001  3.081414e-001
      vertex -3.940789e-001 -6.250000e-002  3.081414e-001
    endloop
  endfacet
  facet normal -7.071068e-001  0.000000e+000 -7.071068e-001
    outer loop
      vertex -6.328125e-001 -1.250000e-001  5.468750e-001
      vertex -7.500000e-001 -1.250000e-001  6.640625e-001
      vertex -6.328125e-001 -6.250000e-002  5.468750e-001
    endloop
  endfacet
  facet normal -7.071068e-001  0.000000e+000 -7.071068e-001
    outer loop
      vertex -6.328125e-001 -6.250000e-002  5.468750e-001
      vertex -7.500000e-001 -1.250000e-001  6.640625e-001
      vertex -7.500000e-001 -7.812500e-003  6.640625e-001
    endloop
  endfacet
  facet normal -7.071068e-001  0.000000e+000 -7.071068e-001
    outer loop
      vertex -6.328125e-001 -6.250000e-002  5.468750e-001
      vertex -7.500000e-001 -7.812500e-003  6.640625e-001
      vertex -5.893915e-001 -6.250000e-002  5.034540e-001
    endloop
  endfacet
  facet normal  0.000000e+000 -1.000000e+000  0.000000e+000
    outer loop
      vertex -3.940789e-001 -1.250000e-001  3.081414e-001
      vertex -2.421875e-001 -1.250000e-001  1.562500e-001
      vertex -3.511102e-001 -1.250000e-001  3.520148e-001
    endloop
  endfacet
  facet normal  0.000000e+000 -1.000000e+000  0.000000e+000
    outer loop
      vertex -3.511102e-001 -1.250000e-001  3.520148e-001
      vertex -2.421875e-001 -1.250000e-001  1.562500e-001
      vertex -1.987664e-001 -1.250000e-001  1.996711e-001
    endloop
  endfacet
  facet normal  0.000000e+000 -1.000000e+000  0.000000e+000
    outer loop
      vertex -5.524272e-003 -1.250000e-001 -4.619666e-003
      vertex -6.315789e-002 -1.250000e-001 -2.277960e-002
      vertex -2.368421e-002 -1.250000e-001 -2.277960e-002
    endloop
  endfacet
  facet normal  0.000000e+000 -1.000000e+000  0.000000e+000
    outer loop
      vertex -1.987664e-001 -1.250000e-001  1.128289e-001
      vertex -6.315789e-002 -1.250000e-001 -2.277960e-002
      vertex -5.524272e-003 -1.250000e-001 -4.619666e-003
    endloop
  endfacet
  facet normal  0.000000e+000 -1.000000e+000  0.000000e+000
    outer loop
      vertex -1.987664e-001 -1.250000e-001  1.128289e-001
      vertex -5.524272e-003 -1.250000e-001 -4.619666e-003
      vertex -4.552687e-003 -1.250000e-001 -3.435787e-003
    endloop
  endfacet
  facet normal  0.000000e+000 -1.000000e+000  0.000000e+000
    outer loop
      vertex -1.987664e-001 -1.250000e-001  1.128289e-001
      vertex -4.552687e-003 -1.250000e-001 -3.435787e-003
      vertex -3.830735e-003 -1.250000e-001 -2.085109e-003
    endloop
  endfacet
  facet normal  0.000000e+000 -1.000000e+000  0.000000e+000
    outer loop
      vertex -1.987664e-001 -1.250000e-001  1.128289e-001
      vertex -3.830735e-003 -1.250000e-001 -2.085109e-003
      vertex -3.386158e-003 -1.250000e-001 -6.195379e-004
    endloop
  endfacet
  facet normal  0.000000e+000 -1.000000e+000  0.000000e+000
    outer loop
      vertex -1.987664e-001 -1.250000e-001  1.128289e-001
      vertex -3.386158e-003 -1.250000e-001 -6.195379e-004
      vertex -3.236043e-003 -1.250000e-001  9.046053e-004
    endloop
  endfacet
  facet normal  0.000000e+000 -1.000000e+000  0.000000e+000
    outer loop
      vertex -1.987664e-001 -1.250000e-001  1.128289e-001
      vertex -3.236043e-003 -1.250000e-001  9.046053e-004
      vertex -3.386158e-003 -1.250000e-001  2.428748e-003
    endloop
  endfacet
  facet normal  0.000000e+000 -9.999999e-001  0.000000e+000
    outer loop
      vertex -1.987664e-001 -1.250000e-001  1.128289e-001
      vertex -3.386158e-003 -1.250000e-001  2.428748e-003
      vertex -3.830735e-003 -1.250000e-001  3.894320e-003
    endloop
  endfacet
  facet normal  0.000000e+000 -9.999999e-001  0.000000e+000
    outer loop
      vertex -1.987664e-001 -1.250000e-001  1.128289e-001
      vertex -3.830735e-003 -1.250000e-001  3.894320e-003
      vertex -4.552687e-003 -1.250000e-001  5.244998e-003
    endloop
  endfacet
  facet normal  0.000000e+000 -1.000000e+000  0.000000e+000
    outer loop
      vertex -1.987664e-001 -1.250000e-001  1.128289e-001
      vertex -4.552687e-003 -1.250000e-001  5.244998e-003
      vertex -5.524272e-003 -1.250000e-001  6.428877e-003
    endloop
  endfacet
  facet normal  0.000000e+000 -9.999999e-001  0.000000e+000
    outer loop
      vertex -1.987664e-001 -1.250000e-001  1.128289e-001
      vertex -5.524272e-003 -1.250000e-001  6.428877e-003
      vertex -1.557977e-001 -1.250000e-001  1.567023e-001
    endloop
  endfacet
  facet normal  7.071068e-001  0.000000e+000  7.071068e-001
    outer loop
      vertex -5.524272e-003 -7.812500e-003  6.428877e-003
      vertex -7.184210e-001 -7.812500e-003  7.193257e-001
      vertex -1.987664e-001 -6.250000e-002  1.996711e-001
    endloop
  endfacet
  facet normal  7.135241e-001 -5.252748e-002  6.986588e-001
    outer loop
      vertex -5.524272e-003 -7.812500e-003  6.428877e-003
      vertex -1.987664e-001 -6.250000e-002  1.996711e-001
      vertex -1.562500e-001 -6.250000e-002  1.562500e-001
    endloop
  endfacet
  facet normal  7.030682e-001  1.023391e-002  7.110488e-001
    outer loop
      vertex -5.524272e-003 -7.812500e-003  6.428877e-003
      vertex -1.562500e-001 -6.250000e-002  1.562500e-001
      vertex -1.557977e-001 -1.250000e-001  1.567023e-001
    endloop
  endfacet
  facet normal  7.071068e-001  0.000000e+000  7.071067e-001
    outer loop
      vertex -5.524272e-003 -7.812500e-003  6.428877e-003
      vertex -1.557977e-001 -1.250000e-001  1.567023e-001
      vertex -5.524272e-003 -1.250000e-001  6.428877e-003
    endloop
  endfacet
  facet normal  7.071069e-001  -0.000000e+000  7.071066e-001
    outer loop
      vertex -7.184210e-001 -7.812500e-003  7.193257e-001
      vertex -7.184210e-001 -1.250000e-001  7.193257e-001
      vertex -5.893915e-001 -1.250000e-001  5.902960e-001
    endloop
  endfacet
  facet normal  7.071069e-001  -0.000000e+000  7.071066e-001
    outer loop
      vertex -7.184210e-001 -7.812500e-003  7.193257e-001
      vertex -5.893915e-001 -1.250000e-001  5.902960e-001
      vertex -5.893915e-001 -6.250000e-002  5.902960e-001
    endloop
  endfacet
  facet normal  7.140698e-001  3.509698e-002  6.991941e-001
    outer loop
      vertex -7.184210e-001 -7.812500e-003  7.193257e-001
      vertex -5.893915e-001 -6.250000e-002  5.902960e-001
      vertex -5.468750e-001 -6.250000e-002  5.468750e-001
    endloop
  endfacet
  facet normal  7.047858e-001 -2.489460e-002  7.089832e-001
    outer loop
      vertex -7.184210e-001 -7.812500e-003  7.193257e-001
      vertex -5.468750e-001 -6.250000e-002  5.468750e-001
      vertex -3.940789e-001 -6.250000e-002  3.949836e-001
    endloop
  endfacet
  facet normal  7.117422e-001  8.794346e-002  6.969140e-001
    outer loop
      vertex -7.184210e-001 -7.812500e-003  7.193257e-001
      vertex -3.940789e-001 -6.250000e-002  3.949836e-001
      vertex -3.515625e-001 -6.250000e-002  3.515625e-001
    endloop
  endfacet
  facet normal  7.044438e-001 -3.986629e-002  7.086393e-001
    outer loop
      vertex -7.184210e-001 -7.812500e-003  7.193257e-001
      vertex -3.515625e-001 -6.250000e-002  3.515625e-001
      vertex -1.987664e-001 -6.250000e-002  1.996711e-001
    endloop
  endfacet
  facet normal  7.070698e-001  1.023407e-002  7.070698e-001
    outer loop
      vertex -3.511102e-001 -1.250000e-001  3.520148e-001
      vertex -1.987664e-001 -1.250000e-001  1.996711e-001
      vertex -3.515625e-001 -6.250000e-002  3.515625e-001
    endloop
  endfacet
  facet normal  7.050043e-001  0.000000e+000  7.092031e-001
    outer loop
      vertex -3.515625e-001 -6.250000e-002  3.515625e-001
      vertex -1.987664e-001 -1.250000e-001  1.996711e-001
      vertex -1.987664e-001 -6.250000e-002  1.996711e-001
    endloop
  endfacet
  facet normal  7.070696e-001  1.023339e-002  7.070699e-001
    outer loop
      vertex -5.464227e-001 -1.250000e-001  5.473273e-001
      vertex -3.940789e-001 -1.250000e-001  3.949836e-001
      vertex -5.468750e-001 -6.250000e-002  5.468750e-001
    endloop
  endfacet
  facet normal  7.050043e-001  0.000000e+000  7.092031e-001
    outer loop
      vertex -5.468750e-001 -6.250000e-002  5.468750e-001
      vertex -3.940789e-001 -1.250000e-001  3.949836e-001
      vertex -3.940789e-001 -6.250000e-002  3.949836e-001
    endloop
  endfacet
  facet normal  -0.000000e+000 -1.000000e+000  0.000000e+000
    outer loop
      vertex -1.987664e-001 -6.250000e-002  1.128289e-001
      vertex -1.562500e-001 -6.250000e-002  1.562500e-001
      vertex -2.421875e-001 -6.250000e-002  1.562500e-001
    endloop
  endfacet
  facet normal  0.000000e+000 -9.999999e-001  0.000000e+000
    outer loop
      vertex -2.421875e-001 -6.250000e-002  1.562500e-001
      vertex -1.562500e-001 -6.250000e-002  1.562500e-001
      vertex -1.987664e-001 -6.250000e-002  1.996711e-001
    endloop
  endfacet
  facet normal  7.071068e-001  0.000000e+000 -7.071068e-001
    outer loop
      vertex -1.987664e-001 -1.250000e-001  1.996711e-001
      vertex -2.421875e-001 -1.250000e-001  1.562500e-001
      vertex -1.987664e-001 -6.250000e-002  1.996711e-001
    endloop
  endfacet
  facet normal  7.071068e-001  0.000000e+000 -7.071068e-001
    outer loop
      vertex -1.987664e-001 -6.250000e-002  1.996711e-001
      vertex -2.421875e-001 -1.250000e-001  1.562500e-001
      vertex -2.421875e-001 -6.250000e-002  1.562500e-001
    endloop
  endfacet
  facet normal -7.144338e-001  0.000000e+000  6.997030e-001
    outer loop
      vertex -1.987664e-001 -1.250000e-001  1.128289e-001
      vertex -1.557977e-001 -1.250000e-001  1.567023e-001
      vertex -1.987664e-001 -6.250000e-002  1.128289e-001
    endloop
  endfacet
  facet normal -7.145105e-001 -1.077275e-004  6.996247e-001
    outer loop
      vertex -1.987664e-001 -6.250000e-002  1.128289e-001
      vertex -1.557977e-001 -1.250000e-001  1.567023e-001
      vertex -1.562500e-001 -6.250000e-002  1.562500e-001
    endloop
  endfacet
  facet normal  0.000000e+000 -1.000000e+000  0.000000e+000
    outer loop
      vertex -5.893915e-001 -1.250000e-001  5.034540e-001
      vertex -4.375000e-001 -1.250000e-001  3.515625e-001
      vertex -5.464227e-001 -1.250000e-001  5.473273e-001
    endloop
  endfacet
  facet normal  0.000000e+000 -1.000000e+000  0.000000e+000
    outer loop
      vertex -5.464227e-001 -1.250000e-001  5.473273e-001
      vertex -4.375000e-001 -1.250000e-001  3.515625e-001
      vertex -3.940789e-001 -1.250000e-001  3.949836e-001
    endloop
  endfacet
  facet normal  -0.000000e+000 -9.999999e-001  0.000000e+000
    outer loop
      vertex -3.940789e-001 -6.250000e-002  3.081414e-001
      vertex -3.515625e-001 -6.250000e-002  3.515625e-001
      vertex -4.375000e-001 -6.250000e-002  3.515625e-001
    endloop
  endfacet
  facet normal  0.000000e+000 -9.999999e-001  0.000000e+000
    outer loop
      vertex -4.375000e-001 -6.250000e-002  3.515625e-001
      vertex -3.515625e-001 -6.250000e-002  3.515625e-001
      vertex -3.940789e-001 -6.250000e-002  3.949836e-001
    endloop
  endfacet
  facet normal  7.071068e-001  0.000000e+000 -7.071068e-001
    outer loop
      vertex -3.940789e-001 -1.250000e-001  3.949836e-001
      vertex -4.375000e-001 -1.250000e-001  3.515625e-001
      vertex -3.940789e-001 -6.250000e-002  3.949836e-001
    endloop
  endfacet
  facet normal  7.071068e-001  0.000000e+000 -7.071068e-001
    outer loop
      vertex -3.940789e-001 -6.250000e-002  3.949836e-001
      vertex -4.375000e-001 -1.250000e-001  3.515625e-001
      vertex -4.375000e-001 -6.250000e-002  3.515625e-001
    endloop
  endfacet
  facet normal -7.144338e-001  0.000000e+000  6.997030e-001
    outer loop
      vertex -3.940789e-001 -1.250000e-001  3.081414e-001
      vertex -3.511102e-001 -1.250000e-001  3.520148e-001
      vertex -3.940789e-001 -6.250000e-002  3.081414e-001
    endloop
  endfacet
  facet normal -7.145105e-001 -1.077284e-004  6.996247e-001
    outer loop
      vertex -3.940789e-001 -6.250000e-002  3.081414e-001
      vertex -3.511102e-001 -1.250000e-001  3.520148e-001
      vertex -3.515625e-001 -6.250000e-002  3.515625e-001
    endloop
  endfacet
  facet normal  0.000000e+000 -1.000000e+000  0.000000e+000
    outer loop
      vertex -7.184210e-001 -1.250000e-001  7.193257e-001
      vertex -7.500000e-001 -1.250000e-001  7.193257e-001
      vertex -5.893915e-001 -1.250000e-001  5.902960e-001
    endloop
  endfacet
  facet normal  0.000000e+000 -1.000000e+000  0.000000e+000
    outer loop
      vertex -5.893915e-001 -1.250000e-001  5.902960e-001
      vertex -7.500000e-001 -1.250000e-001  7.193257e-001
      vertex -7.500000e-001 -1.250000e-001  6.640625e-001
    endloop
  endfacet
  facet normal  0.000000e+000 -1.000000e+000  0.000000e+000
    outer loop
      vertex -5.893915e-001 -1.250000e-001  5.902960e-001
      vertex -7.500000e-001 -1.250000e-001  6.640625e-001
      vertex -6.328125e-001 -1.250000e-001  5.468750e-001
    endloop
  endfacet
  facet normal  -0.000000e+000 -9.999999e-001  0.000000e+000
    outer loop
      vertex -5.893915e-001 -6.250000e-002  5.034540e-001
      vertex -5.468750e-001 -6.250000e-002  5.468750e-001
      vertex -6.328125e-001 -6.250000e-002  5.468750e-001
    endloop
  endfacet
  facet normal  0.000000e+000 -9.999999e-001  0.000000e+000
    outer loop
      vertex -6.328125e-001 -6.250000e-002  5.468750e-001
      vertex -5.468750e-001 -6.250000e-002  5.468750e-001
      vertex -5.893915e-001 -6.250000e-002  5.902960e-001
    endloop
  endfacet
  facet normal  7.071068e-001  0.000000e+000 -7.071068e-001
    outer loop
      vertex -5.893915e-001 -1.250000e-001  5.902960e-001
      vertex -6.328125e-001 -1.250000e-001  5.468750e-001
      vertex -5.893915e-001 -6.250000e-002  5.902960e-001
    endloop
  endfacet
  facet normal  7.071068e-001  0.000000e+000 -7.071068e-001
    outer loop
      vertex -5.893915e-001 -6.250000e-002  5.902960e-001
      vertex -6.328125e-001 -1.250000e-001  5.468750e-001
      vertex -6.328125e-001 -6.250000e-002  5.468750e-001
    endloop
  endfacet
  facet normal -7.144334e-001  0.000000e+000  6.997036e-001
    outer loop
      vertex -5.893915e-001 -1.250000e-001  5.034540e-001
      vertex -5.464227e-001 -1.250000e-001  5.473273e-001
      vertex -5.893915e-001 -6.250000e-002  5.034540e-001
    endloop
  endfacet
  facet normal -7.145100e-001 -1.077142e-004  6.996251e-001
    outer loop
      vertex -5.893915e-001 -6.250000e-002  5.034540e-001
      vertex -5.464227e-001 -1.250000e-001  5.473273e-001
      vertex -5.468750e-001 -6.250000e-002  5.468750e-001
    endloop
  endfacet
  facet normal -7.269544e-001  6.812208e-001  8.646126e-002
    outer loop
      vertex -5.524272e-003 -7.812500e-003 -4.619666e-003
      vertex -4.086751e-003 -7.429582e-003  4.449828e-003
      vertex -3.337175e-003 -6.338748e-003  2.157580e-003
    endloop
  endfacet
  facet normal  4.999998e-001  7.071071e-001  4.999998e-001
    outer loop
      vertex -1.104854e-002  8.414776e-018  9.046053e-004
      vertex -7.216571e-001  8.414776e-018  7.115132e-001
      vertex -7.184210e-001 -7.812500e-003  7.193257e-001
    endloop
  endfacet
  facet normal  4.999997e-001  7.071071e-001  4.999997e-001
    outer loop
      vertex -1.104854e-002  8.414776e-018  9.046053e-004
      vertex -7.184210e-001 -7.812500e-003  7.193257e-001
      vertex -5.524272e-003 -7.812500e-003  6.428877e-003
    endloop
  endfacet
  facet normal  5.000000e-001  7.071068e-001  5.000001e-001
    outer loop
      vertex -1.104854e-002  8.414776e-018  9.046053e-004
      vertex -5.524272e-003 -7.812500e-003  6.428877e-003
      vertex -4.086751e-003 -7.429582e-003  4.449828e-003
    endloop
  endfacet
  facet normal  7.557792e-001  6.381743e-001 -1.467355e-001
    outer loop
      vertex -1.104854e-002  8.414776e-018  9.046053e-004
      vertex -4.086751e-003 -7.429582e-003  4.449828e-003
      vertex -5.524272e-003 -7.812500e-003 -4.619666e-003
    endloop
  endfacet
  facet normal  7.071067e-001  0.000000e+000 -7.071068e-001
    outer loop
      vertex -2.368421e-002 -7.812500e-003 -2.277960e-002
      vertex -5.524272e-003 -7.812500e-003 -4.619666e-003
      vertex -2.368421e-002 -1.250000e-001 -2.277960e-002
    endloop
  endfacet
  facet normal  7.071067e-001  0.000000e+000 -7.071068e-001
    outer loop
      vertex -2.368421e-002 -1.250000e-001 -2.277960e-002
      vertex -5.524272e-003 -7.812500e-003 -4.619666e-003
      vertex -5.524272e-003 -1.250000e-001 -4.619666e-003
    endloop
  endfacet
  facet normal  5.000000e-001  7.071067e-001 -5.000001e-001
    outer loop
      vertex -2.368421e-002 -7.812500e-003 -2.277960e-002
      vertex -2.692025e-002  4.890548e-018 -1.496711e-002
      vertex -5.524272e-003 -7.812500e-003 -4.619666e-003
    endloop
  endfacet
  facet normal  5.000001e-001  7.071068e-001 -5.000000e-001
    outer loop
      vertex -5.524272e-003 -7.812500e-003 -4.619666e-003
      vertex -2.692025e-002  4.890548e-018 -1.496711e-002
      vertex -1.104854e-002  8.414776e-018  9.046053e-004
    endloop
  endfacet
  facet normal  8.090126e-001  7.692871e-004  5.877908e-001
    outer loop
      vertex -5.524272e-003 -7.812500e-003  6.428877e-003
      vertex -4.552687e-003 -1.250000e-001  5.244998e-003
      vertex -4.086751e-003 -7.429582e-003  4.449828e-003
    endloop
  endfacet
  facet normal  7.730104e-001  -0.000000e+000  6.343933e-001
    outer loop
      vertex -5.524272e-003 -7.812500e-003  6.428877e-003
      vertex -5.524272e-003 -1.250000e-001  6.428877e-003
      vertex -4.552687e-003 -1.250000e-001  5.244998e-003
    endloop
  endfacet
  facet normal  8.819213e-001 -3.068676e-004  4.713966e-001
    outer loop
      vertex -4.086751e-003 -7.429582e-003  4.449828e-003
      vertex -4.552687e-003 -1.250000e-001  5.244998e-003
      vertex -3.830735e-003 -1.250000e-001  3.894320e-003
    endloop
  endfacet
  facet normal  9.569401e-001  7.122265e-004  2.902846e-001
    outer loop
      vertex -4.086751e-003 -7.429582e-003  4.449828e-003
      vertex -3.830735e-003 -1.250000e-001  3.894320e-003
      vertex -3.386158e-003 -1.250000e-001  2.428748e-003
    endloop
  endfacet
  facet normal  9.504275e-001  3.182422e-004  3.109460e-001
    outer loop
      vertex -3.337175e-003 -6.338748e-003  2.157580e-003
      vertex -4.086751e-003 -7.429582e-003  4.449828e-003
      vertex -3.386158e-003 -1.250000e-001  2.428748e-003
    endloop
  endfacet
  facet normal  9.951847e-001 -1.868247e-004  9.801713e-002
    outer loop
      vertex -3.337175e-003 -6.338748e-003  2.157580e-003
      vertex -3.386158e-003 -1.250000e-001  2.428748e-003
      vertex -3.236043e-003 -1.250000e-001  9.046053e-004
    endloop
  endfacet
  facet normal  9.951830e-001  1.883149e-003 -9.801697e-002
    outer loop
      vertex -3.337175e-003 -6.338748e-003  2.157580e-003
      vertex -3.236043e-003 -1.250000e-001  9.046053e-004
      vertex -3.386158e-003 -1.250000e-001 -6.195379e-004
    endloop
  endfacet
  facet normal  9.569207e-001  6.398590e-003 -2.902787e-001
    outer loop
      vertex -3.337175e-003 -6.338748e-003  2.157580e-003
      vertex -3.386158e-003 -1.250000e-001 -6.195379e-004
      vertex -3.830735e-003 -1.250000e-001 -2.085109e-003
    endloop
  endfacet
  facet normal  8.818446e-001  1.318520e-002 -4.713557e-001
    outer loop
      vertex -3.337175e-003 -6.338748e-003  2.157580e-003
      vertex -3.830735e-003 -1.250000e-001 -2.085109e-003
      vertex -4.552687e-003 -1.250000e-001 -3.435787e-003
    endloop
  endfacet
  facet normal  7.728237e-001  2.197989e-002 -6.342401e-001
    outer loop
      vertex -3.337175e-003 -6.338748e-003  2.157580e-003
      vertex -4.552687e-003 -1.250000e-001 -3.435787e-003
      vertex -5.524272e-003 -1.250000e-001 -4.619666e-003
    endloop
  endfacet
  facet normal  9.516721e-001  0.000000e+000 -3.071158e-001
    outer loop
      vertex -3.337175e-003 -6.338748e-003  2.157580e-003
      vertex -5.524272e-003 -1.250000e-001 -4.619666e-003
      vertex -5.524272e-003 -7.812500e-003 -4.619666e-003
    endloop
  endfacet
  facet normal -1.110223e-016  1.000000e+000 -1.110223e-016
    outer loop
      vertex -7.216571e-001  8.414776e-018  7.115132e-001
      vertex -1.104854e-002  8.414776e-018  9.046053e-004
      vertex -7.421875e-001  6.135443e-018  7.115132e-001
    endloop
  endfacet
  facet normal -1.110223e-016  1.000000e+000 -1.110223e-016
    outer loop
      vertex -7.421875e-001  6.135443e-018  7.115132e-001
      vertex -1.104854e-002  8.414776e-018  9.046053e-004
      vertex -7.421875e-001  1.226635e-018  6.672986e-001
    endloop
  endfacet
  facet normal -1.110223e-016  1.000000e+000 -1.110223e-016
    outer loop
      vertex -1.104854e-002  8.414776e-018  9.046053e-004
      vertex -2.692025e-002  4.890548e-018 -1.496711e-002
      vertex -7.421875e-001  1.226635e-018  6.672986e-001
    endloop
  endfacet
  facet normal -1.110223e-016  1.000000e+000 -1.110223e-016
    outer loop
      vertex -7.421875e-001  1.226635e-018  6.672986e-001
      vertex -2.692025e-002  4.890548e-018 -1.496711e-002
      vertex -5.992185e-002  1.226635e-018 -1.496711e-002
    endloop
  endfacet
  facet normal -1.000000e+000  0.000000e+000  0.000000e+000
    outer loop
      vertex -7.500000e-001 -7.812500e-003  7.193257e-001
      vertex -7.500000e-001 -7.812500e-003  6.640625e-001
      vertex -7.500000e-001 -1.250000e-001  7.193257e-001
    endloop
  endfacet
  facet normal -1.000000e+000  0.000000e+000  0.000000e+000
    outer loop
      vertex -7.500000e-001 -1.250000e-001  7.193257e-001
      vertex -7.500000e-001 -7.812500e-003  6.640625e-001
      vertex -7.500000e-001 -1.250000e-001  6.640625e-001
    endloop
  endfacet
  facet normal  -0.000000e+000  0.000000e+000  1.000000e+000
    outer loop
      vertex -7.184210e-001 -7.812500e-003  7.193257e-001
      vertex -7.500000e-001 -7.812500e-003  7.193257e-001
      vertex -7.184210e-001 -1.250000e-001  7.193257e-001
    endloop
  endfacet
  facet normal  0.000000e+000  0.000000e+000  1.000000e+000
    outer loop
      vertex -7.184210e-001 -1.250000e-001  7.193257e-001
      vertex -7.500000e-001 -7.812500e-003  7.193257e-001
      vertex -7.500000e-001 -1.250000e-001  7.193257e-001
    endloop
  endfacet
  facet normal  -0.000000e+000  0.000000e+000 -1.000000e+000
    outer loop
      vertex -6.315789e-002 -7.812500e-003 -2.277960e-002
      vertex -2.368421e-002 -7.812500e-003 -2.277960e-002
      vertex -6.315789e-002 -1.250000e-001 -2.277960e-002
    endloop
  endfacet
  facet normal  0.000000e+000  0.000000e+000 -1.000000e+000
    outer loop
      vertex -6.315789e-002 -1.250000e-001 -2.277960e-002
      vertex -2.368421e-002 -7.812500e-003 -2.277960e-002
      vertex -2.368421e-002 -1.250000e-001 -2.277960e-002
    endloop
  endfacet
  facet normal  0.000000e+000  7.071068e-001  7.071068e-001
    outer loop
      vertex -7.184210e-001 -7.812500e-003  7.193257e-001
      vertex -7.216571e-001  8.414776e-018  7.115132e-001
      vertex -7.500000e-001 -7.812500e-003  7.193257e-001
    endloop
  endfacet
  facet normal  0.000000e+000  7.071068e-001  7.071068e-001
    outer loop
      vertex -7.500000e-001 -7.812500e-003  7.193257e-001
      vertex -7.216571e-001  8.414776e-018  7.115132e-001
      vertex -7.421875e-001  6.135443e-018  7.115132e-001
    endloop
  endfacet
  facet normal  0.000000e+000  7.071067e-001 -7.071068e-001
    outer loop
      vertex -6.315789e-002 -7.812500e-003 -2.277960e-002
      vertex -5.992185e-002  1.226635e-018 -1.496711e-002
      vertex -2.368421e-002 -7.812500e-003 -2.277960e-002
    endloop
  endfacet
  facet normal  0.000000e+000  7.071067e-001 -7.071068e-001
    outer loop
      vertex -2.368421e-002 -7.812500e-003 -2.277960e-002
      vertex -5.992185e-002  1.226635e-018 -1.496711e-002
      vertex -2.692025e-002  4.890548e-018 -1.496711e-002
    endloop
  endfacet
  facet normal -4.999997e-001  7.071072e-001 -4.999997e-001
    outer loop
      vertex -7.500000e-001 -7.812500e-003  6.640625e-001
      vertex -7.421875e-001  1.226635e-018  6.672986e-001
      vertex -6.315789e-002 -7.812500e-003 -2.277960e-002
    endloop
  endfacet
  facet normal -5.000000e-001  7.071068e-001 -5.000000e-001
    outer loop
      vertex -6.315789e-002 -7.812500e-003 -2.277960e-002
      vertex -7.421875e-001  1.226635e-018  6.672986e-001
      vertex -5.992185e-002  1.226635e-018 -1.496711e-002
    endloop
  endfacet
  facet normal -7.071068e-001  7.071068e-001  0.000000e+000
    outer loop
      vertex -7.500000e-001 -7.812500e-003  7.193257e-001
      vertex -7.421875e-001  6.135443e-018  7.115132e-001
      vertex -7.500000e-001 -7.812500e-003  6.640625e-001
    endloop
  endfacet
  facet normal -7.071068e-001  7.071068e-001  0.000000e+000
    outer loop
      vertex -7.500000e-001 -7.812500e-003  6.640625e-001
      vertex -7.421875e-001  6.135443e-018  7.115132e-001
      vertex -7.421875e-001  1.226635e-018  6.672986e-001
    endloop
  endfacet
endsolid CATIA STL
