solid CATIA STL
  facet normal  6.376698e-005 -9.952883e-001  9.696022e-002
    outer loop
      vertex -6.171875e-001 -3.984375e-001 -1.562500e-002
      vertex  6.286713e-001 -3.980000e-001 -1.195347e-002
      vertex -6.186950e-001 -3.981439e-001 -1.261010e-002
    endloop
  endfacet
  facet normal  0.000000e+000 -9.929752e-001  1.183226e-001
    outer loop
      vertex -6.171875e-001 -3.984375e-001 -1.562500e-002
      vertex  6.250000e-001 -3.984375e-001 -1.562500e-002
      vertex  6.286713e-001 -3.980000e-001 -1.195347e-002
    endloop
  endfacet
  facet normal -3.516644e-005 -9.607730e-001  2.773360e-001
    outer loop
      vertex -6.199973e-001 -3.973920e-001 -1.000542e-002
      vertex -6.186950e-001 -3.981439e-001 -1.261010e-002
      vertex  6.286713e-001 -3.980000e-001 -1.195347e-002
    endloop
  endfacet
  facet normal  8.989857e-005 -9.367489e-001  3.500022e-001
    outer loop
      vertex  6.286713e-001 -3.980000e-001 -1.195347e-002
      vertex  6.321893e-001 -3.966853e-001 -8.435703e-003
      vertex -6.199973e-001 -3.973920e-001 -1.000542e-002
    endloop
  endfacet
  facet normal  4.570279e-007 -9.119929e-001  4.102060e-001
    outer loop
      vertex -6.199973e-001 -3.973920e-001 -1.000542e-002
      vertex  6.321893e-001 -3.966853e-001 -8.435703e-003
      vertex -6.207776e-001 -3.966900e-001 -8.444842e-003
    endloop
  endfacet
  facet normal -6.563035e-007 -8.481569e-001  5.297451e-001
    outer loop
      vertex -6.207776e-001 -3.966900e-001 -8.444842e-003
      vertex  6.321893e-001 -3.966853e-001 -8.435703e-003
      vertex  6.343122e-001 -3.953594e-001 -6.312838e-003
    endloop
  endfacet
  facet normal  5.267177e-005 -8.619643e-001  5.069689e-001
    outer loop
      vertex -6.207776e-001 -3.966900e-001 -8.444842e-003
      vertex  6.343122e-001 -3.953594e-001 -6.312838e-003
      vertex -6.215069e-001 -3.958322e-001 -6.986206e-003
    endloop
  endfacet
  facet normal -1.861830e-005 -8.017566e-001  5.976508e-001
    outer loop
      vertex  6.343122e-001 -3.953594e-001 -6.312838e-003
      vertex -6.221925e-001 -3.948100e-001 -5.614946e-003
      vertex -6.215069e-001 -3.958322e-001 -6.986206e-003
    endloop
  endfacet
  facet normal  3.685558e-005 -7.524178e-001  6.586862e-001
    outer loop
      vertex -6.221925e-001 -3.948100e-001 -5.614946e-003
      vertex  6.343122e-001 -3.953594e-001 -6.312838e-003
      vertex  6.362055e-001 -3.937018e-001 -4.419494e-003
    endloop
  endfacet
  facet normal -2.521889e-006 -7.320473e-001  6.812538e-001
    outer loop
      vertex -6.221925e-001 -3.948100e-001 -5.614946e-003
      vertex  6.362055e-001 -3.937018e-001 -4.419494e-003
      vertex -6.228114e-001 -3.936580e-001 -4.377111e-003
    endloop
  endfacet
  facet normal  3.821858e-006 -6.366471e-001  7.711553e-001
    outer loop
      vertex -6.228114e-001 -3.936580e-001 -4.377111e-003
      vertex  6.362055e-001 -3.937018e-001 -4.419494e-003
      vertex  6.378142e-001 -3.917533e-001 -2.810814e-003
    endloop
  endfacet
  facet normal  4.731187e-005 -6.536342e-001  7.568107e-001
    outer loop
      vertex -6.228114e-001 -3.936580e-001 -4.377111e-003
      vertex  6.378142e-001 -3.917533e-001 -2.810814e-003
      vertex -6.233708e-001 -3.923628e-001 -3.258393e-003
    endloop
  endfacet
  facet normal -1.802313e-005 -5.673832e-001  8.234539e-001
    outer loop
      vertex  6.378142e-001 -3.917533e-001 -2.810814e-003
      vertex -6.238518e-001 -3.909667e-001 -2.296437e-003
      vertex -6.233708e-001 -3.923628e-001 -3.258393e-003
    endloop
  endfacet
  facet normal  3.798506e-005 -5.039055e-001  8.637588e-001
    outer loop
      vertex -6.238518e-001 -3.909667e-001 -2.296437e-003
      vertex  6.378142e-001 -3.917533e-001 -2.810814e-003
      vertex  6.390899e-001 -3.895665e-001 -1.535117e-003
    endloop
  endfacet
  facet normal -1.809308e-005 -2.715180e-001  9.624334e-001
    outer loop
      vertex -6.248118e-001 -3.862210e-001 -3.763081e-004
      vertex -6.245784e-001 -3.878760e-001 -8.432010e-004
      vertex  6.399947e-001 -3.872057e-001 -6.303216e-004
    endloop
  endfacet
  facet normal  3.856359e-005 -2.030592e-001  9.791665e-001
    outer loop
      vertex  6.399947e-001 -3.872057e-001 -6.303216e-004
      vertex  6.405051e-001 -3.847440e-001 -1.198473e-004
      vertex -6.248118e-001 -3.862210e-001 -3.763081e-004
    endloop
  endfacet
  facet normal  3.251692e-005 -3.578907e-001  9.337634e-001
    outer loop
      vertex  6.399947e-001 -3.872057e-001 -6.303216e-004
      vertex -6.245784e-001 -3.878760e-001 -8.432010e-004
      vertex  6.390899e-001 -3.895665e-001 -1.535117e-003
    endloop
  endfacet
  facet normal  5.607461e-006 -3.752130e-001  9.269387e-001
    outer loop
      vertex  6.390899e-001 -3.895665e-001 -1.535117e-003
      vertex -6.245784e-001 -3.878760e-001 -8.432010e-004
      vertex -6.242584e-001 -3.894570e-001 -1.483177e-003
    endloop
  endfacet
  facet normal -4.887505e-006 -4.742721e-001  8.803782e-001
    outer loop
      vertex  6.390899e-001 -3.895665e-001 -1.535117e-003
      vertex -6.242584e-001 -3.894570e-001 -1.483177e-003
      vertex -6.238518e-001 -3.909667e-001 -2.296437e-003
    endloop
  endfacet
  facet normal  1.368015e-018 -6.192821e-002  9.980806e-001
    outer loop
      vertex  6.406250e-001 -3.828125e-001 -1.734723e-018
      vertex -6.250000e-001 -3.828125e-001  0.000000e+000
      vertex  6.405051e-001 -3.847440e-001 -1.198473e-004
    endloop
  endfacet
  facet normal  1.056311e-005 -5.503257e-002  9.984846e-001
    outer loop
      vertex  6.405051e-001 -3.847440e-001 -1.198473e-004
      vertex -6.250000e-001 -3.828125e-001  0.000000e+000
      vertex -6.249527e-001 -3.845297e-001 -9.464312e-005
    endloop
  endfacet
  facet normal -8.184458e-006 -1.642690e-001  9.864155e-001
    outer loop
      vertex  6.405051e-001 -3.847440e-001 -1.198473e-004
      vertex -6.249527e-001 -3.845297e-001 -9.464312e-005
      vertex -6.248118e-001 -3.862210e-001 -3.763081e-004
    endloop
  endfacet
  facet normal -1.168545e-001 -9.931480e-001 -1.496342e-003
    outer loop
      vertex -6.171875e-001 -3.984375e-001 -5.468750e-002
      vertex -6.202024e-001 -3.981439e-001 -1.411755e-002
      vertex -6.208588e-001 -3.980000e-001 -5.835903e-002
    endloop
  endfacet
  facet normal -9.692787e-002 -9.952914e-001  -0.000000e+000
    outer loop
      vertex -6.171875e-001 -3.984375e-001 -5.468750e-002
      vertex -6.171875e-001 -3.984375e-001 -1.562500e-002
      vertex -6.202024e-001 -3.981439e-001 -1.411755e-002
    endloop
  endfacet
  facet normal -9.791368e-001 -2.032006e-001 -7.887248e-004
    outer loop
      vertex -6.326926e-001 -3.847440e-001 -7.019265e-002
      vertex -6.321822e-001 -3.872057e-001 -6.968218e-002
      vertex -6.324362e-001 -3.862210e-001 -8.000654e-003
    endloop
  endfacet
  facet normal -8.638082e-001 -5.038208e-001  1.708646e-004
    outer loop
      vertex -6.313293e-001 -3.894570e-001 -8.554089e-003
      vertex -6.312774e-001 -3.895665e-001 -6.877738e-002
      vertex -6.300017e-001 -3.917533e-001 -6.750169e-002
    endloop
  endfacet
  facet normal -8.805353e-001 -4.739784e-001 -1.368345e-003
    outer loop
      vertex -6.313293e-001 -3.894570e-001 -8.554089e-003
      vertex -6.300017e-001 -3.917533e-001 -6.750169e-002
      vertex -6.305161e-001 -3.909667e-001 -8.960718e-003
    endloop
  endfacet
  facet normal -8.233929e-001 -5.674715e-001  3.900005e-004
    outer loop
      vertex -6.300017e-001 -3.917533e-001 -6.750169e-002
      vertex -6.295541e-001 -3.923628e-001 -9.441696e-003
      vertex -6.305161e-001 -3.909667e-001 -8.960718e-003
    endloop
  endfacet
  facet normal -7.708566e-001 -6.370082e-001 -7.449907e-004
    outer loop
      vertex -6.295541e-001 -3.923628e-001 -9.441696e-003
      vertex -6.300017e-001 -3.917533e-001 -6.750169e-002
      vertex -6.283930e-001 -3.937018e-001 -6.589300e-002
    endloop
  endfacet
  facet normal -7.568135e-001 -6.536309e-001 -6.185544e-005
    outer loop
      vertex -6.295541e-001 -3.923628e-001 -9.441696e-003
      vertex -6.283930e-001 -3.937018e-001 -6.589300e-002
      vertex -6.284354e-001 -3.936580e-001 -1.000106e-002
    endloop
  endfacet
  facet normal -6.587583e-001 -7.523546e-001  8.982218e-005
    outer loop
      vertex -6.284354e-001 -3.936580e-001 -1.000106e-002
      vertex -6.283930e-001 -3.937018e-001 -6.589300e-002
      vertex -6.264997e-001 -3.953594e-001 -6.399966e-002
    endloop
  endfacet
  facet normal -6.816313e-001 -7.316945e-001 -1.381060e-003
    outer loop
      vertex -6.284354e-001 -3.936580e-001 -1.000106e-002
      vertex -6.264997e-001 -3.953594e-001 -6.399966e-002
      vertex -6.271976e-001 -3.948100e-001 -1.061997e-002
    endloop
  endfacet
  facet normal -5.975137e-001 -8.018585e-001  4.408877e-004
    outer loop
      vertex -6.264997e-001 -3.953594e-001 -6.399966e-002
      vertex -6.258263e-001 -3.958322e-001 -1.130560e-002
      vertex -6.271976e-001 -3.948100e-001 -1.061997e-002
    endloop
  endfacet
  facet normal -5.291289e-001 -8.485410e-001 -8.518177e-004
    outer loop
      vertex -6.258263e-001 -3.958322e-001 -1.130560e-002
      vertex -6.264997e-001 -3.953594e-001 -6.399966e-002
      vertex -6.243768e-001 -3.966853e-001 -6.187680e-002
    endloop
  endfacet
  facet normal -5.069430e-001 -8.619796e-001  1.080461e-005
    outer loop
      vertex -6.258263e-001 -3.958322e-001 -1.130560e-002
      vertex -6.243768e-001 -3.966853e-001 -6.187680e-002
      vertex -6.243677e-001 -3.966900e-001 -1.203492e-002
    endloop
  endfacet
  facet normal -4.102131e-001 -9.119897e-001 -1.164851e-005
    outer loop
      vertex -6.228071e-001 -3.973920e-001 -1.281521e-002
      vertex -6.243677e-001 -3.966900e-001 -1.203492e-002
      vertex -6.243768e-001 -3.966853e-001 -6.187680e-002
    endloop
  endfacet
  facet normal -3.479808e-001 -9.374986e-001 -2.370148e-003
    outer loop
      vertex -6.243768e-001 -3.966853e-001 -6.187680e-002
      vertex -6.208588e-001 -3.980000e-001 -5.835903e-002
      vertex -6.228071e-001 -3.973920e-001 -1.281521e-002
    endloop
  endfacet
  facet normal -2.769000e-001 -9.608982e-001  9.829784e-004
    outer loop
      vertex -6.228071e-001 -3.973920e-001 -1.281521e-002
      vertex -6.208588e-001 -3.980000e-001 -5.835903e-002
      vertex -6.202024e-001 -3.981439e-001 -1.411755e-002
    endloop
  endfacet
  facet normal -9.984842e-001 -5.503811e-002  0.000000e+000
    outer loop
      vertex -6.328125e-001 -3.828125e-001 -7.812500e-003
      vertex -6.328125e-001 -3.828125e-001 -7.031250e-002
      vertex -6.327178e-001 -3.845297e-001 -7.859821e-003
    endloop
  endfacet
  facet normal -9.980792e-001 -6.194904e-002 -1.906314e-004
    outer loop
      vertex -6.327178e-001 -3.845297e-001 -7.859821e-003
      vertex -6.328125e-001 -3.828125e-001 -7.031250e-002
      vertex -6.326926e-001 -3.847440e-001 -7.019265e-002
    endloop
  endfacet
  facet normal -9.864166e-001 -1.642631e-001  1.660019e-004
    outer loop
      vertex -6.327178e-001 -3.845297e-001 -7.859821e-003
      vertex -6.326926e-001 -3.847440e-001 -7.019265e-002
      vertex -6.324362e-001 -3.862210e-001 -8.000654e-003
    endloop
  endfacet
  facet normal -9.337475e-001 -3.579325e-001 -1.545261e-004
    outer loop
      vertex -6.312774e-001 -3.895665e-001 -6.877738e-002
      vertex -6.313293e-001 -3.894570e-001 -8.554089e-003
      vertex -6.321822e-001 -3.872057e-001 -6.968218e-002
    endloop
  endfacet
  facet normal -9.269999e-001 -3.750604e-001 -8.794849e-004
    outer loop
      vertex -6.321822e-001 -3.872057e-001 -6.968218e-002
      vertex -6.313293e-001 -3.894570e-001 -8.554089e-003
      vertex -6.319693e-001 -3.878760e-001 -8.234100e-003
    endloop
  endfacet
  facet normal -9.624127e-001 -2.715911e-001  3.719222e-004
    outer loop
      vertex -6.321822e-001 -3.872057e-001 -6.968218e-002
      vertex -6.319693e-001 -3.878760e-001 -8.234100e-003
      vertex -6.324362e-001 -3.862210e-001 -8.000654e-003
    endloop
  endfacet
  facet normal  1.370646e-018  0.000000e+000  1.000000e+000
    outer loop
      vertex -6.250000e-001 -3.828125e-001  0.000000e+000
      vertex  6.406250e-001 -3.828125e-001 -1.734723e-018
      vertex -6.250000e-001  4.058388e-001  0.000000e+000
    endloop
  endfacet
  facet normal  0.000000e+000 -2.199607e-018  1.000000e+000
    outer loop
      vertex -6.250000e-001  4.058388e-001  0.000000e+000
      vertex  6.406250e-001 -3.828125e-001 -1.734723e-018
      vertex  6.406250e-001  4.058388e-001  0.000000e+000
    endloop
  endfacet
  facet normal -1.000000e+000  0.000000e+000  0.000000e+000
    outer loop
      vertex -6.328125e-001  4.058388e-001 -7.031250e-002
      vertex -6.328125e-001 -3.828125e-001 -7.031250e-002
      vertex -6.328125e-001  4.058388e-001 -7.812500e-003
    endloop
  endfacet
  facet normal -1.000000e+000  -0.000000e+000  0.000000e+000
    outer loop
      vertex -6.328125e-001  4.058388e-001 -7.812500e-003
      vertex -6.328125e-001 -3.828125e-001 -7.031250e-002
      vertex -6.328125e-001 -3.828125e-001 -7.812500e-003
    endloop
  endfacet
  facet normal  0.000000e+000  1.000000e+000  -0.000000e+000
    outer loop
      vertex  6.406250e-001  4.058388e-001  0.000000e+000
      vertex  6.406250e-001  4.058388e-001 -7.031250e-002
      vertex -6.250000e-001  4.058388e-001  0.000000e+000
    endloop
  endfacet
  facet normal  0.000000e+000  1.000000e+000  0.000000e+000
    outer loop
      vertex -6.265242e-001  4.058388e-001 -1.501150e-004
      vertex -6.328125e-001  4.058388e-001 -7.812500e-003
      vertex -6.326624e-001  4.058388e-001 -6.288357e-003
    endloop
  endfacet
  facet normal  0.000000e+000  1.000000e+000  0.000000e+000
    outer loop
      vertex -6.265242e-001  4.058388e-001 -1.501150e-004
      vertex -6.326624e-001  4.058388e-001 -6.288357e-003
      vertex -6.322178e-001  4.058388e-001 -4.822786e-003
    endloop
  endfacet
  facet normal  0.000000e+000  1.000000e+000  0.000000e+000
    outer loop
      vertex -6.265242e-001  4.058388e-001 -1.501150e-004
      vertex -6.322178e-001  4.058388e-001 -4.822786e-003
      vertex -6.314958e-001  4.058388e-001 -3.472107e-003
    endloop
  endfacet
  facet normal  0.000000e+000  1.000000e+000  0.000000e+000
    outer loop
      vertex -6.265242e-001  4.058388e-001 -1.501150e-004
      vertex -6.314958e-001  4.058388e-001 -3.472107e-003
      vertex -6.305243e-001  4.058388e-001 -2.288228e-003
    endloop
  endfacet
  facet normal  0.000000e+000  9.999999e-001  0.000000e+000
    outer loop
      vertex -6.265242e-001  4.058388e-001 -1.501150e-004
      vertex -6.305243e-001  4.058388e-001 -2.288228e-003
      vertex -6.293404e-001  4.058388e-001 -1.316644e-003
    endloop
  endfacet
  facet normal  0.000000e+000  1.000000e+000  0.000000e+000
    outer loop
      vertex -6.265242e-001  4.058388e-001 -1.501150e-004
      vertex -6.293404e-001  4.058388e-001 -1.316644e-003
      vertex -6.279897e-001  4.058388e-001 -5.946911e-004
    endloop
  endfacet
  facet normal  -0.000000e+000  9.999999e-001  0.000000e+000
    outer loop
      vertex -6.328125e-001  4.058388e-001 -7.031250e-002
      vertex -6.328125e-001  4.058388e-001 -7.812500e-003
      vertex -6.265242e-001  4.058388e-001 -1.501150e-004
    endloop
  endfacet
  facet normal  -0.000000e+000  1.000000e+000  0.000000e+000
    outer loop
      vertex -6.328125e-001  4.058388e-001 -7.031250e-002
      vertex -6.265242e-001  4.058388e-001 -1.501150e-004
      vertex -6.250000e-001  4.058388e-001  0.000000e+000
    endloop
  endfacet
  facet normal  0.000000e+000  1.000000e+000  0.000000e+000
    outer loop
      vertex -6.328125e-001  4.058388e-001 -7.031250e-002
      vertex -6.250000e-001  4.058388e-001  0.000000e+000
      vertex  6.406250e-001  4.058388e-001 -7.031250e-002
    endloop
  endfacet
  facet normal  0.000000e+000 -1.000000e+000  0.000000e+000
    outer loop
      vertex -6.171875e-001 -3.984375e-001 -5.468750e-002
      vertex  6.250000e-001 -3.984375e-001 -5.468750e-002
      vertex -6.171875e-001 -3.984375e-001 -1.562500e-002
    endloop
  endfacet
  facet normal  0.000000e+000 -1.000000e+000  0.000000e+000
    outer loop
      vertex -6.171875e-001 -3.984375e-001 -1.562500e-002
      vertex  6.250000e-001 -3.984375e-001 -5.468750e-002
      vertex  6.250000e-001 -3.984375e-001 -1.562500e-002
    endloop
  endfacet
  facet normal -9.951828e-001  0.000000e+000  9.803597e-002
    outer loop
      vertex -6.328125e-001  4.058388e-001 -7.812500e-003
      vertex -6.328125e-001 -3.828125e-001 -7.812500e-003
      vertex -6.326624e-001  4.058388e-001 -6.288357e-003
    endloop
  endfacet
  facet normal -9.951828e-001  0.000000e+000  9.803597e-002
    outer loop
      vertex -6.326624e-001  4.058388e-001 -6.288357e-003
      vertex -6.328125e-001 -3.828125e-001 -7.812500e-003
      vertex -6.326624e-001 -3.828125e-001 -6.288357e-003
    endloop
  endfacet
  facet normal -9.569485e-001  0.000000e+000  2.902579e-001
    outer loop
      vertex -6.326624e-001  4.058388e-001 -6.288357e-003
      vertex -6.326624e-001 -3.828125e-001 -6.288357e-003
      vertex -6.322178e-001  4.058388e-001 -4.822786e-003
    endloop
  endfacet
  facet normal -9.569485e-001  0.000000e+000  2.902579e-001
    outer loop
      vertex -6.322178e-001  4.058388e-001 -4.822786e-003
      vertex -6.326624e-001 -3.828125e-001 -6.288357e-003
      vertex -6.322178e-001 -3.828125e-001 -4.822786e-003
    endloop
  endfacet
  facet normal -8.819107e-001  0.000000e+000  4.714163e-001
    outer loop
      vertex -6.322178e-001  4.058388e-001 -4.822786e-003
      vertex -6.322178e-001 -3.828125e-001 -4.822786e-003
      vertex -6.314958e-001  4.058388e-001 -3.472107e-003
    endloop
  endfacet
  facet normal -8.819107e-001  0.000000e+000  4.714163e-001
    outer loop
      vertex -6.314958e-001  4.058388e-001 -3.472107e-003
      vertex -6.322178e-001 -3.828125e-001 -4.822786e-003
      vertex -6.314958e-001 -3.828125e-001 -3.472107e-003
    endloop
  endfacet
  facet normal -7.730197e-001  0.000000e+000  6.343821e-001
    outer loop
      vertex -6.314958e-001  4.058388e-001 -3.472107e-003
      vertex -6.314958e-001 -3.828125e-001 -3.472107e-003
      vertex -6.305243e-001  4.058388e-001 -2.288228e-003
    endloop
  endfacet
  facet normal -7.730197e-001  0.000000e+000  6.343821e-001
    outer loop
      vertex -6.305243e-001  4.058388e-001 -2.288228e-003
      vertex -6.314958e-001 -3.828125e-001 -3.472107e-003
      vertex -6.305243e-001 -3.828125e-001 -2.288228e-003
    endloop
  endfacet
  facet normal -6.343971e-001  0.000000e+000  7.730073e-001
    outer loop
      vertex -6.305243e-001  4.058388e-001 -2.288228e-003
      vertex -6.305243e-001 -3.828125e-001 -2.288228e-003
      vertex -6.293404e-001  4.058388e-001 -1.316644e-003
    endloop
  endfacet
  facet normal -6.343971e-001  0.000000e+000  7.730073e-001
    outer loop
      vertex -6.293404e-001  4.058388e-001 -1.316644e-003
      vertex -6.305243e-001 -3.828125e-001 -2.288228e-003
      vertex -6.293404e-001 -3.828125e-001 -1.316644e-003
    endloop
  endfacet
  facet normal -4.713905e-001  0.000000e+000  8.819245e-001
    outer loop
      vertex -6.293404e-001  4.058388e-001 -1.316644e-003
      vertex -6.293404e-001 -3.828125e-001 -1.316644e-003
      vertex -6.279897e-001  4.058388e-001 -5.946911e-004
    endloop
  endfacet
  facet normal -4.713905e-001  0.000000e+000  8.819245e-001
    outer loop
      vertex -6.279897e-001  4.058388e-001 -5.946911e-004
      vertex -6.293404e-001 -3.828125e-001 -1.316644e-003
      vertex -6.279897e-001 -3.828125e-001 -5.946911e-004
    endloop
  endfacet
  facet normal -2.902869e-001  0.000000e+000  9.569398e-001
    outer loop
      vertex -6.279897e-001  4.058388e-001 -5.946911e-004
      vertex -6.279897e-001 -3.828125e-001 -5.946911e-004
      vertex -6.265242e-001  4.058388e-001 -1.501150e-004
    endloop
  endfacet
  facet normal -2.902869e-001  0.000000e+000  9.569398e-001
    outer loop
      vertex -6.265242e-001  4.058388e-001 -1.501150e-004
      vertex -6.279897e-001 -3.828125e-001 -5.946911e-004
      vertex -6.265242e-001 -3.828125e-001 -1.501150e-004
    endloop
  endfacet
  facet normal -9.801668e-002  0.000000e+000  9.951848e-001
    outer loop
      vertex -6.265242e-001  4.058388e-001 -1.501150e-004
      vertex -6.265242e-001 -3.828125e-001 -1.501150e-004
      vertex -6.250000e-001  4.058388e-001  0.000000e+000
    endloop
  endfacet
  facet normal -9.801668e-002  0.000000e+000  9.951848e-001
    outer loop
      vertex -6.250000e-001  4.058388e-001  0.000000e+000
      vertex -6.265242e-001 -3.828125e-001 -1.501150e-004
      vertex -6.250000e-001 -3.828125e-001  0.000000e+000
    endloop
  endfacet
  facet normal -5.314481e-001 -3.409581e-001  7.754422e-001
    outer loop
      vertex -6.275014e-001 -3.919794e-001 -4.290633e-003
      vertex -6.263563e-001 -3.918057e-001 -3.429495e-003
      vertex -6.279897e-001 -3.828125e-001 -5.946911e-004
    endloop
  endfacet
  facet normal -4.405471e-001 -3.557818e-001  8.242194e-001
    outer loop
      vertex -6.293404e-001 -3.828125e-001 -1.316644e-003
      vertex -6.275014e-001 -3.919794e-001 -4.290633e-003
      vertex -6.279897e-001 -3.828125e-001 -5.946911e-004
    endloop
  endfacet
  facet normal -2.132673e-001 -9.679890e-001  1.323416e-001
    outer loop
      vertex -6.228071e-001 -3.973920e-001 -1.281521e-002
      vertex -6.202024e-001 -3.981439e-001 -1.411755e-002
      vertex -6.235597e-001 -3.969879e-001 -1.107276e-002
    endloop
  endfacet
  facet normal -3.913912e-001 -9.191676e-001  4.408894e-002
    outer loop
      vertex -6.243677e-001 -3.966900e-001 -1.203492e-002
      vertex -6.228071e-001 -3.973920e-001 -1.281521e-002
      vertex -6.235597e-001 -3.969879e-001 -1.107276e-002
    endloop
  endfacet
  facet normal -3.440036e-001 -8.201639e-001  4.571573e-001
    outer loop
      vertex -6.226756e-001 -3.970882e-001 -1.013689e-002
      vertex -6.217397e-001 -3.969879e-001 -9.252863e-003
      vertex -6.263563e-001 -3.918057e-001 -3.429495e-003
    endloop
  endfacet
  facet normal -2.566082e-001 -8.227627e-001  5.071625e-001
    outer loop
      vertex -6.275014e-001 -3.919794e-001 -4.290633e-003
      vertex -6.226756e-001 -3.970882e-001 -1.013689e-002
      vertex -6.263563e-001 -3.918057e-001 -3.429495e-003
    endloop
  endfacet
  facet normal -1.177547e-001 -4.953683e-001  8.606649e-001
    outer loop
      vertex -6.251258e-001 -3.914642e-001 -2.757114e-003
      vertex -6.238518e-001 -3.909667e-001 -2.296437e-003
      vertex -6.242584e-001 -3.894570e-001 -1.483177e-003
    endloop
  endfacet
  facet normal -3.106906e-001 -4.100077e-001  8.575343e-001
    outer loop
      vertex -6.251258e-001 -3.914642e-001 -2.757114e-003
      vertex -6.242584e-001 -3.894570e-001 -1.483177e-003
      vertex -6.245784e-001 -3.878760e-001 -8.432010e-004
    endloop
  endfacet
  facet normal -6.217877e-001 -2.926382e-001  7.264591e-001
    outer loop
      vertex -6.251258e-001 -3.914642e-001 -2.757114e-003
      vertex -6.245784e-001 -3.878760e-001 -8.432010e-004
      vertex -6.248118e-001 -3.862210e-001 -3.763081e-004
    endloop
  endfacet
  facet normal -8.854595e-001 -1.471428e-001  4.408068e-001
    outer loop
      vertex -6.251258e-001 -3.914642e-001 -2.757114e-003
      vertex -6.248118e-001 -3.862210e-001 -3.763081e-004
      vertex -6.249527e-001 -3.845297e-001 -9.464312e-005
    endloop
  endfacet
  facet normal -9.868470e-001 -3.588597e-002  1.576236e-001
    outer loop
      vertex -6.251258e-001 -3.914642e-001 -2.757114e-003
      vertex -6.249527e-001 -3.845297e-001 -9.464312e-005
      vertex -6.250000e-001 -3.828125e-001  0.000000e+000
    endloop
  endfacet
  facet normal -9.346889e-002 -3.010706e-001  9.490101e-001
    outer loop
      vertex -6.251258e-001 -3.914642e-001 -2.757114e-003
      vertex -6.250000e-001 -3.828125e-001  0.000000e+000
      vertex -6.265242e-001 -3.828125e-001 -1.501150e-004
    endloop
  endfacet
  facet normal -2.752298e-001 -3.178816e-001  9.073036e-001
    outer loop
      vertex -6.251258e-001 -3.914642e-001 -2.757114e-003
      vertex -6.265242e-001 -3.828125e-001 -1.501150e-004
      vertex -6.279897e-001 -3.828125e-001 -5.946911e-004
    endloop
  endfacet
  facet normal -3.765154e-001 -3.400249e-001  8.617536e-001
    outer loop
      vertex -6.251258e-001 -3.914642e-001 -2.757114e-003
      vertex -6.279897e-001 -3.828125e-001 -5.946911e-004
      vertex -6.263563e-001 -3.918057e-001 -3.429495e-003
    endloop
  endfacet
  facet normal -1.144071e-001 -7.854400e-001  6.082721e-001
    outer loop
      vertex -6.251258e-001 -3.914642e-001 -2.757114e-003
      vertex -6.263563e-001 -3.918057e-001 -3.429495e-003
      vertex -6.217397e-001 -3.969879e-001 -9.252863e-003
    endloop
  endfacet
  facet normal -9.935385e-001 -5.746271e-002  9.787399e-002
    outer loop
      vertex -6.326624e-001 -3.828125e-001 -6.288357e-003
      vertex -6.328125e-001 -3.828125e-001 -7.812500e-003
      vertex -6.327178e-001 -3.845297e-001 -7.859821e-003
    endloop
  endfacet
  facet normal -9.570042e-001 -1.783970e-001  2.287297e-001
    outer loop
      vertex -6.326624e-001 -3.828125e-001 -6.288357e-003
      vertex -6.327178e-001 -3.845297e-001 -7.859821e-003
      vertex -6.324362e-001 -3.862210e-001 -8.000654e-003
    endloop
  endfacet
  facet normal -8.189602e-001 -3.000621e-001  4.891490e-001
    outer loop
      vertex -6.326624e-001 -3.828125e-001 -6.288357e-003
      vertex -6.324362e-001 -3.862210e-001 -8.000654e-003
      vertex -6.319693e-001 -3.878760e-001 -8.234100e-003
    endloop
  endfacet
  facet normal -5.224231e-001 -3.672250e-001  7.695582e-001
    outer loop
      vertex -6.326624e-001 -3.828125e-001 -6.288357e-003
      vertex -6.319693e-001 -3.878760e-001 -8.234100e-003
      vertex -6.313293e-001 -3.894570e-001 -8.554089e-003
    endloop
  endfacet
  facet normal -1.940826e-001 -3.512663e-001  9.159388e-001
    outer loop
      vertex -6.326624e-001 -3.828125e-001 -6.288357e-003
      vertex -6.313293e-001 -3.894570e-001 -8.554089e-003
      vertex -6.305161e-001 -3.909667e-001 -8.960718e-003
    endloop
  endfacet
  facet normal -9.256224e-001 -3.132406e-001  2.123761e-001
    outer loop
      vertex -6.326624e-001 -3.828125e-001 -6.288357e-003
      vertex -6.305161e-001 -3.909667e-001 -8.960718e-003
      vertex -6.300554e-001 -3.914642e-001 -7.686719e-003
    endloop
  endfacet
  facet normal -8.944224e-001  8.732230e-005 -4.472233e-001
    outer loop
      vertex -6.171875e-001 -3.984375e-001 -1.562500e-002
      vertex -6.186950e-001 -3.981439e-001 -1.261010e-002
      vertex -6.199973e-001 -3.973920e-001 -1.000542e-002
    endloop
  endfacet
  facet normal -8.944387e-001 -1.331233e-004 -4.471905e-001
    outer loop
      vertex -6.171875e-001 -3.984375e-001 -1.562500e-002
      vertex -6.199973e-001 -3.973920e-001 -1.000542e-002
      vertex -6.207776e-001 -3.966900e-001 -8.444842e-003
    endloop
  endfacet
  facet normal  7.118167e-002 -9.604136e-001  2.693302e-001
    outer loop
      vertex -6.171875e-001 -3.984375e-001 -1.562500e-002
      vertex -6.207776e-001 -3.966900e-001 -8.444842e-003
      vertex -6.217397e-001 -3.969879e-001 -9.252863e-003
    endloop
  endfacet
  facet normal -6.319734e-002 -9.819572e-001  1.782309e-001
    outer loop
      vertex -6.171875e-001 -3.984375e-001 -1.562500e-002
      vertex -6.217397e-001 -3.969879e-001 -9.252863e-003
      vertex -6.226756e-001 -3.970882e-001 -1.013689e-002
    endloop
  endfacet
  facet normal -1.782286e-001 -9.819574e-001  6.319993e-002
    outer loop
      vertex -6.171875e-001 -3.984375e-001 -1.562500e-002
      vertex -6.226756e-001 -3.970882e-001 -1.013689e-002
      vertex -6.235597e-001 -3.969879e-001 -1.107276e-002
    endloop
  endfacet
  facet normal  1.734508e-001 -8.419614e-001  5.108969e-001
    outer loop
      vertex -6.171875e-001 -3.984375e-001 -1.562500e-002
      vertex -6.235597e-001 -3.969879e-001 -1.107276e-002
      vertex -6.202024e-001 -3.981439e-001 -1.411755e-002
    endloop
  endfacet
  facet normal -1.142494e-001 -8.802397e-001  4.605705e-001
    outer loop
      vertex -6.217397e-001 -3.969879e-001 -9.252863e-003
      vertex -6.207776e-001 -3.966900e-001 -8.444842e-003
      vertex -6.215069e-001 -3.958322e-001 -6.986206e-003
    endloop
  endfacet
  facet normal -3.239393e-001 -8.289521e-001  4.559625e-001
    outer loop
      vertex -6.217397e-001 -3.969879e-001 -9.252863e-003
      vertex -6.215069e-001 -3.958322e-001 -6.986206e-003
      vertex -6.221925e-001 -3.948100e-001 -5.614946e-003
    endloop
  endfacet
  facet normal -6.218709e-001 -7.035998e-001  3.438373e-001
    outer loop
      vertex -6.217397e-001 -3.969879e-001 -9.252863e-003
      vertex -6.221925e-001 -3.948100e-001 -5.614946e-003
      vertex -6.228114e-001 -3.936580e-001 -4.377111e-003
    endloop
  endfacet
  facet normal -8.506973e-001 -5.020150e-001  1.558685e-001
    outer loop
      vertex -6.217397e-001 -3.969879e-001 -9.252863e-003
      vertex -6.228114e-001 -3.936580e-001 -4.377111e-003
      vertex -6.233708e-001 -3.923628e-001 -3.258393e-003
    endloop
  endfacet
  facet normal -9.480667e-001 -3.178160e-001 -1.274848e-002
    outer loop
      vertex -6.217397e-001 -3.969879e-001 -9.252863e-003
      vertex -6.233708e-001 -3.923628e-001 -3.258393e-003
      vertex -6.238518e-001 -3.909667e-001 -2.296437e-003
    endloop
  endfacet
  facet normal  5.221222e-002 -7.471685e-001  6.625806e-001
    outer loop
      vertex -6.217397e-001 -3.969879e-001 -9.252863e-003
      vertex -6.238518e-001 -3.909667e-001 -2.296437e-003
      vertex -6.251258e-001 -3.914642e-001 -2.757114e-003
    endloop
  endfacet
  facet normal -8.108661e-001 -5.814846e-001  6.611916e-002
    outer loop
      vertex -6.300554e-001 -3.914642e-001 -7.686719e-003
      vertex -6.305161e-001 -3.909667e-001 -8.960718e-003
      vertex -6.295541e-001 -3.923628e-001 -9.441696e-003
    endloop
  endfacet
  facet normal -7.172365e-001 -6.817467e-001  1.441981e-001
    outer loop
      vertex -6.300554e-001 -3.914642e-001 -7.686719e-003
      vertex -6.295541e-001 -3.923628e-001 -9.441696e-003
      vertex -6.284354e-001 -3.936580e-001 -1.000106e-002
    endloop
  endfacet
  facet normal -5.385684e-001 -7.665908e-001  3.496892e-001
    outer loop
      vertex -6.300554e-001 -3.914642e-001 -7.686719e-003
      vertex -6.284354e-001 -3.936580e-001 -1.000106e-002
      vertex -6.271976e-001 -3.948100e-001 -1.061997e-002
    endloop
  endfacet
  facet normal -2.566932e-001 -7.517718e-001  6.074108e-001
    outer loop
      vertex -6.300554e-001 -3.914642e-001 -7.686719e-003
      vertex -6.271976e-001 -3.948100e-001 -1.061997e-002
      vertex -6.258263e-001 -3.958322e-001 -1.130560e-002
    endloop
  endfacet
  facet normal  2.309323e-002 -6.244639e-001  7.807122e-001
    outer loop
      vertex -6.300554e-001 -3.914642e-001 -7.686719e-003
      vertex -6.258263e-001 -3.958322e-001 -1.130560e-002
      vertex -6.243677e-001 -3.966900e-001 -1.203492e-002
    endloop
  endfacet
  facet normal -5.608442e-001 -7.969804e-001  2.242235e-001
    outer loop
      vertex -6.300554e-001 -3.914642e-001 -7.686719e-003
      vertex -6.243677e-001 -3.966900e-001 -1.203492e-002
      vertex -6.235597e-001 -3.969879e-001 -1.107276e-002
    endloop
  endfacet
  facet normal -6.082792e-001 -7.854366e-001  1.143934e-001
    outer loop
      vertex -6.300554e-001 -3.914642e-001 -7.686719e-003
      vertex -6.235597e-001 -3.969879e-001 -1.107276e-002
      vertex -6.293830e-001 -3.918057e-001 -6.456196e-003
    endloop
  endfacet
  facet normal -5.934060e-001 -3.536291e-001  7.230600e-001
    outer loop
      vertex -6.293404e-001 -3.828125e-001 -1.316644e-003
      vertex -6.305243e-001 -3.828125e-001 -2.288228e-003
      vertex -6.275014e-001 -3.919794e-001 -4.290633e-003
    endloop
  endfacet
  facet normal -7.193345e-001 -3.661614e-001  5.903251e-001
    outer loop
      vertex -6.275014e-001 -3.919794e-001 -4.290633e-003
      vertex -6.305243e-001 -3.828125e-001 -2.288228e-003
      vertex -6.314958e-001 -3.828125e-001 -3.472107e-003
    endloop
  endfacet
  facet normal -6.629015e-001 -3.480501e-001  6.628897e-001
    outer loop
      vertex -6.275014e-001 -3.919794e-001 -4.290633e-003
      vertex -6.314958e-001 -3.828125e-001 -3.472107e-003
      vertex -6.285219e-001 -3.919794e-001 -5.311142e-003
    endloop
  endfacet
  facet normal -8.242068e-001 -3.557808e-001  4.405713e-001
    outer loop
      vertex -6.285219e-001 -3.919794e-001 -5.311142e-003
      vertex -6.314958e-001 -3.828125e-001 -3.472107e-003
      vertex -6.322178e-001 -3.828125e-001 -4.822786e-003
    endloop
  endfacet
  facet normal -7.754310e-001 -3.409573e-001  5.314649e-001
    outer loop
      vertex -6.285219e-001 -3.919794e-001 -5.311142e-003
      vertex -6.322178e-001 -3.828125e-001 -4.822786e-003
      vertex -6.293830e-001 -3.918057e-001 -6.456196e-003
    endloop
  endfacet
  facet normal -9.019895e-001 -3.340130e-001  2.735879e-001
    outer loop
      vertex -6.293830e-001 -3.918057e-001 -6.456196e-003
      vertex -6.322178e-001 -3.828125e-001 -4.822786e-003
      vertex -6.326624e-001 -3.828125e-001 -6.288357e-003
    endloop
  endfacet
  facet normal -8.654118e-001 -3.227225e-001  3.832920e-001
    outer loop
      vertex -6.293830e-001 -3.918057e-001 -6.456196e-003
      vertex -6.326624e-001 -3.828125e-001 -6.288357e-003
      vertex -6.300554e-001 -3.914642e-001 -7.686719e-003
    endloop
  endfacet
  facet normal -3.964142e-001 -8.280805e-001  3.964071e-001
    outer loop
      vertex -6.275014e-001 -3.919794e-001 -4.290633e-003
      vertex -6.285219e-001 -3.919794e-001 -5.311142e-003
      vertex -6.226756e-001 -3.970882e-001 -1.013689e-002
    endloop
  endfacet
  facet normal -5.071555e-001 -8.227638e-001  2.566184e-001
    outer loop
      vertex -6.226756e-001 -3.970882e-001 -1.013689e-002
      vertex -6.285219e-001 -3.919794e-001 -5.311142e-003
      vertex -6.293830e-001 -3.918057e-001 -6.456196e-003
    endloop
  endfacet
  facet normal -4.571535e-001 -8.201643e-001  3.440077e-001
    outer loop
      vertex -6.226756e-001 -3.970882e-001 -1.013689e-002
      vertex -6.293830e-001 -3.918057e-001 -6.456196e-003
      vertex -6.235597e-001 -3.969879e-001 -1.107276e-002
    endloop
  endfacet
  facet normal  0.000000e+000  0.000000e+000 -1.000000e+000
    outer loop
      vertex -6.328125e-001 -3.828125e-001 -7.031250e-002
      vertex -6.328125e-001  4.058388e-001 -7.031250e-002
      vertex  6.406250e-001 -3.828125e-001 -7.031250e-002
    endloop
  endfacet
  facet normal  0.000000e+000  0.000000e+000 -1.000000e+000
    outer loop
      vertex  6.406250e-001 -3.828125e-001 -7.031250e-002
      vertex -6.328125e-001  4.058388e-001 -7.031250e-002
      vertex  6.406250e-001  4.058388e-001 -7.031250e-002
    endloop
  endfacet
  facet normal  9.999999e-001  0.000000e+000  0.000000e+000
    outer loop
      vertex  6.406250e-001 -3.828125e-001 -7.031250e-002
      vertex  6.406250e-001  4.058388e-001 -7.031250e-002
      vertex  6.406250e-001 -3.828125e-001 -1.734723e-018
    endloop
  endfacet
  facet normal  9.999999e-001  -0.000000e+000  0.000000e+000
    outer loop
      vertex  6.406250e-001 -3.828125e-001 -1.734723e-018
      vertex  6.406250e-001  4.058388e-001 -7.031250e-002
      vertex  6.406250e-001  4.058388e-001  0.000000e+000
    endloop
  endfacet
  facet normal  2.187257e-008 -9.929743e-001 -1.183300e-001
    outer loop
      vertex  6.250000e-001 -3.984375e-001 -5.468750e-002
      vertex -6.208588e-001 -3.980000e-001 -5.835903e-002
      vertex  6.286715e-001 -3.980000e-001 -5.835880e-002
    endloop
  endfacet
  facet normal  0.000000e+000 -9.929752e-001 -1.183226e-001
    outer loop
      vertex  6.250000e-001 -3.984375e-001 -5.468750e-002
      vertex -6.171875e-001 -3.984375e-001 -5.468750e-002
      vertex -6.208588e-001 -3.980000e-001 -5.835903e-002
    endloop
  endfacet
  facet normal  -0.000000e+000 -5.038885e-001 -8.637686e-001
    outer loop
      vertex -6.312774e-001 -3.895665e-001 -6.877738e-002
      vertex  6.378142e-001 -3.917533e-001 -6.750169e-002
      vertex -6.300017e-001 -3.917533e-001 -6.750169e-002
    endloop
  endfacet
  facet normal  -0.000000e+000 -6.366463e-001 -7.711560e-001
    outer loop
      vertex -6.300017e-001 -3.917533e-001 -6.750169e-002
      vertex  6.378142e-001 -3.917533e-001 -6.750169e-002
      vertex  6.362055e-001 -3.937018e-001 -6.589300e-002
    endloop
  endfacet
  facet normal  -0.000000e+000 -6.366463e-001 -7.711559e-001
    outer loop
      vertex -6.300017e-001 -3.917533e-001 -6.750169e-002
      vertex  6.362055e-001 -3.937018e-001 -6.589300e-002
      vertex -6.283930e-001 -3.937018e-001 -6.589300e-002
    endloop
  endfacet
  facet normal  -0.000000e+000 -7.523991e-001 -6.587074e-001
    outer loop
      vertex -6.283930e-001 -3.937018e-001 -6.589300e-002
      vertex  6.362055e-001 -3.937018e-001 -6.589300e-002
      vertex  6.343122e-001 -3.953594e-001 -6.399966e-002
    endloop
  endfacet
  facet normal  -0.000000e+000 -7.523991e-001 -6.587075e-001
    outer loop
      vertex -6.283930e-001 -3.937018e-001 -6.589300e-002
      vertex  6.343122e-001 -3.953594e-001 -6.399966e-002
      vertex -6.264997e-001 -3.953594e-001 -6.399966e-002
    endloop
  endfacet
  facet normal  -0.000000e+000 -8.481572e-001 -5.297447e-001
    outer loop
      vertex -6.264997e-001 -3.953594e-001 -6.399966e-002
      vertex  6.343122e-001 -3.953594e-001 -6.399966e-002
      vertex  6.321893e-001 -3.966853e-001 -6.187680e-002
    endloop
  endfacet
  facet normal  -0.000000e+000 -8.481571e-001 -5.297447e-001
    outer loop
      vertex -6.264997e-001 -3.953594e-001 -6.399966e-002
      vertex  6.321893e-001 -3.966853e-001 -6.187680e-002
      vertex -6.243768e-001 -3.966853e-001 -6.187680e-002
    endloop
  endfacet
  facet normal  -0.000000e+000 -9.367269e-001 -3.500610e-001
    outer loop
      vertex -6.243768e-001 -3.966853e-001 -6.187680e-002
      vertex  6.321893e-001 -3.966853e-001 -6.187680e-002
      vertex  6.286715e-001 -3.980000e-001 -5.835880e-002
    endloop
  endfacet
  facet normal  6.471035e-008 -9.367193e-001 -3.500812e-001
    outer loop
      vertex -6.243768e-001 -3.966853e-001 -6.187680e-002
      vertex  6.286715e-001 -3.980000e-001 -5.835880e-002
      vertex -6.208588e-001 -3.980000e-001 -5.835903e-002
    endloop
  endfacet
  facet normal  -0.000000e+000 -6.192959e-002 -9.980805e-001
    outer loop
      vertex -6.328125e-001 -3.828125e-001 -7.031250e-002
      vertex  6.406250e-001 -3.828125e-001 -7.031250e-002
      vertex -6.326926e-001 -3.847440e-001 -7.019265e-002
    endloop
  endfacet
  facet normal  0.000000e+000 -6.192960e-002 -9.980805e-001
    outer loop
      vertex -6.326926e-001 -3.847440e-001 -7.019265e-002
      vertex  6.406250e-001 -3.828125e-001 -7.031250e-002
      vertex  6.405051e-001 -3.847440e-001 -7.019265e-002
    endloop
  endfacet
  facet normal  -0.000000e+000 -2.030495e-001 -9.791685e-001
    outer loop
      vertex -6.326926e-001 -3.847440e-001 -7.019265e-002
      vertex  6.405051e-001 -3.847440e-001 -7.019265e-002
      vertex -6.321822e-001 -3.872057e-001 -6.968218e-002
    endloop
  endfacet
  facet normal  0.000000e+000 -2.030495e-001 -9.791685e-001
    outer loop
      vertex -6.321822e-001 -3.872057e-001 -6.968218e-002
      vertex  6.405051e-001 -3.847440e-001 -7.019265e-002
      vertex  6.399947e-001 -3.872057e-001 -6.968218e-002
    endloop
  endfacet
  facet normal  -0.000000e+000 -3.578808e-001 -9.337673e-001
    outer loop
      vertex -6.321822e-001 -3.872057e-001 -6.968218e-002
      vertex  6.399947e-001 -3.872057e-001 -6.968218e-002
      vertex -6.312774e-001 -3.895665e-001 -6.877738e-002
    endloop
  endfacet
  facet normal  0.000000e+000 -3.578809e-001 -9.337673e-001
    outer loop
      vertex -6.312774e-001 -3.895665e-001 -6.877738e-002
      vertex  6.399947e-001 -3.872057e-001 -6.968218e-002
      vertex  6.390899e-001 -3.895665e-001 -6.877738e-002
    endloop
  endfacet
  facet normal  -0.000000e+000 -5.038886e-001 -8.637687e-001
    outer loop
      vertex -6.312774e-001 -3.895665e-001 -6.877738e-002
      vertex  6.390899e-001 -3.895665e-001 -6.877738e-002
      vertex  6.378142e-001 -3.917533e-001 -6.750169e-002
    endloop
  endfacet
  facet normal  1.183296e-001 -9.929743e-001  6.079470e-007
    outer loop
      vertex  6.250000e-001 -3.984375e-001 -1.562500e-002
      vertex  6.286715e-001 -3.980000e-001 -5.835880e-002
      vertex  6.286713e-001 -3.980000e-001 -1.195347e-002
    endloop
  endfacet
  facet normal  1.183226e-001 -9.929752e-001  0.000000e+000
    outer loop
      vertex  6.250000e-001 -3.984375e-001 -1.562500e-002
      vertex  6.250000e-001 -3.984375e-001 -5.468750e-002
      vertex  6.286715e-001 -3.980000e-001 -5.835880e-002
    endloop
  endfacet
  facet normal  3.500847e-001 -9.367180e-001  1.798645e-006
    outer loop
      vertex  6.286713e-001 -3.980000e-001 -1.195347e-002
      vertex  6.286715e-001 -3.980000e-001 -5.835880e-002
      vertex  6.321893e-001 -3.966853e-001 -6.187680e-002
    endloop
  endfacet
  facet normal  3.500622e-001 -9.367264e-001  0.000000e+000
    outer loop
      vertex  6.286713e-001 -3.980000e-001 -1.195347e-002
      vertex  6.321893e-001 -3.966853e-001 -6.187680e-002
      vertex  6.321893e-001 -3.966853e-001 -8.435703e-003
    endloop
  endfacet
  facet normal  5.297420e-001 -8.481588e-001  0.000000e+000
    outer loop
      vertex  6.321893e-001 -3.966853e-001 -8.435703e-003
      vertex  6.321893e-001 -3.966853e-001 -6.187680e-002
      vertex  6.343122e-001 -3.953594e-001 -6.399966e-002
    endloop
  endfacet
  facet normal  5.297420e-001 -8.481588e-001  0.000000e+000
    outer loop
      vertex  6.321893e-001 -3.966853e-001 -8.435703e-003
      vertex  6.343122e-001 -3.953594e-001 -6.399966e-002
      vertex  6.343122e-001 -3.953594e-001 -6.312838e-003
    endloop
  endfacet
  facet normal  6.587075e-001 -7.523991e-001  0.000000e+000
    outer loop
      vertex  6.343122e-001 -3.953594e-001 -6.312838e-003
      vertex  6.343122e-001 -3.953594e-001 -6.399966e-002
      vertex  6.362055e-001 -3.937018e-001 -6.589300e-002
    endloop
  endfacet
  facet normal  6.587075e-001 -7.523991e-001  0.000000e+000
    outer loop
      vertex  6.343122e-001 -3.953594e-001 -6.312838e-003
      vertex  6.362055e-001 -3.937018e-001 -6.589300e-002
      vertex  6.362055e-001 -3.937018e-001 -4.419494e-003
    endloop
  endfacet
  facet normal  7.711589e-001 -6.366428e-001  0.000000e+000
    outer loop
      vertex  6.362055e-001 -3.937018e-001 -4.419494e-003
      vertex  6.362055e-001 -3.937018e-001 -6.589300e-002
      vertex  6.378142e-001 -3.917533e-001 -6.750169e-002
    endloop
  endfacet
  facet normal  7.711589e-001 -6.366428e-001  0.000000e+000
    outer loop
      vertex  6.362055e-001 -3.937018e-001 -4.419494e-003
      vertex  6.378142e-001 -3.917533e-001 -6.750169e-002
      vertex  6.378142e-001 -3.917533e-001 -2.810814e-003
    endloop
  endfacet
  facet normal  8.637649e-001 -5.038952e-001  0.000000e+000
    outer loop
      vertex  6.378142e-001 -3.917533e-001 -2.810814e-003
      vertex  6.378142e-001 -3.917533e-001 -6.750169e-002
      vertex  6.390899e-001 -3.895665e-001 -6.877738e-002
    endloop
  endfacet
  facet normal  9.980801e-001 -6.193727e-002  0.000000e+000
    outer loop
      vertex  6.406250e-001 -3.828125e-001 -7.031250e-002
      vertex  6.406250e-001 -3.828125e-001 -1.734723e-018
      vertex  6.405051e-001 -3.847440e-001 -7.019265e-002
    endloop
  endfacet
  facet normal  9.980800e-001 -6.193727e-002  0.000000e+000
    outer loop
      vertex  6.405051e-001 -3.847440e-001 -7.019265e-002
      vertex  6.406250e-001 -3.828125e-001 -1.734723e-018
      vertex  6.405051e-001 -3.847440e-001 -1.198473e-004
    endloop
  endfacet
  facet normal  9.791696e-001 -2.030438e-001  0.000000e+000
    outer loop
      vertex  6.405051e-001 -3.847440e-001 -7.019265e-002
      vertex  6.405051e-001 -3.847440e-001 -1.198473e-004
      vertex  6.399947e-001 -3.872057e-001 -6.968218e-002
    endloop
  endfacet
  facet normal  9.791696e-001 -2.030438e-001  0.000000e+000
    outer loop
      vertex  6.399947e-001 -3.872057e-001 -6.968218e-002
      vertex  6.405051e-001 -3.847440e-001 -1.198473e-004
      vertex  6.399947e-001 -3.872057e-001 -6.303216e-004
    endloop
  endfacet
  facet normal  9.337672e-001 -3.578809e-001  0.000000e+000
    outer loop
      vertex  6.399947e-001 -3.872057e-001 -6.968218e-002
      vertex  6.399947e-001 -3.872057e-001 -6.303216e-004
      vertex  6.390899e-001 -3.895665e-001 -6.877738e-002
    endloop
  endfacet
  facet normal  9.337672e-001 -3.578808e-001  0.000000e+000
    outer loop
      vertex  6.390899e-001 -3.895665e-001 -6.877738e-002
      vertex  6.399947e-001 -3.872057e-001 -6.303216e-004
      vertex  6.390899e-001 -3.895665e-001 -1.535117e-003
    endloop
  endfacet
  facet normal  8.637649e-001 -5.038952e-001  0.000000e+000
    outer loop
      vertex  6.390899e-001 -3.895665e-001 -6.877738e-002
      vertex  6.390899e-001 -3.895665e-001 -1.535117e-003
      vertex  6.378142e-001 -3.917533e-001 -2.810814e-003
    endloop
  endfacet
endsolid CATIA STL
