solid CATIA STL
  facet normal  -0.000000e+000  0.000000e+000  1.000000e+000
    outer loop
      vertex  1.103618e-001 -3.349507e-001  1.015625e-001
      vertex  1.025486e-001 -3.357202e-001  1.015625e-001
      vertex  9.503562e-002 -3.379992e-001  1.015625e-001
    endloop
  endfacet
  facet normal  0.000000e+000  0.000000e+000  1.000000e+000
    outer loop
      vertex  1.181751e-001 -3.357202e-001  1.015625e-001
      vertex  1.103618e-001 -3.349507e-001  1.015625e-001
      vertex  9.503562e-002 -3.379992e-001  1.015625e-001
    endloop
  endfacet
  facet normal  0.000000e+000  0.000000e+000  1.000000e+000
    outer loop
      vertex  1.181751e-001 -3.357202e-001  1.015625e-001
      vertex  9.503562e-002 -3.379992e-001  1.015625e-001
      vertex  1.256881e-001 -3.379992e-001  1.015625e-001
    endloop
  endfacet
  facet normal  -0.000000e+000  0.000000e+000  1.000000e+000
    outer loop
      vertex  1.256881e-001 -3.379992e-001  1.015625e-001
      vertex  9.503562e-002 -3.379992e-001  1.015625e-001
      vertex  8.811162e-002 -3.417002e-001  1.015625e-001
    endloop
  endfacet
  facet normal  0.000000e+000  0.000000e+000  1.000000e+000
    outer loop
      vertex  1.256881e-001 -3.379992e-001  1.015625e-001
      vertex  8.811162e-002 -3.417002e-001  1.015625e-001
      vertex  1.326121e-001 -3.417002e-001  1.015625e-001
    endloop
  endfacet
  facet normal  -0.000000e+000  0.000000e+000  1.000000e+000
    outer loop
      vertex  1.326121e-001 -3.417002e-001  1.015625e-001
      vertex  8.811162e-002 -3.417002e-001  1.015625e-001
      vertex  8.204268e-002 -3.466808e-001  1.015625e-001
    endloop
  endfacet
  facet normal  0.000000e+000  0.000000e+000  1.000000e+000
    outer loop
      vertex  1.326121e-001 -3.417002e-001  1.015625e-001
      vertex  8.204268e-002 -3.466808e-001  1.015625e-001
      vertex  1.386810e-001 -3.466808e-001  1.015625e-001
    endloop
  endfacet
  facet normal  -0.000000e+000  0.000000e+000  1.000000e+000
    outer loop
      vertex  1.386810e-001 -3.466808e-001  1.015625e-001
      vertex  8.204268e-002 -3.466808e-001  1.015625e-001
      vertex  7.706203e-002 -3.527498e-001  1.015625e-001
    endloop
  endfacet
  facet normal  0.000000e+000  0.000000e+000  1.000000e+000
    outer loop
      vertex  1.386810e-001 -3.466808e-001  1.015625e-001
      vertex  7.706203e-002 -3.527498e-001  1.015625e-001
      vertex  1.436616e-001 -3.527498e-001  1.015625e-001
    endloop
  endfacet
  facet normal  -0.000000e+000  0.000000e+000  1.000000e+000
    outer loop
      vertex  1.436616e-001 -3.527498e-001  1.015625e-001
      vertex  7.706203e-002 -3.527498e-001  1.015625e-001
      vertex  7.336108e-002 -3.596738e-001  1.015625e-001
    endloop
  endfacet
  facet normal  0.000000e+000  0.000000e+000  1.000000e+000
    outer loop
      vertex  1.436616e-001 -3.527498e-001  1.015625e-001
      vertex  7.336108e-002 -3.596738e-001  1.015625e-001
      vertex  1.473626e-001 -3.596738e-001  1.015625e-001
    endloop
  endfacet
  facet normal  -0.000000e+000  0.000000e+000  9.999999e-001
    outer loop
      vertex  1.473626e-001 -3.596738e-001  1.015625e-001
      vertex  7.336108e-002 -3.596738e-001  1.015625e-001
      vertex  7.108203e-002 -3.671868e-001  1.015625e-001
    endloop
  endfacet
  facet normal  0.000000e+000  0.000000e+000  9.999999e-001
    outer loop
      vertex  1.473626e-001 -3.596738e-001  1.015625e-001
      vertex  7.108203e-002 -3.671868e-001  1.015625e-001
      vertex  1.496416e-001 -3.671868e-001  1.015625e-001
    endloop
  endfacet
  facet normal  0.000000e+000  0.000000e+000  9.999999e-001
    outer loop
      vertex  1.496416e-001 -3.828132e-001  1.015625e-001
      vertex  7.336108e-002 -3.903262e-001  1.015625e-001
      vertex  1.473626e-001 -3.903262e-001  1.015625e-001
    endloop
  endfacet
  facet normal  -0.000000e+000  0.000000e+000  1.000000e+000
    outer loop
      vertex  1.473626e-001 -3.903262e-001  1.015625e-001
      vertex  7.336108e-002 -3.903262e-001  1.015625e-001
      vertex  7.706203e-002 -3.972502e-001  1.015625e-001
    endloop
  endfacet
  facet normal  0.000000e+000  0.000000e+000  1.000000e+000
    outer loop
      vertex  1.473626e-001 -3.903262e-001  1.015625e-001
      vertex  7.706203e-002 -3.972502e-001  1.015625e-001
      vertex  1.436616e-001 -3.972502e-001  1.015625e-001
    endloop
  endfacet
  facet normal  -0.000000e+000  0.000000e+000  1.000000e+000
    outer loop
      vertex  1.436616e-001 -3.972502e-001  1.015625e-001
      vertex  7.706203e-002 -3.972502e-001  1.015625e-001
      vertex  8.204268e-002 -4.033192e-001  1.015625e-001
    endloop
  endfacet
  facet normal  0.000000e+000  0.000000e+000  1.000000e+000
    outer loop
      vertex  1.436616e-001 -3.972502e-001  1.015625e-001
      vertex  8.204268e-002 -4.033192e-001  1.015625e-001
      vertex  1.386810e-001 -4.033192e-001  1.015625e-001
    endloop
  endfacet
  facet normal  -0.000000e+000  0.000000e+000  1.000000e+000
    outer loop
      vertex  1.386810e-001 -4.033192e-001  1.015625e-001
      vertex  8.204268e-002 -4.033192e-001  1.015625e-001
      vertex  8.811162e-002 -4.082998e-001  1.015625e-001
    endloop
  endfacet
  facet normal  0.000000e+000  0.000000e+000  1.000000e+000
    outer loop
      vertex  1.386810e-001 -4.033192e-001  1.015625e-001
      vertex  8.811162e-002 -4.082998e-001  1.015625e-001
      vertex  1.326121e-001 -4.082998e-001  1.015625e-001
    endloop
  endfacet
  facet normal  -0.000000e+000  0.000000e+000  1.000000e+000
    outer loop
      vertex  1.326121e-001 -4.082998e-001  1.015625e-001
      vertex  8.811162e-002 -4.082998e-001  1.015625e-001
      vertex  9.503562e-002 -4.120008e-001  1.015625e-001
    endloop
  endfacet
  facet normal  0.000000e+000  0.000000e+000  1.000000e+000
    outer loop
      vertex  1.326121e-001 -4.082998e-001  1.015625e-001
      vertex  9.503562e-002 -4.120008e-001  1.015625e-001
      vertex  1.256881e-001 -4.120008e-001  1.015625e-001
    endloop
  endfacet
  facet normal  -0.000000e+000  0.000000e+000  1.000000e+000
    outer loop
      vertex  1.256881e-001 -4.120008e-001  1.015625e-001
      vertex  9.503562e-002 -4.120008e-001  1.015625e-001
      vertex  1.025486e-001 -4.142798e-001  1.015625e-001
    endloop
  endfacet
  facet normal  -0.000000e+000  0.000000e+000  1.000000e+000
    outer loop
      vertex  1.256881e-001 -4.120008e-001  1.015625e-001
      vertex  1.025486e-001 -4.142798e-001  1.015625e-001
      vertex  1.103618e-001 -4.150493e-001  1.015625e-001
    endloop
  endfacet
  facet normal  0.000000e+000  0.000000e+000  1.000000e+000
    outer loop
      vertex  1.256881e-001 -4.120008e-001  1.015625e-001
      vertex  1.103618e-001 -4.150493e-001  1.015625e-001
      vertex  1.181751e-001 -4.142798e-001  1.015625e-001
    endloop
  endfacet
  facet normal  -0.000000e+000  0.000000e+000  1.000000e+000
    outer loop
      vertex  1.496416e-001 -3.671868e-001  1.015625e-001
      vertex  7.108203e-002 -3.671868e-001  1.015625e-001
      vertex  1.504112e-001 -3.750000e-001  1.015625e-001
    endloop
  endfacet
  facet normal  0.000000e+000  0.000000e+000  1.000000e+000
    outer loop
      vertex  1.504112e-001 -3.750000e-001  1.015625e-001
      vertex  7.108203e-002 -3.671868e-001  1.015625e-001
      vertex  7.031250e-002 -3.750000e-001  1.015625e-001
    endloop
  endfacet
  facet normal  -0.000000e+000  0.000000e+000  1.000000e+000
    outer loop
      vertex  1.504112e-001 -3.750000e-001  1.015625e-001
      vertex  7.031250e-002 -3.750000e-001  1.015625e-001
      vertex  1.496416e-001 -3.828132e-001  1.015625e-001
    endloop
  endfacet
  facet normal  0.000000e+000  0.000000e+000  1.000000e+000
    outer loop
      vertex  1.496416e-001 -3.828132e-001  1.015625e-001
      vertex  7.031250e-002 -3.750000e-001  1.015625e-001
      vertex  7.108203e-002 -3.828132e-001  1.015625e-001
    endloop
  endfacet
  facet normal  -0.000000e+000  0.000000e+000  9.999999e-001
    outer loop
      vertex  1.496416e-001 -3.828132e-001  1.015625e-001
      vertex  7.108203e-002 -3.828132e-001  1.015625e-001
      vertex  7.336108e-002 -3.903262e-001  1.015625e-001
    endloop
  endfacet
  facet normal -9.801789e-002  9.951847e-001  0.000000e+000
    outer loop
      vertex  1.103618e-001 -4.697368e-001  1.562500e-001
      vertex  1.288441e-001 -4.679165e-001  2.194079e-001
      vertex  1.288441e-001 -4.679165e-001  1.562500e-001
    endloop
  endfacet
  facet normal -2.902843e-001  9.569405e-001  0.000000e+000
    outer loop
      vertex  1.288441e-001 -4.679165e-001  1.562500e-001
      vertex  1.288441e-001 -4.679165e-001  2.194079e-001
      vertex  1.466161e-001 -4.625254e-001  2.194079e-001
    endloop
  endfacet
  facet normal -2.902843e-001  9.569405e-001  0.000000e+000
    outer loop
      vertex  1.288441e-001 -4.679165e-001  1.562500e-001
      vertex  1.466161e-001 -4.625254e-001  2.194079e-001
      vertex  1.466161e-001 -4.625254e-001  1.562500e-001
    endloop
  endfacet
  facet normal -4.713959e-001  8.819217e-001  0.000000e+000
    outer loop
      vertex  1.466161e-001 -4.625254e-001  1.562500e-001
      vertex  1.466161e-001 -4.625254e-001  2.194079e-001
      vertex  1.629948e-001 -4.537708e-001  2.194079e-001
    endloop
  endfacet
  facet normal -4.713959e-001  8.819217e-001  0.000000e+000
    outer loop
      vertex  1.466161e-001 -4.625254e-001  1.562500e-001
      vertex  1.629948e-001 -4.537708e-001  2.194079e-001
      vertex  1.629948e-001 -4.537708e-001  1.562500e-001
    endloop
  endfacet
  facet normal -6.343936e-001  7.730101e-001  0.000000e+000
    outer loop
      vertex  1.629948e-001 -4.537708e-001  1.562500e-001
      vertex  1.629948e-001 -4.537708e-001  2.194079e-001
      vertex  1.773509e-001 -4.419891e-001  2.194079e-001
    endloop
  endfacet
  facet normal -6.343936e-001  7.730101e-001  0.000000e+000
    outer loop
      vertex  1.629948e-001 -4.537708e-001  1.562500e-001
      vertex  1.773509e-001 -4.419891e-001  2.194079e-001
      vertex  1.773509e-001 -4.419891e-001  1.562500e-001
    endloop
  endfacet
  facet normal -7.730108e-001  6.343928e-001  0.000000e+000
    outer loop
      vertex  1.773509e-001 -4.419891e-001  1.562500e-001
      vertex  1.773509e-001 -4.419891e-001  2.194079e-001
      vertex  1.891326e-001 -4.276330e-001  2.194079e-001
    endloop
  endfacet
  facet normal -7.730108e-001  6.343928e-001  0.000000e+000
    outer loop
      vertex  1.773509e-001 -4.419891e-001  1.562500e-001
      vertex  1.891326e-001 -4.276330e-001  2.194079e-001
      vertex  1.891326e-001 -4.276330e-001  1.562500e-001
    endloop
  endfacet
  facet normal -8.819211e-001  4.713973e-001  0.000000e+000
    outer loop
      vertex  1.891326e-001 -4.276330e-001  1.562500e-001
      vertex  1.891326e-001 -4.276330e-001  2.194079e-001
      vertex  1.978873e-001 -4.112542e-001  2.194079e-001
    endloop
  endfacet
  facet normal -8.819211e-001  4.713973e-001  0.000000e+000
    outer loop
      vertex  1.891326e-001 -4.276330e-001  1.562500e-001
      vertex  1.978873e-001 -4.112542e-001  2.194079e-001
      vertex  1.978873e-001 -4.112542e-001  1.562500e-001
    endloop
  endfacet
  facet normal -9.569403e-001  2.902848e-001  0.000000e+000
    outer loop
      vertex  1.978873e-001 -4.112542e-001  1.562500e-001
      vertex  1.978873e-001 -4.112542e-001  2.194079e-001
      vertex  2.032783e-001 -3.934822e-001  2.194079e-001
    endloop
  endfacet
  facet normal -9.569403e-001  2.902848e-001  0.000000e+000
    outer loop
      vertex  1.978873e-001 -4.112542e-001  1.562500e-001
      vertex  2.032783e-001 -3.934822e-001  2.194079e-001
      vertex  2.032783e-001 -3.934822e-001  1.562500e-001
    endloop
  endfacet
  facet normal -9.951847e-001  9.801710e-002  0.000000e+000
    outer loop
      vertex  2.032783e-001 -3.934822e-001  1.562500e-001
      vertex  2.032783e-001 -3.934822e-001  2.194079e-001
      vertex  2.050987e-001 -3.750000e-001  2.187500e-001
    endloop
  endfacet
  facet normal -9.951847e-001  9.801710e-002  0.000000e+000
    outer loop
      vertex  2.032783e-001 -3.934822e-001  1.562500e-001
      vertex  2.050987e-001 -3.750000e-001  2.187500e-001
      vertex  2.050987e-001 -3.750000e-001  1.562500e-001
    endloop
  endfacet
  facet normal -9.801789e-002  9.951847e-001  0.000000e+000
    outer loop
      vertex  1.288441e-001 -4.679165e-001  2.194079e-001
      vertex  1.103618e-001 -4.697368e-001  1.562500e-001
      vertex  1.103618e-001 -4.697368e-001  2.194079e-001
    endloop
  endfacet
  facet normal  9.801786e-002  9.951847e-001  0.000000e+000
    outer loop
      vertex  1.103618e-001 -4.697368e-001  2.194079e-001
      vertex  1.103618e-001 -4.697368e-001  1.562500e-001
      vertex  9.187960e-002 -4.679165e-001  1.562500e-001
    endloop
  endfacet
  facet normal  9.801786e-002  9.951847e-001  -0.000000e+000
    outer loop
      vertex  1.103618e-001 -4.697368e-001  2.194079e-001
      vertex  9.187960e-002 -4.679165e-001  1.562500e-001
      vertex  9.187960e-002 -4.679165e-001  2.194079e-001
    endloop
  endfacet
  facet normal  2.902843e-001  9.569405e-001  0.000000e+000
    outer loop
      vertex  9.187960e-002 -4.679165e-001  2.194079e-001
      vertex  9.187960e-002 -4.679165e-001  1.562500e-001
      vertex  7.410762e-002 -4.625254e-001  1.562500e-001
    endloop
  endfacet
  facet normal  2.902843e-001  9.569405e-001  -0.000000e+000
    outer loop
      vertex  9.187960e-002 -4.679165e-001  2.194079e-001
      vertex  7.410762e-002 -4.625254e-001  1.562500e-001
      vertex  7.410762e-002 -4.625254e-001  2.194079e-001
    endloop
  endfacet
  facet normal  4.713961e-001  8.819216e-001  0.000000e+000
    outer loop
      vertex  7.410762e-002 -4.625254e-001  2.194079e-001
      vertex  7.410762e-002 -4.625254e-001  1.562500e-001
      vertex  5.772887e-002 -4.537708e-001  1.562500e-001
    endloop
  endfacet
  facet normal  4.713961e-001  8.819216e-001  -0.000000e+000
    outer loop
      vertex  7.410762e-002 -4.625254e-001  2.194079e-001
      vertex  5.772887e-002 -4.537708e-001  1.562500e-001
      vertex  5.772887e-002 -4.537708e-001  2.194079e-001
    endloop
  endfacet
  facet normal  6.343936e-001  7.730101e-001  0.000000e+000
    outer loop
      vertex  5.772887e-002 -4.537708e-001  2.194079e-001
      vertex  5.772887e-002 -4.537708e-001  1.562500e-001
      vertex  4.337278e-002 -4.419891e-001  1.562500e-001
    endloop
  endfacet
  facet normal  6.343936e-001  7.730101e-001  -0.000000e+000
    outer loop
      vertex  5.772887e-002 -4.537708e-001  2.194079e-001
      vertex  4.337278e-002 -4.419891e-001  1.562500e-001
      vertex  4.337278e-002 -4.419891e-001  2.194079e-001
    endloop
  endfacet
  facet normal  7.730107e-001  6.343930e-001  0.000000e+000
    outer loop
      vertex  4.337278e-002 -4.419891e-001  2.194079e-001
      vertex  4.337278e-002 -4.419891e-001  1.562500e-001
      vertex  3.159104e-002 -4.276330e-001  1.562500e-001
    endloop
  endfacet
  facet normal  7.730107e-001  6.343930e-001  -0.000000e+000
    outer loop
      vertex  4.337278e-002 -4.419891e-001  2.194079e-001
      vertex  3.159104e-002 -4.276330e-001  1.562500e-001
      vertex  3.159104e-002 -4.276330e-001  2.194079e-001
    endloop
  endfacet
  facet normal  8.819211e-001  4.713970e-001  0.000000e+000
    outer loop
      vertex  3.159104e-002 -4.276330e-001  2.194079e-001
      vertex  3.159104e-002 -4.276330e-001  1.562500e-001
      vertex  2.283641e-002 -4.112542e-001  1.562500e-001
    endloop
  endfacet
  facet normal  8.819211e-001  4.713970e-001  -0.000000e+000
    outer loop
      vertex  3.159104e-002 -4.276330e-001  2.194079e-001
      vertex  2.283641e-002 -4.112542e-001  1.562500e-001
      vertex  2.283641e-002 -4.112542e-001  2.194079e-001
    endloop
  endfacet
  facet normal  9.569404e-001  2.902845e-001  0.000000e+000
    outer loop
      vertex  2.283641e-002 -4.112542e-001  2.194079e-001
      vertex  2.283641e-002 -4.112542e-001  1.562500e-001
      vertex  1.744534e-002 -3.934822e-001  1.562500e-001
    endloop
  endfacet
  facet normal  9.569404e-001  2.902845e-001  -0.000000e+000
    outer loop
      vertex  2.283641e-002 -4.112542e-001  2.194079e-001
      vertex  1.744534e-002 -3.934822e-001  1.562500e-001
      vertex  1.744534e-002 -3.934822e-001  2.194079e-001
    endloop
  endfacet
  facet normal  9.951847e-001  9.801720e-002  0.000000e+000
    outer loop
      vertex  1.744534e-002 -3.934822e-001  2.194079e-001
      vertex  1.744534e-002 -3.934822e-001  1.562500e-001
      vertex  1.562500e-002 -3.750000e-001  1.562500e-001
    endloop
  endfacet
  facet normal  9.951847e-001  9.801720e-002  -0.000000e+000
    outer loop
      vertex  1.744534e-002 -3.934822e-001  2.194079e-001
      vertex  1.562500e-002 -3.750000e-001  1.562500e-001
      vertex  1.562500e-002 -3.750000e-001  2.187500e-001
    endloop
  endfacet
  facet normal  9.801786e-002 -9.951847e-001  0.000000e+000
    outer loop
      vertex  1.103618e-001 -2.802632e-001  1.562500e-001
      vertex  9.187960e-002 -2.820835e-001  2.194079e-001
      vertex  9.187960e-002 -2.820835e-001  1.562500e-001
    endloop
  endfacet
  facet normal  2.902843e-001 -9.569405e-001  0.000000e+000
    outer loop
      vertex  9.187960e-002 -2.820835e-001  1.562500e-001
      vertex  9.187960e-002 -2.820835e-001  2.194079e-001
      vertex  7.410762e-002 -2.874746e-001  2.194079e-001
    endloop
  endfacet
  facet normal  2.902843e-001 -9.569405e-001  0.000000e+000
    outer loop
      vertex  9.187960e-002 -2.820835e-001  1.562500e-001
      vertex  7.410762e-002 -2.874746e-001  2.194079e-001
      vertex  7.410762e-002 -2.874746e-001  1.562500e-001
    endloop
  endfacet
  facet normal  4.713961e-001 -8.819216e-001  0.000000e+000
    outer loop
      vertex  7.410762e-002 -2.874746e-001  1.562500e-001
      vertex  7.410762e-002 -2.874746e-001  2.194079e-001
      vertex  5.772887e-002 -2.962292e-001  2.194079e-001
    endloop
  endfacet
  facet normal  4.713961e-001 -8.819216e-001  0.000000e+000
    outer loop
      vertex  7.410762e-002 -2.874746e-001  1.562500e-001
      vertex  5.772887e-002 -2.962292e-001  2.194079e-001
      vertex  5.772887e-002 -2.962292e-001  1.562500e-001
    endloop
  endfacet
  facet normal  6.343936e-001 -7.730101e-001  0.000000e+000
    outer loop
      vertex  5.772887e-002 -2.962292e-001  1.562500e-001
      vertex  5.772887e-002 -2.962292e-001  2.194079e-001
      vertex  4.337278e-002 -3.080109e-001  2.194079e-001
    endloop
  endfacet
  facet normal  6.343936e-001 -7.730101e-001  0.000000e+000
    outer loop
      vertex  5.772887e-002 -2.962292e-001  1.562500e-001
      vertex  4.337278e-002 -3.080109e-001  2.194079e-001
      vertex  4.337278e-002 -3.080109e-001  1.562500e-001
    endloop
  endfacet
  facet normal  7.730107e-001 -6.343930e-001  0.000000e+000
    outer loop
      vertex  4.337278e-002 -3.080109e-001  1.562500e-001
      vertex  4.337278e-002 -3.080109e-001  2.194079e-001
      vertex  3.159104e-002 -3.223670e-001  2.194079e-001
    endloop
  endfacet
  facet normal  7.730107e-001 -6.343930e-001  0.000000e+000
    outer loop
      vertex  4.337278e-002 -3.080109e-001  1.562500e-001
      vertex  3.159104e-002 -3.223670e-001  2.194079e-001
      vertex  3.159104e-002 -3.223670e-001  1.562500e-001
    endloop
  endfacet
  facet normal  8.819211e-001 -4.713970e-001  0.000000e+000
    outer loop
      vertex  3.159104e-002 -3.223670e-001  1.562500e-001
      vertex  3.159104e-002 -3.223670e-001  2.194079e-001
      vertex  2.283641e-002 -3.387458e-001  2.194079e-001
    endloop
  endfacet
  facet normal  8.819211e-001 -4.713970e-001  0.000000e+000
    outer loop
      vertex  3.159104e-002 -3.223670e-001  1.562500e-001
      vertex  2.283641e-002 -3.387458e-001  2.194079e-001
      vertex  2.283641e-002 -3.387458e-001  1.562500e-001
    endloop
  endfacet
  facet normal  9.569404e-001 -2.902845e-001  0.000000e+000
    outer loop
      vertex  2.283641e-002 -3.387458e-001  1.562500e-001
      vertex  2.283641e-002 -3.387458e-001  2.194079e-001
      vertex  1.744534e-002 -3.565178e-001  2.194079e-001
    endloop
  endfacet
  facet normal  9.569404e-001 -2.902845e-001  0.000000e+000
    outer loop
      vertex  2.283641e-002 -3.387458e-001  1.562500e-001
      vertex  1.744534e-002 -3.565178e-001  2.194079e-001
      vertex  1.744534e-002 -3.565178e-001  1.562500e-001
    endloop
  endfacet
  facet normal  9.951847e-001 -9.801720e-002  0.000000e+000
    outer loop
      vertex  1.744534e-002 -3.565178e-001  1.562500e-001
      vertex  1.744534e-002 -3.565178e-001  2.194079e-001
      vertex  1.562500e-002 -3.750000e-001  2.187500e-001
    endloop
  endfacet
  facet normal  9.951847e-001 -9.801720e-002  0.000000e+000
    outer loop
      vertex  1.744534e-002 -3.565178e-001  1.562500e-001
      vertex  1.562500e-002 -3.750000e-001  2.187500e-001
      vertex  1.562500e-002 -3.750000e-001  1.562500e-001
    endloop
  endfacet
  facet normal  9.801786e-002 -9.951847e-001  0.000000e+000
    outer loop
      vertex  9.187960e-002 -2.820835e-001  2.194079e-001
      vertex  1.103618e-001 -2.802632e-001  1.562500e-001
      vertex  1.103618e-001 -2.802632e-001  2.194079e-001
    endloop
  endfacet
  facet normal -9.801789e-002 -9.951847e-001  -0.000000e+000
    outer loop
      vertex  1.103618e-001 -2.802632e-001  2.194079e-001
      vertex  1.103618e-001 -2.802632e-001  1.562500e-001
      vertex  1.288441e-001 -2.820835e-001  1.562500e-001
    endloop
  endfacet
  facet normal -9.801789e-002 -9.951847e-001  0.000000e+000
    outer loop
      vertex  1.103618e-001 -2.802632e-001  2.194079e-001
      vertex  1.288441e-001 -2.820835e-001  1.562500e-001
      vertex  1.288441e-001 -2.820835e-001  2.194079e-001
    endloop
  endfacet
  facet normal -2.902843e-001 -9.569405e-001  -0.000000e+000
    outer loop
      vertex  1.288441e-001 -2.820835e-001  2.194079e-001
      vertex  1.288441e-001 -2.820835e-001  1.562500e-001
      vertex  1.466161e-001 -2.874746e-001  1.562500e-001
    endloop
  endfacet
  facet normal -2.902843e-001 -9.569405e-001  0.000000e+000
    outer loop
      vertex  1.288441e-001 -2.820835e-001  2.194079e-001
      vertex  1.466161e-001 -2.874746e-001  1.562500e-001
      vertex  1.466161e-001 -2.874746e-001  2.194079e-001
    endloop
  endfacet
  facet normal -4.713959e-001 -8.819217e-001  -0.000000e+000
    outer loop
      vertex  1.466161e-001 -2.874746e-001  2.194079e-001
      vertex  1.466161e-001 -2.874746e-001  1.562500e-001
      vertex  1.629948e-001 -2.962292e-001  1.562500e-001
    endloop
  endfacet
  facet normal -4.713959e-001 -8.819217e-001  0.000000e+000
    outer loop
      vertex  1.466161e-001 -2.874746e-001  2.194079e-001
      vertex  1.629948e-001 -2.962292e-001  1.562500e-001
      vertex  1.629948e-001 -2.962292e-001  2.194079e-001
    endloop
  endfacet
  facet normal -6.343936e-001 -7.730101e-001  -0.000000e+000
    outer loop
      vertex  1.629948e-001 -2.962292e-001  2.194079e-001
      vertex  1.629948e-001 -2.962292e-001  1.562500e-001
      vertex  1.773509e-001 -3.080109e-001  1.562500e-001
    endloop
  endfacet
  facet normal -6.343936e-001 -7.730101e-001  0.000000e+000
    outer loop
      vertex  1.629948e-001 -2.962292e-001  2.194079e-001
      vertex  1.773509e-001 -3.080109e-001  1.562500e-001
      vertex  1.773509e-001 -3.080109e-001  2.194079e-001
    endloop
  endfacet
  facet normal -7.730108e-001 -6.343928e-001  -0.000000e+000
    outer loop
      vertex  1.773509e-001 -3.080109e-001  2.194079e-001
      vertex  1.773509e-001 -3.080109e-001  1.562500e-001
      vertex  1.891326e-001 -3.223670e-001  1.562500e-001
    endloop
  endfacet
  facet normal -7.730108e-001 -6.343928e-001  0.000000e+000
    outer loop
      vertex  1.773509e-001 -3.080109e-001  2.194079e-001
      vertex  1.891326e-001 -3.223670e-001  1.562500e-001
      vertex  1.891326e-001 -3.223670e-001  2.194079e-001
    endloop
  endfacet
  facet normal -8.819211e-001 -4.713973e-001  -0.000000e+000
    outer loop
      vertex  1.891326e-001 -3.223670e-001  2.194079e-001
      vertex  1.891326e-001 -3.223670e-001  1.562500e-001
      vertex  1.978873e-001 -3.387458e-001  1.562500e-001
    endloop
  endfacet
  facet normal -8.819211e-001 -4.713973e-001  0.000000e+000
    outer loop
      vertex  1.891326e-001 -3.223670e-001  2.194079e-001
      vertex  1.978873e-001 -3.387458e-001  1.562500e-001
      vertex  1.978873e-001 -3.387458e-001  2.194079e-001
    endloop
  endfacet
  facet normal -9.569403e-001 -2.902848e-001  -0.000000e+000
    outer loop
      vertex  1.978873e-001 -3.387458e-001  2.194079e-001
      vertex  1.978873e-001 -3.387458e-001  1.562500e-001
      vertex  2.032783e-001 -3.565178e-001  1.562500e-001
    endloop
  endfacet
  facet normal -9.569403e-001 -2.902848e-001  0.000000e+000
    outer loop
      vertex  1.978873e-001 -3.387458e-001  2.194079e-001
      vertex  2.032783e-001 -3.565178e-001  1.562500e-001
      vertex  2.032783e-001 -3.565178e-001  2.194079e-001
    endloop
  endfacet
  facet normal -9.951847e-001 -9.801710e-002  -0.000000e+000
    outer loop
      vertex  2.032783e-001 -3.565178e-001  2.194079e-001
      vertex  2.032783e-001 -3.565178e-001  1.562500e-001
      vertex  2.050987e-001 -3.750000e-001  1.562500e-001
    endloop
  endfacet
  facet normal -9.951847e-001 -9.801710e-002  0.000000e+000
    outer loop
      vertex  2.032783e-001 -3.565178e-001  2.194079e-001
      vertex  2.050987e-001 -3.750000e-001  1.562500e-001
      vertex  2.050987e-001 -3.750000e-001  2.187500e-001
    endloop
  endfacet
  facet normal -7.053981e-001  6.947594e-002  7.053981e-001
    outer loop
      vertex  1.504112e-001 -3.750000e-001  1.015625e-001
      vertex  1.496416e-001 -3.828132e-001  1.015625e-001
      vertex  2.050987e-001 -3.750000e-001  1.562500e-001
    endloop
  endfacet
  facet normal -7.053981e-001  6.947562e-002  7.053983e-001
    outer loop
      vertex  1.496416e-001 -3.828132e-001  1.015625e-001
      vertex  2.032783e-001 -3.934822e-001  1.562500e-001
      vertex  2.050987e-001 -3.750000e-001  1.562500e-001
    endloop
  endfacet
  facet normal  7.053981e-001  6.947570e-002  7.053981e-001
    outer loop
      vertex  1.562500e-002 -3.750000e-001  1.562500e-001
      vertex  1.744534e-002 -3.934822e-001  1.562500e-001
      vertex  7.031250e-002 -3.750000e-001  1.015625e-001
    endloop
  endfacet
  facet normal  7.053982e-001  6.947528e-002  7.053981e-001
    outer loop
      vertex  1.744534e-002 -3.934822e-001  1.562500e-001
      vertex  7.108203e-002 -3.828132e-001  1.015625e-001
      vertex  7.031250e-002 -3.750000e-001  1.015625e-001
    endloop
  endfacet
  facet normal  6.782901e-001  2.057569e-001  7.053981e-001
    outer loop
      vertex  1.744534e-002 -3.934822e-001  1.562500e-001
      vertex  2.283641e-002 -4.112542e-001  1.562500e-001
      vertex  7.336108e-002 -3.903262e-001  1.015625e-001
    endloop
  endfacet
  facet normal  6.782901e-001  2.057574e-001  7.053981e-001
    outer loop
      vertex  7.108203e-002 -3.828132e-001  1.015625e-001
      vertex  1.744534e-002 -3.934822e-001  1.562500e-001
      vertex  7.336108e-002 -3.903262e-001  1.015625e-001
    endloop
  endfacet
  facet normal  5.479187e-001  4.496650e-001  7.053981e-001
    outer loop
      vertex  3.159104e-002 -4.276330e-001  1.562500e-001
      vertex  4.337278e-002 -4.419891e-001  1.562500e-001
      vertex  7.706203e-002 -3.972502e-001  1.015625e-001
    endloop
  endfacet
  facet normal  6.251157e-001  3.341316e-001  7.053981e-001
    outer loop
      vertex  7.706203e-002 -3.972502e-001  1.015625e-001
      vertex  2.283641e-002 -4.112542e-001  1.562500e-001
      vertex  3.159104e-002 -4.276330e-001  1.562500e-001
    endloop
  endfacet
  facet normal  6.251158e-001  3.341313e-001  7.053981e-001
    outer loop
      vertex  7.336108e-002 -3.903262e-001  1.015625e-001
      vertex  2.283641e-002 -4.112542e-001  1.562500e-001
      vertex  7.706203e-002 -3.972502e-001  1.015625e-001
    endloop
  endfacet
  facet normal  3.341309e-001  6.251160e-001  7.053981e-001
    outer loop
      vertex  5.772887e-002 -4.537708e-001  1.562500e-001
      vertex  7.410762e-002 -4.625254e-001  1.562500e-001
      vertex  9.503562e-002 -4.120008e-001  1.015625e-001
    endloop
  endfacet
  facet normal  3.341323e-001  6.251150e-001  7.053983e-001
    outer loop
      vertex  8.811162e-002 -4.082998e-001  1.015625e-001
      vertex  5.772887e-002 -4.537708e-001  1.562500e-001
      vertex  9.503562e-002 -4.120008e-001  1.015625e-001
    endloop
  endfacet
  facet normal  4.496654e-001  5.479183e-001  7.053982e-001
    outer loop
      vertex  8.811162e-002 -4.082998e-001  1.015625e-001
      vertex  8.204268e-002 -4.033192e-001  1.015625e-001
      vertex  5.772887e-002 -4.537708e-001  1.562500e-001
    endloop
  endfacet
  facet normal  6.947617e-002  7.053983e-001  7.053981e-001
    outer loop
      vertex  9.187960e-002 -4.679165e-001  1.562500e-001
      vertex  1.103618e-001 -4.697368e-001  1.562500e-001
      vertex  1.025486e-001 -4.142798e-001  1.015625e-001
    endloop
  endfacet
  facet normal  2.057568e-001  6.782903e-001  7.053981e-001
    outer loop
      vertex  1.025486e-001 -4.142798e-001  1.015625e-001
      vertex  7.410762e-002 -4.625254e-001  1.562500e-001
      vertex  9.187960e-002 -4.679165e-001  1.562500e-001
    endloop
  endfacet
  facet normal  2.057574e-001  6.782901e-001  7.053981e-001
    outer loop
      vertex  9.503562e-002 -4.120008e-001  1.015625e-001
      vertex  7.410762e-002 -4.625254e-001  1.562500e-001
      vertex  1.025486e-001 -4.142798e-001  1.015625e-001
    endloop
  endfacet
  facet normal -2.057568e-001  6.782902e-001  7.053981e-001
    outer loop
      vertex  1.288441e-001 -4.679165e-001  1.562500e-001
      vertex  1.466161e-001 -4.625254e-001  1.562500e-001
      vertex  1.256881e-001 -4.120008e-001  1.015625e-001
    endloop
  endfacet
  facet normal -2.057576e-001  6.782901e-001  7.053980e-001
    outer loop
      vertex  1.181751e-001 -4.142798e-001  1.015625e-001
      vertex  1.288441e-001 -4.679165e-001  1.562500e-001
      vertex  1.256881e-001 -4.120008e-001  1.015625e-001
    endloop
  endfacet
  facet normal -6.947470e-002  7.053984e-001  7.053980e-001
    outer loop
      vertex  1.181751e-001 -4.142798e-001  1.015625e-001
      vertex  1.103618e-001 -4.150493e-001  1.015625e-001
      vertex  1.288441e-001 -4.679165e-001  1.562500e-001
    endloop
  endfacet
  facet normal -4.496653e-001  5.479182e-001  7.053982e-001
    outer loop
      vertex  1.629948e-001 -4.537708e-001  1.562500e-001
      vertex  1.773509e-001 -4.419891e-001  1.562500e-001
      vertex  1.326121e-001 -4.082998e-001  1.015625e-001
    endloop
  endfacet
  facet normal -3.341307e-001  6.251160e-001  7.053983e-001
    outer loop
      vertex  1.326121e-001 -4.082998e-001  1.015625e-001
      vertex  1.466161e-001 -4.625254e-001  1.562500e-001
      vertex  1.629948e-001 -4.537708e-001  1.562500e-001
    endloop
  endfacet
  facet normal -3.341324e-001  6.251153e-001  7.053981e-001
    outer loop
      vertex  1.256881e-001 -4.120008e-001  1.015625e-001
      vertex  1.466161e-001 -4.625254e-001  1.562500e-001
      vertex  1.326121e-001 -4.082998e-001  1.015625e-001
    endloop
  endfacet
  facet normal -6.251156e-001  3.341317e-001  7.053981e-001
    outer loop
      vertex  1.891326e-001 -4.276330e-001  1.562500e-001
      vertex  1.978873e-001 -4.112542e-001  1.562500e-001
      vertex  1.473626e-001 -3.903262e-001  1.015625e-001
    endloop
  endfacet
  facet normal -6.251158e-001  3.341313e-001  7.053981e-001
    outer loop
      vertex  1.436616e-001 -3.972502e-001  1.015625e-001
      vertex  1.891326e-001 -4.276330e-001  1.562500e-001
      vertex  1.473626e-001 -3.903262e-001  1.015625e-001
    endloop
  endfacet
  facet normal -5.479183e-001  4.496657e-001  7.053980e-001
    outer loop
      vertex  1.436616e-001 -3.972502e-001  1.015625e-001
      vertex  1.386810e-001 -4.033192e-001  1.015625e-001
      vertex  1.891326e-001 -4.276330e-001  1.562500e-001
    endloop
  endfacet
  facet normal -6.782901e-001  2.057571e-001  7.053982e-001
    outer loop
      vertex  1.496416e-001 -3.828132e-001  1.015625e-001
      vertex  1.978873e-001 -4.112542e-001  1.562500e-001
      vertex  2.032783e-001 -3.934822e-001  1.562500e-001
    endloop
  endfacet
  facet normal -6.782899e-001  2.057573e-001  7.053982e-001
    outer loop
      vertex  1.473626e-001 -3.903262e-001  1.015625e-001
      vertex  1.978873e-001 -4.112542e-001  1.562500e-001
      vertex  1.496416e-001 -3.828132e-001  1.015625e-001
    endloop
  endfacet
  facet normal  5.479177e-001  4.496659e-001  7.053983e-001
    outer loop
      vertex  8.204268e-002 -4.033192e-001  1.015625e-001
      vertex  7.706203e-002 -3.972502e-001  1.015625e-001
      vertex  4.337278e-002 -4.419891e-001  1.562500e-001
    endloop
  endfacet
  facet normal  4.496653e-001  5.479183e-001  7.053982e-001
    outer loop
      vertex  4.337278e-002 -4.419891e-001  1.562500e-001
      vertex  5.772887e-002 -4.537708e-001  1.562500e-001
      vertex  8.204268e-002 -4.033192e-001  1.015625e-001
    endloop
  endfacet
  facet normal  6.947467e-002  7.053982e-001  7.053982e-001
    outer loop
      vertex  1.103618e-001 -4.150493e-001  1.015625e-001
      vertex  1.025486e-001 -4.142798e-001  1.015625e-001
      vertex  1.103618e-001 -4.697368e-001  1.562500e-001
    endloop
  endfacet
  facet normal -6.947619e-002  7.053981e-001  7.053981e-001
    outer loop
      vertex  1.103618e-001 -4.697368e-001  1.562500e-001
      vertex  1.288441e-001 -4.679165e-001  1.562500e-001
      vertex  1.103618e-001 -4.150493e-001  1.015625e-001
    endloop
  endfacet
  facet normal -4.496650e-001  5.479185e-001  7.053982e-001
    outer loop
      vertex  1.386810e-001 -4.033192e-001  1.015625e-001
      vertex  1.326121e-001 -4.082998e-001  1.015625e-001
      vertex  1.773509e-001 -4.419891e-001  1.562500e-001
    endloop
  endfacet
  facet normal -5.479187e-001  4.496647e-001  7.053981e-001
    outer loop
      vertex  1.773509e-001 -4.419891e-001  1.562500e-001
      vertex  1.891326e-001 -4.276330e-001  1.562500e-001
      vertex  1.386810e-001 -4.033192e-001  1.015625e-001
    endloop
  endfacet
  facet normal  7.053982e-001 -6.947528e-002  7.053982e-001
    outer loop
      vertex  7.031250e-002 -3.750000e-001  1.015625e-001
      vertex  7.108203e-002 -3.671868e-001  1.015625e-001
      vertex  1.562500e-002 -3.750000e-001  1.562500e-001
    endloop
  endfacet
  facet normal  7.053981e-001 -6.947570e-002  7.053981e-001
    outer loop
      vertex  7.108203e-002 -3.671868e-001  1.015625e-001
      vertex  1.744534e-002 -3.565178e-001  1.562500e-001
      vertex  1.562500e-002 -3.750000e-001  1.562500e-001
    endloop
  endfacet
  facet normal -7.053981e-001 -6.947562e-002  7.053981e-001
    outer loop
      vertex  2.050987e-001 -3.750000e-001  1.562500e-001
      vertex  2.032783e-001 -3.565178e-001  1.562500e-001
      vertex  1.504112e-001 -3.750000e-001  1.015625e-001
    endloop
  endfacet
  facet normal -7.053981e-001 -6.947594e-002  7.053983e-001
    outer loop
      vertex  2.032783e-001 -3.565178e-001  1.562500e-001
      vertex  1.496416e-001 -3.671868e-001  1.015625e-001
      vertex  1.504112e-001 -3.750000e-001  1.015625e-001
    endloop
  endfacet
  facet normal -6.782901e-001 -2.057571e-001  7.053982e-001
    outer loop
      vertex  2.032783e-001 -3.565178e-001  1.562500e-001
      vertex  1.978873e-001 -3.387458e-001  1.562500e-001
      vertex  1.473626e-001 -3.596738e-001  1.015625e-001
    endloop
  endfacet
  facet normal -6.782900e-001 -2.057573e-001  7.053981e-001
    outer loop
      vertex  1.496416e-001 -3.671868e-001  1.015625e-001
      vertex  2.032783e-001 -3.565178e-001  1.562500e-001
      vertex  1.473626e-001 -3.596738e-001  1.015625e-001
    endloop
  endfacet
  facet normal -5.479189e-001 -4.496648e-001  7.053981e-001
    outer loop
      vertex  1.891326e-001 -3.223670e-001  1.562500e-001
      vertex  1.773509e-001 -3.080109e-001  1.562500e-001
      vertex  1.436616e-001 -3.527498e-001  1.015625e-001
    endloop
  endfacet
  facet normal -6.251156e-001 -3.341317e-001  7.053981e-001
    outer loop
      vertex  1.436616e-001 -3.527498e-001  1.015625e-001
      vertex  1.978873e-001 -3.387458e-001  1.562500e-001
      vertex  1.891326e-001 -3.223670e-001  1.562500e-001
    endloop
  endfacet
  facet normal -6.251158e-001 -3.341313e-001  7.053982e-001
    outer loop
      vertex  1.473626e-001 -3.596738e-001  1.015625e-001
      vertex  1.978873e-001 -3.387458e-001  1.562500e-001
      vertex  1.436616e-001 -3.527498e-001  1.015625e-001
    endloop
  endfacet
  facet normal -3.341308e-001 -6.251161e-001  7.053981e-001
    outer loop
      vertex  1.629948e-001 -2.962292e-001  1.562500e-001
      vertex  1.466161e-001 -2.874746e-001  1.562500e-001
      vertex  1.256881e-001 -3.379992e-001  1.015625e-001
    endloop
  endfacet
  facet normal -3.341323e-001 -6.251150e-001  7.053983e-001
    outer loop
      vertex  1.326121e-001 -3.417002e-001  1.015625e-001
      vertex  1.629948e-001 -2.962292e-001  1.562500e-001
      vertex  1.256881e-001 -3.379992e-001  1.015625e-001
    endloop
  endfacet
  facet normal -4.496650e-001 -5.479185e-001  7.053983e-001
    outer loop
      vertex  1.326121e-001 -3.417002e-001  1.015625e-001
      vertex  1.386810e-001 -3.466808e-001  1.015625e-001
      vertex  1.629948e-001 -2.962292e-001  1.562500e-001
    endloop
  endfacet
  facet normal -6.947620e-002 -7.053982e-001  7.053980e-001
    outer loop
      vertex  1.288441e-001 -2.820835e-001  1.562500e-001
      vertex  1.103618e-001 -2.802632e-001  1.562500e-001
      vertex  1.181751e-001 -3.357202e-001  1.015625e-001
    endloop
  endfacet
  facet normal -2.057568e-001 -6.782903e-001  7.053980e-001
    outer loop
      vertex  1.181751e-001 -3.357202e-001  1.015625e-001
      vertex  1.466161e-001 -2.874746e-001  1.562500e-001
      vertex  1.288441e-001 -2.820835e-001  1.562500e-001
    endloop
  endfacet
  facet normal -2.057575e-001 -6.782900e-001  7.053981e-001
    outer loop
      vertex  1.256881e-001 -3.379992e-001  1.015625e-001
      vertex  1.466161e-001 -2.874746e-001  1.562500e-001
      vertex  1.181751e-001 -3.357202e-001  1.015625e-001
    endloop
  endfacet
  facet normal  2.057568e-001 -6.782902e-001  7.053981e-001
    outer loop
      vertex  9.187960e-002 -2.820835e-001  1.562500e-001
      vertex  7.410762e-002 -2.874746e-001  1.562500e-001
      vertex  9.503562e-002 -3.379992e-001  1.015625e-001
    endloop
  endfacet
  facet normal  2.057574e-001 -6.782902e-001  7.053980e-001
    outer loop
      vertex  1.025486e-001 -3.357202e-001  1.015625e-001
      vertex  9.187960e-002 -2.820835e-001  1.562500e-001
      vertex  9.503562e-002 -3.379992e-001  1.015625e-001
    endloop
  endfacet
  facet normal  6.947470e-002 -7.053984e-001  7.053980e-001
    outer loop
      vertex  1.025486e-001 -3.357202e-001  1.015625e-001
      vertex  1.103618e-001 -3.349507e-001  1.015625e-001
      vertex  9.187960e-002 -2.820835e-001  1.562500e-001
    endloop
  endfacet
  facet normal  4.496653e-001 -5.479183e-001  7.053982e-001
    outer loop
      vertex  5.772887e-002 -2.962292e-001  1.562500e-001
      vertex  4.337278e-002 -3.080109e-001  1.562500e-001
      vertex  8.811162e-002 -3.417002e-001  1.015625e-001
    endloop
  endfacet
  facet normal  3.341309e-001 -6.251159e-001  7.053983e-001
    outer loop
      vertex  8.811162e-002 -3.417002e-001  1.015625e-001
      vertex  7.410762e-002 -2.874746e-001  1.562500e-001
      vertex  5.772887e-002 -2.962292e-001  1.562500e-001
    endloop
  endfacet
  facet normal  3.341324e-001 -6.251153e-001  7.053981e-001
    outer loop
      vertex  9.503562e-002 -3.379992e-001  1.015625e-001
      vertex  7.410762e-002 -2.874746e-001  1.562500e-001
      vertex  8.811162e-002 -3.417002e-001  1.015625e-001
    endloop
  endfacet
  facet normal  6.251156e-001 -3.341316e-001  7.053981e-001
    outer loop
      vertex  3.159104e-002 -3.223670e-001  1.562500e-001
      vertex  2.283641e-002 -3.387458e-001  1.562500e-001
      vertex  7.336108e-002 -3.596738e-001  1.015625e-001
    endloop
  endfacet
  facet normal  6.251158e-001 -3.341313e-001  7.053981e-001
    outer loop
      vertex  7.706203e-002 -3.527498e-001  1.015625e-001
      vertex  3.159104e-002 -3.223670e-001  1.562500e-001
      vertex  7.336108e-002 -3.596738e-001  1.015625e-001
    endloop
  endfacet
  facet normal  5.479179e-001 -4.496661e-001  7.053980e-001
    outer loop
      vertex  7.706203e-002 -3.527498e-001  1.015625e-001
      vertex  8.204268e-002 -3.466808e-001  1.015625e-001
      vertex  3.159104e-002 -3.223670e-001  1.562500e-001
    endloop
  endfacet
  facet normal  6.782902e-001 -2.057570e-001  7.053981e-001
    outer loop
      vertex  7.108203e-002 -3.671868e-001  1.015625e-001
      vertex  2.283641e-002 -3.387458e-001  1.562500e-001
      vertex  1.744534e-002 -3.565178e-001  1.562500e-001
    endloop
  endfacet
  facet normal  6.782899e-001 -2.057573e-001  7.053981e-001
    outer loop
      vertex  7.336108e-002 -3.596738e-001  1.015625e-001
      vertex  2.283641e-002 -3.387458e-001  1.562500e-001
      vertex  7.108203e-002 -3.671868e-001  1.015625e-001
    endloop
  endfacet
  facet normal -5.479181e-001 -4.496655e-001  7.053982e-001
    outer loop
      vertex  1.386810e-001 -3.466808e-001  1.015625e-001
      vertex  1.436616e-001 -3.527498e-001  1.015625e-001
      vertex  1.773509e-001 -3.080109e-001  1.562500e-001
    endloop
  endfacet
  facet normal -4.496653e-001 -5.479183e-001  7.053982e-001
    outer loop
      vertex  1.773509e-001 -3.080109e-001  1.562500e-001
      vertex  1.629948e-001 -2.962292e-001  1.562500e-001
      vertex  1.386810e-001 -3.466808e-001  1.015625e-001
    endloop
  endfacet
  facet normal -6.947467e-002 -7.053982e-001  7.053982e-001
    outer loop
      vertex  1.103618e-001 -3.349507e-001  1.015625e-001
      vertex  1.181751e-001 -3.357202e-001  1.015625e-001
      vertex  1.103618e-001 -2.802632e-001  1.562500e-001
    endloop
  endfacet
  facet normal  6.947616e-002 -7.053981e-001  7.053981e-001
    outer loop
      vertex  1.103618e-001 -2.802632e-001  1.562500e-001
      vertex  9.187960e-002 -2.820835e-001  1.562500e-001
      vertex  1.103618e-001 -3.349507e-001  1.015625e-001
    endloop
  endfacet
  facet normal  4.496654e-001 -5.479183e-001  7.053982e-001
    outer loop
      vertex  8.204268e-002 -3.466808e-001  1.015625e-001
      vertex  8.811162e-002 -3.417002e-001  1.015625e-001
      vertex  4.337278e-002 -3.080109e-001  1.562500e-001
    endloop
  endfacet
  facet normal  5.479187e-001 -4.496650e-001  7.053982e-001
    outer loop
      vertex  4.337278e-002 -3.080109e-001  1.562500e-001
      vertex  3.159104e-002 -3.223670e-001  1.562500e-001
      vertex  8.204268e-002 -3.466808e-001  1.015625e-001
    endloop
  endfacet
  facet normal -3.063726e-002  0.000000e+000  9.995306e-001
    outer loop
      vertex  2.265625e-001 -7.500000e-001  2.194079e-001
      vertex  2.265625e-001  0.000000e+000  2.194079e-001
      vertex  2.050987e-001 -3.750000e-001  2.187500e-001
    endloop
  endfacet
  facet normal  2.123376e-001  1.386775e-002  9.770979e-001
    outer loop
      vertex  2.265625e-001 -7.500000e-001  2.194079e-001
      vertex  2.050987e-001 -3.750000e-001  2.187500e-001
      vertex  2.032783e-001 -3.934822e-001  2.194079e-001
    endloop
  endfacet
  facet normal  0.000000e+000  0.000000e+000  1.000000e+000
    outer loop
      vertex  2.265625e-001 -7.500000e-001  2.194079e-001
      vertex  2.032783e-001 -3.934822e-001  2.194079e-001
      vertex  1.978873e-001 -4.112542e-001  2.194079e-001
    endloop
  endfacet
  facet normal  0.000000e+000  0.000000e+000  1.000000e+000
    outer loop
      vertex  2.265625e-001 -7.500000e-001  2.194079e-001
      vertex  1.978873e-001 -4.112542e-001  2.194079e-001
      vertex  1.891326e-001 -4.276330e-001  2.194079e-001
    endloop
  endfacet
  facet normal  0.000000e+000  0.000000e+000  1.000000e+000
    outer loop
      vertex  2.265625e-001 -7.500000e-001  2.194079e-001
      vertex  1.891326e-001 -4.276330e-001  2.194079e-001
      vertex  1.773509e-001 -4.419891e-001  2.194079e-001
    endloop
  endfacet
  facet normal  0.000000e+000  0.000000e+000  1.000000e+000
    outer loop
      vertex  2.265625e-001 -7.500000e-001  2.194079e-001
      vertex  1.773509e-001 -4.419891e-001  2.194079e-001
      vertex  1.629948e-001 -4.537708e-001  2.194079e-001
    endloop
  endfacet
  facet normal  0.000000e+000  0.000000e+000  1.000000e+000
    outer loop
      vertex  2.265625e-001 -7.500000e-001  2.194079e-001
      vertex  1.629948e-001 -4.537708e-001  2.194079e-001
      vertex  1.466161e-001 -4.625254e-001  2.194079e-001
    endloop
  endfacet
  facet normal  0.000000e+000  0.000000e+000  1.000000e+000
    outer loop
      vertex  2.265625e-001 -7.500000e-001  2.194079e-001
      vertex  1.466161e-001 -4.625254e-001  2.194079e-001
      vertex  1.288441e-001 -4.679165e-001  2.194079e-001
    endloop
  endfacet
  facet normal  0.000000e+000  0.000000e+000  1.000000e+000
    outer loop
      vertex  2.265625e-001 -7.500000e-001  2.194079e-001
      vertex  1.288441e-001 -4.679165e-001  2.194079e-001
      vertex  1.103618e-001 -4.697368e-001  2.194079e-001
    endloop
  endfacet
  facet normal  0.000000e+000  0.000000e+000  1.000000e+000
    outer loop
      vertex  2.265625e-001 -7.500000e-001  2.194079e-001
      vertex  1.103618e-001 -4.697368e-001  2.194079e-001
      vertex  1.343486e-017 -7.500000e-001  2.194079e-001
    endloop
  endfacet
  facet normal  -0.000000e+000  0.000000e+000  1.000000e+000
    outer loop
      vertex  2.265625e-001  0.000000e+000  2.194079e-001
      vertex  1.343486e-017  0.000000e+000  2.194079e-001
      vertex  1.103618e-001 -2.802632e-001  2.194079e-001
    endloop
  endfacet
  facet normal  -0.000000e+000  0.000000e+000  1.000000e+000
    outer loop
      vertex  2.265625e-001  0.000000e+000  2.194079e-001
      vertex  1.103618e-001 -2.802632e-001  2.194079e-001
      vertex  1.288441e-001 -2.820835e-001  2.194079e-001
    endloop
  endfacet
  facet normal  -0.000000e+000  0.000000e+000  1.000000e+000
    outer loop
      vertex  2.265625e-001  0.000000e+000  2.194079e-001
      vertex  1.288441e-001 -2.820835e-001  2.194079e-001
      vertex  1.466161e-001 -2.874746e-001  2.194079e-001
    endloop
  endfacet
  facet normal  -0.000000e+000  0.000000e+000  1.000000e+000
    outer loop
      vertex  2.265625e-001  0.000000e+000  2.194079e-001
      vertex  1.466161e-001 -2.874746e-001  2.194079e-001
      vertex  1.629948e-001 -2.962292e-001  2.194079e-001
    endloop
  endfacet
  facet normal  -0.000000e+000  0.000000e+000  1.000000e+000
    outer loop
      vertex  2.265625e-001  0.000000e+000  2.194079e-001
      vertex  1.629948e-001 -2.962292e-001  2.194079e-001
      vertex  1.773509e-001 -3.080109e-001  2.194079e-001
    endloop
  endfacet
  facet normal  -0.000000e+000  0.000000e+000  1.000000e+000
    outer loop
      vertex  2.265625e-001  0.000000e+000  2.194079e-001
      vertex  1.773509e-001 -3.080109e-001  2.194079e-001
      vertex  1.891326e-001 -3.223670e-001  2.194079e-001
    endloop
  endfacet
  facet normal  -0.000000e+000  0.000000e+000  1.000000e+000
    outer loop
      vertex  2.265625e-001  0.000000e+000  2.194079e-001
      vertex  1.891326e-001 -3.223670e-001  2.194079e-001
      vertex  1.978873e-001 -3.387458e-001  2.194079e-001
    endloop
  endfacet
  facet normal  -0.000000e+000  0.000000e+000  1.000000e+000
    outer loop
      vertex  2.265625e-001  0.000000e+000  2.194079e-001
      vertex  1.978873e-001 -3.387458e-001  2.194079e-001
      vertex  2.032783e-001 -3.565178e-001  2.194079e-001
    endloop
  endfacet
  facet normal  2.123376e-001 -1.386775e-002  9.770979e-001
    outer loop
      vertex  2.265625e-001  0.000000e+000  2.194079e-001
      vertex  2.032783e-001 -3.565178e-001  2.194079e-001
      vertex  2.050987e-001 -3.750000e-001  2.187500e-001
    endloop
  endfacet
  facet normal -2.346953e-001 -1.148426e-002  9.720011e-001
    outer loop
      vertex  1.343486e-017  0.000000e+000  2.194079e-001
      vertex  1.562500e-002 -3.750000e-001  2.187500e-001
      vertex  1.744534e-002 -3.565178e-001  2.194079e-001
    endloop
  endfacet
  facet normal  0.000000e+000  -0.000000e+000  1.000000e+000
    outer loop
      vertex  1.343486e-017  0.000000e+000  2.194079e-001
      vertex  1.744534e-002 -3.565178e-001  2.194079e-001
      vertex  2.283641e-002 -3.387458e-001  2.194079e-001
    endloop
  endfacet
  facet normal  0.000000e+000  -0.000000e+000  1.000000e+000
    outer loop
      vertex  1.343486e-017  0.000000e+000  2.194079e-001
      vertex  2.283641e-002 -3.387458e-001  2.194079e-001
      vertex  3.159104e-002 -3.223670e-001  2.194079e-001
    endloop
  endfacet
  facet normal  0.000000e+000  -0.000000e+000  1.000000e+000
    outer loop
      vertex  1.343486e-017  0.000000e+000  2.194079e-001
      vertex  3.159104e-002 -3.223670e-001  2.194079e-001
      vertex  4.337278e-002 -3.080109e-001  2.194079e-001
    endloop
  endfacet
  facet normal  0.000000e+000  -0.000000e+000  1.000000e+000
    outer loop
      vertex  1.343486e-017  0.000000e+000  2.194079e-001
      vertex  4.337278e-002 -3.080109e-001  2.194079e-001
      vertex  5.772887e-002 -2.962292e-001  2.194079e-001
    endloop
  endfacet
  facet normal  0.000000e+000  -0.000000e+000  1.000000e+000
    outer loop
      vertex  1.343486e-017  0.000000e+000  2.194079e-001
      vertex  5.772887e-002 -2.962292e-001  2.194079e-001
      vertex  7.410762e-002 -2.874746e-001  2.194079e-001
    endloop
  endfacet
  facet normal  0.000000e+000  -0.000000e+000  1.000000e+000
    outer loop
      vertex  1.343486e-017  0.000000e+000  2.194079e-001
      vertex  7.410762e-002 -2.874746e-001  2.194079e-001
      vertex  9.187960e-002 -2.820835e-001  2.194079e-001
    endloop
  endfacet
  facet normal  0.000000e+000  -0.000000e+000  1.000000e+000
    outer loop
      vertex  1.343486e-017  0.000000e+000  2.194079e-001
      vertex  9.187960e-002 -2.820835e-001  2.194079e-001
      vertex  1.103618e-001 -2.802632e-001  2.194079e-001
    endloop
  endfacet
  facet normal  0.000000e+000  0.000000e+000  1.000000e+000
    outer loop
      vertex  1.343486e-017 -7.500000e-001  2.194079e-001
      vertex  1.103618e-001 -4.697368e-001  2.194079e-001
      vertex  9.187960e-002 -4.679165e-001  2.194079e-001
    endloop
  endfacet
  facet normal  0.000000e+000  0.000000e+000  1.000000e+000
    outer loop
      vertex  1.343486e-017 -7.500000e-001  2.194079e-001
      vertex  9.187960e-002 -4.679165e-001  2.194079e-001
      vertex  7.410762e-002 -4.625254e-001  2.194079e-001
    endloop
  endfacet
  facet normal  0.000000e+000  0.000000e+000  1.000000e+000
    outer loop
      vertex  1.343486e-017 -7.500000e-001  2.194079e-001
      vertex  7.410762e-002 -4.625254e-001  2.194079e-001
      vertex  5.772887e-002 -4.537708e-001  2.194079e-001
    endloop
  endfacet
  facet normal  0.000000e+000  0.000000e+000  1.000000e+000
    outer loop
      vertex  1.343486e-017 -7.500000e-001  2.194079e-001
      vertex  5.772887e-002 -4.537708e-001  2.194079e-001
      vertex  4.337278e-002 -4.419891e-001  2.194079e-001
    endloop
  endfacet
  facet normal  0.000000e+000  0.000000e+000  1.000000e+000
    outer loop
      vertex  1.343486e-017 -7.500000e-001  2.194079e-001
      vertex  4.337278e-002 -4.419891e-001  2.194079e-001
      vertex  3.159104e-002 -4.276330e-001  2.194079e-001
    endloop
  endfacet
  facet normal  0.000000e+000  0.000000e+000  1.000000e+000
    outer loop
      vertex  1.343486e-017 -7.500000e-001  2.194079e-001
      vertex  3.159104e-002 -4.276330e-001  2.194079e-001
      vertex  2.283641e-002 -4.112542e-001  2.194079e-001
    endloop
  endfacet
  facet normal  0.000000e+000  0.000000e+000  1.000000e+000
    outer loop
      vertex  1.343486e-017 -7.500000e-001  2.194079e-001
      vertex  2.283641e-002 -4.112542e-001  2.194079e-001
      vertex  1.744534e-002 -3.934822e-001  2.194079e-001
    endloop
  endfacet
  facet normal -2.346953e-001  1.148426e-002  9.720011e-001
    outer loop
      vertex  1.343486e-017 -7.500000e-001  2.194079e-001
      vertex  1.744534e-002 -3.934822e-001  2.194079e-001
      vertex  1.562500e-002 -3.750000e-001  2.187500e-001
    endloop
  endfacet
  facet normal  4.206840e-002  0.000000e+000  9.991148e-001
    outer loop
      vertex  1.343486e-017 -7.500000e-001  2.194079e-001
      vertex  1.562500e-002 -3.750000e-001  2.187500e-001
      vertex  1.343486e-017  0.000000e+000  2.194079e-001
    endloop
  endfacet
  facet normal  0.000000e+000 -9.999999e-001  0.000000e+000
    outer loop
      vertex  0.000000e+000 -7.500000e-001  0.000000e+000
      vertex  2.265625e-001 -7.500000e-001 -1.387295e-017
      vertex  1.343486e-017 -7.500000e-001  2.194079e-001
    endloop
  endfacet
  facet normal  0.000000e+000 -9.999999e-001  0.000000e+000
    outer loop
      vertex  1.343486e-017 -7.500000e-001  2.194079e-001
      vertex  2.265625e-001 -7.500000e-001 -1.387295e-017
      vertex  2.265625e-001 -7.500000e-001  2.194079e-001
    endloop
  endfacet
  facet normal  0.000000e+000  9.999999e-001  0.000000e+000
    outer loop
      vertex  0.000000e+000  0.000000e+000  0.000000e+000
      vertex  1.343486e-017  0.000000e+000  2.194079e-001
      vertex  2.265625e-001  0.000000e+000 -1.387295e-017
    endloop
  endfacet
  facet normal  0.000000e+000  9.999999e-001  -0.000000e+000
    outer loop
      vertex  2.265625e-001  0.000000e+000 -1.387295e-017
      vertex  1.343486e-017  0.000000e+000  2.194079e-001
      vertex  2.265625e-001  0.000000e+000  2.194079e-001
    endloop
  endfacet
  facet normal -1.000000e+000  0.000000e+000  6.123234e-017
    outer loop
      vertex  1.343486e-017  0.000000e+000  2.194079e-001
      vertex  0.000000e+000  0.000000e+000  0.000000e+000
      vertex  1.343486e-017 -7.500000e-001  2.194079e-001
    endloop
  endfacet
  facet normal -1.000000e+000  0.000000e+000  6.123234e-017
    outer loop
      vertex  1.343486e-017 -7.500000e-001  2.194079e-001
      vertex  0.000000e+000  0.000000e+000  0.000000e+000
      vertex  0.000000e+000 -7.500000e-001  0.000000e+000
    endloop
  endfacet
  facet normal  1.000000e+000  0.000000e+000  0.000000e+000
    outer loop
      vertex  2.265625e-001  0.000000e+000 -1.387295e-017
      vertex  2.265625e-001  0.000000e+000  2.194079e-001
      vertex  2.265625e-001 -7.500000e-001 -1.387295e-017
    endloop
  endfacet
  facet normal  1.000000e+000  0.000000e+000  0.000000e+000
    outer loop
      vertex  2.265625e-001 -7.500000e-001 -1.387295e-017
      vertex  2.265625e-001  0.000000e+000  2.194079e-001
      vertex  2.265625e-001 -7.500000e-001  2.194079e-001
    endloop
  endfacet
  facet normal -6.123234e-017  0.000000e+000 -1.000000e+000
    outer loop
      vertex  0.000000e+000  0.000000e+000  0.000000e+000
      vertex  2.265625e-001  0.000000e+000 -1.387295e-017
      vertex  0.000000e+000 -7.500000e-001  0.000000e+000
    endloop
  endfacet
  facet normal -6.123234e-017  0.000000e+000 -1.000000e+000
    outer loop
      vertex  0.000000e+000 -7.500000e-001  0.000000e+000
      vertex  2.265625e-001  0.000000e+000 -1.387295e-017
      vertex  2.265625e-001 -7.500000e-001 -1.387295e-017
    endloop
  endfacet
endsolid CATIA STL
