solid CATIA STL
  facet normal  0.000000e+000 -1.000000e+000  0.000000e+000
    outer loop
      vertex  3.828947e-001 -2.250000e+000  7.812500e-003
      vertex -3.750000e-001 -2.250000e+000  7.812500e-003
      vertex  3.828947e-001 -2.250000e+000  0.000000e+000
    endloop
  endfacet
  facet normal  0.000000e+000 -1.000000e+000  0.000000e+000
    outer loop
      vertex  3.828947e-001 -2.250000e+000  0.000000e+000
      vertex -3.750000e-001 -2.250000e+000  7.812500e-003
      vertex -3.750000e-001 -2.250000e+000  0.000000e+000
    endloop
  endfacet
  facet normal  0.000000e+000  1.000000e+000  -0.000000e+000
    outer loop
      vertex  3.828947e-001  7.500000e-001  7.812500e-003
      vertex  3.828947e-001  7.500000e-001  0.000000e+000
      vertex -3.750000e-001  7.500000e-001  7.812500e-003
    endloop
  endfacet
  facet normal  0.000000e+000  1.000000e+000  0.000000e+000
    outer loop
      vertex -3.750000e-001  7.500000e-001  7.812500e-003
      vertex  3.828947e-001  7.500000e-001  0.000000e+000
      vertex -3.750000e-001  7.500000e-001  0.000000e+000
    endloop
  endfacet
  facet normal  0.000000e+000  0.000000e+000 -1.000000e+000
    outer loop
      vertex -3.750000e-001 -2.250000e+000  0.000000e+000
      vertex -3.750000e-001  7.500000e-001  0.000000e+000
      vertex  3.828947e-001 -2.250000e+000  0.000000e+000
    endloop
  endfacet
  facet normal  0.000000e+000  0.000000e+000 -1.000000e+000
    outer loop
      vertex  3.828947e-001 -2.250000e+000  0.000000e+000
      vertex -3.750000e-001  7.500000e-001  0.000000e+000
      vertex  3.828947e-001  7.500000e-001  0.000000e+000
    endloop
  endfacet
  facet normal  0.000000e+000  0.000000e+000  1.000000e+000
    outer loop
      vertex -3.750000e-001 -2.250000e+000  7.812500e-003
      vertex  3.828947e-001 -2.250000e+000  7.812500e-003
      vertex -3.750000e-001  7.500000e-001  7.812500e-003
    endloop
  endfacet
  facet normal  -0.000000e+000  0.000000e+000  1.000000e+000
    outer loop
      vertex -3.750000e-001  7.500000e-001  7.812500e-003
      vertex  3.828947e-001 -2.250000e+000  7.812500e-003
      vertex  3.828947e-001  7.500000e-001  7.812500e-003
    endloop
  endfacet
  facet normal -1.000000e+000  0.000000e+000  0.000000e+000
    outer loop
      vertex -3.750000e-001  7.500000e-001  7.812500e-003
      vertex -3.750000e-001  7.500000e-001  0.000000e+000
      vertex -3.750000e-001 -2.250000e+000  7.812500e-003
    endloop
  endfacet
  facet normal -1.000000e+000  0.000000e+000  0.000000e+000
    outer loop
      vertex -3.750000e-001 -2.250000e+000  7.812500e-003
      vertex -3.750000e-001  7.500000e-001  0.000000e+000
      vertex -3.750000e-001 -2.250000e+000  0.000000e+000
    endloop
  endfacet
  facet normal  1.000000e+000  0.000000e+000  0.000000e+000
    outer loop
      vertex  3.828947e-001 -2.250000e+000  7.812500e-003
      vertex  3.828947e-001 -2.250000e+000  0.000000e+000
      vertex  3.828947e-001  7.500000e-001  7.812500e-003
    endloop
  endfacet
  facet normal  1.000000e+000  0.000000e+000  0.000000e+000
    outer loop
      vertex  3.828947e-001  7.500000e-001  7.812500e-003
      vertex  3.828947e-001 -2.250000e+000  0.000000e+000
      vertex  3.828947e-001  7.500000e-001  0.000000e+000
    endloop
  endfacet
endsolid CATIA STL
