solid CATIA STL
  facet normal  0.000000e+000  0.000000e+000 -1.000000e+000
    outer loop
      vertex -3.906250e-001 -3.125000e-002 -2.500000e-001
      vertex -3.930038e-001 -1.929114e-002 -2.500000e-001
      vertex -3.912255e-001 -2.515343e-002 -2.500000e-001
    endloop
  endfacet
  facet normal  0.000000e+000  0.000000e+000 -1.000000e+000
    outer loop
      vertex -3.906250e-001 -9.375000e-002 -2.500000e-001
      vertex -5.078125e-001 -9.375000e-002 -2.500000e-001
      vertex -5.078125e-001  0.000000e+000 -2.500000e-001
    endloop
  endfacet
  facet normal  0.000000e+000  0.000000e+000 -1.000000e+000
    outer loop
      vertex -3.906250e-001 -9.375000e-002 -2.500000e-001
      vertex -5.078125e-001  0.000000e+000 -2.500000e-001
      vertex -4.218750e-001  9.540979e-018 -2.500000e-001
    endloop
  endfacet
  facet normal  0.000000e+000  0.000000e+000 -9.999999e-001
    outer loop
      vertex -3.906250e-001 -9.375000e-002 -2.500000e-001
      vertex -4.218750e-001  9.540979e-018 -2.500000e-001
      vertex -4.157784e-001 -6.004600e-004 -2.500000e-001
    endloop
  endfacet
  facet normal  0.000000e+000  0.000000e+000 -1.000000e+000
    outer loop
      vertex -3.906250e-001 -9.375000e-002 -2.500000e-001
      vertex -4.157784e-001 -6.004600e-004 -2.500000e-001
      vertex -4.099161e-001 -2.378765e-003 -2.500000e-001
    endloop
  endfacet
  facet normal  0.000000e+000  0.000000e+000 -1.000000e+000
    outer loop
      vertex -3.906250e-001 -9.375000e-002 -2.500000e-001
      vertex -4.099161e-001 -2.378765e-003 -2.500000e-001
      vertex -4.045134e-001 -5.266575e-003 -2.500000e-001
    endloop
  endfacet
  facet normal  0.000000e+000  0.000000e+000 -1.000000e+000
    outer loop
      vertex -3.906250e-001 -9.375000e-002 -2.500000e-001
      vertex -4.045134e-001 -5.266575e-003 -2.500000e-001
      vertex -3.997779e-001 -9.152913e-003 -2.500000e-001
    endloop
  endfacet
  facet normal  0.000000e+000  0.000000e+000 -1.000000e+000
    outer loop
      vertex -3.906250e-001 -9.375000e-002 -2.500000e-001
      vertex -3.997779e-001 -9.152913e-003 -2.500000e-001
      vertex -3.958916e-001 -1.388843e-002 -2.500000e-001
    endloop
  endfacet
  facet normal  0.000000e+000  0.000000e+000 -1.000000e+000
    outer loop
      vertex -3.906250e-001 -9.375000e-002 -2.500000e-001
      vertex -3.958916e-001 -1.388843e-002 -2.500000e-001
      vertex -3.930038e-001 -1.929114e-002 -2.500000e-001
    endloop
  endfacet
  facet normal  0.000000e+000  0.000000e+000 -1.000000e+000
    outer loop
      vertex -3.906250e-001 -9.375000e-002 -2.500000e-001
      vertex -3.930038e-001 -1.929114e-002 -2.500000e-001
      vertex -3.906250e-001 -3.125000e-002 -2.500000e-001
    endloop
  endfacet
  facet normal -1.000000e+000  0.000000e+000  0.000000e+000
    outer loop
      vertex -5.078125e-001  9.540979e-018 -7.812500e-002
      vertex -5.078125e-001  0.000000e+000 -2.500000e-001
      vertex -5.078125e-001 -9.375000e-002 -7.812500e-002
    endloop
  endfacet
  facet normal -1.000000e+000  0.000000e+000  0.000000e+000
    outer loop
      vertex -5.078125e-001 -9.375000e-002 -7.812500e-002
      vertex -5.078125e-001  0.000000e+000 -2.500000e-001
      vertex -5.078125e-001 -9.375000e-002 -2.500000e-001
    endloop
  endfacet
  facet normal -1.110224e-016  1.000000e+000 -5.551116e-017
    outer loop
      vertex -4.796875e-001  1.266348e-017 -7.812500e-002
      vertex -4.796875e-001  4.628973e-018 -2.228618e-001
      vertex -5.078125e-001  9.540979e-018 -7.812500e-002
    endloop
  endfacet
  facet normal -1.110223e-016  1.000000e+000 -5.551115e-017
    outer loop
      vertex -5.078125e-001  9.540979e-018 -7.812500e-002
      vertex -4.796875e-001  4.628973e-018 -2.228618e-001
      vertex -5.078125e-001  0.000000e+000 -2.500000e-001
    endloop
  endfacet
  facet normal -1.110223e-016  9.999999e-001 -5.551122e-017
    outer loop
      vertex -4.796875e-001  4.628973e-018 -2.228618e-001
      vertex -4.218750e-001  1.104745e-017 -2.228618e-001
      vertex -5.078125e-001  0.000000e+000 -2.500000e-001
    endloop
  endfacet
  facet normal -1.110223e-016  1.000000e+000 -5.551115e-017
    outer loop
      vertex -5.078125e-001  0.000000e+000 -2.500000e-001
      vertex -4.218750e-001  1.104745e-017 -2.228618e-001
      vertex -4.218750e-001  9.540979e-018 -2.500000e-001
    endloop
  endfacet
  facet normal  0.000000e+000 -1.000000e+000  0.000000e+000
    outer loop
      vertex -4.796875e-001 -9.375000e-002 -7.812500e-002
      vertex -5.078125e-001 -9.375000e-002 -7.812500e-002
      vertex -4.796875e-001 -9.375000e-002 -2.228618e-001
    endloop
  endfacet
  facet normal  -0.000000e+000 -1.000000e+000  0.000000e+000
    outer loop
      vertex -4.796875e-001 -9.375000e-002 -2.228618e-001
      vertex -5.078125e-001 -9.375000e-002 -7.812500e-002
      vertex -5.078125e-001 -9.375000e-002 -2.500000e-001
    endloop
  endfacet
  facet normal  0.000000e+000 -1.000000e+000  0.000000e+000
    outer loop
      vertex -4.796875e-001 -9.375000e-002 -2.228618e-001
      vertex -5.078125e-001 -9.375000e-002 -2.500000e-001
      vertex -3.906250e-001 -9.375000e-002 -2.228618e-001
    endloop
  endfacet
  facet normal  0.000000e+000 -1.000000e+000  -0.000000e+000
    outer loop
      vertex -3.906250e-001 -9.375000e-002 -2.228618e-001
      vertex -5.078125e-001 -9.375000e-002 -2.500000e-001
      vertex -3.906250e-001 -9.375000e-002 -2.500000e-001
    endloop
  endfacet
  facet normal  -0.000000e+000  0.000000e+000  1.000000e+000
    outer loop
      vertex -4.796875e-001  1.266348e-017 -7.812500e-002
      vertex -5.078125e-001  9.540979e-018 -7.812500e-002
      vertex -4.796875e-001 -9.375000e-002 -7.812500e-002
    endloop
  endfacet
  facet normal  0.000000e+000  0.000000e+000  1.000000e+000
    outer loop
      vertex -4.796875e-001 -9.375000e-002 -7.812500e-002
      vertex -5.078125e-001  9.540979e-018 -7.812500e-002
      vertex -5.078125e-001 -9.375000e-002 -7.812500e-002
    endloop
  endfacet
  facet normal  1.000000e+000  0.000000e+000  0.000000e+000
    outer loop
      vertex -4.796875e-001 -9.375000e-002 -2.228618e-001
      vertex -4.796875e-001  4.628973e-018 -2.228618e-001
      vertex -4.796875e-001 -9.375000e-002 -7.812500e-002
    endloop
  endfacet
  facet normal  1.000000e+000  -0.000000e+000  0.000000e+000
    outer loop
      vertex -4.796875e-001 -9.375000e-002 -7.812500e-002
      vertex -4.796875e-001  4.628973e-018 -2.228618e-001
      vertex -4.796875e-001  1.266348e-017 -7.812500e-002
    endloop
  endfacet
  facet normal  0.000000e+000  0.000000e+000  1.000000e+000
    outer loop
      vertex -3.906250e-001 -3.125000e-002 -2.228618e-001
      vertex -3.930038e-001 -1.929114e-002 -2.228618e-001
      vertex -3.906250e-001 -9.375000e-002 -2.228618e-001
    endloop
  endfacet
  facet normal  0.000000e+000  0.000000e+000  1.000000e+000
    outer loop
      vertex -3.906250e-001 -3.125000e-002 -2.228618e-001
      vertex -3.912255e-001 -2.515343e-002 -2.228618e-001
      vertex -3.930038e-001 -1.929114e-002 -2.228618e-001
    endloop
  endfacet
  facet normal  0.000000e+000  0.000000e+000  1.000000e+000
    outer loop
      vertex -4.045134e-001 -5.266575e-003 -2.228618e-001
      vertex -4.099161e-001 -2.378765e-003 -2.228618e-001
      vertex -3.958916e-001 -1.388843e-002 -2.228618e-001
    endloop
  endfacet
  facet normal  0.000000e+000  0.000000e+000  1.000000e+000
    outer loop
      vertex -3.958916e-001 -1.388843e-002 -2.228618e-001
      vertex -3.997779e-001 -9.152913e-003 -2.228618e-001
      vertex -4.045134e-001 -5.266575e-003 -2.228618e-001
    endloop
  endfacet
  facet normal  0.000000e+000  0.000000e+000  1.000000e+000
    outer loop
      vertex -4.796875e-001 -9.375000e-002 -2.228618e-001
      vertex -3.906250e-001 -9.375000e-002 -2.228618e-001
      vertex -4.157784e-001 -6.004600e-004 -2.228618e-001
    endloop
  endfacet
  facet normal  0.000000e+000  0.000000e+000  1.000000e+000
    outer loop
      vertex -4.796875e-001 -9.375000e-002 -2.228618e-001
      vertex -4.157784e-001 -6.004600e-004 -2.228618e-001
      vertex -4.218750e-001  1.104745e-017 -2.228618e-001
    endloop
  endfacet
  facet normal  0.000000e+000  0.000000e+000  1.000000e+000
    outer loop
      vertex -4.796875e-001 -9.375000e-002 -2.228618e-001
      vertex -4.218750e-001  1.104745e-017 -2.228618e-001
      vertex -4.796875e-001  4.628973e-018 -2.228618e-001
    endloop
  endfacet
  facet normal  0.000000e+000  0.000000e+000  9.999999e-001
    outer loop
      vertex -4.157784e-001 -6.004600e-004 -2.228618e-001
      vertex -3.906250e-001 -9.375000e-002 -2.228618e-001
      vertex -3.930038e-001 -1.929114e-002 -2.228618e-001
    endloop
  endfacet
  facet normal  0.000000e+000  0.000000e+000  1.000000e+000
    outer loop
      vertex -4.157784e-001 -6.004600e-004 -2.228618e-001
      vertex -3.930038e-001 -1.929114e-002 -2.228618e-001
      vertex -3.958916e-001 -1.388843e-002 -2.228618e-001
    endloop
  endfacet
  facet normal  0.000000e+000  0.000000e+000  1.000000e+000
    outer loop
      vertex -4.157784e-001 -6.004600e-004 -2.228618e-001
      vertex -3.958916e-001 -1.388843e-002 -2.228618e-001
      vertex -4.099161e-001 -2.378765e-003 -2.228618e-001
    endloop
  endfacet
  facet normal  1.000000e+000  0.000000e+000  0.000000e+000
    outer loop
      vertex -3.906250e-001 -3.125000e-002 -2.500000e-001
      vertex -3.906250e-001 -3.125000e-002 -2.228618e-001
      vertex -3.906250e-001 -9.375000e-002 -2.500000e-001
    endloop
  endfacet
  facet normal  1.000000e+000  0.000000e+000  0.000000e+000
    outer loop
      vertex -3.906250e-001 -9.375000e-002 -2.500000e-001
      vertex -3.906250e-001 -3.125000e-002 -2.228618e-001
      vertex -3.906250e-001 -9.375000e-002 -2.228618e-001
    endloop
  endfacet
  facet normal  9.801716e-002  9.951847e-001 -5.524385e-017
    outer loop
      vertex -4.218750e-001  9.540979e-018 -2.500000e-001
      vertex -4.218750e-001  1.104745e-017 -2.228618e-001
      vertex -4.157784e-001 -6.004600e-004 -2.500000e-001
    endloop
  endfacet
  facet normal  9.801716e-002  9.951847e-001  -0.000000e+000
    outer loop
      vertex -4.157784e-001 -6.004600e-004 -2.500000e-001
      vertex -4.218750e-001  1.104745e-017 -2.228618e-001
      vertex -4.157784e-001 -6.004600e-004 -2.228618e-001
    endloop
  endfacet
  facet normal  2.902842e-001  9.569405e-001  0.000000e+000
    outer loop
      vertex -4.157784e-001 -6.004600e-004 -2.500000e-001
      vertex -4.157784e-001 -6.004600e-004 -2.228618e-001
      vertex -4.099161e-001 -2.378765e-003 -2.500000e-001
    endloop
  endfacet
  facet normal  2.902842e-001  9.569405e-001  -0.000000e+000
    outer loop
      vertex -4.099161e-001 -2.378765e-003 -2.500000e-001
      vertex -4.157784e-001 -6.004600e-004 -2.228618e-001
      vertex -4.099161e-001 -2.378765e-003 -2.228618e-001
    endloop
  endfacet
  facet normal  4.713966e-001  8.819213e-001  0.000000e+000
    outer loop
      vertex -4.099161e-001 -2.378765e-003 -2.500000e-001
      vertex -4.099161e-001 -2.378765e-003 -2.228618e-001
      vertex -4.045134e-001 -5.266575e-003 -2.500000e-001
    endloop
  endfacet
  facet normal  4.713966e-001  8.819213e-001  -0.000000e+000
    outer loop
      vertex -4.045134e-001 -5.266575e-003 -2.500000e-001
      vertex -4.099161e-001 -2.378765e-003 -2.228618e-001
      vertex -4.045134e-001 -5.266575e-003 -2.228618e-001
    endloop
  endfacet
  facet normal  6.343947e-001  7.730092e-001  0.000000e+000
    outer loop
      vertex -4.045134e-001 -5.266575e-003 -2.500000e-001
      vertex -4.045134e-001 -5.266575e-003 -2.228618e-001
      vertex -3.997779e-001 -9.152913e-003 -2.500000e-001
    endloop
  endfacet
  facet normal  6.343947e-001  7.730092e-001  -0.000000e+000
    outer loop
      vertex -3.997779e-001 -9.152913e-003 -2.500000e-001
      vertex -4.045134e-001 -5.266575e-003 -2.228618e-001
      vertex -3.997779e-001 -9.152913e-003 -2.228618e-001
    endloop
  endfacet
  facet normal  7.730101e-001  6.343937e-001  0.000000e+000
    outer loop
      vertex -3.997779e-001 -9.152913e-003 -2.500000e-001
      vertex -3.997779e-001 -9.152913e-003 -2.228618e-001
      vertex -3.958916e-001 -1.388843e-002 -2.500000e-001
    endloop
  endfacet
  facet normal  7.730101e-001  6.343937e-001  -0.000000e+000
    outer loop
      vertex -3.958916e-001 -1.388843e-002 -2.500000e-001
      vertex -3.997779e-001 -9.152913e-003 -2.228618e-001
      vertex -3.958916e-001 -1.388843e-002 -2.228618e-001
    endloop
  endfacet
  facet normal  8.819209e-001  4.713974e-001  0.000000e+000
    outer loop
      vertex -3.958916e-001 -1.388843e-002 -2.500000e-001
      vertex -3.958916e-001 -1.388843e-002 -2.228618e-001
      vertex -3.930038e-001 -1.929114e-002 -2.500000e-001
    endloop
  endfacet
  facet normal  8.819209e-001  4.713974e-001  -0.000000e+000
    outer loop
      vertex -3.930038e-001 -1.929114e-002 -2.500000e-001
      vertex -3.958916e-001 -1.388843e-002 -2.228618e-001
      vertex -3.930038e-001 -1.929114e-002 -2.228618e-001
    endloop
  endfacet
  facet normal  9.569403e-001  2.902846e-001  0.000000e+000
    outer loop
      vertex -3.930038e-001 -1.929114e-002 -2.500000e-001
      vertex -3.930038e-001 -1.929114e-002 -2.228618e-001
      vertex -3.912255e-001 -2.515343e-002 -2.500000e-001
    endloop
  endfacet
  facet normal  9.569403e-001  2.902846e-001  -0.000000e+000
    outer loop
      vertex -3.912255e-001 -2.515343e-002 -2.500000e-001
      vertex -3.930038e-001 -1.929114e-002 -2.228618e-001
      vertex -3.912255e-001 -2.515343e-002 -2.228618e-001
    endloop
  endfacet
  facet normal  9.951848e-001  9.801670e-002  0.000000e+000
    outer loop
      vertex -3.912255e-001 -2.515343e-002 -2.500000e-001
      vertex -3.912255e-001 -2.515343e-002 -2.228618e-001
      vertex -3.906250e-001 -3.125000e-002 -2.500000e-001
    endloop
  endfacet
  facet normal  9.951848e-001  9.801670e-002  -0.000000e+000
    outer loop
      vertex -3.906250e-001 -3.125000e-002 -2.500000e-001
      vertex -3.912255e-001 -2.515343e-002 -2.228618e-001
      vertex -3.906250e-001 -3.125000e-002 -2.228618e-001
    endloop
  endfacet
  facet normal  0.000000e+000 -1.000000e+000  -0.000000e+000
    outer loop
      vertex  6.562500e-001 -1.953125e-001  2.968750e-001
      vertex  6.562500e-001 -1.953125e-001  3.240131e-001
      vertex  4.843750e-001 -1.953125e-001  2.968750e-001
    endloop
  endfacet
  facet normal  0.000000e+000 -1.000000e+000  0.000000e+000
    outer loop
      vertex  4.843750e-001 -1.953125e-001  2.968750e-001
      vertex  6.562500e-001 -1.953125e-001  3.240131e-001
      vertex  5.205592e-001 -1.953125e-001  3.240131e-001
    endloop
  endfacet
  facet normal  -0.000000e+000 -1.000000e+000  0.000000e+000
    outer loop
      vertex  4.843750e-001 -1.953125e-001  2.968750e-001
      vertex  5.205592e-001 -1.953125e-001  3.240131e-001
      vertex  4.843750e-001 -1.953125e-001  4.416119e-001
    endloop
  endfacet
  facet normal  0.000000e+000 -1.000000e+000  0.000000e+000
    outer loop
      vertex  4.843750e-001 -1.953125e-001  4.416119e-001
      vertex  5.205592e-001 -1.953125e-001  3.240131e-001
      vertex  5.205592e-001 -1.953125e-001  4.144737e-001
    endloop
  endfacet
  facet normal  0.000000e+000 -1.000000e+000  0.000000e+000
    outer loop
      vertex  4.843750e-001 -1.953125e-001  4.416119e-001
      vertex  5.205592e-001 -1.953125e-001  4.144737e-001
      vertex  6.562500e-001 -1.953125e-001  4.416119e-001
    endloop
  endfacet
  facet normal  0.000000e+000 -9.999999e-001  -0.000000e+000
    outer loop
      vertex  6.562500e-001 -1.953125e-001  4.416119e-001
      vertex  5.205592e-001 -1.953125e-001  4.144737e-001
      vertex  6.562500e-001 -1.953125e-001  4.144737e-001
    endloop
  endfacet
  facet normal -5.551115e-017  1.000000e+000 -5.551118e-017
    outer loop
      vertex  4.843750e-001  0.000000e+000  2.968750e-001
      vertex  6.562500e-001  1.104745e-017  3.240131e-001
      vertex  6.562500e-001  9.540979e-018  2.968750e-001
    endloop
  endfacet
  facet normal -5.551115e-017  1.000000e+000 -5.551122e-017
    outer loop
      vertex  6.562500e-001  1.104745e-017  3.240131e-001
      vertex  4.843750e-001  0.000000e+000  2.968750e-001
      vertex  5.205592e-001  3.515097e-018  3.240131e-001
    endloop
  endfacet
  facet normal -5.551120e-017  1.000000e+000 -5.551114e-017
    outer loop
      vertex  5.205592e-001  3.515097e-018  3.240131e-001
      vertex  4.843750e-001  0.000000e+000  2.968750e-001
      vertex  4.843750e-001  8.034509e-018  4.416119e-001
    endloop
  endfacet
  facet normal -5.551119e-017  1.000000e+000 -5.551114e-017
    outer loop
      vertex  5.205592e-001  3.515097e-018  3.240131e-001
      vertex  4.843750e-001  8.034509e-018  4.416119e-001
      vertex  5.205592e-001  8.536665e-018  4.144737e-001
    endloop
  endfacet
  facet normal -5.551116e-017  1.000000e+000 -5.551110e-017
    outer loop
      vertex  5.205592e-001  8.536665e-018  4.144737e-001
      vertex  4.843750e-001  8.034509e-018  4.416119e-001
      vertex  6.562500e-001  1.757549e-017  4.416119e-001
    endloop
  endfacet
  facet normal -5.551114e-017  9.999999e-001 -5.551115e-017
    outer loop
      vertex  5.205592e-001  8.536665e-018  4.144737e-001
      vertex  6.562500e-001  1.757549e-017  4.416119e-001
      vertex  6.562500e-001  1.606902e-017  4.144737e-001
    endloop
  endfacet
  facet normal -1.000000e+000  0.000000e+000  0.000000e+000
    outer loop
      vertex  4.843750e-001  8.034509e-018  4.416119e-001
      vertex  4.843750e-001  0.000000e+000  2.968750e-001
      vertex  4.843750e-001 -1.953125e-001  4.416119e-001
    endloop
  endfacet
  facet normal -1.000000e+000  0.000000e+000  0.000000e+000
    outer loop
      vertex  4.843750e-001 -1.953125e-001  4.416119e-001
      vertex  4.843750e-001  0.000000e+000  2.968750e-001
      vertex  4.843750e-001 -1.953125e-001  2.968750e-001
    endloop
  endfacet
  facet normal  -0.000000e+000  0.000000e+000  1.000000e+000
    outer loop
      vertex  6.562500e-001  1.757549e-017  4.416119e-001
      vertex  4.843750e-001  8.034509e-018  4.416119e-001
      vertex  6.562500e-001 -1.953125e-001  4.416119e-001
    endloop
  endfacet
  facet normal  0.000000e+000  0.000000e+000  1.000000e+000
    outer loop
      vertex  6.562500e-001 -1.953125e-001  4.416119e-001
      vertex  4.843750e-001  8.034509e-018  4.416119e-001
      vertex  4.843750e-001 -1.953125e-001  4.416119e-001
    endloop
  endfacet
  facet normal  1.000000e+000  0.000000e+000  0.000000e+000
    outer loop
      vertex  6.562500e-001  1.606902e-017  4.144737e-001
      vertex  6.562500e-001  1.757549e-017  4.416119e-001
      vertex  6.562500e-001 -1.953125e-001  4.144737e-001
    endloop
  endfacet
  facet normal  1.000000e+000  0.000000e+000  0.000000e+000
    outer loop
      vertex  6.562500e-001 -1.953125e-001  4.144737e-001
      vertex  6.562500e-001  1.757549e-017  4.416119e-001
      vertex  6.562500e-001 -1.953125e-001  4.416119e-001
    endloop
  endfacet
  facet normal  0.000000e+000  0.000000e+000 -1.000000e+000
    outer loop
      vertex  5.205592e-001  8.536665e-018  4.144737e-001
      vertex  6.562500e-001  1.606902e-017  4.144737e-001
      vertex  5.205592e-001 -1.953125e-001  4.144737e-001
    endloop
  endfacet
  facet normal  0.000000e+000  0.000000e+000 -1.000000e+000
    outer loop
      vertex  5.205592e-001 -1.953125e-001  4.144737e-001
      vertex  6.562500e-001  1.606902e-017  4.144737e-001
      vertex  6.562500e-001 -1.953125e-001  4.144737e-001
    endloop
  endfacet
  facet normal  1.000000e+000  0.000000e+000  0.000000e+000
    outer loop
      vertex  5.205592e-001  3.515097e-018  3.240131e-001
      vertex  5.205592e-001  8.536665e-018  4.144737e-001
      vertex  5.205592e-001 -1.953125e-001  3.240131e-001
    endloop
  endfacet
  facet normal  1.000000e+000  0.000000e+000  0.000000e+000
    outer loop
      vertex  5.205592e-001 -1.953125e-001  3.240131e-001
      vertex  5.205592e-001  8.536665e-018  4.144737e-001
      vertex  5.205592e-001 -1.953125e-001  4.144737e-001
    endloop
  endfacet
  facet normal  -0.000000e+000  0.000000e+000  1.000000e+000
    outer loop
      vertex  6.562500e-001  1.104745e-017  3.240131e-001
      vertex  5.205592e-001  3.515097e-018  3.240131e-001
      vertex  6.562500e-001 -1.953125e-001  3.240131e-001
    endloop
  endfacet
  facet normal  0.000000e+000  0.000000e+000  1.000000e+000
    outer loop
      vertex  6.562500e-001 -1.953125e-001  3.240131e-001
      vertex  5.205592e-001  3.515097e-018  3.240131e-001
      vertex  5.205592e-001 -1.953125e-001  3.240131e-001
    endloop
  endfacet
  facet normal  1.000000e+000  0.000000e+000  0.000000e+000
    outer loop
      vertex  6.562500e-001  9.540979e-018  2.968750e-001
      vertex  6.562500e-001  1.104745e-017  3.240131e-001
      vertex  6.562500e-001 -1.953125e-001  2.968750e-001
    endloop
  endfacet
  facet normal  1.000000e+000  0.000000e+000  0.000000e+000
    outer loop
      vertex  6.562500e-001 -1.953125e-001  2.968750e-001
      vertex  6.562500e-001  1.104745e-017  3.240131e-001
      vertex  6.562500e-001 -1.953125e-001  3.240131e-001
    endloop
  endfacet
  facet normal  0.000000e+000  0.000000e+000 -1.000000e+000
    outer loop
      vertex  4.843750e-001  0.000000e+000  2.968750e-001
      vertex  6.562500e-001  9.540979e-018  2.968750e-001
      vertex  4.843750e-001 -1.953125e-001  2.968750e-001
    endloop
  endfacet
  facet normal  0.000000e+000  0.000000e+000 -1.000000e+000
    outer loop
      vertex  4.843750e-001 -1.953125e-001  2.968750e-001
      vertex  6.562500e-001  9.540979e-018  2.968750e-001
      vertex  6.562500e-001 -1.953125e-001  2.968750e-001
    endloop
  endfacet
  facet normal  0.000000e+000 -1.000000e+000  0.000000e+000
    outer loop
      vertex -3.046875e-001 -4.140625e-001  1.953125e-001
      vertex  1.718750e-001 -4.140625e-001  1.953125e-001
      vertex -3.046875e-001 -4.140625e-001  4.160362e-001
    endloop
  endfacet
  facet normal  0.000000e+000 -1.000000e+000  0.000000e+000
    outer loop
      vertex -3.046875e-001 -4.140625e-001  4.160362e-001
      vertex  1.718750e-001 -4.140625e-001  1.953125e-001
      vertex  1.718750e-001 -4.140625e-001  4.160362e-001
    endloop
  endfacet
  facet normal -5.551115e-017  1.000000e+000 -5.551115e-017
    outer loop
      vertex -3.046875e-001  0.000000e+000  1.953125e-001
      vertex -3.046875e-001  1.225263e-017  4.160362e-001
      vertex  1.718750e-001  2.645453e-017  1.953125e-001
    endloop
  endfacet
  facet normal -5.551115e-017  1.000000e+000 -5.551115e-017
    outer loop
      vertex  1.718750e-001  2.645453e-017  1.953125e-001
      vertex -3.046875e-001  1.225263e-017  4.160362e-001
      vertex  1.718750e-001  3.870716e-017  4.160362e-001
    endloop
  endfacet
  facet normal -1.000000e+000  0.000000e+000  0.000000e+000
    outer loop
      vertex -3.046875e-001  1.225263e-017  4.160362e-001
      vertex -3.046875e-001  0.000000e+000  1.953125e-001
      vertex -3.046875e-001 -4.140625e-001  4.160362e-001
    endloop
  endfacet
  facet normal -1.000000e+000  0.000000e+000  0.000000e+000
    outer loop
      vertex -3.046875e-001 -4.140625e-001  4.160362e-001
      vertex -3.046875e-001  0.000000e+000  1.953125e-001
      vertex -3.046875e-001 -4.140625e-001  1.953125e-001
    endloop
  endfacet
  facet normal  0.000000e+000  0.000000e+000  1.000000e+000
    outer loop
      vertex  1.718750e-001 -4.140625e-001  4.160362e-001
      vertex  1.718750e-001  3.870716e-017  4.160362e-001
      vertex -3.046875e-001 -4.140625e-001  4.160362e-001
    endloop
  endfacet
  facet normal  0.000000e+000  0.000000e+000  1.000000e+000
    outer loop
      vertex -3.046875e-001 -4.140625e-001  4.160362e-001
      vertex  1.718750e-001  3.870716e-017  4.160362e-001
      vertex -3.046875e-001  1.225263e-017  4.160362e-001
    endloop
  endfacet
  facet normal  1.000000e+000  0.000000e+000  0.000000e+000
    outer loop
      vertex  1.718750e-001  2.645453e-017  1.953125e-001
      vertex  1.718750e-001  3.870716e-017  4.160362e-001
      vertex  1.718750e-001 -4.140625e-001  1.953125e-001
    endloop
  endfacet
  facet normal  1.000000e+000  0.000000e+000  0.000000e+000
    outer loop
      vertex  1.718750e-001 -4.140625e-001  1.953125e-001
      vertex  1.718750e-001  3.870716e-017  4.160362e-001
      vertex  1.718750e-001 -4.140625e-001  4.160362e-001
    endloop
  endfacet
  facet normal  0.000000e+000  0.000000e+000 -1.000000e+000
    outer loop
      vertex -3.046875e-001 -4.140625e-001  1.953125e-001
      vertex -3.046875e-001  0.000000e+000  1.953125e-001
      vertex  1.718750e-001 -4.140625e-001  1.953125e-001
    endloop
  endfacet
  facet normal  0.000000e+000  0.000000e+000 -1.000000e+000
    outer loop
      vertex  1.718750e-001 -4.140625e-001  1.953125e-001
      vertex -3.046875e-001  0.000000e+000  1.953125e-001
      vertex  1.718750e-001  2.645453e-017  1.953125e-001
    endloop
  endfacet
  facet normal -1.110224e-016  1.000000e+000 -5.551115e-017
    outer loop
      vertex -7.265625e-001  3.903128e-018  2.187500e-001
      vertex -7.265625e-001  2.732189e-017  6.406250e-001
      vertex -6.895559e-001  3.143045e-017  6.406250e-001
    endloop
  endfacet
  facet normal -1.110224e-016  1.000000e+000 -5.551115e-017
    outer loop
      vertex -7.265625e-001  3.903128e-018  2.187500e-001
      vertex -6.895559e-001  3.143045e-017  6.406250e-001
      vertex -6.895559e-001  2.321334e-017  4.925987e-001
    endloop
  endfacet
  facet normal -1.110223e-016  1.000000e+000 -5.551116e-017
    outer loop
      vertex -7.265625e-001  3.903128e-018  2.187500e-001
      vertex -6.895559e-001  2.321334e-017  4.925987e-001
      vertex -3.342928e-001  6.265547e-017  4.925987e-001
    endloop
  endfacet
  facet normal -1.110223e-016  1.000000e+000 -5.551113e-017
    outer loop
      vertex -7.265625e-001  3.903128e-018  2.187500e-001
      vertex -3.342928e-001  6.265547e-017  4.925987e-001
      vertex -3.342928e-001  5.847844e-017  4.173520e-001
    endloop
  endfacet
  facet normal -1.110223e-016  1.000000e+000 -5.551115e-017
    outer loop
      vertex -7.265625e-001  3.903128e-018  2.187500e-001
      vertex -3.342928e-001  5.847844e-017  4.173520e-001
      vertex -3.342928e-001  4.745382e-017  2.187500e-001
    endloop
  endfacet
  facet normal -1.000000e+000  -0.000000e+000  0.000000e+000
    outer loop
      vertex -7.500000e-001 -4.140625e-001  6.640625e-001
      vertex -7.500000e-001 -1.562500e-002  6.640625e-001
      vertex -7.500000e-001 -4.140625e-001  1.953125e-001
    endloop
  endfacet
  facet normal -1.000000e+000  0.000000e+000  0.000000e+000
    outer loop
      vertex -7.500000e-001 -4.140625e-001  1.953125e-001
      vertex -7.500000e-001 -1.562500e-002  6.640625e-001
      vertex -7.500000e-001 -1.562500e-002  1.953125e-001
    endloop
  endfacet
  facet normal  -0.000000e+000  0.000000e+000  1.000000e+000
    outer loop
      vertex -6.661184e-001 -1.562500e-002  6.640625e-001
      vertex -7.500000e-001 -1.562500e-002  6.640625e-001
      vertex -6.661184e-001 -4.140625e-001  6.640625e-001
    endloop
  endfacet
  facet normal  0.000000e+000  0.000000e+000  1.000000e+000
    outer loop
      vertex -6.661184e-001 -4.140625e-001  6.640625e-001
      vertex -7.500000e-001 -1.562500e-002  6.640625e-001
      vertex -7.500000e-001 -4.140625e-001  6.640625e-001
    endloop
  endfacet
  facet normal  9.999999e-001  0.000000e+000  0.000000e+000
    outer loop
      vertex -6.661184e-001 -1.562500e-002  5.160362e-001
      vertex -6.661184e-001 -1.562500e-002  6.640625e-001
      vertex -6.661184e-001 -4.140625e-001  5.160362e-001
    endloop
  endfacet
  facet normal  9.999999e-001  0.000000e+000  0.000000e+000
    outer loop
      vertex -6.661184e-001 -4.140625e-001  5.160362e-001
      vertex -6.661184e-001 -1.562500e-002  6.640625e-001
      vertex -6.661184e-001 -4.140625e-001  6.640625e-001
    endloop
  endfacet
  facet normal  -0.000000e+000  0.000000e+000  1.000000e+000
    outer loop
      vertex -3.108553e-001 -1.562500e-002  5.160362e-001
      vertex -6.661184e-001 -1.562500e-002  5.160362e-001
      vertex -3.108553e-001 -4.140625e-001  5.160362e-001
    endloop
  endfacet
  facet normal  0.000000e+000  0.000000e+000  1.000000e+000
    outer loop
      vertex -3.108553e-001 -4.140625e-001  5.160362e-001
      vertex -6.661184e-001 -1.562500e-002  5.160362e-001
      vertex -6.661184e-001 -4.140625e-001  5.160362e-001
    endloop
  endfacet
  facet normal  1.000000e+000  0.000000e+000  0.000000e+000
    outer loop
      vertex -3.108553e-001 -1.562500e-002  4.173520e-001
      vertex -3.108553e-001 -1.562500e-002  5.160362e-001
      vertex -3.108553e-001 -4.140625e-001  4.173520e-001
    endloop
  endfacet
  facet normal  1.000000e+000  0.000000e+000  0.000000e+000
    outer loop
      vertex -3.108553e-001 -4.140625e-001  4.173520e-001
      vertex -3.108553e-001 -1.562500e-002  5.160362e-001
      vertex -3.108553e-001 -4.140625e-001  5.160362e-001
    endloop
  endfacet
  facet normal  1.000000e+000  0.000000e+000  0.000000e+000
    outer loop
      vertex -3.108553e-001 -1.562500e-002  1.953125e-001
      vertex -3.108553e-001 -1.562500e-002  4.173520e-001
      vertex -3.108553e-001 -4.140625e-001  1.953125e-001
    endloop
  endfacet
  facet normal  1.000000e+000  0.000000e+000  0.000000e+000
    outer loop
      vertex -3.108553e-001 -4.140625e-001  1.953125e-001
      vertex -3.108553e-001 -1.562500e-002  4.173520e-001
      vertex -3.108553e-001 -4.140625e-001  4.173520e-001
    endloop
  endfacet
  facet normal  0.000000e+000  0.000000e+000 -1.000000e+000
    outer loop
      vertex -7.500000e-001 -4.140625e-001  1.953125e-001
      vertex -7.500000e-001 -1.562500e-002  1.953125e-001
      vertex -3.108553e-001 -4.140625e-001  1.953125e-001
    endloop
  endfacet
  facet normal  0.000000e+000  0.000000e+000 -1.000000e+000
    outer loop
      vertex -3.108553e-001 -4.140625e-001  1.953125e-001
      vertex -7.500000e-001 -1.562500e-002  1.953125e-001
      vertex -3.108553e-001 -1.562500e-002  1.953125e-001
    endloop
  endfacet
  facet normal  0.000000e+000  8.320503e-001  5.547002e-001
    outer loop
      vertex -6.661184e-001 -1.562500e-002  6.640625e-001
      vertex -6.895559e-001  3.143045e-017  6.406250e-001
      vertex -7.500000e-001 -1.562500e-002  6.640625e-001
    endloop
  endfacet
  facet normal  0.000000e+000  8.320503e-001  5.547002e-001
    outer loop
      vertex -7.500000e-001 -1.562500e-002  6.640625e-001
      vertex -6.895559e-001  3.143045e-017  6.406250e-001
      vertex -7.265625e-001  2.732189e-017  6.406250e-001
    endloop
  endfacet
  facet normal  5.547002e-001  8.320503e-001  0.000000e+000
    outer loop
      vertex -6.661184e-001 -1.562500e-002  5.160362e-001
      vertex -6.895559e-001  2.321334e-017  4.925987e-001
      vertex -6.661184e-001 -1.562500e-002  6.640625e-001
    endloop
  endfacet
  facet normal  5.547002e-001  8.320503e-001  0.000000e+000
    outer loop
      vertex -6.661184e-001 -1.562500e-002  6.640625e-001
      vertex -6.895559e-001  2.321334e-017  4.925987e-001
      vertex -6.895559e-001  3.143045e-017  6.406250e-001
    endloop
  endfacet
  facet normal  0.000000e+000  8.320506e-001  5.546997e-001
    outer loop
      vertex -3.108553e-001 -1.562500e-002  5.160362e-001
      vertex -3.342928e-001  6.265547e-017  4.925987e-001
      vertex -6.661184e-001 -1.562500e-002  5.160362e-001
    endloop
  endfacet
  facet normal  0.000000e+000  8.320506e-001  5.546997e-001
    outer loop
      vertex -6.661184e-001 -1.562500e-002  5.160362e-001
      vertex -3.342928e-001  6.265547e-017  4.925987e-001
      vertex -6.895559e-001  2.321334e-017  4.925987e-001
    endloop
  endfacet
  facet normal  5.547002e-001  8.320503e-001  0.000000e+000
    outer loop
      vertex -3.108553e-001 -1.562500e-002  1.953125e-001
      vertex -3.342928e-001  4.745382e-017  2.187500e-001
      vertex -3.108553e-001 -1.562500e-002  4.173520e-001
    endloop
  endfacet
  facet normal  5.547002e-001  8.320503e-001  0.000000e+000
    outer loop
      vertex -3.108553e-001 -1.562500e-002  4.173520e-001
      vertex -3.342928e-001  4.745382e-017  2.187500e-001
      vertex -3.342928e-001  5.847844e-017  4.173520e-001
    endloop
  endfacet
  facet normal  5.547002e-001  8.320503e-001  0.000000e+000
    outer loop
      vertex -3.108553e-001 -1.562500e-002  4.173520e-001
      vertex -3.342928e-001  5.847844e-017  4.173520e-001
      vertex -3.108553e-001 -1.562500e-002  5.160362e-001
    endloop
  endfacet
  facet normal  5.547002e-001  8.320503e-001  0.000000e+000
    outer loop
      vertex -3.108553e-001 -1.562500e-002  5.160362e-001
      vertex -3.342928e-001  5.847844e-017  4.173520e-001
      vertex -3.342928e-001  6.265547e-017  4.925987e-001
    endloop
  endfacet
  facet normal  0.000000e+000  8.320503e-001 -5.547001e-001
    outer loop
      vertex -7.500000e-001 -1.562500e-002  1.953125e-001
      vertex -7.265625e-001  3.903128e-018  2.187500e-001
      vertex -3.108553e-001 -1.562500e-002  1.953125e-001
    endloop
  endfacet
  facet normal  0.000000e+000  8.320503e-001 -5.547003e-001
    outer loop
      vertex -3.108553e-001 -1.562500e-002  1.953125e-001
      vertex -7.265625e-001  3.903128e-018  2.187500e-001
      vertex -3.342928e-001  4.745382e-017  2.187500e-001
    endloop
  endfacet
  facet normal -5.547001e-001  8.320503e-001  0.000000e+000
    outer loop
      vertex -7.500000e-001 -1.562500e-002  6.640625e-001
      vertex -7.265625e-001  2.732189e-017  6.406250e-001
      vertex -7.500000e-001 -1.562500e-002  1.953125e-001
    endloop
  endfacet
  facet normal -5.547002e-001  8.320503e-001  0.000000e+000
    outer loop
      vertex -7.500000e-001 -1.562500e-002  1.953125e-001
      vertex -7.265625e-001  2.732189e-017  6.406250e-001
      vertex -7.265625e-001  3.903128e-018  2.187500e-001
    endloop
  endfacet
  facet normal  0.000000e+000 -1.000000e+000  0.000000e+000
    outer loop
      vertex -7.500000e-001 -4.140625e-001  1.953125e-001
      vertex -3.108553e-001 -4.140625e-001  1.953125e-001
      vertex -3.108553e-001 -4.140625e-001  4.173520e-001
    endloop
  endfacet
  facet normal  -0.000000e+000 -1.000000e+000  0.000000e+000
    outer loop
      vertex -7.500000e-001 -4.140625e-001  1.953125e-001
      vertex -3.108553e-001 -4.140625e-001  4.173520e-001
      vertex -3.108553e-001 -4.140625e-001  5.160362e-001
    endloop
  endfacet
  facet normal  -0.000000e+000 -1.000000e+000  0.000000e+000
    outer loop
      vertex -7.500000e-001 -4.140625e-001  1.953125e-001
      vertex -3.108553e-001 -4.140625e-001  5.160362e-001
      vertex -6.661184e-001 -4.140625e-001  5.160362e-001
    endloop
  endfacet
  facet normal  -0.000000e+000 -1.000000e+000  0.000000e+000
    outer loop
      vertex -7.500000e-001 -4.140625e-001  1.953125e-001
      vertex -6.661184e-001 -4.140625e-001  5.160362e-001
      vertex -6.661184e-001 -4.140625e-001  6.640625e-001
    endloop
  endfacet
  facet normal  -0.000000e+000 -1.000000e+000  0.000000e+000
    outer loop
      vertex -7.500000e-001 -4.140625e-001  1.953125e-001
      vertex -6.661184e-001 -4.140625e-001  6.640625e-001
      vertex -7.500000e-001 -4.140625e-001  6.640625e-001
    endloop
  endfacet
endsolid CATIA STL
