solid CATIA STL
  facet normal  1.358657e-001  9.907272e-001  0.000000e+000
    outer loop
      vertex  5.197506e-001  1.275770e-001 -1.171875e-001
      vertex  5.289474e-001  1.263158e-001  1.171875e-001
      vertex  5.289474e-001  1.263158e-001 -1.171875e-001
    endloop
  endfacet
  facet normal  1.358657e-001  9.907272e-001  -0.000000e+000
    outer loop
      vertex  5.289474e-001  1.263158e-001  1.171875e-001
      vertex  5.197506e-001  1.275770e-001 -1.171875e-001
      vertex  5.197506e-001  1.275770e-001  1.171875e-001
    endloop
  endfacet
  facet normal  2.826584e-001  9.592206e-001  0.000000e+000
    outer loop
      vertex  5.197506e-001  1.275770e-001  1.171875e-001
      vertex  5.197506e-001  1.275770e-001 -1.171875e-001
      vertex  5.108463e-001  1.302009e-001 -1.171875e-001
    endloop
  endfacet
  facet normal  2.826584e-001  9.592206e-001  -0.000000e+000
    outer loop
      vertex  5.197506e-001  1.275770e-001  1.171875e-001
      vertex  5.108463e-001  1.302009e-001 -1.171875e-001
      vertex  5.108463e-001  1.302009e-001  1.171875e-001
    endloop
  endfacet
  facet normal  4.230810e-001  9.060920e-001  0.000000e+000
    outer loop
      vertex  5.108463e-001  1.302009e-001  1.171875e-001
      vertex  5.108463e-001  1.302009e-001 -1.171875e-001
      vertex  5.024351e-001  1.341283e-001 -1.171875e-001
    endloop
  endfacet
  facet normal  4.230810e-001  9.060920e-001  -0.000000e+000
    outer loop
      vertex  5.108463e-001  1.302009e-001  1.171875e-001
      vertex  5.024351e-001  1.341283e-001 -1.171875e-001
      vertex  5.024351e-001  1.341283e-001  1.171875e-001
    endloop
  endfacet
  facet normal  9.801913e-001 -1.947609e-001 -3.596036e-002
    outer loop
      vertex  5.934623e-001  1.764551e-001 -1.171875e-001
      vertex  5.919407e-001  1.702394e-001 -1.250000e-001
      vertex  5.942440e-001  1.818315e-001 -1.250000e-001
    endloop
  endfacet
  facet normal  9.609807e-001 -2.748191e-001  3.147587e-002
    outer loop
      vertex  5.934623e-001  1.764551e-001 -1.171875e-001
      vertex  5.903987e-001  1.657423e-001 -1.171875e-001
      vertex  5.919407e-001  1.702394e-001 -1.250000e-001
    endloop
  endfacet
  facet normal  9.252658e-001 -3.777191e-001  3.480598e-002
    outer loop
      vertex  5.903987e-001  1.657423e-001  1.171875e-001
      vertex  5.919407e-001  1.702394e-001  1.250000e-001
      vertex  5.874739e-001  1.592974e-001  1.250000e-001
    endloop
  endfacet
  facet normal  8.961000e-001 -4.428480e-001 -2.984086e-002
    outer loop
      vertex  5.903987e-001  1.657423e-001  1.171875e-001
      vertex  5.874739e-001  1.592974e-001  1.250000e-001
      vertex  5.854622e-001  1.557533e-001  1.171875e-001
    endloop
  endfacet
  facet normal  8.365514e-001 -5.469116e-001  3.270084e-002
    outer loop
      vertex  5.854622e-001  1.557533e-001  1.171875e-001
      vertex  5.874739e-001  1.592974e-001  1.250000e-001
      vertex  5.810066e-001  1.494052e-001  1.250000e-001
    endloop
  endfacet
  facet normal  8.021258e-001 -5.965329e-001 -2.725255e-002
    outer loop
      vertex  5.854622e-001  1.557533e-001  1.171875e-001
      vertex  5.810066e-001  1.494052e-001  1.250000e-001
      vertex  5.788130e-001  1.468125e-001  1.171875e-001
    endloop
  endfacet
  facet normal  7.172746e-001 -6.961601e-001  2.963571e-002
    outer loop
      vertex  5.788130e-001  1.468125e-001  1.171875e-001
      vertex  5.810066e-001  1.494052e-001  1.250000e-001
      vertex  5.727754e-001  1.409243e-001  1.250000e-001
    endloop
  endfacet
  facet normal  6.820999e-001 -7.308744e-001 -2.371169e-002
    outer loop
      vertex  5.788130e-001  1.468125e-001  1.171875e-001
      vertex  5.727754e-001  1.409243e-001  1.250000e-001
      vertex  5.706671e-001  1.392102e-001  1.171875e-001
    endloop
  endfacet
  facet normal  5.717715e-001 -8.200129e-001  2.561764e-002
    outer loop
      vertex  5.706671e-001  1.392102e-001  1.171875e-001
      vertex  5.727754e-001  1.409243e-001  1.250000e-001
      vertex  5.630807e-001  1.341645e-001  1.250000e-001
    endloop
  endfacet
  facet normal  5.399002e-001 -8.415097e-001 -1.921513e-002
    outer loop
      vertex  5.706671e-001  1.392102e-001  1.171875e-001
      vertex  5.630807e-001  1.341645e-001  1.250000e-001
      vertex  5.612891e-001  1.331934e-001  1.171875e-001
    endloop
  endfacet
  facet normal  4.053487e-001 -9.139290e-001  2.064369e-002
    outer loop
      vertex  5.612891e-001  1.331934e-001  1.171875e-001
      vertex  5.630807e-001  1.341645e-001  1.250000e-001
      vertex  5.522770e-001  1.293728e-001  1.250000e-001
    endloop
  endfacet
  facet normal  3.801410e-001 -9.248261e-001 -1.376353e-002
    outer loop
      vertex  5.612891e-001  1.331934e-001  1.171875e-001
      vertex  5.522770e-001  1.293728e-001  1.250000e-001
      vertex  5.509835e-001  1.289573e-001  1.171875e-001
    endloop
  endfacet
  facet normal  2.240687e-001 -9.744622e-001  1.471725e-002
    outer loop
      vertex  5.509835e-001  1.289573e-001  1.171875e-001
      vertex  5.522770e-001  1.293728e-001  1.250000e-001
      vertex  5.407590e-001  1.267243e-001  1.250000e-001
    endloop
  endfacet
  facet normal  9.252658e-001 -3.777191e-001 -3.480598e-002
    outer loop
      vertex  5.874739e-001  1.592974e-001 -1.250000e-001
      vertex  5.919407e-001  1.702394e-001 -1.250000e-001
      vertex  5.903987e-001  1.657423e-001 -1.171875e-001
    endloop
  endfacet
  facet normal  8.961000e-001 -4.428480e-001  2.984086e-002
    outer loop
      vertex  5.903987e-001  1.657423e-001 -1.171875e-001
      vertex  5.854622e-001  1.557533e-001 -1.171875e-001
      vertex  5.874739e-001  1.592974e-001 -1.250000e-001
    endloop
  endfacet
  facet normal  8.365514e-001 -5.469116e-001 -3.270084e-002
    outer loop
      vertex  5.810066e-001  1.494052e-001 -1.250000e-001
      vertex  5.874739e-001  1.592974e-001 -1.250000e-001
      vertex  5.854622e-001  1.557533e-001 -1.171875e-001
    endloop
  endfacet
  facet normal  8.021258e-001 -5.965329e-001  2.725255e-002
    outer loop
      vertex  5.854622e-001  1.557533e-001 -1.171875e-001
      vertex  5.788130e-001  1.468125e-001 -1.171875e-001
      vertex  5.810066e-001  1.494052e-001 -1.250000e-001
    endloop
  endfacet
  facet normal  7.172746e-001 -6.961601e-001 -2.963571e-002
    outer loop
      vertex  5.727754e-001  1.409243e-001 -1.250000e-001
      vertex  5.810066e-001  1.494052e-001 -1.250000e-001
      vertex  5.788130e-001  1.468125e-001 -1.171875e-001
    endloop
  endfacet
  facet normal  6.820999e-001 -7.308744e-001  2.371169e-002
    outer loop
      vertex  5.788130e-001  1.468125e-001 -1.171875e-001
      vertex  5.706671e-001  1.392102e-001 -1.171875e-001
      vertex  5.727754e-001  1.409243e-001 -1.250000e-001
    endloop
  endfacet
  facet normal  5.717715e-001 -8.200129e-001 -2.561764e-002
    outer loop
      vertex  5.630807e-001  1.341645e-001 -1.250000e-001
      vertex  5.727754e-001  1.409243e-001 -1.250000e-001
      vertex  5.706671e-001  1.392102e-001 -1.171875e-001
    endloop
  endfacet
  facet normal  5.399002e-001 -8.415097e-001  1.921513e-002
    outer loop
      vertex  5.706671e-001  1.392102e-001 -1.171875e-001
      vertex  5.612891e-001  1.331934e-001 -1.171875e-001
      vertex  5.630807e-001  1.341645e-001 -1.250000e-001
    endloop
  endfacet
  facet normal  4.053487e-001 -9.139290e-001 -2.064369e-002
    outer loop
      vertex  5.522770e-001  1.293728e-001 -1.250000e-001
      vertex  5.630807e-001  1.341645e-001 -1.250000e-001
      vertex  5.612891e-001  1.331934e-001 -1.171875e-001
    endloop
  endfacet
  facet normal  3.801410e-001 -9.248261e-001  1.376353e-002
    outer loop
      vertex  5.612891e-001  1.331934e-001 -1.171875e-001
      vertex  5.509835e-001  1.289573e-001 -1.171875e-001
      vertex  5.522770e-001  1.293728e-001 -1.250000e-001
    endloop
  endfacet
  facet normal  2.240687e-001 -9.744622e-001 -1.471725e-002
    outer loop
      vertex  5.407590e-001  1.267243e-001 -1.250000e-001
      vertex  5.522770e-001  1.293728e-001 -1.250000e-001
      vertex  5.509835e-001  1.289573e-001 -1.171875e-001
    endloop
  endfacet
  facet normal  9.895960e-001 -1.438738e-001  0.000000e+000
    outer loop
      vertex  5.934623e-001  1.764551e-001  1.171875e-001
      vertex  5.934623e-001  1.764551e-001 -1.171875e-001
      vertex  5.942440e-001  1.818315e-001 -1.250000e-001
    endloop
  endfacet
  facet normal  9.895961e-001 -1.438738e-001  0.000000e+000
    outer loop
      vertex  5.934623e-001  1.764551e-001  1.171875e-001
      vertex  5.942440e-001  1.818315e-001 -1.250000e-001
      vertex  5.942440e-001  1.818315e-001  1.250000e-001
    endloop
  endfacet
  facet normal  9.801913e-001 -1.947609e-001  3.596036e-002
    outer loop
      vertex  5.934623e-001  1.764551e-001  1.171875e-001
      vertex  5.942440e-001  1.818315e-001  1.250000e-001
      vertex  5.919407e-001  1.702394e-001  1.250000e-001
    endloop
  endfacet
  facet normal  9.609807e-001 -2.748191e-001 -3.147587e-002
    outer loop
      vertex  5.934623e-001  1.764551e-001  1.171875e-001
      vertex  5.919407e-001  1.702394e-001  1.250000e-001
      vertex  5.903987e-001  1.657423e-001  1.171875e-001
    endloop
  endfacet
  facet normal  3.456524e-002 -9.994025e-001  0.000000e+000
    outer loop
      vertex  5.289474e-001  1.263158e-001  1.250000e-001
      vertex  5.289474e-001  1.263158e-001  1.171875e-001
      vertex  5.407590e-001  1.267243e-001  1.250000e-001
    endloop
  endfacet
  facet normal  2.907311e-002 -9.995428e-001  8.310802e-003
    outer loop
      vertex  5.407590e-001  1.267243e-001  1.250000e-001
      vertex  5.289474e-001  1.263158e-001  1.171875e-001
      vertex  5.400849e-001  1.266397e-001  1.171875e-001
    endloop
  endfacet
  facet normal  2.079954e-001 -9.781021e-001 -7.358839e-003
    outer loop
      vertex  5.407590e-001  1.267243e-001  1.250000e-001
      vertex  5.400849e-001  1.266397e-001  1.171875e-001
      vertex  5.509835e-001  1.289573e-001  1.171875e-001
    endloop
  endfacet
  facet normal  9.826144e-001  1.856579e-001  0.000000e+000
    outer loop
      vertex  5.921053e-001  2.052632e-001 -1.250000e-001
      vertex  5.921053e-001  2.052632e-001  1.250000e-001
      vertex  5.942995e-001  1.936500e-001 -1.250000e-001
    endloop
  endfacet
  facet normal  9.826144e-001  1.856579e-001  -0.000000e+000
    outer loop
      vertex  5.942995e-001  1.936500e-001 -1.250000e-001
      vertex  5.921053e-001  2.052632e-001  1.250000e-001
      vertex  5.942995e-001  1.936500e-001  1.250000e-001
    endloop
  endfacet
  facet normal  9.999889e-001 -4.695287e-003  0.000000e+000
    outer loop
      vertex  5.942995e-001  1.936500e-001 -1.250000e-001
      vertex  5.942995e-001  1.936500e-001  1.250000e-001
      vertex  5.942440e-001  1.818315e-001 -1.250000e-001
    endloop
  endfacet
  facet normal  9.999889e-001 -4.695287e-003  0.000000e+000
    outer loop
      vertex  5.942440e-001  1.818315e-001 -1.250000e-001
      vertex  5.942995e-001  1.936500e-001  1.250000e-001
      vertex  5.942440e-001  1.818315e-001  1.250000e-001
    endloop
  endfacet
  facet normal  2.907412e-002 -9.995773e-001  0.000000e+000
    outer loop
      vertex  5.289474e-001  1.263158e-001 -1.171875e-001
      vertex  5.289474e-001  1.263158e-001 -1.250000e-001
      vertex  5.400849e-001  1.266397e-001 -1.171875e-001
    endloop
  endfacet
  facet normal  3.456417e-002 -9.993718e-001 -7.835178e-003
    outer loop
      vertex  5.400849e-001  1.266397e-001 -1.171875e-001
      vertex  5.289474e-001  1.263158e-001 -1.250000e-001
      vertex  5.407590e-001  1.267243e-001 -1.250000e-001
    endloop
  endfacet
  facet normal  2.079954e-001 -9.781021e-001  7.358839e-003
    outer loop
      vertex  5.400849e-001  1.266397e-001 -1.171875e-001
      vertex  5.407590e-001  1.267243e-001 -1.250000e-001
      vertex  5.509835e-001  1.289573e-001 -1.171875e-001
    endloop
  endfacet
  facet normal  0.000000e+000 -1.000000e+000  0.000000e+000
    outer loop
      vertex  1.815789e-001  1.263158e-001  1.250000e-001
      vertex  1.815789e-001  1.263158e-001 -1.250000e-001
      vertex  5.289474e-001  1.263158e-001 -1.250000e-001
    endloop
  endfacet
  facet normal  0.000000e+000 -1.000000e+000  0.000000e+000
    outer loop
      vertex  1.815789e-001  1.263158e-001  1.250000e-001
      vertex  5.289474e-001  1.263158e-001 -1.250000e-001
      vertex  5.289474e-001  1.263158e-001 -1.171875e-001
    endloop
  endfacet
  facet normal  0.000000e+000 -1.000000e+000  0.000000e+000
    outer loop
      vertex  1.815789e-001  1.263158e-001  1.250000e-001
      vertex  5.289474e-001  1.263158e-001 -1.171875e-001
      vertex  5.289474e-001  1.263158e-001  1.171875e-001
    endloop
  endfacet
  facet normal  0.000000e+000 -1.000000e+000  0.000000e+000
    outer loop
      vertex  1.815789e-001  1.263158e-001  1.250000e-001
      vertex  5.289474e-001  1.263158e-001  1.171875e-001
      vertex  5.289474e-001  1.263158e-001  1.250000e-001
    endloop
  endfacet
  facet normal -5.821532e-001 -8.130791e-001  -0.000000e+000
    outer loop
      vertex  4.074548e-001  4.617485e-001 -1.171875e-001
      vertex  3.140783e-001  5.286047e-001  1.171875e-001
      vertex  3.140783e-001  5.286047e-001 -1.171875e-001
    endloop
  endfacet
  facet normal -4.219078e-001 -9.066388e-001  0.000000e+000
    outer loop
      vertex  3.140783e-001  5.286047e-001 -1.171875e-001
      vertex  3.140783e-001  5.286047e-001  1.171875e-001
      vertex  2.099572e-001  5.770579e-001  1.171875e-001
    endloop
  endfacet
  facet normal -4.219078e-001 -9.066388e-001  -0.000000e+000
    outer loop
      vertex  3.140783e-001  5.286047e-001 -1.171875e-001
      vertex  2.099572e-001  5.770579e-001  1.171875e-001
      vertex  2.099572e-001  5.770579e-001 -1.171875e-001
    endloop
  endfacet
  facet normal -5.821532e-001 -8.130791e-001  0.000000e+000
    outer loop
      vertex  3.140783e-001  5.286047e-001  1.171875e-001
      vertex  4.074548e-001  4.617485e-001 -1.171875e-001
      vertex  4.074548e-001  4.617485e-001  1.171875e-001
    endloop
  endfacet
  facet normal -7.223536e-001 -6.915238e-001  -0.000000e+000
    outer loop
      vertex  4.074548e-001  4.617485e-001  1.171875e-001
      vertex  4.074548e-001  4.617485e-001 -1.171875e-001
      vertex  4.868715e-001  3.787912e-001 -1.171875e-001
    endloop
  endfacet
  facet normal -7.223536e-001 -6.915238e-001  0.000000e+000
    outer loop
      vertex  4.074548e-001  4.617485e-001  1.171875e-001
      vertex  4.868715e-001  3.787912e-001 -1.171875e-001
      vertex  4.868715e-001  3.787912e-001  1.171875e-001
    endloop
  endfacet
  facet normal -8.376822e-001 -5.461578e-001  -0.000000e+000
    outer loop
      vertex  4.868715e-001  3.787912e-001  1.171875e-001
      vertex  4.868715e-001  3.787912e-001 -1.171875e-001
      vertex  5.495939e-001  2.825893e-001 -1.171875e-001
    endloop
  endfacet
  facet normal -8.376822e-001 -5.461578e-001  0.000000e+000
    outer loop
      vertex  4.868715e-001  3.787912e-001  1.171875e-001
      vertex  5.495939e-001  2.825893e-001 -1.171875e-001
      vertex  5.495939e-001  2.825893e-001  1.171875e-001
    endloop
  endfacet
  facet normal -9.241679e-001 -3.819865e-001  -0.000000e+000
    outer loop
      vertex  5.495939e-001  2.825893e-001  1.171875e-001
      vertex  5.495939e-001  2.825893e-001 -1.171875e-001
      vertex  5.934623e-001  1.764551e-001 -1.171875e-001
    endloop
  endfacet
  facet normal -9.241679e-001 -3.819865e-001  0.000000e+000
    outer loop
      vertex  5.495939e-001  2.825893e-001  1.171875e-001
      vertex  5.934623e-001  1.764551e-001 -1.171875e-001
      vertex  5.934623e-001  1.764551e-001  1.171875e-001
    endloop
  endfacet
  facet normal  0.000000e+000  -0.000000e+000  1.000000e+000
    outer loop
      vertex  1.262335e-001  5.362363e-001 -1.171875e-001
      vertex  1.272970e-001  1.786763e-001 -1.171875e-001
      vertex  1.289869e-001  5.467710e-001 -1.171875e-001
    endloop
  endfacet
  facet normal  -0.000000e+000  0.000000e+000  9.999999e-001
    outer loop
      vertex  1.262335e-001  5.362363e-001 -1.171875e-001
      vertex  1.262335e-001  1.894737e-001 -1.171875e-001
      vertex  1.272970e-001  1.786763e-001 -1.171875e-001
    endloop
  endfacet
  facet normal  -0.000000e+000  0.000000e+000  1.000000e+000
    outer loop
      vertex  1.575053e-001  5.783669e-001 -1.171875e-001
      vertex  1.482190e-001  5.726814e-001 -1.171875e-001
      vertex  1.508307e-001  1.434557e-001 -1.171875e-001
    endloop
  endfacet
  facet normal  0.000000e+000  0.000000e+000  1.000000e+000
    outer loop
      vertex  1.424439e-001  1.503386e-001 -1.171875e-001
      vertex  1.508307e-001  1.434557e-001 -1.171875e-001
      vertex  1.482190e-001  5.726814e-001 -1.171875e-001
    endloop
  endfacet
  facet normal  -0.000000e+000  0.000000e+000  1.000000e+000
    outer loop
      vertex  1.482190e-001  5.726814e-001 -1.171875e-001
      vertex  1.401842e-001  5.653327e-001 -1.171875e-001
      vertex  1.424439e-001  1.503386e-001 -1.171875e-001
    endloop
  endfacet
  facet normal  0.000000e+000  0.000000e+000  9.999999e-001
    outer loop
      vertex  1.355609e-001  1.587254e-001 -1.171875e-001
      vertex  1.424439e-001  1.503386e-001 -1.171875e-001
      vertex  1.401842e-001  5.653327e-001 -1.171875e-001
    endloop
  endfacet
  facet normal  -0.000000e+000  0.000000e+000  1.000000e+000
    outer loop
      vertex  1.401842e-001  5.653327e-001 -1.171875e-001
      vertex  1.336944e-001  5.565894e-001 -1.171875e-001
      vertex  1.355609e-001  1.587254e-001 -1.171875e-001
    endloop
  endfacet
  facet normal  0.000000e+000  0.000000e+000  1.000000e+000
    outer loop
      vertex  1.304465e-001  1.682939e-001 -1.171875e-001
      vertex  1.355609e-001  1.587254e-001 -1.171875e-001
      vertex  1.336944e-001  5.565894e-001 -1.171875e-001
    endloop
  endfacet
  facet normal  -0.000000e+000  0.000000e+000  1.000000e+000
    outer loop
      vertex  1.336944e-001  5.565894e-001 -1.171875e-001
      vertex  1.289869e-001  5.467710e-001 -1.171875e-001
      vertex  1.304465e-001  1.682939e-001 -1.171875e-001
    endloop
  endfacet
  facet normal  0.000000e+000  0.000000e+000  1.000000e+000
    outer loop
      vertex  1.272970e-001  1.786763e-001 -1.171875e-001
      vertex  1.304465e-001  1.682939e-001 -1.171875e-001
      vertex  1.289869e-001  5.467710e-001 -1.171875e-001
    endloop
  endfacet
  facet normal  0.000000e+000  0.000000e+000  1.000000e+000
    outer loop
      vertex  5.024351e-001  1.341283e-001 -1.171875e-001
      vertex  4.868715e-001  3.787912e-001 -1.171875e-001
      vertex  2.099572e-001  5.770579e-001 -1.171875e-001
    endloop
  endfacet
  facet normal  0.000000e+000  0.000000e+000  1.000000e+000
    outer loop
      vertex  5.024351e-001  1.341283e-001 -1.171875e-001
      vertex  2.099572e-001  5.770579e-001 -1.171875e-001
      vertex  1.999617e-001  5.813766e-001 -1.171875e-001
    endloop
  endfacet
  facet normal  0.000000e+000  0.000000e+000  1.000000e+000
    outer loop
      vertex  5.024351e-001  1.341283e-001 -1.171875e-001
      vertex  1.999617e-001  5.813766e-001 -1.171875e-001
      vertex  1.893270e-001  5.837145e-001 -1.171875e-001
    endloop
  endfacet
  facet normal  0.000000e+000  0.000000e+000  1.000000e+000
    outer loop
      vertex  1.815789e-001  1.341283e-001 -1.171875e-001
      vertex  5.024351e-001  1.341283e-001 -1.171875e-001
      vertex  1.893270e-001  5.837145e-001 -1.171875e-001
    endloop
  endfacet
  facet normal  0.000000e+000  0.000000e+000  1.000000e+000
    outer loop
      vertex  1.815789e-001  1.341283e-001 -1.171875e-001
      vertex  1.893270e-001  5.837145e-001 -1.171875e-001
      vertex  1.784418e-001  5.839862e-001 -1.171875e-001
    endloop
  endfacet
  facet normal  0.000000e+000  0.000000e+000  1.000000e+000
    outer loop
      vertex  1.815789e-001  1.341283e-001 -1.171875e-001
      vertex  1.784418e-001  5.839862e-001 -1.171875e-001
      vertex  1.677038e-001  5.821817e-001 -1.171875e-001
    endloop
  endfacet
  facet normal  0.000000e+000  0.000000e+000  1.000000e+000
    outer loop
      vertex  1.815789e-001  1.341283e-001 -1.171875e-001
      vertex  1.677038e-001  5.821817e-001 -1.171875e-001
      vertex  1.707816e-001  1.351917e-001 -1.171875e-001
    endloop
  endfacet
  facet normal  0.000000e+000  0.000000e+000  9.999999e-001
    outer loop
      vertex  5.495939e-001  2.825893e-001 -1.171875e-001
      vertex  4.868715e-001  3.787912e-001 -1.171875e-001
      vertex  5.024351e-001  1.341283e-001 -1.171875e-001
    endloop
  endfacet
  facet normal  -0.000000e+000  0.000000e+000  1.000000e+000
    outer loop
      vertex  5.495939e-001  2.825893e-001 -1.171875e-001
      vertex  5.024351e-001  1.341283e-001 -1.171875e-001
      vertex  5.108463e-001  1.302009e-001 -1.171875e-001
    endloop
  endfacet
  facet normal  -0.000000e+000  0.000000e+000  1.000000e+000
    outer loop
      vertex  5.495939e-001  2.825893e-001 -1.171875e-001
      vertex  5.108463e-001  1.302009e-001 -1.171875e-001
      vertex  5.197506e-001  1.275770e-001 -1.171875e-001
    endloop
  endfacet
  facet normal  -0.000000e+000  0.000000e+000  1.000000e+000
    outer loop
      vertex  5.495939e-001  2.825893e-001 -1.171875e-001
      vertex  5.197506e-001  1.275770e-001 -1.171875e-001
      vertex  5.289474e-001  1.263158e-001 -1.171875e-001
    endloop
  endfacet
  facet normal  0.000000e+000  0.000000e+000  9.999999e-001
    outer loop
      vertex  5.495939e-001  2.825893e-001 -1.171875e-001
      vertex  5.289474e-001  1.263158e-001 -1.171875e-001
      vertex  5.400849e-001  1.266397e-001 -1.171875e-001
    endloop
  endfacet
  facet normal  0.000000e+000  0.000000e+000  9.999999e-001
    outer loop
      vertex  5.495939e-001  2.825893e-001 -1.171875e-001
      vertex  5.400849e-001  1.266397e-001 -1.171875e-001
      vertex  5.509835e-001  1.289573e-001 -1.171875e-001
    endloop
  endfacet
  facet normal  0.000000e+000  -0.000000e+000  9.999999e-001
    outer loop
      vertex  5.495939e-001  2.825893e-001 -1.171875e-001
      vertex  5.509835e-001  1.289573e-001 -1.171875e-001
      vertex  5.612891e-001  1.331934e-001 -1.171875e-001
    endloop
  endfacet
  facet normal  0.000000e+000  -0.000000e+000  1.000000e+000
    outer loop
      vertex  5.495939e-001  2.825893e-001 -1.171875e-001
      vertex  5.612891e-001  1.331934e-001 -1.171875e-001
      vertex  5.706671e-001  1.392102e-001 -1.171875e-001
    endloop
  endfacet
  facet normal  0.000000e+000  -0.000000e+000  9.999999e-001
    outer loop
      vertex  5.495939e-001  2.825893e-001 -1.171875e-001
      vertex  5.706671e-001  1.392102e-001 -1.171875e-001
      vertex  5.788130e-001  1.468125e-001 -1.171875e-001
    endloop
  endfacet
  facet normal  0.000000e+000  -0.000000e+000  1.000000e+000
    outer loop
      vertex  5.495939e-001  2.825893e-001 -1.171875e-001
      vertex  5.788130e-001  1.468125e-001 -1.171875e-001
      vertex  5.854622e-001  1.557533e-001 -1.171875e-001
    endloop
  endfacet
  facet normal  0.000000e+000  -0.000000e+000  1.000000e+000
    outer loop
      vertex  5.495939e-001  2.825893e-001 -1.171875e-001
      vertex  5.854622e-001  1.557533e-001 -1.171875e-001
      vertex  5.903987e-001  1.657423e-001 -1.171875e-001
    endloop
  endfacet
  facet normal  0.000000e+000  -0.000000e+000  1.000000e+000
    outer loop
      vertex  5.495939e-001  2.825893e-001 -1.171875e-001
      vertex  5.903987e-001  1.657423e-001 -1.171875e-001
      vertex  5.934623e-001  1.764551e-001 -1.171875e-001
    endloop
  endfacet
  facet normal  0.000000e+000  0.000000e+000  9.999999e-001
    outer loop
      vertex  4.074548e-001  4.617485e-001 -1.171875e-001
      vertex  3.140783e-001  5.286047e-001 -1.171875e-001
      vertex  4.868715e-001  3.787912e-001 -1.171875e-001
    endloop
  endfacet
  facet normal  0.000000e+000  0.000000e+000  9.999999e-001
    outer loop
      vertex  4.868715e-001  3.787912e-001 -1.171875e-001
      vertex  3.140783e-001  5.286047e-001 -1.171875e-001
      vertex  2.099572e-001  5.770579e-001 -1.171875e-001
    endloop
  endfacet
  facet normal  0.000000e+000  0.000000e+000  1.000000e+000
    outer loop
      vertex  1.707816e-001  1.351917e-001 -1.171875e-001
      vertex  1.677038e-001  5.821817e-001 -1.171875e-001
      vertex  1.603992e-001  1.383412e-001 -1.171875e-001
    endloop
  endfacet
  facet normal  0.000000e+000  -0.000000e+000  1.000000e+000
    outer loop
      vertex  1.603992e-001  1.383412e-001 -1.171875e-001
      vertex  1.677038e-001  5.821817e-001 -1.171875e-001
      vertex  1.575053e-001  5.783669e-001 -1.171875e-001
    endloop
  endfacet
  facet normal  0.000000e+000  0.000000e+000  1.000000e+000
    outer loop
      vertex  1.603992e-001  1.383412e-001 -1.171875e-001
      vertex  1.575053e-001  5.783669e-001 -1.171875e-001
      vertex  1.508307e-001  1.434557e-001 -1.171875e-001
    endloop
  endfacet
  facet normal  0.000000e+000  0.000000e+000 -1.000000e+000
    outer loop
      vertex  1.289869e-001  5.467710e-001  1.171875e-001
      vertex  1.272970e-001  1.786763e-001  1.171875e-001
      vertex  1.262335e-001  5.362363e-001  1.171875e-001
    endloop
  endfacet
  facet normal  0.000000e+000  0.000000e+000 -9.999999e-001
    outer loop
      vertex  1.272970e-001  1.786763e-001  1.171875e-001
      vertex  1.262335e-001  1.894737e-001  1.171875e-001
      vertex  1.262335e-001  5.362363e-001  1.171875e-001
    endloop
  endfacet
  facet normal  0.000000e+000  0.000000e+000 -1.000000e+000
    outer loop
      vertex  1.508307e-001  1.434557e-001  1.171875e-001
      vertex  1.482190e-001  5.726814e-001  1.171875e-001
      vertex  1.575053e-001  5.783669e-001  1.171875e-001
    endloop
  endfacet
  facet normal  0.000000e+000  0.000000e+000 -1.000000e+000
    outer loop
      vertex  1.482190e-001  5.726814e-001  1.171875e-001
      vertex  1.508307e-001  1.434557e-001  1.171875e-001
      vertex  1.424439e-001  1.503386e-001  1.171875e-001
    endloop
  endfacet
  facet normal  0.000000e+000  0.000000e+000 -1.000000e+000
    outer loop
      vertex  1.424439e-001  1.503386e-001  1.171875e-001
      vertex  1.401842e-001  5.653327e-001  1.171875e-001
      vertex  1.482190e-001  5.726814e-001  1.171875e-001
    endloop
  endfacet
  facet normal  0.000000e+000  0.000000e+000 -9.999999e-001
    outer loop
      vertex  1.401842e-001  5.653327e-001  1.171875e-001
      vertex  1.424439e-001  1.503386e-001  1.171875e-001
      vertex  1.355609e-001  1.587254e-001  1.171875e-001
    endloop
  endfacet
  facet normal  0.000000e+000  0.000000e+000 -1.000000e+000
    outer loop
      vertex  1.355609e-001  1.587254e-001  1.171875e-001
      vertex  1.336944e-001  5.565894e-001  1.171875e-001
      vertex  1.401842e-001  5.653327e-001  1.171875e-001
    endloop
  endfacet
  facet normal  0.000000e+000  0.000000e+000 -1.000000e+000
    outer loop
      vertex  1.336944e-001  5.565894e-001  1.171875e-001
      vertex  1.355609e-001  1.587254e-001  1.171875e-001
      vertex  1.304465e-001  1.682939e-001  1.171875e-001
    endloop
  endfacet
  facet normal  0.000000e+000  0.000000e+000 -1.000000e+000
    outer loop
      vertex  1.304465e-001  1.682939e-001  1.171875e-001
      vertex  1.289869e-001  5.467710e-001  1.171875e-001
      vertex  1.336944e-001  5.565894e-001  1.171875e-001
    endloop
  endfacet
  facet normal  0.000000e+000  0.000000e+000 -1.000000e+000
    outer loop
      vertex  1.289869e-001  5.467710e-001  1.171875e-001
      vertex  1.304465e-001  1.682939e-001  1.171875e-001
      vertex  1.272970e-001  1.786763e-001  1.171875e-001
    endloop
  endfacet
  facet normal  0.000000e+000  0.000000e+000 -1.000000e+000
    outer loop
      vertex  5.024351e-001  1.341283e-001  1.171875e-001
      vertex  1.893270e-001  5.837145e-001  1.171875e-001
      vertex  1.999617e-001  5.813766e-001  1.171875e-001
    endloop
  endfacet
  facet normal  0.000000e+000  0.000000e+000 -1.000000e+000
    outer loop
      vertex  5.024351e-001  1.341283e-001  1.171875e-001
      vertex  1.999617e-001  5.813766e-001  1.171875e-001
      vertex  2.099572e-001  5.770579e-001  1.171875e-001
    endloop
  endfacet
  facet normal  0.000000e+000  0.000000e+000 -1.000000e+000
    outer loop
      vertex  5.024351e-001  1.341283e-001  1.171875e-001
      vertex  2.099572e-001  5.770579e-001  1.171875e-001
      vertex  4.868715e-001  3.787912e-001  1.171875e-001
    endloop
  endfacet
  facet normal  0.000000e+000  0.000000e+000 -1.000000e+000
    outer loop
      vertex  1.815789e-001  1.341283e-001  1.171875e-001
      vertex  1.707816e-001  1.351917e-001  1.171875e-001
      vertex  1.677038e-001  5.821817e-001  1.171875e-001
    endloop
  endfacet
  facet normal  0.000000e+000  0.000000e+000 -1.000000e+000
    outer loop
      vertex  1.815789e-001  1.341283e-001  1.171875e-001
      vertex  1.677038e-001  5.821817e-001  1.171875e-001
      vertex  1.784418e-001  5.839862e-001  1.171875e-001
    endloop
  endfacet
  facet normal  0.000000e+000  0.000000e+000 -1.000000e+000
    outer loop
      vertex  1.815789e-001  1.341283e-001  1.171875e-001
      vertex  1.784418e-001  5.839862e-001  1.171875e-001
      vertex  1.893270e-001  5.837145e-001  1.171875e-001
    endloop
  endfacet
  facet normal  0.000000e+000  -0.000000e+000 -1.000000e+000
    outer loop
      vertex  1.815789e-001  1.341283e-001  1.171875e-001
      vertex  1.893270e-001  5.837145e-001  1.171875e-001
      vertex  5.024351e-001  1.341283e-001  1.171875e-001
    endloop
  endfacet
  facet normal  -0.000000e+000  0.000000e+000 -1.000000e+000
    outer loop
      vertex  5.495939e-001  2.825893e-001  1.171875e-001
      vertex  5.934623e-001  1.764551e-001  1.171875e-001
      vertex  5.903987e-001  1.657423e-001  1.171875e-001
    endloop
  endfacet
  facet normal  -0.000000e+000  0.000000e+000 -1.000000e+000
    outer loop
      vertex  5.495939e-001  2.825893e-001  1.171875e-001
      vertex  5.903987e-001  1.657423e-001  1.171875e-001
      vertex  5.854622e-001  1.557533e-001  1.171875e-001
    endloop
  endfacet
  facet normal  -0.000000e+000  0.000000e+000 -1.000000e+000
    outer loop
      vertex  5.495939e-001  2.825893e-001  1.171875e-001
      vertex  5.854622e-001  1.557533e-001  1.171875e-001
      vertex  5.788130e-001  1.468125e-001  1.171875e-001
    endloop
  endfacet
  facet normal  -0.000000e+000  0.000000e+000 -9.999999e-001
    outer loop
      vertex  5.495939e-001  2.825893e-001  1.171875e-001
      vertex  5.788130e-001  1.468125e-001  1.171875e-001
      vertex  5.706671e-001  1.392102e-001  1.171875e-001
    endloop
  endfacet
  facet normal  -0.000000e+000  0.000000e+000 -1.000000e+000
    outer loop
      vertex  5.495939e-001  2.825893e-001  1.171875e-001
      vertex  5.706671e-001  1.392102e-001  1.171875e-001
      vertex  5.612891e-001  1.331934e-001  1.171875e-001
    endloop
  endfacet
  facet normal  -0.000000e+000  0.000000e+000 -9.999999e-001
    outer loop
      vertex  5.495939e-001  2.825893e-001  1.171875e-001
      vertex  5.612891e-001  1.331934e-001  1.171875e-001
      vertex  5.509835e-001  1.289573e-001  1.171875e-001
    endloop
  endfacet
  facet normal  -0.000000e+000  0.000000e+000 -9.999999e-001
    outer loop
      vertex  5.495939e-001  2.825893e-001  1.171875e-001
      vertex  5.509835e-001  1.289573e-001  1.171875e-001
      vertex  5.400849e-001  1.266397e-001  1.171875e-001
    endloop
  endfacet
  facet normal  -0.000000e+000  0.000000e+000 -9.999999e-001
    outer loop
      vertex  5.495939e-001  2.825893e-001  1.171875e-001
      vertex  5.400849e-001  1.266397e-001  1.171875e-001
      vertex  5.289474e-001  1.263158e-001  1.171875e-001
    endloop
  endfacet
  facet normal  0.000000e+000  0.000000e+000 -1.000000e+000
    outer loop
      vertex  5.495939e-001  2.825893e-001  1.171875e-001
      vertex  5.289474e-001  1.263158e-001  1.171875e-001
      vertex  5.197506e-001  1.275770e-001  1.171875e-001
    endloop
  endfacet
  facet normal  0.000000e+000  0.000000e+000 -1.000000e+000
    outer loop
      vertex  5.495939e-001  2.825893e-001  1.171875e-001
      vertex  5.197506e-001  1.275770e-001  1.171875e-001
      vertex  5.108463e-001  1.302009e-001  1.171875e-001
    endloop
  endfacet
  facet normal  0.000000e+000  0.000000e+000 -1.000000e+000
    outer loop
      vertex  5.495939e-001  2.825893e-001  1.171875e-001
      vertex  5.108463e-001  1.302009e-001  1.171875e-001
      vertex  5.024351e-001  1.341283e-001  1.171875e-001
    endloop
  endfacet
  facet normal  0.000000e+000  0.000000e+000 -9.999999e-001
    outer loop
      vertex  5.495939e-001  2.825893e-001  1.171875e-001
      vertex  5.024351e-001  1.341283e-001  1.171875e-001
      vertex  4.868715e-001  3.787912e-001  1.171875e-001
    endloop
  endfacet
  facet normal  0.000000e+000  0.000000e+000 -9.999999e-001
    outer loop
      vertex  4.074548e-001  4.617485e-001  1.171875e-001
      vertex  4.868715e-001  3.787912e-001  1.171875e-001
      vertex  3.140783e-001  5.286047e-001  1.171875e-001
    endloop
  endfacet
  facet normal  -0.000000e+000  -0.000000e+000 -9.999999e-001
    outer loop
      vertex  3.140783e-001  5.286047e-001  1.171875e-001
      vertex  4.868715e-001  3.787912e-001  1.171875e-001
      vertex  2.099572e-001  5.770579e-001  1.171875e-001
    endloop
  endfacet
  facet normal  0.000000e+000  -0.000000e+000 -1.000000e+000
    outer loop
      vertex  1.508307e-001  1.434557e-001  1.171875e-001
      vertex  1.575053e-001  5.783669e-001  1.171875e-001
      vertex  1.603992e-001  1.383412e-001  1.171875e-001
    endloop
  endfacet
  facet normal  0.000000e+000  0.000000e+000 -1.000000e+000
    outer loop
      vertex  1.603992e-001  1.383412e-001  1.171875e-001
      vertex  1.575053e-001  5.783669e-001  1.171875e-001
      vertex  1.677038e-001  5.821817e-001  1.171875e-001
    endloop
  endfacet
  facet normal  0.000000e+000  -0.000000e+000 -1.000000e+000
    outer loop
      vertex  1.603992e-001  1.383412e-001  1.171875e-001
      vertex  1.677038e-001  5.821817e-001  1.171875e-001
      vertex  1.707816e-001  1.351917e-001  1.171875e-001
    endloop
  endfacet
  facet normal  6.343937e-001  7.730101e-001  0.000000e+000
    outer loop
      vertex  1.424439e-001  1.503386e-001 -1.171875e-001
      vertex  1.508307e-001  1.434557e-001  1.171875e-001
      vertex  1.508307e-001  1.434557e-001 -1.171875e-001
    endloop
  endfacet
  facet normal  4.713966e-001  8.819214e-001  -0.000000e+000
    outer loop
      vertex  1.508307e-001  1.434557e-001 -1.171875e-001
      vertex  1.508307e-001  1.434557e-001  1.171875e-001
      vertex  1.603992e-001  1.383412e-001  1.171875e-001
    endloop
  endfacet
  facet normal  4.713966e-001  8.819214e-001  0.000000e+000
    outer loop
      vertex  1.508307e-001  1.434557e-001 -1.171875e-001
      vertex  1.603992e-001  1.383412e-001  1.171875e-001
      vertex  1.603992e-001  1.383412e-001 -1.171875e-001
    endloop
  endfacet
  facet normal  2.902842e-001  9.569405e-001  -0.000000e+000
    outer loop
      vertex  1.603992e-001  1.383412e-001 -1.171875e-001
      vertex  1.603992e-001  1.383412e-001  1.171875e-001
      vertex  1.707816e-001  1.351917e-001  1.171875e-001
    endloop
  endfacet
  facet normal  2.902842e-001  9.569405e-001  0.000000e+000
    outer loop
      vertex  1.603992e-001  1.383412e-001 -1.171875e-001
      vertex  1.707816e-001  1.351917e-001  1.171875e-001
      vertex  1.707816e-001  1.351917e-001 -1.171875e-001
    endloop
  endfacet
  facet normal  9.801758e-002  9.951847e-001  -0.000000e+000
    outer loop
      vertex  1.707816e-001  1.351917e-001 -1.171875e-001
      vertex  1.707816e-001  1.351917e-001  1.171875e-001
      vertex  1.815789e-001  1.341283e-001  1.171875e-001
    endloop
  endfacet
  facet normal  9.801758e-002  9.951847e-001  0.000000e+000
    outer loop
      vertex  1.707816e-001  1.351917e-001 -1.171875e-001
      vertex  1.815789e-001  1.341283e-001  1.171875e-001
      vertex  1.815789e-001  1.341283e-001 -1.171875e-001
    endloop
  endfacet
  facet normal  6.343937e-001  7.730101e-001  -0.000000e+000
    outer loop
      vertex  1.508307e-001  1.434557e-001  1.171875e-001
      vertex  1.424439e-001  1.503386e-001 -1.171875e-001
      vertex  1.424439e-001  1.503386e-001  1.171875e-001
    endloop
  endfacet
  facet normal  7.730100e-001  6.343939e-001  0.000000e+000
    outer loop
      vertex  1.424439e-001  1.503386e-001  1.171875e-001
      vertex  1.424439e-001  1.503386e-001 -1.171875e-001
      vertex  1.355609e-001  1.587254e-001 -1.171875e-001
    endloop
  endfacet
  facet normal  7.730100e-001  6.343939e-001  -0.000000e+000
    outer loop
      vertex  1.424439e-001  1.503386e-001  1.171875e-001
      vertex  1.355609e-001  1.587254e-001 -1.171875e-001
      vertex  1.355609e-001  1.587254e-001  1.171875e-001
    endloop
  endfacet
  facet normal  8.819214e-001  4.713966e-001  0.000000e+000
    outer loop
      vertex  1.355609e-001  1.587254e-001  1.171875e-001
      vertex  1.355609e-001  1.587254e-001 -1.171875e-001
      vertex  1.304465e-001  1.682939e-001 -1.171875e-001
    endloop
  endfacet
  facet normal  8.819214e-001  4.713966e-001  -0.000000e+000
    outer loop
      vertex  1.355609e-001  1.587254e-001  1.171875e-001
      vertex  1.304465e-001  1.682939e-001 -1.171875e-001
      vertex  1.304465e-001  1.682939e-001  1.171875e-001
    endloop
  endfacet
  facet normal  9.569405e-001  2.902842e-001  0.000000e+000
    outer loop
      vertex  1.304465e-001  1.682939e-001  1.171875e-001
      vertex  1.304465e-001  1.682939e-001 -1.171875e-001
      vertex  1.272970e-001  1.786763e-001 -1.171875e-001
    endloop
  endfacet
  facet normal  9.569405e-001  2.902842e-001  -0.000000e+000
    outer loop
      vertex  1.304465e-001  1.682939e-001  1.171875e-001
      vertex  1.272970e-001  1.786763e-001 -1.171875e-001
      vertex  1.272970e-001  1.786763e-001  1.171875e-001
    endloop
  endfacet
  facet normal  9.951847e-001  9.801758e-002  0.000000e+000
    outer loop
      vertex  1.272970e-001  1.786763e-001  1.171875e-001
      vertex  1.272970e-001  1.786763e-001 -1.171875e-001
      vertex  1.262335e-001  1.894737e-001 -1.171875e-001
    endloop
  endfacet
  facet normal  9.951847e-001  9.801758e-002  -0.000000e+000
    outer loop
      vertex  1.272970e-001  1.786763e-001  1.171875e-001
      vertex  1.262335e-001  1.894737e-001 -1.171875e-001
      vertex  1.262335e-001  1.894737e-001  1.171875e-001
    endloop
  endfacet
  facet normal  0.000000e+000  1.000000e+000  0.000000e+000
    outer loop
      vertex  1.815789e-001  1.341283e-001  1.171875e-001
      vertex  5.024351e-001  1.341283e-001  1.171875e-001
      vertex  1.815789e-001  1.341283e-001 -1.171875e-001
    endloop
  endfacet
  facet normal  0.000000e+000  1.000000e+000  0.000000e+000
    outer loop
      vertex  1.815789e-001  1.341283e-001 -1.171875e-001
      vertex  5.024351e-001  1.341283e-001  1.171875e-001
      vertex  5.024351e-001  1.341283e-001 -1.171875e-001
    endloop
  endfacet
  facet normal  5.221585e-001 -8.528485e-001  0.000000e+000
    outer loop
      vertex  1.575053e-001  5.783669e-001 -1.171875e-001
      vertex  1.482190e-001  5.726814e-001  1.171875e-001
      vertex  1.482190e-001  5.726814e-001 -1.171875e-001
    endloop
  endfacet
  facet normal  6.748987e-001 -7.379103e-001  0.000000e+000
    outer loop
      vertex  1.482190e-001  5.726814e-001 -1.171875e-001
      vertex  1.482190e-001  5.726814e-001  1.171875e-001
      vertex  1.401842e-001  5.653327e-001  1.171875e-001
    endloop
  endfacet
  facet normal  6.748987e-001 -7.379103e-001  0.000000e+000
    outer loop
      vertex  1.482190e-001  5.726814e-001 -1.171875e-001
      vertex  1.401842e-001  5.653327e-001  1.171875e-001
      vertex  1.401842e-001  5.653327e-001 -1.171875e-001
    endloop
  endfacet
  facet normal  8.029737e-001 -5.960145e-001  0.000000e+000
    outer loop
      vertex  1.401842e-001  5.653327e-001 -1.171875e-001
      vertex  1.401842e-001  5.653327e-001  1.171875e-001
      vertex  1.336944e-001  5.565894e-001  1.171875e-001
    endloop
  endfacet
  facet normal  8.029737e-001 -5.960145e-001  0.000000e+000
    outer loop
      vertex  1.401842e-001  5.653327e-001 -1.171875e-001
      vertex  1.336944e-001  5.565894e-001  1.171875e-001
      vertex  1.336944e-001  5.565894e-001 -1.171875e-001
    endloop
  endfacet
  facet normal  9.017114e-001 -4.323384e-001  0.000000e+000
    outer loop
      vertex  1.336944e-001  5.565894e-001 -1.171875e-001
      vertex  1.336944e-001  5.565894e-001  1.171875e-001
      vertex  1.289869e-001  5.467710e-001  1.171875e-001
    endloop
  endfacet
  facet normal  9.017114e-001 -4.323384e-001  0.000000e+000
    outer loop
      vertex  1.336944e-001  5.565894e-001 -1.171875e-001
      vertex  1.289869e-001  5.467710e-001  1.171875e-001
      vertex  1.289869e-001  5.467710e-001 -1.171875e-001
    endloop
  endfacet
  facet normal  9.675017e-001 -2.528646e-001  0.000000e+000
    outer loop
      vertex  1.289869e-001  5.467710e-001 -1.171875e-001
      vertex  1.289869e-001  5.467710e-001  1.171875e-001
      vertex  1.262335e-001  5.362363e-001  1.171875e-001
    endloop
  endfacet
  facet normal  9.675017e-001 -2.528646e-001  0.000000e+000
    outer loop
      vertex  1.289869e-001  5.467710e-001 -1.171875e-001
      vertex  1.262335e-001  5.362363e-001  1.171875e-001
      vertex  1.262335e-001  5.362363e-001 -1.171875e-001
    endloop
  endfacet
  facet normal  5.221585e-001 -8.528485e-001  0.000000e+000
    outer loop
      vertex  1.482190e-001  5.726814e-001  1.171875e-001
      vertex  1.575053e-001  5.783669e-001 -1.171875e-001
      vertex  1.575053e-001  5.783669e-001  1.171875e-001
    endloop
  endfacet
  facet normal  3.503437e-001 -9.366211e-001  0.000000e+000
    outer loop
      vertex  1.575053e-001  5.783669e-001  1.171875e-001
      vertex  1.575053e-001  5.783669e-001 -1.171875e-001
      vertex  1.677038e-001  5.821817e-001 -1.171875e-001
    endloop
  endfacet
  facet normal  3.503437e-001 -9.366211e-001  0.000000e+000
    outer loop
      vertex  1.575053e-001  5.783669e-001  1.171875e-001
      vertex  1.677038e-001  5.821817e-001 -1.171875e-001
      vertex  1.677038e-001  5.821817e-001  1.171875e-001
    endloop
  endfacet
  facet normal  1.657215e-001 -9.861725e-001  0.000000e+000
    outer loop
      vertex  1.677038e-001  5.821817e-001  1.171875e-001
      vertex  1.677038e-001  5.821817e-001 -1.171875e-001
      vertex  1.784418e-001  5.839862e-001 -1.171875e-001
    endloop
  endfacet
  facet normal  1.657215e-001 -9.861725e-001  0.000000e+000
    outer loop
      vertex  1.677038e-001  5.821817e-001  1.171875e-001
      vertex  1.784418e-001  5.839862e-001 -1.171875e-001
      vertex  1.784418e-001  5.839862e-001  1.171875e-001
    endloop
  endfacet
  facet normal -2.495068e-002 -9.996887e-001  -0.000000e+000
    outer loop
      vertex  1.784418e-001  5.839862e-001  1.171875e-001
      vertex  1.784418e-001  5.839862e-001 -1.171875e-001
      vertex  1.893270e-001  5.837145e-001 -1.171875e-001
    endloop
  endfacet
  facet normal -2.495068e-002 -9.996887e-001  0.000000e+000
    outer loop
      vertex  1.784418e-001  5.839862e-001  1.171875e-001
      vertex  1.893270e-001  5.837145e-001 -1.171875e-001
      vertex  1.893270e-001  5.837145e-001  1.171875e-001
    endloop
  endfacet
  facet normal -2.147086e-001 -9.766782e-001  -0.000000e+000
    outer loop
      vertex  1.893270e-001  5.837145e-001  1.171875e-001
      vertex  1.893270e-001  5.837145e-001 -1.171875e-001
      vertex  1.999617e-001  5.813766e-001 -1.171875e-001
    endloop
  endfacet
  facet normal -2.147086e-001 -9.766782e-001  0.000000e+000
    outer loop
      vertex  1.893270e-001  5.837145e-001  1.171875e-001
      vertex  1.999617e-001  5.813766e-001 -1.171875e-001
      vertex  1.999617e-001  5.813766e-001  1.171875e-001
    endloop
  endfacet
  facet normal -3.966275e-001 -9.179797e-001  -0.000000e+000
    outer loop
      vertex  1.999617e-001  5.813766e-001  1.171875e-001
      vertex  1.999617e-001  5.813766e-001 -1.171875e-001
      vertex  2.099572e-001  5.770579e-001 -1.171875e-001
    endloop
  endfacet
  facet normal -3.966275e-001 -9.179797e-001  0.000000e+000
    outer loop
      vertex  1.999617e-001  5.813766e-001  1.171875e-001
      vertex  2.099572e-001  5.770579e-001 -1.171875e-001
      vertex  2.099572e-001  5.770579e-001  1.171875e-001
    endloop
  endfacet
  facet normal  1.000000e+000  -0.000000e+000  0.000000e+000
    outer loop
      vertex  1.262335e-001  5.362363e-001  1.171875e-001
      vertex  1.262335e-001  1.894737e-001  1.171875e-001
      vertex  1.262335e-001  5.362363e-001 -1.171875e-001
    endloop
  endfacet
  facet normal  1.000000e+000  0.000000e+000  0.000000e+000
    outer loop
      vertex  1.262335e-001  5.362363e-001 -1.171875e-001
      vertex  1.262335e-001  1.894737e-001  1.171875e-001
      vertex  1.262335e-001  1.894737e-001 -1.171875e-001
    endloop
  endfacet
  facet normal  0.000000e+000  0.000000e+000  1.000000e+000
    outer loop
      vertex  1.896242e-001  5.915449e-001  1.250000e-001
      vertex  1.772438e-001  5.917301e-001  1.250000e-001
      vertex  1.650544e-001  5.895562e-001  1.250000e-001
    endloop
  endfacet
  facet normal  -0.000000e+000  0.000000e+000  1.000000e+000
    outer loop
      vertex  1.896242e-001  5.915449e-001  1.250000e-001
      vertex  1.650544e-001  5.895562e-001  1.250000e-001
      vertex  2.017431e-001  5.890075e-001  1.250000e-001
    endloop
  endfacet
  facet normal  0.000000e+000  0.000000e+000  1.000000e+000
    outer loop
      vertex  2.017431e-001  5.890075e-001  1.250000e-001
      vertex  1.650544e-001  5.895562e-001  1.250000e-001
      vertex  1.535013e-001  5.851027e-001  1.250000e-001
    endloop
  endfacet
  facet normal  0.000000e+000  -0.000000e+000  1.000000e+000
    outer loop
      vertex  1.290651e-001  1.543850e-001  1.250000e-001
      vertex  1.369196e-001  1.448143e-001  1.250000e-001
      vertex  5.810066e-001  1.494052e-001  1.250000e-001
    endloop
  endfacet
  facet normal  -0.000000e+000  0.000000e+000  1.000000e+000
    outer loop
      vertex  5.810066e-001  1.494052e-001  1.250000e-001
      vertex  1.369196e-001  1.448143e-001  1.250000e-001
      vertex  5.727754e-001  1.409243e-001  1.250000e-001
    endloop
  endfacet
  facet normal  0.000000e+000  0.000000e+000  1.000000e+000
    outer loop
      vertex  5.727754e-001  1.409243e-001  1.250000e-001
      vertex  1.369196e-001  1.448143e-001  1.250000e-001
      vertex  1.464903e-001  1.369598e-001  1.250000e-001
    endloop
  endfacet
  facet normal  -0.000000e+000  0.000000e+000  1.000000e+000
    outer loop
      vertex  5.727754e-001  1.409243e-001  1.250000e-001
      vertex  1.464903e-001  1.369598e-001  1.250000e-001
      vertex  5.630807e-001  1.341645e-001  1.250000e-001
    endloop
  endfacet
  facet normal  0.000000e+000  0.000000e+000  1.000000e+000
    outer loop
      vertex  5.630807e-001  1.341645e-001  1.250000e-001
      vertex  1.464903e-001  1.369598e-001  1.250000e-001
      vertex  1.574095e-001  1.311234e-001  1.250000e-001
    endloop
  endfacet
  facet normal  0.000000e+000  0.000000e+000  1.000000e+000
    outer loop
      vertex  2.131579e-001  5.842105e-001  1.250000e-001
      vertex  2.017431e-001  5.890075e-001  1.250000e-001
      vertex  1.535013e-001  5.851027e-001  1.250000e-001
    endloop
  endfacet
  facet normal  0.000000e+000  0.000000e+000  1.000000e+000
    outer loop
      vertex  2.131579e-001  5.842105e-001  1.250000e-001
      vertex  1.535013e-001  5.851027e-001  1.250000e-001
      vertex  1.430066e-001  5.785323e-001  1.250000e-001
    endloop
  endfacet
  facet normal  -0.000000e+000  0.000000e+000  1.000000e+000
    outer loop
      vertex  2.131579e-001  5.842105e-001  1.250000e-001
      vertex  1.430066e-001  5.785323e-001  1.250000e-001
      vertex  3.136041e-001  5.379042e-001  1.250000e-001
    endloop
  endfacet
  facet normal  0.000000e+000  0.000000e+000  1.000000e+000
    outer loop
      vertex  3.136041e-001  5.379042e-001  1.250000e-001
      vertex  1.430066e-001  5.785323e-001  1.250000e-001
      vertex  1.339539e-001  5.700851e-001  1.250000e-001
    endloop
  endfacet
  facet normal  0.000000e+000  0.000000e+000  1.000000e+000
    outer loop
      vertex  3.136041e-001  5.379042e-001  1.250000e-001
      vertex  1.339539e-001  5.700851e-001  1.250000e-001
      vertex  1.266737e-001  5.600697e-001  1.250000e-001
    endloop
  endfacet
  facet normal  0.000000e+000  0.000000e+000  1.000000e+000
    outer loop
      vertex  3.136041e-001  5.379042e-001  1.250000e-001
      vertex  1.266737e-001  5.600697e-001  1.250000e-001
      vertex  1.214323e-001  5.488521e-001  1.250000e-001
    endloop
  endfacet
  facet normal  0.000000e+000  0.000000e+000  1.000000e+000
    outer loop
      vertex  3.136041e-001  5.379042e-001  1.250000e-001
      vertex  1.214323e-001  5.488521e-001  1.250000e-001
      vertex  1.184211e-001  5.368421e-001  1.250000e-001
    endloop
  endfacet
  facet normal  -0.000000e+000  0.000000e+000  1.000000e+000
    outer loop
      vertex  3.136041e-001  5.379042e-001  1.250000e-001
      vertex  1.184211e-001  5.368421e-001  1.250000e-001
      vertex  1.184211e-001  1.894737e-001  1.250000e-001
    endloop
  endfacet
  facet normal  0.000000e+000  0.000000e+000  1.000000e+000
    outer loop
      vertex  3.136041e-001  5.379042e-001  1.250000e-001
      vertex  1.184211e-001  1.894737e-001  1.250000e-001
      vertex  4.043454e-001  4.746610e-001  1.250000e-001
    endloop
  endfacet
  facet normal  0.000000e+000  -0.000000e+000  1.000000e+000
    outer loop
      vertex  1.184211e-001  1.894737e-001  1.250000e-001
      vertex  1.196346e-001  1.771522e-001  1.250000e-001
      vertex  5.942440e-001  1.818315e-001  1.250000e-001
    endloop
  endfacet
  facet normal  0.000000e+000  -0.000000e+000  1.000000e+000
    outer loop
      vertex  1.184211e-001  1.894737e-001  1.250000e-001
      vertex  5.942440e-001  1.818315e-001  1.250000e-001
      vertex  5.942995e-001  1.936500e-001  1.250000e-001
    endloop
  endfacet
  facet normal  0.000000e+000  0.000000e+000  9.999999e-001
    outer loop
      vertex  1.184211e-001  1.894737e-001  1.250000e-001
      vertex  5.942995e-001  1.936500e-001  1.250000e-001
      vertex  5.921053e-001  2.052632e-001  1.250000e-001
    endloop
  endfacet
  facet normal  0.000000e+000  0.000000e+000  1.000000e+000
    outer loop
      vertex  1.184211e-001  1.894737e-001  1.250000e-001
      vertex  5.921053e-001  2.052632e-001  1.250000e-001
      vertex  5.457990e-001  3.057093e-001  1.250000e-001
    endloop
  endfacet
  facet normal  0.000000e+000  0.000000e+000  1.000000e+000
    outer loop
      vertex  1.184211e-001  1.894737e-001  1.250000e-001
      vertex  5.457990e-001  3.057093e-001  1.250000e-001
      vertex  4.825557e-001  3.964507e-001  1.250000e-001
    endloop
  endfacet
  facet normal  0.000000e+000  0.000000e+000  1.000000e+000
    outer loop
      vertex  1.184211e-001  1.894737e-001  1.250000e-001
      vertex  4.825557e-001  3.964507e-001  1.250000e-001
      vertex  4.043454e-001  4.746610e-001  1.250000e-001
    endloop
  endfacet
  facet normal  0.000000e+000  0.000000e+000  9.999999e-001
    outer loop
      vertex  5.522770e-001  1.293728e-001  1.250000e-001
      vertex  5.630807e-001  1.341645e-001  1.250000e-001
      vertex  1.574095e-001  1.311234e-001  1.250000e-001
    endloop
  endfacet
  facet normal  0.000000e+000  0.000000e+000  1.000000e+000
    outer loop
      vertex  5.522770e-001  1.293728e-001  1.250000e-001
      vertex  1.574095e-001  1.311234e-001  1.250000e-001
      vertex  1.692574e-001  1.275294e-001  1.250000e-001
    endloop
  endfacet
  facet normal  -0.000000e+000  0.000000e+000  1.000000e+000
    outer loop
      vertex  5.522770e-001  1.293728e-001  1.250000e-001
      vertex  1.692574e-001  1.275294e-001  1.250000e-001
      vertex  1.815789e-001  1.263158e-001  1.250000e-001
    endloop
  endfacet
  facet normal  0.000000e+000  0.000000e+000  1.000000e+000
    outer loop
      vertex  5.522770e-001  1.293728e-001  1.250000e-001
      vertex  1.815789e-001  1.263158e-001  1.250000e-001
      vertex  5.289474e-001  1.263158e-001  1.250000e-001
    endloop
  endfacet
  facet normal  0.000000e+000  0.000000e+000  1.000000e+000
    outer loop
      vertex  5.522770e-001  1.293728e-001  1.250000e-001
      vertex  5.289474e-001  1.263158e-001  1.250000e-001
      vertex  5.407590e-001  1.267243e-001  1.250000e-001
    endloop
  endfacet
  facet normal  -0.000000e+000  0.000000e+000  1.000000e+000
    outer loop
      vertex  5.942440e-001  1.818315e-001  1.250000e-001
      vertex  1.196346e-001  1.771522e-001  1.250000e-001
      vertex  5.919407e-001  1.702394e-001  1.250000e-001
    endloop
  endfacet
  facet normal  0.000000e+000  0.000000e+000  1.000000e+000
    outer loop
      vertex  5.919407e-001  1.702394e-001  1.250000e-001
      vertex  1.196346e-001  1.771522e-001  1.250000e-001
      vertex  1.232287e-001  1.653042e-001  1.250000e-001
    endloop
  endfacet
  facet normal  -0.000000e+000  0.000000e+000  1.000000e+000
    outer loop
      vertex  5.919407e-001  1.702394e-001  1.250000e-001
      vertex  1.232287e-001  1.653042e-001  1.250000e-001
      vertex  5.874739e-001  1.592974e-001  1.250000e-001
    endloop
  endfacet
  facet normal  0.000000e+000  0.000000e+000  1.000000e+000
    outer loop
      vertex  5.874739e-001  1.592974e-001  1.250000e-001
      vertex  1.232287e-001  1.653042e-001  1.250000e-001
      vertex  1.290651e-001  1.543850e-001  1.250000e-001
    endloop
  endfacet
  facet normal  -0.000000e+000  0.000000e+000  1.000000e+000
    outer loop
      vertex  5.874739e-001  1.592974e-001  1.250000e-001
      vertex  1.290651e-001  1.543850e-001  1.250000e-001
      vertex  5.810066e-001  1.494052e-001  1.250000e-001
    endloop
  endfacet
  facet normal  0.000000e+000  -0.000000e+000 -1.000000e+000
    outer loop
      vertex  1.650544e-001  5.895562e-001 -1.250000e-001
      vertex  1.772438e-001  5.917301e-001 -1.250000e-001
      vertex  1.896242e-001  5.915449e-001 -1.250000e-001
    endloop
  endfacet
  facet normal  0.000000e+000  0.000000e+000 -1.000000e+000
    outer loop
      vertex  2.017431e-001  5.890075e-001 -1.250000e-001
      vertex  1.650544e-001  5.895562e-001 -1.250000e-001
      vertex  1.896242e-001  5.915449e-001 -1.250000e-001
    endloop
  endfacet
  facet normal  0.000000e+000  -0.000000e+000 -1.000000e+000
    outer loop
      vertex  1.535013e-001  5.851027e-001 -1.250000e-001
      vertex  1.650544e-001  5.895562e-001 -1.250000e-001
      vertex  2.017431e-001  5.890075e-001 -1.250000e-001
    endloop
  endfacet
  facet normal  0.000000e+000  0.000000e+000 -1.000000e+000
    outer loop
      vertex  5.810066e-001  1.494052e-001 -1.250000e-001
      vertex  1.369196e-001  1.448143e-001 -1.250000e-001
      vertex  1.290651e-001  1.543850e-001 -1.250000e-001
    endloop
  endfacet
  facet normal  0.000000e+000  0.000000e+000 -1.000000e+000
    outer loop
      vertex  5.727754e-001  1.409243e-001 -1.250000e-001
      vertex  1.369196e-001  1.448143e-001 -1.250000e-001
      vertex  5.810066e-001  1.494052e-001 -1.250000e-001
    endloop
  endfacet
  facet normal  0.000000e+000  0.000000e+000 -1.000000e+000
    outer loop
      vertex  1.464903e-001  1.369598e-001 -1.250000e-001
      vertex  1.369196e-001  1.448143e-001 -1.250000e-001
      vertex  5.727754e-001  1.409243e-001 -1.250000e-001
    endloop
  endfacet
  facet normal  0.000000e+000  0.000000e+000 -1.000000e+000
    outer loop
      vertex  5.630807e-001  1.341645e-001 -1.250000e-001
      vertex  1.464903e-001  1.369598e-001 -1.250000e-001
      vertex  5.727754e-001  1.409243e-001 -1.250000e-001
    endloop
  endfacet
  facet normal  0.000000e+000  0.000000e+000 -1.000000e+000
    outer loop
      vertex  1.574095e-001  1.311234e-001 -1.250000e-001
      vertex  1.464903e-001  1.369598e-001 -1.250000e-001
      vertex  5.630807e-001  1.341645e-001 -1.250000e-001
    endloop
  endfacet
  facet normal  0.000000e+000  0.000000e+000 -1.000000e+000
    outer loop
      vertex  2.131579e-001  5.842105e-001 -1.250000e-001
      vertex  3.136041e-001  5.379042e-001 -1.250000e-001
      vertex  1.430066e-001  5.785323e-001 -1.250000e-001
    endloop
  endfacet
  facet normal  0.000000e+000  0.000000e+000 -1.000000e+000
    outer loop
      vertex  2.131579e-001  5.842105e-001 -1.250000e-001
      vertex  1.430066e-001  5.785323e-001 -1.250000e-001
      vertex  1.535013e-001  5.851027e-001 -1.250000e-001
    endloop
  endfacet
  facet normal  0.000000e+000  0.000000e+000 -1.000000e+000
    outer loop
      vertex  2.131579e-001  5.842105e-001 -1.250000e-001
      vertex  1.535013e-001  5.851027e-001 -1.250000e-001
      vertex  2.017431e-001  5.890075e-001 -1.250000e-001
    endloop
  endfacet
  facet normal  -0.000000e+000  0.000000e+000 -1.000000e+000
    outer loop
      vertex  3.136041e-001  5.379042e-001 -1.250000e-001
      vertex  4.043454e-001  4.746610e-001 -1.250000e-001
      vertex  1.184211e-001  1.894737e-001 -1.250000e-001
    endloop
  endfacet
  facet normal  0.000000e+000  0.000000e+000 -1.000000e+000
    outer loop
      vertex  3.136041e-001  5.379042e-001 -1.250000e-001
      vertex  1.184211e-001  1.894737e-001 -1.250000e-001
      vertex  1.184211e-001  5.368421e-001 -1.250000e-001
    endloop
  endfacet
  facet normal  0.000000e+000  0.000000e+000 -1.000000e+000
    outer loop
      vertex  3.136041e-001  5.379042e-001 -1.250000e-001
      vertex  1.184211e-001  5.368421e-001 -1.250000e-001
      vertex  1.214323e-001  5.488521e-001 -1.250000e-001
    endloop
  endfacet
  facet normal  0.000000e+000  0.000000e+000 -1.000000e+000
    outer loop
      vertex  3.136041e-001  5.379042e-001 -1.250000e-001
      vertex  1.214323e-001  5.488521e-001 -1.250000e-001
      vertex  1.266737e-001  5.600697e-001 -1.250000e-001
    endloop
  endfacet
  facet normal  0.000000e+000  0.000000e+000 -1.000000e+000
    outer loop
      vertex  3.136041e-001  5.379042e-001 -1.250000e-001
      vertex  1.266737e-001  5.600697e-001 -1.250000e-001
      vertex  1.339539e-001  5.700851e-001 -1.250000e-001
    endloop
  endfacet
  facet normal  0.000000e+000  0.000000e+000 -1.000000e+000
    outer loop
      vertex  3.136041e-001  5.379042e-001 -1.250000e-001
      vertex  1.339539e-001  5.700851e-001 -1.250000e-001
      vertex  1.430066e-001  5.785323e-001 -1.250000e-001
    endloop
  endfacet
  facet normal  0.000000e+000  -0.000000e+000 -1.000000e+000
    outer loop
      vertex  1.184211e-001  1.894737e-001 -1.250000e-001
      vertex  4.043454e-001  4.746610e-001 -1.250000e-001
      vertex  4.825557e-001  3.964507e-001 -1.250000e-001
    endloop
  endfacet
  facet normal  0.000000e+000  -0.000000e+000 -1.000000e+000
    outer loop
      vertex  1.184211e-001  1.894737e-001 -1.250000e-001
      vertex  4.825557e-001  3.964507e-001 -1.250000e-001
      vertex  5.457990e-001  3.057093e-001 -1.250000e-001
    endloop
  endfacet
  facet normal  0.000000e+000  -0.000000e+000 -1.000000e+000
    outer loop
      vertex  1.184211e-001  1.894737e-001 -1.250000e-001
      vertex  5.457990e-001  3.057093e-001 -1.250000e-001
      vertex  5.921053e-001  2.052632e-001 -1.250000e-001
    endloop
  endfacet
  facet normal  0.000000e+000  -0.000000e+000 -9.999999e-001
    outer loop
      vertex  1.184211e-001  1.894737e-001 -1.250000e-001
      vertex  5.921053e-001  2.052632e-001 -1.250000e-001
      vertex  5.942995e-001  1.936500e-001 -1.250000e-001
    endloop
  endfacet
  facet normal  0.000000e+000  0.000000e+000 -1.000000e+000
    outer loop
      vertex  1.184211e-001  1.894737e-001 -1.250000e-001
      vertex  5.942995e-001  1.936500e-001 -1.250000e-001
      vertex  5.942440e-001  1.818315e-001 -1.250000e-001
    endloop
  endfacet
  facet normal  -0.000000e+000  0.000000e+000 -1.000000e+000
    outer loop
      vertex  1.184211e-001  1.894737e-001 -1.250000e-001
      vertex  5.942440e-001  1.818315e-001 -1.250000e-001
      vertex  1.196346e-001  1.771522e-001 -1.250000e-001
    endloop
  endfacet
  facet normal  -0.000000e+000  0.000000e+000 -1.000000e+000
    outer loop
      vertex  5.522770e-001  1.293728e-001 -1.250000e-001
      vertex  5.407590e-001  1.267243e-001 -1.250000e-001
      vertex  5.289474e-001  1.263158e-001 -1.250000e-001
    endloop
  endfacet
  facet normal  0.000000e+000  0.000000e+000 -1.000000e+000
    outer loop
      vertex  5.522770e-001  1.293728e-001 -1.250000e-001
      vertex  5.289474e-001  1.263158e-001 -1.250000e-001
      vertex  1.815789e-001  1.263158e-001 -1.250000e-001
    endloop
  endfacet
  facet normal  0.000000e+000  0.000000e+000 -1.000000e+000
    outer loop
      vertex  5.522770e-001  1.293728e-001 -1.250000e-001
      vertex  1.815789e-001  1.263158e-001 -1.250000e-001
      vertex  1.692574e-001  1.275294e-001 -1.250000e-001
    endloop
  endfacet
  facet normal  0.000000e+000  0.000000e+000 -1.000000e+000
    outer loop
      vertex  5.522770e-001  1.293728e-001 -1.250000e-001
      vertex  1.692574e-001  1.275294e-001 -1.250000e-001
      vertex  1.574095e-001  1.311234e-001 -1.250000e-001
    endloop
  endfacet
  facet normal  0.000000e+000  0.000000e+000 -9.999999e-001
    outer loop
      vertex  5.522770e-001  1.293728e-001 -1.250000e-001
      vertex  1.574095e-001  1.311234e-001 -1.250000e-001
      vertex  5.630807e-001  1.341645e-001 -1.250000e-001
    endloop
  endfacet
  facet normal  0.000000e+000  0.000000e+000 -1.000000e+000
    outer loop
      vertex  5.810066e-001  1.494052e-001 -1.250000e-001
      vertex  1.290651e-001  1.543850e-001 -1.250000e-001
      vertex  5.874739e-001  1.592974e-001 -1.250000e-001
    endloop
  endfacet
  facet normal  -0.000000e+000  0.000000e+000 -1.000000e+000
    outer loop
      vertex  5.874739e-001  1.592974e-001 -1.250000e-001
      vertex  1.290651e-001  1.543850e-001 -1.250000e-001
      vertex  1.232287e-001  1.653042e-001 -1.250000e-001
    endloop
  endfacet
  facet normal  0.000000e+000  0.000000e+000 -1.000000e+000
    outer loop
      vertex  5.874739e-001  1.592974e-001 -1.250000e-001
      vertex  1.232287e-001  1.653042e-001 -1.250000e-001
      vertex  5.919407e-001  1.702394e-001 -1.250000e-001
    endloop
  endfacet
  facet normal  -0.000000e+000  0.000000e+000 -1.000000e+000
    outer loop
      vertex  5.919407e-001  1.702394e-001 -1.250000e-001
      vertex  1.232287e-001  1.653042e-001 -1.250000e-001
      vertex  1.196346e-001  1.771522e-001 -1.250000e-001
    endloop
  endfacet
  facet normal  0.000000e+000  0.000000e+000 -1.000000e+000
    outer loop
      vertex  5.919407e-001  1.702394e-001 -1.250000e-001
      vertex  1.196346e-001  1.771522e-001 -1.250000e-001
      vertex  5.942440e-001  1.818315e-001 -1.250000e-001
    endloop
  endfacet
  facet normal -1.000000e+000  0.000000e+000  0.000000e+000
    outer loop
      vertex  1.184211e-001  5.368421e-001  1.250000e-001
      vertex  1.184211e-001  5.368421e-001 -1.250000e-001
      vertex  1.184211e-001  1.894737e-001  1.250000e-001
    endloop
  endfacet
  facet normal -1.000000e+000  0.000000e+000  0.000000e+000
    outer loop
      vertex  1.184211e-001  1.894737e-001  1.250000e-001
      vertex  1.184211e-001  5.368421e-001 -1.250000e-001
      vertex  1.184211e-001  1.894737e-001 -1.250000e-001
    endloop
  endfacet
  facet normal -9.699757e-001  2.432016e-001  0.000000e+000
    outer loop
      vertex  1.184211e-001  5.368421e-001 -1.250000e-001
      vertex  1.184211e-001  5.368421e-001  1.250000e-001
      vertex  1.214323e-001  5.488521e-001 -1.250000e-001
    endloop
  endfacet
  facet normal -9.699757e-001  2.432016e-001  0.000000e+000
    outer loop
      vertex  1.214323e-001  5.488521e-001 -1.250000e-001
      vertex  1.184211e-001  5.368421e-001  1.250000e-001
      vertex  1.214323e-001  5.488521e-001  1.250000e-001
    endloop
  endfacet
  facet normal -9.059811e-001  4.233182e-001  0.000000e+000
    outer loop
      vertex  1.214323e-001  5.488521e-001 -1.250000e-001
      vertex  1.214323e-001  5.488521e-001  1.250000e-001
      vertex  1.266737e-001  5.600697e-001 -1.250000e-001
    endloop
  endfacet
  facet normal -9.059811e-001  4.233182e-001  0.000000e+000
    outer loop
      vertex  1.266737e-001  5.600697e-001 -1.250000e-001
      vertex  1.214323e-001  5.488521e-001  1.250000e-001
      vertex  1.266737e-001  5.600697e-001  1.250000e-001
    endloop
  endfacet
  facet normal -8.088818e-001  5.879713e-001  0.000000e+000
    outer loop
      vertex  1.266737e-001  5.600697e-001 -1.250000e-001
      vertex  1.266737e-001  5.600697e-001  1.250000e-001
      vertex  1.339539e-001  5.700851e-001 -1.250000e-001
    endloop
  endfacet
  facet normal -8.088818e-001  5.879713e-001  0.000000e+000
    outer loop
      vertex  1.339539e-001  5.700851e-001 -1.250000e-001
      vertex  1.266737e-001  5.600697e-001  1.250000e-001
      vertex  1.339539e-001  5.700851e-001  1.250000e-001
    endloop
  endfacet
  facet normal -6.822316e-001  7.311361e-001  0.000000e+000
    outer loop
      vertex  1.339539e-001  5.700851e-001 -1.250000e-001
      vertex  1.339539e-001  5.700851e-001  1.250000e-001
      vertex  1.430066e-001  5.785323e-001 -1.250000e-001
    endloop
  endfacet
  facet normal -6.822316e-001  7.311361e-001  0.000000e+000
    outer loop
      vertex  1.430066e-001  5.785323e-001 -1.250000e-001
      vertex  1.339539e-001  5.700851e-001  1.250000e-001
      vertex  1.430066e-001  5.785323e-001  1.250000e-001
    endloop
  endfacet
  facet normal -5.306512e-001  8.475903e-001  0.000000e+000
    outer loop
      vertex  1.430066e-001  5.785323e-001 -1.250000e-001
      vertex  1.430066e-001  5.785323e-001  1.250000e-001
      vertex  1.535013e-001  5.851027e-001 -1.250000e-001
    endloop
  endfacet
  facet normal -5.306512e-001  8.475903e-001  0.000000e+000
    outer loop
      vertex  1.535013e-001  5.851027e-001 -1.250000e-001
      vertex  1.430066e-001  5.785323e-001  1.250000e-001
      vertex  1.535013e-001  5.851027e-001  1.250000e-001
    endloop
  endfacet
  facet normal -3.596809e-001  9.330754e-001  0.000000e+000
    outer loop
      vertex  1.535013e-001  5.851027e-001 -1.250000e-001
      vertex  1.535013e-001  5.851027e-001  1.250000e-001
      vertex  1.650544e-001  5.895562e-001 -1.250000e-001
    endloop
  endfacet
  facet normal -3.596809e-001  9.330754e-001  0.000000e+000
    outer loop
      vertex  1.650544e-001  5.895562e-001 -1.250000e-001
      vertex  1.535013e-001  5.851027e-001  1.250000e-001
      vertex  1.650544e-001  5.895562e-001  1.250000e-001
    endloop
  endfacet
  facet normal -1.755730e-001  9.844664e-001  0.000000e+000
    outer loop
      vertex  1.650544e-001  5.895562e-001 -1.250000e-001
      vertex  1.650544e-001  5.895562e-001  1.250000e-001
      vertex  1.772438e-001  5.917301e-001 -1.250000e-001
    endloop
  endfacet
  facet normal -1.755730e-001  9.844664e-001  0.000000e+000
    outer loop
      vertex  1.772438e-001  5.917301e-001 -1.250000e-001
      vertex  1.650544e-001  5.895562e-001  1.250000e-001
      vertex  1.772438e-001  5.917301e-001  1.250000e-001
    endloop
  endfacet
  facet normal  1.495681e-002  9.998882e-001  0.000000e+000
    outer loop
      vertex  1.772438e-001  5.917301e-001 -1.250000e-001
      vertex  1.772438e-001  5.917301e-001  1.250000e-001
      vertex  1.896242e-001  5.915449e-001 -1.250000e-001
    endloop
  endfacet
  facet normal  1.495681e-002  9.998882e-001  -0.000000e+000
    outer loop
      vertex  1.896242e-001  5.915449e-001 -1.250000e-001
      vertex  1.772438e-001  5.917301e-001  1.250000e-001
      vertex  1.896242e-001  5.915449e-001  1.250000e-001
    endloop
  endfacet
  facet normal  2.049329e-001  9.787760e-001  0.000000e+000
    outer loop
      vertex  1.896242e-001  5.915449e-001 -1.250000e-001
      vertex  1.896242e-001  5.915449e-001  1.250000e-001
      vertex  2.017431e-001  5.890075e-001 -1.250000e-001
    endloop
  endfacet
  facet normal  2.049329e-001  9.787760e-001  -0.000000e+000
    outer loop
      vertex  2.017431e-001  5.890075e-001 -1.250000e-001
      vertex  1.896242e-001  5.915449e-001  1.250000e-001
      vertex  2.017431e-001  5.890075e-001  1.250000e-001
    endloop
  endfacet
  facet normal  3.874238e-001  9.219018e-001  0.000000e+000
    outer loop
      vertex  2.017431e-001  5.890075e-001 -1.250000e-001
      vertex  2.017431e-001  5.890075e-001  1.250000e-001
      vertex  2.131579e-001  5.842105e-001 -1.250000e-001
    endloop
  endfacet
  facet normal  3.874238e-001  9.219018e-001  -0.000000e+000
    outer loop
      vertex  2.131579e-001  5.842105e-001 -1.250000e-001
      vertex  2.017431e-001  5.890075e-001  1.250000e-001
      vertex  2.131579e-001  5.842105e-001  1.250000e-001
    endloop
  endfacet
  facet normal  4.186597e-001  9.081432e-001  0.000000e+000
    outer loop
      vertex  2.131579e-001  5.842105e-001 -1.250000e-001
      vertex  2.131579e-001  5.842105e-001  1.250000e-001
      vertex  3.136041e-001  5.379042e-001 -1.250000e-001
    endloop
  endfacet
  facet normal  4.186597e-001  9.081432e-001  -0.000000e+000
    outer loop
      vertex  3.136041e-001  5.379042e-001 -1.250000e-001
      vertex  2.131579e-001  5.842105e-001  1.250000e-001
      vertex  3.136041e-001  5.379042e-001  1.250000e-001
    endloop
  endfacet
  facet normal  5.717880e-001  8.204015e-001  0.000000e+000
    outer loop
      vertex  3.136041e-001  5.379042e-001 -1.250000e-001
      vertex  3.136041e-001  5.379042e-001  1.250000e-001
      vertex  4.043454e-001  4.746610e-001 -1.250000e-001
    endloop
  endfacet
  facet normal  5.717880e-001  8.204015e-001  -0.000000e+000
    outer loop
      vertex  4.043454e-001  4.746610e-001 -1.250000e-001
      vertex  3.136041e-001  5.379042e-001  1.250000e-001
      vertex  4.043454e-001  4.746610e-001  1.250000e-001
    endloop
  endfacet
  facet normal  7.071066e-001  7.071069e-001  0.000000e+000
    outer loop
      vertex  4.043454e-001  4.746610e-001 -1.250000e-001
      vertex  4.043454e-001  4.746610e-001  1.250000e-001
      vertex  4.825557e-001  3.964507e-001 -1.250000e-001
    endloop
  endfacet
  facet normal  7.071066e-001  7.071069e-001  -0.000000e+000
    outer loop
      vertex  4.825557e-001  3.964507e-001 -1.250000e-001
      vertex  4.043454e-001  4.746610e-001  1.250000e-001
      vertex  4.825557e-001  3.964507e-001  1.250000e-001
    endloop
  endfacet
  facet normal  8.204015e-001  5.717878e-001  0.000000e+000
    outer loop
      vertex  4.825557e-001  3.964507e-001 -1.250000e-001
      vertex  4.825557e-001  3.964507e-001  1.250000e-001
      vertex  5.457990e-001  3.057093e-001 -1.250000e-001
    endloop
  endfacet
  facet normal  8.204015e-001  5.717878e-001  -0.000000e+000
    outer loop
      vertex  5.457990e-001  3.057093e-001 -1.250000e-001
      vertex  4.825557e-001  3.964507e-001  1.250000e-001
      vertex  5.457990e-001  3.057093e-001  1.250000e-001
    endloop
  endfacet
  facet normal  9.081432e-001  4.186597e-001  0.000000e+000
    outer loop
      vertex  5.457990e-001  3.057093e-001 -1.250000e-001
      vertex  5.457990e-001  3.057093e-001  1.250000e-001
      vertex  5.921053e-001  2.052632e-001 -1.250000e-001
    endloop
  endfacet
  facet normal  9.081432e-001  4.186597e-001  -0.000000e+000
    outer loop
      vertex  5.921053e-001  2.052632e-001 -1.250000e-001
      vertex  5.457990e-001  3.057093e-001  1.250000e-001
      vertex  5.921053e-001  2.052632e-001  1.250000e-001
    endloop
  endfacet
  facet normal -9.801742e-002 -9.951847e-001  -0.000000e+000
    outer loop
      vertex  1.815789e-001  1.263158e-001 -1.250000e-001
      vertex  1.815789e-001  1.263158e-001  1.250000e-001
      vertex  1.692574e-001  1.275294e-001 -1.250000e-001
    endloop
  endfacet
  facet normal -9.801742e-002 -9.951847e-001  0.000000e+000
    outer loop
      vertex  1.692574e-001  1.275294e-001 -1.250000e-001
      vertex  1.815789e-001  1.263158e-001  1.250000e-001
      vertex  1.692574e-001  1.275294e-001  1.250000e-001
    endloop
  endfacet
  facet normal -2.902845e-001 -9.569404e-001  -0.000000e+000
    outer loop
      vertex  1.692574e-001  1.275294e-001 -1.250000e-001
      vertex  1.692574e-001  1.275294e-001  1.250000e-001
      vertex  1.574095e-001  1.311234e-001 -1.250000e-001
    endloop
  endfacet
  facet normal -2.902845e-001 -9.569404e-001  0.000000e+000
    outer loop
      vertex  1.574095e-001  1.311234e-001 -1.250000e-001
      vertex  1.692574e-001  1.275294e-001  1.250000e-001
      vertex  1.574095e-001  1.311234e-001  1.250000e-001
    endloop
  endfacet
  facet normal -4.713974e-001 -8.819210e-001  -0.000000e+000
    outer loop
      vertex  1.574095e-001  1.311234e-001 -1.250000e-001
      vertex  1.574095e-001  1.311234e-001  1.250000e-001
      vertex  1.464903e-001  1.369598e-001 -1.250000e-001
    endloop
  endfacet
  facet normal -4.713974e-001 -8.819210e-001  0.000000e+000
    outer loop
      vertex  1.464903e-001  1.369598e-001 -1.250000e-001
      vertex  1.574095e-001  1.311234e-001  1.250000e-001
      vertex  1.464903e-001  1.369598e-001  1.250000e-001
    endloop
  endfacet
  facet normal -6.343930e-001 -7.730107e-001  -0.000000e+000
    outer loop
      vertex  1.464903e-001  1.369598e-001 -1.250000e-001
      vertex  1.464903e-001  1.369598e-001  1.250000e-001
      vertex  1.369196e-001  1.448143e-001 -1.250000e-001
    endloop
  endfacet
  facet normal -6.343930e-001 -7.730107e-001  0.000000e+000
    outer loop
      vertex  1.369196e-001  1.448143e-001 -1.250000e-001
      vertex  1.464903e-001  1.369598e-001  1.250000e-001
      vertex  1.369196e-001  1.448143e-001  1.250000e-001
    endloop
  endfacet
  facet normal -7.730107e-001 -6.343930e-001  -0.000000e+000
    outer loop
      vertex  1.369196e-001  1.448143e-001 -1.250000e-001
      vertex  1.369196e-001  1.448143e-001  1.250000e-001
      vertex  1.290651e-001  1.543850e-001 -1.250000e-001
    endloop
  endfacet
  facet normal -7.730107e-001 -6.343930e-001  0.000000e+000
    outer loop
      vertex  1.290651e-001  1.543850e-001 -1.250000e-001
      vertex  1.369196e-001  1.448143e-001  1.250000e-001
      vertex  1.290651e-001  1.543850e-001  1.250000e-001
    endloop
  endfacet
  facet normal -8.819209e-001 -4.713974e-001  -0.000000e+000
    outer loop
      vertex  1.290651e-001  1.543850e-001 -1.250000e-001
      vertex  1.290651e-001  1.543850e-001  1.250000e-001
      vertex  1.232287e-001  1.653042e-001 -1.250000e-001
    endloop
  endfacet
  facet normal -8.819209e-001 -4.713974e-001  0.000000e+000
    outer loop
      vertex  1.232287e-001  1.653042e-001 -1.250000e-001
      vertex  1.290651e-001  1.543850e-001  1.250000e-001
      vertex  1.232287e-001  1.653042e-001  1.250000e-001
    endloop
  endfacet
  facet normal -9.569404e-001 -2.902847e-001  -0.000000e+000
    outer loop
      vertex  1.232287e-001  1.653042e-001 -1.250000e-001
      vertex  1.232287e-001  1.653042e-001  1.250000e-001
      vertex  1.196346e-001  1.771522e-001 -1.250000e-001
    endloop
  endfacet
  facet normal -9.569404e-001 -2.902847e-001  0.000000e+000
    outer loop
      vertex  1.196346e-001  1.771522e-001 -1.250000e-001
      vertex  1.232287e-001  1.653042e-001  1.250000e-001
      vertex  1.196346e-001  1.771522e-001  1.250000e-001
    endloop
  endfacet
  facet normal -9.951848e-001 -9.801683e-002  -0.000000e+000
    outer loop
      vertex  1.196346e-001  1.771522e-001 -1.250000e-001
      vertex  1.196346e-001  1.771522e-001  1.250000e-001
      vertex  1.184211e-001  1.894737e-001 -1.250000e-001
    endloop
  endfacet
  facet normal -9.951848e-001 -9.801683e-002  0.000000e+000
    outer loop
      vertex  1.184211e-001  1.894737e-001 -1.250000e-001
      vertex  1.196346e-001  1.771522e-001  1.250000e-001
      vertex  1.184211e-001  1.894737e-001  1.250000e-001
    endloop
  endfacet
endsolid CATIA STL
