solid CATIA STL
  facet normal  0.000000e+000 -1.000000e+000  0.000000e+000
    outer loop
      vertex -6.562500e-001 -2.578125e-001 -2.968750e-001
      vertex -6.627458e-001 -2.578125e-001 -2.934029e-001
      vertex -6.577742e-001 -2.578125e-001 -2.967249e-001
    endloop
  endfacet
  facet normal  0.000000e+000 -1.000000e+000  0.000000e+000
    outer loop
      vertex -6.577742e-001 -2.578125e-001 -2.967249e-001
      vertex -6.627458e-001 -2.578125e-001 -2.934029e-001
      vertex -6.592397e-001 -2.578125e-001 -2.962803e-001
    endloop
  endfacet
  facet normal  0.000000e+000 -1.000000e+000  0.000000e+000
    outer loop
      vertex -6.592397e-001 -2.578125e-001 -2.962803e-001
      vertex -6.627458e-001 -2.578125e-001 -2.934029e-001
      vertex -6.605904e-001 -2.578125e-001 -2.955584e-001
    endloop
  endfacet
  facet normal  0.000000e+000 -9.999999e-001  0.000000e+000
    outer loop
      vertex -6.605904e-001 -2.578125e-001 -2.955584e-001
      vertex -6.627458e-001 -2.578125e-001 -2.934029e-001
      vertex -6.617743e-001 -2.578125e-001 -2.945868e-001
    endloop
  endfacet
  facet normal  -0.000000e+000 -1.000000e+000  -0.000000e+000
    outer loop
      vertex  7.421875e-001 -2.578125e-001 -2.968750e-001
      vertex  7.421875e-001 -2.578125e-001  4.615132e-001
      vertex  4.879295e-001 -2.578125e-001  4.615132e-001
    endloop
  endfacet
  facet normal  0.000000e+000 -1.000000e+000  -0.000000e+000
    outer loop
      vertex  7.421875e-001 -2.578125e-001 -2.968750e-001
      vertex  4.879295e-001 -2.578125e-001  4.615132e-001
      vertex  1.099507e-001 -2.578125e-001 -1.926809e-001
    endloop
  endfacet
  facet normal  -0.000000e+000 -1.000000e+000  -0.000000e+000
    outer loop
      vertex  7.421875e-001 -2.578125e-001 -2.968750e-001
      vertex  1.099507e-001 -2.578125e-001 -1.926809e-001
      vertex -2.401316e-002 -2.578125e-001 -1.926809e-001
    endloop
  endfacet
  facet normal  0.000000e+000 -1.000000e+000  -0.000000e+000
    outer loop
      vertex  7.421875e-001 -2.578125e-001 -2.968750e-001
      vertex -2.401316e-002 -2.578125e-001 -1.926809e-001
      vertex -6.640625e-001 -2.578125e-001 -2.890625e-001
    endloop
  endfacet
  facet normal  0.000000e+000 -1.000000e+000  0.000000e+000
    outer loop
      vertex  7.421875e-001 -2.578125e-001 -2.968750e-001
      vertex -6.640625e-001 -2.578125e-001 -2.890625e-001
      vertex -6.639124e-001 -2.578125e-001 -2.905867e-001
    endloop
  endfacet
  facet normal  0.000000e+000 -1.000000e+000  0.000000e+000
    outer loop
      vertex  7.421875e-001 -2.578125e-001 -2.968750e-001
      vertex -6.639124e-001 -2.578125e-001 -2.905867e-001
      vertex -6.634678e-001 -2.578125e-001 -2.920522e-001
    endloop
  endfacet
  facet normal  0.000000e+000 -1.000000e+000  0.000000e+000
    outer loop
      vertex  7.421875e-001 -2.578125e-001 -2.968750e-001
      vertex -6.634678e-001 -2.578125e-001 -2.920522e-001
      vertex -6.627458e-001 -2.578125e-001 -2.934029e-001
    endloop
  endfacet
  facet normal  0.000000e+000 -1.000000e+000  0.000000e+000
    outer loop
      vertex  7.421875e-001 -2.578125e-001 -2.968750e-001
      vertex -6.627458e-001 -2.578125e-001 -2.934029e-001
      vertex -6.562500e-001 -2.578125e-001 -2.968750e-001
    endloop
  endfacet
  facet normal  -0.000000e+000 -9.999999e-001  0.000000e+000
    outer loop
      vertex -6.640625e-001 -2.578125e-001 -2.890625e-001
      vertex -2.401316e-002 -2.578125e-001 -1.926809e-001
      vertex -6.640625e-001 -2.578125e-001  4.771382e-001
    endloop
  endfacet
  facet normal  0.000000e+000 -1.000000e+000  0.000000e+000
    outer loop
      vertex -6.640625e-001 -2.578125e-001  4.771382e-001
      vertex -2.401316e-002 -2.578125e-001 -1.926809e-001
      vertex -4.110197e-001 -2.578125e-001  4.771382e-001
    endloop
  endfacet
  facet normal -1.110237e-016  1.000000e+000 -5.551412e-017
    outer loop
      vertex  7.454236e-001  1.991967e-016  4.725617e-001
      vertex  7.343750e-001  1.982241e-016  4.771382e-001
      vertex  7.374233e-001  1.985459e-016  4.768379e-001
    endloop
  endfacet
  facet normal -1.110265e-016  9.999999e-001 -5.551937e-017
    outer loop
      vertex  7.454236e-001  1.991967e-016  4.725617e-001
      vertex  7.374233e-001  1.985459e-016  4.768379e-001
      vertex  7.403544e-001  1.988219e-016  4.759488e-001
    endloop
  endfacet
  facet normal -1.110214e-016  9.999999e-001 -5.551175e-017
    outer loop
      vertex  7.454236e-001  1.991967e-016  4.725617e-001
      vertex  7.403544e-001  1.988219e-016  4.759488e-001
      vertex  7.430558e-001  1.990417e-016  4.745049e-001
    endloop
  endfacet
  facet normal -1.110223e-016  1.000000e+000 -5.551072e-017
    outer loop
      vertex  4.969572e-001  1.718654e-016  4.771382e-001
      vertex  7.343750e-001  1.982241e-016  4.771382e-001
      vertex  7.454236e-001  1.991967e-016  4.725617e-001
    endloop
  endfacet
  facet normal -1.110222e-016  1.000000e+000 -5.550830e-017
    outer loop
      vertex  4.969572e-001  1.718654e-016  4.771382e-001
      vertex  7.454236e-001  1.991967e-016  4.725617e-001
      vertex  7.473667e-001  1.992810e-016  4.701940e-001
    endloop
  endfacet
  facet normal -1.110222e-016  1.000000e+000 -5.550929e-017
    outer loop
      vertex  4.969572e-001  1.718654e-016  4.771382e-001
      vertex  7.473667e-001  1.992810e-016  4.701940e-001
      vertex  7.488106e-001  1.992914e-016  4.674926e-001
    endloop
  endfacet
  facet normal -1.110225e-016  1.000000e+000 -5.551515e-017
    outer loop
      vertex  4.969572e-001  1.718654e-016  4.771382e-001
      vertex  7.488106e-001  1.992914e-016  4.674926e-001
      vertex  7.496998e-001  1.992274e-016  4.645614e-001
    endloop
  endfacet
  facet normal -1.110223e-016  1.000000e+000 -5.551169e-017
    outer loop
      vertex  4.969572e-001  1.718654e-016  4.771382e-001
      vertex  7.496998e-001  1.992274e-016  4.645614e-001
      vertex  7.500000e-001  1.990915e-016  4.615132e-001
    endloop
  endfacet
  facet normal -1.110223e-016  1.000000e+000 -5.551116e-017
    outer loop
      vertex  4.969572e-001  1.718654e-016  4.771382e-001
      vertex  7.500000e-001  1.990915e-016  4.615132e-001
      vertex  1.099507e-001  9.171665e-017 -1.926809e-001
    endloop
  endfacet
  facet normal -1.110223e-016  9.999999e-001 -5.551115e-017
    outer loop
      vertex -6.640625e-001  4.336809e-019 -2.890625e-001
      vertex -6.640625e-001  4.296636e-017  4.771382e-001
      vertex -4.110197e-001  7.105975e-017  4.771382e-001
    endloop
  endfacet
  facet normal -1.110223e-016  1.000000e+000 -5.551115e-017
    outer loop
      vertex -6.640625e-001  4.336809e-019 -2.890625e-001
      vertex -4.110197e-001  7.105975e-017  4.771382e-001
      vertex -2.401316e-002  7.684368e-017 -1.926809e-001
    endloop
  endfacet
  facet normal -1.110223e-016  1.000000e+000 -5.551105e-017
    outer loop
      vertex -6.640625e-001  4.336809e-019 -2.890625e-001
      vertex -2.401316e-002  7.684368e-017 -1.926809e-001
      vertex  1.099507e-001  9.171665e-017 -1.926809e-001
    endloop
  endfacet
  facet normal -1.110220e-016  1.000000e+000 -5.551330e-017
    outer loop
      vertex -6.640625e-001  4.336809e-019 -2.890625e-001
      vertex  1.099507e-001  9.171665e-017 -1.926809e-001
      vertex -6.639124e-001  3.657401e-019 -2.905867e-001
    endloop
  endfacet
  facet normal -1.110223e-016  1.000000e+000 -5.551114e-017
    outer loop
      vertex  1.099507e-001  9.171665e-017 -1.926809e-001
      vertex  7.500000e-001  1.990915e-016  4.615132e-001
      vertex  7.500000e-001  1.569925e-016 -2.968750e-001
    endloop
  endfacet
  facet normal -1.110223e-016  1.000000e+000 -5.551113e-017
    outer loop
      vertex  1.099507e-001  9.171665e-017 -1.926809e-001
      vertex  7.500000e-001  1.569925e-016 -2.968750e-001
      vertex -6.562500e-001  8.673617e-019 -2.968750e-001
    endloop
  endfacet
  facet normal -1.110220e-016  1.000000e+000 -5.551346e-017
    outer loop
      vertex  1.099507e-001  9.171665e-017 -1.926809e-001
      vertex -6.562500e-001  8.673617e-019 -2.968750e-001
      vertex -6.577742e-001  7.064809e-019 -2.967249e-001
    endloop
  endfacet
  facet normal -1.110228e-016  1.000000e+000 -5.550778e-017
    outer loop
      vertex  1.099507e-001  9.171665e-017 -1.926809e-001
      vertex -6.577742e-001  7.064809e-019 -2.967249e-001
      vertex -6.592397e-001  5.684488e-019 -2.962803e-001
    endloop
  endfacet
  facet normal -1.110217e-016  9.999999e-001 -5.551526e-017
    outer loop
      vertex  1.099507e-001  9.171665e-017 -1.926809e-001
      vertex -6.592397e-001  5.684488e-019 -2.962803e-001
      vertex -6.605904e-001  4.585698e-019 -2.955584e-001
    endloop
  endfacet
  facet normal -1.110225e-016  9.999999e-001 -5.550991e-017
    outer loop
      vertex  1.099507e-001  9.171665e-017 -1.926809e-001
      vertex -6.605904e-001  4.585698e-019 -2.955584e-001
      vertex -6.617743e-001  3.810665e-019 -2.945868e-001
    endloop
  endfacet
  facet normal -1.110227e-016  1.000000e+000 -5.550796e-017
    outer loop
      vertex  1.099507e-001  9.171665e-017 -1.926809e-001
      vertex -6.617743e-001  3.810665e-019 -2.945868e-001
      vertex -6.627458e-001  3.389175e-019 -2.934029e-001
    endloop
  endfacet
  facet normal -1.110219e-016  1.000000e+000 -5.551437e-017
    outer loop
      vertex  1.099507e-001  9.171665e-017 -1.926809e-001
      vertex -6.627458e-001  3.389175e-019 -2.934029e-001
      vertex -6.634678e-001  3.337424e-019 -2.920522e-001
    endloop
  endfacet
  facet normal -1.110227e-016  1.000000e+000 -5.550835e-017
    outer loop
      vertex  1.099507e-001  9.171665e-017 -1.926809e-001
      vertex -6.634678e-001  3.337424e-019 -2.920522e-001
      vertex -6.639124e-001  3.657401e-019 -2.905867e-001
    endloop
  endfacet
  facet normal  0.000000e+000  0.000000e+000 -9.999999e-001
    outer loop
      vertex  7.465279e-001 -2.564959e-001 -2.968750e-001
      vertex  7.486833e-001 -2.543404e-001 -2.968750e-001
      vertex  7.477118e-001 -2.555243e-001 -2.968750e-001
    endloop
  endfacet
  facet normal  0.000000e+000  0.000000e+000 -9.999999e-001
    outer loop
      vertex -6.562500e-001  8.673617e-019 -2.968750e-001
      vertex  7.421875e-001 -2.578125e-001 -2.968750e-001
      vertex -6.562500e-001 -2.578125e-001 -2.968750e-001
    endloop
  endfacet
  facet normal  -0.000000e+000  0.000000e+000 -1.000000e+000
    outer loop
      vertex  7.500000e-001  1.569925e-016 -2.968750e-001
      vertex  7.486833e-001 -2.543404e-001 -2.968750e-001
      vertex  7.465279e-001 -2.564959e-001 -2.968750e-001
    endloop
  endfacet
  facet normal  -0.000000e+000  0.000000e+000 -1.000000e+000
    outer loop
      vertex  7.500000e-001  1.569925e-016 -2.968750e-001
      vertex  7.465279e-001 -2.564959e-001 -2.968750e-001
      vertex  7.451772e-001 -2.572178e-001 -2.968750e-001
    endloop
  endfacet
  facet normal  -0.000000e+000  0.000000e+000 -9.999999e-001
    outer loop
      vertex  7.500000e-001  1.569925e-016 -2.968750e-001
      vertex  7.451772e-001 -2.572178e-001 -2.968750e-001
      vertex  7.437117e-001 -2.576624e-001 -2.968750e-001
    endloop
  endfacet
  facet normal  -0.000000e+000  0.000000e+000 -1.000000e+000
    outer loop
      vertex  7.500000e-001  1.569925e-016 -2.968750e-001
      vertex  7.437117e-001 -2.576624e-001 -2.968750e-001
      vertex  7.421875e-001 -2.578125e-001 -2.968750e-001
    endloop
  endfacet
  facet normal  0.000000e+000  0.000000e+000 -9.999999e-001
    outer loop
      vertex  7.500000e-001  1.569925e-016 -2.968750e-001
      vertex  7.421875e-001 -2.578125e-001 -2.968750e-001
      vertex -6.562500e-001  8.673617e-019 -2.968750e-001
    endloop
  endfacet
  facet normal  0.000000e+000  -0.000000e+000 -1.000000e+000
    outer loop
      vertex  7.486833e-001 -2.543404e-001 -2.968750e-001
      vertex  7.500000e-001  1.569925e-016 -2.968750e-001
      vertex  7.500000e-001 -2.500000e-001 -2.968750e-001
    endloop
  endfacet
  facet normal  0.000000e+000  0.000000e+000 -1.000000e+000
    outer loop
      vertex  7.486833e-001 -2.543404e-001 -2.968750e-001
      vertex  7.500000e-001 -2.500000e-001 -2.968750e-001
      vertex  7.498499e-001 -2.515242e-001 -2.968750e-001
    endloop
  endfacet
  facet normal  0.000000e+000  0.000000e+000 -9.999999e-001
    outer loop
      vertex  7.486833e-001 -2.543404e-001 -2.968750e-001
      vertex  7.498499e-001 -2.515242e-001 -2.968750e-001
      vertex  7.494053e-001 -2.529897e-001 -2.968750e-001
    endloop
  endfacet
  facet normal -1.000000e+000  -0.000000e+000  0.000000e+000
    outer loop
      vertex -6.640625e-001 -2.578125e-001  4.771382e-001
      vertex -6.640625e-001  4.296636e-017  4.771382e-001
      vertex -6.640625e-001 -2.578125e-001 -2.890625e-001
    endloop
  endfacet
  facet normal -1.000000e+000  0.000000e+000  0.000000e+000
    outer loop
      vertex -6.640625e-001 -2.578125e-001 -2.890625e-001
      vertex -6.640625e-001  4.296636e-017  4.771382e-001
      vertex -6.640625e-001  4.336809e-019 -2.890625e-001
    endloop
  endfacet
  facet normal -9.801622e-002  0.000000e+000 -9.951848e-001
    outer loop
      vertex -6.562500e-001  8.673617e-019 -2.968750e-001
      vertex -6.562500e-001 -2.578125e-001 -2.968750e-001
      vertex -6.577742e-001  7.064809e-019 -2.967249e-001
    endloop
  endfacet
  facet normal -9.801622e-002  -0.000000e+000 -9.951848e-001
    outer loop
      vertex -6.577742e-001  7.064809e-019 -2.967249e-001
      vertex -6.562500e-001 -2.578125e-001 -2.968750e-001
      vertex -6.577742e-001 -2.578125e-001 -2.967249e-001
    endloop
  endfacet
  facet normal -2.902958e-001  0.000000e+000 -9.569370e-001
    outer loop
      vertex -6.577742e-001  7.064809e-019 -2.967249e-001
      vertex -6.577742e-001 -2.578125e-001 -2.967249e-001
      vertex -6.592397e-001  5.684488e-019 -2.962803e-001
    endloop
  endfacet
  facet normal -2.902958e-001  -0.000000e+000 -9.569370e-001
    outer loop
      vertex -6.592397e-001  5.684488e-019 -2.962803e-001
      vertex -6.577742e-001 -2.578125e-001 -2.967249e-001
      vertex -6.592397e-001 -2.578125e-001 -2.962803e-001
    endloop
  endfacet
  facet normal -4.713799e-001  0.000000e+000 -8.819302e-001
    outer loop
      vertex -6.592397e-001  5.684488e-019 -2.962803e-001
      vertex -6.592397e-001 -2.578125e-001 -2.962803e-001
      vertex -6.605904e-001  4.585698e-019 -2.955584e-001
    endloop
  endfacet
  facet normal -4.713799e-001  -0.000000e+000 -8.819302e-001
    outer loop
      vertex -6.605904e-001  4.585698e-019 -2.955584e-001
      vertex -6.592397e-001 -2.578125e-001 -2.962803e-001
      vertex -6.605904e-001 -2.578125e-001 -2.955584e-001
    endloop
  endfacet
  facet normal -6.343974e-001  0.000000e+000 -7.730071e-001
    outer loop
      vertex -6.605904e-001  4.585698e-019 -2.955584e-001
      vertex -6.605904e-001 -2.578125e-001 -2.955584e-001
      vertex -6.617743e-001  3.810665e-019 -2.945868e-001
    endloop
  endfacet
  facet normal -6.343974e-001  -0.000000e+000 -7.730071e-001
    outer loop
      vertex -6.617743e-001  3.810665e-019 -2.945868e-001
      vertex -6.605904e-001 -2.578125e-001 -2.955584e-001
      vertex -6.617743e-001 -2.578125e-001 -2.945868e-001
    endloop
  endfacet
  facet normal -7.730244e-001  0.000000e+000 -6.343763e-001
    outer loop
      vertex -6.617743e-001  3.810665e-019 -2.945868e-001
      vertex -6.617743e-001 -2.578125e-001 -2.945868e-001
      vertex -6.627458e-001  3.389175e-019 -2.934029e-001
    endloop
  endfacet
  facet normal -7.730244e-001  -0.000000e+000 -6.343763e-001
    outer loop
      vertex -6.627458e-001  3.389175e-019 -2.934029e-001
      vertex -6.617743e-001 -2.578125e-001 -2.945868e-001
      vertex -6.627458e-001 -2.578125e-001 -2.934029e-001
    endloop
  endfacet
  facet normal -8.819098e-001  0.000000e+000 -4.714182e-001
    outer loop
      vertex -6.627458e-001  3.389175e-019 -2.934029e-001
      vertex -6.627458e-001 -2.578125e-001 -2.934029e-001
      vertex -6.634678e-001  3.337424e-019 -2.920522e-001
    endloop
  endfacet
  facet normal -8.819098e-001  -0.000000e+000 -4.714182e-001
    outer loop
      vertex -6.634678e-001  3.337424e-019 -2.920522e-001
      vertex -6.627458e-001 -2.578125e-001 -2.934029e-001
      vertex -6.634678e-001 -2.578125e-001 -2.920522e-001
    endloop
  endfacet
  facet normal -9.569478e-001  0.000000e+000 -2.902602e-001
    outer loop
      vertex -6.634678e-001  3.337424e-019 -2.920522e-001
      vertex -6.634678e-001 -2.578125e-001 -2.920522e-001
      vertex -6.639124e-001  3.657401e-019 -2.905867e-001
    endloop
  endfacet
  facet normal -9.569478e-001  -0.000000e+000 -2.902602e-001
    outer loop
      vertex -6.639124e-001  3.657401e-019 -2.905867e-001
      vertex -6.634678e-001 -2.578125e-001 -2.920522e-001
      vertex -6.639124e-001 -2.578125e-001 -2.905867e-001
    endloop
  endfacet
  facet normal -9.951829e-001  0.000000e+000 -9.803549e-002
    outer loop
      vertex -6.639124e-001  3.657401e-019 -2.905867e-001
      vertex -6.639124e-001 -2.578125e-001 -2.905867e-001
      vertex -6.640625e-001  4.336809e-019 -2.890625e-001
    endloop
  endfacet
  facet normal -9.951829e-001  -0.000000e+000 -9.803549e-002
    outer loop
      vertex -6.640625e-001  4.336809e-019 -2.890625e-001
      vertex -6.639124e-001 -2.578125e-001 -2.905867e-001
      vertex -6.640625e-001 -2.578125e-001 -2.890625e-001
    endloop
  endfacet
  facet normal  9.951829e-001 -9.803550e-002  0.000000e+000
    outer loop
      vertex  7.500000e-001 -2.500000e-001 -2.968750e-001
      vertex  7.500000e-001 -2.500000e-001  4.615132e-001
      vertex  7.498499e-001 -2.515242e-001 -2.968750e-001
    endloop
  endfacet
  facet normal  9.951829e-001 -9.803550e-002  0.000000e+000
    outer loop
      vertex  7.498499e-001 -2.515242e-001 -2.968750e-001
      vertex  7.500000e-001 -2.500000e-001  4.615132e-001
      vertex  7.498499e-001 -2.515242e-001  4.615132e-001
    endloop
  endfacet
  facet normal  9.569477e-001 -2.902601e-001  0.000000e+000
    outer loop
      vertex  7.498499e-001 -2.515242e-001 -2.968750e-001
      vertex  7.498499e-001 -2.515242e-001  4.615132e-001
      vertex  7.494053e-001 -2.529897e-001 -2.968750e-001
    endloop
  endfacet
  facet normal  9.569477e-001 -2.902601e-001  0.000000e+000
    outer loop
      vertex  7.494053e-001 -2.529897e-001 -2.968750e-001
      vertex  7.498499e-001 -2.515242e-001  4.615132e-001
      vertex  7.494053e-001 -2.529897e-001  4.615132e-001
    endloop
  endfacet
  facet normal  8.819098e-001 -4.714182e-001  0.000000e+000
    outer loop
      vertex  7.494053e-001 -2.529897e-001 -2.968750e-001
      vertex  7.494053e-001 -2.529897e-001  4.615132e-001
      vertex  7.486833e-001 -2.543404e-001 -2.968750e-001
    endloop
  endfacet
  facet normal  8.819098e-001 -4.714182e-001  0.000000e+000
    outer loop
      vertex  7.486833e-001 -2.543404e-001 -2.968750e-001
      vertex  7.494053e-001 -2.529897e-001  4.615132e-001
      vertex  7.486833e-001 -2.543404e-001  4.615132e-001
    endloop
  endfacet
  facet normal  7.730244e-001 -6.343762e-001  0.000000e+000
    outer loop
      vertex  7.486833e-001 -2.543404e-001 -2.968750e-001
      vertex  7.486833e-001 -2.543404e-001  4.615132e-001
      vertex  7.477118e-001 -2.555243e-001 -2.968750e-001
    endloop
  endfacet
  facet normal  7.730244e-001 -6.343762e-001  0.000000e+000
    outer loop
      vertex  7.477118e-001 -2.555243e-001 -2.968750e-001
      vertex  7.486833e-001 -2.543404e-001  4.615132e-001
      vertex  7.477118e-001 -2.555243e-001  4.615132e-001
    endloop
  endfacet
  facet normal  6.343974e-001 -7.730070e-001  0.000000e+000
    outer loop
      vertex  7.477118e-001 -2.555243e-001 -2.968750e-001
      vertex  7.477118e-001 -2.555243e-001  4.615132e-001
      vertex  7.465279e-001 -2.564959e-001 -2.968750e-001
    endloop
  endfacet
  facet normal  6.343974e-001 -7.730070e-001  0.000000e+000
    outer loop
      vertex  7.465279e-001 -2.564959e-001 -2.968750e-001
      vertex  7.477118e-001 -2.555243e-001  4.615132e-001
      vertex  7.465279e-001 -2.564959e-001  4.615132e-001
    endloop
  endfacet
  facet normal  4.713799e-001 -8.819303e-001  0.000000e+000
    outer loop
      vertex  7.465279e-001 -2.564959e-001 -2.968750e-001
      vertex  7.465279e-001 -2.564959e-001  4.615132e-001
      vertex  7.451772e-001 -2.572178e-001 -2.968750e-001
    endloop
  endfacet
  facet normal  4.713799e-001 -8.819303e-001  0.000000e+000
    outer loop
      vertex  7.451772e-001 -2.572178e-001 -2.968750e-001
      vertex  7.465279e-001 -2.564959e-001  4.615132e-001
      vertex  7.451772e-001 -2.572178e-001  4.615132e-001
    endloop
  endfacet
  facet normal  2.902958e-001 -9.569370e-001  0.000000e+000
    outer loop
      vertex  7.451772e-001 -2.572178e-001 -2.968750e-001
      vertex  7.451772e-001 -2.572178e-001  4.615132e-001
      vertex  7.437117e-001 -2.576624e-001 -2.968750e-001
    endloop
  endfacet
  facet normal  2.902958e-001 -9.569370e-001  0.000000e+000
    outer loop
      vertex  7.437117e-001 -2.576624e-001 -2.968750e-001
      vertex  7.451772e-001 -2.572178e-001  4.615132e-001
      vertex  7.437117e-001 -2.576624e-001  4.615132e-001
    endloop
  endfacet
  facet normal  9.801622e-002 -9.951848e-001  0.000000e+000
    outer loop
      vertex  7.437117e-001 -2.576624e-001 -2.968750e-001
      vertex  7.437117e-001 -2.576624e-001  4.615132e-001
      vertex  7.421875e-001 -2.578125e-001 -2.968750e-001
    endloop
  endfacet
  facet normal  9.801622e-002 -9.951848e-001  0.000000e+000
    outer loop
      vertex  7.421875e-001 -2.578125e-001 -2.968750e-001
      vertex  7.437117e-001 -2.576624e-001  4.615132e-001
      vertex  7.421875e-001 -2.578125e-001  4.615132e-001
    endloop
  endfacet
  facet normal  0.000000e+000  0.000000e+000  9.999999e-001
    outer loop
      vertex  7.343750e-001 -2.421875e-001  4.771382e-001
      vertex  7.343750e-001  1.982241e-016  4.771382e-001
      vertex  4.969572e-001 -2.421875e-001  4.771382e-001
    endloop
  endfacet
  facet normal  0.000000e+000  0.000000e+000  9.999999e-001
    outer loop
      vertex  4.969572e-001 -2.421875e-001  4.771382e-001
      vertex  7.343750e-001  1.982241e-016  4.771382e-001
      vertex  4.969572e-001  1.718654e-016  4.771382e-001
    endloop
  endfacet
  facet normal  1.000000e+000  0.000000e+000  0.000000e+000
    outer loop
      vertex  7.500000e-001 -2.500000e-001 -2.968750e-001
      vertex  7.500000e-001  1.569925e-016 -2.968750e-001
      vertex  7.500000e-001 -2.500000e-001  4.615132e-001
    endloop
  endfacet
  facet normal  1.000000e+000  -0.000000e+000  0.000000e+000
    outer loop
      vertex  7.500000e-001 -2.500000e-001  4.615132e-001
      vertex  7.500000e-001  1.569925e-016 -2.968750e-001
      vertex  7.500000e-001  1.990915e-016  4.615132e-001
    endloop
  endfacet
  facet normal -8.658651e-001 -4.628656e-007  5.002774e-001
    outer loop
      vertex  1.099507e-001  9.171665e-017 -1.926809e-001
      vertex  4.879295e-001 -2.578125e-001  4.615132e-001
      vertex  4.920442e-001 -2.560951e-001  4.686348e-001
    endloop
  endfacet
  facet normal -8.658650e-001  0.000000e+000  5.002776e-001
    outer loop
      vertex  1.099507e-001  9.171665e-017 -1.926809e-001
      vertex  1.099507e-001 -2.578125e-001 -1.926809e-001
      vertex  4.879295e-001 -2.578125e-001  4.615132e-001
    endloop
  endfacet
  facet normal -8.658648e-001 -4.863383e-006  5.002783e-001
    outer loop
      vertex  4.879295e-001 -2.578125e-001  4.615132e-001
      vertex  4.893652e-001 -2.576137e-001  4.639980e-001
      vertex  4.920442e-001 -2.560951e-001  4.686348e-001
    endloop
  endfacet
  facet normal -8.658726e-001  5.096204e-005  5.002645e-001
    outer loop
      vertex  4.920442e-001 -2.560951e-001  4.686348e-001
      vertex  4.893652e-001 -2.576137e-001  4.639980e-001
      vertex  4.907406e-001 -2.570356e-001  4.663787e-001
    endloop
  endfacet
  facet normal -8.658642e-001 -1.789596e-006  5.002791e-001
    outer loop
      vertex  4.968456e-001 -2.446368e-001  4.769450e-001
      vertex  4.969572e-001 -2.421875e-001  4.771382e-001
      vertex  4.932454e-001 -2.548164e-001  4.707137e-001
    endloop
  endfacet
  facet normal -8.658680e-001  3.471244e-006  5.002726e-001
    outer loop
      vertex  4.968456e-001 -2.446368e-001  4.769450e-001
      vertex  4.932454e-001 -2.548164e-001  4.707137e-001
      vertex  4.943162e-001 -2.532307e-001  4.725671e-001
    endloop
  endfacet
  facet normal -8.658729e-001  9.305318e-006  5.002640e-001
    outer loop
      vertex  4.968456e-001 -2.446368e-001  4.769450e-001
      vertex  4.943162e-001 -2.532307e-001  4.725671e-001
      vertex  4.952317e-001 -2.513750e-001  4.741516e-001
    endloop
  endfacet
  facet normal -8.658575e-001 -5.386659e-006  5.002905e-001
    outer loop
      vertex  4.968456e-001 -2.446368e-001  4.769450e-001
      vertex  4.952317e-001 -2.513750e-001  4.741516e-001
      vertex  4.959702e-001 -2.492917e-001  4.754297e-001
    endloop
  endfacet
  facet normal -8.659164e-001  3.886691e-005  5.001886e-001
    outer loop
      vertex  4.968456e-001 -2.446368e-001  4.769450e-001
      vertex  4.959702e-001 -2.492917e-001  4.754297e-001
      vertex  4.965131e-001 -2.470281e-001  4.763694e-001
    endloop
  endfacet
  facet normal -8.658651e-001  0.000000e+000  5.002776e-001
    outer loop
      vertex  4.969572e-001  1.718654e-016  4.771382e-001
      vertex  1.099507e-001  9.171665e-017 -1.926809e-001
      vertex  4.969572e-001 -2.421875e-001  4.771382e-001
    endloop
  endfacet
  facet normal -8.658651e-001  2.154632e-007  5.002776e-001
    outer loop
      vertex  4.969572e-001 -2.421875e-001  4.771382e-001
      vertex  1.099507e-001  9.171665e-017 -1.926809e-001
      vertex  4.920442e-001 -2.560951e-001  4.686348e-001
    endloop
  endfacet
  facet normal -8.658606e-001 -6.090757e-006  5.002854e-001
    outer loop
      vertex  4.969572e-001 -2.421875e-001  4.771382e-001
      vertex  4.920442e-001 -2.560951e-001  4.686348e-001
      vertex  4.932454e-001 -2.548164e-001  4.707137e-001
    endloop
  endfacet
  facet normal  1.891696e-004 -9.684487e-002  9.952995e-001
    outer loop
      vertex  7.343750e-001 -2.421875e-001  4.771382e-001
      vertex  4.968456e-001 -2.446368e-001  4.769450e-001
      vertex  7.358825e-001 -2.452024e-001  4.768445e-001
    endloop
  endfacet
  facet normal  0.000000e+000 -7.862619e-002  9.969042e-001
    outer loop
      vertex  7.343750e-001 -2.421875e-001  4.771382e-001
      vertex  4.969572e-001 -2.421875e-001  4.771382e-001
      vertex  4.968456e-001 -2.446368e-001  4.769450e-001
    endloop
  endfacet
  facet normal -1.683112e-004 -9.968058e-001  7.986275e-002
    outer loop
      vertex  4.879295e-001 -2.578125e-001  4.615132e-001
      vertex  7.421402e-001 -2.577178e-001  4.632303e-001
      vertex  4.893652e-001 -2.576137e-001  4.639980e-001
    endloop
  endfacet
  facet normal  0.000000e+000 -9.984843e-001  5.503811e-002
    outer loop
      vertex  4.879295e-001 -2.578125e-001  4.615132e-001
      vertex  7.421875e-001 -2.578125e-001  4.615132e-001
      vertex  7.421402e-001 -2.577178e-001  4.632303e-001
    endloop
  endfacet
  facet normal -1.449865e-004 -2.339785e-001  9.722418e-001
    outer loop
      vertex  7.358825e-001 -2.452024e-001  4.768445e-001
      vertex  4.968456e-001 -2.446368e-001  4.769450e-001
      vertex  4.965131e-001 -2.470281e-001  4.763694e-001
    endloop
  endfacet
  facet normal  2.077430e-004 -2.772464e-001  9.607989e-001
    outer loop
      vertex  7.358825e-001 -2.452024e-001  4.768445e-001
      vertex  4.965131e-001 -2.470281e-001  4.763694e-001
      vertex  7.371848e-001 -2.478071e-001  4.760926e-001
    endloop
  endfacet
  facet normal -1.909274e-004 -6.493095e-001  7.605242e-001
    outer loop
      vertex  4.952317e-001 -2.513750e-001  4.741516e-001
      vertex  4.943162e-001 -2.532307e-001  4.725671e-001
      vertex  7.393800e-001 -2.521976e-001  4.735106e-001
    endloop
  endfacet
  facet normal  5.319624e-005 -6.812294e-001  7.320700e-001
    outer loop
      vertex  7.393800e-001 -2.521976e-001  4.735106e-001
      vertex  4.943162e-001 -2.532307e-001  4.725671e-001
      vertex  7.399989e-001 -2.534354e-001  4.723587e-001
    endloop
  endfacet
  facet normal -8.173952e-005 -7.598013e-001  6.501552e-001
    outer loop
      vertex  7.399989e-001 -2.534354e-001  4.723587e-001
      vertex  4.943162e-001 -2.532307e-001  4.725671e-001
      vertex  4.932454e-001 -2.548164e-001  4.707137e-001
    endloop
  endfacet
  facet normal -1.213477e-004 -7.568348e-001  6.536061e-001
    outer loop
      vertex  7.399989e-001 -2.534354e-001  4.723587e-001
      vertex  4.932454e-001 -2.548164e-001  4.707137e-001
      vertex  7.405583e-001 -2.545541e-001  4.710634e-001
    endloop
  endfacet
  facet normal  7.122885e-005 -8.234500e-001  5.673889e-001
    outer loop
      vertex  7.410393e-001 -2.555161e-001  4.696673e-001
      vertex  7.405583e-001 -2.545541e-001  4.710634e-001
      vertex  4.932454e-001 -2.548164e-001  4.707137e-001
    endloop
  endfacet
  facet normal -1.919056e-004 -8.517275e-001  5.239850e-001
    outer loop
      vertex  4.932454e-001 -2.548164e-001  4.707137e-001
      vertex  4.920442e-001 -2.560951e-001  4.686348e-001
      vertex  7.410393e-001 -2.555161e-001  4.696673e-001
    endloop
  endfacet
  facet normal  8.069353e-005 -8.803621e-001  4.743022e-001
    outer loop
      vertex  7.410393e-001 -2.555161e-001  4.696673e-001
      vertex  4.920442e-001 -2.560951e-001  4.686348e-001
      vertex  7.414459e-001 -2.563293e-001  4.681577e-001
    endloop
  endfacet
  facet normal -1.304996e-004 -9.229841e-001  3.848380e-001
    outer loop
      vertex  7.414459e-001 -2.563293e-001  4.681577e-001
      vertex  4.920442e-001 -2.560951e-001  4.686348e-001
      vertex  4.907406e-001 -2.570356e-001  4.663787e-001
    endloop
  endfacet
  facet normal -5.098967e-005 -9.269420e-001  3.752046e-001
    outer loop
      vertex  7.414459e-001 -2.563293e-001  4.681577e-001
      vertex  4.907406e-001 -2.570356e-001  4.663787e-001
      vertex  7.417659e-001 -2.569693e-001  4.665767e-001
    endloop
  endfacet
  facet normal  7.073722e-005 -9.717761e-001  2.359051e-001
    outer loop
      vertex  7.417659e-001 -2.569693e-001  4.665767e-001
      vertex  4.907406e-001 -2.570356e-001  4.663787e-001
      vertex  4.893652e-001 -2.576137e-001  4.639980e-001
    endloop
  endfacet
  facet normal -3.164172e-004 -9.624472e-001  2.714690e-001
    outer loop
      vertex  7.417659e-001 -2.569693e-001  4.665767e-001
      vertex  4.893652e-001 -2.576137e-001  4.639980e-001
      vertex  7.419993e-001 -2.574362e-001  4.649217e-001
    endloop
  endfacet
  facet normal  9.233882e-005 -9.864148e-001  1.642740e-001
    outer loop
      vertex  4.893652e-001 -2.576137e-001  4.639980e-001
      vertex  7.421402e-001 -2.577178e-001  4.632303e-001
      vertex  7.419993e-001 -2.574362e-001  4.649217e-001
    endloop
  endfacet
  facet normal -2.791430e-004 -4.103210e-001  9.119411e-001
    outer loop
      vertex  7.371848e-001 -2.478071e-001  4.760926e-001
      vertex  4.965131e-001 -2.470281e-001  4.763694e-001
      vertex  7.379651e-001 -2.493677e-001  4.753907e-001
    endloop
  endfacet
  facet normal  2.858867e-005 -3.834268e-001  9.235712e-001
    outer loop
      vertex  7.379651e-001 -2.493677e-001  4.753907e-001
      vertex  4.965131e-001 -2.470281e-001  4.763694e-001
      vertex  4.959702e-001 -2.492917e-001  4.754297e-001
    endloop
  endfacet
  facet normal -2.014156e-005 -5.069545e-001  8.619729e-001
    outer loop
      vertex  7.379651e-001 -2.493677e-001  4.753907e-001
      vertex  4.959702e-001 -2.492917e-001  4.754297e-001
      vertex  7.386944e-001 -2.508263e-001  4.745328e-001
    endloop
  endfacet
  facet normal -1.562725e-004 -5.228906e-001  8.523998e-001
    outer loop
      vertex  7.386944e-001 -2.508263e-001  4.745328e-001
      vertex  4.959702e-001 -2.492917e-001  4.754297e-001
      vertex  4.952317e-001 -2.513750e-001  4.741516e-001
    endloop
  endfacet
  facet normal  9.145357e-005 -5.976374e-001  8.017665e-001
    outer loop
      vertex  7.386944e-001 -2.508263e-001  4.745328e-001
      vertex  4.952317e-001 -2.513750e-001  4.741516e-001
      vertex  7.393800e-001 -2.521976e-001  4.735106e-001
    endloop
  endfacet
  facet normal  9.984849e-001  5.281877e-004  5.502360e-002
    outer loop
      vertex  7.500000e-001 -2.500000e-001  4.615132e-001
      vertex  7.496998e-001  1.992274e-016  4.645614e-001
      vertex  7.499053e-001 -2.499527e-001  4.632303e-001
    endloop
  endfacet
  facet normal  9.951847e-001  0.000000e+000  9.801718e-002
    outer loop
      vertex  7.500000e-001 -2.500000e-001  4.615132e-001
      vertex  7.500000e-001  1.990915e-016  4.615132e-001
      vertex  7.496998e-001  1.992274e-016  4.645614e-001
    endloop
  endfacet
  facet normal  9.801623e-002  1.347157e-005  9.951848e-001
    outer loop
      vertex  7.343750e-001  1.982241e-016  4.771382e-001
      vertex  7.373899e-001 -2.436949e-001  4.768445e-001
      vertex  7.374233e-001  1.985459e-016  4.768379e-001
    endloop
  endfacet
  facet normal  9.693761e-002  -0.000000e+000  9.952904e-001
    outer loop
      vertex  7.343750e-001  1.982241e-016  4.771382e-001
      vertex  7.343750e-001 -2.421875e-001  4.771382e-001
      vertex  7.373899e-001 -2.436949e-001  4.768445e-001
    endloop
  endfacet
  facet normal  2.773381e-001 -1.201999e-005  9.607723e-001
    outer loop
      vertex  7.374233e-001  1.985459e-016  4.768379e-001
      vertex  7.373899e-001 -2.436949e-001  4.768445e-001
      vertex  7.399946e-001 -2.449973e-001  4.760926e-001
    endloop
  endfacet
  facet normal  2.902869e-001  1.355381e-004  9.569397e-001
    outer loop
      vertex  7.374233e-001  1.985459e-016  4.768379e-001
      vertex  7.399946e-001 -2.449973e-001  4.760926e-001
      vertex  7.403544e-001  1.988219e-016  4.759488e-001
    endloop
  endfacet
  facet normal  4.101804e-001 -6.693713e-005  9.120044e-001
    outer loop
      vertex  7.403544e-001  1.988219e-016  4.759488e-001
      vertex  7.399946e-001 -2.449973e-001  4.760926e-001
      vertex  7.415552e-001 -2.457776e-001  4.753907e-001
    endloop
  endfacet
  facet normal  4.714031e-001  3.004801e-004  8.819178e-001
    outer loop
      vertex  7.403544e-001  1.988219e-016  4.759488e-001
      vertex  7.415552e-001 -2.457776e-001  4.753907e-001
      vertex  7.430558e-001  1.990417e-016  4.745049e-001
    endloop
  endfacet
  facet normal  5.069513e-001  1.155872e-005  8.619747e-001
    outer loop
      vertex  7.430558e-001  1.990417e-016  4.745049e-001
      vertex  7.415552e-001 -2.457776e-001  4.753907e-001
      vertex  7.430138e-001 -2.465069e-001  4.745328e-001
    endloop
  endfacet
  facet normal  5.976632e-001 -1.071998e-005  8.017472e-001
    outer loop
      vertex  7.430558e-001  1.990417e-016  4.745049e-001
      vertex  7.430138e-001 -2.465069e-001  4.745328e-001
      vertex  7.443851e-001 -2.471925e-001  4.735106e-001
    endloop
  endfacet
  facet normal  6.343879e-001  3.023348e-004  7.730149e-001
    outer loop
      vertex  7.430558e-001  1.990417e-016  4.745049e-001
      vertex  7.443851e-001 -2.471925e-001  4.735106e-001
      vertex  7.454236e-001  1.991967e-016  4.725617e-001
    endloop
  endfacet
  facet normal  6.812386e-001 -5.170627e-005  7.320614e-001
    outer loop
      vertex  7.454236e-001  1.991967e-016  4.725617e-001
      vertex  7.443851e-001 -2.471925e-001  4.735106e-001
      vertex  7.456229e-001 -2.478115e-001  4.723587e-001
    endloop
  endfacet
  facet normal  7.568159e-001  7.332675e-005  6.536280e-001
    outer loop
      vertex  7.454236e-001  1.991967e-016  4.725617e-001
      vertex  7.456229e-001 -2.478115e-001  4.723587e-001
      vertex  7.467416e-001 -2.483708e-001  4.710634e-001
    endloop
  endfacet
  facet normal  7.730070e-001  2.752538e-004  6.343974e-001
    outer loop
      vertex  7.454236e-001  1.991967e-016  4.725617e-001
      vertex  7.467416e-001 -2.483708e-001  4.710634e-001
      vertex  7.473667e-001  1.992810e-016  4.701940e-001
    endloop
  endfacet
  facet normal  8.234475e-001 -8.626917e-005  5.673923e-001
    outer loop
      vertex  7.473667e-001  1.992810e-016  4.701940e-001
      vertex  7.467416e-001 -2.483708e-001  4.710634e-001
      vertex  7.477036e-001 -2.488518e-001  4.696673e-001
    endloop
  endfacet
  facet normal  8.803995e-001  1.879787e-004  4.742326e-001
    outer loop
      vertex  7.473667e-001  1.992810e-016  4.701940e-001
      vertex  7.477036e-001 -2.488518e-001  4.696673e-001
      vertex  7.485168e-001 -2.492584e-001  4.681577e-001
    endloop
  endfacet
  facet normal  8.819280e-001  2.183032e-004  4.713839e-001
    outer loop
      vertex  7.473667e-001  1.992810e-016  4.701940e-001
      vertex  7.485168e-001 -2.492584e-001  4.681577e-001
      vertex  7.488106e-001  1.992914e-016  4.674926e-001
    endloop
  endfacet
  facet normal  9.864179e-001 -6.344650e-005  1.642547e-001
    outer loop
      vertex  7.496998e-001  1.992274e-016  4.645614e-001
      vertex  7.496237e-001 -2.498118e-001  4.649217e-001
      vertex  7.499053e-001 -2.499527e-001  4.632303e-001
    endloop
  endfacet
  facet normal  9.624300e-001  9.855635e-005  2.715296e-001
    outer loop
      vertex  7.496237e-001 -2.498118e-001  4.649217e-001
      vertex  7.496998e-001  1.992274e-016  4.645614e-001
      vertex  7.491568e-001 -2.495784e-001  4.665767e-001
    endloop
  endfacet
  facet normal  9.569377e-001  2.620123e-004  2.902931e-001
    outer loop
      vertex  7.491568e-001 -2.495784e-001  4.665767e-001
      vertex  7.496998e-001  1.992274e-016  4.645614e-001
      vertex  7.488106e-001  1.992914e-016  4.674926e-001
    endloop
  endfacet
  facet normal  9.269320e-001 -9.131120e-005  3.752294e-001
    outer loop
      vertex  7.491568e-001 -2.495784e-001  4.665767e-001
      vertex  7.488106e-001  1.992914e-016  4.674926e-001
      vertex  7.485168e-001 -2.492584e-001  4.681577e-001
    endloop
  endfacet
  facet normal  5.314482e-001 -7.754422e-001  3.409575e-001
    outer loop
      vertex  7.446889e-001 -2.535219e-001  4.706800e-001
      vertex  7.435438e-001 -2.543830e-001  4.705063e-001
      vertex  7.451772e-001 -2.572178e-001  4.615132e-001
    endloop
  endfacet
  facet normal  4.405369e-001 -8.242244e-001  3.557827e-001
    outer loop
      vertex  7.465279e-001 -2.564959e-001  4.615132e-001
      vertex  7.446889e-001 -2.535219e-001  4.706800e-001
      vertex  7.451772e-001 -2.572178e-001  4.615132e-001
    endloop
  endfacet
  facet normal  2.132533e-001 -1.323479e-001  9.679913e-001
    outer loop
      vertex  7.399946e-001 -2.449973e-001  4.760926e-001
      vertex  7.373899e-001 -2.436949e-001  4.768445e-001
      vertex  7.407472e-001 -2.467397e-001  4.756886e-001
    endloop
  endfacet
  facet normal  3.913915e-001 -4.408877e-002  9.191676e-001
    outer loop
      vertex  7.415552e-001 -2.457776e-001  4.753907e-001
      vertex  7.399946e-001 -2.449973e-001  4.760926e-001
      vertex  7.407472e-001 -2.467397e-001  4.756886e-001
    endloop
  endfacet
  facet normal  3.440046e-001 -4.571569e-001  8.201636e-001
    outer loop
      vertex  7.398631e-001 -2.476756e-001  4.757888e-001
      vertex  7.389272e-001 -2.485596e-001  4.756886e-001
      vertex  7.435438e-001 -2.543830e-001  4.705063e-001
    endloop
  endfacet
  facet normal  2.566084e-001 -5.071627e-001  8.227625e-001
    outer loop
      vertex  7.446889e-001 -2.535219e-001  4.706800e-001
      vertex  7.398631e-001 -2.476756e-001  4.757888e-001
      vertex  7.435438e-001 -2.543830e-001  4.705063e-001
    endloop
  endfacet
  facet normal  1.177236e-001 -8.606637e-001  4.953779e-001
    outer loop
      vertex  7.423133e-001 -2.550554e-001  4.701649e-001
      vertex  7.410393e-001 -2.555161e-001  4.696673e-001
      vertex  7.414459e-001 -2.563293e-001  4.681577e-001
    endloop
  endfacet
  facet normal  3.106872e-001 -8.575358e-001  4.100072e-001
    outer loop
      vertex  7.423133e-001 -2.550554e-001  4.701649e-001
      vertex  7.414459e-001 -2.563293e-001  4.681577e-001
      vertex  7.417659e-001 -2.569693e-001  4.665767e-001
    endloop
  endfacet
  facet normal  6.217938e-001 -7.264557e-001  2.926339e-001
    outer loop
      vertex  7.423133e-001 -2.550554e-001  4.701649e-001
      vertex  7.417659e-001 -2.569693e-001  4.665767e-001
      vertex  7.419993e-001 -2.574362e-001  4.649217e-001
    endloop
  endfacet
  facet normal  8.854586e-001 -4.408086e-001  1.471422e-001
    outer loop
      vertex  7.423133e-001 -2.550554e-001  4.701649e-001
      vertex  7.419993e-001 -2.574362e-001  4.649217e-001
      vertex  7.421402e-001 -2.577178e-001  4.632303e-001
    endloop
  endfacet
  facet normal  9.868463e-001 -1.576275e-001  3.588700e-002
    outer loop
      vertex  7.423133e-001 -2.550554e-001  4.701649e-001
      vertex  7.421402e-001 -2.577178e-001  4.632303e-001
      vertex  7.421875e-001 -2.578125e-001  4.615132e-001
    endloop
  endfacet
  facet normal  9.346849e-002 -9.490105e-001  3.010695e-001
    outer loop
      vertex  7.423133e-001 -2.550554e-001  4.701649e-001
      vertex  7.421875e-001 -2.578125e-001  4.615132e-001
      vertex  7.437117e-001 -2.576624e-001  4.615132e-001
    endloop
  endfacet
  facet normal  2.752383e-001 -9.073012e-001  3.178810e-001
    outer loop
      vertex  7.423133e-001 -2.550554e-001  4.701649e-001
      vertex  7.437117e-001 -2.576624e-001  4.615132e-001
      vertex  7.451772e-001 -2.572178e-001  4.615132e-001
    endloop
  endfacet
  facet normal  3.765264e-001 -8.617489e-001  3.400247e-001
    outer loop
      vertex  7.423133e-001 -2.550554e-001  4.701649e-001
      vertex  7.451772e-001 -2.572178e-001  4.615132e-001
      vertex  7.435438e-001 -2.543830e-001  4.705063e-001
    endloop
  endfacet
  facet normal  1.144143e-001 -6.082687e-001  7.854416e-001
    outer loop
      vertex  7.423133e-001 -2.550554e-001  4.701649e-001
      vertex  7.435438e-001 -2.543830e-001  4.705063e-001
      vertex  7.389272e-001 -2.485596e-001  4.756886e-001
    endloop
  endfacet
  facet normal  9.935385e-001 -9.787351e-002  5.746296e-002
    outer loop
      vertex  7.498499e-001 -2.515242e-001  4.615132e-001
      vertex  7.500000e-001 -2.500000e-001  4.615132e-001
      vertex  7.499053e-001 -2.499527e-001  4.632303e-001
    endloop
  endfacet
  facet normal  9.570048e-001 -2.287275e-001  1.783967e-001
    outer loop
      vertex  7.498499e-001 -2.515242e-001  4.615132e-001
      vertex  7.499053e-001 -2.499527e-001  4.632303e-001
      vertex  7.496237e-001 -2.498118e-001  4.649217e-001
    endloop
  endfacet
  facet normal  8.189640e-001 -4.891434e-001  3.000610e-001
    outer loop
      vertex  7.498499e-001 -2.515242e-001  4.615132e-001
      vertex  7.496237e-001 -2.498118e-001  4.649217e-001
      vertex  7.491568e-001 -2.495784e-001  4.665767e-001
    endloop
  endfacet
  facet normal  5.224264e-001 -7.695558e-001  3.672253e-001
    outer loop
      vertex  7.498499e-001 -2.515242e-001  4.615132e-001
      vertex  7.491568e-001 -2.495784e-001  4.665767e-001
      vertex  7.485168e-001 -2.492584e-001  4.681577e-001
    endloop
  endfacet
  facet normal  1.940506e-001 -9.159467e-001  3.512632e-001
    outer loop
      vertex  7.498499e-001 -2.515242e-001  4.615132e-001
      vertex  7.485168e-001 -2.492584e-001  4.681577e-001
      vertex  7.477036e-001 -2.488518e-001  4.696673e-001
    endloop
  endfacet
  facet normal  9.256248e-001 -2.123666e-001  3.132396e-001
    outer loop
      vertex  7.498499e-001 -2.515242e-001  4.615132e-001
      vertex  7.477036e-001 -2.488518e-001  4.696673e-001
      vertex  7.472429e-001 -2.501258e-001  4.701649e-001
    endloop
  endfacet
  facet normal  8.944219e-001  4.472241e-001 -8.999363e-005
    outer loop
      vertex  7.343750e-001 -2.421875e-001  4.771382e-001
      vertex  7.358825e-001 -2.452024e-001  4.768445e-001
      vertex  7.371848e-001 -2.478071e-001  4.760926e-001
    endloop
  endfacet
  facet normal  8.944381e-001  4.471919e-001  1.268276e-004
    outer loop
      vertex  7.343750e-001 -2.421875e-001  4.771382e-001
      vertex  7.371848e-001 -2.478071e-001  4.760926e-001
      vertex  7.379651e-001 -2.493677e-001  4.753907e-001
    endloop
  endfacet
  facet normal -7.118268e-002 -2.693308e-001  9.604134e-001
    outer loop
      vertex  7.343750e-001 -2.421875e-001  4.771382e-001
      vertex  7.379651e-001 -2.493677e-001  4.753907e-001
      vertex  7.389272e-001 -2.485596e-001  4.756886e-001
    endloop
  endfacet
  facet normal  6.319762e-002 -1.782306e-001  9.819573e-001
    outer loop
      vertex  7.343750e-001 -2.421875e-001  4.771382e-001
      vertex  7.389272e-001 -2.485596e-001  4.756886e-001
      vertex  7.398631e-001 -2.476756e-001  4.757888e-001
    endloop
  endfacet
  facet normal  1.782284e-001 -6.320019e-002  9.819574e-001
    outer loop
      vertex  7.343750e-001 -2.421875e-001  4.771382e-001
      vertex  7.398631e-001 -2.476756e-001  4.757888e-001
      vertex  7.407472e-001 -2.467397e-001  4.756886e-001
    endloop
  endfacet
  facet normal -1.734250e-001 -5.108675e-001  8.419846e-001
    outer loop
      vertex  7.343750e-001 -2.421875e-001  4.771382e-001
      vertex  7.407472e-001 -2.467397e-001  4.756886e-001
      vertex  7.373899e-001 -2.436949e-001  4.768445e-001
    endloop
  endfacet
  facet normal  1.142459e-001 -4.605698e-001  8.802405e-001
    outer loop
      vertex  7.389272e-001 -2.485596e-001  4.756886e-001
      vertex  7.379651e-001 -2.493677e-001  4.753907e-001
      vertex  7.386944e-001 -2.508263e-001  4.745328e-001
    endloop
  endfacet
  facet normal  3.239647e-001 -4.559599e-001  8.289434e-001
    outer loop
      vertex  7.389272e-001 -2.485596e-001  4.756886e-001
      vertex  7.386944e-001 -2.508263e-001  4.745328e-001
      vertex  7.393800e-001 -2.521976e-001  4.735106e-001
    endloop
  endfacet
  facet normal  6.218302e-001 -3.438617e-001  7.036238e-001
    outer loop
      vertex  7.389272e-001 -2.485596e-001  4.756886e-001
      vertex  7.393800e-001 -2.521976e-001  4.735106e-001
      vertex  7.399989e-001 -2.534354e-001  4.723587e-001
    endloop
  endfacet
  facet normal  8.507022e-001 -1.558626e-001  5.020086e-001
    outer loop
      vertex  7.389272e-001 -2.485596e-001  4.756886e-001
      vertex  7.399989e-001 -2.534354e-001  4.723587e-001
      vertex  7.405583e-001 -2.545541e-001  4.710634e-001
    endloop
  endfacet
  facet normal  9.480710e-001  1.275984e-002  3.178028e-001
    outer loop
      vertex  7.389272e-001 -2.485596e-001  4.756886e-001
      vertex  7.405583e-001 -2.545541e-001  4.710634e-001
      vertex  7.410393e-001 -2.555161e-001  4.696673e-001
    endloop
  endfacet
  facet normal -5.223664e-002 -6.625865e-001  7.471617e-001
    outer loop
      vertex  7.389272e-001 -2.485596e-001  4.756886e-001
      vertex  7.410393e-001 -2.555161e-001  4.696673e-001
      vertex  7.423133e-001 -2.550554e-001  4.701649e-001
    endloop
  endfacet
  facet normal  8.108737e-001 -6.611110e-002  5.814748e-001
    outer loop
      vertex  7.472429e-001 -2.501258e-001  4.701649e-001
      vertex  7.477036e-001 -2.488518e-001  4.696673e-001
      vertex  7.467416e-001 -2.483708e-001  4.710634e-001
    endloop
  endfacet
  facet normal  7.172384e-001 -1.441950e-001  6.817455e-001
    outer loop
      vertex  7.472429e-001 -2.501258e-001  4.701649e-001
      vertex  7.467416e-001 -2.483708e-001  4.710634e-001
      vertex  7.456229e-001 -2.478115e-001  4.723587e-001
    endloop
  endfacet
  facet normal  5.385444e-001 -3.497113e-001  7.665977e-001
    outer loop
      vertex  7.472429e-001 -2.501258e-001  4.701649e-001
      vertex  7.456229e-001 -2.478115e-001  4.723587e-001
      vertex  7.443851e-001 -2.471925e-001  4.735106e-001
    endloop
  endfacet
  facet normal  2.567379e-001 -6.073740e-001  7.517862e-001
    outer loop
      vertex  7.472429e-001 -2.501258e-001  4.701649e-001
      vertex  7.443851e-001 -2.471925e-001  4.735106e-001
      vertex  7.430138e-001 -2.465069e-001  4.745328e-001
    endloop
  endfacet
  facet normal -2.309607e-002 -7.807124e-001  6.244634e-001
    outer loop
      vertex  7.472429e-001 -2.501258e-001  4.701649e-001
      vertex  7.430138e-001 -2.465069e-001  4.745328e-001
      vertex  7.415552e-001 -2.457776e-001  4.753907e-001
    endloop
  endfacet
  facet normal  5.608447e-001 -2.242219e-001  7.969804e-001
    outer loop
      vertex  7.472429e-001 -2.501258e-001  4.701649e-001
      vertex  7.415552e-001 -2.457776e-001  4.753907e-001
      vertex  7.407472e-001 -2.467397e-001  4.756886e-001
    endloop
  endfacet
  facet normal  6.082787e-001 -1.143944e-001  7.854369e-001
    outer loop
      vertex  7.472429e-001 -2.501258e-001  4.701649e-001
      vertex  7.407472e-001 -2.467397e-001  4.756886e-001
      vertex  7.465705e-001 -2.513563e-001  4.705063e-001
    endloop
  endfacet
  facet normal  5.934061e-001 -7.230595e-001  3.536301e-001
    outer loop
      vertex  7.465279e-001 -2.564959e-001  4.615132e-001
      vertex  7.477118e-001 -2.555243e-001  4.615132e-001
      vertex  7.446889e-001 -2.535219e-001  4.706800e-001
    endloop
  endfacet
  facet normal  7.193387e-001 -5.903195e-001  3.661624e-001
    outer loop
      vertex  7.446889e-001 -2.535219e-001  4.706800e-001
      vertex  7.477118e-001 -2.555243e-001  4.615132e-001
      vertex  7.486833e-001 -2.543404e-001  4.615132e-001
    endloop
  endfacet
  facet normal  6.628962e-001 -6.628962e-001  3.480480e-001
    outer loop
      vertex  7.446889e-001 -2.535219e-001  4.706800e-001
      vertex  7.486833e-001 -2.543404e-001  4.615132e-001
      vertex  7.457094e-001 -2.525014e-001  4.706800e-001
    endloop
  endfacet
  facet normal  8.242062e-001 -4.405732e-001  3.557799e-001
    outer loop
      vertex  7.457094e-001 -2.525014e-001  4.706800e-001
      vertex  7.486833e-001 -2.543404e-001  4.615132e-001
      vertex  7.494053e-001 -2.529897e-001  4.615132e-001
    endloop
  endfacet
  facet normal  7.754332e-001 -5.314617e-001  3.409571e-001
    outer loop
      vertex  7.457094e-001 -2.525014e-001  4.706800e-001
      vertex  7.494053e-001 -2.529897e-001  4.615132e-001
      vertex  7.465705e-001 -2.513563e-001  4.705063e-001
    endloop
  endfacet
  facet normal  9.019888e-001 -2.735901e-001  3.340130e-001
    outer loop
      vertex  7.465705e-001 -2.513563e-001  4.705063e-001
      vertex  7.494053e-001 -2.529897e-001  4.615132e-001
      vertex  7.498499e-001 -2.515242e-001  4.615132e-001
    endloop
  endfacet
  facet normal  8.654101e-001 -3.832958e-001  3.227223e-001
    outer loop
      vertex  7.465705e-001 -2.513563e-001  4.705063e-001
      vertex  7.498499e-001 -2.515242e-001  4.615132e-001
      vertex  7.472429e-001 -2.501258e-001  4.701649e-001
    endloop
  endfacet
  facet normal  3.964106e-001 -3.964106e-001  8.280806e-001
    outer loop
      vertex  7.446889e-001 -2.535219e-001  4.706800e-001
      vertex  7.457094e-001 -2.525014e-001  4.706800e-001
      vertex  7.398631e-001 -2.476756e-001  4.757888e-001
    endloop
  endfacet
  facet normal  5.071564e-001 -2.566167e-001  8.227638e-001
    outer loop
      vertex  7.398631e-001 -2.476756e-001  4.757888e-001
      vertex  7.457094e-001 -2.525014e-001  4.706800e-001
      vertex  7.465705e-001 -2.513563e-001  4.705063e-001
    endloop
  endfacet
  facet normal  4.571524e-001 -3.440095e-001  8.201641e-001
    outer loop
      vertex  7.398631e-001 -2.476756e-001  4.757888e-001
      vertex  7.465705e-001 -2.513563e-001  4.705063e-001
      vertex  7.407472e-001 -2.467397e-001  4.756886e-001
    endloop
  endfacet
  facet normal  0.000000e+000  0.000000e+000  1.000000e+000
    outer loop
      vertex -4.110197e-001 -2.578125e-001  4.771382e-001
      vertex -4.110197e-001  7.105975e-017  4.771382e-001
      vertex -6.640625e-001 -2.578125e-001  4.771382e-001
    endloop
  endfacet
  facet normal  0.000000e+000  0.000000e+000  1.000000e+000
    outer loop
      vertex -6.640625e-001 -2.578125e-001  4.771382e-001
      vertex -4.110197e-001  7.105975e-017  4.771382e-001
      vertex -6.640625e-001  4.296636e-017  4.771382e-001
    endloop
  endfacet
  facet normal  8.658651e-001  0.000000e+000  5.002776e-001
    outer loop
      vertex -2.401316e-002 -2.578125e-001 -1.926809e-001
      vertex -2.401316e-002  7.684368e-017 -1.926809e-001
      vertex -4.110197e-001 -2.578125e-001  4.771382e-001
    endloop
  endfacet
  facet normal  8.658651e-001  -0.000000e+000  5.002776e-001
    outer loop
      vertex -4.110197e-001 -2.578125e-001  4.771382e-001
      vertex -2.401316e-002  7.684368e-017 -1.926809e-001
      vertex -4.110197e-001  7.105975e-017  4.771382e-001
    endloop
  endfacet
  facet normal  -0.000000e+000  0.000000e+000  1.000000e+000
    outer loop
      vertex  1.099507e-001  9.171665e-017 -1.926809e-001
      vertex -2.401316e-002  7.684368e-017 -1.926809e-001
      vertex  1.099507e-001 -2.578125e-001 -1.926809e-001
    endloop
  endfacet
  facet normal  0.000000e+000  0.000000e+000  1.000000e+000
    outer loop
      vertex  1.099507e-001 -2.578125e-001 -1.926809e-001
      vertex -2.401316e-002  7.684368e-017 -1.926809e-001
      vertex -2.401316e-002 -2.578125e-001 -1.926809e-001
    endloop
  endfacet
endsolid CATIA STL
