solid CATIA STL
  facet normal  9.951848e-001 -9.801738e-002  0.000000e+000
    outer loop
      vertex  3.178454e-001 -8.223685e-005  3.125000e-002
      vertex  3.178454e-001 -8.223685e-005  6.796875e-001
      vertex  3.118724e-001 -6.072709e-002  3.125000e-002
    endloop
  endfacet
  facet normal  9.951848e-001 -9.801738e-002  0.000000e+000
    outer loop
      vertex  3.118724e-001 -6.072709e-002  3.125000e-002
      vertex  3.178454e-001 -8.223685e-005  6.796875e-001
      vertex  3.118724e-001 -6.072709e-002  6.796875e-001
    endloop
  endfacet
  facet normal  9.569404e-001 -2.902845e-001  0.000000e+000
    outer loop
      vertex  3.118724e-001 -6.072709e-002  3.125000e-002
      vertex  3.118724e-001 -6.072709e-002  6.796875e-001
      vertex  2.941830e-001 -1.190414e-001  3.125000e-002
    endloop
  endfacet
  facet normal  9.569404e-001 -2.902845e-001  0.000000e+000
    outer loop
      vertex  2.941830e-001 -1.190414e-001  3.125000e-002
      vertex  3.118724e-001 -6.072709e-002  6.796875e-001
      vertex  2.941830e-001 -1.190414e-001  6.796875e-001
    endloop
  endfacet
  facet normal  8.819212e-001 -4.713971e-001  0.000000e+000
    outer loop
      vertex  2.941830e-001 -1.190414e-001  3.125000e-002
      vertex  2.941830e-001 -1.190414e-001  6.796875e-001
      vertex  2.654568e-001 -1.727842e-001  3.125000e-002
    endloop
  endfacet
  facet normal  8.819212e-001 -4.713971e-001  0.000000e+000
    outer loop
      vertex  2.654568e-001 -1.727842e-001  3.125000e-002
      vertex  2.941830e-001 -1.190414e-001  6.796875e-001
      vertex  2.654568e-001 -1.727842e-001  6.796875e-001
    endloop
  endfacet
  facet normal  7.730106e-001 -6.343932e-001  0.000000e+000
    outer loop
      vertex  2.654568e-001 -1.727842e-001  3.125000e-002
      vertex  2.654568e-001 -1.727842e-001  6.796875e-001
      vertex  2.267980e-001 -2.198901e-001  3.125000e-002
    endloop
  endfacet
  facet normal  7.730106e-001 -6.343932e-001  0.000000e+000
    outer loop
      vertex  2.267980e-001 -2.198901e-001  3.125000e-002
      vertex  2.654568e-001 -1.727842e-001  6.796875e-001
      vertex  2.267980e-001 -2.198901e-001  6.796875e-001
    endloop
  endfacet
  facet normal  6.343932e-001 -7.730104e-001  0.000000e+000
    outer loop
      vertex  2.267980e-001 -2.198901e-001  3.125000e-002
      vertex  2.267980e-001 -2.198901e-001  6.796875e-001
      vertex  1.796921e-001 -2.585489e-001  3.125000e-002
    endloop
  endfacet
  facet normal  6.343932e-001 -7.730104e-001  0.000000e+000
    outer loop
      vertex  1.796921e-001 -2.585489e-001  3.125000e-002
      vertex  2.267980e-001 -2.198901e-001  6.796875e-001
      vertex  1.796921e-001 -2.585489e-001  6.796875e-001
    endloop
  endfacet
  facet normal  4.713967e-001 -8.819213e-001  0.000000e+000
    outer loop
      vertex  1.796921e-001 -2.585489e-001  3.125000e-002
      vertex  1.796921e-001 -2.585489e-001  6.796875e-001
      vertex  1.259493e-001 -2.872750e-001  3.125000e-002
    endloop
  endfacet
  facet normal  4.713967e-001 -8.819213e-001  0.000000e+000
    outer loop
      vertex  1.259493e-001 -2.872750e-001  3.125000e-002
      vertex  1.796921e-001 -2.585489e-001  6.796875e-001
      vertex  1.259493e-001 -2.872750e-001  6.796875e-001
    endloop
  endfacet
  facet normal  2.902849e-001 -9.569404e-001  0.000000e+000
    outer loop
      vertex  1.259493e-001 -2.872750e-001  3.125000e-002
      vertex  1.259493e-001 -2.872750e-001  6.796875e-001
      vertex  6.763498e-002 -3.049645e-001  3.125000e-002
    endloop
  endfacet
  facet normal  2.902849e-001 -9.569404e-001  0.000000e+000
    outer loop
      vertex  6.763498e-002 -3.049645e-001  3.125000e-002
      vertex  1.259493e-001 -2.872750e-001  6.796875e-001
      vertex  6.763498e-002 -3.049645e-001  6.796875e-001
    endloop
  endfacet
  facet normal  9.801689e-002 -9.951848e-001  0.000000e+000
    outer loop
      vertex  6.763498e-002 -3.049645e-001  3.125000e-002
      vertex  6.763498e-002 -3.049645e-001  6.796875e-001
      vertex  6.990131e-003 -3.109375e-001  3.125000e-002
    endloop
  endfacet
  facet normal  9.801689e-002 -9.951848e-001  0.000000e+000
    outer loop
      vertex  6.990131e-003 -3.109375e-001  3.125000e-002
      vertex  6.763498e-002 -3.049645e-001  6.796875e-001
      vertex  6.990131e-003 -3.109375e-001  6.796875e-001
    endloop
  endfacet
  facet normal -9.801689e-002 -9.951848e-001  -0.000000e+000
    outer loop
      vertex  6.990131e-003 -3.109375e-001  3.125000e-002
      vertex  6.990131e-003 -3.109375e-001  6.796875e-001
      vertex -5.365472e-002 -3.049645e-001  3.125000e-002
    endloop
  endfacet
  facet normal -9.801689e-002 -9.951848e-001  0.000000e+000
    outer loop
      vertex -5.365472e-002 -3.049645e-001  3.125000e-002
      vertex  6.990131e-003 -3.109375e-001  6.796875e-001
      vertex -5.365472e-002 -3.049645e-001  6.796875e-001
    endloop
  endfacet
  facet normal -2.902849e-001 -9.569402e-001  -0.000000e+000
    outer loop
      vertex -5.365472e-002 -3.049645e-001  3.125000e-002
      vertex -5.365472e-002 -3.049645e-001  6.796875e-001
      vertex -1.119690e-001 -2.872750e-001  3.125000e-002
    endloop
  endfacet
  facet normal -2.902849e-001 -9.569402e-001  0.000000e+000
    outer loop
      vertex -1.119690e-001 -2.872750e-001  3.125000e-002
      vertex -5.365472e-002 -3.049645e-001  6.796875e-001
      vertex -1.119690e-001 -2.872750e-001  6.796875e-001
    endloop
  endfacet
  facet normal -4.713966e-001 -8.819215e-001  -0.000000e+000
    outer loop
      vertex -1.119690e-001 -2.872750e-001  3.125000e-002
      vertex -1.119690e-001 -2.872750e-001  6.796875e-001
      vertex -1.657118e-001 -2.585489e-001  3.125000e-002
    endloop
  endfacet
  facet normal -4.713966e-001 -8.819215e-001  0.000000e+000
    outer loop
      vertex -1.657118e-001 -2.585489e-001  3.125000e-002
      vertex -1.119690e-001 -2.872750e-001  6.796875e-001
      vertex -1.657118e-001 -2.585489e-001  6.796875e-001
    endloop
  endfacet
  facet normal -6.343934e-001 -7.730104e-001  -0.000000e+000
    outer loop
      vertex -1.657118e-001 -2.585489e-001  3.125000e-002
      vertex -1.657118e-001 -2.585489e-001  6.796875e-001
      vertex -2.128177e-001 -2.198901e-001  3.125000e-002
    endloop
  endfacet
  facet normal -6.343934e-001 -7.730104e-001  0.000000e+000
    outer loop
      vertex -2.128177e-001 -2.198901e-001  3.125000e-002
      vertex -1.657118e-001 -2.585489e-001  6.796875e-001
      vertex -2.128177e-001 -2.198901e-001  6.796875e-001
    endloop
  endfacet
  facet normal -7.730104e-001 -6.343934e-001  -0.000000e+000
    outer loop
      vertex -2.128177e-001 -2.198901e-001  3.125000e-002
      vertex -2.128177e-001 -2.198901e-001  6.796875e-001
      vertex -2.514766e-001 -1.727842e-001  3.125000e-002
    endloop
  endfacet
  facet normal -7.730104e-001 -6.343934e-001  0.000000e+000
    outer loop
      vertex -2.514766e-001 -1.727842e-001  3.125000e-002
      vertex -2.128177e-001 -2.198901e-001  6.796875e-001
      vertex -2.514766e-001 -1.727842e-001  6.796875e-001
    endloop
  endfacet
  facet normal -8.819213e-001 -4.713967e-001  -0.000000e+000
    outer loop
      vertex -2.514766e-001 -1.727842e-001  3.125000e-002
      vertex -2.514766e-001 -1.727842e-001  6.796875e-001
      vertex -2.802027e-001 -1.190414e-001  3.125000e-002
    endloop
  endfacet
  facet normal -8.819213e-001 -4.713967e-001  0.000000e+000
    outer loop
      vertex -2.802027e-001 -1.190414e-001  3.125000e-002
      vertex -2.514766e-001 -1.727842e-001  6.796875e-001
      vertex -2.802027e-001 -1.190414e-001  6.796875e-001
    endloop
  endfacet
  facet normal -9.569404e-001 -2.902845e-001  -0.000000e+000
    outer loop
      vertex -2.802027e-001 -1.190414e-001  3.125000e-002
      vertex -2.802027e-001 -1.190414e-001  6.796875e-001
      vertex -2.978921e-001 -6.072709e-002  3.125000e-002
    endloop
  endfacet
  facet normal -9.569404e-001 -2.902845e-001  0.000000e+000
    outer loop
      vertex -2.978921e-001 -6.072709e-002  3.125000e-002
      vertex -2.802027e-001 -1.190414e-001  6.796875e-001
      vertex -2.978921e-001 -6.072709e-002  6.796875e-001
    endloop
  endfacet
  facet normal -9.951848e-001 -9.801738e-002  -0.000000e+000
    outer loop
      vertex -2.978921e-001 -6.072709e-002  3.125000e-002
      vertex -2.978921e-001 -6.072709e-002  6.796875e-001
      vertex -3.038651e-001 -8.223685e-005  3.125000e-002
    endloop
  endfacet
  facet normal -9.951848e-001 -9.801738e-002  0.000000e+000
    outer loop
      vertex -3.038651e-001 -8.223685e-005  3.125000e-002
      vertex -2.978921e-001 -6.072709e-002  6.796875e-001
      vertex -3.038651e-001 -8.223685e-005  6.796875e-001
    endloop
  endfacet
  facet normal -9.951848e-001  9.801738e-002  0.000000e+000
    outer loop
      vertex -3.038651e-001 -8.223685e-005  3.125000e-002
      vertex -3.038651e-001 -8.223685e-005  6.796875e-001
      vertex -2.978921e-001  6.056262e-002  3.125000e-002
    endloop
  endfacet
  facet normal -9.951848e-001  9.801738e-002  0.000000e+000
    outer loop
      vertex -2.978921e-001  6.056262e-002  3.125000e-002
      vertex -3.038651e-001 -8.223685e-005  6.796875e-001
      vertex -2.978921e-001  6.056262e-002  6.796875e-001
    endloop
  endfacet
  facet normal -9.569404e-001  2.902845e-001  0.000000e+000
    outer loop
      vertex -2.978921e-001  6.056262e-002  3.125000e-002
      vertex -2.978921e-001  6.056262e-002  6.796875e-001
      vertex -2.802027e-001  1.188769e-001  3.125000e-002
    endloop
  endfacet
  facet normal -9.569404e-001  2.902845e-001  0.000000e+000
    outer loop
      vertex -2.802027e-001  1.188769e-001  3.125000e-002
      vertex -2.978921e-001  6.056262e-002  6.796875e-001
      vertex -2.802027e-001  1.188769e-001  6.796875e-001
    endloop
  endfacet
  facet normal -8.819215e-001  4.713966e-001  0.000000e+000
    outer loop
      vertex -2.802027e-001  1.188769e-001  3.125000e-002
      vertex -2.802027e-001  1.188769e-001  6.796875e-001
      vertex -2.514766e-001  1.726197e-001  3.125000e-002
    endloop
  endfacet
  facet normal -8.819215e-001  4.713966e-001  0.000000e+000
    outer loop
      vertex -2.514766e-001  1.726197e-001  3.125000e-002
      vertex -2.802027e-001  1.188769e-001  6.796875e-001
      vertex -2.514766e-001  1.726197e-001  6.796875e-001
    endloop
  endfacet
  facet normal -7.730103e-001  6.343936e-001  0.000000e+000
    outer loop
      vertex -2.514766e-001  1.726197e-001  3.125000e-002
      vertex -2.514766e-001  1.726197e-001  6.796875e-001
      vertex -2.128177e-001  2.197256e-001  3.125000e-002
    endloop
  endfacet
  facet normal -7.730103e-001  6.343936e-001  0.000000e+000
    outer loop
      vertex -2.128177e-001  2.197256e-001  3.125000e-002
      vertex -2.514766e-001  1.726197e-001  6.796875e-001
      vertex -2.128177e-001  2.197256e-001  6.796875e-001
    endloop
  endfacet
  facet normal -6.343934e-001  7.730104e-001  0.000000e+000
    outer loop
      vertex -2.128177e-001  2.197256e-001  3.125000e-002
      vertex -2.128177e-001  2.197256e-001  6.796875e-001
      vertex -1.657118e-001  2.583845e-001  3.125000e-002
    endloop
  endfacet
  facet normal -6.343934e-001  7.730104e-001  0.000000e+000
    outer loop
      vertex -1.657118e-001  2.583845e-001  3.125000e-002
      vertex -2.128177e-001  2.197256e-001  6.796875e-001
      vertex -1.657118e-001  2.583845e-001  6.796875e-001
    endloop
  endfacet
  facet normal -4.713966e-001  8.819215e-001  0.000000e+000
    outer loop
      vertex -1.657118e-001  2.583845e-001  3.125000e-002
      vertex -1.657118e-001  2.583845e-001  6.796875e-001
      vertex -1.119690e-001  2.871106e-001  3.125000e-002
    endloop
  endfacet
  facet normal -4.713966e-001  8.819215e-001  0.000000e+000
    outer loop
      vertex -1.119690e-001  2.871106e-001  3.125000e-002
      vertex -1.657118e-001  2.583845e-001  6.796875e-001
      vertex -1.119690e-001  2.871106e-001  6.796875e-001
    endloop
  endfacet
  facet normal -2.902849e-001  9.569402e-001  0.000000e+000
    outer loop
      vertex -1.119690e-001  2.871106e-001  3.125000e-002
      vertex -1.119690e-001  2.871106e-001  6.796875e-001
      vertex -5.365472e-002  3.048000e-001  3.125000e-002
    endloop
  endfacet
  facet normal -2.902849e-001  9.569402e-001  0.000000e+000
    outer loop
      vertex -5.365472e-002  3.048000e-001  3.125000e-002
      vertex -1.119690e-001  2.871106e-001  6.796875e-001
      vertex -5.365472e-002  3.048000e-001  6.796875e-001
    endloop
  endfacet
  facet normal -9.801689e-002  9.951848e-001  0.000000e+000
    outer loop
      vertex -5.365472e-002  3.048000e-001  3.125000e-002
      vertex -5.365472e-002  3.048000e-001  6.796875e-001
      vertex  6.990131e-003  3.107730e-001  3.125000e-002
    endloop
  endfacet
  facet normal -9.801689e-002  9.951848e-001  0.000000e+000
    outer loop
      vertex  6.990131e-003  3.107730e-001  3.125000e-002
      vertex -5.365472e-002  3.048000e-001  6.796875e-001
      vertex  6.990131e-003  3.107730e-001  6.796875e-001
    endloop
  endfacet
  facet normal  9.801689e-002  9.951848e-001  0.000000e+000
    outer loop
      vertex  6.990131e-003  3.107730e-001  3.125000e-002
      vertex  6.990131e-003  3.107730e-001  6.796875e-001
      vertex  6.763498e-002  3.048000e-001  3.125000e-002
    endloop
  endfacet
  facet normal  9.801689e-002  9.951848e-001  -0.000000e+000
    outer loop
      vertex  6.763498e-002  3.048000e-001  3.125000e-002
      vertex  6.990131e-003  3.107730e-001  6.796875e-001
      vertex  6.763498e-002  3.048000e-001  6.796875e-001
    endloop
  endfacet
  facet normal  2.902849e-001  9.569404e-001  0.000000e+000
    outer loop
      vertex  6.763498e-002  3.048000e-001  3.125000e-002
      vertex  6.763498e-002  3.048000e-001  6.796875e-001
      vertex  1.259493e-001  2.871106e-001  3.125000e-002
    endloop
  endfacet
  facet normal  2.902849e-001  9.569404e-001  -0.000000e+000
    outer loop
      vertex  1.259493e-001  2.871106e-001  3.125000e-002
      vertex  6.763498e-002  3.048000e-001  6.796875e-001
      vertex  1.259493e-001  2.871106e-001  6.796875e-001
    endloop
  endfacet
  facet normal  4.713967e-001  8.819213e-001  0.000000e+000
    outer loop
      vertex  1.259493e-001  2.871106e-001  3.125000e-002
      vertex  1.259493e-001  2.871106e-001  6.796875e-001
      vertex  1.796921e-001  2.583845e-001  3.125000e-002
    endloop
  endfacet
  facet normal  4.713967e-001  8.819213e-001  -0.000000e+000
    outer loop
      vertex  1.796921e-001  2.583845e-001  3.125000e-002
      vertex  1.259493e-001  2.871106e-001  6.796875e-001
      vertex  1.796921e-001  2.583845e-001  6.796875e-001
    endloop
  endfacet
  facet normal  6.343932e-001  7.730104e-001  0.000000e+000
    outer loop
      vertex  1.796921e-001  2.583845e-001  3.125000e-002
      vertex  1.796921e-001  2.583845e-001  6.796875e-001
      vertex  2.267980e-001  2.197256e-001  3.125000e-002
    endloop
  endfacet
  facet normal  6.343932e-001  7.730104e-001  -0.000000e+000
    outer loop
      vertex  2.267980e-001  2.197256e-001  3.125000e-002
      vertex  1.796921e-001  2.583845e-001  6.796875e-001
      vertex  2.267980e-001  2.197256e-001  6.796875e-001
    endloop
  endfacet
  facet normal  7.730105e-001  6.343932e-001  0.000000e+000
    outer loop
      vertex  2.267980e-001  2.197256e-001  3.125000e-002
      vertex  2.267980e-001  2.197256e-001  6.796875e-001
      vertex  2.654568e-001  1.726197e-001  3.125000e-002
    endloop
  endfacet
  facet normal  7.730105e-001  6.343932e-001  -0.000000e+000
    outer loop
      vertex  2.654568e-001  1.726197e-001  3.125000e-002
      vertex  2.267980e-001  2.197256e-001  6.796875e-001
      vertex  2.654568e-001  1.726197e-001  6.796875e-001
    endloop
  endfacet
  facet normal  8.819212e-001  4.713969e-001  0.000000e+000
    outer loop
      vertex  2.654568e-001  1.726197e-001  3.125000e-002
      vertex  2.654568e-001  1.726197e-001  6.796875e-001
      vertex  2.941830e-001  1.188769e-001  3.125000e-002
    endloop
  endfacet
  facet normal  8.819212e-001  4.713969e-001  -0.000000e+000
    outer loop
      vertex  2.941830e-001  1.188769e-001  3.125000e-002
      vertex  2.654568e-001  1.726197e-001  6.796875e-001
      vertex  2.941830e-001  1.188769e-001  6.796875e-001
    endloop
  endfacet
  facet normal  9.569404e-001  2.902845e-001  0.000000e+000
    outer loop
      vertex  2.941830e-001  1.188769e-001  3.125000e-002
      vertex  2.941830e-001  1.188769e-001  6.796875e-001
      vertex  3.118724e-001  6.056262e-002  3.125000e-002
    endloop
  endfacet
  facet normal  9.569404e-001  2.902845e-001  -0.000000e+000
    outer loop
      vertex  3.118724e-001  6.056262e-002  3.125000e-002
      vertex  2.941830e-001  1.188769e-001  6.796875e-001
      vertex  3.118724e-001  6.056262e-002  6.796875e-001
    endloop
  endfacet
  facet normal  9.951848e-001  9.801738e-002  0.000000e+000
    outer loop
      vertex  3.118724e-001  6.056262e-002  3.125000e-002
      vertex  3.118724e-001  6.056262e-002  6.796875e-001
      vertex  3.178454e-001 -8.223685e-005  3.125000e-002
    endloop
  endfacet
  facet normal  9.951848e-001  9.801738e-002  -0.000000e+000
    outer loop
      vertex  3.178454e-001 -8.223685e-005  3.125000e-002
      vertex  3.118724e-001  6.056262e-002  6.796875e-001
      vertex  3.178454e-001 -8.223685e-005  6.796875e-001
    endloop
  endfacet
  facet normal  9.106681e-002 -9.246192e-001  3.698461e-001
    outer loop
      vertex  6.990131e-003 -2.953125e-001  7.500000e-001
      vertex  6.537078e-002 -2.935815e-001  7.399524e-001
      vertex  6.458670e-002 -2.896397e-001  7.500000e-001
    endloop
  endfacet
  facet normal  2.697012e-001 -8.890866e-001  3.698462e-001
    outer loop
      vertex  6.458670e-002 -2.896397e-001  7.500000e-001
      vertex  6.537078e-002 -2.935815e-001  7.399524e-001
      vertex  1.215079e-001 -2.765526e-001  7.399524e-001
    endloop
  endfacet
  facet normal  2.697014e-001 -8.890855e-001  3.698488e-001
    outer loop
      vertex  6.458670e-002 -2.896397e-001  7.500000e-001
      vertex  1.215079e-001 -2.765526e-001  7.399524e-001
      vertex  1.199699e-001 -2.728394e-001  7.500000e-001
    endloop
  endfacet
  facet normal  4.379712e-001 -8.193859e-001  3.698487e-001
    outer loop
      vertex  1.199699e-001 -2.728394e-001  7.500000e-001
      vertex  1.215079e-001 -2.765526e-001  7.399524e-001
      vertex  1.732441e-001 -2.488989e-001  7.399524e-001
    endloop
  endfacet
  facet normal  4.379712e-001 -8.193869e-001  3.698463e-001
    outer loop
      vertex  1.199699e-001 -2.728394e-001  7.500000e-001
      vertex  1.732441e-001 -2.488989e-001  7.399524e-001
      vertex  1.710113e-001 -2.455572e-001  7.500000e-001
    endloop
  endfacet
  facet normal  5.894102e-001 -7.181987e-001  3.698462e-001
    outer loop
      vertex  1.710113e-001 -2.455572e-001  7.500000e-001
      vertex  1.732441e-001 -2.488989e-001  7.399524e-001
      vertex  2.185913e-001 -2.116835e-001  7.399524e-001
    endloop
  endfacet
  facet normal  5.894102e-001 -7.181984e-001  3.698470e-001
    outer loop
      vertex  1.710113e-001 -2.455572e-001  7.500000e-001
      vertex  2.185913e-001 -2.116835e-001  7.399524e-001
      vertex  2.157495e-001 -2.088416e-001  7.500000e-001
    endloop
  endfacet
  facet normal  7.181984e-001 -5.894101e-001  3.698469e-001
    outer loop
      vertex  2.157495e-001 -2.088416e-001  7.500000e-001
      vertex  2.185913e-001 -2.116835e-001  7.399524e-001
      vertex  2.558068e-001 -1.663362e-001  7.399524e-001
    endloop
  endfacet
  facet normal  7.181985e-001 -5.894104e-001  3.698462e-001
    outer loop
      vertex  2.157495e-001 -2.088416e-001  7.500000e-001
      vertex  2.558068e-001 -1.663362e-001  7.399524e-001
      vertex  2.524651e-001 -1.641034e-001  7.500000e-001
    endloop
  endfacet
  facet normal  8.193868e-001 -4.379714e-001  3.698463e-001
    outer loop
      vertex  2.524651e-001 -1.641034e-001  7.500000e-001
      vertex  2.558068e-001 -1.663362e-001  7.399524e-001
      vertex  2.834604e-001 -1.146000e-001  7.399524e-001
    endloop
  endfacet
  facet normal  8.193868e-001 -4.379714e-001  3.698466e-001
    outer loop
      vertex  2.524651e-001 -1.641034e-001  7.500000e-001
      vertex  2.834604e-001 -1.146000e-001  7.399524e-001
      vertex  2.797473e-001 -1.130620e-001  7.500000e-001
    endloop
  endfacet
  facet normal  8.890864e-001 -2.697016e-001  3.698465e-001
    outer loop
      vertex  2.797473e-001 -1.130620e-001  7.500000e-001
      vertex  2.834604e-001 -1.146000e-001  7.399524e-001
      vertex  3.004895e-001 -5.846288e-002  7.399524e-001
    endloop
  endfacet
  facet normal  8.890857e-001 -2.697010e-001  3.698484e-001
    outer loop
      vertex  2.797473e-001 -1.130620e-001  7.500000e-001
      vertex  3.004895e-001 -5.846288e-002  7.399524e-001
      vertex  2.965476e-001 -5.767880e-002  7.500000e-001
    endloop
  endfacet
  facet normal  9.246183e-001 -9.106663e-002  3.698485e-001
    outer loop
      vertex  2.965476e-001 -5.767880e-002  7.500000e-001
      vertex  3.004895e-001 -5.846288e-002  7.399524e-001
      vertex  3.062394e-001 -8.223685e-005  7.399524e-001
    endloop
  endfacet
  facet normal  9.246194e-001 -9.106731e-002  3.698455e-001
    outer loop
      vertex  2.965476e-001 -5.767880e-002  7.500000e-001
      vertex  3.062394e-001 -8.223685e-005  7.399524e-001
      vertex  3.022204e-001 -8.223685e-005  7.500000e-001
    endloop
  endfacet
  facet normal  9.106711e-002 -9.246184e-001  3.698480e-001
    outer loop
      vertex  6.537078e-002 -2.935815e-001  7.399524e-001
      vertex  6.990131e-003 -2.953125e-001  7.500000e-001
      vertex  6.990131e-003 -2.993315e-001  7.399524e-001
    endloop
  endfacet
  facet normal -9.106675e-002 -9.246185e-001  3.698480e-001
    outer loop
      vertex  6.990131e-003 -2.993315e-001  7.399524e-001
      vertex  6.990131e-003 -2.953125e-001  7.500000e-001
      vertex -5.060644e-002 -2.896397e-001  7.500000e-001
    endloop
  endfacet
  facet normal -9.106719e-002 -9.246192e-001  3.698461e-001
    outer loop
      vertex  6.990131e-003 -2.993315e-001  7.399524e-001
      vertex -5.060644e-002 -2.896397e-001  7.500000e-001
      vertex -5.139051e-002 -2.935815e-001  7.399524e-001
    endloop
  endfacet
  facet normal -2.697017e-001 -8.890865e-001  3.698461e-001
    outer loop
      vertex -5.139051e-002 -2.935815e-001  7.399524e-001
      vertex -5.060644e-002 -2.896397e-001  7.500000e-001
      vertex -1.059896e-001 -2.728394e-001  7.500000e-001
    endloop
  endfacet
  facet normal -2.697009e-001 -8.890857e-001  3.698488e-001
    outer loop
      vertex -5.139051e-002 -2.935815e-001  7.399524e-001
      vertex -1.059896e-001 -2.728394e-001  7.500000e-001
      vertex -1.075276e-001 -2.765526e-001  7.399524e-001
    endloop
  endfacet
  facet normal -4.379708e-001 -8.193861e-001  3.698487e-001
    outer loop
      vertex -1.075276e-001 -2.765526e-001  7.399524e-001
      vertex -1.059896e-001 -2.728394e-001  7.500000e-001
      vertex -1.570310e-001 -2.455572e-001  7.500000e-001
    endloop
  endfacet
  facet normal -4.379714e-001 -8.193865e-001  3.698469e-001
    outer loop
      vertex -1.075276e-001 -2.765526e-001  7.399524e-001
      vertex -1.570310e-001 -2.455572e-001  7.500000e-001
      vertex -1.592639e-001 -2.488989e-001  7.399524e-001
    endloop
  endfacet
  facet normal -5.894102e-001 -7.181984e-001  3.698470e-001
    outer loop
      vertex -1.592639e-001 -2.488989e-001  7.399524e-001
      vertex -1.570310e-001 -2.455572e-001  7.500000e-001
      vertex -2.017692e-001 -2.088416e-001  7.500000e-001
    endloop
  endfacet
  facet normal -5.894102e-001 -7.181984e-001  3.698469e-001
    outer loop
      vertex -1.592639e-001 -2.488989e-001  7.399524e-001
      vertex -2.017692e-001 -2.088416e-001  7.500000e-001
      vertex -2.046111e-001 -2.116835e-001  7.399524e-001
    endloop
  endfacet
  facet normal -7.181984e-001 -5.894102e-001  3.698470e-001
    outer loop
      vertex -2.046111e-001 -2.116835e-001  7.399524e-001
      vertex -2.017692e-001 -2.088416e-001  7.500000e-001
      vertex -2.384849e-001 -1.641034e-001  7.500000e-001
    endloop
  endfacet
  facet normal -7.181983e-001 -5.894102e-001  3.698471e-001
    outer loop
      vertex -2.046111e-001 -2.116835e-001  7.399524e-001
      vertex -2.384849e-001 -1.641034e-001  7.500000e-001
      vertex -2.418266e-001 -1.663362e-001  7.399524e-001
    endloop
  endfacet
  facet normal -8.193865e-001 -4.379712e-001  3.698474e-001
    outer loop
      vertex -2.418266e-001 -1.663362e-001  7.399524e-001
      vertex -2.384849e-001 -1.641034e-001  7.500000e-001
      vertex -2.657671e-001 -1.130620e-001  7.500000e-001
    endloop
  endfacet
  facet normal -8.193868e-001 -4.379712e-001  3.698466e-001
    outer loop
      vertex -2.418266e-001 -1.663362e-001  7.399524e-001
      vertex -2.657671e-001 -1.130620e-001  7.500000e-001
      vertex -2.694802e-001 -1.146000e-001  7.399524e-001
    endloop
  endfacet
  facet normal -8.890865e-001 -2.697012e-001  3.698465e-001
    outer loop
      vertex -2.694802e-001 -1.146000e-001  7.399524e-001
      vertex -2.657671e-001 -1.130620e-001  7.500000e-001
      vertex -2.825674e-001 -5.767880e-002  7.500000e-001
    endloop
  endfacet
  facet normal -8.890857e-001 -2.697014e-001  3.698485e-001
    outer loop
      vertex -2.694802e-001 -1.146000e-001  7.399524e-001
      vertex -2.825674e-001 -5.767880e-002  7.500000e-001
      vertex -2.865092e-001 -5.846288e-002  7.399524e-001
    endloop
  endfacet
  facet normal -9.246188e-001 -9.106283e-002  3.698484e-001
    outer loop
      vertex -2.865092e-001 -5.846288e-002  7.399524e-001
      vertex -2.825674e-001 -5.767880e-002  7.500000e-001
      vertex -2.882401e-001 -7.943955e-005  7.500000e-001
    endloop
  endfacet
  facet normal -9.246098e-001 -9.106625e-002  3.698698e-001
    outer loop
      vertex -2.865092e-001 -5.846288e-002  7.399524e-001
      vertex -2.882401e-001 -7.943955e-005  7.500000e-001
      vertex -2.922592e-001 -8.223685e-005  7.399524e-001
    endloop
  endfacet
  facet normal -9.106276e-002  9.246243e-001  3.698343e-001
    outer loop
      vertex  6.991530e-003  2.951480e-001  7.500000e-001
      vertex -5.139051e-002  2.934171e-001  7.399524e-001
      vertex -5.060489e-002  2.894756e-001  7.500000e-001
    endloop
  endfacet
  facet normal -2.696997e-001  8.890817e-001  3.698592e-001
    outer loop
      vertex -5.060489e-002  2.894756e-001  7.500000e-001
      vertex -5.139051e-002  2.934171e-001  7.399524e-001
      vertex -1.075276e-001  2.763881e-001  7.399524e-001
    endloop
  endfacet
  facet normal -2.696978e-001  8.890929e-001  3.698337e-001
    outer loop
      vertex -5.060489e-002  2.894756e-001  7.500000e-001
      vertex -1.075276e-001  2.763881e-001  7.399524e-001
      vertex -1.059880e-001  2.726756e-001  7.500000e-001
    endloop
  endfacet
  facet normal -4.379688e-001  8.193815e-001  3.698613e-001
    outer loop
      vertex -1.059880e-001  2.726756e-001  7.500000e-001
      vertex -1.075276e-001  2.763881e-001  7.399524e-001
      vertex -1.592639e-001  2.487345e-001  7.399524e-001
    endloop
  endfacet
  facet normal -4.379691e-001  8.193949e-001  3.698311e-001
    outer loop
      vertex -1.059880e-001  2.726756e-001  7.500000e-001
      vertex -1.592639e-001  2.487345e-001  7.399524e-001
      vertex -1.570294e-001  2.453938e-001  7.500000e-001
    endloop
  endfacet
  facet normal -5.894065e-001  7.181939e-001  3.698615e-001
    outer loop
      vertex -1.570294e-001  2.453938e-001  7.500000e-001
      vertex -1.592639e-001  2.487345e-001  7.399524e-001
      vertex -2.046111e-001  2.115190e-001  7.399524e-001
    endloop
  endfacet
  facet normal -5.894096e-001  7.182078e-001  3.698295e-001
    outer loop
      vertex -1.570294e-001  2.453938e-001  7.500000e-001
      vertex -2.046111e-001  2.115190e-001  7.399524e-001
      vertex -2.017677e-001  2.086786e-001  7.500000e-001
    endloop
  endfacet
  facet normal -7.181935e-001  5.894064e-001  3.698625e-001
    outer loop
      vertex -2.017677e-001  2.086786e-001  7.500000e-001
      vertex -2.046111e-001  2.115190e-001  7.399524e-001
      vertex -2.418266e-001  1.661718e-001  7.399524e-001
    endloop
  endfacet
  facet normal -7.181994e-001  5.894196e-001  3.698300e-001
    outer loop
      vertex -2.017677e-001  2.086786e-001  7.500000e-001
      vertex -2.418266e-001  1.661718e-001  7.399524e-001
      vertex -2.384836e-001  1.639408e-001  7.500000e-001
    endloop
  endfacet
  facet normal -8.193800e-001  4.379675e-001  3.698658e-001
    outer loop
      vertex -2.384836e-001  1.639408e-001  7.500000e-001
      vertex -2.418266e-001  1.661718e-001  7.399524e-001
      vertex -2.694802e-001  1.144355e-001  7.399524e-001
    endloop
  endfacet
  facet normal -8.193903e-001  4.379820e-001  3.698261e-001
    outer loop
      vertex -2.384836e-001  1.639408e-001  7.500000e-001
      vertex -2.694802e-001  1.144355e-001  7.399524e-001
      vertex -2.657661e-001  1.128998e-001  7.500000e-001
    endloop
  endfacet
  facet normal -8.890795e-001  2.696995e-001  3.698646e-001
    outer loop
      vertex -2.657661e-001  1.128998e-001  7.500000e-001
      vertex -2.694802e-001  1.144355e-001  7.399524e-001
      vertex -2.865092e-001  5.829841e-002  7.399524e-001
    endloop
  endfacet
  facet normal -8.890916e-001  2.697110e-001  3.698272e-001
    outer loop
      vertex -2.657661e-001  1.128998e-001  7.500000e-001
      vertex -2.865092e-001  5.829841e-002  7.399524e-001
      vertex -2.825668e-001  5.751690e-002  7.500000e-001
    endloop
  endfacet
  facet normal -9.246102e-001  9.106630e-002  3.698686e-001
    outer loop
      vertex -2.825668e-001  5.751690e-002  7.500000e-001
      vertex -2.865092e-001  5.829841e-002  7.399524e-001
      vertex -2.922592e-001 -8.223685e-005  7.399524e-001
    endloop
  endfacet
  facet normal -9.246265e-001  9.107650e-002  3.698258e-001
    outer loop
      vertex -2.825668e-001  5.751690e-002  7.500000e-001
      vertex -2.922592e-001 -8.223685e-005  7.399524e-001
      vertex -2.882401e-001 -7.943955e-005  7.500000e-001
    endloop
  endfacet
  facet normal -9.106669e-002  9.246141e-001  3.698589e-001
    outer loop
      vertex -5.139051e-002  2.934171e-001  7.399524e-001
      vertex  6.991530e-003  2.951480e-001  7.500000e-001
      vertex  6.990131e-003  2.991671e-001  7.399524e-001
    endloop
  endfacet
  facet normal  9.107129e-002  9.246224e-001  3.698369e-001
    outer loop
      vertex  6.990131e-003  2.991671e-001  7.399524e-001
      vertex  6.991530e-003  2.951480e-001  7.500000e-001
      vertex  6.458790e-002  2.894750e-001  7.500000e-001
    endloop
  endfacet
  facet normal  9.106681e-002  9.246154e-001  3.698557e-001
    outer loop
      vertex  6.990131e-003  2.991671e-001  7.399524e-001
      vertex  6.458790e-002  2.894750e-001  7.500000e-001
      vertex  6.537078e-002  2.934171e-001  7.399524e-001
    endloop
  endfacet
  facet normal  2.697060e-001  8.890892e-001  3.698364e-001
    outer loop
      vertex  6.537078e-002  2.934171e-001  7.399524e-001
      vertex  6.458790e-002  2.894750e-001  7.500000e-001
      vertex  1.199708e-001  2.726746e-001  7.500000e-001
    endloop
  endfacet
  facet normal  2.697001e-001  8.890830e-001  3.698559e-001
    outer loop
      vertex  6.537078e-002  2.934171e-001  7.399524e-001
      vertex  1.199708e-001  2.726746e-001  7.500000e-001
      vertex  1.215079e-001  2.763881e-001  7.399524e-001
    endloop
  endfacet
  facet normal  4.379755e-001  8.193878e-001  3.698394e-001
    outer loop
      vertex  1.215079e-001  2.763881e-001  7.399524e-001
      vertex  1.199708e-001  2.726746e-001  7.500000e-001
      vertex  1.710120e-001  2.453923e-001  7.500000e-001
    endloop
  endfacet
  facet normal  4.379702e-001  8.193840e-001  3.698540e-001
    outer loop
      vertex  1.215079e-001  2.763881e-001  7.399524e-001
      vertex  1.710120e-001  2.453923e-001  7.500000e-001
      vertex  1.732441e-001  2.487345e-001  7.399524e-001
    endloop
  endfacet
  facet normal  5.894136e-001  7.181990e-001  3.698402e-001
    outer loop
      vertex  1.732441e-001  2.487345e-001  7.399524e-001
      vertex  1.710120e-001  2.453923e-001  7.500000e-001
      vertex  2.157499e-001  2.086766e-001  7.500000e-001
    endloop
  endfacet
  facet normal  5.894088e-001  7.181968e-001  3.698524e-001
    outer loop
      vertex  1.732441e-001  2.487345e-001  7.399524e-001
      vertex  2.157499e-001  2.086766e-001  7.500000e-001
      vertex  2.185913e-001  2.115190e-001  7.399524e-001
    endloop
  endfacet
  facet normal  7.182012e-001  5.894101e-001  3.698414e-001
    outer loop
      vertex  2.185913e-001  2.115190e-001  7.399524e-001
      vertex  2.157499e-001  2.086766e-001  7.500000e-001
      vertex  2.524654e-001  1.639385e-001  7.500000e-001
    endloop
  endfacet
  facet normal  7.181973e-001  5.894094e-001  3.698505e-001
    outer loop
      vertex  2.185913e-001  2.115190e-001  7.399524e-001
      vertex  2.524654e-001  1.639385e-001  7.500000e-001
      vertex  2.558068e-001  1.661718e-001  7.399524e-001
    endloop
  endfacet
  facet normal  8.193891e-001  4.379707e-001  3.698421e-001
    outer loop
      vertex  2.558068e-001  1.661718e-001  7.399524e-001
      vertex  2.524654e-001  1.639385e-001  7.500000e-001
      vertex  2.797475e-001  1.128972e-001  7.500000e-001
    endloop
  endfacet
  facet normal  8.193855e-001  4.379706e-001  3.698502e-001
    outer loop
      vertex  2.558068e-001  1.661718e-001  7.399524e-001
      vertex  2.797475e-001  1.128972e-001  7.500000e-001
      vertex  2.834604e-001  1.144355e-001  7.399524e-001
    endloop
  endfacet
  facet normal  8.890874e-001  2.697008e-001  3.698448e-001
    outer loop
      vertex  2.834604e-001  1.144355e-001  7.399524e-001
      vertex  2.797475e-001  1.128972e-001  7.500000e-001
      vertex  2.965477e-001  5.751416e-002  7.500000e-001
    endloop
  endfacet
  facet normal  8.890851e-001  2.697012e-001  3.698502e-001
    outer loop
      vertex  2.834604e-001  1.144355e-001  7.399524e-001
      vertex  2.965477e-001  5.751416e-002  7.500000e-001
      vertex  3.004895e-001  5.829841e-002  7.399524e-001
    endloop
  endfacet
  facet normal  9.246187e-001  9.106704e-002  3.698475e-001
    outer loop
      vertex  3.004895e-001  5.829841e-002  7.399524e-001
      vertex  2.965477e-001  5.751416e-002  7.500000e-001
      vertex  3.022204e-001 -8.223685e-005  7.500000e-001
    endloop
  endfacet
  facet normal  9.246195e-001  9.106675e-002  3.698456e-001
    outer loop
      vertex  3.004895e-001  5.829841e-002  7.399524e-001
      vertex  3.022204e-001 -8.223685e-005  7.500000e-001
      vertex  3.062394e-001 -8.223685e-005  7.399524e-001
    endloop
  endfacet
  facet normal -9.626484e-002 -9.773958e-001  1.882295e-001
    outer loop
      vertex  6.990131e-003 -3.109375e-001  6.796875e-001
      vertex -5.139051e-002 -2.935815e-001  7.399524e-001
      vertex -5.365472e-002 -3.049645e-001  6.796875e-001
    endloop
  endfacet
  facet normal -2.850956e-001 -9.398353e-001  1.882295e-001
    outer loop
      vertex -5.365472e-002 -3.049645e-001  6.796875e-001
      vertex -5.139051e-002 -2.935815e-001  7.399524e-001
      vertex -1.075276e-001 -2.765526e-001  7.399524e-001
    endloop
  endfacet
  facet normal -2.850961e-001 -9.398351e-001  1.882290e-001
    outer loop
      vertex -5.365472e-002 -3.049645e-001  6.796875e-001
      vertex -1.075276e-001 -2.765526e-001  7.399524e-001
      vertex -1.119690e-001 -2.872750e-001  6.796875e-001
    endloop
  endfacet
  facet normal -4.629708e-001 -8.661569e-001  1.882290e-001
    outer loop
      vertex -1.119690e-001 -2.872750e-001  6.796875e-001
      vertex -1.075276e-001 -2.765526e-001  7.399524e-001
      vertex -1.592639e-001 -2.488989e-001  7.399524e-001
    endloop
  endfacet
  facet normal -4.629704e-001 -8.661571e-001  1.882294e-001
    outer loop
      vertex -1.119690e-001 -2.872750e-001  6.796875e-001
      vertex -1.592639e-001 -2.488989e-001  7.399524e-001
      vertex -1.657118e-001 -2.585489e-001  6.796875e-001
    endloop
  endfacet
  facet normal -6.230536e-001 -7.591929e-001  1.882294e-001
    outer loop
      vertex -1.657118e-001 -2.585489e-001  6.796875e-001
      vertex -1.592639e-001 -2.488989e-001  7.399524e-001
      vertex -2.046111e-001 -2.116835e-001  7.399524e-001
    endloop
  endfacet
  facet normal -6.230537e-001 -7.591929e-001  1.882293e-001
    outer loop
      vertex -1.657118e-001 -2.585489e-001  6.796875e-001
      vertex -2.046111e-001 -2.116835e-001  7.399524e-001
      vertex -2.128177e-001 -2.198901e-001  6.796875e-001
    endloop
  endfacet
  facet normal -7.591929e-001 -6.230537e-001  1.882293e-001
    outer loop
      vertex -2.128177e-001 -2.198901e-001  6.796875e-001
      vertex -2.046111e-001 -2.116835e-001  7.399524e-001
      vertex -2.418266e-001 -1.663362e-001  7.399524e-001
    endloop
  endfacet
  facet normal -7.591929e-001 -6.230537e-001  1.882294e-001
    outer loop
      vertex -2.128177e-001 -2.198901e-001  6.796875e-001
      vertex -2.418266e-001 -1.663362e-001  7.399524e-001
      vertex -2.514766e-001 -1.727842e-001  6.796875e-001
    endloop
  endfacet
  facet normal -8.661571e-001 -4.629704e-001  1.882294e-001
    outer loop
      vertex -2.514766e-001 -1.727842e-001  6.796875e-001
      vertex -2.418266e-001 -1.663362e-001  7.399524e-001
      vertex -2.694802e-001 -1.146000e-001  7.399524e-001
    endloop
  endfacet
  facet normal -8.661571e-001 -4.629705e-001  1.882295e-001
    outer loop
      vertex -2.514766e-001 -1.727842e-001  6.796875e-001
      vertex -2.694802e-001 -1.146000e-001  7.399524e-001
      vertex -2.802027e-001 -1.190414e-001  6.796875e-001
    endloop
  endfacet
  facet normal -9.398351e-001 -2.850960e-001  1.882295e-001
    outer loop
      vertex -2.802027e-001 -1.190414e-001  6.796875e-001
      vertex -2.694802e-001 -1.146000e-001  7.399524e-001
      vertex -2.865092e-001 -5.846288e-002  7.399524e-001
    endloop
  endfacet
  facet normal -9.398353e-001 -2.850957e-001  1.882290e-001
    outer loop
      vertex -2.802027e-001 -1.190414e-001  6.796875e-001
      vertex -2.865092e-001 -5.846288e-002  7.399524e-001
      vertex -2.978921e-001 -6.072709e-002  6.796875e-001
    endloop
  endfacet
  facet normal -9.773960e-001 -9.626525e-002  1.882291e-001
    outer loop
      vertex -2.978921e-001 -6.072709e-002  6.796875e-001
      vertex -2.865092e-001 -5.846288e-002  7.399524e-001
      vertex -2.922592e-001 -8.223685e-005  7.399524e-001
    endloop
  endfacet
  facet normal -9.773958e-001 -9.626532e-002  1.882291e-001
    outer loop
      vertex -2.978921e-001 -6.072709e-002  6.796875e-001
      vertex -2.922592e-001 -8.223685e-005  7.399524e-001
      vertex -3.038651e-001 -8.223685e-005  6.796875e-001
    endloop
  endfacet
  facet normal -9.626525e-002 -9.773960e-001  1.882291e-001
    outer loop
      vertex -5.139051e-002 -2.935815e-001  7.399524e-001
      vertex  6.990131e-003 -3.109375e-001  6.796875e-001
      vertex  6.990131e-003 -2.993315e-001  7.399524e-001
    endloop
  endfacet
  facet normal  9.626485e-002 -9.773960e-001  1.882291e-001
    outer loop
      vertex  6.990131e-003 -2.993315e-001  7.399524e-001
      vertex  6.990131e-003 -3.109375e-001  6.796875e-001
      vertex  6.763498e-002 -3.049645e-001  6.796875e-001
    endloop
  endfacet
  facet normal  9.626523e-002 -9.773958e-001  1.882295e-001
    outer loop
      vertex  6.990131e-003 -2.993315e-001  7.399524e-001
      vertex  6.763498e-002 -3.049645e-001  6.796875e-001
      vertex  6.537078e-002 -2.935815e-001  7.399524e-001
    endloop
  endfacet
  facet normal  2.850960e-001 -9.398350e-001  1.882295e-001
    outer loop
      vertex  6.537078e-002 -2.935815e-001  7.399524e-001
      vertex  6.763498e-002 -3.049645e-001  6.796875e-001
      vertex  1.259493e-001 -2.872750e-001  6.796875e-001
    endloop
  endfacet
  facet normal  2.850956e-001 -9.398353e-001  1.882290e-001
    outer loop
      vertex  6.537078e-002 -2.935815e-001  7.399524e-001
      vertex  1.259493e-001 -2.872750e-001  6.796875e-001
      vertex  1.215079e-001 -2.765526e-001  7.399524e-001
    endloop
  endfacet
  facet normal  4.629706e-001 -8.661571e-001  1.882290e-001
    outer loop
      vertex  1.215079e-001 -2.765526e-001  7.399524e-001
      vertex  1.259493e-001 -2.872750e-001  6.796875e-001
      vertex  1.796921e-001 -2.585489e-001  6.796875e-001
    endloop
  endfacet
  facet normal  4.629708e-001 -8.661569e-001  1.882294e-001
    outer loop
      vertex  1.215079e-001 -2.765526e-001  7.399524e-001
      vertex  1.796921e-001 -2.585489e-001  6.796875e-001
      vertex  1.732441e-001 -2.488989e-001  7.399524e-001
    endloop
  endfacet
  facet normal  6.230536e-001 -7.591930e-001  1.882294e-001
    outer loop
      vertex  1.732441e-001 -2.488989e-001  7.399524e-001
      vertex  1.796921e-001 -2.585489e-001  6.796875e-001
      vertex  2.267980e-001 -2.198901e-001  6.796875e-001
    endloop
  endfacet
  facet normal  6.230536e-001 -7.591931e-001  1.882293e-001
    outer loop
      vertex  1.732441e-001 -2.488989e-001  7.399524e-001
      vertex  2.267980e-001 -2.198901e-001  6.796875e-001
      vertex  2.185913e-001 -2.116835e-001  7.399524e-001
    endloop
  endfacet
  facet normal  7.591931e-001 -6.230534e-001  1.882292e-001
    outer loop
      vertex  2.185913e-001 -2.116835e-001  7.399524e-001
      vertex  2.267980e-001 -2.198901e-001  6.796875e-001
      vertex  2.654568e-001 -1.727842e-001  6.796875e-001
    endloop
  endfacet
  facet normal  7.591931e-001 -6.230536e-001  1.882292e-001
    outer loop
      vertex  2.185913e-001 -2.116835e-001  7.399524e-001
      vertex  2.654568e-001 -1.727842e-001  6.796875e-001
      vertex  2.558068e-001 -1.663362e-001  7.399524e-001
    endloop
  endfacet
  facet normal  8.661568e-001 -4.629709e-001  1.882292e-001
    outer loop
      vertex  2.558068e-001 -1.663362e-001  7.399524e-001
      vertex  2.654568e-001 -1.727842e-001  6.796875e-001
      vertex  2.941830e-001 -1.190414e-001  6.796875e-001
    endloop
  endfacet
  facet normal  8.661570e-001 -4.629706e-001  1.882295e-001
    outer loop
      vertex  2.558068e-001 -1.663362e-001  7.399524e-001
      vertex  2.941830e-001 -1.190414e-001  6.796875e-001
      vertex  2.834604e-001 -1.146000e-001  7.399524e-001
    endloop
  endfacet
  facet normal  9.398351e-001 -2.850956e-001  1.882294e-001
    outer loop
      vertex  2.834604e-001 -1.146000e-001  7.399524e-001
      vertex  2.941830e-001 -1.190414e-001  6.796875e-001
      vertex  3.118724e-001 -6.072709e-002  6.796875e-001
    endloop
  endfacet
  facet normal  9.398351e-001 -2.850961e-001  1.882291e-001
    outer loop
      vertex  2.834604e-001 -1.146000e-001  7.399524e-001
      vertex  3.118724e-001 -6.072709e-002  6.796875e-001
      vertex  3.004895e-001 -5.846288e-002  7.399524e-001
    endloop
  endfacet
  facet normal  9.773960e-001 -9.626533e-002  1.882291e-001
    outer loop
      vertex  3.004895e-001 -5.846288e-002  7.399524e-001
      vertex  3.118724e-001 -6.072709e-002  6.796875e-001
      vertex  3.178454e-001 -8.223685e-005  6.796875e-001
    endloop
  endfacet
  facet normal  9.773959e-001 -9.626474e-002  1.882296e-001
    outer loop
      vertex  3.004895e-001 -5.846288e-002  7.399524e-001
      vertex  3.178454e-001 -8.223685e-005  6.796875e-001
      vertex  3.062394e-001 -8.223685e-005  7.399524e-001
    endloop
  endfacet
  facet normal  9.626484e-002  9.773958e-001  1.882295e-001
    outer loop
      vertex  6.990131e-003  3.107730e-001  6.796875e-001
      vertex  6.537078e-002  2.934171e-001  7.399524e-001
      vertex  6.763498e-002  3.048000e-001  6.796875e-001
    endloop
  endfacet
  facet normal  2.850956e-001  9.398351e-001  1.882295e-001
    outer loop
      vertex  6.763498e-002  3.048000e-001  6.796875e-001
      vertex  6.537078e-002  2.934171e-001  7.399524e-001
      vertex  1.215079e-001  2.763881e-001  7.399524e-001
    endloop
  endfacet
  facet normal  2.850961e-001  9.398351e-001  1.882290e-001
    outer loop
      vertex  6.763498e-002  3.048000e-001  6.796875e-001
      vertex  1.215079e-001  2.763881e-001  7.399524e-001
      vertex  1.259493e-001  2.871106e-001  6.796875e-001
    endloop
  endfacet
  facet normal  4.629709e-001  8.661570e-001  1.882290e-001
    outer loop
      vertex  1.259493e-001  2.871106e-001  6.796875e-001
      vertex  1.215079e-001  2.763881e-001  7.399524e-001
      vertex  1.732441e-001  2.487345e-001  7.399524e-001
    endloop
  endfacet
  facet normal  4.629705e-001  8.661571e-001  1.882294e-001
    outer loop
      vertex  1.259493e-001  2.871106e-001  6.796875e-001
      vertex  1.732441e-001  2.487345e-001  7.399524e-001
      vertex  1.796921e-001  2.583845e-001  6.796875e-001
    endloop
  endfacet
  facet normal  6.230535e-001  7.591930e-001  1.882294e-001
    outer loop
      vertex  1.796921e-001  2.583845e-001  6.796875e-001
      vertex  1.732441e-001  2.487345e-001  7.399524e-001
      vertex  2.185913e-001  2.115190e-001  7.399524e-001
    endloop
  endfacet
  facet normal  6.230536e-001  7.591930e-001  1.882292e-001
    outer loop
      vertex  1.796921e-001  2.583845e-001  6.796875e-001
      vertex  2.185913e-001  2.115190e-001  7.399524e-001
      vertex  2.267980e-001  2.197256e-001  6.796875e-001
    endloop
  endfacet
  facet normal  7.591929e-001  6.230536e-001  1.882293e-001
    outer loop
      vertex  2.267980e-001  2.197256e-001  6.796875e-001
      vertex  2.185913e-001  2.115190e-001  7.399524e-001
      vertex  2.558068e-001  1.661718e-001  7.399524e-001
    endloop
  endfacet
  facet normal  7.591931e-001  6.230536e-001  1.882292e-001
    outer loop
      vertex  2.267980e-001  2.197256e-001  6.796875e-001
      vertex  2.558068e-001  1.661718e-001  7.399524e-001
      vertex  2.654568e-001  1.726197e-001  6.796875e-001
    endloop
  endfacet
  facet normal  8.661571e-001  4.629706e-001  1.882292e-001
    outer loop
      vertex  2.654568e-001  1.726197e-001  6.796875e-001
      vertex  2.558068e-001  1.661718e-001  7.399524e-001
      vertex  2.834604e-001  1.144355e-001  7.399524e-001
    endloop
  endfacet
  facet normal  8.661569e-001  4.629708e-001  1.882294e-001
    outer loop
      vertex  2.654568e-001  1.726197e-001  6.796875e-001
      vertex  2.834604e-001  1.144355e-001  7.399524e-001
      vertex  2.941830e-001  1.188769e-001  6.796875e-001
    endloop
  endfacet
  facet normal  9.398350e-001  2.850960e-001  1.882294e-001
    outer loop
      vertex  2.941830e-001  1.188769e-001  6.796875e-001
      vertex  2.834604e-001  1.144355e-001  7.399524e-001
      vertex  3.004895e-001  5.829841e-002  7.399524e-001
    endloop
  endfacet
  facet normal  9.398353e-001  2.850957e-001  1.882291e-001
    outer loop
      vertex  2.941830e-001  1.188769e-001  6.796875e-001
      vertex  3.004895e-001  5.829841e-002  7.399524e-001
      vertex  3.118724e-001  6.056262e-002  6.796875e-001
    endloop
  endfacet
  facet normal  9.773960e-001  9.626475e-002  1.882290e-001
    outer loop
      vertex  3.118724e-001  6.056262e-002  6.796875e-001
      vertex  3.004895e-001  5.829841e-002  7.399524e-001
      vertex  3.062394e-001 -8.223685e-005  7.399524e-001
    endloop
  endfacet
  facet normal  9.773958e-001  9.626532e-002  1.882296e-001
    outer loop
      vertex  3.118724e-001  6.056262e-002  6.796875e-001
      vertex  3.062394e-001 -8.223685e-005  7.399524e-001
      vertex  3.178454e-001 -8.223685e-005  6.796875e-001
    endloop
  endfacet
  facet normal  9.626525e-002  9.773960e-001  1.882291e-001
    outer loop
      vertex  6.537078e-002  2.934171e-001  7.399524e-001
      vertex  6.990131e-003  3.107730e-001  6.796875e-001
      vertex  6.990131e-003  2.991671e-001  7.399524e-001
    endloop
  endfacet
  facet normal -9.626485e-002  9.773960e-001  1.882291e-001
    outer loop
      vertex  6.990131e-003  2.991671e-001  7.399524e-001
      vertex  6.990131e-003  3.107730e-001  6.796875e-001
      vertex -5.365472e-002  3.048000e-001  6.796875e-001
    endloop
  endfacet
  facet normal -9.626524e-002  9.773958e-001  1.882295e-001
    outer loop
      vertex  6.990131e-003  2.991671e-001  7.399524e-001
      vertex -5.365472e-002  3.048000e-001  6.796875e-001
      vertex -5.139051e-002  2.934171e-001  7.399524e-001
    endloop
  endfacet
  facet normal -2.850961e-001  9.398350e-001  1.882295e-001
    outer loop
      vertex -5.139051e-002  2.934171e-001  7.399524e-001
      vertex -5.365472e-002  3.048000e-001  6.796875e-001
      vertex -1.119690e-001  2.871106e-001  6.796875e-001
    endloop
  endfacet
  facet normal -2.850956e-001  9.398353e-001  1.882289e-001
    outer loop
      vertex -5.139051e-002  2.934171e-001  7.399524e-001
      vertex -1.119690e-001  2.871106e-001  6.796875e-001
      vertex -1.075276e-001  2.763881e-001  7.399524e-001
    endloop
  endfacet
  facet normal -4.629704e-001  8.661571e-001  1.882290e-001
    outer loop
      vertex -1.075276e-001  2.763881e-001  7.399524e-001
      vertex -1.119690e-001  2.871106e-001  6.796875e-001
      vertex -1.657118e-001  2.583845e-001  6.796875e-001
    endloop
  endfacet
  facet normal -4.629708e-001  8.661569e-001  1.882294e-001
    outer loop
      vertex -1.075276e-001  2.763881e-001  7.399524e-001
      vertex -1.657118e-001  2.583845e-001  6.796875e-001
      vertex -1.592639e-001  2.487345e-001  7.399524e-001
    endloop
  endfacet
  facet normal -6.230537e-001  7.591929e-001  1.882294e-001
    outer loop
      vertex -1.592639e-001  2.487345e-001  7.399524e-001
      vertex -1.657118e-001  2.583845e-001  6.796875e-001
      vertex -2.128177e-001  2.197256e-001  6.796875e-001
    endloop
  endfacet
  facet normal -6.230536e-001  7.591929e-001  1.882293e-001
    outer loop
      vertex -1.592639e-001  2.487345e-001  7.399524e-001
      vertex -2.128177e-001  2.197256e-001  6.796875e-001
      vertex -2.046111e-001  2.115190e-001  7.399524e-001
    endloop
  endfacet
  facet normal -7.591927e-001  6.230538e-001  1.882292e-001
    outer loop
      vertex -2.046111e-001  2.115190e-001  7.399524e-001
      vertex -2.128177e-001  2.197256e-001  6.796875e-001
      vertex -2.514766e-001  1.726197e-001  6.796875e-001
    endloop
  endfacet
  facet normal -7.591928e-001  6.230538e-001  1.882294e-001
    outer loop
      vertex -2.046111e-001  2.115190e-001  7.399524e-001
      vertex -2.514766e-001  1.726197e-001  6.796875e-001
      vertex -2.418266e-001  1.661718e-001  7.399524e-001
    endloop
  endfacet
  facet normal -8.661571e-001  4.629704e-001  1.882294e-001
    outer loop
      vertex -2.418266e-001  1.661718e-001  7.399524e-001
      vertex -2.514766e-001  1.726197e-001  6.796875e-001
      vertex -2.802027e-001  1.188769e-001  6.796875e-001
    endloop
  endfacet
  facet normal -8.661571e-001  4.629703e-001  1.882294e-001
    outer loop
      vertex -2.418266e-001  1.661718e-001  7.399524e-001
      vertex -2.802027e-001  1.188769e-001  6.796875e-001
      vertex -2.694802e-001  1.144355e-001  7.399524e-001
    endloop
  endfacet
  facet normal -9.398352e-001  2.850957e-001  1.882294e-001
    outer loop
      vertex -2.694802e-001  1.144355e-001  7.399524e-001
      vertex -2.802027e-001  1.188769e-001  6.796875e-001
      vertex -2.978921e-001  6.056262e-002  6.796875e-001
    endloop
  endfacet
  facet normal -9.398351e-001  2.850960e-001  1.882291e-001
    outer loop
      vertex -2.694802e-001  1.144355e-001  7.399524e-001
      vertex -2.978921e-001  6.056262e-002  6.796875e-001
      vertex -2.865092e-001  5.829841e-002  7.399524e-001
    endloop
  endfacet
  facet normal -9.773960e-001  9.626533e-002  1.882291e-001
    outer loop
      vertex -2.865092e-001  5.829841e-002  7.399524e-001
      vertex -2.978921e-001  6.056262e-002  6.796875e-001
      vertex -3.038651e-001 -8.223685e-005  6.796875e-001
    endloop
  endfacet
  facet normal -9.773960e-001  9.626525e-002  1.882291e-001
    outer loop
      vertex -2.865092e-001  5.829841e-002  7.399524e-001
      vertex -3.038651e-001 -8.223685e-005  6.796875e-001
      vertex -2.922592e-001 -8.223685e-005  7.399524e-001
    endloop
  endfacet
  facet normal  0.000000e+000  0.000000e+000 -1.000000e+000
    outer loop
      vertex  6.990131e-003  2.795230e-001  0.000000e+000
      vertex  6.153841e-002  2.741505e-001  0.000000e+000
      vertex -4.755815e-002  2.741505e-001  0.000000e+000
    endloop
  endfacet
  facet normal  0.000000e+000  0.000000e+000 -1.000000e+000
    outer loop
      vertex  6.990131e-003 -2.796875e-001  0.000000e+000
      vertex -4.755815e-002 -2.743150e-001  0.000000e+000
      vertex  6.153841e-002 -2.743150e-001  0.000000e+000
    endloop
  endfacet
  facet normal  0.000000e+000  0.000000e+000 -1.000000e+000
    outer loop
      vertex  6.153841e-002 -2.743150e-001  0.000000e+000
      vertex -4.755815e-002 -2.743150e-001  0.000000e+000
      vertex -1.000102e-001 -2.584038e-001  0.000000e+000
    endloop
  endfacet
  facet normal  0.000000e+000  0.000000e+000 -1.000000e+000
    outer loop
      vertex  6.153841e-002 -2.743150e-001  0.000000e+000
      vertex -1.000102e-001 -2.584038e-001  0.000000e+000
      vertex  1.139904e-001 -2.584038e-001  0.000000e+000
    endloop
  endfacet
  facet normal  0.000000e+000  0.000000e+000 -1.000000e+000
    outer loop
      vertex  1.139904e-001 -2.584038e-001  0.000000e+000
      vertex -1.000102e-001 -2.584038e-001  0.000000e+000
      vertex -1.483502e-001 -2.325655e-001  0.000000e+000
    endloop
  endfacet
  facet normal  0.000000e+000  0.000000e+000 -1.000000e+000
    outer loop
      vertex  1.139904e-001 -2.584038e-001  0.000000e+000
      vertex -1.483502e-001 -2.325655e-001  0.000000e+000
      vertex  1.623305e-001 -2.325655e-001  0.000000e+000
    endloop
  endfacet
  facet normal  0.000000e+000  0.000000e+000 -1.000000e+000
    outer loop
      vertex  1.623305e-001 -2.325655e-001  0.000000e+000
      vertex -1.483502e-001 -2.325655e-001  0.000000e+000
      vertex -1.907206e-001 -1.977930e-001  0.000000e+000
    endloop
  endfacet
  facet normal  0.000000e+000  0.000000e+000 -1.000000e+000
    outer loop
      vertex  1.623305e-001 -2.325655e-001  0.000000e+000
      vertex -1.907206e-001 -1.977930e-001  0.000000e+000
      vertex  2.047009e-001 -1.977930e-001  0.000000e+000
    endloop
  endfacet
  facet normal  0.000000e+000  0.000000e+000 -1.000000e+000
    outer loop
      vertex  2.047009e-001 -1.977930e-001  0.000000e+000
      vertex -1.907206e-001 -1.977930e-001  0.000000e+000
      vertex -2.254931e-001 -1.554226e-001  0.000000e+000
    endloop
  endfacet
  facet normal  0.000000e+000  0.000000e+000 -1.000000e+000
    outer loop
      vertex  2.047009e-001 -1.977930e-001  0.000000e+000
      vertex -2.254931e-001 -1.554226e-001  0.000000e+000
      vertex  2.394734e-001 -1.554226e-001  0.000000e+000
    endloop
  endfacet
  facet normal  0.000000e+000  0.000000e+000 -1.000000e+000
    outer loop
      vertex  2.394734e-001 -1.554226e-001  0.000000e+000
      vertex -2.254931e-001 -1.554226e-001  0.000000e+000
      vertex -2.513314e-001 -1.070825e-001  0.000000e+000
    endloop
  endfacet
  facet normal  0.000000e+000  0.000000e+000 -1.000000e+000
    outer loop
      vertex  2.394734e-001 -1.554226e-001  0.000000e+000
      vertex -2.513314e-001 -1.070825e-001  0.000000e+000
      vertex  2.653117e-001 -1.070825e-001  0.000000e+000
    endloop
  endfacet
  facet normal  0.000000e+000  0.000000e+000 -1.000000e+000
    outer loop
      vertex  2.653117e-001 -1.070825e-001  0.000000e+000
      vertex -2.513314e-001 -1.070825e-001  0.000000e+000
      vertex -2.672426e-001 -5.463052e-002  0.000000e+000
    endloop
  endfacet
  facet normal  0.000000e+000  0.000000e+000 -1.000000e+000
    outer loop
      vertex  2.653117e-001 -1.070825e-001  0.000000e+000
      vertex -2.672426e-001 -5.463052e-002  0.000000e+000
      vertex  2.812229e-001 -5.463052e-002  0.000000e+000
    endloop
  endfacet
  facet normal  0.000000e+000  0.000000e+000 -1.000000e+000
    outer loop
      vertex  2.812229e-001 -5.463052e-002  0.000000e+000
      vertex -2.672426e-001 -5.463052e-002  0.000000e+000
      vertex -2.726151e-001 -8.223685e-005  0.000000e+000
    endloop
  endfacet
  facet normal  0.000000e+000  0.000000e+000 -1.000000e+000
    outer loop
      vertex  2.812229e-001 -5.463052e-002  0.000000e+000
      vertex -2.726151e-001 -8.223685e-005  0.000000e+000
      vertex  2.865954e-001 -8.223685e-005  0.000000e+000
    endloop
  endfacet
  facet normal  0.000000e+000  0.000000e+000 -1.000000e+000
    outer loop
      vertex  2.865954e-001 -8.223685e-005  0.000000e+000
      vertex -2.726151e-001 -8.223685e-005  0.000000e+000
      vertex -2.672426e-001  5.446604e-002  0.000000e+000
    endloop
  endfacet
  facet normal  0.000000e+000  0.000000e+000 -9.999999e-001
    outer loop
      vertex  2.865954e-001 -8.223685e-005  0.000000e+000
      vertex -2.672426e-001  5.446604e-002  0.000000e+000
      vertex  2.812229e-001  5.446604e-002  0.000000e+000
    endloop
  endfacet
  facet normal  0.000000e+000  0.000000e+000 -9.999999e-001
    outer loop
      vertex  2.812229e-001  5.446604e-002  0.000000e+000
      vertex -2.672426e-001  5.446604e-002  0.000000e+000
      vertex -2.513314e-001  1.069181e-001  0.000000e+000
    endloop
  endfacet
  facet normal  0.000000e+000  0.000000e+000 -1.000000e+000
    outer loop
      vertex  2.812229e-001  5.446604e-002  0.000000e+000
      vertex -2.513314e-001  1.069181e-001  0.000000e+000
      vertex  2.653117e-001  1.069181e-001  0.000000e+000
    endloop
  endfacet
  facet normal  0.000000e+000  0.000000e+000 -1.000000e+000
    outer loop
      vertex  2.653117e-001  1.069181e-001  0.000000e+000
      vertex -2.513314e-001  1.069181e-001  0.000000e+000
      vertex -2.254931e-001  1.552581e-001  0.000000e+000
    endloop
  endfacet
  facet normal  0.000000e+000  0.000000e+000 -1.000000e+000
    outer loop
      vertex  2.653117e-001  1.069181e-001  0.000000e+000
      vertex -2.254931e-001  1.552581e-001  0.000000e+000
      vertex  2.394734e-001  1.552581e-001  0.000000e+000
    endloop
  endfacet
  facet normal  0.000000e+000  0.000000e+000 -1.000000e+000
    outer loop
      vertex  2.394734e-001  1.552581e-001  0.000000e+000
      vertex -2.254931e-001  1.552581e-001  0.000000e+000
      vertex -1.907206e-001  1.976285e-001  0.000000e+000
    endloop
  endfacet
  facet normal  0.000000e+000  0.000000e+000 -1.000000e+000
    outer loop
      vertex  2.394734e-001  1.552581e-001  0.000000e+000
      vertex -1.907206e-001  1.976285e-001  0.000000e+000
      vertex  2.047009e-001  1.976285e-001  0.000000e+000
    endloop
  endfacet
  facet normal  0.000000e+000  0.000000e+000 -1.000000e+000
    outer loop
      vertex  2.047009e-001  1.976285e-001  0.000000e+000
      vertex -1.907206e-001  1.976285e-001  0.000000e+000
      vertex -1.483502e-001  2.324010e-001  0.000000e+000
    endloop
  endfacet
  facet normal  0.000000e+000  0.000000e+000 -1.000000e+000
    outer loop
      vertex  2.047009e-001  1.976285e-001  0.000000e+000
      vertex -1.483502e-001  2.324010e-001  0.000000e+000
      vertex  1.623305e-001  2.324010e-001  0.000000e+000
    endloop
  endfacet
  facet normal  0.000000e+000  0.000000e+000 -1.000000e+000
    outer loop
      vertex  1.623305e-001  2.324010e-001  0.000000e+000
      vertex -1.483502e-001  2.324010e-001  0.000000e+000
      vertex -1.000102e-001  2.582393e-001  0.000000e+000
    endloop
  endfacet
  facet normal  0.000000e+000  0.000000e+000 -1.000000e+000
    outer loop
      vertex  1.623305e-001  2.324010e-001  0.000000e+000
      vertex -1.000102e-001  2.582393e-001  0.000000e+000
      vertex  1.139904e-001  2.582393e-001  0.000000e+000
    endloop
  endfacet
  facet normal  0.000000e+000  0.000000e+000 -1.000000e+000
    outer loop
      vertex  1.139904e-001  2.582393e-001  0.000000e+000
      vertex -1.000102e-001  2.582393e-001  0.000000e+000
      vertex -4.755815e-002  2.741505e-001  0.000000e+000
    endloop
  endfacet
  facet normal  0.000000e+000  0.000000e+000 -1.000000e+000
    outer loop
      vertex  1.139904e-001  2.582393e-001  0.000000e+000
      vertex -4.755815e-002  2.741505e-001  0.000000e+000
      vertex  6.153841e-002  2.741505e-001  0.000000e+000
    endloop
  endfacet
  facet normal -6.947549e-002 -7.053981e-001 -7.053981e-001
    outer loop
      vertex  6.990131e-003 -3.109375e-001  3.125000e-002
      vertex -4.755815e-002 -2.743150e-001  0.000000e+000
      vertex  6.990131e-003 -2.796875e-001  0.000000e+000
    endloop
  endfacet
  facet normal  6.947548e-002 -7.053982e-001 -7.053982e-001
    outer loop
      vertex  6.990131e-003 -2.796875e-001  0.000000e+000
      vertex  6.763498e-002 -3.049645e-001  3.125000e-002
      vertex  6.990131e-003 -3.109375e-001  3.125000e-002
    endloop
  endfacet
  facet normal -4.496650e-001 -5.479185e-001 -7.053982e-001
    outer loop
      vertex -1.483502e-001 -2.325655e-001  0.000000e+000
      vertex -1.657118e-001 -2.585489e-001  3.125000e-002
      vertex -1.907206e-001 -1.977930e-001  0.000000e+000
    endloop
  endfacet
  facet normal -4.496652e-001 -5.479186e-001 -7.053981e-001
    outer loop
      vertex -1.907206e-001 -1.977930e-001  0.000000e+000
      vertex -1.657118e-001 -2.585489e-001  3.125000e-002
      vertex -2.128177e-001 -2.198901e-001  3.125000e-002
    endloop
  endfacet
  facet normal -5.479187e-001 -4.496651e-001 -7.053981e-001
    outer loop
      vertex -1.907206e-001 -1.977930e-001  0.000000e+000
      vertex -2.128177e-001 -2.198901e-001  3.125000e-002
      vertex -2.254931e-001 -1.554226e-001  0.000000e+000
    endloop
  endfacet
  facet normal -5.479184e-001 -4.496652e-001 -7.053983e-001
    outer loop
      vertex -2.254931e-001 -1.554226e-001  0.000000e+000
      vertex -2.128177e-001 -2.198901e-001  3.125000e-002
      vertex -2.514766e-001 -1.727842e-001  3.125000e-002
    endloop
  endfacet
  facet normal -6.251157e-001 -3.341313e-001 -7.053983e-001
    outer loop
      vertex -2.254931e-001 -1.554226e-001  0.000000e+000
      vertex -2.514766e-001 -1.727842e-001  3.125000e-002
      vertex -2.513314e-001 -1.070825e-001  0.000000e+000
    endloop
  endfacet
  facet normal -6.251157e-001 -3.341312e-001 -7.053982e-001
    outer loop
      vertex -2.513314e-001 -1.070825e-001  0.000000e+000
      vertex -2.514766e-001 -1.727842e-001  3.125000e-002
      vertex -2.802027e-001 -1.190414e-001  3.125000e-002
    endloop
  endfacet
  facet normal -6.782901e-001 -2.057569e-001 -7.053982e-001
    outer loop
      vertex -2.513314e-001 -1.070825e-001  0.000000e+000
      vertex -2.802027e-001 -1.190414e-001  3.125000e-002
      vertex -2.672426e-001 -5.463052e-002  0.000000e+000
    endloop
  endfacet
  facet normal -6.782901e-001 -2.057569e-001 -7.053982e-001
    outer loop
      vertex -2.672426e-001 -5.463052e-002  0.000000e+000
      vertex -2.802027e-001 -1.190414e-001  3.125000e-002
      vertex -2.978921e-001 -6.072709e-002  3.125000e-002
    endloop
  endfacet
  facet normal -7.053981e-001 -6.947587e-002 -7.053982e-001
    outer loop
      vertex -2.672426e-001 -5.463052e-002  0.000000e+000
      vertex -2.978921e-001 -6.072709e-002  3.125000e-002
      vertex -2.726151e-001 -8.223685e-005  0.000000e+000
    endloop
  endfacet
  facet normal -7.053981e-001 -6.947582e-002 -7.053981e-001
    outer loop
      vertex -2.726151e-001 -8.223685e-005  0.000000e+000
      vertex -2.978921e-001 -6.072709e-002  3.125000e-002
      vertex -3.038651e-001 -8.223685e-005  3.125000e-002
    endloop
  endfacet
  facet normal  4.496651e-001 -5.479186e-001 -7.053981e-001
    outer loop
      vertex  1.796921e-001 -2.585489e-001  3.125000e-002
      vertex  1.623305e-001 -2.325655e-001  0.000000e+000
      vertex  2.267980e-001 -2.198901e-001  3.125000e-002
    endloop
  endfacet
  facet normal  4.496651e-001 -5.479184e-001 -7.053981e-001
    outer loop
      vertex  2.267980e-001 -2.198901e-001  3.125000e-002
      vertex  1.623305e-001 -2.325655e-001  0.000000e+000
      vertex  2.047009e-001 -1.977930e-001  0.000000e+000
    endloop
  endfacet
  facet normal  5.479186e-001 -4.496650e-001 -7.053982e-001
    outer loop
      vertex  2.267980e-001 -2.198901e-001  3.125000e-002
      vertex  2.047009e-001 -1.977930e-001  0.000000e+000
      vertex  2.654568e-001 -1.727842e-001  3.125000e-002
    endloop
  endfacet
  facet normal  5.479186e-001 -4.496653e-001 -7.053980e-001
    outer loop
      vertex  2.654568e-001 -1.727842e-001  3.125000e-002
      vertex  2.047009e-001 -1.977930e-001  0.000000e+000
      vertex  2.394734e-001 -1.554226e-001  0.000000e+000
    endloop
  endfacet
  facet normal  6.251158e-001 -3.341316e-001 -7.053980e-001
    outer loop
      vertex  2.654568e-001 -1.727842e-001  3.125000e-002
      vertex  2.394734e-001 -1.554226e-001  0.000000e+000
      vertex  2.941830e-001 -1.190414e-001  3.125000e-002
    endloop
  endfacet
  facet normal  6.251157e-001 -3.341313e-001 -7.053982e-001
    outer loop
      vertex  2.941830e-001 -1.190414e-001  3.125000e-002
      vertex  2.394734e-001 -1.554226e-001  0.000000e+000
      vertex  2.653117e-001 -1.070825e-001  0.000000e+000
    endloop
  endfacet
  facet normal  6.782901e-001 -2.057569e-001 -7.053982e-001
    outer loop
      vertex  2.941830e-001 -1.190414e-001  3.125000e-002
      vertex  2.653117e-001 -1.070825e-001  0.000000e+000
      vertex  3.118724e-001 -6.072709e-002  3.125000e-002
    endloop
  endfacet
  facet normal  6.782901e-001 -2.057569e-001 -7.053982e-001
    outer loop
      vertex  3.118724e-001 -6.072709e-002  3.125000e-002
      vertex  2.653117e-001 -1.070825e-001  0.000000e+000
      vertex  2.812229e-001 -5.463052e-002  0.000000e+000
    endloop
  endfacet
  facet normal  7.053981e-001 -6.947582e-002 -7.053983e-001
    outer loop
      vertex  3.118724e-001 -6.072709e-002  3.125000e-002
      vertex  2.812229e-001 -5.463052e-002  0.000000e+000
      vertex  3.178454e-001 -8.223685e-005  3.125000e-002
    endloop
  endfacet
  facet normal  7.053981e-001 -6.947587e-002 -7.053981e-001
    outer loop
      vertex  3.178454e-001 -8.223685e-005  3.125000e-002
      vertex  2.812229e-001 -5.463052e-002  0.000000e+000
      vertex  2.865954e-001 -8.223685e-005  0.000000e+000
    endloop
  endfacet
  facet normal -3.341312e-001 -6.251158e-001 -7.053983e-001
    outer loop
      vertex -1.657118e-001 -2.585489e-001  3.125000e-002
      vertex -1.483502e-001 -2.325655e-001  0.000000e+000
      vertex -1.119690e-001 -2.872750e-001  3.125000e-002
    endloop
  endfacet
  facet normal -3.341312e-001 -6.251158e-001 -7.053982e-001
    outer loop
      vertex -1.119690e-001 -2.872750e-001  3.125000e-002
      vertex -1.483502e-001 -2.325655e-001  0.000000e+000
      vertex -1.000102e-001 -2.584038e-001  0.000000e+000
    endloop
  endfacet
  facet normal -2.057572e-001 -6.782900e-001 -7.053982e-001
    outer loop
      vertex -1.119690e-001 -2.872750e-001  3.125000e-002
      vertex -1.000102e-001 -2.584038e-001  0.000000e+000
      vertex -5.365472e-002 -3.049645e-001  3.125000e-002
    endloop
  endfacet
  facet normal -2.057572e-001 -6.782901e-001 -7.053983e-001
    outer loop
      vertex -5.365472e-002 -3.049645e-001  3.125000e-002
      vertex -1.000102e-001 -2.584038e-001  0.000000e+000
      vertex -4.755815e-002 -2.743150e-001  0.000000e+000
    endloop
  endfacet
  facet normal -6.947548e-002 -7.053981e-001 -7.053982e-001
    outer loop
      vertex -5.365472e-002 -3.049645e-001  3.125000e-002
      vertex -4.755815e-002 -2.743150e-001  0.000000e+000
      vertex  6.990131e-003 -3.109375e-001  3.125000e-002
    endloop
  endfacet
  facet normal  3.341312e-001 -6.251159e-001 -7.053981e-001
    outer loop
      vertex  1.623305e-001 -2.325655e-001  0.000000e+000
      vertex  1.796921e-001 -2.585489e-001  3.125000e-002
      vertex  1.139904e-001 -2.584038e-001  0.000000e+000
    endloop
  endfacet
  facet normal  3.341312e-001 -6.251157e-001 -7.053982e-001
    outer loop
      vertex  1.139904e-001 -2.584038e-001  0.000000e+000
      vertex  1.796921e-001 -2.585489e-001  3.125000e-002
      vertex  1.259493e-001 -2.872750e-001  3.125000e-002
    endloop
  endfacet
  facet normal  2.057572e-001 -6.782900e-001 -7.053983e-001
    outer loop
      vertex  1.139904e-001 -2.584038e-001  0.000000e+000
      vertex  1.259493e-001 -2.872750e-001  3.125000e-002
      vertex  6.153841e-002 -2.743150e-001  0.000000e+000
    endloop
  endfacet
  facet normal  2.057572e-001 -6.782901e-001 -7.053982e-001
    outer loop
      vertex  6.153841e-002 -2.743150e-001  0.000000e+000
      vertex  1.259493e-001 -2.872750e-001  3.125000e-002
      vertex  6.763498e-002 -3.049645e-001  3.125000e-002
    endloop
  endfacet
  facet normal  6.947549e-002 -7.053981e-001 -7.053982e-001
    outer loop
      vertex  6.153841e-002 -2.743150e-001  0.000000e+000
      vertex  6.763498e-002 -3.049645e-001  3.125000e-002
      vertex  6.990131e-003 -2.796875e-001  0.000000e+000
    endloop
  endfacet
  facet normal  6.947549e-002  7.053981e-001 -7.053981e-001
    outer loop
      vertex  6.990131e-003  3.107730e-001  3.125000e-002
      vertex  6.153841e-002  2.741505e-001  0.000000e+000
      vertex  6.990131e-003  2.795230e-001  0.000000e+000
    endloop
  endfacet
  facet normal -6.947548e-002  7.053982e-001 -7.053982e-001
    outer loop
      vertex  6.990131e-003  2.795230e-001  0.000000e+000
      vertex -5.365472e-002  3.048000e-001  3.125000e-002
      vertex  6.990131e-003  3.107730e-001  3.125000e-002
    endloop
  endfacet
  facet normal  4.496652e-001  5.479186e-001 -7.053981e-001
    outer loop
      vertex  1.623305e-001  2.324010e-001  0.000000e+000
      vertex  1.796921e-001  2.583845e-001  3.125000e-002
      vertex  2.047009e-001  1.976285e-001  0.000000e+000
    endloop
  endfacet
  facet normal  4.496651e-001  5.479185e-001 -7.053982e-001
    outer loop
      vertex  2.047009e-001  1.976285e-001  0.000000e+000
      vertex  1.796921e-001  2.583845e-001  3.125000e-002
      vertex  2.267980e-001  2.197256e-001  3.125000e-002
    endloop
  endfacet
  facet normal  5.479184e-001  4.496651e-001 -7.053982e-001
    outer loop
      vertex  2.047009e-001  1.976285e-001  0.000000e+000
      vertex  2.267980e-001  2.197256e-001  3.125000e-002
      vertex  2.394734e-001  1.552581e-001  0.000000e+000
    endloop
  endfacet
  facet normal  5.479186e-001  4.496651e-001 -7.053981e-001
    outer loop
      vertex  2.394734e-001  1.552581e-001  0.000000e+000
      vertex  2.267980e-001  2.197256e-001  3.125000e-002
      vertex  2.654568e-001  1.726197e-001  3.125000e-002
    endloop
  endfacet
  facet normal  6.251158e-001  3.341314e-001 -7.053981e-001
    outer loop
      vertex  2.394734e-001  1.552581e-001  0.000000e+000
      vertex  2.654568e-001  1.726197e-001  3.125000e-002
      vertex  2.653117e-001  1.069181e-001  0.000000e+000
    endloop
  endfacet
  facet normal  6.251157e-001  3.341315e-001 -7.053981e-001
    outer loop
      vertex  2.653117e-001  1.069181e-001  0.000000e+000
      vertex  2.654568e-001  1.726197e-001  3.125000e-002
      vertex  2.941830e-001  1.188769e-001  3.125000e-002
    endloop
  endfacet
  facet normal  6.782902e-001  2.057569e-001 -7.053981e-001
    outer loop
      vertex  2.653117e-001  1.069181e-001  0.000000e+000
      vertex  2.941830e-001  1.188769e-001  3.125000e-002
      vertex  2.812229e-001  5.446604e-002  0.000000e+000
    endloop
  endfacet
  facet normal  6.782901e-001  2.057569e-001 -7.053983e-001
    outer loop
      vertex  2.812229e-001  5.446604e-002  0.000000e+000
      vertex  2.941830e-001  1.188769e-001  3.125000e-002
      vertex  3.118724e-001  6.056262e-002  3.125000e-002
    endloop
  endfacet
  facet normal  7.053981e-001  6.947587e-002 -7.053982e-001
    outer loop
      vertex  2.812229e-001  5.446604e-002  0.000000e+000
      vertex  3.118724e-001  6.056262e-002  3.125000e-002
      vertex  2.865954e-001 -8.223685e-005  0.000000e+000
    endloop
  endfacet
  facet normal  7.053981e-001  6.947582e-002 -7.053981e-001
    outer loop
      vertex  2.865954e-001 -8.223685e-005  0.000000e+000
      vertex  3.118724e-001  6.056262e-002  3.125000e-002
      vertex  3.178454e-001 -8.223685e-005  3.125000e-002
    endloop
  endfacet
  facet normal -4.496652e-001  5.479184e-001 -7.053983e-001
    outer loop
      vertex -1.657118e-001  2.583845e-001  3.125000e-002
      vertex -1.483502e-001  2.324010e-001  0.000000e+000
      vertex -2.128177e-001  2.197256e-001  3.125000e-002
    endloop
  endfacet
  facet normal -4.496651e-001  5.479187e-001 -7.053981e-001
    outer loop
      vertex -2.128177e-001  2.197256e-001  3.125000e-002
      vertex -1.483502e-001  2.324010e-001  0.000000e+000
      vertex -1.907206e-001  1.976285e-001  0.000000e+000
    endloop
  endfacet
  facet normal -5.479184e-001  4.496653e-001 -7.053981e-001
    outer loop
      vertex -2.128177e-001  2.197256e-001  3.125000e-002
      vertex -1.907206e-001  1.976285e-001  0.000000e+000
      vertex -2.514766e-001  1.726197e-001  3.125000e-002
    endloop
  endfacet
  facet normal -5.479184e-001  4.496650e-001 -7.053984e-001
    outer loop
      vertex -2.514766e-001  1.726197e-001  3.125000e-002
      vertex -1.907206e-001  1.976285e-001  0.000000e+000
      vertex -2.254931e-001  1.552581e-001  0.000000e+000
    endloop
  endfacet
  facet normal -6.251157e-001  3.341311e-001 -7.053984e-001
    outer loop
      vertex -2.514766e-001  1.726197e-001  3.125000e-002
      vertex -2.254931e-001  1.552581e-001  0.000000e+000
      vertex -2.802027e-001  1.188769e-001  3.125000e-002
    endloop
  endfacet
  facet normal -6.251157e-001  3.341314e-001 -7.053981e-001
    outer loop
      vertex -2.802027e-001  1.188769e-001  3.125000e-002
      vertex -2.254931e-001  1.552581e-001  0.000000e+000
      vertex -2.513314e-001  1.069181e-001  0.000000e+000
    endloop
  endfacet
  facet normal -6.782901e-001  2.057569e-001 -7.053982e-001
    outer loop
      vertex -2.802027e-001  1.188769e-001  3.125000e-002
      vertex -2.513314e-001  1.069181e-001  0.000000e+000
      vertex -2.978921e-001  6.056262e-002  3.125000e-002
    endloop
  endfacet
  facet normal -6.782901e-001  2.057569e-001 -7.053982e-001
    outer loop
      vertex -2.978921e-001  6.056262e-002  3.125000e-002
      vertex -2.513314e-001  1.069181e-001  0.000000e+000
      vertex -2.672426e-001  5.446604e-002  0.000000e+000
    endloop
  endfacet
  facet normal -7.053981e-001  6.947582e-002 -7.053983e-001
    outer loop
      vertex -2.978921e-001  6.056262e-002  3.125000e-002
      vertex -2.672426e-001  5.446604e-002  0.000000e+000
      vertex -3.038651e-001 -8.223685e-005  3.125000e-002
    endloop
  endfacet
  facet normal -7.053981e-001  6.947588e-002 -7.053981e-001
    outer loop
      vertex -3.038651e-001 -8.223685e-005  3.125000e-002
      vertex -2.672426e-001  5.446604e-002  0.000000e+000
      vertex -2.726151e-001 -8.223685e-005  0.000000e+000
    endloop
  endfacet
  facet normal  3.341313e-001  6.251158e-001 -7.053981e-001
    outer loop
      vertex  1.796921e-001  2.583845e-001  3.125000e-002
      vertex  1.623305e-001  2.324010e-001  0.000000e+000
      vertex  1.259493e-001  2.871106e-001  3.125000e-002
    endloop
  endfacet
  facet normal  3.341312e-001  6.251158e-001 -7.053982e-001
    outer loop
      vertex  1.259493e-001  2.871106e-001  3.125000e-002
      vertex  1.623305e-001  2.324010e-001  0.000000e+000
      vertex  1.139904e-001  2.582393e-001  0.000000e+000
    endloop
  endfacet
  facet normal  2.057572e-001  6.782900e-001 -7.053982e-001
    outer loop
      vertex  1.259493e-001  2.871106e-001  3.125000e-002
      vertex  1.139904e-001  2.582393e-001  0.000000e+000
      vertex  6.763498e-002  3.048000e-001  3.125000e-002
    endloop
  endfacet
  facet normal  2.057572e-001  6.782900e-001 -7.053981e-001
    outer loop
      vertex  6.763498e-002  3.048000e-001  3.125000e-002
      vertex  1.139904e-001  2.582393e-001  0.000000e+000
      vertex  6.153841e-002  2.741505e-001  0.000000e+000
    endloop
  endfacet
  facet normal  6.947548e-002  7.053981e-001 -7.053982e-001
    outer loop
      vertex  6.763498e-002  3.048000e-001  3.125000e-002
      vertex  6.153841e-002  2.741505e-001  0.000000e+000
      vertex  6.990131e-003  3.107730e-001  3.125000e-002
    endloop
  endfacet
  facet normal -3.341312e-001  6.251158e-001 -7.053982e-001
    outer loop
      vertex -1.483502e-001  2.324010e-001  0.000000e+000
      vertex -1.657118e-001  2.583845e-001  3.125000e-002
      vertex -1.000102e-001  2.582393e-001  0.000000e+000
    endloop
  endfacet
  facet normal -3.341312e-001  6.251158e-001 -7.053982e-001
    outer loop
      vertex -1.000102e-001  2.582393e-001  0.000000e+000
      vertex -1.657118e-001  2.583845e-001  3.125000e-002
      vertex -1.119690e-001  2.871106e-001  3.125000e-002
    endloop
  endfacet
  facet normal -2.057572e-001  6.782900e-001 -7.053982e-001
    outer loop
      vertex -1.000102e-001  2.582393e-001  0.000000e+000
      vertex -1.119690e-001  2.871106e-001  3.125000e-002
      vertex -4.755815e-002  2.741505e-001  0.000000e+000
    endloop
  endfacet
  facet normal -2.057572e-001  6.782901e-001 -7.053983e-001
    outer loop
      vertex -4.755815e-002  2.741505e-001  0.000000e+000
      vertex -1.119690e-001  2.871106e-001  3.125000e-002
      vertex -5.365472e-002  3.048000e-001  3.125000e-002
    endloop
  endfacet
  facet normal -6.947549e-002  7.053981e-001 -7.053982e-001
    outer loop
      vertex -4.755815e-002  2.741505e-001  0.000000e+000
      vertex -5.365472e-002  3.048000e-001  3.125000e-002
      vertex  6.990131e-003  2.795230e-001  0.000000e+000
    endloop
  endfacet
  facet normal  0.000000e+000  0.000000e+000  1.000000e+000
    outer loop
      vertex -5.060489e-002  2.894756e-001  7.500000e-001
      vertex  6.458790e-002  2.894750e-001  7.500000e-001
      vertex  6.991530e-003  2.951480e-001  7.500000e-001
    endloop
  endfacet
  facet normal  0.000000e+000  0.000000e+000  1.000000e+000
    outer loop
      vertex  6.458790e-002  2.894750e-001  7.500000e-001
      vertex -5.060489e-002  2.894756e-001  7.500000e-001
      vertex  1.199708e-001  2.726746e-001  7.500000e-001
    endloop
  endfacet
  facet normal  0.000000e+000  0.000000e+000  9.999999e-001
    outer loop
      vertex  1.199708e-001  2.726746e-001  7.500000e-001
      vertex -5.060489e-002  2.894756e-001  7.500000e-001
      vertex -1.059880e-001  2.726756e-001  7.500000e-001
    endloop
  endfacet
  facet normal  0.000000e+000  0.000000e+000  1.000000e+000
    outer loop
      vertex  1.199708e-001  2.726746e-001  7.500000e-001
      vertex -1.059880e-001  2.726756e-001  7.500000e-001
      vertex  1.710120e-001  2.453923e-001  7.500000e-001
    endloop
  endfacet
  facet normal  0.000000e+000  0.000000e+000  1.000000e+000
    outer loop
      vertex  1.710120e-001  2.453923e-001  7.500000e-001
      vertex -1.059880e-001  2.726756e-001  7.500000e-001
      vertex -1.570294e-001  2.453938e-001  7.500000e-001
    endloop
  endfacet
  facet normal  0.000000e+000  0.000000e+000  1.000000e+000
    outer loop
      vertex  1.710120e-001  2.453923e-001  7.500000e-001
      vertex -1.570294e-001  2.453938e-001  7.500000e-001
      vertex  2.157499e-001  2.086766e-001  7.500000e-001
    endloop
  endfacet
  facet normal  0.000000e+000  0.000000e+000  1.000000e+000
    outer loop
      vertex  2.157499e-001  2.086766e-001  7.500000e-001
      vertex -1.570294e-001  2.453938e-001  7.500000e-001
      vertex -2.017677e-001  2.086786e-001  7.500000e-001
    endloop
  endfacet
  facet normal  0.000000e+000  0.000000e+000  1.000000e+000
    outer loop
      vertex  2.157499e-001  2.086766e-001  7.500000e-001
      vertex -2.017677e-001  2.086786e-001  7.500000e-001
      vertex  2.524654e-001  1.639385e-001  7.500000e-001
    endloop
  endfacet
  facet normal  0.000000e+000  0.000000e+000  1.000000e+000
    outer loop
      vertex  2.524654e-001  1.639385e-001  7.500000e-001
      vertex -2.017677e-001  2.086786e-001  7.500000e-001
      vertex -2.384836e-001  1.639408e-001  7.500000e-001
    endloop
  endfacet
  facet normal  0.000000e+000  0.000000e+000  1.000000e+000
    outer loop
      vertex  2.524654e-001  1.639385e-001  7.500000e-001
      vertex -2.384836e-001  1.639408e-001  7.500000e-001
      vertex  2.797475e-001  1.128972e-001  7.500000e-001
    endloop
  endfacet
  facet normal  0.000000e+000  0.000000e+000  1.000000e+000
    outer loop
      vertex  2.797475e-001  1.128972e-001  7.500000e-001
      vertex -2.384836e-001  1.639408e-001  7.500000e-001
      vertex -2.657661e-001  1.128998e-001  7.500000e-001
    endloop
  endfacet
  facet normal  0.000000e+000  0.000000e+000  1.000000e+000
    outer loop
      vertex  2.797475e-001  1.128972e-001  7.500000e-001
      vertex -2.657661e-001  1.128998e-001  7.500000e-001
      vertex  2.965477e-001  5.751416e-002  7.500000e-001
    endloop
  endfacet
  facet normal  0.000000e+000  0.000000e+000  1.000000e+000
    outer loop
      vertex  2.965477e-001  5.751416e-002  7.500000e-001
      vertex -2.657661e-001  1.128998e-001  7.500000e-001
      vertex -2.825668e-001  5.751690e-002  7.500000e-001
    endloop
  endfacet
  facet normal  0.000000e+000  0.000000e+000  1.000000e+000
    outer loop
      vertex  2.965477e-001  5.751416e-002  7.500000e-001
      vertex -2.825668e-001  5.751690e-002  7.500000e-001
      vertex  3.022204e-001 -8.223685e-005  7.500000e-001
    endloop
  endfacet
  facet normal  0.000000e+000  0.000000e+000  1.000000e+000
    outer loop
      vertex  3.022204e-001 -8.223685e-005  7.500000e-001
      vertex -2.825668e-001  5.751690e-002  7.500000e-001
      vertex -2.882401e-001 -7.943955e-005  7.500000e-001
    endloop
  endfacet
  facet normal  0.000000e+000  0.000000e+000  1.000000e+000
    outer loop
      vertex  3.022204e-001 -8.223685e-005  7.500000e-001
      vertex -2.882401e-001 -7.943955e-005  7.500000e-001
      vertex  2.965476e-001 -5.767880e-002  7.500000e-001
    endloop
  endfacet
  facet normal  0.000000e+000  0.000000e+000  1.000000e+000
    outer loop
      vertex  2.965476e-001 -5.767880e-002  7.500000e-001
      vertex -2.882401e-001 -7.943955e-005  7.500000e-001
      vertex -2.825674e-001 -5.767880e-002  7.500000e-001
    endloop
  endfacet
  facet normal  -0.000000e+000  0.000000e+000  1.000000e+000
    outer loop
      vertex  2.965476e-001 -5.767880e-002  7.500000e-001
      vertex -2.825674e-001 -5.767880e-002  7.500000e-001
      vertex  2.797473e-001 -1.130620e-001  7.500000e-001
    endloop
  endfacet
  facet normal  0.000000e+000  0.000000e+000  1.000000e+000
    outer loop
      vertex  2.797473e-001 -1.130620e-001  7.500000e-001
      vertex -2.825674e-001 -5.767880e-002  7.500000e-001
      vertex -2.657671e-001 -1.130620e-001  7.500000e-001
    endloop
  endfacet
  facet normal  -0.000000e+000  0.000000e+000  1.000000e+000
    outer loop
      vertex  2.797473e-001 -1.130620e-001  7.500000e-001
      vertex -2.657671e-001 -1.130620e-001  7.500000e-001
      vertex  2.524651e-001 -1.641034e-001  7.500000e-001
    endloop
  endfacet
  facet normal  0.000000e+000  0.000000e+000  1.000000e+000
    outer loop
      vertex  2.524651e-001 -1.641034e-001  7.500000e-001
      vertex -2.657671e-001 -1.130620e-001  7.500000e-001
      vertex -2.384849e-001 -1.641034e-001  7.500000e-001
    endloop
  endfacet
  facet normal  -0.000000e+000  0.000000e+000  1.000000e+000
    outer loop
      vertex  2.524651e-001 -1.641034e-001  7.500000e-001
      vertex -2.384849e-001 -1.641034e-001  7.500000e-001
      vertex  2.157495e-001 -2.088416e-001  7.500000e-001
    endloop
  endfacet
  facet normal  0.000000e+000  0.000000e+000  1.000000e+000
    outer loop
      vertex  2.157495e-001 -2.088416e-001  7.500000e-001
      vertex -2.384849e-001 -1.641034e-001  7.500000e-001
      vertex -2.017692e-001 -2.088416e-001  7.500000e-001
    endloop
  endfacet
  facet normal  -0.000000e+000  0.000000e+000  1.000000e+000
    outer loop
      vertex  2.157495e-001 -2.088416e-001  7.500000e-001
      vertex -2.017692e-001 -2.088416e-001  7.500000e-001
      vertex  1.710113e-001 -2.455572e-001  7.500000e-001
    endloop
  endfacet
  facet normal  0.000000e+000  0.000000e+000  1.000000e+000
    outer loop
      vertex  1.710113e-001 -2.455572e-001  7.500000e-001
      vertex -2.017692e-001 -2.088416e-001  7.500000e-001
      vertex -1.570310e-001 -2.455572e-001  7.500000e-001
    endloop
  endfacet
  facet normal  -0.000000e+000  0.000000e+000  1.000000e+000
    outer loop
      vertex  1.710113e-001 -2.455572e-001  7.500000e-001
      vertex -1.570310e-001 -2.455572e-001  7.500000e-001
      vertex  1.199699e-001 -2.728394e-001  7.500000e-001
    endloop
  endfacet
  facet normal  0.000000e+000  0.000000e+000  9.999999e-001
    outer loop
      vertex  1.199699e-001 -2.728394e-001  7.500000e-001
      vertex -1.570310e-001 -2.455572e-001  7.500000e-001
      vertex -1.059896e-001 -2.728394e-001  7.500000e-001
    endloop
  endfacet
  facet normal  -0.000000e+000  0.000000e+000  1.000000e+000
    outer loop
      vertex  1.199699e-001 -2.728394e-001  7.500000e-001
      vertex -1.059896e-001 -2.728394e-001  7.500000e-001
      vertex  6.458670e-002 -2.896397e-001  7.500000e-001
    endloop
  endfacet
  facet normal  0.000000e+000  0.000000e+000  1.000000e+000
    outer loop
      vertex  6.458670e-002 -2.896397e-001  7.500000e-001
      vertex -1.059896e-001 -2.728394e-001  7.500000e-001
      vertex -5.060644e-002 -2.896397e-001  7.500000e-001
    endloop
  endfacet
  facet normal  -0.000000e+000  0.000000e+000  1.000000e+000
    outer loop
      vertex  6.458670e-002 -2.896397e-001  7.500000e-001
      vertex -5.060644e-002 -2.896397e-001  7.500000e-001
      vertex  6.990131e-003 -2.953125e-001  7.500000e-001
    endloop
  endfacet
endsolid CATIA STL
