solid CATIA STL
  facet normal -1.110223e-016  1.000000e+000 -6.245005e-017
    outer loop
      vertex -7.500000e-001  0.000000e+000 -5.468750e-002
      vertex -7.500000e-001  6.414482e-018  4.802632e-002
      vertex  7.500000e-001  1.665335e-016 -5.468750e-002
    endloop
  endfacet
  facet normal -1.110223e-016  1.000000e+000 -6.245010e-017
    outer loop
      vertex  7.500000e-001  1.665335e-016 -5.468750e-002
      vertex -7.500000e-001  6.414482e-018  4.802632e-002
      vertex  7.500000e-001  1.729479e-016  4.802632e-002
    endloop
  endfacet
  facet normal -1.000000e+000  0.000000e+000  0.000000e+000
    outer loop
      vertex -7.500000e-001  0.000000e+000 -5.468750e-002
      vertex -7.500000e-001 -1.562500e-002 -5.468750e-002
      vertex -7.500000e-001  6.414482e-018  4.802632e-002
    endloop
  endfacet
  facet normal -1.000000e+000  -0.000000e+000  0.000000e+000
    outer loop
      vertex -7.500000e-001  6.414482e-018  4.802632e-002
      vertex -7.500000e-001 -1.562500e-002 -5.468750e-002
      vertex -7.500000e-001 -1.562500e-002  5.583882e-002
    endloop
  endfacet
  facet normal -1.000000e+000  0.000000e+000  0.000000e+000
    outer loop
      vertex -7.500000e-001  6.414482e-018  4.802632e-002
      vertex -7.500000e-001 -1.562500e-002  5.583882e-002
      vertex -7.500000e-001 -7.812500e-003  5.583882e-002
    endloop
  endfacet
  facet normal  0.000000e+000  0.000000e+000  1.000000e+000
    outer loop
      vertex  7.500000e-001 -1.562500e-002  5.583882e-002
      vertex  7.500000e-001 -7.812500e-003  5.583882e-002
      vertex -7.500000e-001 -1.562500e-002  5.583882e-002
    endloop
  endfacet
  facet normal  0.000000e+000  0.000000e+000  1.000000e+000
    outer loop
      vertex -7.500000e-001 -1.562500e-002  5.583882e-002
      vertex  7.500000e-001 -7.812500e-003  5.583882e-002
      vertex -7.500000e-001 -7.812500e-003  5.583882e-002
    endloop
  endfacet
  facet normal  1.000000e+000  0.000000e+000  0.000000e+000
    outer loop
      vertex  7.500000e-001 -1.562500e-002 -5.468750e-002
      vertex  7.500000e-001  1.665335e-016 -5.468750e-002
      vertex  7.500000e-001 -1.562500e-002  5.583882e-002
    endloop
  endfacet
  facet normal  1.000000e+000  0.000000e+000  0.000000e+000
    outer loop
      vertex  7.500000e-001 -1.562500e-002  5.583882e-002
      vertex  7.500000e-001  1.665335e-016 -5.468750e-002
      vertex  7.500000e-001  1.729479e-016  4.802632e-002
    endloop
  endfacet
  facet normal  1.000000e+000  0.000000e+000  0.000000e+000
    outer loop
      vertex  7.500000e-001 -1.562500e-002  5.583882e-002
      vertex  7.500000e-001  1.729479e-016  4.802632e-002
      vertex  7.500000e-001 -7.812500e-003  5.583882e-002
    endloop
  endfacet
  facet normal  0.000000e+000  7.071068e-001  7.071068e-001
    outer loop
      vertex  7.500000e-001 -7.812500e-003  5.583882e-002
      vertex  7.500000e-001  1.729479e-016  4.802632e-002
      vertex -7.500000e-001 -7.812500e-003  5.583882e-002
    endloop
  endfacet
  facet normal  0.000000e+000  7.071068e-001  7.071068e-001
    outer loop
      vertex -7.500000e-001 -7.812500e-003  5.583882e-002
      vertex  7.500000e-001  1.729479e-016  4.802632e-002
      vertex -7.500000e-001  6.414482e-018  4.802632e-002
    endloop
  endfacet
  facet normal  0.000000e+000 -1.000000e+000  0.000000e+000
    outer loop
      vertex -7.500000e-001 -1.562500e-002 -5.468750e-002
      vertex  7.500000e-001 -1.562500e-002 -5.468750e-002
      vertex -7.500000e-001 -1.562500e-002  5.583882e-002
    endloop
  endfacet
  facet normal  0.000000e+000 -1.000000e+000  0.000000e+000
    outer loop
      vertex -7.500000e-001 -1.562500e-002  5.583882e-002
      vertex  7.500000e-001 -1.562500e-002 -5.468750e-002
      vertex  7.500000e-001 -1.562500e-002  5.583882e-002
    endloop
  endfacet
  facet normal  0.000000e+000  0.000000e+000 -1.000000e+000
    outer loop
      vertex -7.500000e-001 -1.562500e-002 -5.468750e-002
      vertex -7.500000e-001  0.000000e+000 -5.468750e-002
      vertex  7.500000e-001 -1.562500e-002 -5.468750e-002
    endloop
  endfacet
  facet normal  0.000000e+000  0.000000e+000 -1.000000e+000
    outer loop
      vertex  7.500000e-001 -1.562500e-002 -5.468750e-002
      vertex -7.500000e-001  0.000000e+000 -5.468750e-002
      vertex  7.500000e-001  1.665335e-016 -5.468750e-002
    endloop
  endfacet
endsolid CATIA STL
