solid CATIA STL
  facet normal -1.125547e-016  9.999999e-001 -5.369673e-017
    outer loop
      vertex -5.829179e-001  3.630878e-017  5.876970e-001
      vertex -4.695129e-001  5.421576e-017  6.834704e-001
      vertex  4.695129e-001  1.599075e-016  6.834704e-001
    endloop
  endfacet
  facet normal -1.122565e-016  1.000000e+000 -5.697262e-017
    outer loop
      vertex -5.829179e-001  3.630878e-017  5.876970e-001
      vertex  4.695129e-001  1.599075e-016  6.834704e-001
      vertex  5.829179e-001  1.671815e-016  5.876970e-001
    endloop
  endfacet
  facet normal -1.122565e-016  9.999999e-001 -1.889189e-016
    outer loop
      vertex -5.829179e-001  3.630878e-017  5.876970e-001
      vertex  5.829179e-001  1.671815e-016  5.876970e-001
      vertex  1.815789e-001  1.148204e-016  5.490131e-001
    endloop
  endfacet
  facet normal -1.110223e-016  1.000000e+000 -1.645273e-016
    outer loop
      vertex -5.829179e-001  3.630878e-017  5.876970e-001
      vertex  1.815789e-001  1.148204e-016  5.490131e-001
      vertex -1.815789e-001  7.450181e-017  5.490131e-001
    endloop
  endfacet
  facet normal -1.012892e-016  1.000000e+000 -6.354726e-017
    outer loop
      vertex -5.829179e-001  3.630878e-017  5.876970e-001
      vertex -1.815789e-001  7.450181e-017  5.490131e-001
      vertex -6.774238e-001  1.946251e-017  4.732334e-001
    endloop
  endfacet
  facet normal -1.110223e-016  1.000000e+000 -8.808026e-017
    outer loop
      vertex -7.500000e-001  0.000000e+000  3.437500e-001
      vertex -6.774238e-001  1.946251e-017  4.732334e-001
      vertex -1.815789e-001  6.310742e-017  3.437500e-001
    endloop
  endfacet
  facet normal -1.025173e-016  1.000000e+000 -5.551115e-017
    outer loop
      vertex -1.815789e-001  6.310742e-017  3.437500e-001
      vertex -6.774238e-001  1.946251e-017  4.732334e-001
      vertex -1.815789e-001  7.450181e-017  5.490131e-001
    endloop
  endfacet
  facet normal -1.110223e-016  1.000000e+000 -9.919306e-017
    outer loop
      vertex  7.500000e-001  1.665335e-016  3.437500e-001
      vertex  1.815789e-001  1.034260e-016  3.437500e-001
      vertex  6.774238e-001  1.713197e-016  4.732334e-001
    endloop
  endfacet
  facet normal -1.224293e-016  1.000000e+000 -5.551118e-017
    outer loop
      vertex  6.774238e-001  1.713197e-016  4.732334e-001
      vertex  1.815789e-001  1.034260e-016  3.437500e-001
      vertex  1.815789e-001  1.148204e-016  5.490131e-001
    endloop
  endfacet
  facet normal -1.240765e-016  1.000000e+000 -6.628916e-017
    outer loop
      vertex  6.774238e-001  1.713197e-016  4.732334e-001
      vertex  1.815789e-001  1.148204e-016  5.490131e-001
      vertex  5.829179e-001  1.671815e-016  5.876970e-001
    endloop
  endfacet
  facet normal -6.120267e-001 -1.457237e-002  7.907028e-001
    outer loop
      vertex -4.342105e-001 -2.109375e-001  7.069079e-001
      vertex -4.695129e-001  5.421576e-017  6.834704e-001
      vertex -5.627134e-001 -2.109375e-001  6.074430e-001
    endloop
  endfacet
  facet normal -7.545611e-001 -1.085354e-002  6.561400e-001
    outer loop
      vertex -6.693425e-001 -2.109375e-001  4.848195e-001
      vertex -5.627134e-001 -2.109375e-001  6.074430e-001
      vertex -5.829179e-001  3.630878e-017  5.876970e-001
    endloop
  endfacet
  facet normal -6.451862e-001  9.716323e-003  7.639636e-001
    outer loop
      vertex -4.695129e-001  5.421576e-017  6.834704e-001
      vertex -5.829179e-001  3.630878e-017  5.876970e-001
      vertex -5.627134e-001 -2.109375e-001  6.074430e-001
    endloop
  endfacet
  facet normal -5.619965e-001 -3.698678e-002  8.263123e-001
    outer loop
      vertex -4.465613e-001 -5.885419e-003  6.990023e-001
      vertex -4.531891e-001 -2.828108e-003  6.946315e-001
      vertex -4.395461e-001 -1.131675e-002  7.035304e-001
    endloop
  endfacet
  facet normal -5.559832e-001 -2.547614e-002  8.308030e-001
    outer loop
      vertex -4.395461e-001 -1.131675e-002  7.035304e-001
      vertex -4.427505e-001 -8.431878e-003  7.014745e-001
      vertex -4.465613e-001 -5.885419e-003  6.990023e-001
    endloop
  endfacet
  facet normal -5.380579e-001 -2.956674e-003  8.429027e-001
    outer loop
      vertex -4.352509e-001 -1.793902e-002  7.062538e-001
      vertex -4.360217e-001 -1.621659e-002  7.057678e-001
      vertex -4.370220e-001 -1.449614e-002  7.051353e-001
    endloop
  endfacet
  facet normal -5.322619e-001  0.000000e+000  8.465797e-001
    outer loop
      vertex -4.352509e-001 -1.793902e-002  7.062538e-001
      vertex -4.342105e-001 -2.109375e-001  7.069079e-001
      vertex -4.342105e-001 -2.343750e-002  7.069079e-001
    endloop
  endfacet
  facet normal -5.325147e-001 -6.674259e-005  8.464208e-001
    outer loop
      vertex -4.352509e-001 -1.793902e-002  7.062538e-001
      vertex -4.342105e-001 -2.343750e-002  7.069079e-001
      vertex -4.343279e-001 -2.158068e-002  7.068342e-001
    endloop
  endfacet
  facet normal -5.334532e-001 -3.988524e-004  8.458295e-001
    outer loop
      vertex -4.352509e-001 -1.793902e-002  7.062538e-001
      vertex -4.343279e-001 -2.158068e-002  7.068342e-001
      vertex -4.346718e-001 -1.976352e-002  7.066181e-001
    endloop
  endfacet
  facet normal -5.692242e-001 -3.912303e-003  8.221730e-001
    outer loop
      vertex -4.608169e-001 -7.862829e-004  6.894872e-001
      vertex -4.695129e-001  5.421576e-017  6.834704e-001
      vertex -4.342105e-001 -2.109375e-001  7.069079e-001
    endloop
  endfacet
  facet normal -5.484600e-001 -1.225735e-004  8.361768e-001
    outer loop
      vertex -4.608169e-001 -7.862829e-004  6.894872e-001
      vertex -4.342105e-001 -2.109375e-001  7.069079e-001
      vertex -4.352509e-001 -1.793902e-002  7.062538e-001
    endloop
  endfacet
  facet normal -5.557538e-001 -1.586314e-002  8.311955e-001
    outer loop
      vertex -4.608169e-001 -7.862829e-004  6.894872e-001
      vertex -4.352509e-001 -1.793902e-002  7.062538e-001
      vertex -4.370220e-001 -1.449614e-002  7.051353e-001
    endloop
  endfacet
  facet normal -5.598573e-001 -2.644183e-002  8.281670e-001
    outer loop
      vertex -4.608169e-001 -7.862829e-004  6.894872e-001
      vertex -4.370220e-001 -1.449614e-002  7.051353e-001
      vertex -4.395461e-001 -1.131675e-002  7.035304e-001
    endloop
  endfacet
  facet normal -5.678030e-001 -5.129621e-002  8.215646e-001
    outer loop
      vertex -4.608169e-001 -7.862829e-004  6.894872e-001
      vertex -4.395461e-001 -1.131675e-002  7.035304e-001
      vertex -4.531891e-001 -2.828108e-003  6.946315e-001
    endloop
  endfacet
  facet normal -8.723179e-001  0.000000e+000  4.889393e-001
    outer loop
      vertex -7.500000e-001  0.000000e+000  3.437500e-001
      vertex -7.500000e-001 -2.109375e-001  3.437500e-001
      vertex -6.774238e-001  1.946251e-017  4.732334e-001
    endloop
  endfacet
  facet normal -8.681046e-001 -5.995726e-003  4.963452e-001
    outer loop
      vertex -6.774238e-001  1.946251e-017  4.732334e-001
      vertex -7.500000e-001 -2.109375e-001  3.437500e-001
      vertex -6.693425e-001 -2.109375e-001  4.848195e-001
    endloop
  endfacet
  facet normal -7.711191e-001  5.427391e-003  6.366678e-001
    outer loop
      vertex -6.774238e-001  1.946251e-017  4.732334e-001
      vertex -6.693425e-001 -2.109375e-001  4.848195e-001
      vertex -5.829179e-001  3.630878e-017  5.876970e-001
    endloop
  endfacet
  facet normal  0.000000e+000  0.000000e+000  1.000000e+000
    outer loop
      vertex  4.342105e-001 -2.109375e-001  7.069079e-001
      vertex  4.342105e-001 -2.343750e-002  7.069079e-001
      vertex -4.342105e-001 -2.109375e-001  7.069079e-001
    endloop
  endfacet
  facet normal  0.000000e+000  0.000000e+000  1.000000e+000
    outer loop
      vertex -4.342105e-001 -2.109375e-001  7.069079e-001
      vertex  4.342105e-001 -2.343750e-002  7.069079e-001
      vertex -4.342105e-001 -2.343750e-002  7.069079e-001
    endloop
  endfacet
  facet normal  6.451862e-001  9.716323e-003  7.639636e-001
    outer loop
      vertex  4.695129e-001  1.599075e-016  6.834704e-001
      vertex  5.627134e-001 -2.109375e-001  6.074430e-001
      vertex  5.829179e-001  1.671815e-016  5.876970e-001
    endloop
  endfacet
  facet normal  7.545611e-001 -1.085354e-002  6.561400e-001
    outer loop
      vertex  5.829179e-001  1.671815e-016  5.876970e-001
      vertex  5.627134e-001 -2.109375e-001  6.074430e-001
      vertex  6.693425e-001 -2.109375e-001  4.848195e-001
    endloop
  endfacet
  facet normal  6.120267e-001 -1.457237e-002  7.907028e-001
    outer loop
      vertex  4.342105e-001 -2.109375e-001  7.069079e-001
      vertex  5.627134e-001 -2.109375e-001  6.074430e-001
      vertex  4.695129e-001  1.599075e-016  6.834704e-001
    endloop
  endfacet
  facet normal  5.692242e-001 -3.912303e-003  8.221730e-001
    outer loop
      vertex  4.342105e-001 -2.109375e-001  7.069079e-001
      vertex  4.695129e-001  1.599075e-016  6.834704e-001
      vertex  4.608169e-001 -7.862829e-004  6.894872e-001
    endloop
  endfacet
  facet normal  5.595285e-001 -2.134726e-003  8.288083e-001
    outer loop
      vertex  4.342105e-001 -2.109375e-001  7.069079e-001
      vertex  4.608169e-001 -7.862829e-004  6.894872e-001
      vertex  4.531891e-001 -2.828108e-003  6.946315e-001
    endloop
  endfacet
  facet normal  5.521290e-001 -1.167951e-003  8.337579e-001
    outer loop
      vertex  4.342105e-001 -2.109375e-001  7.069079e-001
      vertex  4.531891e-001 -2.828108e-003  6.946315e-001
      vertex  4.486307e-001 -4.773926e-003  6.976474e-001
    endloop
  endfacet
  facet normal  5.457190e-001 -5.304862e-004  8.379681e-001
    outer loop
      vertex  4.342105e-001 -2.109375e-001  7.069079e-001
      vertex  4.486307e-001 -4.773926e-003  6.976474e-001
      vertex  4.427505e-001 -8.431878e-003  7.014745e-001
    endloop
  endfacet
  facet normal  5.401381e-001 -1.983188e-004  8.415763e-001
    outer loop
      vertex  4.342105e-001 -2.109375e-001  7.069079e-001
      vertex  4.427505e-001 -8.431878e-003  7.014745e-001
      vertex  4.395461e-001 -1.131675e-002  7.035304e-001
    endloop
  endfacet
  facet normal  5.365975e-001 -6.541695e-005  8.438383e-001
    outer loop
      vertex  4.342105e-001 -2.109375e-001  7.069079e-001
      vertex  4.395461e-001 -1.131675e-002  7.035304e-001
      vertex  4.370220e-001 -1.449614e-002  7.051353e-001
    endloop
  endfacet
  facet normal  5.333310e-001  0.000000e+000  8.459067e-001
    outer loop
      vertex  4.342105e-001 -2.109375e-001  7.069079e-001
      vertex  4.370220e-001 -1.449614e-002  7.051353e-001
      vertex  4.342105e-001 -2.343750e-002  7.069079e-001
    endloop
  endfacet
  facet normal  5.380579e-001 -2.956674e-003  8.429027e-001
    outer loop
      vertex  4.370220e-001 -1.449614e-002  7.051353e-001
      vertex  4.360217e-001 -1.621659e-002  7.057678e-001
      vertex  4.352509e-001 -1.793902e-002  7.062538e-001
    endloop
  endfacet
  facet normal  5.362101e-001 -1.622647e-003  8.440831e-001
    outer loop
      vertex  4.370220e-001 -1.449614e-002  7.051353e-001
      vertex  4.352509e-001 -1.793902e-002  7.062538e-001
      vertex  4.346718e-001 -1.976352e-002  7.066181e-001
    endloop
  endfacet
  facet normal  5.348375e-001 -7.649056e-004  8.449546e-001
    outer loop
      vertex  4.370220e-001 -1.449614e-002  7.051353e-001
      vertex  4.346718e-001 -1.976352e-002  7.066181e-001
      vertex  4.343279e-001 -2.158068e-002  7.068342e-001
    endloop
  endfacet
  facet normal  5.337258e-001 -1.735488e-004  8.456576e-001
    outer loop
      vertex  4.370220e-001 -1.449614e-002  7.051353e-001
      vertex  4.343279e-001 -2.158068e-002  7.068342e-001
      vertex  4.342105e-001 -2.343750e-002  7.069079e-001
    endloop
  endfacet
  facet normal  8.681202e-001  0.000000e+000  4.963541e-001
    outer loop
      vertex  7.500000e-001 -2.109375e-001  3.437500e-001
      vertex  7.500000e-001  1.665335e-016  3.437500e-001
      vertex  6.693425e-001 -2.109375e-001  4.848195e-001
    endloop
  endfacet
  facet normal  8.722991e-001 -6.563783e-003  4.889287e-001
    outer loop
      vertex  6.693425e-001 -2.109375e-001  4.848195e-001
      vertex  7.500000e-001  1.665335e-016  3.437500e-001
      vertex  6.774238e-001  1.713197e-016  4.732334e-001
    endloop
  endfacet
  facet normal  7.711191e-001  5.427391e-003  6.366678e-001
    outer loop
      vertex  6.693425e-001 -2.109375e-001  4.848195e-001
      vertex  6.774238e-001  1.713197e-016  4.732334e-001
      vertex  5.829179e-001  1.671815e-016  5.876970e-001
    endloop
  endfacet
  facet normal  -0.000000e+000  9.915692e-001  1.295784e-001
    outer loop
      vertex  4.695129e-001  1.599075e-016  6.834704e-001
      vertex -4.608169e-001 -7.862829e-004  6.894872e-001
      vertex  4.608169e-001 -7.862829e-004  6.894872e-001
    endloop
  endfacet
  facet normal -1.116057e-016  9.915691e-001  1.295784e-001
    outer loop
      vertex  4.695129e-001  1.599075e-016  6.834704e-001
      vertex -4.695129e-001  5.421576e-017  6.834704e-001
      vertex -4.608169e-001 -7.862829e-004  6.894872e-001
    endloop
  endfacet
  facet normal  -0.000000e+000  9.294622e-001  3.689173e-001
    outer loop
      vertex  4.608169e-001 -7.862829e-004  6.894872e-001
      vertex -4.608169e-001 -7.862829e-004  6.894872e-001
      vertex -4.531891e-001 -2.828108e-003  6.946315e-001
    endloop
  endfacet
  facet normal  -0.000000e+000  9.294622e-001  3.689173e-001
    outer loop
      vertex  4.608169e-001 -7.862829e-004  6.894872e-001
      vertex -4.531891e-001 -2.828108e-003  6.946315e-001
      vertex  4.531891e-001 -2.828108e-003  6.946315e-001
    endloop
  endfacet
  facet normal  0.000000e+000  8.402898e-001  5.421374e-001
    outer loop
      vertex  4.486307e-001 -4.773926e-003  6.976474e-001
      vertex  4.531891e-001 -2.828108e-003  6.946315e-001
      vertex -4.531891e-001 -2.828108e-003  6.946315e-001
    endloop
  endfacet
  facet normal -1.495313e-004  8.193277e-001  5.733256e-001
    outer loop
      vertex -4.531891e-001 -2.828108e-003  6.946315e-001
      vertex -4.465613e-001 -5.885419e-003  6.990023e-001
      vertex  4.486307e-001 -4.773926e-003  6.976474e-001
    endloop
  endfacet
  facet normal  2.206483e-004  6.967323e-001  7.173313e-001
    outer loop
      vertex  4.486307e-001 -4.773926e-003  6.976474e-001
      vertex -4.465613e-001 -5.885419e-003  6.990023e-001
      vertex -4.427505e-001 -8.431878e-003  7.014745e-001
    endloop
  endfacet
  facet normal  -0.000000e+000  7.229011e-001  6.909516e-001
    outer loop
      vertex  4.486307e-001 -4.773926e-003  6.976474e-001
      vertex -4.427505e-001 -8.431878e-003  7.014745e-001
      vertex  4.427505e-001 -8.431878e-003  7.014745e-001
    endloop
  endfacet
  facet normal  -0.000000e+000  5.803626e-001  8.143582e-001
    outer loop
      vertex  4.427505e-001 -8.431878e-003  7.014745e-001
      vertex -4.427505e-001 -8.431878e-003  7.014745e-001
      vertex -4.395461e-001 -1.131675e-002  7.035304e-001
    endloop
  endfacet
  facet normal  -0.000000e+000  5.803626e-001  8.143582e-001
    outer loop
      vertex  4.427505e-001 -8.431878e-003  7.014745e-001
      vertex -4.395461e-001 -1.131675e-002  7.035304e-001
      vertex  4.395461e-001 -1.131675e-002  7.035304e-001
    endloop
  endfacet
  facet normal  -0.000000e+000  4.506158e-001  8.927180e-001
    outer loop
      vertex  4.395461e-001 -1.131675e-002  7.035304e-001
      vertex -4.395461e-001 -1.131675e-002  7.035304e-001
      vertex -4.370220e-001 -1.449614e-002  7.051353e-001
    endloop
  endfacet
  facet normal  -0.000000e+000  4.506158e-001  8.927180e-001
    outer loop
      vertex  4.395461e-001 -1.131675e-002  7.035304e-001
      vertex -4.370220e-001 -1.449614e-002  7.051353e-001
      vertex  4.370220e-001 -1.449614e-002  7.051353e-001
    endloop
  endfacet
  facet normal  -0.000000e+000  3.450696e-001  9.385771e-001
    outer loop
      vertex  4.370220e-001 -1.449614e-002  7.051353e-001
      vertex -4.370220e-001 -1.449614e-002  7.051353e-001
      vertex -4.360217e-001 -1.621659e-002  7.057678e-001
    endloop
  endfacet
  facet normal  0.000000e+000  3.964479e-002  9.992138e-001
    outer loop
      vertex -4.342105e-001 -2.343750e-002  7.069079e-001
      vertex  4.342105e-001 -2.343750e-002  7.069079e-001
      vertex -4.343279e-001 -2.158068e-002  7.068342e-001
    endloop
  endfacet
  facet normal  -0.000000e+000  3.964479e-002  9.992138e-001
    outer loop
      vertex -4.343279e-001 -2.158068e-002  7.068342e-001
      vertex  4.342105e-001 -2.343750e-002  7.069079e-001
      vertex  4.343279e-001 -2.158068e-002  7.068342e-001
    endloop
  endfacet
  facet normal  0.000000e+000  1.180719e-001  9.930050e-001
    outer loop
      vertex -4.343279e-001 -2.158068e-002  7.068342e-001
      vertex  4.343279e-001 -2.158068e-002  7.068342e-001
      vertex -4.346718e-001 -1.976352e-002  7.066181e-001
    endloop
  endfacet
  facet normal  -0.000000e+000  1.180719e-001  9.930051e-001
    outer loop
      vertex -4.346718e-001 -1.976352e-002  7.066181e-001
      vertex  4.343279e-001 -2.158068e-002  7.068342e-001
      vertex  4.346718e-001 -1.976352e-002  7.066181e-001
    endloop
  endfacet
  facet normal  0.000000e+000  1.958393e-001  9.806361e-001
    outer loop
      vertex -4.346718e-001 -1.976352e-002  7.066181e-001
      vertex  4.346718e-001 -1.976352e-002  7.066181e-001
      vertex -4.352509e-001 -1.793902e-002  7.062538e-001
    endloop
  endfacet
  facet normal  -0.000000e+000  1.958393e-001  9.806360e-001
    outer loop
      vertex -4.352509e-001 -1.793902e-002  7.062538e-001
      vertex  4.346718e-001 -1.976352e-002  7.066181e-001
      vertex  4.352509e-001 -1.793902e-002  7.062538e-001
    endloop
  endfacet
  facet normal  0.000000e+000  2.715335e-001  9.624290e-001
    outer loop
      vertex -4.352509e-001 -1.793902e-002  7.062538e-001
      vertex  4.352509e-001 -1.793902e-002  7.062538e-001
      vertex -4.360217e-001 -1.621659e-002  7.057678e-001
    endloop
  endfacet
  facet normal  -0.000000e+000  2.715335e-001  9.624290e-001
    outer loop
      vertex -4.360217e-001 -1.621659e-002  7.057678e-001
      vertex  4.352509e-001 -1.793902e-002  7.062538e-001
      vertex  4.360217e-001 -1.621659e-002  7.057678e-001
    endloop
  endfacet
  facet normal  0.000000e+000  3.450696e-001  9.385771e-001
    outer loop
      vertex -4.360217e-001 -1.621659e-002  7.057678e-001
      vertex  4.360217e-001 -1.621659e-002  7.057678e-001
      vertex  4.370220e-001 -1.449614e-002  7.051353e-001
    endloop
  endfacet
  facet normal  0.000000e+000 -9.999999e-001  0.000000e+000
    outer loop
      vertex -5.627134e-001 -2.109375e-001  6.074430e-001
      vertex -6.693425e-001 -2.109375e-001  4.848195e-001
      vertex -1.815789e-001 -2.109375e-001  5.490131e-001
    endloop
  endfacet
  facet normal  0.000000e+000 -1.000000e+000  0.000000e+000
    outer loop
      vertex -5.627134e-001 -2.109375e-001  6.074430e-001
      vertex -1.815789e-001 -2.109375e-001  5.490131e-001
      vertex  1.815789e-001 -2.109375e-001  5.490131e-001
    endloop
  endfacet
  facet normal  0.000000e+000 -1.000000e+000  0.000000e+000
    outer loop
      vertex -5.627134e-001 -2.109375e-001  6.074430e-001
      vertex  1.815789e-001 -2.109375e-001  5.490131e-001
      vertex  5.627134e-001 -2.109375e-001  6.074430e-001
    endloop
  endfacet
  facet normal  0.000000e+000 -1.000000e+000  0.000000e+000
    outer loop
      vertex -5.627134e-001 -2.109375e-001  6.074430e-001
      vertex  5.627134e-001 -2.109375e-001  6.074430e-001
      vertex  4.342105e-001 -2.109375e-001  7.069079e-001
    endloop
  endfacet
  facet normal  -0.000000e+000 -1.000000e+000  0.000000e+000
    outer loop
      vertex -5.627134e-001 -2.109375e-001  6.074430e-001
      vertex  4.342105e-001 -2.109375e-001  7.069079e-001
      vertex -4.342105e-001 -2.109375e-001  7.069079e-001
    endloop
  endfacet
  facet normal  0.000000e+000 -1.000000e+000  0.000000e+000
    outer loop
      vertex -7.500000e-001 -2.109375e-001  3.437500e-001
      vertex -1.815789e-001 -2.109375e-001  3.437500e-001
      vertex -6.693425e-001 -2.109375e-001  4.848195e-001
    endloop
  endfacet
  facet normal  0.000000e+000 -9.999999e-001  0.000000e+000
    outer loop
      vertex -6.693425e-001 -2.109375e-001  4.848195e-001
      vertex -1.815789e-001 -2.109375e-001  3.437500e-001
      vertex -1.815789e-001 -2.109375e-001  5.490131e-001
    endloop
  endfacet
  facet normal  0.000000e+000 -9.999999e-001  0.000000e+000
    outer loop
      vertex  5.627134e-001 -2.109375e-001  6.074430e-001
      vertex  1.815789e-001 -2.109375e-001  5.490131e-001
      vertex  6.693425e-001 -2.109375e-001  4.848195e-001
    endloop
  endfacet
  facet normal  -0.000000e+000 -9.999999e-001  0.000000e+000
    outer loop
      vertex  6.693425e-001 -2.109375e-001  4.848195e-001
      vertex  1.815789e-001 -2.109375e-001  5.490131e-001
      vertex  1.815789e-001 -2.109375e-001  3.437500e-001
    endloop
  endfacet
  facet normal  0.000000e+000 -1.000000e+000  0.000000e+000
    outer loop
      vertex  6.693425e-001 -2.109375e-001  4.848195e-001
      vertex  1.815789e-001 -2.109375e-001  3.437500e-001
      vertex  7.500000e-001 -2.109375e-001  3.437500e-001
    endloop
  endfacet
  facet normal  0.000000e+000  0.000000e+000 -1.000000e+000
    outer loop
      vertex  1.815789e-001 -2.109375e-001  3.437500e-001
      vertex  1.815789e-001  1.034260e-016  3.437500e-001
      vertex  7.500000e-001 -2.109375e-001  3.437500e-001
    endloop
  endfacet
  facet normal  0.000000e+000  0.000000e+000 -1.000000e+000
    outer loop
      vertex  7.500000e-001 -2.109375e-001  3.437500e-001
      vertex  1.815789e-001  1.034260e-016  3.437500e-001
      vertex  7.500000e-001  1.665335e-016  3.437500e-001
    endloop
  endfacet
  facet normal -1.000000e+000  0.000000e+000  0.000000e+000
    outer loop
      vertex  1.815789e-001  1.148204e-016  5.490131e-001
      vertex  1.815789e-001  1.034260e-016  3.437500e-001
      vertex  1.815789e-001 -2.109375e-001  5.490131e-001
    endloop
  endfacet
  facet normal -1.000000e+000  0.000000e+000  0.000000e+000
    outer loop
      vertex  1.815789e-001 -2.109375e-001  5.490131e-001
      vertex  1.815789e-001  1.034260e-016  3.437500e-001
      vertex  1.815789e-001 -2.109375e-001  3.437500e-001
    endloop
  endfacet
  facet normal  0.000000e+000  0.000000e+000 -1.000000e+000
    outer loop
      vertex -1.815789e-001 -2.109375e-001  5.490131e-001
      vertex -1.815789e-001  7.450181e-017  5.490131e-001
      vertex  1.815789e-001 -2.109375e-001  5.490131e-001
    endloop
  endfacet
  facet normal  0.000000e+000  0.000000e+000 -1.000000e+000
    outer loop
      vertex  1.815789e-001 -2.109375e-001  5.490131e-001
      vertex -1.815789e-001  7.450181e-017  5.490131e-001
      vertex  1.815789e-001  1.148204e-016  5.490131e-001
    endloop
  endfacet
  facet normal  1.000000e+000  0.000000e+000  0.000000e+000
    outer loop
      vertex -1.815789e-001  6.310742e-017  3.437500e-001
      vertex -1.815789e-001  7.450181e-017  5.490131e-001
      vertex -1.815789e-001 -2.109375e-001  3.437500e-001
    endloop
  endfacet
  facet normal  1.000000e+000  0.000000e+000  0.000000e+000
    outer loop
      vertex -1.815789e-001 -2.109375e-001  3.437500e-001
      vertex -1.815789e-001  7.450181e-017  5.490131e-001
      vertex -1.815789e-001 -2.109375e-001  5.490131e-001
    endloop
  endfacet
  facet normal  0.000000e+000  0.000000e+000 -1.000000e+000
    outer loop
      vertex -7.500000e-001 -2.109375e-001  3.437500e-001
      vertex -7.500000e-001  0.000000e+000  3.437500e-001
      vertex -1.815789e-001 -2.109375e-001  3.437500e-001
    endloop
  endfacet
  facet normal  0.000000e+000  0.000000e+000 -1.000000e+000
    outer loop
      vertex -1.815789e-001 -2.109375e-001  3.437500e-001
      vertex -7.500000e-001  0.000000e+000  3.437500e-001
      vertex -1.815789e-001  6.310742e-017  3.437500e-001
    endloop
  endfacet
endsolid CATIA STL
