solid CATIA STL
  facet normal  1.000000e+000  0.000000e+000  0.000000e+000
    outer loop
      vertex  7.500000e-001  7.129934e-002 -7.236092e-018
      vertex  7.500000e-001  1.661184e-002 -3.887448e-018
      vertex  7.500000e-001  1.630213e-002 -3.144548e-003
    endloop
  endfacet
  facet normal  1.000000e+000  0.000000e+000  0.000000e+000
    outer loop
      vertex  7.500000e-001 -2.651127e-003 -1.580871e-002
      vertex  7.500000e-001 -5.674832e-003 -1.489148e-002
      vertex  7.500000e-001 -6.492272e-002 -2.709625e-002
    endloop
  endfacet
  facet normal  1.000000e+000  0.000000e+000  0.000000e+000
    outer loop
      vertex  7.500000e-001  6.590956e-002 -2.709625e-002
      vertex  7.500000e-001  6.661674e-003 -1.489148e-002
      vertex  7.500000e-001  3.637969e-003 -1.580871e-002
    endloop
  endfacet
  facet normal  9.999999e-001  0.000000e+000  -0.000000e+000
    outer loop
      vertex  7.500000e-001 -7.031250e-002  4.155022e-017
      vertex  7.500000e-001 -6.895199e-002 -1.381355e-002
      vertex  7.500000e-001 -1.531529e-002 -3.144548e-003
    endloop
  endfacet
  facet normal  1.000000e+000  0.000000e+000  0.000000e+000
    outer loop
      vertex  7.500000e-001 -7.031250e-002  4.155022e-017
      vertex  7.500000e-001 -1.531529e-002 -3.144548e-003
      vertex  7.500000e-001 -1.562500e-002  6.036146e-020
    endloop
  endfacet
  facet normal  1.000000e+000  0.000000e+000  -0.000000e+000
    outer loop
      vertex  7.500000e-001 -7.031250e-002  4.155022e-017
      vertex  7.500000e-001 -1.562500e-002  6.036146e-020
      vertex  7.500000e-001 -1.531529e-002  3.144548e-003
    endloop
  endfacet
  facet normal  1.000000e+000  0.000000e+000  0.000000e+000
    outer loop
      vertex  7.500000e-001 -6.492272e-002  2.709625e-002
      vertex  7.500000e-001 -6.895199e-002  1.381355e-002
      vertex  7.500000e-001 -5.674832e-003  1.489148e-002
    endloop
  endfacet
  facet normal  1.000000e+000  0.000000e+000  -0.000000e+000
    outer loop
      vertex  7.500000e-001 -6.492272e-002  2.709625e-002
      vertex  7.500000e-001 -5.674832e-003  1.489148e-002
      vertex  7.500000e-001 -2.651127e-003  1.580871e-002
    endloop
  endfacet
  facet normal  1.000000e+000  0.000000e+000  -0.000000e+000
    outer loop
      vertex  7.500000e-001 -6.492272e-002  2.709625e-002
      vertex  7.500000e-001 -2.651127e-003  1.580871e-002
      vertex  7.500000e-001  4.934210e-004  1.611842e-002
    endloop
  endfacet
  facet normal  9.999999e-001  0.000000e+000  0.000000e+000
    outer loop
      vertex  7.500000e-001  4.934210e-004  1.611842e-002
      vertex  7.500000e-001  6.590956e-002  2.709625e-002
      vertex  7.500000e-001  5.936639e-002  3.933766e-002
    endloop
  endfacet
  facet normal  1.000000e+000  0.000000e+000  0.000000e+000
    outer loop
      vertex  7.500000e-001  4.934210e-004  1.611842e-002
      vertex  7.500000e-001  5.936639e-002  3.933766e-002
      vertex  7.500000e-001  5.056077e-002  5.006735e-002
    endloop
  endfacet
  facet normal  1.000000e+000  0.000000e+000  0.000000e+000
    outer loop
      vertex  7.500000e-001  4.934210e-004  1.611842e-002
      vertex  7.500000e-001  5.056077e-002  5.006735e-002
      vertex  7.500000e-001  3.983108e-002  5.887297e-002
    endloop
  endfacet
  facet normal  1.000000e+000  0.000000e+000  0.000000e+000
    outer loop
      vertex  7.500000e-001  4.934210e-004  1.611842e-002
      vertex  7.500000e-001  3.983108e-002  5.887297e-002
      vertex  7.500000e-001  2.758967e-002  6.541614e-002
    endloop
  endfacet
  facet normal  1.000000e+000  0.000000e+000  0.000000e+000
    outer loop
      vertex  7.500000e-001  4.934210e-004  1.611842e-002
      vertex  7.500000e-001  2.758967e-002  6.541614e-002
      vertex  7.500000e-001  1.430697e-002  6.944540e-002
    endloop
  endfacet
  facet normal  9.999999e-001  0.000000e+000  0.000000e+000
    outer loop
      vertex  7.500000e-001  4.934210e-004  1.611842e-002
      vertex  7.500000e-001  1.430697e-002  6.944540e-002
      vertex  7.500000e-001  4.934210e-004  7.080592e-002
    endloop
  endfacet
  facet normal  9.999999e-001  0.000000e+000  0.000000e+000
    outer loop
      vertex  7.500000e-001  4.934210e-004  1.611842e-002
      vertex  7.500000e-001  4.934210e-004  7.080592e-002
      vertex  7.500000e-001 -1.332013e-002  6.944540e-002
    endloop
  endfacet
  facet normal  1.000000e+000  0.000000e+000  0.000000e+000
    outer loop
      vertex  7.500000e-001  4.934210e-004  1.611842e-002
      vertex  7.500000e-001 -1.332013e-002  6.944540e-002
      vertex  7.500000e-001 -2.660283e-002  6.541614e-002
    endloop
  endfacet
  facet normal  1.000000e+000  0.000000e+000  0.000000e+000
    outer loop
      vertex  7.500000e-001  4.934210e-004  1.611842e-002
      vertex  7.500000e-001 -2.660283e-002  6.541614e-002
      vertex  7.500000e-001 -3.884424e-002  5.887297e-002
    endloop
  endfacet
  facet normal  1.000000e+000  0.000000e+000  0.000000e+000
    outer loop
      vertex  7.500000e-001  4.934210e-004  1.611842e-002
      vertex  7.500000e-001 -3.884424e-002  5.887297e-002
      vertex  7.500000e-001 -4.957392e-002  5.006735e-002
    endloop
  endfacet
  facet normal  1.000000e+000  0.000000e+000  0.000000e+000
    outer loop
      vertex  7.500000e-001  4.934210e-004  1.611842e-002
      vertex  7.500000e-001 -4.957392e-002  5.006735e-002
      vertex  7.500000e-001 -5.837955e-002  3.933766e-002
    endloop
  endfacet
  facet normal  9.999999e-001  0.000000e+000  0.000000e+000
    outer loop
      vertex  7.500000e-001  4.934210e-004  1.611842e-002
      vertex  7.500000e-001 -5.837955e-002  3.933766e-002
      vertex  7.500000e-001 -6.492272e-002  2.709625e-002
    endloop
  endfacet
  facet normal  9.999999e-001  0.000000e+000  0.000000e+000
    outer loop
      vertex  7.500000e-001 -6.895199e-002  1.381355e-002
      vertex  7.500000e-001 -7.031250e-002  4.155022e-017
      vertex  7.500000e-001 -1.531529e-002  3.144548e-003
    endloop
  endfacet
  facet normal  1.000000e+000  0.000000e+000  -0.000000e+000
    outer loop
      vertex  7.500000e-001 -6.895199e-002  1.381355e-002
      vertex  7.500000e-001 -1.531529e-002  3.144548e-003
      vertex  7.500000e-001 -1.439806e-002  6.168253e-003
    endloop
  endfacet
  facet normal  1.000000e+000  0.000000e+000  -0.000000e+000
    outer loop
      vertex  7.500000e-001 -6.895199e-002  1.381355e-002
      vertex  7.500000e-001 -1.439806e-002  6.168253e-003
      vertex  7.500000e-001 -1.290856e-002  8.954915e-003
    endloop
  endfacet
  facet normal  1.000000e+000  0.000000e+000  -0.000000e+000
    outer loop
      vertex  7.500000e-001 -6.895199e-002  1.381355e-002
      vertex  7.500000e-001 -1.290856e-002  8.954915e-003
      vertex  7.500000e-001 -1.090402e-002  1.139744e-002
    endloop
  endfacet
  facet normal  1.000000e+000  0.000000e+000  -0.000000e+000
    outer loop
      vertex  7.500000e-001 -6.895199e-002  1.381355e-002
      vertex  7.500000e-001 -1.090402e-002  1.139744e-002
      vertex  7.500000e-001 -8.461494e-003  1.340198e-002
    endloop
  endfacet
  facet normal  9.999999e-001  0.000000e+000  -0.000000e+000
    outer loop
      vertex  7.500000e-001 -6.895199e-002  1.381355e-002
      vertex  7.500000e-001 -8.461494e-003  1.340198e-002
      vertex  7.500000e-001 -5.674832e-003  1.489148e-002
    endloop
  endfacet
  facet normal  1.000000e+000  0.000000e+000  -0.000000e+000
    outer loop
      vertex  7.500000e-001 -6.895199e-002 -1.381355e-002
      vertex  7.500000e-001 -6.492272e-002 -2.709625e-002
      vertex  7.500000e-001 -5.674832e-003 -1.489148e-002
    endloop
  endfacet
  facet normal  9.999999e-001  0.000000e+000  0.000000e+000
    outer loop
      vertex  7.500000e-001 -6.895199e-002 -1.381355e-002
      vertex  7.500000e-001 -5.674832e-003 -1.489148e-002
      vertex  7.500000e-001 -8.461494e-003 -1.340198e-002
    endloop
  endfacet
  facet normal  1.000000e+000  0.000000e+000  0.000000e+000
    outer loop
      vertex  7.500000e-001 -6.895199e-002 -1.381355e-002
      vertex  7.500000e-001 -8.461494e-003 -1.340198e-002
      vertex  7.500000e-001 -1.090402e-002 -1.139744e-002
    endloop
  endfacet
  facet normal  1.000000e+000  0.000000e+000  0.000000e+000
    outer loop
      vertex  7.500000e-001 -6.895199e-002 -1.381355e-002
      vertex  7.500000e-001 -1.090402e-002 -1.139744e-002
      vertex  7.500000e-001 -1.290856e-002 -8.954915e-003
    endloop
  endfacet
  facet normal  1.000000e+000  0.000000e+000  0.000000e+000
    outer loop
      vertex  7.500000e-001 -6.895199e-002 -1.381355e-002
      vertex  7.500000e-001 -1.290856e-002 -8.954915e-003
      vertex  7.500000e-001 -1.439806e-002 -6.168253e-003
    endloop
  endfacet
  facet normal  1.000000e+000  0.000000e+000  0.000000e+000
    outer loop
      vertex  7.500000e-001 -6.895199e-002 -1.381355e-002
      vertex  7.500000e-001 -1.439806e-002 -6.168253e-003
      vertex  7.500000e-001 -1.531529e-002 -3.144548e-003
    endloop
  endfacet
  facet normal  1.000000e+000  0.000000e+000  0.000000e+000
    outer loop
      vertex  7.500000e-001  4.934210e-004 -1.611842e-002
      vertex  7.500000e-001 -2.651127e-003 -1.580871e-002
      vertex  7.500000e-001 -6.492272e-002 -2.709625e-002
    endloop
  endfacet
  facet normal  9.999999e-001  -0.000000e+000  0.000000e+000
    outer loop
      vertex  7.500000e-001  4.934210e-004 -1.611842e-002
      vertex  7.500000e-001 -6.492272e-002 -2.709625e-002
      vertex  7.500000e-001 -5.837955e-002 -3.933766e-002
    endloop
  endfacet
  facet normal  1.000000e+000  -0.000000e+000  0.000000e+000
    outer loop
      vertex  7.500000e-001  4.934210e-004 -1.611842e-002
      vertex  7.500000e-001 -5.837955e-002 -3.933766e-002
      vertex  7.500000e-001 -4.957392e-002 -5.006735e-002
    endloop
  endfacet
  facet normal  1.000000e+000  -0.000000e+000  0.000000e+000
    outer loop
      vertex  7.500000e-001  4.934210e-004 -1.611842e-002
      vertex  7.500000e-001 -4.957392e-002 -5.006735e-002
      vertex  7.500000e-001 -3.884424e-002 -5.887297e-002
    endloop
  endfacet
  facet normal  1.000000e+000  -0.000000e+000  0.000000e+000
    outer loop
      vertex  7.500000e-001  4.934210e-004 -1.611842e-002
      vertex  7.500000e-001 -3.884424e-002 -5.887297e-002
      vertex  7.500000e-001 -2.660283e-002 -6.541614e-002
    endloop
  endfacet
  facet normal  1.000000e+000  -0.000000e+000  0.000000e+000
    outer loop
      vertex  7.500000e-001  4.934210e-004 -1.611842e-002
      vertex  7.500000e-001 -2.660283e-002 -6.541614e-002
      vertex  7.500000e-001 -1.332013e-002 -6.944540e-002
    endloop
  endfacet
  facet normal  9.999999e-001  -0.000000e+000  0.000000e+000
    outer loop
      vertex  7.500000e-001  4.934210e-004 -1.611842e-002
      vertex  7.500000e-001 -1.332013e-002 -6.944540e-002
      vertex  7.500000e-001  4.934210e-004 -7.080592e-002
    endloop
  endfacet
  facet normal  9.999999e-001  0.000000e+000  0.000000e+000
    outer loop
      vertex  7.500000e-001  4.934210e-004 -1.611842e-002
      vertex  7.500000e-001  4.934210e-004 -7.080592e-002
      vertex  7.500000e-001  1.430697e-002 -6.944540e-002
    endloop
  endfacet
  facet normal  1.000000e+000  0.000000e+000  -0.000000e+000
    outer loop
      vertex  7.500000e-001  4.934210e-004 -1.611842e-002
      vertex  7.500000e-001  1.430697e-002 -6.944540e-002
      vertex  7.500000e-001  2.758967e-002 -6.541614e-002
    endloop
  endfacet
  facet normal  1.000000e+000  0.000000e+000  -0.000000e+000
    outer loop
      vertex  7.500000e-001  4.934210e-004 -1.611842e-002
      vertex  7.500000e-001  2.758967e-002 -6.541614e-002
      vertex  7.500000e-001  3.983108e-002 -5.887297e-002
    endloop
  endfacet
  facet normal  1.000000e+000  0.000000e+000  -0.000000e+000
    outer loop
      vertex  7.500000e-001  4.934210e-004 -1.611842e-002
      vertex  7.500000e-001  3.983108e-002 -5.887297e-002
      vertex  7.500000e-001  5.056077e-002 -5.006735e-002
    endloop
  endfacet
  facet normal  1.000000e+000  0.000000e+000  -0.000000e+000
    outer loop
      vertex  7.500000e-001  4.934210e-004 -1.611842e-002
      vertex  7.500000e-001  5.056077e-002 -5.006735e-002
      vertex  7.500000e-001  5.936639e-002 -3.933766e-002
    endloop
  endfacet
  facet normal  9.999999e-001  0.000000e+000  -0.000000e+000
    outer loop
      vertex  7.500000e-001  4.934210e-004 -1.611842e-002
      vertex  7.500000e-001  5.936639e-002 -3.933766e-002
      vertex  7.500000e-001  6.590956e-002 -2.709625e-002
    endloop
  endfacet
  facet normal  1.000000e+000  0.000000e+000  0.000000e+000
    outer loop
      vertex  7.500000e-001  4.934210e-004 -1.611842e-002
      vertex  7.500000e-001  6.590956e-002 -2.709625e-002
      vertex  7.500000e-001  3.637969e-003 -1.580871e-002
    endloop
  endfacet
  facet normal  1.000000e+000  -0.000000e+000  0.000000e+000
    outer loop
      vertex  7.500000e-001  6.590956e-002  2.709625e-002
      vertex  7.500000e-001  4.934210e-004  1.611842e-002
      vertex  7.500000e-001  3.637969e-003  1.580871e-002
    endloop
  endfacet
  facet normal  1.000000e+000  -0.000000e+000  0.000000e+000
    outer loop
      vertex  7.500000e-001  6.590956e-002  2.709625e-002
      vertex  7.500000e-001  3.637969e-003  1.580871e-002
      vertex  7.500000e-001  6.661674e-003  1.489148e-002
    endloop
  endfacet
  facet normal  1.000000e+000  -0.000000e+000  0.000000e+000
    outer loop
      vertex  7.500000e-001  6.590956e-002  2.709625e-002
      vertex  7.500000e-001  6.661674e-003  1.489148e-002
      vertex  7.500000e-001  9.448336e-003  1.340198e-002
    endloop
  endfacet
  facet normal  1.000000e+000  0.000000e+000  0.000000e+000
    outer loop
      vertex  7.500000e-001  6.590956e-002  2.709625e-002
      vertex  7.500000e-001  9.448336e-003  1.340198e-002
      vertex  7.500000e-001  6.993882e-002  1.381355e-002
    endloop
  endfacet
  facet normal  1.000000e+000  -0.000000e+000  0.000000e+000
    outer loop
      vertex  7.500000e-001  6.993882e-002  1.381355e-002
      vertex  7.500000e-001  9.448336e-003  1.340198e-002
      vertex  7.500000e-001  1.189087e-002  1.139744e-002
    endloop
  endfacet
  facet normal  1.000000e+000  -0.000000e+000  0.000000e+000
    outer loop
      vertex  7.500000e-001  6.993882e-002  1.381355e-002
      vertex  7.500000e-001  1.189087e-002  1.139744e-002
      vertex  7.500000e-001  1.389540e-002  8.954915e-003
    endloop
  endfacet
  facet normal  1.000000e+000  -0.000000e+000  0.000000e+000
    outer loop
      vertex  7.500000e-001  6.993882e-002  1.381355e-002
      vertex  7.500000e-001  1.389540e-002  8.954915e-003
      vertex  7.500000e-001  1.538490e-002  6.168253e-003
    endloop
  endfacet
  facet normal  1.000000e+000  -0.000000e+000  0.000000e+000
    outer loop
      vertex  7.500000e-001  6.993882e-002  1.381355e-002
      vertex  7.500000e-001  1.538490e-002  6.168253e-003
      vertex  7.500000e-001  1.630213e-002  3.144548e-003
    endloop
  endfacet
  facet normal  1.000000e+000  -0.000000e+000  0.000000e+000
    outer loop
      vertex  7.500000e-001  6.993882e-002  1.381355e-002
      vertex  7.500000e-001  1.630213e-002  3.144548e-003
      vertex  7.500000e-001  1.661184e-002 -3.887448e-018
    endloop
  endfacet
  facet normal  9.999999e-001  -0.000000e+000  0.000000e+000
    outer loop
      vertex  7.500000e-001  6.993882e-002  1.381355e-002
      vertex  7.500000e-001  1.661184e-002 -3.887448e-018
      vertex  7.500000e-001  7.129934e-002 -7.236092e-018
    endloop
  endfacet
  facet normal  9.999999e-001  0.000000e+000  0.000000e+000
    outer loop
      vertex  7.500000e-001  6.993882e-002 -1.381355e-002
      vertex  7.500000e-001  7.129934e-002 -7.236092e-018
      vertex  7.500000e-001  1.630213e-002 -3.144548e-003
    endloop
  endfacet
  facet normal  1.000000e+000  0.000000e+000  0.000000e+000
    outer loop
      vertex  7.500000e-001  6.993882e-002 -1.381355e-002
      vertex  7.500000e-001  1.630213e-002 -3.144548e-003
      vertex  7.500000e-001  1.538490e-002 -6.168253e-003
    endloop
  endfacet
  facet normal  1.000000e+000  0.000000e+000  0.000000e+000
    outer loop
      vertex  7.500000e-001  6.993882e-002 -1.381355e-002
      vertex  7.500000e-001  1.538490e-002 -6.168253e-003
      vertex  7.500000e-001  1.389540e-002 -8.954915e-003
    endloop
  endfacet
  facet normal  1.000000e+000  0.000000e+000  0.000000e+000
    outer loop
      vertex  7.500000e-001  6.993882e-002 -1.381355e-002
      vertex  7.500000e-001  1.389540e-002 -8.954915e-003
      vertex  7.500000e-001  1.189087e-002 -1.139744e-002
    endloop
  endfacet
  facet normal  1.000000e+000  0.000000e+000  0.000000e+000
    outer loop
      vertex  7.500000e-001  6.993882e-002 -1.381355e-002
      vertex  7.500000e-001  1.189087e-002 -1.139744e-002
      vertex  7.500000e-001  9.448336e-003 -1.340198e-002
    endloop
  endfacet
  facet normal  9.999999e-001  0.000000e+000  0.000000e+000
    outer loop
      vertex  7.500000e-001  6.993882e-002 -1.381355e-002
      vertex  7.500000e-001  9.448336e-003 -1.340198e-002
      vertex  7.500000e-001  6.661674e-003 -1.489148e-002
    endloop
  endfacet
  facet normal  1.000000e+000  -0.000000e+000  0.000000e+000
    outer loop
      vertex  7.500000e-001  6.993882e-002 -1.381355e-002
      vertex  7.500000e-001  6.661674e-003 -1.489148e-002
      vertex  7.500000e-001  6.590956e-002 -2.709625e-002
    endloop
  endfacet
  facet normal  0.000000e+000 -9.801667e-002  9.951848e-001
    outer loop
      vertex  3.125000e-002  4.934210e-004 -1.611842e-002
      vertex  7.500000e-001  3.637969e-003 -1.580871e-002
      vertex  3.125000e-002  3.637969e-003 -1.580871e-002
    endloop
  endfacet
  facet normal  0.000000e+000 -2.902850e-001  9.569403e-001
    outer loop
      vertex  3.125000e-002  3.637969e-003 -1.580871e-002
      vertex  7.500000e-001  3.637969e-003 -1.580871e-002
      vertex  7.500000e-001  6.661674e-003 -1.489148e-002
    endloop
  endfacet
  facet normal  0.000000e+000 -2.902850e-001  9.569403e-001
    outer loop
      vertex  3.125000e-002  3.637969e-003 -1.580871e-002
      vertex  7.500000e-001  6.661674e-003 -1.489148e-002
      vertex  3.125000e-002  6.661674e-003 -1.489148e-002
    endloop
  endfacet
  facet normal  0.000000e+000 -4.713965e-001  8.819214e-001
    outer loop
      vertex  3.125000e-002  6.661674e-003 -1.489148e-002
      vertex  7.500000e-001  6.661674e-003 -1.489148e-002
      vertex  7.500000e-001  9.448336e-003 -1.340198e-002
    endloop
  endfacet
  facet normal  0.000000e+000 -4.713965e-001  8.819214e-001
    outer loop
      vertex  3.125000e-002  6.661674e-003 -1.489148e-002
      vertex  7.500000e-001  9.448336e-003 -1.340198e-002
      vertex  3.125000e-002  9.448336e-003 -1.340198e-002
    endloop
  endfacet
  facet normal  0.000000e+000 -6.343935e-001  7.730103e-001
    outer loop
      vertex  3.125000e-002  9.448336e-003 -1.340198e-002
      vertex  7.500000e-001  9.448336e-003 -1.340198e-002
      vertex  7.500000e-001  1.189087e-002 -1.139744e-002
    endloop
  endfacet
  facet normal  0.000000e+000 -6.343935e-001  7.730103e-001
    outer loop
      vertex  3.125000e-002  9.448336e-003 -1.340198e-002
      vertex  7.500000e-001  1.189087e-002 -1.139744e-002
      vertex  3.125000e-002  1.189087e-002 -1.139744e-002
    endloop
  endfacet
  facet normal  0.000000e+000 -7.730105e-001  6.343933e-001
    outer loop
      vertex  3.125000e-002  1.189087e-002 -1.139744e-002
      vertex  7.500000e-001  1.189087e-002 -1.139744e-002
      vertex  7.500000e-001  1.389540e-002 -8.954915e-003
    endloop
  endfacet
  facet normal  0.000000e+000 -7.730105e-001  6.343933e-001
    outer loop
      vertex  3.125000e-002  1.189087e-002 -1.139744e-002
      vertex  7.500000e-001  1.389540e-002 -8.954915e-003
      vertex  3.125000e-002  1.389540e-002 -8.954915e-003
    endloop
  endfacet
  facet normal  0.000000e+000 -8.819212e-001  4.713968e-001
    outer loop
      vertex  3.125000e-002  1.389540e-002 -8.954915e-003
      vertex  7.500000e-001  1.389540e-002 -8.954915e-003
      vertex  7.500000e-001  1.538490e-002 -6.168253e-003
    endloop
  endfacet
  facet normal  0.000000e+000 -8.819212e-001  4.713968e-001
    outer loop
      vertex  3.125000e-002  1.389540e-002 -8.954915e-003
      vertex  7.500000e-001  1.538490e-002 -6.168253e-003
      vertex  3.125000e-002  1.538490e-002 -6.168253e-003
    endloop
  endfacet
  facet normal  0.000000e+000 -9.569404e-001  2.902847e-001
    outer loop
      vertex  3.125000e-002  1.538490e-002 -6.168253e-003
      vertex  7.500000e-001  1.538490e-002 -6.168253e-003
      vertex  7.500000e-001  1.630213e-002 -3.144548e-003
    endloop
  endfacet
  facet normal  0.000000e+000 -9.569404e-001  2.902847e-001
    outer loop
      vertex  3.125000e-002  1.538490e-002 -6.168253e-003
      vertex  7.500000e-001  1.630213e-002 -3.144548e-003
      vertex  3.125000e-002  1.630213e-002 -3.144548e-003
    endloop
  endfacet
  facet normal  0.000000e+000 -9.951848e-001  9.801727e-002
    outer loop
      vertex  3.125000e-002  1.630213e-002 -3.144548e-003
      vertex  7.500000e-001  1.630213e-002 -3.144548e-003
      vertex  7.500000e-001  1.661184e-002 -3.887448e-018
    endloop
  endfacet
  facet normal -5.383612e-019 -9.951848e-001  9.801727e-002
    outer loop
      vertex  3.125000e-002  1.630213e-002 -3.144548e-003
      vertex  7.500000e-001  1.661184e-002 -3.887448e-018
      vertex  3.125000e-002  1.661184e-002 -7.835192e-018
    endloop
  endfacet
  facet normal  0.000000e+000 -9.801667e-002  9.951848e-001
    outer loop
      vertex  7.500000e-001  3.637969e-003 -1.580871e-002
      vertex  3.125000e-002  4.934210e-004 -1.611842e-002
      vertex  7.500000e-001  4.934210e-004 -1.611842e-002
    endloop
  endfacet
  facet normal  0.000000e+000  9.801668e-002  9.951847e-001
    outer loop
      vertex  7.500000e-001  4.934210e-004 -1.611842e-002
      vertex  3.125000e-002  4.934210e-004 -1.611842e-002
      vertex  3.125000e-002 -2.651127e-003 -1.580871e-002
    endloop
  endfacet
  facet normal  -0.000000e+000  9.801668e-002  9.951847e-001
    outer loop
      vertex  7.500000e-001  4.934210e-004 -1.611842e-002
      vertex  3.125000e-002 -2.651127e-003 -1.580871e-002
      vertex  7.500000e-001 -2.651127e-003 -1.580871e-002
    endloop
  endfacet
  facet normal  0.000000e+000  2.902849e-001  9.569402e-001
    outer loop
      vertex  7.500000e-001 -2.651127e-003 -1.580871e-002
      vertex  3.125000e-002 -2.651127e-003 -1.580871e-002
      vertex  3.125000e-002 -5.674832e-003 -1.489148e-002
    endloop
  endfacet
  facet normal  -0.000000e+000  2.902849e-001  9.569402e-001
    outer loop
      vertex  7.500000e-001 -2.651127e-003 -1.580871e-002
      vertex  3.125000e-002 -5.674832e-003 -1.489148e-002
      vertex  7.500000e-001 -5.674832e-003 -1.489148e-002
    endloop
  endfacet
  facet normal  0.000000e+000  4.713966e-001  8.819214e-001
    outer loop
      vertex  7.500000e-001 -5.674832e-003 -1.489148e-002
      vertex  3.125000e-002 -5.674832e-003 -1.489148e-002
      vertex  3.125000e-002 -8.461494e-003 -1.340198e-002
    endloop
  endfacet
  facet normal  -0.000000e+000  4.713966e-001  8.819214e-001
    outer loop
      vertex  7.500000e-001 -5.674832e-003 -1.489148e-002
      vertex  3.125000e-002 -8.461494e-003 -1.340198e-002
      vertex  7.500000e-001 -8.461494e-003 -1.340198e-002
    endloop
  endfacet
  facet normal  0.000000e+000  6.343935e-001  7.730103e-001
    outer loop
      vertex  7.500000e-001 -8.461494e-003 -1.340198e-002
      vertex  3.125000e-002 -8.461494e-003 -1.340198e-002
      vertex  3.125000e-002 -1.090402e-002 -1.139744e-002
    endloop
  endfacet
  facet normal  -0.000000e+000  6.343935e-001  7.730103e-001
    outer loop
      vertex  7.500000e-001 -8.461494e-003 -1.340198e-002
      vertex  3.125000e-002 -1.090402e-002 -1.139744e-002
      vertex  7.500000e-001 -1.090402e-002 -1.139744e-002
    endloop
  endfacet
  facet normal  0.000000e+000  7.730103e-001  6.343935e-001
    outer loop
      vertex  7.500000e-001 -1.090402e-002 -1.139744e-002
      vertex  3.125000e-002 -1.090402e-002 -1.139744e-002
      vertex  3.125000e-002 -1.290856e-002 -8.954915e-003
    endloop
  endfacet
  facet normal  -0.000000e+000  7.730103e-001  6.343935e-001
    outer loop
      vertex  7.500000e-001 -1.090402e-002 -1.139744e-002
      vertex  3.125000e-002 -1.290856e-002 -8.954915e-003
      vertex  7.500000e-001 -1.290856e-002 -8.954915e-003
    endloop
  endfacet
  facet normal  0.000000e+000  8.819214e-001  4.713966e-001
    outer loop
      vertex  7.500000e-001 -1.290856e-002 -8.954915e-003
      vertex  3.125000e-002 -1.290856e-002 -8.954915e-003
      vertex  3.125000e-002 -1.439806e-002 -6.168253e-003
    endloop
  endfacet
  facet normal  -0.000000e+000  8.819214e-001  4.713966e-001
    outer loop
      vertex  7.500000e-001 -1.290856e-002 -8.954915e-003
      vertex  3.125000e-002 -1.439806e-002 -6.168253e-003
      vertex  7.500000e-001 -1.439806e-002 -6.168253e-003
    endloop
  endfacet
  facet normal  0.000000e+000  9.569404e-001  2.902847e-001
    outer loop
      vertex  7.500000e-001 -1.439806e-002 -6.168253e-003
      vertex  3.125000e-002 -1.439806e-002 -6.168253e-003
      vertex  3.125000e-002 -1.531529e-002 -3.144548e-003
    endloop
  endfacet
  facet normal  -0.000000e+000  9.569404e-001  2.902847e-001
    outer loop
      vertex  7.500000e-001 -1.439806e-002 -6.168253e-003
      vertex  3.125000e-002 -1.531529e-002 -3.144548e-003
      vertex  7.500000e-001 -1.531529e-002 -3.144548e-003
    endloop
  endfacet
  facet normal  0.000000e+000  9.951848e-001  9.801727e-002
    outer loop
      vertex  7.500000e-001 -1.531529e-002 -3.144548e-003
      vertex  3.125000e-002 -1.531529e-002 -3.144548e-003
      vertex  3.125000e-002 -1.562500e-002  6.036146e-020
    endloop
  endfacet
  facet normal  -0.000000e+000  9.951848e-001  9.801727e-002
    outer loop
      vertex  7.500000e-001 -1.531529e-002 -3.144548e-003
      vertex  3.125000e-002 -1.562500e-002  6.036146e-020
      vertex  7.500000e-001 -1.562500e-002  6.036146e-020
    endloop
  endfacet
  facet normal  0.000000e+000  9.801668e-002 -9.951847e-001
    outer loop
      vertex  3.125000e-002  4.934210e-004  1.611842e-002
      vertex  7.500000e-001 -2.651127e-003  1.580871e-002
      vertex  3.125000e-002 -2.651127e-003  1.580871e-002
    endloop
  endfacet
  facet normal  0.000000e+000  2.902849e-001 -9.569402e-001
    outer loop
      vertex  3.125000e-002 -2.651127e-003  1.580871e-002
      vertex  7.500000e-001 -2.651127e-003  1.580871e-002
      vertex  7.500000e-001 -5.674832e-003  1.489148e-002
    endloop
  endfacet
  facet normal  0.000000e+000  2.902849e-001 -9.569402e-001
    outer loop
      vertex  3.125000e-002 -2.651127e-003  1.580871e-002
      vertex  7.500000e-001 -5.674832e-003  1.489148e-002
      vertex  3.125000e-002 -5.674832e-003  1.489148e-002
    endloop
  endfacet
  facet normal  0.000000e+000  4.713966e-001 -8.819214e-001
    outer loop
      vertex  3.125000e-002 -5.674832e-003  1.489148e-002
      vertex  7.500000e-001 -5.674832e-003  1.489148e-002
      vertex  7.500000e-001 -8.461494e-003  1.340198e-002
    endloop
  endfacet
  facet normal  0.000000e+000  4.713966e-001 -8.819214e-001
    outer loop
      vertex  3.125000e-002 -5.674832e-003  1.489148e-002
      vertex  7.500000e-001 -8.461494e-003  1.340198e-002
      vertex  3.125000e-002 -8.461494e-003  1.340198e-002
    endloop
  endfacet
  facet normal  0.000000e+000  6.343935e-001 -7.730103e-001
    outer loop
      vertex  3.125000e-002 -8.461494e-003  1.340198e-002
      vertex  7.500000e-001 -8.461494e-003  1.340198e-002
      vertex  7.500000e-001 -1.090402e-002  1.139744e-002
    endloop
  endfacet
  facet normal  0.000000e+000  6.343935e-001 -7.730103e-001
    outer loop
      vertex  3.125000e-002 -8.461494e-003  1.340198e-002
      vertex  7.500000e-001 -1.090402e-002  1.139744e-002
      vertex  3.125000e-002 -1.090402e-002  1.139744e-002
    endloop
  endfacet
  facet normal  0.000000e+000  7.730103e-001 -6.343935e-001
    outer loop
      vertex  3.125000e-002 -1.090402e-002  1.139744e-002
      vertex  7.500000e-001 -1.090402e-002  1.139744e-002
      vertex  7.500000e-001 -1.290856e-002  8.954915e-003
    endloop
  endfacet
  facet normal  0.000000e+000  7.730103e-001 -6.343935e-001
    outer loop
      vertex  3.125000e-002 -1.090402e-002  1.139744e-002
      vertex  7.500000e-001 -1.290856e-002  8.954915e-003
      vertex  3.125000e-002 -1.290856e-002  8.954915e-003
    endloop
  endfacet
  facet normal  0.000000e+000  8.819214e-001 -4.713966e-001
    outer loop
      vertex  3.125000e-002 -1.290856e-002  8.954915e-003
      vertex  7.500000e-001 -1.290856e-002  8.954915e-003
      vertex  7.500000e-001 -1.439806e-002  6.168253e-003
    endloop
  endfacet
  facet normal  0.000000e+000  8.819214e-001 -4.713966e-001
    outer loop
      vertex  3.125000e-002 -1.290856e-002  8.954915e-003
      vertex  7.500000e-001 -1.439806e-002  6.168253e-003
      vertex  3.125000e-002 -1.439806e-002  6.168253e-003
    endloop
  endfacet
  facet normal  0.000000e+000  9.569404e-001 -2.902847e-001
    outer loop
      vertex  3.125000e-002 -1.439806e-002  6.168253e-003
      vertex  7.500000e-001 -1.439806e-002  6.168253e-003
      vertex  7.500000e-001 -1.531529e-002  3.144548e-003
    endloop
  endfacet
  facet normal  0.000000e+000  9.569404e-001 -2.902847e-001
    outer loop
      vertex  3.125000e-002 -1.439806e-002  6.168253e-003
      vertex  7.500000e-001 -1.531529e-002  3.144548e-003
      vertex  3.125000e-002 -1.531529e-002  3.144548e-003
    endloop
  endfacet
  facet normal  0.000000e+000  9.951848e-001 -9.801727e-002
    outer loop
      vertex  3.125000e-002 -1.531529e-002  3.144548e-003
      vertex  7.500000e-001 -1.531529e-002  3.144548e-003
      vertex  7.500000e-001 -1.562500e-002  6.036146e-020
    endloop
  endfacet
  facet normal  0.000000e+000  9.951848e-001 -9.801727e-002
    outer loop
      vertex  3.125000e-002 -1.531529e-002  3.144548e-003
      vertex  7.500000e-001 -1.562500e-002  6.036146e-020
      vertex  3.125000e-002 -1.562500e-002  6.036146e-020
    endloop
  endfacet
  facet normal  0.000000e+000  9.801668e-002 -9.951847e-001
    outer loop
      vertex  7.500000e-001 -2.651127e-003  1.580871e-002
      vertex  3.125000e-002  4.934210e-004  1.611842e-002
      vertex  7.500000e-001  4.934210e-004  1.611842e-002
    endloop
  endfacet
  facet normal  -0.000000e+000 -9.801667e-002 -9.951848e-001
    outer loop
      vertex  7.500000e-001  4.934210e-004  1.611842e-002
      vertex  3.125000e-002  4.934210e-004  1.611842e-002
      vertex  3.125000e-002  3.637969e-003  1.580871e-002
    endloop
  endfacet
  facet normal  0.000000e+000 -9.801667e-002 -9.951848e-001
    outer loop
      vertex  7.500000e-001  4.934210e-004  1.611842e-002
      vertex  3.125000e-002  3.637969e-003  1.580871e-002
      vertex  7.500000e-001  3.637969e-003  1.580871e-002
    endloop
  endfacet
  facet normal  -0.000000e+000 -2.902850e-001 -9.569403e-001
    outer loop
      vertex  7.500000e-001  3.637969e-003  1.580871e-002
      vertex  3.125000e-002  3.637969e-003  1.580871e-002
      vertex  3.125000e-002  6.661674e-003  1.489148e-002
    endloop
  endfacet
  facet normal  0.000000e+000 -2.902850e-001 -9.569403e-001
    outer loop
      vertex  7.500000e-001  3.637969e-003  1.580871e-002
      vertex  3.125000e-002  6.661674e-003  1.489148e-002
      vertex  7.500000e-001  6.661674e-003  1.489148e-002
    endloop
  endfacet
  facet normal  -0.000000e+000 -4.713965e-001 -8.819214e-001
    outer loop
      vertex  7.500000e-001  6.661674e-003  1.489148e-002
      vertex  3.125000e-002  6.661674e-003  1.489148e-002
      vertex  3.125000e-002  9.448336e-003  1.340198e-002
    endloop
  endfacet
  facet normal  0.000000e+000 -4.713965e-001 -8.819214e-001
    outer loop
      vertex  7.500000e-001  6.661674e-003  1.489148e-002
      vertex  3.125000e-002  9.448336e-003  1.340198e-002
      vertex  7.500000e-001  9.448336e-003  1.340198e-002
    endloop
  endfacet
  facet normal  -0.000000e+000 -6.343935e-001 -7.730103e-001
    outer loop
      vertex  7.500000e-001  9.448336e-003  1.340198e-002
      vertex  3.125000e-002  9.448336e-003  1.340198e-002
      vertex  3.125000e-002  1.189087e-002  1.139744e-002
    endloop
  endfacet
  facet normal  0.000000e+000 -6.343935e-001 -7.730103e-001
    outer loop
      vertex  7.500000e-001  9.448336e-003  1.340198e-002
      vertex  3.125000e-002  1.189087e-002  1.139744e-002
      vertex  7.500000e-001  1.189087e-002  1.139744e-002
    endloop
  endfacet
  facet normal  -0.000000e+000 -7.730105e-001 -6.343933e-001
    outer loop
      vertex  7.500000e-001  1.189087e-002  1.139744e-002
      vertex  3.125000e-002  1.189087e-002  1.139744e-002
      vertex  3.125000e-002  1.389540e-002  8.954915e-003
    endloop
  endfacet
  facet normal  0.000000e+000 -7.730105e-001 -6.343933e-001
    outer loop
      vertex  7.500000e-001  1.189087e-002  1.139744e-002
      vertex  3.125000e-002  1.389540e-002  8.954915e-003
      vertex  7.500000e-001  1.389540e-002  8.954915e-003
    endloop
  endfacet
  facet normal  -0.000000e+000 -8.819212e-001 -4.713968e-001
    outer loop
      vertex  7.500000e-001  1.389540e-002  8.954915e-003
      vertex  3.125000e-002  1.389540e-002  8.954915e-003
      vertex  3.125000e-002  1.538490e-002  6.168253e-003
    endloop
  endfacet
  facet normal  0.000000e+000 -8.819212e-001 -4.713968e-001
    outer loop
      vertex  7.500000e-001  1.389540e-002  8.954915e-003
      vertex  3.125000e-002  1.538490e-002  6.168253e-003
      vertex  7.500000e-001  1.538490e-002  6.168253e-003
    endloop
  endfacet
  facet normal  -0.000000e+000 -9.569404e-001 -2.902847e-001
    outer loop
      vertex  7.500000e-001  1.538490e-002  6.168253e-003
      vertex  3.125000e-002  1.538490e-002  6.168253e-003
      vertex  3.125000e-002  1.630213e-002  3.144548e-003
    endloop
  endfacet
  facet normal  0.000000e+000 -9.569404e-001 -2.902847e-001
    outer loop
      vertex  7.500000e-001  1.538490e-002  6.168253e-003
      vertex  3.125000e-002  1.630213e-002  3.144548e-003
      vertex  7.500000e-001  1.630213e-002  3.144548e-003
    endloop
  endfacet
  facet normal  -0.000000e+000 -9.951848e-001 -9.801727e-002
    outer loop
      vertex  7.500000e-001  1.630213e-002  3.144548e-003
      vertex  3.125000e-002  1.630213e-002  3.144548e-003
      vertex  3.125000e-002  1.661184e-002 -7.835192e-018
    endloop
  endfacet
  facet normal  5.383612e-019 -9.951848e-001 -9.801727e-002
    outer loop
      vertex  7.500000e-001  1.630213e-002  3.144548e-003
      vertex  3.125000e-002  1.661184e-002 -7.835192e-018
      vertex  7.500000e-001  1.661184e-002 -3.887448e-018
    endloop
  endfacet
  facet normal  1.016754e-017  9.951848e-001 -9.801749e-002
    outer loop
      vertex -2.343750e-002  7.129934e-002 -8.746626e-017
      vertex  7.500000e-001  7.129934e-002 -7.236092e-018
      vertex -2.343750e-002  6.993882e-002 -1.381355e-002
    endloop
  endfacet
  facet normal  0.000000e+000  9.951848e-001 -9.801749e-002
    outer loop
      vertex -2.343750e-002  6.993882e-002 -1.381355e-002
      vertex  7.500000e-001  7.129934e-002 -7.236092e-018
      vertex  7.500000e-001  6.993882e-002 -1.381355e-002
    endloop
  endfacet
  facet normal  0.000000e+000  9.569405e-001 -2.902844e-001
    outer loop
      vertex -2.343750e-002  6.993882e-002 -1.381355e-002
      vertex  7.500000e-001  6.993882e-002 -1.381355e-002
      vertex -2.343750e-002  6.590956e-002 -2.709625e-002
    endloop
  endfacet
  facet normal  0.000000e+000  9.569405e-001 -2.902844e-001
    outer loop
      vertex -2.343750e-002  6.590956e-002 -2.709625e-002
      vertex  7.500000e-001  6.993882e-002 -1.381355e-002
      vertex  7.500000e-001  6.590956e-002 -2.709625e-002
    endloop
  endfacet
  facet normal  0.000000e+000  8.819212e-001 -4.713969e-001
    outer loop
      vertex -2.343750e-002  6.590956e-002 -2.709625e-002
      vertex  7.500000e-001  6.590956e-002 -2.709625e-002
      vertex -2.343750e-002  5.936639e-002 -3.933766e-002
    endloop
  endfacet
  facet normal  0.000000e+000  8.819212e-001 -4.713969e-001
    outer loop
      vertex -2.343750e-002  5.936639e-002 -3.933766e-002
      vertex  7.500000e-001  6.590956e-002 -2.709625e-002
      vertex  7.500000e-001  5.936639e-002 -3.933766e-002
    endloop
  endfacet
  facet normal  0.000000e+000  7.730105e-001 -6.343933e-001
    outer loop
      vertex -2.343750e-002  5.936639e-002 -3.933766e-002
      vertex  7.500000e-001  5.936639e-002 -3.933766e-002
      vertex -2.343750e-002  5.056077e-002 -5.006735e-002
    endloop
  endfacet
  facet normal  0.000000e+000  7.730105e-001 -6.343933e-001
    outer loop
      vertex -2.343750e-002  5.056077e-002 -5.006735e-002
      vertex  7.500000e-001  5.936639e-002 -3.933766e-002
      vertex  7.500000e-001  5.056077e-002 -5.006735e-002
    endloop
  endfacet
  facet normal  0.000000e+000  6.343933e-001 -7.730105e-001
    outer loop
      vertex -2.343750e-002  5.056077e-002 -5.006735e-002
      vertex  7.500000e-001  5.056077e-002 -5.006735e-002
      vertex -2.343750e-002  3.983108e-002 -5.887297e-002
    endloop
  endfacet
  facet normal  0.000000e+000  6.343933e-001 -7.730105e-001
    outer loop
      vertex -2.343750e-002  3.983108e-002 -5.887297e-002
      vertex  7.500000e-001  5.056077e-002 -5.006735e-002
      vertex  7.500000e-001  3.983108e-002 -5.887297e-002
    endloop
  endfacet
  facet normal  0.000000e+000  4.713968e-001 -8.819213e-001
    outer loop
      vertex -2.343750e-002  3.983108e-002 -5.887297e-002
      vertex  7.500000e-001  3.983108e-002 -5.887297e-002
      vertex -2.343750e-002  2.758967e-002 -6.541614e-002
    endloop
  endfacet
  facet normal  0.000000e+000  4.713968e-001 -8.819213e-001
    outer loop
      vertex -2.343750e-002  2.758967e-002 -6.541614e-002
      vertex  7.500000e-001  3.983108e-002 -5.887297e-002
      vertex  7.500000e-001  2.758967e-002 -6.541614e-002
    endloop
  endfacet
  facet normal  0.000000e+000  2.902844e-001 -9.569404e-001
    outer loop
      vertex -2.343750e-002  2.758967e-002 -6.541614e-002
      vertex  7.500000e-001  2.758967e-002 -6.541614e-002
      vertex -2.343750e-002  1.430697e-002 -6.944540e-002
    endloop
  endfacet
  facet normal  0.000000e+000  2.902844e-001 -9.569404e-001
    outer loop
      vertex -2.343750e-002  1.430697e-002 -6.944540e-002
      vertex  7.500000e-001  2.758967e-002 -6.541614e-002
      vertex  7.500000e-001  1.430697e-002 -6.944540e-002
    endloop
  endfacet
  facet normal  0.000000e+000  9.801749e-002 -9.951848e-001
    outer loop
      vertex -2.343750e-002  1.430697e-002 -6.944540e-002
      vertex  7.500000e-001  1.430697e-002 -6.944540e-002
      vertex -2.343750e-002  4.934210e-004 -7.080592e-002
    endloop
  endfacet
  facet normal  0.000000e+000  9.801749e-002 -9.951848e-001
    outer loop
      vertex -2.343750e-002  4.934210e-004 -7.080592e-002
      vertex  7.500000e-001  1.430697e-002 -6.944540e-002
      vertex  7.500000e-001  4.934210e-004 -7.080592e-002
    endloop
  endfacet
  facet normal  -0.000000e+000 -9.801749e-002 -9.951848e-001
    outer loop
      vertex -2.343750e-002  4.934210e-004 -7.080592e-002
      vertex  7.500000e-001  4.934210e-004 -7.080592e-002
      vertex -2.343750e-002 -1.332013e-002 -6.944540e-002
    endloop
  endfacet
  facet normal  0.000000e+000 -9.801749e-002 -9.951848e-001
    outer loop
      vertex -2.343750e-002 -1.332013e-002 -6.944540e-002
      vertex  7.500000e-001  4.934210e-004 -7.080592e-002
      vertex  7.500000e-001 -1.332013e-002 -6.944540e-002
    endloop
  endfacet
  facet normal  -0.000000e+000 -2.902844e-001 -9.569405e-001
    outer loop
      vertex -2.343750e-002 -1.332013e-002 -6.944540e-002
      vertex  7.500000e-001 -1.332013e-002 -6.944540e-002
      vertex -2.343750e-002 -2.660283e-002 -6.541614e-002
    endloop
  endfacet
  facet normal  0.000000e+000 -2.902844e-001 -9.569405e-001
    outer loop
      vertex -2.343750e-002 -2.660283e-002 -6.541614e-002
      vertex  7.500000e-001 -1.332013e-002 -6.944540e-002
      vertex  7.500000e-001 -2.660283e-002 -6.541614e-002
    endloop
  endfacet
  facet normal  -0.000000e+000 -4.713968e-001 -8.819213e-001
    outer loop
      vertex -2.343750e-002 -2.660283e-002 -6.541614e-002
      vertex  7.500000e-001 -2.660283e-002 -6.541614e-002
      vertex -2.343750e-002 -3.884424e-002 -5.887297e-002
    endloop
  endfacet
  facet normal  0.000000e+000 -4.713968e-001 -8.819213e-001
    outer loop
      vertex -2.343750e-002 -3.884424e-002 -5.887297e-002
      vertex  7.500000e-001 -2.660283e-002 -6.541614e-002
      vertex  7.500000e-001 -3.884424e-002 -5.887297e-002
    endloop
  endfacet
  facet normal  -0.000000e+000 -6.343935e-001 -7.730104e-001
    outer loop
      vertex -2.343750e-002 -3.884424e-002 -5.887297e-002
      vertex  7.500000e-001 -3.884424e-002 -5.887297e-002
      vertex -2.343750e-002 -4.957392e-002 -5.006735e-002
    endloop
  endfacet
  facet normal  0.000000e+000 -6.343935e-001 -7.730104e-001
    outer loop
      vertex -2.343750e-002 -4.957392e-002 -5.006735e-002
      vertex  7.500000e-001 -3.884424e-002 -5.887297e-002
      vertex  7.500000e-001 -4.957392e-002 -5.006735e-002
    endloop
  endfacet
  facet normal  -0.000000e+000 -7.730105e-001 -6.343933e-001
    outer loop
      vertex -2.343750e-002 -4.957392e-002 -5.006735e-002
      vertex  7.500000e-001 -4.957392e-002 -5.006735e-002
      vertex -2.343750e-002 -5.837955e-002 -3.933766e-002
    endloop
  endfacet
  facet normal  0.000000e+000 -7.730105e-001 -6.343933e-001
    outer loop
      vertex -2.343750e-002 -5.837955e-002 -3.933766e-002
      vertex  7.500000e-001 -4.957392e-002 -5.006735e-002
      vertex  7.500000e-001 -5.837955e-002 -3.933766e-002
    endloop
  endfacet
  facet normal  -0.000000e+000 -8.819212e-001 -4.713969e-001
    outer loop
      vertex -2.343750e-002 -5.837955e-002 -3.933766e-002
      vertex  7.500000e-001 -5.837955e-002 -3.933766e-002
      vertex -2.343750e-002 -6.492272e-002 -2.709625e-002
    endloop
  endfacet
  facet normal  0.000000e+000 -8.819212e-001 -4.713969e-001
    outer loop
      vertex -2.343750e-002 -6.492272e-002 -2.709625e-002
      vertex  7.500000e-001 -5.837955e-002 -3.933766e-002
      vertex  7.500000e-001 -6.492272e-002 -2.709625e-002
    endloop
  endfacet
  facet normal  -0.000000e+000 -9.569404e-001 -2.902848e-001
    outer loop
      vertex -2.343750e-002 -6.492272e-002 -2.709625e-002
      vertex  7.500000e-001 -6.492272e-002 -2.709625e-002
      vertex -2.343750e-002 -6.895199e-002 -1.381355e-002
    endloop
  endfacet
  facet normal  0.000000e+000 -9.569404e-001 -2.902848e-001
    outer loop
      vertex -2.343750e-002 -6.895199e-002 -1.381355e-002
      vertex  7.500000e-001 -6.492272e-002 -2.709625e-002
      vertex  7.500000e-001 -6.895199e-002 -1.381355e-002
    endloop
  endfacet
  facet normal  -0.000000e+000 -9.951848e-001 -9.801695e-002
    outer loop
      vertex -2.343750e-002 -6.895199e-002 -1.381355e-002
      vertex  7.500000e-001 -6.895199e-002 -1.381355e-002
      vertex -2.343750e-002 -7.031250e-002  4.155022e-017
    endloop
  endfacet
  facet normal  0.000000e+000 -9.951848e-001 -9.801695e-002
    outer loop
      vertex -2.343750e-002 -7.031250e-002  4.155022e-017
      vertex  7.500000e-001 -6.895199e-002 -1.381355e-002
      vertex  7.500000e-001 -7.031250e-002  4.155022e-017
    endloop
  endfacet
  facet normal  0.000000e+000 -9.951848e-001  9.801695e-002
    outer loop
      vertex -2.343750e-002 -7.031250e-002  4.155022e-017
      vertex  7.500000e-001 -7.031250e-002  4.155022e-017
      vertex -2.343750e-002 -6.895199e-002  1.381355e-002
    endloop
  endfacet
  facet normal  0.000000e+000 -9.951848e-001  9.801695e-002
    outer loop
      vertex -2.343750e-002 -6.895199e-002  1.381355e-002
      vertex  7.500000e-001 -7.031250e-002  4.155022e-017
      vertex  7.500000e-001 -6.895199e-002  1.381355e-002
    endloop
  endfacet
  facet normal  0.000000e+000 -9.569404e-001  2.902848e-001
    outer loop
      vertex -2.343750e-002 -6.895199e-002  1.381355e-002
      vertex  7.500000e-001 -6.895199e-002  1.381355e-002
      vertex -2.343750e-002 -6.492272e-002  2.709625e-002
    endloop
  endfacet
  facet normal  0.000000e+000 -9.569404e-001  2.902848e-001
    outer loop
      vertex -2.343750e-002 -6.492272e-002  2.709625e-002
      vertex  7.500000e-001 -6.895199e-002  1.381355e-002
      vertex  7.500000e-001 -6.492272e-002  2.709625e-002
    endloop
  endfacet
  facet normal  0.000000e+000 -8.819212e-001  4.713969e-001
    outer loop
      vertex -2.343750e-002 -6.492272e-002  2.709625e-002
      vertex  7.500000e-001 -6.492272e-002  2.709625e-002
      vertex -2.343750e-002 -5.837955e-002  3.933766e-002
    endloop
  endfacet
  facet normal  0.000000e+000 -8.819212e-001  4.713969e-001
    outer loop
      vertex -2.343750e-002 -5.837955e-002  3.933766e-002
      vertex  7.500000e-001 -6.492272e-002  2.709625e-002
      vertex  7.500000e-001 -5.837955e-002  3.933766e-002
    endloop
  endfacet
  facet normal  0.000000e+000 -7.730105e-001  6.343933e-001
    outer loop
      vertex -2.343750e-002 -5.837955e-002  3.933766e-002
      vertex  7.500000e-001 -5.837955e-002  3.933766e-002
      vertex -2.343750e-002 -4.957392e-002  5.006735e-002
    endloop
  endfacet
  facet normal  0.000000e+000 -7.730105e-001  6.343933e-001
    outer loop
      vertex -2.343750e-002 -4.957392e-002  5.006735e-002
      vertex  7.500000e-001 -5.837955e-002  3.933766e-002
      vertex  7.500000e-001 -4.957392e-002  5.006735e-002
    endloop
  endfacet
  facet normal  0.000000e+000 -6.343935e-001  7.730104e-001
    outer loop
      vertex -2.343750e-002 -4.957392e-002  5.006735e-002
      vertex  7.500000e-001 -4.957392e-002  5.006735e-002
      vertex -2.343750e-002 -3.884424e-002  5.887297e-002
    endloop
  endfacet
  facet normal  0.000000e+000 -6.343935e-001  7.730104e-001
    outer loop
      vertex -2.343750e-002 -3.884424e-002  5.887297e-002
      vertex  7.500000e-001 -4.957392e-002  5.006735e-002
      vertex  7.500000e-001 -3.884424e-002  5.887297e-002
    endloop
  endfacet
  facet normal  0.000000e+000 -4.713968e-001  8.819213e-001
    outer loop
      vertex -2.343750e-002 -3.884424e-002  5.887297e-002
      vertex  7.500000e-001 -3.884424e-002  5.887297e-002
      vertex -2.343750e-002 -2.660283e-002  6.541614e-002
    endloop
  endfacet
  facet normal  0.000000e+000 -4.713968e-001  8.819213e-001
    outer loop
      vertex -2.343750e-002 -2.660283e-002  6.541614e-002
      vertex  7.500000e-001 -3.884424e-002  5.887297e-002
      vertex  7.500000e-001 -2.660283e-002  6.541614e-002
    endloop
  endfacet
  facet normal  0.000000e+000 -2.902844e-001  9.569405e-001
    outer loop
      vertex -2.343750e-002 -2.660283e-002  6.541614e-002
      vertex  7.500000e-001 -2.660283e-002  6.541614e-002
      vertex -2.343750e-002 -1.332013e-002  6.944540e-002
    endloop
  endfacet
  facet normal  0.000000e+000 -2.902844e-001  9.569405e-001
    outer loop
      vertex -2.343750e-002 -1.332013e-002  6.944540e-002
      vertex  7.500000e-001 -2.660283e-002  6.541614e-002
      vertex  7.500000e-001 -1.332013e-002  6.944540e-002
    endloop
  endfacet
  facet normal  0.000000e+000 -9.801749e-002  9.951848e-001
    outer loop
      vertex -2.343750e-002 -1.332013e-002  6.944540e-002
      vertex  7.500000e-001 -1.332013e-002  6.944540e-002
      vertex -2.343750e-002  4.934210e-004  7.080592e-002
    endloop
  endfacet
  facet normal  0.000000e+000 -9.801749e-002  9.951848e-001
    outer loop
      vertex -2.343750e-002  4.934210e-004  7.080592e-002
      vertex  7.500000e-001 -1.332013e-002  6.944540e-002
      vertex  7.500000e-001  4.934210e-004  7.080592e-002
    endloop
  endfacet
  facet normal  0.000000e+000  9.801749e-002  9.951848e-001
    outer loop
      vertex -2.343750e-002  4.934210e-004  7.080592e-002
      vertex  7.500000e-001  4.934210e-004  7.080592e-002
      vertex -2.343750e-002  1.430697e-002  6.944540e-002
    endloop
  endfacet
  facet normal  -0.000000e+000  9.801749e-002  9.951848e-001
    outer loop
      vertex -2.343750e-002  1.430697e-002  6.944540e-002
      vertex  7.500000e-001  4.934210e-004  7.080592e-002
      vertex  7.500000e-001  1.430697e-002  6.944540e-002
    endloop
  endfacet
  facet normal  0.000000e+000  2.902844e-001  9.569404e-001
    outer loop
      vertex -2.343750e-002  1.430697e-002  6.944540e-002
      vertex  7.500000e-001  1.430697e-002  6.944540e-002
      vertex -2.343750e-002  2.758967e-002  6.541614e-002
    endloop
  endfacet
  facet normal  -0.000000e+000  2.902844e-001  9.569404e-001
    outer loop
      vertex -2.343750e-002  2.758967e-002  6.541614e-002
      vertex  7.500000e-001  1.430697e-002  6.944540e-002
      vertex  7.500000e-001  2.758967e-002  6.541614e-002
    endloop
  endfacet
  facet normal  0.000000e+000  4.713968e-001  8.819213e-001
    outer loop
      vertex -2.343750e-002  2.758967e-002  6.541614e-002
      vertex  7.500000e-001  2.758967e-002  6.541614e-002
      vertex -2.343750e-002  3.983108e-002  5.887297e-002
    endloop
  endfacet
  facet normal  -0.000000e+000  4.713968e-001  8.819213e-001
    outer loop
      vertex -2.343750e-002  3.983108e-002  5.887297e-002
      vertex  7.500000e-001  2.758967e-002  6.541614e-002
      vertex  7.500000e-001  3.983108e-002  5.887297e-002
    endloop
  endfacet
  facet normal  0.000000e+000  6.343933e-001  7.730105e-001
    outer loop
      vertex -2.343750e-002  3.983108e-002  5.887297e-002
      vertex  7.500000e-001  3.983108e-002  5.887297e-002
      vertex -2.343750e-002  5.056077e-002  5.006735e-002
    endloop
  endfacet
  facet normal  -0.000000e+000  6.343933e-001  7.730105e-001
    outer loop
      vertex -2.343750e-002  5.056077e-002  5.006735e-002
      vertex  7.500000e-001  3.983108e-002  5.887297e-002
      vertex  7.500000e-001  5.056077e-002  5.006735e-002
    endloop
  endfacet
  facet normal  0.000000e+000  7.730105e-001  6.343933e-001
    outer loop
      vertex -2.343750e-002  5.056077e-002  5.006735e-002
      vertex  7.500000e-001  5.056077e-002  5.006735e-002
      vertex -2.343750e-002  5.936639e-002  3.933766e-002
    endloop
  endfacet
  facet normal  -0.000000e+000  7.730105e-001  6.343933e-001
    outer loop
      vertex -2.343750e-002  5.936639e-002  3.933766e-002
      vertex  7.500000e-001  5.056077e-002  5.006735e-002
      vertex  7.500000e-001  5.936639e-002  3.933766e-002
    endloop
  endfacet
  facet normal  0.000000e+000  8.819212e-001  4.713969e-001
    outer loop
      vertex -2.343750e-002  5.936639e-002  3.933766e-002
      vertex  7.500000e-001  5.936639e-002  3.933766e-002
      vertex -2.343750e-002  6.590956e-002  2.709625e-002
    endloop
  endfacet
  facet normal  -0.000000e+000  8.819212e-001  4.713969e-001
    outer loop
      vertex -2.343750e-002  6.590956e-002  2.709625e-002
      vertex  7.500000e-001  5.936639e-002  3.933766e-002
      vertex  7.500000e-001  6.590956e-002  2.709625e-002
    endloop
  endfacet
  facet normal  0.000000e+000  9.569405e-001  2.902844e-001
    outer loop
      vertex -2.343750e-002  6.590956e-002  2.709625e-002
      vertex  7.500000e-001  6.590956e-002  2.709625e-002
      vertex -2.343750e-002  6.993882e-002  1.381355e-002
    endloop
  endfacet
  facet normal  -0.000000e+000  9.569405e-001  2.902844e-001
    outer loop
      vertex -2.343750e-002  6.993882e-002  1.381355e-002
      vertex  7.500000e-001  6.590956e-002  2.709625e-002
      vertex  7.500000e-001  6.993882e-002  1.381355e-002
    endloop
  endfacet
  facet normal  0.000000e+000  9.951848e-001  9.801749e-002
    outer loop
      vertex -2.343750e-002  6.993882e-002  1.381355e-002
      vertex  7.500000e-001  6.993882e-002  1.381355e-002
      vertex -2.343750e-002  7.129934e-002 -8.746626e-017
    endloop
  endfacet
  facet normal -1.016754e-017  9.951848e-001  9.801749e-002
    outer loop
      vertex -2.343750e-002  7.129934e-002 -8.746626e-017
      vertex  7.500000e-001  6.993882e-002  1.381355e-002
      vertex  7.500000e-001  7.129934e-002 -7.236092e-018
    endloop
  endfacet
  facet normal -1.000000e+000  0.000000e+000  0.000000e+000
    outer loop
      vertex -2.343750e-002  4.934210e-004  7.080592e-002
      vertex -2.343750e-002  1.430697e-002  6.944540e-002
      vertex -2.343750e-002 -1.332013e-002  6.944540e-002
    endloop
  endfacet
  facet normal -1.000000e+000  0.000000e+000  -0.000000e+000
    outer loop
      vertex -2.343750e-002 -2.660283e-002  6.541614e-002
      vertex -2.343750e-002 -1.332013e-002  6.944540e-002
      vertex -2.343750e-002  1.430697e-002  6.944540e-002
    endloop
  endfacet
  facet normal -1.000000e+000  0.000000e+000  0.000000e+000
    outer loop
      vertex -2.343750e-002  2.758967e-002  6.541614e-002
      vertex -2.343750e-002 -2.660283e-002  6.541614e-002
      vertex -2.343750e-002  1.430697e-002  6.944540e-002
    endloop
  endfacet
  facet normal -1.000000e+000  0.000000e+000  -0.000000e+000
    outer loop
      vertex -2.343750e-002 -3.884424e-002  5.887297e-002
      vertex -2.343750e-002 -2.660283e-002  6.541614e-002
      vertex -2.343750e-002  2.758967e-002  6.541614e-002
    endloop
  endfacet
  facet normal -1.000000e+000  0.000000e+000  0.000000e+000
    outer loop
      vertex -2.343750e-002  3.983108e-002  5.887297e-002
      vertex -2.343750e-002 -3.884424e-002  5.887297e-002
      vertex -2.343750e-002  2.758967e-002  6.541614e-002
    endloop
  endfacet
  facet normal -1.000000e+000  0.000000e+000  -0.000000e+000
    outer loop
      vertex -2.343750e-002 -4.957392e-002  5.006735e-002
      vertex -2.343750e-002 -3.884424e-002  5.887297e-002
      vertex -2.343750e-002  3.983108e-002  5.887297e-002
    endloop
  endfacet
  facet normal -9.999999e-001  0.000000e+000  0.000000e+000
    outer loop
      vertex -2.343750e-002  5.056077e-002  5.006735e-002
      vertex -2.343750e-002 -4.957392e-002  5.006735e-002
      vertex -2.343750e-002  3.983108e-002  5.887297e-002
    endloop
  endfacet
  facet normal -1.000000e+000  0.000000e+000  -0.000000e+000
    outer loop
      vertex -2.343750e-002 -5.837955e-002  3.933766e-002
      vertex -2.343750e-002 -4.957392e-002  5.006735e-002
      vertex -2.343750e-002  5.056077e-002  5.006735e-002
    endloop
  endfacet
  facet normal -1.000000e+000  0.000000e+000  0.000000e+000
    outer loop
      vertex -2.343750e-002  5.936639e-002  3.933766e-002
      vertex -2.343750e-002 -5.837955e-002  3.933766e-002
      vertex -2.343750e-002  5.056077e-002  5.006735e-002
    endloop
  endfacet
  facet normal -1.000000e+000  0.000000e+000  0.000000e+000
    outer loop
      vertex -2.343750e-002  5.056077e-002 -5.006735e-002
      vertex -2.343750e-002 -4.957392e-002 -5.006735e-002
      vertex -2.343750e-002  5.936639e-002 -3.933766e-002
    endloop
  endfacet
  facet normal -9.999999e-001  0.000000e+000  0.000000e+000
    outer loop
      vertex -2.343750e-002 -3.884424e-002 -5.887297e-002
      vertex -2.343750e-002 -4.957392e-002 -5.006735e-002
      vertex -2.343750e-002  5.056077e-002 -5.006735e-002
    endloop
  endfacet
  facet normal -1.000000e+000  0.000000e+000  0.000000e+000
    outer loop
      vertex -2.343750e-002  3.983108e-002 -5.887297e-002
      vertex -2.343750e-002 -3.884424e-002 -5.887297e-002
      vertex -2.343750e-002  5.056077e-002 -5.006735e-002
    endloop
  endfacet
  facet normal -1.000000e+000  0.000000e+000  0.000000e+000
    outer loop
      vertex -2.343750e-002 -2.660283e-002 -6.541614e-002
      vertex -2.343750e-002 -3.884424e-002 -5.887297e-002
      vertex -2.343750e-002  3.983108e-002 -5.887297e-002
    endloop
  endfacet
  facet normal -1.000000e+000  0.000000e+000  0.000000e+000
    outer loop
      vertex -2.343750e-002  2.758967e-002 -6.541614e-002
      vertex -2.343750e-002 -2.660283e-002 -6.541614e-002
      vertex -2.343750e-002  3.983108e-002 -5.887297e-002
    endloop
  endfacet
  facet normal -1.000000e+000  0.000000e+000  0.000000e+000
    outer loop
      vertex -2.343750e-002 -1.332013e-002 -6.944540e-002
      vertex -2.343750e-002 -2.660283e-002 -6.541614e-002
      vertex -2.343750e-002  2.758967e-002 -6.541614e-002
    endloop
  endfacet
  facet normal -1.000000e+000  0.000000e+000  0.000000e+000
    outer loop
      vertex -2.343750e-002  1.430697e-002 -6.944540e-002
      vertex -2.343750e-002 -1.332013e-002 -6.944540e-002
      vertex -2.343750e-002  2.758967e-002 -6.541614e-002
    endloop
  endfacet
  facet normal -1.000000e+000  0.000000e+000  0.000000e+000
    outer loop
      vertex -2.343750e-002  4.934210e-004 -7.080592e-002
      vertex -2.343750e-002 -1.332013e-002 -6.944540e-002
      vertex -2.343750e-002  1.430697e-002 -6.944540e-002
    endloop
  endfacet
  facet normal -1.000000e+000  0.000000e+000  0.000000e+000
    outer loop
      vertex -2.343750e-002 -4.957392e-002 -5.006735e-002
      vertex -2.343750e-002 -5.837955e-002 -3.933766e-002
      vertex -2.343750e-002  5.936639e-002 -3.933766e-002
    endloop
  endfacet
  facet normal -1.000000e+000  0.000000e+000  0.000000e+000
    outer loop
      vertex -2.343750e-002  5.936639e-002 -3.933766e-002
      vertex -2.343750e-002 -5.837955e-002 -3.933766e-002
      vertex -2.343750e-002 -6.492272e-002 -2.709625e-002
    endloop
  endfacet
  facet normal -1.000000e+000  0.000000e+000  0.000000e+000
    outer loop
      vertex -2.343750e-002  5.936639e-002 -3.933766e-002
      vertex -2.343750e-002 -6.492272e-002 -2.709625e-002
      vertex -2.343750e-002  6.590956e-002 -2.709625e-002
    endloop
  endfacet
  facet normal -1.000000e+000  0.000000e+000  0.000000e+000
    outer loop
      vertex -2.343750e-002  6.590956e-002 -2.709625e-002
      vertex -2.343750e-002 -6.492272e-002 -2.709625e-002
      vertex -2.343750e-002 -6.895199e-002 -1.381355e-002
    endloop
  endfacet
  facet normal -1.000000e+000  0.000000e+000  0.000000e+000
    outer loop
      vertex -2.343750e-002  6.590956e-002 -2.709625e-002
      vertex -2.343750e-002 -6.895199e-002 -1.381355e-002
      vertex -2.343750e-002  6.993882e-002 -1.381355e-002
    endloop
  endfacet
  facet normal -1.000000e+000  0.000000e+000  0.000000e+000
    outer loop
      vertex -2.343750e-002  6.993882e-002 -1.381355e-002
      vertex -2.343750e-002 -6.895199e-002 -1.381355e-002
      vertex -2.343750e-002 -7.031250e-002  4.155022e-017
    endloop
  endfacet
  facet normal -1.000000e+000  0.000000e+000  0.000000e+000
    outer loop
      vertex -2.343750e-002  6.993882e-002 -1.381355e-002
      vertex -2.343750e-002 -7.031250e-002  4.155022e-017
      vertex -2.343750e-002  7.129934e-002 -8.746626e-017
    endloop
  endfacet
  facet normal -1.000000e+000  0.000000e+000  0.000000e+000
    outer loop
      vertex -2.343750e-002  7.129934e-002 -8.746626e-017
      vertex -2.343750e-002 -7.031250e-002  4.155022e-017
      vertex -2.343750e-002 -6.895199e-002  1.381355e-002
    endloop
  endfacet
  facet normal -1.000000e+000  0.000000e+000  0.000000e+000
    outer loop
      vertex -2.343750e-002  7.129934e-002 -8.746626e-017
      vertex -2.343750e-002 -6.895199e-002  1.381355e-002
      vertex -2.343750e-002  6.993882e-002  1.381355e-002
    endloop
  endfacet
  facet normal -1.000000e+000  0.000000e+000  0.000000e+000
    outer loop
      vertex -2.343750e-002  6.993882e-002  1.381355e-002
      vertex -2.343750e-002 -6.895199e-002  1.381355e-002
      vertex -2.343750e-002 -6.492272e-002  2.709625e-002
    endloop
  endfacet
  facet normal -1.000000e+000  0.000000e+000  0.000000e+000
    outer loop
      vertex -2.343750e-002  6.993882e-002  1.381355e-002
      vertex -2.343750e-002 -6.492272e-002  2.709625e-002
      vertex -2.343750e-002  6.590956e-002  2.709625e-002
    endloop
  endfacet
  facet normal -1.000000e+000  0.000000e+000  0.000000e+000
    outer loop
      vertex -2.343750e-002  6.590956e-002  2.709625e-002
      vertex -2.343750e-002 -6.492272e-002  2.709625e-002
      vertex -2.343750e-002 -5.837955e-002  3.933766e-002
    endloop
  endfacet
  facet normal -1.000000e+000  0.000000e+000  0.000000e+000
    outer loop
      vertex -2.343750e-002  6.590956e-002  2.709625e-002
      vertex -2.343750e-002 -5.837955e-002  3.933766e-002
      vertex -2.343750e-002  5.936639e-002  3.933766e-002
    endloop
  endfacet
  facet normal  1.000000e+000  -0.000000e+000  0.000000e+000
    outer loop
      vertex  3.125000e-002  1.189087e-002  1.139744e-002
      vertex  3.125000e-002 -1.090402e-002  1.139744e-002
      vertex  3.125000e-002 -1.290856e-002  8.954915e-003
    endloop
  endfacet
  facet normal  1.000000e+000  0.000000e+000  0.000000e+000
    outer loop
      vertex  3.125000e-002  1.189087e-002  1.139744e-002
      vertex  3.125000e-002 -1.290856e-002  8.954915e-003
      vertex  3.125000e-002  1.389540e-002  8.954915e-003
    endloop
  endfacet
  facet normal  1.000000e+000  -0.000000e+000  0.000000e+000
    outer loop
      vertex  3.125000e-002  1.389540e-002  8.954915e-003
      vertex  3.125000e-002 -1.290856e-002  8.954915e-003
      vertex  3.125000e-002 -1.439806e-002  6.168253e-003
    endloop
  endfacet
  facet normal  1.000000e+000  0.000000e+000  0.000000e+000
    outer loop
      vertex  3.125000e-002  1.389540e-002  8.954915e-003
      vertex  3.125000e-002 -1.439806e-002  6.168253e-003
      vertex  3.125000e-002  1.538490e-002  6.168253e-003
    endloop
  endfacet
  facet normal  1.000000e+000  0.000000e+000  0.000000e+000
    outer loop
      vertex  3.125000e-002  1.538490e-002 -6.168253e-003
      vertex  3.125000e-002 -1.290856e-002 -8.954915e-003
      vertex  3.125000e-002  1.389540e-002 -8.954915e-003
    endloop
  endfacet
  facet normal  1.000000e+000  -0.000000e+000  0.000000e+000
    outer loop
      vertex  3.125000e-002  1.389540e-002 -8.954915e-003
      vertex  3.125000e-002 -1.290856e-002 -8.954915e-003
      vertex  3.125000e-002 -1.090402e-002 -1.139744e-002
    endloop
  endfacet
  facet normal  1.000000e+000  0.000000e+000  0.000000e+000
    outer loop
      vertex  3.125000e-002  1.389540e-002 -8.954915e-003
      vertex  3.125000e-002 -1.090402e-002 -1.139744e-002
      vertex  3.125000e-002  1.189087e-002 -1.139744e-002
    endloop
  endfacet
  facet normal  1.000000e+000  -0.000000e+000  0.000000e+000
    outer loop
      vertex  3.125000e-002  1.189087e-002 -1.139744e-002
      vertex  3.125000e-002 -1.090402e-002 -1.139744e-002
      vertex  3.125000e-002 -8.461494e-003 -1.340198e-002
    endloop
  endfacet
  facet normal  1.000000e+000  0.000000e+000  0.000000e+000
    outer loop
      vertex  3.125000e-002  1.189087e-002 -1.139744e-002
      vertex  3.125000e-002 -8.461494e-003 -1.340198e-002
      vertex  3.125000e-002  9.448336e-003 -1.340198e-002
    endloop
  endfacet
  facet normal  1.000000e+000  0.000000e+000  -0.000000e+000
    outer loop
      vertex  3.125000e-002 -8.461494e-003 -1.340198e-002
      vertex  3.125000e-002 -5.674832e-003 -1.489148e-002
      vertex  3.125000e-002  9.448336e-003 -1.340198e-002
    endloop
  endfacet
  facet normal  1.000000e+000  -0.000000e+000  0.000000e+000
    outer loop
      vertex  3.125000e-002  9.448336e-003 -1.340198e-002
      vertex  3.125000e-002 -5.674832e-003 -1.489148e-002
      vertex  3.125000e-002 -2.651127e-003 -1.580871e-002
    endloop
  endfacet
  facet normal  9.999999e-001  0.000000e+000  0.000000e+000
    outer loop
      vertex  3.125000e-002  9.448336e-003 -1.340198e-002
      vertex  3.125000e-002 -2.651127e-003 -1.580871e-002
      vertex  3.125000e-002  6.661674e-003 -1.489148e-002
    endloop
  endfacet
  facet normal  1.000000e+000  0.000000e+000  -0.000000e+000
    outer loop
      vertex  3.125000e-002 -2.651127e-003 -1.580871e-002
      vertex  3.125000e-002  4.934210e-004 -1.611842e-002
      vertex  3.125000e-002  6.661674e-003 -1.489148e-002
    endloop
  endfacet
  facet normal  1.000000e+000  0.000000e+000  0.000000e+000
    outer loop
      vertex  3.125000e-002  6.661674e-003 -1.489148e-002
      vertex  3.125000e-002  4.934210e-004 -1.611842e-002
      vertex  3.125000e-002  3.637969e-003 -1.580871e-002
    endloop
  endfacet
  facet normal  1.000000e+000  0.000000e+000  0.000000e+000
    outer loop
      vertex  3.125000e-002  9.448336e-003  1.340198e-002
      vertex  3.125000e-002  6.661674e-003  1.489148e-002
      vertex  3.125000e-002  3.637969e-003  1.580871e-002
    endloop
  endfacet
  facet normal  9.999999e-001  0.000000e+000  0.000000e+000
    outer loop
      vertex  3.125000e-002  9.448336e-003  1.340198e-002
      vertex  3.125000e-002  3.637969e-003  1.580871e-002
      vertex  3.125000e-002  4.934210e-004  1.611842e-002
    endloop
  endfacet
  facet normal  1.000000e+000  0.000000e+000  0.000000e+000
    outer loop
      vertex  3.125000e-002  9.448336e-003  1.340198e-002
      vertex  3.125000e-002  4.934210e-004  1.611842e-002
      vertex  3.125000e-002 -2.651127e-003  1.580871e-002
    endloop
  endfacet
  facet normal  1.000000e+000  0.000000e+000  0.000000e+000
    outer loop
      vertex  3.125000e-002  9.448336e-003  1.340198e-002
      vertex  3.125000e-002 -2.651127e-003  1.580871e-002
      vertex  3.125000e-002 -5.674832e-003  1.489148e-002
    endloop
  endfacet
  facet normal  1.000000e+000  0.000000e+000  0.000000e+000
    outer loop
      vertex  3.125000e-002  9.448336e-003  1.340198e-002
      vertex  3.125000e-002 -5.674832e-003  1.489148e-002
      vertex  3.125000e-002 -8.461494e-003  1.340198e-002
    endloop
  endfacet
  facet normal  1.000000e+000  -0.000000e+000  0.000000e+000
    outer loop
      vertex  3.125000e-002  9.448336e-003  1.340198e-002
      vertex  3.125000e-002 -8.461494e-003  1.340198e-002
      vertex  3.125000e-002 -1.090402e-002  1.139744e-002
    endloop
  endfacet
  facet normal  1.000000e+000  0.000000e+000  0.000000e+000
    outer loop
      vertex  3.125000e-002  9.448336e-003  1.340198e-002
      vertex  3.125000e-002 -1.090402e-002  1.139744e-002
      vertex  3.125000e-002  1.189087e-002  1.139744e-002
    endloop
  endfacet
  facet normal  9.999999e-001  -0.000000e+000  0.000000e+000
    outer loop
      vertex  3.125000e-002  1.538490e-002  6.168253e-003
      vertex  3.125000e-002 -1.439806e-002  6.168253e-003
      vertex  3.125000e-002  1.630213e-002  3.144548e-003
    endloop
  endfacet
  facet normal  1.000000e+000  0.000000e+000  0.000000e+000
    outer loop
      vertex  3.125000e-002  1.630213e-002  3.144548e-003
      vertex  3.125000e-002 -1.439806e-002  6.168253e-003
      vertex  3.125000e-002 -1.531529e-002  3.144548e-003
    endloop
  endfacet
  facet normal  1.000000e+000  -0.000000e+000  0.000000e+000
    outer loop
      vertex  3.125000e-002  1.630213e-002  3.144548e-003
      vertex  3.125000e-002 -1.531529e-002  3.144548e-003
      vertex  3.125000e-002  1.661184e-002 -7.835192e-018
    endloop
  endfacet
  facet normal  9.999999e-001  0.000000e+000  0.000000e+000
    outer loop
      vertex  3.125000e-002  1.661184e-002 -7.835192e-018
      vertex  3.125000e-002 -1.531529e-002  3.144548e-003
      vertex  3.125000e-002 -1.562500e-002  6.036146e-020
    endloop
  endfacet
  facet normal  9.999999e-001  0.000000e+000  0.000000e+000
    outer loop
      vertex  3.125000e-002  1.661184e-002 -7.835192e-018
      vertex  3.125000e-002 -1.562500e-002  6.036146e-020
      vertex  3.125000e-002  1.630213e-002 -3.144548e-003
    endloop
  endfacet
  facet normal  1.000000e+000  0.000000e+000  0.000000e+000
    outer loop
      vertex  3.125000e-002  1.630213e-002 -3.144548e-003
      vertex  3.125000e-002 -1.562500e-002  6.036146e-020
      vertex  3.125000e-002 -1.531529e-002 -3.144548e-003
    endloop
  endfacet
  facet normal  1.000000e+000  -0.000000e+000  0.000000e+000
    outer loop
      vertex  3.125000e-002  1.630213e-002 -3.144548e-003
      vertex  3.125000e-002 -1.531529e-002 -3.144548e-003
      vertex  3.125000e-002  1.538490e-002 -6.168253e-003
    endloop
  endfacet
  facet normal  9.999999e-001  0.000000e+000  0.000000e+000
    outer loop
      vertex  3.125000e-002  1.538490e-002 -6.168253e-003
      vertex  3.125000e-002 -1.531529e-002 -3.144548e-003
      vertex  3.125000e-002 -1.439806e-002 -6.168253e-003
    endloop
  endfacet
  facet normal  1.000000e+000  -0.000000e+000  0.000000e+000
    outer loop
      vertex  3.125000e-002  1.538490e-002 -6.168253e-003
      vertex  3.125000e-002 -1.439806e-002 -6.168253e-003
      vertex  3.125000e-002 -1.290856e-002 -8.954915e-003
    endloop
  endfacet
endsolid CATIA STL
