solid CATIA STL
  facet normal  0.000000e+000  1.000000e+000  0.000000e+000
    outer loop
      vertex  2.842105e-001  0.000000e+000  3.000822e-001
      vertex  2.965481e-001  0.000000e+000  2.988671e-001
      vertex  2.718730e-001  0.000000e+000  2.988671e-001
    endloop
  endfacet
  facet normal  -0.000000e+000  1.000000e+000  0.000000e+000
    outer loop
      vertex  2.600096e-001  0.000000e+000  2.952684e-001
      vertex  2.718730e-001  0.000000e+000  2.988671e-001
      vertex  2.965481e-001  0.000000e+000  2.988671e-001
    endloop
  endfacet
  facet normal  0.000000e+000  1.000000e+000  0.000000e+000
    outer loop
      vertex  3.084115e-001  0.000000e+000  2.952684e-001
      vertex  2.600096e-001  0.000000e+000  2.952684e-001
      vertex  2.965481e-001  0.000000e+000  2.988671e-001
    endloop
  endfacet
  facet normal  -0.000000e+000  1.000000e+000  0.000000e+000
    outer loop
      vertex  2.490762e-001  0.000000e+000  2.894244e-001
      vertex  2.600096e-001  0.000000e+000  2.952684e-001
      vertex  3.084115e-001  0.000000e+000  2.952684e-001
    endloop
  endfacet
  facet normal  0.000000e+000  1.000000e+000  0.000000e+000
    outer loop
      vertex  3.193448e-001  0.000000e+000  2.894244e-001
      vertex  2.490762e-001  0.000000e+000  2.894244e-001
      vertex  3.084115e-001  0.000000e+000  2.952684e-001
    endloop
  endfacet
  facet normal  -0.000000e+000  1.000000e+000  0.000000e+000
    outer loop
      vertex  2.394930e-001  0.000000e+000  2.815596e-001
      vertex  2.490762e-001  0.000000e+000  2.894244e-001
      vertex  3.193448e-001  0.000000e+000  2.894244e-001
    endloop
  endfacet
  facet normal  0.000000e+000  1.000000e+000  0.000000e+000
    outer loop
      vertex  3.289281e-001  0.000000e+000  2.815596e-001
      vertex  2.394930e-001  0.000000e+000  2.815596e-001
      vertex  3.193448e-001  0.000000e+000  2.894244e-001
    endloop
  endfacet
  facet normal  -0.000000e+000  9.999999e-001  0.000000e+000
    outer loop
      vertex  2.316283e-001  0.000000e+000  2.719764e-001
      vertex  2.394930e-001  0.000000e+000  2.815596e-001
      vertex  3.289281e-001  0.000000e+000  2.815596e-001
    endloop
  endfacet
  facet normal  0.000000e+000  1.000000e+000  0.000000e+000
    outer loop
      vertex  3.367928e-001  0.000000e+000  2.719764e-001
      vertex  2.316283e-001  0.000000e+000  2.719764e-001
      vertex  3.289281e-001  0.000000e+000  2.815596e-001
    endloop
  endfacet
  facet normal  0.000000e+000  1.000000e+000  0.000000e+000
    outer loop
      vertex  3.289281e-001  0.000000e+000  1.921246e-001
      vertex  2.394930e-001  0.000000e+000  1.921246e-001
      vertex  3.367928e-001  0.000000e+000  2.017078e-001
    endloop
  endfacet
  facet normal  -0.000000e+000  1.000000e+000  0.000000e+000
    outer loop
      vertex  2.490762e-001  0.000000e+000  1.842599e-001
      vertex  2.394930e-001  0.000000e+000  1.921246e-001
      vertex  3.289281e-001  0.000000e+000  1.921246e-001
    endloop
  endfacet
  facet normal  0.000000e+000  1.000000e+000  0.000000e+000
    outer loop
      vertex  3.193448e-001  0.000000e+000  1.842599e-001
      vertex  2.490762e-001  0.000000e+000  1.842599e-001
      vertex  3.289281e-001  0.000000e+000  1.921246e-001
    endloop
  endfacet
  facet normal  -0.000000e+000  1.000000e+000  0.000000e+000
    outer loop
      vertex  2.600096e-001  0.000000e+000  1.784158e-001
      vertex  2.490762e-001  0.000000e+000  1.842599e-001
      vertex  3.193448e-001  0.000000e+000  1.842599e-001
    endloop
  endfacet
  facet normal  0.000000e+000  1.000000e+000  0.000000e+000
    outer loop
      vertex  3.084115e-001  0.000000e+000  1.784158e-001
      vertex  2.600096e-001  0.000000e+000  1.784158e-001
      vertex  3.193448e-001  0.000000e+000  1.842599e-001
    endloop
  endfacet
  facet normal  -0.000000e+000  1.000000e+000  0.000000e+000
    outer loop
      vertex  2.718730e-001  0.000000e+000  1.748171e-001
      vertex  2.600096e-001  0.000000e+000  1.784158e-001
      vertex  3.084115e-001  0.000000e+000  1.784158e-001
    endloop
  endfacet
  facet normal  0.000000e+000  1.000000e+000  0.000000e+000
    outer loop
      vertex  2.965481e-001  0.000000e+000  1.748171e-001
      vertex  2.718730e-001  0.000000e+000  1.748171e-001
      vertex  3.084115e-001  0.000000e+000  1.784158e-001
    endloop
  endfacet
  facet normal  -0.000000e+000  1.000000e+000  0.000000e+000
    outer loop
      vertex  2.842105e-001  0.000000e+000  1.736020e-001
      vertex  2.718730e-001  0.000000e+000  1.748171e-001
      vertex  2.965481e-001  0.000000e+000  1.748171e-001
    endloop
  endfacet
  facet normal  -0.000000e+000  1.000000e+000  0.000000e+000
    outer loop
      vertex  2.394930e-001  0.000000e+000  1.921246e-001
      vertex  2.316283e-001  0.000000e+000  2.017078e-001
      vertex  3.367928e-001  0.000000e+000  2.017078e-001
    endloop
  endfacet
  facet normal  0.000000e+000  1.000000e+000  0.000000e+000
    outer loop
      vertex  3.367928e-001  0.000000e+000  2.017078e-001
      vertex  2.316283e-001  0.000000e+000  2.017078e-001
      vertex  2.257843e-001  0.000000e+000  2.126411e-001
    endloop
  endfacet
  facet normal  -0.000000e+000  1.000000e+000  0.000000e+000
    outer loop
      vertex  3.367928e-001  0.000000e+000  2.017078e-001
      vertex  2.257843e-001  0.000000e+000  2.126411e-001
      vertex  3.426368e-001  0.000000e+000  2.126411e-001
    endloop
  endfacet
  facet normal  0.000000e+000  1.000000e+000  0.000000e+000
    outer loop
      vertex  3.426368e-001  0.000000e+000  2.126411e-001
      vertex  2.257843e-001  0.000000e+000  2.126411e-001
      vertex  2.221855e-001  0.000000e+000  2.245046e-001
    endloop
  endfacet
  facet normal  -0.000000e+000  1.000000e+000  0.000000e+000
    outer loop
      vertex  3.426368e-001  0.000000e+000  2.126411e-001
      vertex  2.221855e-001  0.000000e+000  2.245046e-001
      vertex  3.462355e-001  0.000000e+000  2.245046e-001
    endloop
  endfacet
  facet normal  0.000000e+000  1.000000e+000  0.000000e+000
    outer loop
      vertex  3.462355e-001  0.000000e+000  2.245046e-001
      vertex  2.221855e-001  0.000000e+000  2.245046e-001
      vertex  2.209704e-001  0.000000e+000  2.368421e-001
    endloop
  endfacet
  facet normal  -0.000000e+000  1.000000e+000  0.000000e+000
    outer loop
      vertex  3.462355e-001  0.000000e+000  2.245046e-001
      vertex  2.209704e-001  0.000000e+000  2.368421e-001
      vertex  3.474506e-001  0.000000e+000  2.368421e-001
    endloop
  endfacet
  facet normal  0.000000e+000  9.999999e-001  0.000000e+000
    outer loop
      vertex  3.474506e-001  0.000000e+000  2.368421e-001
      vertex  2.209704e-001  0.000000e+000  2.368421e-001
      vertex  2.221855e-001  0.000000e+000  2.491796e-001
    endloop
  endfacet
  facet normal  -0.000000e+000  1.000000e+000  0.000000e+000
    outer loop
      vertex  3.474506e-001  0.000000e+000  2.368421e-001
      vertex  2.221855e-001  0.000000e+000  2.491796e-001
      vertex  3.462355e-001  0.000000e+000  2.491796e-001
    endloop
  endfacet
  facet normal  0.000000e+000  1.000000e+000  0.000000e+000
    outer loop
      vertex  3.462355e-001  0.000000e+000  2.491796e-001
      vertex  2.221855e-001  0.000000e+000  2.491796e-001
      vertex  2.257843e-001  0.000000e+000  2.610430e-001
    endloop
  endfacet
  facet normal  -0.000000e+000  1.000000e+000  0.000000e+000
    outer loop
      vertex  3.462355e-001  0.000000e+000  2.491796e-001
      vertex  2.257843e-001  0.000000e+000  2.610430e-001
      vertex  3.426368e-001  0.000000e+000  2.610430e-001
    endloop
  endfacet
  facet normal  0.000000e+000  1.000000e+000  0.000000e+000
    outer loop
      vertex  3.426368e-001  0.000000e+000  2.610430e-001
      vertex  2.257843e-001  0.000000e+000  2.610430e-001
      vertex  2.316283e-001  0.000000e+000  2.719764e-001
    endloop
  endfacet
  facet normal  -0.000000e+000  9.999999e-001  0.000000e+000
    outer loop
      vertex  3.426368e-001  0.000000e+000  2.610430e-001
      vertex  2.316283e-001  0.000000e+000  2.719764e-001
      vertex  3.367928e-001  0.000000e+000  2.719764e-001
    endloop
  endfacet
  facet normal  9.951848e-001  0.000000e+000 -9.801625e-002
    outer loop
      vertex  3.552631e-001 -7.812500e-003  2.368421e-001
      vertex  3.552631e-001 -2.812500e-001  2.368421e-001
      vertex  3.538979e-001 -7.812500e-003  2.229804e-001
    endloop
  endfacet
  facet normal  9.951848e-001  0.000000e+000 -9.801625e-002
    outer loop
      vertex  3.538979e-001 -7.812500e-003  2.229804e-001
      vertex  3.552631e-001 -2.812500e-001  2.368421e-001
      vertex  3.538979e-001 -2.812500e-001  2.229804e-001
    endloop
  endfacet
  facet normal  9.569402e-001  0.000000e+000 -2.902852e-001
    outer loop
      vertex  3.538979e-001 -7.812500e-003  2.229804e-001
      vertex  3.538979e-001 -2.812500e-001  2.229804e-001
      vertex  3.498546e-001 -7.812500e-003  2.096514e-001
    endloop
  endfacet
  facet normal  9.569402e-001  0.000000e+000 -2.902852e-001
    outer loop
      vertex  3.498546e-001 -7.812500e-003  2.096514e-001
      vertex  3.538979e-001 -2.812500e-001  2.229804e-001
      vertex  3.498546e-001 -2.812500e-001  2.096514e-001
    endloop
  endfacet
  facet normal  8.819215e-001  0.000000e+000 -4.713964e-001
    outer loop
      vertex  3.498546e-001 -7.812500e-003  2.096514e-001
      vertex  3.498546e-001 -2.812500e-001  2.096514e-001
      vertex  3.432886e-001 -7.812500e-003  1.973674e-001
    endloop
  endfacet
  facet normal  8.819215e-001  0.000000e+000 -4.713964e-001
    outer loop
      vertex  3.432886e-001 -7.812500e-003  1.973674e-001
      vertex  3.498546e-001 -2.812500e-001  2.096514e-001
      vertex  3.432886e-001 -2.812500e-001  1.973674e-001
    endloop
  endfacet
  facet normal  7.730107e-001  0.000000e+000 -6.343929e-001
    outer loop
      vertex  3.432886e-001 -7.812500e-003  1.973674e-001
      vertex  3.432886e-001 -2.812500e-001  1.973674e-001
      vertex  3.344523e-001 -7.812500e-003  1.866003e-001
    endloop
  endfacet
  facet normal  7.730107e-001  0.000000e+000 -6.343929e-001
    outer loop
      vertex  3.344523e-001 -7.812500e-003  1.866003e-001
      vertex  3.432886e-001 -2.812500e-001  1.973674e-001
      vertex  3.344523e-001 -2.812500e-001  1.866003e-001
    endloop
  endfacet
  facet normal  6.343936e-001  0.000000e+000 -7.730103e-001
    outer loop
      vertex  3.344523e-001 -7.812500e-003  1.866003e-001
      vertex  3.344523e-001 -2.812500e-001  1.866003e-001
      vertex  3.236853e-001 -7.812500e-003  1.777640e-001
    endloop
  endfacet
  facet normal  6.343936e-001  0.000000e+000 -7.730103e-001
    outer loop
      vertex  3.236853e-001 -7.812500e-003  1.777640e-001
      vertex  3.344523e-001 -2.812500e-001  1.866003e-001
      vertex  3.236853e-001 -2.812500e-001  1.777640e-001
    endloop
  endfacet
  facet normal  4.713960e-001  0.000000e+000 -8.819217e-001
    outer loop
      vertex  3.236853e-001 -7.812500e-003  1.777640e-001
      vertex  3.236853e-001 -2.812500e-001  1.777640e-001
      vertex  3.114012e-001 -7.812500e-003  1.711980e-001
    endloop
  endfacet
  facet normal  4.713960e-001  0.000000e+000 -8.819217e-001
    outer loop
      vertex  3.114012e-001 -7.812500e-003  1.711980e-001
      vertex  3.236853e-001 -2.812500e-001  1.777640e-001
      vertex  3.114012e-001 -2.812500e-001  1.711980e-001
    endloop
  endfacet
  facet normal  2.902855e-001  0.000000e+000 -9.569401e-001
    outer loop
      vertex  3.114012e-001 -7.812500e-003  1.711980e-001
      vertex  3.114012e-001 -2.812500e-001  1.711980e-001
      vertex  2.980722e-001 -7.812500e-003  1.671547e-001
    endloop
  endfacet
  facet normal  2.902855e-001  0.000000e+000 -9.569401e-001
    outer loop
      vertex  2.980722e-001 -7.812500e-003  1.671547e-001
      vertex  3.114012e-001 -2.812500e-001  1.711980e-001
      vertex  2.980722e-001 -2.812500e-001  1.671547e-001
    endloop
  endfacet
  facet normal  9.801731e-002  0.000000e+000 -9.951847e-001
    outer loop
      vertex  2.980722e-001 -7.812500e-003  1.671547e-001
      vertex  2.980722e-001 -2.812500e-001  1.671547e-001
      vertex  2.842105e-001 -7.812500e-003  1.657895e-001
    endloop
  endfacet
  facet normal  9.801731e-002  0.000000e+000 -9.951847e-001
    outer loop
      vertex  2.842105e-001 -7.812500e-003  1.657895e-001
      vertex  2.980722e-001 -2.812500e-001  1.671547e-001
      vertex  2.842105e-001 -2.812500e-001  1.657895e-001
    endloop
  endfacet
  facet normal -9.801731e-002  0.000000e+000 -9.951847e-001
    outer loop
      vertex  2.842105e-001 -7.812500e-003  1.657895e-001
      vertex  2.842105e-001 -2.812500e-001  1.657895e-001
      vertex  2.703488e-001 -7.812500e-003  1.671547e-001
    endloop
  endfacet
  facet normal -9.801731e-002  -0.000000e+000 -9.951847e-001
    outer loop
      vertex  2.703488e-001 -7.812500e-003  1.671547e-001
      vertex  2.842105e-001 -2.812500e-001  1.657895e-001
      vertex  2.703488e-001 -2.812500e-001  1.671547e-001
    endloop
  endfacet
  facet normal -2.902849e-001  0.000000e+000 -9.569403e-001
    outer loop
      vertex  2.703488e-001 -7.812500e-003  1.671547e-001
      vertex  2.703488e-001 -2.812500e-001  1.671547e-001
      vertex  2.570198e-001 -7.812500e-003  1.711980e-001
    endloop
  endfacet
  facet normal -2.902849e-001  -0.000000e+000 -9.569403e-001
    outer loop
      vertex  2.570198e-001 -7.812500e-003  1.711980e-001
      vertex  2.703488e-001 -2.812500e-001  1.671547e-001
      vertex  2.570198e-001 -2.812500e-001  1.711980e-001
    endloop
  endfacet
  facet normal -4.713964e-001  0.000000e+000 -8.819215e-001
    outer loop
      vertex  2.570198e-001 -7.812500e-003  1.711980e-001
      vertex  2.570198e-001 -2.812500e-001  1.711980e-001
      vertex  2.447358e-001 -7.812500e-003  1.777640e-001
    endloop
  endfacet
  facet normal -4.713964e-001  -0.000000e+000 -8.819215e-001
    outer loop
      vertex  2.447358e-001 -7.812500e-003  1.777640e-001
      vertex  2.570198e-001 -2.812500e-001  1.711980e-001
      vertex  2.447358e-001 -2.812500e-001  1.777640e-001
    endloop
  endfacet
  facet normal -6.343940e-001  0.000000e+000 -7.730098e-001
    outer loop
      vertex  2.447358e-001 -7.812500e-003  1.777640e-001
      vertex  2.447358e-001 -2.812500e-001  1.777640e-001
      vertex  2.339687e-001 -7.812500e-003  1.866003e-001
    endloop
  endfacet
  facet normal -6.343940e-001  -0.000000e+000 -7.730098e-001
    outer loop
      vertex  2.339687e-001 -7.812500e-003  1.866003e-001
      vertex  2.447358e-001 -2.812500e-001  1.777640e-001
      vertex  2.339687e-001 -2.812500e-001  1.866003e-001
    endloop
  endfacet
  facet normal -7.730103e-001  0.000000e+000 -6.343936e-001
    outer loop
      vertex  2.339687e-001 -7.812500e-003  1.866003e-001
      vertex  2.339687e-001 -2.812500e-001  1.866003e-001
      vertex  2.251324e-001 -7.812500e-003  1.973674e-001
    endloop
  endfacet
  facet normal -7.730103e-001  -0.000000e+000 -6.343936e-001
    outer loop
      vertex  2.251324e-001 -7.812500e-003  1.973674e-001
      vertex  2.339687e-001 -2.812500e-001  1.866003e-001
      vertex  2.251324e-001 -2.812500e-001  1.973674e-001
    endloop
  endfacet
  facet normal -8.819210e-001  0.000000e+000 -4.713972e-001
    outer loop
      vertex  2.251324e-001 -7.812500e-003  1.973674e-001
      vertex  2.251324e-001 -2.812500e-001  1.973674e-001
      vertex  2.185664e-001 -7.812500e-003  2.096514e-001
    endloop
  endfacet
  facet normal -8.819210e-001  -0.000000e+000 -4.713972e-001
    outer loop
      vertex  2.185664e-001 -7.812500e-003  2.096514e-001
      vertex  2.251324e-001 -2.812500e-001  1.973674e-001
      vertex  2.185664e-001 -2.812500e-001  2.096514e-001
    endloop
  endfacet
  facet normal -9.569405e-001  0.000000e+000 -2.902842e-001
    outer loop
      vertex  2.185664e-001 -7.812500e-003  2.096514e-001
      vertex  2.185664e-001 -2.812500e-001  2.096514e-001
      vertex  2.145232e-001 -7.812500e-003  2.229804e-001
    endloop
  endfacet
  facet normal -9.569405e-001  -0.000000e+000 -2.902842e-001
    outer loop
      vertex  2.145232e-001 -7.812500e-003  2.229804e-001
      vertex  2.185664e-001 -2.812500e-001  2.096514e-001
      vertex  2.145232e-001 -2.812500e-001  2.229804e-001
    endloop
  endfacet
  facet normal -9.951847e-001  0.000000e+000 -9.801731e-002
    outer loop
      vertex  2.145232e-001 -7.812500e-003  2.229804e-001
      vertex  2.145232e-001 -2.812500e-001  2.229804e-001
      vertex  2.131579e-001 -7.812500e-003  2.368421e-001
    endloop
  endfacet
  facet normal -9.951847e-001  -0.000000e+000 -9.801731e-002
    outer loop
      vertex  2.131579e-001 -7.812500e-003  2.368421e-001
      vertex  2.145232e-001 -2.812500e-001  2.229804e-001
      vertex  2.131579e-001 -2.812500e-001  2.368421e-001
    endloop
  endfacet
  facet normal -9.951847e-001  0.000000e+000  9.801742e-002
    outer loop
      vertex  2.131579e-001 -7.812500e-003  2.368421e-001
      vertex  2.131579e-001 -2.812500e-001  2.368421e-001
      vertex  2.145232e-001 -7.812500e-003  2.507038e-001
    endloop
  endfacet
  facet normal -9.951847e-001  0.000000e+000  9.801742e-002
    outer loop
      vertex  2.145232e-001 -7.812500e-003  2.507038e-001
      vertex  2.131579e-001 -2.812500e-001  2.368421e-001
      vertex  2.145232e-001 -2.812500e-001  2.507038e-001
    endloop
  endfacet
  facet normal -9.569405e-001  0.000000e+000  2.902839e-001
    outer loop
      vertex  2.145232e-001 -7.812500e-003  2.507038e-001
      vertex  2.145232e-001 -2.812500e-001  2.507038e-001
      vertex  2.185664e-001 -7.812500e-003  2.640328e-001
    endloop
  endfacet
  facet normal -9.569405e-001  0.000000e+000  2.902839e-001
    outer loop
      vertex  2.185664e-001 -7.812500e-003  2.640328e-001
      vertex  2.145232e-001 -2.812500e-001  2.507038e-001
      vertex  2.185664e-001 -2.812500e-001  2.640328e-001
    endloop
  endfacet
  facet normal -8.819208e-001  0.000000e+000  4.713977e-001
    outer loop
      vertex  2.185664e-001 -7.812500e-003  2.640328e-001
      vertex  2.185664e-001 -2.812500e-001  2.640328e-001
      vertex  2.251324e-001 -7.812500e-003  2.763168e-001
    endloop
  endfacet
  facet normal -8.819208e-001  0.000000e+000  4.713977e-001
    outer loop
      vertex  2.251324e-001 -7.812500e-003  2.763168e-001
      vertex  2.185664e-001 -2.812500e-001  2.640328e-001
      vertex  2.251324e-001 -2.812500e-001  2.763168e-001
    endloop
  endfacet
  facet normal -7.730103e-001  0.000000e+000  6.343936e-001
    outer loop
      vertex  2.251324e-001 -7.812500e-003  2.763168e-001
      vertex  2.251324e-001 -2.812500e-001  2.763168e-001
      vertex  2.339687e-001 -7.812500e-003  2.870839e-001
    endloop
  endfacet
  facet normal -7.730103e-001  0.000000e+000  6.343936e-001
    outer loop
      vertex  2.339687e-001 -7.812500e-003  2.870839e-001
      vertex  2.251324e-001 -2.812500e-001  2.763168e-001
      vertex  2.339687e-001 -2.812500e-001  2.870839e-001
    endloop
  endfacet
  facet normal -6.343946e-001  0.000000e+000  7.730092e-001
    outer loop
      vertex  2.339687e-001 -7.812500e-003  2.870839e-001
      vertex  2.339687e-001 -2.812500e-001  2.870839e-001
      vertex  2.447358e-001 -7.812500e-003  2.959202e-001
    endloop
  endfacet
  facet normal -6.343946e-001  0.000000e+000  7.730092e-001
    outer loop
      vertex  2.447358e-001 -7.812500e-003  2.959202e-001
      vertex  2.339687e-001 -2.812500e-001  2.870839e-001
      vertex  2.447358e-001 -2.812500e-001  2.959202e-001
    endloop
  endfacet
  facet normal -4.713964e-001  0.000000e+000  8.819215e-001
    outer loop
      vertex  2.447358e-001 -7.812500e-003  2.959202e-001
      vertex  2.447358e-001 -2.812500e-001  2.959202e-001
      vertex  2.570198e-001 -7.812500e-003  3.024862e-001
    endloop
  endfacet
  facet normal -4.713964e-001  0.000000e+000  8.819215e-001
    outer loop
      vertex  2.570198e-001 -7.812500e-003  3.024862e-001
      vertex  2.447358e-001 -2.812500e-001  2.959202e-001
      vertex  2.570198e-001 -2.812500e-001  3.024862e-001
    endloop
  endfacet
  facet normal -2.902849e-001  0.000000e+000  9.569403e-001
    outer loop
      vertex  2.570198e-001 -7.812500e-003  3.024862e-001
      vertex  2.570198e-001 -2.812500e-001  3.024862e-001
      vertex  2.703488e-001 -7.812500e-003  3.065295e-001
    endloop
  endfacet
  facet normal -2.902849e-001  0.000000e+000  9.569403e-001
    outer loop
      vertex  2.703488e-001 -7.812500e-003  3.065295e-001
      vertex  2.570198e-001 -2.812500e-001  3.024862e-001
      vertex  2.703488e-001 -2.812500e-001  3.065295e-001
    endloop
  endfacet
  facet normal -9.801625e-002  0.000000e+000  9.951848e-001
    outer loop
      vertex  2.703488e-001 -7.812500e-003  3.065295e-001
      vertex  2.703488e-001 -2.812500e-001  3.065295e-001
      vertex  2.842105e-001 -7.812500e-003  3.078947e-001
    endloop
  endfacet
  facet normal -9.801625e-002  0.000000e+000  9.951848e-001
    outer loop
      vertex  2.842105e-001 -7.812500e-003  3.078947e-001
      vertex  2.703488e-001 -2.812500e-001  3.065295e-001
      vertex  2.842105e-001 -2.812500e-001  3.078947e-001
    endloop
  endfacet
  facet normal  9.801625e-002  -0.000000e+000  9.951848e-001
    outer loop
      vertex  2.842105e-001 -7.812500e-003  3.078947e-001
      vertex  2.842105e-001 -2.812500e-001  3.078947e-001
      vertex  2.980722e-001 -7.812500e-003  3.065295e-001
    endloop
  endfacet
  facet normal  9.801625e-002  0.000000e+000  9.951848e-001
    outer loop
      vertex  2.980722e-001 -7.812500e-003  3.065295e-001
      vertex  2.842105e-001 -2.812500e-001  3.078947e-001
      vertex  2.980722e-001 -2.812500e-001  3.065295e-001
    endloop
  endfacet
  facet normal  2.902855e-001  -0.000000e+000  9.569401e-001
    outer loop
      vertex  2.980722e-001 -7.812500e-003  3.065295e-001
      vertex  2.980722e-001 -2.812500e-001  3.065295e-001
      vertex  3.114012e-001 -7.812500e-003  3.024862e-001
    endloop
  endfacet
  facet normal  2.902855e-001  0.000000e+000  9.569401e-001
    outer loop
      vertex  3.114012e-001 -7.812500e-003  3.024862e-001
      vertex  2.980722e-001 -2.812500e-001  3.065295e-001
      vertex  3.114012e-001 -2.812500e-001  3.024862e-001
    endloop
  endfacet
  facet normal  4.713960e-001  -0.000000e+000  8.819217e-001
    outer loop
      vertex  3.114012e-001 -7.812500e-003  3.024862e-001
      vertex  3.114012e-001 -2.812500e-001  3.024862e-001
      vertex  3.236853e-001 -7.812500e-003  2.959202e-001
    endloop
  endfacet
  facet normal  4.713960e-001  0.000000e+000  8.819217e-001
    outer loop
      vertex  3.236853e-001 -7.812500e-003  2.959202e-001
      vertex  3.114012e-001 -2.812500e-001  3.024862e-001
      vertex  3.236853e-001 -2.812500e-001  2.959202e-001
    endloop
  endfacet
  facet normal  6.343942e-001  -0.000000e+000  7.730097e-001
    outer loop
      vertex  3.236853e-001 -7.812500e-003  2.959202e-001
      vertex  3.236853e-001 -2.812500e-001  2.959202e-001
      vertex  3.344523e-001 -7.812500e-003  2.870839e-001
    endloop
  endfacet
  facet normal  6.343942e-001  0.000000e+000  7.730097e-001
    outer loop
      vertex  3.344523e-001 -7.812500e-003  2.870839e-001
      vertex  3.236853e-001 -2.812500e-001  2.959202e-001
      vertex  3.344523e-001 -2.812500e-001  2.870839e-001
    endloop
  endfacet
  facet normal  7.730107e-001  -0.000000e+000  6.343929e-001
    outer loop
      vertex  3.344523e-001 -7.812500e-003  2.870839e-001
      vertex  3.344523e-001 -2.812500e-001  2.870839e-001
      vertex  3.432886e-001 -7.812500e-003  2.763168e-001
    endloop
  endfacet
  facet normal  7.730107e-001  0.000000e+000  6.343929e-001
    outer loop
      vertex  3.432886e-001 -7.812500e-003  2.763168e-001
      vertex  3.344523e-001 -2.812500e-001  2.870839e-001
      vertex  3.432886e-001 -2.812500e-001  2.763168e-001
    endloop
  endfacet
  facet normal  8.819212e-001  -0.000000e+000  4.713968e-001
    outer loop
      vertex  3.432886e-001 -7.812500e-003  2.763168e-001
      vertex  3.432886e-001 -2.812500e-001  2.763168e-001
      vertex  3.498546e-001 -7.812500e-003  2.640328e-001
    endloop
  endfacet
  facet normal  8.819212e-001  0.000000e+000  4.713968e-001
    outer loop
      vertex  3.498546e-001 -7.812500e-003  2.640328e-001
      vertex  3.432886e-001 -2.812500e-001  2.763168e-001
      vertex  3.498546e-001 -2.812500e-001  2.640328e-001
    endloop
  endfacet
  facet normal  9.569403e-001  -0.000000e+000  2.902849e-001
    outer loop
      vertex  3.498546e-001 -7.812500e-003  2.640328e-001
      vertex  3.498546e-001 -2.812500e-001  2.640328e-001
      vertex  3.538979e-001 -7.812500e-003  2.507038e-001
    endloop
  endfacet
  facet normal  9.569403e-001  0.000000e+000  2.902849e-001
    outer loop
      vertex  3.538979e-001 -7.812500e-003  2.507038e-001
      vertex  3.498546e-001 -2.812500e-001  2.640328e-001
      vertex  3.538979e-001 -2.812500e-001  2.507038e-001
    endloop
  endfacet
  facet normal  9.951848e-001  -0.000000e+000  9.801635e-002
    outer loop
      vertex  3.538979e-001 -7.812500e-003  2.507038e-001
      vertex  3.538979e-001 -2.812500e-001  2.507038e-001
      vertex  3.552631e-001 -7.812500e-003  2.368421e-001
    endloop
  endfacet
  facet normal  9.951848e-001  0.000000e+000  9.801635e-002
    outer loop
      vertex  3.552631e-001 -7.812500e-003  2.368421e-001
      vertex  3.538979e-001 -2.812500e-001  2.507038e-001
      vertex  3.552631e-001 -2.812500e-001  2.368421e-001
    endloop
  endfacet
  facet normal  7.053982e-001  7.053982e-001  6.947510e-002
    outer loop
      vertex  3.474506e-001  0.000000e+000  2.368421e-001
      vertex  3.538979e-001 -7.812500e-003  2.507038e-001
      vertex  3.552631e-001 -7.812500e-003  2.368421e-001
    endloop
  endfacet
  facet normal  7.053982e-001  7.053981e-001  6.947502e-002
    outer loop
      vertex  3.474506e-001  0.000000e+000  2.368421e-001
      vertex  3.462355e-001  0.000000e+000  2.491796e-001
      vertex  3.538979e-001 -7.812500e-003  2.507038e-001
    endloop
  endfacet
  facet normal -7.053981e-001  7.053981e-001  6.947587e-002
    outer loop
      vertex  2.131579e-001 -7.812500e-003  2.368421e-001
      vertex  2.221855e-001  0.000000e+000  2.491796e-001
      vertex  2.209704e-001  0.000000e+000  2.368421e-001
    endloop
  endfacet
  facet normal -7.053981e-001  7.053981e-001  6.947584e-002
    outer loop
      vertex  2.131579e-001 -7.812500e-003  2.368421e-001
      vertex  2.145232e-001 -7.812500e-003  2.507038e-001
      vertex  2.221855e-001  0.000000e+000  2.491796e-001
    endloop
  endfacet
  facet normal  6.782904e-001  7.053978e-001  2.057573e-001
    outer loop
      vertex  3.426368e-001  0.000000e+000  2.610430e-001
      vertex  3.498546e-001 -7.812500e-003  2.640328e-001
      vertex  3.538979e-001 -7.812500e-003  2.507038e-001
    endloop
  endfacet
  facet normal  6.782902e-001  7.053981e-001  2.057570e-001
    outer loop
      vertex  3.426368e-001  0.000000e+000  2.610430e-001
      vertex  3.538979e-001 -7.812500e-003  2.507038e-001
      vertex  3.462355e-001  0.000000e+000  2.491796e-001
    endloop
  endfacet
  facet normal  5.479189e-001  7.053981e-001  4.496649e-001
    outer loop
      vertex  3.367928e-001  0.000000e+000  2.719764e-001
      vertex  3.344523e-001 -7.812500e-003  2.870839e-001
      vertex  3.432886e-001 -7.812500e-003  2.763168e-001
    endloop
  endfacet
  facet normal  6.251156e-001  7.053981e-001  3.341314e-001
    outer loop
      vertex  3.432886e-001 -7.812500e-003  2.763168e-001
      vertex  3.498546e-001 -7.812500e-003  2.640328e-001
      vertex  3.367928e-001  0.000000e+000  2.719764e-001
    endloop
  endfacet
  facet normal  6.251157e-001  7.053981e-001  3.341315e-001
    outer loop
      vertex  3.367928e-001  0.000000e+000  2.719764e-001
      vertex  3.498546e-001 -7.812500e-003  2.640328e-001
      vertex  3.426368e-001  0.000000e+000  2.610430e-001
    endloop
  endfacet
  facet normal  3.341305e-001  7.053987e-001  6.251156e-001
    outer loop
      vertex  3.084115e-001  0.000000e+000  2.952684e-001
      vertex  3.114012e-001 -7.812500e-003  3.024862e-001
      vertex  3.236853e-001 -7.812500e-003  2.959202e-001
    endloop
  endfacet
  facet normal  3.341305e-001  7.053987e-001  6.251154e-001
    outer loop
      vertex  3.084115e-001  0.000000e+000  2.952684e-001
      vertex  3.236853e-001 -7.812500e-003  2.959202e-001
      vertex  3.193448e-001  0.000000e+000  2.894244e-001
    endloop
  endfacet
  facet normal  4.496650e-001  7.053989e-001  5.479177e-001
    outer loop
      vertex  3.236853e-001 -7.812500e-003  2.959202e-001
      vertex  3.289281e-001  0.000000e+000  2.815596e-001
      vertex  3.193448e-001  0.000000e+000  2.894244e-001
    endloop
  endfacet
  facet normal  6.947502e-002  7.053982e-001  7.053982e-001
    outer loop
      vertex  2.965481e-001  0.000000e+000  2.988671e-001
      vertex  2.842105e-001 -7.812500e-003  3.078947e-001
      vertex  2.980722e-001 -7.812500e-003  3.065295e-001
    endloop
  endfacet
  facet normal  2.057576e-001  7.053983e-001  6.782898e-001
    outer loop
      vertex  2.980722e-001 -7.812500e-003  3.065295e-001
      vertex  3.114012e-001 -7.812500e-003  3.024862e-001
      vertex  2.965481e-001  0.000000e+000  2.988671e-001
    endloop
  endfacet
  facet normal  2.057581e-001  7.053989e-001  6.782891e-001
    outer loop
      vertex  2.965481e-001  0.000000e+000  2.988671e-001
      vertex  3.114012e-001 -7.812500e-003  3.024862e-001
      vertex  3.084115e-001  0.000000e+000  2.952684e-001
    endloop
  endfacet
  facet normal -2.057569e-001  7.053992e-001  6.782891e-001
    outer loop
      vertex  2.600096e-001  0.000000e+000  2.952684e-001
      vertex  2.570198e-001 -7.812500e-003  3.024862e-001
      vertex  2.703488e-001 -7.812500e-003  3.065295e-001
    endloop
  endfacet
  facet normal -2.057583e-001  7.053983e-001  6.782897e-001
    outer loop
      vertex  2.600096e-001  0.000000e+000  2.952684e-001
      vertex  2.703488e-001 -7.812500e-003  3.065295e-001
      vertex  2.718730e-001  0.000000e+000  2.988671e-001
    endloop
  endfacet
  facet normal -6.947502e-002  7.053981e-001  7.053981e-001
    outer loop
      vertex  2.703488e-001 -7.812500e-003  3.065295e-001
      vertex  2.842105e-001  0.000000e+000  3.000822e-001
      vertex  2.718730e-001  0.000000e+000  2.988671e-001
    endloop
  endfacet
  facet normal -4.496659e-001  7.053984e-001  5.479175e-001
    outer loop
      vertex  2.490762e-001  0.000000e+000  2.894244e-001
      vertex  2.339687e-001 -7.812500e-003  2.870839e-001
      vertex  2.447358e-001 -7.812500e-003  2.959202e-001
    endloop
  endfacet
  facet normal -3.341309e-001  7.053985e-001  6.251156e-001
    outer loop
      vertex  2.447358e-001 -7.812500e-003  2.959202e-001
      vertex  2.570198e-001 -7.812500e-003  3.024862e-001
      vertex  2.490762e-001  0.000000e+000  2.894244e-001
    endloop
  endfacet
  facet normal -3.341296e-001  7.053994e-001  6.251153e-001
    outer loop
      vertex  2.490762e-001  0.000000e+000  2.894244e-001
      vertex  2.570198e-001 -7.812500e-003  3.024862e-001
      vertex  2.600096e-001  0.000000e+000  2.952684e-001
    endloop
  endfacet
  facet normal -6.251149e-001  7.053987e-001  3.341317e-001
    outer loop
      vertex  2.257843e-001  0.000000e+000  2.610430e-001
      vertex  2.185664e-001 -7.812500e-003  2.640328e-001
      vertex  2.251324e-001 -7.812500e-003  2.763168e-001
    endloop
  endfacet
  facet normal -6.251156e-001  7.053981e-001  3.341314e-001
    outer loop
      vertex  2.257843e-001  0.000000e+000  2.610430e-001
      vertex  2.251324e-001 -7.812500e-003  2.763168e-001
      vertex  2.316283e-001  0.000000e+000  2.719764e-001
    endloop
  endfacet
  facet normal -5.479185e-001  7.053980e-001  4.496654e-001
    outer loop
      vertex  2.251324e-001 -7.812500e-003  2.763168e-001
      vertex  2.394930e-001  0.000000e+000  2.815596e-001
      vertex  2.316283e-001  0.000000e+000  2.719764e-001
    endloop
  endfacet
  facet normal -6.782904e-001  7.053981e-001  2.057565e-001
    outer loop
      vertex  2.145232e-001 -7.812500e-003  2.507038e-001
      vertex  2.185664e-001 -7.812500e-003  2.640328e-001
      vertex  2.221855e-001  0.000000e+000  2.491796e-001
    endloop
  endfacet
  facet normal -6.782898e-001  7.053985e-001  2.057569e-001
    outer loop
      vertex  2.221855e-001  0.000000e+000  2.491796e-001
      vertex  2.185664e-001 -7.812500e-003  2.640328e-001
      vertex  2.257843e-001  0.000000e+000  2.610430e-001
    endloop
  endfacet
  facet normal  5.479181e-001  7.053986e-001  4.496651e-001
    outer loop
      vertex  3.344523e-001 -7.812500e-003  2.870839e-001
      vertex  3.367928e-001  0.000000e+000  2.719764e-001
      vertex  3.289281e-001  0.000000e+000  2.815596e-001
    endloop
  endfacet
  facet normal  4.496655e-001  7.053986e-001  5.479177e-001
    outer loop
      vertex  3.289281e-001  0.000000e+000  2.815596e-001
      vertex  3.236853e-001 -7.812500e-003  2.959202e-001
      vertex  3.344523e-001 -7.812500e-003  2.870839e-001
    endloop
  endfacet
  facet normal  6.947502e-002  7.053981e-001  7.053981e-001
    outer loop
      vertex  2.842105e-001 -7.812500e-003  3.078947e-001
      vertex  2.965481e-001  0.000000e+000  2.988671e-001
      vertex  2.842105e-001  0.000000e+000  3.000822e-001
    endloop
  endfacet
  facet normal -6.947502e-002  7.053982e-001  7.053982e-001
    outer loop
      vertex  2.842105e-001  0.000000e+000  3.000822e-001
      vertex  2.703488e-001 -7.812500e-003  3.065295e-001
      vertex  2.842105e-001 -7.812500e-003  3.078947e-001
    endloop
  endfacet
  facet normal -4.496659e-001  7.053981e-001  5.479179e-001
    outer loop
      vertex  2.339687e-001 -7.812500e-003  2.870839e-001
      vertex  2.490762e-001  0.000000e+000  2.894244e-001
      vertex  2.394930e-001  0.000000e+000  2.815596e-001
    endloop
  endfacet
  facet normal -5.479185e-001  7.053981e-001  4.496654e-001
    outer loop
      vertex  2.394930e-001  0.000000e+000  2.815596e-001
      vertex  2.251324e-001 -7.812500e-003  2.763168e-001
      vertex  2.339687e-001 -7.812500e-003  2.870839e-001
    endloop
  endfacet
  facet normal -7.053982e-001  7.053982e-001 -6.947578e-002
    outer loop
      vertex  2.209704e-001  0.000000e+000  2.368421e-001
      vertex  2.145232e-001 -7.812500e-003  2.229804e-001
      vertex  2.131579e-001 -7.812500e-003  2.368421e-001
    endloop
  endfacet
  facet normal -7.053981e-001  7.053981e-001 -6.947579e-002
    outer loop
      vertex  2.209704e-001  0.000000e+000  2.368421e-001
      vertex  2.221855e-001  0.000000e+000  2.245046e-001
      vertex  2.145232e-001 -7.812500e-003  2.229804e-001
    endloop
  endfacet
  facet normal  7.053981e-001  7.053981e-001 -6.947494e-002
    outer loop
      vertex  3.552631e-001 -7.812500e-003  2.368421e-001
      vertex  3.462355e-001  0.000000e+000  2.245046e-001
      vertex  3.474506e-001  0.000000e+000  2.368421e-001
    endloop
  endfacet
  facet normal  7.053983e-001  7.053981e-001 -6.947502e-002
    outer loop
      vertex  3.552631e-001 -7.812500e-003  2.368421e-001
      vertex  3.538979e-001 -7.812500e-003  2.229804e-001
      vertex  3.462355e-001  0.000000e+000  2.245046e-001
    endloop
  endfacet
  facet normal -6.782902e-001  7.053981e-001 -2.057567e-001
    outer loop
      vertex  2.257843e-001  0.000000e+000  2.126411e-001
      vertex  2.185664e-001 -7.812500e-003  2.096514e-001
      vertex  2.145232e-001 -7.812500e-003  2.229804e-001
    endloop
  endfacet
  facet normal -6.782903e-001  7.053981e-001 -2.057568e-001
    outer loop
      vertex  2.257843e-001  0.000000e+000  2.126411e-001
      vertex  2.145232e-001 -7.812500e-003  2.229804e-001
      vertex  2.221855e-001  0.000000e+000  2.245046e-001
    endloop
  endfacet
  facet normal -5.479185e-001  7.053981e-001 -4.496654e-001
    outer loop
      vertex  2.316283e-001  0.000000e+000  2.017078e-001
      vertex  2.339687e-001 -7.812500e-003  1.866003e-001
      vertex  2.251324e-001 -7.812500e-003  1.973674e-001
    endloop
  endfacet
  facet normal -6.251155e-001  7.053982e-001 -3.341317e-001
    outer loop
      vertex  2.251324e-001 -7.812500e-003  1.973674e-001
      vertex  2.185664e-001 -7.812500e-003  2.096514e-001
      vertex  2.316283e-001  0.000000e+000  2.017078e-001
    endloop
  endfacet
  facet normal -6.251156e-001  7.053980e-001 -3.341319e-001
    outer loop
      vertex  2.316283e-001  0.000000e+000  2.017078e-001
      vertex  2.185664e-001 -7.812500e-003  2.096514e-001
      vertex  2.257843e-001  0.000000e+000  2.126411e-001
    endloop
  endfacet
  facet normal -3.341311e-001  7.053981e-001 -6.251159e-001
    outer loop
      vertex  2.600096e-001  0.000000e+000  1.784158e-001
      vertex  2.570198e-001 -7.812500e-003  1.711980e-001
      vertex  2.447358e-001 -7.812500e-003  1.777640e-001
    endloop
  endfacet
  facet normal -3.341313e-001  7.053985e-001 -6.251154e-001
    outer loop
      vertex  2.600096e-001  0.000000e+000  1.784158e-001
      vertex  2.447358e-001 -7.812500e-003  1.777640e-001
      vertex  2.490762e-001  0.000000e+000  1.842599e-001
    endloop
  endfacet
  facet normal -4.496647e-001  7.053985e-001 -5.479185e-001
    outer loop
      vertex  2.447358e-001 -7.812500e-003  1.777640e-001
      vertex  2.394930e-001  0.000000e+000  1.921246e-001
      vertex  2.490762e-001  0.000000e+000  1.842599e-001
    endloop
  endfacet
  facet normal -6.947576e-002  7.053982e-001 -7.053980e-001
    outer loop
      vertex  2.718730e-001  0.000000e+000  1.748171e-001
      vertex  2.842105e-001 -7.812500e-003  1.657895e-001
      vertex  2.703488e-001 -7.812500e-003  1.671547e-001
    endloop
  endfacet
  facet normal -2.057572e-001  7.053983e-001 -6.782899e-001
    outer loop
      vertex  2.703488e-001 -7.812500e-003  1.671547e-001
      vertex  2.570198e-001 -7.812500e-003  1.711980e-001
      vertex  2.718730e-001  0.000000e+000  1.748171e-001
    endloop
  endfacet
  facet normal -2.057568e-001  7.053978e-001 -6.782905e-001
    outer loop
      vertex  2.718730e-001  0.000000e+000  1.748171e-001
      vertex  2.570198e-001 -7.812500e-003  1.711980e-001
      vertex  2.600096e-001  0.000000e+000  1.784158e-001
    endloop
  endfacet
  facet normal  2.057578e-001  7.053975e-001 -6.782905e-001
    outer loop
      vertex  3.084115e-001  0.000000e+000  1.784158e-001
      vertex  3.114012e-001 -7.812500e-003  1.711980e-001
      vertex  2.980722e-001 -7.812500e-003  1.671547e-001
    endloop
  endfacet
  facet normal  2.057567e-001  7.053983e-001 -6.782901e-001
    outer loop
      vertex  3.084115e-001  0.000000e+000  1.784158e-001
      vertex  2.980722e-001 -7.812500e-003  1.671547e-001
      vertex  2.965481e-001  0.000000e+000  1.748171e-001
    endloop
  endfacet
  facet normal  6.947586e-002  7.053982e-001 -7.053981e-001
    outer loop
      vertex  2.980722e-001 -7.812500e-003  1.671547e-001
      vertex  2.842105e-001  0.000000e+000  1.736020e-001
      vertex  2.965481e-001  0.000000e+000  1.748171e-001
    endloop
  endfacet
  facet normal  4.496649e-001  7.053989e-001 -5.479178e-001
    outer loop
      vertex  3.193448e-001  0.000000e+000  1.842599e-001
      vertex  3.344523e-001 -7.812500e-003  1.866003e-001
      vertex  3.236853e-001 -7.812500e-003  1.777640e-001
    endloop
  endfacet
  facet normal  3.341305e-001  7.053987e-001 -6.251155e-001
    outer loop
      vertex  3.236853e-001 -7.812500e-003  1.777640e-001
      vertex  3.114012e-001 -7.812500e-003  1.711980e-001
      vertex  3.193448e-001  0.000000e+000  1.842599e-001
    endloop
  endfacet
  facet normal  3.341325e-001  7.053974e-001 -6.251159e-001
    outer loop
      vertex  3.193448e-001  0.000000e+000  1.842599e-001
      vertex  3.114012e-001 -7.812500e-003  1.711980e-001
      vertex  3.084115e-001  0.000000e+000  1.784158e-001
    endloop
  endfacet
  facet normal  6.251165e-001  7.053975e-001 -3.341314e-001
    outer loop
      vertex  3.426368e-001  0.000000e+000  2.126411e-001
      vertex  3.498546e-001 -7.812500e-003  2.096514e-001
      vertex  3.432886e-001 -7.812500e-003  1.973674e-001
    endloop
  endfacet
  facet normal  6.251155e-001  7.053982e-001 -3.341318e-001
    outer loop
      vertex  3.426368e-001  0.000000e+000  2.126411e-001
      vertex  3.432886e-001 -7.812500e-003  1.973674e-001
      vertex  3.367928e-001  0.000000e+000  2.017078e-001
    endloop
  endfacet
  facet normal  5.479188e-001  7.053980e-001 -4.496649e-001
    outer loop
      vertex  3.432886e-001 -7.812500e-003  1.973674e-001
      vertex  3.289281e-001  0.000000e+000  1.921246e-001
      vertex  3.367928e-001  0.000000e+000  2.017078e-001
    endloop
  endfacet
  facet normal  6.782901e-001  7.053981e-001 -2.057574e-001
    outer loop
      vertex  3.538979e-001 -7.812500e-003  2.229804e-001
      vertex  3.498546e-001 -7.812500e-003  2.096514e-001
      vertex  3.462355e-001  0.000000e+000  2.245046e-001
    endloop
  endfacet
  facet normal  6.782908e-001  7.053974e-001 -2.057569e-001
    outer loop
      vertex  3.462355e-001  0.000000e+000  2.245046e-001
      vertex  3.498546e-001 -7.812500e-003  2.096514e-001
      vertex  3.426368e-001  0.000000e+000  2.126411e-001
    endloop
  endfacet
  facet normal -5.479192e-001  7.053976e-001 -4.496652e-001
    outer loop
      vertex  2.339687e-001 -7.812500e-003  1.866003e-001
      vertex  2.316283e-001  0.000000e+000  2.017078e-001
      vertex  2.394930e-001  0.000000e+000  1.921246e-001
    endloop
  endfacet
  facet normal -4.496660e-001  7.053977e-001 -5.479185e-001
    outer loop
      vertex  2.394930e-001  0.000000e+000  1.921246e-001
      vertex  2.447358e-001 -7.812500e-003  1.777640e-001
      vertex  2.339687e-001 -7.812500e-003  1.866003e-001
    endloop
  endfacet
  facet normal -6.947587e-002  7.053981e-001 -7.053981e-001
    outer loop
      vertex  2.842105e-001 -7.812500e-003  1.657895e-001
      vertex  2.718730e-001  0.000000e+000  1.748171e-001
      vertex  2.842105e-001  0.000000e+000  1.736020e-001
    endloop
  endfacet
  facet normal  6.947578e-002  7.053982e-001 -7.053982e-001
    outer loop
      vertex  2.842105e-001  0.000000e+000  1.736020e-001
      vertex  2.980722e-001 -7.812500e-003  1.671547e-001
      vertex  2.842105e-001 -7.812500e-003  1.657895e-001
    endloop
  endfacet
  facet normal  4.496646e-001  7.053980e-001 -5.479192e-001
    outer loop
      vertex  3.344523e-001 -7.812500e-003  1.866003e-001
      vertex  3.193448e-001  0.000000e+000  1.842599e-001
      vertex  3.289281e-001  0.000000e+000  1.921246e-001
    endloop
  endfacet
  facet normal  5.479188e-001  7.053981e-001 -4.496649e-001
    outer loop
      vertex  3.289281e-001  0.000000e+000  1.921246e-001
      vertex  3.432886e-001 -7.812500e-003  1.973674e-001
      vertex  3.344523e-001 -7.812500e-003  1.866003e-001
    endloop
  endfacet
  facet normal  0.000000e+000 -1.000000e+000  0.000000e+000
    outer loop
      vertex  2.703488e-001 -2.812500e-001  3.065295e-001
      vertex  2.980722e-001 -2.812500e-001  3.065295e-001
      vertex  2.842105e-001 -2.812500e-001  3.078947e-001
    endloop
  endfacet
  facet normal  0.000000e+000 -1.000000e+000  -0.000000e+000
    outer loop
      vertex  2.980722e-001 -2.812500e-001  3.065295e-001
      vertex  2.703488e-001 -2.812500e-001  3.065295e-001
      vertex  2.570198e-001 -2.812500e-001  3.024862e-001
    endloop
  endfacet
  facet normal  0.000000e+000 -9.999999e-001  0.000000e+000
    outer loop
      vertex  2.980722e-001 -2.812500e-001  3.065295e-001
      vertex  2.570198e-001 -2.812500e-001  3.024862e-001
      vertex  3.114012e-001 -2.812500e-001  3.024862e-001
    endloop
  endfacet
  facet normal  0.000000e+000 -1.000000e+000  -0.000000e+000
    outer loop
      vertex  3.114012e-001 -2.812500e-001  3.024862e-001
      vertex  2.570198e-001 -2.812500e-001  3.024862e-001
      vertex  2.447358e-001 -2.812500e-001  2.959202e-001
    endloop
  endfacet
  facet normal  0.000000e+000 -1.000000e+000  0.000000e+000
    outer loop
      vertex  3.114012e-001 -2.812500e-001  3.024862e-001
      vertex  2.447358e-001 -2.812500e-001  2.959202e-001
      vertex  3.236853e-001 -2.812500e-001  2.959202e-001
    endloop
  endfacet
  facet normal  0.000000e+000 -1.000000e+000  -0.000000e+000
    outer loop
      vertex  3.236853e-001 -2.812500e-001  2.959202e-001
      vertex  2.447358e-001 -2.812500e-001  2.959202e-001
      vertex  2.339687e-001 -2.812500e-001  2.870839e-001
    endloop
  endfacet
  facet normal  0.000000e+000 -1.000000e+000  0.000000e+000
    outer loop
      vertex  3.236853e-001 -2.812500e-001  2.959202e-001
      vertex  2.339687e-001 -2.812500e-001  2.870839e-001
      vertex  3.344523e-001 -2.812500e-001  2.870839e-001
    endloop
  endfacet
  facet normal  0.000000e+000 -1.000000e+000  -0.000000e+000
    outer loop
      vertex  3.344523e-001 -2.812500e-001  2.870839e-001
      vertex  2.339687e-001 -2.812500e-001  2.870839e-001
      vertex  2.251324e-001 -2.812500e-001  2.763168e-001
    endloop
  endfacet
  facet normal  0.000000e+000 -1.000000e+000  0.000000e+000
    outer loop
      vertex  3.344523e-001 -2.812500e-001  2.870839e-001
      vertex  2.251324e-001 -2.812500e-001  2.763168e-001
      vertex  3.432886e-001 -2.812500e-001  2.763168e-001
    endloop
  endfacet
  facet normal  0.000000e+000 -1.000000e+000  0.000000e+000
    outer loop
      vertex  3.432886e-001 -2.812500e-001  1.973674e-001
      vertex  2.339687e-001 -2.812500e-001  1.866003e-001
      vertex  3.344523e-001 -2.812500e-001  1.866003e-001
    endloop
  endfacet
  facet normal  0.000000e+000 -9.999999e-001  0.000000e+000
    outer loop
      vertex  3.344523e-001 -2.812500e-001  1.866003e-001
      vertex  2.339687e-001 -2.812500e-001  1.866003e-001
      vertex  2.447358e-001 -2.812500e-001  1.777640e-001
    endloop
  endfacet
  facet normal  0.000000e+000 -1.000000e+000  0.000000e+000
    outer loop
      vertex  3.344523e-001 -2.812500e-001  1.866003e-001
      vertex  2.447358e-001 -2.812500e-001  1.777640e-001
      vertex  3.236853e-001 -2.812500e-001  1.777640e-001
    endloop
  endfacet
  facet normal  0.000000e+000 -1.000000e+000  0.000000e+000
    outer loop
      vertex  3.236853e-001 -2.812500e-001  1.777640e-001
      vertex  2.447358e-001 -2.812500e-001  1.777640e-001
      vertex  2.570198e-001 -2.812500e-001  1.711980e-001
    endloop
  endfacet
  facet normal  0.000000e+000 -1.000000e+000  0.000000e+000
    outer loop
      vertex  3.236853e-001 -2.812500e-001  1.777640e-001
      vertex  2.570198e-001 -2.812500e-001  1.711980e-001
      vertex  3.114012e-001 -2.812500e-001  1.711980e-001
    endloop
  endfacet
  facet normal  0.000000e+000 -9.999999e-001  0.000000e+000
    outer loop
      vertex  3.114012e-001 -2.812500e-001  1.711980e-001
      vertex  2.570198e-001 -2.812500e-001  1.711980e-001
      vertex  2.703488e-001 -2.812500e-001  1.671547e-001
    endloop
  endfacet
  facet normal  0.000000e+000 -1.000000e+000  0.000000e+000
    outer loop
      vertex  3.114012e-001 -2.812500e-001  1.711980e-001
      vertex  2.703488e-001 -2.812500e-001  1.671547e-001
      vertex  2.980722e-001 -2.812500e-001  1.671547e-001
    endloop
  endfacet
  facet normal  0.000000e+000 -1.000000e+000  0.000000e+000
    outer loop
      vertex  2.980722e-001 -2.812500e-001  1.671547e-001
      vertex  2.703488e-001 -2.812500e-001  1.671547e-001
      vertex  2.842105e-001 -2.812500e-001  1.657895e-001
    endloop
  endfacet
  facet normal  0.000000e+000 -1.000000e+000  0.000000e+000
    outer loop
      vertex  3.432886e-001 -2.812500e-001  2.763168e-001
      vertex  2.251324e-001 -2.812500e-001  2.763168e-001
      vertex  3.498546e-001 -2.812500e-001  2.640328e-001
    endloop
  endfacet
  facet normal  0.000000e+000 -9.999999e-001  0.000000e+000
    outer loop
      vertex  3.498546e-001 -2.812500e-001  2.640328e-001
      vertex  2.251324e-001 -2.812500e-001  2.763168e-001
      vertex  2.185664e-001 -2.812500e-001  2.640328e-001
    endloop
  endfacet
  facet normal  0.000000e+000 -9.999999e-001  0.000000e+000
    outer loop
      vertex  3.498546e-001 -2.812500e-001  2.640328e-001
      vertex  2.185664e-001 -2.812500e-001  2.640328e-001
      vertex  3.538979e-001 -2.812500e-001  2.507038e-001
    endloop
  endfacet
  facet normal  0.000000e+000 -1.000000e+000  0.000000e+000
    outer loop
      vertex  3.538979e-001 -2.812500e-001  2.507038e-001
      vertex  2.185664e-001 -2.812500e-001  2.640328e-001
      vertex  2.145232e-001 -2.812500e-001  2.507038e-001
    endloop
  endfacet
  facet normal  0.000000e+000 -1.000000e+000  0.000000e+000
    outer loop
      vertex  3.538979e-001 -2.812500e-001  2.507038e-001
      vertex  2.145232e-001 -2.812500e-001  2.507038e-001
      vertex  3.552631e-001 -2.812500e-001  2.368421e-001
    endloop
  endfacet
  facet normal  0.000000e+000 -1.000000e+000  0.000000e+000
    outer loop
      vertex  3.552631e-001 -2.812500e-001  2.368421e-001
      vertex  2.145232e-001 -2.812500e-001  2.507038e-001
      vertex  2.131579e-001 -2.812500e-001  2.368421e-001
    endloop
  endfacet
  facet normal  0.000000e+000 -1.000000e+000  0.000000e+000
    outer loop
      vertex  3.552631e-001 -2.812500e-001  2.368421e-001
      vertex  2.131579e-001 -2.812500e-001  2.368421e-001
      vertex  3.538979e-001 -2.812500e-001  2.229804e-001
    endloop
  endfacet
  facet normal  0.000000e+000 -1.000000e+000  0.000000e+000
    outer loop
      vertex  3.538979e-001 -2.812500e-001  2.229804e-001
      vertex  2.131579e-001 -2.812500e-001  2.368421e-001
      vertex  2.145232e-001 -2.812500e-001  2.229804e-001
    endloop
  endfacet
  facet normal  0.000000e+000 -1.000000e+000  0.000000e+000
    outer loop
      vertex  3.538979e-001 -2.812500e-001  2.229804e-001
      vertex  2.145232e-001 -2.812500e-001  2.229804e-001
      vertex  3.498546e-001 -2.812500e-001  2.096514e-001
    endloop
  endfacet
  facet normal  0.000000e+000 -1.000000e+000  0.000000e+000
    outer loop
      vertex  3.498546e-001 -2.812500e-001  2.096514e-001
      vertex  2.145232e-001 -2.812500e-001  2.229804e-001
      vertex  2.185664e-001 -2.812500e-001  2.096514e-001
    endloop
  endfacet
  facet normal  0.000000e+000 -1.000000e+000  0.000000e+000
    outer loop
      vertex  3.498546e-001 -2.812500e-001  2.096514e-001
      vertex  2.185664e-001 -2.812500e-001  2.096514e-001
      vertex  3.432886e-001 -2.812500e-001  1.973674e-001
    endloop
  endfacet
  facet normal  0.000000e+000 -1.000000e+000  0.000000e+000
    outer loop
      vertex  3.432886e-001 -2.812500e-001  1.973674e-001
      vertex  2.185664e-001 -2.812500e-001  2.096514e-001
      vertex  2.251324e-001 -2.812500e-001  1.973674e-001
    endloop
  endfacet
  facet normal  0.000000e+000 -1.000000e+000  0.000000e+000
    outer loop
      vertex  3.432886e-001 -2.812500e-001  1.973674e-001
      vertex  2.251324e-001 -2.812500e-001  1.973674e-001
      vertex  2.339687e-001 -2.812500e-001  1.866003e-001
    endloop
  endfacet
endsolid CATIA STL
