solid CATIA STL
  facet normal  0.000000e+000 -1.000000e+000  0.000000e+000
    outer loop
      vertex -7.500000e-001 -3.437500e-001 -7.812500e-003
      vertex  1.562500e-002 -3.437500e-001 -7.812500e-003
      vertex -7.500000e-001 -3.437500e-001  3.810033e-001
    endloop
  endfacet
  facet normal  0.000000e+000 -1.000000e+000  0.000000e+000
    outer loop
      vertex -7.500000e-001 -3.437500e-001  3.810033e-001
      vertex  1.562500e-002 -3.437500e-001 -7.812500e-003
      vertex  1.562500e-002 -3.437500e-001  3.810033e-001
    endloop
  endfacet
  facet normal -1.000000e+000  0.000000e+000  0.000000e+000
    outer loop
      vertex -7.500000e-001  0.000000e+000 -7.812500e-003
      vertex -7.500000e-001 -3.437500e-001 -7.812500e-003
      vertex -7.500000e-001  2.779324e-017  4.435033e-001
    endloop
  endfacet
  facet normal -1.000000e+000  0.000000e+000  0.000000e+000
    outer loop
      vertex -7.500000e-001  2.779324e-017  4.435033e-001
      vertex -7.500000e-001 -3.437500e-001 -7.812500e-003
      vertex -7.500000e-001 -3.437500e-001  3.810033e-001
    endloop
  endfacet
  facet normal -1.000000e+000  0.000000e+000  0.000000e+000
    outer loop
      vertex -7.500000e-001  2.779324e-017  4.435033e-001
      vertex -7.500000e-001 -3.437500e-001  3.810033e-001
      vertex -7.500000e-001 -3.359375e-001  4.435033e-001
    endloop
  endfacet
  facet normal  0.000000e+000  0.000000e+000  1.000000e+000
    outer loop
      vertex  1.562500e-002 -3.359375e-001  4.435033e-001
      vertex  1.562500e-002  1.127947e-016  4.435033e-001
      vertex -7.500000e-001 -3.359375e-001  4.435033e-001
    endloop
  endfacet
  facet normal  0.000000e+000  0.000000e+000  1.000000e+000
    outer loop
      vertex -7.500000e-001 -3.359375e-001  4.435033e-001
      vertex  1.562500e-002  1.127947e-016  4.435033e-001
      vertex -7.500000e-001  2.779324e-017  4.435033e-001
    endloop
  endfacet
  facet normal  1.000000e+000  0.000000e+000  0.000000e+000
    outer loop
      vertex  1.562500e-002 -3.437500e-001 -7.812500e-003
      vertex  1.562500e-002  8.500145e-017 -7.812500e-003
      vertex  1.562500e-002 -3.437500e-001  3.810033e-001
    endloop
  endfacet
  facet normal  1.000000e+000  -0.000000e+000  0.000000e+000
    outer loop
      vertex  1.562500e-002 -3.437500e-001  3.810033e-001
      vertex  1.562500e-002  8.500145e-017 -7.812500e-003
      vertex  1.562500e-002  1.127947e-016  4.435033e-001
    endloop
  endfacet
  facet normal  1.000000e+000  0.000000e+000  0.000000e+000
    outer loop
      vertex  1.562500e-002 -3.437500e-001  3.810033e-001
      vertex  1.562500e-002  1.127947e-016  4.435033e-001
      vertex  1.562500e-002 -3.359375e-001  4.435033e-001
    endloop
  endfacet
  facet normal  0.000000e+000 -9.922779e-001  1.240347e-001
    outer loop
      vertex -7.500000e-001 -3.437500e-001  3.810033e-001
      vertex  1.562500e-002 -3.437500e-001  3.810033e-001
      vertex -7.500000e-001 -3.359375e-001  4.435033e-001
    endloop
  endfacet
  facet normal  0.000000e+000 -9.922779e-001  1.240347e-001
    outer loop
      vertex -7.500000e-001 -3.359375e-001  4.435033e-001
      vertex  1.562500e-002 -3.437500e-001  3.810033e-001
      vertex  1.562500e-002 -3.359375e-001  4.435033e-001
    endloop
  endfacet
  facet normal -1.110223e-016  1.000000e+000 -6.158268e-017
    outer loop
      vertex -7.500000e-001  0.000000e+000 -7.812500e-003
      vertex -7.500000e-001  2.779324e-017  4.435033e-001
      vertex  1.562500e-002  8.500145e-017 -7.812500e-003
    endloop
  endfacet
  facet normal -1.110223e-016  1.000000e+000 -6.158270e-017
    outer loop
      vertex  1.562500e-002  8.500145e-017 -7.812500e-003
      vertex -7.500000e-001  2.779324e-017  4.435033e-001
      vertex  1.562500e-002  1.127947e-016  4.435033e-001
    endloop
  endfacet
  facet normal  0.000000e+000  0.000000e+000 -1.000000e+000
    outer loop
      vertex -7.500000e-001 -3.437500e-001 -7.812500e-003
      vertex -7.500000e-001  0.000000e+000 -7.812500e-003
      vertex  1.562500e-002 -3.437500e-001 -7.812500e-003
    endloop
  endfacet
  facet normal  0.000000e+000  0.000000e+000 -1.000000e+000
    outer loop
      vertex  1.562500e-002 -3.437500e-001 -7.812500e-003
      vertex -7.500000e-001  0.000000e+000 -7.812500e-003
      vertex  1.562500e-002  8.500145e-017 -7.812500e-003
    endloop
  endfacet
endsolid CATIA STL
