solid CATIA STL
  facet normal  -0.000000e+000  0.000000e+000  1.000000e+000
    outer loop
      vertex -1.093750e-001  1.674008e-016  7.343750e-001
      vertex -1.171875e-001 -7.812500e-003  7.343750e-001
      vertex -1.093750e-001 -3.906250e-002  7.343750e-001
    endloop
  endfacet
  facet normal  -0.000000e+000  0.000000e+000  1.000000e+000
    outer loop
      vertex -1.093750e-001  1.674008e-016  7.343750e-001
      vertex -1.562500e-001  1.647987e-016  7.343750e-001
      vertex -1.171875e-001 -7.812500e-003  7.343750e-001
    endloop
  endfacet
  facet normal  0.000000e+000  -0.000000e+000  1.000000e+000
    outer loop
      vertex -1.562500e-001  1.647987e-016  7.343750e-001
      vertex -1.484375e-001 -7.812500e-003  7.343750e-001
      vertex -1.171875e-001 -7.812500e-003  7.343750e-001
    endloop
  endfacet
  facet normal  0.000000e+000  0.000000e+000  1.000000e+000
    outer loop
      vertex -1.562500e-001  1.647987e-016  7.343750e-001
      vertex -1.562500e-001 -3.906250e-002  7.343750e-001
      vertex -1.484375e-001 -7.812500e-003  7.343750e-001
    endloop
  endfacet
  facet normal  -0.000000e+000  0.000000e+000  1.000000e+000
    outer loop
      vertex -1.171875e-001 -7.812500e-003  7.343750e-001
      vertex -1.171875e-001 -3.125000e-002  7.343750e-001
      vertex -1.093750e-001 -3.906250e-002  7.343750e-001
    endloop
  endfacet
  facet normal  0.000000e+000  0.000000e+000  1.000000e+000
    outer loop
      vertex -1.562500e-001 -3.906250e-002  7.343750e-001
      vertex -1.093750e-001 -3.906250e-002  7.343750e-001
      vertex -1.171875e-001 -3.125000e-002  7.343750e-001
    endloop
  endfacet
  facet normal  0.000000e+000  0.000000e+000  1.000000e+000
    outer loop
      vertex -1.562500e-001 -3.906250e-002  7.343750e-001
      vertex -1.171875e-001 -3.125000e-002  7.343750e-001
      vertex -1.484375e-001 -3.125000e-002  7.343750e-001
    endloop
  endfacet
  facet normal  0.000000e+000  -0.000000e+000  1.000000e+000
    outer loop
      vertex -1.562500e-001 -3.906250e-002  7.343750e-001
      vertex -1.484375e-001 -3.125000e-002  7.343750e-001
      vertex -1.484375e-001 -7.812500e-003  7.343750e-001
    endloop
  endfacet
  facet normal -9.999999e-001  0.000000e+000  0.000000e+000
    outer loop
      vertex -1.171875e-001 -3.125000e-002 -7.421875e-001
      vertex -1.171875e-001 -3.125000e-002  7.343750e-001
      vertex -1.171875e-001 -7.812500e-003 -7.421875e-001
    endloop
  endfacet
  facet normal -9.999999e-001  0.000000e+000  0.000000e+000
    outer loop
      vertex -1.171875e-001 -7.812500e-003 -7.421875e-001
      vertex -1.171875e-001 -3.125000e-002  7.343750e-001
      vertex -1.171875e-001 -7.812500e-003  7.343750e-001
    endloop
  endfacet
  facet normal  9.999999e-001  0.000000e+000  0.000000e+000
    outer loop
      vertex -1.484375e-001 -3.125000e-002  7.343750e-001
      vertex -1.484375e-001 -3.125000e-002 -7.421875e-001
      vertex -1.484375e-001 -7.812500e-003  7.343750e-001
    endloop
  endfacet
  facet normal  9.999999e-001  0.000000e+000  0.000000e+000
    outer loop
      vertex -1.484375e-001 -7.812500e-003  7.343750e-001
      vertex -1.484375e-001 -3.125000e-002 -7.421875e-001
      vertex -1.484375e-001 -7.812500e-003 -7.421875e-001
    endloop
  endfacet
  facet normal  0.000000e+000 -9.999999e-001  0.000000e+000
    outer loop
      vertex -1.484375e-001 -7.812500e-003 -7.421875e-001
      vertex -1.171875e-001 -7.812500e-003 -7.421875e-001
      vertex -1.484375e-001 -7.812500e-003  7.343750e-001
    endloop
  endfacet
  facet normal  0.000000e+000 -9.999999e-001  0.000000e+000
    outer loop
      vertex -1.484375e-001 -7.812500e-003  7.343750e-001
      vertex -1.171875e-001 -7.812500e-003 -7.421875e-001
      vertex -1.171875e-001 -7.812500e-003  7.343750e-001
    endloop
  endfacet
  facet normal  0.000000e+000  9.999999e-001  0.000000e+000
    outer loop
      vertex -1.484375e-001 -3.125000e-002 -7.421875e-001
      vertex -1.484375e-001 -3.125000e-002  7.343750e-001
      vertex -1.171875e-001 -3.125000e-002 -7.421875e-001
    endloop
  endfacet
  facet normal  0.000000e+000  9.999999e-001  -0.000000e+000
    outer loop
      vertex -1.171875e-001 -3.125000e-002 -7.421875e-001
      vertex -1.484375e-001 -3.125000e-002  7.343750e-001
      vertex -1.171875e-001 -3.125000e-002  7.343750e-001
    endloop
  endfacet
  facet normal  0.000000e+000  0.000000e+000  1.000000e+000
    outer loop
      vertex -1.484375e-001 -3.125000e-002 -7.421875e-001
      vertex -1.171875e-001 -3.125000e-002 -7.421875e-001
      vertex -1.484375e-001 -7.812500e-003 -7.421875e-001
    endloop
  endfacet
  facet normal  -0.000000e+000  0.000000e+000  1.000000e+000
    outer loop
      vertex -1.484375e-001 -7.812500e-003 -7.421875e-001
      vertex -1.171875e-001 -3.125000e-002 -7.421875e-001
      vertex -1.171875e-001 -7.812500e-003 -7.421875e-001
    endloop
  endfacet
  facet normal  0.000000e+000 -1.000000e+000  0.000000e+000
    outer loop
      vertex -1.562500e-001 -3.906250e-002 -7.500000e-001
      vertex -1.093750e-001 -3.906250e-002 -7.500000e-001
      vertex -1.562500e-001 -3.906250e-002  7.343750e-001
    endloop
  endfacet
  facet normal  0.000000e+000 -1.000000e+000  0.000000e+000
    outer loop
      vertex -1.562500e-001 -3.906250e-002  7.343750e-001
      vertex -1.093750e-001 -3.906250e-002 -7.500000e-001
      vertex -1.093750e-001 -3.906250e-002  7.343750e-001
    endloop
  endfacet
  facet normal -5.551115e-017  1.000000e+000 -1.110223e-016
    outer loop
      vertex -1.562500e-001  0.000000e+000 -7.500000e-001
      vertex -1.562500e-001  1.647987e-016  7.343750e-001
      vertex -1.093750e-001  2.602085e-018 -7.500000e-001
    endloop
  endfacet
  facet normal -5.551115e-017  1.000000e+000 -1.110223e-016
    outer loop
      vertex -1.093750e-001  2.602085e-018 -7.500000e-001
      vertex -1.562500e-001  1.647987e-016  7.343750e-001
      vertex -1.093750e-001  1.674008e-016  7.343750e-001
    endloop
  endfacet
  facet normal -9.999999e-001  -0.000000e+000  0.000000e+000
    outer loop
      vertex -1.562500e-001 -3.906250e-002  7.343750e-001
      vertex -1.562500e-001  1.647987e-016  7.343750e-001
      vertex -1.562500e-001 -3.906250e-002 -7.500000e-001
    endloop
  endfacet
  facet normal -9.999999e-001  0.000000e+000  0.000000e+000
    outer loop
      vertex -1.562500e-001 -3.906250e-002 -7.500000e-001
      vertex -1.562500e-001  1.647987e-016  7.343750e-001
      vertex -1.562500e-001  0.000000e+000 -7.500000e-001
    endloop
  endfacet
  facet normal  9.999999e-001  0.000000e+000  0.000000e+000
    outer loop
      vertex -1.093750e-001 -3.906250e-002 -7.500000e-001
      vertex -1.093750e-001  2.602085e-018 -7.500000e-001
      vertex -1.093750e-001 -3.906250e-002  7.343750e-001
    endloop
  endfacet
  facet normal  9.999999e-001  -0.000000e+000  0.000000e+000
    outer loop
      vertex -1.093750e-001 -3.906250e-002  7.343750e-001
      vertex -1.093750e-001  2.602085e-018 -7.500000e-001
      vertex -1.093750e-001  1.674008e-016  7.343750e-001
    endloop
  endfacet
  facet normal  0.000000e+000  0.000000e+000 -1.000000e+000
    outer loop
      vertex -1.562500e-001 -3.906250e-002 -7.500000e-001
      vertex -1.562500e-001  0.000000e+000 -7.500000e-001
      vertex -1.093750e-001 -3.906250e-002 -7.500000e-001
    endloop
  endfacet
  facet normal  0.000000e+000  0.000000e+000 -1.000000e+000
    outer loop
      vertex -1.093750e-001 -3.906250e-002 -7.500000e-001
      vertex -1.562500e-001  0.000000e+000 -7.500000e-001
      vertex -1.093750e-001  2.602085e-018 -7.500000e-001
    endloop
  endfacet
endsolid CATIA STL
