solid CATIA STL
  facet normal  1.231966e-002  9.999241e-001  0.000000e+000
    outer loop
      vertex -7.500000e-001  0.000000e+000 -4.687500e-002
      vertex -1.168718e+000  5.158857e-003 -4.687500e-002
      vertex -7.500000e-001  3.268870e-017  4.765625e-001
    endloop
  endfacet
  facet normal  1.231966e-002  9.999241e-001  0.000000e+000
    outer loop
      vertex -7.500000e-001  3.268870e-017  4.765625e-001
      vertex -1.168718e+000  5.158857e-003 -4.687500e-002
      vertex -1.168718e+000  5.158857e-003  4.765625e-001
    endloop
  endfacet
  facet normal -1.110223e-016  1.000000e+000 -6.245005e-017
    outer loop
      vertex -7.500000e-001  0.000000e+000 -4.687500e-002
      vertex -7.500000e-001  3.268870e-017  4.765625e-001
      vertex -3.312500e-001  4.649059e-017 -4.687500e-002
    endloop
  endfacet
  facet normal -1.110223e-016  1.000000e+000 -6.245005e-017
    outer loop
      vertex -3.312500e-001  4.649059e-017 -4.687500e-002
      vertex -7.500000e-001  3.268870e-017  4.765625e-001
      vertex -3.312500e-001  7.917928e-017  4.765625e-001
    endloop
  endfacet
  facet normal  0.000000e+000  -0.000000e+000  1.000000e+000
    outer loop
      vertex -7.913561e-001 -4.167028e-001  4.765625e-001
      vertex -7.137806e-001 -4.171807e-001  4.765625e-001
      vertex -6.374483e-001 -4.033406e-001  4.765625e-001
    endloop
  endfacet
  facet normal  -0.000000e+000  -0.000000e+000  1.000000e+000
    outer loop
      vertex -1.162485e+000 -7.216720e-002  4.765625e-001
      vertex -1.142094e+000 -1.470164e-001  4.765625e-001
      vertex -3.597469e-001 -1.518357e-001  4.765625e-001
    endloop
  endfacet
  facet normal  0.000000e+000  -0.000000e+000  9.999999e-001
    outer loop
      vertex -1.162485e+000 -7.216720e-002  4.765625e-001
      vertex -3.597469e-001 -1.518357e-001  4.765625e-001
      vertex -3.384359e-001 -7.724340e-002  4.765625e-001
    endloop
  endfacet
  facet normal  0.000000e+000  -0.000000e+000  1.000000e+000
    outer loop
      vertex -1.162485e+000 -7.216720e-002  4.765625e-001
      vertex -3.384359e-001 -7.724340e-002  4.765625e-001
      vertex -3.312500e-001  7.917928e-017  4.765625e-001
    endloop
  endfacet
  facet normal  0.000000e+000  0.000000e+000  1.000000e+000
    outer loop
      vertex -1.162485e+000 -7.216720e-002  4.765625e-001
      vertex -3.312500e-001  7.917928e-017  4.765625e-001
      vertex -7.500000e-001  3.268870e-017  4.765625e-001
    endloop
  endfacet
  facet normal  0.000000e+000  0.000000e+000  1.000000e+000
    outer loop
      vertex -1.162485e+000 -7.216720e-002  4.765625e-001
      vertex -7.500000e-001  3.268870e-017  4.765625e-001
      vertex -1.168718e+000  5.158857e-003  4.765625e-001
    endloop
  endfacet
  facet normal  0.000000e+000  0.000000e+000  9.999999e-001
    outer loop
      vertex -7.913561e-001 -4.167028e-001  4.765625e-001
      vertex -6.374483e-001 -4.033406e-001  4.765625e-001
      vertex -8.675122e-001 -4.019234e-001  4.765625e-001
    endloop
  endfacet
  facet normal  -0.000000e+000  0.000000e+000  9.999999e-001
    outer loop
      vertex -8.675122e-001 -4.019234e-001  4.765625e-001
      vertex -6.374483e-001 -4.033406e-001  4.765625e-001
      vertex -5.649788e-001 -3.756577e-001  4.765625e-001
    endloop
  endfacet
  facet normal  0.000000e+000  0.000000e+000  1.000000e+000
    outer loop
      vertex -8.675122e-001 -4.019234e-001  4.765625e-001
      vertex -5.649788e-001 -3.756577e-001  4.765625e-001
      vertex -9.396352e-001 -3.733498e-001  4.765625e-001
    endloop
  endfacet
  facet normal  -0.000000e+000  0.000000e+000  1.000000e+000
    outer loop
      vertex -9.396352e-001 -3.733498e-001  4.765625e-001
      vertex -5.649788e-001 -3.756577e-001  4.765625e-001
      vertex -4.988593e-001 -3.350819e-001  4.765625e-001
    endloop
  endfacet
  facet normal  0.000000e+000  0.000000e+000  9.999999e-001
    outer loop
      vertex -9.396352e-001 -3.733498e-001  4.765625e-001
      vertex -4.988593e-001 -3.350819e-001  4.765625e-001
      vertex -1.005250e+000 -3.319625e-001  4.765625e-001
    endloop
  endfacet
  facet normal  -0.000000e+000  0.000000e+000  1.000000e+000
    outer loop
      vertex -1.005250e+000 -3.319625e-001  4.765625e-001
      vertex -4.988593e-001 -3.350819e-001  4.765625e-001
      vertex -4.413591e-001 -2.830059e-001  4.765625e-001
    endloop
  endfacet
  facet normal  0.000000e+000  0.000000e+000  1.000000e+000
    outer loop
      vertex -1.005250e+000 -3.319625e-001  4.765625e-001
      vertex -4.413591e-001 -2.830059e-001  4.765625e-001
      vertex -1.062104e+000 -2.791821e-001  4.765625e-001
    endloop
  endfacet
  facet normal  -0.000000e+000  0.000000e+000  1.000000e+000
    outer loop
      vertex -1.062104e+000 -2.791821e-001  4.765625e-001
      vertex -4.413591e-001 -2.830059e-001  4.765625e-001
      vertex -3.944517e-001 -2.212170e-001  4.765625e-001
    endloop
  endfacet
  facet normal  0.000000e+000  0.000000e+000  1.000000e+000
    outer loop
      vertex -1.062104e+000 -2.791821e-001  4.765625e-001
      vertex -3.944517e-001 -2.212170e-001  4.765625e-001
      vertex -1.108247e+000 -2.168200e-001  4.765625e-001
    endloop
  endfacet
  facet normal  -0.000000e+000  0.000000e+000  1.000000e+000
    outer loop
      vertex -1.108247e+000 -2.168200e-001  4.765625e-001
      vertex -3.944517e-001 -2.212170e-001  4.765625e-001
      vertex -3.597469e-001 -1.518357e-001  4.765625e-001
    endloop
  endfacet
  facet normal  0.000000e+000  0.000000e+000  1.000000e+000
    outer loop
      vertex -1.108247e+000 -2.168200e-001  4.765625e-001
      vertex -3.597469e-001 -1.518357e-001  4.765625e-001
      vertex -1.142094e+000 -1.470164e-001  4.765625e-001
    endloop
  endfacet
  facet normal -9.967663e-001 -8.035498e-002  0.000000e+000
    outer loop
      vertex -1.168718e+000  5.158857e-003  4.765625e-001
      vertex -1.168718e+000  5.158857e-003 -4.687500e-002
      vertex -1.162485e+000 -7.216720e-002  4.765625e-001
    endloop
  endfacet
  facet normal -9.967663e-001 -8.035498e-002  -0.000000e+000
    outer loop
      vertex -1.162485e+000 -7.216720e-002  4.765625e-001
      vertex -1.168718e+000  5.158857e-003 -4.687500e-002
      vertex -1.162485e+000 -7.216720e-002 -4.687500e-002
    endloop
  endfacet
  facet normal -9.648387e-001 -2.628424e-001  0.000000e+000
    outer loop
      vertex -1.162485e+000 -7.216720e-002  4.765625e-001
      vertex -1.162485e+000 -7.216720e-002 -4.687500e-002
      vertex -1.142094e+000 -1.470164e-001  4.765625e-001
    endloop
  endfacet
  facet normal -9.648387e-001 -2.628424e-001  -0.000000e+000
    outer loop
      vertex -1.142094e+000 -1.470164e-001  4.765625e-001
      vertex -1.162485e+000 -7.216720e-002 -4.687500e-002
      vertex -1.142094e+000 -1.470164e-001 -4.687500e-002
    endloop
  endfacet
  facet normal -8.997980e-001 -4.363068e-001  0.000000e+000
    outer loop
      vertex -1.142094e+000 -1.470164e-001  4.765625e-001
      vertex -1.142094e+000 -1.470164e-001 -4.687500e-002
      vertex -1.108247e+000 -2.168200e-001  4.765625e-001
    endloop
  endfacet
  facet normal -8.997980e-001 -4.363068e-001  -0.000000e+000
    outer loop
      vertex -1.108247e+000 -2.168200e-001  4.765625e-001
      vertex -1.142094e+000 -1.470164e-001 -4.687500e-002
      vertex -1.108247e+000 -2.168200e-001 -4.687500e-002
    endloop
  endfacet
  facet normal -8.038744e-001 -5.947990e-001  0.000000e+000
    outer loop
      vertex -1.108247e+000 -2.168200e-001  4.765625e-001
      vertex -1.108247e+000 -2.168200e-001 -4.687500e-002
      vertex -1.062104e+000 -2.791821e-001  4.765625e-001
    endloop
  endfacet
  facet normal -8.038744e-001 -5.947990e-001  -0.000000e+000
    outer loop
      vertex -1.062104e+000 -2.791821e-001  4.765625e-001
      vertex -1.108247e+000 -2.168200e-001 -4.687500e-002
      vertex -1.062104e+000 -2.791821e-001 -4.687500e-002
    endloop
  endfacet
  facet normal -6.803625e-001 -7.328759e-001  0.000000e+000
    outer loop
      vertex -1.062104e+000 -2.791821e-001  4.765625e-001
      vertex -1.062104e+000 -2.791821e-001 -4.687500e-002
      vertex -1.005250e+000 -3.319625e-001  4.765625e-001
    endloop
  endfacet
  facet normal -6.803625e-001 -7.328759e-001  -0.000000e+000
    outer loop
      vertex -1.005250e+000 -3.319625e-001  4.765625e-001
      vertex -1.062104e+000 -2.791821e-001 -4.687500e-002
      vertex -1.005250e+000 -3.319625e-001 -4.687500e-002
    endloop
  endfacet
  facet normal -5.334997e-001 -8.458003e-001  0.000000e+000
    outer loop
      vertex -1.005250e+000 -3.319625e-001  4.765625e-001
      vertex -1.005250e+000 -3.319625e-001 -4.687500e-002
      vertex -9.396352e-001 -3.733498e-001  4.765625e-001
    endloop
  endfacet
  facet normal -5.334997e-001 -8.458003e-001  -0.000000e+000
    outer loop
      vertex -9.396352e-001 -3.733498e-001  4.765625e-001
      vertex -1.005250e+000 -3.319625e-001 -4.687500e-002
      vertex -9.396352e-001 -3.733498e-001 -4.687500e-002
    endloop
  endfacet
  facet normal -3.683268e-001 -9.296964e-001  0.000000e+000
    outer loop
      vertex -9.396352e-001 -3.733498e-001  4.765625e-001
      vertex -9.396352e-001 -3.733498e-001 -4.687500e-002
      vertex -8.675122e-001 -4.019234e-001  4.765625e-001
    endloop
  endfacet
  facet normal -3.683268e-001 -9.296964e-001  -0.000000e+000
    outer loop
      vertex -8.675122e-001 -4.019234e-001  4.765625e-001
      vertex -9.396352e-001 -3.733498e-001 -4.687500e-002
      vertex -8.675122e-001 -4.019234e-001 -4.687500e-002
    endloop
  endfacet
  facet normal -1.905123e-001 -9.816849e-001  0.000000e+000
    outer loop
      vertex -8.675122e-001 -4.019234e-001  4.765625e-001
      vertex -8.675122e-001 -4.019234e-001 -4.687500e-002
      vertex -7.913561e-001 -4.167028e-001  4.765625e-001
    endloop
  endfacet
  facet normal -1.905123e-001 -9.816849e-001  -0.000000e+000
    outer loop
      vertex -7.913561e-001 -4.167028e-001  4.765625e-001
      vertex -8.675122e-001 -4.019234e-001 -4.687500e-002
      vertex -7.913561e-001 -4.167028e-001 -4.687500e-002
    endloop
  endfacet
  facet normal -6.160083e-003 -9.999810e-001  0.000000e+000
    outer loop
      vertex -7.913561e-001 -4.167028e-001  4.765625e-001
      vertex -7.913561e-001 -4.167028e-001 -4.687500e-002
      vertex -7.137806e-001 -4.171807e-001  4.765625e-001
    endloop
  endfacet
  facet normal -6.160083e-003 -9.999810e-001  -0.000000e+000
    outer loop
      vertex -7.137806e-001 -4.171807e-001  4.765625e-001
      vertex -7.913561e-001 -4.167028e-001 -4.687500e-002
      vertex -7.137806e-001 -4.171807e-001 -4.687500e-002
    endloop
  endfacet
  facet normal  1.784043e-001 -9.839572e-001  0.000000e+000
    outer loop
      vertex -7.137806e-001 -4.171807e-001  4.765625e-001
      vertex -7.137806e-001 -4.171807e-001 -4.687500e-002
      vertex -6.374483e-001 -4.033406e-001  4.765625e-001
    endloop
  endfacet
  facet normal  1.784043e-001 -9.839572e-001  0.000000e+000
    outer loop
      vertex -6.374483e-001 -4.033406e-001  4.765625e-001
      vertex -7.137806e-001 -4.171807e-001 -4.687500e-002
      vertex -6.374483e-001 -4.033406e-001 -4.687500e-002
    endloop
  endfacet
  facet normal  3.568453e-001 -9.341635e-001  0.000000e+000
    outer loop
      vertex -6.374483e-001 -4.033406e-001  4.765625e-001
      vertex -6.374483e-001 -4.033406e-001 -4.687500e-002
      vertex -5.649788e-001 -3.756577e-001  4.765625e-001
    endloop
  endfacet
  facet normal  3.568453e-001 -9.341635e-001  0.000000e+000
    outer loop
      vertex -5.649788e-001 -3.756577e-001  4.765625e-001
      vertex -6.374483e-001 -4.033406e-001 -4.687500e-002
      vertex -5.649788e-001 -3.756577e-001 -4.687500e-002
    endloop
  endfacet
  facet normal  5.230387e-001 -8.523089e-001  0.000000e+000
    outer loop
      vertex -5.649788e-001 -3.756577e-001  4.765625e-001
      vertex -5.649788e-001 -3.756577e-001 -4.687500e-002
      vertex -4.988593e-001 -3.350819e-001  4.765625e-001
    endloop
  endfacet
  facet normal  5.230387e-001 -8.523089e-001  0.000000e+000
    outer loop
      vertex -4.988593e-001 -3.350819e-001  4.765625e-001
      vertex -5.649788e-001 -3.756577e-001 -4.687500e-002
      vertex -4.988593e-001 -3.350819e-001 -4.687500e-002
    endloop
  endfacet
  facet normal  6.712822e-001 -7.412018e-001  0.000000e+000
    outer loop
      vertex -4.988593e-001 -3.350819e-001  4.765625e-001
      vertex -4.988593e-001 -3.350819e-001 -4.687500e-002
      vertex -4.413591e-001 -2.830059e-001  4.765625e-001
    endloop
  endfacet
  facet normal  6.712822e-001 -7.412018e-001  0.000000e+000
    outer loop
      vertex -4.413591e-001 -2.830059e-001  4.765625e-001
      vertex -4.988593e-001 -3.350819e-001 -4.687500e-002
      vertex -4.413591e-001 -2.830059e-001 -4.687500e-002
    endloop
  endfacet
  facet normal  7.964861e-001 -6.046571e-001  0.000000e+000
    outer loop
      vertex -4.413591e-001 -2.830059e-001  4.765625e-001
      vertex -4.413591e-001 -2.830059e-001 -4.687500e-002
      vertex -3.944517e-001 -2.212170e-001  4.765625e-001
    endloop
  endfacet
  facet normal  7.964861e-001 -6.046571e-001  0.000000e+000
    outer loop
      vertex -3.944517e-001 -2.212170e-001  4.765625e-001
      vertex -4.413591e-001 -2.830059e-001 -4.687500e-002
      vertex -3.944517e-001 -2.212170e-001 -4.687500e-002
    endloop
  endfacet
  facet normal  8.943542e-001 -4.473595e-001  0.000000e+000
    outer loop
      vertex -3.944517e-001 -2.212170e-001  4.765625e-001
      vertex -3.944517e-001 -2.212170e-001 -4.687500e-002
      vertex -3.597469e-001 -1.518357e-001  4.765625e-001
    endloop
  endfacet
  facet normal  8.943542e-001 -4.473595e-001  0.000000e+000
    outer loop
      vertex -3.597469e-001 -1.518357e-001  4.765625e-001
      vertex -3.944517e-001 -2.212170e-001 -4.687500e-002
      vertex -3.597469e-001 -1.518357e-001 -4.687500e-002
    endloop
  endfacet
  facet normal  9.615276e-001 -2.747082e-001  0.000000e+000
    outer loop
      vertex -3.597469e-001 -1.518357e-001  4.765625e-001
      vertex -3.597469e-001 -1.518357e-001 -4.687500e-002
      vertex -3.384359e-001 -7.724340e-002  4.765625e-001
    endloop
  endfacet
  facet normal  9.615276e-001 -2.747082e-001  0.000000e+000
    outer loop
      vertex -3.384359e-001 -7.724340e-002  4.765625e-001
      vertex -3.597469e-001 -1.518357e-001 -4.687500e-002
      vertex -3.384359e-001 -7.724340e-002 -4.687500e-002
    endloop
  endfacet
  facet normal  9.957008e-001 -9.262906e-002  0.000000e+000
    outer loop
      vertex -3.384359e-001 -7.724340e-002  4.765625e-001
      vertex -3.384359e-001 -7.724340e-002 -4.687500e-002
      vertex -3.312500e-001  7.917928e-017  4.765625e-001
    endloop
  endfacet
  facet normal  9.957008e-001 -9.262906e-002  5.784689e-018
    outer loop
      vertex -3.312500e-001  7.917928e-017  4.765625e-001
      vertex -3.384359e-001 -7.724340e-002 -4.687500e-002
      vertex -3.312500e-001  4.649059e-017 -4.687500e-002
    endloop
  endfacet
  facet normal  0.000000e+000  0.000000e+000 -1.000000e+000
    outer loop
      vertex -6.374483e-001 -4.033406e-001 -4.687500e-002
      vertex -7.137806e-001 -4.171807e-001 -4.687500e-002
      vertex -7.913561e-001 -4.167028e-001 -4.687500e-002
    endloop
  endfacet
  facet normal  0.000000e+000  0.000000e+000 -1.000000e+000
    outer loop
      vertex -1.162485e+000 -7.216720e-002 -4.687500e-002
      vertex -1.168718e+000  5.158857e-003 -4.687500e-002
      vertex -7.500000e-001  0.000000e+000 -4.687500e-002
    endloop
  endfacet
  facet normal  0.000000e+000  -0.000000e+000 -1.000000e+000
    outer loop
      vertex -1.162485e+000 -7.216720e-002 -4.687500e-002
      vertex -7.500000e-001  0.000000e+000 -4.687500e-002
      vertex -3.312500e-001  4.649059e-017 -4.687500e-002
    endloop
  endfacet
  facet normal  0.000000e+000  0.000000e+000 -1.000000e+000
    outer loop
      vertex -1.162485e+000 -7.216720e-002 -4.687500e-002
      vertex -3.312500e-001  4.649059e-017 -4.687500e-002
      vertex -3.384359e-001 -7.724340e-002 -4.687500e-002
    endloop
  endfacet
  facet normal  -0.000000e+000  0.000000e+000 -9.999999e-001
    outer loop
      vertex -1.162485e+000 -7.216720e-002 -4.687500e-002
      vertex -3.384359e-001 -7.724340e-002 -4.687500e-002
      vertex -3.597469e-001 -1.518357e-001 -4.687500e-002
    endloop
  endfacet
  facet normal  0.000000e+000  0.000000e+000 -1.000000e+000
    outer loop
      vertex -1.162485e+000 -7.216720e-002 -4.687500e-002
      vertex -3.597469e-001 -1.518357e-001 -4.687500e-002
      vertex -1.142094e+000 -1.470164e-001 -4.687500e-002
    endloop
  endfacet
  facet normal  -0.000000e+000  0.000000e+000 -1.000000e+000
    outer loop
      vertex -1.142094e+000 -1.470164e-001 -4.687500e-002
      vertex -3.597469e-001 -1.518357e-001 -4.687500e-002
      vertex -1.108247e+000 -2.168200e-001 -4.687500e-002
    endloop
  endfacet
  facet normal  0.000000e+000  0.000000e+000 -1.000000e+000
    outer loop
      vertex -1.108247e+000 -2.168200e-001 -4.687500e-002
      vertex -3.597469e-001 -1.518357e-001 -4.687500e-002
      vertex -3.944517e-001 -2.212170e-001 -4.687500e-002
    endloop
  endfacet
  facet normal  -0.000000e+000  0.000000e+000 -1.000000e+000
    outer loop
      vertex -1.108247e+000 -2.168200e-001 -4.687500e-002
      vertex -3.944517e-001 -2.212170e-001 -4.687500e-002
      vertex -1.062104e+000 -2.791821e-001 -4.687500e-002
    endloop
  endfacet
  facet normal  0.000000e+000  0.000000e+000 -1.000000e+000
    outer loop
      vertex -1.062104e+000 -2.791821e-001 -4.687500e-002
      vertex -3.944517e-001 -2.212170e-001 -4.687500e-002
      vertex -4.413591e-001 -2.830059e-001 -4.687500e-002
    endloop
  endfacet
  facet normal  -0.000000e+000  0.000000e+000 -1.000000e+000
    outer loop
      vertex -1.062104e+000 -2.791821e-001 -4.687500e-002
      vertex -4.413591e-001 -2.830059e-001 -4.687500e-002
      vertex -1.005250e+000 -3.319625e-001 -4.687500e-002
    endloop
  endfacet
  facet normal  0.000000e+000  0.000000e+000 -1.000000e+000
    outer loop
      vertex -1.005250e+000 -3.319625e-001 -4.687500e-002
      vertex -4.413591e-001 -2.830059e-001 -4.687500e-002
      vertex -4.988593e-001 -3.350819e-001 -4.687500e-002
    endloop
  endfacet
  facet normal  -0.000000e+000  0.000000e+000 -9.999999e-001
    outer loop
      vertex -1.005250e+000 -3.319625e-001 -4.687500e-002
      vertex -4.988593e-001 -3.350819e-001 -4.687500e-002
      vertex -9.396352e-001 -3.733498e-001 -4.687500e-002
    endloop
  endfacet
  facet normal  0.000000e+000  0.000000e+000 -1.000000e+000
    outer loop
      vertex -9.396352e-001 -3.733498e-001 -4.687500e-002
      vertex -4.988593e-001 -3.350819e-001 -4.687500e-002
      vertex -5.649788e-001 -3.756577e-001 -4.687500e-002
    endloop
  endfacet
  facet normal  -0.000000e+000  0.000000e+000 -1.000000e+000
    outer loop
      vertex -9.396352e-001 -3.733498e-001 -4.687500e-002
      vertex -5.649788e-001 -3.756577e-001 -4.687500e-002
      vertex -8.675122e-001 -4.019234e-001 -4.687500e-002
    endloop
  endfacet
  facet normal  0.000000e+000  0.000000e+000 -9.999999e-001
    outer loop
      vertex -8.675122e-001 -4.019234e-001 -4.687500e-002
      vertex -5.649788e-001 -3.756577e-001 -4.687500e-002
      vertex -6.374483e-001 -4.033406e-001 -4.687500e-002
    endloop
  endfacet
  facet normal  -0.000000e+000  0.000000e+000 -9.999999e-001
    outer loop
      vertex -8.675122e-001 -4.019234e-001 -4.687500e-002
      vertex -6.374483e-001 -4.033406e-001 -4.687500e-002
      vertex -7.913561e-001 -4.167028e-001 -4.687500e-002
    endloop
  endfacet
endsolid CATIA STL
