solid CATIA STL
  facet normal  0.000000e+000  9.999999e-001  0.000000e+000
    outer loop
      vertex -7.187500e-001  1.562500e-002  1.914474e-001
      vertex  7.500000e-001  1.562500e-002  1.914474e-001
      vertex -7.500000e-001  1.562500e-002  1.836349e-001
    endloop
  endfacet
  facet normal  -0.000000e+000  1.000000e+000  0.000000e+000
    outer loop
      vertex -7.500000e-001  1.562500e-002  1.836349e-001
      vertex  7.500000e-001  1.562500e-002  1.914474e-001
      vertex  7.500000e-001  1.562500e-002 -1.875000e-001
    endloop
  endfacet
  facet normal  0.000000e+000  1.000000e+000  0.000000e+000
    outer loop
      vertex -7.500000e-001  1.562500e-002  1.836349e-001
      vertex  7.500000e-001  1.562500e-002 -1.875000e-001
      vertex -7.500000e-001  1.562500e-002 -1.875000e-001
    endloop
  endfacet
  facet normal  1.110223e-016 -1.000000e+000  5.551113e-017
    outer loop
      vertex -7.500000e-001  0.000000e+000 -1.875000e-001
      vertex  7.500000e-001  1.665335e-016 -1.875000e-001
      vertex -7.500000e-001  2.060212e-017  1.836349e-001
    endloop
  endfacet
  facet normal  1.110223e-016 -1.000000e+000  5.551113e-017
    outer loop
      vertex -7.500000e-001  2.060212e-017  1.836349e-001
      vertex  7.500000e-001  1.665335e-016 -1.875000e-001
      vertex  7.500000e-001  1.875693e-016  1.914474e-001
    endloop
  endfacet
  facet normal  1.110223e-016 -9.999999e-001  5.551115e-017
    outer loop
      vertex -7.500000e-001  2.060212e-017  1.836349e-001
      vertex  7.500000e-001  1.875693e-016  1.914474e-001
      vertex -7.187500e-001  2.450525e-017  1.914474e-001
    endloop
  endfacet
  facet normal -1.000000e+000  0.000000e+000  0.000000e+000
    outer loop
      vertex -7.500000e-001  1.562500e-002  1.836349e-001
      vertex -7.500000e-001  1.562500e-002 -1.875000e-001
      vertex -7.500000e-001  2.060212e-017  1.836349e-001
    endloop
  endfacet
  facet normal -1.000000e+000  0.000000e+000  -0.000000e+000
    outer loop
      vertex -7.500000e-001  2.060212e-017  1.836349e-001
      vertex -7.500000e-001  1.562500e-002 -1.875000e-001
      vertex -7.500000e-001  0.000000e+000 -1.875000e-001
    endloop
  endfacet
  facet normal  -0.000000e+000  0.000000e+000  9.999999e-001
    outer loop
      vertex  7.500000e-001  1.562500e-002  1.914474e-001
      vertex -7.187500e-001  1.562500e-002  1.914474e-001
      vertex  7.500000e-001  1.875693e-016  1.914474e-001
    endloop
  endfacet
  facet normal  0.000000e+000  0.000000e+000  9.999999e-001
    outer loop
      vertex  7.500000e-001  1.875693e-016  1.914474e-001
      vertex -7.187500e-001  1.562500e-002  1.914474e-001
      vertex -7.187500e-001  2.450525e-017  1.914474e-001
    endloop
  endfacet
  facet normal -2.425356e-001  0.000000e+000  9.701425e-001
    outer loop
      vertex -7.500000e-001  2.060212e-017  1.836349e-001
      vertex -7.187500e-001  2.450525e-017  1.914474e-001
      vertex -7.500000e-001  1.562500e-002  1.836349e-001
    endloop
  endfacet
  facet normal -2.425356e-001  0.000000e+000  9.701425e-001
    outer loop
      vertex -7.500000e-001  1.562500e-002  1.836349e-001
      vertex -7.187500e-001  2.450525e-017  1.914474e-001
      vertex -7.187500e-001  1.562500e-002  1.914474e-001
    endloop
  endfacet
  facet normal  1.000000e+000  0.000000e+000  0.000000e+000
    outer loop
      vertex  7.500000e-001  1.562500e-002 -1.875000e-001
      vertex  7.500000e-001  1.562500e-002  1.914474e-001
      vertex  7.500000e-001  1.665335e-016 -1.875000e-001
    endloop
  endfacet
  facet normal  1.000000e+000  0.000000e+000  0.000000e+000
    outer loop
      vertex  7.500000e-001  1.665335e-016 -1.875000e-001
      vertex  7.500000e-001  1.562500e-002  1.914474e-001
      vertex  7.500000e-001  1.875693e-016  1.914474e-001
    endloop
  endfacet
  facet normal  -0.000000e+000  0.000000e+000 -1.000000e+000
    outer loop
      vertex -7.500000e-001  1.562500e-002 -1.875000e-001
      vertex  7.500000e-001  1.562500e-002 -1.875000e-001
      vertex -7.500000e-001  0.000000e+000 -1.875000e-001
    endloop
  endfacet
  facet normal  0.000000e+000  0.000000e+000 -1.000000e+000
    outer loop
      vertex -7.500000e-001  0.000000e+000 -1.875000e-001
      vertex  7.500000e-001  1.562500e-002 -1.875000e-001
      vertex  7.500000e-001  1.665335e-016 -1.875000e-001
    endloop
  endfacet
endsolid CATIA STL
