solid CATIA STL
  facet normal  4.902612e-001  -0.000000e+000  8.715755e-001
    outer loop
      vertex -1.171875e-001  3.469447e-018 -6.250000e-002
      vertex -1.171875e-001 -7.812500e-003 -6.250000e-002
      vertex -2.713816e-003  6.071532e-018 -1.268914e-001
    endloop
  endfacet
  facet normal  4.902612e-001  0.000000e+000  8.715755e-001
    outer loop
      vertex -2.713816e-003  6.071532e-018 -1.268914e-001
      vertex -1.171875e-001 -7.812500e-003 -6.250000e-002
      vertex -2.713816e-003 -7.812500e-003 -1.268914e-001
    endloop
  endfacet
  facet normal -4.981245e-001  0.000000e+000  8.671055e-001
    outer loop
      vertex -2.713816e-003  6.071532e-018 -1.268914e-001
      vertex -2.713816e-003 -7.812500e-003 -1.268914e-001
      vertex  1.093750e-001  1.734723e-017 -6.250000e-002
    endloop
  endfacet
  facet normal -4.981245e-001  0.000000e+000  8.671055e-001
    outer loop
      vertex  1.093750e-001  1.734723e-017 -6.250000e-002
      vertex -2.713816e-003 -7.812500e-003 -1.268914e-001
      vertex  1.093750e-001 -7.812500e-003 -6.250000e-002
    endloop
  endfacet
  facet normal -1.000000e+000  0.000000e+000  0.000000e+000
    outer loop
      vertex  1.093750e-001  1.734723e-017 -6.250000e-002
      vertex  1.093750e-001 -7.812500e-003 -6.250000e-002
      vertex  1.093750e-001  2.341877e-017  6.866776e-002
    endloop
  endfacet
  facet normal -1.000000e+000  -0.000000e+000  0.000000e+000
    outer loop
      vertex  1.093750e-001  2.341877e-017  6.866776e-002
      vertex  1.093750e-001 -7.812500e-003 -6.250000e-002
      vertex  1.093750e-001 -7.812500e-003  6.866776e-002
    endloop
  endfacet
  facet normal -4.981244e-001  0.000000e+000 -8.671055e-001
    outer loop
      vertex  1.093750e-001  2.341877e-017  6.866776e-002
      vertex  1.093750e-001 -7.812500e-003  6.866776e-002
      vertex -2.713816e-003  2.255141e-017  1.330592e-001
    endloop
  endfacet
  facet normal -4.981244e-001  -0.000000e+000 -8.671055e-001
    outer loop
      vertex -2.713816e-003  2.255141e-017  1.330592e-001
      vertex  1.093750e-001 -7.812500e-003  6.866776e-002
      vertex -2.713816e-003 -7.812500e-003  1.330592e-001
    endloop
  endfacet
  facet normal  4.902612e-001  0.000000e+000 -8.715756e-001
    outer loop
      vertex -2.713816e-003  2.255141e-017  1.330592e-001
      vertex -2.713816e-003 -7.812500e-003  1.330592e-001
      vertex -1.171875e-001  1.127570e-017  6.866776e-002
    endloop
  endfacet
  facet normal  4.902612e-001  0.000000e+000 -8.715756e-001
    outer loop
      vertex -1.171875e-001  1.127570e-017  6.866776e-002
      vertex -2.713816e-003 -7.812500e-003  1.330592e-001
      vertex -1.171875e-001 -7.812500e-003  6.866776e-002
    endloop
  endfacet
  facet normal  1.000000e+000  -0.000000e+000  0.000000e+000
    outer loop
      vertex -1.171875e-001  1.127570e-017  6.866776e-002
      vertex -1.171875e-001 -7.812500e-003  6.866776e-002
      vertex -1.171875e-001  3.469447e-018 -6.250000e-002
    endloop
  endfacet
  facet normal  1.000000e+000  0.000000e+000  0.000000e+000
    outer loop
      vertex -1.171875e-001  3.469447e-018 -6.250000e-002
      vertex -1.171875e-001 -7.812500e-003  6.866776e-002
      vertex -1.171875e-001 -7.812500e-003 -6.250000e-002
    endloop
  endfacet
  facet normal  8.380058e-017  1.000000e+000 -4.282264e-017
    outer loop
      vertex  4.479427e-002 -2.327358e-017 -7.191926e-001
      vertex -2.713816e-003  6.071532e-018 -1.268914e-001
      vertex  4.605263e-002 -2.300791e-017 -7.105263e-001
    endloop
  endfacet
  facet normal -6.607969e-017  1.000000e+000 -5.534610e-017
    outer loop
      vertex -2.713816e-003  6.071532e-018 -1.268914e-001
      vertex  7.236842e-002  7.496436e-018 -1.907895e-001
      vertex  4.605263e-002 -2.300791e-017 -7.105263e-001
    endloop
  endfacet
  facet normal -6.209413e-017  1.000000e+000 -3.978683e-017
    outer loop
      vertex  1.101318e-001  1.292374e-017 -1.307832e-001
      vertex -2.713816e-003  6.071532e-018 -1.268914e-001
      vertex  1.215347e-001  1.382173e-017 -1.260094e-001
    endloop
  endfacet
  facet normal -6.431479e-017  1.000000e+000  2.730135e-016
    outer loop
      vertex -2.713816e-003  6.071532e-018 -1.268914e-001
      vertex  1.231804e-001  1.375570e-017 -1.253798e-001
      vertex  1.215347e-001  1.382173e-017 -1.260094e-001
    endloop
  endfacet
  facet normal -4.568873e-017  9.999999e-001 -5.631476e-017
    outer loop
      vertex -1.467956e-001  4.424717e-020 -9.930106e-002
      vertex -1.171875e-001  3.469447e-018 -6.250000e-002
      vertex -1.250000e-001 -4.071687e-019 -1.250000e-001
    endloop
  endfacet
  facet normal -5.536346e-017  1.000000e+000 -5.510542e-017
    outer loop
      vertex -1.171875e-001  3.469447e-018 -6.250000e-002
      vertex -1.129010e-001  1.999415e-020 -1.294039e-001
      vertex -1.250000e-001 -4.071687e-019 -1.250000e-001
    endloop
  endfacet
  facet normal -5.849975e-017  1.000000e+000 -5.695923e-017
    outer loop
      vertex  1.530133e-001  2.752655e-017  9.596714e-002
      vertex  1.677064e-001  2.665881e-017  6.564231e-002
      vertex  1.093750e-001  2.341877e-017  6.866776e-002
    endloop
  endfacet
  facet normal -5.551100e-017  1.000000e+000 -5.551182e-017
    outer loop
      vertex  8.717611e-003 -2.718292e-017 -7.535405e-001
      vertex -4.700758e-017 -2.771301e-017 -7.543721e-001
      vertex  1.712076e-002 -2.657963e-017 -7.510756e-001
    endloop
  endfacet
  facet normal -6.005368e-017  1.000000e+000 -5.951352e-017
    outer loop
      vertex -1.171875e-001  1.127570e-017  6.866776e-002
      vertex -1.171875e-001  3.469447e-018 -6.250000e-002
      vertex -1.691192e-001  7.743177e-018  6.171417e-002
    endloop
  endfacet
  facet normal -6.091987e-017  1.000000e+000 -5.304455e-017
    outer loop
      vertex -1.171875e-001  1.127570e-017  6.866776e-002
      vertex -1.691192e-001  7.743177e-018  6.171417e-002
      vertex -1.551373e-001  1.022126e-017  9.237342e-002
    endloop
  endfacet
  facet normal -6.032858e-017  1.000000e+000 -5.209798e-017
    outer loop
      vertex -1.171875e-001  1.127570e-017  6.866776e-002
      vertex -1.551373e-001  1.022126e-017  9.237342e-002
      vertex -1.356567e-001  1.282895e-017  1.198687e-001
    endloop
  endfacet
  facet normal -5.918875e-017  1.000000e+000 -5.168682e-017
    outer loop
      vertex -1.171875e-001  1.127570e-017  6.866776e-002
      vertex -1.356567e-001  1.282895e-017  1.198687e-001
      vertex -1.113679e-001  1.547381e-017  1.432255e-001
    endloop
  endfacet
  facet normal -5.793838e-017  1.000000e+000 -5.178442e-017
    outer loop
      vertex -1.171875e-001  1.127570e-017  6.866776e-002
      vertex -1.113679e-001  1.547381e-017  1.432255e-001
      vertex -8.313179e-002  1.806210e-017  1.616159e-001
    endloop
  endfacet
  facet normal -5.687857e-017  1.000000e+000 -5.217272e-017
    outer loop
      vertex -1.171875e-001  1.127570e-017  6.866776e-002
      vertex -8.313179e-002  1.806210e-017  1.616159e-001
      vertex -5.194918e-002  2.050209e-017  1.743881e-001
    endloop
  endfacet
  facet normal -5.608981e-017  1.000000e+000 -5.265947e-017
    outer loop
      vertex -1.171875e-001  1.127570e-017  6.866776e-002
      vertex -5.194918e-002  2.050209e-017  1.743881e-001
      vertex -1.892531e-002  2.270728e-017  1.810895e-001
    endloop
  endfacet
  facet normal -5.553880e-017  9.999999e-001 -5.314106e-017
    outer loop
      vertex -1.171875e-001  1.127570e-017  6.866776e-002
      vertex -1.892531e-002  2.270728e-017  1.810895e-001
      vertex  1.476936e-002  2.459952e-017  1.814824e-001
    endloop
  endfacet
  facet normal -9.374814e-017  1.000000e+000 -8.448443e-018
    outer loop
      vertex -1.171875e-001  1.127570e-017  6.866776e-002
      vertex  1.476936e-002  2.459952e-017  1.814824e-001
      vertex -2.713816e-003  2.255141e-017  1.330592e-001
    endloop
  endfacet
  facet normal -5.033051e-017  1.000000e+000 -5.258024e-017
    outer loop
      vertex -1.171875e-001  3.469447e-018 -6.250000e-002
      vertex -1.467956e-001  4.424717e-020 -9.930106e-002
      vertex -1.633883e-001  7.512382e-019 -6.997241e-002
    endloop
  endfacet
  facet normal -5.014991e-017  1.000000e+000 -5.369687e-017
    outer loop
      vertex -1.171875e-001  3.469447e-018 -6.250000e-002
      vertex -1.633883e-001  7.512382e-019 -6.997241e-002
      vertex -1.741898e-001  1.923484e-018 -3.805358e-002
    endloop
  endfacet
  facet normal -5.063827e-017  1.000000e+000 -5.483558e-017
    outer loop
      vertex -1.171875e-001  3.469447e-018 -6.250000e-002
      vertex -1.741898e-001  1.923484e-018 -3.805358e-002
      vertex -1.788174e-001  3.519436e-018 -4.675890e-003
    endloop
  endfacet
  facet normal -5.146505e-017  1.000000e+000 -5.571678e-017
    outer loop
      vertex -1.171875e-001  3.469447e-018 -6.250000e-002
      vertex -1.788174e-001  3.519436e-018 -4.675890e-003
      vertex -1.771070e-001  5.482527e-018  2.897763e-002
    endloop
  endfacet
  facet normal -5.233445e-017  1.000000e+000 -5.628625e-017
    outer loop
      vertex -1.171875e-001  3.469447e-018 -6.250000e-002
      vertex -1.771070e-001  5.482527e-018  2.897763e-002
      vertex -1.691192e-001  7.743177e-018  6.171417e-002
    endloop
  endfacet
  facet normal -6.227378e-017  1.000000e+000 -4.499556e-017
    outer loop
      vertex -2.713816e-003  6.071532e-018 -1.268914e-001
      vertex  1.101318e-001  1.292374e-017 -1.307832e-001
      vertex  9.973440e-002  1.197539e-017 -1.374698e-001
    endloop
  endfacet
  facet normal -6.257156e-017  1.000000e+000 -4.787962e-017
    outer loop
      vertex -2.713816e-003  6.071532e-018 -1.268914e-001
      vertex  9.973440e-002  1.197539e-017 -1.374698e-001
      vertex  9.066026e-002  1.100565e-017 -1.458649e-001
    endloop
  endfacet
  facet normal -6.297170e-017  1.000000e+000 -4.984884e-017
    outer loop
      vertex -2.713816e-003  6.071532e-018 -1.268914e-001
      vertex  9.066026e-002  1.100565e-017 -1.458649e-001
      vertex  8.318669e-002  1.004417e-017 -1.557118e-001
    endloop
  endfacet
  facet normal -6.349642e-017  1.000000e+000 -5.141276e-017
    outer loop
      vertex -2.713816e-003  6.071532e-018 -1.268914e-001
      vertex  8.318669e-002  1.004417e-017 -1.557118e-001
      vertex  7.754206e-002  9.120321e-018 -1.667098e-001
    endloop
  endfacet
  facet normal -6.420023e-017  1.000000e+000 -5.283135e-017
    outer loop
      vertex -2.713816e-003  6.071532e-018 -1.268914e-001
      vertex  7.754206e-002  9.120321e-018 -1.667098e-001
      vertex  7.389886e-002  8.262337e-018 -1.785227e-001
    endloop
  endfacet
  facet normal -6.519223e-017  1.000000e+000 -5.430332e-017
    outer loop
      vertex -2.713816e-003  6.071532e-018 -1.268914e-001
      vertex  7.389886e-002  8.262337e-018 -1.785227e-001
      vertex  7.236842e-002  7.496436e-018 -1.907895e-001
    endloop
  endfacet
  facet normal -5.905271e-017  1.000000e+000 -5.428081e-017
    outer loop
      vertex -2.713816e-003  6.071532e-018 -1.268914e-001
      vertex  4.479427e-002 -2.327358e-017 -7.191926e-001
      vertex  4.192007e-002 -2.389232e-017 -7.274647e-001
    endloop
  endfacet
  facet normal -5.779780e-017  1.000000e+000 -5.418755e-017
    outer loop
      vertex -2.713816e-003  6.071532e-018 -1.268914e-001
      vertex  4.192007e-002 -2.389232e-017 -7.274647e-001
      vertex  3.753373e-002 -2.455655e-017 -7.350442e-001
    endloop
  endfacet
  facet normal -5.709015e-017  1.000000e+000 -5.414071e-017
    outer loop
      vertex -2.713816e-003  6.071532e-018 -1.268914e-001
      vertex  3.753373e-002 -2.455655e-017 -7.350442e-001
      vertex  3.179345e-002 -2.524232e-017 -7.416576e-001
    endloop
  endfacet
  facet normal -5.660891e-017  1.000000e+000 -5.411370e-017
    outer loop
      vertex -2.713816e-003  6.071532e-018 -1.268914e-001
      vertex  3.179345e-002 -2.524232e-017 -7.416576e-001
      vertex  2.490632e-002 -2.592489e-017 -7.470664e-001
    endloop
  endfacet
  facet normal -5.623902e-017  1.000000e+000 -5.409723e-017
    outer loop
      vertex -2.713816e-003  6.071532e-018 -1.268914e-001
      vertex  2.490632e-002 -2.592489e-017 -7.470664e-001
      vertex  1.712076e-002 -2.657963e-017 -7.510756e-001
    endloop
  endfacet
  facet normal -5.578613e-017  1.000000e+000 -5.408284e-017
    outer loop
      vertex -2.713816e-003  6.071532e-018 -1.268914e-001
      vertex  1.712076e-002 -2.657963e-017 -7.510756e-001
      vertex -4.700758e-017 -2.771301e-017 -7.543721e-001
    endloop
  endfacet
  facet normal -5.537483e-017  1.000000e+000 -5.408106e-017
    outer loop
      vertex -2.713816e-003  6.071532e-018 -1.268914e-001
      vertex -4.700758e-017 -2.771301e-017 -7.543721e-001
      vertex -8.717611e-003 -2.815077e-017 -7.535405e-001
    endloop
  endfacet
  facet normal -5.509231e-017  1.000000e+000 -5.408377e-017
    outer loop
      vertex -2.713816e-003  6.071532e-018 -1.268914e-001
      vertex -8.717611e-003 -2.815077e-017 -7.535405e-001
      vertex -1.712076e-002 -2.848041e-017 -7.510756e-001
    endloop
  endfacet
  facet normal -5.478022e-017  1.000000e+000 -5.409097e-017
    outer loop
      vertex -2.713816e-003  6.071532e-018 -1.268914e-001
      vertex -1.712076e-002 -2.848041e-017 -7.510756e-001
      vertex -2.490632e-002 -2.869004e-017 -7.470664e-001
    endloop
  endfacet
  facet normal -5.440588e-017  1.000000e+000 -5.410437e-017
    outer loop
      vertex -2.713816e-003  6.071532e-018 -1.268914e-001
      vertex -2.490632e-002 -2.869004e-017 -7.470664e-001
      vertex -3.179345e-002 -2.877210e-017 -7.416576e-001
    endloop
  endfacet
  facet normal -5.391712e-017  9.999999e-001 -5.412748e-017
    outer loop
      vertex -2.713816e-003  6.071532e-018 -1.268914e-001
      vertex -3.179345e-002 -2.877210e-017 -7.416576e-001
      vertex -3.753373e-002 -2.872364e-017 -7.350442e-001
    endloop
  endfacet
  facet normal -5.319216e-017  9.999999e-001 -5.416899e-017
    outer loop
      vertex -2.713816e-003  6.071532e-018 -1.268914e-001
      vertex -3.753373e-002 -2.872364e-017 -7.350442e-001
      vertex -4.192007e-002 -2.854638e-017 -7.274647e-001
    endloop
  endfacet
  facet normal -5.189253e-017  1.000000e+000 -5.425383e-017
    outer loop
      vertex -2.713816e-003  6.071532e-018 -1.268914e-001
      vertex -4.192007e-002 -2.854638e-017 -7.274647e-001
      vertex -4.479427e-002 -2.824674e-017 -7.191926e-001
    endloop
  endfacet
  facet normal -4.850835e-017  1.000000e+000 -5.449427e-017
    outer loop
      vertex -2.713816e-003  6.071532e-018 -1.268914e-001
      vertex -4.479427e-002 -2.824674e-017 -7.191926e-001
      vertex -4.605263e-002 -2.783551e-017 -7.105263e-001
    endloop
  endfacet
  facet normal -5.387279e-017  1.000000e+000 -5.409592e-017
    outer loop
      vertex -2.713816e-003  6.071532e-018 -1.268914e-001
      vertex -4.605263e-002 -2.783551e-017 -7.105263e-001
      vertex -7.236842e-002 -1.137579e-018 -1.907895e-001
    endloop
  endfacet
  facet normal -5.288416e-017  1.000000e+000 -5.517362e-017
    outer loop
      vertex -2.713816e-003  6.071532e-018 -1.268914e-001
      vertex -7.236842e-002 -1.137579e-018 -1.907895e-001
      vertex -7.400902e-002 -5.197411e-019 -1.780189e-001
    endloop
  endfacet
  facet normal -5.317817e-017  1.000000e+000 -5.476364e-017
    outer loop
      vertex -2.713816e-003  6.071532e-018 -1.268914e-001
      vertex -7.400902e-002 -5.197411e-019 -1.780189e-001
      vertex -7.793793e-002 -5.719359e-020 -1.657575e-001
    endloop
  endfacet
  facet normal -5.338210e-017  1.000000e+000 -5.436895e-017
    outer loop
      vertex -2.713816e-003  6.071532e-018 -1.268914e-001
      vertex -7.793793e-002 -5.719359e-020 -1.657575e-001
      vertex -8.402492e-002  2.347303e-019 -1.544117e-001
    endloop
  endfacet
  facet normal -5.353154e-017  1.000000e+000 -5.392740e-017
    outer loop
      vertex -2.713816e-003  6.071532e-018 -1.268914e-001
      vertex -8.402492e-002  2.347303e-019 -1.544117e-001
      vertex -9.206819e-002  3.463531e-019 -1.443576e-001
    endloop
  endfacet
  facet normal -5.364350e-017  1.000000e+000 -5.335463e-017
    outer loop
      vertex -2.713816e-003  6.071532e-018 -1.268914e-001
      vertex -9.206819e-002  3.463531e-019 -1.443576e-001
      vertex -1.018011e-001  2.739746e-019 -1.359285e-001
    endloop
  endfacet
  facet normal -5.372409e-017  9.999999e-001 -5.247093e-017
    outer loop
      vertex -2.713816e-003  6.071532e-018 -1.268914e-001
      vertex -1.018011e-001  2.739746e-019 -1.359285e-001
      vertex -1.129010e-001  1.999415e-020 -1.294039e-001
    endloop
  endfacet
  facet normal -5.366650e-017  1.000000e+000 -5.499669e-017
    outer loop
      vertex -2.713816e-003  6.071532e-018 -1.268914e-001
      vertex -1.129010e-001  1.999415e-020 -1.294039e-001
      vertex -1.171875e-001  3.469447e-018 -6.250000e-002
    endloop
  endfacet
  facet normal -4.992677e-017  1.000000e+000 -2.427011e-017
    outer loop
      vertex -2.713816e-003  2.255141e-017  1.330592e-001
      vertex  1.476936e-002  2.459952e-017  1.814824e-001
      vertex  4.794054e-002  2.611174e-017  1.755531e-001
    endloop
  endfacet
  facet normal -4.555288e-017  1.000000e+000 -2.948394e-017
    outer loop
      vertex -2.713816e-003  2.255141e-017  1.330592e-001
      vertex  4.794054e-002  2.611174e-017  1.755531e-001
      vertex  7.941252e-002  2.719035e-017  1.635115e-001
    endloop
  endfacet
  facet normal -4.325110e-017  1.000000e+000 -3.569159e-017
    outer loop
      vertex -2.713816e-003  2.255141e-017  1.330592e-001
      vertex  7.941252e-002  2.719035e-017  1.635115e-001
      vertex  1.080698e-001  2.779711e-017  1.457846e-001
    endloop
  endfacet
  facet normal -4.259157e-017  1.000000e+000 -4.143323e-017
    outer loop
      vertex -2.713816e-003  2.255141e-017  1.330592e-001
      vertex  1.080698e-001  2.779711e-017  1.457846e-001
      vertex  1.328967e-001  2.791051e-017  1.230006e-001
    endloop
  endfacet
  facet normal -4.294202e-017  1.000000e+000 -4.615799e-017
    outer loop
      vertex -2.713816e-003  2.255141e-017  1.330592e-001
      vertex  1.328967e-001  2.791051e-017  1.230006e-001
      vertex  1.530133e-001  2.752655e-017  9.596714e-002
    endloop
  endfacet
  facet normal -4.909538e-017  1.000000e+000 -7.199219e-017
    outer loop
      vertex -2.713816e-003  2.255141e-017  1.330592e-001
      vertex  1.530133e-001  2.752655e-017  9.596714e-002
      vertex  1.093750e-001  2.341877e-017  6.866776e-002
    endloop
  endfacet
  facet normal -5.794628e-017  1.000000e+000 -4.628830e-017
    outer loop
      vertex  1.093750e-001  1.734723e-017 -6.250000e-002
      vertex  1.093750e-001  2.341877e-017  6.866776e-002
      vertex  1.677064e-001  2.665881e-017  6.564231e-002
    endloop
  endfacet
  facet normal -4.430451e-017  1.000000e+000 -5.249814e-017
    outer loop
      vertex  1.093750e-001  1.734723e-017 -6.250000e-002
      vertex  1.677064e-001  2.665881e-017  6.564231e-002
      vertex  1.764555e-001  2.533807e-017  3.310096e-002
    endloop
  endfacet
  facet normal -4.149357e-017  1.000000e+000 -5.447050e-017
    outer loop
      vertex  1.093750e-001  1.734723e-017 -6.250000e-002
      vertex  1.764555e-001  2.533807e-017  3.310096e-002
      vertex  1.789502e-001  2.361114e-017 -5.035175e-004
    endloop
  endfacet
  facet normal -3.886094e-017  1.000000e+000 -5.742495e-017
    outer loop
      vertex  1.093750e-001  1.734723e-017 -6.250000e-002
      vertex  1.789502e-001  2.361114e-017 -5.035175e-004
      vertex  1.751023e-001  2.153922e-017 -3.398005e-002
    endloop
  endfacet
  facet normal -3.720869e-017  9.999999e-001 -6.123272e-017
    outer loop
      vertex  1.093750e-001  1.734723e-017 -6.250000e-002
      vertex  1.751023e-001  2.153922e-017 -3.398005e-002
      vertex  1.650481e-001  1.919574e-017 -6.614210e-002
    endloop
  endfacet
  facet normal -3.746636e-017  9.999999e-001 -6.517147e-017
    outer loop
      vertex  1.093750e-001  1.734723e-017 -6.250000e-002
      vertex  1.650481e-001  1.919574e-017 -6.614210e-002
      vertex  1.491440e-001  1.666378e-017 -9.584974e-002
    endloop
  endfacet
  facet normal -3.993184e-017  1.000000e+000 -6.811151e-017
    outer loop
      vertex  1.093750e-001  1.734723e-017 -6.250000e-002
      vertex  1.491440e-001  1.666378e-017 -9.584974e-002
      vertex  1.279536e-001  1.403307e-017 -1.220500e-001
    endloop
  endfacet
  facet normal  4.525834e-017  1.000000e+000 -4.153360e-017
    outer loop
      vertex  1.093750e-001  1.734723e-017 -6.250000e-002
      vertex  1.279536e-001  1.403307e-017 -1.220500e-001
      vertex  1.264317e-001  1.404527e-017 -1.234147e-001
    endloop
  endfacet
  facet normal -1.354066e-016  1.000000e+000 -9.212170e-017
    outer loop
      vertex  1.093750e-001  1.734723e-017 -6.250000e-002
      vertex  1.264317e-001  1.404527e-017 -1.234147e-001
      vertex  1.250000e-001  1.370536e-017 -1.250000e-001
    endloop
  endfacet
  facet normal  3.785410e-017  9.999999e-001 -4.880651e-017
    outer loop
      vertex  1.093750e-001  1.734723e-017 -6.250000e-002
      vertex  1.250000e-001  1.370536e-017 -1.250000e-001
      vertex  1.231804e-001  1.375570e-017 -1.253798e-001
    endloop
  endfacet
  facet normal -6.019217e-017  1.000000e+000 -7.033284e-017
    outer loop
      vertex  1.093750e-001  1.734723e-017 -6.250000e-002
      vertex  1.231804e-001  1.375570e-017 -1.253798e-001
      vertex -2.713816e-003  6.071532e-018 -1.268914e-001
    endloop
  endfacet
  facet normal  0.000000e+000 -1.000000e+000  0.000000e+000
    outer loop
      vertex  4.605263e-002 -7.812500e-003 -7.105263e-001
      vertex -2.713816e-003 -7.812500e-003 -1.268914e-001
      vertex  4.479427e-002 -7.812500e-003 -7.191926e-001
    endloop
  endfacet
  facet normal  -0.000000e+000 -1.000000e+000  0.000000e+000
    outer loop
      vertex  4.605263e-002 -7.812500e-003 -7.105263e-001
      vertex  7.236842e-002 -7.812500e-003 -1.907895e-001
      vertex -2.713816e-003 -7.812500e-003 -1.268914e-001
    endloop
  endfacet
  facet normal  0.000000e+000 -1.000000e+000  0.000000e+000
    outer loop
      vertex  1.215347e-001 -7.812500e-003 -1.260094e-001
      vertex -2.713816e-003 -7.812500e-003 -1.268914e-001
      vertex  1.101318e-001 -7.812500e-003 -1.307832e-001
    endloop
  endfacet
  facet normal  0.000000e+000 -1.000000e+000  0.000000e+000
    outer loop
      vertex  1.215347e-001 -7.812500e-003 -1.260094e-001
      vertex  1.231804e-001 -7.812500e-003 -1.253798e-001
      vertex -2.713816e-003 -7.812500e-003 -1.268914e-001
    endloop
  endfacet
  facet normal  0.000000e+000 -9.999999e-001  0.000000e+000
    outer loop
      vertex -1.250000e-001 -7.812500e-003 -1.250000e-001
      vertex -1.171875e-001 -7.812500e-003 -6.250000e-002
      vertex -1.467956e-001 -7.812500e-003 -9.930106e-002
    endloop
  endfacet
  facet normal  0.000000e+000 -1.000000e+000  0.000000e+000
    outer loop
      vertex -1.250000e-001 -7.812500e-003 -1.250000e-001
      vertex -1.129010e-001 -7.812500e-003 -1.294039e-001
      vertex -1.171875e-001 -7.812500e-003 -6.250000e-002
    endloop
  endfacet
  facet normal  0.000000e+000 -1.000000e+000  0.000000e+000
    outer loop
      vertex  1.093750e-001 -7.812500e-003  6.866776e-002
      vertex  1.677064e-001 -7.812500e-003  6.564231e-002
      vertex  1.530133e-001 -7.812500e-003  9.596714e-002
    endloop
  endfacet
  facet normal  0.000000e+000 -1.000000e+000  0.000000e+000
    outer loop
      vertex  1.712076e-002 -7.812500e-003 -7.510756e-001
      vertex -4.657390e-017 -7.812500e-003 -7.543721e-001
      vertex  8.717611e-003 -7.812500e-003 -7.535405e-001
    endloop
  endfacet
  facet normal  -0.000000e+000 -1.000000e+000  0.000000e+000
    outer loop
      vertex -1.171875e-001 -7.812500e-003  6.866776e-002
      vertex -2.713816e-003 -7.812500e-003  1.330592e-001
      vertex  1.476936e-002 -7.812500e-003  1.814824e-001
    endloop
  endfacet
  facet normal  0.000000e+000 -9.999999e-001  0.000000e+000
    outer loop
      vertex -1.171875e-001 -7.812500e-003  6.866776e-002
      vertex  1.476936e-002 -7.812500e-003  1.814824e-001
      vertex -1.892531e-002 -7.812500e-003  1.810895e-001
    endloop
  endfacet
  facet normal  0.000000e+000 -1.000000e+000  0.000000e+000
    outer loop
      vertex -1.171875e-001 -7.812500e-003  6.866776e-002
      vertex -1.892531e-002 -7.812500e-003  1.810895e-001
      vertex -5.194918e-002 -7.812500e-003  1.743881e-001
    endloop
  endfacet
  facet normal  0.000000e+000 -1.000000e+000  0.000000e+000
    outer loop
      vertex -1.171875e-001 -7.812500e-003  6.866776e-002
      vertex -5.194918e-002 -7.812500e-003  1.743881e-001
      vertex -8.313179e-002 -7.812500e-003  1.616159e-001
    endloop
  endfacet
  facet normal  0.000000e+000 -1.000000e+000  0.000000e+000
    outer loop
      vertex -1.171875e-001 -7.812500e-003  6.866776e-002
      vertex -8.313179e-002 -7.812500e-003  1.616159e-001
      vertex -1.113679e-001 -7.812500e-003  1.432255e-001
    endloop
  endfacet
  facet normal  0.000000e+000 -1.000000e+000  0.000000e+000
    outer loop
      vertex -1.171875e-001 -7.812500e-003  6.866776e-002
      vertex -1.113679e-001 -7.812500e-003  1.432255e-001
      vertex -1.356567e-001 -7.812500e-003  1.198687e-001
    endloop
  endfacet
  facet normal  0.000000e+000 -1.000000e+000  -0.000000e+000
    outer loop
      vertex -1.171875e-001 -7.812500e-003  6.866776e-002
      vertex -1.356567e-001 -7.812500e-003  1.198687e-001
      vertex -1.551373e-001 -7.812500e-003  9.237342e-002
    endloop
  endfacet
  facet normal  0.000000e+000 -1.000000e+000  -0.000000e+000
    outer loop
      vertex -1.171875e-001 -7.812500e-003  6.866776e-002
      vertex -1.551373e-001 -7.812500e-003  9.237342e-002
      vertex -1.691192e-001 -7.812500e-003  6.171417e-002
    endloop
  endfacet
  facet normal  0.000000e+000 -1.000000e+000  0.000000e+000
    outer loop
      vertex -1.171875e-001 -7.812500e-003  6.866776e-002
      vertex -1.691192e-001 -7.812500e-003  6.171417e-002
      vertex -1.171875e-001 -7.812500e-003 -6.250000e-002
    endloop
  endfacet
  facet normal  0.000000e+000 -1.000000e+000  -0.000000e+000
    outer loop
      vertex -1.171875e-001 -7.812500e-003 -6.250000e-002
      vertex -1.691192e-001 -7.812500e-003  6.171417e-002
      vertex -1.771070e-001 -7.812500e-003  2.897763e-002
    endloop
  endfacet
  facet normal  0.000000e+000 -1.000000e+000  -0.000000e+000
    outer loop
      vertex -1.171875e-001 -7.812500e-003 -6.250000e-002
      vertex -1.771070e-001 -7.812500e-003  2.897763e-002
      vertex -1.788174e-001 -7.812500e-003 -4.675890e-003
    endloop
  endfacet
  facet normal  0.000000e+000 -1.000000e+000  0.000000e+000
    outer loop
      vertex -1.171875e-001 -7.812500e-003 -6.250000e-002
      vertex -1.788174e-001 -7.812500e-003 -4.675890e-003
      vertex -1.741898e-001 -7.812500e-003 -3.805358e-002
    endloop
  endfacet
  facet normal  0.000000e+000 -1.000000e+000  0.000000e+000
    outer loop
      vertex -1.171875e-001 -7.812500e-003 -6.250000e-002
      vertex -1.741898e-001 -7.812500e-003 -3.805358e-002
      vertex -1.633883e-001 -7.812500e-003 -6.997241e-002
    endloop
  endfacet
  facet normal  0.000000e+000 -1.000000e+000  0.000000e+000
    outer loop
      vertex -1.171875e-001 -7.812500e-003 -6.250000e-002
      vertex -1.633883e-001 -7.812500e-003 -6.997241e-002
      vertex -1.467956e-001 -7.812500e-003 -9.930106e-002
    endloop
  endfacet
  facet normal  0.000000e+000 -1.000000e+000  0.000000e+000
    outer loop
      vertex -2.713816e-003 -7.812500e-003 -1.268914e-001
      vertex  7.236842e-002 -7.812500e-003 -1.907895e-001
      vertex  7.389886e-002 -7.812500e-003 -1.785227e-001
    endloop
  endfacet
  facet normal  0.000000e+000 -1.000000e+000  0.000000e+000
    outer loop
      vertex -2.713816e-003 -7.812500e-003 -1.268914e-001
      vertex  7.389886e-002 -7.812500e-003 -1.785227e-001
      vertex  7.754206e-002 -7.812500e-003 -1.667098e-001
    endloop
  endfacet
  facet normal  0.000000e+000 -1.000000e+000  0.000000e+000
    outer loop
      vertex -2.713816e-003 -7.812500e-003 -1.268914e-001
      vertex  7.754206e-002 -7.812500e-003 -1.667098e-001
      vertex  8.318669e-002 -7.812500e-003 -1.557118e-001
    endloop
  endfacet
  facet normal  0.000000e+000 -1.000000e+000  0.000000e+000
    outer loop
      vertex -2.713816e-003 -7.812500e-003 -1.268914e-001
      vertex  8.318669e-002 -7.812500e-003 -1.557118e-001
      vertex  9.066026e-002 -7.812500e-003 -1.458649e-001
    endloop
  endfacet
  facet normal  0.000000e+000 -1.000000e+000  0.000000e+000
    outer loop
      vertex -2.713816e-003 -7.812500e-003 -1.268914e-001
      vertex  9.066026e-002 -7.812500e-003 -1.458649e-001
      vertex  9.973440e-002 -7.812500e-003 -1.374698e-001
    endloop
  endfacet
  facet normal  0.000000e+000 -1.000000e+000  0.000000e+000
    outer loop
      vertex -2.713816e-003 -7.812500e-003 -1.268914e-001
      vertex  9.973440e-002 -7.812500e-003 -1.374698e-001
      vertex  1.101318e-001 -7.812500e-003 -1.307832e-001
    endloop
  endfacet
  facet normal  0.000000e+000 -1.000000e+000  0.000000e+000
    outer loop
      vertex -2.713816e-003 -7.812500e-003 -1.268914e-001
      vertex -1.171875e-001 -7.812500e-003 -6.250000e-002
      vertex -1.129010e-001 -7.812500e-003 -1.294039e-001
    endloop
  endfacet
  facet normal  0.000000e+000 -9.999999e-001  0.000000e+000
    outer loop
      vertex -2.713816e-003 -7.812500e-003 -1.268914e-001
      vertex -1.129010e-001 -7.812500e-003 -1.294039e-001
      vertex -1.018011e-001 -7.812500e-003 -1.359285e-001
    endloop
  endfacet
  facet normal  0.000000e+000 -1.000000e+000  0.000000e+000
    outer loop
      vertex -2.713816e-003 -7.812500e-003 -1.268914e-001
      vertex -1.018011e-001 -7.812500e-003 -1.359285e-001
      vertex -9.206819e-002 -7.812500e-003 -1.443576e-001
    endloop
  endfacet
  facet normal  0.000000e+000 -1.000000e+000  0.000000e+000
    outer loop
      vertex -2.713816e-003 -7.812500e-003 -1.268914e-001
      vertex -9.206819e-002 -7.812500e-003 -1.443576e-001
      vertex -8.402492e-002 -7.812500e-003 -1.544117e-001
    endloop
  endfacet
  facet normal  0.000000e+000 -1.000000e+000  0.000000e+000
    outer loop
      vertex -2.713816e-003 -7.812500e-003 -1.268914e-001
      vertex -8.402492e-002 -7.812500e-003 -1.544117e-001
      vertex -7.793793e-002 -7.812500e-003 -1.657575e-001
    endloop
  endfacet
  facet normal  0.000000e+000 -1.000000e+000  0.000000e+000
    outer loop
      vertex -2.713816e-003 -7.812500e-003 -1.268914e-001
      vertex -7.793793e-002 -7.812500e-003 -1.657575e-001
      vertex -7.400902e-002 -7.812500e-003 -1.780189e-001
    endloop
  endfacet
  facet normal  0.000000e+000 -1.000000e+000  0.000000e+000
    outer loop
      vertex -2.713816e-003 -7.812500e-003 -1.268914e-001
      vertex -7.400902e-002 -7.812500e-003 -1.780189e-001
      vertex -7.236842e-002 -7.812500e-003 -1.907895e-001
    endloop
  endfacet
  facet normal  0.000000e+000 -1.000000e+000  0.000000e+000
    outer loop
      vertex -2.713816e-003 -7.812500e-003 -1.268914e-001
      vertex -7.236842e-002 -7.812500e-003 -1.907895e-001
      vertex -4.605263e-002 -7.812500e-003 -7.105263e-001
    endloop
  endfacet
  facet normal  0.000000e+000 -1.000000e+000  0.000000e+000
    outer loop
      vertex -2.713816e-003 -7.812500e-003 -1.268914e-001
      vertex -4.605263e-002 -7.812500e-003 -7.105263e-001
      vertex -4.479427e-002 -7.812500e-003 -7.191926e-001
    endloop
  endfacet
  facet normal  0.000000e+000 -1.000000e+000  0.000000e+000
    outer loop
      vertex -2.713816e-003 -7.812500e-003 -1.268914e-001
      vertex -4.479427e-002 -7.812500e-003 -7.191926e-001
      vertex -4.192007e-002 -7.812500e-003 -7.274647e-001
    endloop
  endfacet
  facet normal  0.000000e+000 -9.999999e-001  0.000000e+000
    outer loop
      vertex -2.713816e-003 -7.812500e-003 -1.268914e-001
      vertex -4.192007e-002 -7.812500e-003 -7.274647e-001
      vertex -3.753373e-002 -7.812500e-003 -7.350442e-001
    endloop
  endfacet
  facet normal  0.000000e+000 -9.999999e-001  0.000000e+000
    outer loop
      vertex -2.713816e-003 -7.812500e-003 -1.268914e-001
      vertex -3.753373e-002 -7.812500e-003 -7.350442e-001
      vertex -3.179345e-002 -7.812500e-003 -7.416576e-001
    endloop
  endfacet
  facet normal  0.000000e+000 -1.000000e+000  0.000000e+000
    outer loop
      vertex -2.713816e-003 -7.812500e-003 -1.268914e-001
      vertex -3.179345e-002 -7.812500e-003 -7.416576e-001
      vertex -2.490632e-002 -7.812500e-003 -7.470664e-001
    endloop
  endfacet
  facet normal  0.000000e+000 -1.000000e+000  0.000000e+000
    outer loop
      vertex -2.713816e-003 -7.812500e-003 -1.268914e-001
      vertex -2.490632e-002 -7.812500e-003 -7.470664e-001
      vertex -1.712076e-002 -7.812500e-003 -7.510756e-001
    endloop
  endfacet
  facet normal  0.000000e+000 -1.000000e+000  0.000000e+000
    outer loop
      vertex -2.713816e-003 -7.812500e-003 -1.268914e-001
      vertex -1.712076e-002 -7.812500e-003 -7.510756e-001
      vertex -8.717611e-003 -7.812500e-003 -7.535405e-001
    endloop
  endfacet
  facet normal  0.000000e+000 -1.000000e+000  0.000000e+000
    outer loop
      vertex -2.713816e-003 -7.812500e-003 -1.268914e-001
      vertex -8.717611e-003 -7.812500e-003 -7.535405e-001
      vertex -4.657390e-017 -7.812500e-003 -7.543721e-001
    endloop
  endfacet
  facet normal  0.000000e+000 -1.000000e+000  0.000000e+000
    outer loop
      vertex -2.713816e-003 -7.812500e-003 -1.268914e-001
      vertex -4.657390e-017 -7.812500e-003 -7.543721e-001
      vertex  1.712076e-002 -7.812500e-003 -7.510756e-001
    endloop
  endfacet
  facet normal  0.000000e+000 -1.000000e+000  0.000000e+000
    outer loop
      vertex -2.713816e-003 -7.812500e-003 -1.268914e-001
      vertex  1.712076e-002 -7.812500e-003 -7.510756e-001
      vertex  2.490632e-002 -7.812500e-003 -7.470664e-001
    endloop
  endfacet
  facet normal  0.000000e+000 -1.000000e+000  0.000000e+000
    outer loop
      vertex -2.713816e-003 -7.812500e-003 -1.268914e-001
      vertex  2.490632e-002 -7.812500e-003 -7.470664e-001
      vertex  3.179345e-002 -7.812500e-003 -7.416576e-001
    endloop
  endfacet
  facet normal  0.000000e+000 -1.000000e+000  0.000000e+000
    outer loop
      vertex -2.713816e-003 -7.812500e-003 -1.268914e-001
      vertex  3.179345e-002 -7.812500e-003 -7.416576e-001
      vertex  3.753373e-002 -7.812500e-003 -7.350442e-001
    endloop
  endfacet
  facet normal  0.000000e+000 -1.000000e+000  0.000000e+000
    outer loop
      vertex -2.713816e-003 -7.812500e-003 -1.268914e-001
      vertex  3.753373e-002 -7.812500e-003 -7.350442e-001
      vertex  4.192007e-002 -7.812500e-003 -7.274647e-001
    endloop
  endfacet
  facet normal  0.000000e+000 -1.000000e+000  0.000000e+000
    outer loop
      vertex -2.713816e-003 -7.812500e-003 -1.268914e-001
      vertex  4.192007e-002 -7.812500e-003 -7.274647e-001
      vertex  4.479427e-002 -7.812500e-003 -7.191926e-001
    endloop
  endfacet
  facet normal  0.000000e+000 -1.000000e+000  0.000000e+000
    outer loop
      vertex -2.713816e-003 -7.812500e-003  1.330592e-001
      vertex  1.093750e-001 -7.812500e-003  6.866776e-002
      vertex  1.530133e-001 -7.812500e-003  9.596714e-002
    endloop
  endfacet
  facet normal  0.000000e+000 -1.000000e+000  0.000000e+000
    outer loop
      vertex -2.713816e-003 -7.812500e-003  1.330592e-001
      vertex  1.530133e-001 -7.812500e-003  9.596714e-002
      vertex  1.328967e-001 -7.812500e-003  1.230006e-001
    endloop
  endfacet
  facet normal  0.000000e+000 -1.000000e+000  0.000000e+000
    outer loop
      vertex -2.713816e-003 -7.812500e-003  1.330592e-001
      vertex  1.328967e-001 -7.812500e-003  1.230006e-001
      vertex  1.080698e-001 -7.812500e-003  1.457846e-001
    endloop
  endfacet
  facet normal  -0.000000e+000 -1.000000e+000  0.000000e+000
    outer loop
      vertex -2.713816e-003 -7.812500e-003  1.330592e-001
      vertex  1.080698e-001 -7.812500e-003  1.457846e-001
      vertex  7.941252e-002 -7.812500e-003  1.635115e-001
    endloop
  endfacet
  facet normal  -0.000000e+000 -1.000000e+000  0.000000e+000
    outer loop
      vertex -2.713816e-003 -7.812500e-003  1.330592e-001
      vertex  7.941252e-002 -7.812500e-003  1.635115e-001
      vertex  4.794054e-002 -7.812500e-003  1.755531e-001
    endloop
  endfacet
  facet normal  -0.000000e+000 -1.000000e+000  0.000000e+000
    outer loop
      vertex -2.713816e-003 -7.812500e-003  1.330592e-001
      vertex  4.794054e-002 -7.812500e-003  1.755531e-001
      vertex  1.476936e-002 -7.812500e-003  1.814824e-001
    endloop
  endfacet
  facet normal  0.000000e+000 -1.000000e+000  0.000000e+000
    outer loop
      vertex  1.093750e-001 -7.812500e-003 -6.250000e-002
      vertex -2.713816e-003 -7.812500e-003 -1.268914e-001
      vertex  1.231804e-001 -7.812500e-003 -1.253798e-001
    endloop
  endfacet
  facet normal  0.000000e+000 -9.999999e-001  0.000000e+000
    outer loop
      vertex  1.093750e-001 -7.812500e-003 -6.250000e-002
      vertex  1.231804e-001 -7.812500e-003 -1.253798e-001
      vertex  1.250000e-001 -7.812500e-003 -1.250000e-001
    endloop
  endfacet
  facet normal  0.000000e+000 -1.000000e+000  0.000000e+000
    outer loop
      vertex  1.093750e-001 -7.812500e-003 -6.250000e-002
      vertex  1.250000e-001 -7.812500e-003 -1.250000e-001
      vertex  1.264317e-001 -7.812500e-003 -1.234147e-001
    endloop
  endfacet
  facet normal  0.000000e+000 -1.000000e+000  0.000000e+000
    outer loop
      vertex  1.093750e-001 -7.812500e-003 -6.250000e-002
      vertex  1.264317e-001 -7.812500e-003 -1.234147e-001
      vertex  1.279536e-001 -7.812500e-003 -1.220500e-001
    endloop
  endfacet
  facet normal  0.000000e+000 -1.000000e+000  0.000000e+000
    outer loop
      vertex  1.093750e-001 -7.812500e-003 -6.250000e-002
      vertex  1.279536e-001 -7.812500e-003 -1.220500e-001
      vertex  1.491440e-001 -7.812500e-003 -9.584974e-002
    endloop
  endfacet
  facet normal  0.000000e+000 -9.999999e-001  0.000000e+000
    outer loop
      vertex  1.093750e-001 -7.812500e-003 -6.250000e-002
      vertex  1.491440e-001 -7.812500e-003 -9.584974e-002
      vertex  1.650481e-001 -7.812500e-003 -6.614210e-002
    endloop
  endfacet
  facet normal  0.000000e+000 -9.999999e-001  0.000000e+000
    outer loop
      vertex  1.093750e-001 -7.812500e-003 -6.250000e-002
      vertex  1.650481e-001 -7.812500e-003 -6.614210e-002
      vertex  1.751023e-001 -7.812500e-003 -3.398005e-002
    endloop
  endfacet
  facet normal  -0.000000e+000 -1.000000e+000  0.000000e+000
    outer loop
      vertex  1.093750e-001 -7.812500e-003 -6.250000e-002
      vertex  1.751023e-001 -7.812500e-003 -3.398005e-002
      vertex  1.789502e-001 -7.812500e-003 -5.035175e-004
    endloop
  endfacet
  facet normal  -0.000000e+000 -1.000000e+000  0.000000e+000
    outer loop
      vertex  1.093750e-001 -7.812500e-003 -6.250000e-002
      vertex  1.789502e-001 -7.812500e-003 -5.035175e-004
      vertex  1.764555e-001 -7.812500e-003  3.310096e-002
    endloop
  endfacet
  facet normal  -0.000000e+000 -1.000000e+000  0.000000e+000
    outer loop
      vertex  1.093750e-001 -7.812500e-003 -6.250000e-002
      vertex  1.764555e-001 -7.812500e-003  3.310096e-002
      vertex  1.677064e-001 -7.812500e-003  6.564231e-002
    endloop
  endfacet
  facet normal  -0.000000e+000 -1.000000e+000  0.000000e+000
    outer loop
      vertex  1.093750e-001 -7.812500e-003 -6.250000e-002
      vertex  1.677064e-001 -7.812500e-003  6.564231e-002
      vertex  1.093750e-001 -7.812500e-003  6.866776e-002
    endloop
  endfacet
  facet normal  8.896644e-001  0.000000e+000 -4.566151e-001
    outer loop
      vertex  8.318669e-002  1.004417e-017 -1.557118e-001
      vertex  7.754206e-002 -7.812500e-003 -1.667098e-001
      vertex  7.754206e-002  9.120321e-018 -1.667098e-001
    endloop
  endfacet
  facet normal  9.555861e-001  0.000000e+000 -2.947118e-001
    outer loop
      vertex  7.754206e-002  9.120321e-018 -1.667098e-001
      vertex  7.754206e-002 -7.812500e-003 -1.667098e-001
      vertex  7.389886e-002 -7.812500e-003 -1.785227e-001
    endloop
  endfacet
  facet normal  9.555861e-001  0.000000e+000 -2.947118e-001
    outer loop
      vertex  7.754206e-002  9.120321e-018 -1.667098e-001
      vertex  7.389886e-002 -7.812500e-003 -1.785227e-001
      vertex  7.389886e-002  8.262337e-018 -1.785227e-001
    endloop
  endfacet
  facet normal  9.923069e-001  0.000000e+000 -1.238027e-001
    outer loop
      vertex  7.389886e-002  8.262337e-018 -1.785227e-001
      vertex  7.389886e-002 -7.812500e-003 -1.785227e-001
      vertex  7.236842e-002 -7.812500e-003 -1.907895e-001
    endloop
  endfacet
  facet normal  9.923069e-001  0.000000e+000 -1.238027e-001
    outer loop
      vertex  7.389886e-002  8.262337e-018 -1.785227e-001
      vertex  7.236842e-002 -7.812500e-003 -1.907895e-001
      vertex  7.236842e-002  7.496436e-018 -1.907895e-001
    endloop
  endfacet
  facet normal  8.896644e-001  0.000000e+000 -4.566151e-001
    outer loop
      vertex  7.754206e-002 -7.812500e-003 -1.667098e-001
      vertex  8.318669e-002  1.004417e-017 -1.557118e-001
      vertex  8.318669e-002 -7.812500e-003 -1.557118e-001
    endloop
  endfacet
  facet normal  7.965564e-001  0.000000e+000 -6.045642e-001
    outer loop
      vertex  8.318669e-002 -7.812500e-003 -1.557118e-001
      vertex  8.318669e-002  1.004417e-017 -1.557118e-001
      vertex  9.066026e-002  1.100565e-017 -1.458649e-001
    endloop
  endfacet
  facet normal  7.965564e-001  0.000000e+000 -6.045642e-001
    outer loop
      vertex  8.318669e-002 -7.812500e-003 -1.557118e-001
      vertex  9.066026e-002  1.100565e-017 -1.458649e-001
      vertex  9.066026e-002 -7.812500e-003 -1.458649e-001
    endloop
  endfacet
  facet normal  6.791068e-001  0.000000e+000 -7.340397e-001
    outer loop
      vertex  9.066026e-002 -7.812500e-003 -1.458649e-001
      vertex  9.066026e-002  1.100565e-017 -1.458649e-001
      vertex  9.973440e-002  1.197539e-017 -1.374698e-001
    endloop
  endfacet
  facet normal  6.791068e-001  0.000000e+000 -7.340397e-001
    outer loop
      vertex  9.066026e-002 -7.812500e-003 -1.458649e-001
      vertex  9.973440e-002  1.197539e-017 -1.374698e-001
      vertex  9.973440e-002 -7.812500e-003 -1.374698e-001
    endloop
  endfacet
  facet normal  5.409046e-001  0.000000e+000 -8.410841e-001
    outer loop
      vertex  9.973440e-002 -7.812500e-003 -1.374698e-001
      vertex  9.973440e-002  1.197539e-017 -1.374698e-001
      vertex  1.101318e-001  1.292374e-017 -1.307832e-001
    endloop
  endfacet
  facet normal  5.409046e-001  0.000000e+000 -8.410841e-001
    outer loop
      vertex  9.973440e-002 -7.812500e-003 -1.374698e-001
      vertex  1.101318e-001  1.292374e-017 -1.307832e-001
      vertex  1.101318e-001 -7.812500e-003 -1.307832e-001
    endloop
  endfacet
  facet normal  3.861734e-001  0.000000e+000 -9.224263e-001
    outer loop
      vertex  1.101318e-001 -7.812500e-003 -1.307832e-001
      vertex  1.101318e-001  1.292374e-017 -1.307832e-001
      vertex  1.215347e-001  1.382173e-017 -1.260094e-001
    endloop
  endfacet
  facet normal  3.861734e-001  0.000000e+000 -9.224263e-001
    outer loop
      vertex  1.101318e-001 -7.812500e-003 -1.307832e-001
      vertex  1.215347e-001  1.382173e-017 -1.260094e-001
      vertex  1.215347e-001 -7.812500e-003 -1.260094e-001
    endloop
  endfacet
  facet normal -7.626489e-001  0.000000e+000 -6.468126e-001
    outer loop
      vertex -1.250000e-001 -4.071687e-019 -1.250000e-001
      vertex -1.250000e-001 -7.812500e-003 -1.250000e-001
      vertex -1.467956e-001  4.424717e-020 -9.930106e-002
    endloop
  endfacet
  facet normal -7.626489e-001  -0.000000e+000 -6.468126e-001
    outer loop
      vertex -1.467956e-001  4.424717e-020 -9.930106e-002
      vertex -1.250000e-001 -7.812500e-003 -1.250000e-001
      vertex -1.467956e-001 -7.812500e-003 -9.930106e-002
    endloop
  endfacet
  facet normal -8.703647e-001  0.000000e+000 -4.924076e-001
    outer loop
      vertex -1.467956e-001  4.424717e-020 -9.930106e-002
      vertex -1.467956e-001 -7.812500e-003 -9.930106e-002
      vertex -1.633883e-001  7.512382e-019 -6.997241e-002
    endloop
  endfacet
  facet normal -8.703647e-001  -0.000000e+000 -4.924076e-001
    outer loop
      vertex -1.633883e-001  7.512382e-019 -6.997241e-002
      vertex -1.467956e-001 -7.812500e-003 -9.930106e-002
      vertex -1.633883e-001 -7.812500e-003 -6.997241e-002
    endloop
  endfacet
  facet normal -9.472319e-001  0.000000e+000 -3.205490e-001
    outer loop
      vertex -1.633883e-001  7.512382e-019 -6.997241e-002
      vertex -1.633883e-001 -7.812500e-003 -6.997241e-002
      vertex -1.741898e-001  1.923484e-018 -3.805358e-002
    endloop
  endfacet
  facet normal -9.472319e-001  -0.000000e+000 -3.205490e-001
    outer loop
      vertex -1.741898e-001  1.923484e-018 -3.805358e-002
      vertex -1.633883e-001 -7.812500e-003 -6.997241e-002
      vertex -1.741898e-001 -7.812500e-003 -3.805358e-002
    endloop
  endfacet
  facet normal -9.905254e-001  0.000000e+000 -1.373295e-001
    outer loop
      vertex -1.741898e-001  1.923484e-018 -3.805358e-002
      vertex -1.741898e-001 -7.812500e-003 -3.805358e-002
      vertex -1.788174e-001  3.519436e-018 -4.675890e-003
    endloop
  endfacet
  facet normal -9.905254e-001  -0.000000e+000 -1.373295e-001
    outer loop
      vertex -1.788174e-001  3.519436e-018 -4.675890e-003
      vertex -1.741898e-001 -7.812500e-003 -3.805358e-002
      vertex -1.788174e-001 -7.812500e-003 -4.675890e-003
    endloop
  endfacet
  facet normal -9.987109e-001  0.000000e+000  5.075785e-002
    outer loop
      vertex -1.788174e-001  3.519436e-018 -4.675890e-003
      vertex -1.788174e-001 -7.812500e-003 -4.675890e-003
      vertex -1.771070e-001  5.482527e-018  2.897763e-002
    endloop
  endfacet
  facet normal -9.987109e-001  0.000000e+000  5.075785e-002
    outer loop
      vertex -1.771070e-001  5.482527e-018  2.897763e-002
      vertex -1.788174e-001 -7.812500e-003 -4.675890e-003
      vertex -1.771070e-001 -7.812500e-003  2.897763e-002
    endloop
  endfacet
  facet normal -9.714984e-001  0.000000e+000  2.370463e-001
    outer loop
      vertex -1.771070e-001  5.482527e-018  2.897763e-002
      vertex -1.771070e-001 -7.812500e-003  2.897763e-002
      vertex -1.691192e-001  7.743177e-018  6.171417e-002
    endloop
  endfacet
  facet normal -9.714984e-001  0.000000e+000  2.370463e-001
    outer loop
      vertex -1.691192e-001  7.743177e-018  6.171417e-002
      vertex -1.771070e-001 -7.812500e-003  2.897763e-002
      vertex -1.691192e-001 -7.812500e-003  6.171417e-002
    endloop
  endfacet
  facet normal -9.098523e-001  0.000000e+000  4.149323e-001
    outer loop
      vertex -1.691192e-001  7.743177e-018  6.171417e-002
      vertex -1.691192e-001 -7.812500e-003  6.171417e-002
      vertex -1.551373e-001  1.022126e-017  9.237342e-002
    endloop
  endfacet
  facet normal -9.098523e-001  0.000000e+000  4.149323e-001
    outer loop
      vertex -1.551373e-001  1.022126e-017  9.237342e-002
      vertex -1.691192e-001 -7.812500e-003  6.171417e-002
      vertex -1.551373e-001 -7.812500e-003  9.237342e-002
    endloop
  endfacet
  facet normal -8.159577e-001  0.000000e+000  5.781116e-001
    outer loop
      vertex -1.551373e-001  1.022126e-017  9.237342e-002
      vertex -1.551373e-001 -7.812500e-003  9.237342e-002
      vertex -1.356567e-001  1.282895e-017  1.198687e-001
    endloop
  endfacet
  facet normal -8.159577e-001  0.000000e+000  5.781116e-001
    outer loop
      vertex -1.356567e-001  1.282895e-017  1.198687e-001
      vertex -1.551373e-001 -7.812500e-003  9.237342e-002
      vertex -1.356567e-001 -7.812500e-003  1.198687e-001
    endloop
  endfacet
  facet normal -6.931419e-001  0.000000e+000  7.208011e-001
    outer loop
      vertex -1.356567e-001  1.282895e-017  1.198687e-001
      vertex -1.356567e-001 -7.812500e-003  1.198687e-001
      vertex -1.113679e-001  1.547381e-017  1.432255e-001
    endloop
  endfacet
  facet normal -6.931419e-001  0.000000e+000  7.208011e-001
    outer loop
      vertex -1.113679e-001  1.547381e-017  1.432255e-001
      vertex -1.356567e-001 -7.812500e-003  1.198687e-001
      vertex -1.113679e-001 -7.812500e-003  1.432255e-001
    endloop
  endfacet
  facet normal -5.457594e-001  0.000000e+000  8.379418e-001
    outer loop
      vertex -1.113679e-001  1.547381e-017  1.432255e-001
      vertex -1.113679e-001 -7.812500e-003  1.432255e-001
      vertex -8.313179e-002  1.806210e-017  1.616159e-001
    endloop
  endfacet
  facet normal -5.457594e-001  0.000000e+000  8.379418e-001
    outer loop
      vertex -8.313179e-002  1.806210e-017  1.616159e-001
      vertex -1.113679e-001 -7.812500e-003  1.432255e-001
      vertex -8.313179e-002 -7.812500e-003  1.616159e-001
    endloop
  endfacet
  facet normal -3.790322e-001  0.000000e+000  9.253834e-001
    outer loop
      vertex -8.313179e-002  1.806210e-017  1.616159e-001
      vertex -8.313179e-002 -7.812500e-003  1.616159e-001
      vertex -5.194918e-002  2.050209e-017  1.743881e-001
    endloop
  endfacet
  facet normal -3.790322e-001  0.000000e+000  9.253834e-001
    outer loop
      vertex -5.194918e-002  2.050209e-017  1.743881e-001
      vertex -8.313179e-002 -7.812500e-003  1.616159e-001
      vertex -5.194918e-002 -7.812500e-003  1.743881e-001
    endloop
  endfacet
  facet normal -1.988711e-001  0.000000e+000  9.800256e-001
    outer loop
      vertex -5.194918e-002  2.050209e-017  1.743881e-001
      vertex -5.194918e-002 -7.812500e-003  1.743881e-001
      vertex -1.892531e-002  2.270728e-017  1.810895e-001
    endloop
  endfacet
  facet normal -1.988711e-001  0.000000e+000  9.800256e-001
    outer loop
      vertex -1.892531e-002  2.270728e-017  1.810895e-001
      vertex -5.194918e-002 -7.812500e-003  1.743881e-001
      vertex -1.892531e-002 -7.812500e-003  1.810895e-001
    endloop
  endfacet
  facet normal -1.166154e-002  0.000000e+000  9.999320e-001
    outer loop
      vertex -1.892531e-002  2.270728e-017  1.810895e-001
      vertex -1.892531e-002 -7.812500e-003  1.810895e-001
      vertex  1.476936e-002  2.459952e-017  1.814824e-001
    endloop
  endfacet
  facet normal -1.166154e-002  0.000000e+000  9.999320e-001
    outer loop
      vertex  1.476936e-002  2.459952e-017  1.814824e-001
      vertex -1.892531e-002 -7.812500e-003  1.810895e-001
      vertex  1.476936e-002 -7.812500e-003  1.814824e-001
    endloop
  endfacet
  facet normal  1.759615e-001  -0.000000e+000  9.843970e-001
    outer loop
      vertex  1.476936e-002  2.459952e-017  1.814824e-001
      vertex  1.476936e-002 -7.812500e-003  1.814824e-001
      vertex  4.794054e-002  2.611174e-017  1.755531e-001
    endloop
  endfacet
  facet normal  1.759615e-001  0.000000e+000  9.843970e-001
    outer loop
      vertex  4.794054e-002  2.611174e-017  1.755531e-001
      vertex  1.476936e-002 -7.812500e-003  1.814824e-001
      vertex  4.794054e-002 -7.812500e-003  1.755531e-001
    endloop
  endfacet
  facet normal  3.573484e-001  -0.000000e+000  9.339712e-001
    outer loop
      vertex  4.794054e-002  2.611174e-017  1.755531e-001
      vertex  4.794054e-002 -7.812500e-003  1.755531e-001
      vertex  7.941252e-002  2.719035e-017  1.635115e-001
    endloop
  endfacet
  facet normal  3.573484e-001  0.000000e+000  9.339712e-001
    outer loop
      vertex  7.941252e-002  2.719035e-017  1.635115e-001
      vertex  4.794054e-002 -7.812500e-003  1.755531e-001
      vertex  7.941252e-002 -7.812500e-003  1.635115e-001
    endloop
  endfacet
  facet normal  5.260686e-001  -0.000000e+000  8.504421e-001
    outer loop
      vertex  7.941252e-002  2.719035e-017  1.635115e-001
      vertex  7.941252e-002 -7.812500e-003  1.635115e-001
      vertex  1.080698e-001  2.779711e-017  1.457846e-001
    endloop
  endfacet
  facet normal  5.260686e-001  0.000000e+000  8.504421e-001
    outer loop
      vertex  1.080698e-001  2.779711e-017  1.457846e-001
      vertex  7.941252e-002 -7.812500e-003  1.635115e-001
      vertex  1.080698e-001 -7.812500e-003  1.457846e-001
    endloop
  endfacet
  facet normal  6.761435e-001  -0.000000e+000  7.367700e-001
    outer loop
      vertex  1.080698e-001  2.779711e-017  1.457846e-001
      vertex  1.080698e-001 -7.812500e-003  1.457846e-001
      vertex  1.328967e-001  2.791051e-017  1.230006e-001
    endloop
  endfacet
  facet normal  6.761435e-001  0.000000e+000  7.367700e-001
    outer loop
      vertex  1.328967e-001  2.791051e-017  1.230006e-001
      vertex  1.080698e-001 -7.812500e-003  1.457846e-001
      vertex  1.328967e-001 -7.812500e-003  1.230006e-001
    endloop
  endfacet
  facet normal  8.022535e-001  -0.000000e+000  5.969836e-001
    outer loop
      vertex  1.328967e-001  2.791051e-017  1.230006e-001
      vertex  1.328967e-001 -7.812500e-003  1.230006e-001
      vertex  1.530133e-001  2.752655e-017  9.596714e-002
    endloop
  endfacet
  facet normal  8.022535e-001  0.000000e+000  5.969836e-001
    outer loop
      vertex  1.530133e-001  2.752655e-017  9.596714e-002
      vertex  1.328967e-001 -7.812500e-003  1.230006e-001
      vertex  1.530133e-001 -7.812500e-003  9.596714e-002
    endloop
  endfacet
  facet normal  8.999280e-001  -0.000000e+000  4.360386e-001
    outer loop
      vertex  1.530133e-001  2.752655e-017  9.596714e-002
      vertex  1.530133e-001 -7.812500e-003  9.596714e-002
      vertex  1.677064e-001  2.665881e-017  6.564231e-002
    endloop
  endfacet
  facet normal  8.999280e-001  0.000000e+000  4.360386e-001
    outer loop
      vertex  1.677064e-001  2.665881e-017  6.564231e-002
      vertex  1.530133e-001 -7.812500e-003  9.596714e-002
      vertex  1.677064e-001 -7.812500e-003  6.564231e-002
    endloop
  endfacet
  facet normal  9.657059e-001  -0.000000e+000  2.596383e-001
    outer loop
      vertex  1.677064e-001  2.665881e-017  6.564231e-002
      vertex  1.677064e-001 -7.812500e-003  6.564231e-002
      vertex  1.764555e-001  2.533807e-017  3.310096e-002
    endloop
  endfacet
  facet normal  9.657059e-001  0.000000e+000  2.596383e-001
    outer loop
      vertex  1.764555e-001  2.533807e-017  3.310096e-002
      vertex  1.677064e-001 -7.812500e-003  6.564231e-002
      vertex  1.764555e-001 -7.812500e-003  3.310096e-002
    endloop
  endfacet
  facet normal  9.972556e-001  -0.000000e+000  7.403495e-002
    outer loop
      vertex  1.764555e-001  2.533807e-017  3.310096e-002
      vertex  1.764555e-001 -7.812500e-003  3.310096e-002
      vertex  1.789502e-001  2.361114e-017 -5.035175e-004
    endloop
  endfacet
  facet normal  9.972556e-001  0.000000e+000  7.403495e-002
    outer loop
      vertex  1.789502e-001  2.361114e-017 -5.035175e-004
      vertex  1.764555e-001 -7.812500e-003  3.310096e-002
      vertex  1.789502e-001 -7.812500e-003 -5.035175e-004
    endloop
  endfacet
  facet normal  9.934587e-001  0.000000e+000 -1.141917e-001
    outer loop
      vertex  1.789502e-001  2.361114e-017 -5.035175e-004
      vertex  1.789502e-001 -7.812500e-003 -5.035175e-004
      vertex  1.751023e-001  2.153922e-017 -3.398005e-002
    endloop
  endfacet
  facet normal  9.934587e-001  0.000000e+000 -1.141917e-001
    outer loop
      vertex  1.751023e-001  2.153922e-017 -3.398005e-002
      vertex  1.789502e-001 -7.812500e-003 -5.035175e-004
      vertex  1.751023e-001 -7.812500e-003 -3.398005e-002
    endloop
  endfacet
  facet normal  9.544498e-001  0.000000e+000 -2.983712e-001
    outer loop
      vertex  1.751023e-001  2.153922e-017 -3.398005e-002
      vertex  1.751023e-001 -7.812500e-003 -3.398005e-002
      vertex  1.650481e-001  1.919574e-017 -6.614210e-002
    endloop
  endfacet
  facet normal  9.544498e-001  0.000000e+000 -2.983712e-001
    outer loop
      vertex  1.650481e-001  1.919574e-017 -6.614210e-002
      vertex  1.751023e-001 -7.812500e-003 -3.398005e-002
      vertex  1.650481e-001 -7.812500e-003 -6.614210e-002
    endloop
  endfacet
  facet normal  8.816117e-001  0.000000e+000 -4.719752e-001
    outer loop
      vertex  1.650481e-001  1.919574e-017 -6.614210e-002
      vertex  1.650481e-001 -7.812500e-003 -6.614210e-002
      vertex  1.491440e-001  1.666378e-017 -9.584974e-002
    endloop
  endfacet
  facet normal  8.816117e-001  0.000000e+000 -4.719752e-001
    outer loop
      vertex  1.491440e-001  1.666378e-017 -9.584974e-002
      vertex  1.650481e-001 -7.812500e-003 -6.614210e-002
      vertex  1.491440e-001 -7.812500e-003 -9.584974e-002
    endloop
  endfacet
  facet normal  7.775259e-001  0.000000e+000 -6.288508e-001
    outer loop
      vertex  1.491440e-001  1.666378e-017 -9.584974e-002
      vertex  1.491440e-001 -7.812500e-003 -9.584974e-002
      vertex  1.279536e-001  1.403307e-017 -1.220500e-001
    endloop
  endfacet
  facet normal  7.775259e-001  0.000000e+000 -6.288508e-001
    outer loop
      vertex  1.279536e-001  1.403307e-017 -1.220500e-001
      vertex  1.491440e-001 -7.812500e-003 -9.584974e-002
      vertex  1.279536e-001 -7.812500e-003 -1.220500e-001
    endloop
  endfacet
  facet normal  6.676083e-001  0.000000e+000 -7.445126e-001
    outer loop
      vertex  1.279536e-001  1.403307e-017 -1.220500e-001
      vertex  1.279536e-001 -7.812500e-003 -1.220500e-001
      vertex  1.264317e-001  1.404527e-017 -1.234147e-001
    endloop
  endfacet
  facet normal  6.676083e-001  0.000000e+000 -7.445126e-001
    outer loop
      vertex  1.264317e-001  1.404527e-017 -1.234147e-001
      vertex  1.279536e-001 -7.812500e-003 -1.220500e-001
      vertex  1.264317e-001 -7.812500e-003 -1.234147e-001
    endloop
  endfacet
  facet normal  7.421446e-001  0.000000e+000 -6.702398e-001
    outer loop
      vertex  1.264317e-001  1.404527e-017 -1.234147e-001
      vertex  1.264317e-001 -7.812500e-003 -1.234147e-001
      vertex  1.250000e-001  1.370536e-017 -1.250000e-001
    endloop
  endfacet
  facet normal  7.421446e-001  0.000000e+000 -6.702398e-001
    outer loop
      vertex  1.250000e-001  1.370536e-017 -1.250000e-001
      vertex  1.264317e-001 -7.812500e-003 -1.234147e-001
      vertex  1.250000e-001 -7.812500e-003 -1.250000e-001
    endloop
  endfacet
  facet normal  2.043355e-001  0.000000e+000 -9.789009e-001
    outer loop
      vertex  1.250000e-001  1.370536e-017 -1.250000e-001
      vertex  1.250000e-001 -7.812500e-003 -1.250000e-001
      vertex  1.231804e-001  1.375570e-017 -1.253798e-001
    endloop
  endfacet
  facet normal  2.043355e-001  0.000000e+000 -9.789009e-001
    outer loop
      vertex  1.231804e-001  1.375570e-017 -1.253798e-001
      vertex  1.250000e-001 -7.812500e-003 -1.250000e-001
      vertex  1.231804e-001 -7.812500e-003 -1.253798e-001
    endloop
  endfacet
  facet normal  3.572994e-001  0.000000e+000 -9.339900e-001
    outer loop
      vertex  1.231804e-001  1.375570e-017 -1.253798e-001
      vertex  1.231804e-001 -7.812500e-003 -1.253798e-001
      vertex  1.215347e-001  1.382173e-017 -1.260094e-001
    endloop
  endfacet
  facet normal  3.572994e-001  0.000000e+000 -9.339900e-001
    outer loop
      vertex  1.215347e-001  1.382173e-017 -1.260094e-001
      vertex  1.231804e-001 -7.812500e-003 -1.253798e-001
      vertex  1.215347e-001 -7.812500e-003 -1.260094e-001
    endloop
  endfacet
  facet normal -6.546584e-001  0.000000e+000 -7.559249e-001
    outer loop
      vertex -9.206819e-002  3.463531e-019 -1.443576e-001
      vertex -1.018011e-001 -7.812500e-003 -1.359285e-001
      vertex -1.018011e-001  2.739746e-019 -1.359285e-001
    endloop
  endfacet
  facet normal -5.067462e-001  -0.000000e+000 -8.620952e-001
    outer loop
      vertex -1.018011e-001  2.739746e-019 -1.359285e-001
      vertex -1.018011e-001 -7.812500e-003 -1.359285e-001
      vertex -1.129010e-001 -7.812500e-003 -1.294039e-001
    endloop
  endfacet
  facet normal -5.067462e-001  0.000000e+000 -8.620952e-001
    outer loop
      vertex -1.018011e-001  2.739746e-019 -1.359285e-001
      vertex -1.129010e-001 -7.812500e-003 -1.294039e-001
      vertex -1.129010e-001  1.999415e-020 -1.294039e-001
    endloop
  endfacet
  facet normal -3.420347e-001  -0.000000e+000 -9.396873e-001
    outer loop
      vertex -1.129010e-001  1.999415e-020 -1.294039e-001
      vertex -1.129010e-001 -7.812500e-003 -1.294039e-001
      vertex -1.250000e-001 -7.812500e-003 -1.250000e-001
    endloop
  endfacet
  facet normal -3.420347e-001  0.000000e+000 -9.396873e-001
    outer loop
      vertex -1.129010e-001  1.999415e-020 -1.294039e-001
      vertex -1.250000e-001 -7.812500e-003 -1.250000e-001
      vertex -1.250000e-001 -4.071687e-019 -1.250000e-001
    endloop
  endfacet
  facet normal -6.546584e-001  -0.000000e+000 -7.559249e-001
    outer loop
      vertex -1.018011e-001 -7.812500e-003 -1.359285e-001
      vertex -9.206819e-002  3.463531e-019 -1.443576e-001
      vertex -9.206819e-002 -7.812500e-003 -1.443576e-001
    endloop
  endfacet
  facet normal -7.808692e-001  0.000000e+000 -6.246946e-001
    outer loop
      vertex -9.206819e-002 -7.812500e-003 -1.443576e-001
      vertex -9.206819e-002  3.463531e-019 -1.443576e-001
      vertex -8.402492e-002  2.347303e-019 -1.544117e-001
    endloop
  endfacet
  facet normal -7.808692e-001  -0.000000e+000 -6.246946e-001
    outer loop
      vertex -9.206819e-002 -7.812500e-003 -1.443576e-001
      vertex -8.402492e-002  2.347303e-019 -1.544117e-001
      vertex -8.402492e-002 -7.812500e-003 -1.544117e-001
    endloop
  endfacet
  facet normal -8.811929e-001  0.000000e+000 -4.727568e-001
    outer loop
      vertex -8.402492e-002 -7.812500e-003 -1.544117e-001
      vertex -8.402492e-002  2.347303e-019 -1.544117e-001
      vertex -7.793793e-002 -5.719359e-020 -1.657575e-001
    endloop
  endfacet
  facet normal -8.811929e-001  -0.000000e+000 -4.727568e-001
    outer loop
      vertex -8.402492e-002 -7.812500e-003 -1.544117e-001
      vertex -7.793793e-002 -5.719359e-020 -1.657575e-001
      vertex -7.793793e-002 -7.812500e-003 -1.657575e-001
    endloop
  endfacet
  facet normal -9.523054e-001  0.000000e+000 -3.051463e-001
    outer loop
      vertex -7.793793e-002 -7.812500e-003 -1.657575e-001
      vertex -7.793793e-002 -5.719359e-020 -1.657575e-001
      vertex -7.400902e-002 -5.197411e-019 -1.780189e-001
    endloop
  endfacet
  facet normal -9.523054e-001  -0.000000e+000 -3.051463e-001
    outer loop
      vertex -7.793793e-002 -7.812500e-003 -1.657575e-001
      vertex -7.400902e-002 -5.197411e-019 -1.780189e-001
      vertex -7.400902e-002 -7.812500e-003 -1.780189e-001
    endloop
  endfacet
  facet normal -9.918489e-001  0.000000e+000 -1.274197e-001
    outer loop
      vertex -7.400902e-002 -7.812500e-003 -1.780189e-001
      vertex -7.400902e-002 -5.197411e-019 -1.780189e-001
      vertex -7.236842e-002 -1.137579e-018 -1.907895e-001
    endloop
  endfacet
  facet normal -9.918489e-001  -0.000000e+000 -1.274197e-001
    outer loop
      vertex -7.400902e-002 -7.812500e-003 -1.780189e-001
      vertex -7.236842e-002 -1.137579e-018 -1.907895e-001
      vertex -7.236842e-002 -7.812500e-003 -1.907895e-001
    endloop
  endfacet
  facet normal  9.987206e-001  0.000000e+000 -5.056814e-002
    outer loop
      vertex  4.605263e-002 -7.812500e-003 -7.105263e-001
      vertex  4.605263e-002 -2.300791e-017 -7.105263e-001
      vertex  7.236842e-002 -7.812500e-003 -1.907895e-001
    endloop
  endfacet
  facet normal  9.987206e-001  0.000000e+000 -5.056814e-002
    outer loop
      vertex  7.236842e-002 -7.812500e-003 -1.907895e-001
      vertex  4.605263e-002 -2.300791e-017 -7.105263e-001
      vertex  7.236842e-002  7.496436e-018 -1.907895e-001
    endloop
  endfacet
  facet normal  9.896222e-001  0.000000e+000 -1.436943e-001
    outer loop
      vertex  4.605263e-002 -2.300791e-017 -7.105263e-001
      vertex  4.605263e-002 -7.812500e-003 -7.105263e-001
      vertex  4.479427e-002 -2.327358e-017 -7.191926e-001
    endloop
  endfacet
  facet normal  9.896222e-001  0.000000e+000 -1.436943e-001
    outer loop
      vertex  4.479427e-002 -2.327358e-017 -7.191926e-001
      vertex  4.605263e-002 -7.812500e-003 -7.105263e-001
      vertex  4.479427e-002 -7.812500e-003 -7.191926e-001
    endloop
  endfacet
  facet normal  9.446045e-001  0.000000e+000 -3.282109e-001
    outer loop
      vertex  4.479427e-002 -2.327358e-017 -7.191926e-001
      vertex  4.479427e-002 -7.812500e-003 -7.191926e-001
      vertex  4.192007e-002 -2.389232e-017 -7.274647e-001
    endloop
  endfacet
  facet normal  9.446045e-001  0.000000e+000 -3.282109e-001
    outer loop
      vertex  4.192007e-002 -2.389232e-017 -7.274647e-001
      vertex  4.479427e-002 -7.812500e-003 -7.191926e-001
      vertex  4.192007e-002 -7.812500e-003 -7.274647e-001
    endloop
  endfacet
  facet normal  8.655148e-001  0.000000e+000 -5.008833e-001
    outer loop
      vertex  4.192007e-002 -2.389232e-017 -7.274647e-001
      vertex  4.192007e-002 -7.812500e-003 -7.274647e-001
      vertex  3.753373e-002 -2.455655e-017 -7.350442e-001
    endloop
  endfacet
  facet normal  8.655148e-001  0.000000e+000 -5.008833e-001
    outer loop
      vertex  3.753373e-002 -2.455655e-017 -7.350442e-001
      vertex  4.192007e-002 -7.812500e-003 -7.274647e-001
      vertex  3.753373e-002 -7.812500e-003 -7.350442e-001
    endloop
  endfacet
  facet normal  7.552010e-001  0.000000e+000 -6.554932e-001
    outer loop
      vertex  3.753373e-002 -2.455655e-017 -7.350442e-001
      vertex  3.753373e-002 -7.812500e-003 -7.350442e-001
      vertex  3.179345e-002 -2.524232e-017 -7.416576e-001
    endloop
  endfacet
  facet normal  7.552010e-001  0.000000e+000 -6.554932e-001
    outer loop
      vertex  3.179345e-002 -2.524232e-017 -7.416576e-001
      vertex  3.753373e-002 -7.812500e-003 -7.350442e-001
      vertex  3.179345e-002 -7.812500e-003 -7.416576e-001
    endloop
  endfacet
  facet normal  6.176453e-001  0.000000e+000 -7.864568e-001
    outer loop
      vertex  3.179345e-002 -2.524232e-017 -7.416576e-001
      vertex  3.179345e-002 -7.812500e-003 -7.416576e-001
      vertex  2.490632e-002 -2.592489e-017 -7.470664e-001
    endloop
  endfacet
  facet normal  6.176453e-001  0.000000e+000 -7.864568e-001
    outer loop
      vertex  2.490632e-002 -2.592489e-017 -7.470664e-001
      vertex  3.179345e-002 -7.812500e-003 -7.416576e-001
      vertex  2.490632e-002 -7.812500e-003 -7.470664e-001
    endloop
  endfacet
  facet normal  4.578160e-001  0.000000e+000 -8.890468e-001
    outer loop
      vertex  2.490632e-002 -2.592489e-017 -7.470664e-001
      vertex  2.490632e-002 -7.812500e-003 -7.470664e-001
      vertex  1.712076e-002 -2.657963e-017 -7.510756e-001
    endloop
  endfacet
  facet normal  4.578160e-001  0.000000e+000 -8.890468e-001
    outer loop
      vertex  1.712076e-002 -2.657963e-017 -7.510756e-001
      vertex  2.490632e-002 -7.812500e-003 -7.470664e-001
      vertex  1.712076e-002 -7.812500e-003 -7.510756e-001
    endloop
  endfacet
  facet normal  2.814639e-001  0.000000e+000 -9.595718e-001
    outer loop
      vertex  1.712076e-002 -2.657963e-017 -7.510756e-001
      vertex  1.712076e-002 -7.812500e-003 -7.510756e-001
      vertex  8.717611e-003 -2.718292e-017 -7.535405e-001
    endloop
  endfacet
  facet normal  2.814639e-001  0.000000e+000 -9.595718e-001
    outer loop
      vertex  8.717611e-003 -2.718292e-017 -7.535405e-001
      vertex  1.712076e-002 -7.812500e-003 -7.510756e-001
      vertex  8.717611e-003 -7.812500e-003 -7.535405e-001
    endloop
  endfacet
  facet normal  9.496248e-002  0.000000e+000 -9.954808e-001
    outer loop
      vertex  8.717611e-003 -2.718292e-017 -7.535405e-001
      vertex  8.717611e-003 -7.812500e-003 -7.535405e-001
      vertex -4.700758e-017 -2.771301e-017 -7.543721e-001
    endloop
  endfacet
  facet normal  9.496248e-002  5.271476e-018 -9.954808e-001
    outer loop
      vertex -4.700758e-017 -2.771301e-017 -7.543721e-001
      vertex  8.717611e-003 -7.812500e-003 -7.535405e-001
      vertex -4.657390e-017 -7.812500e-003 -7.543721e-001
    endloop
  endfacet
  facet normal -9.496248e-002 -5.271476e-018 -9.954808e-001
    outer loop
      vertex -4.700758e-017 -2.771301e-017 -7.543721e-001
      vertex -4.657390e-017 -7.812500e-003 -7.543721e-001
      vertex -8.717611e-003 -2.815077e-017 -7.535405e-001
    endloop
  endfacet
  facet normal -9.496248e-002  -0.000000e+000 -9.954808e-001
    outer loop
      vertex -8.717611e-003 -2.815077e-017 -7.535405e-001
      vertex -4.657390e-017 -7.812500e-003 -7.543721e-001
      vertex -8.717611e-003 -7.812500e-003 -7.535405e-001
    endloop
  endfacet
  facet normal -2.814639e-001  0.000000e+000 -9.595718e-001
    outer loop
      vertex -8.717611e-003 -2.815077e-017 -7.535405e-001
      vertex -8.717611e-003 -7.812500e-003 -7.535405e-001
      vertex -1.712076e-002 -2.848041e-017 -7.510756e-001
    endloop
  endfacet
  facet normal -2.814639e-001  -0.000000e+000 -9.595718e-001
    outer loop
      vertex -1.712076e-002 -2.848041e-017 -7.510756e-001
      vertex -8.717611e-003 -7.812500e-003 -7.535405e-001
      vertex -1.712076e-002 -7.812500e-003 -7.510756e-001
    endloop
  endfacet
  facet normal -4.578160e-001  0.000000e+000 -8.890468e-001
    outer loop
      vertex -1.712076e-002 -2.848041e-017 -7.510756e-001
      vertex -1.712076e-002 -7.812500e-003 -7.510756e-001
      vertex -2.490632e-002 -2.869004e-017 -7.470664e-001
    endloop
  endfacet
  facet normal -4.578160e-001  -0.000000e+000 -8.890468e-001
    outer loop
      vertex -2.490632e-002 -2.869004e-017 -7.470664e-001
      vertex -1.712076e-002 -7.812500e-003 -7.510756e-001
      vertex -2.490632e-002 -7.812500e-003 -7.470664e-001
    endloop
  endfacet
  facet normal -6.176453e-001  0.000000e+000 -7.864568e-001
    outer loop
      vertex -2.490632e-002 -2.869004e-017 -7.470664e-001
      vertex -2.490632e-002 -7.812500e-003 -7.470664e-001
      vertex -3.179345e-002 -2.877210e-017 -7.416576e-001
    endloop
  endfacet
  facet normal -6.176453e-001  -0.000000e+000 -7.864568e-001
    outer loop
      vertex -3.179345e-002 -2.877210e-017 -7.416576e-001
      vertex -2.490632e-002 -7.812500e-003 -7.470664e-001
      vertex -3.179345e-002 -7.812500e-003 -7.416576e-001
    endloop
  endfacet
  facet normal -7.552010e-001  0.000000e+000 -6.554932e-001
    outer loop
      vertex -3.179345e-002 -2.877210e-017 -7.416576e-001
      vertex -3.179345e-002 -7.812500e-003 -7.416576e-001
      vertex -3.753373e-002 -2.872364e-017 -7.350442e-001
    endloop
  endfacet
  facet normal -7.552010e-001  -0.000000e+000 -6.554932e-001
    outer loop
      vertex -3.753373e-002 -2.872364e-017 -7.350442e-001
      vertex -3.179345e-002 -7.812500e-003 -7.416576e-001
      vertex -3.753373e-002 -7.812500e-003 -7.350442e-001
    endloop
  endfacet
  facet normal -8.655148e-001  0.000000e+000 -5.008833e-001
    outer loop
      vertex -3.753373e-002 -2.872364e-017 -7.350442e-001
      vertex -3.753373e-002 -7.812500e-003 -7.350442e-001
      vertex -4.192007e-002 -2.854638e-017 -7.274647e-001
    endloop
  endfacet
  facet normal -8.655148e-001  -0.000000e+000 -5.008833e-001
    outer loop
      vertex -4.192007e-002 -2.854638e-017 -7.274647e-001
      vertex -3.753373e-002 -7.812500e-003 -7.350442e-001
      vertex -4.192007e-002 -7.812500e-003 -7.274647e-001
    endloop
  endfacet
  facet normal -9.446045e-001  0.000000e+000 -3.282109e-001
    outer loop
      vertex -4.192007e-002 -2.854638e-017 -7.274647e-001
      vertex -4.192007e-002 -7.812500e-003 -7.274647e-001
      vertex -4.479427e-002 -2.824674e-017 -7.191926e-001
    endloop
  endfacet
  facet normal -9.446045e-001  -0.000000e+000 -3.282109e-001
    outer loop
      vertex -4.479427e-002 -2.824674e-017 -7.191926e-001
      vertex -4.192007e-002 -7.812500e-003 -7.274647e-001
      vertex -4.479427e-002 -7.812500e-003 -7.191926e-001
    endloop
  endfacet
  facet normal -9.896222e-001  0.000000e+000 -1.436943e-001
    outer loop
      vertex -4.479427e-002 -2.824674e-017 -7.191926e-001
      vertex -4.479427e-002 -7.812500e-003 -7.191926e-001
      vertex -4.605263e-002 -2.783551e-017 -7.105263e-001
    endloop
  endfacet
  facet normal -9.896222e-001  -0.000000e+000 -1.436943e-001
    outer loop
      vertex -4.605263e-002 -2.783551e-017 -7.105263e-001
      vertex -4.479427e-002 -7.812500e-003 -7.191926e-001
      vertex -4.605263e-002 -7.812500e-003 -7.105263e-001
    endloop
  endfacet
  facet normal -9.987206e-001  -0.000000e+000 -5.056814e-002
    outer loop
      vertex -7.236842e-002 -7.812500e-003 -1.907895e-001
      vertex -7.236842e-002 -1.137579e-018 -1.907895e-001
      vertex -4.605263e-002 -7.812500e-003 -7.105263e-001
    endloop
  endfacet
  facet normal -9.987206e-001  0.000000e+000 -5.056814e-002
    outer loop
      vertex -4.605263e-002 -7.812500e-003 -7.105263e-001
      vertex -7.236842e-002 -1.137579e-018 -1.907895e-001
      vertex -4.605263e-002 -2.783551e-017 -7.105263e-001
    endloop
  endfacet
endsolid CATIA STL
