solid CATIA STL
  facet normal -6.574873e-017 -2.617929e-001 -9.651241e-001
    outer loop
      vertex -7.500000e-001  1.540744e-033  2.775558e-017
      vertex  0.000000e+000  8.326673e-017 -4.592425e-017
      vertex -5.605263e-001 -2.438208e-001  6.613714e-002
    endloop
  endfacet
  facet normal  0.000000e+000 -2.617929e-001 -9.651241e-001
    outer loop
      vertex -5.605263e-001 -2.438208e-001  6.613714e-002
      vertex  0.000000e+000  8.326673e-017 -4.592425e-017
      vertex  3.111928e-017 -2.438208e-001  6.613714e-002
    endloop
  endfacet
  facet normal -1.110223e-016  1.000000e+000  0.000000e+000
    outer loop
      vertex -7.500000e-001  1.540744e-033  2.775558e-017
      vertex -5.605263e-001  2.103581e-017  2.526316e-001
      vertex  0.000000e+000  8.326673e-017 -4.592425e-017
    endloop
  endfacet
  facet normal -1.110223e-016  1.000000e+000  6.798156e-033
    outer loop
      vertex  0.000000e+000  8.326673e-017 -4.592425e-017
      vertex -5.605263e-001  2.103581e-017  2.526316e-001
      vertex  1.546922e-017  8.326673e-017  2.526316e-001
    endloop
  endfacet
  facet normal -7.987427e-001 -5.634928e-001  2.109169e-001
    outer loop
      vertex -7.500000e-001  1.540744e-033  2.775558e-017
      vertex -5.605263e-001 -2.438208e-001  6.613714e-002
      vertex -5.605263e-001 -2.273230e-001  1.102132e-001
    endloop
  endfacet
  facet normal -7.987427e-001 -5.145946e-001  3.117733e-001
    outer loop
      vertex -7.500000e-001  1.540744e-033  2.775558e-017
      vertex -5.605263e-001 -2.273230e-001  1.102132e-001
      vertex -5.605263e-001 -2.029363e-001  1.504645e-001
    endloop
  endfacet
  facet normal -7.987427e-001 -4.478379e-001  4.018101e-001
    outer loop
      vertex -7.500000e-001  1.540744e-033  2.775558e-017
      vertex -5.605263e-001 -2.029363e-001  1.504645e-001
      vertex -5.605263e-001 -1.715069e-001  1.854942e-001
    endloop
  endfacet
  facet normal -7.987428e-001 -3.655397e-001  4.779026e-001
    outer loop
      vertex -7.500000e-001  1.540744e-033  2.775558e-017
      vertex -5.605263e-001 -1.715069e-001  1.854942e-001
      vertex -5.605263e-001 -1.341256e-001  2.140865e-001
    endloop
  endfacet
  facet normal -7.987427e-001 -2.705559e-001  5.374101e-001
    outer loop
      vertex -7.500000e-001  1.540744e-033  2.775558e-017
      vertex -5.605263e-001 -1.341256e-001  2.140865e-001
      vertex -5.605263e-001 -9.208970e-002  2.352492e-001
    endloop
  endfacet
  facet normal -7.987427e-001 -1.661828e-001  5.782675e-001
    outer loop
      vertex -7.500000e-001  1.540744e-033  2.775558e-017
      vertex -5.605263e-001 -9.208970e-002  2.352492e-001
      vertex -5.605263e-001 -4.685792e-002  2.482480e-001
    endloop
  endfacet
  facet normal -7.987428e-001 -5.604243e-002  5.990571e-001
    outer loop
      vertex -7.500000e-001  1.540744e-033  2.775558e-017
      vertex -5.605263e-001 -4.685792e-002  2.482480e-001
      vertex -5.605263e-001  2.103581e-017  2.526316e-001
    endloop
  endfacet
  facet normal  0.000000e+000 -9.365438e-001  3.505508e-001
    outer loop
      vertex -5.605263e-001 -2.438208e-001  6.613714e-002
      vertex  3.111928e-017 -2.438208e-001  6.613714e-002
      vertex -5.605263e-001 -2.273230e-001  1.102132e-001
    endloop
  endfacet
  facet normal  0.000000e+000 -9.365438e-001  3.505508e-001
    outer loop
      vertex -5.605263e-001 -2.273230e-001  1.102132e-001
      vertex  3.111928e-017 -2.438208e-001  6.613714e-002
      vertex  3.198654e-017 -2.273230e-001  1.102132e-001
    endloop
  endfacet
  facet normal  0.000000e+000 -8.552731e-001  5.181774e-001
    outer loop
      vertex -5.605263e-001 -2.273230e-001  1.102132e-001
      vertex  3.198654e-017 -2.273230e-001  1.102132e-001
      vertex -5.605263e-001 -2.029363e-001  1.504645e-001
    endloop
  endfacet
  facet normal  0.000000e+000 -8.552731e-001  5.181774e-001
    outer loop
      vertex -5.605263e-001 -2.029363e-001  1.504645e-001
      vertex  3.198654e-017 -2.273230e-001  1.102132e-001
      vertex  3.174375e-017 -2.029363e-001  1.504645e-001
    endloop
  endfacet
  facet normal  0.000000e+000 -7.443214e-001  6.678216e-001
    outer loop
      vertex -5.605263e-001 -2.029363e-001  1.504645e-001
      vertex  3.174375e-017 -2.029363e-001  1.504645e-001
      vertex -5.605263e-001 -1.715069e-001  1.854942e-001
    endloop
  endfacet
  facet normal  0.000000e+000 -7.443214e-001  6.678216e-001
    outer loop
      vertex -5.605263e-001 -1.715069e-001  1.854942e-001
      vertex  3.174375e-017 -2.029363e-001  1.504645e-001
      vertex  3.039933e-017 -1.715069e-001  1.854942e-001
    endloop
  endfacet
  facet normal  0.000000e+000 -6.075389e-001  7.942899e-001
    outer loop
      vertex -5.605263e-001 -1.715069e-001  1.854942e-001
      vertex  3.039933e-017 -1.715069e-001  1.854942e-001
      vertex -5.605263e-001 -1.341256e-001  2.140865e-001
    endloop
  endfacet
  facet normal  0.000000e+000 -6.075389e-001  7.942899e-001
    outer loop
      vertex -5.605263e-001 -1.341256e-001  2.140865e-001
      vertex  3.039933e-017 -1.715069e-001  1.854942e-001
      vertex  2.799995e-017 -1.341256e-001  2.140865e-001
    endloop
  endfacet
  facet normal  0.000000e+000 -4.496728e-001  8.931933e-001
    outer loop
      vertex -5.605263e-001 -1.341256e-001  2.140865e-001
      vertex  2.799995e-017 -1.341256e-001  2.140865e-001
      vertex -5.605263e-001 -9.208970e-002  2.352492e-001
    endloop
  endfacet
  facet normal  0.000000e+000 -4.496728e-001  8.931933e-001
    outer loop
      vertex -5.605263e-001 -9.208970e-002  2.352492e-001
      vertex  2.799995e-017 -1.341256e-001  2.140865e-001
      vertex  2.462887e-017 -9.208970e-002  2.352492e-001
    endloop
  endfacet
  facet normal  0.000000e+000 -2.762013e-001  9.610998e-001
    outer loop
      vertex -5.605263e-001 -9.208970e-002  2.352492e-001
      vertex  2.462887e-017 -9.208970e-002  2.352492e-001
      vertex -5.605263e-001 -4.685792e-002  2.482480e-001
    endloop
  endfacet
  facet normal  0.000000e+000 -2.762013e-001  9.610998e-001
    outer loop
      vertex -5.605263e-001 -4.685792e-002  2.482480e-001
      vertex  2.462887e-017 -9.208970e-002  2.352492e-001
      vertex  2.040308e-017 -4.685792e-002  2.482480e-001
    endloop
  endfacet
  facet normal  0.000000e+000 -9.314436e-002  9.956526e-001
    outer loop
      vertex -5.605263e-001 -4.685792e-002  2.482480e-001
      vertex  2.040308e-017 -4.685792e-002  2.482480e-001
      vertex -5.605263e-001  2.103581e-017  2.526316e-001
    endloop
  endfacet
  facet normal  1.034110e-017 -9.314436e-002  9.956526e-001
    outer loop
      vertex -5.605263e-001  2.103581e-017  2.526316e-001
      vertex  2.040308e-017 -4.685792e-002  2.482480e-001
      vertex  1.546922e-017  8.326673e-017  2.526316e-001
    endloop
  endfacet
  facet normal  1.000000e+000  1.110223e-016 -6.123234e-017
    outer loop
      vertex  0.000000e+000  8.326673e-017 -4.592425e-017
      vertex  1.546922e-017  8.326673e-017  2.526316e-001
      vertex  2.040308e-017 -4.685792e-002  2.482480e-001
    endloop
  endfacet
  facet normal  1.000000e+000  1.110223e-016 -6.123234e-017
    outer loop
      vertex  0.000000e+000  8.326673e-017 -4.592425e-017
      vertex  2.040308e-017 -4.685792e-002  2.482480e-001
      vertex  2.462887e-017 -9.208970e-002  2.352492e-001
    endloop
  endfacet
  facet normal  1.000000e+000  1.110224e-016 -6.123232e-017
    outer loop
      vertex  0.000000e+000  8.326673e-017 -4.592425e-017
      vertex  2.462887e-017 -9.208970e-002  2.352492e-001
      vertex  2.799995e-017 -1.341256e-001  2.140865e-001
    endloop
  endfacet
  facet normal  1.000000e+000  1.110223e-016 -6.123238e-017
    outer loop
      vertex  0.000000e+000  8.326673e-017 -4.592425e-017
      vertex  2.799995e-017 -1.341256e-001  2.140865e-001
      vertex  3.039933e-017 -1.715069e-001  1.854942e-001
    endloop
  endfacet
  facet normal  1.000000e+000  1.110223e-016 -6.123230e-017
    outer loop
      vertex  0.000000e+000  8.326673e-017 -4.592425e-017
      vertex  3.039933e-017 -1.715069e-001  1.854942e-001
      vertex  3.174375e-017 -2.029363e-001  1.504645e-001
    endloop
  endfacet
  facet normal  1.000000e+000  1.110223e-016 -6.123234e-017
    outer loop
      vertex  0.000000e+000  8.326673e-017 -4.592425e-017
      vertex  3.174375e-017 -2.029363e-001  1.504645e-001
      vertex  3.198654e-017 -2.273230e-001  1.102132e-001
    endloop
  endfacet
  facet normal  1.000000e+000  1.110223e-016 -6.123236e-017
    outer loop
      vertex  0.000000e+000  8.326673e-017 -4.592425e-017
      vertex  3.198654e-017 -2.273230e-001  1.102132e-001
      vertex  3.111928e-017 -2.438208e-001  6.613714e-002
    endloop
  endfacet
endsolid CATIA STL
