solid CATIA STL
  facet normal -1.110222e-016  1.000000e+000 -6.245169e-017
    outer loop
      vertex -5.314559e-001  2.642688e-017 -4.417018e-003
      vertex -5.244212e-001  2.734116e-017 -2.283052e-003
      vertex -5.171053e-001  2.819839e-017 -1.562500e-003
    endloop
  endfacet
  facet normal -1.110220e-016  1.000000e+000 -6.245223e-017
    outer loop
      vertex -5.314559e-001  2.642688e-017 -4.417018e-003
      vertex -5.171053e-001  2.819839e-017 -1.562500e-003
      vertex -5.097893e-001  2.896562e-017 -2.283052e-003
    endloop
  endfacet
  facet normal -1.110223e-016  1.000000e+000 -6.244966e-017
    outer loop
      vertex -5.027546e-001  2.961336e-017 -4.417018e-003
      vertex -5.314559e-001  2.642688e-017 -4.417018e-003
      vertex -5.097893e-001  2.896562e-017 -2.283052e-003
    endloop
  endfacet
  facet normal -1.110223e-016  1.000000e+000 -6.244985e-017
    outer loop
      vertex -5.379391e-001  2.549068e-017 -7.882389e-003
      vertex -5.314559e-001  2.642688e-017 -4.417018e-003
      vertex -5.027546e-001  2.961336e-017 -4.417018e-003
    endloop
  endfacet
  facet normal -1.110223e-016  1.000000e+000 -6.244945e-017
    outer loop
      vertex -4.962714e-001  3.011674e-017 -7.882389e-003
      vertex -5.379391e-001  2.549068e-017 -7.882389e-003
      vertex -5.027546e-001  2.961336e-017 -4.417018e-003
    endloop
  endfacet
  facet normal -1.110223e-016  1.000000e+000 -6.244956e-017
    outer loop
      vertex -5.436218e-001  2.456854e-017 -1.254600e-002
      vertex -5.379391e-001  2.549068e-017 -7.882389e-003
      vertex -4.962714e-001  3.011674e-017 -7.882389e-003
    endloop
  endfacet
  facet normal -1.110223e-016  1.000000e+000 -6.245028e-017
    outer loop
      vertex -4.905888e-001  3.045639e-017 -1.254600e-002
      vertex -5.436218e-001  2.456854e-017 -1.254600e-002
      vertex -4.962714e-001  3.011674e-017 -7.882389e-003
    endloop
  endfacet
  facet normal -1.110223e-016  1.000000e+000 -6.245043e-017
    outer loop
      vertex -5.482854e-001  2.369590e-017 -1.822862e-002
      vertex -5.436218e-001  2.456854e-017 -1.254600e-002
      vertex -4.905888e-001  3.045639e-017 -1.254600e-002
    endloop
  endfacet
  facet normal -1.110223e-016  1.000000e+000 -6.245011e-017
    outer loop
      vertex -4.859251e-001  3.061927e-017 -1.822862e-002
      vertex -5.482854e-001  2.369590e-017 -1.822862e-002
      vertex -4.905888e-001  3.045639e-017 -1.254600e-002
    endloop
  endfacet
  facet normal -1.110223e-016  9.999999e-001 -6.245038e-017
    outer loop
      vertex -5.517507e-001  2.290629e-017 -2.471187e-002
      vertex -5.482854e-001  2.369590e-017 -1.822862e-002
      vertex -4.859251e-001  3.061927e-017 -1.822862e-002
    endloop
  endfacet
  facet normal -1.110223e-016  9.999999e-001 -6.244989e-017
    outer loop
      vertex -4.824598e-001  3.059913e-017 -2.471187e-002
      vertex -5.517507e-001  2.290629e-017 -2.471187e-002
      vertex -4.859251e-001  3.061927e-017 -1.822862e-002
    endloop
  endfacet
  facet normal -1.110224e-016  1.000000e+000 -6.244987e-017
    outer loop
      vertex -5.538847e-001  2.223005e-017 -3.174661e-002
      vertex -5.517507e-001  2.290629e-017 -2.471187e-002
      vertex -4.824598e-001  3.059913e-017 -2.471187e-002
    endloop
  endfacet
  facet normal -1.110224e-016  1.000000e+000 -6.244991e-017
    outer loop
      vertex -4.803258e-001  3.039673e-017 -3.174661e-002
      vertex -5.538847e-001  2.223005e-017 -3.174661e-002
      vertex -4.824598e-001  3.059913e-017 -2.471187e-002
    endloop
  endfacet
  facet normal -1.110223e-016  1.000000e+000 -6.244985e-017
    outer loop
      vertex -4.824598e-001  2.880673e-017 -5.341313e-002
      vertex -5.517507e-001  2.111389e-017 -5.341313e-002
      vertex -4.803258e-001  2.948297e-017 -4.637839e-002
    endloop
  endfacet
  facet normal -1.110223e-016  9.999999e-001 -6.244965e-017
    outer loop
      vertex -5.482854e-001  2.109375e-017 -5.989638e-002
      vertex -5.517507e-001  2.111389e-017 -5.341313e-002
      vertex -4.824598e-001  2.880673e-017 -5.341313e-002
    endloop
  endfacet
  facet normal -1.110223e-016  9.999999e-001 -6.245041e-017
    outer loop
      vertex -4.859251e-001  2.801712e-017 -5.989638e-002
      vertex -5.482854e-001  2.109375e-017 -5.989638e-002
      vertex -4.824598e-001  2.880673e-017 -5.341313e-002
    endloop
  endfacet
  facet normal -1.110223e-016  1.000000e+000 -6.244980e-017
    outer loop
      vertex -5.436218e-001  2.125663e-017 -6.557900e-002
      vertex -5.482854e-001  2.109375e-017 -5.989638e-002
      vertex -4.859251e-001  2.801712e-017 -5.989638e-002
    endloop
  endfacet
  facet normal -1.110223e-016  1.000000e+000 -6.244985e-017
    outer loop
      vertex -4.905888e-001  2.714448e-017 -6.557900e-002
      vertex -5.436218e-001  2.125663e-017 -6.557900e-002
      vertex -4.859251e-001  2.801712e-017 -5.989638e-002
    endloop
  endfacet
  facet normal -1.110223e-016  1.000000e+000 -6.245059e-017
    outer loop
      vertex -5.379391e-001  2.159628e-017 -7.024261e-002
      vertex -5.436218e-001  2.125663e-017 -6.557900e-002
      vertex -4.905888e-001  2.714448e-017 -6.557900e-002
    endloop
  endfacet
  facet normal -1.110223e-016  9.999999e-001 -6.244987e-017
    outer loop
      vertex -4.962714e-001  2.622234e-017 -7.024261e-002
      vertex -5.379391e-001  2.159628e-017 -7.024261e-002
      vertex -4.905888e-001  2.714448e-017 -6.557900e-002
    endloop
  endfacet
  facet normal -1.110223e-016  1.000000e+000 -6.244997e-017
    outer loop
      vertex -5.314559e-001  2.209966e-017 -7.370798e-002
      vertex -5.379391e-001  2.159628e-017 -7.024261e-002
      vertex -4.962714e-001  2.622234e-017 -7.024261e-002
    endloop
  endfacet
  facet normal -1.110223e-016  1.000000e+000 -6.245037e-017
    outer loop
      vertex -5.027546e-001  2.528614e-017 -7.370798e-002
      vertex -5.314559e-001  2.209966e-017 -7.370798e-002
      vertex -4.962714e-001  2.622234e-017 -7.024261e-002
    endloop
  endfacet
  facet normal -1.110223e-016  1.000000e+000 -6.244888e-017
    outer loop
      vertex -5.244212e-001  2.274741e-017 -7.584195e-002
      vertex -5.314559e-001  2.209966e-017 -7.370798e-002
      vertex -5.027546e-001  2.528614e-017 -7.370798e-002
    endloop
  endfacet
  facet normal -1.110224e-016  1.000000e+000 -6.244834e-017
    outer loop
      vertex -5.171053e-001  2.351463e-017 -7.656250e-002
      vertex -5.244212e-001  2.274741e-017 -7.584195e-002
      vertex -5.027546e-001  2.528614e-017 -7.370798e-002
    endloop
  endfacet
  facet normal -1.110208e-016  1.000000e+000 -6.245615e-017
    outer loop
      vertex -5.097893e-001  2.437186e-017 -7.584195e-002
      vertex -5.171053e-001  2.351463e-017 -7.656250e-002
      vertex -5.027546e-001  2.528614e-017 -7.370798e-002
    endloop
  endfacet
  facet normal -1.110223e-016  1.000000e+000 -6.245012e-017
    outer loop
      vertex -5.517507e-001  2.111389e-017 -5.341313e-002
      vertex -5.538847e-001  2.131629e-017 -4.637839e-002
      vertex -4.803258e-001  2.948297e-017 -4.637839e-002
    endloop
  endfacet
  facet normal -1.110223e-016  1.000000e+000 -6.245018e-017
    outer loop
      vertex -4.803258e-001  2.948297e-017 -4.637839e-002
      vertex -5.538847e-001  2.131629e-017 -4.637839e-002
      vertex -5.546052e-001  2.169317e-017 -3.906250e-002
    endloop
  endfacet
  facet normal -1.110223e-016  9.999999e-001 -6.245017e-017
    outer loop
      vertex -4.803258e-001  2.948297e-017 -4.637839e-002
      vertex -5.546052e-001  2.169317e-017 -3.906250e-002
      vertex -4.796053e-001  3.001985e-017 -3.906250e-002
    endloop
  endfacet
  facet normal -1.110223e-016  9.999999e-001 -6.244995e-017
    outer loop
      vertex -4.796053e-001  3.001985e-017 -3.906250e-002
      vertex -5.546052e-001  2.169317e-017 -3.906250e-002
      vertex -5.538847e-001  2.223005e-017 -3.174661e-002
    endloop
  endfacet
  facet normal -1.110224e-016  1.000000e+000 -6.245018e-017
    outer loop
      vertex -4.796053e-001  3.001985e-017 -3.906250e-002
      vertex -5.538847e-001  2.223005e-017 -3.174661e-002
      vertex -4.803258e-001  3.039673e-017 -3.174661e-002
    endloop
  endfacet
  facet normal  9.951847e-001  0.000000e+000 -9.801734e-002
    outer loop
      vertex -4.249178e-001 -5.468750e-002 -3.906250e-002
      vertex -4.249178e-001 -1.796875e-001 -3.906250e-002
      vertex -4.266891e-001 -5.468750e-002 -5.704739e-002
    endloop
  endfacet
  facet normal  9.951847e-001  0.000000e+000 -9.801734e-002
    outer loop
      vertex -4.266891e-001 -5.468750e-002 -5.704739e-002
      vertex -4.249178e-001 -1.796875e-001 -3.906250e-002
      vertex -4.266891e-001 -1.796875e-001 -5.704739e-002
    endloop
  endfacet
  facet normal  9.569401e-001  0.000000e+000 -2.902855e-001
    outer loop
      vertex -4.266891e-001 -5.468750e-002 -5.704739e-002
      vertex -4.266891e-001 -1.796875e-001 -5.704739e-002
      vertex -4.319351e-001 -5.468750e-002 -7.434113e-002
    endloop
  endfacet
  facet normal  9.569401e-001  0.000000e+000 -2.902855e-001
    outer loop
      vertex -4.319351e-001 -5.468750e-002 -7.434113e-002
      vertex -4.266891e-001 -1.796875e-001 -5.704739e-002
      vertex -4.319351e-001 -1.796875e-001 -7.434113e-002
    endloop
  endfacet
  facet normal  8.819216e-001  0.000000e+000 -4.713959e-001
    outer loop
      vertex -4.319351e-001 -5.468750e-002 -7.434113e-002
      vertex -4.319351e-001 -1.796875e-001 -7.434113e-002
      vertex -4.404542e-001 -5.468750e-002 -9.027913e-002
    endloop
  endfacet
  facet normal  8.819216e-001  0.000000e+000 -4.713959e-001
    outer loop
      vertex -4.404542e-001 -5.468750e-002 -9.027913e-002
      vertex -4.319351e-001 -1.796875e-001 -7.434113e-002
      vertex -4.404542e-001 -1.796875e-001 -9.027913e-002
    endloop
  endfacet
  facet normal  7.730099e-001  0.000000e+000 -6.343939e-001
    outer loop
      vertex -4.404542e-001 -5.468750e-002 -9.027913e-002
      vertex -4.404542e-001 -1.796875e-001 -9.027913e-002
      vertex -4.519189e-001 -5.468750e-002 -1.042489e-001
    endloop
  endfacet
  facet normal  7.730099e-001  0.000000e+000 -6.343939e-001
    outer loop
      vertex -4.519189e-001 -5.468750e-002 -1.042489e-001
      vertex -4.404542e-001 -1.796875e-001 -9.027913e-002
      vertex -4.519189e-001 -1.796875e-001 -1.042489e-001
    endloop
  endfacet
  facet normal  6.343941e-001  0.000000e+000 -7.730099e-001
    outer loop
      vertex -4.519189e-001 -5.468750e-002 -1.042489e-001
      vertex -4.519189e-001 -1.796875e-001 -1.042489e-001
      vertex -4.658886e-001 -5.468750e-002 -1.157136e-001
    endloop
  endfacet
  facet normal  6.343941e-001  0.000000e+000 -7.730099e-001
    outer loop
      vertex -4.658886e-001 -5.468750e-002 -1.157136e-001
      vertex -4.519189e-001 -1.796875e-001 -1.042489e-001
      vertex -4.658886e-001 -1.796875e-001 -1.157136e-001
    endloop
  endfacet
  facet normal  4.713964e-001  0.000000e+000 -8.819215e-001
    outer loop
      vertex -4.658886e-001 -5.468750e-002 -1.157136e-001
      vertex -4.658886e-001 -1.796875e-001 -1.157136e-001
      vertex -4.818266e-001 -5.468750e-002 -1.242326e-001
    endloop
  endfacet
  facet normal  4.713964e-001  0.000000e+000 -8.819215e-001
    outer loop
      vertex -4.818266e-001 -5.468750e-002 -1.242326e-001
      vertex -4.658886e-001 -1.796875e-001 -1.157136e-001
      vertex -4.818266e-001 -1.796875e-001 -1.242326e-001
    endloop
  endfacet
  facet normal  2.902849e-001  0.000000e+000 -9.569403e-001
    outer loop
      vertex -4.818266e-001 -5.468750e-002 -1.242326e-001
      vertex -4.818266e-001 -1.796875e-001 -1.242326e-001
      vertex -4.991204e-001 -5.468750e-002 -1.294786e-001
    endloop
  endfacet
  facet normal  2.902849e-001  0.000000e+000 -9.569403e-001
    outer loop
      vertex -4.991204e-001 -5.468750e-002 -1.294786e-001
      vertex -4.818266e-001 -1.796875e-001 -1.242326e-001
      vertex -4.991204e-001 -1.796875e-001 -1.294786e-001
    endloop
  endfacet
  facet normal  9.801648e-002  0.000000e+000 -9.951847e-001
    outer loop
      vertex -4.991204e-001 -5.468750e-002 -1.294786e-001
      vertex -4.991204e-001 -1.796875e-001 -1.294786e-001
      vertex -5.171053e-001 -5.468750e-002 -1.312500e-001
    endloop
  endfacet
  facet normal  9.801648e-002  0.000000e+000 -9.951847e-001
    outer loop
      vertex -5.171053e-001 -5.468750e-002 -1.312500e-001
      vertex -4.991204e-001 -1.796875e-001 -1.294786e-001
      vertex -5.171053e-001 -1.796875e-001 -1.312500e-001
    endloop
  endfacet
  facet normal -9.801663e-002  0.000000e+000 -9.951847e-001
    outer loop
      vertex -5.171053e-001 -5.468750e-002 -1.312500e-001
      vertex -5.171053e-001 -1.796875e-001 -1.312500e-001
      vertex -5.350901e-001 -5.468750e-002 -1.294786e-001
    endloop
  endfacet
  facet normal -9.801663e-002  -0.000000e+000 -9.951847e-001
    outer loop
      vertex -5.350901e-001 -5.468750e-002 -1.294786e-001
      vertex -5.171053e-001 -1.796875e-001 -1.312500e-001
      vertex -5.350901e-001 -1.796875e-001 -1.294786e-001
    endloop
  endfacet
  facet normal -2.902849e-001  0.000000e+000 -9.569403e-001
    outer loop
      vertex -5.350901e-001 -5.468750e-002 -1.294786e-001
      vertex -5.350901e-001 -1.796875e-001 -1.294786e-001
      vertex -5.523839e-001 -5.468750e-002 -1.242326e-001
    endloop
  endfacet
  facet normal -2.902849e-001  -0.000000e+000 -9.569403e-001
    outer loop
      vertex -5.523839e-001 -5.468750e-002 -1.242326e-001
      vertex -5.350901e-001 -1.796875e-001 -1.294786e-001
      vertex -5.523839e-001 -1.796875e-001 -1.242326e-001
    endloop
  endfacet
  facet normal -4.713971e-001  0.000000e+000 -8.819211e-001
    outer loop
      vertex -5.523839e-001 -5.468750e-002 -1.242326e-001
      vertex -5.523839e-001 -1.796875e-001 -1.242326e-001
      vertex -5.683219e-001 -5.468750e-002 -1.157136e-001
    endloop
  endfacet
  facet normal -4.713971e-001  -0.000000e+000 -8.819211e-001
    outer loop
      vertex -5.683219e-001 -5.468750e-002 -1.157136e-001
      vertex -5.523839e-001 -1.796875e-001 -1.242326e-001
      vertex -5.683219e-001 -1.796875e-001 -1.157136e-001
    endloop
  endfacet
  facet normal -6.343932e-001  0.000000e+000 -7.730104e-001
    outer loop
      vertex -5.683219e-001 -5.468750e-002 -1.157136e-001
      vertex -5.683219e-001 -1.796875e-001 -1.157136e-001
      vertex -5.822917e-001 -5.468750e-002 -1.042489e-001
    endloop
  endfacet
  facet normal -6.343932e-001  -0.000000e+000 -7.730104e-001
    outer loop
      vertex -5.822917e-001 -5.468750e-002 -1.042489e-001
      vertex -5.683219e-001 -1.796875e-001 -1.157136e-001
      vertex -5.822917e-001 -1.796875e-001 -1.042489e-001
    endloop
  endfacet
  facet normal -7.730099e-001  0.000000e+000 -6.343939e-001
    outer loop
      vertex -5.822917e-001 -5.468750e-002 -1.042489e-001
      vertex -5.822917e-001 -1.796875e-001 -1.042489e-001
      vertex -5.937564e-001 -5.468750e-002 -9.027913e-002
    endloop
  endfacet
  facet normal -7.730099e-001  -0.000000e+000 -6.343939e-001
    outer loop
      vertex -5.937564e-001 -5.468750e-002 -9.027913e-002
      vertex -5.822917e-001 -1.796875e-001 -1.042489e-001
      vertex -5.937564e-001 -1.796875e-001 -9.027913e-002
    endloop
  endfacet
  facet normal -8.819211e-001  0.000000e+000 -4.713973e-001
    outer loop
      vertex -5.937564e-001 -5.468750e-002 -9.027913e-002
      vertex -5.937564e-001 -1.796875e-001 -9.027913e-002
      vertex -6.022754e-001 -5.468750e-002 -7.434113e-002
    endloop
  endfacet
  facet normal -8.819211e-001  -0.000000e+000 -4.713973e-001
    outer loop
      vertex -6.022754e-001 -5.468750e-002 -7.434113e-002
      vertex -5.937564e-001 -1.796875e-001 -9.027913e-002
      vertex -6.022754e-001 -1.796875e-001 -7.434113e-002
    endloop
  endfacet
  facet normal -9.569405e-001  0.000000e+000 -2.902839e-001
    outer loop
      vertex -6.022754e-001 -5.468750e-002 -7.434113e-002
      vertex -6.022754e-001 -1.796875e-001 -7.434113e-002
      vertex -6.075214e-001 -5.468750e-002 -5.704739e-002
    endloop
  endfacet
  facet normal -9.569405e-001  -0.000000e+000 -2.902839e-001
    outer loop
      vertex -6.075214e-001 -5.468750e-002 -5.704739e-002
      vertex -6.022754e-001 -1.796875e-001 -7.434113e-002
      vertex -6.075214e-001 -1.796875e-001 -5.704739e-002
    endloop
  endfacet
  facet normal -9.951848e-001  0.000000e+000 -9.801570e-002
    outer loop
      vertex -6.075214e-001 -5.468750e-002 -5.704739e-002
      vertex -6.075214e-001 -1.796875e-001 -5.704739e-002
      vertex -6.092927e-001 -5.468750e-002 -3.906250e-002
    endloop
  endfacet
  facet normal -9.951848e-001  -0.000000e+000 -9.801570e-002
    outer loop
      vertex -6.092927e-001 -5.468750e-002 -3.906250e-002
      vertex -6.075214e-001 -1.796875e-001 -5.704739e-002
      vertex -6.092927e-001 -1.796875e-001 -3.906250e-002
    endloop
  endfacet
  facet normal -9.951848e-001  0.000000e+000  9.801570e-002
    outer loop
      vertex -6.092927e-001 -5.468750e-002 -3.906250e-002
      vertex -6.092927e-001 -1.796875e-001 -3.906250e-002
      vertex -6.075214e-001 -5.468750e-002 -2.107761e-002
    endloop
  endfacet
  facet normal -9.951848e-001  0.000000e+000  9.801570e-002
    outer loop
      vertex -6.075214e-001 -5.468750e-002 -2.107761e-002
      vertex -6.092927e-001 -1.796875e-001 -3.906250e-002
      vertex -6.075214e-001 -1.796875e-001 -2.107761e-002
    endloop
  endfacet
  facet normal -9.569405e-001  0.000000e+000  2.902839e-001
    outer loop
      vertex -6.075214e-001 -5.468750e-002 -2.107761e-002
      vertex -6.075214e-001 -1.796875e-001 -2.107761e-002
      vertex -6.022754e-001 -5.468750e-002 -3.783871e-003
    endloop
  endfacet
  facet normal -9.569405e-001  0.000000e+000  2.902839e-001
    outer loop
      vertex -6.022754e-001 -5.468750e-002 -3.783871e-003
      vertex -6.075214e-001 -1.796875e-001 -2.107761e-002
      vertex -6.022754e-001 -1.796875e-001 -3.783871e-003
    endloop
  endfacet
  facet normal -8.819209e-001  0.000000e+000  4.713973e-001
    outer loop
      vertex -6.022754e-001 -5.468750e-002 -3.783871e-003
      vertex -6.022754e-001 -1.796875e-001 -3.783871e-003
      vertex -5.937564e-001 -5.468750e-002  1.215413e-002
    endloop
  endfacet
  facet normal -8.819209e-001  0.000000e+000  4.713973e-001
    outer loop
      vertex -5.937564e-001 -5.468750e-002  1.215413e-002
      vertex -6.022754e-001 -1.796875e-001 -3.783871e-003
      vertex -5.937564e-001 -1.796875e-001  1.215413e-002
    endloop
  endfacet
  facet normal -7.730100e-001  0.000000e+000  6.343939e-001
    outer loop
      vertex -5.937564e-001 -5.468750e-002  1.215413e-002
      vertex -5.937564e-001 -1.796875e-001  1.215413e-002
      vertex -5.822917e-001 -5.468750e-002  2.612391e-002
    endloop
  endfacet
  facet normal -7.730100e-001  0.000000e+000  6.343939e-001
    outer loop
      vertex -5.822917e-001 -5.468750e-002  2.612391e-002
      vertex -5.937564e-001 -1.796875e-001  1.215413e-002
      vertex -5.822917e-001 -1.796875e-001  2.612391e-002
    endloop
  endfacet
  facet normal -6.343932e-001  0.000000e+000  7.730106e-001
    outer loop
      vertex -5.822917e-001 -5.468750e-002  2.612391e-002
      vertex -5.822917e-001 -1.796875e-001  2.612391e-002
      vertex -5.683219e-001 -5.468750e-002  3.758860e-002
    endloop
  endfacet
  facet normal -6.343932e-001  0.000000e+000  7.730106e-001
    outer loop
      vertex -5.683219e-001 -5.468750e-002  3.758860e-002
      vertex -5.822917e-001 -1.796875e-001  2.612391e-002
      vertex -5.683219e-001 -1.796875e-001  3.758860e-002
    endloop
  endfacet
  facet normal -4.713973e-001  0.000000e+000  8.819210e-001
    outer loop
      vertex -5.683219e-001 -5.468750e-002  3.758860e-002
      vertex -5.683219e-001 -1.796875e-001  3.758860e-002
      vertex -5.523839e-001 -5.468750e-002  4.610765e-002
    endloop
  endfacet
  facet normal -4.713973e-001  0.000000e+000  8.819210e-001
    outer loop
      vertex -5.523839e-001 -5.468750e-002  4.610765e-002
      vertex -5.683219e-001 -1.796875e-001  3.758860e-002
      vertex -5.523839e-001 -1.796875e-001  4.610765e-002
    endloop
  endfacet
  facet normal -2.902845e-001  0.000000e+000  9.569404e-001
    outer loop
      vertex -5.523839e-001 -5.468750e-002  4.610765e-002
      vertex -5.523839e-001 -1.796875e-001  4.610765e-002
      vertex -5.350901e-001 -5.468750e-002  5.135364e-002
    endloop
  endfacet
  facet normal -2.902845e-001  0.000000e+000  9.569404e-001
    outer loop
      vertex -5.350901e-001 -5.468750e-002  5.135364e-002
      vertex -5.523839e-001 -1.796875e-001  4.610765e-002
      vertex -5.350901e-001 -1.796875e-001  5.135364e-002
    endloop
  endfacet
  facet normal -9.801725e-002  0.000000e+000  9.951847e-001
    outer loop
      vertex -5.350901e-001 -5.468750e-002  5.135364e-002
      vertex -5.350901e-001 -1.796875e-001  5.135364e-002
      vertex -5.171053e-001 -5.468750e-002  5.312500e-002
    endloop
  endfacet
  facet normal -9.801725e-002  0.000000e+000  9.951847e-001
    outer loop
      vertex -5.171053e-001 -5.468750e-002  5.312500e-002
      vertex -5.350901e-001 -1.796875e-001  5.135364e-002
      vertex -5.171053e-001 -1.796875e-001  5.312500e-002
    endloop
  endfacet
  facet normal  9.801710e-002  -0.000000e+000  9.951847e-001
    outer loop
      vertex -5.171053e-001 -5.468750e-002  5.312500e-002
      vertex -5.171053e-001 -1.796875e-001  5.312500e-002
      vertex -4.991204e-001 -5.468750e-002  5.135364e-002
    endloop
  endfacet
  facet normal  9.801710e-002  0.000000e+000  9.951847e-001
    outer loop
      vertex -4.991204e-001 -5.468750e-002  5.135364e-002
      vertex -5.171053e-001 -1.796875e-001  5.312500e-002
      vertex -4.991204e-001 -1.796875e-001  5.135364e-002
    endloop
  endfacet
  facet normal  2.902845e-001  -0.000000e+000  9.569404e-001
    outer loop
      vertex -4.991204e-001 -5.468750e-002  5.135364e-002
      vertex -4.991204e-001 -1.796875e-001  5.135364e-002
      vertex -4.818266e-001 -5.468750e-002  4.610765e-002
    endloop
  endfacet
  facet normal  2.902845e-001  0.000000e+000  9.569404e-001
    outer loop
      vertex -4.818266e-001 -5.468750e-002  4.610765e-002
      vertex -4.991204e-001 -1.796875e-001  5.135364e-002
      vertex -4.818266e-001 -1.796875e-001  4.610765e-002
    endloop
  endfacet
  facet normal  4.713966e-001  -0.000000e+000  8.819214e-001
    outer loop
      vertex -4.818266e-001 -5.468750e-002  4.610765e-002
      vertex -4.818266e-001 -1.796875e-001  4.610765e-002
      vertex -4.658886e-001 -5.468750e-002  3.758860e-002
    endloop
  endfacet
  facet normal  4.713966e-001  0.000000e+000  8.819214e-001
    outer loop
      vertex -4.658886e-001 -5.468750e-002  3.758860e-002
      vertex -4.818266e-001 -1.796875e-001  4.610765e-002
      vertex -4.658886e-001 -1.796875e-001  3.758860e-002
    endloop
  endfacet
  facet normal  6.343940e-001  -0.000000e+000  7.730099e-001
    outer loop
      vertex -4.658886e-001 -5.468750e-002  3.758860e-002
      vertex -4.658886e-001 -1.796875e-001  3.758860e-002
      vertex -4.519189e-001 -5.468750e-002  2.612391e-002
    endloop
  endfacet
  facet normal  6.343940e-001  0.000000e+000  7.730099e-001
    outer loop
      vertex -4.519189e-001 -5.468750e-002  2.612391e-002
      vertex -4.658886e-001 -1.796875e-001  3.758860e-002
      vertex -4.519189e-001 -1.796875e-001  2.612391e-002
    endloop
  endfacet
  facet normal  7.730100e-001  -0.000000e+000  6.343939e-001
    outer loop
      vertex -4.519189e-001 -5.468750e-002  2.612391e-002
      vertex -4.519189e-001 -1.796875e-001  2.612391e-002
      vertex -4.404542e-001 -5.468750e-002  1.215413e-002
    endloop
  endfacet
  facet normal  7.730100e-001  0.000000e+000  6.343939e-001
    outer loop
      vertex -4.404542e-001 -5.468750e-002  1.215413e-002
      vertex -4.519189e-001 -1.796875e-001  2.612391e-002
      vertex -4.404542e-001 -1.796875e-001  1.215413e-002
    endloop
  endfacet
  facet normal  8.819216e-001  -0.000000e+000  4.713960e-001
    outer loop
      vertex -4.404542e-001 -5.468750e-002  1.215413e-002
      vertex -4.404542e-001 -1.796875e-001  1.215413e-002
      vertex -4.319351e-001 -5.468750e-002 -3.783871e-003
    endloop
  endfacet
  facet normal  8.819216e-001  0.000000e+000  4.713960e-001
    outer loop
      vertex -4.319351e-001 -5.468750e-002 -3.783871e-003
      vertex -4.404542e-001 -1.796875e-001  1.215413e-002
      vertex -4.319351e-001 -1.796875e-001 -3.783871e-003
    endloop
  endfacet
  facet normal  9.569401e-001  -0.000000e+000  2.902854e-001
    outer loop
      vertex -4.319351e-001 -5.468750e-002 -3.783871e-003
      vertex -4.319351e-001 -1.796875e-001 -3.783871e-003
      vertex -4.266891e-001 -5.468750e-002 -2.107761e-002
    endloop
  endfacet
  facet normal  9.569401e-001  0.000000e+000  2.902854e-001
    outer loop
      vertex -4.266891e-001 -5.468750e-002 -2.107761e-002
      vertex -4.319351e-001 -1.796875e-001 -3.783871e-003
      vertex -4.266891e-001 -1.796875e-001 -2.107761e-002
    endloop
  endfacet
  facet normal  9.951847e-001  -0.000000e+000  9.801734e-002
    outer loop
      vertex -4.266891e-001 -5.468750e-002 -2.107761e-002
      vertex -4.266891e-001 -1.796875e-001 -2.107761e-002
      vertex -4.249178e-001 -5.468750e-002 -3.906250e-002
    endloop
  endfacet
  facet normal  9.951847e-001  0.000000e+000  9.801734e-002
    outer loop
      vertex -4.249178e-001 -5.468750e-002 -3.906250e-002
      vertex -4.266891e-001 -1.796875e-001 -2.107761e-002
      vertex -4.249178e-001 -1.796875e-001 -3.906250e-002
    endloop
  endfacet
  facet normal  7.053982e-001  7.053982e-001  6.947580e-002
    outer loop
      vertex -4.796053e-001  3.001985e-017 -3.906250e-002
      vertex -4.266891e-001 -5.468750e-002 -2.107761e-002
      vertex -4.249178e-001 -5.468750e-002 -3.906250e-002
    endloop
  endfacet
  facet normal  7.053980e-001  7.053983e-001  6.947649e-002
    outer loop
      vertex -4.796053e-001  3.001985e-017 -3.906250e-002
      vertex -4.803258e-001  3.039673e-017 -3.174661e-002
      vertex -4.266891e-001 -5.468750e-002 -2.107761e-002
    endloop
  endfacet
  facet normal -7.053981e-001  7.053981e-001  6.947649e-002
    outer loop
      vertex -6.092927e-001 -5.468750e-002 -3.906250e-002
      vertex -5.538847e-001  2.223005e-017 -3.174661e-002
      vertex -5.546052e-001  2.169317e-017 -3.906250e-002
    endloop
  endfacet
  facet normal -7.053981e-001  7.053984e-001  6.947463e-002
    outer loop
      vertex -6.092927e-001 -5.468750e-002 -3.906250e-002
      vertex -6.075214e-001 -5.468750e-002 -2.107761e-002
      vertex -5.538847e-001  2.223005e-017 -3.174661e-002
    endloop
  endfacet
  facet normal  6.782900e-001  7.053981e-001  2.057576e-001
    outer loop
      vertex -4.824598e-001  3.059913e-017 -2.471187e-002
      vertex -4.319351e-001 -5.468750e-002 -3.783871e-003
      vertex -4.266891e-001 -5.468750e-002 -2.107761e-002
    endloop
  endfacet
  facet normal  6.782901e-001  7.053982e-001  2.057570e-001
    outer loop
      vertex -4.824598e-001  3.059913e-017 -2.471187e-002
      vertex -4.266891e-001 -5.468750e-002 -2.107761e-002
      vertex -4.803258e-001  3.039673e-017 -3.174661e-002
    endloop
  endfacet
  facet normal  5.479183e-001  7.053981e-001  4.496655e-001
    outer loop
      vertex -4.859251e-001  3.061927e-017 -1.822862e-002
      vertex -4.519189e-001 -5.468750e-002  2.612391e-002
      vertex -4.404542e-001 -5.468750e-002  1.215413e-002
    endloop
  endfacet
  facet normal  6.251161e-001  7.053981e-001  3.341309e-001
    outer loop
      vertex -4.404542e-001 -5.468750e-002  1.215413e-002
      vertex -4.319351e-001 -5.468750e-002 -3.783871e-003
      vertex -4.859251e-001  3.061927e-017 -1.822862e-002
    endloop
  endfacet
  facet normal  6.251164e-001  7.053981e-001  3.341300e-001
    outer loop
      vertex -4.859251e-001  3.061927e-017 -1.822862e-002
      vertex -4.319351e-001 -5.468750e-002 -3.783871e-003
      vertex -4.824598e-001  3.059913e-017 -2.471187e-002
    endloop
  endfacet
  facet normal  3.341312e-001  7.053981e-001  6.251158e-001
    outer loop
      vertex -5.027546e-001  2.961336e-017 -4.417018e-003
      vertex -4.818266e-001 -5.468750e-002  4.610765e-002
      vertex -4.658886e-001 -5.468750e-002  3.758860e-002
    endloop
  endfacet
  facet normal  3.341313e-001  7.053981e-001  6.251157e-001
    outer loop
      vertex -5.027546e-001  2.961336e-017 -4.417018e-003
      vertex -4.658886e-001 -5.468750e-002  3.758860e-002
      vertex -4.962714e-001  3.011674e-017 -7.882389e-003
    endloop
  endfacet
  facet normal  4.496652e-001  7.053981e-001  5.479184e-001
    outer loop
      vertex -4.658886e-001 -5.468750e-002  3.758860e-002
      vertex -4.905888e-001  3.045639e-017 -1.254600e-002
      vertex -4.962714e-001  3.011674e-017 -7.882389e-003
    endloop
  endfacet
  facet normal  6.947562e-002  7.053981e-001  7.053981e-001
    outer loop
      vertex -5.097893e-001  2.896562e-017 -2.283052e-003
      vertex -5.171053e-001 -5.468750e-002  5.312500e-002
      vertex -4.991204e-001 -5.468750e-002  5.135364e-002
    endloop
  endfacet
  facet normal  2.057569e-001  7.053981e-001  6.782902e-001
    outer loop
      vertex -4.991204e-001 -5.468750e-002  5.135364e-002
      vertex -4.818266e-001 -5.468750e-002  4.610765e-002
      vertex -5.097893e-001  2.896562e-017 -2.283052e-003
    endloop
  endfacet
  facet normal  2.057576e-001  7.053982e-001  6.782899e-001
    outer loop
      vertex -5.097893e-001  2.896562e-017 -2.283052e-003
      vertex -4.818266e-001 -5.468750e-002  4.610765e-002
      vertex -5.027546e-001  2.961336e-017 -4.417018e-003
    endloop
  endfacet
  facet normal -2.057569e-001  7.053982e-001  6.782901e-001
    outer loop
      vertex -5.314559e-001  2.642688e-017 -4.417018e-003
      vertex -5.523839e-001 -5.468750e-002  4.610765e-002
      vertex -5.350901e-001 -5.468750e-002  5.135364e-002
    endloop
  endfacet
  facet normal -2.057577e-001  7.053981e-001  6.782900e-001
    outer loop
      vertex -5.314559e-001  2.642688e-017 -4.417018e-003
      vertex -5.350901e-001 -5.468750e-002  5.135364e-002
      vertex -5.244212e-001  2.734116e-017 -2.283052e-003
    endloop
  endfacet
  facet normal -6.947578e-002  7.053981e-001  7.053981e-001
    outer loop
      vertex -5.350901e-001 -5.468750e-002  5.135364e-002
      vertex -5.171053e-001  2.819839e-017 -1.562500e-003
      vertex -5.244212e-001  2.734116e-017 -2.283052e-003
    endloop
  endfacet
  facet normal -4.496650e-001  7.053982e-001  5.479186e-001
    outer loop
      vertex -5.379391e-001  2.549068e-017 -7.882389e-003
      vertex -5.822917e-001 -5.468750e-002  2.612391e-002
      vertex -5.683219e-001 -5.468750e-002  3.758860e-002
    endloop
  endfacet
  facet normal -3.341317e-001  7.053982e-001  6.251156e-001
    outer loop
      vertex -5.683219e-001 -5.468750e-002  3.758860e-002
      vertex -5.523839e-001 -5.468750e-002  4.610765e-002
      vertex -5.379391e-001  2.549068e-017 -7.882389e-003
    endloop
  endfacet
  facet normal -3.341313e-001  7.053983e-001  6.251157e-001
    outer loop
      vertex -5.379391e-001  2.549068e-017 -7.882389e-003
      vertex -5.523839e-001 -5.468750e-002  4.610765e-002
      vertex -5.314559e-001  2.642688e-017 -4.417018e-003
    endloop
  endfacet
  facet normal -6.251153e-001  7.053984e-001  3.341316e-001
    outer loop
      vertex -5.517507e-001  2.290629e-017 -2.471187e-002
      vertex -6.022754e-001 -5.468750e-002 -3.783871e-003
      vertex -5.937564e-001 -5.468750e-002  1.215413e-002
    endloop
  endfacet
  facet normal -6.251163e-001  7.053982e-001  3.341301e-001
    outer loop
      vertex -5.517507e-001  2.290629e-017 -2.471187e-002
      vertex -5.937564e-001 -5.468750e-002  1.215413e-002
      vertex -5.482854e-001  2.369590e-017 -1.822862e-002
    endloop
  endfacet
  facet normal -5.479193e-001  7.053983e-001  4.496638e-001
    outer loop
      vertex -5.937564e-001 -5.468750e-002  1.215413e-002
      vertex -5.436218e-001  2.456854e-017 -1.254600e-002
      vertex -5.482854e-001  2.369590e-017 -1.822862e-002
    endloop
  endfacet
  facet normal -6.782901e-001  7.053984e-001  2.057564e-001
    outer loop
      vertex -6.075214e-001 -5.468750e-002 -2.107761e-002
      vertex -6.022754e-001 -5.468750e-002 -3.783871e-003
      vertex -5.538847e-001  2.223005e-017 -3.174661e-002
    endloop
  endfacet
  facet normal -6.782898e-001  7.053984e-001  2.057569e-001
    outer loop
      vertex -5.538847e-001  2.223005e-017 -3.174661e-002
      vertex -6.022754e-001 -5.468750e-002 -3.783871e-003
      vertex -5.517507e-001  2.290629e-017 -2.471187e-002
    endloop
  endfacet
  facet normal  5.479181e-001  7.053981e-001  4.496657e-001
    outer loop
      vertex -4.519189e-001 -5.468750e-002  2.612391e-002
      vertex -4.859251e-001  3.061927e-017 -1.822862e-002
      vertex -4.905888e-001  3.045639e-017 -1.254600e-002
    endloop
  endfacet
  facet normal  4.496657e-001  7.053982e-001  5.479182e-001
    outer loop
      vertex -4.905888e-001  3.045639e-017 -1.254600e-002
      vertex -4.658886e-001 -5.468750e-002  3.758860e-002
      vertex -4.519189e-001 -5.468750e-002  2.612391e-002
    endloop
  endfacet
  facet normal  6.947522e-002  7.053982e-001  7.053982e-001
    outer loop
      vertex -5.171053e-001 -5.468750e-002  5.312500e-002
      vertex -5.097893e-001  2.896562e-017 -2.283052e-003
      vertex -5.171053e-001  2.819839e-017 -1.562500e-003
    endloop
  endfacet
  facet normal -6.947574e-002  7.053982e-001  7.053982e-001
    outer loop
      vertex -5.171053e-001  2.819839e-017 -1.562500e-003
      vertex -5.350901e-001 -5.468750e-002  5.135364e-002
      vertex -5.171053e-001 -5.468750e-002  5.312500e-002
    endloop
  endfacet
  facet normal -4.496639e-001  7.053980e-001  5.479196e-001
    outer loop
      vertex -5.822917e-001 -5.468750e-002  2.612391e-002
      vertex -5.379391e-001  2.549068e-017 -7.882389e-003
      vertex -5.436218e-001  2.456854e-017 -1.254600e-002
    endloop
  endfacet
  facet normal -5.479183e-001  7.053981e-001  4.496655e-001
    outer loop
      vertex -5.436218e-001  2.456854e-017 -1.254600e-002
      vertex -5.937564e-001 -5.468750e-002  1.215413e-002
      vertex -5.822917e-001 -5.468750e-002  2.612391e-002
    endloop
  endfacet
  facet normal -7.053983e-001  7.053983e-001 -6.947464e-002
    outer loop
      vertex -5.546052e-001  2.169317e-017 -3.906250e-002
      vertex -6.075214e-001 -5.468750e-002 -5.704739e-002
      vertex -6.092927e-001 -5.468750e-002 -3.906250e-002
    endloop
  endfacet
  facet normal -7.053978e-001  7.053984e-001 -6.947646e-002
    outer loop
      vertex -5.546052e-001  2.169317e-017 -3.906250e-002
      vertex -5.538847e-001  2.131629e-017 -4.637839e-002
      vertex -6.075214e-001 -5.468750e-002 -5.704739e-002
    endloop
  endfacet
  facet normal  7.053981e-001  7.053981e-001 -6.947649e-002
    outer loop
      vertex -4.249178e-001 -5.468750e-002 -3.906250e-002
      vertex -4.803258e-001  2.948297e-017 -4.637839e-002
      vertex -4.796053e-001  3.001985e-017 -3.906250e-002
    endloop
  endfacet
  facet normal  7.053981e-001  7.053982e-001 -6.947579e-002
    outer loop
      vertex -4.249178e-001 -5.468750e-002 -3.906250e-002
      vertex -4.266891e-001 -5.468750e-002 -5.704739e-002
      vertex -4.803258e-001  2.948297e-017 -4.637839e-002
    endloop
  endfacet
  facet normal -6.782900e-001  7.053984e-001 -2.057565e-001
    outer loop
      vertex -5.517507e-001  2.111389e-017 -5.341313e-002
      vertex -6.022754e-001 -5.468750e-002 -7.434113e-002
      vertex -6.075214e-001 -5.468750e-002 -5.704739e-002
    endloop
  endfacet
  facet normal -6.782899e-001  7.053984e-001 -2.057569e-001
    outer loop
      vertex -5.517507e-001  2.111389e-017 -5.341313e-002
      vertex -6.075214e-001 -5.468750e-002 -5.704739e-002
      vertex -5.538847e-001  2.131629e-017 -4.637839e-002
    endloop
  endfacet
  facet normal -5.479181e-001  7.053983e-001 -4.496655e-001
    outer loop
      vertex -5.482854e-001  2.109375e-017 -5.989638e-002
      vertex -5.822917e-001 -5.468750e-002 -1.042489e-001
      vertex -5.937564e-001 -5.468750e-002 -9.027913e-002
    endloop
  endfacet
  facet normal -6.251155e-001  7.053983e-001 -3.341316e-001
    outer loop
      vertex -5.937564e-001 -5.468750e-002 -9.027913e-002
      vertex -6.022754e-001 -5.468750e-002 -7.434113e-002
      vertex -5.482854e-001  2.109375e-017 -5.989638e-002
    endloop
  endfacet
  facet normal -6.251161e-001  7.053985e-001 -3.341299e-001
    outer loop
      vertex -5.482854e-001  2.109375e-017 -5.989638e-002
      vertex -6.022754e-001 -5.468750e-002 -7.434113e-002
      vertex -5.517507e-001  2.111389e-017 -5.341313e-002
    endloop
  endfacet
  facet normal -3.341316e-001  7.053982e-001 -6.251156e-001
    outer loop
      vertex -5.314559e-001  2.209966e-017 -7.370798e-002
      vertex -5.523839e-001 -5.468750e-002 -1.242326e-001
      vertex -5.683219e-001 -5.468750e-002 -1.157136e-001
    endloop
  endfacet
  facet normal -3.341310e-001  7.053981e-001 -6.251159e-001
    outer loop
      vertex -5.314559e-001  2.209966e-017 -7.370798e-002
      vertex -5.683219e-001 -5.468750e-002 -1.157136e-001
      vertex -5.379391e-001  2.159628e-017 -7.024261e-002
    endloop
  endfacet
  facet normal -4.496640e-001  7.053983e-001 -5.479194e-001
    outer loop
      vertex -5.683219e-001 -5.468750e-002 -1.157136e-001
      vertex -5.436218e-001  2.125663e-017 -6.557900e-002
      vertex -5.379391e-001  2.159628e-017 -7.024261e-002
    endloop
  endfacet
  facet normal -6.947530e-002  7.053982e-001 -7.053982e-001
    outer loop
      vertex -5.244212e-001  2.274741e-017 -7.584195e-002
      vertex -5.171053e-001 -5.468750e-002 -1.312500e-001
      vertex -5.350901e-001 -5.468750e-002 -1.294786e-001
    endloop
  endfacet
  facet normal -2.057572e-001  7.053982e-001 -6.782901e-001
    outer loop
      vertex -5.350901e-001 -5.468750e-002 -1.294786e-001
      vertex -5.523839e-001 -5.468750e-002 -1.242326e-001
      vertex -5.244212e-001  2.274741e-017 -7.584195e-002
    endloop
  endfacet
  facet normal -2.057576e-001  7.053982e-001 -6.782898e-001
    outer loop
      vertex -5.244212e-001  2.274741e-017 -7.584195e-002
      vertex -5.523839e-001 -5.468750e-002 -1.242326e-001
      vertex -5.314559e-001  2.209966e-017 -7.370798e-002
    endloop
  endfacet
  facet normal  2.057572e-001  7.053981e-001 -6.782901e-001
    outer loop
      vertex -5.027546e-001  2.528614e-017 -7.370798e-002
      vertex -4.818266e-001 -5.468750e-002 -1.242326e-001
      vertex -4.991204e-001 -5.468750e-002 -1.294786e-001
    endloop
  endfacet
  facet normal  2.057577e-001  7.053981e-001 -6.782900e-001
    outer loop
      vertex -5.027546e-001  2.528614e-017 -7.370798e-002
      vertex -4.991204e-001 -5.468750e-002 -1.294786e-001
      vertex -5.097893e-001  2.437186e-017 -7.584195e-002
    endloop
  endfacet
  facet normal  6.947532e-002  7.053981e-001 -7.053982e-001
    outer loop
      vertex -4.991204e-001 -5.468750e-002 -1.294786e-001
      vertex -5.171053e-001  2.351463e-017 -7.656250e-002
      vertex -5.097893e-001  2.437186e-017 -7.584195e-002
    endloop
  endfacet
  facet normal  4.496657e-001  7.053981e-001 -5.479181e-001
    outer loop
      vertex -4.962714e-001  2.622234e-017 -7.024261e-002
      vertex -4.519189e-001 -5.468750e-002 -1.042489e-001
      vertex -4.658886e-001 -5.468750e-002 -1.157136e-001
    endloop
  endfacet
  facet normal  3.341311e-001  7.053981e-001 -6.251159e-001
    outer loop
      vertex -4.658886e-001 -5.468750e-002 -1.157136e-001
      vertex -4.818266e-001 -5.468750e-002 -1.242326e-001
      vertex -4.962714e-001  2.622234e-017 -7.024261e-002
    endloop
  endfacet
  facet normal  3.341310e-001  7.053981e-001 -6.251159e-001
    outer loop
      vertex -4.962714e-001  2.622234e-017 -7.024261e-002
      vertex -4.818266e-001 -5.468750e-002 -1.242326e-001
      vertex -5.027546e-001  2.528614e-017 -7.370798e-002
    endloop
  endfacet
  facet normal  6.251161e-001  7.053981e-001 -3.341308e-001
    outer loop
      vertex -4.824598e-001  2.880673e-017 -5.341313e-002
      vertex -4.319351e-001 -5.468750e-002 -7.434113e-002
      vertex -4.404542e-001 -5.468750e-002 -9.027913e-002
    endloop
  endfacet
  facet normal  6.251165e-001  7.053981e-001 -3.341302e-001
    outer loop
      vertex -4.824598e-001  2.880673e-017 -5.341313e-002
      vertex -4.404542e-001 -5.468750e-002 -9.027913e-002
      vertex -4.859251e-001  2.801712e-017 -5.989638e-002
    endloop
  endfacet
  facet normal  5.479181e-001  7.053981e-001 -4.496658e-001
    outer loop
      vertex -4.404542e-001 -5.468750e-002 -9.027913e-002
      vertex -4.905888e-001  2.714448e-017 -6.557900e-002
      vertex -4.859251e-001  2.801712e-017 -5.989638e-002
    endloop
  endfacet
  facet normal  6.782899e-001  7.053982e-001 -2.057576e-001
    outer loop
      vertex -4.266891e-001 -5.468750e-002 -5.704739e-002
      vertex -4.319351e-001 -5.468750e-002 -7.434113e-002
      vertex -4.803258e-001  2.948297e-017 -4.637839e-002
    endloop
  endfacet
  facet normal  6.782902e-001  7.053981e-001 -2.057570e-001
    outer loop
      vertex -4.803258e-001  2.948297e-017 -4.637839e-002
      vertex -4.319351e-001 -5.468750e-002 -7.434113e-002
      vertex -4.824598e-001  2.880673e-017 -5.341313e-002
    endloop
  endfacet
  facet normal -5.479196e-001  7.053980e-001 -4.496641e-001
    outer loop
      vertex -5.822917e-001 -5.468750e-002 -1.042489e-001
      vertex -5.482854e-001  2.109375e-017 -5.989638e-002
      vertex -5.436218e-001  2.125663e-017 -6.557900e-002
    endloop
  endfacet
  facet normal -4.496651e-001  7.053981e-001 -5.479186e-001
    outer loop
      vertex -5.436218e-001  2.125663e-017 -6.557900e-002
      vertex -5.683219e-001 -5.468750e-002 -1.157136e-001
      vertex -5.822917e-001 -5.468750e-002 -1.042489e-001
    endloop
  endfacet
  facet normal -6.947589e-002  7.053981e-001 -7.053982e-001
    outer loop
      vertex -5.171053e-001 -5.468750e-002 -1.312500e-001
      vertex -5.244212e-001  2.274741e-017 -7.584195e-002
      vertex -5.171053e-001  2.351463e-017 -7.656250e-002
    endloop
  endfacet
  facet normal  6.947519e-002  7.053981e-001 -7.053982e-001
    outer loop
      vertex -5.171053e-001  2.351463e-017 -7.656250e-002
      vertex -4.991204e-001 -5.468750e-002 -1.294786e-001
      vertex -5.171053e-001 -5.468750e-002 -1.312500e-001
    endloop
  endfacet
  facet normal  4.496655e-001  7.053981e-001 -5.479184e-001
    outer loop
      vertex -4.519189e-001 -5.468750e-002 -1.042489e-001
      vertex -4.962714e-001  2.622234e-017 -7.024261e-002
      vertex -4.905888e-001  2.714448e-017 -6.557900e-002
    endloop
  endfacet
  facet normal  5.479182e-001  7.053981e-001 -4.496656e-001
    outer loop
      vertex -4.905888e-001  2.714448e-017 -6.557900e-002
      vertex -4.404542e-001 -5.468750e-002 -9.027913e-002
      vertex -4.519189e-001 -5.468750e-002 -1.042489e-001
    endloop
  endfacet
  facet normal  0.000000e+000 -1.000000e+000  0.000000e+000
    outer loop
      vertex -5.350901e-001 -1.796875e-001  5.135364e-002
      vertex -4.991204e-001 -1.796875e-001  5.135364e-002
      vertex -5.171053e-001 -1.796875e-001  5.312500e-002
    endloop
  endfacet
  facet normal  0.000000e+000 -1.000000e+000  -0.000000e+000
    outer loop
      vertex -4.991204e-001 -1.796875e-001  5.135364e-002
      vertex -5.350901e-001 -1.796875e-001  5.135364e-002
      vertex -5.523839e-001 -1.796875e-001  4.610765e-002
    endloop
  endfacet
  facet normal  0.000000e+000 -9.999999e-001  0.000000e+000
    outer loop
      vertex -4.991204e-001 -1.796875e-001  5.135364e-002
      vertex -5.523839e-001 -1.796875e-001  4.610765e-002
      vertex -4.818266e-001 -1.796875e-001  4.610765e-002
    endloop
  endfacet
  facet normal  0.000000e+000 -1.000000e+000  -0.000000e+000
    outer loop
      vertex -4.818266e-001 -1.796875e-001  4.610765e-002
      vertex -5.523839e-001 -1.796875e-001  4.610765e-002
      vertex -5.683219e-001 -1.796875e-001  3.758860e-002
    endloop
  endfacet
  facet normal  0.000000e+000 -9.999999e-001  0.000000e+000
    outer loop
      vertex -4.818266e-001 -1.796875e-001  4.610765e-002
      vertex -5.683219e-001 -1.796875e-001  3.758860e-002
      vertex -4.658886e-001 -1.796875e-001  3.758860e-002
    endloop
  endfacet
  facet normal  0.000000e+000 -1.000000e+000  0.000000e+000
    outer loop
      vertex -4.658886e-001 -1.796875e-001 -1.157136e-001
      vertex -5.523839e-001 -1.796875e-001 -1.242326e-001
      vertex -4.818266e-001 -1.796875e-001 -1.242326e-001
    endloop
  endfacet
  facet normal  0.000000e+000 -1.000000e+000  0.000000e+000
    outer loop
      vertex -4.818266e-001 -1.796875e-001 -1.242326e-001
      vertex -5.523839e-001 -1.796875e-001 -1.242326e-001
      vertex -5.350901e-001 -1.796875e-001 -1.294786e-001
    endloop
  endfacet
  facet normal  0.000000e+000 -9.999999e-001  0.000000e+000
    outer loop
      vertex -4.818266e-001 -1.796875e-001 -1.242326e-001
      vertex -5.350901e-001 -1.796875e-001 -1.294786e-001
      vertex -4.991204e-001 -1.796875e-001 -1.294786e-001
    endloop
  endfacet
  facet normal  0.000000e+000 -1.000000e+000  0.000000e+000
    outer loop
      vertex -4.991204e-001 -1.796875e-001 -1.294786e-001
      vertex -5.350901e-001 -1.796875e-001 -1.294786e-001
      vertex -5.171053e-001 -1.796875e-001 -1.312500e-001
    endloop
  endfacet
  facet normal  0.000000e+000 -1.000000e+000  0.000000e+000
    outer loop
      vertex -4.658886e-001 -1.796875e-001  3.758860e-002
      vertex -5.683219e-001 -1.796875e-001  3.758860e-002
      vertex -4.519189e-001 -1.796875e-001  2.612391e-002
    endloop
  endfacet
  facet normal  0.000000e+000 -1.000000e+000  0.000000e+000
    outer loop
      vertex -4.519189e-001 -1.796875e-001  2.612391e-002
      vertex -5.683219e-001 -1.796875e-001  3.758860e-002
      vertex -5.822917e-001 -1.796875e-001  2.612391e-002
    endloop
  endfacet
  facet normal  0.000000e+000 -1.000000e+000  0.000000e+000
    outer loop
      vertex -4.519189e-001 -1.796875e-001  2.612391e-002
      vertex -5.822917e-001 -1.796875e-001  2.612391e-002
      vertex -4.404542e-001 -1.796875e-001  1.215413e-002
    endloop
  endfacet
  facet normal  0.000000e+000 -1.000000e+000  0.000000e+000
    outer loop
      vertex -4.404542e-001 -1.796875e-001  1.215413e-002
      vertex -5.822917e-001 -1.796875e-001  2.612391e-002
      vertex -5.937564e-001 -1.796875e-001  1.215413e-002
    endloop
  endfacet
  facet normal  0.000000e+000 -1.000000e+000  0.000000e+000
    outer loop
      vertex -4.404542e-001 -1.796875e-001  1.215413e-002
      vertex -5.937564e-001 -1.796875e-001  1.215413e-002
      vertex -4.319351e-001 -1.796875e-001 -3.783871e-003
    endloop
  endfacet
  facet normal  0.000000e+000 -1.000000e+000  0.000000e+000
    outer loop
      vertex -4.319351e-001 -1.796875e-001 -3.783871e-003
      vertex -5.937564e-001 -1.796875e-001  1.215413e-002
      vertex -6.022754e-001 -1.796875e-001 -3.783871e-003
    endloop
  endfacet
  facet normal  0.000000e+000 -1.000000e+000  0.000000e+000
    outer loop
      vertex -4.319351e-001 -1.796875e-001 -3.783871e-003
      vertex -6.022754e-001 -1.796875e-001 -3.783871e-003
      vertex -4.266891e-001 -1.796875e-001 -2.107761e-002
    endloop
  endfacet
  facet normal  0.000000e+000 -1.000000e+000  0.000000e+000
    outer loop
      vertex -4.266891e-001 -1.796875e-001 -2.107761e-002
      vertex -6.022754e-001 -1.796875e-001 -3.783871e-003
      vertex -6.075214e-001 -1.796875e-001 -2.107761e-002
    endloop
  endfacet
  facet normal  0.000000e+000 -9.999999e-001  0.000000e+000
    outer loop
      vertex -4.266891e-001 -1.796875e-001 -2.107761e-002
      vertex -6.075214e-001 -1.796875e-001 -2.107761e-002
      vertex -4.249178e-001 -1.796875e-001 -3.906250e-002
    endloop
  endfacet
  facet normal  0.000000e+000 -1.000000e+000  0.000000e+000
    outer loop
      vertex -4.249178e-001 -1.796875e-001 -3.906250e-002
      vertex -6.075214e-001 -1.796875e-001 -2.107761e-002
      vertex -6.092927e-001 -1.796875e-001 -3.906250e-002
    endloop
  endfacet
  facet normal  0.000000e+000 -1.000000e+000  0.000000e+000
    outer loop
      vertex -4.249178e-001 -1.796875e-001 -3.906250e-002
      vertex -6.092927e-001 -1.796875e-001 -3.906250e-002
      vertex -4.266891e-001 -1.796875e-001 -5.704739e-002
    endloop
  endfacet
  facet normal  0.000000e+000 -9.999999e-001  0.000000e+000
    outer loop
      vertex -4.266891e-001 -1.796875e-001 -5.704739e-002
      vertex -6.092927e-001 -1.796875e-001 -3.906250e-002
      vertex -6.075214e-001 -1.796875e-001 -5.704739e-002
    endloop
  endfacet
  facet normal  0.000000e+000 -1.000000e+000  0.000000e+000
    outer loop
      vertex -4.266891e-001 -1.796875e-001 -5.704739e-002
      vertex -6.075214e-001 -1.796875e-001 -5.704739e-002
      vertex -4.319351e-001 -1.796875e-001 -7.434113e-002
    endloop
  endfacet
  facet normal  0.000000e+000 -1.000000e+000  0.000000e+000
    outer loop
      vertex -4.319351e-001 -1.796875e-001 -7.434113e-002
      vertex -6.075214e-001 -1.796875e-001 -5.704739e-002
      vertex -6.022754e-001 -1.796875e-001 -7.434113e-002
    endloop
  endfacet
  facet normal  0.000000e+000 -1.000000e+000  0.000000e+000
    outer loop
      vertex -4.319351e-001 -1.796875e-001 -7.434113e-002
      vertex -6.022754e-001 -1.796875e-001 -7.434113e-002
      vertex -4.404542e-001 -1.796875e-001 -9.027913e-002
    endloop
  endfacet
  facet normal  0.000000e+000 -1.000000e+000  0.000000e+000
    outer loop
      vertex -4.404542e-001 -1.796875e-001 -9.027913e-002
      vertex -6.022754e-001 -1.796875e-001 -7.434113e-002
      vertex -5.937564e-001 -1.796875e-001 -9.027913e-002
    endloop
  endfacet
  facet normal  0.000000e+000 -1.000000e+000  0.000000e+000
    outer loop
      vertex -4.404542e-001 -1.796875e-001 -9.027913e-002
      vertex -5.937564e-001 -1.796875e-001 -9.027913e-002
      vertex -4.519189e-001 -1.796875e-001 -1.042489e-001
    endloop
  endfacet
  facet normal  0.000000e+000 -9.999999e-001  0.000000e+000
    outer loop
      vertex -4.519189e-001 -1.796875e-001 -1.042489e-001
      vertex -5.937564e-001 -1.796875e-001 -9.027913e-002
      vertex -5.822917e-001 -1.796875e-001 -1.042489e-001
    endloop
  endfacet
  facet normal  0.000000e+000 -1.000000e+000  0.000000e+000
    outer loop
      vertex -4.519189e-001 -1.796875e-001 -1.042489e-001
      vertex -5.822917e-001 -1.796875e-001 -1.042489e-001
      vertex -4.658886e-001 -1.796875e-001 -1.157136e-001
    endloop
  endfacet
  facet normal  0.000000e+000 -9.999999e-001  0.000000e+000
    outer loop
      vertex -4.658886e-001 -1.796875e-001 -1.157136e-001
      vertex -5.822917e-001 -1.796875e-001 -1.042489e-001
      vertex -5.683219e-001 -1.796875e-001 -1.157136e-001
    endloop
  endfacet
  facet normal  0.000000e+000 -1.000000e+000  0.000000e+000
    outer loop
      vertex -4.658886e-001 -1.796875e-001 -1.157136e-001
      vertex -5.683219e-001 -1.796875e-001 -1.157136e-001
      vertex -5.523839e-001 -1.796875e-001 -1.242326e-001
    endloop
  endfacet
  facet normal  0.000000e+000 -1.000000e+000  0.000000e+000
    outer loop
      vertex  3.042763e-003 -1.796875e-001  1.892270e-001
      vertex -5.234375e-001 -1.796875e-001  1.892270e-001
      vertex -4.783068e-001 -1.796875e-001  1.847820e-001
    endloop
  endfacet
  facet normal  0.000000e+000 -1.000000e+000  0.000000e+000
    outer loop
      vertex  3.042763e-003 -1.796875e-001  1.892270e-001
      vertex -4.783068e-001 -1.796875e-001  1.847820e-001
      vertex -4.349105e-001 -1.796875e-001  1.716179e-001
    endloop
  endfacet
  facet normal  0.000000e+000 -1.000000e+000  0.000000e+000
    outer loop
      vertex  3.042763e-003 -1.796875e-001  1.892270e-001
      vertex -4.349105e-001 -1.796875e-001  1.716179e-001
      vertex -3.949162e-001 -1.796875e-001  1.502405e-001
    endloop
  endfacet
  facet normal  0.000000e+000 -1.000000e+000  0.000000e+000
    outer loop
      vertex  3.042763e-003 -1.796875e-001  1.892270e-001
      vertex -3.949162e-001 -1.796875e-001  1.502405e-001
      vertex  7.487747e-003 -1.796875e-001  1.440963e-001
    endloop
  endfacet
  facet normal  0.000000e+000 -1.000000e+000  0.000000e+000
    outer loop
      vertex -2.921053e-001 -1.796875e-001 -4.210526e-002
      vertex -2.965502e-001 -1.796875e-001 -8.723594e-002
      vertex  2.343750e-001 -1.796875e-001 -2.734375e-001
    endloop
  endfacet
  facet normal  0.000000e+000 -1.000000e+000  0.000000e+000
    outer loop
      vertex -2.921053e-001 -1.796875e-001 -4.210526e-002
      vertex  2.343750e-001 -1.796875e-001 -2.734375e-001
      vertex  2.343750e-001 -1.796875e-001 -4.210526e-002
    endloop
  endfacet
  facet normal  0.000000e+000 -1.000000e+000  0.000000e+000
    outer loop
      vertex -2.921053e-001 -1.796875e-001 -4.210526e-002
      vertex  2.343750e-001 -1.796875e-001 -4.210526e-002
      vertex  1.892443e-001 -1.796875e-001 -3.766028e-002
    endloop
  endfacet
  facet normal  -0.000000e+000 -1.000000e+000  0.000000e+000
    outer loop
      vertex -2.921053e-001 -1.796875e-001 -4.210526e-002
      vertex  1.892443e-001 -1.796875e-001 -3.766028e-002
      vertex  1.458480e-001 -1.796875e-001 -2.449615e-002
    endloop
  endfacet
  facet normal  -0.000000e+000 -1.000000e+000  0.000000e+000
    outer loop
      vertex -2.921053e-001 -1.796875e-001 -4.210526e-002
      vertex  1.458480e-001 -1.796875e-001 -2.449615e-002
      vertex  1.058537e-001 -1.796875e-001 -3.118752e-003
    endloop
  endfacet
  facet normal  -0.000000e+000 -1.000000e+000  0.000000e+000
    outer loop
      vertex -2.921053e-001 -1.796875e-001 -4.210526e-002
      vertex  1.058537e-001 -1.796875e-001 -3.118752e-003
      vertex -2.965502e-001 -1.796875e-001  3.025417e-003
    endloop
  endfacet
  facet normal  0.000000e+000 -1.000000e+000  -0.000000e+000
    outer loop
      vertex  2.343750e-001 -1.796875e-001 -2.734375e-001
      vertex -2.965502e-001 -1.796875e-001 -8.723594e-002
      vertex -3.097144e-001 -1.796875e-001 -1.306323e-001
    endloop
  endfacet
  facet normal  0.000000e+000 -9.999999e-001  -0.000000e+000
    outer loop
      vertex  2.343750e-001 -1.796875e-001 -2.734375e-001
      vertex -3.097144e-001 -1.796875e-001 -1.306323e-001
      vertex -3.310918e-001 -1.796875e-001 -1.706266e-001
    endloop
  endfacet
  facet normal  0.000000e+000 -1.000000e+000  -0.000000e+000
    outer loop
      vertex  2.343750e-001 -1.796875e-001 -2.734375e-001
      vertex -3.310918e-001 -1.796875e-001 -1.706266e-001
      vertex -3.598609e-001 -1.796875e-001 -2.056819e-001
    endloop
  endfacet
  facet normal  0.000000e+000 -1.000000e+000  -0.000000e+000
    outer loop
      vertex  2.343750e-001 -1.796875e-001 -2.734375e-001
      vertex -3.598609e-001 -1.796875e-001 -2.056819e-001
      vertex -3.949162e-001 -1.796875e-001 -2.344510e-001
    endloop
  endfacet
  facet normal  0.000000e+000 -1.000000e+000  -0.000000e+000
    outer loop
      vertex  2.343750e-001 -1.796875e-001 -2.734375e-001
      vertex -3.949162e-001 -1.796875e-001 -2.344510e-001
      vertex -4.349105e-001 -1.796875e-001 -2.558284e-001
    endloop
  endfacet
  facet normal  0.000000e+000 -1.000000e+000  -0.000000e+000
    outer loop
      vertex  2.343750e-001 -1.796875e-001 -2.734375e-001
      vertex -4.349105e-001 -1.796875e-001 -2.558284e-001
      vertex -4.783068e-001 -1.796875e-001 -2.689925e-001
    endloop
  endfacet
  facet normal  0.000000e+000 -1.000000e+000  -0.000000e+000
    outer loop
      vertex  2.343750e-001 -1.796875e-001 -2.734375e-001
      vertex -4.783068e-001 -1.796875e-001 -2.689925e-001
      vertex -5.234375e-001 -1.796875e-001 -2.734375e-001
    endloop
  endfacet
  facet normal  0.000000e+000 -1.000000e+000  0.000000e+000
    outer loop
      vertex  7.487747e-003 -1.796875e-001  1.440963e-001
      vertex -3.949162e-001 -1.796875e-001  1.502405e-001
      vertex  2.065188e-002 -1.796875e-001  1.007000e-001
    endloop
  endfacet
  facet normal  0.000000e+000 -1.000000e+000  0.000000e+000
    outer loop
      vertex  2.065188e-002 -1.796875e-001  1.007000e-001
      vertex -3.949162e-001 -1.796875e-001  1.502405e-001
      vertex -3.598609e-001 -1.796875e-001  1.214713e-001
    endloop
  endfacet
  facet normal  0.000000e+000 -9.999999e-001  0.000000e+000
    outer loop
      vertex  2.065188e-002 -1.796875e-001  1.007000e-001
      vertex -3.598609e-001 -1.796875e-001  1.214713e-001
      vertex -3.310918e-001 -1.796875e-001  8.641604e-002
    endloop
  endfacet
  facet normal  0.000000e+000 -1.000000e+000  0.000000e+000
    outer loop
      vertex  2.065188e-002 -1.796875e-001  1.007000e-001
      vertex -3.310918e-001 -1.796875e-001  8.641604e-002
      vertex  4.202928e-002 -1.796875e-001  6.070567e-002
    endloop
  endfacet
  facet normal  -0.000000e+000 -1.000000e+000  0.000000e+000
    outer loop
      vertex  4.202928e-002 -1.796875e-001  6.070567e-002
      vertex -3.310918e-001 -1.796875e-001  8.641604e-002
      vertex -3.097144e-001 -1.796875e-001  4.642175e-002
    endloop
  endfacet
  facet normal  0.000000e+000 -1.000000e+000  0.000000e+000
    outer loop
      vertex  4.202928e-002 -1.796875e-001  6.070567e-002
      vertex -3.097144e-001 -1.796875e-001  4.642175e-002
      vertex  7.079840e-002 -1.796875e-001  2.565038e-002
    endloop
  endfacet
  facet normal  -0.000000e+000 -1.000000e+000  0.000000e+000
    outer loop
      vertex  7.079840e-002 -1.796875e-001  2.565038e-002
      vertex -3.097144e-001 -1.796875e-001  4.642175e-002
      vertex -2.965502e-001 -1.796875e-001  3.025417e-003
    endloop
  endfacet
  facet normal  0.000000e+000 -1.000000e+000  0.000000e+000
    outer loop
      vertex  7.079840e-002 -1.796875e-001  2.565038e-002
      vertex -2.965502e-001 -1.796875e-001  3.025417e-003
      vertex  1.058537e-001 -1.796875e-001 -3.118752e-003
    endloop
  endfacet
  facet normal -1.114427e-016  1.000000e+000 -5.555256e-017
    outer loop
      vertex  3.042763e-003  8.533926e-017  1.892270e-001
      vertex  7.487747e-003  8.332750e-017  1.440963e-001
      vertex -3.949162e-001  3.882385e-017  1.502405e-001
    endloop
  endfacet
  facet normal -1.113810e-016  1.000000e+000 -5.618222e-017
    outer loop
      vertex  3.042763e-003  8.533926e-017  1.892270e-001
      vertex -3.949162e-001  3.882385e-017  1.502405e-001
      vertex -4.349105e-001  3.557028e-017  1.716179e-001
    endloop
  endfacet
  facet normal -1.113628e-016  1.000000e+000 -5.663386e-017
    outer loop
      vertex  3.042763e-003  8.533926e-017  1.892270e-001
      vertex -4.349105e-001  3.557028e-017  1.716179e-001
      vertex -4.783068e-001  3.148307e-017  1.847820e-001
    endloop
  endfacet
  facet normal -1.133114e-016  1.000000e+000  1.543794e-016
    outer loop
      vertex  3.042763e-003  8.533926e-017  1.892270e-001
      vertex -4.783068e-001  3.148307e-017  1.847820e-001
      vertex -5.234375e-001  2.568304e-017  1.892270e-001
    endloop
  endfacet
  facet normal -1.114427e-016  1.000000e+000 -5.555254e-017
    outer loop
      vertex -2.921053e-001  3.956083e-017 -4.210526e-002
      vertex -2.965502e-001  4.157259e-017  3.025417e-003
      vertex  1.058537e-001  8.607624e-017 -3.118752e-003
    endloop
  endfacet
  facet normal -1.113810e-016  1.000000e+000 -5.618206e-017
    outer loop
      vertex -2.921053e-001  3.956083e-017 -4.210526e-002
      vertex  1.058537e-001  8.607624e-017 -3.118752e-003
      vertex  1.458480e-001  8.932982e-017 -2.449615e-002
    endloop
  endfacet
  facet normal -1.113628e-016  1.000000e+000 -5.663366e-017
    outer loop
      vertex -2.921053e-001  3.956083e-017 -4.210526e-002
      vertex  1.458480e-001  8.932982e-017 -2.449615e-002
      vertex  1.892443e-001  9.341702e-017 -3.766028e-002
    endloop
  endfacet
  facet normal -1.090540e-016  1.000000e+000 -3.066595e-016
    outer loop
      vertex -2.921053e-001  3.956083e-017 -4.210526e-002
      vertex  1.892443e-001  9.341702e-017 -3.766028e-002
      vertex  2.343750e-001  9.697560e-017 -4.210526e-002
    endloop
  endfacet
  facet normal -1.090540e-016  1.000000e+000 -5.551114e-017
    outer loop
      vertex -2.921053e-001  3.956083e-017 -4.210526e-002
      vertex  2.343750e-001  9.697560e-017 -4.210526e-002
      vertex  2.343750e-001  8.413409e-017 -2.734375e-001
    endloop
  endfacet
  facet normal -1.091356e-016  1.000000e+000 -5.569688e-017
    outer loop
      vertex -2.921053e-001  3.956083e-017 -4.210526e-002
      vertex  2.343750e-001  8.413409e-017 -2.734375e-001
      vertex -2.965502e-001  3.656208e-017 -8.723594e-002
    endloop
  endfacet
  facet normal -1.110223e-016  1.000000e+000 -2.886434e-016
    outer loop
      vertex  2.343750e-001  8.413409e-017 -2.734375e-001
      vertex -5.234375e-001  0.000000e+000 -2.734375e-001
      vertex -4.783068e-001  6.293527e-018 -2.689925e-001
    endloop
  endfacet
  facet normal -1.095975e-016  1.000000e+000 -6.020777e-017
    outer loop
      vertex  2.343750e-001  8.413409e-017 -2.734375e-001
      vertex -4.783068e-001  6.293527e-018 -2.689925e-001
      vertex -4.349105e-001  1.184224e-017 -2.558284e-001
    endloop
  endfacet
  facet normal -1.095466e-016  9.999999e-001 -5.827202e-017
    outer loop
      vertex  2.343750e-001  8.413409e-017 -2.734375e-001
      vertex -4.349105e-001  1.184224e-017 -2.558284e-001
      vertex -3.949162e-001  1.746919e-017 -2.344510e-001
    endloop
  endfacet
  facet normal -1.094912e-016  1.000000e+000 -5.737682e-017
    outer loop
      vertex  2.343750e-001  8.413409e-017 -2.734375e-001
      vertex -3.949162e-001  1.746919e-017 -2.344510e-001
      vertex -3.598609e-001  2.295811e-017 -2.056819e-001
    endloop
  endfacet
  facet normal -1.094277e-016  1.000000e+000 -5.681982e-017
    outer loop
      vertex  2.343750e-001  8.413409e-017 -2.734375e-001
      vertex -3.598609e-001  2.295811e-017 -2.056819e-001
      vertex -3.310918e-001  2.809809e-017 -1.706266e-001
    endloop
  endfacet
  facet normal -1.093520e-016  9.999999e-001 -5.640394e-017
    outer loop
      vertex  2.343750e-001  8.413409e-017 -2.734375e-001
      vertex -3.310918e-001  2.809809e-017 -1.706266e-001
      vertex -3.097144e-001  3.269158e-017 -1.306323e-001
    endloop
  endfacet
  facet normal -1.092582e-016  9.999999e-001 -5.604631e-017
    outer loop
      vertex  2.343750e-001  8.413409e-017 -2.734375e-001
      vertex -3.097144e-001  3.269158e-017 -1.306323e-001
      vertex -2.965502e-001  3.656208e-017 -8.723594e-002
    endloop
  endfacet
  facet normal -1.114870e-016  9.999999e-001 -5.589262e-017
    outer loop
      vertex -3.310918e-001  4.236682e-017  8.641604e-002
      vertex -3.598609e-001  4.111876e-017  1.214713e-001
      vertex  2.065188e-002  8.238004e-017  1.007000e-001
    endloop
  endfacet
  facet normal -1.114978e-016  1.000000e+000 -5.609059e-017
    outer loop
      vertex  2.065188e-002  8.238004e-017  1.007000e-001
      vertex -3.598609e-001  4.111876e-017  1.214713e-001
      vertex -3.949162e-001  3.882385e-017  1.502405e-001
    endloop
  endfacet
  facet normal -1.114440e-016  1.000000e+000 -5.563901e-017
    outer loop
      vertex  2.065188e-002  8.238004e-017  1.007000e-001
      vertex -3.949162e-001  3.882385e-017  1.502405e-001
      vertex  7.487747e-003  8.332750e-017  1.440963e-001
    endloop
  endfacet
  facet normal -1.114500e-016  1.000000e+000 -5.603243e-017
    outer loop
      vertex  1.058537e-001  8.607624e-017 -3.118752e-003
      vertex -2.965502e-001  4.157259e-017  3.025417e-003
      vertex  7.079840e-002  8.378133e-017  2.565038e-002
    endloop
  endfacet
  facet normal -1.114737e-016  1.000000e+000 -5.564810e-017
    outer loop
      vertex  7.079840e-002  8.378133e-017  2.565038e-002
      vertex -2.965502e-001  4.157259e-017  3.025417e-003
      vertex -3.097144e-001  4.252006e-017  4.642175e-002
    endloop
  endfacet
  facet normal -1.114870e-016  1.000000e+000 -5.589251e-017
    outer loop
      vertex  7.079840e-002  8.378133e-017  2.565038e-002
      vertex -3.097144e-001  4.252006e-017  4.642175e-002
      vertex  4.202928e-002  8.253327e-017  6.070567e-002
    endloop
  endfacet
  facet normal -1.114923e-016  1.000000e+000 -5.576230e-017
    outer loop
      vertex  4.202928e-002  8.253327e-017  6.070567e-002
      vertex -3.097144e-001  4.252006e-017  4.642175e-002
      vertex -3.310918e-001  4.236682e-017  8.641604e-002
    endloop
  endfacet
  facet normal -1.114923e-016  1.000000e+000 -5.576248e-017
    outer loop
      vertex  4.202928e-002  8.253327e-017  6.070567e-002
      vertex -3.310918e-001  4.236682e-017  8.641604e-002
      vertex  2.065188e-002  8.238004e-017  1.007000e-001
    endloop
  endfacet
  facet normal -9.951847e-001  0.000000e+000 -9.801719e-002
    outer loop
      vertex -2.921053e-001  3.956083e-017 -4.210526e-002
      vertex -2.965502e-001 -1.796875e-001  3.025417e-003
      vertex -2.965502e-001  4.157259e-017  3.025417e-003
    endloop
  endfacet
  facet normal -9.569404e-001  -0.000000e+000 -2.902847e-001
    outer loop
      vertex -2.965502e-001  4.157259e-017  3.025417e-003
      vertex -2.965502e-001 -1.796875e-001  3.025417e-003
      vertex -3.097144e-001 -1.796875e-001  4.642175e-002
    endloop
  endfacet
  facet normal -9.569404e-001  0.000000e+000 -2.902847e-001
    outer loop
      vertex -2.965502e-001  4.157259e-017  3.025417e-003
      vertex -3.097144e-001 -1.796875e-001  4.642175e-002
      vertex -3.097144e-001  4.252006e-017  4.642175e-002
    endloop
  endfacet
  facet normal -8.819213e-001  -0.000000e+000 -4.713965e-001
    outer loop
      vertex -3.097144e-001  4.252006e-017  4.642175e-002
      vertex -3.097144e-001 -1.796875e-001  4.642175e-002
      vertex -3.310918e-001 -1.796875e-001  8.641604e-002
    endloop
  endfacet
  facet normal -8.819213e-001  0.000000e+000 -4.713965e-001
    outer loop
      vertex -3.097144e-001  4.252006e-017  4.642175e-002
      vertex -3.310918e-001 -1.796875e-001  8.641604e-002
      vertex -3.310918e-001  4.236682e-017  8.641604e-002
    endloop
  endfacet
  facet normal -7.730104e-001  -0.000000e+000 -6.343933e-001
    outer loop
      vertex -3.310918e-001  4.236682e-017  8.641604e-002
      vertex -3.310918e-001 -1.796875e-001  8.641604e-002
      vertex -3.598609e-001 -1.796875e-001  1.214713e-001
    endloop
  endfacet
  facet normal -7.730104e-001  0.000000e+000 -6.343933e-001
    outer loop
      vertex -3.310918e-001  4.236682e-017  8.641604e-002
      vertex -3.598609e-001 -1.796875e-001  1.214713e-001
      vertex -3.598609e-001  4.111876e-017  1.214713e-001
    endloop
  endfacet
  facet normal -6.343931e-001  -0.000000e+000 -7.730106e-001
    outer loop
      vertex -3.598609e-001  4.111876e-017  1.214713e-001
      vertex -3.598609e-001 -1.796875e-001  1.214713e-001
      vertex -3.949162e-001 -1.796875e-001  1.502405e-001
    endloop
  endfacet
  facet normal -6.343931e-001  0.000000e+000 -7.730106e-001
    outer loop
      vertex -3.598609e-001  4.111876e-017  1.214713e-001
      vertex -3.949162e-001 -1.796875e-001  1.502405e-001
      vertex -3.949162e-001  3.882385e-017  1.502405e-001
    endloop
  endfacet
  facet normal -4.713968e-001  -0.000000e+000 -8.819213e-001
    outer loop
      vertex -3.949162e-001  3.882385e-017  1.502405e-001
      vertex -3.949162e-001 -1.796875e-001  1.502405e-001
      vertex -4.349105e-001 -1.796875e-001  1.716179e-001
    endloop
  endfacet
  facet normal -4.713968e-001  0.000000e+000 -8.819213e-001
    outer loop
      vertex -3.949162e-001  3.882385e-017  1.502405e-001
      vertex -4.349105e-001 -1.796875e-001  1.716179e-001
      vertex -4.349105e-001  3.557028e-017  1.716179e-001
    endloop
  endfacet
  facet normal -2.902845e-001  -0.000000e+000 -9.569405e-001
    outer loop
      vertex -4.349105e-001  3.557028e-017  1.716179e-001
      vertex -4.349105e-001 -1.796875e-001  1.716179e-001
      vertex -4.783068e-001 -1.796875e-001  1.847820e-001
    endloop
  endfacet
  facet normal -2.902845e-001  0.000000e+000 -9.569405e-001
    outer loop
      vertex -4.349105e-001  3.557028e-017  1.716179e-001
      vertex -4.783068e-001 -1.796875e-001  1.847820e-001
      vertex -4.783068e-001  3.148307e-017  1.847820e-001
    endloop
  endfacet
  facet normal -9.801722e-002  -0.000000e+000 -9.951847e-001
    outer loop
      vertex -4.783068e-001  3.148307e-017  1.847820e-001
      vertex -4.783068e-001 -1.796875e-001  1.847820e-001
      vertex -5.234375e-001 -1.796875e-001  1.892270e-001
    endloop
  endfacet
  facet normal -9.801722e-002  0.000000e+000 -9.951847e-001
    outer loop
      vertex -4.783068e-001  3.148307e-017  1.847820e-001
      vertex -5.234375e-001 -1.796875e-001  1.892270e-001
      vertex -5.234375e-001  2.568304e-017  1.892270e-001
    endloop
  endfacet
  facet normal -9.951847e-001  -0.000000e+000 -9.801719e-002
    outer loop
      vertex -2.965502e-001 -1.796875e-001  3.025417e-003
      vertex -2.921053e-001  3.956083e-017 -4.210526e-002
      vertex -2.921053e-001 -1.796875e-001 -4.210526e-002
    endloop
  endfacet
  facet normal -9.951847e-001  0.000000e+000  9.801719e-002
    outer loop
      vertex -2.921053e-001 -1.796875e-001 -4.210526e-002
      vertex -2.921053e-001  3.956083e-017 -4.210526e-002
      vertex -2.965502e-001  3.656208e-017 -8.723594e-002
    endloop
  endfacet
  facet normal -9.951847e-001  0.000000e+000  9.801719e-002
    outer loop
      vertex -2.921053e-001 -1.796875e-001 -4.210526e-002
      vertex -2.965502e-001  3.656208e-017 -8.723594e-002
      vertex -2.965502e-001 -1.796875e-001 -8.723594e-002
    endloop
  endfacet
  facet normal -9.569403e-001  0.000000e+000  2.902846e-001
    outer loop
      vertex -2.965502e-001 -1.796875e-001 -8.723594e-002
      vertex -2.965502e-001  3.656208e-017 -8.723594e-002
      vertex -3.097144e-001  3.269158e-017 -1.306323e-001
    endloop
  endfacet
  facet normal -9.569403e-001  0.000000e+000  2.902846e-001
    outer loop
      vertex -2.965502e-001 -1.796875e-001 -8.723594e-002
      vertex -3.097144e-001  3.269158e-017 -1.306323e-001
      vertex -3.097144e-001 -1.796875e-001 -1.306323e-001
    endloop
  endfacet
  facet normal -8.819214e-001  0.000000e+000  4.713967e-001
    outer loop
      vertex -3.097144e-001 -1.796875e-001 -1.306323e-001
      vertex -3.097144e-001  3.269158e-017 -1.306323e-001
      vertex -3.310918e-001  2.809809e-017 -1.706266e-001
    endloop
  endfacet
  facet normal -8.819214e-001  0.000000e+000  4.713967e-001
    outer loop
      vertex -3.097144e-001 -1.796875e-001 -1.306323e-001
      vertex -3.310918e-001  2.809809e-017 -1.706266e-001
      vertex -3.310918e-001 -1.796875e-001 -1.706266e-001
    endloop
  endfacet
  facet normal -7.730104e-001  0.000000e+000  6.343932e-001
    outer loop
      vertex -3.310918e-001 -1.796875e-001 -1.706266e-001
      vertex -3.310918e-001  2.809809e-017 -1.706266e-001
      vertex -3.598609e-001  2.295811e-017 -2.056819e-001
    endloop
  endfacet
  facet normal -7.730104e-001  0.000000e+000  6.343932e-001
    outer loop
      vertex -3.310918e-001 -1.796875e-001 -1.706266e-001
      vertex -3.598609e-001  2.295811e-017 -2.056819e-001
      vertex -3.598609e-001 -1.796875e-001 -2.056819e-001
    endloop
  endfacet
  facet normal -6.343929e-001  0.000000e+000  7.730108e-001
    outer loop
      vertex -3.598609e-001 -1.796875e-001 -2.056819e-001
      vertex -3.598609e-001  2.295811e-017 -2.056819e-001
      vertex -3.949162e-001  1.746919e-017 -2.344510e-001
    endloop
  endfacet
  facet normal -6.343929e-001  0.000000e+000  7.730108e-001
    outer loop
      vertex -3.598609e-001 -1.796875e-001 -2.056819e-001
      vertex -3.949162e-001  1.746919e-017 -2.344510e-001
      vertex -3.949162e-001 -1.796875e-001 -2.344510e-001
    endloop
  endfacet
  facet normal -4.713970e-001  0.000000e+000  8.819212e-001
    outer loop
      vertex -3.949162e-001 -1.796875e-001 -2.344510e-001
      vertex -3.949162e-001  1.746919e-017 -2.344510e-001
      vertex -4.349105e-001  1.184224e-017 -2.558284e-001
    endloop
  endfacet
  facet normal -4.713970e-001  0.000000e+000  8.819212e-001
    outer loop
      vertex -3.949162e-001 -1.796875e-001 -2.344510e-001
      vertex -4.349105e-001  1.184224e-017 -2.558284e-001
      vertex -4.349105e-001 -1.796875e-001 -2.558284e-001
    endloop
  endfacet
  facet normal -2.902845e-001  0.000000e+000  9.569405e-001
    outer loop
      vertex -4.349105e-001 -1.796875e-001 -2.558284e-001
      vertex -4.349105e-001  1.184224e-017 -2.558284e-001
      vertex -4.783068e-001  6.293527e-018 -2.689925e-001
    endloop
  endfacet
  facet normal -2.902845e-001  0.000000e+000  9.569405e-001
    outer loop
      vertex -4.349105e-001 -1.796875e-001 -2.558284e-001
      vertex -4.783068e-001  6.293527e-018 -2.689925e-001
      vertex -4.783068e-001 -1.796875e-001 -2.689925e-001
    endloop
  endfacet
  facet normal -9.801722e-002  0.000000e+000  9.951847e-001
    outer loop
      vertex -4.783068e-001 -1.796875e-001 -2.689925e-001
      vertex -4.783068e-001  6.293527e-018 -2.689925e-001
      vertex -5.234375e-001  0.000000e+000 -2.734375e-001
    endloop
  endfacet
  facet normal -9.801722e-002  0.000000e+000  9.951847e-001
    outer loop
      vertex -4.783068e-001 -1.796875e-001 -2.689925e-001
      vertex -5.234375e-001  0.000000e+000 -2.734375e-001
      vertex -5.234375e-001 -1.796875e-001 -2.734375e-001
    endloop
  endfacet
  facet normal  0.000000e+000  0.000000e+000  1.000000e+000
    outer loop
      vertex  3.042763e-003 -1.796875e-001  1.892270e-001
      vertex  3.042763e-003  8.533926e-017  1.892270e-001
      vertex -5.234375e-001 -1.796875e-001  1.892270e-001
    endloop
  endfacet
  facet normal  0.000000e+000  0.000000e+000  1.000000e+000
    outer loop
      vertex -5.234375e-001 -1.796875e-001  1.892270e-001
      vertex  3.042763e-003  8.533926e-017  1.892270e-001
      vertex -5.234375e-001  2.568304e-017  1.892270e-001
    endloop
  endfacet
  facet normal  6.343933e-001  -0.000000e+000  7.730104e-001
    outer loop
      vertex  7.079840e-002  8.378133e-017  2.565038e-002
      vertex  1.058537e-001 -1.796875e-001 -3.118752e-003
      vertex  1.058537e-001  8.607624e-017 -3.118752e-003
    endloop
  endfacet
  facet normal  4.713967e-001  0.000000e+000  8.819213e-001
    outer loop
      vertex  1.058537e-001  8.607624e-017 -3.118752e-003
      vertex  1.058537e-001 -1.796875e-001 -3.118752e-003
      vertex  1.458480e-001 -1.796875e-001 -2.449615e-002
    endloop
  endfacet
  facet normal  4.713967e-001  -0.000000e+000  8.819213e-001
    outer loop
      vertex  1.058537e-001  8.607624e-017 -3.118752e-003
      vertex  1.458480e-001 -1.796875e-001 -2.449615e-002
      vertex  1.458480e-001  8.932982e-017 -2.449615e-002
    endloop
  endfacet
  facet normal  2.902847e-001  0.000000e+000  9.569403e-001
    outer loop
      vertex  1.458480e-001  8.932982e-017 -2.449615e-002
      vertex  1.458480e-001 -1.796875e-001 -2.449615e-002
      vertex  1.892443e-001 -1.796875e-001 -3.766028e-002
    endloop
  endfacet
  facet normal  2.902847e-001  -0.000000e+000  9.569403e-001
    outer loop
      vertex  1.458480e-001  8.932982e-017 -2.449615e-002
      vertex  1.892443e-001 -1.796875e-001 -3.766028e-002
      vertex  1.892443e-001  9.341702e-017 -3.766028e-002
    endloop
  endfacet
  facet normal  9.801719e-002  0.000000e+000  9.951847e-001
    outer loop
      vertex  1.892443e-001  9.341702e-017 -3.766028e-002
      vertex  1.892443e-001 -1.796875e-001 -3.766028e-002
      vertex  2.343750e-001 -1.796875e-001 -4.210526e-002
    endloop
  endfacet
  facet normal  9.801719e-002  -0.000000e+000  9.951847e-001
    outer loop
      vertex  1.892443e-001  9.341702e-017 -3.766028e-002
      vertex  2.343750e-001 -1.796875e-001 -4.210526e-002
      vertex  2.343750e-001  9.697560e-017 -4.210526e-002
    endloop
  endfacet
  facet normal  6.343933e-001  0.000000e+000  7.730104e-001
    outer loop
      vertex  1.058537e-001 -1.796875e-001 -3.118752e-003
      vertex  7.079840e-002  8.378133e-017  2.565038e-002
      vertex  7.079840e-002 -1.796875e-001  2.565038e-002
    endloop
  endfacet
  facet normal  7.730105e-001  -0.000000e+000  6.343933e-001
    outer loop
      vertex  7.079840e-002 -1.796875e-001  2.565038e-002
      vertex  7.079840e-002  8.378133e-017  2.565038e-002
      vertex  4.202928e-002  8.253327e-017  6.070567e-002
    endloop
  endfacet
  facet normal  7.730105e-001  0.000000e+000  6.343933e-001
    outer loop
      vertex  7.079840e-002 -1.796875e-001  2.565038e-002
      vertex  4.202928e-002  8.253327e-017  6.070567e-002
      vertex  4.202928e-002 -1.796875e-001  6.070567e-002
    endloop
  endfacet
  facet normal  8.819212e-001  -0.000000e+000  4.713967e-001
    outer loop
      vertex  4.202928e-002 -1.796875e-001  6.070567e-002
      vertex  4.202928e-002  8.253327e-017  6.070567e-002
      vertex  2.065188e-002  8.238004e-017  1.007000e-001
    endloop
  endfacet
  facet normal  8.819212e-001  0.000000e+000  4.713967e-001
    outer loop
      vertex  4.202928e-002 -1.796875e-001  6.070567e-002
      vertex  2.065188e-002  8.238004e-017  1.007000e-001
      vertex  2.065188e-002 -1.796875e-001  1.007000e-001
    endloop
  endfacet
  facet normal  9.569403e-001  -0.000000e+000  2.902846e-001
    outer loop
      vertex  2.065188e-002 -1.796875e-001  1.007000e-001
      vertex  2.065188e-002  8.238004e-017  1.007000e-001
      vertex  7.487747e-003  8.332750e-017  1.440963e-001
    endloop
  endfacet
  facet normal  9.569403e-001  0.000000e+000  2.902846e-001
    outer loop
      vertex  2.065188e-002 -1.796875e-001  1.007000e-001
      vertex  7.487747e-003  8.332750e-017  1.440963e-001
      vertex  7.487747e-003 -1.796875e-001  1.440963e-001
    endloop
  endfacet
  facet normal  9.951847e-001  -0.000000e+000  9.801717e-002
    outer loop
      vertex  7.487747e-003 -1.796875e-001  1.440963e-001
      vertex  7.487747e-003  8.332750e-017  1.440963e-001
      vertex  3.042763e-003  8.533926e-017  1.892270e-001
    endloop
  endfacet
  facet normal  9.951847e-001  0.000000e+000  9.801717e-002
    outer loop
      vertex  7.487747e-003 -1.796875e-001  1.440963e-001
      vertex  3.042763e-003  8.533926e-017  1.892270e-001
      vertex  3.042763e-003 -1.796875e-001  1.892270e-001
    endloop
  endfacet
  facet normal  1.000000e+000  0.000000e+000  0.000000e+000
    outer loop
      vertex  2.343750e-001 -1.796875e-001 -2.734375e-001
      vertex  2.343750e-001  8.413409e-017 -2.734375e-001
      vertex  2.343750e-001 -1.796875e-001 -4.210526e-002
    endloop
  endfacet
  facet normal  1.000000e+000  -0.000000e+000  0.000000e+000
    outer loop
      vertex  2.343750e-001 -1.796875e-001 -4.210526e-002
      vertex  2.343750e-001  8.413409e-017 -2.734375e-001
      vertex  2.343750e-001  9.697560e-017 -4.210526e-002
    endloop
  endfacet
  facet normal  0.000000e+000  0.000000e+000 -1.000000e+000
    outer loop
      vertex -5.234375e-001 -1.796875e-001 -2.734375e-001
      vertex -5.234375e-001  0.000000e+000 -2.734375e-001
      vertex  2.343750e-001 -1.796875e-001 -2.734375e-001
    endloop
  endfacet
  facet normal  0.000000e+000  0.000000e+000 -1.000000e+000
    outer loop
      vertex  2.343750e-001 -1.796875e-001 -2.734375e-001
      vertex -5.234375e-001  0.000000e+000 -2.734375e-001
      vertex  2.343750e-001  8.413409e-017 -2.734375e-001
    endloop
  endfacet
endsolid CATIA STL
