solid CATIA STL
  facet normal  0.000000e+000  9.999241e-001 -1.231966e-002
    outer loop
      vertex  1.504934e-001  0.000000e+000  2.343750e-001
      vertex  1.435133e-017  0.000000e+000  2.343750e-001
      vertex  1.504934e-001  1.793240e-003  3.799232e-001
    endloop
  endfacet
  facet normal -3.175177e-010  9.999241e-001 -1.231966e-002
    outer loop
      vertex  1.504934e-001  1.793240e-003  3.799232e-001
      vertex  1.435133e-017  0.000000e+000  2.343750e-001
      vertex  0.000000e+000  2.887420e-003  4.687322e-001
    endloop
  endfacet
  facet normal  0.000000e+000  9.999241e-001 -1.231966e-002
    outer loop
      vertex  1.504934e-001  1.793240e-003  3.799232e-001
      vertex  0.000000e+000  2.887420e-003  4.687322e-001
      vertex  2.195724e-001  1.793240e-003  3.799232e-001
    endloop
  endfacet
  facet normal  0.000000e+000  9.999242e-001 -1.231966e-002
    outer loop
      vertex  2.195724e-001  1.793240e-003  3.799232e-001
      vertex  0.000000e+000  2.887420e-003  4.687322e-001
      vertex  2.195724e-001  2.887420e-003  4.687322e-001
    endloop
  endfacet
  facet normal  0.000000e+000  1.000000e+000  -0.000000e+000
    outer loop
      vertex  1.504934e-001  0.000000e+000  2.343750e-001
      vertex  1.504934e-001  0.000000e+000  8.881579e-002
      vertex  1.435133e-017  0.000000e+000  2.343750e-001
    endloop
  endfacet
  facet normal  0.000000e+000  1.000000e+000  0.000000e+000
    outer loop
      vertex  1.435133e-017  0.000000e+000  2.343750e-001
      vertex  1.504934e-001  0.000000e+000  8.881579e-002
      vertex  0.000000e+000  0.000000e+000  0.000000e+000
    endloop
  endfacet
  facet normal  0.000000e+000  1.000000e+000  0.000000e+000
    outer loop
      vertex  1.504934e-001  0.000000e+000  8.881579e-002
      vertex  2.195724e-001  0.000000e+000  8.881579e-002
      vertex  0.000000e+000  0.000000e+000  0.000000e+000
    endloop
  endfacet
  facet normal  -0.000000e+000  1.000000e+000  0.000000e+000
    outer loop
      vertex  0.000000e+000  0.000000e+000  0.000000e+000
      vertex  2.195724e-001  0.000000e+000  8.881579e-002
      vertex  2.195724e-001  0.000000e+000 -1.344493e-017
    endloop
  endfacet
  facet normal -1.000000e+000  5.696390e-018  6.123234e-017
    outer loop
      vertex  1.435133e-017  0.000000e+000  2.343750e-001
      vertex  0.000000e+000  0.000000e+000  0.000000e+000
      vertex  0.000000e+000 -4.323324e-002  4.021951e-003
    endloop
  endfacet
  facet normal -1.000000e+000  1.689367e-017  5.913081e-017
    outer loop
      vertex  1.435133e-017  0.000000e+000  2.343750e-001
      vertex  0.000000e+000 -4.323324e-002  4.021951e-003
      vertex  0.000000e+000 -8.498269e-002  1.594977e-002
    endloop
  endfacet
  facet normal -1.000000e+000  2.751114e-017  5.499986e-017
    outer loop
      vertex  1.435133e-017  0.000000e+000  2.343750e-001
      vertex  0.000000e+000 -8.498269e-002  1.594977e-002
      vertex  0.000000e+000 -1.238155e-001  3.537408e-002
    endloop
  endfacet
  facet normal -1.000000e+000  3.718442e-017  4.898129e-017
    outer loop
      vertex  1.435133e-017  0.000000e+000  2.343750e-001
      vertex  0.000000e+000 -1.238155e-001  3.537408e-002
      vertex  0.000000e+000 -1.583988e-001  6.162823e-002
    endloop
  endfacet
  facet normal -1.000000e+000  4.558150e-017  4.128165e-017
    outer loop
      vertex  1.435133e-017  0.000000e+000  2.343750e-001
      vertex  0.000000e+000 -1.583988e-001  6.162823e-002
      vertex  0.000000e+000 -1.875459e-001  9.381116e-002
    endloop
  endfacet
  facet normal -1.000000e+000  5.241419e-017  3.216520e-017
    outer loop
      vertex  1.435133e-017  0.000000e+000  2.343750e-001
      vertex  0.000000e+000 -1.875459e-001  9.381116e-002
      vertex  0.000000e+000 -2.102562e-001  1.308183e-001
    endloop
  endfacet
  facet normal -1.000000e+000  5.744800e-017  2.194481e-017
    outer loop
      vertex  1.435133e-017  0.000000e+000  2.343750e-001
      vertex  0.000000e+000 -2.102562e-001  1.308183e-001
      vertex  0.000000e+000 -2.257504e-001  1.713796e-001
    endloop
  endfacet
  facet normal -1.000000e+000  6.051015e-017  1.097127e-017
    outer loop
      vertex  1.435133e-017  0.000000e+000  2.343750e-001
      vertex  0.000000e+000 -2.257504e-001  1.713796e-001
      vertex  0.000000e+000 -2.334967e-001  2.141030e-001
    endloop
  endfacet
  facet normal -1.000000e+000  6.149556e-017 -3.788117e-019
    outer loop
      vertex  1.435133e-017  0.000000e+000  2.343750e-001
      vertex  0.000000e+000 -2.334967e-001  2.141030e-001
      vertex  0.000000e+000 -2.332292e-001  2.575221e-001
    endloop
  endfacet
  facet normal -1.000000e+000  6.037041e-017 -1.171589e-017
    outer loop
      vertex  1.435133e-017  0.000000e+000  2.343750e-001
      vertex  0.000000e+000 -2.332292e-001  2.575221e-001
      vertex  0.000000e+000 -2.249572e-001  3.001468e-001
    endloop
  endfacet
  facet normal -1.000000e+000  5.717329e-017 -2.265089e-017
    outer loop
      vertex  1.435133e-017  0.000000e+000  2.343750e-001
      vertex  0.000000e+000 -2.249572e-001  3.001468e-001
      vertex  0.000000e+000 -2.089644e-001  3.405141e-001
    endloop
  endfacet
  facet normal -1.000000e+000  5.201395e-017 -3.280849e-017
    outer loop
      vertex  1.435133e-017  0.000000e+000  2.343750e-001
      vertex  0.000000e+000 -2.089644e-001  3.405141e-001
      vertex  0.000000e+000 -1.857999e-001  3.772387e-001
    endloop
  endfacet
  facet normal -1.000000e+000  4.506948e-017 -4.184005e-017
    outer loop
      vertex  1.435133e-017  0.000000e+000  2.343750e-001
      vertex  0.000000e+000 -1.857999e-001  3.772387e-001
      vertex  0.000000e+000 -1.562586e-001  4.090601e-001
    endloop
  endfacet
  facet normal -1.000000e+000  3.657816e-017 -4.943568e-017
    outer loop
      vertex  1.435133e-017  0.000000e+000  2.343750e-001
      vertex  0.000000e+000 -1.562586e-001  4.090601e-001
      vertex  0.000000e+000 -1.213545e-001  4.348862e-001
    endloop
  endfacet
  facet normal -1.000000e+000  2.683149e-017 -5.533461e-017
    outer loop
      vertex  1.435133e-017  0.000000e+000  2.343750e-001
      vertex  0.000000e+000 -1.213545e-001  4.348862e-001
      vertex  0.000000e+000 -8.228531e-002  4.538306e-001
    endloop
  endfacet
  facet normal -1.000000e+000  1.616390e-017 -5.933444e-017
    outer loop
      vertex  1.435133e-017  0.000000e+000  2.343750e-001
      vertex  0.000000e+000 -8.228531e-002  4.538306e-001
      vertex  0.000000e+000 -4.039209e-002  4.652432e-001
    endloop
  endfacet
  facet normal -1.000000e+000  4.941584e-018 -6.129788e-017
    outer loop
      vertex  1.435133e-017  0.000000e+000  2.343750e-001
      vertex  0.000000e+000 -4.039209e-002  4.652432e-001
      vertex  0.000000e+000  2.887420e-003  4.687322e-001
    endloop
  endfacet
  facet normal  1.000000e+000  0.000000e+000  0.000000e+000
    outer loop
      vertex  1.504934e-001  0.000000e+000  2.343750e-001
      vertex  1.504934e-001  1.793240e-003  3.799232e-001
      vertex  1.504934e-001 -2.508561e-002  3.777563e-001
    endloop
  endfacet
  facet normal  1.000000e+000  0.000000e+000  0.000000e+000
    outer loop
      vertex  1.504934e-001  0.000000e+000  2.343750e-001
      vertex  1.504934e-001 -2.508561e-002  3.777563e-001
      vertex  1.504934e-001 -5.110351e-002  3.706685e-001
    endloop
  endfacet
  facet normal  1.000000e+000  0.000000e+000  0.000000e+000
    outer loop
      vertex  1.504934e-001  0.000000e+000  2.343750e-001
      vertex  1.504934e-001 -5.110351e-002  3.706685e-001
      vertex  1.504934e-001 -7.536751e-002  3.589030e-001
    endloop
  endfacet
  facet normal  1.000000e+000  0.000000e+000  0.000000e+000
    outer loop
      vertex  1.504934e-001  0.000000e+000  2.343750e-001
      vertex  1.504934e-001 -7.536751e-002  3.589030e-001
      vertex  1.504934e-001 -9.704484e-002  3.428636e-001
    endloop
  endfacet
  facet normal  1.000000e+000  0.000000e+000  0.000000e+000
    outer loop
      vertex  1.504934e-001  0.000000e+000  2.343750e-001
      vertex  1.504934e-001 -9.704484e-002  3.428636e-001
      vertex  1.504934e-001 -1.153915e-001  3.231009e-001
    endloop
  endfacet
  facet normal  1.000000e+000  0.000000e+000  0.000000e+000
    outer loop
      vertex  1.504934e-001  0.000000e+000  2.343750e-001
      vertex  1.504934e-001 -1.153915e-001  3.231009e-001
      vertex  1.504934e-001 -1.297779e-001  3.002930e-001
    endloop
  endfacet
  facet normal  1.000000e+000  0.000000e+000  0.000000e+000
    outer loop
      vertex  1.504934e-001  0.000000e+000  2.343750e-001
      vertex  1.504934e-001 -1.297779e-001  3.002930e-001
      vertex  1.504934e-001 -1.397102e-001  2.752227e-001
    endloop
  endfacet
  facet normal  1.000000e+000  0.000000e+000  0.000000e+000
    outer loop
      vertex  1.504934e-001  0.000000e+000  2.343750e-001
      vertex  1.504934e-001 -1.397102e-001  2.752227e-001
      vertex  1.504934e-001 -1.448476e-001  2.487506e-001
    endloop
  endfacet
  facet normal  1.000000e+000  0.000000e+000  0.000000e+000
    outer loop
      vertex  1.504934e-001  0.000000e+000  2.343750e-001
      vertex  1.504934e-001 -1.448476e-001  2.487506e-001
      vertex  1.504934e-001 -1.450137e-001  2.217850e-001
    endloop
  endfacet
  facet normal  1.000000e+000  -0.000000e+000  0.000000e+000
    outer loop
      vertex  1.504934e-001  0.000000e+000  2.343750e-001
      vertex  1.504934e-001 -1.450137e-001  2.217850e-001
      vertex  1.504934e-001 -1.402029e-001  1.952516e-001
    endloop
  endfacet
  facet normal  1.000000e+000  -0.000000e+000  0.000000e+000
    outer loop
      vertex  1.504934e-001  0.000000e+000  2.343750e-001
      vertex  1.504934e-001 -1.402029e-001  1.952516e-001
      vertex  1.504934e-001 -1.305801e-001  1.700609e-001
    endloop
  endfacet
  facet normal  1.000000e+000  -0.000000e+000  0.000000e+000
    outer loop
      vertex  1.504934e-001  0.000000e+000  2.343750e-001
      vertex  1.504934e-001 -1.305801e-001  1.700609e-001
      vertex  1.504934e-001 -1.164758e-001  1.470775e-001
    endloop
  endfacet
  facet normal  1.000000e+000  -0.000000e+000  0.000000e+000
    outer loop
      vertex  1.504934e-001  0.000000e+000  2.343750e-001
      vertex  1.504934e-001 -1.164758e-001  1.470775e-001
      vertex  1.504934e-001 -9.837402e-002  1.270902e-001
    endloop
  endfacet
  facet normal  1.000000e+000  -0.000000e+000  0.000000e+000
    outer loop
      vertex  1.504934e-001  0.000000e+000  2.343750e-001
      vertex  1.504934e-001 -9.837402e-002  1.270902e-001
      vertex  1.504934e-001 -7.689593e-002  1.107850e-001
    endloop
  endfacet
  facet normal  1.000000e+000  -0.000000e+000  0.000000e+000
    outer loop
      vertex  1.504934e-001  0.000000e+000  2.343750e-001
      vertex  1.504934e-001 -7.689593e-002  1.107850e-001
      vertex  1.504934e-001 -5.277872e-002  9.872144e-002
    endloop
  endfacet
  facet normal  1.000000e+000  -0.000000e+000  0.000000e+000
    outer loop
      vertex  1.504934e-001  0.000000e+000  2.343750e-001
      vertex  1.504934e-001 -5.277872e-002  9.872144e-002
      vertex  1.504934e-001 -2.685012e-002  9.131363e-002
    endloop
  endfacet
  facet normal  1.000000e+000  -0.000000e+000  0.000000e+000
    outer loop
      vertex  1.504934e-001  0.000000e+000  2.343750e-001
      vertex  1.504934e-001 -2.685012e-002  9.131363e-002
      vertex  1.504934e-001  0.000000e+000  8.881579e-002
    endloop
  endfacet
  facet normal  0.000000e+000  9.816848e-001 -1.905124e-001
    outer loop
      vertex  2.195724e-001 -1.448476e-001  2.487506e-001
      vertex  1.504934e-001 -1.397102e-001  2.752227e-001
      vertex  2.195724e-001 -1.397102e-001  2.752227e-001
    endloop
  endfacet
  facet normal  0.000000e+000  9.296963e-001 -3.683268e-001
    outer loop
      vertex  2.195724e-001 -1.397102e-001  2.752227e-001
      vertex  1.504934e-001 -1.397102e-001  2.752227e-001
      vertex  1.504934e-001 -1.297779e-001  3.002930e-001
    endloop
  endfacet
  facet normal  0.000000e+000  9.296963e-001 -3.683268e-001
    outer loop
      vertex  2.195724e-001 -1.397102e-001  2.752227e-001
      vertex  1.504934e-001 -1.297779e-001  3.002930e-001
      vertex  2.195724e-001 -1.297779e-001  3.002930e-001
    endloop
  endfacet
  facet normal  0.000000e+000  8.458003e-001 -5.334996e-001
    outer loop
      vertex  2.195724e-001 -1.297779e-001  3.002930e-001
      vertex  1.504934e-001 -1.297779e-001  3.002930e-001
      vertex  1.504934e-001 -1.153915e-001  3.231009e-001
    endloop
  endfacet
  facet normal  0.000000e+000  8.458003e-001 -5.334996e-001
    outer loop
      vertex  2.195724e-001 -1.297779e-001  3.002930e-001
      vertex  1.504934e-001 -1.153915e-001  3.231009e-001
      vertex  2.195724e-001 -1.153915e-001  3.231009e-001
    endloop
  endfacet
  facet normal  0.000000e+000  7.328756e-001 -6.803627e-001
    outer loop
      vertex  2.195724e-001 -1.153915e-001  3.231009e-001
      vertex  1.504934e-001 -1.153915e-001  3.231009e-001
      vertex  1.504934e-001 -9.704484e-002  3.428636e-001
    endloop
  endfacet
  facet normal  0.000000e+000  7.328756e-001 -6.803627e-001
    outer loop
      vertex  2.195724e-001 -1.153915e-001  3.231009e-001
      vertex  1.504934e-001 -9.704484e-002  3.428636e-001
      vertex  2.195724e-001 -9.704484e-002  3.428636e-001
    endloop
  endfacet
  facet normal  0.000000e+000  5.947986e-001 -8.038747e-001
    outer loop
      vertex  2.195724e-001 -9.704484e-002  3.428636e-001
      vertex  1.504934e-001 -9.704484e-002  3.428636e-001
      vertex  1.504934e-001 -7.536751e-002  3.589030e-001
    endloop
  endfacet
  facet normal  0.000000e+000  5.947986e-001 -8.038747e-001
    outer loop
      vertex  2.195724e-001 -9.704484e-002  3.428636e-001
      vertex  1.504934e-001 -7.536751e-002  3.589030e-001
      vertex  2.195724e-001 -7.536751e-002  3.589030e-001
    endloop
  endfacet
  facet normal  0.000000e+000  4.363080e-001 -8.997974e-001
    outer loop
      vertex  2.195724e-001 -7.536751e-002  3.589030e-001
      vertex  1.504934e-001 -7.536751e-002  3.589030e-001
      vertex  1.504934e-001 -5.110351e-002  3.706685e-001
    endloop
  endfacet
  facet normal  0.000000e+000  4.363080e-001 -8.997974e-001
    outer loop
      vertex  2.195724e-001 -7.536751e-002  3.589030e-001
      vertex  1.504934e-001 -5.110351e-002  3.706685e-001
      vertex  2.195724e-001 -5.110351e-002  3.706685e-001
    endloop
  endfacet
  facet normal  0.000000e+000  2.628415e-001 -9.648390e-001
    outer loop
      vertex  2.195724e-001 -5.110351e-002  3.706685e-001
      vertex  1.504934e-001 -5.110351e-002  3.706685e-001
      vertex  1.504934e-001 -2.508561e-002  3.777563e-001
    endloop
  endfacet
  facet normal  0.000000e+000  2.628415e-001 -9.648390e-001
    outer loop
      vertex  2.195724e-001 -5.110351e-002  3.706685e-001
      vertex  1.504934e-001 -2.508561e-002  3.777563e-001
      vertex  2.195724e-001 -2.508561e-002  3.777563e-001
    endloop
  endfacet
  facet normal  0.000000e+000  8.035537e-002 -9.967662e-001
    outer loop
      vertex  2.195724e-001 -2.508561e-002  3.777563e-001
      vertex  1.504934e-001 -2.508561e-002  3.777563e-001
      vertex  1.504934e-001  1.793240e-003  3.799232e-001
    endloop
  endfacet
  facet normal  0.000000e+000  8.035537e-002 -9.967662e-001
    outer loop
      vertex  2.195724e-001 -2.508561e-002  3.777563e-001
      vertex  1.504934e-001  1.793240e-003  3.799232e-001
      vertex  2.195724e-001  1.793240e-003  3.799232e-001
    endloop
  endfacet
  facet normal  0.000000e+000  9.816848e-001 -1.905124e-001
    outer loop
      vertex  1.504934e-001 -1.397102e-001  2.752227e-001
      vertex  2.195724e-001 -1.448476e-001  2.487506e-001
      vertex  1.504934e-001 -1.448476e-001  2.487506e-001
    endloop
  endfacet
  facet normal  0.000000e+000  9.999810e-001 -6.159716e-003
    outer loop
      vertex  1.504934e-001 -1.448476e-001  2.487506e-001
      vertex  2.195724e-001 -1.448476e-001  2.487506e-001
      vertex  2.195724e-001 -1.450137e-001  2.217850e-001
    endloop
  endfacet
  facet normal  0.000000e+000  9.999810e-001 -6.159716e-003
    outer loop
      vertex  1.504934e-001 -1.448476e-001  2.487506e-001
      vertex  2.195724e-001 -1.450137e-001  2.217850e-001
      vertex  1.504934e-001 -1.450137e-001  2.217850e-001
    endloop
  endfacet
  facet normal  -0.000000e+000  9.839573e-001  1.784041e-001
    outer loop
      vertex  1.504934e-001 -1.450137e-001  2.217850e-001
      vertex  2.195724e-001 -1.450137e-001  2.217850e-001
      vertex  2.195724e-001 -1.402029e-001  1.952516e-001
    endloop
  endfacet
  facet normal  0.000000e+000  9.839573e-001  1.784041e-001
    outer loop
      vertex  1.504934e-001 -1.450137e-001  2.217850e-001
      vertex  2.195724e-001 -1.402029e-001  1.952516e-001
      vertex  1.504934e-001 -1.402029e-001  1.952516e-001
    endloop
  endfacet
  facet normal  -0.000000e+000  9.341636e-001  3.568451e-001
    outer loop
      vertex  1.504934e-001 -1.402029e-001  1.952516e-001
      vertex  2.195724e-001 -1.402029e-001  1.952516e-001
      vertex  2.195724e-001 -1.305801e-001  1.700609e-001
    endloop
  endfacet
  facet normal  0.000000e+000  9.341636e-001  3.568451e-001
    outer loop
      vertex  1.504934e-001 -1.402029e-001  1.952516e-001
      vertex  2.195724e-001 -1.305801e-001  1.700609e-001
      vertex  1.504934e-001 -1.305801e-001  1.700609e-001
    endloop
  endfacet
  facet normal  -0.000000e+000  8.523087e-001  5.230390e-001
    outer loop
      vertex  1.504934e-001 -1.305801e-001  1.700609e-001
      vertex  2.195724e-001 -1.305801e-001  1.700609e-001
      vertex  2.195724e-001 -1.164758e-001  1.470775e-001
    endloop
  endfacet
  facet normal  0.000000e+000  8.523087e-001  5.230390e-001
    outer loop
      vertex  1.504934e-001 -1.305801e-001  1.700609e-001
      vertex  2.195724e-001 -1.164758e-001  1.470775e-001
      vertex  1.504934e-001 -1.164758e-001  1.470775e-001
    endloop
  endfacet
  facet normal  -0.000000e+000  7.412021e-001  6.712819e-001
    outer loop
      vertex  1.504934e-001 -1.164758e-001  1.470775e-001
      vertex  2.195724e-001 -1.164758e-001  1.470775e-001
      vertex  2.195724e-001 -9.837402e-002  1.270902e-001
    endloop
  endfacet
  facet normal  0.000000e+000  7.412021e-001  6.712819e-001
    outer loop
      vertex  1.504934e-001 -1.164758e-001  1.470775e-001
      vertex  2.195724e-001 -9.837402e-002  1.270902e-001
      vertex  1.504934e-001 -9.837402e-002  1.270902e-001
    endloop
  endfacet
  facet normal  -0.000000e+000  6.046566e-001  7.964862e-001
    outer loop
      vertex  1.504934e-001 -9.837402e-002  1.270902e-001
      vertex  2.195724e-001 -9.837402e-002  1.270902e-001
      vertex  2.195724e-001 -7.689593e-002  1.107850e-001
    endloop
  endfacet
  facet normal  0.000000e+000  6.046566e-001  7.964862e-001
    outer loop
      vertex  1.504934e-001 -9.837402e-002  1.270902e-001
      vertex  2.195724e-001 -7.689593e-002  1.107850e-001
      vertex  1.504934e-001 -7.689593e-002  1.107850e-001
    endloop
  endfacet
  facet normal  -0.000000e+000  4.473594e-001  8.943542e-001
    outer loop
      vertex  1.504934e-001 -7.689593e-002  1.107850e-001
      vertex  2.195724e-001 -7.689593e-002  1.107850e-001
      vertex  2.195724e-001 -5.277872e-002  9.872144e-002
    endloop
  endfacet
  facet normal  0.000000e+000  4.473594e-001  8.943542e-001
    outer loop
      vertex  1.504934e-001 -7.689593e-002  1.107850e-001
      vertex  2.195724e-001 -5.277872e-002  9.872144e-002
      vertex  1.504934e-001 -5.277872e-002  9.872144e-002
    endloop
  endfacet
  facet normal  -0.000000e+000  2.747086e-001  9.615276e-001
    outer loop
      vertex  1.504934e-001 -5.277872e-002  9.872144e-002
      vertex  2.195724e-001 -5.277872e-002  9.872144e-002
      vertex  2.195724e-001 -2.685012e-002  9.131363e-002
    endloop
  endfacet
  facet normal  0.000000e+000  2.747086e-001  9.615276e-001
    outer loop
      vertex  1.504934e-001 -5.277872e-002  9.872144e-002
      vertex  2.195724e-001 -2.685012e-002  9.131363e-002
      vertex  1.504934e-001 -2.685012e-002  9.131363e-002
    endloop
  endfacet
  facet normal  -0.000000e+000  9.262921e-002  9.957007e-001
    outer loop
      vertex  1.504934e-001 -2.685012e-002  9.131363e-002
      vertex  2.195724e-001 -2.685012e-002  9.131363e-002
      vertex  2.195724e-001  0.000000e+000  8.881579e-002
    endloop
  endfacet
  facet normal  0.000000e+000  9.262921e-002  9.957007e-001
    outer loop
      vertex  1.504934e-001 -2.685012e-002  9.131363e-002
      vertex  2.195724e-001  0.000000e+000  8.881579e-002
      vertex  1.504934e-001  0.000000e+000  8.881579e-002
    endloop
  endfacet
  facet normal  1.000000e+000  0.000000e+000  0.000000e+000
    outer loop
      vertex  2.195724e-001 -1.164758e-001  1.470775e-001
      vertex  2.195724e-001 -1.305801e-001  1.700609e-001
      vertex  2.195724e-001 -2.257504e-001  1.713796e-001
    endloop
  endfacet
  facet normal  1.000000e+000  0.000000e+000  0.000000e+000
    outer loop
      vertex  2.195724e-001  0.000000e+000  8.881579e-002
      vertex  2.195724e-001 -2.685012e-002  9.131363e-002
      vertex  2.195724e-001 -1.583988e-001  6.162823e-002
    endloop
  endfacet
  facet normal  1.000000e+000  -0.000000e+000  0.000000e+000
    outer loop
      vertex  2.195724e-001  0.000000e+000  8.881579e-002
      vertex  2.195724e-001 -1.583988e-001  6.162823e-002
      vertex  2.195724e-001 -1.238155e-001  3.537408e-002
    endloop
  endfacet
  facet normal  1.000000e+000  -0.000000e+000  0.000000e+000
    outer loop
      vertex  2.195724e-001  0.000000e+000  8.881579e-002
      vertex  2.195724e-001 -1.238155e-001  3.537408e-002
      vertex  2.195724e-001 -8.498269e-002  1.594977e-002
    endloop
  endfacet
  facet normal  1.000000e+000  -0.000000e+000  0.000000e+000
    outer loop
      vertex  2.195724e-001  0.000000e+000  8.881579e-002
      vertex  2.195724e-001 -8.498269e-002  1.594977e-002
      vertex  2.195724e-001 -4.323324e-002  4.021951e-003
    endloop
  endfacet
  facet normal  9.999999e-001  -0.000000e+000  0.000000e+000
    outer loop
      vertex  2.195724e-001  0.000000e+000  8.881579e-002
      vertex  2.195724e-001 -4.323324e-002  4.021951e-003
      vertex  2.195724e-001  0.000000e+000 -1.344493e-017
    endloop
  endfacet
  facet normal  1.000000e+000  0.000000e+000  -0.000000e+000
    outer loop
      vertex  2.195724e-001 -1.875459e-001  9.381116e-002
      vertex  2.195724e-001 -1.583988e-001  6.162823e-002
      vertex  2.195724e-001 -2.685012e-002  9.131363e-002
    endloop
  endfacet
  facet normal  1.000000e+000  0.000000e+000  0.000000e+000
    outer loop
      vertex  2.195724e-001 -1.875459e-001  9.381116e-002
      vertex  2.195724e-001 -2.685012e-002  9.131363e-002
      vertex  2.195724e-001 -5.277872e-002  9.872144e-002
    endloop
  endfacet
  facet normal  1.000000e+000  0.000000e+000  0.000000e+000
    outer loop
      vertex  2.195724e-001 -1.875459e-001  9.381116e-002
      vertex  2.195724e-001 -5.277872e-002  9.872144e-002
      vertex  2.195724e-001 -7.689593e-002  1.107850e-001
    endloop
  endfacet
  facet normal  1.000000e+000  0.000000e+000  0.000000e+000
    outer loop
      vertex  2.195724e-001 -1.875459e-001  9.381116e-002
      vertex  2.195724e-001 -7.689593e-002  1.107850e-001
      vertex  2.195724e-001 -2.102562e-001  1.308183e-001
    endloop
  endfacet
  facet normal  1.000000e+000  0.000000e+000  0.000000e+000
    outer loop
      vertex  2.195724e-001 -1.857999e-001  3.772387e-001
      vertex  2.195724e-001 -2.089644e-001  3.405141e-001
      vertex  2.195724e-001 -9.704484e-002  3.428636e-001
    endloop
  endfacet
  facet normal  1.000000e+000  0.000000e+000  -0.000000e+000
    outer loop
      vertex  2.195724e-001 -1.857999e-001  3.772387e-001
      vertex  2.195724e-001 -9.704484e-002  3.428636e-001
      vertex  2.195724e-001 -7.536751e-002  3.589030e-001
    endloop
  endfacet
  facet normal  1.000000e+000  0.000000e+000  -0.000000e+000
    outer loop
      vertex  2.195724e-001 -1.857999e-001  3.772387e-001
      vertex  2.195724e-001 -7.536751e-002  3.589030e-001
      vertex  2.195724e-001 -5.110351e-002  3.706685e-001
    endloop
  endfacet
  facet normal  1.000000e+000  0.000000e+000  -0.000000e+000
    outer loop
      vertex  2.195724e-001 -1.857999e-001  3.772387e-001
      vertex  2.195724e-001 -5.110351e-002  3.706685e-001
      vertex  2.195724e-001 -2.508561e-002  3.777563e-001
    endloop
  endfacet
  facet normal  1.000000e+000  0.000000e+000  0.000000e+000
    outer loop
      vertex  2.195724e-001 -1.857999e-001  3.772387e-001
      vertex  2.195724e-001 -2.508561e-002  3.777563e-001
      vertex  2.195724e-001 -1.562586e-001  4.090601e-001
    endloop
  endfacet
  facet normal  9.999999e-001  0.000000e+000  0.000000e+000
    outer loop
      vertex  2.195724e-001  1.793240e-003  3.799232e-001
      vertex  2.195724e-001  2.887420e-003  4.687322e-001
      vertex  2.195724e-001 -4.039209e-002  4.652432e-001
    endloop
  endfacet
  facet normal  1.000000e+000  0.000000e+000  0.000000e+000
    outer loop
      vertex  2.195724e-001  1.793240e-003  3.799232e-001
      vertex  2.195724e-001 -4.039209e-002  4.652432e-001
      vertex  2.195724e-001 -8.228531e-002  4.538306e-001
    endloop
  endfacet
  facet normal  1.000000e+000  0.000000e+000  0.000000e+000
    outer loop
      vertex  2.195724e-001  1.793240e-003  3.799232e-001
      vertex  2.195724e-001 -8.228531e-002  4.538306e-001
      vertex  2.195724e-001 -1.213545e-001  4.348862e-001
    endloop
  endfacet
  facet normal  1.000000e+000  0.000000e+000  0.000000e+000
    outer loop
      vertex  2.195724e-001  1.793240e-003  3.799232e-001
      vertex  2.195724e-001 -1.213545e-001  4.348862e-001
      vertex  2.195724e-001 -1.562586e-001  4.090601e-001
    endloop
  endfacet
  facet normal  1.000000e+000  0.000000e+000  0.000000e+000
    outer loop
      vertex  2.195724e-001  1.793240e-003  3.799232e-001
      vertex  2.195724e-001 -1.562586e-001  4.090601e-001
      vertex  2.195724e-001 -2.508561e-002  3.777563e-001
    endloop
  endfacet
  facet normal  1.000000e+000  0.000000e+000  0.000000e+000
    outer loop
      vertex  2.195724e-001 -7.689593e-002  1.107850e-001
      vertex  2.195724e-001 -9.837402e-002  1.270902e-001
      vertex  2.195724e-001 -2.102562e-001  1.308183e-001
    endloop
  endfacet
  facet normal  1.000000e+000  -0.000000e+000  0.000000e+000
    outer loop
      vertex  2.195724e-001 -2.102562e-001  1.308183e-001
      vertex  2.195724e-001 -9.837402e-002  1.270902e-001
      vertex  2.195724e-001 -1.164758e-001  1.470775e-001
    endloop
  endfacet
  facet normal  1.000000e+000  0.000000e+000  0.000000e+000
    outer loop
      vertex  2.195724e-001 -2.102562e-001  1.308183e-001
      vertex  2.195724e-001 -1.164758e-001  1.470775e-001
      vertex  2.195724e-001 -2.257504e-001  1.713796e-001
    endloop
  endfacet
  facet normal  1.000000e+000  -0.000000e+000  0.000000e+000
    outer loop
      vertex  2.195724e-001 -1.450137e-001  2.217850e-001
      vertex  2.195724e-001 -2.334967e-001  2.141030e-001
      vertex  2.195724e-001 -1.402029e-001  1.952516e-001
    endloop
  endfacet
  facet normal  1.000000e+000  0.000000e+000  0.000000e+000
    outer loop
      vertex  2.195724e-001 -1.402029e-001  1.952516e-001
      vertex  2.195724e-001 -2.334967e-001  2.141030e-001
      vertex  2.195724e-001 -2.257504e-001  1.713796e-001
    endloop
  endfacet
  facet normal  1.000000e+000  -0.000000e+000  0.000000e+000
    outer loop
      vertex  2.195724e-001 -1.402029e-001  1.952516e-001
      vertex  2.195724e-001 -2.257504e-001  1.713796e-001
      vertex  2.195724e-001 -1.305801e-001  1.700609e-001
    endloop
  endfacet
  facet normal  1.000000e+000  -0.000000e+000  0.000000e+000
    outer loop
      vertex  2.195724e-001 -1.297779e-001  3.002930e-001
      vertex  2.195724e-001 -2.249572e-001  3.001468e-001
      vertex  2.195724e-001 -1.397102e-001  2.752227e-001
    endloop
  endfacet
  facet normal  1.000000e+000  0.000000e+000  0.000000e+000
    outer loop
      vertex  2.195724e-001 -1.397102e-001  2.752227e-001
      vertex  2.195724e-001 -2.249572e-001  3.001468e-001
      vertex  2.195724e-001 -2.332292e-001  2.575221e-001
    endloop
  endfacet
  facet normal  1.000000e+000  -0.000000e+000  0.000000e+000
    outer loop
      vertex  2.195724e-001 -1.397102e-001  2.752227e-001
      vertex  2.195724e-001 -2.332292e-001  2.575221e-001
      vertex  2.195724e-001 -1.448476e-001  2.487506e-001
    endloop
  endfacet
  facet normal  1.000000e+000  0.000000e+000  0.000000e+000
    outer loop
      vertex  2.195724e-001 -1.448476e-001  2.487506e-001
      vertex  2.195724e-001 -2.332292e-001  2.575221e-001
      vertex  2.195724e-001 -2.334967e-001  2.141030e-001
    endloop
  endfacet
  facet normal  1.000000e+000  0.000000e+000  0.000000e+000
    outer loop
      vertex  2.195724e-001 -1.448476e-001  2.487506e-001
      vertex  2.195724e-001 -2.334967e-001  2.141030e-001
      vertex  2.195724e-001 -1.450137e-001  2.217850e-001
    endloop
  endfacet
  facet normal  1.000000e+000  -0.000000e+000  0.000000e+000
    outer loop
      vertex  2.195724e-001 -9.704484e-002  3.428636e-001
      vertex  2.195724e-001 -2.089644e-001  3.405141e-001
      vertex  2.195724e-001 -1.153915e-001  3.231009e-001
    endloop
  endfacet
  facet normal  1.000000e+000  0.000000e+000  0.000000e+000
    outer loop
      vertex  2.195724e-001 -1.153915e-001  3.231009e-001
      vertex  2.195724e-001 -2.089644e-001  3.405141e-001
      vertex  2.195724e-001 -2.249572e-001  3.001468e-001
    endloop
  endfacet
  facet normal  1.000000e+000  0.000000e+000  0.000000e+000
    outer loop
      vertex  2.195724e-001 -1.153915e-001  3.231009e-001
      vertex  2.195724e-001 -2.249572e-001  3.001468e-001
      vertex  2.195724e-001 -1.297779e-001  3.002930e-001
    endloop
  endfacet
  facet normal  0.000000e+000 -8.035523e-002  9.967663e-001
    outer loop
      vertex  2.195724e-001  2.887420e-003  4.687322e-001
      vertex  0.000000e+000  2.887420e-003  4.687322e-001
      vertex  2.195724e-001 -4.039209e-002  4.652432e-001
    endloop
  endfacet
  facet normal  0.000000e+000 -8.035523e-002  9.967663e-001
    outer loop
      vertex  2.195724e-001 -4.039209e-002  4.652432e-001
      vertex  0.000000e+000  2.887420e-003  4.687322e-001
      vertex  0.000000e+000 -4.039209e-002  4.652432e-001
    endloop
  endfacet
  facet normal  0.000000e+000 -2.628416e-001  9.648390e-001
    outer loop
      vertex  2.195724e-001 -4.039209e-002  4.652432e-001
      vertex  0.000000e+000 -4.039209e-002  4.652432e-001
      vertex  2.195724e-001 -8.228531e-002  4.538306e-001
    endloop
  endfacet
  facet normal  0.000000e+000 -2.628416e-001  9.648390e-001
    outer loop
      vertex  2.195724e-001 -8.228531e-002  4.538306e-001
      vertex  0.000000e+000 -4.039209e-002  4.652432e-001
      vertex  0.000000e+000 -8.228531e-002  4.538306e-001
    endloop
  endfacet
  facet normal  0.000000e+000 -4.363075e-001  8.997976e-001
    outer loop
      vertex  2.195724e-001 -8.228531e-002  4.538306e-001
      vertex  0.000000e+000 -8.228531e-002  4.538306e-001
      vertex  2.195724e-001 -1.213545e-001  4.348862e-001
    endloop
  endfacet
  facet normal  0.000000e+000 -4.363075e-001  8.997976e-001
    outer loop
      vertex  2.195724e-001 -1.213545e-001  4.348862e-001
      vertex  0.000000e+000 -8.228531e-002  4.538306e-001
      vertex  0.000000e+000 -1.213545e-001  4.348862e-001
    endloop
  endfacet
  facet normal  0.000000e+000 -5.947984e-001  8.038749e-001
    outer loop
      vertex  2.195724e-001 -1.213545e-001  4.348862e-001
      vertex  0.000000e+000 -1.213545e-001  4.348862e-001
      vertex  2.195724e-001 -1.562586e-001  4.090601e-001
    endloop
  endfacet
  facet normal  0.000000e+000 -5.947984e-001  8.038749e-001
    outer loop
      vertex  2.195724e-001 -1.562586e-001  4.090601e-001
      vertex  0.000000e+000 -1.213545e-001  4.348862e-001
      vertex  0.000000e+000 -1.562586e-001  4.090601e-001
    endloop
  endfacet
  facet normal  0.000000e+000 -7.328760e-001  6.803622e-001
    outer loop
      vertex  2.195724e-001 -1.562586e-001  4.090601e-001
      vertex  0.000000e+000 -1.562586e-001  4.090601e-001
      vertex  2.195724e-001 -1.857999e-001  3.772387e-001
    endloop
  endfacet
  facet normal  0.000000e+000 -7.328760e-001  6.803622e-001
    outer loop
      vertex  2.195724e-001 -1.857999e-001  3.772387e-001
      vertex  0.000000e+000 -1.562586e-001  4.090601e-001
      vertex  0.000000e+000 -1.857999e-001  3.772387e-001
    endloop
  endfacet
  facet normal  0.000000e+000 -8.458002e-001  5.334997e-001
    outer loop
      vertex  2.195724e-001 -1.857999e-001  3.772387e-001
      vertex  0.000000e+000 -1.857999e-001  3.772387e-001
      vertex  2.195724e-001 -2.089644e-001  3.405141e-001
    endloop
  endfacet
  facet normal  0.000000e+000 -8.458002e-001  5.334997e-001
    outer loop
      vertex  2.195724e-001 -2.089644e-001  3.405141e-001
      vertex  0.000000e+000 -1.857999e-001  3.772387e-001
      vertex  0.000000e+000 -2.089644e-001  3.405141e-001
    endloop
  endfacet
  facet normal  0.000000e+000 -9.296964e-001  3.683268e-001
    outer loop
      vertex  2.195724e-001 -2.089644e-001  3.405141e-001
      vertex  0.000000e+000 -2.089644e-001  3.405141e-001
      vertex  2.195724e-001 -2.249572e-001  3.001468e-001
    endloop
  endfacet
  facet normal  0.000000e+000 -9.296964e-001  3.683268e-001
    outer loop
      vertex  2.195724e-001 -2.249572e-001  3.001468e-001
      vertex  0.000000e+000 -2.089644e-001  3.405141e-001
      vertex  0.000000e+000 -2.249572e-001  3.001468e-001
    endloop
  endfacet
  facet normal  0.000000e+000 -9.816848e-001  1.905124e-001
    outer loop
      vertex  2.195724e-001 -2.249572e-001  3.001468e-001
      vertex  0.000000e+000 -2.249572e-001  3.001468e-001
      vertex  2.195724e-001 -2.332292e-001  2.575221e-001
    endloop
  endfacet
  facet normal  0.000000e+000 -9.816848e-001  1.905124e-001
    outer loop
      vertex  2.195724e-001 -2.332292e-001  2.575221e-001
      vertex  0.000000e+000 -2.249572e-001  3.001468e-001
      vertex  0.000000e+000 -2.332292e-001  2.575221e-001
    endloop
  endfacet
  facet normal  0.000000e+000 -9.999810e-001  6.159868e-003
    outer loop
      vertex  2.195724e-001 -2.332292e-001  2.575221e-001
      vertex  0.000000e+000 -2.332292e-001  2.575221e-001
      vertex  2.195724e-001 -2.334967e-001  2.141030e-001
    endloop
  endfacet
  facet normal  0.000000e+000 -9.999810e-001  6.159868e-003
    outer loop
      vertex  2.195724e-001 -2.334967e-001  2.141030e-001
      vertex  0.000000e+000 -2.332292e-001  2.575221e-001
      vertex  0.000000e+000 -2.334967e-001  2.141030e-001
    endloop
  endfacet
  facet normal  0.000000e+000 -9.839573e-001 -1.784042e-001
    outer loop
      vertex  2.195724e-001 -2.334967e-001  2.141030e-001
      vertex  0.000000e+000 -2.334967e-001  2.141030e-001
      vertex  2.195724e-001 -2.257504e-001  1.713796e-001
    endloop
  endfacet
  facet normal  -0.000000e+000 -9.839573e-001 -1.784042e-001
    outer loop
      vertex  2.195724e-001 -2.257504e-001  1.713796e-001
      vertex  0.000000e+000 -2.334967e-001  2.141030e-001
      vertex  0.000000e+000 -2.257504e-001  1.713796e-001
    endloop
  endfacet
  facet normal  0.000000e+000 -9.341636e-001 -3.568451e-001
    outer loop
      vertex  2.195724e-001 -2.257504e-001  1.713796e-001
      vertex  0.000000e+000 -2.257504e-001  1.713796e-001
      vertex  2.195724e-001 -2.102562e-001  1.308183e-001
    endloop
  endfacet
  facet normal  -0.000000e+000 -9.341636e-001 -3.568451e-001
    outer loop
      vertex  2.195724e-001 -2.102562e-001  1.308183e-001
      vertex  0.000000e+000 -2.257504e-001  1.713796e-001
      vertex  0.000000e+000 -2.102562e-001  1.308183e-001
    endloop
  endfacet
  facet normal  0.000000e+000 -8.523086e-001 -5.230392e-001
    outer loop
      vertex  2.195724e-001 -2.102562e-001  1.308183e-001
      vertex  0.000000e+000 -2.102562e-001  1.308183e-001
      vertex  2.195724e-001 -1.875459e-001  9.381116e-002
    endloop
  endfacet
  facet normal  -0.000000e+000 -8.523086e-001 -5.230392e-001
    outer loop
      vertex  2.195724e-001 -1.875459e-001  9.381116e-002
      vertex  0.000000e+000 -2.102562e-001  1.308183e-001
      vertex  0.000000e+000 -1.875459e-001  9.381116e-002
    endloop
  endfacet
  facet normal  0.000000e+000 -7.412020e-001 -6.712820e-001
    outer loop
      vertex  2.195724e-001 -1.875459e-001  9.381116e-002
      vertex  0.000000e+000 -1.875459e-001  9.381116e-002
      vertex  2.195724e-001 -1.583988e-001  6.162823e-002
    endloop
  endfacet
  facet normal  -0.000000e+000 -7.412020e-001 -6.712820e-001
    outer loop
      vertex  2.195724e-001 -1.583988e-001  6.162823e-002
      vertex  0.000000e+000 -1.875459e-001  9.381116e-002
      vertex  0.000000e+000 -1.583988e-001  6.162823e-002
    endloop
  endfacet
  facet normal  0.000000e+000 -6.046569e-001 -7.964860e-001
    outer loop
      vertex  2.195724e-001 -1.583988e-001  6.162823e-002
      vertex  0.000000e+000 -1.583988e-001  6.162823e-002
      vertex  2.195724e-001 -1.238155e-001  3.537408e-002
    endloop
  endfacet
  facet normal  -0.000000e+000 -6.046569e-001 -7.964860e-001
    outer loop
      vertex  2.195724e-001 -1.238155e-001  3.537408e-002
      vertex  0.000000e+000 -1.583988e-001  6.162823e-002
      vertex  0.000000e+000 -1.238155e-001  3.537408e-002
    endloop
  endfacet
  facet normal  0.000000e+000 -4.473595e-001 -8.943543e-001
    outer loop
      vertex  2.195724e-001 -1.238155e-001  3.537408e-002
      vertex  0.000000e+000 -1.238155e-001  3.537408e-002
      vertex  2.195724e-001 -8.498269e-002  1.594977e-002
    endloop
  endfacet
  facet normal  -0.000000e+000 -4.473595e-001 -8.943543e-001
    outer loop
      vertex  2.195724e-001 -8.498269e-002  1.594977e-002
      vertex  0.000000e+000 -1.238155e-001  3.537408e-002
      vertex  0.000000e+000 -8.498269e-002  1.594977e-002
    endloop
  endfacet
  facet normal  0.000000e+000 -2.747084e-001 -9.615276e-001
    outer loop
      vertex  2.195724e-001 -8.498269e-002  1.594977e-002
      vertex  0.000000e+000 -8.498269e-002  1.594977e-002
      vertex  2.195724e-001 -4.323324e-002  4.021951e-003
    endloop
  endfacet
  facet normal  -0.000000e+000 -2.747084e-001 -9.615276e-001
    outer loop
      vertex  2.195724e-001 -4.323324e-002  4.021951e-003
      vertex  0.000000e+000 -8.498269e-002  1.594977e-002
      vertex  0.000000e+000 -4.323324e-002  4.021951e-003
    endloop
  endfacet
  facet normal  0.000000e+000 -9.262916e-002 -9.957007e-001
    outer loop
      vertex  2.195724e-001 -4.323324e-002  4.021951e-003
      vertex  0.000000e+000 -4.323324e-002  4.021951e-003
      vertex  2.195724e-001  0.000000e+000 -1.344493e-017
    endloop
  endfacet
  facet normal -6.096909e-017 -9.262916e-002 -9.957007e-001
    outer loop
      vertex  2.195724e-001  0.000000e+000 -1.344493e-017
      vertex  0.000000e+000 -4.323324e-002  4.021951e-003
      vertex  0.000000e+000  0.000000e+000  0.000000e+000
    endloop
  endfacet
endsolid CATIA STL
