solid CATIA STL
  facet normal  0.000000e+000  0.000000e+000  1.000000e+000
    outer loop
      vertex  0.000000e+000 -4.609375e-001  3.046875e-001
      vertex  7.421875e-001 -4.609375e-001  3.046875e-001
      vertex  0.000000e+000  4.851974e-003  3.046875e-001
    endloop
  endfacet
  facet normal  -0.000000e+000  0.000000e+000  1.000000e+000
    outer loop
      vertex  0.000000e+000  4.851974e-003  3.046875e-001
      vertex  7.421875e-001 -4.609375e-001  3.046875e-001
      vertex  7.421875e-001  4.851974e-003  3.046875e-001
    endloop
  endfacet
  facet normal  3.739698e-017  0.000000e+000 -1.000000e+000
    outer loop
      vertex  0.000000e+000 -4.609375e-001  0.000000e+000
      vertex  0.000000e+000  4.851974e-003  0.000000e+000
      vertex  7.421875e-001 -4.609375e-001  2.775558e-017
    endloop
  endfacet
  facet normal  0.000000e+000 -5.958824e-017 -1.000000e+000
    outer loop
      vertex  7.421875e-001 -4.609375e-001  2.775558e-017
      vertex  0.000000e+000  4.851974e-003  0.000000e+000
      vertex  7.421875e-001  4.851974e-003  0.000000e+000
    endloop
  endfacet
  facet normal  0.000000e+000  1.000000e+000  -0.000000e+000
    outer loop
      vertex  7.421875e-001  4.851974e-003  3.046875e-001
      vertex  7.421875e-001  4.851974e-003  0.000000e+000
      vertex  0.000000e+000  4.851974e-003  3.046875e-001
    endloop
  endfacet
  facet normal  0.000000e+000  1.000000e+000  0.000000e+000
    outer loop
      vertex  0.000000e+000  4.851974e-003  3.046875e-001
      vertex  7.421875e-001  4.851974e-003  0.000000e+000
      vertex  0.000000e+000  4.851974e-003  0.000000e+000
    endloop
  endfacet
  facet normal  1.000000e+000  0.000000e+000  0.000000e+000
    outer loop
      vertex  7.500000e-001 -3.828125e-001  2.265625e-001
      vertex  7.500000e-001 -3.828125e-001  7.812500e-002
      vertex  7.500000e-001 -7.327303e-002  2.265625e-001
    endloop
  endfacet
  facet normal  1.000000e+000  0.000000e+000  0.000000e+000
    outer loop
      vertex  7.500000e-001 -7.327303e-002  2.265625e-001
      vertex  7.500000e-001 -3.828125e-001  7.812500e-002
      vertex  7.500000e-001 -7.327303e-002  7.812500e-002
    endloop
  endfacet
  facet normal  0.000000e+000 -1.000000e+000  0.000000e+000
    outer loop
      vertex  0.000000e+000 -4.609375e-001  3.046875e-001
      vertex  0.000000e+000 -4.609375e-001  0.000000e+000
      vertex  7.421875e-001 -4.609375e-001  3.046875e-001
    endloop
  endfacet
  facet normal  0.000000e+000 -1.000000e+000  -0.000000e+000
    outer loop
      vertex  7.421875e-001 -4.609375e-001  3.046875e-001
      vertex  0.000000e+000 -4.609375e-001  0.000000e+000
      vertex  7.421875e-001 -4.609375e-001  2.775558e-017
    endloop
  endfacet
  facet normal  9.950371e-001 -9.950371e-002  0.000000e+000
    outer loop
      vertex  7.421875e-001 -4.609375e-001  3.046875e-001
      vertex  7.421875e-001 -4.609375e-001  2.775558e-017
      vertex  7.500000e-001 -3.828125e-001  2.265625e-001
    endloop
  endfacet
  facet normal  9.950372e-001 -9.950372e-002  0.000000e+000
    outer loop
      vertex  7.500000e-001 -3.828125e-001  2.265625e-001
      vertex  7.421875e-001 -4.609375e-001  2.775558e-017
      vertex  7.500000e-001 -3.828125e-001  7.812500e-002
    endloop
  endfacet
  facet normal  9.950372e-001  0.000000e+000 -9.950372e-002
    outer loop
      vertex  7.421875e-001  4.851974e-003  0.000000e+000
      vertex  7.500000e-001 -7.327303e-002  7.812500e-002
      vertex  7.421875e-001 -4.609375e-001  2.775558e-017
    endloop
  endfacet
  facet normal  9.950372e-001  0.000000e+000 -9.950372e-002
    outer loop
      vertex  7.421875e-001 -4.609375e-001  2.775558e-017
      vertex  7.500000e-001 -7.327303e-002  7.812500e-002
      vertex  7.500000e-001 -3.828125e-001  7.812500e-002
    endloop
  endfacet
  facet normal  9.950371e-001  9.950371e-002  0.000000e+000
    outer loop
      vertex  7.421875e-001  4.851974e-003  0.000000e+000
      vertex  7.421875e-001  4.851974e-003  3.046875e-001
      vertex  7.500000e-001 -7.327303e-002  7.812500e-002
    endloop
  endfacet
  facet normal  9.950372e-001  9.950372e-002  -0.000000e+000
    outer loop
      vertex  7.500000e-001 -7.327303e-002  7.812500e-002
      vertex  7.421875e-001  4.851974e-003  3.046875e-001
      vertex  7.500000e-001 -7.327303e-002  2.265625e-001
    endloop
  endfacet
  facet normal  9.950372e-001  -0.000000e+000  9.950372e-002
    outer loop
      vertex  7.421875e-001  4.851974e-003  3.046875e-001
      vertex  7.421875e-001 -4.609375e-001  3.046875e-001
      vertex  7.500000e-001 -7.327303e-002  2.265625e-001
    endloop
  endfacet
  facet normal  9.950372e-001  0.000000e+000  9.950372e-002
    outer loop
      vertex  7.500000e-001 -7.327303e-002  2.265625e-001
      vertex  7.421875e-001 -4.609375e-001  3.046875e-001
      vertex  7.500000e-001 -3.828125e-001  2.265625e-001
    endloop
  endfacet
  facet normal -1.000000e+000  0.000000e+000  0.000000e+000
    outer loop
      vertex  0.000000e+000  4.851974e-003  3.046875e-001
      vertex  0.000000e+000  4.851974e-003  0.000000e+000
      vertex  0.000000e+000 -4.609375e-001  3.046875e-001
    endloop
  endfacet
  facet normal -1.000000e+000  0.000000e+000  0.000000e+000
    outer loop
      vertex  0.000000e+000 -4.609375e-001  3.046875e-001
      vertex  0.000000e+000  4.851974e-003  0.000000e+000
      vertex  0.000000e+000 -4.609375e-001  0.000000e+000
    endloop
  endfacet
endsolid CATIA STL
