solid CATIA STL
  facet normal  0.000000e+000  0.000000e+000  1.000000e+000
    outer loop
      vertex -4.375000e-001 -7.109375e-001  7.812500e-002
      vertex  4.317434e-001 -7.109375e-001  7.812500e-002
      vertex -4.375000e-001  7.109375e-001  7.812500e-002
    endloop
  endfacet
  facet normal  -0.000000e+000  0.000000e+000  1.000000e+000
    outer loop
      vertex -4.375000e-001  7.109375e-001  7.812500e-002
      vertex  4.317434e-001 -7.109375e-001  7.812500e-002
      vertex  4.317434e-001  7.109375e-001  7.812500e-002
    endloop
  endfacet
  facet normal -1.000000e+000  0.000000e+000  0.000000e+000
    outer loop
      vertex -4.765625e-001  7.500000e-001  3.906250e-002
      vertex -4.765625e-001  7.500000e-001  0.000000e+000
      vertex -4.765625e-001 -7.500000e-001  3.906250e-002
    endloop
  endfacet
  facet normal -1.000000e+000  0.000000e+000  0.000000e+000
    outer loop
      vertex -4.765625e-001 -7.500000e-001  3.906250e-002
      vertex -4.765625e-001  7.500000e-001  0.000000e+000
      vertex -4.765625e-001 -7.500000e-001  0.000000e+000
    endloop
  endfacet
  facet normal  0.000000e+000  1.000000e+000  -0.000000e+000
    outer loop
      vertex  4.708059e-001  7.500000e-001  3.906250e-002
      vertex  4.708059e-001  7.500000e-001  0.000000e+000
      vertex -4.765625e-001  7.500000e-001  3.906250e-002
    endloop
  endfacet
  facet normal  0.000000e+000  1.000000e+000  0.000000e+000
    outer loop
      vertex -4.765625e-001  7.500000e-001  3.906250e-002
      vertex  4.708059e-001  7.500000e-001  0.000000e+000
      vertex -4.765625e-001  7.500000e-001  0.000000e+000
    endloop
  endfacet
  facet normal  1.000000e+000  0.000000e+000  0.000000e+000
    outer loop
      vertex  4.708059e-001 -7.500000e-001  3.906250e-002
      vertex  4.708059e-001 -7.500000e-001  0.000000e+000
      vertex  4.708059e-001  7.500000e-001  3.906250e-002
    endloop
  endfacet
  facet normal  1.000000e+000  0.000000e+000  0.000000e+000
    outer loop
      vertex  4.708059e-001  7.500000e-001  3.906250e-002
      vertex  4.708059e-001 -7.500000e-001  0.000000e+000
      vertex  4.708059e-001  7.500000e-001  0.000000e+000
    endloop
  endfacet
  facet normal  0.000000e+000 -1.000000e+000  0.000000e+000
    outer loop
      vertex -4.765625e-001 -7.500000e-001  3.906250e-002
      vertex -4.765625e-001 -7.500000e-001  0.000000e+000
      vertex  4.708059e-001 -7.500000e-001  3.906250e-002
    endloop
  endfacet
  facet normal  0.000000e+000 -1.000000e+000  -0.000000e+000
    outer loop
      vertex  4.708059e-001 -7.500000e-001  3.906250e-002
      vertex -4.765625e-001 -7.500000e-001  0.000000e+000
      vertex  4.708059e-001 -7.500000e-001  0.000000e+000
    endloop
  endfacet
  facet normal  1.131428e-001 -4.919296e-008  9.935787e-001
    outer loop
      vertex  4.317434e-001  7.109375e-001  7.812500e-002
      vertex  4.405253e-001 -7.197200e-001  7.712490e-002
      vertex  4.405259e-001  7.197194e-001  7.712490e-002
    endloop
  endfacet
  facet normal  1.131507e-001  -0.000000e+000  9.935778e-001
    outer loop
      vertex  4.317434e-001  7.109375e-001  7.812500e-002
      vertex  4.317434e-001 -7.109375e-001  7.812500e-002
      vertex  4.405253e-001 -7.197200e-001  7.712490e-002
    endloop
  endfacet
  facet normal  9.649212e-001  0.000000e+000  2.625397e-001
    outer loop
      vertex  4.699873e-001 -7.491813e-001  4.701779e-002
      vertex  4.687458e-001  7.479399e-001  5.158062e-002
      vertex  4.687458e-001 -7.479399e-001  5.158062e-002
    endloop
  endfacet
  facet normal  9.261937e-001  0.000000e+000  3.770483e-001
    outer loop
      vertex  4.687458e-001 -7.479399e-001  5.158062e-002
      vertex  4.687458e-001  7.479399e-001  5.158062e-002
      vertex  4.669681e-001  7.461622e-001  5.594737e-002
    endloop
  endfacet
  facet normal  9.261936e-001  0.000000e+000  3.770482e-001
    outer loop
      vertex  4.687458e-001 -7.479399e-001  5.158062e-002
      vertex  4.669681e-001  7.461622e-001  5.594737e-002
      vertex  4.669681e-001 -7.461622e-001  5.594737e-002
    endloop
  endfacet
  facet normal  8.637699e-001  0.000000e+000  5.038864e-001
    outer loop
      vertex  4.669681e-001 -7.461622e-001  5.594737e-002
      vertex  4.669681e-001  7.461622e-001  5.594737e-002
      vertex  4.637789e-001  7.429730e-001  6.141441e-002
    endloop
  endfacet
  facet normal  8.637699e-001  0.000000e+000  5.038863e-001
    outer loop
      vertex  4.669681e-001 -7.461622e-001  5.594737e-002
      vertex  4.637789e-001  7.429730e-001  6.141441e-002
      vertex  4.637789e-001 -7.429730e-001  6.141441e-002
    endloop
  endfacet
  facet normal  7.826319e-001  0.000000e+000  6.224846e-001
    outer loop
      vertex  4.637789e-001 -7.429730e-001  6.141441e-002
      vertex  4.637789e-001  7.429730e-001  6.141441e-002
      vertex  4.607309e-001  7.399250e-001  6.524650e-002
    endloop
  endfacet
  facet normal  7.826290e-001 -1.576117e-008  6.224884e-001
    outer loop
      vertex  4.637789e-001 -7.429730e-001  6.141441e-002
      vertex  4.607309e-001  7.399250e-001  6.524650e-002
      vertex  4.607309e-001 -7.399250e-001  6.524650e-002
    endloop
  endfacet
  facet normal  7.003803e-001 -1.410478e-008  7.137699e-001
    outer loop
      vertex  4.607309e-001 -7.399250e-001  6.524650e-002
      vertex  4.607309e-001  7.399250e-001  6.524650e-002
      vertex  4.573736e-001  7.365670e-001  6.854081e-002
    endloop
  endfacet
  facet normal  7.003072e-001 -3.400224e-007  7.138416e-001
    outer loop
      vertex  4.607309e-001 -7.399250e-001  6.524650e-002
      vertex  4.573736e-001  7.365670e-001  6.854081e-002
      vertex  4.573729e-001 -7.365677e-001  6.854081e-002
    endloop
  endfacet
  facet normal  6.051599e-001 -2.938252e-007  7.961040e-001
    outer loop
      vertex  4.573729e-001 -7.365677e-001  6.854081e-002
      vertex  4.573736e-001  7.365670e-001  6.854081e-002
      vertex  4.532893e-001  7.324816e-001  7.164556e-002
    endloop
  endfacet
  facet normal  6.050613e-001 -7.262302e-007  7.961789e-001
    outer loop
      vertex  4.573729e-001 -7.365677e-001  6.854081e-002
      vertex  4.532893e-001  7.324816e-001  7.164556e-002
      vertex  4.532875e-001 -7.324833e-001  7.164556e-002
    endloop
  endfacet
  facet normal  4.975114e-001 -5.971424e-007  8.674575e-001
    outer loop
      vertex  4.532875e-001 -7.324833e-001  7.164556e-002
      vertex  4.532893e-001  7.324816e-001  7.164556e-002
      vertex  4.489872e-001  7.281792e-001  7.411292e-002
    endloop
  endfacet
  facet normal  4.974819e-001 -7.126176e-007  8.674744e-001
    outer loop
      vertex  4.532875e-001 -7.324833e-001  7.164556e-002
      vertex  4.489872e-001  7.281792e-001  7.411292e-002
      vertex  4.489851e-001 -7.281812e-001  7.411292e-002
    endloop
  endfacet
  facet normal  3.353589e-001 -4.803846e-007  9.420905e-001
    outer loop
      vertex  4.489851e-001 -7.281812e-001  7.411292e-002
      vertex  4.489872e-001  7.281792e-001  7.411292e-002
      vertex  4.405259e-001  7.197194e-001  7.712490e-002
    endloop
  endfacet
  facet normal  3.354097e-001 -1.458316e-007  9.420724e-001
    outer loop
      vertex  4.489851e-001 -7.281812e-001  7.411292e-002
      vertex  4.405259e-001  7.197194e-001  7.712490e-002
      vertex  4.405253e-001 -7.197200e-001  7.712490e-002
    endloop
  endfacet
  facet normal  9.980808e-001  0.000000e+000  6.192513e-002
    outer loop
      vertex  4.708059e-001 -7.500000e-001  3.906250e-002
      vertex  4.708059e-001  7.500000e-001  3.906250e-002
      vertex  4.705063e-001 -7.497004e-001  4.389136e-002
    endloop
  endfacet
  facet normal  9.980808e-001  -0.000000e+000  6.192513e-002
    outer loop
      vertex  4.705063e-001 -7.497004e-001  4.389136e-002
      vertex  4.708059e-001  7.500000e-001  3.906250e-002
      vertex  4.705063e-001  7.497004e-001  4.389136e-002
    endloop
  endfacet
  facet normal  9.864978e-001  0.000000e+000  1.637745e-001
    outer loop
      vertex  4.705063e-001 -7.497004e-001  4.389136e-002
      vertex  4.705063e-001  7.497004e-001  4.389136e-002
      vertex  4.699873e-001 -7.491813e-001  4.701779e-002
    endloop
  endfacet
  facet normal  9.864978e-001  -0.000000e+000  1.637745e-001
    outer loop
      vertex  4.699873e-001 -7.491813e-001  4.701779e-002
      vertex  4.705063e-001  7.497004e-001  4.389136e-002
      vertex  4.699873e-001  7.491813e-001  4.701779e-002
    endloop
  endfacet
  facet normal  9.649212e-001  0.000000e+000  2.625398e-001
    outer loop
      vertex  4.699873e-001 -7.491813e-001  4.701779e-002
      vertex  4.699873e-001  7.491813e-001  4.701779e-002
      vertex  4.687458e-001  7.479399e-001  5.158062e-002
    endloop
  endfacet
  facet normal -7.604623e-008 -1.131428e-001  9.935787e-001
    outer loop
      vertex  4.317434e-001 -7.109375e-001  7.812500e-002
      vertex -4.462825e-001 -7.197194e-001  7.712490e-002
      vertex  4.405253e-001 -7.197200e-001  7.712490e-002
    endloop
  endfacet
  facet normal  0.000000e+000 -1.131503e-001  9.935779e-001
    outer loop
      vertex  4.317434e-001 -7.109375e-001  7.812500e-002
      vertex -4.375000e-001 -7.109375e-001  7.812500e-002
      vertex -4.462825e-001 -7.197194e-001  7.712490e-002
    endloop
  endfacet
  facet normal  0.000000e+000 -9.649227e-001  2.625339e-001
    outer loop
      vertex -4.757439e-001 -7.491813e-001  4.701779e-002
      vertex  4.687458e-001 -7.479399e-001  5.158062e-002
      vertex -4.745024e-001 -7.479399e-001  5.158062e-002
    endloop
  endfacet
  facet normal  0.000000e+000 -9.261958e-001  3.770428e-001
    outer loop
      vertex -4.745024e-001 -7.479399e-001  5.158062e-002
      vertex  4.687458e-001 -7.479399e-001  5.158062e-002
      vertex  4.669681e-001 -7.461622e-001  5.594737e-002
    endloop
  endfacet
  facet normal  0.000000e+000 -9.261959e-001  3.770428e-001
    outer loop
      vertex -4.745024e-001 -7.479399e-001  5.158062e-002
      vertex  4.669681e-001 -7.461622e-001  5.594737e-002
      vertex -4.727247e-001 -7.461622e-001  5.594737e-002
    endloop
  endfacet
  facet normal  0.000000e+000 -8.637679e-001  5.038899e-001
    outer loop
      vertex -4.727247e-001 -7.461622e-001  5.594737e-002
      vertex  4.669681e-001 -7.461622e-001  5.594737e-002
      vertex  4.637789e-001 -7.429730e-001  6.141441e-002
    endloop
  endfacet
  facet normal  0.000000e+000 -8.637679e-001  5.038899e-001
    outer loop
      vertex -4.727247e-001 -7.461622e-001  5.594737e-002
      vertex  4.637789e-001 -7.429730e-001  6.141441e-002
      vertex -4.695355e-001 -7.429730e-001  6.141441e-002
    endloop
  endfacet
  facet normal  0.000000e+000 -7.826320e-001  6.224847e-001
    outer loop
      vertex -4.695355e-001 -7.429730e-001  6.141441e-002
      vertex  4.637789e-001 -7.429730e-001  6.141441e-002
      vertex  4.607309e-001 -7.399250e-001  6.524650e-002
    endloop
  endfacet
  facet normal -5.030977e-008 -7.826260e-001  6.224922e-001
    outer loop
      vertex -4.695355e-001 -7.429730e-001  6.141441e-002
      vertex  4.607309e-001 -7.399250e-001  6.524650e-002
      vertex -4.664875e-001 -7.399250e-001  6.524650e-002
    endloop
  endfacet
  facet normal -4.502274e-008 -7.003803e-001  7.137699e-001
    outer loop
      vertex -4.664875e-001 -7.399250e-001  6.524650e-002
      vertex  4.607309e-001 -7.399250e-001  6.524650e-002
      vertex  4.573729e-001 -7.365677e-001  6.854081e-002
    endloop
  endfacet
  facet normal -5.441599e-007 -7.003103e-001  7.138386e-001
    outer loop
      vertex -4.664875e-001 -7.399250e-001  6.524650e-002
      vertex  4.573729e-001 -7.365677e-001  6.854081e-002
      vertex -4.631302e-001 -7.365670e-001  6.854081e-002
    endloop
  endfacet
  facet normal -4.702234e-007 -6.051572e-001  7.961060e-001
    outer loop
      vertex -4.631302e-001 -7.365670e-001  6.854081e-002
      vertex  4.573729e-001 -7.365677e-001  6.854081e-002
      vertex  4.532875e-001 -7.324833e-001  7.164556e-002
    endloop
  endfacet
  facet normal -1.146367e-006 -6.050610e-001  7.961791e-001
    outer loop
      vertex -4.631302e-001 -7.365670e-001  6.854081e-002
      vertex  4.532875e-001 -7.324833e-001  7.164556e-002
      vertex -4.590458e-001 -7.324816e-001  7.164556e-002
    endloop
  endfacet
  facet normal -9.426008e-007 -4.975116e-001  8.674573e-001
    outer loop
      vertex -4.590458e-001 -7.324816e-001  7.164556e-002
      vertex  4.532875e-001 -7.324833e-001  7.164556e-002
      vertex  4.489851e-001 -7.281812e-001  7.411292e-002
    endloop
  endfacet
  facet normal -1.148378e-006 -4.974790e-001  8.674760e-001
    outer loop
      vertex -4.590458e-001 -7.324816e-001  7.164556e-002
      vertex  4.489851e-001 -7.281812e-001  7.411292e-002
      vertex -4.547437e-001 -7.281792e-001  7.411292e-002
    endloop
  endfacet
  facet normal -7.741435e-007 -3.353602e-001  9.420900e-001
    outer loop
      vertex -4.547437e-001 -7.281792e-001  7.411292e-002
      vertex  4.489851e-001 -7.281812e-001  7.411292e-002
      vertex  4.405253e-001 -7.197200e-001  7.712490e-002
    endloop
  endfacet
  facet normal -2.254389e-007 -3.354118e-001  9.420717e-001
    outer loop
      vertex -4.547437e-001 -7.281792e-001  7.411292e-002
      vertex  4.405253e-001 -7.197200e-001  7.712490e-002
      vertex -4.462825e-001 -7.197194e-001  7.712490e-002
    endloop
  endfacet
  facet normal  0.000000e+000 -9.980804e-001  6.193127e-002
    outer loop
      vertex -4.765625e-001 -7.500000e-001  3.906250e-002
      vertex  4.708059e-001 -7.500000e-001  3.906250e-002
      vertex -4.762629e-001 -7.497004e-001  4.389136e-002
    endloop
  endfacet
  facet normal  0.000000e+000 -9.980804e-001  6.193127e-002
    outer loop
      vertex -4.762629e-001 -7.497004e-001  4.389136e-002
      vertex  4.708059e-001 -7.500000e-001  3.906250e-002
      vertex  4.705063e-001 -7.497004e-001  4.389136e-002
    endloop
  endfacet
  facet normal  0.000000e+000 -9.864978e-001  1.637745e-001
    outer loop
      vertex -4.762629e-001 -7.497004e-001  4.389136e-002
      vertex  4.705063e-001 -7.497004e-001  4.389136e-002
      vertex -4.757439e-001 -7.491813e-001  4.701779e-002
    endloop
  endfacet
  facet normal  0.000000e+000 -9.864978e-001  1.637745e-001
    outer loop
      vertex -4.757439e-001 -7.491813e-001  4.701779e-002
      vertex  4.705063e-001 -7.497004e-001  4.389136e-002
      vertex  4.699873e-001 -7.491813e-001  4.701779e-002
    endloop
  endfacet
  facet normal  0.000000e+000 -9.649228e-001  2.625339e-001
    outer loop
      vertex -4.757439e-001 -7.491813e-001  4.701779e-002
      vertex  4.699873e-001 -7.491813e-001  4.701779e-002
      vertex  4.687458e-001 -7.479399e-001  5.158062e-002
    endloop
  endfacet
  facet normal -1.131428e-001  4.919296e-008  9.935787e-001
    outer loop
      vertex -4.375000e-001 -7.109375e-001  7.812500e-002
      vertex -4.462819e-001  7.197200e-001  7.712490e-002
      vertex -4.462825e-001 -7.197194e-001  7.712490e-002
    endloop
  endfacet
  facet normal -1.131507e-001  0.000000e+000  9.935778e-001
    outer loop
      vertex -4.375000e-001 -7.109375e-001  7.812500e-002
      vertex -4.375000e-001  7.109375e-001  7.812500e-002
      vertex -4.462819e-001  7.197200e-001  7.712490e-002
    endloop
  endfacet
  facet normal -9.649212e-001  0.000000e+000  2.625397e-001
    outer loop
      vertex -4.757439e-001  7.491813e-001  4.701779e-002
      vertex -4.745024e-001 -7.479399e-001  5.158062e-002
      vertex -4.745024e-001  7.479399e-001  5.158062e-002
    endloop
  endfacet
  facet normal -9.261937e-001  0.000000e+000  3.770483e-001
    outer loop
      vertex -4.745024e-001  7.479399e-001  5.158062e-002
      vertex -4.745024e-001 -7.479399e-001  5.158062e-002
      vertex -4.727247e-001 -7.461622e-001  5.594737e-002
    endloop
  endfacet
  facet normal -9.261936e-001  0.000000e+000  3.770482e-001
    outer loop
      vertex -4.745024e-001  7.479399e-001  5.158062e-002
      vertex -4.727247e-001 -7.461622e-001  5.594737e-002
      vertex -4.727247e-001  7.461622e-001  5.594737e-002
    endloop
  endfacet
  facet normal -8.637699e-001  0.000000e+000  5.038864e-001
    outer loop
      vertex -4.727247e-001  7.461622e-001  5.594737e-002
      vertex -4.727247e-001 -7.461622e-001  5.594737e-002
      vertex -4.695355e-001 -7.429730e-001  6.141441e-002
    endloop
  endfacet
  facet normal -8.637699e-001  0.000000e+000  5.038863e-001
    outer loop
      vertex -4.727247e-001  7.461622e-001  5.594737e-002
      vertex -4.695355e-001 -7.429730e-001  6.141441e-002
      vertex -4.695355e-001  7.429730e-001  6.141441e-002
    endloop
  endfacet
  facet normal -7.826319e-001  0.000000e+000  6.224846e-001
    outer loop
      vertex -4.695355e-001  7.429730e-001  6.141441e-002
      vertex -4.695355e-001 -7.429730e-001  6.141441e-002
      vertex -4.664875e-001 -7.399250e-001  6.524650e-002
    endloop
  endfacet
  facet normal -7.826260e-001  3.152221e-008  6.224921e-001
    outer loop
      vertex -4.695355e-001  7.429730e-001  6.141441e-002
      vertex -4.664875e-001 -7.399250e-001  6.524650e-002
      vertex -4.664875e-001  7.399250e-001  6.524650e-002
    endloop
  endfacet
  facet normal -7.003803e-001  2.820956e-008  7.137699e-001
    outer loop
      vertex -4.664875e-001  7.399250e-001  6.524650e-002
      vertex -4.664875e-001 -7.399250e-001  6.524650e-002
      vertex -4.631302e-001 -7.365670e-001  6.854081e-002
    endloop
  endfacet
  facet normal -7.003072e-001  3.541900e-007  7.138416e-001
    outer loop
      vertex -4.664875e-001  7.399250e-001  6.524650e-002
      vertex -4.631302e-001 -7.365670e-001  6.854081e-002
      vertex -4.631295e-001  7.365677e-001  6.854081e-002
    endloop
  endfacet
  facet normal -6.051571e-001  3.060665e-007  7.961060e-001
    outer loop
      vertex -4.631295e-001  7.365677e-001  6.854081e-002
      vertex -4.631302e-001 -7.365670e-001  6.854081e-002
      vertex -4.590458e-001 -7.324816e-001  7.164556e-002
    endloop
  endfacet
  facet normal -6.050641e-001  7.139245e-007  7.961767e-001
    outer loop
      vertex -4.631295e-001  7.365677e-001  6.854081e-002
      vertex -4.590458e-001 -7.324816e-001  7.164556e-002
      vertex -4.590441e-001  7.324833e-001  7.164556e-002
    endloop
  endfacet
  facet normal -4.975114e-001  5.870214e-007  8.674575e-001
    outer loop
      vertex -4.590441e-001  7.324833e-001  7.164556e-002
      vertex -4.590458e-001 -7.324816e-001  7.164556e-002
      vertex -4.547437e-001 -7.281792e-001  7.411292e-002
    endloop
  endfacet
  facet normal -4.974793e-001  7.126139e-007  8.674759e-001
    outer loop
      vertex -4.590441e-001  7.324833e-001  7.164556e-002
      vertex -4.547437e-001 -7.281792e-001  7.411292e-002
      vertex -4.547417e-001  7.281812e-001  7.411292e-002
    endloop
  endfacet
  facet normal -3.353599e-001  4.803861e-007  9.420901e-001
    outer loop
      vertex -4.547417e-001  7.281812e-001  7.411292e-002
      vertex -4.547437e-001 -7.281792e-001  7.411292e-002
      vertex -4.462825e-001 -7.197194e-001  7.712490e-002
    endloop
  endfacet
  facet normal -3.354107e-001  1.458320e-007  9.420720e-001
    outer loop
      vertex -4.547417e-001  7.281812e-001  7.411292e-002
      vertex -4.462825e-001 -7.197194e-001  7.712490e-002
      vertex -4.462819e-001  7.197200e-001  7.712490e-002
    endloop
  endfacet
  facet normal -9.980804e-001  0.000000e+000  6.193127e-002
    outer loop
      vertex -4.765625e-001  7.500000e-001  3.906250e-002
      vertex -4.765625e-001 -7.500000e-001  3.906250e-002
      vertex -4.762629e-001  7.497004e-001  4.389136e-002
    endloop
  endfacet
  facet normal -9.980804e-001  0.000000e+000  6.193127e-002
    outer loop
      vertex -4.762629e-001  7.497004e-001  4.389136e-002
      vertex -4.765625e-001 -7.500000e-001  3.906250e-002
      vertex -4.762629e-001 -7.497004e-001  4.389136e-002
    endloop
  endfacet
  facet normal -9.864993e-001  0.000000e+000  1.637653e-001
    outer loop
      vertex -4.762629e-001  7.497004e-001  4.389136e-002
      vertex -4.762629e-001 -7.497004e-001  4.389136e-002
      vertex -4.757439e-001  7.491813e-001  4.701779e-002
    endloop
  endfacet
  facet normal -9.864993e-001  0.000000e+000  1.637654e-001
    outer loop
      vertex -4.757439e-001  7.491813e-001  4.701779e-002
      vertex -4.762629e-001 -7.497004e-001  4.389136e-002
      vertex -4.757439e-001 -7.491813e-001  4.701779e-002
    endloop
  endfacet
  facet normal -9.649212e-001  0.000000e+000  2.625398e-001
    outer loop
      vertex -4.757439e-001  7.491813e-001  4.701779e-002
      vertex -4.757439e-001 -7.491813e-001  4.701779e-002
      vertex -4.745024e-001 -7.479399e-001  5.158062e-002
    endloop
  endfacet
  facet normal  7.604623e-008  1.131428e-001  9.935787e-001
    outer loop
      vertex -4.375000e-001  7.109375e-001  7.812500e-002
      vertex  4.405259e-001  7.197194e-001  7.712490e-002
      vertex -4.462819e-001  7.197200e-001  7.712490e-002
    endloop
  endfacet
  facet normal  0.000000e+000  1.131503e-001  9.935779e-001
    outer loop
      vertex -4.375000e-001  7.109375e-001  7.812500e-002
      vertex  4.317434e-001  7.109375e-001  7.812500e-002
      vertex  4.405259e-001  7.197194e-001  7.712490e-002
    endloop
  endfacet
  facet normal  -0.000000e+000  9.649227e-001  2.625339e-001
    outer loop
      vertex  4.699873e-001  7.491813e-001  4.701779e-002
      vertex -4.745024e-001  7.479399e-001  5.158062e-002
      vertex  4.687458e-001  7.479399e-001  5.158062e-002
    endloop
  endfacet
  facet normal  -0.000000e+000  9.261958e-001  3.770428e-001
    outer loop
      vertex  4.687458e-001  7.479399e-001  5.158062e-002
      vertex -4.745024e-001  7.479399e-001  5.158062e-002
      vertex -4.727247e-001  7.461622e-001  5.594737e-002
    endloop
  endfacet
  facet normal  -0.000000e+000  9.261959e-001  3.770428e-001
    outer loop
      vertex  4.687458e-001  7.479399e-001  5.158062e-002
      vertex -4.727247e-001  7.461622e-001  5.594737e-002
      vertex  4.669681e-001  7.461622e-001  5.594737e-002
    endloop
  endfacet
  facet normal  -0.000000e+000  8.637679e-001  5.038899e-001
    outer loop
      vertex  4.669681e-001  7.461622e-001  5.594737e-002
      vertex -4.727247e-001  7.461622e-001  5.594737e-002
      vertex -4.695355e-001  7.429730e-001  6.141441e-002
    endloop
  endfacet
  facet normal  -0.000000e+000  8.637679e-001  5.038899e-001
    outer loop
      vertex  4.669681e-001  7.461622e-001  5.594737e-002
      vertex -4.695355e-001  7.429730e-001  6.141441e-002
      vertex  4.637789e-001  7.429730e-001  6.141441e-002
    endloop
  endfacet
  facet normal  -0.000000e+000  7.826320e-001  6.224847e-001
    outer loop
      vertex  4.637789e-001  7.429730e-001  6.141441e-002
      vertex -4.695355e-001  7.429730e-001  6.141441e-002
      vertex -4.664875e-001  7.399250e-001  6.524650e-002
    endloop
  endfacet
  facet normal  5.030977e-008  7.826260e-001  6.224922e-001
    outer loop
      vertex  4.637789e-001  7.429730e-001  6.141441e-002
      vertex -4.664875e-001  7.399250e-001  6.524650e-002
      vertex  4.607309e-001  7.399250e-001  6.524650e-002
    endloop
  endfacet
  facet normal  4.502274e-008  7.003803e-001  7.137699e-001
    outer loop
      vertex  4.607309e-001  7.399250e-001  6.524650e-002
      vertex -4.664875e-001  7.399250e-001  6.524650e-002
      vertex -4.631295e-001  7.365677e-001  6.854081e-002
    endloop
  endfacet
  facet normal  5.441599e-007  7.003103e-001  7.138386e-001
    outer loop
      vertex  4.607309e-001  7.399250e-001  6.524650e-002
      vertex -4.631295e-001  7.365677e-001  6.854081e-002
      vertex  4.573736e-001  7.365670e-001  6.854081e-002
    endloop
  endfacet
  facet normal  4.702234e-007  6.051572e-001  7.961060e-001
    outer loop
      vertex  4.573736e-001  7.365670e-001  6.854081e-002
      vertex -4.631295e-001  7.365677e-001  6.854081e-002
      vertex -4.590441e-001  7.324833e-001  7.164556e-002
    endloop
  endfacet
  facet normal  1.146367e-006  6.050610e-001  7.961791e-001
    outer loop
      vertex  4.573736e-001  7.365670e-001  6.854081e-002
      vertex -4.590441e-001  7.324833e-001  7.164556e-002
      vertex  4.532893e-001  7.324816e-001  7.164556e-002
    endloop
  endfacet
  facet normal  9.426008e-007  4.975116e-001  8.674573e-001
    outer loop
      vertex  4.532893e-001  7.324816e-001  7.164556e-002
      vertex -4.590441e-001  7.324833e-001  7.164556e-002
      vertex -4.547417e-001  7.281812e-001  7.411292e-002
    endloop
  endfacet
  facet normal  1.148378e-006  4.974790e-001  8.674760e-001
    outer loop
      vertex  4.532893e-001  7.324816e-001  7.164556e-002
      vertex -4.547417e-001  7.281812e-001  7.411292e-002
      vertex  4.489872e-001  7.281792e-001  7.411292e-002
    endloop
  endfacet
  facet normal  7.741435e-007  3.353602e-001  9.420900e-001
    outer loop
      vertex  4.489872e-001  7.281792e-001  7.411292e-002
      vertex -4.547417e-001  7.281812e-001  7.411292e-002
      vertex -4.462819e-001  7.197200e-001  7.712490e-002
    endloop
  endfacet
  facet normal  2.254389e-007  3.354118e-001  9.420717e-001
    outer loop
      vertex  4.489872e-001  7.281792e-001  7.411292e-002
      vertex -4.462819e-001  7.197200e-001  7.712490e-002
      vertex  4.405259e-001  7.197194e-001  7.712490e-002
    endloop
  endfacet
  facet normal  -0.000000e+000  9.980804e-001  6.193127e-002
    outer loop
      vertex  4.708059e-001  7.500000e-001  3.906250e-002
      vertex -4.765625e-001  7.500000e-001  3.906250e-002
      vertex  4.705063e-001  7.497004e-001  4.389136e-002
    endloop
  endfacet
  facet normal  0.000000e+000  9.980804e-001  6.193127e-002
    outer loop
      vertex  4.705063e-001  7.497004e-001  4.389136e-002
      vertex -4.765625e-001  7.500000e-001  3.906250e-002
      vertex -4.762629e-001  7.497004e-001  4.389136e-002
    endloop
  endfacet
  facet normal  -0.000000e+000  9.864978e-001  1.637745e-001
    outer loop
      vertex  4.705063e-001  7.497004e-001  4.389136e-002
      vertex -4.762629e-001  7.497004e-001  4.389136e-002
      vertex  4.699873e-001  7.491813e-001  4.701779e-002
    endloop
  endfacet
  facet normal  0.000000e+000  9.864978e-001  1.637745e-001
    outer loop
      vertex  4.699873e-001  7.491813e-001  4.701779e-002
      vertex -4.762629e-001  7.497004e-001  4.389136e-002
      vertex -4.757439e-001  7.491813e-001  4.701779e-002
    endloop
  endfacet
  facet normal  -0.000000e+000  9.649228e-001  2.625339e-001
    outer loop
      vertex  4.699873e-001  7.491813e-001  4.701779e-002
      vertex -4.757439e-001  7.491813e-001  4.701779e-002
      vertex -4.745024e-001  7.479399e-001  5.158062e-002
    endloop
  endfacet
  facet normal  0.000000e+000  0.000000e+000 -1.000000e+000
    outer loop
      vertex -4.765625e-001 -7.500000e-001  0.000000e+000
      vertex -4.765625e-001  7.500000e-001  0.000000e+000
      vertex  4.708059e-001 -7.500000e-001  0.000000e+000
    endloop
  endfacet
  facet normal  0.000000e+000  0.000000e+000 -1.000000e+000
    outer loop
      vertex  4.708059e-001 -7.500000e-001  0.000000e+000
      vertex -4.765625e-001  7.500000e-001  0.000000e+000
      vertex  4.708059e-001  7.500000e-001  0.000000e+000
    endloop
  endfacet
endsolid CATIA STL
