solid CATIA STL
  facet normal  0.000000e+000  -0.000000e+000  1.000000e+000
    outer loop
      vertex -1.015625e-001 -8.692982e-002 -2.343750e-002
      vertex  1.015625e-001 -8.593750e-002 -2.343750e-002
      vertex  1.015625e-001  1.015625e-001 -2.343750e-002
    endloop
  endfacet
  facet normal  0.000000e+000  0.000000e+000  1.000000e+000
    outer loop
      vertex -1.015625e-001 -8.692982e-002 -2.343750e-002
      vertex  1.015625e-001  1.015625e-001 -2.343750e-002
      vertex  7.590461e-002  1.015625e-001 -2.343750e-002
    endloop
  endfacet
  facet normal  0.000000e+000  0.000000e+000  1.000000e+000
    outer loop
      vertex -1.015625e-001 -8.692982e-002 -2.343750e-002
      vertex  7.590461e-002  1.015625e-001 -2.343750e-002
      vertex  7.203947e-002  1.015625e-001 -2.343750e-002
    endloop
  endfacet
  facet normal  0.000000e+000  0.000000e+000  9.999999e-001
    outer loop
      vertex -1.015625e-001 -8.692982e-002 -2.343750e-002
      vertex  7.203947e-002  1.015625e-001 -2.343750e-002
      vertex -7.812500e-002  1.015625e-001 -2.343750e-002
    endloop
  endfacet
  facet normal  0.000000e+000  0.000000e+000  1.000000e+000
    outer loop
      vertex -1.015625e-001 -8.692982e-002 -2.343750e-002
      vertex -7.812500e-002  1.015625e-001 -2.343750e-002
      vertex -1.015625e-001  1.015625e-001 -2.343750e-002
    endloop
  endfacet
  facet normal  0.000000e+000  0.000000e+000  1.000000e+000
    outer loop
      vertex -7.812500e-002  1.015625e-001 -2.343750e-002
      vertex  7.203947e-002  1.015625e-001 -2.343750e-002
      vertex -7.812500e-002  7.500000e-001 -2.343750e-002
    endloop
  endfacet
  facet normal  -0.000000e+000  0.000000e+000  1.000000e+000
    outer loop
      vertex -7.812500e-002  7.500000e-001 -2.343750e-002
      vertex  7.203947e-002  1.015625e-001 -2.343750e-002
      vertex  7.203947e-002  7.500000e-001 -2.343750e-002
    endloop
  endfacet
  facet normal  0.000000e+000 -1.000000e+000  -0.000000e+000
    outer loop
      vertex  7.590461e-002  1.015625e-001 -2.343750e-002
      vertex  7.590461e-002  1.015625e-001  0.000000e+000
      vertex  7.203947e-002  1.015625e-001 -2.343750e-002
    endloop
  endfacet
  facet normal  0.000000e+000 -1.000000e+000  0.000000e+000
    outer loop
      vertex  7.203947e-002  1.015625e-001 -2.343750e-002
      vertex  7.590461e-002  1.015625e-001  0.000000e+000
      vertex  7.203947e-002  1.015625e-001  0.000000e+000
    endloop
  endfacet
  facet normal  0.000000e+000 -1.000000e+000  -0.000000e+000
    outer loop
      vertex -7.812500e-002  1.015625e-001 -2.343750e-002
      vertex -7.812500e-002  1.015625e-001  0.000000e+000
      vertex -1.015625e-001  1.015625e-001 -2.343750e-002
    endloop
  endfacet
  facet normal  0.000000e+000 -1.000000e+000  0.000000e+000
    outer loop
      vertex -1.015625e-001  1.015625e-001 -2.343750e-002
      vertex -7.812500e-002  1.015625e-001  0.000000e+000
      vertex -1.015625e-001  1.015625e-001  0.000000e+000
    endloop
  endfacet
  facet normal  0.000000e+000  0.000000e+000  1.000000e+000
    outer loop
      vertex  7.500000e-001 -6.484375e-001  0.000000e+000
      vertex  9.716988e-002 -1.040899e-001  0.000000e+000
      vertex  9.338619e-002 -1.092739e-001  0.000000e+000
    endloop
  endfacet
  facet normal  -0.000000e+000  0.000000e+000  1.000000e+000
    outer loop
      vertex  6.552632e-001  7.568257e-001  0.000000e+000
      vertex -6.552632e-001  7.568257e-001  0.000000e+000
      vertex -7.812500e-002  7.500000e-001  0.000000e+000
    endloop
  endfacet
  facet normal  0.000000e+000  0.000000e+000  1.000000e+000
    outer loop
      vertex  6.552632e-001  7.568257e-001  0.000000e+000
      vertex -7.812500e-002  7.500000e-001  0.000000e+000
      vertex  7.203947e-002  7.500000e-001  0.000000e+000
    endloop
  endfacet
  facet normal  -0.000000e+000  0.000000e+000  9.999999e-001
    outer loop
      vertex  6.552632e-001  7.568257e-001  0.000000e+000
      vertex  7.203947e-002  7.500000e-001  0.000000e+000
      vertex  7.203947e-002  1.015625e-001  0.000000e+000
    endloop
  endfacet
  facet normal  0.000000e+000  0.000000e+000  9.999999e-001
    outer loop
      vertex  6.552632e-001  7.568257e-001  0.000000e+000
      vertex  7.203947e-002  1.015625e-001  0.000000e+000
      vertex  6.556950e-001  7.366515e-001  0.000000e+000
    endloop
  endfacet
  facet normal  0.000000e+000  0.000000e+000  1.000000e+000
    outer loop
      vertex -8.593750e-002 -1.171875e-001  0.000000e+000
      vertex -9.629527e-002 -1.054352e-001  0.000000e+000
      vertex -7.500000e-001 -6.484375e-001  0.000000e+000
    endloop
  endfacet
  facet normal  -0.000000e+000  0.000000e+000  9.999999e-001
    outer loop
      vertex -8.593750e-002 -1.171875e-001  0.000000e+000
      vertex -7.500000e-001 -6.484375e-001  0.000000e+000
      vertex -7.315177e-001 -6.502578e-001  0.000000e+000
    endloop
  endfacet
  facet normal  -0.000000e+000  0.000000e+000  1.000000e+000
    outer loop
      vertex -8.593750e-002 -1.171875e-001  0.000000e+000
      vertex -7.315177e-001 -6.502578e-001  0.000000e+000
      vertex -7.137458e-001 -6.556489e-001  0.000000e+000
    endloop
  endfacet
  facet normal  -0.000000e+000  0.000000e+000  1.000000e+000
    outer loop
      vertex -8.593750e-002 -1.171875e-001  0.000000e+000
      vertex -7.137458e-001 -6.556489e-001  0.000000e+000
      vertex -6.973670e-001 -6.644036e-001  0.000000e+000
    endloop
  endfacet
  facet normal  -0.000000e+000  0.000000e+000  1.000000e+000
    outer loop
      vertex -8.593750e-002 -1.171875e-001  0.000000e+000
      vertex -6.973670e-001 -6.644036e-001  0.000000e+000
      vertex -6.830109e-001 -6.761853e-001  0.000000e+000
    endloop
  endfacet
  facet normal  -0.000000e+000  0.000000e+000  1.000000e+000
    outer loop
      vertex -8.593750e-002 -1.171875e-001  0.000000e+000
      vertex -6.830109e-001 -6.761853e-001  0.000000e+000
      vertex -6.712292e-001 -6.905414e-001  0.000000e+000
    endloop
  endfacet
  facet normal  -0.000000e+000  0.000000e+000  1.000000e+000
    outer loop
      vertex -8.593750e-002 -1.171875e-001  0.000000e+000
      vertex -6.712292e-001 -6.905414e-001  0.000000e+000
      vertex -6.624746e-001 -7.069201e-001  0.000000e+000
    endloop
  endfacet
  facet normal  -0.000000e+000  0.000000e+000  9.999999e-001
    outer loop
      vertex -8.593750e-002 -1.171875e-001  0.000000e+000
      vertex -6.624746e-001 -7.069201e-001  0.000000e+000
      vertex -6.570835e-001 -7.246921e-001  0.000000e+000
    endloop
  endfacet
  facet normal  -0.000000e+000  0.000000e+000  1.000000e+000
    outer loop
      vertex -8.593750e-002 -1.171875e-001  0.000000e+000
      vertex -6.570835e-001 -7.246921e-001  0.000000e+000
      vertex -6.552632e-001 -7.431743e-001  0.000000e+000
    endloop
  endfacet
  facet normal  0.000000e+000  0.000000e+000  1.000000e+000
    outer loop
      vertex -8.593750e-002 -1.171875e-001  0.000000e+000
      vertex -6.552632e-001 -7.431743e-001  0.000000e+000
      vertex  6.552632e-001 -7.431743e-001  0.000000e+000
    endloop
  endfacet
  facet normal  0.000000e+000  0.000000e+000  1.000000e+000
    outer loop
      vertex -8.593750e-002 -1.171875e-001  0.000000e+000
      vertex  6.552632e-001 -7.431743e-001  0.000000e+000
      vertex  8.593750e-002 -1.171875e-001  0.000000e+000
    endloop
  endfacet
  facet normal  0.000000e+000  -0.000000e+000  1.000000e+000
    outer loop
      vertex  8.593750e-002 -1.171875e-001  0.000000e+000
      vertex  6.552632e-001 -7.431743e-001  0.000000e+000
      vertex  6.570835e-001 -7.246921e-001  0.000000e+000
    endloop
  endfacet
  facet normal  0.000000e+000  -0.000000e+000  9.999999e-001
    outer loop
      vertex  8.593750e-002 -1.171875e-001  0.000000e+000
      vertex  6.570835e-001 -7.246921e-001  0.000000e+000
      vertex  6.624746e-001 -7.069201e-001  0.000000e+000
    endloop
  endfacet
  facet normal  0.000000e+000  -0.000000e+000  1.000000e+000
    outer loop
      vertex  8.593750e-002 -1.171875e-001  0.000000e+000
      vertex  6.624746e-001 -7.069201e-001  0.000000e+000
      vertex  6.712292e-001 -6.905414e-001  0.000000e+000
    endloop
  endfacet
  facet normal  0.000000e+000  -0.000000e+000  1.000000e+000
    outer loop
      vertex  8.593750e-002 -1.171875e-001  0.000000e+000
      vertex  6.712292e-001 -6.905414e-001  0.000000e+000
      vertex  6.830109e-001 -6.761853e-001  0.000000e+000
    endloop
  endfacet
  facet normal  0.000000e+000  -0.000000e+000  1.000000e+000
    outer loop
      vertex  8.593750e-002 -1.171875e-001  0.000000e+000
      vertex  6.830109e-001 -6.761853e-001  0.000000e+000
      vertex  6.973670e-001 -6.644036e-001  0.000000e+000
    endloop
  endfacet
  facet normal  0.000000e+000  -0.000000e+000  1.000000e+000
    outer loop
      vertex  8.593750e-002 -1.171875e-001  0.000000e+000
      vertex  6.973670e-001 -6.644036e-001  0.000000e+000
      vertex  7.137458e-001 -6.556489e-001  0.000000e+000
    endloop
  endfacet
  facet normal  0.000000e+000  -0.000000e+000  1.000000e+000
    outer loop
      vertex  8.593750e-002 -1.171875e-001  0.000000e+000
      vertex  7.137458e-001 -6.556489e-001  0.000000e+000
      vertex  7.315177e-001 -6.502578e-001  0.000000e+000
    endloop
  endfacet
  facet normal  0.000000e+000  -0.000000e+000  9.999999e-001
    outer loop
      vertex  8.593750e-002 -1.171875e-001  0.000000e+000
      vertex  7.315177e-001 -6.502578e-001  0.000000e+000
      vertex  7.500000e-001 -6.484375e-001  0.000000e+000
    endloop
  endfacet
  facet normal  0.000000e+000  0.000000e+000  1.000000e+000
    outer loop
      vertex  8.593750e-002 -1.171875e-001  0.000000e+000
      vertex  7.500000e-001 -6.484375e-001  0.000000e+000
      vertex  9.338619e-002 -1.092739e-001  0.000000e+000
    endloop
  endfacet
  facet normal  0.000000e+000  0.000000e+000  9.999999e-001
    outer loop
      vertex -7.500000e-001  6.462994e-001  0.000000e+000
      vertex -7.500000e-001 -6.484375e-001  0.000000e+000
      vertex -9.629527e-002 -1.054352e-001  0.000000e+000
    endloop
  endfacet
  facet normal  0.000000e+000  0.000000e+000  1.000000e+000
    outer loop
      vertex -7.500000e-001  6.462994e-001  0.000000e+000
      vertex -9.629527e-002 -1.054352e-001  0.000000e+000
      vertex -9.933648e-002 -1.000218e-001  0.000000e+000
    endloop
  endfacet
  facet normal  0.000000e+000  0.000000e+000  1.000000e+000
    outer loop
      vertex -7.500000e-001  6.462994e-001  0.000000e+000
      vertex -9.933648e-002 -1.000218e-001  0.000000e+000
      vertex -1.008233e-001 -9.578294e-002  0.000000e+000
    endloop
  endfacet
  facet normal  0.000000e+000  0.000000e+000  1.000000e+000
    outer loop
      vertex -7.500000e-001  6.462994e-001  0.000000e+000
      vertex -1.008233e-001 -9.578294e-002  0.000000e+000
      vertex -1.015150e-001 -9.153938e-002  0.000000e+000
    endloop
  endfacet
  facet normal  0.000000e+000  0.000000e+000  1.000000e+000
    outer loop
      vertex -7.500000e-001  6.462994e-001  0.000000e+000
      vertex -1.015150e-001 -9.153938e-002  0.000000e+000
      vertex -1.015625e-001 -9.012420e-002  0.000000e+000
    endloop
  endfacet
  facet normal  0.000000e+000  -0.000000e+000  1.000000e+000
    outer loop
      vertex -7.500000e-001  6.462994e-001  0.000000e+000
      vertex -1.015625e-001 -9.012420e-002  0.000000e+000
      vertex -1.015625e-001  1.015625e-001  0.000000e+000
    endloop
  endfacet
  facet normal  0.000000e+000  -0.000000e+000  1.000000e+000
    outer loop
      vertex -7.500000e-001  6.462994e-001  0.000000e+000
      vertex -1.015625e-001  1.015625e-001  0.000000e+000
      vertex -7.812500e-002  1.015625e-001  0.000000e+000
    endloop
  endfacet
  facet normal  0.000000e+000  0.000000e+000  1.000000e+000
    outer loop
      vertex -7.812500e-002  1.015625e-001  0.000000e+000
      vertex -7.812500e-002  7.500000e-001  0.000000e+000
      vertex -6.552632e-001  7.568257e-001  0.000000e+000
    endloop
  endfacet
  facet normal  0.000000e+000  0.000000e+000  1.000000e+000
    outer loop
      vertex -7.812500e-002  1.015625e-001  0.000000e+000
      vertex -6.552632e-001  7.568257e-001  0.000000e+000
      vertex -6.556950e-001  7.366515e-001  0.000000e+000
    endloop
  endfacet
  facet normal  0.000000e+000  0.000000e+000  1.000000e+000
    outer loop
      vertex -7.812500e-002  1.015625e-001  0.000000e+000
      vertex -6.556950e-001  7.366515e-001  0.000000e+000
      vertex -6.600543e-001  7.169493e-001  0.000000e+000
    endloop
  endfacet
  facet normal  0.000000e+000  0.000000e+000  1.000000e+000
    outer loop
      vertex -7.812500e-002  1.015625e-001  0.000000e+000
      vertex -6.600543e-001  7.169493e-001  0.000000e+000
      vertex -6.681736e-001  6.984761e-001  0.000000e+000
    endloop
  endfacet
  facet normal  0.000000e+000  0.000000e+000  1.000000e+000
    outer loop
      vertex -7.812500e-002  1.015625e-001  0.000000e+000
      vertex -6.681736e-001  6.984761e-001  0.000000e+000
      vertex -6.797408e-001  6.819419e-001  0.000000e+000
    endloop
  endfacet
  facet normal  0.000000e+000  0.000000e+000  1.000000e+000
    outer loop
      vertex -7.812500e-002  1.015625e-001  0.000000e+000
      vertex -6.797408e-001  6.819419e-001  0.000000e+000
      vertex -6.943114e-001  6.679820e-001  0.000000e+000
    endloop
  endfacet
  facet normal  0.000000e+000  0.000000e+000  1.000000e+000
    outer loop
      vertex -7.812500e-002  1.015625e-001  0.000000e+000
      vertex -6.943114e-001  6.679820e-001  0.000000e+000
      vertex -7.113255e-001  6.571329e-001  0.000000e+000
    endloop
  endfacet
  facet normal  0.000000e+000  0.000000e+000  1.000000e+000
    outer loop
      vertex -7.812500e-002  1.015625e-001  0.000000e+000
      vertex -7.113255e-001  6.571329e-001  0.000000e+000
      vertex -7.301292e-001  6.498116e-001  0.000000e+000
    endloop
  endfacet
  facet normal  0.000000e+000  0.000000e+000  1.000000e+000
    outer loop
      vertex -7.812500e-002  1.015625e-001  0.000000e+000
      vertex -7.301292e-001  6.498116e-001  0.000000e+000
      vertex -7.500000e-001  6.462994e-001  0.000000e+000
    endloop
  endfacet
  facet normal  0.000000e+000  0.000000e+000  1.000000e+000
    outer loop
      vertex  7.500000e-001  6.462994e-001  0.000000e+000
      vertex  7.203947e-002  1.015625e-001  0.000000e+000
      vertex  7.590461e-002  1.015625e-001  0.000000e+000
    endloop
  endfacet
  facet normal  0.000000e+000  0.000000e+000  1.000000e+000
    outer loop
      vertex  7.500000e-001  6.462994e-001  0.000000e+000
      vertex  7.590461e-002  1.015625e-001  0.000000e+000
      vertex  1.015625e-001  1.015625e-001  0.000000e+000
    endloop
  endfacet
  facet normal  -0.000000e+000  0.000000e+000  1.000000e+000
    outer loop
      vertex  7.500000e-001  6.462994e-001  0.000000e+000
      vertex  1.015625e-001  1.015625e-001  0.000000e+000
      vertex  1.015625e-001 -9.012420e-002  0.000000e+000
    endloop
  endfacet
  facet normal  -0.000000e+000  0.000000e+000  1.000000e+000
    outer loop
      vertex  7.500000e-001  6.462994e-001  0.000000e+000
      vertex  1.015625e-001 -9.012420e-002  0.000000e+000
      vertex  1.011420e-001 -9.437639e-002  0.000000e+000
    endloop
  endfacet
  facet normal  -0.000000e+000  0.000000e+000  1.000000e+000
    outer loop
      vertex  7.500000e-001  6.462994e-001  0.000000e+000
      vertex  1.011420e-001 -9.437639e-002  0.000000e+000
      vertex  9.992019e-002 -9.860728e-002  0.000000e+000
    endloop
  endfacet
  facet normal  -0.000000e+000  0.000000e+000  1.000000e+000
    outer loop
      vertex  7.500000e-001  6.462994e-001  0.000000e+000
      vertex  9.992019e-002 -9.860728e-002  0.000000e+000
      vertex  9.716988e-002 -1.040899e-001  0.000000e+000
    endloop
  endfacet
  facet normal  -0.000000e+000  0.000000e+000  1.000000e+000
    outer loop
      vertex  7.500000e-001  6.462994e-001  0.000000e+000
      vertex  9.716988e-002 -1.040899e-001  0.000000e+000
      vertex  7.500000e-001 -6.484375e-001  0.000000e+000
    endloop
  endfacet
  facet normal  0.000000e+000  0.000000e+000  1.000000e+000
    outer loop
      vertex  7.203947e-002  1.015625e-001  0.000000e+000
      vertex  7.500000e-001  6.462994e-001  0.000000e+000
      vertex  7.301292e-001  6.498116e-001  0.000000e+000
    endloop
  endfacet
  facet normal  0.000000e+000  0.000000e+000  1.000000e+000
    outer loop
      vertex  7.203947e-002  1.015625e-001  0.000000e+000
      vertex  7.301292e-001  6.498116e-001  0.000000e+000
      vertex  7.113255e-001  6.571329e-001  0.000000e+000
    endloop
  endfacet
  facet normal  0.000000e+000  0.000000e+000  1.000000e+000
    outer loop
      vertex  7.203947e-002  1.015625e-001  0.000000e+000
      vertex  7.113255e-001  6.571329e-001  0.000000e+000
      vertex  6.943114e-001  6.679820e-001  0.000000e+000
    endloop
  endfacet
  facet normal  0.000000e+000  0.000000e+000  1.000000e+000
    outer loop
      vertex  7.203947e-002  1.015625e-001  0.000000e+000
      vertex  6.943114e-001  6.679820e-001  0.000000e+000
      vertex  6.797408e-001  6.819419e-001  0.000000e+000
    endloop
  endfacet
  facet normal  0.000000e+000  0.000000e+000  1.000000e+000
    outer loop
      vertex  7.203947e-002  1.015625e-001  0.000000e+000
      vertex  6.797408e-001  6.819419e-001  0.000000e+000
      vertex  6.681736e-001  6.984761e-001  0.000000e+000
    endloop
  endfacet
  facet normal  0.000000e+000  0.000000e+000  1.000000e+000
    outer loop
      vertex  7.203947e-002  1.015625e-001  0.000000e+000
      vertex  6.681736e-001  6.984761e-001  0.000000e+000
      vertex  6.600543e-001  7.169493e-001  0.000000e+000
    endloop
  endfacet
  facet normal  0.000000e+000  0.000000e+000  1.000000e+000
    outer loop
      vertex  7.203947e-002  1.015625e-001  0.000000e+000
      vertex  6.600543e-001  7.169493e-001  0.000000e+000
      vertex  6.556950e-001  7.366515e-001  0.000000e+000
    endloop
  endfacet
  facet normal  9.999999e-001  0.000000e+000  0.000000e+000
    outer loop
      vertex -7.812500e-002  7.500000e-001 -2.343750e-002
      vertex -7.812500e-002  7.500000e-001  0.000000e+000
      vertex -7.812500e-002  1.015625e-001 -2.343750e-002
    endloop
  endfacet
  facet normal  9.999999e-001  0.000000e+000  0.000000e+000
    outer loop
      vertex -7.812500e-002  1.015625e-001 -2.343750e-002
      vertex -7.812500e-002  7.500000e-001  0.000000e+000
      vertex -7.812500e-002  1.015625e-001  0.000000e+000
    endloop
  endfacet
  facet normal  0.000000e+000 -1.000000e+000  -0.000000e+000
    outer loop
      vertex  7.203947e-002  7.500000e-001 -2.343750e-002
      vertex  7.203947e-002  7.500000e-001  0.000000e+000
      vertex -7.812500e-002  7.500000e-001 -2.343750e-002
    endloop
  endfacet
  facet normal  0.000000e+000 -1.000000e+000  0.000000e+000
    outer loop
      vertex -7.812500e-002  7.500000e-001 -2.343750e-002
      vertex  7.203947e-002  7.500000e-001  0.000000e+000
      vertex -7.812500e-002  7.500000e-001  0.000000e+000
    endloop
  endfacet
  facet normal -9.999999e-001  0.000000e+000  0.000000e+000
    outer loop
      vertex  7.203947e-002  1.015625e-001 -2.343750e-002
      vertex  7.203947e-002  1.015625e-001  0.000000e+000
      vertex  7.203947e-002  7.500000e-001 -2.343750e-002
    endloop
  endfacet
  facet normal -9.999999e-001  0.000000e+000  0.000000e+000
    outer loop
      vertex  7.203947e-002  7.500000e-001 -2.343750e-002
      vertex  7.203947e-002  1.015625e-001  0.000000e+000
      vertex  7.203947e-002  7.500000e-001  0.000000e+000
    endloop
  endfacet
  facet normal  0.000000e+000  9.401210e-002  9.955711e-001
    outer loop
      vertex -8.593750e-002 -1.171875e-001  0.000000e+000
      vertex  8.593750e-002 -1.171875e-001  0.000000e+000
      vertex -8.593750e-002 -1.142626e-001 -2.761962e-004
    endloop
  endfacet
  facet normal  -0.000000e+000  9.401210e-002  9.955711e-001
    outer loop
      vertex -8.593750e-002 -1.142626e-001 -2.761962e-004
      vertex  8.593750e-002 -1.171875e-001  0.000000e+000
      vertex  8.593750e-002 -1.142626e-001 -2.761962e-004
    endloop
  endfacet
  facet normal  0.000000e+000  2.787130e-001  9.603744e-001
    outer loop
      vertex -8.593750e-002 -1.142626e-001 -2.761962e-004
      vertex  8.593750e-002 -1.142626e-001 -2.761962e-004
      vertex -8.593750e-002 -1.114412e-001 -1.095020e-003
    endloop
  endfacet
  facet normal  -0.000000e+000  2.787130e-001  9.603744e-001
    outer loop
      vertex -8.593750e-002 -1.114412e-001 -1.095020e-003
      vertex  8.593750e-002 -1.142626e-001 -2.761962e-004
      vertex  8.593750e-002 -1.114412e-001 -1.095020e-003
    endloop
  endfacet
  facet normal  0.000000e+000  4.535600e-001  8.912258e-001
    outer loop
      vertex -8.593750e-002 -1.114412e-001 -1.095020e-003
      vertex  8.593750e-002 -1.114412e-001 -1.095020e-003
      vertex -8.593750e-002 -1.088229e-001 -2.427524e-003
    endloop
  endfacet
  facet normal  -0.000000e+000  4.535600e-001  8.912258e-001
    outer loop
      vertex -8.593750e-002 -1.088229e-001 -2.427524e-003
      vertex  8.593750e-002 -1.114412e-001 -1.095020e-003
      vertex  8.593750e-002 -1.088229e-001 -2.427524e-003
    endloop
  endfacet
  facet normal  0.000000e+000  6.123720e-001  7.905697e-001
    outer loop
      vertex -8.593750e-002 -1.088229e-001 -2.427524e-003
      vertex  8.593750e-002 -1.088229e-001 -2.427524e-003
      vertex -8.593750e-002 -1.065003e-001 -4.226600e-003
    endloop
  endfacet
  facet normal  -0.000000e+000  6.123720e-001  7.905697e-001
    outer loop
      vertex -8.593750e-002 -1.065003e-001 -4.226600e-003
      vertex  8.593750e-002 -1.088229e-001 -2.427524e-003
      vertex  8.593750e-002 -1.065003e-001 -4.226600e-003
    endloop
  endfacet
  facet normal  0.000000e+000  7.495350e-001  6.619645e-001
    outer loop
      vertex -8.593750e-002 -1.065003e-001 -4.226600e-003
      vertex  8.593750e-002 -1.065003e-001 -4.226600e-003
      vertex -8.593750e-002 -1.045555e-001 -6.428645e-003
    endloop
  endfacet
  facet normal  -0.000000e+000  7.495350e-001  6.619645e-001
    outer loop
      vertex -8.593750e-002 -1.045555e-001 -6.428645e-003
      vertex  8.593750e-002 -1.065003e-001 -4.226600e-003
      vertex  8.593750e-002 -1.045555e-001 -6.428645e-003
    endloop
  endfacet
  facet normal  0.000000e+000  8.602011e-001  5.099550e-001
    outer loop
      vertex -8.593750e-002 -1.045555e-001 -6.428645e-003
      vertex  8.593750e-002 -1.045555e-001 -6.428645e-003
      vertex -8.593750e-002 -1.030573e-001 -8.955809e-003
    endloop
  endfacet
  facet normal  -0.000000e+000  8.602011e-001  5.099550e-001
    outer loop
      vertex -8.593750e-002 -1.030573e-001 -8.955809e-003
      vertex  8.593750e-002 -1.045555e-001 -6.428645e-003
      vertex  8.593750e-002 -1.030573e-001 -8.955809e-003
    endloop
  endfacet
  facet normal  0.000000e+000  9.404541e-001  3.399207e-001
    outer loop
      vertex -8.593750e-002 -1.030573e-001 -8.955809e-003
      vertex  8.593750e-002 -1.030573e-001 -8.955809e-003
      vertex -8.593750e-002 -1.020587e-001 -1.171875e-002
    endloop
  endfacet
  facet normal  -0.000000e+000  9.404541e-001  3.399207e-001
    outer loop
      vertex -8.593750e-002 -1.020587e-001 -1.171875e-002
      vertex  8.593750e-002 -1.030573e-001 -8.955809e-003
      vertex  8.593750e-002 -1.020587e-001 -1.171875e-002
    endloop
  endfacet
  facet normal  1.000000e+000  0.000000e+000  0.000000e+000
    outer loop
      vertex -1.015625e-001 -8.692982e-002 -2.343750e-002
      vertex -1.015625e-001  1.015625e-001 -2.343750e-002
      vertex -1.015625e-001 -8.593750e-002 -1.562500e-002
    endloop
  endfacet
  facet normal  1.000000e+000  -0.000000e+000  0.000000e+000
    outer loop
      vertex -1.015625e-001  1.015625e-001  0.000000e+000
      vertex -1.015625e-001 -9.012420e-002  0.000000e+000
      vertex -1.015625e-001 -8.782210e-002 -4.936871e-003
    endloop
  endfacet
  facet normal  1.000000e+000  -0.000000e+000  0.000000e+000
    outer loop
      vertex -1.015625e-001  1.015625e-001  0.000000e+000
      vertex -1.015625e-001 -8.782210e-002 -4.936871e-003
      vertex -1.015625e-001 -8.641226e-002 -1.019849e-002
    endloop
  endfacet
  facet normal  1.000000e+000  -0.000000e+000  0.000000e+000
    outer loop
      vertex -1.015625e-001  1.015625e-001  0.000000e+000
      vertex -1.015625e-001 -8.641226e-002 -1.019849e-002
      vertex -1.015625e-001 -8.593750e-002 -1.562500e-002
    endloop
  endfacet
  facet normal  1.000000e+000  -0.000000e+000  0.000000e+000
    outer loop
      vertex -1.015625e-001  1.015625e-001  0.000000e+000
      vertex -1.015625e-001 -8.593750e-002 -1.562500e-002
      vertex -1.015625e-001  1.015625e-001 -2.343750e-002
    endloop
  endfacet
  facet normal -1.000000e+000  0.000000e+000  0.000000e+000
    outer loop
      vertex  1.015625e-001  1.015625e-001  0.000000e+000
      vertex  1.015625e-001  1.015625e-001 -2.343750e-002
      vertex  1.015625e-001 -8.593750e-002 -2.343750e-002
    endloop
  endfacet
  facet normal -1.000000e+000  0.000000e+000  0.000000e+000
    outer loop
      vertex  1.015625e-001  1.015625e-001  0.000000e+000
      vertex  1.015625e-001 -8.593750e-002 -2.343750e-002
      vertex  1.015625e-001 -8.593750e-002 -1.562500e-002
    endloop
  endfacet
  facet normal -1.000000e+000  0.000000e+000  0.000000e+000
    outer loop
      vertex  1.015625e-001  1.015625e-001  0.000000e+000
      vertex  1.015625e-001 -8.593750e-002 -1.562500e-002
      vertex  1.015625e-001 -8.641226e-002 -1.019849e-002
    endloop
  endfacet
  facet normal -1.000000e+000  0.000000e+000  0.000000e+000
    outer loop
      vertex  1.015625e-001  1.015625e-001  0.000000e+000
      vertex  1.015625e-001 -8.641226e-002 -1.019849e-002
      vertex  1.015625e-001 -8.782210e-002 -4.936871e-003
    endloop
  endfacet
  facet normal -1.000000e+000  0.000000e+000  0.000000e+000
    outer loop
      vertex  1.015625e-001  1.015625e-001  0.000000e+000
      vertex  1.015625e-001 -8.782210e-002 -4.936871e-003
      vertex  1.015625e-001 -9.012420e-002  0.000000e+000
    endloop
  endfacet
  facet normal -2.169821e-001  2.720729e-001  9.374941e-001
    outer loop
      vertex  9.338619e-002 -1.092739e-001  0.000000e+000
      vertex  8.593750e-002 -1.114412e-001 -1.095020e-003
      vertex  8.593750e-002 -1.142626e-001 -2.761962e-004
    endloop
  endfacet
  facet normal -9.938546e-002  9.354666e-002  9.906421e-001
    outer loop
      vertex  9.338619e-002 -1.092739e-001  0.000000e+000
      vertex  8.593750e-002 -1.142626e-001 -2.761962e-004
      vertex  8.593750e-002 -1.171875e-001  0.000000e+000
    endloop
  endfacet
  facet normal -2.911282e-001  2.124899e-001  9.327874e-001
    outer loop
      vertex  9.338619e-002 -1.092739e-001  0.000000e+000
      vertex  9.716988e-002 -1.040899e-001  0.000000e+000
      vertex  8.593750e-002 -1.088229e-001 -2.427524e-003
    endloop
  endfacet
  facet normal -1.128752e-001  8.547037e-001  5.066960e-001
    outer loop
      vertex  8.593750e-002 -1.045555e-001 -6.428645e-003
      vertex  8.898579e-002 -1.039462e-001 -6.777416e-003
      vertex  8.593750e-002 -1.030573e-001 -8.955809e-003
    endloop
  endfacet
  facet normal -2.543378e-001  4.386449e-001  8.619182e-001
    outer loop
      vertex  8.593750e-002 -1.114412e-001 -1.095020e-003
      vertex  9.338619e-002 -1.092739e-001  0.000000e+000
      vertex  8.593750e-002 -1.088229e-001 -2.427524e-003
    endloop
  endfacet
  facet normal -3.941654e-001  5.627941e-001  7.265648e-001
    outer loop
      vertex  8.593750e-002 -1.088229e-001 -2.427524e-003
      vertex  9.716988e-002 -1.040899e-001  0.000000e+000
      vertex  8.593750e-002 -1.065003e-001 -4.226600e-003
    endloop
  endfacet
  facet normal -9.518563e-001  3.032777e-001 -4.463485e-002
    outer loop
      vertex  1.015625e-001 -8.782210e-002 -4.936871e-003
      vertex  1.012623e-001 -8.952767e-002 -1.012312e-002
      vertex  1.003731e-001 -9.240250e-002 -1.069496e-002
    endloop
  endfacet
  facet normal -9.949958e-001  9.651215e-002  2.586027e-002
    outer loop
      vertex  1.015625e-001 -8.782210e-002 -4.936871e-003
      vertex  1.015625e-001 -8.641226e-002 -1.019849e-002
      vertex  1.012623e-001 -8.952767e-002 -1.012312e-002
    endloop
  endfacet
  facet normal -4.496082e-001  6.621270e-001  5.995333e-001
    outer loop
      vertex  9.191693e-002 -1.016530e-001 -9.190414e-003
      vertex  9.461828e-002 -1.003190e-001 -8.637856e-003
      vertex  9.892921e-002 -9.505194e-002 -1.122196e-002
    endloop
  endfacet
  facet normal -2.384601e-001  5.080370e-001  8.276685e-001
    outer loop
      vertex  8.898579e-002 -1.024745e-001 -9.530678e-003
      vertex  9.191693e-002 -1.016530e-001 -9.190414e-003
      vertex  9.892921e-002 -9.505194e-002 -1.122196e-002
    endloop
  endfacet
  facet normal -1.149331e-001  9.342219e-001  3.376681e-001
    outer loop
      vertex  8.593750e-002 -1.020587e-001 -1.171875e-002
      vertex  8.593750e-002 -1.030573e-001 -8.955809e-003
      vertex  8.898579e-002 -1.024745e-001 -9.530678e-003
    endloop
  endfacet
  facet normal -3.788738e-001  6.562344e-001  6.525419e-001
    outer loop
      vertex  8.593750e-002 -1.020587e-001 -1.171875e-002
      vertex  8.898579e-002 -1.024745e-001 -9.530678e-003
      vertex  9.892921e-002 -9.505194e-002 -1.122196e-002
    endloop
  endfacet
  facet normal -4.424233e-001  8.421845e-001 -3.081992e-001
    outer loop
      vertex  8.593750e-002 -1.020587e-001 -1.171875e-002
      vertex  9.892921e-002 -9.505194e-002 -1.122196e-002
      vertex  9.169902e-002 -1.004615e-001 -1.562500e-002
    endloop
  endfacet
  facet normal -9.499696e-001  2.743291e-001  1.493357e-001
    outer loop
      vertex  9.992019e-002 -9.860728e-002  0.000000e+000
      vertex  1.011420e-001 -9.437639e-002  0.000000e+000
      vertex  1.003731e-001 -9.617579e-002 -1.585423e-003
    endloop
  endfacet
  facet normal -8.807382e-001  3.626642e-001  3.045895e-001
    outer loop
      vertex  9.992019e-002 -9.860728e-002  0.000000e+000
      vertex  1.003731e-001 -9.617579e-002 -1.585423e-003
      vertex  9.892921e-002 -9.842189e-002 -3.086216e-003
    endloop
  endfacet
  facet normal -7.703044e-001  5.720762e-001  2.817090e-001
    outer loop
      vertex  9.992019e-002 -9.860728e-002  0.000000e+000
      vertex  9.892921e-002 -9.842189e-002 -3.086216e-003
      vertex  9.698604e-002 -1.003906e-001 -4.401672e-003
    endloop
  endfacet
  facet normal -5.806082e-001  8.121141e-001  5.800696e-002
    outer loop
      vertex  9.992019e-002 -9.860728e-002  0.000000e+000
      vertex  9.698604e-002 -1.003906e-001 -4.401672e-003
      vertex  9.461828e-002 -1.020063e-001 -5.481239e-003
    endloop
  endfacet
  facet normal -3.327230e-001  9.111329e-001 -2.431714e-001
    outer loop
      vertex  9.992019e-002 -9.860728e-002  0.000000e+000
      vertex  9.461828e-002 -1.020063e-001 -5.481239e-003
      vertex  9.191693e-002 -1.032069e-001 -6.283430e-003
    endloop
  endfacet
  facet normal -1.438800e-001  8.768963e-001 -4.586408e-001
    outer loop
      vertex  9.992019e-002 -9.860728e-002  0.000000e+000
      vertex  9.191693e-002 -1.032069e-001 -6.283430e-003
      vertex  8.898579e-002 -1.039462e-001 -6.777416e-003
    endloop
  endfacet
  facet normal -2.221877e-001  9.075202e-001 -3.564263e-001
    outer loop
      vertex  9.992019e-002 -9.860728e-002  0.000000e+000
      vertex  8.898579e-002 -1.039462e-001 -6.777416e-003
      vertex  8.593750e-002 -1.045555e-001 -6.428645e-003
    endloop
  endfacet
  facet normal -5.288962e-001  6.361203e-001  5.618004e-001
    outer loop
      vertex  9.992019e-002 -9.860728e-002  0.000000e+000
      vertex  8.593750e-002 -1.045555e-001 -6.428645e-003
      vertex  8.593750e-002 -1.065003e-001 -4.226600e-003
    endloop
  endfacet
  facet normal -3.813705e-001  1.913103e-001  9.044097e-001
    outer loop
      vertex  9.992019e-002 -9.860728e-002  0.000000e+000
      vertex  8.593750e-002 -1.065003e-001 -4.226600e-003
      vertex  9.716988e-002 -1.040899e-001  0.000000e+000
    endloop
  endfacet
  facet normal -7.715057e-001  5.610980e-001  2.999135e-001
    outer loop
      vertex  9.698604e-002 -9.852379e-002 -7.894238e-003
      vertex  9.698604e-002 -1.003906e-001 -4.401672e-003
      vertex  9.892921e-002 -9.842189e-002 -3.086216e-003
    endloop
  endfacet
  facet normal -8.770814e-001  3.316786e-001  3.474445e-001
    outer loop
      vertex  9.698604e-002 -9.852379e-002 -7.894238e-003
      vertex  9.892921e-002 -9.842189e-002 -3.086216e-003
      vertex  1.003731e-001 -9.617579e-002 -1.585423e-003
    endloop
  endfacet
  facet normal -8.701503e-001 -5.923615e-002  4.892130e-001
    outer loop
      vertex  9.698604e-002 -9.852379e-002 -7.894238e-003
      vertex  1.003731e-001 -9.617579e-002 -1.585423e-003
      vertex  1.011420e-001 -9.437639e-002  0.000000e+000
    endloop
  endfacet
  facet normal -8.998698e-001  8.899395e-002  4.269831e-001
    outer loop
      vertex  9.698604e-002 -9.852379e-002 -7.894238e-003
      vertex  1.011420e-001 -9.437639e-002  0.000000e+000
      vertex  1.015625e-001 -9.012420e-002  0.000000e+000
    endloop
  endfacet
  facet normal -9.226445e-001  3.495190e-001  1.629836e-001
    outer loop
      vertex  9.698604e-002 -9.852379e-002 -7.894238e-003
      vertex  1.015625e-001 -9.012420e-002  0.000000e+000
      vertex  1.015625e-001 -8.782210e-002 -4.936871e-003
    endloop
  endfacet
  facet normal -9.051865e-001  4.138440e-001 -9.680196e-002
    outer loop
      vertex  9.698604e-002 -9.852379e-002 -7.894238e-003
      vertex  1.015625e-001 -8.782210e-002 -4.936871e-003
      vertex  9.892921e-002 -9.505194e-002 -1.122196e-002
    endloop
  endfacet
  facet normal -6.332704e-001  6.901432e-001  3.502441e-001
    outer loop
      vertex  9.698604e-002 -9.852379e-002 -7.894238e-003
      vertex  9.892921e-002 -9.505194e-002 -1.122196e-002
      vertex  9.461828e-002 -1.003190e-001 -8.637856e-003
    endloop
  endfacet
  facet normal -8.359388e-001  5.004060e-001 -2.253886e-001
    outer loop
      vertex  9.892921e-002 -9.505194e-002 -1.122196e-002
      vertex  1.015625e-001 -8.782210e-002 -4.936871e-003
      vertex  1.003731e-001 -9.240250e-002 -1.069496e-002
    endloop
  endfacet
  facet normal -8.802275e-001  4.735356e-001  3.104093e-002
    outer loop
      vertex  9.892921e-002 -9.505194e-002 -1.122196e-002
      vertex  1.003731e-001 -9.240250e-002 -1.069496e-002
      vertex  9.956384e-002 -9.358365e-002 -1.562500e-002
    endloop
  endfacet
  facet normal -8.253531e-001  5.605125e-001  6.795461e-002
    outer loop
      vertex  9.892921e-002 -9.505194e-002 -1.122196e-002
      vertex  9.956384e-002 -9.358365e-002 -1.562500e-002
      vertex  9.806939e-002 -9.578422e-002 -1.562500e-002
    endloop
  endfacet
  facet normal -7.197527e-001  6.937741e-001  2.517023e-002
    outer loop
      vertex  9.892921e-002 -9.505194e-002 -1.122196e-002
      vertex  9.806939e-002 -9.578422e-002 -1.562500e-002
      vertex  9.622333e-002 -9.769940e-002 -1.562500e-002
    endloop
  endfacet
  facet normal -5.875450e-001  8.002310e-001 -1.200884e-001
    outer loop
      vertex  9.892921e-002 -9.505194e-002 -1.122196e-002
      vertex  9.622333e-002 -9.769940e-002 -1.562500e-002
      vertex  9.407916e-002 -9.927370e-002 -1.562500e-002
    endloop
  endfacet
  facet normal -4.193089e-001  8.402407e-001 -3.437669e-001
    outer loop
      vertex  9.892921e-002 -9.505194e-002 -1.122196e-002
      vertex  9.407916e-002 -9.927370e-002 -1.562500e-002
      vertex  9.169902e-002 -1.004615e-001 -1.562500e-002
    endloop
  endfacet
  facet normal -9.094192e-001  4.128178e-001  5.037983e-002
    outer loop
      vertex  9.956384e-002 -9.358365e-002 -1.562500e-002
      vertex  1.003731e-001 -9.240250e-002 -1.069496e-002
      vertex  1.006633e-001 -9.116147e-002 -1.562500e-002
    endloop
  endfacet
  facet normal -9.561719e-001  2.922950e-001  1.728880e-002
    outer loop
      vertex  1.006633e-001 -9.116147e-002 -1.562500e-002
      vertex  1.003731e-001 -9.240250e-002 -1.069496e-002
      vertex  1.012623e-001 -8.952767e-002 -1.012312e-002
    endloop
  endfacet
  facet normal -9.670516e-001  2.527823e-001  3.020658e-002
    outer loop
      vertex  1.006633e-001 -9.116147e-002 -1.562500e-002
      vertex  1.012623e-001 -8.952767e-002 -1.012312e-002
      vertex  1.013361e-001 -8.858790e-002 -1.562500e-002
    endloop
  endfacet
  facet normal -9.953770e-001  9.599690e-002  3.046056e-003
    outer loop
      vertex  1.013361e-001 -8.858790e-002 -1.562500e-002
      vertex  1.012623e-001 -8.952767e-002 -1.012312e-002
      vertex  1.015625e-001 -8.641226e-002 -1.019849e-002
    endloop
  endfacet
  facet normal -9.963429e-001  8.512034e-002  7.447076e-003
    outer loop
      vertex  1.013361e-001 -8.858790e-002 -1.562500e-002
      vertex  1.015625e-001 -8.641226e-002 -1.019849e-002
      vertex  1.015625e-001 -8.593750e-002 -1.562500e-002
    endloop
  endfacet
  facet normal -7.946183e-002  8.791320e-001  4.699073e-001
    outer loop
      vertex  8.593750e-002 -1.030573e-001 -8.955809e-003
      vertex  8.898579e-002 -1.039462e-001 -6.777416e-003
      vertex  8.898579e-002 -1.024745e-001 -9.530678e-003
    endloop
  endfacet
  facet normal -2.890049e-001  8.442870e-001  4.512822e-001
    outer loop
      vertex  8.898579e-002 -1.024745e-001 -9.530678e-003
      vertex  8.898579e-002 -1.039462e-001 -6.777416e-003
      vertex  9.191693e-002 -1.032069e-001 -6.283430e-003
    endloop
  endfacet
  facet normal -2.890026e-001  8.442886e-001  4.512804e-001
    outer loop
      vertex  8.898579e-002 -1.024745e-001 -9.530678e-003
      vertex  9.191693e-002 -1.032069e-001 -6.283430e-003
      vertex  9.191693e-002 -1.016530e-001 -9.190414e-003
    endloop
  endfacet
  facet normal -4.696285e-001  7.786171e-001  4.161784e-001
    outer loop
      vertex  9.191693e-002 -1.016530e-001 -9.190414e-003
      vertex  9.191693e-002 -1.032069e-001 -6.283430e-003
      vertex  9.461828e-002 -1.020063e-001 -5.481239e-003
    endloop
  endfacet
  facet normal -4.696288e-001  7.786168e-001  4.161786e-001
    outer loop
      vertex  9.191693e-002 -1.016530e-001 -9.190414e-003
      vertex  9.461828e-002 -1.020063e-001 -5.481239e-003
      vertex  9.461828e-002 -1.003190e-001 -8.637856e-003
    endloop
  endfacet
  facet normal -6.325619e-001  6.830571e-001  3.651009e-001
    outer loop
      vertex  9.461828e-002 -1.003190e-001 -8.637856e-003
      vertex  9.461828e-002 -1.020063e-001 -5.481239e-003
      vertex  9.698604e-002 -1.003906e-001 -4.401672e-003
    endloop
  endfacet
  facet normal -6.325629e-001  6.830559e-001  3.651014e-001
    outer loop
      vertex  9.461828e-002 -1.003190e-001 -8.637856e-003
      vertex  9.698604e-002 -1.003906e-001 -4.401672e-003
      vertex  9.698604e-002 -9.852379e-002 -7.894238e-003
    endloop
  endfacet
  facet normal -4.462478e-001  8.942226e-001 -3.505512e-002
    outer loop
      vertex  9.407916e-002 -9.927370e-002 -1.562500e-002
      vertex  9.345239e-002 -9.963666e-002 -1.690518e-002
      vertex  9.169902e-002 -1.004615e-001 -1.562500e-002
    endloop
  endfacet
  facet normal -5.238255e-001  8.516938e-001  1.498445e-002
    outer loop
      vertex  9.407916e-002 -9.927370e-002 -1.562500e-002
      vertex  9.503044e-002 -9.864415e-002 -1.815247e-002
      vertex  9.345239e-002 -9.963666e-002 -1.690518e-002
    endloop
  endfacet
  facet normal -5.916850e-001  8.058698e-001 -2.197019e-002
    outer loop
      vertex  9.622333e-002 -9.769940e-002 -1.562500e-002
      vertex  9.503044e-002 -9.864415e-002 -1.815247e-002
      vertex  9.407916e-002 -9.927370e-002 -1.562500e-002
    endloop
  endfacet
  facet normal -6.279382e-001  7.782441e-001  5.466450e-003
    outer loop
      vertex  9.651583e-002 -9.743704e-002 -1.937705e-002
      vertex  9.503044e-002 -9.864415e-002 -1.815247e-002
      vertex  9.622333e-002 -9.769940e-002 -1.562500e-002
    endloop
  endfacet
  facet normal -7.276288e-001  6.859151e-001 -8.761382e-003
    outer loop
      vertex  9.793961e-002 -9.594200e-002 -2.057656e-002
      vertex  9.651583e-002 -9.743704e-002 -1.937705e-002
      vertex  9.622333e-002 -9.769940e-002 -1.562500e-002
    endloop
  endfacet
  facet normal -7.199771e-001  6.939903e-001 -3.243144e-003
    outer loop
      vertex  9.806939e-002 -9.578422e-002 -1.562500e-002
      vertex  9.793961e-002 -9.594200e-002 -2.057656e-002
      vertex  9.622333e-002 -9.769940e-002 -1.562500e-002
    endloop
  endfacet
  facet normal -8.112391e-001  5.847086e-001  2.631108e-003
    outer loop
      vertex  9.924535e-002 -9.412541e-002 -2.168204e-002
      vertex  9.793961e-002 -9.594200e-002 -2.057656e-002
      vertex  9.806939e-002 -9.578422e-002 -1.562500e-002
    endloop
  endfacet
  facet normal -8.272467e-001  5.617983e-001 -6.750988e-003
    outer loop
      vertex  9.956384e-002 -9.358365e-002 -1.562500e-002
      vertex  9.924535e-002 -9.412541e-002 -2.168204e-002
      vertex  9.806939e-002 -9.578422e-002 -1.562500e-002
    endloop
  endfacet
  facet normal -8.855024e-001  4.646080e-001  5.005234e-003
    outer loop
      vertex  1.002615e-001 -9.217963e-002 -2.252916e-002
      vertex  9.924535e-002 -9.412541e-002 -2.168204e-002
      vertex  9.956384e-002 -9.358365e-002 -1.562500e-002
    endloop
  endfacet
  facet normal -9.105468e-001  4.133296e-001 -7.953362e-003
    outer loop
      vertex  1.006633e-001 -9.116147e-002 -1.562500e-002
      vertex  1.002615e-001 -9.217963e-002 -2.252916e-002
      vertex  9.956384e-002 -9.358365e-002 -1.562500e-002
    endloop
  endfacet
  facet normal -9.416761e-001  3.364806e-001  5.191437e-003
    outer loop
      vertex  1.006633e-001 -9.116147e-002 -1.562500e-002
      vertex  1.009854e-001 -9.014487e-002 -2.310315e-002
      vertex  1.002615e-001 -9.217963e-002 -2.252916e-002
    endloop
  endfacet
  facet normal -9.674674e-001  2.528910e-001 -7.282710e-003
    outer loop
      vertex  1.009854e-001 -9.014487e-002 -2.310315e-002
      vertex  1.006633e-001 -9.116147e-002 -1.562500e-002
      vertex  1.013361e-001 -8.858790e-002 -1.562500e-002
    endloop
  endfacet
  facet normal -9.790439e-001  2.036192e-001  3.518689e-003
    outer loop
      vertex  1.009854e-001 -9.014487e-002 -2.310315e-002
      vertex  1.013361e-001 -8.858790e-002 -1.562500e-002
      vertex  1.014172e-001 -8.806366e-002 -2.339631e-002
    endloop
  endfacet
  facet normal -9.963597e-001  8.512177e-002 -4.655627e-003
    outer loop
      vertex  1.014172e-001 -8.806366e-002 -2.339631e-002
      vertex  1.013361e-001 -8.858790e-002 -1.562500e-002
      vertex  1.015625e-001 -8.593750e-002 -1.562500e-002
    endloop
  endfacet
  facet normal -9.976721e-001  6.819472e-002  0.000000e+000
    outer loop
      vertex  1.014172e-001 -8.806366e-002 -2.339631e-002
      vertex  1.015625e-001 -8.593750e-002 -1.562500e-002
      vertex  1.015625e-001 -8.593750e-002 -2.343750e-002
    endloop
  endfacet
  facet normal  1.894944e-004  7.016551e-002  9.975353e-001
    outer loop
      vertex -1.012357e-001 -8.911621e-002 -2.328377e-002
      vertex  1.014172e-001 -8.806366e-002 -2.339631e-002
      vertex -1.015625e-001 -8.692982e-002 -2.343750e-002
    endloop
  endfacet
  facet normal -9.466585e-005  1.937781e-002  9.998122e-001
    outer loop
      vertex  1.014172e-001 -8.806366e-002 -2.339631e-002
      vertex  1.015625e-001 -8.593750e-002 -2.343750e-002
      vertex -1.015625e-001 -8.692982e-002 -2.343750e-002
    endloop
  endfacet
  facet normal -1.747621e-004  1.395155e-001  9.902198e-001
    outer loop
      vertex -1.012357e-001 -8.911621e-002 -2.328377e-002
      vertex  1.009854e-001 -9.014487e-002 -2.310315e-002
      vertex  1.014172e-001 -8.806366e-002 -2.339631e-002
    endloop
  endfacet
  facet normal  1.768811e-004  2.065742e-001  9.784309e-001
    outer loop
      vertex  1.009854e-001 -9.014487e-002 -2.310315e-002
      vertex -1.012357e-001 -8.911621e-002 -2.328377e-002
      vertex -1.006558e-001 -9.118263e-002 -2.284760e-002
    endloop
  endfacet
  facet normal -1.778454e-004  2.715563e-001  9.624225e-001
    outer loop
      vertex -1.006558e-001 -9.118263e-002 -2.284760e-002
      vertex  1.002615e-001 -9.217963e-002 -2.252916e-002
      vertex  1.009854e-001 -9.014487e-002 -2.310315e-002
    endloop
  endfacet
  facet normal  1.796961e-004  3.369356e-001  9.415277e-001
    outer loop
      vertex  1.002615e-001 -9.217963e-002 -2.252916e-002
      vertex -1.006558e-001 -9.118263e-002 -2.284760e-002
      vertex -9.978272e-002 -9.317977e-002 -2.213307e-002
    endloop
  endfacet
  facet normal -1.807478e-004  3.992531e-001  9.168407e-001
    outer loop
      vertex -9.978272e-002 -9.317977e-002 -2.213307e-002
      vertex  9.924535e-002 -9.412541e-002 -2.168204e-002
      vertex  1.002615e-001 -9.217963e-002 -2.252916e-002
    endloop
  endfacet
  facet normal  1.824266e-004  4.615192e-001  8.871302e-001
    outer loop
      vertex  9.924535e-002 -9.412541e-002 -2.168204e-002
      vertex -9.978272e-002 -9.317977e-002 -2.213307e-002
      vertex -9.861851e-002 -9.506617e-002 -2.115193e-002
    endloop
  endfacet
  facet normal -1.836228e-004  5.199500e-001  8.541967e-001
    outer loop
      vertex -9.861851e-002 -9.506617e-002 -2.115193e-002
      vertex  9.793961e-002 -9.594200e-002 -2.057656e-002
      vertex  9.924535e-002 -9.412541e-002 -2.168204e-002
    endloop
  endfacet
  facet normal  0.000000e+000  5.490622e-001  8.357815e-001
    outer loop
      vertex -9.793961e-002 -9.594200e-002 -2.057656e-002
      vertex  9.793961e-002 -9.594200e-002 -2.057656e-002
      vertex -9.861851e-002 -9.506617e-002 -2.115193e-002
    endloop
  endfacet
  facet normal  0.000000e+000  6.257994e-001  7.799841e-001
    outer loop
      vertex  9.651583e-002 -9.743704e-002 -1.937705e-002
      vertex  9.793961e-002 -9.594200e-002 -2.057656e-002
      vertex -9.793961e-002 -9.594200e-002 -2.057656e-002
    endloop
  endfacet
  facet normal  0.000000e+000  6.257994e-001  7.799840e-001
    outer loop
      vertex -9.651583e-002 -9.743704e-002 -1.937705e-002
      vertex  9.651583e-002 -9.743704e-002 -1.937705e-002
      vertex -9.793961e-002 -9.594200e-002 -2.057656e-002
    endloop
  endfacet
  facet normal  0.000000e+000  7.121684e-001  7.020087e-001
    outer loop
      vertex  9.503044e-002 -9.864415e-002 -1.815247e-002
      vertex  9.651583e-002 -9.743704e-002 -1.937705e-002
      vertex -9.651583e-002 -9.743704e-002 -1.937705e-002
    endloop
  endfacet
  facet normal  0.000000e+000  7.121683e-001  7.020087e-001
    outer loop
      vertex -9.503044e-002 -9.864415e-002 -1.815247e-002
      vertex  9.503044e-002 -9.864415e-002 -1.815247e-002
      vertex -9.651583e-002 -9.743704e-002 -1.937705e-002
    endloop
  endfacet
  facet normal  0.000000e+000  7.824973e-001  6.226540e-001
    outer loop
      vertex -9.503044e-002 -9.864415e-002 -1.815247e-002
      vertex  9.345239e-002 -9.963666e-002 -1.690518e-002
      vertex  9.503044e-002 -9.864415e-002 -1.815247e-002
    endloop
  endfacet
  facet normal  0.000000e+000  7.824973e-001  6.226540e-001
    outer loop
      vertex -9.345239e-002 -9.963666e-002 -1.690518e-002
      vertex  9.345239e-002 -9.963666e-002 -1.690518e-002
      vertex -9.503044e-002 -9.864415e-002 -1.815247e-002
    endloop
  endfacet
  facet normal  -0.000000e+000  8.406287e-001  5.416118e-001
    outer loop
      vertex  9.345239e-002 -9.963666e-002 -1.690518e-002
      vertex -9.345239e-002 -9.963666e-002 -1.690518e-002
      vertex  9.169902e-002 -1.004615e-001 -1.562500e-002
    endloop
  endfacet
  facet normal  -0.000000e+000  9.256154e-001  3.784658e-001
    outer loop
      vertex -9.169902e-002 -1.004615e-001 -1.562500e-002
      vertex -8.593750e-002 -1.020587e-001 -1.171875e-002
      vertex  8.593750e-002 -1.020587e-001 -1.171875e-002
    endloop
  endfacet
  facet normal  0.000000e+000  9.256152e-001  3.784658e-001
    outer loop
      vertex -9.169902e-002 -1.004615e-001 -1.562500e-002
      vertex  8.593750e-002 -1.020587e-001 -1.171875e-002
      vertex  9.169902e-002 -1.004615e-001 -1.562500e-002
    endloop
  endfacet
  facet normal  0.000000e+000  8.406287e-001  5.416118e-001
    outer loop
      vertex -9.169902e-002 -1.004615e-001 -1.562500e-002
      vertex  9.169902e-002 -1.004615e-001 -1.562500e-002
      vertex -9.345239e-002 -9.963666e-002 -1.690518e-002
    endloop
  endfacet
  facet normal  7.980023e-001  6.021347e-001 -2.502363e-002
    outer loop
      vertex -9.793961e-002 -9.594200e-002 -2.057656e-002
      vertex -9.861851e-002 -9.506617e-002 -2.115193e-002
      vertex -9.956384e-002 -9.358365e-002 -1.562500e-002
    endloop
  endfacet
  facet normal  8.272597e-001  5.618072e-001  3.780760e-003
    outer loop
      vertex -9.806939e-002 -9.578422e-002 -1.562500e-002
      vertex -9.793961e-002 -9.594200e-002 -2.057656e-002
      vertex -9.956384e-002 -9.358365e-002 -1.562500e-002
    endloop
  endfacet
  facet normal  7.253233e-001  6.884022e-001 -2.924954e-003
    outer loop
      vertex -9.651583e-002 -9.743704e-002 -1.937705e-002
      vertex -9.793961e-002 -9.594200e-002 -2.057656e-002
      vertex -9.806939e-002 -9.578422e-002 -1.562500e-002
    endloop
  endfacet
  facet normal  7.199600e-001  6.939739e-001 -7.600027e-003
    outer loop
      vertex -9.622333e-002 -9.769940e-002 -1.562500e-002
      vertex -9.651583e-002 -9.743704e-002 -1.937705e-002
      vertex -9.806939e-002 -9.578422e-002 -1.562500e-002
    endloop
  endfacet
  facet normal  6.279382e-001  7.782441e-001  5.466450e-003
    outer loop
      vertex -9.503044e-002 -9.864415e-002 -1.815247e-002
      vertex -9.651583e-002 -9.743704e-002 -1.937705e-002
      vertex -9.622333e-002 -9.769940e-002 -1.562500e-002
    endloop
  endfacet
  facet normal  5.916850e-001  8.058698e-001 -2.197019e-002
    outer loop
      vertex -9.407916e-002 -9.927370e-002 -1.562500e-002
      vertex -9.503044e-002 -9.864415e-002 -1.815247e-002
      vertex -9.622333e-002 -9.769940e-002 -1.562500e-002
    endloop
  endfacet
  facet normal  5.238255e-001  8.516938e-001  1.498445e-002
    outer loop
      vertex -9.345239e-002 -9.963666e-002 -1.690518e-002
      vertex -9.503044e-002 -9.864415e-002 -1.815247e-002
      vertex -9.407916e-002 -9.927370e-002 -1.562500e-002
    endloop
  endfacet
  facet normal  4.462478e-001  8.942226e-001 -3.505512e-002
    outer loop
      vertex -9.345239e-002 -9.963666e-002 -1.690518e-002
      vertex -9.407916e-002 -9.927370e-002 -1.562500e-002
      vertex -9.169902e-002 -1.004615e-001 -1.562500e-002
    endloop
  endfacet
  facet normal  8.500219e-001  5.267314e-001  4.099737e-003
    outer loop
      vertex -9.861851e-002 -9.506617e-002 -2.115193e-002
      vertex -9.978272e-002 -9.317977e-002 -2.213307e-002
      vertex -9.956384e-002 -9.358365e-002 -1.562500e-002
    endloop
  endfacet
  facet normal  9.170462e-001  3.987342e-001 -6.097780e-003
    outer loop
      vertex -9.956384e-002 -9.358365e-002 -1.562500e-002
      vertex -9.978272e-002 -9.317977e-002 -2.213307e-002
      vertex -1.006558e-001 -9.118263e-002 -2.284760e-002
    endloop
  endfacet
  facet normal  9.105756e-001  4.133427e-001 -2.631753e-004
    outer loop
      vertex -9.956384e-002 -9.358365e-002 -1.562500e-002
      vertex -1.006558e-001 -9.118263e-002 -2.284760e-002
      vertex -1.006633e-001 -9.116147e-002 -1.562500e-002
    endloop
  endfacet
  facet normal  9.627930e-001  2.702399e-001  2.104153e-004
    outer loop
      vertex -1.006633e-001 -9.116147e-002 -1.562500e-002
      vertex -1.006558e-001 -9.118263e-002 -2.284760e-002
      vertex -1.012357e-001 -8.911621e-002 -2.328377e-002
    endloop
  endfacet
  facet normal  9.674820e-001  2.528948e-001 -4.772026e-003
    outer loop
      vertex -1.006633e-001 -9.116147e-002 -1.562500e-002
      vertex -1.012357e-001 -8.911621e-002 -2.328377e-002
      vertex -1.013361e-001 -8.858790e-002 -1.562500e-002
    endloop
  endfacet
  facet normal  9.889843e-001  1.479954e-001  2.745742e-003
    outer loop
      vertex -1.013361e-001 -8.858790e-002 -1.562500e-002
      vertex -1.012357e-001 -8.911621e-002 -2.328377e-002
      vertex -1.015625e-001 -8.692982e-002 -2.343750e-002
    endloop
  endfacet
  facet normal  9.963123e-001  8.511772e-002 -1.081140e-002
    outer loop
      vertex -1.013361e-001 -8.858790e-002 -1.562500e-002
      vertex -1.015625e-001 -8.692982e-002 -2.343750e-002
      vertex -1.015625e-001 -8.593750e-002 -1.562500e-002
    endloop
  endfacet
  facet normal  1.128752e-001  8.547037e-001  5.066960e-001
    outer loop
      vertex -8.593750e-002 -1.045555e-001 -6.428645e-003
      vertex -8.593750e-002 -1.030573e-001 -8.955809e-003
      vertex -8.898579e-002 -1.039462e-001 -6.777416e-003
    endloop
  endfacet
  facet normal  7.210665e-001  1.175407e-001  6.828230e-001
    outer loop
      vertex -1.015150e-001 -9.153938e-002  0.000000e+000
      vertex -1.008233e-001 -9.578294e-002  0.000000e+000
      vertex -9.461828e-002 -1.020063e-001 -5.481239e-003
    endloop
  endfacet
  facet normal  4.959985e-001  6.508389e-001  5.747994e-001
    outer loop
      vertex -8.593750e-002 -1.045555e-001 -6.428645e-003
      vertex -9.933648e-002 -1.000218e-001  0.000000e+000
      vertex -8.593750e-002 -1.065003e-001 -4.226600e-003
    endloop
  endfacet
  facet normal  2.682723e-001  9.564133e-001 -1.153421e-001
    outer loop
      vertex -8.593750e-002 -1.045555e-001 -6.428645e-003
      vertex -9.461828e-002 -1.020063e-001 -5.481239e-003
      vertex -9.933648e-002 -1.000218e-001  0.000000e+000
    endloop
  endfacet
  facet normal  1.586494e-001  7.699512e-001 -6.180661e-001
    outer loop
      vertex -9.191693e-002 -1.032069e-001 -6.283430e-003
      vertex -9.461828e-002 -1.020063e-001 -5.481239e-003
      vertex -8.593750e-002 -1.045555e-001 -6.428645e-003
    endloop
  endfacet
  facet normal  2.124078e-001  9.608844e-001 -1.777187e-001
    outer loop
      vertex -8.898579e-002 -1.039462e-001 -6.777416e-003
      vertex -9.191693e-002 -1.032069e-001 -6.283430e-003
      vertex -8.593750e-002 -1.045555e-001 -6.428645e-003
    endloop
  endfacet
  facet normal  9.949958e-001  9.651215e-002  2.586027e-002
    outer loop
      vertex -1.015625e-001 -8.641226e-002 -1.019849e-002
      vertex -1.015625e-001 -8.782210e-002 -4.936871e-003
      vertex -1.012623e-001 -8.952767e-002 -1.012312e-002
    endloop
  endfacet
  facet normal  7.758021e-001  2.721146e-001  5.692844e-001
    outer loop
      vertex -1.008233e-001 -9.578294e-002  0.000000e+000
      vertex -9.933648e-002 -1.000218e-001  0.000000e+000
      vertex -9.461828e-002 -1.020063e-001 -5.481239e-003
    endloop
  endfacet
  facet normal  4.424233e-001  8.421845e-001 -3.081992e-001
    outer loop
      vertex -8.593750e-002 -1.020587e-001 -1.171875e-002
      vertex -9.169902e-002 -1.004615e-001 -1.562500e-002
      vertex -9.892921e-002 -9.505194e-002 -1.122196e-002
    endloop
  endfacet
  facet normal  3.788738e-001  6.562344e-001  6.525419e-001
    outer loop
      vertex -8.593750e-002 -1.020587e-001 -1.171875e-002
      vertex -9.892921e-002 -9.505194e-002 -1.122196e-002
      vertex -8.898579e-002 -1.024745e-001 -9.530678e-003
    endloop
  endfacet
  facet normal  1.149331e-001  9.342219e-001  3.376681e-001
    outer loop
      vertex -8.593750e-002 -1.020587e-001 -1.171875e-002
      vertex -8.898579e-002 -1.024745e-001 -9.530678e-003
      vertex -8.593750e-002 -1.030573e-001 -8.955809e-003
    endloop
  endfacet
  facet normal  8.770813e-001  4.802127e-001 -1.114732e-002
    outer loop
      vertex -9.698604e-002 -9.852379e-002 -7.894238e-003
      vertex -9.892921e-002 -9.505194e-002 -1.122196e-002
      vertex -1.003731e-001 -9.240250e-002 -1.069496e-002
    endloop
  endfacet
  facet normal  8.821378e-001  3.380670e-001 -3.279383e-001
    outer loop
      vertex -9.698604e-002 -9.852379e-002 -7.894238e-003
      vertex -1.003731e-001 -9.240250e-002 -1.069496e-002
      vertex -1.012623e-001 -8.952767e-002 -1.012312e-002
    endloop
  endfacet
  facet normal  9.078522e-001  4.110677e-001 -8.263052e-002
    outer loop
      vertex -9.698604e-002 -9.852379e-002 -7.894238e-003
      vertex -1.012623e-001 -8.952767e-002 -1.012312e-002
      vertex -1.015625e-001 -8.782210e-002 -4.936871e-003
    endloop
  endfacet
  facet normal  9.226445e-001  3.495190e-001  1.629836e-001
    outer loop
      vertex -9.698604e-002 -9.852379e-002 -7.894238e-003
      vertex -1.015625e-001 -8.782210e-002 -4.936871e-003
      vertex -1.015625e-001 -9.012420e-002  0.000000e+000
    endloop
  endfacet
  facet normal  8.780430e-001  2.946056e-002  4.776740e-001
    outer loop
      vertex -9.698604e-002 -9.852379e-002 -7.894238e-003
      vertex -1.015625e-001 -9.012420e-002  0.000000e+000
      vertex -1.015150e-001 -9.153938e-002  0.000000e+000
    endloop
  endfacet
  facet normal  8.314738e-001  5.553787e-001 -1.434831e-002
    outer loop
      vertex -9.698604e-002 -9.852379e-002 -7.894238e-003
      vertex -1.015150e-001 -9.153938e-002  0.000000e+000
      vertex -9.461828e-002 -1.020063e-001 -5.481239e-003
    endloop
  endfacet
  facet normal  6.325629e-001  6.830563e-001  3.651005e-001
    outer loop
      vertex -9.698604e-002 -9.852379e-002 -7.894238e-003
      vertex -9.461828e-002 -1.020063e-001 -5.481239e-003
      vertex -9.461828e-002 -1.003190e-001 -8.637856e-003
    endloop
  endfacet
  facet normal  1.060678e-001  9.348178e-002  9.899549e-001
    outer loop
      vertex -9.629527e-002 -1.054352e-001  0.000000e+000
      vertex -8.593750e-002 -1.171875e-001  0.000000e+000
      vertex -8.593750e-002 -1.142626e-001 -2.761962e-004
    endloop
  endfacet
  facet normal  2.544796e-001  2.695372e-001  9.287571e-001
    outer loop
      vertex -9.629527e-002 -1.054352e-001  0.000000e+000
      vertex -8.593750e-002 -1.142626e-001 -2.761962e-004
      vertex -8.593750e-002 -1.114412e-001 -1.095020e-003
    endloop
  endfacet
  facet normal  3.363990e-001  4.271263e-001  8.392847e-001
    outer loop
      vertex -9.629527e-002 -1.054352e-001  0.000000e+000
      vertex -8.593750e-002 -1.114412e-001 -1.095020e-003
      vertex -8.593750e-002 -1.088229e-001 -2.427524e-003
    endloop
  endfacet
  facet normal  3.597542e-001  5.713719e-001  7.376388e-001
    outer loop
      vertex -9.629527e-002 -1.054352e-001  0.000000e+000
      vertex -8.593750e-002 -1.088229e-001 -2.427524e-003
      vertex -8.593750e-002 -1.065003e-001 -4.226600e-003
    endloop
  endfacet
  facet normal  3.878617e-001  2.178987e-001  8.955912e-001
    outer loop
      vertex -9.629527e-002 -1.054352e-001  0.000000e+000
      vertex -8.593750e-002 -1.065003e-001 -4.226600e-003
      vertex -9.933648e-002 -1.000218e-001  0.000000e+000
    endloop
  endfacet
  facet normal  4.193089e-001  8.402407e-001 -3.437669e-001
    outer loop
      vertex -9.892921e-002 -9.505194e-002 -1.122196e-002
      vertex -9.169902e-002 -1.004615e-001 -1.562500e-002
      vertex -9.407916e-002 -9.927370e-002 -1.562500e-002
    endloop
  endfacet
  facet normal  5.875450e-001  8.002310e-001 -1.200884e-001
    outer loop
      vertex -9.892921e-002 -9.505194e-002 -1.122196e-002
      vertex -9.407916e-002 -9.927370e-002 -1.562500e-002
      vertex -9.622333e-002 -9.769940e-002 -1.562500e-002
    endloop
  endfacet
  facet normal  7.197527e-001  6.937741e-001  2.517023e-002
    outer loop
      vertex -9.892921e-002 -9.505194e-002 -1.122196e-002
      vertex -9.622333e-002 -9.769940e-002 -1.562500e-002
      vertex -9.806939e-002 -9.578422e-002 -1.562500e-002
    endloop
  endfacet
  facet normal  8.253531e-001  5.605125e-001  6.795461e-002
    outer loop
      vertex -9.892921e-002 -9.505194e-002 -1.122196e-002
      vertex -9.806939e-002 -9.578422e-002 -1.562500e-002
      vertex -9.956384e-002 -9.358365e-002 -1.562500e-002
    endloop
  endfacet
  facet normal  8.802275e-001  4.735356e-001  3.104093e-002
    outer loop
      vertex -9.892921e-002 -9.505194e-002 -1.122196e-002
      vertex -9.956384e-002 -9.358365e-002 -1.562500e-002
      vertex -1.003731e-001 -9.240250e-002 -1.069496e-002
    endloop
  endfacet
  facet normal  6.332704e-001  6.901432e-001  3.502441e-001
    outer loop
      vertex -9.892921e-002 -9.505194e-002 -1.122196e-002
      vertex -9.698604e-002 -9.852379e-002 -7.894238e-003
      vertex -9.461828e-002 -1.003190e-001 -8.637856e-003
    endloop
  endfacet
  facet normal  4.496082e-001  6.621270e-001  5.995333e-001
    outer loop
      vertex -9.892921e-002 -9.505194e-002 -1.122196e-002
      vertex -9.461828e-002 -1.003190e-001 -8.637856e-003
      vertex -9.191693e-002 -1.016530e-001 -9.190414e-003
    endloop
  endfacet
  facet normal  2.384601e-001  5.080370e-001  8.276685e-001
    outer loop
      vertex -9.892921e-002 -9.505194e-002 -1.122196e-002
      vertex -9.191693e-002 -1.016530e-001 -9.190414e-003
      vertex -8.898579e-002 -1.024745e-001 -9.530678e-003
    endloop
  endfacet
  facet normal  9.094192e-001  4.128178e-001  5.037983e-002
    outer loop
      vertex -9.956384e-002 -9.358365e-002 -1.562500e-002
      vertex -1.006633e-001 -9.116147e-002 -1.562500e-002
      vertex -1.003731e-001 -9.240250e-002 -1.069496e-002
    endloop
  endfacet
  facet normal  9.674713e-001  2.528920e-001  6.704833e-003
    outer loop
      vertex -1.003731e-001 -9.240250e-002 -1.069496e-002
      vertex -1.006633e-001 -9.116147e-002 -1.562500e-002
      vertex -1.013361e-001 -8.858790e-002 -1.562500e-002
    endloop
  endfacet
  facet normal  9.567384e-001  2.886544e-001  3.647225e-002
    outer loop
      vertex -1.003731e-001 -9.240250e-002 -1.069496e-002
      vertex -1.013361e-001 -8.858790e-002 -1.562500e-002
      vertex -1.012623e-001 -8.952767e-002 -1.012312e-002
    endloop
  endfacet
  facet normal  9.963698e-001  8.512264e-002  1.175300e-003
    outer loop
      vertex -1.012623e-001 -8.952767e-002 -1.012312e-002
      vertex -1.013361e-001 -8.858790e-002 -1.562500e-002
      vertex -1.015625e-001 -8.593750e-002 -1.562500e-002
    endloop
  endfacet
  facet normal  9.953340e-001  9.612253e-002  8.409644e-003
    outer loop
      vertex -1.012623e-001 -8.952767e-002 -1.012312e-002
      vertex -1.015625e-001 -8.593750e-002 -1.562500e-002
      vertex -1.015625e-001 -8.641226e-002 -1.019849e-002
    endloop
  endfacet
  facet normal  7.946183e-002  8.791320e-001  4.699073e-001
    outer loop
      vertex -8.593750e-002 -1.030573e-001 -8.955809e-003
      vertex -8.898579e-002 -1.024745e-001 -9.530678e-003
      vertex -8.898579e-002 -1.039462e-001 -6.777416e-003
    endloop
  endfacet
  facet normal  2.890025e-001  8.442877e-001  4.512825e-001
    outer loop
      vertex -8.898579e-002 -1.039462e-001 -6.777416e-003
      vertex -8.898579e-002 -1.024745e-001 -9.530678e-003
      vertex -9.191693e-002 -1.016530e-001 -9.190414e-003
    endloop
  endfacet
  facet normal  2.890048e-001  8.442881e-001  4.512801e-001
    outer loop
      vertex -8.898579e-002 -1.039462e-001 -6.777416e-003
      vertex -9.191693e-002 -1.016530e-001 -9.190414e-003
      vertex -9.191693e-002 -1.032069e-001 -6.283430e-003
    endloop
  endfacet
  facet normal  4.696289e-001  7.786170e-001  4.161783e-001
    outer loop
      vertex -9.191693e-002 -1.032069e-001 -6.283430e-003
      vertex -9.191693e-002 -1.016530e-001 -9.190414e-003
      vertex -9.461828e-002 -1.003190e-001 -8.637856e-003
    endloop
  endfacet
  facet normal  4.696285e-001  7.786169e-001  4.161786e-001
    outer loop
      vertex -9.191693e-002 -1.032069e-001 -6.283430e-003
      vertex -9.461828e-002 -1.003190e-001 -8.637856e-003
      vertex -9.461828e-002 -1.020063e-001 -5.481239e-003
    endloop
  endfacet
  facet normal  0.000000e+000 -1.000000e+000  -0.000000e+000
    outer loop
      vertex  1.015625e-001  1.015625e-001 -2.343750e-002
      vertex  1.015625e-001  1.015625e-001  0.000000e+000
      vertex  7.590461e-002  1.015625e-001 -2.343750e-002
    endloop
  endfacet
  facet normal  0.000000e+000 -1.000000e+000  0.000000e+000
    outer loop
      vertex  7.590461e-002  1.015625e-001 -2.343750e-002
      vertex  1.015625e-001  1.015625e-001  0.000000e+000
      vertex  7.590461e-002  1.015625e-001  0.000000e+000
    endloop
  endfacet
  facet normal -1.000000e+000  0.000000e+000  0.000000e+000
    outer loop
      vertex -7.500000e-001  6.462994e-001 -4.687500e-002
      vertex -7.500000e-001 -6.484375e-001 -4.687500e-002
      vertex -7.500000e-001  6.462994e-001  0.000000e+000
    endloop
  endfacet
  facet normal -1.000000e+000  -0.000000e+000  0.000000e+000
    outer loop
      vertex -7.500000e-001  6.462994e-001  0.000000e+000
      vertex -7.500000e-001 -6.484375e-001 -4.687500e-002
      vertex -7.500000e-001 -6.484375e-001  0.000000e+000
    endloop
  endfacet
  facet normal  1.000000e+000  0.000000e+000  0.000000e+000
    outer loop
      vertex  7.500000e-001 -6.484375e-001 -4.687500e-002
      vertex  7.500000e-001  6.462994e-001 -4.687500e-002
      vertex  7.500000e-001 -6.484375e-001  0.000000e+000
    endloop
  endfacet
  facet normal  1.000000e+000  -0.000000e+000  0.000000e+000
    outer loop
      vertex  7.500000e-001 -6.484375e-001  0.000000e+000
      vertex  7.500000e-001  6.462994e-001 -4.687500e-002
      vertex  7.500000e-001  6.462994e-001  0.000000e+000
    endloop
  endfacet
  facet normal  0.000000e+000  0.000000e+000 -1.000000e+000
    outer loop
      vertex  7.315177e-001 -6.502578e-001 -4.687500e-002
      vertex -7.315177e-001 -6.502578e-001 -4.687500e-002
      vertex  7.500000e-001 -6.484375e-001 -4.687500e-002
    endloop
  endfacet
  facet normal  0.000000e+000  0.000000e+000 -1.000000e+000
    outer loop
      vertex -7.315177e-001 -6.502578e-001 -4.687500e-002
      vertex -7.500000e-001 -6.484375e-001 -4.687500e-002
      vertex  7.500000e-001 -6.484375e-001 -4.687500e-002
    endloop
  endfacet
  facet normal  0.000000e+000  0.000000e+000 -1.000000e+000
    outer loop
      vertex  7.301292e-001  6.498116e-001 -4.687500e-002
      vertex -7.301292e-001  6.498116e-001 -4.687500e-002
      vertex  7.113255e-001  6.571329e-001 -4.687500e-002
    endloop
  endfacet
  facet normal  0.000000e+000  0.000000e+000 -1.000000e+000
    outer loop
      vertex -7.137458e-001 -6.556489e-001 -4.687500e-002
      vertex -7.315177e-001 -6.502578e-001 -4.687500e-002
      vertex  7.315177e-001 -6.502578e-001 -4.687500e-002
    endloop
  endfacet
  facet normal  0.000000e+000  0.000000e+000 -1.000000e+000
    outer loop
      vertex  7.137458e-001 -6.556489e-001 -4.687500e-002
      vertex -7.137458e-001 -6.556489e-001 -4.687500e-002
      vertex  7.315177e-001 -6.502578e-001 -4.687500e-002
    endloop
  endfacet
  facet normal  0.000000e+000  0.000000e+000 -1.000000e+000
    outer loop
      vertex -6.973670e-001 -6.644036e-001 -4.687500e-002
      vertex -7.137458e-001 -6.556489e-001 -4.687500e-002
      vertex  7.137458e-001 -6.556489e-001 -4.687500e-002
    endloop
  endfacet
  facet normal  0.000000e+000  -0.000000e+000 -1.000000e+000
    outer loop
      vertex -7.500000e-001  6.462994e-001 -4.687500e-002
      vertex -7.301292e-001  6.498116e-001 -4.687500e-002
      vertex  7.301292e-001  6.498116e-001 -4.687500e-002
    endloop
  endfacet
  facet normal  0.000000e+000  -0.000000e+000 -1.000000e+000
    outer loop
      vertex -7.500000e-001  6.462994e-001 -4.687500e-002
      vertex  7.301292e-001  6.498116e-001 -4.687500e-002
      vertex  7.500000e-001  6.462994e-001 -4.687500e-002
    endloop
  endfacet
  facet normal  -0.000000e+000  -0.000000e+000 -1.000000e+000
    outer loop
      vertex -7.500000e-001  6.462994e-001 -4.687500e-002
      vertex  7.500000e-001  6.462994e-001 -4.687500e-002
      vertex  7.500000e-001 -6.484375e-001 -4.687500e-002
    endloop
  endfacet
  facet normal  0.000000e+000  0.000000e+000 -1.000000e+000
    outer loop
      vertex -7.500000e-001  6.462994e-001 -4.687500e-002
      vertex  7.500000e-001 -6.484375e-001 -4.687500e-002
      vertex -7.500000e-001 -6.484375e-001 -4.687500e-002
    endloop
  endfacet
  facet normal  0.000000e+000  -0.000000e+000 -1.000000e+000
    outer loop
      vertex -7.301292e-001  6.498116e-001 -4.687500e-002
      vertex -7.113255e-001  6.571329e-001 -4.687500e-002
      vertex  7.113255e-001  6.571329e-001 -4.687500e-002
    endloop
  endfacet
  facet normal  0.000000e+000  0.000000e+000 -1.000000e+000
    outer loop
      vertex  7.113255e-001  6.571329e-001 -4.687500e-002
      vertex -7.113255e-001  6.571329e-001 -4.687500e-002
      vertex -6.943114e-001  6.679820e-001 -4.687500e-002
    endloop
  endfacet
  facet normal  0.000000e+000  0.000000e+000 -1.000000e+000
    outer loop
      vertex  7.113255e-001  6.571329e-001 -4.687500e-002
      vertex -6.943114e-001  6.679820e-001 -4.687500e-002
      vertex  6.943114e-001  6.679820e-001 -4.687500e-002
    endloop
  endfacet
  facet normal  0.000000e+000  0.000000e+000 -1.000000e+000
    outer loop
      vertex  6.943114e-001  6.679820e-001 -4.687500e-002
      vertex -6.943114e-001  6.679820e-001 -4.687500e-002
      vertex -6.797408e-001  6.819419e-001 -4.687500e-002
    endloop
  endfacet
  facet normal  0.000000e+000  0.000000e+000 -1.000000e+000
    outer loop
      vertex  6.943114e-001  6.679820e-001 -4.687500e-002
      vertex -6.797408e-001  6.819419e-001 -4.687500e-002
      vertex  6.797408e-001  6.819419e-001 -4.687500e-002
    endloop
  endfacet
  facet normal  0.000000e+000  0.000000e+000 -1.000000e+000
    outer loop
      vertex  6.797408e-001  6.819419e-001 -4.687500e-002
      vertex -6.797408e-001  6.819419e-001 -4.687500e-002
      vertex -6.681736e-001  6.984761e-001 -4.687500e-002
    endloop
  endfacet
  facet normal  0.000000e+000  0.000000e+000 -9.999999e-001
    outer loop
      vertex  6.797408e-001  6.819419e-001 -4.687500e-002
      vertex -6.681736e-001  6.984761e-001 -4.687500e-002
      vertex  6.681736e-001  6.984761e-001 -4.687500e-002
    endloop
  endfacet
  facet normal  0.000000e+000  0.000000e+000 -1.000000e+000
    outer loop
      vertex  6.681736e-001  6.984761e-001 -4.687500e-002
      vertex -6.681736e-001  6.984761e-001 -4.687500e-002
      vertex -6.600543e-001  7.169493e-001 -4.687500e-002
    endloop
  endfacet
  facet normal  0.000000e+000  0.000000e+000 -1.000000e+000
    outer loop
      vertex  6.681736e-001  6.984761e-001 -4.687500e-002
      vertex -6.600543e-001  7.169493e-001 -4.687500e-002
      vertex  6.600543e-001  7.169493e-001 -4.687500e-002
    endloop
  endfacet
  facet normal  0.000000e+000  0.000000e+000 -1.000000e+000
    outer loop
      vertex  6.600543e-001  7.169493e-001 -4.687500e-002
      vertex -6.600543e-001  7.169493e-001 -4.687500e-002
      vertex -6.556950e-001  7.366515e-001 -4.687500e-002
    endloop
  endfacet
  facet normal  0.000000e+000  0.000000e+000 -1.000000e+000
    outer loop
      vertex  6.600543e-001  7.169493e-001 -4.687500e-002
      vertex -6.556950e-001  7.366515e-001 -4.687500e-002
      vertex  6.556950e-001  7.366515e-001 -4.687500e-002
    endloop
  endfacet
  facet normal  0.000000e+000  0.000000e+000 -1.000000e+000
    outer loop
      vertex  6.556950e-001  7.366515e-001 -4.687500e-002
      vertex -6.556950e-001  7.366515e-001 -4.687500e-002
      vertex -6.552632e-001  7.568257e-001 -4.687500e-002
    endloop
  endfacet
  facet normal  0.000000e+000  0.000000e+000 -9.999999e-001
    outer loop
      vertex  6.556950e-001  7.366515e-001 -4.687500e-002
      vertex -6.552632e-001  7.568257e-001 -4.687500e-002
      vertex  6.552632e-001  7.568257e-001 -4.687500e-002
    endloop
  endfacet
  facet normal  0.000000e+000  0.000000e+000 -1.000000e+000
    outer loop
      vertex  7.137458e-001 -6.556489e-001 -4.687500e-002
      vertex  6.973670e-001 -6.644036e-001 -4.687500e-002
      vertex -6.973670e-001 -6.644036e-001 -4.687500e-002
    endloop
  endfacet
  facet normal  0.000000e+000  0.000000e+000 -1.000000e+000
    outer loop
      vertex -6.973670e-001 -6.644036e-001 -4.687500e-002
      vertex  6.973670e-001 -6.644036e-001 -4.687500e-002
      vertex  6.830109e-001 -6.761853e-001 -4.687500e-002
    endloop
  endfacet
  facet normal  0.000000e+000  0.000000e+000 -1.000000e+000
    outer loop
      vertex -6.973670e-001 -6.644036e-001 -4.687500e-002
      vertex  6.830109e-001 -6.761853e-001 -4.687500e-002
      vertex -6.830109e-001 -6.761853e-001 -4.687500e-002
    endloop
  endfacet
  facet normal  0.000000e+000  0.000000e+000 -1.000000e+000
    outer loop
      vertex -6.830109e-001 -6.761853e-001 -4.687500e-002
      vertex  6.830109e-001 -6.761853e-001 -4.687500e-002
      vertex  6.712292e-001 -6.905414e-001 -4.687500e-002
    endloop
  endfacet
  facet normal  0.000000e+000  0.000000e+000 -1.000000e+000
    outer loop
      vertex -6.830109e-001 -6.761853e-001 -4.687500e-002
      vertex  6.712292e-001 -6.905414e-001 -4.687500e-002
      vertex -6.712292e-001 -6.905414e-001 -4.687500e-002
    endloop
  endfacet
  facet normal  0.000000e+000  0.000000e+000 -1.000000e+000
    outer loop
      vertex -6.712292e-001 -6.905414e-001 -4.687500e-002
      vertex  6.712292e-001 -6.905414e-001 -4.687500e-002
      vertex  6.624746e-001 -7.069201e-001 -4.687500e-002
    endloop
  endfacet
  facet normal  0.000000e+000  0.000000e+000 -1.000000e+000
    outer loop
      vertex -6.712292e-001 -6.905414e-001 -4.687500e-002
      vertex  6.624746e-001 -7.069201e-001 -4.687500e-002
      vertex -6.624746e-001 -7.069201e-001 -4.687500e-002
    endloop
  endfacet
  facet normal  0.000000e+000  0.000000e+000 -1.000000e+000
    outer loop
      vertex -6.624746e-001 -7.069201e-001 -4.687500e-002
      vertex  6.624746e-001 -7.069201e-001 -4.687500e-002
      vertex  6.570835e-001 -7.246921e-001 -4.687500e-002
    endloop
  endfacet
  facet normal  0.000000e+000  0.000000e+000 -1.000000e+000
    outer loop
      vertex -6.624746e-001 -7.069201e-001 -4.687500e-002
      vertex  6.570835e-001 -7.246921e-001 -4.687500e-002
      vertex -6.570835e-001 -7.246921e-001 -4.687500e-002
    endloop
  endfacet
  facet normal  0.000000e+000  0.000000e+000 -1.000000e+000
    outer loop
      vertex -6.570835e-001 -7.246921e-001 -4.687500e-002
      vertex  6.570835e-001 -7.246921e-001 -4.687500e-002
      vertex  6.552632e-001 -7.431743e-001 -4.687500e-002
    endloop
  endfacet
  facet normal  0.000000e+000  0.000000e+000 -1.000000e+000
    outer loop
      vertex -6.570835e-001 -7.246921e-001 -4.687500e-002
      vertex  6.552632e-001 -7.431743e-001 -4.687500e-002
      vertex -6.552632e-001 -7.431743e-001 -4.687500e-002
    endloop
  endfacet
  facet normal -6.343921e-001 -7.730113e-001  -0.000000e+000
    outer loop
      vertex -6.830109e-001 -6.761853e-001 -4.687500e-002
      vertex -6.973670e-001 -6.644036e-001  0.000000e+000
      vertex -6.973670e-001 -6.644036e-001 -4.687500e-002
    endloop
  endfacet
  facet normal -4.713984e-001 -8.819204e-001  0.000000e+000
    outer loop
      vertex -6.973670e-001 -6.644036e-001 -4.687500e-002
      vertex -6.973670e-001 -6.644036e-001  0.000000e+000
      vertex -7.137458e-001 -6.556489e-001  0.000000e+000
    endloop
  endfacet
  facet normal -4.713984e-001 -8.819204e-001  -0.000000e+000
    outer loop
      vertex -6.973670e-001 -6.644036e-001 -4.687500e-002
      vertex -7.137458e-001 -6.556489e-001  0.000000e+000
      vertex -7.137458e-001 -6.556489e-001 -4.687500e-002
    endloop
  endfacet
  facet normal -2.902845e-001 -9.569404e-001  0.000000e+000
    outer loop
      vertex -7.137458e-001 -6.556489e-001 -4.687500e-002
      vertex -7.137458e-001 -6.556489e-001  0.000000e+000
      vertex -7.315177e-001 -6.502578e-001  0.000000e+000
    endloop
  endfacet
  facet normal -2.902845e-001 -9.569404e-001  -0.000000e+000
    outer loop
      vertex -7.137458e-001 -6.556489e-001 -4.687500e-002
      vertex -7.315177e-001 -6.502578e-001  0.000000e+000
      vertex -7.315177e-001 -6.502578e-001 -4.687500e-002
    endloop
  endfacet
  facet normal -9.801614e-002 -9.951848e-001  0.000000e+000
    outer loop
      vertex -7.315177e-001 -6.502578e-001 -4.687500e-002
      vertex -7.315177e-001 -6.502578e-001  0.000000e+000
      vertex -7.500000e-001 -6.484375e-001  0.000000e+000
    endloop
  endfacet
  facet normal -9.801614e-002 -9.951848e-001  -0.000000e+000
    outer loop
      vertex -7.315177e-001 -6.502578e-001 -4.687500e-002
      vertex -7.500000e-001 -6.484375e-001  0.000000e+000
      vertex -7.500000e-001 -6.484375e-001 -4.687500e-002
    endloop
  endfacet
  facet normal -6.343921e-001 -7.730113e-001  0.000000e+000
    outer loop
      vertex -6.973670e-001 -6.644036e-001  0.000000e+000
      vertex -6.830109e-001 -6.761853e-001 -4.687500e-002
      vertex -6.830109e-001 -6.761853e-001  0.000000e+000
    endloop
  endfacet
  facet normal -7.730111e-001 -6.343925e-001  -0.000000e+000
    outer loop
      vertex -6.830109e-001 -6.761853e-001  0.000000e+000
      vertex -6.830109e-001 -6.761853e-001 -4.687500e-002
      vertex -6.712292e-001 -6.905414e-001 -4.687500e-002
    endloop
  endfacet
  facet normal -7.730111e-001 -6.343925e-001  0.000000e+000
    outer loop
      vertex -6.830109e-001 -6.761853e-001  0.000000e+000
      vertex -6.712292e-001 -6.905414e-001 -4.687500e-002
      vertex -6.712292e-001 -6.905414e-001  0.000000e+000
    endloop
  endfacet
  facet normal -8.819217e-001 -4.713959e-001  -0.000000e+000
    outer loop
      vertex -6.712292e-001 -6.905414e-001  0.000000e+000
      vertex -6.712292e-001 -6.905414e-001 -4.687500e-002
      vertex -6.624746e-001 -7.069201e-001 -4.687500e-002
    endloop
  endfacet
  facet normal -8.819217e-001 -4.713959e-001  0.000000e+000
    outer loop
      vertex -6.712292e-001 -6.905414e-001  0.000000e+000
      vertex -6.624746e-001 -7.069201e-001 -4.687500e-002
      vertex -6.624746e-001 -7.069201e-001  0.000000e+000
    endloop
  endfacet
  facet normal -9.569404e-001 -2.902845e-001  -0.000000e+000
    outer loop
      vertex -6.624746e-001 -7.069201e-001  0.000000e+000
      vertex -6.624746e-001 -7.069201e-001 -4.687500e-002
      vertex -6.570835e-001 -7.246921e-001 -4.687500e-002
    endloop
  endfacet
  facet normal -9.569404e-001 -2.902845e-001  0.000000e+000
    outer loop
      vertex -6.624746e-001 -7.069201e-001  0.000000e+000
      vertex -6.570835e-001 -7.246921e-001 -4.687500e-002
      vertex -6.570835e-001 -7.246921e-001  0.000000e+000
    endloop
  endfacet
  facet normal -9.951848e-001 -9.801646e-002  -0.000000e+000
    outer loop
      vertex -6.570835e-001 -7.246921e-001  0.000000e+000
      vertex -6.570835e-001 -7.246921e-001 -4.687500e-002
      vertex -6.552632e-001 -7.431743e-001 -4.687500e-002
    endloop
  endfacet
  facet normal -9.951848e-001 -9.801646e-002  0.000000e+000
    outer loop
      vertex -6.570835e-001 -7.246921e-001  0.000000e+000
      vertex -6.552632e-001 -7.431743e-001 -4.687500e-002
      vertex -6.552632e-001 -7.431743e-001  0.000000e+000
    endloop
  endfacet
  facet normal -8.193882e-001  5.732391e-001  0.000000e+000
    outer loop
      vertex -6.797408e-001  6.819419e-001 -4.687500e-002
      vertex -6.681736e-001  6.984761e-001  0.000000e+000
      vertex -6.681736e-001  6.984761e-001 -4.687500e-002
    endloop
  endfacet
  facet normal -9.154780e-001  4.023679e-001  0.000000e+000
    outer loop
      vertex -6.681736e-001  6.984761e-001 -4.687500e-002
      vertex -6.681736e-001  6.984761e-001  0.000000e+000
      vertex -6.600543e-001  7.169493e-001  0.000000e+000
    endloop
  endfacet
  facet normal -9.154780e-001  4.023679e-001  0.000000e+000
    outer loop
      vertex -6.681736e-001  6.984761e-001 -4.687500e-002
      vertex -6.600543e-001  7.169493e-001  0.000000e+000
      vertex -6.600543e-001  7.169493e-001 -4.687500e-002
    endloop
  endfacet
  facet normal -9.763858e-001  2.160343e-001  0.000000e+000
    outer loop
      vertex -6.600543e-001  7.169493e-001 -4.687500e-002
      vertex -6.600543e-001  7.169493e-001  0.000000e+000
      vertex -6.556950e-001  7.366515e-001  0.000000e+000
    endloop
  endfacet
  facet normal -9.763858e-001  2.160343e-001  0.000000e+000
    outer loop
      vertex -6.600543e-001  7.169493e-001 -4.687500e-002
      vertex -6.556950e-001  7.366515e-001  0.000000e+000
      vertex -6.556950e-001  7.366515e-001 -4.687500e-002
    endloop
  endfacet
  facet normal -9.997710e-001  2.140050e-002  0.000000e+000
    outer loop
      vertex -6.556950e-001  7.366515e-001 -4.687500e-002
      vertex -6.556950e-001  7.366515e-001  0.000000e+000
      vertex -6.552632e-001  7.568257e-001  0.000000e+000
    endloop
  endfacet
  facet normal -9.997710e-001  2.140050e-002  0.000000e+000
    outer loop
      vertex -6.556950e-001  7.366515e-001 -4.687500e-002
      vertex -6.552632e-001  7.568257e-001  0.000000e+000
      vertex -6.552632e-001  7.568257e-001 -4.687500e-002
    endloop
  endfacet
  facet normal -8.193882e-001  5.732391e-001  0.000000e+000
    outer loop
      vertex -6.681736e-001  6.984761e-001  0.000000e+000
      vertex -6.797408e-001  6.819419e-001 -4.687500e-002
      vertex -6.797408e-001  6.819419e-001  0.000000e+000
    endloop
  endfacet
  facet normal -6.918123e-001  7.220773e-001  0.000000e+000
    outer loop
      vertex -6.797408e-001  6.819419e-001  0.000000e+000
      vertex -6.797408e-001  6.819419e-001 -4.687500e-002
      vertex -6.943114e-001  6.679820e-001 -4.687500e-002
    endloop
  endfacet
  facet normal -6.918123e-001  7.220773e-001  0.000000e+000
    outer loop
      vertex -6.797408e-001  6.819419e-001  0.000000e+000
      vertex -6.943114e-001  6.679820e-001 -4.687500e-002
      vertex -6.943114e-001  6.679820e-001  0.000000e+000
    endloop
  endfacet
  facet normal -5.376503e-001  8.431679e-001  0.000000e+000
    outer loop
      vertex -6.943114e-001  6.679820e-001  0.000000e+000
      vertex -6.943114e-001  6.679820e-001 -4.687500e-002
      vertex -7.113255e-001  6.571329e-001 -4.687500e-002
    endloop
  endfacet
  facet normal -5.376503e-001  8.431679e-001  0.000000e+000
    outer loop
      vertex -6.943114e-001  6.679820e-001  0.000000e+000
      vertex -7.113255e-001  6.571329e-001 -4.687500e-002
      vertex -7.113255e-001  6.571329e-001  0.000000e+000
    endloop
  endfacet
  facet normal -3.628226e-001  9.318582e-001  0.000000e+000
    outer loop
      vertex -7.113255e-001  6.571329e-001  0.000000e+000
      vertex -7.113255e-001  6.571329e-001 -4.687500e-002
      vertex -7.301292e-001  6.498116e-001 -4.687500e-002
    endloop
  endfacet
  facet normal -3.628226e-001  9.318582e-001  0.000000e+000
    outer loop
      vertex -7.113255e-001  6.571329e-001  0.000000e+000
      vertex -7.301292e-001  6.498116e-001 -4.687500e-002
      vertex -7.301292e-001  6.498116e-001  0.000000e+000
    endloop
  endfacet
  facet normal -1.740544e-001  9.847360e-001  0.000000e+000
    outer loop
      vertex -7.301292e-001  6.498116e-001  0.000000e+000
      vertex -7.301292e-001  6.498116e-001 -4.687500e-002
      vertex -7.500000e-001  6.462994e-001 -4.687500e-002
    endloop
  endfacet
  facet normal -1.740544e-001  9.847360e-001  0.000000e+000
    outer loop
      vertex -7.301292e-001  6.498116e-001  0.000000e+000
      vertex -7.500000e-001  6.462994e-001 -4.687500e-002
      vertex -7.500000e-001  6.462994e-001  0.000000e+000
    endloop
  endfacet
  facet normal  0.000000e+000  1.000000e+000  0.000000e+000
    outer loop
      vertex  6.552632e-001  7.568257e-001 -4.687500e-002
      vertex -6.552632e-001  7.568257e-001 -4.687500e-002
      vertex  6.552632e-001  7.568257e-001  0.000000e+000
    endloop
  endfacet
  facet normal  0.000000e+000  1.000000e+000  0.000000e+000
    outer loop
      vertex  6.552632e-001  7.568257e-001  0.000000e+000
      vertex -6.552632e-001  7.568257e-001 -4.687500e-002
      vertex -6.552632e-001  7.568257e-001  0.000000e+000
    endloop
  endfacet
  facet normal  6.918123e-001  7.220773e-001  0.000000e+000
    outer loop
      vertex  6.797408e-001  6.819419e-001 -4.687500e-002
      vertex  6.943114e-001  6.679820e-001  0.000000e+000
      vertex  6.943114e-001  6.679820e-001 -4.687500e-002
    endloop
  endfacet
  facet normal  5.376503e-001  8.431679e-001  -0.000000e+000
    outer loop
      vertex  6.943114e-001  6.679820e-001 -4.687500e-002
      vertex  6.943114e-001  6.679820e-001  0.000000e+000
      vertex  7.113255e-001  6.571329e-001  0.000000e+000
    endloop
  endfacet
  facet normal  5.376503e-001  8.431679e-001  0.000000e+000
    outer loop
      vertex  6.943114e-001  6.679820e-001 -4.687500e-002
      vertex  7.113255e-001  6.571329e-001  0.000000e+000
      vertex  7.113255e-001  6.571329e-001 -4.687500e-002
    endloop
  endfacet
  facet normal  3.628226e-001  9.318582e-001  -0.000000e+000
    outer loop
      vertex  7.113255e-001  6.571329e-001 -4.687500e-002
      vertex  7.113255e-001  6.571329e-001  0.000000e+000
      vertex  7.301292e-001  6.498116e-001  0.000000e+000
    endloop
  endfacet
  facet normal  3.628226e-001  9.318582e-001  0.000000e+000
    outer loop
      vertex  7.113255e-001  6.571329e-001 -4.687500e-002
      vertex  7.301292e-001  6.498116e-001  0.000000e+000
      vertex  7.301292e-001  6.498116e-001 -4.687500e-002
    endloop
  endfacet
  facet normal  1.740544e-001  9.847360e-001  -0.000000e+000
    outer loop
      vertex  7.301292e-001  6.498116e-001 -4.687500e-002
      vertex  7.301292e-001  6.498116e-001  0.000000e+000
      vertex  7.500000e-001  6.462994e-001  0.000000e+000
    endloop
  endfacet
  facet normal  1.740544e-001  9.847360e-001  0.000000e+000
    outer loop
      vertex  7.301292e-001  6.498116e-001 -4.687500e-002
      vertex  7.500000e-001  6.462994e-001  0.000000e+000
      vertex  7.500000e-001  6.462994e-001 -4.687500e-002
    endloop
  endfacet
  facet normal  6.918123e-001  7.220773e-001  -0.000000e+000
    outer loop
      vertex  6.943114e-001  6.679820e-001  0.000000e+000
      vertex  6.797408e-001  6.819419e-001 -4.687500e-002
      vertex  6.797408e-001  6.819419e-001  0.000000e+000
    endloop
  endfacet
  facet normal  8.193882e-001  5.732391e-001  0.000000e+000
    outer loop
      vertex  6.797408e-001  6.819419e-001  0.000000e+000
      vertex  6.797408e-001  6.819419e-001 -4.687500e-002
      vertex  6.681736e-001  6.984761e-001 -4.687500e-002
    endloop
  endfacet
  facet normal  8.193882e-001  5.732391e-001  -0.000000e+000
    outer loop
      vertex  6.797408e-001  6.819419e-001  0.000000e+000
      vertex  6.681736e-001  6.984761e-001 -4.687500e-002
      vertex  6.681736e-001  6.984761e-001  0.000000e+000
    endloop
  endfacet
  facet normal  9.154780e-001  4.023679e-001  0.000000e+000
    outer loop
      vertex  6.681736e-001  6.984761e-001  0.000000e+000
      vertex  6.681736e-001  6.984761e-001 -4.687500e-002
      vertex  6.600543e-001  7.169493e-001 -4.687500e-002
    endloop
  endfacet
  facet normal  9.154780e-001  4.023679e-001  -0.000000e+000
    outer loop
      vertex  6.681736e-001  6.984761e-001  0.000000e+000
      vertex  6.600543e-001  7.169493e-001 -4.687500e-002
      vertex  6.600543e-001  7.169493e-001  0.000000e+000
    endloop
  endfacet
  facet normal  9.763858e-001  2.160343e-001  0.000000e+000
    outer loop
      vertex  6.600543e-001  7.169493e-001  0.000000e+000
      vertex  6.600543e-001  7.169493e-001 -4.687500e-002
      vertex  6.556950e-001  7.366515e-001 -4.687500e-002
    endloop
  endfacet
  facet normal  9.763858e-001  2.160343e-001  -0.000000e+000
    outer loop
      vertex  6.600543e-001  7.169493e-001  0.000000e+000
      vertex  6.556950e-001  7.366515e-001 -4.687500e-002
      vertex  6.556950e-001  7.366515e-001  0.000000e+000
    endloop
  endfacet
  facet normal  9.997710e-001  2.140050e-002  0.000000e+000
    outer loop
      vertex  6.556950e-001  7.366515e-001  0.000000e+000
      vertex  6.556950e-001  7.366515e-001 -4.687500e-002
      vertex  6.552632e-001  7.568257e-001 -4.687500e-002
    endloop
  endfacet
  facet normal  9.997710e-001  2.140050e-002  -0.000000e+000
    outer loop
      vertex  6.556950e-001  7.366515e-001  0.000000e+000
      vertex  6.552632e-001  7.568257e-001 -4.687500e-002
      vertex  6.552632e-001  7.568257e-001  0.000000e+000
    endloop
  endfacet
  facet normal  7.730111e-001 -6.343925e-001  0.000000e+000
    outer loop
      vertex  6.830109e-001 -6.761853e-001 -4.687500e-002
      vertex  6.712292e-001 -6.905414e-001  0.000000e+000
      vertex  6.712292e-001 -6.905414e-001 -4.687500e-002
    endloop
  endfacet
  facet normal  8.819217e-001 -4.713959e-001  0.000000e+000
    outer loop
      vertex  6.712292e-001 -6.905414e-001 -4.687500e-002
      vertex  6.712292e-001 -6.905414e-001  0.000000e+000
      vertex  6.624746e-001 -7.069201e-001  0.000000e+000
    endloop
  endfacet
  facet normal  8.819217e-001 -4.713959e-001  0.000000e+000
    outer loop
      vertex  6.712292e-001 -6.905414e-001 -4.687500e-002
      vertex  6.624746e-001 -7.069201e-001  0.000000e+000
      vertex  6.624746e-001 -7.069201e-001 -4.687500e-002
    endloop
  endfacet
  facet normal  9.569404e-001 -2.902845e-001  0.000000e+000
    outer loop
      vertex  6.624746e-001 -7.069201e-001 -4.687500e-002
      vertex  6.624746e-001 -7.069201e-001  0.000000e+000
      vertex  6.570835e-001 -7.246921e-001  0.000000e+000
    endloop
  endfacet
  facet normal  9.569404e-001 -2.902845e-001  0.000000e+000
    outer loop
      vertex  6.624746e-001 -7.069201e-001 -4.687500e-002
      vertex  6.570835e-001 -7.246921e-001  0.000000e+000
      vertex  6.570835e-001 -7.246921e-001 -4.687500e-002
    endloop
  endfacet
  facet normal  9.951848e-001 -9.801646e-002  0.000000e+000
    outer loop
      vertex  6.570835e-001 -7.246921e-001 -4.687500e-002
      vertex  6.570835e-001 -7.246921e-001  0.000000e+000
      vertex  6.552632e-001 -7.431743e-001  0.000000e+000
    endloop
  endfacet
  facet normal  9.951848e-001 -9.801646e-002  0.000000e+000
    outer loop
      vertex  6.570835e-001 -7.246921e-001 -4.687500e-002
      vertex  6.552632e-001 -7.431743e-001  0.000000e+000
      vertex  6.552632e-001 -7.431743e-001 -4.687500e-002
    endloop
  endfacet
  facet normal  7.730111e-001 -6.343925e-001  0.000000e+000
    outer loop
      vertex  6.712292e-001 -6.905414e-001  0.000000e+000
      vertex  6.830109e-001 -6.761853e-001 -4.687500e-002
      vertex  6.830109e-001 -6.761853e-001  0.000000e+000
    endloop
  endfacet
  facet normal  6.343921e-001 -7.730113e-001  0.000000e+000
    outer loop
      vertex  6.830109e-001 -6.761853e-001  0.000000e+000
      vertex  6.830109e-001 -6.761853e-001 -4.687500e-002
      vertex  6.973670e-001 -6.644036e-001 -4.687500e-002
    endloop
  endfacet
  facet normal  6.343921e-001 -7.730113e-001  0.000000e+000
    outer loop
      vertex  6.830109e-001 -6.761853e-001  0.000000e+000
      vertex  6.973670e-001 -6.644036e-001 -4.687500e-002
      vertex  6.973670e-001 -6.644036e-001  0.000000e+000
    endloop
  endfacet
  facet normal  4.713984e-001 -8.819204e-001  0.000000e+000
    outer loop
      vertex  6.973670e-001 -6.644036e-001  0.000000e+000
      vertex  6.973670e-001 -6.644036e-001 -4.687500e-002
      vertex  7.137458e-001 -6.556489e-001 -4.687500e-002
    endloop
  endfacet
  facet normal  4.713984e-001 -8.819204e-001  0.000000e+000
    outer loop
      vertex  6.973670e-001 -6.644036e-001  0.000000e+000
      vertex  7.137458e-001 -6.556489e-001 -4.687500e-002
      vertex  7.137458e-001 -6.556489e-001  0.000000e+000
    endloop
  endfacet
  facet normal  2.902845e-001 -9.569404e-001  0.000000e+000
    outer loop
      vertex  7.137458e-001 -6.556489e-001  0.000000e+000
      vertex  7.137458e-001 -6.556489e-001 -4.687500e-002
      vertex  7.315177e-001 -6.502578e-001 -4.687500e-002
    endloop
  endfacet
  facet normal  2.902845e-001 -9.569404e-001  0.000000e+000
    outer loop
      vertex  7.137458e-001 -6.556489e-001  0.000000e+000
      vertex  7.315177e-001 -6.502578e-001 -4.687500e-002
      vertex  7.315177e-001 -6.502578e-001  0.000000e+000
    endloop
  endfacet
  facet normal  9.801614e-002 -9.951848e-001  0.000000e+000
    outer loop
      vertex  7.315177e-001 -6.502578e-001  0.000000e+000
      vertex  7.315177e-001 -6.502578e-001 -4.687500e-002
      vertex  7.500000e-001 -6.484375e-001 -4.687500e-002
    endloop
  endfacet
  facet normal  9.801614e-002 -9.951848e-001  0.000000e+000
    outer loop
      vertex  7.315177e-001 -6.502578e-001  0.000000e+000
      vertex  7.500000e-001 -6.484375e-001 -4.687500e-002
      vertex  7.500000e-001 -6.484375e-001  0.000000e+000
    endloop
  endfacet
  facet normal  0.000000e+000 -1.000000e+000  0.000000e+000
    outer loop
      vertex -6.552632e-001 -7.431743e-001 -4.687500e-002
      vertex  6.552632e-001 -7.431743e-001 -4.687500e-002
      vertex -6.552632e-001 -7.431743e-001  0.000000e+000
    endloop
  endfacet
  facet normal  0.000000e+000 -1.000000e+000  0.000000e+000
    outer loop
      vertex -6.552632e-001 -7.431743e-001  0.000000e+000
      vertex  6.552632e-001 -7.431743e-001 -4.687500e-002
      vertex  6.552632e-001 -7.431743e-001  0.000000e+000
    endloop
  endfacet
endsolid CATIA STL
