solid CATIA STL
  facet normal  0.000000e+000 -9.999999e-001  0.000000e+000
    outer loop
      vertex -7.031250e-002 -3.281250e-001 -7.421875e-001
      vertex  7.179277e-002 -3.281250e-001 -7.421875e-001
      vertex -7.031250e-002 -3.281250e-001  7.500000e-001
    endloop
  endfacet
  facet normal  0.000000e+000 -9.999999e-001  0.000000e+000
    outer loop
      vertex -7.031250e-002 -3.281250e-001  7.500000e-001
      vertex  7.179277e-002 -3.281250e-001 -7.421875e-001
      vertex  7.179277e-002 -3.281250e-001  7.500000e-001
    endloop
  endfacet
  facet normal -9.999999e-001  0.000000e+000  0.000000e+000
    outer loop
      vertex -7.031250e-002 -3.268084e-001 -7.465279e-001
      vertex -7.031250e-002 -3.246529e-001 -7.486833e-001
      vertex -7.031250e-002 -3.258368e-001 -7.477118e-001
    endloop
  endfacet
  facet normal -1.000000e+000  0.000000e+000  0.000000e+000
    outer loop
      vertex -7.031250e-002 -3.281250e-001 -7.421875e-001
      vertex -7.031250e-002 -3.281250e-001  7.500000e-001
      vertex -7.031250e-002  1.665335e-016  7.500000e-001
    endloop
  endfacet
  facet normal -1.000000e+000  0.000000e+000  0.000000e+000
    outer loop
      vertex -7.031250e-002  0.000000e+000 -7.500000e-001
      vertex -7.031250e-002 -3.246529e-001 -7.486833e-001
      vertex -7.031250e-002 -3.268084e-001 -7.465279e-001
    endloop
  endfacet
  facet normal -1.000000e+000  0.000000e+000  0.000000e+000
    outer loop
      vertex -7.031250e-002  0.000000e+000 -7.500000e-001
      vertex -7.031250e-002 -3.268084e-001 -7.465279e-001
      vertex -7.031250e-002 -3.275303e-001 -7.451772e-001
    endloop
  endfacet
  facet normal -9.999999e-001  0.000000e+000  0.000000e+000
    outer loop
      vertex -7.031250e-002  0.000000e+000 -7.500000e-001
      vertex -7.031250e-002 -3.275303e-001 -7.451772e-001
      vertex -7.031250e-002 -3.279749e-001 -7.437117e-001
    endloop
  endfacet
  facet normal -1.000000e+000  0.000000e+000  0.000000e+000
    outer loop
      vertex -7.031250e-002  0.000000e+000 -7.500000e-001
      vertex -7.031250e-002 -3.279749e-001 -7.437117e-001
      vertex -7.031250e-002 -3.281250e-001 -7.421875e-001
    endloop
  endfacet
  facet normal -1.000000e+000  0.000000e+000  0.000000e+000
    outer loop
      vertex -7.031250e-002  0.000000e+000 -7.500000e-001
      vertex -7.031250e-002 -3.281250e-001 -7.421875e-001
      vertex -7.031250e-002  1.665335e-016  7.500000e-001
    endloop
  endfacet
  facet normal -1.000000e+000  0.000000e+000  0.000000e+000
    outer loop
      vertex -7.031250e-002 -3.246529e-001 -7.486833e-001
      vertex -7.031250e-002  0.000000e+000 -7.500000e-001
      vertex -7.031250e-002 -3.203125e-001 -7.500000e-001
    endloop
  endfacet
  facet normal -1.000000e+000  0.000000e+000  0.000000e+000
    outer loop
      vertex -7.031250e-002 -3.246529e-001 -7.486833e-001
      vertex -7.031250e-002 -3.203125e-001 -7.500000e-001
      vertex -7.031250e-002 -3.218367e-001 -7.498499e-001
    endloop
  endfacet
  facet normal -9.999999e-001  0.000000e+000  0.000000e+000
    outer loop
      vertex -7.031250e-002 -3.246529e-001 -7.486833e-001
      vertex -7.031250e-002 -3.218367e-001 -7.498499e-001
      vertex -7.031250e-002 -3.233022e-001 -7.494053e-001
    endloop
  endfacet
  facet normal  1.000000e+000  -0.000000e+000  -0.000000e+000
    outer loop
      vertex  7.179277e-002 -3.281250e-001 -7.421875e-001
      vertex  7.179277e-002 -3.279749e-001 -7.437117e-001
      vertex  7.179277e-002 -3.268084e-001 -7.465279e-001
    endloop
  endfacet
  facet normal  1.000000e+000  0.000000e+000  0.000000e+000
    outer loop
      vertex  7.179277e-002 -3.268084e-001 -7.465279e-001
      vertex  7.179277e-002 -3.279749e-001 -7.437117e-001
      vertex  7.179277e-002 -3.275303e-001 -7.451772e-001
    endloop
  endfacet
  facet normal  1.000000e+000  -0.000000e+000  0.000000e+000
    outer loop
      vertex  7.179277e-002  1.744219e-016  7.500000e-001
      vertex  7.179277e-002 -3.281250e-001  7.500000e-001
      vertex  7.179277e-002 -3.281250e-001 -7.421875e-001
    endloop
  endfacet
  facet normal  1.000000e+000  -0.000000e+000  0.000000e+000
    outer loop
      vertex  7.179277e-002  1.744219e-016  7.500000e-001
      vertex  7.179277e-002 -3.281250e-001 -7.421875e-001
      vertex  7.179277e-002 -3.268084e-001 -7.465279e-001
    endloop
  endfacet
  facet normal  1.000000e+000  -0.000000e+000  0.000000e+000
    outer loop
      vertex  7.179277e-002  1.744219e-016  7.500000e-001
      vertex  7.179277e-002 -3.268084e-001 -7.465279e-001
      vertex  7.179277e-002 -3.258368e-001 -7.477118e-001
    endloop
  endfacet
  facet normal  1.000000e+000  -0.000000e+000  0.000000e+000
    outer loop
      vertex  7.179277e-002  1.744219e-016  7.500000e-001
      vertex  7.179277e-002 -3.258368e-001 -7.477118e-001
      vertex  7.179277e-002 -3.246529e-001 -7.486833e-001
    endloop
  endfacet
  facet normal  1.000000e+000  -0.000000e+000  0.000000e+000
    outer loop
      vertex  7.179277e-002  1.744219e-016  7.500000e-001
      vertex  7.179277e-002 -3.246529e-001 -7.486833e-001
      vertex  7.179277e-002 -3.233022e-001 -7.494053e-001
    endloop
  endfacet
  facet normal  1.000000e+000  -0.000000e+000  0.000000e+000
    outer loop
      vertex  7.179277e-002  1.744219e-016  7.500000e-001
      vertex  7.179277e-002 -3.233022e-001 -7.494053e-001
      vertex  7.179277e-002 -3.218367e-001 -7.498499e-001
    endloop
  endfacet
  facet normal  1.000000e+000  -0.000000e+000  0.000000e+000
    outer loop
      vertex  7.179277e-002  1.744219e-016  7.500000e-001
      vertex  7.179277e-002 -3.218367e-001 -7.498499e-001
      vertex  7.179277e-002 -3.203125e-001 -7.500000e-001
    endloop
  endfacet
  facet normal  9.999999e-001  0.000000e+000  0.000000e+000
    outer loop
      vertex  7.179277e-002  1.744219e-016  7.500000e-001
      vertex  7.179277e-002 -3.203125e-001 -7.500000e-001
      vertex  7.179277e-002  7.888427e-018 -7.500000e-001
    endloop
  endfacet
  facet normal  0.000000e+000  0.000000e+000 -1.000000e+000
    outer loop
      vertex -7.031250e-002  0.000000e+000 -7.500000e-001
      vertex  7.179277e-002  7.888427e-018 -7.500000e-001
      vertex -7.031250e-002 -3.203125e-001 -7.500000e-001
    endloop
  endfacet
  facet normal  0.000000e+000  0.000000e+000 -1.000000e+000
    outer loop
      vertex -7.031250e-002 -3.203125e-001 -7.500000e-001
      vertex  7.179277e-002  7.888427e-018 -7.500000e-001
      vertex  7.179277e-002 -3.203125e-001 -7.500000e-001
    endloop
  endfacet
  facet normal  -0.000000e+000 -9.803550e-002 -9.951829e-001
    outer loop
      vertex -7.031250e-002 -3.203125e-001 -7.500000e-001
      vertex  7.179277e-002 -3.203125e-001 -7.500000e-001
      vertex -7.031250e-002 -3.218367e-001 -7.498499e-001
    endloop
  endfacet
  facet normal  0.000000e+000 -9.803550e-002 -9.951829e-001
    outer loop
      vertex -7.031250e-002 -3.218367e-001 -7.498499e-001
      vertex  7.179277e-002 -3.203125e-001 -7.500000e-001
      vertex  7.179277e-002 -3.218367e-001 -7.498499e-001
    endloop
  endfacet
  facet normal  -0.000000e+000 -2.902601e-001 -9.569478e-001
    outer loop
      vertex -7.031250e-002 -3.218367e-001 -7.498499e-001
      vertex  7.179277e-002 -3.218367e-001 -7.498499e-001
      vertex -7.031250e-002 -3.233022e-001 -7.494053e-001
    endloop
  endfacet
  facet normal  0.000000e+000 -2.902601e-001 -9.569478e-001
    outer loop
      vertex -7.031250e-002 -3.233022e-001 -7.494053e-001
      vertex  7.179277e-002 -3.218367e-001 -7.498499e-001
      vertex  7.179277e-002 -3.233022e-001 -7.494053e-001
    endloop
  endfacet
  facet normal  -0.000000e+000 -4.714183e-001 -8.819098e-001
    outer loop
      vertex -7.031250e-002 -3.233022e-001 -7.494053e-001
      vertex  7.179277e-002 -3.233022e-001 -7.494053e-001
      vertex -7.031250e-002 -3.246529e-001 -7.486833e-001
    endloop
  endfacet
  facet normal  0.000000e+000 -4.714183e-001 -8.819098e-001
    outer loop
      vertex -7.031250e-002 -3.246529e-001 -7.486833e-001
      vertex  7.179277e-002 -3.233022e-001 -7.494053e-001
      vertex  7.179277e-002 -3.246529e-001 -7.486833e-001
    endloop
  endfacet
  facet normal  -0.000000e+000 -6.343762e-001 -7.730244e-001
    outer loop
      vertex -7.031250e-002 -3.246529e-001 -7.486833e-001
      vertex  7.179277e-002 -3.246529e-001 -7.486833e-001
      vertex -7.031250e-002 -3.258368e-001 -7.477118e-001
    endloop
  endfacet
  facet normal  0.000000e+000 -6.343762e-001 -7.730244e-001
    outer loop
      vertex -7.031250e-002 -3.258368e-001 -7.477118e-001
      vertex  7.179277e-002 -3.246529e-001 -7.486833e-001
      vertex  7.179277e-002 -3.258368e-001 -7.477118e-001
    endloop
  endfacet
  facet normal  -0.000000e+000 -7.730070e-001 -6.343974e-001
    outer loop
      vertex -7.031250e-002 -3.258368e-001 -7.477118e-001
      vertex  7.179277e-002 -3.258368e-001 -7.477118e-001
      vertex -7.031250e-002 -3.268084e-001 -7.465279e-001
    endloop
  endfacet
  facet normal  0.000000e+000 -7.730070e-001 -6.343974e-001
    outer loop
      vertex -7.031250e-002 -3.268084e-001 -7.465279e-001
      vertex  7.179277e-002 -3.258368e-001 -7.477118e-001
      vertex  7.179277e-002 -3.268084e-001 -7.465279e-001
    endloop
  endfacet
  facet normal  -0.000000e+000 -8.819304e-001 -4.713799e-001
    outer loop
      vertex -7.031250e-002 -3.268084e-001 -7.465279e-001
      vertex  7.179277e-002 -3.268084e-001 -7.465279e-001
      vertex -7.031250e-002 -3.275303e-001 -7.451772e-001
    endloop
  endfacet
  facet normal  0.000000e+000 -8.819304e-001 -4.713799e-001
    outer loop
      vertex -7.031250e-002 -3.275303e-001 -7.451772e-001
      vertex  7.179277e-002 -3.268084e-001 -7.465279e-001
      vertex  7.179277e-002 -3.275303e-001 -7.451772e-001
    endloop
  endfacet
  facet normal  -0.000000e+000 -9.569370e-001 -2.902958e-001
    outer loop
      vertex -7.031250e-002 -3.275303e-001 -7.451772e-001
      vertex  7.179277e-002 -3.275303e-001 -7.451772e-001
      vertex -7.031250e-002 -3.279749e-001 -7.437117e-001
    endloop
  endfacet
  facet normal  0.000000e+000 -9.569370e-001 -2.902958e-001
    outer loop
      vertex -7.031250e-002 -3.279749e-001 -7.437117e-001
      vertex  7.179277e-002 -3.275303e-001 -7.451772e-001
      vertex  7.179277e-002 -3.279749e-001 -7.437117e-001
    endloop
  endfacet
  facet normal  -0.000000e+000 -9.951848e-001 -9.801623e-002
    outer loop
      vertex -7.031250e-002 -3.279749e-001 -7.437117e-001
      vertex  7.179277e-002 -3.279749e-001 -7.437117e-001
      vertex -7.031250e-002 -3.281250e-001 -7.421875e-001
    endloop
  endfacet
  facet normal  0.000000e+000 -9.951848e-001 -9.801623e-002
    outer loop
      vertex -7.031250e-002 -3.281250e-001 -7.421875e-001
      vertex  7.179277e-002 -3.279749e-001 -7.437117e-001
      vertex  7.179277e-002 -3.281250e-001 -7.421875e-001
    endloop
  endfacet
  facet normal -5.551118e-017  1.000000e+000 -1.110223e-016
    outer loop
      vertex -7.031250e-002  0.000000e+000 -7.500000e-001
      vertex -7.031250e-002  1.665335e-016  7.500000e-001
      vertex  7.179277e-002  7.888427e-018 -7.500000e-001
    endloop
  endfacet
  facet normal -5.551118e-017  1.000000e+000 -1.110223e-016
    outer loop
      vertex  7.179277e-002  7.888427e-018 -7.500000e-001
      vertex -7.031250e-002  1.665335e-016  7.500000e-001
      vertex  7.179277e-002  1.744219e-016  7.500000e-001
    endloop
  endfacet
  facet normal  -0.000000e+000  0.000000e+000  1.000000e+000
    outer loop
      vertex  7.179277e-002  1.744219e-016  7.500000e-001
      vertex -7.031250e-002  1.665335e-016  7.500000e-001
      vertex  7.179277e-002 -3.281250e-001  7.500000e-001
    endloop
  endfacet
  facet normal  0.000000e+000  0.000000e+000  1.000000e+000
    outer loop
      vertex  7.179277e-002 -3.281250e-001  7.500000e-001
      vertex -7.031250e-002  1.665335e-016  7.500000e-001
      vertex -7.031250e-002 -3.281250e-001  7.500000e-001
    endloop
  endfacet
endsolid CATIA STL
