solid CATIA STL
  facet normal  9.898731e-001  4.797236e-004  1.419543e-001
    outer loop
      vertex -3.753850e-017 -3.984375e-001  3.637336e-001
      vertex -8.765873e-004  3.463681e-001  3.673292e-001
      vertex -3.151610e-004 -3.981223e-001  3.659302e-001
    endloop
  endfacet
  facet normal  9.715444e-001  4.589919e-018  2.368578e-001
    outer loop
      vertex -3.753850e-017 -3.984375e-001  3.637336e-001
      vertex -4.100795e-017  3.359375e-001  3.637336e-001
      vertex -8.765873e-004  3.463681e-001  3.673292e-001
    endloop
  endfacet
  facet normal  1.517558e-001  1.191132e-004  9.884180e-001
    outer loop
      vertex -7.812557e-003  3.661953e-001  3.715461e-001
      vertex -6.571168e-003 -3.918703e-001  3.714468e-001
      vertex -5.472198e-003  3.615125e-001  3.711873e-001
    endloop
  endfacet
  facet normal  7.969348e-002  5.982187e-009  9.968194e-001
    outer loop
      vertex -7.812557e-003  3.661953e-001  3.715461e-001
      vertex -7.812500e-003 -3.906250e-001  3.715461e-001
      vertex -6.571168e-003 -3.918703e-001  3.714468e-001
    endloop
  endfacet
  facet normal  2.368741e-001 -1.086391e-005  9.715403e-001
    outer loop
      vertex -5.472198e-003  3.615125e-001  3.711873e-001
      vertex -6.571168e-003 -3.918703e-001  3.714468e-001
      vertex -5.364403e-003 -3.930731e-001  3.711526e-001
    endloop
  endfacet
  facet normal  3.879729e-001  1.301562e-005  9.216709e-001
    outer loop
      vertex -5.472198e-003  3.615125e-001  3.711873e-001
      vertex -5.364403e-003 -3.930731e-001  3.711526e-001
      vertex -4.217852e-003 -3.942196e-001  3.706700e-001
    endloop
  endfacet
  facet normal  3.715044e-001 -1.894616e-005  9.284312e-001
    outer loop
      vertex -5.472198e-003  3.615125e-001  3.711873e-001
      vertex -4.217852e-003 -3.942196e-001  3.706700e-001
      vertex -4.364675e-003  3.588838e-001  3.707441e-001
    endloop
  endfacet
  facet normal  5.297589e-001  1.980795e-005  8.481482e-001
    outer loop
      vertex -4.364675e-003  3.588838e-001  3.707441e-001
      vertex -4.217852e-003 -3.942196e-001  3.706700e-001
      vertex -3.156420e-003 -3.952811e-001  3.700070e-001
    endloop
  endfacet
  facet normal  5.828900e-001  1.397199e-004  8.125511e-001
    outer loop
      vertex -4.364675e-003  3.588838e-001  3.707441e-001
      vertex -3.156420e-003 -3.952811e-001  3.700070e-001
      vertex -2.280389e-003  3.526658e-001  3.692500e-001
    endloop
  endfacet
  facet normal  6.587080e-001 -9.965369e-006  7.523987e-001
    outer loop
      vertex -2.280389e-003  3.526658e-001  3.692500e-001
      vertex -3.156420e-003 -3.952811e-001  3.700070e-001
      vertex -2.209748e-003 -3.962277e-001  3.691782e-001
    endloop
  endfacet
  facet normal  7.711567e-001  1.173394e-005  6.366453e-001
    outer loop
      vertex -2.280389e-003  3.526658e-001  3.692500e-001
      vertex -2.209748e-003 -3.962277e-001  3.691782e-001
      vertex -1.405407e-003 -3.970321e-001  3.682039e-001
    endloop
  endfacet
  facet normal  8.075525e-001  1.195800e-004  5.897955e-001
    outer loop
      vertex -2.280389e-003  3.526658e-001  3.692500e-001
      vertex -1.405407e-003 -3.970321e-001  3.682039e-001
      vertex -8.765873e-004  3.463681e-001  3.673292e-001
    endloop
  endfacet
  facet normal  9.016780e-001 -1.325803e-004  4.324081e-001
    outer loop
      vertex -8.765873e-004  3.463681e-001  3.673292e-001
      vertex -1.405407e-003 -3.970321e-001  3.682039e-001
      vertex -3.151610e-004 -3.981223e-001  3.659302e-001
    endloop
  endfacet
  facet normal -3.030248e-004  7.913975e-002  9.968635e-001
    outer loop
      vertex -7.812500e-002  3.906250e-001  3.715461e-001
      vertex -3.419210e-002  3.916593e-001  3.714773e-001
      vertex -7.936633e-002  3.918703e-001  3.714468e-001
    endloop
  endfacet
  facet normal  0.000000e+000  6.633009e-002  9.977978e-001
    outer loop
      vertex -7.812500e-002  3.906250e-001  3.715461e-001
      vertex -3.224232e-002  3.906250e-001  3.715461e-001
      vertex -3.419210e-002  3.916593e-001  3.714773e-001
    endloop
  endfacet
  facet normal  3.855425e-003  9.833519e-001  1.816705e-001
    outer loop
      vertex -6.250000e-002  3.984375e-001  3.637336e-001
      vertex -8.562234e-002  3.981223e-001  3.659302e-001
      vertex -5.402483e-002  3.978594e-001  3.666829e-001
    endloop
  endfacet
  facet normal  -0.000000e+000  9.898636e-001  1.420211e-001
    outer loop
      vertex -6.250000e-002  3.984375e-001  3.637336e-001
      vertex -8.593750e-002  3.984375e-001  3.637336e-001
      vertex -8.562234e-002  3.981223e-001  3.659302e-001
    endloop
  endfacet
  facet normal -2.826630e-003  9.011683e-001  4.334602e-001
    outer loop
      vertex -5.402483e-002  3.978594e-001  3.666829e-001
      vertex -8.562234e-002  3.981223e-001  3.659302e-001
      vertex -8.453209e-002  3.970321e-001  3.682039e-001
    endloop
  endfacet
  facet normal  1.045808e-002  7.753337e-001  6.314652e-001
    outer loop
      vertex -5.402483e-002  3.978594e-001  3.666829e-001
      vertex -8.453209e-002  3.970321e-001  3.682039e-001
      vertex -8.372775e-002  3.962277e-001  3.691782e-001
    endloop
  endfacet
  facet normal  8.468782e-004  8.323078e-001  5.543130e-001
    outer loop
      vertex -5.402483e-002  3.978594e-001  3.666829e-001
      vertex -8.372775e-002  3.962277e-001  3.691782e-001
      vertex -4.560224e-002  3.961099e-001  3.692969e-001
    endloop
  endfacet
  facet normal -3.076860e-004  6.585400e-001  7.525457e-001
    outer loop
      vertex -4.560224e-002  3.961099e-001  3.692969e-001
      vertex -8.372775e-002  3.962277e-001  3.691782e-001
      vertex -8.278108e-002  3.952811e-001  3.700070e-001
    endloop
  endfacet
  facet normal  4.284078e-003  5.328156e-001  8.462206e-001
    outer loop
      vertex -4.560224e-002  3.961099e-001  3.692969e-001
      vertex -8.278108e-002  3.952811e-001  3.700070e-001
      vertex -8.171964e-002  3.942196e-001  3.706700e-001
    endloop
  endfacet
  facet normal  5.945993e-004  5.802339e-001  8.144497e-001
    outer loop
      vertex -4.560224e-002  3.961099e-001  3.692969e-001
      vertex -8.171964e-002  3.942196e-001  3.706700e-001
      vertex -3.954994e-002  3.940713e-001  3.707448e-001
    endloop
  endfacet
  facet normal -2.728694e-004  3.877373e-001  9.217699e-001
    outer loop
      vertex -3.954994e-002  3.940713e-001  3.707448e-001
      vertex -8.171964e-002  3.942196e-001  3.706700e-001
      vertex -8.057310e-002  3.930731e-001  3.711526e-001
    endloop
  endfacet
  facet normal  3.777047e-003  2.411949e-001  9.704694e-001
    outer loop
      vertex -3.954994e-002  3.940713e-001  3.707448e-001
      vertex -8.057310e-002  3.930731e-001  3.711526e-001
      vertex -7.936633e-002  3.918703e-001  3.714468e-001
    endloop
  endfacet
  facet normal  7.189365e-004  2.920314e-001  9.564084e-001
    outer loop
      vertex -3.954994e-002  3.940713e-001  3.707448e-001
      vertex -7.936633e-002  3.918703e-001  3.714468e-001
      vertex -3.419210e-002  3.916593e-001  3.714773e-001
    endloop
  endfacet
  facet normal  1.000000e+000 -3.399078e-033  5.081467e-017
    outer loop
      vertex  0.000000e+000 -3.984375e-001 -3.750000e-001
      vertex  2.496198e-033  3.359375e-001 -3.750000e-001
      vertex -3.753850e-017 -3.984375e-001  3.637336e-001
    endloop
  endfacet
  facet normal  1.000000e+000  4.724354e-018  5.551115e-017
    outer loop
      vertex -3.753850e-017 -3.984375e-001  3.637336e-001
      vertex  2.496198e-033  3.359375e-001 -3.750000e-001
      vertex -4.100795e-017  3.359375e-001  3.637336e-001
    endloop
  endfacet
  facet normal  0.000000e+000  0.000000e+000  1.000000e+000
    outer loop
      vertex -1.437892e-002  3.758200e-001  3.715461e-001
      vertex -2.261761e-002  3.840587e-001  3.715461e-001
      vertex -7.812557e-003  3.661953e-001  3.715461e-001
    endloop
  endfacet
  facet normal  0.000000e+000  0.000000e+000  1.000000e+000
    outer loop
      vertex -7.812500e-002  3.906250e-001  3.715461e-001
      vertex -7.812500e-002 -3.906250e-001  3.715461e-001
      vertex -7.812500e-003 -3.906250e-001  3.715461e-001
    endloop
  endfacet
  facet normal  0.000000e+000  0.000000e+000  9.999999e-001
    outer loop
      vertex -7.812500e-002  3.906250e-001  3.715461e-001
      vertex -7.812500e-003 -3.906250e-001  3.715461e-001
      vertex -7.812557e-003  3.661953e-001  3.715461e-001
    endloop
  endfacet
  facet normal  0.000000e+000  0.000000e+000  1.000000e+000
    outer loop
      vertex -7.812500e-002  3.906250e-001  3.715461e-001
      vertex -7.812557e-003  3.661953e-001  3.715461e-001
      vertex -2.261761e-002  3.840587e-001  3.715461e-001
    endloop
  endfacet
  facet normal  0.000000e+000  0.000000e+000  1.000000e+000
    outer loop
      vertex -7.812500e-002  3.906250e-001  3.715461e-001
      vertex -2.261761e-002  3.840587e-001  3.715461e-001
      vertex -3.224232e-002  3.906250e-001  3.715461e-001
    endloop
  endfacet
  facet normal  0.000000e+000  1.000000e+000  0.000000e+000
    outer loop
      vertex -8.593750e-002  3.984375e-001 -3.750000e-001
      vertex -8.593750e-002  3.984375e-001  3.637336e-001
      vertex -6.250000e-002  3.984375e-001 -3.750000e-001
    endloop
  endfacet
  facet normal  0.000000e+000  1.000000e+000  -0.000000e+000
    outer loop
      vertex -6.250000e-002  3.984375e-001 -3.750000e-001
      vertex -8.593750e-002  3.984375e-001  3.637336e-001
      vertex -6.250000e-002  3.984375e-001  3.637336e-001
    endloop
  endfacet
  facet normal  0.000000e+000  0.000000e+000 -1.000000e+000
    outer loop
      vertex -5.030686e-002  3.972366e-001 -3.750000e-001
      vertex -3.858228e-002  3.936800e-001 -3.750000e-001
      vertex -6.250000e-002  3.984375e-001 -3.750000e-001
    endloop
  endfacet
  facet normal  -0.000000e+000  -0.000000e+000 -9.999999e-001
    outer loop
      vertex -8.593750e-002  3.984375e-001 -3.750000e-001
      vertex -6.250000e-002  3.984375e-001 -3.750000e-001
      vertex -3.858228e-002  3.936800e-001 -3.750000e-001
    endloop
  endfacet
  facet normal  -0.000000e+000  -0.000000e+000 -1.000000e+000
    outer loop
      vertex -8.593750e-002  3.984375e-001 -3.750000e-001
      vertex -3.858228e-002  3.936800e-001 -3.750000e-001
      vertex -2.777686e-002  3.879043e-001 -3.750000e-001
    endloop
  endfacet
  facet normal  -0.000000e+000  -0.000000e+000 -1.000000e+000
    outer loop
      vertex -8.593750e-002  3.984375e-001 -3.750000e-001
      vertex -2.777686e-002  3.879043e-001 -3.750000e-001
      vertex -1.830583e-002  3.801317e-001 -3.750000e-001
    endloop
  endfacet
  facet normal  -0.000000e+000  -0.000000e+000 -1.000000e+000
    outer loop
      vertex -8.593750e-002  3.984375e-001 -3.750000e-001
      vertex -1.830583e-002  3.801317e-001 -3.750000e-001
      vertex -1.053315e-002  3.706606e-001 -3.750000e-001
    endloop
  endfacet
  facet normal  -0.000000e+000  -0.000000e+000 -1.000000e+000
    outer loop
      vertex -8.593750e-002  3.984375e-001 -3.750000e-001
      vertex -1.053315e-002  3.706606e-001 -3.750000e-001
      vertex -4.757529e-003  3.598552e-001 -3.750000e-001
    endloop
  endfacet
  facet normal  -0.000000e+000  -0.000000e+000 -1.000000e+000
    outer loop
      vertex -8.593750e-002  3.984375e-001 -3.750000e-001
      vertex -4.757529e-003  3.598552e-001 -3.750000e-001
      vertex -1.200920e-003  3.481306e-001 -3.750000e-001
    endloop
  endfacet
  facet normal  -0.000000e+000  -0.000000e+000 -1.000000e+000
    outer loop
      vertex -8.593750e-002  3.984375e-001 -3.750000e-001
      vertex -1.200920e-003  3.481306e-001 -3.750000e-001
      vertex  2.496198e-033  3.359375e-001 -3.750000e-001
    endloop
  endfacet
  facet normal  -0.000000e+000  0.000000e+000 -1.000000e+000
    outer loop
      vertex -8.593750e-002  3.984375e-001 -3.750000e-001
      vertex  2.496198e-033  3.359375e-001 -3.750000e-001
      vertex  0.000000e+000 -3.984375e-001 -3.750000e-001
    endloop
  endfacet
  facet normal  0.000000e+000  0.000000e+000 -1.000000e+000
    outer loop
      vertex -8.593750e-002  3.984375e-001 -3.750000e-001
      vertex  0.000000e+000 -3.984375e-001 -3.750000e-001
      vertex -8.593750e-002 -3.984375e-001 -3.750000e-001
    endloop
  endfacet
  facet normal  8.260643e-001  5.635756e-001  3.605578e-004
    outer loop
      vertex -7.812557e-003  3.661953e-001  3.715461e-001
      vertex -1.053315e-002  3.706606e-001 -3.750000e-001
      vertex -1.437892e-002  3.758200e-001  3.715461e-001
    endloop
  endfacet
  facet normal  8.944890e-001  4.470896e-001 -5.855392e-004
    outer loop
      vertex -7.812557e-003  3.661953e-001  3.715461e-001
      vertex -5.472198e-003  3.615125e-001  3.711873e-001
      vertex -1.053315e-002  3.706606e-001 -3.750000e-001
    endloop
  endfacet
  facet normal  9.801670e-002  9.951847e-001 -3.443332e-004
    outer loop
      vertex -6.250000e-002  3.984375e-001 -3.750000e-001
      vertex -5.402483e-002  3.978594e-001  3.666829e-001
      vertex -5.030686e-002  3.972366e-001 -3.750000e-001
    endloop
  endfacet
  facet normal  6.805356e-002  9.976816e-001  0.000000e+000
    outer loop
      vertex -6.250000e-002  3.984375e-001 -3.750000e-001
      vertex -6.250000e-002  3.984375e-001  3.637336e-001
      vertex -5.402483e-002  3.978594e-001  3.666829e-001
    endloop
  endfacet
  facet normal  2.033172e-001  9.791129e-001  1.970228e-004
    outer loop
      vertex -5.030686e-002  3.972366e-001 -3.750000e-001
      vertex -5.402483e-002  3.978594e-001  3.666829e-001
      vertex -4.560224e-002  3.961099e-001  3.692969e-001
    endloop
  endfacet
  facet normal  2.902845e-001  9.569402e-001 -3.862528e-004
    outer loop
      vertex -5.030686e-002  3.972366e-001 -3.750000e-001
      vertex -4.560224e-002  3.961099e-001  3.692969e-001
      vertex -3.858228e-002  3.936800e-001 -3.750000e-001
    endloop
  endfacet
  facet normal  3.192183e-001  9.476812e-001 -8.313182e-005
    outer loop
      vertex -3.858228e-002  3.936800e-001 -3.750000e-001
      vertex -4.560224e-002  3.961099e-001  3.692969e-001
      vertex -3.954994e-002  3.940713e-001  3.707448e-001
    endloop
  endfacet
  facet normal  4.105078e-001  9.118571e-001  5.412299e-005
    outer loop
      vertex -3.858228e-002  3.936800e-001 -3.750000e-001
      vertex -3.954994e-002  3.940713e-001  3.707448e-001
      vertex -3.419210e-002  3.916593e-001  3.714773e-001
    endloop
  endfacet
  facet normal  6.343936e-001  7.730101e-001 -4.021646e-004
    outer loop
      vertex -2.777686e-002  3.879043e-001 -3.750000e-001
      vertex -2.261761e-002  3.840587e-001  3.715461e-001
      vertex -1.830583e-002  3.801317e-001 -3.750000e-001
    endloop
  endfacet
  facet normal  7.071059e-001  7.071075e-001  3.644574e-004
    outer loop
      vertex -2.261761e-002  3.840587e-001  3.715461e-001
      vertex -1.437892e-002  3.758200e-001  3.715461e-001
      vertex -1.830583e-002  3.801317e-001 -3.750000e-001
    endloop
  endfacet
  facet normal  7.730102e-001  6.343935e-001 -4.021659e-004
    outer loop
      vertex -1.053315e-002  3.706606e-001 -3.750000e-001
      vertex -1.830583e-002  3.801317e-001 -3.750000e-001
      vertex -1.437892e-002  3.758200e-001  3.715461e-001
    endloop
  endfacet
  facet normal  8.819214e-001  4.713967e-001 -2.022999e-004
    outer loop
      vertex -1.053315e-002  3.706606e-001 -3.750000e-001
      vertex -5.472198e-003  3.615125e-001  3.711873e-001
      vertex -4.757529e-003  3.598552e-001 -3.750000e-001
    endloop
  endfacet
  facet normal  9.215462e-001  3.882688e-001  2.027776e-005
    outer loop
      vertex -5.472198e-003  3.615125e-001  3.711873e-001
      vertex -4.364675e-003  3.588838e-001  3.707441e-001
      vertex -4.757529e-003  3.598552e-001 -3.750000e-001
    endloop
  endfacet
  facet normal  9.481450e-001  3.178383e-001 -8.547440e-005
    outer loop
      vertex -4.757529e-003  3.598552e-001 -3.750000e-001
      vertex -4.364675e-003  3.588838e-001  3.707441e-001
      vertex -2.280389e-003  3.526658e-001  3.692500e-001
    endloop
  endfacet
  facet normal  9.569402e-001  2.902848e-001 -3.809129e-004
    outer loop
      vertex -4.757529e-003  3.598552e-001 -3.750000e-001
      vertex -2.280389e-003  3.526658e-001  3.692500e-001
      vertex -1.200920e-003  3.481306e-001 -3.750000e-001
    endloop
  endfacet
  facet normal  5.635740e-001  8.260656e-001  3.605629e-004
    outer loop
      vertex -3.224232e-002  3.906250e-001  3.715461e-001
      vertex -2.261761e-002  3.840587e-001  3.715461e-001
      vertex -2.777686e-002  3.879043e-001 -3.750000e-001
    endloop
  endfacet
  facet normal  4.713974e-001  8.819208e-001 -3.943449e-004
    outer loop
      vertex -3.224232e-002  3.906250e-001  3.715461e-001
      vertex -2.777686e-002  3.879043e-001 -3.750000e-001
      vertex -3.858228e-002  3.936800e-001 -3.750000e-001
    endloop
  endfacet
  facet normal  4.686123e-001  8.834039e-001 -3.646237e-004
    outer loop
      vertex -3.224232e-002  3.906250e-001  3.715461e-001
      vertex -3.858228e-002  3.936800e-001 -3.750000e-001
      vertex -3.419210e-002  3.916593e-001  3.714773e-001
    endloop
  endfacet
  facet normal  9.964871e-001  8.374496e-002  5.531615e-017
    outer loop
      vertex -4.100795e-017  3.359375e-001  3.637336e-001
      vertex  2.496198e-033  3.359375e-001 -3.750000e-001
      vertex -8.765873e-004  3.463681e-001  3.673292e-001
    endloop
  endfacet
  facet normal  9.951847e-001  9.801715e-002 -2.020787e-004
    outer loop
      vertex -8.765873e-004  3.463681e-001  3.673292e-001
      vertex  2.496198e-033  3.359375e-001 -3.750000e-001
      vertex -1.200920e-003  3.481306e-001 -3.750000e-001
    endloop
  endfacet
  facet normal  9.760512e-001  2.175410e-001  9.007558e-005
    outer loop
      vertex -8.765873e-004  3.463681e-001  3.673292e-001
      vertex -1.200920e-003  3.481306e-001 -3.750000e-001
      vertex -2.280389e-003  3.526658e-001  3.692500e-001
    endloop
  endfacet
  facet normal -1.000000e+000  0.000000e+000  0.000000e+000
    outer loop
      vertex -8.593750e-002 -3.984375e-001 -3.750000e-001
      vertex -8.593750e-002 -3.984375e-001  3.637336e-001
      vertex -8.593750e-002  3.984375e-001 -3.750000e-001
    endloop
  endfacet
  facet normal -1.000000e+000  0.000000e+000  0.000000e+000
    outer loop
      vertex -8.593750e-002  3.984375e-001 -3.750000e-001
      vertex -8.593750e-002 -3.984375e-001  3.637336e-001
      vertex -8.593750e-002  3.984375e-001  3.637336e-001
    endloop
  endfacet
  facet normal  0.000000e+000 -1.000000e+000  0.000000e+000
    outer loop
      vertex -8.593750e-002 -3.984375e-001  3.637336e-001
      vertex -8.593750e-002 -3.984375e-001 -3.750000e-001
      vertex -3.753850e-017 -3.984375e-001  3.637336e-001
    endloop
  endfacet
  facet normal  0.000000e+000 -1.000000e+000  -0.000000e+000
    outer loop
      vertex -3.753850e-017 -3.984375e-001  3.637336e-001
      vertex -8.593750e-002 -3.984375e-001 -3.750000e-001
      vertex  0.000000e+000 -3.984375e-001 -3.750000e-001
    endloop
  endfacet
  facet normal -7.944079e-002  4.032782e-007  9.968396e-001
    outer loop
      vertex -7.812500e-002 -3.906250e-001  3.715461e-001
      vertex -7.936633e-002  3.918703e-001  3.714468e-001
      vertex -7.937031e-002 -3.918663e-001  3.714468e-001
    endloop
  endfacet
  facet normal -7.969338e-002  0.000000e+000  9.968194e-001
    outer loop
      vertex -7.812500e-002 -3.906250e-001  3.715461e-001
      vertex -7.812500e-002  3.906250e-001  3.715461e-001
      vertex -7.936633e-002  3.918703e-001  3.714468e-001
    endloop
  endfacet
  facet normal -9.017021e-001  0.000000e+000  4.323578e-001
    outer loop
      vertex -8.562234e-002  3.981223e-001  3.659302e-001
      vertex -8.453209e-002 -3.970321e-001  3.682039e-001
      vertex -8.453209e-002  3.970321e-001  3.682039e-001
    endloop
  endfacet
  facet normal -7.711541e-001  0.000000e+000  6.366485e-001
    outer loop
      vertex -8.453209e-002 -3.970321e-001  3.682039e-001
      vertex -8.372775e-002 -3.962277e-001  3.691782e-001
      vertex -8.453209e-002  3.970321e-001  3.682039e-001
    endloop
  endfacet
  facet normal -7.711541e-001  0.000000e+000  6.366486e-001
    outer loop
      vertex -8.453209e-002  3.970321e-001  3.682039e-001
      vertex -8.372775e-002 -3.962277e-001  3.691782e-001
      vertex -8.372775e-002  3.962277e-001  3.691782e-001
    endloop
  endfacet
  facet normal -6.587142e-001  0.000000e+000  7.523932e-001
    outer loop
      vertex -8.372775e-002 -3.962277e-001  3.691782e-001
      vertex -8.278108e-002 -3.952811e-001  3.700070e-001
      vertex -8.372775e-002  3.962277e-001  3.691782e-001
    endloop
  endfacet
  facet normal -6.587142e-001  0.000000e+000  7.523933e-001
    outer loop
      vertex -8.372775e-002  3.962277e-001  3.691782e-001
      vertex -8.278108e-002 -3.952811e-001  3.700070e-001
      vertex -8.278108e-002  3.952811e-001  3.700070e-001
    endloop
  endfacet
  facet normal -5.297420e-001  0.000000e+000  8.481588e-001
    outer loop
      vertex -8.278108e-002 -3.952811e-001  3.700070e-001
      vertex -8.171964e-002 -3.942196e-001  3.706700e-001
      vertex -8.278108e-002  3.952811e-001  3.700070e-001
    endloop
  endfacet
  facet normal -5.297421e-001  0.000000e+000  8.481588e-001
    outer loop
      vertex -8.278108e-002  3.952811e-001  3.700070e-001
      vertex -8.171964e-002 -3.942196e-001  3.706700e-001
      vertex -8.171964e-002  3.942196e-001  3.706700e-001
    endloop
  endfacet
  facet normal -3.879628e-001  0.000000e+000  9.216751e-001
    outer loop
      vertex -8.171964e-002 -3.942196e-001  3.706700e-001
      vertex -8.057310e-002 -3.930731e-001  3.711526e-001
      vertex -8.171964e-002  3.942196e-001  3.706700e-001
    endloop
  endfacet
  facet normal -3.879627e-001  0.000000e+000  9.216751e-001
    outer loop
      vertex -8.171964e-002  3.942196e-001  3.706700e-001
      vertex -8.057310e-002 -3.930731e-001  3.711526e-001
      vertex -8.057310e-002  3.930731e-001  3.711526e-001
    endloop
  endfacet
  facet normal -2.376241e-001  0.000000e+000  9.713572e-001
    outer loop
      vertex -8.057310e-002 -3.930731e-001  3.711526e-001
      vertex -7.937031e-002 -3.918663e-001  3.714468e-001
      vertex -8.057310e-002  3.930731e-001  3.711526e-001
    endloop
  endfacet
  facet normal -2.368835e-001  1.202530e-006  9.715381e-001
    outer loop
      vertex -8.057310e-002  3.930731e-001  3.711526e-001
      vertex -7.937031e-002 -3.918663e-001  3.714468e-001
      vertex -7.936633e-002  3.918703e-001  3.714468e-001
    endloop
  endfacet
  facet normal -9.898637e-001  0.000000e+000  1.420211e-001
    outer loop
      vertex -8.593750e-002  3.984375e-001  3.637336e-001
      vertex -8.593750e-002 -3.984375e-001  3.637336e-001
      vertex -8.562234e-002  3.981223e-001  3.659302e-001
    endloop
  endfacet
  facet normal -9.898636e-001  0.000000e+000  1.420211e-001
    outer loop
      vertex -8.562234e-002  3.981223e-001  3.659302e-001
      vertex -8.593750e-002 -3.984375e-001  3.637336e-001
      vertex -8.562234e-002 -3.981223e-001  3.659302e-001
    endloop
  endfacet
  facet normal -9.017021e-001  0.000000e+000  4.323578e-001
    outer loop
      vertex -8.562234e-002  3.981223e-001  3.659302e-001
      vertex -8.562234e-002 -3.981223e-001  3.659302e-001
      vertex -8.453209e-002 -3.970321e-001  3.682039e-001
    endloop
  endfacet
  facet normal -4.358038e-006 -7.944423e-002  9.968393e-001
    outer loop
      vertex -7.812500e-003 -3.906250e-001  3.715461e-001
      vertex -7.937031e-002 -3.918663e-001  3.714468e-001
      vertex -6.571168e-003 -3.918703e-001  3.714468e-001
    endloop
  endfacet
  facet normal  0.000000e+000 -7.969386e-002  9.968195e-001
    outer loop
      vertex -7.812500e-003 -3.906250e-001  3.715461e-001
      vertex -7.812500e-002 -3.906250e-001  3.715461e-001
      vertex -7.937031e-002 -3.918663e-001  3.714468e-001
    endloop
  endfacet
  facet normal -1.299378e-005 -2.368683e-001  9.715418e-001
    outer loop
      vertex -7.937031e-002 -3.918663e-001  3.714468e-001
      vertex -8.057310e-002 -3.930731e-001  3.711526e-001
      vertex -6.571168e-003 -3.918703e-001  3.714468e-001
    endloop
  endfacet
  facet normal  0.000000e+000 -2.376227e-001  9.713575e-001
    outer loop
      vertex -6.571168e-003 -3.918703e-001  3.714468e-001
      vertex -8.057310e-002 -3.930731e-001  3.711526e-001
      vertex -5.364403e-003 -3.930731e-001  3.711526e-001
    endloop
  endfacet
  facet normal  0.000000e+000 -3.879692e-001  9.216724e-001
    outer loop
      vertex -8.057310e-002 -3.930731e-001  3.711526e-001
      vertex -8.171964e-002 -3.942196e-001  3.706700e-001
      vertex -5.364403e-003 -3.930731e-001  3.711526e-001
    endloop
  endfacet
  facet normal  0.000000e+000 -3.879692e-001  9.216723e-001
    outer loop
      vertex -5.364403e-003 -3.930731e-001  3.711526e-001
      vertex -8.171964e-002 -3.942196e-001  3.706700e-001
      vertex -4.217852e-003 -3.942196e-001  3.706700e-001
    endloop
  endfacet
  facet normal  0.000000e+000 -5.297421e-001  8.481588e-001
    outer loop
      vertex -8.171964e-002 -3.942196e-001  3.706700e-001
      vertex -8.278108e-002 -3.952811e-001  3.700070e-001
      vertex -4.217852e-003 -3.942196e-001  3.706700e-001
    endloop
  endfacet
  facet normal  0.000000e+000 -5.297420e-001  8.481588e-001
    outer loop
      vertex -4.217852e-003 -3.942196e-001  3.706700e-001
      vertex -8.278108e-002 -3.952811e-001  3.700070e-001
      vertex -3.156420e-003 -3.952811e-001  3.700070e-001
    endloop
  endfacet
  facet normal  0.000000e+000 -6.587142e-001  7.523932e-001
    outer loop
      vertex -8.278108e-002 -3.952811e-001  3.700070e-001
      vertex -8.372775e-002 -3.962277e-001  3.691782e-001
      vertex -3.156420e-003 -3.952811e-001  3.700070e-001
    endloop
  endfacet
  facet normal  0.000000e+000 -6.587142e-001  7.523932e-001
    outer loop
      vertex -3.156420e-003 -3.952811e-001  3.700070e-001
      vertex -8.372775e-002 -3.962277e-001  3.691782e-001
      vertex -2.209748e-003 -3.962277e-001  3.691782e-001
    endloop
  endfacet
  facet normal  0.000000e+000 -7.711542e-001  6.366486e-001
    outer loop
      vertex -8.372775e-002 -3.962277e-001  3.691782e-001
      vertex -8.453209e-002 -3.970321e-001  3.682039e-001
      vertex -2.209748e-003 -3.962277e-001  3.691782e-001
    endloop
  endfacet
  facet normal  0.000000e+000 -7.711542e-001  6.366485e-001
    outer loop
      vertex -2.209748e-003 -3.962277e-001  3.691782e-001
      vertex -8.453209e-002 -3.970321e-001  3.682039e-001
      vertex -1.405407e-003 -3.970321e-001  3.682039e-001
    endloop
  endfacet
  facet normal  0.000000e+000 -9.017010e-001  4.323603e-001
    outer loop
      vertex -8.453209e-002 -3.970321e-001  3.682039e-001
      vertex -8.562234e-002 -3.981223e-001  3.659302e-001
      vertex -1.405407e-003 -3.970321e-001  3.682039e-001
    endloop
  endfacet
  facet normal  0.000000e+000 -9.898636e-001  1.420211e-001
    outer loop
      vertex -8.593750e-002 -3.984375e-001  3.637336e-001
      vertex -3.753850e-017 -3.984375e-001  3.637336e-001
      vertex -8.562234e-002 -3.981223e-001  3.659302e-001
    endloop
  endfacet
  facet normal  0.000000e+000 -9.898636e-001  1.420211e-001
    outer loop
      vertex -8.562234e-002 -3.981223e-001  3.659302e-001
      vertex -3.753850e-017 -3.984375e-001  3.637336e-001
      vertex -3.151610e-004 -3.981223e-001  3.659302e-001
    endloop
  endfacet
  facet normal  0.000000e+000 -9.017010e-001  4.323603e-001
    outer loop
      vertex -8.562234e-002 -3.981223e-001  3.659302e-001
      vertex -3.151610e-004 -3.981223e-001  3.659302e-001
      vertex -1.405407e-003 -3.970321e-001  3.682039e-001
    endloop
  endfacet
endsolid CATIA STL
