solid CATIA STL
  facet normal  0.000000e+000 -1.000000e+000  0.000000e+000
    outer loop
      vertex -4.973684e-001 -5.859375e-001  5.601152e-001
      vertex  5.605263e-001 -5.859375e-001  4.969572e-001
      vertex  3.947368e-002 -5.859375e-001  7.495888e-001
    endloop
  endfacet
  facet normal  0.000000e+000 -1.000000e+000  0.000000e+000
    outer loop
      vertex  5.605263e-001 -5.859375e-001  4.969572e-001
      vertex -4.973684e-001 -5.859375e-001  5.601152e-001
      vertex  7.500000e-001 -5.859375e-001 -3.988487e-002
    endloop
  endfacet
  facet normal  0.000000e+000 -1.000000e+000  0.000000e+000
    outer loop
      vertex  7.500000e-001 -5.859375e-001 -3.988487e-002
      vertex -4.973684e-001 -5.859375e-001  5.601152e-001
      vertex -7.116431e-001 -5.859375e-001  1.181737e-001
    endloop
  endfacet
  facet normal  0.000000e+000 -1.000000e+000  0.000000e+000
    outer loop
      vertex  7.500000e-001 -5.859375e-001 -3.988487e-002
      vertex -7.116431e-001 -5.859375e-001  1.181737e-001
      vertex  4.973684e-001 -5.859375e-001 -5.609375e-001
    endloop
  endfacet
  facet normal  0.000000e+000 -1.000000e+000  0.000000e+000
    outer loop
      vertex  4.973684e-001 -5.859375e-001 -5.609375e-001
      vertex -7.116431e-001 -5.859375e-001  1.181737e-001
      vertex -4.805645e-001 -5.859375e-001 -5.365490e-001
    endloop
  endfacet
  facet normal  0.000000e+000 -1.000000e+000  0.000000e+000
    outer loop
      vertex  4.973684e-001 -5.859375e-001 -5.609375e-001
      vertex -4.805645e-001 -5.859375e-001 -5.365490e-001
      vertex -3.947368e-002 -5.859375e-001 -7.504112e-001
    endloop
  endfacet
  facet normal -8.998141e-001  0.000000e+000  4.362735e-001
    outer loop
      vertex -4.973684e-001  6.058750e-017  5.601152e-001
      vertex -7.500000e-001  0.000000e+000  3.906250e-002
      vertex -4.973684e-001 -5.859375e-001  5.601152e-001
    endloop
  endfacet
  facet normal -8.998141e-001  0.000000e+000  4.362735e-001
    outer loop
      vertex -4.973684e-001 -5.859375e-001  5.601152e-001
      vertex -7.500000e-001  0.000000e+000  3.906250e-002
      vertex -7.500000e-001 -5.625000e-001  3.906250e-002
    endloop
  endfacet
  facet normal -8.998141e-001  1.190186e-006  4.362735e-001
    outer loop
      vertex -4.973684e-001 -5.859375e-001  5.601152e-001
      vertex -7.500000e-001 -5.625000e-001  3.906250e-002
      vertex -7.116431e-001 -5.859375e-001  1.181737e-001
    endloop
  endfacet
  facet normal -4.362736e-001  0.000000e+000 -8.998141e-001
    outer loop
      vertex -5.605263e-001 -1.249001e-017 -4.977796e-001
      vertex -3.947368e-002  2.958160e-017 -7.504112e-001
      vertex -5.605263e-001 -5.625000e-001 -4.977796e-001
    endloop
  endfacet
  facet normal -4.362736e-001  0.000000e+000 -8.998141e-001
    outer loop
      vertex -5.605263e-001 -5.625000e-001 -4.977796e-001
      vertex -3.947368e-002  2.958160e-017 -7.504112e-001
      vertex -3.947368e-002 -5.859375e-001 -7.504112e-001
    endloop
  endfacet
  facet normal -4.362736e-001  5.300180e-007 -8.998142e-001
    outer loop
      vertex -5.605263e-001 -5.625000e-001 -4.977796e-001
      vertex -3.947368e-002 -5.859375e-001 -7.504112e-001
      vertex -4.805645e-001 -5.859375e-001 -5.365490e-001
    endloop
  endfacet
  facet normal -9.429902e-001  0.000000e+000 -3.328201e-001
    outer loop
      vertex -7.500000e-001  0.000000e+000  3.906250e-002
      vertex -5.605263e-001 -1.249001e-017 -4.977796e-001
      vertex -7.500000e-001 -5.625000e-001  3.906250e-002
    endloop
  endfacet
  facet normal -9.429902e-001  0.000000e+000 -3.328201e-001
    outer loop
      vertex -7.500000e-001 -5.625000e-001  3.906250e-002
      vertex -5.605263e-001 -1.249001e-017 -4.977796e-001
      vertex -5.605263e-001 -5.625000e-001 -4.977796e-001
    endloop
  endfacet
  facet normal -3.311061e-001 -9.363291e-001 -1.168610e-001
    outer loop
      vertex -4.805645e-001 -5.859375e-001 -5.365490e-001
      vertex -7.116431e-001 -5.859375e-001  1.181737e-001
      vertex -5.605263e-001 -5.625000e-001 -4.977796e-001
    endloop
  endfacet
  facet normal -3.311062e-001 -9.363292e-001 -1.168610e-001
    outer loop
      vertex -5.605263e-001 -5.625000e-001 -4.977796e-001
      vertex -7.116431e-001 -5.859375e-001  1.181737e-001
      vertex -7.500000e-001 -5.625000e-001  3.906250e-002
    endloop
  endfacet
  facet normal -1.110223e-016  1.000000e+000 -6.245005e-017
    outer loop
      vertex  3.947368e-002  1.320216e-016  7.495888e-001
      vertex  5.605263e-001  1.740932e-016  4.969572e-001
      vertex -4.973684e-001  6.058750e-017  5.601152e-001
    endloop
  endfacet
  facet normal -1.110223e-016  1.000000e+000 -6.245003e-017
    outer loop
      vertex -3.947368e-002  2.958160e-017 -7.504112e-001
      vertex -5.605263e-001 -1.249001e-017 -4.977796e-001
      vertex  4.973684e-001  1.010157e-016 -5.609375e-001
    endloop
  endfacet
  facet normal -1.110223e-016  1.000000e+000 -6.245006e-017
    outer loop
      vertex  4.973684e-001  1.010157e-016 -5.609375e-001
      vertex -5.605263e-001 -1.249001e-017 -4.977796e-001
      vertex -7.500000e-001  0.000000e+000  3.906250e-002
    endloop
  endfacet
  facet normal -1.110223e-016  1.000000e+000 -6.245006e-017
    outer loop
      vertex  4.973684e-001  1.010157e-016 -5.609375e-001
      vertex -7.500000e-001  0.000000e+000  3.906250e-002
      vertex  7.500000e-001  1.616032e-016 -3.988487e-002
    endloop
  endfacet
  facet normal -1.110223e-016  1.000000e+000 -6.245005e-017
    outer loop
      vertex  7.500000e-001  1.616032e-016 -3.988487e-002
      vertex -7.500000e-001  0.000000e+000  3.906250e-002
      vertex -4.973684e-001  6.058750e-017  5.601152e-001
    endloop
  endfacet
  facet normal -1.110223e-016  1.000000e+000 -6.245005e-017
    outer loop
      vertex  7.500000e-001  1.616032e-016 -3.988487e-002
      vertex -4.973684e-001  6.058750e-017  5.601152e-001
      vertex  5.605263e-001  1.740932e-016  4.969572e-001
    endloop
  endfacet
  facet normal -3.328201e-001  0.000000e+000  9.429904e-001
    outer loop
      vertex  3.947368e-002  1.320216e-016  7.495888e-001
      vertex -4.973684e-001  6.058750e-017  5.601152e-001
      vertex  3.947368e-002 -5.859375e-001  7.495888e-001
    endloop
  endfacet
  facet normal -3.328200e-001  0.000000e+000  9.429904e-001
    outer loop
      vertex  3.947368e-002 -5.859375e-001  7.495888e-001
      vertex -4.973684e-001  6.058750e-017  5.601152e-001
      vertex -4.973684e-001 -5.859375e-001  5.601152e-001
    endloop
  endfacet
  facet normal  4.362735e-001  0.000000e+000  8.998141e-001
    outer loop
      vertex  5.605263e-001  1.740932e-016  4.969572e-001
      vertex  3.947368e-002  1.320216e-016  7.495888e-001
      vertex  5.605263e-001 -5.859375e-001  4.969572e-001
    endloop
  endfacet
  facet normal  4.362735e-001  0.000000e+000  8.998141e-001
    outer loop
      vertex  5.605263e-001 -5.859375e-001  4.969572e-001
      vertex  3.947368e-002  1.320216e-016  7.495888e-001
      vertex  3.947368e-002 -5.859375e-001  7.495888e-001
    endloop
  endfacet
  facet normal  9.429903e-001  0.000000e+000  3.328201e-001
    outer loop
      vertex  7.500000e-001  1.616032e-016 -3.988487e-002
      vertex  5.605263e-001  1.740932e-016  4.969572e-001
      vertex  7.500000e-001 -5.859375e-001 -3.988487e-002
    endloop
  endfacet
  facet normal  9.429903e-001  0.000000e+000  3.328201e-001
    outer loop
      vertex  7.500000e-001 -5.859375e-001 -3.988487e-002
      vertex  5.605263e-001  1.740932e-016  4.969572e-001
      vertex  5.605263e-001 -5.859375e-001  4.969572e-001
    endloop
  endfacet
  facet normal  8.998141e-001  0.000000e+000 -4.362735e-001
    outer loop
      vertex  4.973684e-001  1.010157e-016 -5.609375e-001
      vertex  7.500000e-001  1.616032e-016 -3.988487e-002
      vertex  4.973684e-001 -5.859375e-001 -5.609375e-001
    endloop
  endfacet
  facet normal  8.998141e-001  0.000000e+000 -4.362735e-001
    outer loop
      vertex  4.973684e-001 -5.859375e-001 -5.609375e-001
      vertex  7.500000e-001  1.616032e-016 -3.988487e-002
      vertex  7.500000e-001 -5.859375e-001 -3.988487e-002
    endloop
  endfacet
  facet normal  3.328201e-001  0.000000e+000 -9.429903e-001
    outer loop
      vertex -3.947368e-002  2.958160e-017 -7.504112e-001
      vertex  4.973684e-001  1.010157e-016 -5.609375e-001
      vertex -3.947368e-002 -5.859375e-001 -7.504112e-001
    endloop
  endfacet
  facet normal  3.328201e-001  0.000000e+000 -9.429903e-001
    outer loop
      vertex -3.947368e-002 -5.859375e-001 -7.504112e-001
      vertex  4.973684e-001  1.010157e-016 -5.609375e-001
      vertex  4.973684e-001 -5.859375e-001 -5.609375e-001
    endloop
  endfacet
endsolid CATIA STL
