solid CATIA STL
  facet normal  1.000000e+000  0.000000e+000  0.000000e+000
    outer loop
      vertex  2.031250e-001 -5.263158e-002  2.302632e-002
      vertex  2.031250e-001 -6.628289e-001 -4.302632e-001
      vertex  2.031250e-001  6.069079e-002  1.430921e-002
    endloop
  endfacet
  facet normal  9.999999e-001  0.000000e+000  -0.000000e+000
    outer loop
      vertex  2.031250e-001 -5.263158e-002  2.302632e-002
      vertex  2.031250e-001  6.069079e-002  1.430921e-002
      vertex  2.031250e-001  7.812500e-002  1.430921e-002
    endloop
  endfacet
  facet normal  1.000000e+000  0.000000e+000  -0.000000e+000
    outer loop
      vertex  2.031250e-001 -5.263158e-002  2.302632e-002
      vertex  2.031250e-001  7.812500e-002  1.430921e-002
      vertex  2.031250e-001  7.812500e-002  2.302632e-002
    endloop
  endfacet
  facet normal  1.000000e+000  -0.000000e+000  0.000000e+000
    outer loop
      vertex  2.031250e-001 -6.628289e-001 -4.302632e-001
      vertex  2.031250e-001 -7.500000e-001 -4.302632e-001
      vertex  2.031250e-001 -5.233552e-001 -5.000000e-001
    endloop
  endfacet
  facet normal  1.000000e+000  0.000000e+000  0.000000e+000
    outer loop
      vertex  2.031250e-001 -5.233552e-001 -5.000000e-001
      vertex  2.031250e-001 -7.500000e-001 -4.302632e-001
      vertex  2.031250e-001 -7.500000e-001 -4.921875e-001
    endloop
  endfacet
  facet normal  1.000000e+000  0.000000e+000  0.000000e+000
    outer loop
      vertex  2.031250e-001 -5.233552e-001 -5.000000e-001
      vertex  2.031250e-001 -7.500000e-001 -4.921875e-001
      vertex  2.031250e-001 -7.421875e-001 -5.000000e-001
    endloop
  endfacet
  facet normal  1.000000e+000  0.000000e+000  0.000000e+000
    outer loop
      vertex  2.031250e-001  6.069079e-002 -3.125000e-003
      vertex  2.031250e-001  6.069079e-002  1.430921e-002
      vertex  2.031250e-001 -5.233552e-001 -4.302632e-001
    endloop
  endfacet
  facet normal  9.999999e-001  0.000000e+000  -0.000000e+000
    outer loop
      vertex  2.031250e-001 -5.233552e-001 -4.302632e-001
      vertex  2.031250e-001  6.069079e-002  1.430921e-002
      vertex  2.031250e-001 -6.628289e-001 -4.302632e-001
    endloop
  endfacet
  facet normal  9.999999e-001  -0.000000e+000  0.000000e+000
    outer loop
      vertex  2.031250e-001 -5.233552e-001 -4.302632e-001
      vertex  2.031250e-001 -6.628289e-001 -4.302632e-001
      vertex  2.031250e-001 -5.233552e-001 -5.000000e-001
    endloop
  endfacet
  facet normal -1.000000e+000  -0.000000e+000 -5.551086e-017
    outer loop
      vertex -2.903379e-017 -5.263158e-002  2.302632e-002
      vertex -2.903379e-017  7.812500e-002  2.302632e-002
      vertex -2.854990e-017  7.812500e-002  1.430921e-002
    endloop
  endfacet
  facet normal -9.999999e-001  -0.000000e+000 -5.551086e-017
    outer loop
      vertex -2.903379e-017 -5.263158e-002  2.302632e-002
      vertex -2.854990e-017  7.812500e-002  1.430921e-002
      vertex -2.854990e-017  6.069079e-002  1.430921e-002
    endloop
  endfacet
  facet normal -1.000000e+000 -1.971610e-023 -5.551112e-017
    outer loop
      vertex -2.903379e-017 -5.263158e-002  2.302632e-002
      vertex -2.854990e-017  6.069079e-002  1.430921e-002
      vertex -3.871173e-018 -6.628289e-001 -4.302632e-001
    endloop
  endfacet
  facet normal -1.000000e+000  0.000000e+000 -5.551115e-017
    outer loop
      vertex  2.655530e-035 -7.421875e-001 -5.000000e-001
      vertex -4.336809e-019 -7.500000e-001 -4.921875e-001
      vertex  7.703831e-034 -5.233552e-001 -5.000000e-001
    endloop
  endfacet
  facet normal -1.000000e+000 -2.302255e-025 -5.551116e-017
    outer loop
      vertex  7.703831e-034 -5.233552e-001 -5.000000e-001
      vertex -4.336809e-019 -7.500000e-001 -4.921875e-001
      vertex -3.871173e-018 -7.500000e-001 -4.302632e-001
    endloop
  endfacet
  facet normal -1.000000e+000  0.000000e+000 -5.551116e-017
    outer loop
      vertex  7.703831e-034 -5.233552e-001 -5.000000e-001
      vertex -3.871173e-018 -7.500000e-001 -4.302632e-001
      vertex -3.871173e-018 -6.628289e-001 -4.302632e-001
    endloop
  endfacet
  facet normal -9.999999e-001  0.000000e+000 -5.551116e-017
    outer loop
      vertex  7.703831e-034 -5.233552e-001 -5.000000e-001
      vertex -3.871173e-018 -6.628289e-001 -4.302632e-001
      vertex -3.871173e-018 -5.233552e-001 -4.302632e-001
    endloop
  endfacet
  facet normal -9.999999e-001  -0.000000e+000 -5.551115e-017
    outer loop
      vertex -3.871173e-018 -5.233552e-001 -4.302632e-001
      vertex -3.871173e-018 -6.628289e-001 -4.302632e-001
      vertex -2.854990e-017  6.069079e-002  1.430921e-002
    endloop
  endfacet
  facet normal -1.000000e+000  6.488395e-023 -5.551124e-017
    outer loop
      vertex -3.871173e-018 -5.233552e-001 -4.302632e-001
      vertex -2.854990e-017  6.069079e-002  1.430921e-002
      vertex -2.758210e-017  6.069079e-002 -3.125000e-003
    endloop
  endfacet
  facet normal  0.000000e+000 -1.000000e+000  0.000000e+000
    outer loop
      vertex -3.871173e-018 -7.500000e-001 -4.302632e-001
      vertex -4.336809e-019 -7.500000e-001 -4.921875e-001
      vertex  2.031250e-001 -7.500000e-001 -4.302632e-001
    endloop
  endfacet
  facet normal  0.000000e+000 -1.000000e+000  -0.000000e+000
    outer loop
      vertex  2.031250e-001 -7.500000e-001 -4.302632e-001
      vertex -4.336809e-019 -7.500000e-001 -4.921875e-001
      vertex  2.031250e-001 -7.500000e-001 -4.921875e-001
    endloop
  endfacet
  facet normal  0.000000e+000  0.000000e+000 -1.000000e+000
    outer loop
      vertex  2.031250e-001 -7.421875e-001 -5.000000e-001
      vertex  2.655530e-035 -7.421875e-001 -5.000000e-001
      vertex  2.031250e-001 -5.233552e-001 -5.000000e-001
    endloop
  endfacet
  facet normal  -0.000000e+000  0.000000e+000 -1.000000e+000
    outer loop
      vertex  2.031250e-001 -5.233552e-001 -5.000000e-001
      vertex  2.655530e-035 -7.421875e-001 -5.000000e-001
      vertex  7.703831e-034 -5.233552e-001 -5.000000e-001
    endloop
  endfacet
  facet normal  0.000000e+000 -7.071067e-001 -7.071067e-001
    outer loop
      vertex -4.336809e-019 -7.500000e-001 -4.921875e-001
      vertex  2.655530e-035 -7.421875e-001 -5.000000e-001
      vertex  2.031250e-001 -7.500000e-001 -4.921875e-001
    endloop
  endfacet
  facet normal  0.000000e+000 -7.071067e-001 -7.071067e-001
    outer loop
      vertex  2.031250e-001 -7.500000e-001 -4.921875e-001
      vertex  2.655530e-035 -7.421875e-001 -5.000000e-001
      vertex  2.031250e-001 -7.421875e-001 -5.000000e-001
    endloop
  endfacet
  facet normal  0.000000e+000  0.000000e+000  1.000000e+000
    outer loop
      vertex -3.871173e-018 -6.628289e-001 -4.302632e-001
      vertex -3.871173e-018 -7.500000e-001 -4.302632e-001
      vertex  2.031250e-001 -6.628289e-001 -4.302632e-001
    endloop
  endfacet
  facet normal  0.000000e+000  0.000000e+000  1.000000e+000
    outer loop
      vertex  2.031250e-001 -6.628289e-001 -4.302632e-001
      vertex -3.871173e-018 -7.500000e-001 -4.302632e-001
      vertex  2.031250e-001 -7.500000e-001 -4.302632e-001
    endloop
  endfacet
  facet normal  0.000000e+000 -5.963240e-001  8.027439e-001
    outer loop
      vertex  2.031250e-001 -5.263158e-002  2.302632e-002
      vertex -2.903379e-017 -5.263158e-002  2.302632e-002
      vertex  2.031250e-001 -6.628289e-001 -4.302632e-001
    endloop
  endfacet
  facet normal  0.000000e+000 -5.963240e-001  8.027439e-001
    outer loop
      vertex  2.031250e-001 -6.628289e-001 -4.302632e-001
      vertex -2.903379e-017 -5.263158e-002  2.302632e-002
      vertex -3.871173e-018 -6.628289e-001 -4.302632e-001
    endloop
  endfacet
  facet normal  0.000000e+000  0.000000e+000  1.000000e+000
    outer loop
      vertex -2.903379e-017  7.812500e-002  2.302632e-002
      vertex -2.903379e-017 -5.263158e-002  2.302632e-002
      vertex  2.031250e-001  7.812500e-002  2.302632e-002
    endloop
  endfacet
  facet normal  0.000000e+000  0.000000e+000  1.000000e+000
    outer loop
      vertex  2.031250e-001  7.812500e-002  2.302632e-002
      vertex -2.903379e-017 -5.263158e-002  2.302632e-002
      vertex  2.031250e-001 -5.263158e-002  2.302632e-002
    endloop
  endfacet
  facet normal  0.000000e+000  1.000000e+000  0.000000e+000
    outer loop
      vertex -2.854990e-017  7.812500e-002  1.430921e-002
      vertex -2.903379e-017  7.812500e-002  2.302632e-002
      vertex  2.031250e-001  7.812500e-002  1.430921e-002
    endloop
  endfacet
  facet normal  0.000000e+000  1.000000e+000  -0.000000e+000
    outer loop
      vertex  2.031250e-001  7.812500e-002  1.430921e-002
      vertex -2.903379e-017  7.812500e-002  2.302632e-002
      vertex  2.031250e-001  7.812500e-002  2.302632e-002
    endloop
  endfacet
  facet normal  0.000000e+000  0.000000e+000 -1.000000e+000
    outer loop
      vertex -2.854990e-017  6.069079e-002  1.430921e-002
      vertex -2.854990e-017  7.812500e-002  1.430921e-002
      vertex  2.031250e-001  6.069079e-002  1.430921e-002
    endloop
  endfacet
  facet normal  0.000000e+000  0.000000e+000 -1.000000e+000
    outer loop
      vertex  2.031250e-001  6.069079e-002  1.430921e-002
      vertex -2.854990e-017  7.812500e-002  1.430921e-002
      vertex  2.031250e-001  7.812500e-002  1.430921e-002
    endloop
  endfacet
  facet normal  0.000000e+000  1.000000e+000  0.000000e+000
    outer loop
      vertex -2.758210e-017  6.069079e-002 -3.125000e-003
      vertex -2.854990e-017  6.069079e-002  1.430921e-002
      vertex  2.031250e-001  6.069079e-002 -3.125000e-003
    endloop
  endfacet
  facet normal  0.000000e+000  1.000000e+000  -0.000000e+000
    outer loop
      vertex  2.031250e-001  6.069079e-002 -3.125000e-003
      vertex -2.854990e-017  6.069079e-002  1.430921e-002
      vertex  2.031250e-001  6.069079e-002  1.430921e-002
    endloop
  endfacet
  facet normal  0.000000e+000  5.903186e-001 -8.071703e-001
    outer loop
      vertex  2.031250e-001 -5.233552e-001 -4.302632e-001
      vertex -3.871173e-018 -5.233552e-001 -4.302632e-001
      vertex  2.031250e-001  6.069079e-002 -3.125000e-003
    endloop
  endfacet
  facet normal  0.000000e+000  5.903186e-001 -8.071703e-001
    outer loop
      vertex  2.031250e-001  6.069079e-002 -3.125000e-003
      vertex -3.871173e-018 -5.233552e-001 -4.302632e-001
      vertex -2.758210e-017  6.069079e-002 -3.125000e-003
    endloop
  endfacet
  facet normal  0.000000e+000  1.000000e+000  0.000000e+000
    outer loop
      vertex  7.703831e-034 -5.233552e-001 -5.000000e-001
      vertex -3.871173e-018 -5.233552e-001 -4.302632e-001
      vertex  2.031250e-001 -5.233552e-001 -5.000000e-001
    endloop
  endfacet
  facet normal  0.000000e+000  1.000000e+000  -0.000000e+000
    outer loop
      vertex  2.031250e-001 -5.233552e-001 -5.000000e-001
      vertex -3.871173e-018 -5.233552e-001 -4.302632e-001
      vertex  2.031250e-001 -5.233552e-001 -4.302632e-001
    endloop
  endfacet
endsolid CATIA STL
