solid CATIA STL
  facet normal  -0.000000e+000 -1.000000e+000  0.000000e+000
    outer loop
      vertex  4.375000e-001 -7.500000e-001 -4.531250e-001
      vertex  4.405483e-001 -7.500000e-001 -4.528248e-001
      vertex  4.434794e-001 -7.500000e-001 -4.519356e-001
    endloop
  endfacet
  facet normal  0.000000e+000 -1.000000e+000  0.000000e+000
    outer loop
      vertex -4.609375e-001 -7.500000e-001  4.609375e-001
      vertex -4.609375e-001 -7.500000e-001 -4.531250e-001
      vertex  4.519356e-001 -7.500000e-001 -4.434794e-001
    endloop
  endfacet
  facet normal  0.000000e+000 -1.000000e+000  0.000000e+000
    outer loop
      vertex -4.609375e-001 -7.500000e-001  4.609375e-001
      vertex  4.519356e-001 -7.500000e-001 -4.434794e-001
      vertex  4.528248e-001 -7.500000e-001 -4.405483e-001
    endloop
  endfacet
  facet normal  0.000000e+000 -9.999999e-001  0.000000e+000
    outer loop
      vertex -4.609375e-001 -7.500000e-001  4.609375e-001
      vertex  4.528248e-001 -7.500000e-001 -4.405483e-001
      vertex  4.531250e-001 -7.500000e-001 -4.375000e-001
    endloop
  endfacet
  facet normal  0.000000e+000 -1.000000e+000  0.000000e+000
    outer loop
      vertex -4.609375e-001 -7.500000e-001  4.609375e-001
      vertex  4.531250e-001 -7.500000e-001 -4.375000e-001
      vertex  4.531250e-001 -7.500000e-001  4.513158e-001
    endloop
  endfacet
  facet normal  0.000000e+000 -1.000000e+000  0.000000e+000
    outer loop
      vertex -4.609375e-001 -7.500000e-001 -4.531250e-001
      vertex  4.375000e-001 -7.500000e-001 -4.531250e-001
      vertex  4.434794e-001 -7.500000e-001 -4.519356e-001
    endloop
  endfacet
  facet normal  -0.000000e+000 -9.999999e-001  0.000000e+000
    outer loop
      vertex -4.609375e-001 -7.500000e-001 -4.531250e-001
      vertex  4.434794e-001 -7.500000e-001 -4.519356e-001
      vertex  4.461808e-001 -7.500000e-001 -4.504917e-001
    endloop
  endfacet
  facet normal  -0.000000e+000 -1.000000e+000  0.000000e+000
    outer loop
      vertex -4.609375e-001 -7.500000e-001 -4.531250e-001
      vertex  4.461808e-001 -7.500000e-001 -4.504917e-001
      vertex  4.485486e-001 -7.500000e-001 -4.485486e-001
    endloop
  endfacet
  facet normal  -0.000000e+000 -1.000000e+000  0.000000e+000
    outer loop
      vertex -4.609375e-001 -7.500000e-001 -4.531250e-001
      vertex  4.485486e-001 -7.500000e-001 -4.485486e-001
      vertex  4.504917e-001 -7.500000e-001 -4.461808e-001
    endloop
  endfacet
  facet normal  -0.000000e+000 -1.000000e+000  0.000000e+000
    outer loop
      vertex -4.609375e-001 -7.500000e-001 -4.531250e-001
      vertex  4.504917e-001 -7.500000e-001 -4.461808e-001
      vertex  4.519356e-001 -7.500000e-001 -4.434794e-001
    endloop
  endfacet
  facet normal -5.551088e-017  1.000000e+000 -5.551390e-017
    outer loop
      vertex  4.434794e-001  5.027125e-017 -4.519356e-001
      vertex  4.405483e-001  5.005918e-017 -4.528248e-001
      vertex  4.375000e-001  4.987330e-017 -4.531250e-001
    endloop
  endfacet
  facet normal -5.551115e-017  1.000000e+000 -5.551115e-017
    outer loop
      vertex -4.609375e-001  5.074066e-017  4.609375e-001
      vertex  4.531250e-001  1.009472e-016  4.513158e-001
      vertex  4.531250e-001  5.160802e-017 -4.375000e-001
    endloop
  endfacet
  facet normal -5.551115e-017  9.999999e-001 -5.551115e-017
    outer loop
      vertex -4.609375e-001  5.074066e-017  4.609375e-001
      vertex  4.531250e-001  5.160802e-017 -4.375000e-001
      vertex  4.528248e-001  5.142214e-017 -4.405483e-001
    endloop
  endfacet
  facet normal -5.551158e-017  1.000000e+000 -5.551159e-017
    outer loop
      vertex -4.609375e-001  5.074066e-017  4.609375e-001
      vertex  4.528248e-001  5.142214e-017 -4.405483e-001
      vertex  4.519356e-001  5.121007e-017 -4.434794e-001
    endloop
  endfacet
  facet normal -5.551115e-017  1.000000e+000 -5.551115e-017
    outer loop
      vertex -4.609375e-001  5.074066e-017  4.609375e-001
      vertex  4.519356e-001  5.121007e-017 -4.434794e-001
      vertex -4.609375e-001  0.000000e+000 -4.531250e-001
    endloop
  endfacet
  facet normal -5.551114e-017  1.000000e+000 -5.551115e-017
    outer loop
      vertex -4.609375e-001  0.000000e+000 -4.531250e-001
      vertex  4.519356e-001  5.121007e-017 -4.434794e-001
      vertex  4.504917e-001  5.097997e-017 -4.461808e-001
    endloop
  endfacet
  facet normal -5.551115e-017  1.000000e+000 -5.551045e-017
    outer loop
      vertex -4.609375e-001  0.000000e+000 -4.531250e-001
      vertex  4.504917e-001  5.097997e-017 -4.461808e-001
      vertex  4.485486e-001  5.074066e-017 -4.485486e-001
    endloop
  endfacet
  facet normal -5.551116e-017  1.000000e+000 -5.551030e-017
    outer loop
      vertex -4.609375e-001  0.000000e+000 -4.531250e-001
      vertex  4.485486e-001  5.074066e-017 -4.485486e-001
      vertex  4.461808e-001  5.050136e-017 -4.504917e-001
    endloop
  endfacet
  facet normal -5.551115e-017  1.000000e+000 -5.551115e-017
    outer loop
      vertex -4.609375e-001  0.000000e+000 -4.531250e-001
      vertex  4.461808e-001  5.050136e-017 -4.504917e-001
      vertex  4.434794e-001  5.027125e-017 -4.519356e-001
    endloop
  endfacet
  facet normal -5.551115e-017  1.000000e+000 -5.551254e-017
    outer loop
      vertex -4.609375e-001  0.000000e+000 -4.531250e-001
      vertex  4.434794e-001  5.027125e-017 -4.519356e-001
      vertex  4.375000e-001  4.987330e-017 -4.531250e-001
    endloop
  endfacet
  facet normal  1.000000e+000  0.000000e+000  0.000000e+000
    outer loop
      vertex  4.531250e-001 -7.500000e-001 -4.375000e-001
      vertex  4.531250e-001  5.160802e-017 -4.375000e-001
      vertex  4.531250e-001 -7.500000e-001  4.513158e-001
    endloop
  endfacet
  facet normal  1.000000e+000  -0.000000e+000  0.000000e+000
    outer loop
      vertex  4.531250e-001 -7.500000e-001  4.513158e-001
      vertex  4.531250e-001  5.160802e-017 -4.375000e-001
      vertex  4.531250e-001  1.009472e-016  4.513158e-001
    endloop
  endfacet
  facet normal  0.000000e+000  0.000000e+000 -1.000000e+000
    outer loop
      vertex -4.609375e-001 -7.500000e-001 -4.531250e-001
      vertex -4.609375e-001  0.000000e+000 -4.531250e-001
      vertex  4.375000e-001 -7.500000e-001 -4.531250e-001
    endloop
  endfacet
  facet normal  0.000000e+000  0.000000e+000 -1.000000e+000
    outer loop
      vertex  4.375000e-001 -7.500000e-001 -4.531250e-001
      vertex -4.609375e-001  0.000000e+000 -4.531250e-001
      vertex  4.375000e-001  4.987330e-017 -4.531250e-001
    endloop
  endfacet
  facet normal  9.951848e-001  0.000000e+000 -9.801622e-002
    outer loop
      vertex  4.531250e-001  5.160802e-017 -4.375000e-001
      vertex  4.531250e-001 -7.500000e-001 -4.375000e-001
      vertex  4.528248e-001  5.142214e-017 -4.405483e-001
    endloop
  endfacet
  facet normal  9.951848e-001  0.000000e+000 -9.801622e-002
    outer loop
      vertex  4.528248e-001  5.142214e-017 -4.405483e-001
      vertex  4.531250e-001 -7.500000e-001 -4.375000e-001
      vertex  4.528248e-001 -7.500000e-001 -4.405483e-001
    endloop
  endfacet
  facet normal  9.569396e-001  0.000000e+000 -2.902869e-001
    outer loop
      vertex  4.528248e-001  5.142214e-017 -4.405483e-001
      vertex  4.528248e-001 -7.500000e-001 -4.405483e-001
      vertex  4.519356e-001  5.121007e-017 -4.434794e-001
    endloop
  endfacet
  facet normal  9.569396e-001  0.000000e+000 -2.902869e-001
    outer loop
      vertex  4.519356e-001  5.121007e-017 -4.434794e-001
      vertex  4.528248e-001 -7.500000e-001 -4.405483e-001
      vertex  4.519356e-001 -7.500000e-001 -4.434794e-001
    endloop
  endfacet
  facet normal  8.819240e-001  0.000000e+000 -4.713915e-001
    outer loop
      vertex  4.519356e-001  5.121007e-017 -4.434794e-001
      vertex  4.519356e-001 -7.500000e-001 -4.434794e-001
      vertex  4.504917e-001  5.097997e-017 -4.461808e-001
    endloop
  endfacet
  facet normal  8.819240e-001  0.000000e+000 -4.713915e-001
    outer loop
      vertex  4.504917e-001  5.097997e-017 -4.461808e-001
      vertex  4.519356e-001 -7.500000e-001 -4.434794e-001
      vertex  4.504917e-001 -7.500000e-001 -4.461808e-001
    endloop
  endfacet
  facet normal  7.730109e-001  0.000000e+000 -6.343926e-001
    outer loop
      vertex  4.504917e-001  5.097997e-017 -4.461808e-001
      vertex  4.504917e-001 -7.500000e-001 -4.461808e-001
      vertex  4.485486e-001  5.074066e-017 -4.485486e-001
    endloop
  endfacet
  facet normal  7.730109e-001  0.000000e+000 -6.343926e-001
    outer loop
      vertex  4.485486e-001  5.074066e-017 -4.485486e-001
      vertex  4.504917e-001 -7.500000e-001 -4.461808e-001
      vertex  4.485486e-001 -7.500000e-001 -4.485486e-001
    endloop
  endfacet
  facet normal  6.343926e-001  0.000000e+000 -7.730109e-001
    outer loop
      vertex  4.485486e-001  5.074066e-017 -4.485486e-001
      vertex  4.485486e-001 -7.500000e-001 -4.485486e-001
      vertex  4.461808e-001  5.050136e-017 -4.504917e-001
    endloop
  endfacet
  facet normal  6.343926e-001  0.000000e+000 -7.730109e-001
    outer loop
      vertex  4.461808e-001  5.050136e-017 -4.504917e-001
      vertex  4.485486e-001 -7.500000e-001 -4.485486e-001
      vertex  4.461808e-001 -7.500000e-001 -4.504917e-001
    endloop
  endfacet
  facet normal  4.713915e-001  0.000000e+000 -8.819240e-001
    outer loop
      vertex  4.461808e-001  5.050136e-017 -4.504917e-001
      vertex  4.461808e-001 -7.500000e-001 -4.504917e-001
      vertex  4.434794e-001  5.027125e-017 -4.519356e-001
    endloop
  endfacet
  facet normal  4.713915e-001  0.000000e+000 -8.819240e-001
    outer loop
      vertex  4.434794e-001  5.027125e-017 -4.519356e-001
      vertex  4.461808e-001 -7.500000e-001 -4.504917e-001
      vertex  4.434794e-001 -7.500000e-001 -4.519356e-001
    endloop
  endfacet
  facet normal  2.902869e-001  0.000000e+000 -9.569396e-001
    outer loop
      vertex  4.434794e-001  5.027125e-017 -4.519356e-001
      vertex  4.434794e-001 -7.500000e-001 -4.519356e-001
      vertex  4.405483e-001  5.005918e-017 -4.528248e-001
    endloop
  endfacet
  facet normal  2.902869e-001  0.000000e+000 -9.569396e-001
    outer loop
      vertex  4.405483e-001  5.005918e-017 -4.528248e-001
      vertex  4.434794e-001 -7.500000e-001 -4.519356e-001
      vertex  4.405483e-001 -7.500000e-001 -4.528248e-001
    endloop
  endfacet
  facet normal  9.801622e-002  0.000000e+000 -9.951848e-001
    outer loop
      vertex  4.405483e-001  5.005918e-017 -4.528248e-001
      vertex  4.405483e-001 -7.500000e-001 -4.528248e-001
      vertex  4.375000e-001  4.987330e-017 -4.531250e-001
    endloop
  endfacet
  facet normal  9.801622e-002  0.000000e+000 -9.951848e-001
    outer loop
      vertex  4.375000e-001  4.987330e-017 -4.531250e-001
      vertex  4.405483e-001 -7.500000e-001 -4.528248e-001
      vertex  4.375000e-001 -7.500000e-001 -4.531250e-001
    endloop
  endfacet
  facet normal -1.000000e+000  -0.000000e+000  0.000000e+000
    outer loop
      vertex -4.609375e-001 -7.500000e-001  4.609375e-001
      vertex -4.609375e-001  5.074066e-017  4.609375e-001
      vertex -4.609375e-001 -7.500000e-001 -4.531250e-001
    endloop
  endfacet
  facet normal -1.000000e+000  0.000000e+000  0.000000e+000
    outer loop
      vertex -4.609375e-001 -7.500000e-001 -4.531250e-001
      vertex -4.609375e-001  5.074066e-017  4.609375e-001
      vertex -4.609375e-001  0.000000e+000 -4.531250e-001
    endloop
  endfacet
  facet normal  1.052573e-002  0.000000e+000  9.999446e-001
    outer loop
      vertex  4.531250e-001 -7.500000e-001  4.513158e-001
      vertex  4.531250e-001  1.009472e-016  4.513158e-001
      vertex -4.609375e-001 -7.500000e-001  4.609375e-001
    endloop
  endfacet
  facet normal  1.052573e-002  -0.000000e+000  9.999446e-001
    outer loop
      vertex -4.609375e-001 -7.500000e-001  4.609375e-001
      vertex  4.531250e-001  1.009472e-016  4.513158e-001
      vertex -4.609375e-001  5.074066e-017  4.609375e-001
    endloop
  endfacet
endsolid CATIA STL
