solid CATIA STL
  facet normal -1.000000e+000  0.000000e+000  -0.000000e+000
    outer loop
      vertex -5.937500e-001 -8.437500e-001 -5.937500e-001
      vertex -5.937500e-001 -6.484375e-001 -3.984375e-001
      vertex -5.937500e-001  9.375000e-002 -5.937500e-001
    endloop
  endfacet
  facet normal -1.000000e+000  0.000000e+000  0.000000e+000
    outer loop
      vertex -5.937500e-001  9.375000e-002 -5.937500e-001
      vertex -5.937500e-001 -6.484375e-001 -3.984375e-001
      vertex -5.937500e-001 -1.015625e-001 -3.984375e-001
    endloop
  endfacet
  facet normal -9.999999e-001  0.000000e+000  0.000000e+000
    outer loop
      vertex -5.937500e-001  9.375000e-002 -5.937500e-001
      vertex -5.937500e-001 -1.015625e-001 -3.984375e-001
      vertex -5.937500e-001  9.375000e-002  5.937500e-001
    endloop
  endfacet
  facet normal -1.000000e+000  0.000000e+000  0.000000e+000
    outer loop
      vertex -5.937500e-001  9.375000e-002  5.937500e-001
      vertex -5.937500e-001 -1.015625e-001 -3.984375e-001
      vertex -5.937500e-001 -1.015625e-001  3.984375e-001
    endloop
  endfacet
  facet normal -1.000000e+000  0.000000e+000  0.000000e+000
    outer loop
      vertex -5.937500e-001  9.375000e-002  5.937500e-001
      vertex -5.937500e-001 -1.015625e-001  3.984375e-001
      vertex -5.937500e-001 -8.437500e-001  5.937500e-001
    endloop
  endfacet
  facet normal -1.000000e+000  0.000000e+000  0.000000e+000
    outer loop
      vertex -5.937500e-001 -8.437500e-001  5.937500e-001
      vertex -5.937500e-001 -1.015625e-001  3.984375e-001
      vertex -5.937500e-001 -6.484375e-001  3.984375e-001
    endloop
  endfacet
  facet normal -9.999999e-001  -0.000000e+000  0.000000e+000
    outer loop
      vertex -5.937500e-001 -8.437500e-001  5.937500e-001
      vertex -5.937500e-001 -6.484375e-001  3.984375e-001
      vertex -5.937500e-001 -8.437500e-001 -5.937500e-001
    endloop
  endfacet
  facet normal -1.000000e+000  0.000000e+000  0.000000e+000
    outer loop
      vertex -5.937500e-001 -8.437500e-001 -5.937500e-001
      vertex -5.937500e-001 -6.484375e-001  3.984375e-001
      vertex -5.937500e-001 -6.484375e-001 -3.984375e-001
    endloop
  endfacet
  facet normal  0.000000e+000  0.000000e+000  1.000000e+000
    outer loop
      vertex -5.937500e-001 -6.484375e-001 -3.984375e-001
      vertex  4.921875e-001 -6.484375e-001 -3.984375e-001
      vertex -5.937500e-001 -1.015625e-001 -3.984375e-001
    endloop
  endfacet
  facet normal  -0.000000e+000  0.000000e+000  1.000000e+000
    outer loop
      vertex -5.937500e-001 -1.015625e-001 -3.984375e-001
      vertex  4.921875e-001 -6.484375e-001 -3.984375e-001
      vertex  4.921875e-001 -1.015625e-001 -3.984375e-001
    endloop
  endfacet
  facet normal  0.000000e+000  0.000000e+000 -1.000000e+000
    outer loop
      vertex  4.921875e-001 -6.484375e-001  3.984375e-001
      vertex -5.937500e-001 -6.484375e-001  3.984375e-001
      vertex  4.921875e-001 -1.015625e-001  3.984375e-001
    endloop
  endfacet
  facet normal  -0.000000e+000  0.000000e+000 -1.000000e+000
    outer loop
      vertex  4.921875e-001 -1.015625e-001  3.984375e-001
      vertex -5.937500e-001 -6.484375e-001  3.984375e-001
      vertex -5.937500e-001 -1.015625e-001  3.984375e-001
    endloop
  endfacet
  facet normal  0.000000e+000 -1.000000e+000  0.000000e+000
    outer loop
      vertex -5.937500e-001 -1.015625e-001  3.984375e-001
      vertex -5.937500e-001 -1.015625e-001 -3.984375e-001
      vertex  4.921875e-001 -1.015625e-001  3.984375e-001
    endloop
  endfacet
  facet normal  0.000000e+000 -1.000000e+000  -0.000000e+000
    outer loop
      vertex  4.921875e-001 -1.015625e-001  3.984375e-001
      vertex -5.937500e-001 -1.015625e-001 -3.984375e-001
      vertex  4.921875e-001 -1.015625e-001 -3.984375e-001
    endloop
  endfacet
  facet normal  0.000000e+000  1.000000e+000  0.000000e+000
    outer loop
      vertex -5.937500e-001 -6.484375e-001  3.984375e-001
      vertex  4.921875e-001 -6.484375e-001  3.984375e-001
      vertex -5.937500e-001 -6.484375e-001 -3.984375e-001
    endloop
  endfacet
  facet normal  0.000000e+000  1.000000e+000  0.000000e+000
    outer loop
      vertex -5.937500e-001 -6.484375e-001 -3.984375e-001
      vertex  4.921875e-001 -6.484375e-001  3.984375e-001
      vertex  4.921875e-001 -6.484375e-001 -3.984375e-001
    endloop
  endfacet
  facet normal  0.000000e+000  0.000000e+000 -1.000000e+000
    outer loop
      vertex -5.937500e-001 -8.437500e-001 -5.937500e-001
      vertex -5.937500e-001  9.375000e-002 -5.937500e-001
      vertex  6.875000e-001 -8.437500e-001 -5.937500e-001
    endloop
  endfacet
  facet normal  0.000000e+000  0.000000e+000 -1.000000e+000
    outer loop
      vertex  6.875000e-001 -8.437500e-001 -5.937500e-001
      vertex -5.937500e-001  9.375000e-002 -5.937500e-001
      vertex  6.875000e-001  9.375000e-002 -5.937500e-001
    endloop
  endfacet
  facet normal  1.000000e+000  0.000000e+000  0.000000e+000
    outer loop
      vertex  6.875000e-001 -8.437500e-001 -5.937500e-001
      vertex  6.875000e-001  9.375000e-002 -5.937500e-001
      vertex  6.875000e-001 -8.437500e-001  5.937500e-001
    endloop
  endfacet
  facet normal  1.000000e+000  -0.000000e+000  0.000000e+000
    outer loop
      vertex  6.875000e-001 -8.437500e-001  5.937500e-001
      vertex  6.875000e-001  9.375000e-002 -5.937500e-001
      vertex  6.875000e-001  9.375000e-002  5.937500e-001
    endloop
  endfacet
  facet normal  0.000000e+000  0.000000e+000  1.000000e+000
    outer loop
      vertex  6.875000e-001 -8.437500e-001  5.937500e-001
      vertex  6.875000e-001  9.375000e-002  5.937500e-001
      vertex -5.937500e-001 -8.437500e-001  5.937500e-001
    endloop
  endfacet
  facet normal  0.000000e+000  0.000000e+000  1.000000e+000
    outer loop
      vertex -5.937500e-001 -8.437500e-001  5.937500e-001
      vertex  6.875000e-001  9.375000e-002  5.937500e-001
      vertex -5.937500e-001  9.375000e-002  5.937500e-001
    endloop
  endfacet
  facet normal  0.000000e+000  1.000000e+000  0.000000e+000
    outer loop
      vertex -5.937500e-001  9.375000e-002  5.937500e-001
      vertex  6.875000e-001  9.375000e-002  5.937500e-001
      vertex -5.937500e-001  9.375000e-002 -5.937500e-001
    endloop
  endfacet
  facet normal  0.000000e+000  1.000000e+000  0.000000e+000
    outer loop
      vertex -5.937500e-001  9.375000e-002 -5.937500e-001
      vertex  6.875000e-001  9.375000e-002  5.937500e-001
      vertex  6.875000e-001  9.375000e-002 -5.937500e-001
    endloop
  endfacet
  facet normal  0.000000e+000 -1.000000e+000  0.000000e+000
    outer loop
      vertex -5.937500e-001 -8.437500e-001  5.937500e-001
      vertex -5.937500e-001 -8.437500e-001 -5.937500e-001
      vertex  6.875000e-001 -8.437500e-001  5.937500e-001
    endloop
  endfacet
  facet normal  0.000000e+000 -1.000000e+000  -0.000000e+000
    outer loop
      vertex  6.875000e-001 -8.437500e-001  5.937500e-001
      vertex -5.937500e-001 -8.437500e-001 -5.937500e-001
      vertex  6.875000e-001 -8.437500e-001 -5.937500e-001
    endloop
  endfacet
  facet normal -1.000000e+000  0.000000e+000  0.000000e+000
    outer loop
      vertex  4.921875e-001 -6.484375e-001 -3.984375e-001
      vertex  4.921875e-001 -6.484375e-001  3.984375e-001
      vertex  4.921875e-001 -1.015625e-001 -3.984375e-001
    endloop
  endfacet
  facet normal -1.000000e+000  0.000000e+000  0.000000e+000
    outer loop
      vertex  4.921875e-001 -1.015625e-001 -3.984375e-001
      vertex  4.921875e-001 -6.484375e-001  3.984375e-001
      vertex  4.921875e-001 -1.015625e-001  3.984375e-001
    endloop
  endfacet
endsolid CATIA STL
