solid CATIA STL
  facet normal  0.000000e+000  0.000000e+000  9.999999e-001
    outer loop
      vertex -2.133953e-002  1.167909e-001  7.500000e-001
      vertex  2.512274e-002  1.167909e-001  7.500000e-001
      vertex  1.891608e-003  1.190789e-001  7.500000e-001
    endloop
  endfacet
  facet normal  0.000000e+000  0.000000e+000  1.000000e+000
    outer loop
      vertex  2.512274e-002  1.167909e-001  7.500000e-001
      vertex -2.133953e-002  1.167909e-001  7.500000e-001
      vertex -4.367791e-002  1.100147e-001  7.500000e-001
    endloop
  endfacet
  facet normal  -0.000000e+000  0.000000e+000  1.000000e+000
    outer loop
      vertex  2.512274e-002  1.167909e-001  7.500000e-001
      vertex -4.367791e-002  1.100147e-001  7.500000e-001
      vertex  4.746110e-002  1.100146e-001  7.500000e-001
    endloop
  endfacet
  facet normal  0.000000e+000  0.000000e+000  1.000000e+000
    outer loop
      vertex  4.746110e-002  1.100146e-001  7.500000e-001
      vertex -4.367791e-002  1.100147e-001  7.500000e-001
      vertex -6.426509e-002  9.901065e-002  7.500000e-001
    endloop
  endfacet
  facet normal  -0.000000e+000  0.000000e+000  1.000000e+000
    outer loop
      vertex  4.746110e-002  1.100146e-001  7.500000e-001
      vertex -6.426509e-002  9.901065e-002  7.500000e-001
      vertex  6.804825e-002  9.901047e-002  7.500000e-001
    endloop
  endfacet
  facet normal  -0.000000e+000  0.000000e+000  1.000000e+000
    outer loop
      vertex  7.365243e-002 -9.502714e-002  7.500000e-001
      vertex -5.118689e-002 -1.065950e-001  7.500000e-001
      vertex  5.496934e-002 -1.065952e-001  7.500000e-001
    endloop
  endfacet
  facet normal  0.000000e+000  0.000000e+000  1.000000e+000
    outer loop
      vertex  5.496934e-002 -1.065952e-001  7.500000e-001
      vertex -5.118689e-002 -1.065950e-001  7.500000e-001
      vertex -3.069633e-002 -1.145331e-001  7.500000e-001
    endloop
  endfacet
  facet normal  -0.000000e+000  0.000000e+000  1.000000e+000
    outer loop
      vertex  5.496934e-002 -1.065952e-001  7.500000e-001
      vertex -3.069633e-002 -1.145331e-001  7.500000e-001
      vertex  3.447875e-002 -1.145332e-001  7.500000e-001
    endloop
  endfacet
  facet normal  0.000000e+000  0.000000e+000  1.000000e+000
    outer loop
      vertex  3.447875e-002 -1.145332e-001  7.500000e-001
      vertex -3.069633e-002 -1.145331e-001  7.500000e-001
      vertex -9.096032e-003 -1.185710e-001  7.500000e-001
    endloop
  endfacet
  facet normal  -0.000000e+000  0.000000e+000  1.000000e+000
    outer loop
      vertex  3.447875e-002 -1.145332e-001  7.500000e-001
      vertex -9.096032e-003 -1.185710e-001  7.500000e-001
      vertex  1.287843e-002 -1.185710e-001  7.500000e-001
    endloop
  endfacet
  facet normal  0.000000e+000  0.000000e+000  1.000000e+000
    outer loop
      vertex  6.804825e-002  9.901047e-002  7.500000e-001
      vertex -6.426509e-002  9.901065e-002  7.500000e-001
      vertex  8.609304e-002  8.420148e-002  7.500000e-001
    endloop
  endfacet
  facet normal  0.000000e+000  0.000000e+000  1.000000e+000
    outer loop
      vertex  8.609304e-002  8.420148e-002  7.500000e-001
      vertex -6.426509e-002  9.901065e-002  7.500000e-001
      vertex -8.230992e-002  8.420170e-002  7.500000e-001
    endloop
  endfacet
  facet normal  0.000000e+000  0.000000e+000  1.000000e+000
    outer loop
      vertex  8.609304e-002  8.420148e-002  7.500000e-001
      vertex -8.230992e-002  8.420170e-002  7.500000e-001
      vertex  1.009020e-001  6.615667e-002  7.500000e-001
    endloop
  endfacet
  facet normal  0.000000e+000  0.000000e+000  1.000000e+000
    outer loop
      vertex  1.009020e-001  6.615667e-002  7.500000e-001
      vertex -8.230992e-002  8.420170e-002  7.500000e-001
      vertex -9.711894e-002  6.615694e-002  7.500000e-001
    endloop
  endfacet
  facet normal  0.000000e+000  0.000000e+000  1.000000e+000
    outer loop
      vertex  1.009020e-001  6.615667e-002  7.500000e-001
      vertex -9.711894e-002  6.615694e-002  7.500000e-001
      vertex  1.119061e-001  4.556950e-002  7.500000e-001
    endloop
  endfacet
  facet normal  0.000000e+000  0.000000e+000  1.000000e+000
    outer loop
      vertex  1.119061e-001  4.556950e-002  7.500000e-001
      vertex -9.711894e-002  6.615694e-002  7.500000e-001
      vertex -1.081230e-001  4.556980e-002  7.500000e-001
    endloop
  endfacet
  facet normal  0.000000e+000  0.000000e+000  1.000000e+000
    outer loop
      vertex  1.119061e-001  4.556950e-002  7.500000e-001
      vertex -1.081230e-001  4.556980e-002  7.500000e-001
      vertex  1.186823e-001  2.323113e-002  7.500000e-001
    endloop
  endfacet
  facet normal  0.000000e+000  0.000000e+000  1.000000e+000
    outer loop
      vertex  1.186823e-001  2.323113e-002  7.500000e-001
      vertex -1.081230e-001  4.556980e-002  7.500000e-001
      vertex -1.148994e-001  2.323144e-002  7.500000e-001
    endloop
  endfacet
  facet normal  0.000000e+000  0.000000e+000  1.000000e+000
    outer loop
      vertex  1.186823e-001  2.323113e-002  7.500000e-001
      vertex -1.148994e-001  2.323144e-002  7.500000e-001
      vertex  1.209704e-001  1.140930e-017  7.500000e-001
    endloop
  endfacet
  facet normal  0.000000e+000  0.000000e+000  1.000000e+000
    outer loop
      vertex  1.209704e-001  1.140930e-017  7.500000e-001
      vertex -1.148994e-001  2.323144e-002  7.500000e-001
      vertex -1.171875e-001  3.211899e-007  7.500000e-001
    endloop
  endfacet
  facet normal  0.000000e+000  0.000000e+000  1.000000e+000
    outer loop
      vertex  1.209704e-001  1.140930e-017  7.500000e-001
      vertex -1.171875e-001  3.211899e-007  7.500000e-001
      vertex  1.189428e-001 -2.188073e-002  7.500000e-001
    endloop
  endfacet
  facet normal  0.000000e+000  0.000000e+000  9.999999e-001
    outer loop
      vertex  1.189428e-001 -2.188073e-002  7.500000e-001
      vertex -1.171875e-001  3.211899e-007  7.500000e-001
      vertex -1.151600e-001 -2.188024e-002  7.500000e-001
    endloop
  endfacet
  facet normal  0.000000e+000  0.000000e+000  1.000000e+000
    outer loop
      vertex  1.189428e-001 -2.188073e-002  7.500000e-001
      vertex -1.151600e-001 -2.188024e-002  7.500000e-001
      vertex  1.129292e-001 -4.301633e-002  7.500000e-001
    endloop
  endfacet
  facet normal  0.000000e+000  0.000000e+000  1.000000e+000
    outer loop
      vertex  1.129292e-001 -4.301633e-002  7.500000e-001
      vertex -1.151600e-001 -2.188024e-002  7.500000e-001
      vertex -1.091465e-001 -4.301587e-002  7.500000e-001
    endloop
  endfacet
  facet normal  0.000000e+000  0.000000e+000  1.000000e+000
    outer loop
      vertex  1.129292e-001 -4.301633e-002  7.500000e-001
      vertex -1.091465e-001 -4.301587e-002  7.500000e-001
      vertex  1.031344e-001 -6.268706e-002  7.500000e-001
    endloop
  endfacet
  facet normal  0.000000e+000  0.000000e+000  1.000000e+000
    outer loop
      vertex  1.031344e-001 -6.268706e-002  7.500000e-001
      vertex -1.091465e-001 -4.301587e-002  7.500000e-001
      vertex -9.935173e-002 -6.268664e-002  7.500000e-001
    endloop
  endfacet
  facet normal  0.000000e+000  0.000000e+000  1.000000e+000
    outer loop
      vertex  1.031344e-001 -6.268706e-002  7.500000e-001
      vertex -9.935173e-002 -6.268664e-002  7.500000e-001
      vertex  8.989178e-002 -8.022305e-002  7.500000e-001
    endloop
  endfacet
  facet normal  0.000000e+000  0.000000e+000  1.000000e+000
    outer loop
      vertex  8.989178e-002 -8.022305e-002  7.500000e-001
      vertex -9.935173e-002 -6.268664e-002  7.500000e-001
      vertex -8.610921e-002 -8.022269e-002  7.500000e-001
    endloop
  endfacet
  facet normal  0.000000e+000  0.000000e+000  1.000000e+000
    outer loop
      vertex  8.989178e-002 -8.022305e-002  7.500000e-001
      vertex -8.610921e-002 -8.022269e-002  7.500000e-001
      vertex  7.365243e-002 -9.502714e-002  7.500000e-001
    endloop
  endfacet
  facet normal  0.000000e+000  0.000000e+000  1.000000e+000
    outer loop
      vertex  7.365243e-002 -9.502714e-002  7.500000e-001
      vertex -8.610921e-002 -8.022269e-002  7.500000e-001
      vertex -6.986993e-002 -9.502684e-002  7.500000e-001
    endloop
  endfacet
  facet normal  0.000000e+000  0.000000e+000  1.000000e+000
    outer loop
      vertex  7.365243e-002 -9.502714e-002  7.500000e-001
      vertex -6.986993e-002 -9.502684e-002  7.500000e-001
      vertex -5.118689e-002 -1.065950e-001  7.500000e-001
    endloop
  endfacet
  facet normal  9.951847e-001 -9.801712e-002 -6.413346e-018
    outer loop
      vertex  1.834704e-001  0.000000e+000  0.000000e+000
      vertex  1.834704e-001 -4.447255e-017  6.796875e-001
      vertex  1.799814e-001 -3.542430e-002  0.000000e+000
    endloop
  endfacet
  facet normal  9.951847e-001 -9.801712e-002  0.000000e+000
    outer loop
      vertex  1.799814e-001 -3.542430e-002  0.000000e+000
      vertex  1.834704e-001 -4.447255e-017  6.796875e-001
      vertex  1.799814e-001 -3.542430e-002  6.796875e-001
    endloop
  endfacet
  facet normal  9.569402e-001 -2.902850e-001  0.000000e+000
    outer loop
      vertex  1.799814e-001 -3.542430e-002  0.000000e+000
      vertex  1.799814e-001 -3.542430e-002  6.796875e-001
      vertex  1.696485e-001 -6.948725e-002  0.000000e+000
    endloop
  endfacet
  facet normal  9.569402e-001 -2.902850e-001  0.000000e+000
    outer loop
      vertex  1.696485e-001 -6.948725e-002  0.000000e+000
      vertex  1.799814e-001 -3.542430e-002  6.796875e-001
      vertex  1.696485e-001 -6.948725e-002  6.796875e-001
    endloop
  endfacet
  facet normal  8.819213e-001 -4.713966e-001  0.000000e+000
    outer loop
      vertex  1.696485e-001 -6.948725e-002  0.000000e+000
      vertex  1.696485e-001 -6.948725e-002  6.796875e-001
      vertex  1.528688e-001 -1.008799e-001  0.000000e+000
    endloop
  endfacet
  facet normal  8.819213e-001 -4.713966e-001  0.000000e+000
    outer loop
      vertex  1.528688e-001 -1.008799e-001  0.000000e+000
      vertex  1.696485e-001 -6.948725e-002  6.796875e-001
      vertex  1.528688e-001 -1.008799e-001  6.796875e-001
    endloop
  endfacet
  facet normal  7.730106e-001 -6.343932e-001  0.000000e+000
    outer loop
      vertex  1.528688e-001 -1.008799e-001  0.000000e+000
      vertex  1.528688e-001 -1.008799e-001  6.796875e-001
      vertex  1.302872e-001 -1.283957e-001  0.000000e+000
    endloop
  endfacet
  facet normal  7.730106e-001 -6.343932e-001  0.000000e+000
    outer loop
      vertex  1.302872e-001 -1.283957e-001  0.000000e+000
      vertex  1.528688e-001 -1.008799e-001  6.796875e-001
      vertex  1.302872e-001 -1.283957e-001  6.796875e-001
    endloop
  endfacet
  facet normal  6.343932e-001 -7.730106e-001  0.000000e+000
    outer loop
      vertex  1.302872e-001 -1.283957e-001  0.000000e+000
      vertex  1.302872e-001 -1.283957e-001  6.796875e-001
      vertex  1.027713e-001 -1.509774e-001  0.000000e+000
    endloop
  endfacet
  facet normal  6.343932e-001 -7.730106e-001  0.000000e+000
    outer loop
      vertex  1.027713e-001 -1.509774e-001  0.000000e+000
      vertex  1.302872e-001 -1.283957e-001  6.796875e-001
      vertex  1.027713e-001 -1.509774e-001  6.796875e-001
    endloop
  endfacet
  facet normal  4.713970e-001 -8.819211e-001  0.000000e+000
    outer loop
      vertex  1.027713e-001 -1.509774e-001  0.000000e+000
      vertex  1.027713e-001 -1.509774e-001  6.796875e-001
      vertex  7.137870e-002 -1.677571e-001  0.000000e+000
    endloop
  endfacet
  facet normal  4.713970e-001 -8.819211e-001  0.000000e+000
    outer loop
      vertex  7.137870e-002 -1.677571e-001  0.000000e+000
      vertex  1.027713e-001 -1.509774e-001  6.796875e-001
      vertex  7.137870e-002 -1.677571e-001  6.796875e-001
    endloop
  endfacet
  facet normal  2.902846e-001 -9.569403e-001  0.000000e+000
    outer loop
      vertex  7.137870e-002 -1.677571e-001  0.000000e+000
      vertex  7.137870e-002 -1.677571e-001  6.796875e-001
      vertex  3.731574e-002 -1.780900e-001  0.000000e+000
    endloop
  endfacet
  facet normal  2.902846e-001 -9.569403e-001  0.000000e+000
    outer loop
      vertex  3.731574e-002 -1.780900e-001  0.000000e+000
      vertex  7.137870e-002 -1.677571e-001  6.796875e-001
      vertex  3.731574e-002 -1.780900e-001  6.796875e-001
    endloop
  endfacet
  facet normal  9.801712e-002 -9.951847e-001  0.000000e+000
    outer loop
      vertex  3.731574e-002 -1.780900e-001  0.000000e+000
      vertex  3.731574e-002 -1.780900e-001  6.796875e-001
      vertex  1.891447e-003 -1.815789e-001  0.000000e+000
    endloop
  endfacet
  facet normal  9.801712e-002 -9.951847e-001  0.000000e+000
    outer loop
      vertex  1.891447e-003 -1.815789e-001  0.000000e+000
      vertex  3.731574e-002 -1.780900e-001  6.796875e-001
      vertex  1.891447e-003 -1.815789e-001  6.796875e-001
    endloop
  endfacet
  facet normal -9.801712e-002 -9.951847e-001  -0.000000e+000
    outer loop
      vertex  1.891447e-003 -1.815789e-001  0.000000e+000
      vertex  1.891447e-003 -1.815789e-001  6.796875e-001
      vertex -3.353285e-002 -1.780900e-001  0.000000e+000
    endloop
  endfacet
  facet normal -9.801712e-002 -9.951847e-001  0.000000e+000
    outer loop
      vertex -3.353285e-002 -1.780900e-001  0.000000e+000
      vertex  1.891447e-003 -1.815789e-001  6.796875e-001
      vertex -3.353285e-002 -1.780900e-001  6.796875e-001
    endloop
  endfacet
  facet normal -2.902845e-001 -9.569404e-001  -0.000000e+000
    outer loop
      vertex -3.353285e-002 -1.780900e-001  0.000000e+000
      vertex -3.353285e-002 -1.780900e-001  6.796875e-001
      vertex -6.759581e-002 -1.677571e-001  0.000000e+000
    endloop
  endfacet
  facet normal -2.902845e-001 -9.569404e-001  0.000000e+000
    outer loop
      vertex -6.759581e-002 -1.677571e-001  0.000000e+000
      vertex -3.353285e-002 -1.780900e-001  6.796875e-001
      vertex -6.759581e-002 -1.677571e-001  6.796875e-001
    endloop
  endfacet
  facet normal -4.713970e-001 -8.819211e-001  -0.000000e+000
    outer loop
      vertex -6.759581e-002 -1.677571e-001  0.000000e+000
      vertex -6.759581e-002 -1.677571e-001  6.796875e-001
      vertex -9.898841e-002 -1.509774e-001  0.000000e+000
    endloop
  endfacet
  facet normal -4.713970e-001 -8.819211e-001  0.000000e+000
    outer loop
      vertex -9.898841e-002 -1.509774e-001  0.000000e+000
      vertex -6.759581e-002 -1.677571e-001  6.796875e-001
      vertex -9.898841e-002 -1.509774e-001  6.796875e-001
    endloop
  endfacet
  facet normal -6.343933e-001 -7.730106e-001  -0.000000e+000
    outer loop
      vertex -9.898841e-002 -1.509774e-001  0.000000e+000
      vertex -9.898841e-002 -1.509774e-001  6.796875e-001
      vertex -1.265043e-001 -1.283957e-001  0.000000e+000
    endloop
  endfacet
  facet normal -6.343933e-001 -7.730106e-001  0.000000e+000
    outer loop
      vertex -1.265043e-001 -1.283957e-001  0.000000e+000
      vertex -9.898841e-002 -1.509774e-001  6.796875e-001
      vertex -1.265043e-001 -1.283957e-001  6.796875e-001
    endloop
  endfacet
  facet normal -7.730106e-001 -6.343932e-001  -0.000000e+000
    outer loop
      vertex -1.265043e-001 -1.283957e-001  0.000000e+000
      vertex -1.265043e-001 -1.283957e-001  6.796875e-001
      vertex -1.490859e-001 -1.008799e-001  0.000000e+000
    endloop
  endfacet
  facet normal -7.730106e-001 -6.343932e-001  0.000000e+000
    outer loop
      vertex -1.490859e-001 -1.008799e-001  0.000000e+000
      vertex -1.265043e-001 -1.283957e-001  6.796875e-001
      vertex -1.490859e-001 -1.008799e-001  6.796875e-001
    endloop
  endfacet
  facet normal -8.819211e-001 -4.713970e-001  -0.000000e+000
    outer loop
      vertex -1.490859e-001 -1.008799e-001  0.000000e+000
      vertex -1.490859e-001 -1.008799e-001  6.796875e-001
      vertex -1.658656e-001 -6.948725e-002  0.000000e+000
    endloop
  endfacet
  facet normal -8.819211e-001 -4.713970e-001  0.000000e+000
    outer loop
      vertex -1.658656e-001 -6.948725e-002  0.000000e+000
      vertex -1.490859e-001 -1.008799e-001  6.796875e-001
      vertex -1.658656e-001 -6.948725e-002  6.796875e-001
    endloop
  endfacet
  facet normal -9.569403e-001 -2.902846e-001  -0.000000e+000
    outer loop
      vertex -1.658656e-001 -6.948725e-002  0.000000e+000
      vertex -1.658656e-001 -6.948725e-002  6.796875e-001
      vertex -1.761985e-001 -3.542430e-002  0.000000e+000
    endloop
  endfacet
  facet normal -9.569403e-001 -2.902846e-001  0.000000e+000
    outer loop
      vertex -1.761985e-001 -3.542430e-002  0.000000e+000
      vertex -1.658656e-001 -6.948725e-002  6.796875e-001
      vertex -1.761985e-001 -3.542430e-002  6.796875e-001
    endloop
  endfacet
  facet normal -9.951847e-001 -9.801712e-002  -0.000000e+000
    outer loop
      vertex -1.761985e-001 -3.542430e-002  0.000000e+000
      vertex -1.761985e-001 -3.542430e-002  6.796875e-001
      vertex -1.796875e-001  2.223627e-017  0.000000e+000
    endloop
  endfacet
  facet normal -9.951847e-001 -9.801712e-002  0.000000e+000
    outer loop
      vertex -1.796875e-001  2.223627e-017  0.000000e+000
      vertex -1.761985e-001 -3.542430e-002  6.796875e-001
      vertex -1.796875e-001  2.223627e-017  6.796875e-001
    endloop
  endfacet
  facet normal -9.951847e-001  9.801712e-002  0.000000e+000
    outer loop
      vertex -1.796875e-001  2.223627e-017  0.000000e+000
      vertex -1.796875e-001  2.223627e-017  6.796875e-001
      vertex -1.761985e-001  3.542430e-002  0.000000e+000
    endloop
  endfacet
  facet normal -9.951847e-001  9.801712e-002  0.000000e+000
    outer loop
      vertex -1.761985e-001  3.542430e-002  0.000000e+000
      vertex -1.796875e-001  2.223627e-017  6.796875e-001
      vertex -1.761985e-001  3.542430e-002  6.796875e-001
    endloop
  endfacet
  facet normal -9.569403e-001  2.902846e-001  0.000000e+000
    outer loop
      vertex -1.761985e-001  3.542430e-002  0.000000e+000
      vertex -1.761985e-001  3.542430e-002  6.796875e-001
      vertex -1.658656e-001  6.948725e-002  0.000000e+000
    endloop
  endfacet
  facet normal -9.569403e-001  2.902846e-001  0.000000e+000
    outer loop
      vertex -1.658656e-001  6.948725e-002  0.000000e+000
      vertex -1.761985e-001  3.542430e-002  6.796875e-001
      vertex -1.658656e-001  6.948725e-002  6.796875e-001
    endloop
  endfacet
  facet normal -8.819211e-001  4.713970e-001  0.000000e+000
    outer loop
      vertex -1.658656e-001  6.948725e-002  0.000000e+000
      vertex -1.658656e-001  6.948725e-002  6.796875e-001
      vertex -1.490859e-001  1.008799e-001  0.000000e+000
    endloop
  endfacet
  facet normal -8.819211e-001  4.713970e-001  0.000000e+000
    outer loop
      vertex -1.490859e-001  1.008799e-001  0.000000e+000
      vertex -1.658656e-001  6.948725e-002  6.796875e-001
      vertex -1.490859e-001  1.008799e-001  6.796875e-001
    endloop
  endfacet
  facet normal -7.730106e-001  6.343932e-001  0.000000e+000
    outer loop
      vertex -1.490859e-001  1.008799e-001  0.000000e+000
      vertex -1.490859e-001  1.008799e-001  6.796875e-001
      vertex -1.265043e-001  1.283957e-001  0.000000e+000
    endloop
  endfacet
  facet normal -7.730106e-001  6.343932e-001  0.000000e+000
    outer loop
      vertex -1.265043e-001  1.283957e-001  0.000000e+000
      vertex -1.490859e-001  1.008799e-001  6.796875e-001
      vertex -1.265043e-001  1.283957e-001  6.796875e-001
    endloop
  endfacet
  facet normal -6.343933e-001  7.730106e-001  0.000000e+000
    outer loop
      vertex -1.265043e-001  1.283957e-001  0.000000e+000
      vertex -1.265043e-001  1.283957e-001  6.796875e-001
      vertex -9.898841e-002  1.509774e-001  0.000000e+000
    endloop
  endfacet
  facet normal -6.343933e-001  7.730106e-001  0.000000e+000
    outer loop
      vertex -9.898841e-002  1.509774e-001  0.000000e+000
      vertex -1.265043e-001  1.283957e-001  6.796875e-001
      vertex -9.898841e-002  1.509774e-001  6.796875e-001
    endloop
  endfacet
  facet normal -4.713970e-001  8.819211e-001  0.000000e+000
    outer loop
      vertex -9.898841e-002  1.509774e-001  0.000000e+000
      vertex -9.898841e-002  1.509774e-001  6.796875e-001
      vertex -6.759581e-002  1.677571e-001  0.000000e+000
    endloop
  endfacet
  facet normal -4.713970e-001  8.819211e-001  0.000000e+000
    outer loop
      vertex -6.759581e-002  1.677571e-001  0.000000e+000
      vertex -9.898841e-002  1.509774e-001  6.796875e-001
      vertex -6.759581e-002  1.677571e-001  6.796875e-001
    endloop
  endfacet
  facet normal -2.902845e-001  9.569404e-001  0.000000e+000
    outer loop
      vertex -6.759581e-002  1.677571e-001  0.000000e+000
      vertex -6.759581e-002  1.677571e-001  6.796875e-001
      vertex -3.353285e-002  1.780900e-001  0.000000e+000
    endloop
  endfacet
  facet normal -2.902845e-001  9.569404e-001  0.000000e+000
    outer loop
      vertex -3.353285e-002  1.780900e-001  0.000000e+000
      vertex -6.759581e-002  1.677571e-001  6.796875e-001
      vertex -3.353285e-002  1.780900e-001  6.796875e-001
    endloop
  endfacet
  facet normal -9.801712e-002  9.951847e-001  0.000000e+000
    outer loop
      vertex -3.353285e-002  1.780900e-001  0.000000e+000
      vertex -3.353285e-002  1.780900e-001  6.796875e-001
      vertex  1.891447e-003  1.815789e-001  0.000000e+000
    endloop
  endfacet
  facet normal -9.801712e-002  9.951847e-001  0.000000e+000
    outer loop
      vertex  1.891447e-003  1.815789e-001  0.000000e+000
      vertex -3.353285e-002  1.780900e-001  6.796875e-001
      vertex  1.891447e-003  1.815789e-001  6.796875e-001
    endloop
  endfacet
  facet normal  9.801712e-002  9.951847e-001  0.000000e+000
    outer loop
      vertex  1.891447e-003  1.815789e-001  0.000000e+000
      vertex  1.891447e-003  1.815789e-001  6.796875e-001
      vertex  3.731574e-002  1.780900e-001  0.000000e+000
    endloop
  endfacet
  facet normal  9.801712e-002  9.951847e-001  -0.000000e+000
    outer loop
      vertex  3.731574e-002  1.780900e-001  0.000000e+000
      vertex  1.891447e-003  1.815789e-001  6.796875e-001
      vertex  3.731574e-002  1.780900e-001  6.796875e-001
    endloop
  endfacet
  facet normal  2.902846e-001  9.569403e-001  0.000000e+000
    outer loop
      vertex  3.731574e-002  1.780900e-001  0.000000e+000
      vertex  3.731574e-002  1.780900e-001  6.796875e-001
      vertex  7.137870e-002  1.677571e-001  0.000000e+000
    endloop
  endfacet
  facet normal  2.902846e-001  9.569403e-001  -0.000000e+000
    outer loop
      vertex  7.137870e-002  1.677571e-001  0.000000e+000
      vertex  3.731574e-002  1.780900e-001  6.796875e-001
      vertex  7.137870e-002  1.677571e-001  6.796875e-001
    endloop
  endfacet
  facet normal  4.713970e-001  8.819211e-001  0.000000e+000
    outer loop
      vertex  7.137870e-002  1.677571e-001  0.000000e+000
      vertex  7.137870e-002  1.677571e-001  6.796875e-001
      vertex  1.027713e-001  1.509774e-001  0.000000e+000
    endloop
  endfacet
  facet normal  4.713970e-001  8.819211e-001  -0.000000e+000
    outer loop
      vertex  1.027713e-001  1.509774e-001  0.000000e+000
      vertex  7.137870e-002  1.677571e-001  6.796875e-001
      vertex  1.027713e-001  1.509774e-001  6.796875e-001
    endloop
  endfacet
  facet normal  6.343932e-001  7.730106e-001  0.000000e+000
    outer loop
      vertex  1.027713e-001  1.509774e-001  0.000000e+000
      vertex  1.027713e-001  1.509774e-001  6.796875e-001
      vertex  1.302872e-001  1.283957e-001  0.000000e+000
    endloop
  endfacet
  facet normal  6.343932e-001  7.730106e-001  -0.000000e+000
    outer loop
      vertex  1.302872e-001  1.283957e-001  0.000000e+000
      vertex  1.027713e-001  1.509774e-001  6.796875e-001
      vertex  1.302872e-001  1.283957e-001  6.796875e-001
    endloop
  endfacet
  facet normal  7.730106e-001  6.343932e-001  0.000000e+000
    outer loop
      vertex  1.302872e-001  1.283957e-001  0.000000e+000
      vertex  1.302872e-001  1.283957e-001  6.796875e-001
      vertex  1.528688e-001  1.008799e-001  0.000000e+000
    endloop
  endfacet
  facet normal  7.730106e-001  6.343932e-001  -0.000000e+000
    outer loop
      vertex  1.528688e-001  1.008799e-001  0.000000e+000
      vertex  1.302872e-001  1.283957e-001  6.796875e-001
      vertex  1.528688e-001  1.008799e-001  6.796875e-001
    endloop
  endfacet
  facet normal  8.819213e-001  4.713966e-001  0.000000e+000
    outer loop
      vertex  1.528688e-001  1.008799e-001  0.000000e+000
      vertex  1.528688e-001  1.008799e-001  6.796875e-001
      vertex  1.696485e-001  6.948725e-002  0.000000e+000
    endloop
  endfacet
  facet normal  8.819213e-001  4.713966e-001  -0.000000e+000
    outer loop
      vertex  1.696485e-001  6.948725e-002  0.000000e+000
      vertex  1.528688e-001  1.008799e-001  6.796875e-001
      vertex  1.696485e-001  6.948725e-002  6.796875e-001
    endloop
  endfacet
  facet normal  9.569402e-001  2.902850e-001  0.000000e+000
    outer loop
      vertex  1.696485e-001  6.948725e-002  0.000000e+000
      vertex  1.696485e-001  6.948725e-002  6.796875e-001
      vertex  1.799814e-001  3.542430e-002  0.000000e+000
    endloop
  endfacet
  facet normal  9.569402e-001  2.902850e-001  -0.000000e+000
    outer loop
      vertex  1.799814e-001  3.542430e-002  0.000000e+000
      vertex  1.696485e-001  6.948725e-002  6.796875e-001
      vertex  1.799814e-001  3.542430e-002  6.796875e-001
    endloop
  endfacet
  facet normal  9.951847e-001  9.801712e-002  0.000000e+000
    outer loop
      vertex  1.799814e-001  3.542430e-002  0.000000e+000
      vertex  1.799814e-001  3.542430e-002  6.796875e-001
      vertex  1.834704e-001  0.000000e+000  0.000000e+000
    endloop
  endfacet
  facet normal  9.951847e-001  9.801712e-002  6.413346e-018
    outer loop
      vertex  1.834704e-001  0.000000e+000  0.000000e+000
      vertex  1.799814e-001  3.542430e-002  6.796875e-001
      vertex  1.834704e-001 -4.447255e-017  6.796875e-001
    endloop
  endfacet
  facet normal  7.341569e-002  7.453924e-001  6.625709e-001
    outer loop
      vertex  1.891608e-003  1.190789e-001  7.500000e-001
      vertex  2.512274e-002  1.167909e-001  7.500000e-001
      vertex  1.891447e-003  1.815789e-001  6.796875e-001
    endloop
  endfacet
  facet normal -7.341472e-002  7.453923e-001  6.625711e-001
    outer loop
      vertex  1.891447e-003  1.815789e-001  6.796875e-001
      vertex -3.353285e-002  1.780900e-001  6.796875e-001
      vertex  1.891608e-003  1.190789e-001  7.500000e-001
    endloop
  endfacet
  facet normal -5.789841e-001  4.751598e-001  6.625712e-001
    outer loop
      vertex -1.490859e-001  1.008799e-001  6.796875e-001
      vertex -8.230992e-002  8.420170e-002  7.500000e-001
      vertex -1.265043e-001  1.283957e-001  6.796875e-001
    endloop
  endfacet
  facet normal -4.751589e-001  5.789852e-001  6.625708e-001
    outer loop
      vertex -1.265043e-001  1.283957e-001  6.796875e-001
      vertex -8.230992e-002  8.420170e-002  7.500000e-001
      vertex -6.426509e-002  9.901065e-002  7.500000e-001
    endloop
  endfacet
  facet normal -4.751599e-001  5.789840e-001  6.625712e-001
    outer loop
      vertex -1.265043e-001  1.283957e-001  6.796875e-001
      vertex -6.426509e-002  9.901065e-002  7.500000e-001
      vertex -9.898841e-002  1.509774e-001  6.796875e-001
    endloop
  endfacet
  facet normal -5.789832e-001  4.751614e-001  6.625708e-001
    outer loop
      vertex -8.230992e-002  8.420170e-002  7.500000e-001
      vertex -1.490859e-001  1.008799e-001  6.796875e-001
      vertex -9.711894e-002  6.615694e-002  7.500000e-001
    endloop
  endfacet
  facet normal -6.605580e-001  3.530758e-001  6.625711e-001
    outer loop
      vertex -9.711894e-002  6.615694e-002  7.500000e-001
      vertex -1.490859e-001  1.008799e-001  6.796875e-001
      vertex -1.658656e-001  6.948725e-002  6.796875e-001
    endloop
  endfacet
  facet normal -6.605576e-001  3.530773e-001  6.625708e-001
    outer loop
      vertex -9.711894e-002  6.615694e-002  7.500000e-001
      vertex -1.658656e-001  6.948725e-002  6.796875e-001
      vertex -1.081230e-001  4.556980e-002  7.500000e-001
    endloop
  endfacet
  facet normal -7.167472e-001  2.174229e-001  6.625712e-001
    outer loop
      vertex -1.081230e-001  4.556980e-002  7.500000e-001
      vertex -1.658656e-001  6.948725e-002  6.796875e-001
      vertex -1.761985e-001  3.542430e-002  6.796875e-001
    endloop
  endfacet
  facet normal -7.167472e-001  2.174248e-001  6.625708e-001
    outer loop
      vertex -1.081230e-001  4.556980e-002  7.500000e-001
      vertex -1.761985e-001  3.542430e-002  6.796875e-001
      vertex -1.148994e-001  2.323144e-002  7.500000e-001
    endloop
  endfacet
  facet normal -7.453923e-001  7.341471e-002  6.625712e-001
    outer loop
      vertex -1.148994e-001  2.323144e-002  7.500000e-001
      vertex -1.761985e-001  3.542430e-002  6.796875e-001
      vertex -1.796875e-001  2.223627e-017  6.796875e-001
    endloop
  endfacet
  facet normal -7.453924e-001  7.341666e-002  6.625707e-001
    outer loop
      vertex -1.148994e-001  2.323144e-002  7.500000e-001
      vertex -1.796875e-001  2.223627e-017  6.796875e-001
      vertex -1.171875e-001  3.211899e-007  7.500000e-001
    endloop
  endfacet
  facet normal  5.789845e-001  4.751596e-001  6.625710e-001
    outer loop
      vertex  1.009020e-001  6.615667e-002  7.500000e-001
      vertex  1.302872e-001  1.283957e-001  6.796875e-001
      vertex  8.609304e-002  8.420148e-002  7.500000e-001
    endloop
  endfacet
  facet normal  4.751598e-001  5.789841e-001  6.625711e-001
    outer loop
      vertex  8.609304e-002  8.420148e-002  7.500000e-001
      vertex  1.302872e-001  1.283957e-001  6.796875e-001
      vertex  1.027713e-001  1.509774e-001  6.796875e-001
    endloop
  endfacet
  facet normal  4.751602e-001  5.789840e-001  6.625710e-001
    outer loop
      vertex  8.609304e-002  8.420148e-002  7.500000e-001
      vertex  1.027713e-001  1.509774e-001  6.796875e-001
      vertex  6.804825e-002  9.901047e-002  7.500000e-001
    endloop
  endfacet
  facet normal  5.789842e-001  4.751599e-001  6.625711e-001
    outer loop
      vertex  1.302872e-001  1.283957e-001  6.796875e-001
      vertex  1.009020e-001  6.615667e-002  7.500000e-001
      vertex  1.528688e-001  1.008799e-001  6.796875e-001
    endloop
  endfacet
  facet normal  6.605584e-001  3.530755e-001  6.625710e-001
    outer loop
      vertex  1.528688e-001  1.008799e-001  6.796875e-001
      vertex  1.009020e-001  6.615667e-002  7.500000e-001
      vertex  1.119061e-001  4.556950e-002  7.500000e-001
    endloop
  endfacet
  facet normal  6.605583e-001  3.530756e-001  6.625711e-001
    outer loop
      vertex  1.528688e-001  1.008799e-001  6.796875e-001
      vertex  1.119061e-001  4.556950e-002  7.500000e-001
      vertex  1.696485e-001  6.948725e-002  6.796875e-001
    endloop
  endfacet
  facet normal  7.167475e-001  2.174228e-001  6.625710e-001
    outer loop
      vertex  1.696485e-001  6.948725e-002  6.796875e-001
      vertex  1.119061e-001  4.556950e-002  7.500000e-001
      vertex  1.186823e-001  2.323113e-002  7.500000e-001
    endloop
  endfacet
  facet normal  7.167473e-001  2.174232e-001  6.625711e-001
    outer loop
      vertex  1.696485e-001  6.948725e-002  6.796875e-001
      vertex  1.186823e-001  2.323113e-002  7.500000e-001
      vertex  1.799814e-001  3.542430e-002  6.796875e-001
    endloop
  endfacet
  facet normal  7.453924e-001  7.341472e-002  6.625710e-001
    outer loop
      vertex  1.799814e-001  3.542430e-002  6.796875e-001
      vertex  1.186823e-001  2.323113e-002  7.500000e-001
      vertex  1.209704e-001  1.140930e-017  7.500000e-001
    endloop
  endfacet
  facet normal  7.453924e-001  7.341473e-002  6.625711e-001
    outer loop
      vertex  1.799814e-001  3.542430e-002  6.796875e-001
      vertex  1.209704e-001  1.140930e-017  7.500000e-001
      vertex  1.834704e-001 -4.447255e-017  6.796875e-001
    endloop
  endfacet
  facet normal  7.341472e-002  7.453923e-001  6.625711e-001
    outer loop
      vertex  1.891447e-003  1.815789e-001  6.796875e-001
      vertex  2.512274e-002  1.167909e-001  7.500000e-001
      vertex  3.731574e-002  1.780900e-001  6.796875e-001
    endloop
  endfacet
  facet normal  2.174238e-001  7.167473e-001  6.625709e-001
    outer loop
      vertex  3.731574e-002  1.780900e-001  6.796875e-001
      vertex  2.512274e-002  1.167909e-001  7.500000e-001
      vertex  4.746110e-002  1.100146e-001  7.500000e-001
    endloop
  endfacet
  facet normal  2.174229e-001  7.167473e-001  6.625711e-001
    outer loop
      vertex  3.731574e-002  1.780900e-001  6.796875e-001
      vertex  4.746110e-002  1.100146e-001  7.500000e-001
      vertex  7.137870e-002  1.677571e-001  6.796875e-001
    endloop
  endfacet
  facet normal  3.530765e-001  6.605579e-001  6.625710e-001
    outer loop
      vertex  7.137870e-002  1.677571e-001  6.796875e-001
      vertex  4.746110e-002  1.100146e-001  7.500000e-001
      vertex  6.804825e-002  9.901047e-002  7.500000e-001
    endloop
  endfacet
  facet normal  3.530758e-001  6.605580e-001  6.625711e-001
    outer loop
      vertex  7.137870e-002  1.677571e-001  6.796875e-001
      vertex  6.804825e-002  9.901047e-002  7.500000e-001
      vertex  1.027713e-001  1.509774e-001  6.796875e-001
    endloop
  endfacet
  facet normal -7.341377e-002  7.453927e-001  6.625710e-001
    outer loop
      vertex  1.891608e-003  1.190789e-001  7.500000e-001
      vertex -3.353285e-002  1.780900e-001  6.796875e-001
      vertex -2.133953e-002  1.167909e-001  7.500000e-001
    endloop
  endfacet
  facet normal -2.174229e-001  7.167474e-001  6.625712e-001
    outer loop
      vertex -2.133953e-002  1.167909e-001  7.500000e-001
      vertex -3.353285e-002  1.780900e-001  6.796875e-001
      vertex -6.759581e-002  1.677571e-001  6.796875e-001
    endloop
  endfacet
  facet normal -2.174219e-001  7.167479e-001  6.625710e-001
    outer loop
      vertex -2.133953e-002  1.167909e-001  7.500000e-001
      vertex -6.759581e-002  1.677571e-001  6.796875e-001
      vertex -4.367791e-002  1.100147e-001  7.500000e-001
    endloop
  endfacet
  facet normal -3.530758e-001  6.605580e-001  6.625712e-001
    outer loop
      vertex -4.367791e-002  1.100147e-001  7.500000e-001
      vertex -6.759581e-002  1.677571e-001  6.796875e-001
      vertex -9.898841e-002  1.509774e-001  6.796875e-001
    endloop
  endfacet
  facet normal -3.530746e-001  6.605589e-001  6.625708e-001
    outer loop
      vertex -4.367791e-002  1.100147e-001  7.500000e-001
      vertex -9.898841e-002  1.509774e-001  6.796875e-001
      vertex -6.426509e-002  9.901065e-002  7.500000e-001
    endloop
  endfacet
  facet normal -7.371124e-002 -7.484030e-001  6.591356e-001
    outer loop
      vertex -3.353285e-002 -1.780900e-001  6.796875e-001
      vertex  1.891447e-003 -1.815789e-001  6.796875e-001
      vertex -9.096032e-003 -1.185710e-001  7.500000e-001
    endloop
  endfacet
  facet normal  7.371124e-002 -7.484029e-001  6.591356e-001
    outer loop
      vertex  1.891447e-003 -1.815789e-001  6.796875e-001
      vertex  3.731574e-002 -1.780900e-001  6.796875e-001
      vertex  1.287843e-002 -1.185710e-001  7.500000e-001
    endloop
  endfacet
  facet normal -1.515035e-006 -7.447317e-001  6.673640e-001
    outer loop
      vertex -9.096032e-003 -1.185710e-001  7.500000e-001
      vertex  1.891447e-003 -1.815789e-001  6.796875e-001
      vertex  1.287843e-002 -1.185710e-001  7.500000e-001
    endloop
  endfacet
  facet normal  1.368545e-001 -7.321141e-001  6.672928e-001
    outer loop
      vertex  1.287843e-002 -1.185710e-001  7.500000e-001
      vertex  3.731574e-002 -1.780900e-001  6.796875e-001
      vertex  3.447875e-002 -1.145332e-001  7.500000e-001
    endloop
  endfacet
  facet normal  2.182766e-001 -7.195616e-001  6.592317e-001
    outer loop
      vertex  3.447875e-002 -1.145332e-001  7.500000e-001
      vertex  3.731574e-002 -1.780900e-001  6.796875e-001
      vertex  7.137870e-002 -1.677571e-001  6.796875e-001
    endloop
  endfacet
  facet normal  2.691191e-001 -6.946799e-001  6.670793e-001
    outer loop
      vertex  3.447875e-002 -1.145332e-001  7.500000e-001
      vertex  7.137870e-002 -1.677571e-001  6.796875e-001
      vertex  5.496934e-002 -1.065952e-001  7.500000e-001
    endloop
  endfacet
  facet normal  3.543828e-001 -6.630032e-001  6.594237e-001
    outer loop
      vertex  5.496934e-002 -1.065952e-001  7.500000e-001
      vertex  7.137870e-002 -1.677571e-001  6.796875e-001
      vertex  1.027713e-001 -1.509774e-001  6.796875e-001
    endloop
  endfacet
  facet normal  3.923520e-001 -6.336722e-001  6.667229e-001
    outer loop
      vertex  5.496934e-002 -1.065952e-001  7.500000e-001
      vertex  1.027713e-001 -1.509774e-001  6.796875e-001
      vertex  7.365243e-002 -9.502714e-002  7.500000e-001
    endloop
  endfacet
  facet normal  4.767585e-001 -5.809322e-001  6.597115e-001
    outer loop
      vertex  7.365243e-002 -9.502714e-002  7.500000e-001
      vertex  1.027713e-001 -1.509774e-001  6.796875e-001
      vertex  1.302872e-001 -1.283957e-001  6.796875e-001
    endloop
  endfacet
  facet normal  5.024094e-001 -5.511180e-001  6.662234e-001
    outer loop
      vertex  7.365243e-002 -9.502714e-002  7.500000e-001
      vertex  1.302872e-001 -1.283957e-001  6.796875e-001
      vertex  8.989178e-002 -8.022305e-002  7.500000e-001
    endloop
  endfacet
  facet normal  5.806720e-001 -4.765450e-001  6.600946e-001
    outer loop
      vertex  8.989178e-002 -8.022305e-002  7.500000e-001
      vertex  1.302872e-001 -1.283957e-001  6.796875e-001
      vertex  1.528688e-001 -1.008799e-001  6.796875e-001
    endloop
  endfacet
  facet normal  5.955811e-001 -4.497626e-001  6.655800e-001
    outer loop
      vertex  8.989178e-002 -8.022305e-002  7.500000e-001
      vertex  1.528688e-001 -1.008799e-001  6.796875e-001
      vertex  1.031344e-001 -6.268706e-002  7.500000e-001
    endloop
  endfacet
  facet normal  6.621131e-001 -3.539067e-001  6.605728e-001
    outer loop
      vertex  1.031344e-001 -6.268706e-002  7.500000e-001
      vertex  1.528688e-001 -1.008799e-001  6.796875e-001
      vertex  1.696485e-001 -6.948725e-002  6.796875e-001
    endloop
  endfacet
  facet normal  6.687125e-001 -3.329799e-001  6.647918e-001
    outer loop
      vertex  1.031344e-001 -6.268706e-002  7.500000e-001
      vertex  1.696485e-001 -6.948725e-002  6.796875e-001
      vertex  1.129292e-001 -4.301633e-002  7.500000e-001
    endloop
  endfacet
  facet normal  7.179520e-001 -2.177886e-001  6.611453e-001
    outer loop
      vertex  1.129292e-001 -4.301633e-002  7.500000e-001
      vertex  1.696485e-001 -6.948725e-002  6.796875e-001
      vertex  1.799814e-001 -3.542430e-002  6.796875e-001
    endloop
  endfacet
  facet normal  7.193098e-001 -2.046614e-001  6.638576e-001
    outer loop
      vertex  1.129292e-001 -4.301633e-002  7.500000e-001
      vertex  1.799814e-001 -3.542430e-002  6.796875e-001
      vertex  1.189428e-001 -2.188073e-002  7.500000e-001
    endloop
  endfacet
  facet normal  7.460603e-001 -7.348050e-002  6.618117e-001
    outer loop
      vertex  1.189428e-001 -2.188073e-002  7.500000e-001
      vertex  1.799814e-001 -3.542430e-002  6.796875e-001
      vertex  1.834704e-001 -4.447255e-017  6.796875e-001
    endloop
  endfacet
  facet normal  7.456232e-001 -6.909245e-002  6.627762e-001
    outer loop
      vertex  1.189428e-001 -2.188073e-002  7.500000e-001
      vertex  1.834704e-001 -4.447255e-017  6.796875e-001
      vertex  1.209704e-001  1.140930e-017  7.500000e-001
    endloop
  endfacet
  facet normal -6.735809e-001 -3.354005e-001  6.586314e-001
    outer loop
      vertex -1.091465e-001 -4.301587e-002  7.500000e-001
      vertex -1.490859e-001 -1.008799e-001  6.796875e-001
      vertex -9.935173e-002 -6.268664e-002  7.500000e-001
    endloop
  endfacet
  facet normal -5.770434e-001 -4.735671e-001  6.653985e-001
    outer loop
      vertex -9.935173e-002 -6.268664e-002  7.500000e-001
      vertex -1.490859e-001 -1.008799e-001  6.796875e-001
      vertex -1.265043e-001 -1.283957e-001  6.796875e-001
    endloop
  endfacet
  facet normal -6.016585e-001 -4.543482e-001  6.569435e-001
    outer loop
      vertex -9.935173e-002 -6.268664e-002  7.500000e-001
      vertex -1.265043e-001 -1.283957e-001  6.796875e-001
      vertex -8.610921e-002 -8.022269e-002  7.500000e-001
    endloop
  endfacet
  facet normal -6.591547e-001 -3.523257e-001  6.643656e-001
    outer loop
      vertex -1.490859e-001 -1.008799e-001  6.796875e-001
      vertex -1.091465e-001 -4.301587e-002  7.500000e-001
      vertex -1.658656e-001 -6.948725e-002  6.796875e-001
    endloop
  endfacet
  facet normal -7.224481e-001 -2.055513e-001  6.601648e-001
    outer loop
      vertex -1.658656e-001 -6.948725e-002  6.796875e-001
      vertex -1.091465e-001 -4.301587e-002  7.500000e-001
      vertex -1.151600e-001 -2.188024e-002  7.500000e-001
    endloop
  endfacet
  facet normal -7.160255e-001 -2.172039e-001  6.634229e-001
    outer loop
      vertex -1.658656e-001 -6.948725e-002  6.796875e-001
      vertex -1.151600e-001 -2.188024e-002  7.500000e-001
      vertex -1.761985e-001 -3.542430e-002  6.796875e-001
    endloop
  endfacet
  facet normal -7.467062e-001 -6.919003e-002  6.615456e-001
    outer loop
      vertex -1.761985e-001 -3.542430e-002  6.796875e-001
      vertex -1.151600e-001 -2.188024e-002  7.500000e-001
      vertex -1.171875e-001  3.211899e-007  7.500000e-001
    endloop
  endfacet
  facet normal -7.453923e-001 -7.341471e-002  6.625713e-001
    outer loop
      vertex -1.761985e-001 -3.542430e-002  6.796875e-001
      vertex -1.171875e-001  3.211899e-007  7.500000e-001
      vertex -1.796875e-001  2.223627e-017  6.796875e-001
    endloop
  endfacet
  facet normal -1.368575e-001 -7.321135e-001  6.672928e-001
    outer loop
      vertex -9.096032e-003 -1.185710e-001  7.500000e-001
      vertex -3.069633e-002 -1.145331e-001  7.500000e-001
      vertex -3.353285e-002 -1.780900e-001  6.796875e-001
    endloop
  endfacet
  facet normal -2.742350e-001 -7.078767e-001  6.509268e-001
    outer loop
      vertex -3.353285e-002 -1.780900e-001  6.796875e-001
      vertex -3.069633e-002 -1.145331e-001  7.500000e-001
      vertex -5.118689e-002 -1.065950e-001  7.500000e-001
    endloop
  endfacet
  facet normal -2.157508e-001 -7.112353e-001  6.690261e-001
    outer loop
      vertex -3.353285e-002 -1.780900e-001  6.796875e-001
      vertex -5.118689e-002 -1.065950e-001  7.500000e-001
      vertex -6.759581e-002 -1.677571e-001  6.796875e-001
    endloop
  endfacet
  facet normal -3.986566e-001 -6.438487e-001  6.530941e-001
    outer loop
      vertex -6.759581e-002 -1.677571e-001  6.796875e-001
      vertex -5.118689e-002 -1.065950e-001  7.500000e-001
      vertex -6.986993e-002 -9.502684e-002  7.500000e-001
    endloop
  endfacet
  facet normal -3.509096e-001 -6.565052e-001  6.677300e-001
    outer loop
      vertex -6.759581e-002 -1.677571e-001  6.796875e-001
      vertex -6.986993e-002 -9.502684e-002  7.500000e-001
      vertex -9.898841e-002 -1.509774e-001  6.796875e-001
    endloop
  endfacet
  facet normal -5.090080e-001 -5.583518e-001  6.550986e-001
    outer loop
      vertex -9.898841e-002 -1.509774e-001  6.796875e-001
      vertex -6.986993e-002 -9.502684e-002  7.500000e-001
      vertex -8.610921e-002 -8.022269e-002  7.500000e-001
    endloop
  endfacet
  facet normal -4.729317e-001 -5.762691e-001  6.665204e-001
    outer loop
      vertex -9.898841e-002 -1.509774e-001  6.796875e-001
      vertex -8.610921e-002 -8.022269e-002  7.500000e-001
      vertex -1.265043e-001 -1.283957e-001  6.796875e-001
    endloop
  endfacet
  facet normal  0.000000e+000  0.000000e+000 -1.000000e+000
    outer loop
      vertex  1.891447e-003  1.815789e-001  0.000000e+000
      vertex  3.731574e-002  1.780900e-001  0.000000e+000
      vertex -3.353285e-002  1.780900e-001  0.000000e+000
    endloop
  endfacet
  facet normal  0.000000e+000  -0.000000e+000 -1.000000e+000
    outer loop
      vertex -6.759581e-002  1.677571e-001  0.000000e+000
      vertex -3.353285e-002  1.780900e-001  0.000000e+000
      vertex  3.731574e-002  1.780900e-001  0.000000e+000
    endloop
  endfacet
  facet normal  0.000000e+000  0.000000e+000 -1.000000e+000
    outer loop
      vertex  7.137870e-002  1.677571e-001  0.000000e+000
      vertex -6.759581e-002  1.677571e-001  0.000000e+000
      vertex  3.731574e-002  1.780900e-001  0.000000e+000
    endloop
  endfacet
  facet normal  0.000000e+000  0.000000e+000 -1.000000e+000
    outer loop
      vertex  3.731574e-002 -1.780900e-001  0.000000e+000
      vertex -3.353285e-002 -1.780900e-001  0.000000e+000
      vertex  7.137870e-002 -1.677571e-001  0.000000e+000
    endloop
  endfacet
  facet normal  0.000000e+000  0.000000e+000 -1.000000e+000
    outer loop
      vertex  1.891447e-003 -1.815789e-001  0.000000e+000
      vertex -3.353285e-002 -1.780900e-001  0.000000e+000
      vertex  3.731574e-002 -1.780900e-001  0.000000e+000
    endloop
  endfacet
  facet normal  0.000000e+000  0.000000e+000 -1.000000e+000
    outer loop
      vertex -3.353285e-002 -1.780900e-001  0.000000e+000
      vertex -6.759581e-002 -1.677571e-001  0.000000e+000
      vertex  7.137870e-002 -1.677571e-001  0.000000e+000
    endloop
  endfacet
  facet normal  0.000000e+000  0.000000e+000 -1.000000e+000
    outer loop
      vertex  7.137870e-002 -1.677571e-001  0.000000e+000
      vertex -6.759581e-002 -1.677571e-001  0.000000e+000
      vertex -9.898841e-002 -1.509774e-001  0.000000e+000
    endloop
  endfacet
  facet normal  0.000000e+000  0.000000e+000 -1.000000e+000
    outer loop
      vertex  7.137870e-002 -1.677571e-001  0.000000e+000
      vertex -9.898841e-002 -1.509774e-001  0.000000e+000
      vertex  1.027713e-001 -1.509774e-001  0.000000e+000
    endloop
  endfacet
  facet normal  0.000000e+000  0.000000e+000 -1.000000e+000
    outer loop
      vertex  1.027713e-001 -1.509774e-001  0.000000e+000
      vertex -9.898841e-002 -1.509774e-001  0.000000e+000
      vertex -1.265043e-001 -1.283957e-001  0.000000e+000
    endloop
  endfacet
  facet normal  0.000000e+000  0.000000e+000 -9.999999e-001
    outer loop
      vertex  1.027713e-001 -1.509774e-001  0.000000e+000
      vertex -1.265043e-001 -1.283957e-001  0.000000e+000
      vertex  1.302872e-001 -1.283957e-001  0.000000e+000
    endloop
  endfacet
  facet normal  0.000000e+000  0.000000e+000 -1.000000e+000
    outer loop
      vertex  1.302872e-001 -1.283957e-001  0.000000e+000
      vertex -1.265043e-001 -1.283957e-001  0.000000e+000
      vertex -1.490859e-001 -1.008799e-001  0.000000e+000
    endloop
  endfacet
  facet normal  0.000000e+000  0.000000e+000 -1.000000e+000
    outer loop
      vertex  1.302872e-001 -1.283957e-001  0.000000e+000
      vertex -1.490859e-001 -1.008799e-001  0.000000e+000
      vertex  1.528688e-001 -1.008799e-001  0.000000e+000
    endloop
  endfacet
  facet normal  0.000000e+000  0.000000e+000 -1.000000e+000
    outer loop
      vertex  1.528688e-001 -1.008799e-001  0.000000e+000
      vertex -1.490859e-001 -1.008799e-001  0.000000e+000
      vertex -1.658656e-001 -6.948725e-002  0.000000e+000
    endloop
  endfacet
  facet normal  0.000000e+000  0.000000e+000 -1.000000e+000
    outer loop
      vertex  1.528688e-001 -1.008799e-001  0.000000e+000
      vertex -1.658656e-001 -6.948725e-002  0.000000e+000
      vertex  1.696485e-001 -6.948725e-002  0.000000e+000
    endloop
  endfacet
  facet normal  0.000000e+000  0.000000e+000 -9.999999e-001
    outer loop
      vertex  1.696485e-001 -6.948725e-002  0.000000e+000
      vertex -1.658656e-001 -6.948725e-002  0.000000e+000
      vertex -1.761985e-001 -3.542430e-002  0.000000e+000
    endloop
  endfacet
  facet normal  0.000000e+000  0.000000e+000 -1.000000e+000
    outer loop
      vertex  1.696485e-001 -6.948725e-002  0.000000e+000
      vertex -1.761985e-001 -3.542430e-002  0.000000e+000
      vertex  1.799814e-001 -3.542430e-002  0.000000e+000
    endloop
  endfacet
  facet normal  0.000000e+000  0.000000e+000 -1.000000e+000
    outer loop
      vertex  1.799814e-001 -3.542430e-002  0.000000e+000
      vertex -1.761985e-001 -3.542430e-002  0.000000e+000
      vertex -1.796875e-001  2.223627e-017  0.000000e+000
    endloop
  endfacet
  facet normal  0.000000e+000  0.000000e+000 -1.000000e+000
    outer loop
      vertex  1.799814e-001 -3.542430e-002  0.000000e+000
      vertex -1.796875e-001  2.223627e-017  0.000000e+000
      vertex  1.834704e-001  0.000000e+000  0.000000e+000
    endloop
  endfacet
  facet normal  0.000000e+000  0.000000e+000 -1.000000e+000
    outer loop
      vertex  1.834704e-001  0.000000e+000  0.000000e+000
      vertex -1.796875e-001  2.223627e-017  0.000000e+000
      vertex -1.761985e-001  3.542430e-002  0.000000e+000
    endloop
  endfacet
  facet normal  0.000000e+000  0.000000e+000 -1.000000e+000
    outer loop
      vertex  1.834704e-001  0.000000e+000  0.000000e+000
      vertex -1.761985e-001  3.542430e-002  0.000000e+000
      vertex  1.799814e-001  3.542430e-002  0.000000e+000
    endloop
  endfacet
  facet normal  0.000000e+000  0.000000e+000 -1.000000e+000
    outer loop
      vertex  1.799814e-001  3.542430e-002  0.000000e+000
      vertex -1.761985e-001  3.542430e-002  0.000000e+000
      vertex -1.658656e-001  6.948725e-002  0.000000e+000
    endloop
  endfacet
  facet normal  0.000000e+000  0.000000e+000 -9.999999e-001
    outer loop
      vertex  1.799814e-001  3.542430e-002  0.000000e+000
      vertex -1.658656e-001  6.948725e-002  0.000000e+000
      vertex  1.696485e-001  6.948725e-002  0.000000e+000
    endloop
  endfacet
  facet normal  0.000000e+000  0.000000e+000 -1.000000e+000
    outer loop
      vertex  1.696485e-001  6.948725e-002  0.000000e+000
      vertex -1.658656e-001  6.948725e-002  0.000000e+000
      vertex -1.490859e-001  1.008799e-001  0.000000e+000
    endloop
  endfacet
  facet normal  0.000000e+000  0.000000e+000 -1.000000e+000
    outer loop
      vertex  1.696485e-001  6.948725e-002  0.000000e+000
      vertex -1.490859e-001  1.008799e-001  0.000000e+000
      vertex  1.528688e-001  1.008799e-001  0.000000e+000
    endloop
  endfacet
  facet normal  0.000000e+000  0.000000e+000 -1.000000e+000
    outer loop
      vertex  1.528688e-001  1.008799e-001  0.000000e+000
      vertex -1.490859e-001  1.008799e-001  0.000000e+000
      vertex -1.265043e-001  1.283957e-001  0.000000e+000
    endloop
  endfacet
  facet normal  0.000000e+000  0.000000e+000 -1.000000e+000
    outer loop
      vertex  1.528688e-001  1.008799e-001  0.000000e+000
      vertex -1.265043e-001  1.283957e-001  0.000000e+000
      vertex  1.302872e-001  1.283957e-001  0.000000e+000
    endloop
  endfacet
  facet normal  0.000000e+000  0.000000e+000 -9.999999e-001
    outer loop
      vertex  1.302872e-001  1.283957e-001  0.000000e+000
      vertex -1.265043e-001  1.283957e-001  0.000000e+000
      vertex -9.898841e-002  1.509774e-001  0.000000e+000
    endloop
  endfacet
  facet normal  0.000000e+000  0.000000e+000 -1.000000e+000
    outer loop
      vertex  1.302872e-001  1.283957e-001  0.000000e+000
      vertex -9.898841e-002  1.509774e-001  0.000000e+000
      vertex  1.027713e-001  1.509774e-001  0.000000e+000
    endloop
  endfacet
  facet normal  0.000000e+000  0.000000e+000 -1.000000e+000
    outer loop
      vertex  1.027713e-001  1.509774e-001  0.000000e+000
      vertex -9.898841e-002  1.509774e-001  0.000000e+000
      vertex -6.759581e-002  1.677571e-001  0.000000e+000
    endloop
  endfacet
  facet normal  0.000000e+000  0.000000e+000 -1.000000e+000
    outer loop
      vertex  1.027713e-001  1.509774e-001  0.000000e+000
      vertex -6.759581e-002  1.677571e-001  0.000000e+000
      vertex  7.137870e-002  1.677571e-001  0.000000e+000
    endloop
  endfacet
endsolid CATIA STL
