solid CATIA STL
  facet normal  0.000000e+000  0.000000e+000 -1.000000e+000
    outer loop
      vertex -6.953125e-001 -4.921875e-001  0.000000e+000
      vertex -6.953125e-001  2.630756e-001  0.000000e+000
      vertex  2.109375e-001 -4.921875e-001  0.000000e+000
    endloop
  endfacet
  facet normal  0.000000e+000  0.000000e+000 -1.000000e+000
    outer loop
      vertex  2.109375e-001 -4.921875e-001  0.000000e+000
      vertex -6.953125e-001  2.630756e-001  0.000000e+000
      vertex  2.109375e-001  2.630756e-001  0.000000e+000
    endloop
  endfacet
  facet normal -4.269625e-004 -2.937904e-001 -9.558698e-001
    outer loop
      vertex -7.500000e-001 -2.756670e-002 -6.971008e-001
      vertex -7.500000e-001  1.120182e-001 -7.400028e-001
      vertex  5.312500e-001  1.062464e-001 -7.388011e-001
    endloop
  endfacet
  facet normal  4.209988e-004 -1.134015e-001 -9.935492e-001
    outer loop
      vertex  5.312500e-001  2.493902e-001 -7.551392e-001
      vertex  5.312500e-001  1.062464e-001 -7.388011e-001
      vertex -7.500000e-001  1.120182e-001 -7.400028e-001
    endloop
  endfacet
  facet normal -5.613551e-004 -1.043485e-001 -9.945406e-001
    outer loop
      vertex -7.500000e-001  1.120182e-001 -7.400028e-001
      vertex -7.500000e-001  2.572502e-001 -7.552407e-001
      vertex  5.312500e-001  2.493902e-001 -7.551392e-001
    endloop
  endfacet
  facet normal  5.533618e-004  7.732631e-002 -9.970057e-001
    outer loop
      vertex  5.312500e-001  3.930319e-001 -7.439985e-001
      vertex  5.312500e-001  2.493902e-001 -7.551392e-001
      vertex -7.500000e-001  2.572502e-001 -7.552407e-001
    endloop
  endfacet
  facet normal -6.917128e-004  8.899435e-002 -9.960319e-001
    outer loop
      vertex -7.500000e-001  2.572502e-001 -7.552407e-001
      vertex -7.500000e-001  4.027001e-001 -7.422449e-001
      vertex  5.312500e-001  3.930319e-001 -7.439985e-001
    endloop
  endfacet
  facet normal  6.818065e-004  2.652396e-001 -9.641823e-001
    outer loop
      vertex  5.312500e-001  5.319447e-001 -7.057846e-001
      vertex  5.312500e-001  3.930319e-001 -7.439985e-001
      vertex -7.500000e-001  4.027001e-001 -7.422449e-001
    endloop
  endfacet
  facet normal -8.181501e-004  2.790106e-001 -9.602877e-001
    outer loop
      vertex -7.500000e-001  4.027001e-001 -7.422449e-001
      vertex -7.500000e-001  5.429302e-001 -7.015012e-001
      vertex  5.312500e-001  5.319447e-001 -7.057846e-001
    endloop
  endfacet
  facet normal  8.062177e-004  4.435019e-001 -8.962731e-001
    outer loop
      vertex  5.312500e-001  6.610736e-001 -6.418879e-001
      vertex  5.312500e-001  5.319447e-001 -7.057846e-001
      vertex -7.500000e-001  5.429302e-001 -7.015012e-001
    endloop
  endfacet
  facet normal -9.405660e-004  4.585962e-001 -8.886443e-001
    outer loop
      vertex -7.500000e-001  5.429302e-001 -7.015012e-001
      vertex -7.500000e-001  6.726983e-001 -6.345327e-001
      vertex  5.312500e-001  6.610736e-001 -6.418879e-001
    endloop
  endfacet
  facet normal  9.266963e-004  6.056248e-001 -7.957498e-001
    outer loop
      vertex  5.312500e-001  7.757198e-001 -5.546336e-001
      vertex  5.312500e-001  6.610736e-001 -6.418879e-001
      vertex -7.500000e-001  6.726983e-001 -6.345327e-001
    endloop
  endfacet
  facet normal -1.059049e-003  6.210377e-001 -7.837800e-001
    outer loop
      vertex -7.500000e-001  6.726983e-001 -6.345327e-001
      vertex -7.500000e-001  7.871532e-001 -5.438430e-001
      vertex  5.312500e-001  7.757198e-001 -5.546336e-001
    endloop
  endfacet
  facet normal  1.043148e-003  7.457099e-001 -6.662700e-001
    outer loop
      vertex  5.312500e-001  8.717114e-001 -4.471968e-001
      vertex  5.312500e-001  7.757198e-001 -5.546336e-001
      vertex -7.500000e-001  7.871532e-001 -5.438430e-001
    endloop
  endfacet
  facet normal -1.173537e-003  7.602622e-001 -6.496153e-001
    outer loop
      vertex -7.500000e-001  7.871532e-001 -5.438430e-001
      vertex -7.500000e-001  8.820161e-001 -4.328224e-001
      vertex  5.312500e-001  8.717114e-001 -4.471968e-001
    endloop
  endfacet
  facet normal  1.155631e-003  8.586595e-001 -5.125451e-001
    outer loop
      vertex  5.312500e-001  9.455554e-001 -3.234870e-001
      vertex  5.312500e-001  8.717114e-001 -4.471968e-001
      vertex -7.500000e-001  8.820161e-001 -4.328224e-001
    endloop
  endfacet
  facet normal -1.284051e-003  8.710656e-001 -4.911653e-001
    outer loop
      vertex -7.500000e-001  8.820161e-001 -4.328224e-001
      vertex -7.500000e-001  9.537406e-001 -3.056213e-001
      vertex  5.312500e-001  9.455554e-001 -3.234870e-001
    endloop
  endfacet
  facet normal  1.264132e-003  9.403634e-001 -3.401691e-001
    outer loop
      vertex  5.312500e-001  9.945647e-001 -1.880058e-001
      vertex  5.312500e-001  9.455554e-001 -3.234870e-001
      vertex -7.500000e-001  9.537406e-001 -3.056213e-001
    endloop
  endfacet
  facet normal -1.390520e-003  9.493048e-001 -3.143541e-001
    outer loop
      vertex -7.500000e-001  9.537406e-001 -3.056213e-001
      vertex -7.500000e-001  9.996455e-001 -1.669949e-001
      vertex  5.312500e-001  9.945647e-001 -1.880058e-001
    endloop
  endfacet
  facet normal  1.368709e-003  9.878482e-001 -1.554158e-001
    outer loop
      vertex  5.312500e-001  1.016956e+000 -4.568325e-002
      vertex  5.312500e-001  9.945647e-001 -1.880058e-001
      vertex -7.500000e-001  9.996455e-001 -1.669949e-001
    endloop
  endfacet
  facet normal -1.493108e-003  9.920557e-001 -1.257907e-001
    outer loop
      vertex -7.500000e-001  9.996455e-001 -1.669949e-001
      vertex -7.500000e-001  1.018015e+000 -2.212560e-002
      vertex  5.312500e-001  1.016956e+000 -4.568325e-002
    endloop
  endfacet
  facet normal  1.469212e-003  9.993864e-001  3.499413e-002
    outer loop
      vertex  5.312500e-001  1.011914e+000  9.830163e-002
      vertex  5.312500e-001  1.016956e+000 -4.568325e-002
      vertex -7.500000e-001  1.018015e+000 -2.212560e-002
    endloop
  endfacet
  facet normal -1.591684e-003  9.977197e-001  6.747519e-002
    outer loop
      vertex -7.500000e-001  1.018015e+000 -2.212560e-002
      vertex -7.500000e-001  1.008161e+000  1.235708e-001
      vertex  5.312500e-001  1.011914e+000  9.830163e-002
    endloop
  endfacet
  facet normal  1.565749e-003  9.745580e-001  2.241298e-001
    outer loop
      vertex  5.312500e-001  9.796231e-001  2.387094e-001
      vertex  5.312500e-001  1.011914e+000  9.830163e-002
      vertex -7.500000e-001  1.008161e+000  1.235708e-001
    endloop
  endfacet
  facet normal -1.686260e-003  9.660853e-001  2.582177e-001
    outer loop
      vertex -7.500000e-001  1.008161e+000  1.235708e-001
      vertex -7.500000e-001  9.704539e-001  2.646477e-001
      vertex  5.312500e-001  9.796231e-001  2.387094e-001
    endloop
  endfacet
  facet normal  1.658350e-003  9.142664e-001  4.051102e-001
    outer loop
      vertex  5.312500e-001  9.212576e-001  3.704308e-001
      vertex  5.312500e-001  9.796231e-001  2.387094e-001
      vertex -7.500000e-001  9.704539e-001  2.646477e-001
    endloop
  endfacet
  facet normal -1.776809e-003  8.983349e-001  4.393078e-001
    outer loop
      vertex -7.500000e-001  9.704539e-001  2.646477e-001
      vertex -7.500000e-001  9.063020e-001  3.958311e-001
      vertex  5.312500e-001  9.212576e-001  3.704308e-001
    endloop
  endfacet
  facet normal  1.746971e-003  8.207059e-001  5.713482e-001
    outer loop
      vertex  5.312500e-001  8.389415e-001  4.886726e-001
      vertex  5.312500e-001  9.212576e-001  3.704308e-001
      vertex -7.500000e-001  9.063020e-001  3.958311e-001
    endloop
  endfacet
  facet normal -1.863403e-003  7.970015e-001  6.039744e-001
    outer loop
      vertex -7.500000e-001  9.063020e-001  3.958311e-001
      vertex -7.500000e-001  8.181040e-001  5.122168e-001
      vertex  5.312500e-001  8.389415e-001  4.886726e-001
    endloop
  endfacet
  facet normal  1.831605e-003  6.972806e-001  7.167960e-001
    outer loop
      vertex  5.312500e-001  7.356703e-001  5.891322e-001
      vertex  5.312500e-001  8.389415e-001  4.886726e-001
      vertex -7.500000e-001  8.181040e-001  5.122168e-001
    endloop
  endfacet
  facet normal -1.946033e-003  6.658729e-001  7.460626e-001
    outer loop
      vertex -7.500000e-001  8.181040e-001  5.122168e-001
      vertex -7.500000e-001  7.091568e-001  6.094539e-001
      vertex  5.312500e-001  7.356703e-001  5.891322e-001
    endloop
  endfacet
  facet normal  1.912225e-003  5.484818e-001  8.361603e-001
    outer loop
      vertex  5.312500e-001  6.152019e-001  6.681538e-001
      vertex  5.312500e-001  7.356703e-001  5.891322e-001
      vertex -7.500000e-001  7.091568e-001  6.094539e-001
    endloop
  endfacet
  facet normal -2.024657e-003  5.098518e-001  8.602598e-001
    outer loop
      vertex -7.500000e-001  7.091568e-001  6.094539e-001
      vertex -7.500000e-001  5.835335e-001  6.839073e-001
      vertex  5.312500e-001  6.152019e-001  6.681538e-001
    endloop
  endfacet
  facet normal  1.988861e-003  3.797252e-001  9.250972e-001
    outer loop
      vertex  5.312500e-001  4.819200e-001  7.228621e-001
      vertex  5.312500e-001  6.152019e-001  6.681538e-001
      vertex -7.500000e-001  5.835335e-001  6.839073e-001
    endloop
  endfacet
  facet normal -2.099337e-003  3.347707e-001  9.422973e-001
    outer loop
      vertex -7.500000e-001  5.835335e-001  6.839073e-001
      vertex -7.500000e-001  4.459302e-001  7.327937e-001
      vertex  5.312500e-001  4.819200e-001  7.228621e-001
    endloop
  endfacet
  facet normal  2.061504e-003  1.971498e-001  9.803712e-001
    outer loop
      vertex  5.312500e-001  3.406745e-001  7.512662e-001
      vertex  5.312500e-001  4.819200e-001  7.228621e-001
      vertex -7.500000e-001  4.459302e-001  7.327937e-001
    endloop
  endfacet
  facet normal -2.169977e-003  1.471745e-001  9.891081e-001
    outer loop
      vertex -7.500000e-001  4.459302e-001  7.327937e-001
      vertex -7.500000e-001  3.014912e-001  7.542856e-001
      vertex  5.312500e-001  3.406745e-001  7.512662e-001
    endloop
  endfacet
  facet normal  2.130195e-003  7.400861e-003  9.999703e-001
    outer loop
      vertex  5.312500e-001  1.966054e-001  7.523324e-001
      vertex  5.312500e-001  3.406745e-001  7.512662e-001
      vertex -7.500000e-001  3.014912e-001  7.542856e-001
    endloop
  endfacet
  facet normal -2.236642e-003 -4.592382e-002  9.989424e-001
    outer loop
      vertex -7.500000e-001  3.014912e-001  7.542856e-001
      vertex -7.500000e-001  1.556160e-001  7.475793e-001
      vertex  5.312500e-001  1.966054e-001  7.523324e-001
    endloop
  endfacet
  facet normal  2.194873e-003 -1.826170e-001  9.831817e-001
    outer loop
      vertex  5.312500e-001  5.495497e-002  7.260222e-001
      vertex  5.312500e-001  1.966054e-001  7.523324e-001
      vertex -7.500000e-001  1.556160e-001  7.475793e-001
    endloop
  endfacet
  facet normal -2.299345e-003 -2.373049e-001  9.714325e-001
    outer loop
      vertex -7.500000e-001  1.556160e-001  7.475793e-001
      vertex -7.500000e-001  1.375807e-002  7.129258e-001
      vertex  5.312500e-001  5.495497e-002  7.260222e-001
    endloop
  endfacet
  facet normal  2.255555e-003 -3.659898e-001  9.306161e-001
    outer loop
      vertex  5.312500e-001 -7.912213e-002  6.732928e-001
      vertex  5.312500e-001  5.495497e-002  7.260222e-001
      vertex -7.500000e-001  1.375807e-002  7.129258e-001
    endloop
  endfacet
  facet normal -2.358065e-003 -4.198148e-001  9.076067e-001
    outer loop
      vertex -7.500000e-001  1.375807e-002  7.129258e-001
      vertex -7.500000e-001 -1.187794e-001  6.516204e-001
      vertex  5.312500e-001 -7.912213e-002  6.732928e-001
    endloop
  endfacet
  facet normal  2.312247e-003 -5.360448e-001  8.441864e-001
    outer loop
      vertex  5.312500e-001 -2.007470e-001  5.960629e-001
      vertex  5.312500e-001 -7.912213e-002  6.732928e-001
      vertex -7.500000e-001 -1.187794e-001  6.516204e-001
    endloop
  endfacet
  facet normal -2.412770e-003 -5.866302e-001  8.098513e-001
    outer loop
      vertex -7.500000e-001 -1.187794e-001  6.516204e-001
      vertex -7.500000e-001 -2.370417e-001  5.659550e-001
      vertex  5.312500e-001 -2.007470e-001  5.960629e-001
    endloop
  endfacet
  facet normal  2.364979e-003 -6.865936e-001  7.270376e-001
    outer loop
      vertex  5.312500e-001 -3.054939e-001  4.971429e-001
      vertex  5.312500e-001 -2.007470e-001  5.960629e-001
      vertex -7.500000e-001 -2.370417e-001  5.659550e-001
    endloop
  endfacet
  facet normal -2.463487e-003 -7.315153e-001  6.818206e-001
    outer loop
      vertex -7.500000e-001 -2.370417e-001  5.659550e-001
      vertex -7.500000e-001 -3.366078e-001  4.591320e-001
      vertex  5.312500e-001 -3.054939e-001  4.971429e-001
    endloop
  endfacet
  facet normal  2.413705e-003 -8.121578e-001  5.834329e-001
    outer loop
      vertex  5.312500e-001 -3.895511e-001  3.801325e-001
      vertex  5.312500e-001 -3.054939e-001  4.971429e-001
      vertex -7.500000e-001 -3.366078e-001  4.591320e-001
    endloop
  endfacet
  facet normal -2.510220e-003 -8.490535e-001  5.283010e-001
    outer loop
      vertex -7.500000e-001 -3.366078e-001  4.591320e-001
      vertex -7.500000e-001 -4.137554e-001  3.351450e-001
      vertex  5.312500e-001 -3.895511e-001  3.801325e-001
    endloop
  endfacet
  facet normal  2.458453e-003 -9.081684e-001  4.185976e-001
    outer loop
      vertex  5.312500e-001 -4.498600e-001  2.492894e-001
      vertex  5.312500e-001 -3.895511e-001  3.801325e-001
      vertex -7.500000e-001 -4.137554e-001  3.351450e-001
    endloop
  endfacet
  facet normal -2.552961e-003 -9.348509e-001  3.550313e-001
    outer loop
      vertex -7.500000e-001 -4.137554e-001  3.351450e-001
      vertex -7.500000e-001 -4.656005e-001  1.986290e-001
      vertex  5.312500e-001 -4.498600e-001  2.492894e-001
    endloop
  endfacet
  facet normal  2.499210e-003 -9.711319e-001  2.385300e-001
    outer loop
      vertex  5.312500e-001 -4.842258e-001  1.093750e-001
      vertex  5.312500e-001 -4.498600e-001  2.492894e-001
      vertex -7.500000e-001 -4.656005e-001  1.986290e-001
    endloop
  endfacet
  facet normal -2.591702e-003 -9.857001e-001  1.684895e-001
    outer loop
      vertex  5.312500e-001 -4.842258e-001  1.093750e-001
      vertex -7.500000e-001 -4.656005e-001  1.986290e-001
      vertex -7.500000e-001 -4.902050e-001  5.468750e-002
    endloop
  endfacet
  facet normal  1.801877e-003 -9.977599e-001  6.687272e-002
    outer loop
      vertex  5.312500e-001 -4.842258e-001  1.093750e-001
      vertex -7.500000e-001 -4.902050e-001  5.468750e-002
      vertex -7.493234e-001 -4.907786e-001  4.611136e-002
    endloop
  endfacet
  facet normal  2.338659e-003 -9.984238e-001  5.607603e-002
    outer loop
      vertex  5.312500e-001 -4.842258e-001  1.093750e-001
      vertex -7.493234e-001 -4.907786e-001  4.611136e-002
      vertex -7.473047e-001 -4.912438e-001  3.774305e-002
    endloop
  endfacet
  facet normal  2.912251e-003 -9.989423e-001  4.588882e-002
    outer loop
      vertex  5.312500e-001 -4.842258e-001  1.093750e-001
      vertex -7.473047e-001 -4.912438e-001  3.774305e-002
      vertex -7.439784e-001 -4.916014e-001  2.974879e-002
    endloop
  endfacet
  facet normal  3.489380e-003 -9.993209e-001  3.668106e-002
    outer loop
      vertex  5.312500e-001 -4.842258e-001  1.093750e-001
      vertex -7.439784e-001 -4.916014e-001  2.974879e-002
      vertex -7.394595e-001 -4.918549e-001  2.241110e-002
    endloop
  endfacet
  facet normal  4.029098e-003 -9.995766e-001  2.881716e-002
    outer loop
      vertex  5.312500e-001 -4.842258e-001  1.093750e-001
      vertex -7.394595e-001 -4.918549e-001  2.241110e-002
      vertex -7.338434e-001 -4.920205e-001  1.588444e-002
    endloop
  endfacet
  facet normal  4.487665e-003 -9.997339e-001  2.262506e-002
    outer loop
      vertex  5.312500e-001 -4.842258e-001  1.093750e-001
      vertex -7.338434e-001 -4.920205e-001  1.588444e-002
      vertex -7.272375e-001 -4.921174e-001  1.029036e-002
    endloop
  endfacet
  facet normal  4.805798e-003 -9.998156e-001  1.859091e-002
    outer loop
      vertex  5.312500e-001 -4.842258e-001  1.093750e-001
      vertex -7.272375e-001 -4.921174e-001  1.029036e-002
      vertex -7.198731e-001 -4.921650e-001  5.825430e-003
    endloop
  endfacet
  facet normal  4.890412e-003 -9.998337e-001  1.756997e-002
    outer loop
      vertex  5.312500e-001 -4.842258e-001  1.093750e-001
      vertex -7.198731e-001 -4.921650e-001  5.825430e-003
      vertex -7.118841e-001 -4.921831e-001  2.572353e-003
    endloop
  endfacet
  facet normal  4.543414e-003 -9.997563e-001  2.160309e-002
    outer loop
      vertex  5.312500e-001 -4.842258e-001  1.093750e-001
      vertex -7.118841e-001 -4.921831e-001  2.572353e-003
      vertex -7.034832e-001 -4.921873e-001  6.138330e-004
    endloop
  endfacet
  facet normal  2.949882e-003 -9.992091e-001  3.965394e-002
    outer loop
      vertex  5.312500e-001 -4.842258e-001  1.093750e-001
      vertex -7.034832e-001 -4.921873e-001  6.138330e-004
      vertex -6.953125e-001 -4.921875e-001  0.000000e+000
    endloop
  endfacet
  facet normal  0.000000e+000 -9.973611e-001  7.260024e-002
    outer loop
      vertex  5.312500e-001 -4.842258e-001  1.093750e-001
      vertex -6.953125e-001 -4.921875e-001  0.000000e+000
      vertex  2.109375e-001 -4.921875e-001  0.000000e+000
    endloop
  endfacet
  facet normal  0.000000e+000 -6.340608e-001 -7.732832e-001
    outer loop
      vertex  5.312500e-001 -2.693286e-001 -5.356941e-001
      vertex -7.500000e-001 -2.693286e-001 -5.356941e-001
      vertex  5.312500e-001 -1.579193e-001 -6.270452e-001
    endloop
  endfacet
  facet normal -1.462841e-004 -6.330543e-001 -7.741074e-001
    outer loop
      vertex  5.312500e-001 -1.579193e-001 -6.270452e-001
      vertex -7.500000e-001 -2.693286e-001 -5.356941e-001
      vertex -7.500000e-001 -1.562863e-001 -6.281385e-001
    endloop
  endfacet
  facet normal  1.443198e-004 -4.756866e-001 -8.796148e-001
    outer loop
      vertex  5.312500e-001 -1.579193e-001 -6.270452e-001
      vertex -7.500000e-001 -1.562863e-001 -6.281385e-001
      vertex  5.312500e-001 -3.119047e-002 -6.955788e-001
    endloop
  endfacet
  facet normal -2.886105e-004 -4.722498e-001 -8.814647e-001
    outer loop
      vertex  5.312500e-001 -3.119047e-002 -6.955788e-001
      vertex -7.500000e-001 -1.562863e-001 -6.281385e-001
      vertex -7.500000e-001 -2.756670e-002 -6.971008e-001
    endloop
  endfacet
  facet normal  2.846470e-004 -3.000022e-001 -9.539385e-001
    outer loop
      vertex  5.312500e-001 -3.119047e-002 -6.955788e-001
      vertex -7.500000e-001 -2.756670e-002 -6.971008e-001
      vertex  5.312500e-001  1.062464e-001 -7.388011e-001
    endloop
  endfacet
  facet normal -1.000000e+000  0.000000e+000  0.000000e+000
    outer loop
      vertex -7.500000e-001  3.174273e-001  5.468750e-002
      vertex -7.500000e-001 -4.902050e-001  5.468750e-002
      vertex -7.500000e-001  1.008161e+000  1.235708e-001
    endloop
  endfacet
  facet normal -1.000000e+000  0.000000e+000  -0.000000e+000
    outer loop
      vertex -7.500000e-001  3.174273e-001  5.468750e-002
      vertex -7.500000e-001  1.008161e+000  1.235708e-001
      vertex -7.500000e-001  1.018015e+000 -2.212560e-002
    endloop
  endfacet
  facet normal -1.000000e+000  -0.000000e+000  0.000000e+000
    outer loop
      vertex -7.500000e-001  3.174273e-001  5.468750e-002
      vertex -7.500000e-001  1.018015e+000 -2.212560e-002
      vertex -7.500000e-001  9.996455e-001 -1.669949e-001
    endloop
  endfacet
  facet normal -1.000000e+000  -0.000000e+000  0.000000e+000
    outer loop
      vertex -7.500000e-001  3.174273e-001  5.468750e-002
      vertex -7.500000e-001  9.996455e-001 -1.669949e-001
      vertex -7.500000e-001  9.537406e-001 -3.056213e-001
    endloop
  endfacet
  facet normal -1.000000e+000  -0.000000e+000  0.000000e+000
    outer loop
      vertex -7.500000e-001  3.174273e-001  5.468750e-002
      vertex -7.500000e-001  9.537406e-001 -3.056213e-001
      vertex -7.500000e-001  8.820161e-001 -4.328224e-001
    endloop
  endfacet
  facet normal -1.000000e+000  -0.000000e+000  0.000000e+000
    outer loop
      vertex -7.500000e-001  3.174273e-001  5.468750e-002
      vertex -7.500000e-001  8.820161e-001 -4.328224e-001
      vertex -7.500000e-001  7.871532e-001 -5.438430e-001
    endloop
  endfacet
  facet normal -9.999999e-001  0.000000e+000  0.000000e+000
    outer loop
      vertex -7.500000e-001  3.174273e-001  5.468750e-002
      vertex -7.500000e-001  7.871532e-001 -5.438430e-001
      vertex -7.500000e-001 -2.693286e-001 -5.356941e-001
    endloop
  endfacet
  facet normal -1.000000e+000  -0.000000e+000  0.000000e+000
    outer loop
      vertex -7.500000e-001 -2.693286e-001 -5.356941e-001
      vertex -7.500000e-001  7.871532e-001 -5.438430e-001
      vertex -7.500000e-001 -1.562863e-001 -6.281385e-001
    endloop
  endfacet
  facet normal -1.000000e+000  0.000000e+000  0.000000e+000
    outer loop
      vertex -7.500000e-001 -1.562863e-001 -6.281385e-001
      vertex -7.500000e-001  7.871532e-001 -5.438430e-001
      vertex -7.500000e-001  6.726983e-001 -6.345327e-001
    endloop
  endfacet
  facet normal -1.000000e+000  -0.000000e+000  0.000000e+000
    outer loop
      vertex -7.500000e-001 -1.562863e-001 -6.281385e-001
      vertex -7.500000e-001  6.726983e-001 -6.345327e-001
      vertex -7.500000e-001 -2.756670e-002 -6.971008e-001
    endloop
  endfacet
  facet normal -1.000000e+000  0.000000e+000  0.000000e+000
    outer loop
      vertex -7.500000e-001 -2.756670e-002 -6.971008e-001
      vertex -7.500000e-001  6.726983e-001 -6.345327e-001
      vertex -7.500000e-001  5.429302e-001 -7.015012e-001
    endloop
  endfacet
  facet normal -1.000000e+000  -0.000000e+000  0.000000e+000
    outer loop
      vertex -7.500000e-001 -2.756670e-002 -6.971008e-001
      vertex -7.500000e-001  5.429302e-001 -7.015012e-001
      vertex -7.500000e-001  1.120182e-001 -7.400028e-001
    endloop
  endfacet
  facet normal -1.000000e+000  0.000000e+000  0.000000e+000
    outer loop
      vertex -7.500000e-001  1.120182e-001 -7.400028e-001
      vertex -7.500000e-001  5.429302e-001 -7.015012e-001
      vertex -7.500000e-001  4.027001e-001 -7.422449e-001
    endloop
  endfacet
  facet normal -1.000000e+000  -0.000000e+000  0.000000e+000
    outer loop
      vertex -7.500000e-001  1.120182e-001 -7.400028e-001
      vertex -7.500000e-001  4.027001e-001 -7.422449e-001
      vertex -7.500000e-001  2.572502e-001 -7.552407e-001
    endloop
  endfacet
  facet normal -1.000000e+000  0.000000e+000  0.000000e+000
    outer loop
      vertex -7.500000e-001  1.008161e+000  1.235708e-001
      vertex -7.500000e-001 -4.902050e-001  5.468750e-002
      vertex -7.500000e-001  9.704539e-001  2.646477e-001
    endloop
  endfacet
  facet normal -1.000000e+000  0.000000e+000  0.000000e+000
    outer loop
      vertex -7.500000e-001  9.704539e-001  2.646477e-001
      vertex -7.500000e-001 -4.902050e-001  5.468750e-002
      vertex -7.500000e-001 -4.656005e-001  1.986290e-001
    endloop
  endfacet
  facet normal -1.000000e+000  0.000000e+000  0.000000e+000
    outer loop
      vertex -7.500000e-001  9.704539e-001  2.646477e-001
      vertex -7.500000e-001 -4.656005e-001  1.986290e-001
      vertex -7.500000e-001  9.063020e-001  3.958311e-001
    endloop
  endfacet
  facet normal -9.999999e-001  0.000000e+000  0.000000e+000
    outer loop
      vertex -7.500000e-001  9.063020e-001  3.958311e-001
      vertex -7.500000e-001 -4.656005e-001  1.986290e-001
      vertex -7.500000e-001 -4.137554e-001  3.351450e-001
    endloop
  endfacet
  facet normal -1.000000e+000  0.000000e+000  0.000000e+000
    outer loop
      vertex -7.500000e-001  9.063020e-001  3.958311e-001
      vertex -7.500000e-001 -4.137554e-001  3.351450e-001
      vertex -7.500000e-001  8.181040e-001  5.122168e-001
    endloop
  endfacet
  facet normal -1.000000e+000  0.000000e+000  0.000000e+000
    outer loop
      vertex -7.500000e-001  8.181040e-001  5.122168e-001
      vertex -7.500000e-001 -4.137554e-001  3.351450e-001
      vertex -7.500000e-001 -3.366078e-001  4.591320e-001
    endloop
  endfacet
  facet normal -1.000000e+000  0.000000e+000  0.000000e+000
    outer loop
      vertex -7.500000e-001  8.181040e-001  5.122168e-001
      vertex -7.500000e-001 -3.366078e-001  4.591320e-001
      vertex -7.500000e-001  7.091568e-001  6.094539e-001
    endloop
  endfacet
  facet normal -1.000000e+000  0.000000e+000  0.000000e+000
    outer loop
      vertex -7.500000e-001  7.091568e-001  6.094539e-001
      vertex -7.500000e-001 -3.366078e-001  4.591320e-001
      vertex -7.500000e-001 -2.370417e-001  5.659550e-001
    endloop
  endfacet
  facet normal -1.000000e+000  0.000000e+000  0.000000e+000
    outer loop
      vertex -7.500000e-001  7.091568e-001  6.094539e-001
      vertex -7.500000e-001 -2.370417e-001  5.659550e-001
      vertex -7.500000e-001  5.835335e-001  6.839073e-001
    endloop
  endfacet
  facet normal -1.000000e+000  0.000000e+000  0.000000e+000
    outer loop
      vertex -7.500000e-001  5.835335e-001  6.839073e-001
      vertex -7.500000e-001 -2.370417e-001  5.659550e-001
      vertex -7.500000e-001 -1.187794e-001  6.516204e-001
    endloop
  endfacet
  facet normal -1.000000e+000  0.000000e+000  0.000000e+000
    outer loop
      vertex -7.500000e-001  5.835335e-001  6.839073e-001
      vertex -7.500000e-001 -1.187794e-001  6.516204e-001
      vertex -7.500000e-001  4.459302e-001  7.327937e-001
    endloop
  endfacet
  facet normal -1.000000e+000  0.000000e+000  0.000000e+000
    outer loop
      vertex -7.500000e-001  4.459302e-001  7.327937e-001
      vertex -7.500000e-001 -1.187794e-001  6.516204e-001
      vertex -7.500000e-001  1.375807e-002  7.129258e-001
    endloop
  endfacet
  facet normal -1.000000e+000  0.000000e+000  0.000000e+000
    outer loop
      vertex -7.500000e-001  4.459302e-001  7.327937e-001
      vertex -7.500000e-001  1.375807e-002  7.129258e-001
      vertex -7.500000e-001  3.014912e-001  7.542856e-001
    endloop
  endfacet
  facet normal -1.000000e+000  0.000000e+000  0.000000e+000
    outer loop
      vertex -7.500000e-001  3.014912e-001  7.542856e-001
      vertex -7.500000e-001  1.375807e-002  7.129258e-001
      vertex -7.500000e-001  1.556160e-001  7.475793e-001
    endloop
  endfacet
  facet normal  0.000000e+000 -7.092813e-001  7.049254e-001
    outer loop
      vertex -7.500000e-001 -2.693286e-001 -5.356941e-001
      vertex  5.312500e-001 -2.693286e-001 -5.356941e-001
      vertex  5.312500e-001  3.717790e-001  1.093750e-001
    endloop
  endfacet
  facet normal  6.826433e-008 -7.092814e-001  7.049254e-001
    outer loop
      vertex -7.500000e-001 -2.693286e-001 -5.356941e-001
      vertex  5.312500e-001  3.717790e-001  1.093750e-001
      vertex  2.109375e-001  2.630756e-001  0.000000e+000
    endloop
  endfacet
  facet normal  0.000000e+000 -7.092813e-001  7.049255e-001
    outer loop
      vertex -7.500000e-001 -2.693286e-001 -5.356941e-001
      vertex  2.109375e-001  2.630756e-001  0.000000e+000
      vertex -6.953125e-001  2.630756e-001  0.000000e+000
    endloop
  endfacet
  facet normal -2.316491e-006 -7.092812e-001  7.049257e-001
    outer loop
      vertex -7.500000e-001 -2.693286e-001 -5.356941e-001
      vertex -6.953125e-001  2.630756e-001  0.000000e+000
      vertex -6.996251e-001  2.632449e-001  1.703089e-004
    endloop
  endfacet
  facet normal -5.930128e-007 -7.092813e-001  7.049256e-001
    outer loop
      vertex -7.500000e-001 -2.693286e-001 -5.356941e-001
      vertex -6.996251e-001  2.632449e-001  1.703089e-004
      vertex -7.038851e-001  2.637476e-001  6.760871e-004
    endloop
  endfacet
  facet normal  1.935743e-006 -7.092814e-001  7.049254e-001
    outer loop
      vertex -7.500000e-001 -2.693286e-001 -5.356941e-001
      vertex -7.038851e-001  2.637476e-001  6.760871e-004
      vertex -7.081289e-001  2.645893e-001  1.523007e-003
    endloop
  endfacet
  facet normal  3.421939e-007 -7.092813e-001  7.049254e-001
    outer loop
      vertex -7.500000e-001 -2.693286e-001 -5.356941e-001
      vertex -7.081289e-001  2.645893e-001  1.523007e-003
      vertex -7.122242e-001  2.657398e-001  2.680607e-003
    endloop
  endfacet
  facet normal -8.222603e-007 -7.092813e-001  7.049255e-001
    outer loop
      vertex -7.500000e-001 -2.693286e-001 -5.356941e-001
      vertex -7.122242e-001  2.657398e-001  2.680607e-003
      vertex -7.200739e-001  2.689662e-001  5.926903e-003
    endloop
  endfacet
  facet normal  1.204376e-006 -7.092814e-001  7.049255e-001
    outer loop
      vertex -7.500000e-001 -2.693286e-001 -5.356941e-001
      vertex -7.200739e-001  2.689662e-001  5.926903e-003
      vertex -7.272831e-001  2.733308e-001  1.031853e-002
    endloop
  endfacet
  facet normal -2.537997e-006 -7.092814e-001  7.049255e-001
    outer loop
      vertex -7.500000e-001 -2.693286e-001 -5.356941e-001
      vertex -7.272831e-001  2.733308e-001  1.031853e-002
      vertex -7.317461e-001  2.768958e-001  1.390549e-002
    endloop
  endfacet
  facet normal  3.912074e-006 -7.092814e-001  7.049255e-001
    outer loop
      vertex -7.500000e-001 -2.693286e-001 -5.356941e-001
      vertex -7.317461e-001  2.768958e-001  1.390549e-002
      vertex -7.356929e-001  2.807797e-001  1.781341e-002
    endloop
  endfacet
  facet normal -7.685561e-007 -7.092813e-001  7.049255e-001
    outer loop
      vertex -7.500000e-001 -2.693286e-001 -5.356941e-001
      vertex -7.356929e-001  2.807797e-001  1.781341e-002
      vertex -7.401599e-001  2.863277e-001  2.339572e-002
    endloop
  endfacet
  facet normal -7.057266e-007 -7.092814e-001  7.049255e-001
    outer loop
      vertex -7.500000e-001 -2.693286e-001 -5.356941e-001
      vertex -7.401599e-001  2.863277e-001  2.339572e-002
      vertex -7.437282e-001  2.921543e-001  2.925828e-002
    endloop
  endfacet
  facet normal -3.361035e-007 -7.092813e-001  7.049255e-001
    outer loop
      vertex -7.500000e-001 -2.693286e-001 -5.356941e-001
      vertex -7.437282e-001  2.921543e-001  2.925828e-002
      vertex -7.483456e-001  3.041706e-001  4.134888e-002
    endloop
  endfacet
  facet normal  1.696397e-006 -7.092813e-001  7.049255e-001
    outer loop
      vertex -7.500000e-001 -2.693286e-001 -5.356941e-001
      vertex -7.483456e-001  3.041706e-001  4.134888e-002
      vertex -7.500000e-001  3.174273e-001  5.468750e-002
    endloop
  endfacet
  facet normal -9.968979e-001  7.547159e-004 -7.870276e-002
    outer loop
      vertex -7.500000e-001 -4.902050e-001  5.468750e-002
      vertex -7.483456e-001  3.041706e-001  4.134888e-002
      vertex -7.493234e-001 -4.907786e-001  4.611136e-002
    endloop
  endfacet
  facet normal -9.923954e-001  -0.000000e+000 -1.230911e-001
    outer loop
      vertex -7.500000e-001 -4.902050e-001  5.468750e-002
      vertex -7.500000e-001  3.174273e-001  5.468750e-002
      vertex -7.483456e-001  3.041706e-001  4.134888e-002
    endloop
  endfacet
  facet normal -3.947557e-002 -3.850455e-004 -9.992205e-001
    outer loop
      vertex -6.953125e-001  2.630756e-001  0.000000e+000
      vertex -7.034832e-001 -4.921873e-001  6.138330e-004
      vertex -6.996251e-001  2.632449e-001  1.703089e-004
    endloop
  endfacet
  facet normal -7.491479e-002  0.000000e+000 -9.971899e-001
    outer loop
      vertex -6.953125e-001  2.630756e-001  0.000000e+000
      vertex -6.953125e-001 -4.921875e-001  0.000000e+000
      vertex -7.034832e-001 -4.921873e-001  6.138330e-004
    endloop
  endfacet
  facet normal -1.178953e-001  1.909708e-005 -9.930260e-001
    outer loop
      vertex -6.996251e-001  2.632449e-001  1.703089e-004
      vertex -7.034832e-001 -4.921873e-001  6.138330e-004
      vertex -7.038851e-001  2.637476e-001  6.760871e-004
    endloop
  endfacet
  facet normal -2.270449e-001 -4.051182e-005 -9.738842e-001
    outer loop
      vertex -7.038851e-001  2.637476e-001  6.760871e-004
      vertex -7.034832e-001 -4.921873e-001  6.138330e-004
      vertex -7.118841e-001 -4.921831e-001  2.572353e-003
    endloop
  endfacet
  facet normal -1.957843e-001 -3.882628e-004 -9.806470e-001
    outer loop
      vertex -7.118841e-001 -4.921831e-001  2.572353e-003
      vertex -7.081289e-001  2.645893e-001  1.523007e-003
      vertex -7.038851e-001  2.637476e-001  6.760871e-004
    endloop
  endfacet
  facet normal -2.720026e-001  1.538801e-005 -9.622965e-001
    outer loop
      vertex -7.118841e-001 -4.921831e-001  2.572353e-003
      vertex -7.122242e-001  2.657398e-001  2.680607e-003
      vertex -7.081289e-001  2.645893e-001  1.523007e-003
    endloop
  endfacet
  facet normal -3.771283e-001 -3.694642e-005 -9.261611e-001
    outer loop
      vertex -7.122242e-001  2.657398e-001  2.680607e-003
      vertex -7.118841e-001 -4.921831e-001  2.572353e-003
      vertex -7.198731e-001 -4.921650e-001  5.825430e-003
    endloop
  endfacet
  facet normal -3.821577e-001  2.237555e-005 -9.240971e-001
    outer loop
      vertex -7.122242e-001  2.657398e-001  2.680607e-003
      vertex -7.198731e-001 -4.921650e-001  5.825430e-003
      vertex -7.200739e-001  2.689662e-001  5.926903e-003
    endloop
  endfacet
  facet normal -5.184429e-001 -2.277733e-005 -8.551122e-001
    outer loop
      vertex -7.200739e-001  2.689662e-001  5.926903e-003
      vertex -7.198731e-001 -4.921650e-001  5.825430e-003
      vertex -7.272375e-001 -4.921174e-001  1.029036e-002
    endloop
  endfacet
  facet normal -5.202427e-001  4.343600e-007 -8.540185e-001
    outer loop
      vertex -7.200739e-001  2.689662e-001  5.926903e-003
      vertex -7.272375e-001 -4.921174e-001  1.029036e-002
      vertex -7.272831e-001  2.733308e-001  1.031853e-002
    endloop
  endfacet
  facet normal -6.462418e-001 -1.041568e-005 -7.631326e-001
    outer loop
      vertex -7.272831e-001  2.733308e-001  1.031853e-002
      vertex -7.272375e-001 -4.921174e-001  1.029036e-002
      vertex -7.338434e-001 -4.920205e-001  1.588444e-002
    endloop
  endfacet
  facet normal -6.266000e-001 -2.966511e-004 -7.793409e-001
    outer loop
      vertex -7.317461e-001  2.768958e-001  1.390549e-002
      vertex -7.272831e-001  2.733308e-001  1.031853e-002
      vertex -7.338434e-001 -4.920205e-001  1.588444e-002
    endloop
  endfacet
  facet normal -7.035497e-001  9.003647e-005 -7.106462e-001
    outer loop
      vertex -7.317461e-001  2.768958e-001  1.390549e-002
      vertex -7.338434e-001 -4.920205e-001  1.588444e-002
      vertex -7.356929e-001  2.807797e-001  1.781341e-002
    endloop
  endfacet
  facet normal -7.580040e-001 -1.860503e-004 -6.522499e-001
    outer loop
      vertex -7.356929e-001  2.807797e-001  1.781341e-002
      vertex -7.338434e-001 -4.920205e-001  1.588444e-002
      vertex -7.394595e-001 -4.918549e-001  2.241110e-002
    endloop
  endfacet
  facet normal -7.807467e-001  8.788189e-005 -6.248477e-001
    outer loop
      vertex -7.356929e-001  2.807797e-001  1.781341e-002
      vertex -7.394595e-001 -4.918549e-001  2.241110e-002
      vertex -7.401599e-001  2.863277e-001  2.339572e-002
    endloop
  endfacet
  facet normal -8.514854e-001 -1.029087e-004 -5.243784e-001
    outer loop
      vertex -7.401599e-001  2.863277e-001  2.339572e-002
      vertex -7.394595e-001 -4.918549e-001  2.241110e-002
      vertex -7.439784e-001 -4.916014e-001  2.974879e-002
    endloop
  endfacet
  facet normal -8.542401e-001 -5.263874e-005 -5.198786e-001
    outer loop
      vertex -7.401599e-001  2.863277e-001  2.339572e-002
      vertex -7.439784e-001 -4.916014e-001  2.974879e-002
      vertex -7.437282e-001  2.921543e-001  2.925828e-002
    endloop
  endfacet
  facet normal -9.232641e-001  5.433241e-005 -3.841659e-001
    outer loop
      vertex -7.437282e-001  2.921543e-001  2.925828e-002
      vertex -7.439784e-001 -4.916014e-001  2.974879e-002
      vertex -7.473047e-001 -4.912438e-001  3.774305e-002
    endloop
  endfacet
  facet normal -9.340616e-001  3.966444e-004 -3.571117e-001
    outer loop
      vertex -7.437282e-001  2.921543e-001  2.925828e-002
      vertex -7.473047e-001 -4.912438e-001  3.774305e-002
      vertex -7.483456e-001  3.041706e-001  4.134888e-002
    endloop
  endfacet
  facet normal -9.721194e-001 -2.090492e-004 -2.344862e-001
    outer loop
      vertex -7.483456e-001  3.041706e-001  4.134888e-002
      vertex -7.473047e-001 -4.912438e-001  3.774305e-002
      vertex -7.493234e-001 -4.907786e-001  4.611136e-002
    endloop
  endfacet
  facet normal  1.000000e+000  -0.000000e+000  0.000000e+000
    outer loop
      vertex  5.312500e-001  3.717790e-001  1.093750e-001
      vertex  5.312500e-001 -2.693286e-001 -5.356941e-001
      vertex  5.312500e-001  7.757198e-001 -5.546336e-001
    endloop
  endfacet
  facet normal  1.000000e+000  0.000000e+000  -0.000000e+000
    outer loop
      vertex  5.312500e-001  3.717790e-001  1.093750e-001
      vertex  5.312500e-001  7.757198e-001 -5.546336e-001
      vertex  5.312500e-001  8.717114e-001 -4.471968e-001
    endloop
  endfacet
  facet normal  1.000000e+000  0.000000e+000  -0.000000e+000
    outer loop
      vertex  5.312500e-001  3.717790e-001  1.093750e-001
      vertex  5.312500e-001  8.717114e-001 -4.471968e-001
      vertex  5.312500e-001  9.455554e-001 -3.234870e-001
    endloop
  endfacet
  facet normal  1.000000e+000  0.000000e+000  -0.000000e+000
    outer loop
      vertex  5.312500e-001  3.717790e-001  1.093750e-001
      vertex  5.312500e-001  9.455554e-001 -3.234870e-001
      vertex  5.312500e-001  9.945647e-001 -1.880058e-001
    endloop
  endfacet
  facet normal  1.000000e+000  0.000000e+000  -0.000000e+000
    outer loop
      vertex  5.312500e-001  3.717790e-001  1.093750e-001
      vertex  5.312500e-001  9.945647e-001 -1.880058e-001
      vertex  5.312500e-001  1.016956e+000 -4.568325e-002
    endloop
  endfacet
  facet normal  1.000000e+000  0.000000e+000  0.000000e+000
    outer loop
      vertex  5.312500e-001  3.717790e-001  1.093750e-001
      vertex  5.312500e-001  1.016956e+000 -4.568325e-002
      vertex  5.312500e-001  1.011914e+000  9.830163e-002
    endloop
  endfacet
  facet normal  1.000000e+000  0.000000e+000  0.000000e+000
    outer loop
      vertex  5.312500e-001  3.717790e-001  1.093750e-001
      vertex  5.312500e-001  1.011914e+000  9.830163e-002
      vertex  5.312500e-001  9.796231e-001  2.387094e-001
    endloop
  endfacet
  facet normal  1.000000e+000  0.000000e+000  0.000000e+000
    outer loop
      vertex  5.312500e-001  3.717790e-001  1.093750e-001
      vertex  5.312500e-001  9.796231e-001  2.387094e-001
      vertex  5.312500e-001 -4.498600e-001  2.492894e-001
    endloop
  endfacet
  facet normal  1.000000e+000  0.000000e+000  0.000000e+000
    outer loop
      vertex  5.312500e-001  3.717790e-001  1.093750e-001
      vertex  5.312500e-001 -4.498600e-001  2.492894e-001
      vertex  5.312500e-001 -4.842258e-001  1.093750e-001
    endloop
  endfacet
  facet normal  1.000000e+000  0.000000e+000  0.000000e+000
    outer loop
      vertex  5.312500e-001  2.493902e-001 -7.551392e-001
      vertex  5.312500e-001  3.930319e-001 -7.439985e-001
      vertex  5.312500e-001  1.062464e-001 -7.388011e-001
    endloop
  endfacet
  facet normal  1.000000e+000  -0.000000e+000  0.000000e+000
    outer loop
      vertex  5.312500e-001  1.062464e-001 -7.388011e-001
      vertex  5.312500e-001  3.930319e-001 -7.439985e-001
      vertex  5.312500e-001  5.319447e-001 -7.057846e-001
    endloop
  endfacet
  facet normal  1.000000e+000  0.000000e+000  0.000000e+000
    outer loop
      vertex  5.312500e-001  1.062464e-001 -7.388011e-001
      vertex  5.312500e-001  5.319447e-001 -7.057846e-001
      vertex  5.312500e-001 -3.119047e-002 -6.955788e-001
    endloop
  endfacet
  facet normal  1.000000e+000  -0.000000e+000  0.000000e+000
    outer loop
      vertex  5.312500e-001 -3.119047e-002 -6.955788e-001
      vertex  5.312500e-001  5.319447e-001 -7.057846e-001
      vertex  5.312500e-001  6.610736e-001 -6.418879e-001
    endloop
  endfacet
  facet normal  1.000000e+000  0.000000e+000  0.000000e+000
    outer loop
      vertex  5.312500e-001 -3.119047e-002 -6.955788e-001
      vertex  5.312500e-001  6.610736e-001 -6.418879e-001
      vertex  5.312500e-001 -1.579193e-001 -6.270452e-001
    endloop
  endfacet
  facet normal  1.000000e+000  -0.000000e+000  0.000000e+000
    outer loop
      vertex  5.312500e-001 -1.579193e-001 -6.270452e-001
      vertex  5.312500e-001  6.610736e-001 -6.418879e-001
      vertex  5.312500e-001  7.757198e-001 -5.546336e-001
    endloop
  endfacet
  facet normal  1.000000e+000  0.000000e+000  0.000000e+000
    outer loop
      vertex  5.312500e-001 -1.579193e-001 -6.270452e-001
      vertex  5.312500e-001  7.757198e-001 -5.546336e-001
      vertex  5.312500e-001 -2.693286e-001 -5.356941e-001
    endloop
  endfacet
  facet normal  1.000000e+000  -0.000000e+000  0.000000e+000
    outer loop
      vertex  5.312500e-001  7.356703e-001  5.891322e-001
      vertex  5.312500e-001 -3.054939e-001  4.971429e-001
      vertex  5.312500e-001  8.389415e-001  4.886726e-001
    endloop
  endfacet
  facet normal  1.000000e+000  0.000000e+000  0.000000e+000
    outer loop
      vertex  5.312500e-001  8.389415e-001  4.886726e-001
      vertex  5.312500e-001 -3.054939e-001  4.971429e-001
      vertex  5.312500e-001 -3.895511e-001  3.801325e-001
    endloop
  endfacet
  facet normal  1.000000e+000  -0.000000e+000  0.000000e+000
    outer loop
      vertex  5.312500e-001  8.389415e-001  4.886726e-001
      vertex  5.312500e-001 -3.895511e-001  3.801325e-001
      vertex  5.312500e-001  9.212576e-001  3.704308e-001
    endloop
  endfacet
  facet normal  1.000000e+000  0.000000e+000  0.000000e+000
    outer loop
      vertex  5.312500e-001  9.212576e-001  3.704308e-001
      vertex  5.312500e-001 -3.895511e-001  3.801325e-001
      vertex  5.312500e-001 -4.498600e-001  2.492894e-001
    endloop
  endfacet
  facet normal  1.000000e+000  -0.000000e+000  0.000000e+000
    outer loop
      vertex  5.312500e-001  9.212576e-001  3.704308e-001
      vertex  5.312500e-001 -4.498600e-001  2.492894e-001
      vertex  5.312500e-001  9.796231e-001  2.387094e-001
    endloop
  endfacet
  facet normal  1.000000e+000  0.000000e+000  0.000000e+000
    outer loop
      vertex  5.312500e-001 -3.054939e-001  4.971429e-001
      vertex  5.312500e-001  7.356703e-001  5.891322e-001
      vertex  5.312500e-001 -2.007470e-001  5.960629e-001
    endloop
  endfacet
  facet normal  1.000000e+000  -0.000000e+000  0.000000e+000
    outer loop
      vertex  5.312500e-001 -2.007470e-001  5.960629e-001
      vertex  5.312500e-001  7.356703e-001  5.891322e-001
      vertex  5.312500e-001  6.152019e-001  6.681538e-001
    endloop
  endfacet
  facet normal  1.000000e+000  0.000000e+000  0.000000e+000
    outer loop
      vertex  5.312500e-001 -2.007470e-001  5.960629e-001
      vertex  5.312500e-001  6.152019e-001  6.681538e-001
      vertex  5.312500e-001 -7.912213e-002  6.732928e-001
    endloop
  endfacet
  facet normal  1.000000e+000  -0.000000e+000  0.000000e+000
    outer loop
      vertex  5.312500e-001 -7.912213e-002  6.732928e-001
      vertex  5.312500e-001  6.152019e-001  6.681538e-001
      vertex  5.312500e-001  4.819200e-001  7.228621e-001
    endloop
  endfacet
  facet normal  9.999999e-001  0.000000e+000  0.000000e+000
    outer loop
      vertex  5.312500e-001 -7.912213e-002  6.732928e-001
      vertex  5.312500e-001  4.819200e-001  7.228621e-001
      vertex  5.312500e-001  5.495497e-002  7.260222e-001
    endloop
  endfacet
  facet normal  9.999999e-001  -0.000000e+000  0.000000e+000
    outer loop
      vertex  5.312500e-001  5.495497e-002  7.260222e-001
      vertex  5.312500e-001  4.819200e-001  7.228621e-001
      vertex  5.312500e-001  3.406745e-001  7.512662e-001
    endloop
  endfacet
  facet normal  1.000000e+000  0.000000e+000  0.000000e+000
    outer loop
      vertex  5.312500e-001  5.495497e-002  7.260222e-001
      vertex  5.312500e-001  3.406745e-001  7.512662e-001
      vertex  5.312500e-001  1.966054e-001  7.523324e-001
    endloop
  endfacet
  facet normal  3.231438e-001  0.000000e+000 -9.463499e-001
    outer loop
      vertex  5.312500e-001  3.717790e-001  1.093750e-001
      vertex  5.312500e-001 -4.842258e-001  1.093750e-001
      vertex  2.109375e-001  2.630756e-001  0.000000e+000
    endloop
  endfacet
  facet normal  3.231438e-001  0.000000e+000 -9.463498e-001
    outer loop
      vertex  2.109375e-001  2.630756e-001  0.000000e+000
      vertex  5.312500e-001 -4.842258e-001  1.093750e-001
      vertex  2.109375e-001 -4.921875e-001  0.000000e+000
    endloop
  endfacet
endsolid CATIA STL
