solid CATIA STL
  facet normal  0.000000e+000  0.000000e+000  1.000000e+000
    outer loop
      vertex  5.921053e-001  6.179276e-001  4.687500e-002
      vertex  5.921053e-001  6.810855e-001  4.687500e-002
      vertex -5.921053e-001  6.810855e-001  4.687500e-002
    endloop
  endfacet
  facet normal  0.000000e+000  0.000000e+000  1.000000e+000
    outer loop
      vertex  5.921053e-001  6.179276e-001  4.687500e-002
      vertex -5.921053e-001  6.810855e-001  4.687500e-002
      vertex -5.921053e-001  6.179276e-001  4.687500e-002
    endloop
  endfacet
  facet normal  -0.000000e+000  0.000000e+000  1.000000e+000
    outer loop
      vertex  5.921053e-001  6.179276e-001  4.687500e-002
      vertex -5.921053e-001  6.179276e-001  4.687500e-002
      vertex  7.460501e-001  6.075113e-001  4.687500e-002
    endloop
  endfacet
  facet normal  0.000000e+000  0.000000e+000  9.999999e-001
    outer loop
      vertex  5.921053e-001  6.179276e-001  4.687500e-002
      vertex  7.460501e-001  6.075113e-001  4.687500e-002
      vertex  7.265625e-001  6.179276e-001  4.687500e-002
    endloop
  endfacet
  facet normal  0.000000e+000  0.000000e+000  1.000000e+000
    outer loop
      vertex  7.500000e-001  5.944901e-001  4.687500e-002
      vertex -7.500000e-001 -2.031250e-001  4.687500e-002
      vertex -5.921053e-001 -2.031250e-001  4.687500e-002
    endloop
  endfacet
  facet normal  0.000000e+000  0.000000e+000  1.000000e+000
    outer loop
      vertex  7.500000e-001  5.944901e-001  4.687500e-002
      vertex -5.921053e-001 -2.031250e-001  4.687500e-002
      vertex  5.921053e-001 -2.031250e-001  4.687500e-002
    endloop
  endfacet
  facet normal  0.000000e+000  0.000000e+000  1.000000e+000
    outer loop
      vertex  7.500000e-001  5.944901e-001  4.687500e-002
      vertex  5.921053e-001 -2.031250e-001  4.687500e-002
      vertex  7.500000e-001 -2.031250e-001  4.687500e-002
    endloop
  endfacet
  facet normal  0.000000e+000  0.000000e+000  1.000000e+000
    outer loop
      vertex  7.460501e-001  6.075113e-001  4.687500e-002
      vertex  7.431353e-001  6.110629e-001  4.687500e-002
      vertex  7.395837e-001  6.139777e-001  4.687500e-002
    endloop
  endfacet
  facet normal  0.000000e+000  0.000000e+000  1.000000e+000
    outer loop
      vertex  7.460501e-001  6.075113e-001  4.687500e-002
      vertex  7.395837e-001  6.139777e-001  4.687500e-002
      vertex  7.355316e-001  6.161436e-001  4.687500e-002
    endloop
  endfacet
  facet normal  0.000000e+000  0.000000e+000  1.000000e+000
    outer loop
      vertex  7.460501e-001  6.075113e-001  4.687500e-002
      vertex  7.355316e-001  6.161436e-001  4.687500e-002
      vertex  7.311350e-001  6.174773e-001  4.687500e-002
    endloop
  endfacet
  facet normal  0.000000e+000  0.000000e+000  1.000000e+000
    outer loop
      vertex  7.460501e-001  6.075113e-001  4.687500e-002
      vertex  7.311350e-001  6.174773e-001  4.687500e-002
      vertex  7.265625e-001  6.179276e-001  4.687500e-002
    endloop
  endfacet
  facet normal  0.000000e+000  0.000000e+000  1.000000e+000
    outer loop
      vertex -7.500000e-001  6.179276e-001  4.687500e-002
      vertex -7.500000e-001 -2.031250e-001  4.687500e-002
      vertex  7.500000e-001  5.944901e-001  4.687500e-002
    endloop
  endfacet
  facet normal  0.000000e+000  0.000000e+000  1.000000e+000
    outer loop
      vertex -7.500000e-001  6.179276e-001  4.687500e-002
      vertex  7.500000e-001  5.944901e-001  4.687500e-002
      vertex  7.495496e-001  5.990626e-001  4.687500e-002
    endloop
  endfacet
  facet normal  0.000000e+000  0.000000e+000  1.000000e+000
    outer loop
      vertex -7.500000e-001  6.179276e-001  4.687500e-002
      vertex  7.495496e-001  5.990626e-001  4.687500e-002
      vertex  7.482159e-001  6.034593e-001  4.687500e-002
    endloop
  endfacet
  facet normal  0.000000e+000  0.000000e+000  1.000000e+000
    outer loop
      vertex -7.500000e-001  6.179276e-001  4.687500e-002
      vertex  7.482159e-001  6.034593e-001  4.687500e-002
      vertex  7.460501e-001  6.075113e-001  4.687500e-002
    endloop
  endfacet
  facet normal  0.000000e+000  0.000000e+000  1.000000e+000
    outer loop
      vertex -7.500000e-001  6.179276e-001  4.687500e-002
      vertex  7.460501e-001  6.075113e-001  4.687500e-002
      vertex -5.921053e-001  6.179276e-001  4.687500e-002
    endloop
  endfacet
  facet normal  0.000000e+000  0.000000e+000  1.000000e+000
    outer loop
      vertex -5.921053e-001 -2.662829e-001  4.687500e-002
      vertex  5.921053e-001 -2.662829e-001  4.687500e-002
      vertex -5.921053e-001 -2.031250e-001  4.687500e-002
    endloop
  endfacet
  facet normal  -0.000000e+000  0.000000e+000  1.000000e+000
    outer loop
      vertex -5.921053e-001 -2.031250e-001  4.687500e-002
      vertex  5.921053e-001 -2.662829e-001  4.687500e-002
      vertex  5.921053e-001 -2.031250e-001  4.687500e-002
    endloop
  endfacet
  facet normal  -0.000000e+000  -0.000000e+000 -9.999999e-001
    outer loop
      vertex  5.921053e-001  6.179276e-001  0.000000e+000
      vertex  7.265625e-001  6.179276e-001  0.000000e+000
      vertex  7.460501e-001  6.075113e-001  0.000000e+000
    endloop
  endfacet
  facet normal  0.000000e+000  0.000000e+000 -1.000000e+000
    outer loop
      vertex  5.921053e-001  6.179276e-001  0.000000e+000
      vertex  7.460501e-001  6.075113e-001  0.000000e+000
      vertex -5.921053e-001  6.179276e-001  0.000000e+000
    endloop
  endfacet
  facet normal  0.000000e+000  0.000000e+000 -1.000000e+000
    outer loop
      vertex  5.921053e-001  6.179276e-001  0.000000e+000
      vertex -5.921053e-001  6.179276e-001  0.000000e+000
      vertex -5.921053e-001  6.810855e-001  0.000000e+000
    endloop
  endfacet
  facet normal  0.000000e+000  0.000000e+000 -1.000000e+000
    outer loop
      vertex  5.921053e-001  6.179276e-001  0.000000e+000
      vertex -5.921053e-001  6.810855e-001  0.000000e+000
      vertex  5.921053e-001  6.810855e-001  0.000000e+000
    endloop
  endfacet
  facet normal  0.000000e+000  0.000000e+000 -1.000000e+000
    outer loop
      vertex  7.500000e-001  5.944901e-001  0.000000e+000
      vertex  7.500000e-001 -2.031250e-001  0.000000e+000
      vertex  5.921053e-001 -2.031250e-001  0.000000e+000
    endloop
  endfacet
  facet normal  0.000000e+000  0.000000e+000 -1.000000e+000
    outer loop
      vertex  7.500000e-001  5.944901e-001  0.000000e+000
      vertex  5.921053e-001 -2.031250e-001  0.000000e+000
      vertex -5.921053e-001 -2.031250e-001  0.000000e+000
    endloop
  endfacet
  facet normal  0.000000e+000  0.000000e+000 -1.000000e+000
    outer loop
      vertex  7.500000e-001  5.944901e-001  0.000000e+000
      vertex -5.921053e-001 -2.031250e-001  0.000000e+000
      vertex -7.500000e-001 -2.031250e-001  0.000000e+000
    endloop
  endfacet
  facet normal  0.000000e+000  0.000000e+000 -1.000000e+000
    outer loop
      vertex  7.460501e-001  6.075113e-001  0.000000e+000
      vertex  7.265625e-001  6.179276e-001  0.000000e+000
      vertex  7.311350e-001  6.174773e-001  0.000000e+000
    endloop
  endfacet
  facet normal  0.000000e+000  0.000000e+000 -1.000000e+000
    outer loop
      vertex  7.460501e-001  6.075113e-001  0.000000e+000
      vertex  7.311350e-001  6.174773e-001  0.000000e+000
      vertex  7.355316e-001  6.161436e-001  0.000000e+000
    endloop
  endfacet
  facet normal  0.000000e+000  0.000000e+000 -1.000000e+000
    outer loop
      vertex  7.460501e-001  6.075113e-001  0.000000e+000
      vertex  7.355316e-001  6.161436e-001  0.000000e+000
      vertex  7.395837e-001  6.139777e-001  0.000000e+000
    endloop
  endfacet
  facet normal  0.000000e+000  0.000000e+000 -1.000000e+000
    outer loop
      vertex  7.460501e-001  6.075113e-001  0.000000e+000
      vertex  7.395837e-001  6.139777e-001  0.000000e+000
      vertex  7.431353e-001  6.110629e-001  0.000000e+000
    endloop
  endfacet
  facet normal  -0.000000e+000  -0.000000e+000 -1.000000e+000
    outer loop
      vertex -7.500000e-001  6.179276e-001  0.000000e+000
      vertex -5.921053e-001  6.179276e-001  0.000000e+000
      vertex  7.460501e-001  6.075113e-001  0.000000e+000
    endloop
  endfacet
  facet normal  -0.000000e+000  -0.000000e+000 -1.000000e+000
    outer loop
      vertex -7.500000e-001  6.179276e-001  0.000000e+000
      vertex  7.460501e-001  6.075113e-001  0.000000e+000
      vertex  7.482159e-001  6.034593e-001  0.000000e+000
    endloop
  endfacet
  facet normal  -0.000000e+000  -0.000000e+000 -1.000000e+000
    outer loop
      vertex -7.500000e-001  6.179276e-001  0.000000e+000
      vertex  7.482159e-001  6.034593e-001  0.000000e+000
      vertex  7.495496e-001  5.990626e-001  0.000000e+000
    endloop
  endfacet
  facet normal  -0.000000e+000  -0.000000e+000 -1.000000e+000
    outer loop
      vertex -7.500000e-001  6.179276e-001  0.000000e+000
      vertex  7.495496e-001  5.990626e-001  0.000000e+000
      vertex  7.500000e-001  5.944901e-001  0.000000e+000
    endloop
  endfacet
  facet normal  -0.000000e+000  0.000000e+000 -1.000000e+000
    outer loop
      vertex -7.500000e-001  6.179276e-001  0.000000e+000
      vertex  7.500000e-001  5.944901e-001  0.000000e+000
      vertex -7.500000e-001 -2.031250e-001  0.000000e+000
    endloop
  endfacet
  facet normal  0.000000e+000  0.000000e+000 -1.000000e+000
    outer loop
      vertex -5.921053e-001 -2.662829e-001  0.000000e+000
      vertex -5.921053e-001 -2.031250e-001  0.000000e+000
      vertex  5.921053e-001 -2.662829e-001  0.000000e+000
    endloop
  endfacet
  facet normal  0.000000e+000  0.000000e+000 -1.000000e+000
    outer loop
      vertex  5.921053e-001 -2.662829e-001  0.000000e+000
      vertex -5.921053e-001 -2.031250e-001  0.000000e+000
      vertex  5.921053e-001 -2.031250e-001  0.000000e+000
    endloop
  endfacet
  facet normal  0.000000e+000  1.000000e+000  -0.000000e+000
    outer loop
      vertex  7.265625e-001  6.179276e-001  4.687500e-002
      vertex  7.265625e-001  6.179276e-001  0.000000e+000
      vertex  5.921053e-001  6.179276e-001  4.687500e-002
    endloop
  endfacet
  facet normal  0.000000e+000  1.000000e+000  0.000000e+000
    outer loop
      vertex  5.921053e-001  6.179276e-001  4.687500e-002
      vertex  7.265625e-001  6.179276e-001  0.000000e+000
      vertex  5.921053e-001  6.179276e-001  0.000000e+000
    endloop
  endfacet
  facet normal  1.000000e+000  0.000000e+000  0.000000e+000
    outer loop
      vertex  7.500000e-001 -2.031250e-001  4.687500e-002
      vertex  7.500000e-001 -2.031250e-001  0.000000e+000
      vertex  7.500000e-001  5.944901e-001  4.687500e-002
    endloop
  endfacet
  facet normal  1.000000e+000  0.000000e+000  0.000000e+000
    outer loop
      vertex  7.500000e-001  5.944901e-001  4.687500e-002
      vertex  7.500000e-001 -2.031250e-001  0.000000e+000
      vertex  7.500000e-001  5.944901e-001  0.000000e+000
    endloop
  endfacet
  facet normal  9.800980e-002  9.951854e-001  0.000000e+000
    outer loop
      vertex  7.265625e-001  6.179276e-001  0.000000e+000
      vertex  7.265625e-001  6.179276e-001  4.687500e-002
      vertex  7.311350e-001  6.174773e-001  0.000000e+000
    endloop
  endfacet
  facet normal  9.800980e-002  9.951854e-001  -0.000000e+000
    outer loop
      vertex  7.311350e-001  6.174773e-001  0.000000e+000
      vertex  7.265625e-001  6.179276e-001  4.687500e-002
      vertex  7.311350e-001  6.174773e-001  4.687500e-002
    endloop
  endfacet
  facet normal  2.902839e-001  9.569406e-001  0.000000e+000
    outer loop
      vertex  7.311350e-001  6.174773e-001  0.000000e+000
      vertex  7.311350e-001  6.174773e-001  4.687500e-002
      vertex  7.355316e-001  6.161436e-001  0.000000e+000
    endloop
  endfacet
  facet normal  2.902839e-001  9.569406e-001  -0.000000e+000
    outer loop
      vertex  7.355316e-001  6.161436e-001  0.000000e+000
      vertex  7.311350e-001  6.174773e-001  4.687500e-002
      vertex  7.355316e-001  6.161436e-001  4.687500e-002
    endloop
  endfacet
  facet normal  4.713954e-001  8.819220e-001  0.000000e+000
    outer loop
      vertex  7.355316e-001  6.161436e-001  0.000000e+000
      vertex  7.355316e-001  6.161436e-001  4.687500e-002
      vertex  7.395837e-001  6.139777e-001  0.000000e+000
    endloop
  endfacet
  facet normal  4.713954e-001  8.819220e-001  -0.000000e+000
    outer loop
      vertex  7.395837e-001  6.139777e-001  0.000000e+000
      vertex  7.355316e-001  6.161436e-001  4.687500e-002
      vertex  7.395837e-001  6.139777e-001  4.687500e-002
    endloop
  endfacet
  facet normal  6.343949e-001  7.730091e-001  0.000000e+000
    outer loop
      vertex  7.395837e-001  6.139777e-001  0.000000e+000
      vertex  7.395837e-001  6.139777e-001  4.687500e-002
      vertex  7.431353e-001  6.110629e-001  0.000000e+000
    endloop
  endfacet
  facet normal  6.343949e-001  7.730091e-001  -0.000000e+000
    outer loop
      vertex  7.431353e-001  6.110629e-001  0.000000e+000
      vertex  7.395837e-001  6.139777e-001  4.687500e-002
      vertex  7.431353e-001  6.110629e-001  4.687500e-002
    endloop
  endfacet
  facet normal  7.730154e-001  6.343871e-001  0.000000e+000
    outer loop
      vertex  7.431353e-001  6.110629e-001  0.000000e+000
      vertex  7.431353e-001  6.110629e-001  4.687500e-002
      vertex  7.460501e-001  6.075113e-001  0.000000e+000
    endloop
  endfacet
  facet normal  7.730154e-001  6.343871e-001  -0.000000e+000
    outer loop
      vertex  7.460501e-001  6.075113e-001  0.000000e+000
      vertex  7.431353e-001  6.110629e-001  4.687500e-002
      vertex  7.460501e-001  6.075113e-001  4.687500e-002
    endloop
  endfacet
  facet normal  8.819190e-001  4.714007e-001  0.000000e+000
    outer loop
      vertex  7.460501e-001  6.075113e-001  0.000000e+000
      vertex  7.460501e-001  6.075113e-001  4.687500e-002
      vertex  7.482159e-001  6.034593e-001  0.000000e+000
    endloop
  endfacet
  facet normal  8.819190e-001  4.714007e-001  -0.000000e+000
    outer loop
      vertex  7.482159e-001  6.034593e-001  0.000000e+000
      vertex  7.460501e-001  6.075113e-001  4.687500e-002
      vertex  7.482159e-001  6.034593e-001  4.687500e-002
    endloop
  endfacet
  facet normal  9.569416e-001  2.902803e-001  0.000000e+000
    outer loop
      vertex  7.482159e-001  6.034593e-001  0.000000e+000
      vertex  7.482159e-001  6.034593e-001  4.687500e-002
      vertex  7.495496e-001  5.990626e-001  0.000000e+000
    endloop
  endfacet
  facet normal  9.569416e-001  2.902803e-001  -0.000000e+000
    outer loop
      vertex  7.495496e-001  5.990626e-001  0.000000e+000
      vertex  7.482159e-001  6.034593e-001  4.687500e-002
      vertex  7.495496e-001  5.990626e-001  4.687500e-002
    endloop
  endfacet
  facet normal  9.951842e-001  9.802265e-002  0.000000e+000
    outer loop
      vertex  7.495496e-001  5.990626e-001  0.000000e+000
      vertex  7.495496e-001  5.990626e-001  4.687500e-002
      vertex  7.500000e-001  5.944901e-001  0.000000e+000
    endloop
  endfacet
  facet normal  9.951842e-001  9.802265e-002  -0.000000e+000
    outer loop
      vertex  7.500000e-001  5.944901e-001  0.000000e+000
      vertex  7.495496e-001  5.990626e-001  4.687500e-002
      vertex  7.500000e-001  5.944901e-001  4.687500e-002
    endloop
  endfacet
  facet normal -1.000000e+000  0.000000e+000  0.000000e+000
    outer loop
      vertex -7.500000e-001  6.179276e-001  4.687500e-002
      vertex -7.500000e-001  6.179276e-001  0.000000e+000
      vertex -7.500000e-001 -2.031250e-001  4.687500e-002
    endloop
  endfacet
  facet normal -1.000000e+000  0.000000e+000  0.000000e+000
    outer loop
      vertex -7.500000e-001 -2.031250e-001  4.687500e-002
      vertex -7.500000e-001  6.179276e-001  0.000000e+000
      vertex -7.500000e-001 -2.031250e-001  0.000000e+000
    endloop
  endfacet
  facet normal  0.000000e+000  1.000000e+000  -0.000000e+000
    outer loop
      vertex -5.921053e-001  6.179276e-001  4.687500e-002
      vertex -5.921053e-001  6.179276e-001  0.000000e+000
      vertex -7.500000e-001  6.179276e-001  4.687500e-002
    endloop
  endfacet
  facet normal  0.000000e+000  1.000000e+000  0.000000e+000
    outer loop
      vertex -7.500000e-001  6.179276e-001  4.687500e-002
      vertex -5.921053e-001  6.179276e-001  0.000000e+000
      vertex -7.500000e-001  6.179276e-001  0.000000e+000
    endloop
  endfacet
  facet normal -9.999999e-001  0.000000e+000  0.000000e+000
    outer loop
      vertex -5.921053e-001  6.810855e-001  4.687500e-002
      vertex -5.921053e-001  6.810855e-001  0.000000e+000
      vertex -5.921053e-001  6.179276e-001  4.687500e-002
    endloop
  endfacet
  facet normal -9.999999e-001  0.000000e+000  0.000000e+000
    outer loop
      vertex -5.921053e-001  6.179276e-001  4.687500e-002
      vertex -5.921053e-001  6.810855e-001  0.000000e+000
      vertex -5.921053e-001  6.179276e-001  0.000000e+000
    endloop
  endfacet
  facet normal  0.000000e+000  1.000000e+000  -0.000000e+000
    outer loop
      vertex  5.921053e-001  6.810855e-001  4.687500e-002
      vertex  5.921053e-001  6.810855e-001  0.000000e+000
      vertex -5.921053e-001  6.810855e-001  4.687500e-002
    endloop
  endfacet
  facet normal  0.000000e+000  1.000000e+000  0.000000e+000
    outer loop
      vertex -5.921053e-001  6.810855e-001  4.687500e-002
      vertex  5.921053e-001  6.810855e-001  0.000000e+000
      vertex -5.921053e-001  6.810855e-001  0.000000e+000
    endloop
  endfacet
  facet normal  9.999999e-001  0.000000e+000  0.000000e+000
    outer loop
      vertex  5.921053e-001  6.179276e-001  4.687500e-002
      vertex  5.921053e-001  6.179276e-001  0.000000e+000
      vertex  5.921053e-001  6.810855e-001  4.687500e-002
    endloop
  endfacet
  facet normal  9.999999e-001  0.000000e+000  0.000000e+000
    outer loop
      vertex  5.921053e-001  6.810855e-001  4.687500e-002
      vertex  5.921053e-001  6.179276e-001  0.000000e+000
      vertex  5.921053e-001  6.810855e-001  0.000000e+000
    endloop
  endfacet
  facet normal  0.000000e+000 -1.000000e+000  0.000000e+000
    outer loop
      vertex  5.921053e-001 -2.031250e-001  4.687500e-002
      vertex  5.921053e-001 -2.031250e-001  0.000000e+000
      vertex  7.500000e-001 -2.031250e-001  4.687500e-002
    endloop
  endfacet
  facet normal  0.000000e+000 -1.000000e+000  -0.000000e+000
    outer loop
      vertex  7.500000e-001 -2.031250e-001  4.687500e-002
      vertex  5.921053e-001 -2.031250e-001  0.000000e+000
      vertex  7.500000e-001 -2.031250e-001  0.000000e+000
    endloop
  endfacet
  facet normal  1.000000e+000  0.000000e+000  0.000000e+000
    outer loop
      vertex  5.921053e-001 -2.662829e-001  4.687500e-002
      vertex  5.921053e-001 -2.662829e-001  0.000000e+000
      vertex  5.921053e-001 -2.031250e-001  4.687500e-002
    endloop
  endfacet
  facet normal  1.000000e+000  0.000000e+000  0.000000e+000
    outer loop
      vertex  5.921053e-001 -2.031250e-001  4.687500e-002
      vertex  5.921053e-001 -2.662829e-001  0.000000e+000
      vertex  5.921053e-001 -2.031250e-001  0.000000e+000
    endloop
  endfacet
  facet normal  0.000000e+000 -1.000000e+000  0.000000e+000
    outer loop
      vertex -5.921053e-001 -2.662829e-001  4.687500e-002
      vertex -5.921053e-001 -2.662829e-001  0.000000e+000
      vertex  5.921053e-001 -2.662829e-001  4.687500e-002
    endloop
  endfacet
  facet normal  0.000000e+000 -1.000000e+000  -0.000000e+000
    outer loop
      vertex  5.921053e-001 -2.662829e-001  4.687500e-002
      vertex -5.921053e-001 -2.662829e-001  0.000000e+000
      vertex  5.921053e-001 -2.662829e-001  0.000000e+000
    endloop
  endfacet
  facet normal -1.000000e+000  0.000000e+000  0.000000e+000
    outer loop
      vertex -5.921053e-001 -2.031250e-001  4.687500e-002
      vertex -5.921053e-001 -2.031250e-001  0.000000e+000
      vertex -5.921053e-001 -2.662829e-001  4.687500e-002
    endloop
  endfacet
  facet normal -1.000000e+000  0.000000e+000  0.000000e+000
    outer loop
      vertex -5.921053e-001 -2.662829e-001  4.687500e-002
      vertex -5.921053e-001 -2.031250e-001  0.000000e+000
      vertex -5.921053e-001 -2.662829e-001  0.000000e+000
    endloop
  endfacet
  facet normal  0.000000e+000 -1.000000e+000  0.000000e+000
    outer loop
      vertex -7.500000e-001 -2.031250e-001  4.687500e-002
      vertex -7.500000e-001 -2.031250e-001  0.000000e+000
      vertex -5.921053e-001 -2.031250e-001  4.687500e-002
    endloop
  endfacet
  facet normal  0.000000e+000 -1.000000e+000  -0.000000e+000
    outer loop
      vertex -5.921053e-001 -2.031250e-001  4.687500e-002
      vertex -7.500000e-001 -2.031250e-001  0.000000e+000
      vertex -5.921053e-001 -2.031250e-001  0.000000e+000
    endloop
  endfacet
endsolid CATIA STL
