solid CATIA STL
  facet normal -9.951848e-001  0.000000e+000  9.801710e-002
    outer loop
      vertex -4.457237e-002 -6.640625e-001  1.562500e-001
      vertex -4.457237e-002 -8.984375e-001  1.562500e-001
      vertex -4.377281e-002 -6.640625e-001  1.643681e-001
    endloop
  endfacet
  facet normal -9.951848e-001  0.000000e+000  9.801710e-002
    outer loop
      vertex -4.377281e-002 -6.640625e-001  1.643681e-001
      vertex -4.457237e-002 -8.984375e-001  1.562500e-001
      vertex -4.377281e-002 -8.984375e-001  1.643681e-001
    endloop
  endfacet
  facet normal -9.569403e-001  0.000000e+000  2.902850e-001
    outer loop
      vertex -4.377281e-002 -6.640625e-001  1.643681e-001
      vertex -4.377281e-002 -8.984375e-001  1.643681e-001
      vertex -4.140485e-002 -6.640625e-001  1.721742e-001
    endloop
  endfacet
  facet normal -9.569403e-001  0.000000e+000  2.902850e-001
    outer loop
      vertex -4.140485e-002 -6.640625e-001  1.721742e-001
      vertex -4.377281e-002 -8.984375e-001  1.643681e-001
      vertex -4.140485e-002 -8.984375e-001  1.721742e-001
    endloop
  endfacet
  facet normal -8.819215e-001  0.000000e+000  4.713961e-001
    outer loop
      vertex -4.140485e-002 -6.640625e-001  1.721742e-001
      vertex -4.140485e-002 -8.984375e-001  1.721742e-001
      vertex -3.755951e-002 -6.640625e-001  1.793683e-001
    endloop
  endfacet
  facet normal -8.819215e-001  0.000000e+000  4.713961e-001
    outer loop
      vertex -3.755951e-002 -6.640625e-001  1.793683e-001
      vertex -4.140485e-002 -8.984375e-001  1.721742e-001
      vertex -3.755951e-002 -8.984375e-001  1.793683e-001
    endloop
  endfacet
  facet normal -7.730101e-001  0.000000e+000  6.343938e-001
    outer loop
      vertex -3.755951e-002 -6.640625e-001  1.793683e-001
      vertex -3.755951e-002 -8.984375e-001  1.793683e-001
      vertex -3.238454e-002 -6.640625e-001  1.856740e-001
    endloop
  endfacet
  facet normal -7.730101e-001  0.000000e+000  6.343938e-001
    outer loop
      vertex -3.238454e-002 -6.640625e-001  1.856740e-001
      vertex -3.755951e-002 -8.984375e-001  1.793683e-001
      vertex -3.238454e-002 -8.984375e-001  1.856740e-001
    endloop
  endfacet
  facet normal -6.343932e-001  0.000000e+000  7.730104e-001
    outer loop
      vertex -3.238454e-002 -6.640625e-001  1.856740e-001
      vertex -3.238454e-002 -8.984375e-001  1.856740e-001
      vertex -2.607883e-002 -6.640625e-001  1.908490e-001
    endloop
  endfacet
  facet normal -6.343932e-001  0.000000e+000  7.730104e-001
    outer loop
      vertex -2.607883e-002 -6.640625e-001  1.908490e-001
      vertex -3.238454e-002 -8.984375e-001  1.856740e-001
      vertex -2.607883e-002 -8.984375e-001  1.908490e-001
    endloop
  endfacet
  facet normal -4.713969e-001  0.000000e+000  8.819212e-001
    outer loop
      vertex -2.607883e-002 -6.640625e-001  1.908490e-001
      vertex -2.607883e-002 -8.984375e-001  1.908490e-001
      vertex -1.888469e-002 -6.640625e-001  1.946943e-001
    endloop
  endfacet
  facet normal -4.713969e-001  0.000000e+000  8.819212e-001
    outer loop
      vertex -1.888469e-002 -6.640625e-001  1.946943e-001
      vertex -2.607883e-002 -8.984375e-001  1.908490e-001
      vertex -1.888469e-002 -8.984375e-001  1.946943e-001
    endloop
  endfacet
  facet normal -2.902853e-001  0.000000e+000  9.569402e-001
    outer loop
      vertex -1.888469e-002 -6.640625e-001  1.946943e-001
      vertex -1.888469e-002 -8.984375e-001  1.946943e-001
      vertex -1.107859e-002 -6.640625e-001  1.970623e-001
    endloop
  endfacet
  facet normal -2.902853e-001  0.000000e+000  9.569402e-001
    outer loop
      vertex -1.107859e-002 -6.640625e-001  1.970623e-001
      vertex -1.888469e-002 -8.984375e-001  1.946943e-001
      vertex -1.107859e-002 -8.984375e-001  1.970623e-001
    endloop
  endfacet
  facet normal -9.801614e-002  0.000000e+000  9.951848e-001
    outer loop
      vertex -1.107859e-002 -6.640625e-001  1.970623e-001
      vertex -1.107859e-002 -8.984375e-001  1.970623e-001
      vertex -2.960526e-003 -6.640625e-001  1.978618e-001
    endloop
  endfacet
  facet normal -9.801614e-002  0.000000e+000  9.951848e-001
    outer loop
      vertex -2.960526e-003 -6.640625e-001  1.978618e-001
      vertex -1.107859e-002 -8.984375e-001  1.970623e-001
      vertex -2.960526e-003 -8.984375e-001  1.978618e-001
    endloop
  endfacet
  facet normal  9.801614e-002  -0.000000e+000  9.951848e-001
    outer loop
      vertex -2.960526e-003 -6.640625e-001  1.978618e-001
      vertex -2.960526e-003 -8.984375e-001  1.978618e-001
      vertex  5.157541e-003 -6.640625e-001  1.970623e-001
    endloop
  endfacet
  facet normal  9.801614e-002  0.000000e+000  9.951848e-001
    outer loop
      vertex  5.157541e-003 -6.640625e-001  1.970623e-001
      vertex -2.960526e-003 -8.984375e-001  1.978618e-001
      vertex  5.157541e-003 -8.984375e-001  1.970623e-001
    endloop
  endfacet
  facet normal  2.902853e-001  -0.000000e+000  9.569402e-001
    outer loop
      vertex  5.157541e-003 -6.640625e-001  1.970623e-001
      vertex  5.157541e-003 -8.984375e-001  1.970623e-001
      vertex  1.296364e-002 -6.640625e-001  1.946943e-001
    endloop
  endfacet
  facet normal  2.902853e-001  0.000000e+000  9.569402e-001
    outer loop
      vertex  1.296364e-002 -6.640625e-001  1.946943e-001
      vertex  5.157541e-003 -8.984375e-001  1.970623e-001
      vertex  1.296364e-002 -8.984375e-001  1.946943e-001
    endloop
  endfacet
  facet normal  4.713969e-001  -0.000000e+000  8.819212e-001
    outer loop
      vertex  1.296364e-002 -6.640625e-001  1.946943e-001
      vertex  1.296364e-002 -8.984375e-001  1.946943e-001
      vertex  2.015777e-002 -6.640625e-001  1.908490e-001
    endloop
  endfacet
  facet normal  4.713969e-001  0.000000e+000  8.819212e-001
    outer loop
      vertex  2.015777e-002 -6.640625e-001  1.908490e-001
      vertex  1.296364e-002 -8.984375e-001  1.946943e-001
      vertex  2.015777e-002 -8.984375e-001  1.908490e-001
    endloop
  endfacet
  facet normal  6.343932e-001  -0.000000e+000  7.730106e-001
    outer loop
      vertex  2.015777e-002 -6.640625e-001  1.908490e-001
      vertex  2.015777e-002 -8.984375e-001  1.908490e-001
      vertex  2.646349e-002 -6.640625e-001  1.856740e-001
    endloop
  endfacet
  facet normal  6.343932e-001  0.000000e+000  7.730106e-001
    outer loop
      vertex  2.646349e-002 -6.640625e-001  1.856740e-001
      vertex  2.015777e-002 -8.984375e-001  1.908490e-001
      vertex  2.646349e-002 -8.984375e-001  1.856740e-001
    endloop
  endfacet
  facet normal  7.730103e-001  -0.000000e+000  6.343935e-001
    outer loop
      vertex  2.646349e-002 -6.640625e-001  1.856740e-001
      vertex  2.646349e-002 -8.984375e-001  1.856740e-001
      vertex  3.163845e-002 -6.640625e-001  1.793683e-001
    endloop
  endfacet
  facet normal  7.730103e-001  0.000000e+000  6.343935e-001
    outer loop
      vertex  3.163845e-002 -6.640625e-001  1.793683e-001
      vertex  2.646349e-002 -8.984375e-001  1.856740e-001
      vertex  3.163845e-002 -8.984375e-001  1.793683e-001
    endloop
  endfacet
  facet normal  8.819215e-001  -0.000000e+000  4.713965e-001
    outer loop
      vertex  3.163845e-002 -6.640625e-001  1.793683e-001
      vertex  3.163845e-002 -8.984375e-001  1.793683e-001
      vertex  3.548380e-002 -6.640625e-001  1.721742e-001
    endloop
  endfacet
  facet normal  8.819215e-001  0.000000e+000  4.713965e-001
    outer loop
      vertex  3.548380e-002 -6.640625e-001  1.721742e-001
      vertex  3.163845e-002 -8.984375e-001  1.793683e-001
      vertex  3.548380e-002 -8.984375e-001  1.721742e-001
    endloop
  endfacet
  facet normal  9.569404e-001  -0.000000e+000  2.902845e-001
    outer loop
      vertex  3.548380e-002 -6.640625e-001  1.721742e-001
      vertex  3.548380e-002 -8.984375e-001  1.721742e-001
      vertex  3.785175e-002 -6.640625e-001  1.643681e-001
    endloop
  endfacet
  facet normal  9.569404e-001  0.000000e+000  2.902845e-001
    outer loop
      vertex  3.785175e-002 -6.640625e-001  1.643681e-001
      vertex  3.548380e-002 -8.984375e-001  1.721742e-001
      vertex  3.785175e-002 -8.984375e-001  1.643681e-001
    endloop
  endfacet
  facet normal  9.951847e-001  -0.000000e+000  9.801754e-002
    outer loop
      vertex  3.785175e-002 -6.640625e-001  1.643681e-001
      vertex  3.785175e-002 -8.984375e-001  1.643681e-001
      vertex  3.865132e-002 -6.640625e-001  1.562500e-001
    endloop
  endfacet
  facet normal  9.951847e-001  0.000000e+000  9.801754e-002
    outer loop
      vertex  3.865132e-002 -6.640625e-001  1.562500e-001
      vertex  3.785175e-002 -8.984375e-001  1.643681e-001
      vertex  3.865132e-002 -8.984375e-001  1.562500e-001
    endloop
  endfacet
  facet normal -9.951848e-001  0.000000e+000  9.801710e-002
    outer loop
      vertex -4.457237e-002  8.984375e-001  1.562500e-001
      vertex -4.457237e-002  6.640625e-001  1.562500e-001
      vertex -4.377281e-002  8.984375e-001  1.643681e-001
    endloop
  endfacet
  facet normal -9.951848e-001  0.000000e+000  9.801710e-002
    outer loop
      vertex -4.377281e-002  8.984375e-001  1.643681e-001
      vertex -4.457237e-002  6.640625e-001  1.562500e-001
      vertex -4.377281e-002  6.640625e-001  1.643681e-001
    endloop
  endfacet
  facet normal -9.569403e-001  0.000000e+000  2.902850e-001
    outer loop
      vertex -4.377281e-002  8.984375e-001  1.643681e-001
      vertex -4.377281e-002  6.640625e-001  1.643681e-001
      vertex -4.140485e-002  8.984375e-001  1.721742e-001
    endloop
  endfacet
  facet normal -9.569403e-001  0.000000e+000  2.902850e-001
    outer loop
      vertex -4.140485e-002  8.984375e-001  1.721742e-001
      vertex -4.377281e-002  6.640625e-001  1.643681e-001
      vertex -4.140485e-002  6.640625e-001  1.721742e-001
    endloop
  endfacet
  facet normal -8.819215e-001  0.000000e+000  4.713961e-001
    outer loop
      vertex -4.140485e-002  8.984375e-001  1.721742e-001
      vertex -4.140485e-002  6.640625e-001  1.721742e-001
      vertex -3.755951e-002  8.984375e-001  1.793683e-001
    endloop
  endfacet
  facet normal -8.819215e-001  0.000000e+000  4.713961e-001
    outer loop
      vertex -3.755951e-002  8.984375e-001  1.793683e-001
      vertex -4.140485e-002  6.640625e-001  1.721742e-001
      vertex -3.755951e-002  6.640625e-001  1.793683e-001
    endloop
  endfacet
  facet normal -7.730101e-001  0.000000e+000  6.343938e-001
    outer loop
      vertex -3.755951e-002  8.984375e-001  1.793683e-001
      vertex -3.755951e-002  6.640625e-001  1.793683e-001
      vertex -3.238454e-002  8.984375e-001  1.856740e-001
    endloop
  endfacet
  facet normal -7.730101e-001  0.000000e+000  6.343938e-001
    outer loop
      vertex -3.238454e-002  8.984375e-001  1.856740e-001
      vertex -3.755951e-002  6.640625e-001  1.793683e-001
      vertex -3.238454e-002  6.640625e-001  1.856740e-001
    endloop
  endfacet
  facet normal -6.343932e-001  0.000000e+000  7.730104e-001
    outer loop
      vertex -3.238454e-002  8.984375e-001  1.856740e-001
      vertex -3.238454e-002  6.640625e-001  1.856740e-001
      vertex -2.607883e-002  8.984375e-001  1.908490e-001
    endloop
  endfacet
  facet normal -6.343932e-001  0.000000e+000  7.730104e-001
    outer loop
      vertex -2.607883e-002  8.984375e-001  1.908490e-001
      vertex -3.238454e-002  6.640625e-001  1.856740e-001
      vertex -2.607883e-002  6.640625e-001  1.908490e-001
    endloop
  endfacet
  facet normal -4.713969e-001  0.000000e+000  8.819212e-001
    outer loop
      vertex -2.607883e-002  8.984375e-001  1.908490e-001
      vertex -2.607883e-002  6.640625e-001  1.908490e-001
      vertex -1.888469e-002  8.984375e-001  1.946943e-001
    endloop
  endfacet
  facet normal -4.713969e-001  0.000000e+000  8.819212e-001
    outer loop
      vertex -1.888469e-002  8.984375e-001  1.946943e-001
      vertex -2.607883e-002  6.640625e-001  1.908490e-001
      vertex -1.888469e-002  6.640625e-001  1.946943e-001
    endloop
  endfacet
  facet normal -2.902853e-001  0.000000e+000  9.569402e-001
    outer loop
      vertex -1.888469e-002  8.984375e-001  1.946943e-001
      vertex -1.888469e-002  6.640625e-001  1.946943e-001
      vertex -1.107859e-002  8.984375e-001  1.970623e-001
    endloop
  endfacet
  facet normal -2.902853e-001  0.000000e+000  9.569402e-001
    outer loop
      vertex -1.107859e-002  8.984375e-001  1.970623e-001
      vertex -1.888469e-002  6.640625e-001  1.946943e-001
      vertex -1.107859e-002  6.640625e-001  1.970623e-001
    endloop
  endfacet
  facet normal -9.801614e-002  0.000000e+000  9.951848e-001
    outer loop
      vertex -1.107859e-002  8.984375e-001  1.970623e-001
      vertex -1.107859e-002  6.640625e-001  1.970623e-001
      vertex -2.960526e-003  8.984375e-001  1.978618e-001
    endloop
  endfacet
  facet normal -9.801614e-002  0.000000e+000  9.951848e-001
    outer loop
      vertex -2.960526e-003  8.984375e-001  1.978618e-001
      vertex -1.107859e-002  6.640625e-001  1.970623e-001
      vertex -2.960526e-003  6.640625e-001  1.978618e-001
    endloop
  endfacet
  facet normal  9.801614e-002  -0.000000e+000  9.951848e-001
    outer loop
      vertex -2.960526e-003  8.984375e-001  1.978618e-001
      vertex -2.960526e-003  6.640625e-001  1.978618e-001
      vertex  5.157541e-003  8.984375e-001  1.970623e-001
    endloop
  endfacet
  facet normal  9.801614e-002  0.000000e+000  9.951848e-001
    outer loop
      vertex  5.157541e-003  8.984375e-001  1.970623e-001
      vertex -2.960526e-003  6.640625e-001  1.978618e-001
      vertex  5.157541e-003  6.640625e-001  1.970623e-001
    endloop
  endfacet
  facet normal  2.902853e-001  -0.000000e+000  9.569402e-001
    outer loop
      vertex  5.157541e-003  8.984375e-001  1.970623e-001
      vertex  5.157541e-003  6.640625e-001  1.970623e-001
      vertex  1.296364e-002  8.984375e-001  1.946943e-001
    endloop
  endfacet
  facet normal  2.902853e-001  0.000000e+000  9.569402e-001
    outer loop
      vertex  1.296364e-002  8.984375e-001  1.946943e-001
      vertex  5.157541e-003  6.640625e-001  1.970623e-001
      vertex  1.296364e-002  6.640625e-001  1.946943e-001
    endloop
  endfacet
  facet normal  4.713969e-001  -0.000000e+000  8.819212e-001
    outer loop
      vertex  1.296364e-002  8.984375e-001  1.946943e-001
      vertex  1.296364e-002  6.640625e-001  1.946943e-001
      vertex  2.015777e-002  8.984375e-001  1.908490e-001
    endloop
  endfacet
  facet normal  4.713969e-001  0.000000e+000  8.819212e-001
    outer loop
      vertex  2.015777e-002  8.984375e-001  1.908490e-001
      vertex  1.296364e-002  6.640625e-001  1.946943e-001
      vertex  2.015777e-002  6.640625e-001  1.908490e-001
    endloop
  endfacet
  facet normal  6.343932e-001  -0.000000e+000  7.730106e-001
    outer loop
      vertex  2.015777e-002  8.984375e-001  1.908490e-001
      vertex  2.015777e-002  6.640625e-001  1.908490e-001
      vertex  2.646349e-002  8.984375e-001  1.856740e-001
    endloop
  endfacet
  facet normal  6.343932e-001  0.000000e+000  7.730106e-001
    outer loop
      vertex  2.646349e-002  8.984375e-001  1.856740e-001
      vertex  2.015777e-002  6.640625e-001  1.908490e-001
      vertex  2.646349e-002  6.640625e-001  1.856740e-001
    endloop
  endfacet
  facet normal  7.730103e-001  -0.000000e+000  6.343935e-001
    outer loop
      vertex  2.646349e-002  8.984375e-001  1.856740e-001
      vertex  2.646349e-002  6.640625e-001  1.856740e-001
      vertex  3.163845e-002  8.984375e-001  1.793683e-001
    endloop
  endfacet
  facet normal  7.730103e-001  0.000000e+000  6.343935e-001
    outer loop
      vertex  3.163845e-002  8.984375e-001  1.793683e-001
      vertex  2.646349e-002  6.640625e-001  1.856740e-001
      vertex  3.163845e-002  6.640625e-001  1.793683e-001
    endloop
  endfacet
  facet normal  8.819215e-001  -0.000000e+000  4.713965e-001
    outer loop
      vertex  3.163845e-002  8.984375e-001  1.793683e-001
      vertex  3.163845e-002  6.640625e-001  1.793683e-001
      vertex  3.548380e-002  8.984375e-001  1.721742e-001
    endloop
  endfacet
  facet normal  8.819215e-001  0.000000e+000  4.713965e-001
    outer loop
      vertex  3.548380e-002  8.984375e-001  1.721742e-001
      vertex  3.163845e-002  6.640625e-001  1.793683e-001
      vertex  3.548380e-002  6.640625e-001  1.721742e-001
    endloop
  endfacet
  facet normal  9.569404e-001  -0.000000e+000  2.902845e-001
    outer loop
      vertex  3.548380e-002  8.984375e-001  1.721742e-001
      vertex  3.548380e-002  6.640625e-001  1.721742e-001
      vertex  3.785175e-002  8.984375e-001  1.643681e-001
    endloop
  endfacet
  facet normal  9.569404e-001  0.000000e+000  2.902845e-001
    outer loop
      vertex  3.785175e-002  8.984375e-001  1.643681e-001
      vertex  3.548380e-002  6.640625e-001  1.721742e-001
      vertex  3.785175e-002  6.640625e-001  1.643681e-001
    endloop
  endfacet
  facet normal  9.951847e-001  -0.000000e+000  9.801754e-002
    outer loop
      vertex  3.785175e-002  8.984375e-001  1.643681e-001
      vertex  3.785175e-002  6.640625e-001  1.643681e-001
      vertex  3.865132e-002  8.984375e-001  1.562500e-001
    endloop
  endfacet
  facet normal  9.951847e-001  0.000000e+000  9.801754e-002
    outer loop
      vertex  3.865132e-002  8.984375e-001  1.562500e-001
      vertex  3.785175e-002  6.640625e-001  1.643681e-001
      vertex  3.865132e-002  6.640625e-001  1.562500e-001
    endloop
  endfacet
  facet normal  9.951847e-001  0.000000e+000 -9.801754e-002
    outer loop
      vertex  3.865132e-002 -6.640625e-001  1.562500e-001
      vertex  3.865132e-002 -8.984375e-001  1.562500e-001
      vertex  3.785175e-002 -6.640625e-001  1.481319e-001
    endloop
  endfacet
  facet normal  9.951847e-001  0.000000e+000 -9.801754e-002
    outer loop
      vertex  3.785175e-002 -6.640625e-001  1.481319e-001
      vertex  3.865132e-002 -8.984375e-001  1.562500e-001
      vertex  3.785175e-002 -8.984375e-001  1.481319e-001
    endloop
  endfacet
  facet normal  9.569404e-001  0.000000e+000 -2.902845e-001
    outer loop
      vertex  3.785175e-002 -6.640625e-001  1.481319e-001
      vertex  3.785175e-002 -8.984375e-001  1.481319e-001
      vertex  3.548380e-002 -6.640625e-001  1.403258e-001
    endloop
  endfacet
  facet normal  9.569404e-001  0.000000e+000 -2.902845e-001
    outer loop
      vertex  3.548380e-002 -6.640625e-001  1.403258e-001
      vertex  3.785175e-002 -8.984375e-001  1.481319e-001
      vertex  3.548380e-002 -8.984375e-001  1.403258e-001
    endloop
  endfacet
  facet normal  8.819215e-001  0.000000e+000 -4.713965e-001
    outer loop
      vertex  3.548380e-002 -6.640625e-001  1.403258e-001
      vertex  3.548380e-002 -8.984375e-001  1.403258e-001
      vertex  3.163845e-002 -6.640625e-001  1.331317e-001
    endloop
  endfacet
  facet normal  8.819215e-001  0.000000e+000 -4.713965e-001
    outer loop
      vertex  3.163845e-002 -6.640625e-001  1.331317e-001
      vertex  3.548380e-002 -8.984375e-001  1.403258e-001
      vertex  3.163845e-002 -8.984375e-001  1.331317e-001
    endloop
  endfacet
  facet normal  7.730103e-001  0.000000e+000 -6.343935e-001
    outer loop
      vertex  3.163845e-002 -6.640625e-001  1.331317e-001
      vertex  3.163845e-002 -8.984375e-001  1.331317e-001
      vertex  2.646349e-002 -6.640625e-001  1.268260e-001
    endloop
  endfacet
  facet normal  7.730103e-001  0.000000e+000 -6.343935e-001
    outer loop
      vertex  2.646349e-002 -6.640625e-001  1.268260e-001
      vertex  3.163845e-002 -8.984375e-001  1.331317e-001
      vertex  2.646349e-002 -8.984375e-001  1.268260e-001
    endloop
  endfacet
  facet normal  6.343937e-001  0.000000e+000 -7.730101e-001
    outer loop
      vertex  2.646349e-002 -6.640625e-001  1.268260e-001
      vertex  2.646349e-002 -8.984375e-001  1.268260e-001
      vertex  2.015777e-002 -6.640625e-001  1.216510e-001
    endloop
  endfacet
  facet normal  6.343937e-001  0.000000e+000 -7.730101e-001
    outer loop
      vertex  2.015777e-002 -6.640625e-001  1.216510e-001
      vertex  2.646349e-002 -8.984375e-001  1.268260e-001
      vertex  2.015777e-002 -8.984375e-001  1.216510e-001
    endloop
  endfacet
  facet normal  4.713969e-001  0.000000e+000 -8.819212e-001
    outer loop
      vertex  2.015777e-002 -6.640625e-001  1.216510e-001
      vertex  2.015777e-002 -8.984375e-001  1.216510e-001
      vertex  1.296364e-002 -6.640625e-001  1.178057e-001
    endloop
  endfacet
  facet normal  4.713969e-001  0.000000e+000 -8.819212e-001
    outer loop
      vertex  1.296364e-002 -6.640625e-001  1.178057e-001
      vertex  2.015777e-002 -8.984375e-001  1.216510e-001
      vertex  1.296364e-002 -8.984375e-001  1.178057e-001
    endloop
  endfacet
  facet normal  2.902845e-001  0.000000e+000 -9.569404e-001
    outer loop
      vertex  1.296364e-002 -6.640625e-001  1.178057e-001
      vertex  1.296364e-002 -8.984375e-001  1.178057e-001
      vertex  5.157541e-003 -6.640625e-001  1.154377e-001
    endloop
  endfacet
  facet normal  2.902845e-001  0.000000e+000 -9.569404e-001
    outer loop
      vertex  5.157541e-003 -6.640625e-001  1.154377e-001
      vertex  1.296364e-002 -8.984375e-001  1.178057e-001
      vertex  5.157541e-003 -8.984375e-001  1.154377e-001
    endloop
  endfacet
  facet normal  9.801704e-002  0.000000e+000 -9.951847e-001
    outer loop
      vertex  5.157541e-003 -6.640625e-001  1.154377e-001
      vertex  5.157541e-003 -8.984375e-001  1.154377e-001
      vertex -2.960526e-003 -6.640625e-001  1.146382e-001
    endloop
  endfacet
  facet normal  9.801704e-002  0.000000e+000 -9.951847e-001
    outer loop
      vertex -2.960526e-003 -6.640625e-001  1.146382e-001
      vertex  5.157541e-003 -8.984375e-001  1.154377e-001
      vertex -2.960526e-003 -8.984375e-001  1.146382e-001
    endloop
  endfacet
  facet normal -9.801704e-002  0.000000e+000 -9.951847e-001
    outer loop
      vertex -2.960526e-003 -6.640625e-001  1.146382e-001
      vertex -2.960526e-003 -8.984375e-001  1.146382e-001
      vertex -1.107859e-002 -6.640625e-001  1.154377e-001
    endloop
  endfacet
  facet normal -9.801704e-002  -0.000000e+000 -9.951847e-001
    outer loop
      vertex -1.107859e-002 -6.640625e-001  1.154377e-001
      vertex -2.960526e-003 -8.984375e-001  1.146382e-001
      vertex -1.107859e-002 -8.984375e-001  1.154377e-001
    endloop
  endfacet
  facet normal -2.902845e-001  0.000000e+000 -9.569404e-001
    outer loop
      vertex -1.107859e-002 -6.640625e-001  1.154377e-001
      vertex -1.107859e-002 -8.984375e-001  1.154377e-001
      vertex -1.888469e-002 -6.640625e-001  1.178057e-001
    endloop
  endfacet
  facet normal -2.902845e-001  -0.000000e+000 -9.569404e-001
    outer loop
      vertex -1.888469e-002 -6.640625e-001  1.178057e-001
      vertex -1.107859e-002 -8.984375e-001  1.154377e-001
      vertex -1.888469e-002 -8.984375e-001  1.178057e-001
    endloop
  endfacet
  facet normal -4.713969e-001  0.000000e+000 -8.819212e-001
    outer loop
      vertex -1.888469e-002 -6.640625e-001  1.178057e-001
      vertex -1.888469e-002 -8.984375e-001  1.178057e-001
      vertex -2.607883e-002 -6.640625e-001  1.216510e-001
    endloop
  endfacet
  facet normal -4.713969e-001  -0.000000e+000 -8.819212e-001
    outer loop
      vertex -2.607883e-002 -6.640625e-001  1.216510e-001
      vertex -1.888469e-002 -8.984375e-001  1.178057e-001
      vertex -2.607883e-002 -8.984375e-001  1.216510e-001
    endloop
  endfacet
  facet normal -6.343938e-001  0.000000e+000 -7.730100e-001
    outer loop
      vertex -2.607883e-002 -6.640625e-001  1.216510e-001
      vertex -2.607883e-002 -8.984375e-001  1.216510e-001
      vertex -3.238454e-002 -6.640625e-001  1.268260e-001
    endloop
  endfacet
  facet normal -6.343938e-001  -0.000000e+000 -7.730100e-001
    outer loop
      vertex -3.238454e-002 -6.640625e-001  1.268260e-001
      vertex -2.607883e-002 -8.984375e-001  1.216510e-001
      vertex -3.238454e-002 -8.984375e-001  1.268260e-001
    endloop
  endfacet
  facet normal -7.730101e-001  0.000000e+000 -6.343938e-001
    outer loop
      vertex -3.238454e-002 -6.640625e-001  1.268260e-001
      vertex -3.238454e-002 -8.984375e-001  1.268260e-001
      vertex -3.755951e-002 -6.640625e-001  1.331317e-001
    endloop
  endfacet
  facet normal -7.730101e-001  -0.000000e+000 -6.343938e-001
    outer loop
      vertex -3.755951e-002 -6.640625e-001  1.331317e-001
      vertex -3.238454e-002 -8.984375e-001  1.268260e-001
      vertex -3.755951e-002 -8.984375e-001  1.331317e-001
    endloop
  endfacet
  facet normal -8.819215e-001  0.000000e+000 -4.713961e-001
    outer loop
      vertex -3.755951e-002 -6.640625e-001  1.331317e-001
      vertex -3.755951e-002 -8.984375e-001  1.331317e-001
      vertex -4.140485e-002 -6.640625e-001  1.403258e-001
    endloop
  endfacet
  facet normal -8.819215e-001  -0.000000e+000 -4.713961e-001
    outer loop
      vertex -4.140485e-002 -6.640625e-001  1.403258e-001
      vertex -3.755951e-002 -8.984375e-001  1.331317e-001
      vertex -4.140485e-002 -8.984375e-001  1.403258e-001
    endloop
  endfacet
  facet normal -9.569403e-001  0.000000e+000 -2.902850e-001
    outer loop
      vertex -4.140485e-002 -6.640625e-001  1.403258e-001
      vertex -4.140485e-002 -8.984375e-001  1.403258e-001
      vertex -4.377281e-002 -6.640625e-001  1.481319e-001
    endloop
  endfacet
  facet normal -9.569403e-001  -0.000000e+000 -2.902850e-001
    outer loop
      vertex -4.377281e-002 -6.640625e-001  1.481319e-001
      vertex -4.140485e-002 -8.984375e-001  1.403258e-001
      vertex -4.377281e-002 -8.984375e-001  1.481319e-001
    endloop
  endfacet
  facet normal -9.951848e-001  0.000000e+000 -9.801710e-002
    outer loop
      vertex -4.377281e-002 -6.640625e-001  1.481319e-001
      vertex -4.377281e-002 -8.984375e-001  1.481319e-001
      vertex -4.457237e-002 -6.640625e-001  1.562500e-001
    endloop
  endfacet
  facet normal -9.951848e-001  -0.000000e+000 -9.801710e-002
    outer loop
      vertex -4.457237e-002 -6.640625e-001  1.562500e-001
      vertex -4.377281e-002 -8.984375e-001  1.481319e-001
      vertex -4.457237e-002 -8.984375e-001  1.562500e-001
    endloop
  endfacet
  facet normal  9.951847e-001  0.000000e+000 -9.801754e-002
    outer loop
      vertex  3.865132e-002  8.984375e-001  1.562500e-001
      vertex  3.865132e-002  6.640625e-001  1.562500e-001
      vertex  3.785175e-002  8.984375e-001  1.481319e-001
    endloop
  endfacet
  facet normal  9.951847e-001  0.000000e+000 -9.801754e-002
    outer loop
      vertex  3.785175e-002  8.984375e-001  1.481319e-001
      vertex  3.865132e-002  6.640625e-001  1.562500e-001
      vertex  3.785175e-002  6.640625e-001  1.481319e-001
    endloop
  endfacet
  facet normal  9.569404e-001  0.000000e+000 -2.902845e-001
    outer loop
      vertex  3.785175e-002  8.984375e-001  1.481319e-001
      vertex  3.785175e-002  6.640625e-001  1.481319e-001
      vertex  3.548380e-002  8.984375e-001  1.403258e-001
    endloop
  endfacet
  facet normal  9.569404e-001  0.000000e+000 -2.902845e-001
    outer loop
      vertex  3.548380e-002  8.984375e-001  1.403258e-001
      vertex  3.785175e-002  6.640625e-001  1.481319e-001
      vertex  3.548380e-002  6.640625e-001  1.403258e-001
    endloop
  endfacet
  facet normal  8.819215e-001  0.000000e+000 -4.713965e-001
    outer loop
      vertex  3.548380e-002  8.984375e-001  1.403258e-001
      vertex  3.548380e-002  6.640625e-001  1.403258e-001
      vertex  3.163845e-002  8.984375e-001  1.331317e-001
    endloop
  endfacet
  facet normal  8.819215e-001  0.000000e+000 -4.713965e-001
    outer loop
      vertex  3.163845e-002  8.984375e-001  1.331317e-001
      vertex  3.548380e-002  6.640625e-001  1.403258e-001
      vertex  3.163845e-002  6.640625e-001  1.331317e-001
    endloop
  endfacet
  facet normal  7.730103e-001  0.000000e+000 -6.343935e-001
    outer loop
      vertex  3.163845e-002  8.984375e-001  1.331317e-001
      vertex  3.163845e-002  6.640625e-001  1.331317e-001
      vertex  2.646349e-002  8.984375e-001  1.268260e-001
    endloop
  endfacet
  facet normal  7.730103e-001  0.000000e+000 -6.343935e-001
    outer loop
      vertex  2.646349e-002  8.984375e-001  1.268260e-001
      vertex  3.163845e-002  6.640625e-001  1.331317e-001
      vertex  2.646349e-002  6.640625e-001  1.268260e-001
    endloop
  endfacet
  facet normal  6.343937e-001  0.000000e+000 -7.730101e-001
    outer loop
      vertex  2.646349e-002  8.984375e-001  1.268260e-001
      vertex  2.646349e-002  6.640625e-001  1.268260e-001
      vertex  2.015777e-002  8.984375e-001  1.216510e-001
    endloop
  endfacet
  facet normal  6.343937e-001  0.000000e+000 -7.730101e-001
    outer loop
      vertex  2.015777e-002  8.984375e-001  1.216510e-001
      vertex  2.646349e-002  6.640625e-001  1.268260e-001
      vertex  2.015777e-002  6.640625e-001  1.216510e-001
    endloop
  endfacet
  facet normal  4.713969e-001  0.000000e+000 -8.819212e-001
    outer loop
      vertex  2.015777e-002  8.984375e-001  1.216510e-001
      vertex  2.015777e-002  6.640625e-001  1.216510e-001
      vertex  1.296364e-002  8.984375e-001  1.178057e-001
    endloop
  endfacet
  facet normal  4.713969e-001  0.000000e+000 -8.819212e-001
    outer loop
      vertex  1.296364e-002  8.984375e-001  1.178057e-001
      vertex  2.015777e-002  6.640625e-001  1.216510e-001
      vertex  1.296364e-002  6.640625e-001  1.178057e-001
    endloop
  endfacet
  facet normal  2.902845e-001  0.000000e+000 -9.569404e-001
    outer loop
      vertex  1.296364e-002  8.984375e-001  1.178057e-001
      vertex  1.296364e-002  6.640625e-001  1.178057e-001
      vertex  5.157541e-003  8.984375e-001  1.154377e-001
    endloop
  endfacet
  facet normal  2.902845e-001  0.000000e+000 -9.569404e-001
    outer loop
      vertex  5.157541e-003  8.984375e-001  1.154377e-001
      vertex  1.296364e-002  6.640625e-001  1.178057e-001
      vertex  5.157541e-003  6.640625e-001  1.154377e-001
    endloop
  endfacet
  facet normal  9.801704e-002  0.000000e+000 -9.951847e-001
    outer loop
      vertex  5.157541e-003  8.984375e-001  1.154377e-001
      vertex  5.157541e-003  6.640625e-001  1.154377e-001
      vertex -2.960526e-003  8.984375e-001  1.146382e-001
    endloop
  endfacet
  facet normal  9.801704e-002  0.000000e+000 -9.951847e-001
    outer loop
      vertex -2.960526e-003  8.984375e-001  1.146382e-001
      vertex  5.157541e-003  6.640625e-001  1.154377e-001
      vertex -2.960526e-003  6.640625e-001  1.146382e-001
    endloop
  endfacet
  facet normal -9.801704e-002  0.000000e+000 -9.951847e-001
    outer loop
      vertex -2.960526e-003  8.984375e-001  1.146382e-001
      vertex -2.960526e-003  6.640625e-001  1.146382e-001
      vertex -1.107859e-002  8.984375e-001  1.154377e-001
    endloop
  endfacet
  facet normal -9.801704e-002  -0.000000e+000 -9.951847e-001
    outer loop
      vertex -1.107859e-002  8.984375e-001  1.154377e-001
      vertex -2.960526e-003  6.640625e-001  1.146382e-001
      vertex -1.107859e-002  6.640625e-001  1.154377e-001
    endloop
  endfacet
  facet normal -2.902845e-001  0.000000e+000 -9.569404e-001
    outer loop
      vertex -1.107859e-002  8.984375e-001  1.154377e-001
      vertex -1.107859e-002  6.640625e-001  1.154377e-001
      vertex -1.888469e-002  8.984375e-001  1.178057e-001
    endloop
  endfacet
  facet normal -2.902845e-001  -0.000000e+000 -9.569404e-001
    outer loop
      vertex -1.888469e-002  8.984375e-001  1.178057e-001
      vertex -1.107859e-002  6.640625e-001  1.154377e-001
      vertex -1.888469e-002  6.640625e-001  1.178057e-001
    endloop
  endfacet
  facet normal -4.713969e-001  0.000000e+000 -8.819212e-001
    outer loop
      vertex -1.888469e-002  8.984375e-001  1.178057e-001
      vertex -1.888469e-002  6.640625e-001  1.178057e-001
      vertex -2.607883e-002  8.984375e-001  1.216510e-001
    endloop
  endfacet
  facet normal -4.713969e-001  -0.000000e+000 -8.819212e-001
    outer loop
      vertex -2.607883e-002  8.984375e-001  1.216510e-001
      vertex -1.888469e-002  6.640625e-001  1.178057e-001
      vertex -2.607883e-002  6.640625e-001  1.216510e-001
    endloop
  endfacet
  facet normal -6.343938e-001  0.000000e+000 -7.730100e-001
    outer loop
      vertex -2.607883e-002  8.984375e-001  1.216510e-001
      vertex -2.607883e-002  6.640625e-001  1.216510e-001
      vertex -3.238454e-002  8.984375e-001  1.268260e-001
    endloop
  endfacet
  facet normal -6.343938e-001  -0.000000e+000 -7.730100e-001
    outer loop
      vertex -3.238454e-002  8.984375e-001  1.268260e-001
      vertex -2.607883e-002  6.640625e-001  1.216510e-001
      vertex -3.238454e-002  6.640625e-001  1.268260e-001
    endloop
  endfacet
  facet normal -7.730101e-001  0.000000e+000 -6.343938e-001
    outer loop
      vertex -3.238454e-002  8.984375e-001  1.268260e-001
      vertex -3.238454e-002  6.640625e-001  1.268260e-001
      vertex -3.755951e-002  8.984375e-001  1.331317e-001
    endloop
  endfacet
  facet normal -7.730101e-001  -0.000000e+000 -6.343938e-001
    outer loop
      vertex -3.755951e-002  8.984375e-001  1.331317e-001
      vertex -3.238454e-002  6.640625e-001  1.268260e-001
      vertex -3.755951e-002  6.640625e-001  1.331317e-001
    endloop
  endfacet
  facet normal -8.819215e-001  0.000000e+000 -4.713961e-001
    outer loop
      vertex -3.755951e-002  8.984375e-001  1.331317e-001
      vertex -3.755951e-002  6.640625e-001  1.331317e-001
      vertex -4.140485e-002  8.984375e-001  1.403258e-001
    endloop
  endfacet
  facet normal -8.819215e-001  -0.000000e+000 -4.713961e-001
    outer loop
      vertex -4.140485e-002  8.984375e-001  1.403258e-001
      vertex -3.755951e-002  6.640625e-001  1.331317e-001
      vertex -4.140485e-002  6.640625e-001  1.403258e-001
    endloop
  endfacet
  facet normal -9.569403e-001  0.000000e+000 -2.902850e-001
    outer loop
      vertex -4.140485e-002  8.984375e-001  1.403258e-001
      vertex -4.140485e-002  6.640625e-001  1.403258e-001
      vertex -4.377281e-002  8.984375e-001  1.481319e-001
    endloop
  endfacet
  facet normal -9.569403e-001  -0.000000e+000 -2.902850e-001
    outer loop
      vertex -4.377281e-002  8.984375e-001  1.481319e-001
      vertex -4.140485e-002  6.640625e-001  1.403258e-001
      vertex -4.377281e-002  6.640625e-001  1.481319e-001
    endloop
  endfacet
  facet normal -9.951848e-001  0.000000e+000 -9.801710e-002
    outer loop
      vertex -4.377281e-002  8.984375e-001  1.481319e-001
      vertex -4.377281e-002  6.640625e-001  1.481319e-001
      vertex -4.457237e-002  8.984375e-001  1.562500e-001
    endloop
  endfacet
  facet normal -9.951848e-001  -0.000000e+000 -9.801710e-002
    outer loop
      vertex -4.457237e-002  8.984375e-001  1.562500e-001
      vertex -4.377281e-002  6.640625e-001  1.481319e-001
      vertex -4.457237e-002  6.640625e-001  1.562500e-001
    endloop
  endfacet
  facet normal  0.000000e+000 -1.000000e+000  -0.000000e+000
    outer loop
      vertex -2.960526e-003  6.640625e-001  1.978618e-001
      vertex -1.107859e-002  6.640625e-001  1.970623e-001
      vertex -1.888469e-002  6.640625e-001  1.946943e-001
    endloop
  endfacet
  facet normal  0.000000e+000 -1.000000e+000  -0.000000e+000
    outer loop
      vertex  5.157541e-003  6.640625e-001  1.970623e-001
      vertex -2.960526e-003  6.640625e-001  1.978618e-001
      vertex -1.888469e-002  6.640625e-001  1.946943e-001
    endloop
  endfacet
  facet normal  0.000000e+000 -9.999999e-001  0.000000e+000
    outer loop
      vertex  5.157541e-003  6.640625e-001  1.970623e-001
      vertex -1.888469e-002  6.640625e-001  1.946943e-001
      vertex  1.296364e-002  6.640625e-001  1.946943e-001
    endloop
  endfacet
  facet normal  0.000000e+000 -1.000000e+000  -0.000000e+000
    outer loop
      vertex  1.296364e-002  6.640625e-001  1.946943e-001
      vertex -1.888469e-002  6.640625e-001  1.946943e-001
      vertex -2.607883e-002  6.640625e-001  1.908490e-001
    endloop
  endfacet
  facet normal  0.000000e+000 -1.000000e+000  0.000000e+000
    outer loop
      vertex  1.296364e-002  6.640625e-001  1.946943e-001
      vertex -2.607883e-002  6.640625e-001  1.908490e-001
      vertex  2.015777e-002  6.640625e-001  1.908490e-001
    endloop
  endfacet
  facet normal  0.000000e+000 -1.000000e+000  -0.000000e+000
    outer loop
      vertex  2.015777e-002  6.640625e-001  1.908490e-001
      vertex -2.607883e-002  6.640625e-001  1.908490e-001
      vertex -3.238454e-002  6.640625e-001  1.856740e-001
    endloop
  endfacet
  facet normal  0.000000e+000 -1.000000e+000  0.000000e+000
    outer loop
      vertex  2.015777e-002  6.640625e-001  1.908490e-001
      vertex -3.238454e-002  6.640625e-001  1.856740e-001
      vertex  2.646349e-002  6.640625e-001  1.856740e-001
    endloop
  endfacet
  facet normal  0.000000e+000 -1.000000e+000  -0.000000e+000
    outer loop
      vertex  2.646349e-002  6.640625e-001  1.856740e-001
      vertex -3.238454e-002  6.640625e-001  1.856740e-001
      vertex -3.755951e-002  6.640625e-001  1.793683e-001
    endloop
  endfacet
  facet normal  0.000000e+000 -1.000000e+000  0.000000e+000
    outer loop
      vertex  2.646349e-002  6.640625e-001  1.856740e-001
      vertex -3.755951e-002  6.640625e-001  1.793683e-001
      vertex  3.163845e-002  6.640625e-001  1.793683e-001
    endloop
  endfacet
  facet normal  0.000000e+000 -1.000000e+000  -0.000000e+000
    outer loop
      vertex  3.163845e-002  6.640625e-001  1.793683e-001
      vertex -3.755951e-002  6.640625e-001  1.793683e-001
      vertex -4.140485e-002  6.640625e-001  1.721742e-001
    endloop
  endfacet
  facet normal  0.000000e+000 -1.000000e+000  0.000000e+000
    outer loop
      vertex  3.163845e-002  6.640625e-001  1.793683e-001
      vertex -4.140485e-002  6.640625e-001  1.721742e-001
      vertex  3.548380e-002  6.640625e-001  1.721742e-001
    endloop
  endfacet
  facet normal  0.000000e+000 -1.000000e+000  -0.000000e+000
    outer loop
      vertex  3.548380e-002  6.640625e-001  1.721742e-001
      vertex -4.140485e-002  6.640625e-001  1.721742e-001
      vertex -4.377281e-002  6.640625e-001  1.643681e-001
    endloop
  endfacet
  facet normal  0.000000e+000 -1.000000e+000  0.000000e+000
    outer loop
      vertex  3.548380e-002  6.640625e-001  1.721742e-001
      vertex -4.377281e-002  6.640625e-001  1.643681e-001
      vertex  3.785175e-002  6.640625e-001  1.643681e-001
    endloop
  endfacet
  facet normal  0.000000e+000 -1.000000e+000  0.000000e+000
    outer loop
      vertex  3.785175e-002  6.640625e-001  1.481319e-001
      vertex -4.140485e-002  6.640625e-001  1.403258e-001
      vertex  3.548380e-002  6.640625e-001  1.403258e-001
    endloop
  endfacet
  facet normal  0.000000e+000 -1.000000e+000  0.000000e+000
    outer loop
      vertex  3.548380e-002  6.640625e-001  1.403258e-001
      vertex -4.140485e-002  6.640625e-001  1.403258e-001
      vertex -3.755951e-002  6.640625e-001  1.331317e-001
    endloop
  endfacet
  facet normal  0.000000e+000 -1.000000e+000  0.000000e+000
    outer loop
      vertex  3.548380e-002  6.640625e-001  1.403258e-001
      vertex -3.755951e-002  6.640625e-001  1.331317e-001
      vertex  3.163845e-002  6.640625e-001  1.331317e-001
    endloop
  endfacet
  facet normal  0.000000e+000 -1.000000e+000  0.000000e+000
    outer loop
      vertex  3.163845e-002  6.640625e-001  1.331317e-001
      vertex -3.755951e-002  6.640625e-001  1.331317e-001
      vertex -3.238454e-002  6.640625e-001  1.268260e-001
    endloop
  endfacet
  facet normal  0.000000e+000 -1.000000e+000  0.000000e+000
    outer loop
      vertex  3.163845e-002  6.640625e-001  1.331317e-001
      vertex -3.238454e-002  6.640625e-001  1.268260e-001
      vertex  2.646349e-002  6.640625e-001  1.268260e-001
    endloop
  endfacet
  facet normal  0.000000e+000 -1.000000e+000  0.000000e+000
    outer loop
      vertex  2.646349e-002  6.640625e-001  1.268260e-001
      vertex -3.238454e-002  6.640625e-001  1.268260e-001
      vertex -2.607883e-002  6.640625e-001  1.216510e-001
    endloop
  endfacet
  facet normal  0.000000e+000 -1.000000e+000  0.000000e+000
    outer loop
      vertex  2.646349e-002  6.640625e-001  1.268260e-001
      vertex -2.607883e-002  6.640625e-001  1.216510e-001
      vertex  2.015777e-002  6.640625e-001  1.216510e-001
    endloop
  endfacet
  facet normal  0.000000e+000 -1.000000e+000  0.000000e+000
    outer loop
      vertex  2.015777e-002  6.640625e-001  1.216510e-001
      vertex -2.607883e-002  6.640625e-001  1.216510e-001
      vertex -1.888469e-002  6.640625e-001  1.178057e-001
    endloop
  endfacet
  facet normal  0.000000e+000 -1.000000e+000  0.000000e+000
    outer loop
      vertex  2.015777e-002  6.640625e-001  1.216510e-001
      vertex -1.888469e-002  6.640625e-001  1.178057e-001
      vertex  1.296364e-002  6.640625e-001  1.178057e-001
    endloop
  endfacet
  facet normal  0.000000e+000 -9.999999e-001  0.000000e+000
    outer loop
      vertex  1.296364e-002  6.640625e-001  1.178057e-001
      vertex -1.888469e-002  6.640625e-001  1.178057e-001
      vertex -1.107859e-002  6.640625e-001  1.154377e-001
    endloop
  endfacet
  facet normal  0.000000e+000 -1.000000e+000  0.000000e+000
    outer loop
      vertex  1.296364e-002  6.640625e-001  1.178057e-001
      vertex -1.107859e-002  6.640625e-001  1.154377e-001
      vertex -2.960526e-003  6.640625e-001  1.146382e-001
    endloop
  endfacet
  facet normal  0.000000e+000 -1.000000e+000  0.000000e+000
    outer loop
      vertex  1.296364e-002  6.640625e-001  1.178057e-001
      vertex -2.960526e-003  6.640625e-001  1.146382e-001
      vertex  5.157541e-003  6.640625e-001  1.154377e-001
    endloop
  endfacet
  facet normal  0.000000e+000 -1.000000e+000  0.000000e+000
    outer loop
      vertex  3.785175e-002  6.640625e-001  1.643681e-001
      vertex -4.377281e-002  6.640625e-001  1.643681e-001
      vertex  3.865132e-002  6.640625e-001  1.562500e-001
    endloop
  endfacet
  facet normal  0.000000e+000 -1.000000e+000  0.000000e+000
    outer loop
      vertex  3.865132e-002  6.640625e-001  1.562500e-001
      vertex -4.377281e-002  6.640625e-001  1.643681e-001
      vertex -4.457237e-002  6.640625e-001  1.562500e-001
    endloop
  endfacet
  facet normal  0.000000e+000 -1.000000e+000  0.000000e+000
    outer loop
      vertex  3.865132e-002  6.640625e-001  1.562500e-001
      vertex -4.457237e-002  6.640625e-001  1.562500e-001
      vertex  3.785175e-002  6.640625e-001  1.481319e-001
    endloop
  endfacet
  facet normal  0.000000e+000 -1.000000e+000  0.000000e+000
    outer loop
      vertex  3.785175e-002  6.640625e-001  1.481319e-001
      vertex -4.457237e-002  6.640625e-001  1.562500e-001
      vertex -4.377281e-002  6.640625e-001  1.481319e-001
    endloop
  endfacet
  facet normal  0.000000e+000 -1.000000e+000  0.000000e+000
    outer loop
      vertex  3.785175e-002  6.640625e-001  1.481319e-001
      vertex -4.377281e-002  6.640625e-001  1.481319e-001
      vertex -4.140485e-002  6.640625e-001  1.403258e-001
    endloop
  endfacet
  facet normal  -0.000000e+000  1.000000e+000  0.000000e+000
    outer loop
      vertex -1.888469e-002 -6.640625e-001  1.946943e-001
      vertex -1.107859e-002 -6.640625e-001  1.970623e-001
      vertex -2.960526e-003 -6.640625e-001  1.978618e-001
    endloop
  endfacet
  facet normal  0.000000e+000  1.000000e+000  0.000000e+000
    outer loop
      vertex -1.888469e-002 -6.640625e-001  1.946943e-001
      vertex -2.960526e-003 -6.640625e-001  1.978618e-001
      vertex  5.157541e-003 -6.640625e-001  1.970623e-001
    endloop
  endfacet
  facet normal  0.000000e+000  9.999999e-001  0.000000e+000
    outer loop
      vertex  1.296364e-002 -6.640625e-001  1.946943e-001
      vertex -1.888469e-002 -6.640625e-001  1.946943e-001
      vertex  5.157541e-003 -6.640625e-001  1.970623e-001
    endloop
  endfacet
  facet normal  -0.000000e+000  1.000000e+000  0.000000e+000
    outer loop
      vertex -2.607883e-002 -6.640625e-001  1.908490e-001
      vertex -1.888469e-002 -6.640625e-001  1.946943e-001
      vertex  1.296364e-002 -6.640625e-001  1.946943e-001
    endloop
  endfacet
  facet normal  0.000000e+000  1.000000e+000  0.000000e+000
    outer loop
      vertex  2.015777e-002 -6.640625e-001  1.908490e-001
      vertex -2.607883e-002 -6.640625e-001  1.908490e-001
      vertex  1.296364e-002 -6.640625e-001  1.946943e-001
    endloop
  endfacet
  facet normal  -0.000000e+000  1.000000e+000  0.000000e+000
    outer loop
      vertex -3.238454e-002 -6.640625e-001  1.856740e-001
      vertex -2.607883e-002 -6.640625e-001  1.908490e-001
      vertex  2.015777e-002 -6.640625e-001  1.908490e-001
    endloop
  endfacet
  facet normal  0.000000e+000  1.000000e+000  0.000000e+000
    outer loop
      vertex  2.646349e-002 -6.640625e-001  1.856740e-001
      vertex -3.238454e-002 -6.640625e-001  1.856740e-001
      vertex  2.015777e-002 -6.640625e-001  1.908490e-001
    endloop
  endfacet
  facet normal  -0.000000e+000  1.000000e+000  0.000000e+000
    outer loop
      vertex -3.755951e-002 -6.640625e-001  1.793683e-001
      vertex -3.238454e-002 -6.640625e-001  1.856740e-001
      vertex  2.646349e-002 -6.640625e-001  1.856740e-001
    endloop
  endfacet
  facet normal  0.000000e+000  1.000000e+000  0.000000e+000
    outer loop
      vertex  3.163845e-002 -6.640625e-001  1.793683e-001
      vertex -3.755951e-002 -6.640625e-001  1.793683e-001
      vertex  2.646349e-002 -6.640625e-001  1.856740e-001
    endloop
  endfacet
  facet normal  -0.000000e+000  1.000000e+000  0.000000e+000
    outer loop
      vertex -4.140485e-002 -6.640625e-001  1.721742e-001
      vertex -3.755951e-002 -6.640625e-001  1.793683e-001
      vertex  3.163845e-002 -6.640625e-001  1.793683e-001
    endloop
  endfacet
  facet normal  0.000000e+000  1.000000e+000  0.000000e+000
    outer loop
      vertex  3.548380e-002 -6.640625e-001  1.721742e-001
      vertex -4.140485e-002 -6.640625e-001  1.721742e-001
      vertex  3.163845e-002 -6.640625e-001  1.793683e-001
    endloop
  endfacet
  facet normal  -0.000000e+000  1.000000e+000  0.000000e+000
    outer loop
      vertex -4.377281e-002 -6.640625e-001  1.643681e-001
      vertex -4.140485e-002 -6.640625e-001  1.721742e-001
      vertex  3.548380e-002 -6.640625e-001  1.721742e-001
    endloop
  endfacet
  facet normal  0.000000e+000  1.000000e+000  0.000000e+000
    outer loop
      vertex  3.785175e-002 -6.640625e-001  1.643681e-001
      vertex -4.377281e-002 -6.640625e-001  1.643681e-001
      vertex  3.548380e-002 -6.640625e-001  1.721742e-001
    endloop
  endfacet
  facet normal  0.000000e+000  1.000000e+000  0.000000e+000
    outer loop
      vertex  3.548380e-002 -6.640625e-001  1.403258e-001
      vertex -4.140485e-002 -6.640625e-001  1.403258e-001
      vertex  3.785175e-002 -6.640625e-001  1.481319e-001
    endloop
  endfacet
  facet normal  -0.000000e+000  1.000000e+000  0.000000e+000
    outer loop
      vertex -3.755951e-002 -6.640625e-001  1.331317e-001
      vertex -4.140485e-002 -6.640625e-001  1.403258e-001
      vertex  3.548380e-002 -6.640625e-001  1.403258e-001
    endloop
  endfacet
  facet normal  0.000000e+000  1.000000e+000  0.000000e+000
    outer loop
      vertex  3.163845e-002 -6.640625e-001  1.331317e-001
      vertex -3.755951e-002 -6.640625e-001  1.331317e-001
      vertex  3.548380e-002 -6.640625e-001  1.403258e-001
    endloop
  endfacet
  facet normal  -0.000000e+000  1.000000e+000  0.000000e+000
    outer loop
      vertex -3.238454e-002 -6.640625e-001  1.268260e-001
      vertex -3.755951e-002 -6.640625e-001  1.331317e-001
      vertex  3.163845e-002 -6.640625e-001  1.331317e-001
    endloop
  endfacet
  facet normal  0.000000e+000  1.000000e+000  0.000000e+000
    outer loop
      vertex  2.646349e-002 -6.640625e-001  1.268260e-001
      vertex -3.238454e-002 -6.640625e-001  1.268260e-001
      vertex  3.163845e-002 -6.640625e-001  1.331317e-001
    endloop
  endfacet
  facet normal  -0.000000e+000  1.000000e+000  0.000000e+000
    outer loop
      vertex -2.607883e-002 -6.640625e-001  1.216510e-001
      vertex -3.238454e-002 -6.640625e-001  1.268260e-001
      vertex  2.646349e-002 -6.640625e-001  1.268260e-001
    endloop
  endfacet
  facet normal  0.000000e+000  1.000000e+000  0.000000e+000
    outer loop
      vertex  2.015777e-002 -6.640625e-001  1.216510e-001
      vertex -2.607883e-002 -6.640625e-001  1.216510e-001
      vertex  2.646349e-002 -6.640625e-001  1.268260e-001
    endloop
  endfacet
  facet normal  -0.000000e+000  1.000000e+000  0.000000e+000
    outer loop
      vertex -1.888469e-002 -6.640625e-001  1.178057e-001
      vertex -2.607883e-002 -6.640625e-001  1.216510e-001
      vertex  2.015777e-002 -6.640625e-001  1.216510e-001
    endloop
  endfacet
  facet normal  0.000000e+000  1.000000e+000  0.000000e+000
    outer loop
      vertex  1.296364e-002 -6.640625e-001  1.178057e-001
      vertex -1.888469e-002 -6.640625e-001  1.178057e-001
      vertex  2.015777e-002 -6.640625e-001  1.216510e-001
    endloop
  endfacet
  facet normal  -0.000000e+000  9.999999e-001  0.000000e+000
    outer loop
      vertex -1.107859e-002 -6.640625e-001  1.154377e-001
      vertex -1.888469e-002 -6.640625e-001  1.178057e-001
      vertex  1.296364e-002 -6.640625e-001  1.178057e-001
    endloop
  endfacet
  facet normal  -0.000000e+000  1.000000e+000  0.000000e+000
    outer loop
      vertex -2.960526e-003 -6.640625e-001  1.146382e-001
      vertex -1.107859e-002 -6.640625e-001  1.154377e-001
      vertex  1.296364e-002 -6.640625e-001  1.178057e-001
    endloop
  endfacet
  facet normal  0.000000e+000  1.000000e+000  0.000000e+000
    outer loop
      vertex  5.157541e-003 -6.640625e-001  1.154377e-001
      vertex -2.960526e-003 -6.640625e-001  1.146382e-001
      vertex  1.296364e-002 -6.640625e-001  1.178057e-001
    endloop
  endfacet
  facet normal  -0.000000e+000  1.000000e+000  0.000000e+000
    outer loop
      vertex -4.140485e-002 -6.640625e-001  1.403258e-001
      vertex -4.377281e-002 -6.640625e-001  1.481319e-001
      vertex  3.785175e-002 -6.640625e-001  1.481319e-001
    endloop
  endfacet
  facet normal  0.000000e+000  1.000000e+000  0.000000e+000
    outer loop
      vertex  3.785175e-002 -6.640625e-001  1.481319e-001
      vertex -4.377281e-002 -6.640625e-001  1.481319e-001
      vertex -4.457237e-002 -6.640625e-001  1.562500e-001
    endloop
  endfacet
  facet normal  -0.000000e+000  1.000000e+000  0.000000e+000
    outer loop
      vertex  3.785175e-002 -6.640625e-001  1.481319e-001
      vertex -4.457237e-002 -6.640625e-001  1.562500e-001
      vertex  3.865132e-002 -6.640625e-001  1.562500e-001
    endloop
  endfacet
  facet normal  0.000000e+000  1.000000e+000  0.000000e+000
    outer loop
      vertex  3.865132e-002 -6.640625e-001  1.562500e-001
      vertex -4.457237e-002 -6.640625e-001  1.562500e-001
      vertex -4.377281e-002 -6.640625e-001  1.643681e-001
    endloop
  endfacet
  facet normal  -0.000000e+000  1.000000e+000  0.000000e+000
    outer loop
      vertex  3.865132e-002 -6.640625e-001  1.562500e-001
      vertex -4.377281e-002 -6.640625e-001  1.643681e-001
      vertex  3.785175e-002 -6.640625e-001  1.643681e-001
    endloop
  endfacet
  facet normal  -0.000000e+000  1.000000e+000  0.000000e+000
    outer loop
      vertex -1.888469e-002  8.984375e-001  1.946943e-001
      vertex -1.107859e-002  8.984375e-001  1.970623e-001
      vertex -2.960526e-003  8.984375e-001  1.978618e-001
    endloop
  endfacet
  facet normal  0.000000e+000  1.000000e+000  0.000000e+000
    outer loop
      vertex -1.888469e-002  8.984375e-001  1.946943e-001
      vertex -2.960526e-003  8.984375e-001  1.978618e-001
      vertex  5.157541e-003  8.984375e-001  1.970623e-001
    endloop
  endfacet
  facet normal  0.000000e+000  9.999999e-001  0.000000e+000
    outer loop
      vertex  1.296364e-002  8.984375e-001  1.946943e-001
      vertex -1.888469e-002  8.984375e-001  1.946943e-001
      vertex  5.157541e-003  8.984375e-001  1.970623e-001
    endloop
  endfacet
  facet normal  -0.000000e+000  1.000000e+000  0.000000e+000
    outer loop
      vertex -2.607883e-002  8.984375e-001  1.908490e-001
      vertex -1.888469e-002  8.984375e-001  1.946943e-001
      vertex  1.296364e-002  8.984375e-001  1.946943e-001
    endloop
  endfacet
  facet normal  0.000000e+000  1.000000e+000  0.000000e+000
    outer loop
      vertex  2.015777e-002  8.984375e-001  1.908490e-001
      vertex -2.607883e-002  8.984375e-001  1.908490e-001
      vertex  1.296364e-002  8.984375e-001  1.946943e-001
    endloop
  endfacet
  facet normal  -0.000000e+000  1.000000e+000  0.000000e+000
    outer loop
      vertex -3.238454e-002  8.984375e-001  1.856740e-001
      vertex -2.607883e-002  8.984375e-001  1.908490e-001
      vertex  2.015777e-002  8.984375e-001  1.908490e-001
    endloop
  endfacet
  facet normal  0.000000e+000  1.000000e+000  0.000000e+000
    outer loop
      vertex  2.646349e-002  8.984375e-001  1.856740e-001
      vertex -3.238454e-002  8.984375e-001  1.856740e-001
      vertex  2.015777e-002  8.984375e-001  1.908490e-001
    endloop
  endfacet
  facet normal  -0.000000e+000  1.000000e+000  0.000000e+000
    outer loop
      vertex -3.755951e-002  8.984375e-001  1.793683e-001
      vertex -3.238454e-002  8.984375e-001  1.856740e-001
      vertex  2.646349e-002  8.984375e-001  1.856740e-001
    endloop
  endfacet
  facet normal  0.000000e+000  1.000000e+000  0.000000e+000
    outer loop
      vertex  3.163845e-002  8.984375e-001  1.793683e-001
      vertex -3.755951e-002  8.984375e-001  1.793683e-001
      vertex  2.646349e-002  8.984375e-001  1.856740e-001
    endloop
  endfacet
  facet normal  -0.000000e+000  1.000000e+000  0.000000e+000
    outer loop
      vertex -4.140485e-002  8.984375e-001  1.721742e-001
      vertex -3.755951e-002  8.984375e-001  1.793683e-001
      vertex  3.163845e-002  8.984375e-001  1.793683e-001
    endloop
  endfacet
  facet normal  0.000000e+000  1.000000e+000  0.000000e+000
    outer loop
      vertex  3.548380e-002  8.984375e-001  1.721742e-001
      vertex -4.140485e-002  8.984375e-001  1.721742e-001
      vertex  3.163845e-002  8.984375e-001  1.793683e-001
    endloop
  endfacet
  facet normal  -0.000000e+000  1.000000e+000  0.000000e+000
    outer loop
      vertex -4.377281e-002  8.984375e-001  1.643681e-001
      vertex -4.140485e-002  8.984375e-001  1.721742e-001
      vertex  3.548380e-002  8.984375e-001  1.721742e-001
    endloop
  endfacet
  facet normal  0.000000e+000  1.000000e+000  0.000000e+000
    outer loop
      vertex  3.785175e-002  8.984375e-001  1.643681e-001
      vertex -4.377281e-002  8.984375e-001  1.643681e-001
      vertex  3.548380e-002  8.984375e-001  1.721742e-001
    endloop
  endfacet
  facet normal  0.000000e+000  1.000000e+000  0.000000e+000
    outer loop
      vertex  3.548380e-002  8.984375e-001  1.403258e-001
      vertex -4.140485e-002  8.984375e-001  1.403258e-001
      vertex  3.785175e-002  8.984375e-001  1.481319e-001
    endloop
  endfacet
  facet normal  -0.000000e+000  1.000000e+000  0.000000e+000
    outer loop
      vertex -3.755951e-002  8.984375e-001  1.331317e-001
      vertex -4.140485e-002  8.984375e-001  1.403258e-001
      vertex  3.548380e-002  8.984375e-001  1.403258e-001
    endloop
  endfacet
  facet normal  0.000000e+000  1.000000e+000  0.000000e+000
    outer loop
      vertex  3.163845e-002  8.984375e-001  1.331317e-001
      vertex -3.755951e-002  8.984375e-001  1.331317e-001
      vertex  3.548380e-002  8.984375e-001  1.403258e-001
    endloop
  endfacet
  facet normal  -0.000000e+000  1.000000e+000  0.000000e+000
    outer loop
      vertex -3.238454e-002  8.984375e-001  1.268260e-001
      vertex -3.755951e-002  8.984375e-001  1.331317e-001
      vertex  3.163845e-002  8.984375e-001  1.331317e-001
    endloop
  endfacet
  facet normal  0.000000e+000  1.000000e+000  0.000000e+000
    outer loop
      vertex  2.646349e-002  8.984375e-001  1.268260e-001
      vertex -3.238454e-002  8.984375e-001  1.268260e-001
      vertex  3.163845e-002  8.984375e-001  1.331317e-001
    endloop
  endfacet
  facet normal  -0.000000e+000  1.000000e+000  0.000000e+000
    outer loop
      vertex -2.607883e-002  8.984375e-001  1.216510e-001
      vertex -3.238454e-002  8.984375e-001  1.268260e-001
      vertex  2.646349e-002  8.984375e-001  1.268260e-001
    endloop
  endfacet
  facet normal  0.000000e+000  1.000000e+000  0.000000e+000
    outer loop
      vertex  2.015777e-002  8.984375e-001  1.216510e-001
      vertex -2.607883e-002  8.984375e-001  1.216510e-001
      vertex  2.646349e-002  8.984375e-001  1.268260e-001
    endloop
  endfacet
  facet normal  -0.000000e+000  1.000000e+000  0.000000e+000
    outer loop
      vertex -1.888469e-002  8.984375e-001  1.178057e-001
      vertex -2.607883e-002  8.984375e-001  1.216510e-001
      vertex  2.015777e-002  8.984375e-001  1.216510e-001
    endloop
  endfacet
  facet normal  0.000000e+000  1.000000e+000  0.000000e+000
    outer loop
      vertex  1.296364e-002  8.984375e-001  1.178057e-001
      vertex -1.888469e-002  8.984375e-001  1.178057e-001
      vertex  2.015777e-002  8.984375e-001  1.216510e-001
    endloop
  endfacet
  facet normal  -0.000000e+000  9.999999e-001  0.000000e+000
    outer loop
      vertex -1.107859e-002  8.984375e-001  1.154377e-001
      vertex -1.888469e-002  8.984375e-001  1.178057e-001
      vertex  1.296364e-002  8.984375e-001  1.178057e-001
    endloop
  endfacet
  facet normal  -0.000000e+000  1.000000e+000  0.000000e+000
    outer loop
      vertex -2.960526e-003  8.984375e-001  1.146382e-001
      vertex -1.107859e-002  8.984375e-001  1.154377e-001
      vertex  1.296364e-002  8.984375e-001  1.178057e-001
    endloop
  endfacet
  facet normal  0.000000e+000  1.000000e+000  0.000000e+000
    outer loop
      vertex  5.157541e-003  8.984375e-001  1.154377e-001
      vertex -2.960526e-003  8.984375e-001  1.146382e-001
      vertex  1.296364e-002  8.984375e-001  1.178057e-001
    endloop
  endfacet
  facet normal  -0.000000e+000  1.000000e+000  0.000000e+000
    outer loop
      vertex -4.140485e-002  8.984375e-001  1.403258e-001
      vertex -4.377281e-002  8.984375e-001  1.481319e-001
      vertex  3.785175e-002  8.984375e-001  1.481319e-001
    endloop
  endfacet
  facet normal  0.000000e+000  1.000000e+000  0.000000e+000
    outer loop
      vertex  3.785175e-002  8.984375e-001  1.481319e-001
      vertex -4.377281e-002  8.984375e-001  1.481319e-001
      vertex -4.457237e-002  8.984375e-001  1.562500e-001
    endloop
  endfacet
  facet normal  -0.000000e+000  1.000000e+000  0.000000e+000
    outer loop
      vertex  3.785175e-002  8.984375e-001  1.481319e-001
      vertex -4.457237e-002  8.984375e-001  1.562500e-001
      vertex  3.865132e-002  8.984375e-001  1.562500e-001
    endloop
  endfacet
  facet normal  0.000000e+000  1.000000e+000  0.000000e+000
    outer loop
      vertex  3.865132e-002  8.984375e-001  1.562500e-001
      vertex -4.457237e-002  8.984375e-001  1.562500e-001
      vertex -4.377281e-002  8.984375e-001  1.643681e-001
    endloop
  endfacet
  facet normal  -0.000000e+000  1.000000e+000  0.000000e+000
    outer loop
      vertex  3.865132e-002  8.984375e-001  1.562500e-001
      vertex -4.377281e-002  8.984375e-001  1.643681e-001
      vertex  3.785175e-002  8.984375e-001  1.643681e-001
    endloop
  endfacet
  facet normal  0.000000e+000 -1.000000e+000  -0.000000e+000
    outer loop
      vertex -2.960526e-003 -8.984375e-001  1.978618e-001
      vertex -1.107859e-002 -8.984375e-001  1.970623e-001
      vertex -1.888469e-002 -8.984375e-001  1.946943e-001
    endloop
  endfacet
  facet normal  0.000000e+000 -1.000000e+000  -0.000000e+000
    outer loop
      vertex  5.157541e-003 -8.984375e-001  1.970623e-001
      vertex -2.960526e-003 -8.984375e-001  1.978618e-001
      vertex -1.888469e-002 -8.984375e-001  1.946943e-001
    endloop
  endfacet
  facet normal  0.000000e+000 -9.999999e-001  0.000000e+000
    outer loop
      vertex  5.157541e-003 -8.984375e-001  1.970623e-001
      vertex -1.888469e-002 -8.984375e-001  1.946943e-001
      vertex  1.296364e-002 -8.984375e-001  1.946943e-001
    endloop
  endfacet
  facet normal  0.000000e+000 -1.000000e+000  -0.000000e+000
    outer loop
      vertex  1.296364e-002 -8.984375e-001  1.946943e-001
      vertex -1.888469e-002 -8.984375e-001  1.946943e-001
      vertex -2.607883e-002 -8.984375e-001  1.908490e-001
    endloop
  endfacet
  facet normal  0.000000e+000 -1.000000e+000  0.000000e+000
    outer loop
      vertex  1.296364e-002 -8.984375e-001  1.946943e-001
      vertex -2.607883e-002 -8.984375e-001  1.908490e-001
      vertex  2.015777e-002 -8.984375e-001  1.908490e-001
    endloop
  endfacet
  facet normal  0.000000e+000 -1.000000e+000  -0.000000e+000
    outer loop
      vertex  2.015777e-002 -8.984375e-001  1.908490e-001
      vertex -2.607883e-002 -8.984375e-001  1.908490e-001
      vertex -3.238454e-002 -8.984375e-001  1.856740e-001
    endloop
  endfacet
  facet normal  0.000000e+000 -1.000000e+000  0.000000e+000
    outer loop
      vertex  2.015777e-002 -8.984375e-001  1.908490e-001
      vertex -3.238454e-002 -8.984375e-001  1.856740e-001
      vertex  2.646349e-002 -8.984375e-001  1.856740e-001
    endloop
  endfacet
  facet normal  0.000000e+000 -1.000000e+000  -0.000000e+000
    outer loop
      vertex  2.646349e-002 -8.984375e-001  1.856740e-001
      vertex -3.238454e-002 -8.984375e-001  1.856740e-001
      vertex -3.755951e-002 -8.984375e-001  1.793683e-001
    endloop
  endfacet
  facet normal  0.000000e+000 -1.000000e+000  0.000000e+000
    outer loop
      vertex  2.646349e-002 -8.984375e-001  1.856740e-001
      vertex -3.755951e-002 -8.984375e-001  1.793683e-001
      vertex  3.163845e-002 -8.984375e-001  1.793683e-001
    endloop
  endfacet
  facet normal  0.000000e+000 -1.000000e+000  -0.000000e+000
    outer loop
      vertex  3.163845e-002 -8.984375e-001  1.793683e-001
      vertex -3.755951e-002 -8.984375e-001  1.793683e-001
      vertex -4.140485e-002 -8.984375e-001  1.721742e-001
    endloop
  endfacet
  facet normal  0.000000e+000 -1.000000e+000  0.000000e+000
    outer loop
      vertex  3.163845e-002 -8.984375e-001  1.793683e-001
      vertex -4.140485e-002 -8.984375e-001  1.721742e-001
      vertex  3.548380e-002 -8.984375e-001  1.721742e-001
    endloop
  endfacet
  facet normal  0.000000e+000 -1.000000e+000  -0.000000e+000
    outer loop
      vertex  3.548380e-002 -8.984375e-001  1.721742e-001
      vertex -4.140485e-002 -8.984375e-001  1.721742e-001
      vertex -4.377281e-002 -8.984375e-001  1.643681e-001
    endloop
  endfacet
  facet normal  0.000000e+000 -1.000000e+000  0.000000e+000
    outer loop
      vertex  3.548380e-002 -8.984375e-001  1.721742e-001
      vertex -4.377281e-002 -8.984375e-001  1.643681e-001
      vertex  3.785175e-002 -8.984375e-001  1.643681e-001
    endloop
  endfacet
  facet normal  0.000000e+000 -1.000000e+000  0.000000e+000
    outer loop
      vertex  3.785175e-002 -8.984375e-001  1.481319e-001
      vertex -4.140485e-002 -8.984375e-001  1.403258e-001
      vertex  3.548380e-002 -8.984375e-001  1.403258e-001
    endloop
  endfacet
  facet normal  0.000000e+000 -1.000000e+000  0.000000e+000
    outer loop
      vertex  3.548380e-002 -8.984375e-001  1.403258e-001
      vertex -4.140485e-002 -8.984375e-001  1.403258e-001
      vertex -3.755951e-002 -8.984375e-001  1.331317e-001
    endloop
  endfacet
  facet normal  0.000000e+000 -1.000000e+000  0.000000e+000
    outer loop
      vertex  3.548380e-002 -8.984375e-001  1.403258e-001
      vertex -3.755951e-002 -8.984375e-001  1.331317e-001
      vertex  3.163845e-002 -8.984375e-001  1.331317e-001
    endloop
  endfacet
  facet normal  0.000000e+000 -1.000000e+000  0.000000e+000
    outer loop
      vertex  3.163845e-002 -8.984375e-001  1.331317e-001
      vertex -3.755951e-002 -8.984375e-001  1.331317e-001
      vertex -3.238454e-002 -8.984375e-001  1.268260e-001
    endloop
  endfacet
  facet normal  0.000000e+000 -1.000000e+000  0.000000e+000
    outer loop
      vertex  3.163845e-002 -8.984375e-001  1.331317e-001
      vertex -3.238454e-002 -8.984375e-001  1.268260e-001
      vertex  2.646349e-002 -8.984375e-001  1.268260e-001
    endloop
  endfacet
  facet normal  0.000000e+000 -1.000000e+000  0.000000e+000
    outer loop
      vertex  2.646349e-002 -8.984375e-001  1.268260e-001
      vertex -3.238454e-002 -8.984375e-001  1.268260e-001
      vertex -2.607883e-002 -8.984375e-001  1.216510e-001
    endloop
  endfacet
  facet normal  0.000000e+000 -1.000000e+000  0.000000e+000
    outer loop
      vertex  2.646349e-002 -8.984375e-001  1.268260e-001
      vertex -2.607883e-002 -8.984375e-001  1.216510e-001
      vertex  2.015777e-002 -8.984375e-001  1.216510e-001
    endloop
  endfacet
  facet normal  0.000000e+000 -1.000000e+000  0.000000e+000
    outer loop
      vertex  2.015777e-002 -8.984375e-001  1.216510e-001
      vertex -2.607883e-002 -8.984375e-001  1.216510e-001
      vertex -1.888469e-002 -8.984375e-001  1.178057e-001
    endloop
  endfacet
  facet normal  0.000000e+000 -1.000000e+000  0.000000e+000
    outer loop
      vertex  2.015777e-002 -8.984375e-001  1.216510e-001
      vertex -1.888469e-002 -8.984375e-001  1.178057e-001
      vertex  1.296364e-002 -8.984375e-001  1.178057e-001
    endloop
  endfacet
  facet normal  0.000000e+000 -9.999999e-001  0.000000e+000
    outer loop
      vertex  1.296364e-002 -8.984375e-001  1.178057e-001
      vertex -1.888469e-002 -8.984375e-001  1.178057e-001
      vertex -1.107859e-002 -8.984375e-001  1.154377e-001
    endloop
  endfacet
  facet normal  0.000000e+000 -1.000000e+000  0.000000e+000
    outer loop
      vertex  1.296364e-002 -8.984375e-001  1.178057e-001
      vertex -1.107859e-002 -8.984375e-001  1.154377e-001
      vertex -2.960526e-003 -8.984375e-001  1.146382e-001
    endloop
  endfacet
  facet normal  0.000000e+000 -1.000000e+000  0.000000e+000
    outer loop
      vertex  1.296364e-002 -8.984375e-001  1.178057e-001
      vertex -2.960526e-003 -8.984375e-001  1.146382e-001
      vertex  5.157541e-003 -8.984375e-001  1.154377e-001
    endloop
  endfacet
  facet normal  0.000000e+000 -1.000000e+000  0.000000e+000
    outer loop
      vertex  3.785175e-002 -8.984375e-001  1.643681e-001
      vertex -4.377281e-002 -8.984375e-001  1.643681e-001
      vertex  3.865132e-002 -8.984375e-001  1.562500e-001
    endloop
  endfacet
  facet normal  0.000000e+000 -1.000000e+000  0.000000e+000
    outer loop
      vertex  3.865132e-002 -8.984375e-001  1.562500e-001
      vertex -4.377281e-002 -8.984375e-001  1.643681e-001
      vertex -4.457237e-002 -8.984375e-001  1.562500e-001
    endloop
  endfacet
  facet normal  0.000000e+000 -1.000000e+000  0.000000e+000
    outer loop
      vertex  3.865132e-002 -8.984375e-001  1.562500e-001
      vertex -4.457237e-002 -8.984375e-001  1.562500e-001
      vertex  3.785175e-002 -8.984375e-001  1.481319e-001
    endloop
  endfacet
  facet normal  0.000000e+000 -1.000000e+000  0.000000e+000
    outer loop
      vertex  3.785175e-002 -8.984375e-001  1.481319e-001
      vertex -4.457237e-002 -8.984375e-001  1.562500e-001
      vertex -4.377281e-002 -8.984375e-001  1.481319e-001
    endloop
  endfacet
  facet normal  0.000000e+000 -1.000000e+000  0.000000e+000
    outer loop
      vertex  3.785175e-002 -8.984375e-001  1.481319e-001
      vertex -4.377281e-002 -8.984375e-001  1.481319e-001
      vertex -4.140485e-002 -8.984375e-001  1.403258e-001
    endloop
  endfacet
endsolid CATIA STL
