solid CATIA STL
  facet normal  0.000000e+000  0.000000e+000  1.000000e+000
    outer loop
      vertex -2.824878e-001 -2.903003e-001  7.500000e-001
      vertex -2.926490e-001 -2.750929e-001  7.500000e-001
      vertex -2.883172e-001 -2.831970e-001  7.500000e-001
    endloop
  endfacet
  facet normal  -0.000000e+000  0.000000e+000  1.000000e+000
    outer loop
      vertex  3.977796e-001  3.899671e-001  7.500000e-001
      vertex -1.634046e-001  3.899671e-001  7.500000e-001
      vertex -2.962171e-001  3.274671e-001  7.500000e-001
    endloop
  endfacet
  facet normal  -0.000000e+000  0.000000e+000  1.000000e+000
    outer loop
      vertex  3.977796e-001  3.899671e-001  7.500000e-001
      vertex -2.962171e-001  3.274671e-001  7.500000e-001
      vertex -2.962171e-001 -2.571546e-001  7.500000e-001
    endloop
  endfacet
  facet normal  -0.000000e+000  0.000000e+000  9.999999e-001
    outer loop
      vertex  3.977796e-001  3.899671e-001  7.500000e-001
      vertex -2.962171e-001 -2.571546e-001  7.500000e-001
      vertex -2.953164e-001 -2.662995e-001  7.500000e-001
    endloop
  endfacet
  facet normal  -0.000000e+000  0.000000e+000  1.000000e+000
    outer loop
      vertex  3.977796e-001  3.899671e-001  7.500000e-001
      vertex -2.953164e-001 -2.662995e-001  7.500000e-001
      vertex  3.977796e-001 -3.040296e-001  7.500000e-001
    endloop
  endfacet
  facet normal  -0.000000e+000  -0.000000e+000  1.000000e+000
    outer loop
      vertex -2.953164e-001 -2.662995e-001  7.500000e-001
      vertex -2.926490e-001 -2.750929e-001  7.500000e-001
      vertex -2.824878e-001 -2.903003e-001  7.500000e-001
    endloop
  endfacet
  facet normal  -0.000000e+000  -0.000000e+000  1.000000e+000
    outer loop
      vertex -2.953164e-001 -2.662995e-001  7.500000e-001
      vertex -2.824878e-001 -2.903003e-001  7.500000e-001
      vertex -2.753845e-001 -2.961297e-001  7.500000e-001
    endloop
  endfacet
  facet normal  -0.000000e+000  -0.000000e+000  1.000000e+000
    outer loop
      vertex -2.953164e-001 -2.662995e-001  7.500000e-001
      vertex -2.753845e-001 -2.961297e-001  7.500000e-001
      vertex -2.672804e-001 -3.004615e-001  7.500000e-001
    endloop
  endfacet
  facet normal  -0.000000e+000  -0.000000e+000  1.000000e+000
    outer loop
      vertex -2.953164e-001 -2.662995e-001  7.500000e-001
      vertex -2.672804e-001 -3.004615e-001  7.500000e-001
      vertex -2.584870e-001 -3.031289e-001  7.500000e-001
    endloop
  endfacet
  facet normal  -0.000000e+000  -0.000000e+000  1.000000e+000
    outer loop
      vertex -2.953164e-001 -2.662995e-001  7.500000e-001
      vertex -2.584870e-001 -3.031289e-001  7.500000e-001
      vertex -2.493421e-001 -3.040296e-001  7.500000e-001
    endloop
  endfacet
  facet normal  0.000000e+000  -0.000000e+000  1.000000e+000
    outer loop
      vertex -2.953164e-001 -2.662995e-001  7.500000e-001
      vertex -2.493421e-001 -3.040296e-001  7.500000e-001
      vertex  3.977796e-001 -3.040296e-001  7.500000e-001
    endloop
  endfacet
  facet normal  0.000000e+000  0.000000e+000 -1.000000e+000
    outer loop
      vertex -2.883172e-001 -2.831970e-001  0.000000e+000
      vertex -2.926490e-001 -2.750929e-001  0.000000e+000
      vertex -2.824878e-001 -2.903003e-001  0.000000e+000
    endloop
  endfacet
  facet normal  0.000000e+000  0.000000e+000 -1.000000e+000
    outer loop
      vertex  3.977796e-001  3.899671e-001  0.000000e+000
      vertex  3.977796e-001 -3.040296e-001  0.000000e+000
      vertex -2.953164e-001 -2.662995e-001  0.000000e+000
    endloop
  endfacet
  facet normal  0.000000e+000  0.000000e+000 -9.999999e-001
    outer loop
      vertex  3.977796e-001  3.899671e-001  0.000000e+000
      vertex -2.953164e-001 -2.662995e-001  0.000000e+000
      vertex -2.962171e-001 -2.571546e-001  0.000000e+000
    endloop
  endfacet
  facet normal  0.000000e+000  0.000000e+000 -1.000000e+000
    outer loop
      vertex  3.977796e-001  3.899671e-001  0.000000e+000
      vertex -2.962171e-001 -2.571546e-001  0.000000e+000
      vertex -2.962171e-001  3.274671e-001  0.000000e+000
    endloop
  endfacet
  facet normal  0.000000e+000  0.000000e+000 -1.000000e+000
    outer loop
      vertex  3.977796e-001  3.899671e-001  0.000000e+000
      vertex -2.962171e-001  3.274671e-001  0.000000e+000
      vertex -1.634046e-001  3.899671e-001  0.000000e+000
    endloop
  endfacet
  facet normal  0.000000e+000  0.000000e+000 -1.000000e+000
    outer loop
      vertex -2.953164e-001 -2.662995e-001  0.000000e+000
      vertex  3.977796e-001 -3.040296e-001  0.000000e+000
      vertex -2.493421e-001 -3.040296e-001  0.000000e+000
    endloop
  endfacet
  facet normal  0.000000e+000  0.000000e+000 -1.000000e+000
    outer loop
      vertex -2.953164e-001 -2.662995e-001  0.000000e+000
      vertex -2.493421e-001 -3.040296e-001  0.000000e+000
      vertex -2.584870e-001 -3.031289e-001  0.000000e+000
    endloop
  endfacet
  facet normal  0.000000e+000  0.000000e+000 -1.000000e+000
    outer loop
      vertex -2.953164e-001 -2.662995e-001  0.000000e+000
      vertex -2.584870e-001 -3.031289e-001  0.000000e+000
      vertex -2.672804e-001 -3.004615e-001  0.000000e+000
    endloop
  endfacet
  facet normal  0.000000e+000  0.000000e+000 -1.000000e+000
    outer loop
      vertex -2.953164e-001 -2.662995e-001  0.000000e+000
      vertex -2.672804e-001 -3.004615e-001  0.000000e+000
      vertex -2.753845e-001 -2.961297e-001  0.000000e+000
    endloop
  endfacet
  facet normal  0.000000e+000  0.000000e+000 -1.000000e+000
    outer loop
      vertex -2.953164e-001 -2.662995e-001  0.000000e+000
      vertex -2.753845e-001 -2.961297e-001  0.000000e+000
      vertex -2.824878e-001 -2.903003e-001  0.000000e+000
    endloop
  endfacet
  facet normal  0.000000e+000  0.000000e+000 -1.000000e+000
    outer loop
      vertex -2.953164e-001 -2.662995e-001  0.000000e+000
      vertex -2.824878e-001 -2.903003e-001  0.000000e+000
      vertex -2.926490e-001 -2.750929e-001  0.000000e+000
    endloop
  endfacet
  facet normal -9.999999e-001  0.000000e+000  0.000000e+000
    outer loop
      vertex -2.962171e-001  3.274671e-001  0.000000e+000
      vertex -2.962171e-001 -2.571546e-001  0.000000e+000
      vertex -2.962171e-001  3.274671e-001  7.500000e-001
    endloop
  endfacet
  facet normal -9.999999e-001  -0.000000e+000  0.000000e+000
    outer loop
      vertex -2.962171e-001  3.274671e-001  7.500000e-001
      vertex -2.962171e-001 -2.571546e-001  0.000000e+000
      vertex -2.962171e-001 -2.571546e-001  7.500000e-001
    endloop
  endfacet
  facet normal  0.000000e+000 -1.000000e+000  0.000000e+000
    outer loop
      vertex -2.493421e-001 -3.040296e-001  0.000000e+000
      vertex  3.977796e-001 -3.040296e-001  0.000000e+000
      vertex -2.493421e-001 -3.040296e-001  7.500000e-001
    endloop
  endfacet
  facet normal  0.000000e+000 -1.000000e+000  0.000000e+000
    outer loop
      vertex -2.493421e-001 -3.040296e-001  7.500000e-001
      vertex  3.977796e-001 -3.040296e-001  0.000000e+000
      vertex  3.977796e-001 -3.040296e-001  7.500000e-001
    endloop
  endfacet
  facet normal -9.801670e-002 -9.951848e-001  -0.000000e+000
    outer loop
      vertex -2.493421e-001 -3.040296e-001  0.000000e+000
      vertex -2.493421e-001 -3.040296e-001  7.500000e-001
      vertex -2.584870e-001 -3.031289e-001  0.000000e+000
    endloop
  endfacet
  facet normal -9.801670e-002 -9.951848e-001  0.000000e+000
    outer loop
      vertex -2.584870e-001 -3.031289e-001  0.000000e+000
      vertex -2.493421e-001 -3.040296e-001  7.500000e-001
      vertex -2.584870e-001 -3.031289e-001  7.500000e-001
    endloop
  endfacet
  facet normal -2.902842e-001 -9.569405e-001  -0.000000e+000
    outer loop
      vertex -2.584870e-001 -3.031289e-001  0.000000e+000
      vertex -2.584870e-001 -3.031289e-001  7.500000e-001
      vertex -2.672804e-001 -3.004615e-001  0.000000e+000
    endloop
  endfacet
  facet normal -2.902842e-001 -9.569405e-001  0.000000e+000
    outer loop
      vertex -2.672804e-001 -3.004615e-001  0.000000e+000
      vertex -2.584870e-001 -3.031289e-001  7.500000e-001
      vertex -2.672804e-001 -3.004615e-001  7.500000e-001
    endloop
  endfacet
  facet normal -4.713992e-001 -8.819200e-001  -0.000000e+000
    outer loop
      vertex -2.672804e-001 -3.004615e-001  0.000000e+000
      vertex -2.672804e-001 -3.004615e-001  7.500000e-001
      vertex -2.753845e-001 -2.961297e-001  0.000000e+000
    endloop
  endfacet
  facet normal -4.713992e-001 -8.819200e-001  0.000000e+000
    outer loop
      vertex -2.753845e-001 -2.961297e-001  0.000000e+000
      vertex -2.672804e-001 -3.004615e-001  7.500000e-001
      vertex -2.753845e-001 -2.961297e-001  7.500000e-001
    endloop
  endfacet
  facet normal -6.343908e-001 -7.730126e-001  -0.000000e+000
    outer loop
      vertex -2.753845e-001 -2.961297e-001  0.000000e+000
      vertex -2.753845e-001 -2.961297e-001  7.500000e-001
      vertex -2.824878e-001 -2.903003e-001  0.000000e+000
    endloop
  endfacet
  facet normal -6.343908e-001 -7.730126e-001  0.000000e+000
    outer loop
      vertex -2.824878e-001 -2.903003e-001  0.000000e+000
      vertex -2.753845e-001 -2.961297e-001  7.500000e-001
      vertex -2.824878e-001 -2.903003e-001  7.500000e-001
    endloop
  endfacet
  facet normal -7.730126e-001 -6.343908e-001  -0.000000e+000
    outer loop
      vertex -2.824878e-001 -2.903003e-001  0.000000e+000
      vertex -2.824878e-001 -2.903003e-001  7.500000e-001
      vertex -2.883172e-001 -2.831970e-001  0.000000e+000
    endloop
  endfacet
  facet normal -7.730126e-001 -6.343908e-001  0.000000e+000
    outer loop
      vertex -2.883172e-001 -2.831970e-001  0.000000e+000
      vertex -2.824878e-001 -2.903003e-001  7.500000e-001
      vertex -2.883172e-001 -2.831970e-001  7.500000e-001
    endloop
  endfacet
  facet normal -8.819200e-001 -4.713992e-001  -0.000000e+000
    outer loop
      vertex -2.883172e-001 -2.831970e-001  0.000000e+000
      vertex -2.883172e-001 -2.831970e-001  7.500000e-001
      vertex -2.926490e-001 -2.750929e-001  0.000000e+000
    endloop
  endfacet
  facet normal -8.819200e-001 -4.713992e-001  0.000000e+000
    outer loop
      vertex -2.926490e-001 -2.750929e-001  0.000000e+000
      vertex -2.883172e-001 -2.831970e-001  7.500000e-001
      vertex -2.926490e-001 -2.750929e-001  7.500000e-001
    endloop
  endfacet
  facet normal -9.569405e-001 -2.902842e-001  -0.000000e+000
    outer loop
      vertex -2.926490e-001 -2.750929e-001  0.000000e+000
      vertex -2.926490e-001 -2.750929e-001  7.500000e-001
      vertex -2.953164e-001 -2.662995e-001  0.000000e+000
    endloop
  endfacet
  facet normal -9.569405e-001 -2.902842e-001  0.000000e+000
    outer loop
      vertex -2.953164e-001 -2.662995e-001  0.000000e+000
      vertex -2.926490e-001 -2.750929e-001  7.500000e-001
      vertex -2.953164e-001 -2.662995e-001  7.500000e-001
    endloop
  endfacet
  facet normal -9.951847e-001 -9.801686e-002  -0.000000e+000
    outer loop
      vertex -2.953164e-001 -2.662995e-001  0.000000e+000
      vertex -2.953164e-001 -2.662995e-001  7.500000e-001
      vertex -2.962171e-001 -2.571546e-001  0.000000e+000
    endloop
  endfacet
  facet normal -9.951847e-001 -9.801686e-002  0.000000e+000
    outer loop
      vertex -2.962171e-001 -2.571546e-001  0.000000e+000
      vertex -2.953164e-001 -2.662995e-001  7.500000e-001
      vertex -2.962171e-001 -2.571546e-001  7.500000e-001
    endloop
  endfacet
  facet normal  0.000000e+000  1.000000e+000  0.000000e+000
    outer loop
      vertex  3.977796e-001  3.899671e-001  0.000000e+000
      vertex -1.634046e-001  3.899671e-001  0.000000e+000
      vertex  3.977796e-001  3.899671e-001  7.500000e-001
    endloop
  endfacet
  facet normal  0.000000e+000  1.000000e+000  0.000000e+000
    outer loop
      vertex  3.977796e-001  3.899671e-001  7.500000e-001
      vertex -1.634046e-001  3.899671e-001  0.000000e+000
      vertex -1.634046e-001  3.899671e-001  7.500000e-001
    endloop
  endfacet
  facet normal -4.257970e-001  9.048187e-001  0.000000e+000
    outer loop
      vertex -1.634046e-001  3.899671e-001  7.500000e-001
      vertex -1.634046e-001  3.899671e-001  0.000000e+000
      vertex -2.962171e-001  3.274671e-001  7.500000e-001
    endloop
  endfacet
  facet normal -4.257970e-001  9.048187e-001  0.000000e+000
    outer loop
      vertex -2.962171e-001  3.274671e-001  7.500000e-001
      vertex -1.634046e-001  3.899671e-001  0.000000e+000
      vertex -2.962171e-001  3.274671e-001  0.000000e+000
    endloop
  endfacet
  facet normal  1.000000e+000  0.000000e+000  0.000000e+000
    outer loop
      vertex  3.977796e-001 -3.040296e-001  0.000000e+000
      vertex  3.977796e-001  3.899671e-001  0.000000e+000
      vertex  3.977796e-001 -3.040296e-001  7.500000e-001
    endloop
  endfacet
  facet normal  1.000000e+000  -0.000000e+000  0.000000e+000
    outer loop
      vertex  3.977796e-001 -3.040296e-001  7.500000e-001
      vertex  3.977796e-001  3.899671e-001  0.000000e+000
      vertex  3.977796e-001  3.899671e-001  7.500000e-001
    endloop
  endfacet
endsolid CATIA STL
