solid CATIA STL
  facet normal  0.000000e+000  0.000000e+000 -1.000000e+000
    outer loop
      vertex -1.069079e-002 -1.850329e-002  0.000000e+000
      vertex -1.069079e-002  1.899671e-002  0.000000e+000
      vertex  1.118421e-002 -1.850329e-002  0.000000e+000
    endloop
  endfacet
  facet normal  0.000000e+000  0.000000e+000 -1.000000e+000
    outer loop
      vertex  1.118421e-002 -1.850329e-002  0.000000e+000
      vertex -1.069079e-002  1.899671e-002  0.000000e+000
      vertex  1.118421e-002  1.899671e-002  0.000000e+000
    endloop
  endfacet
  facet normal -1.000000e+000  0.000000e+000  0.000000e+000
    outer loop
      vertex -2.631579e-002  1.899671e-002  1.250000e-001
      vertex -2.631579e-002 -1.850329e-002  1.250000e-001
      vertex -2.631579e-002  1.899671e-002  7.500000e-001
    endloop
  endfacet
  facet normal -1.000000e+000  -0.000000e+000  0.000000e+000
    outer loop
      vertex -2.631579e-002  1.899671e-002  7.500000e-001
      vertex -2.631579e-002 -1.850329e-002  1.250000e-001
      vertex -2.631579e-002 -1.850329e-002  7.500000e-001
    endloop
  endfacet
  facet normal  0.000000e+000  1.000000e+000  0.000000e+000
    outer loop
      vertex -2.631579e-002  1.899671e-002  7.500000e-001
      vertex  1.118421e-002  1.899671e-002  7.500000e-001
      vertex -2.631579e-002  1.899671e-002  1.250000e-001
    endloop
  endfacet
  facet normal  -0.000000e+000  1.000000e+000  0.000000e+000
    outer loop
      vertex -2.631579e-002  1.899671e-002  1.250000e-001
      vertex  1.118421e-002  1.899671e-002  7.500000e-001
      vertex  1.118421e-002  1.899671e-002  0.000000e+000
    endloop
  endfacet
  facet normal  0.000000e+000  1.000000e+000  0.000000e+000
    outer loop
      vertex -2.631579e-002  1.899671e-002  1.250000e-001
      vertex  1.118421e-002  1.899671e-002  0.000000e+000
      vertex -1.069079e-002  1.899671e-002  0.000000e+000
    endloop
  endfacet
  facet normal  0.000000e+000 -1.000000e+000  0.000000e+000
    outer loop
      vertex  1.118421e-002 -1.850329e-002  7.500000e-001
      vertex -2.631579e-002 -1.850329e-002  7.500000e-001
      vertex  1.118421e-002 -1.850329e-002  0.000000e+000
    endloop
  endfacet
  facet normal  0.000000e+000 -1.000000e+000  0.000000e+000
    outer loop
      vertex  1.118421e-002 -1.850329e-002  0.000000e+000
      vertex -2.631579e-002 -1.850329e-002  7.500000e-001
      vertex -2.631579e-002 -1.850329e-002  1.250000e-001
    endloop
  endfacet
  facet normal  0.000000e+000 -1.000000e+000  0.000000e+000
    outer loop
      vertex  1.118421e-002 -1.850329e-002  0.000000e+000
      vertex -2.631579e-002 -1.850329e-002  1.250000e-001
      vertex -1.069079e-002 -1.850329e-002  0.000000e+000
    endloop
  endfacet
  facet normal -9.922779e-001  0.000000e+000 -1.240347e-001
    outer loop
      vertex -1.069079e-002  1.899671e-002  0.000000e+000
      vertex -1.069079e-002 -1.850329e-002  0.000000e+000
      vertex -2.631579e-002  1.899671e-002  1.250000e-001
    endloop
  endfacet
  facet normal -9.922779e-001  -0.000000e+000 -1.240347e-001
    outer loop
      vertex -2.631579e-002  1.899671e-002  1.250000e-001
      vertex -1.069079e-002 -1.850329e-002  0.000000e+000
      vertex -2.631579e-002 -1.850329e-002  1.250000e-001
    endloop
  endfacet
  facet normal  0.000000e+000  0.000000e+000  1.000000e+000
    outer loop
      vertex -2.631579e-002 -1.850329e-002  7.500000e-001
      vertex  1.118421e-002 -1.850329e-002  7.500000e-001
      vertex -2.631579e-002  1.899671e-002  7.500000e-001
    endloop
  endfacet
  facet normal  -0.000000e+000  0.000000e+000  1.000000e+000
    outer loop
      vertex -2.631579e-002  1.899671e-002  7.500000e-001
      vertex  1.118421e-002 -1.850329e-002  7.500000e-001
      vertex  1.118421e-002  1.899671e-002  7.500000e-001
    endloop
  endfacet
  facet normal  1.000000e+000  0.000000e+000  0.000000e+000
    outer loop
      vertex  1.118421e-002 -1.850329e-002  0.000000e+000
      vertex  1.118421e-002  1.899671e-002  0.000000e+000
      vertex  1.118421e-002 -1.850329e-002  7.500000e-001
    endloop
  endfacet
  facet normal  1.000000e+000  -0.000000e+000  0.000000e+000
    outer loop
      vertex  1.118421e-002 -1.850329e-002  7.500000e-001
      vertex  1.118421e-002  1.899671e-002  0.000000e+000
      vertex  1.118421e-002  1.899671e-002  7.500000e-001
    endloop
  endfacet
endsolid CATIA STL
