solid CATIA STL
  facet normal  0.000000e+000  1.000000e+000  0.000000e+000
    outer loop
      vertex -7.500000e-001  3.379934e-001  7.812500e-003
      vertex -7.500000e-001  3.379934e-001  1.875000e-001
      vertex -6.953125e-001  3.379934e-001  0.000000e+000
    endloop
  endfacet
  facet normal  0.000000e+000  1.000000e+000  -0.000000e+000
    outer loop
      vertex -6.953125e-001  3.379934e-001  0.000000e+000
      vertex -7.500000e-001  3.379934e-001  1.875000e-001
      vertex -6.718750e-001  3.379934e-001  2.734375e-001
    endloop
  endfacet
  facet normal  0.000000e+000  1.000000e+000  0.000000e+000
    outer loop
      vertex -6.953125e-001  3.379934e-001  0.000000e+000
      vertex -6.718750e-001  3.379934e-001  2.734375e-001
      vertex  5.312500e-001  3.379934e-001  0.000000e+000
    endloop
  endfacet
  facet normal  0.000000e+000  1.000000e+000  -0.000000e+000
    outer loop
      vertex  5.312500e-001  3.379934e-001  0.000000e+000
      vertex -6.718750e-001  3.379934e-001  2.734375e-001
      vertex  5.312500e-001  3.379934e-001  2.734375e-001
    endloop
  endfacet
  facet normal  0.000000e+000 -1.000000e+000  -0.000000e+000
    outer loop
      vertex  5.312500e-001 -4.218750e-001  0.000000e+000
      vertex  5.312500e-001 -4.218750e-001  2.734375e-001
      vertex -6.953125e-001 -4.218750e-001  0.000000e+000
    endloop
  endfacet
  facet normal  0.000000e+000 -1.000000e+000  0.000000e+000
    outer loop
      vertex -6.953125e-001 -4.218750e-001  0.000000e+000
      vertex  5.312500e-001 -4.218750e-001  2.734375e-001
      vertex -6.718750e-001 -4.218750e-001  2.734375e-001
    endloop
  endfacet
  facet normal  0.000000e+000 -1.000000e+000  0.000000e+000
    outer loop
      vertex -6.953125e-001 -4.218750e-001  0.000000e+000
      vertex -6.718750e-001 -4.218750e-001  2.734375e-001
      vertex -7.500000e-001 -4.218750e-001  7.812500e-003
    endloop
  endfacet
  facet normal  0.000000e+000 -9.999999e-001  0.000000e+000
    outer loop
      vertex -7.500000e-001 -4.218750e-001  7.812500e-003
      vertex -6.718750e-001 -4.218750e-001  2.734375e-001
      vertex -7.500000e-001 -4.218750e-001  1.875000e-001
    endloop
  endfacet
  facet normal -1.000000e+000  0.000000e+000  0.000000e+000
    outer loop
      vertex -7.500000e-001  3.379934e-001  1.875000e-001
      vertex -7.500000e-001  3.379934e-001  7.812500e-003
      vertex -7.500000e-001 -4.218750e-001  1.875000e-001
    endloop
  endfacet
  facet normal -1.000000e+000  0.000000e+000  0.000000e+000
    outer loop
      vertex -7.500000e-001 -4.218750e-001  1.875000e-001
      vertex -7.500000e-001  3.379934e-001  7.812500e-003
      vertex -7.500000e-001 -4.218750e-001  7.812500e-003
    endloop
  endfacet
  facet normal  0.000000e+000  0.000000e+000  1.000000e+000
    outer loop
      vertex -6.718750e-001 -4.218750e-001  2.734375e-001
      vertex  5.312500e-001 -4.218750e-001  2.734375e-001
      vertex -6.718750e-001  3.379934e-001  2.734375e-001
    endloop
  endfacet
  facet normal  -0.000000e+000  0.000000e+000  1.000000e+000
    outer loop
      vertex -6.718750e-001  3.379934e-001  2.734375e-001
      vertex  5.312500e-001 -4.218750e-001  2.734375e-001
      vertex  5.312500e-001  3.379934e-001  2.734375e-001
    endloop
  endfacet
  facet normal -7.399401e-001  0.000000e+000  6.726729e-001
    outer loop
      vertex -6.718750e-001 -4.218750e-001  2.734375e-001
      vertex -6.718750e-001  3.379934e-001  2.734375e-001
      vertex -7.500000e-001 -4.218750e-001  1.875000e-001
    endloop
  endfacet
  facet normal -7.399401e-001  0.000000e+000  6.726729e-001
    outer loop
      vertex -7.500000e-001 -4.218750e-001  1.875000e-001
      vertex -6.718750e-001  3.379934e-001  2.734375e-001
      vertex -7.500000e-001  3.379934e-001  1.875000e-001
    endloop
  endfacet
  facet normal  0.000000e+000  0.000000e+000 -9.999999e-001
    outer loop
      vertex -6.953125e-001 -4.218750e-001  0.000000e+000
      vertex -6.953125e-001  3.379934e-001  0.000000e+000
      vertex  5.312500e-001 -4.218750e-001  0.000000e+000
    endloop
  endfacet
  facet normal  0.000000e+000  0.000000e+000 -9.999999e-001
    outer loop
      vertex  5.312500e-001 -4.218750e-001  0.000000e+000
      vertex -6.953125e-001  3.379934e-001  0.000000e+000
      vertex  5.312500e-001  3.379934e-001  0.000000e+000
    endloop
  endfacet
  facet normal -1.414214e-001  0.000000e+000 -9.899495e-001
    outer loop
      vertex -7.500000e-001  3.379934e-001  7.812500e-003
      vertex -6.953125e-001  3.379934e-001  0.000000e+000
      vertex -7.500000e-001 -4.218750e-001  7.812500e-003
    endloop
  endfacet
  facet normal -1.414214e-001  0.000000e+000 -9.899495e-001
    outer loop
      vertex -7.500000e-001 -4.218750e-001  7.812500e-003
      vertex -6.953125e-001  3.379934e-001  0.000000e+000
      vertex -6.953125e-001 -4.218750e-001  0.000000e+000
    endloop
  endfacet
  facet normal  1.000000e+000  0.000000e+000  0.000000e+000
    outer loop
      vertex  5.625000e-001 -3.906250e-001  2.421875e-001
      vertex  5.625000e-001 -3.906250e-001  3.125000e-002
      vertex  5.625000e-001  3.067434e-001  2.421875e-001
    endloop
  endfacet
  facet normal  1.000000e+000  0.000000e+000  0.000000e+000
    outer loop
      vertex  5.625000e-001  3.067434e-001  2.421875e-001
      vertex  5.625000e-001 -3.906250e-001  3.125000e-002
      vertex  5.625000e-001  3.067434e-001  3.125000e-002
    endloop
  endfacet
  facet normal  9.917707e-001  2.537686e-007 -1.280263e-001
    outer loop
      vertex  5.625000e-001  3.067434e-001  3.125000e-002
      vertex  5.614759e-001 -3.985581e-001  2.331554e-002
      vertex  5.614759e-001  3.146779e-001  2.331696e-002
    endloop
  endfacet
  facet normal  9.917736e-001  0.000000e+000 -1.280041e-001
    outer loop
      vertex  5.625000e-001  3.067434e-001  3.125000e-002
      vertex  5.625000e-001 -3.906250e-001  3.125000e-002
      vertex  5.614759e-001 -3.985581e-001  2.331554e-002
    endloop
  endfacet
  facet normal  5.038889e-001  0.000000e+000 -8.637684e-001
    outer loop
      vertex  5.447579e-001 -4.188048e-001  3.070234e-003
      vertex  5.491315e-001  3.323718e-001  5.621627e-003
      vertex  5.491315e-001 -4.162534e-001  5.621627e-003
    endloop
  endfacet
  facet normal  6.366452e-001  0.000000e+000 -7.711568e-001
    outer loop
      vertex  5.491315e-001 -4.162534e-001  5.621627e-003
      vertex  5.491315e-001  3.323718e-001  5.621627e-003
      vertex  5.530286e-001  3.291544e-001  8.838988e-003
    endloop
  endfacet
  facet normal  6.366452e-001  0.000000e+000 -7.711568e-001
    outer loop
      vertex  5.491315e-001 -4.162534e-001  5.621627e-003
      vertex  5.530286e-001  3.291544e-001  8.838988e-003
      vertex  5.530286e-001 -4.130360e-001  8.838988e-003
    endloop
  endfacet
  facet normal  7.464167e-001  0.000000e+000 -6.654787e-001
    outer loop
      vertex  5.530286e-001 -4.130360e-001  8.838988e-003
      vertex  5.530286e-001  3.291544e-001  8.838988e-003
      vertex  5.560001e-001  3.258222e-001  1.217179e-002
    endloop
  endfacet
  facet normal  7.463625e-001  4.929834e-007 -6.655396e-001
    outer loop
      vertex  5.530286e-001 -4.130360e-001  8.838988e-003
      vertex  5.560001e-001  3.258222e-001  1.217179e-002
      vertex  5.560001e-001 -4.097032e-001  1.217125e-002
    endloop
  endfacet
  facet normal  8.321115e-001  4.108136e-007 -5.546084e-001
    outer loop
      vertex  5.560001e-001 -4.097032e-001  1.217125e-002
      vertex  5.560001e-001  3.258222e-001  1.217179e-002
      vertex  5.583788e-001  3.222544e-001  1.574079e-002
    endloop
  endfacet
  facet normal  8.320265e-001  1.309348e-006 -5.547360e-001
    outer loop
      vertex  5.560001e-001 -4.097032e-001  1.217125e-002
      vertex  5.583788e-001  3.222544e-001  1.574079e-002
      vertex  5.583788e-001 -4.061342e-001  1.573907e-002
    endloop
  endfacet
  facet normal  8.991973e-001  1.032737e-006 -4.375433e-001
    outer loop
      vertex  5.583788e-001 -4.061342e-001  1.573907e-002
      vertex  5.583788e-001  3.222544e-001  1.574079e-002
      vertex  5.601957e-001  3.185209e-001  1.947463e-002
    endloop
  endfacet
  facet normal  8.991765e-001  1.304702e-006 -4.375859e-001
    outer loop
      vertex  5.583788e-001 -4.061342e-001  1.573907e-002
      vertex  5.601957e-001  3.185209e-001  1.947463e-002
      vertex  5.601957e-001 -4.024004e-001  1.947248e-002
    endloop
  endfacet
  facet normal  9.487226e-001  9.425106e-007 -3.161099e-001
    outer loop
      vertex  5.601957e-001 -4.024004e-001  1.947248e-002
      vertex  5.601957e-001  3.185209e-001  1.947463e-002
      vertex  5.614759e-001  3.146779e-001  2.331696e-002
    endloop
  endfacet
  facet normal  9.487402e-001  6.264752e-007 -3.160568e-001
    outer loop
      vertex  5.601957e-001 -4.024004e-001  1.947248e-002
      vertex  5.614759e-001  3.146779e-001  2.331696e-002
      vertex  5.614759e-001 -3.985581e-001  2.331554e-002
    endloop
  endfacet
  facet normal  6.192816e-002  0.000000e+000 -9.980806e-001
    outer loop
      vertex  5.312500e-001 -4.218750e-001  0.000000e+000
      vertex  5.312500e-001  3.379934e-001  0.000000e+000
      vertex  5.351131e-001 -4.216353e-001  2.396945e-004
    endloop
  endfacet
  facet normal  6.192816e-002  0.000000e+000 -9.980806e-001
    outer loop
      vertex  5.351131e-001 -4.216353e-001  2.396945e-004
      vertex  5.312500e-001  3.379934e-001  0.000000e+000
      vertex  5.351131e-001  3.377537e-001  2.396945e-004
    endloop
  endfacet
  facet normal  1.637727e-001  0.000000e+000 -9.864981e-001
    outer loop
      vertex  5.351131e-001 -4.216353e-001  2.396945e-004
      vertex  5.351131e-001  3.377537e-001  2.396945e-004
      vertex  5.376142e-001 -4.212201e-001  6.549177e-004
    endloop
  endfacet
  facet normal  1.637727e-001  0.000000e+000 -9.864981e-001
    outer loop
      vertex  5.376142e-001 -4.212201e-001  6.549177e-004
      vertex  5.351131e-001  3.377537e-001  2.396945e-004
      vertex  5.376142e-001  3.373385e-001  6.549177e-004
    endloop
  endfacet
  facet normal  2.426060e-001  0.000000e+000 -9.701250e-001
    outer loop
      vertex  5.376142e-001 -4.212201e-001  6.549177e-004
      vertex  5.376142e-001  3.373385e-001  6.549177e-004
      vertex  5.400364e-001 -4.206144e-001  1.260643e-003
    endloop
  endfacet
  facet normal  2.426060e-001  0.000000e+000 -9.701249e-001
    outer loop
      vertex  5.400364e-001 -4.206144e-001  1.260643e-003
      vertex  5.376142e-001  3.373385e-001  6.549177e-004
      vertex  5.400364e-001  3.367328e-001  1.260643e-003
    endloop
  endfacet
  facet normal  3.202420e-001  0.000000e+000 -9.473358e-001
    outer loop
      vertex  5.400364e-001 -4.206144e-001  1.260643e-003
      vertex  5.400364e-001  3.367328e-001  1.260643e-003
      vertex  5.424621e-001 -4.197944e-001  2.080648e-003
    endloop
  endfacet
  facet normal  3.202420e-001  0.000000e+000 -9.473358e-001
    outer loop
      vertex  5.424621e-001 -4.197944e-001  2.080648e-003
      vertex  5.400364e-001  3.367328e-001  1.260643e-003
      vertex  5.424621e-001  3.359128e-001  2.080648e-003
    endloop
  endfacet
  facet normal  3.958360e-001  0.000000e+000 -9.183213e-001
    outer loop
      vertex  5.424621e-001 -4.197944e-001  2.080648e-003
      vertex  5.424621e-001  3.359128e-001  2.080648e-003
      vertex  5.447579e-001 -4.188048e-001  3.070234e-003
    endloop
  endfacet
  facet normal  3.958360e-001  0.000000e+000 -9.183213e-001
    outer loop
      vertex  5.447579e-001 -4.188048e-001  3.070234e-003
      vertex  5.424621e-001  3.359128e-001  2.080648e-003
      vertex  5.447579e-001  3.349232e-001  3.070234e-003
    endloop
  endfacet
  facet normal  5.038890e-001  0.000000e+000 -8.637685e-001
    outer loop
      vertex  5.447579e-001 -4.188048e-001  3.070234e-003
      vertex  5.447579e-001  3.349232e-001  3.070234e-003
      vertex  5.491315e-001  3.323718e-001  5.621627e-003
    endloop
  endfacet
  facet normal  9.917709e-001  1.280257e-001  7.906646e-007
    outer loop
      vertex  5.625000e-001  3.067434e-001  2.421875e-001
      vertex  5.614759e-001  3.146779e-001  2.331696e-002
      vertex  5.614759e-001  3.146765e-001  2.501220e-001
    endloop
  endfacet
  facet normal  9.917737e-001  1.280042e-001  -0.000000e+000
    outer loop
      vertex  5.625000e-001  3.067434e-001  2.421875e-001
      vertex  5.625000e-001  3.067434e-001  3.125000e-002
      vertex  5.614759e-001  3.146779e-001  2.331696e-002
    endloop
  endfacet
  facet normal  5.038864e-001  8.637699e-001  0.000000e+000
    outer loop
      vertex  5.447579e-001  3.349232e-001  3.070234e-003
      vertex  5.491315e-001  3.323718e-001  2.678159e-001
      vertex  5.491315e-001  3.323718e-001  5.621627e-003
    endloop
  endfacet
  facet normal  6.366463e-001  7.711560e-001  0.000000e+000
    outer loop
      vertex  5.491315e-001  3.323718e-001  5.621627e-003
      vertex  5.491315e-001  3.323718e-001  2.678159e-001
      vertex  5.530286e-001  3.291544e-001  2.645985e-001
    endloop
  endfacet
  facet normal  6.366463e-001  7.711560e-001  0.000000e+000
    outer loop
      vertex  5.491315e-001  3.323718e-001  5.621627e-003
      vertex  5.530286e-001  3.291544e-001  2.645985e-001
      vertex  5.530286e-001  3.291544e-001  8.838988e-003
    endloop
  endfacet
  facet normal  7.464157e-001  6.654800e-001  0.000000e+000
    outer loop
      vertex  5.530286e-001  3.291544e-001  8.838988e-003
      vertex  5.530286e-001  3.291544e-001  2.645985e-001
      vertex  5.560001e-001  3.258216e-001  2.612663e-001
    endloop
  endfacet
  facet normal  7.463618e-001  6.655405e-001  1.433287e-006
    outer loop
      vertex  5.530286e-001  3.291544e-001  8.838988e-003
      vertex  5.560001e-001  3.258216e-001  2.612663e-001
      vertex  5.560001e-001  3.258222e-001  1.217179e-002
    endloop
  endfacet
  facet normal  8.321128e-001  5.546064e-001  1.194382e-006
    outer loop
      vertex  5.560001e-001  3.258222e-001  1.217179e-002
      vertex  5.560001e-001  3.258216e-001  2.612663e-001
      vertex  5.583788e-001  3.222526e-001  2.576984e-001
    endloop
  endfacet
  facet normal  8.320250e-001  5.547382e-001  3.963025e-006
    outer loop
      vertex  5.560001e-001  3.258222e-001  1.217179e-002
      vertex  5.583788e-001  3.222526e-001  2.576984e-001
      vertex  5.583788e-001  3.222544e-001  1.574079e-002
    endloop
  endfacet
  facet normal  8.991980e-001  4.375419e-001  3.125780e-006
    outer loop
      vertex  5.583788e-001  3.222544e-001  1.574079e-002
      vertex  5.583788e-001  3.222526e-001  2.576984e-001
      vertex  5.601957e-001  3.185188e-001  2.539650e-001
    endloop
  endfacet
  facet normal  8.991760e-001  4.375872e-001  4.004259e-006
    outer loop
      vertex  5.583788e-001  3.222544e-001  1.574079e-002
      vertex  5.601957e-001  3.185188e-001  2.539650e-001
      vertex  5.601957e-001  3.185209e-001  1.947463e-002
    endloop
  endfacet
  facet normal  9.487232e-001  3.161082e-001  2.892632e-006
    outer loop
      vertex  5.601957e-001  3.185209e-001  1.947463e-002
      vertex  5.601957e-001  3.185188e-001  2.539650e-001
      vertex  5.614759e-001  3.146765e-001  2.501220e-001
    endloop
  endfacet
  facet normal  9.487401e-001  3.160574e-001  1.951917e-006
    outer loop
      vertex  5.601957e-001  3.185209e-001  1.947463e-002
      vertex  5.614759e-001  3.146765e-001  2.501220e-001
      vertex  5.614759e-001  3.146779e-001  2.331696e-002
    endloop
  endfacet
  facet normal  6.192960e-002  9.980806e-001  0.000000e+000
    outer loop
      vertex  5.312500e-001  3.379934e-001  0.000000e+000
      vertex  5.312500e-001  3.379934e-001  2.734375e-001
      vertex  5.351131e-001  3.377537e-001  2.396945e-004
    endloop
  endfacet
  facet normal  6.192959e-002  9.980805e-001  -0.000000e+000
    outer loop
      vertex  5.351131e-001  3.377537e-001  2.396945e-004
      vertex  5.312500e-001  3.379934e-001  2.734375e-001
      vertex  5.351131e-001  3.377537e-001  2.731978e-001
    endloop
  endfacet
  facet normal  1.637661e-001  9.864991e-001  0.000000e+000
    outer loop
      vertex  5.351131e-001  3.377537e-001  2.396945e-004
      vertex  5.351131e-001  3.377537e-001  2.731978e-001
      vertex  5.376142e-001  3.373385e-001  6.549177e-004
    endloop
  endfacet
  facet normal  1.637661e-001  9.864992e-001  -0.000000e+000
    outer loop
      vertex  5.376142e-001  3.373385e-001  6.549177e-004
      vertex  5.351131e-001  3.377537e-001  2.731978e-001
      vertex  5.376142e-001  3.373385e-001  2.727826e-001
    endloop
  endfacet
  facet normal  2.426086e-001  9.701242e-001  0.000000e+000
    outer loop
      vertex  5.376142e-001  3.373385e-001  6.549177e-004
      vertex  5.376142e-001  3.373385e-001  2.727826e-001
      vertex  5.400364e-001  3.367328e-001  1.260643e-003
    endloop
  endfacet
  facet normal  2.426086e-001  9.701242e-001  -0.000000e+000
    outer loop
      vertex  5.400364e-001  3.367328e-001  1.260643e-003
      vertex  5.376142e-001  3.373385e-001  2.727826e-001
      vertex  5.400364e-001  3.367328e-001  2.721769e-001
    endloop
  endfacet
  facet normal  3.202438e-001  9.473351e-001  0.000000e+000
    outer loop
      vertex  5.400364e-001  3.367328e-001  1.260643e-003
      vertex  5.400364e-001  3.367328e-001  2.721769e-001
      vertex  5.424621e-001  3.359128e-001  2.080648e-003
    endloop
  endfacet
  facet normal  3.202439e-001  9.473352e-001  -0.000000e+000
    outer loop
      vertex  5.424621e-001  3.359128e-001  2.080648e-003
      vertex  5.400364e-001  3.367328e-001  2.721769e-001
      vertex  5.424621e-001  3.359128e-001  2.713569e-001
    endloop
  endfacet
  facet normal  3.958362e-001  9.183210e-001  0.000000e+000
    outer loop
      vertex  5.424621e-001  3.359128e-001  2.080648e-003
      vertex  5.424621e-001  3.359128e-001  2.713569e-001
      vertex  5.447579e-001  3.349232e-001  3.070234e-003
    endloop
  endfacet
  facet normal  3.958363e-001  9.183211e-001  -0.000000e+000
    outer loop
      vertex  5.447579e-001  3.349232e-001  3.070234e-003
      vertex  5.424621e-001  3.359128e-001  2.713569e-001
      vertex  5.447579e-001  3.349232e-001  2.703673e-001
    endloop
  endfacet
  facet normal  5.038863e-001  8.637699e-001  0.000000e+000
    outer loop
      vertex  5.447579e-001  3.349232e-001  3.070234e-003
      vertex  5.447579e-001  3.349232e-001  2.703673e-001
      vertex  5.491315e-001  3.323718e-001  2.678159e-001
    endloop
  endfacet
  facet normal  9.917707e-001 -2.514280e-007  1.280262e-001
    outer loop
      vertex  5.625000e-001 -3.906250e-001  2.421875e-001
      vertex  5.614759e-001  3.146765e-001  2.501220e-001
      vertex  5.614759e-001 -3.985595e-001  2.501206e-001
    endloop
  endfacet
  facet normal  9.917737e-001  0.000000e+000  1.280042e-001
    outer loop
      vertex  5.625000e-001 -3.906250e-001  2.421875e-001
      vertex  5.625000e-001  3.067434e-001  2.421875e-001
      vertex  5.614759e-001  3.146765e-001  2.501220e-001
    endloop
  endfacet
  facet normal  9.487405e-001 -6.206961e-007  3.160562e-001
    outer loop
      vertex  5.614759e-001 -3.985595e-001  2.501206e-001
      vertex  5.614759e-001  3.146765e-001  2.501220e-001
      vertex  5.601957e-001  3.185188e-001  2.539650e-001
    endloop
  endfacet
  facet normal  9.487226e-001 -9.408771e-007  3.161099e-001
    outer loop
      vertex  5.614759e-001 -3.985595e-001  2.501206e-001
      vertex  5.601957e-001  3.185188e-001  2.539650e-001
      vertex  5.601957e-001 -4.024025e-001  2.539629e-001
    endloop
  endfacet
  facet normal  8.991770e-001 -1.302438e-006  4.375851e-001
    outer loop
      vertex  5.601957e-001 -4.024025e-001  2.539629e-001
      vertex  5.601957e-001  3.185188e-001  2.539650e-001
      vertex  5.583788e-001  3.222526e-001  2.576984e-001
    endloop
  endfacet
  facet normal  8.991972e-001 -1.038332e-006  4.375436e-001
    outer loop
      vertex  5.601957e-001 -4.024025e-001  2.539629e-001
      vertex  5.583788e-001  3.222526e-001  2.576984e-001
      vertex  5.583788e-001 -4.061359e-001  2.576967e-001
    endloop
  endfacet
  facet normal  8.320262e-001 -1.316442e-006  5.547364e-001
    outer loop
      vertex  5.583788e-001 -4.061359e-001  2.576967e-001
      vertex  5.583788e-001  3.222526e-001  2.576984e-001
      vertex  5.560001e-001  3.258216e-001  2.612663e-001
    endloop
  endfacet
  facet normal  8.321104e-001 -4.269666e-007  5.546101e-001
    outer loop
      vertex  5.583788e-001 -4.061359e-001  2.576967e-001
      vertex  5.560001e-001  3.258216e-001  2.612663e-001
      vertex  5.560001e-001 -4.097038e-001  2.612657e-001
    endloop
  endfacet
  facet normal  7.463622e-001 -5.123659e-007  6.655400e-001
    outer loop
      vertex  5.560001e-001 -4.097038e-001  2.612657e-001
      vertex  5.560001e-001  3.258216e-001  2.612663e-001
      vertex  5.530286e-001  3.291544e-001  2.645985e-001
    endloop
  endfacet
  facet normal  7.464186e-001  0.000000e+000  6.654766e-001
    outer loop
      vertex  5.560001e-001 -4.097038e-001  2.612657e-001
      vertex  5.530286e-001  3.291544e-001  2.645985e-001
      vertex  5.530286e-001 -4.130360e-001  2.645985e-001
    endloop
  endfacet
  facet normal  6.366428e-001  0.000000e+000  7.711589e-001
    outer loop
      vertex  5.530286e-001 -4.130360e-001  2.645985e-001
      vertex  5.530286e-001  3.291544e-001  2.645985e-001
      vertex  5.491315e-001  3.323718e-001  2.678159e-001
    endloop
  endfacet
  facet normal  6.366428e-001  0.000000e+000  7.711589e-001
    outer loop
      vertex  5.530286e-001 -4.130360e-001  2.645985e-001
      vertex  5.491315e-001  3.323718e-001  2.678159e-001
      vertex  5.491315e-001 -4.162534e-001  2.678159e-001
    endloop
  endfacet
  facet normal  5.038908e-001  0.000000e+000  8.637674e-001
    outer loop
      vertex  5.491315e-001 -4.162534e-001  2.678159e-001
      vertex  5.491315e-001  3.323718e-001  2.678159e-001
      vertex  5.447579e-001  3.349232e-001  2.703673e-001
    endloop
  endfacet
  facet normal  6.192960e-002  -0.000000e+000  9.980806e-001
    outer loop
      vertex  5.312500e-001  3.379934e-001  2.734375e-001
      vertex  5.312500e-001 -4.218750e-001  2.734375e-001
      vertex  5.351131e-001  3.377537e-001  2.731978e-001
    endloop
  endfacet
  facet normal  6.192959e-002  0.000000e+000  9.980806e-001
    outer loop
      vertex  5.351131e-001  3.377537e-001  2.731978e-001
      vertex  5.312500e-001 -4.218750e-001  2.734375e-001
      vertex  5.351131e-001 -4.216353e-001  2.731978e-001
    endloop
  endfacet
  facet normal  1.637661e-001  -0.000000e+000  9.864992e-001
    outer loop
      vertex  5.351131e-001  3.377537e-001  2.731978e-001
      vertex  5.351131e-001 -4.216353e-001  2.731978e-001
      vertex  5.376142e-001  3.373385e-001  2.727826e-001
    endloop
  endfacet
  facet normal  1.637661e-001  0.000000e+000  9.864991e-001
    outer loop
      vertex  5.376142e-001  3.373385e-001  2.727826e-001
      vertex  5.351131e-001 -4.216353e-001  2.731978e-001
      vertex  5.376142e-001 -4.212201e-001  2.727826e-001
    endloop
  endfacet
  facet normal  2.426086e-001  -0.000000e+000  9.701242e-001
    outer loop
      vertex  5.376142e-001  3.373385e-001  2.727826e-001
      vertex  5.376142e-001 -4.212201e-001  2.727826e-001
      vertex  5.400364e-001  3.367328e-001  2.721769e-001
    endloop
  endfacet
  facet normal  2.426087e-001  0.000000e+000  9.701242e-001
    outer loop
      vertex  5.400364e-001  3.367328e-001  2.721769e-001
      vertex  5.376142e-001 -4.212201e-001  2.727826e-001
      vertex  5.400364e-001 -4.206144e-001  2.721769e-001
    endloop
  endfacet
  facet normal  3.202438e-001  -0.000000e+000  9.473351e-001
    outer loop
      vertex  5.400364e-001  3.367328e-001  2.721769e-001
      vertex  5.400364e-001 -4.206144e-001  2.721769e-001
      vertex  5.424621e-001  3.359128e-001  2.713569e-001
    endloop
  endfacet
  facet normal  3.202438e-001  0.000000e+000  9.473351e-001
    outer loop
      vertex  5.424621e-001  3.359128e-001  2.713569e-001
      vertex  5.400364e-001 -4.206144e-001  2.721769e-001
      vertex  5.424621e-001 -4.197944e-001  2.713569e-001
    endloop
  endfacet
  facet normal  3.958363e-001  -0.000000e+000  9.183211e-001
    outer loop
      vertex  5.424621e-001  3.359128e-001  2.713569e-001
      vertex  5.424621e-001 -4.197944e-001  2.713569e-001
      vertex  5.447579e-001  3.349232e-001  2.703673e-001
    endloop
  endfacet
  facet normal  3.958363e-001  0.000000e+000  9.183211e-001
    outer loop
      vertex  5.447579e-001  3.349232e-001  2.703673e-001
      vertex  5.424621e-001 -4.197944e-001  2.713569e-001
      vertex  5.447579e-001 -4.188048e-001  2.703673e-001
    endloop
  endfacet
  facet normal  5.038908e-001  -0.000000e+000  8.637674e-001
    outer loop
      vertex  5.447579e-001  3.349232e-001  2.703673e-001
      vertex  5.447579e-001 -4.188048e-001  2.703673e-001
      vertex  5.491315e-001 -4.162534e-001  2.678159e-001
    endloop
  endfacet
  facet normal  9.917709e-001 -1.280257e-001 -7.906646e-007
    outer loop
      vertex  5.625000e-001 -3.906250e-001  3.125000e-002
      vertex  5.614759e-001 -3.985595e-001  2.501206e-001
      vertex  5.614759e-001 -3.985581e-001  2.331554e-002
    endloop
  endfacet
  facet normal  9.917737e-001 -1.280042e-001  0.000000e+000
    outer loop
      vertex  5.625000e-001 -3.906250e-001  3.125000e-002
      vertex  5.625000e-001 -3.906250e-001  2.421875e-001
      vertex  5.614759e-001 -3.985595e-001  2.501206e-001
    endloop
  endfacet
  facet normal  9.487401e-001 -3.160574e-001 -1.951917e-006
    outer loop
      vertex  5.614759e-001 -3.985581e-001  2.331554e-002
      vertex  5.614759e-001 -3.985595e-001  2.501206e-001
      vertex  5.601957e-001 -4.024025e-001  2.539629e-001
    endloop
  endfacet
  facet normal  9.487232e-001 -3.161082e-001 -2.892632e-006
    outer loop
      vertex  5.614759e-001 -3.985581e-001  2.331554e-002
      vertex  5.601957e-001 -4.024025e-001  2.539629e-001
      vertex  5.601957e-001 -4.024004e-001  1.947248e-002
    endloop
  endfacet
  facet normal  8.991760e-001 -4.375872e-001 -4.004259e-006
    outer loop
      vertex  5.601957e-001 -4.024004e-001  1.947248e-002
      vertex  5.601957e-001 -4.024025e-001  2.539629e-001
      vertex  5.583788e-001 -4.061359e-001  2.576967e-001
    endloop
  endfacet
  facet normal  8.991979e-001 -4.375419e-001 -3.125780e-006
    outer loop
      vertex  5.601957e-001 -4.024004e-001  1.947248e-002
      vertex  5.583788e-001 -4.061359e-001  2.576967e-001
      vertex  5.583788e-001 -4.061342e-001  1.573907e-002
    endloop
  endfacet
  facet normal  8.320249e-001 -5.547383e-001 -3.963025e-006
    outer loop
      vertex  5.583788e-001 -4.061342e-001  1.573907e-002
      vertex  5.583788e-001 -4.061359e-001  2.576967e-001
      vertex  5.560001e-001 -4.097038e-001  2.612657e-001
    endloop
  endfacet
  facet normal  8.321108e-001 -5.546095e-001 -1.260744e-006
    outer loop
      vertex  5.583788e-001 -4.061342e-001  1.573907e-002
      vertex  5.560001e-001 -4.097038e-001  2.612657e-001
      vertex  5.560001e-001 -4.097032e-001  1.217125e-002
    endloop
  endfacet
  facet normal  7.463617e-001 -6.655406e-001 -1.512914e-006
    outer loop
      vertex  5.560001e-001 -4.097032e-001  1.217125e-002
      vertex  5.560001e-001 -4.097038e-001  2.612657e-001
      vertex  5.530286e-001 -4.130360e-001  2.645985e-001
    endloop
  endfacet
  facet normal  7.464187e-001 -6.654767e-001  0.000000e+000
    outer loop
      vertex  5.560001e-001 -4.097032e-001  1.217125e-002
      vertex  5.530286e-001 -4.130360e-001  2.645985e-001
      vertex  5.530286e-001 -4.130360e-001  8.838988e-003
    endloop
  endfacet
  facet normal  6.366428e-001 -7.711589e-001  0.000000e+000
    outer loop
      vertex  5.530286e-001 -4.130360e-001  8.838988e-003
      vertex  5.530286e-001 -4.130360e-001  2.645985e-001
      vertex  5.491315e-001 -4.162534e-001  2.678159e-001
    endloop
  endfacet
  facet normal  6.366427e-001 -7.711588e-001  0.000000e+000
    outer loop
      vertex  5.530286e-001 -4.130360e-001  8.838988e-003
      vertex  5.491315e-001 -4.162534e-001  2.678159e-001
      vertex  5.491315e-001 -4.162534e-001  5.621627e-003
    endloop
  endfacet
  facet normal  5.038908e-001 -8.637674e-001  0.000000e+000
    outer loop
      vertex  5.491315e-001 -4.162534e-001  5.621627e-003
      vertex  5.491315e-001 -4.162534e-001  2.678159e-001
      vertex  5.447579e-001 -4.188048e-001  2.703673e-001
    endloop
  endfacet
  facet normal  6.192960e-002 -9.980806e-001  0.000000e+000
    outer loop
      vertex  5.312500e-001 -4.218750e-001  2.734375e-001
      vertex  5.312500e-001 -4.218750e-001  0.000000e+000
      vertex  5.351131e-001 -4.216353e-001  2.731978e-001
    endloop
  endfacet
  facet normal  6.192959e-002 -9.980805e-001  0.000000e+000
    outer loop
      vertex  5.351131e-001 -4.216353e-001  2.731978e-001
      vertex  5.312500e-001 -4.218750e-001  0.000000e+000
      vertex  5.351131e-001 -4.216353e-001  2.396945e-004
    endloop
  endfacet
  facet normal  1.637661e-001 -9.864991e-001  0.000000e+000
    outer loop
      vertex  5.351131e-001 -4.216353e-001  2.731978e-001
      vertex  5.351131e-001 -4.216353e-001  2.396945e-004
      vertex  5.376142e-001 -4.212201e-001  2.727826e-001
    endloop
  endfacet
  facet normal  1.637661e-001 -9.864992e-001  0.000000e+000
    outer loop
      vertex  5.376142e-001 -4.212201e-001  2.727826e-001
      vertex  5.351131e-001 -4.216353e-001  2.396945e-004
      vertex  5.376142e-001 -4.212201e-001  6.549177e-004
    endloop
  endfacet
  facet normal  2.426086e-001 -9.701242e-001  0.000000e+000
    outer loop
      vertex  5.376142e-001 -4.212201e-001  2.727826e-001
      vertex  5.376142e-001 -4.212201e-001  6.549177e-004
      vertex  5.400364e-001 -4.206144e-001  2.721769e-001
    endloop
  endfacet
  facet normal  2.426086e-001 -9.701242e-001  0.000000e+000
    outer loop
      vertex  5.400364e-001 -4.206144e-001  2.721769e-001
      vertex  5.376142e-001 -4.212201e-001  6.549177e-004
      vertex  5.400364e-001 -4.206144e-001  1.260643e-003
    endloop
  endfacet
  facet normal  3.202438e-001 -9.473351e-001  0.000000e+000
    outer loop
      vertex  5.400364e-001 -4.206144e-001  2.721769e-001
      vertex  5.400364e-001 -4.206144e-001  1.260643e-003
      vertex  5.424621e-001 -4.197944e-001  2.713569e-001
    endloop
  endfacet
  facet normal  3.202439e-001 -9.473352e-001  0.000000e+000
    outer loop
      vertex  5.424621e-001 -4.197944e-001  2.713569e-001
      vertex  5.400364e-001 -4.206144e-001  1.260643e-003
      vertex  5.424621e-001 -4.197944e-001  2.080648e-003
    endloop
  endfacet
  facet normal  3.958362e-001 -9.183210e-001  0.000000e+000
    outer loop
      vertex  5.424621e-001 -4.197944e-001  2.713569e-001
      vertex  5.424621e-001 -4.197944e-001  2.080648e-003
      vertex  5.447579e-001 -4.188048e-001  2.703673e-001
    endloop
  endfacet
  facet normal  3.958363e-001 -9.183211e-001  0.000000e+000
    outer loop
      vertex  5.447579e-001 -4.188048e-001  2.703673e-001
      vertex  5.424621e-001 -4.197944e-001  2.080648e-003
      vertex  5.447579e-001 -4.188048e-001  3.070234e-003
    endloop
  endfacet
  facet normal  5.038908e-001 -8.637674e-001  0.000000e+000
    outer loop
      vertex  5.447579e-001 -4.188048e-001  2.703673e-001
      vertex  5.447579e-001 -4.188048e-001  3.070234e-003
      vertex  5.491315e-001 -4.162534e-001  5.621627e-003
    endloop
  endfacet
endsolid CATIA STL
