solid CATIA STL
  facet normal  1.000000e+000  0.000000e+000  0.000000e+000
    outer loop
      vertex  1.500000e-001 -1.875000e-001  2.968750e-001
      vertex  1.500000e-001 -1.875000e-001  0.000000e+000
      vertex  1.500000e-001 -1.755757e-001  2.968750e-001
    endloop
  endfacet
  facet normal  1.000000e+000  0.000000e+000  0.000000e+000
    outer loop
      vertex  1.500000e-001 -1.755757e-001  2.968750e-001
      vertex  1.500000e-001 -1.875000e-001  0.000000e+000
      vertex  1.500000e-001 -1.755757e-001  0.000000e+000
    endloop
  endfacet
  facet normal  0.000000e+000  -0.000000e+000  1.000000e+000
    outer loop
      vertex -7.812500e-002 -1.875000e-001  2.968750e-001
      vertex  1.500000e-001 -1.875000e-001  2.968750e-001
      vertex  1.500000e-001 -1.755757e-001  2.968750e-001
    endloop
  endfacet
  facet normal  0.000000e+000  0.000000e+000  1.000000e+000
    outer loop
      vertex -7.812500e-002 -1.875000e-001  2.968750e-001
      vertex  1.500000e-001 -1.755757e-001  2.968750e-001
      vertex  3.536184e-002 -1.755757e-001  2.968750e-001
    endloop
  endfacet
  facet normal  0.000000e+000  0.000000e+000  9.999999e-001
    outer loop
      vertex -7.812500e-002 -1.875000e-001  2.968750e-001
      vertex  3.536184e-002 -1.755757e-001  2.968750e-001
      vertex -6.085526e-002 -1.685855e-001  2.968750e-001
    endloop
  endfacet
  facet normal  -0.000000e+000  0.000000e+000  1.000000e+000
    outer loop
      vertex  0.000000e+000 -1.685855e-001  2.968750e-001
      vertex -6.085526e-002 -1.685855e-001  2.968750e-001
      vertex  3.536184e-002 -1.755757e-001  2.968750e-001
    endloop
  endfacet
  facet normal  0.000000e+000  0.000000e+000  9.999999e-001
    outer loop
      vertex  0.000000e+000 -1.685855e-001  2.968750e-001
      vertex  3.536184e-002 -1.755757e-001  2.968750e-001
      vertex  1.973684e-002 -1.599507e-001  2.968750e-001
    endloop
  endfacet
  facet normal  0.000000e+000  -0.000000e+000  1.000000e+000
    outer loop
      vertex  0.000000e+000 -1.685855e-001  2.968750e-001
      vertex  1.973684e-002 -1.599507e-001  2.968750e-001
      vertex  1.973684e-002  1.677632e-001  2.968750e-001
    endloop
  endfacet
  facet normal  0.000000e+000  0.000000e+000  1.000000e+000
    outer loop
      vertex  0.000000e+000 -1.685855e-001  2.968750e-001
      vertex  1.973684e-002  1.677632e-001  2.968750e-001
      vertex  0.000000e+000  1.677632e-001  2.968750e-001
    endloop
  endfacet
  facet normal  -0.000000e+000  0.000000e+000  1.000000e+000
    outer loop
      vertex  1.500000e-001  1.875000e-001  2.968750e-001
      vertex -7.812500e-002  1.875000e-001  2.968750e-001
      vertex -6.085526e-002  1.685855e-001  2.968750e-001
    endloop
  endfacet
  facet normal  -0.000000e+000  0.000000e+000  1.000000e+000
    outer loop
      vertex  1.500000e-001  1.875000e-001  2.968750e-001
      vertex -6.085526e-002  1.685855e-001  2.968750e-001
      vertex  0.000000e+000  1.677632e-001  2.968750e-001
    endloop
  endfacet
  facet normal  0.000000e+000  0.000000e+000  1.000000e+000
    outer loop
      vertex  1.500000e-001  1.875000e-001  2.968750e-001
      vertex  0.000000e+000  1.677632e-001  2.968750e-001
      vertex  1.973684e-002  1.677632e-001  2.968750e-001
    endloop
  endfacet
  facet normal  0.000000e+000  0.000000e+000  1.000000e+000
    outer loop
      vertex  1.500000e-001  1.875000e-001  2.968750e-001
      vertex  1.973684e-002  1.677632e-001  2.968750e-001
      vertex  1.500000e-001  1.677632e-001  2.968750e-001
    endloop
  endfacet
  facet normal  0.000000e+000 -1.000000e+000  0.000000e+000
    outer loop
      vertex -7.812500e-002 -1.875000e-001  0.000000e+000
      vertex  1.500000e-001 -1.875000e-001  0.000000e+000
      vertex -7.812500e-002 -1.875000e-001  2.968750e-001
    endloop
  endfacet
  facet normal  0.000000e+000 -1.000000e+000  0.000000e+000
    outer loop
      vertex -7.812500e-002 -1.875000e-001  2.968750e-001
      vertex  1.500000e-001 -1.875000e-001  0.000000e+000
      vertex  1.500000e-001 -1.875000e-001  2.968750e-001
    endloop
  endfacet
  facet normal  0.000000e+000  -0.000000e+000 -9.999999e-001
    outer loop
      vertex -7.812500e-002 -1.875000e-001  0.000000e+000
      vertex -6.085526e-002 -1.685855e-001  0.000000e+000
      vertex  3.536184e-002 -1.755757e-001  0.000000e+000
    endloop
  endfacet
  facet normal  0.000000e+000  -0.000000e+000 -1.000000e+000
    outer loop
      vertex -7.812500e-002 -1.875000e-001  0.000000e+000
      vertex  3.536184e-002 -1.755757e-001  0.000000e+000
      vertex  1.500000e-001 -1.755757e-001  0.000000e+000
    endloop
  endfacet
  facet normal  0.000000e+000  -0.000000e+000 -1.000000e+000
    outer loop
      vertex -7.812500e-002 -1.875000e-001  0.000000e+000
      vertex  1.500000e-001 -1.755757e-001  0.000000e+000
      vertex  1.500000e-001 -1.875000e-001  0.000000e+000
    endloop
  endfacet
  facet normal  0.000000e+000  0.000000e+000 -1.000000e+000
    outer loop
      vertex  0.000000e+000 -1.685855e-001  0.000000e+000
      vertex  0.000000e+000  1.677632e-001  0.000000e+000
      vertex  1.973684e-002  1.677632e-001  0.000000e+000
    endloop
  endfacet
  facet normal  0.000000e+000  -0.000000e+000 -1.000000e+000
    outer loop
      vertex  0.000000e+000 -1.685855e-001  0.000000e+000
      vertex  1.973684e-002  1.677632e-001  0.000000e+000
      vertex  1.973684e-002 -1.599507e-001  0.000000e+000
    endloop
  endfacet
  facet normal  0.000000e+000  -0.000000e+000 -9.999999e-001
    outer loop
      vertex  0.000000e+000 -1.685855e-001  0.000000e+000
      vertex  1.973684e-002 -1.599507e-001  0.000000e+000
      vertex  3.536184e-002 -1.755757e-001  0.000000e+000
    endloop
  endfacet
  facet normal  0.000000e+000  0.000000e+000 -1.000000e+000
    outer loop
      vertex  0.000000e+000 -1.685855e-001  0.000000e+000
      vertex  3.536184e-002 -1.755757e-001  0.000000e+000
      vertex -6.085526e-002 -1.685855e-001  0.000000e+000
    endloop
  endfacet
  facet normal  0.000000e+000  0.000000e+000 -1.000000e+000
    outer loop
      vertex  1.500000e-001  1.875000e-001  0.000000e+000
      vertex  1.500000e-001  1.677632e-001  0.000000e+000
      vertex  1.973684e-002  1.677632e-001  0.000000e+000
    endloop
  endfacet
  facet normal  0.000000e+000  0.000000e+000 -1.000000e+000
    outer loop
      vertex  1.500000e-001  1.875000e-001  0.000000e+000
      vertex  1.973684e-002  1.677632e-001  0.000000e+000
      vertex  0.000000e+000  1.677632e-001  0.000000e+000
    endloop
  endfacet
  facet normal  0.000000e+000  0.000000e+000 -1.000000e+000
    outer loop
      vertex  1.500000e-001  1.875000e-001  0.000000e+000
      vertex  0.000000e+000  1.677632e-001  0.000000e+000
      vertex -6.085526e-002  1.685855e-001  0.000000e+000
    endloop
  endfacet
  facet normal  0.000000e+000  0.000000e+000 -1.000000e+000
    outer loop
      vertex  1.500000e-001  1.875000e-001  0.000000e+000
      vertex -6.085526e-002  1.685855e-001  0.000000e+000
      vertex -7.812500e-002  1.875000e-001  0.000000e+000
    endloop
  endfacet
  facet normal -7.384855e-001  6.742693e-001  0.000000e+000
    outer loop
      vertex -6.085526e-002 -1.685855e-001  2.968750e-001
      vertex -6.085526e-002 -1.685855e-001  0.000000e+000
      vertex -7.812500e-002 -1.875000e-001  2.968750e-001
    endloop
  endfacet
  facet normal -7.384855e-001  6.742693e-001  0.000000e+000
    outer loop
      vertex -7.812500e-002 -1.875000e-001  2.968750e-001
      vertex -6.085526e-002 -1.685855e-001  0.000000e+000
      vertex -7.812500e-002 -1.875000e-001  0.000000e+000
    endloop
  endfacet
  facet normal -1.000000e+000  0.000000e+000  0.000000e+000
    outer loop
      vertex  0.000000e+000  1.677632e-001  2.968750e-001
      vertex  0.000000e+000  1.677632e-001  0.000000e+000
      vertex  0.000000e+000 -1.685855e-001  2.968750e-001
    endloop
  endfacet
  facet normal -1.000000e+000  0.000000e+000  0.000000e+000
    outer loop
      vertex  0.000000e+000 -1.685855e-001  2.968750e-001
      vertex  0.000000e+000  1.677632e-001  0.000000e+000
      vertex  0.000000e+000 -1.685855e-001  0.000000e+000
    endloop
  endfacet
  facet normal  0.000000e+000  1.000000e+000  0.000000e+000
    outer loop
      vertex  0.000000e+000 -1.685855e-001  0.000000e+000
      vertex -6.085526e-002 -1.685855e-001  0.000000e+000
      vertex  0.000000e+000 -1.685855e-001  2.968750e-001
    endloop
  endfacet
  facet normal  0.000000e+000  1.000000e+000  0.000000e+000
    outer loop
      vertex  0.000000e+000 -1.685855e-001  2.968750e-001
      vertex -6.085526e-002 -1.685855e-001  0.000000e+000
      vertex -6.085526e-002 -1.685855e-001  2.968750e-001
    endloop
  endfacet
  facet normal  0.000000e+000  1.000000e+000  0.000000e+000
    outer loop
      vertex  1.421875e-001 -1.677632e-001  7.812500e-003
      vertex  2.754934e-002 -1.677632e-001  7.812500e-003
      vertex  1.421875e-001 -1.677632e-001  2.890625e-001
    endloop
  endfacet
  facet normal  0.000000e+000  1.000000e+000  0.000000e+000
    outer loop
      vertex  1.421875e-001 -1.677632e-001  2.890625e-001
      vertex  2.754934e-002 -1.677632e-001  7.812500e-003
      vertex  2.754934e-002 -1.677632e-001  2.890625e-001
    endloop
  endfacet
  facet normal  7.071068e-001  7.071068e-001  0.000000e+000
    outer loop
      vertex  3.536184e-002 -1.755757e-001  0.000000e+000
      vertex  1.973684e-002 -1.599507e-001  0.000000e+000
      vertex  2.754934e-002 -1.677632e-001  7.812500e-003
    endloop
  endfacet
  facet normal  7.071068e-001  7.071068e-001  0.000000e+000
    outer loop
      vertex  3.536184e-002 -1.755757e-001  2.968750e-001
      vertex  2.754934e-002 -1.677632e-001  2.890625e-001
      vertex  1.973684e-002 -1.599507e-001  2.968750e-001
    endloop
  endfacet
  facet normal  7.071067e-001  7.071067e-001  0.000000e+000
    outer loop
      vertex  1.973684e-002 -1.599507e-001  2.968750e-001
      vertex  2.754934e-002 -1.677632e-001  2.890625e-001
      vertex  2.754934e-002 -1.677632e-001  7.812500e-003
    endloop
  endfacet
  facet normal  7.071068e-001  7.071068e-001  0.000000e+000
    outer loop
      vertex  1.973684e-002 -1.599507e-001  2.968750e-001
      vertex  2.754934e-002 -1.677632e-001  7.812500e-003
      vertex  1.973684e-002 -1.599507e-001  0.000000e+000
    endloop
  endfacet
  facet normal  0.000000e+000  7.071068e-001  7.071068e-001
    outer loop
      vertex  1.500000e-001 -1.755757e-001  2.968750e-001
      vertex  1.421875e-001 -1.677632e-001  2.890625e-001
      vertex  3.536184e-002 -1.755757e-001  2.968750e-001
    endloop
  endfacet
  facet normal  0.000000e+000  7.071068e-001  7.071068e-001
    outer loop
      vertex  3.536184e-002 -1.755757e-001  2.968750e-001
      vertex  1.421875e-001 -1.677632e-001  2.890625e-001
      vertex  2.754934e-002 -1.677632e-001  2.890625e-001
    endloop
  endfacet
  facet normal  7.071068e-001  7.071068e-001  0.000000e+000
    outer loop
      vertex  1.500000e-001 -1.755757e-001  0.000000e+000
      vertex  1.421875e-001 -1.677632e-001  7.812500e-003
      vertex  1.500000e-001 -1.755757e-001  2.968750e-001
    endloop
  endfacet
  facet normal  7.071067e-001  7.071067e-001  0.000000e+000
    outer loop
      vertex  1.500000e-001 -1.755757e-001  2.968750e-001
      vertex  1.421875e-001 -1.677632e-001  7.812500e-003
      vertex  1.421875e-001 -1.677632e-001  2.890625e-001
    endloop
  endfacet
  facet normal  0.000000e+000  7.071068e-001 -7.071068e-001
    outer loop
      vertex  1.500000e-001 -1.755757e-001  0.000000e+000
      vertex  3.536184e-002 -1.755757e-001  0.000000e+000
      vertex  1.421875e-001 -1.677632e-001  7.812500e-003
    endloop
  endfacet
  facet normal  0.000000e+000  7.071068e-001 -7.071068e-001
    outer loop
      vertex  1.421875e-001 -1.677632e-001  7.812500e-003
      vertex  3.536184e-002 -1.755757e-001  0.000000e+000
      vertex  2.754934e-002 -1.677632e-001  7.812500e-003
    endloop
  endfacet
  facet normal  1.000000e+000  0.000000e+000  0.000000e+000
    outer loop
      vertex  1.973684e-002 -1.599507e-001  2.968750e-001
      vertex  1.973684e-002 -1.599507e-001  0.000000e+000
      vertex  1.973684e-002  1.677632e-001  2.968750e-001
    endloop
  endfacet
  facet normal  1.000000e+000  0.000000e+000  0.000000e+000
    outer loop
      vertex  1.973684e-002  1.677632e-001  2.968750e-001
      vertex  1.973684e-002 -1.599507e-001  0.000000e+000
      vertex  1.973684e-002  1.677632e-001  0.000000e+000
    endloop
  endfacet
  facet normal -7.384855e-001 -6.742693e-001  0.000000e+000
    outer loop
      vertex -7.812500e-002  1.875000e-001  2.968750e-001
      vertex -7.812500e-002  1.875000e-001  0.000000e+000
      vertex -6.085526e-002  1.685855e-001  2.968750e-001
    endloop
  endfacet
  facet normal -7.384855e-001 -6.742693e-001  -0.000000e+000
    outer loop
      vertex -6.085526e-002  1.685855e-001  2.968750e-001
      vertex -7.812500e-002  1.875000e-001  0.000000e+000
      vertex -6.085526e-002  1.685855e-001  0.000000e+000
    endloop
  endfacet
  facet normal  0.000000e+000  1.000000e+000  0.000000e+000
    outer loop
      vertex  1.500000e-001  1.875000e-001  0.000000e+000
      vertex -7.812500e-002  1.875000e-001  0.000000e+000
      vertex  1.500000e-001  1.875000e-001  2.968750e-001
    endloop
  endfacet
  facet normal  0.000000e+000  1.000000e+000  0.000000e+000
    outer loop
      vertex  1.500000e-001  1.875000e-001  2.968750e-001
      vertex -7.812500e-002  1.875000e-001  0.000000e+000
      vertex -7.812500e-002  1.875000e-001  2.968750e-001
    endloop
  endfacet
  facet normal  1.000000e+000  0.000000e+000  0.000000e+000
    outer loop
      vertex  1.500000e-001  1.677632e-001  2.968750e-001
      vertex  1.500000e-001  1.677632e-001  0.000000e+000
      vertex  1.500000e-001  1.875000e-001  2.968750e-001
    endloop
  endfacet
  facet normal  1.000000e+000  0.000000e+000  0.000000e+000
    outer loop
      vertex  1.500000e-001  1.875000e-001  2.968750e-001
      vertex  1.500000e-001  1.677632e-001  0.000000e+000
      vertex  1.500000e-001  1.875000e-001  0.000000e+000
    endloop
  endfacet
  facet normal  0.000000e+000 -9.999999e-001  0.000000e+000
    outer loop
      vertex  1.973684e-002  1.677632e-001  0.000000e+000
      vertex  1.500000e-001  1.677632e-001  0.000000e+000
      vertex  1.973684e-002  1.677632e-001  2.968750e-001
    endloop
  endfacet
  facet normal  0.000000e+000 -9.999999e-001  0.000000e+000
    outer loop
      vertex  1.973684e-002  1.677632e-001  2.968750e-001
      vertex  1.500000e-001  1.677632e-001  0.000000e+000
      vertex  1.500000e-001  1.677632e-001  2.968750e-001
    endloop
  endfacet
  facet normal -1.351223e-002 -9.999086e-001  0.000000e+000
    outer loop
      vertex -6.085526e-002  1.685855e-001  0.000000e+000
      vertex  0.000000e+000  1.677632e-001  0.000000e+000
      vertex -6.085526e-002  1.685855e-001  2.968750e-001
    endloop
  endfacet
  facet normal -1.351223e-002 -9.999086e-001  0.000000e+000
    outer loop
      vertex -6.085526e-002  1.685855e-001  2.968750e-001
      vertex  0.000000e+000  1.677632e-001  0.000000e+000
      vertex  0.000000e+000  1.677632e-001  2.968750e-001
    endloop
  endfacet
endsolid CATIA STL
