solid CATIA STL
  facet normal  0.000000e+000 -1.000000e+000  0.000000e+000
    outer loop
      vertex -5.625000e-001 -4.687500e-002 -1.148106e-017
      vertex  0.000000e+000 -4.687500e-002 -4.592425e-017
      vertex -5.625000e-001 -4.687500e-002  7.500000e-001
    endloop
  endfacet
  facet normal  0.000000e+000 -1.000000e+000  0.000000e+000
    outer loop
      vertex -5.625000e-001 -4.687500e-002  7.500000e-001
      vertex  0.000000e+000 -4.687500e-002 -4.592425e-017
      vertex  4.592425e-017 -4.687500e-002  7.500000e-001
    endloop
  endfacet
  facet normal -1.000000e+000  -0.000000e+000  0.000000e+000
    outer loop
      vertex -7.500000e-001 -1.562500e-002  7.500000e-001
      vertex -7.500000e-001  5.098616e-033  7.500000e-001
      vertex -7.500000e-001 -1.562500e-002  0.000000e+000
    endloop
  endfacet
  facet normal -1.000000e+000  0.000000e+000  0.000000e+000
    outer loop
      vertex -7.500000e-001 -1.562500e-002  0.000000e+000
      vertex -7.500000e-001  5.098616e-033  7.500000e-001
      vertex -7.500000e-001  0.000000e+000  0.000000e+000
    endloop
  endfacet
  facet normal  0.000000e+000  0.000000e+000  1.000000e+000
    outer loop
      vertex  4.592425e-017 -4.687500e-002  7.500000e-001
      vertex  4.592425e-017  8.326673e-017  7.500000e-001
      vertex -5.625000e-001 -4.687500e-002  7.500000e-001
    endloop
  endfacet
  facet normal  0.000000e+000  -0.000000e+000  1.000000e+000
    outer loop
      vertex -5.625000e-001 -4.687500e-002  7.500000e-001
      vertex  4.592425e-017  8.326673e-017  7.500000e-001
      vertex -7.500000e-001  5.098616e-033  7.500000e-001
    endloop
  endfacet
  facet normal  0.000000e+000  0.000000e+000  1.000000e+000
    outer loop
      vertex -5.625000e-001 -4.687500e-002  7.500000e-001
      vertex -7.500000e-001  5.098616e-033  7.500000e-001
      vertex -7.500000e-001 -1.562500e-002  7.500000e-001
    endloop
  endfacet
  facet normal -6.123234e-017  0.000000e+000 -1.000000e+000
    outer loop
      vertex  0.000000e+000  8.326673e-017 -4.592425e-017
      vertex  0.000000e+000 -4.687500e-002 -4.592425e-017
      vertex -7.500000e-001  0.000000e+000  0.000000e+000
    endloop
  endfacet
  facet normal -6.123234e-017  0.000000e+000 -1.000000e+000
    outer loop
      vertex -7.500000e-001  0.000000e+000  0.000000e+000
      vertex  0.000000e+000 -4.687500e-002 -4.592425e-017
      vertex -5.625000e-001 -4.687500e-002 -1.148106e-017
    endloop
  endfacet
  facet normal -6.123234e-017  0.000000e+000 -1.000000e+000
    outer loop
      vertex -7.500000e-001  0.000000e+000  0.000000e+000
      vertex -5.625000e-001 -4.687500e-002 -1.148106e-017
      vertex -7.500000e-001 -1.562500e-002  0.000000e+000
    endloop
  endfacet
  facet normal -1.643990e-001 -9.863940e-001  -0.000000e+000
    outer loop
      vertex -5.625000e-001 -4.687500e-002 -1.148106e-017
      vertex -5.625000e-001 -4.687500e-002  7.500000e-001
      vertex -7.500000e-001 -1.562500e-002  0.000000e+000
    endloop
  endfacet
  facet normal -1.643990e-001 -9.863940e-001  0.000000e+000
    outer loop
      vertex -7.500000e-001 -1.562500e-002  0.000000e+000
      vertex -5.625000e-001 -4.687500e-002  7.500000e-001
      vertex -7.500000e-001 -1.562500e-002  7.500000e-001
    endloop
  endfacet
  facet normal -1.110223e-016  1.000000e+000 -6.798156e-033
    outer loop
      vertex -7.500000e-001  0.000000e+000  0.000000e+000
      vertex -7.500000e-001  5.098616e-033  7.500000e-001
      vertex  0.000000e+000  8.326673e-017 -4.592425e-017
    endloop
  endfacet
  facet normal -1.110223e-016  1.000000e+000  6.798156e-033
    outer loop
      vertex  0.000000e+000  8.326673e-017 -4.592425e-017
      vertex -7.500000e-001  5.098616e-033  7.500000e-001
      vertex  4.592425e-017  8.326673e-017  7.500000e-001
    endloop
  endfacet
  facet normal  1.000000e+000  0.000000e+000 -6.123234e-017
    outer loop
      vertex  0.000000e+000 -4.687500e-002 -4.592425e-017
      vertex  0.000000e+000  8.326673e-017 -4.592425e-017
      vertex  4.592425e-017 -4.687500e-002  7.500000e-001
    endloop
  endfacet
  facet normal  1.000000e+000  0.000000e+000 -6.123234e-017
    outer loop
      vertex  4.592425e-017 -4.687500e-002  7.500000e-001
      vertex  0.000000e+000  8.326673e-017 -4.592425e-017
      vertex  4.592425e-017  8.326673e-017  7.500000e-001
    endloop
  endfacet
endsolid CATIA STL
