solid CATIA STL
  facet normal  0.000000e+000  1.000000e+000  -0.000000e+000
    outer loop
      vertex -9.645571e-003  1.562500e-002  1.189382e-003
      vertex -1.257671e-002  1.562500e-002  3.002300e-004
      vertex -1.562500e-002  1.562500e-002 -5.740532e-018
    endloop
  endfacet
  facet normal  0.000000e+000  1.000000e+000  0.000000e+000
    outer loop
      vertex -1.062500e-001  1.562500e-002  1.957237e-002
      vertex -1.267933e-017  1.562500e-002  1.957237e-002
      vertex -1.292103e-017  1.562500e-002  1.562500e-002
    endloop
  endfacet
  facet normal  0.000000e+000  1.000000e+000  0.000000e+000
    outer loop
      vertex -1.062500e-001  1.562500e-002  1.957237e-002
      vertex -1.292103e-017  1.562500e-002  1.562500e-002
      vertex -3.002300e-004  1.562500e-002  1.257671e-002
    endloop
  endfacet
  facet normal  0.000000e+000  1.000000e+000  0.000000e+000
    outer loop
      vertex -1.062500e-001  1.562500e-002  1.957237e-002
      vertex -3.002300e-004  1.562500e-002  1.257671e-002
      vertex -1.189382e-003  1.562500e-002  9.645571e-003
    endloop
  endfacet
  facet normal  0.000000e+000  1.000000e+000  0.000000e+000
    outer loop
      vertex -1.062500e-001  1.562500e-002  1.957237e-002
      vertex -1.189382e-003  1.562500e-002  9.645571e-003
      vertex -1.062500e-001  1.562500e-002 -1.913511e-019
    endloop
  endfacet
  facet normal  0.000000e+000  1.000000e+000  0.000000e+000
    outer loop
      vertex -1.062500e-001  1.562500e-002 -1.913511e-019
      vertex -1.189382e-003  1.562500e-002  9.645571e-003
      vertex -2.633287e-003  1.562500e-002  6.944215e-003
    endloop
  endfacet
  facet normal  0.000000e+000  9.999999e-001  0.000000e+000
    outer loop
      vertex -1.062500e-001  1.562500e-002 -1.913511e-019
      vertex -2.633287e-003  1.562500e-002  6.944215e-003
      vertex -4.576457e-003  1.562500e-002  4.576457e-003
    endloop
  endfacet
  facet normal  0.000000e+000  1.000000e+000  0.000000e+000
    outer loop
      vertex -1.062500e-001  1.562500e-002 -1.913511e-019
      vertex -4.576457e-003  1.562500e-002  4.576457e-003
      vertex -6.944215e-003  1.562500e-002  2.633287e-003
    endloop
  endfacet
  facet normal  0.000000e+000  1.000000e+000  0.000000e+000
    outer loop
      vertex -1.062500e-001  1.562500e-002 -1.913511e-019
      vertex -6.944215e-003  1.562500e-002  2.633287e-003
      vertex -9.645571e-003  1.562500e-002  1.189382e-003
    endloop
  endfacet
  facet normal  0.000000e+000  9.999999e-001  0.000000e+000
    outer loop
      vertex -1.062500e-001  1.562500e-002 -1.913511e-019
      vertex -9.645571e-003  1.562500e-002  1.189382e-003
      vertex -1.562500e-002  1.562500e-002 -5.740532e-018
    endloop
  endfacet
  facet normal  1.000000e+000  0.000000e+000 -6.123248e-017
    outer loop
      vertex -1.292103e-017  1.562500e-002  1.562500e-002
      vertex -1.267933e-017  1.562500e-002  1.957237e-002
      vertex -1.292103e-017  6.938894e-018  1.562500e-002
    endloop
  endfacet
  facet normal  1.000000e+000  0.000000e+000 -6.123248e-017
    outer loop
      vertex -1.292103e-017  6.938894e-018  1.562500e-002
      vertex -1.267933e-017  1.562500e-002  1.957237e-002
      vertex -1.267933e-017  6.938894e-018  1.957237e-002
    endloop
  endfacet
  facet normal -6.123240e-017 -5.839577e-023 -1.000000e+000
    outer loop
      vertex -1.218750e-001  7.500000e-001 -1.913511e-019
      vertex -1.062500e-001  7.343750e-001 -1.148106e-018
      vertex -1.250000e-001  7.500000e-001  0.000000e+000
    endloop
  endfacet
  facet normal -6.234164e-017 -1.331138e-018 -1.000000e+000
    outer loop
      vertex -1.250000e-001  7.500000e-001  0.000000e+000
      vertex -1.062500e-001  7.343750e-001 -1.148106e-018
      vertex -1.062500e-001  1.562500e-002 -1.913511e-019
    endloop
  endfacet
  facet normal -1.020539e-017  0.000000e+000 -1.000000e+000
    outer loop
      vertex -1.250000e-001  7.500000e-001  0.000000e+000
      vertex -1.062500e-001  1.562500e-002 -1.913511e-019
      vertex -1.250000e-001  0.000000e+000  0.000000e+000
    endloop
  endfacet
  facet normal -6.123234e-017  6.123232e-017 -9.999999e-001
    outer loop
      vertex -1.250000e-001  0.000000e+000  0.000000e+000
      vertex -1.062500e-001  1.562500e-002 -1.913511e-019
      vertex -1.562500e-002  1.562500e-002 -5.740532e-018
    endloop
  endfacet
  facet normal -6.123234e-017  6.123236e-017 -1.000000e+000
    outer loop
      vertex -1.250000e-001  0.000000e+000  0.000000e+000
      vertex -1.562500e-002  1.562500e-002 -5.740532e-018
      vertex -1.562500e-002  6.071532e-018 -6.697287e-018
    endloop
  endfacet
  facet normal  5.551118e-017 -1.000000e+000 -2.582960e-022
    outer loop
      vertex -1.562500e-002  6.071532e-018 -6.697287e-018
      vertex -1.257671e-002  6.240746e-018  3.002300e-004
      vertex -9.645571e-003  6.403457e-018  1.189382e-003
    endloop
  endfacet
  facet normal  5.551116e-017 -1.000000e+000  0.000000e+000
    outer loop
      vertex -1.062500e-001  1.040834e-018  1.957237e-002
      vertex -1.062500e-001  1.040834e-018  9.375000e-002
      vertex -1.250000e-001  3.186635e-034  9.375000e-002
    endloop
  endfacet
  facet normal  5.551116e-017 -1.000000e+000  3.399077e-033
    outer loop
      vertex -1.062500e-001  1.040834e-018  1.957237e-002
      vertex -1.250000e-001  3.186635e-034  9.375000e-002
      vertex -1.250000e-001  0.000000e+000  0.000000e+000
    endloop
  endfacet
  facet normal  5.551114e-017 -1.000000e+000  1.141781e-023
    outer loop
      vertex -1.062500e-001  1.040834e-018  1.957237e-002
      vertex -1.250000e-001  0.000000e+000  0.000000e+000
      vertex -1.189382e-003  6.872870e-018  9.645571e-003
    endloop
  endfacet
  facet normal  5.551115e-017 -1.000000e+000  0.000000e+000
    outer loop
      vertex -1.062500e-001  1.040834e-018  1.957237e-002
      vertex -1.189382e-003  6.872870e-018  9.645571e-003
      vertex -3.002300e-004  6.922228e-018  1.257671e-002
    endloop
  endfacet
  facet normal  5.551115e-017 -1.000000e+000 -2.527556e-023
    outer loop
      vertex -1.062500e-001  1.040834e-018  1.957237e-002
      vertex -3.002300e-004  6.922228e-018  1.257671e-002
      vertex -1.292103e-017  6.938894e-018  1.562500e-002
    endloop
  endfacet
  facet normal  5.551115e-017 -1.000000e+000 -3.399086e-033
    outer loop
      vertex -1.062500e-001  1.040834e-018  1.957237e-002
      vertex -1.292103e-017  6.938894e-018  1.562500e-002
      vertex -1.267933e-017  6.938894e-018  1.957237e-002
    endloop
  endfacet
  facet normal  5.551115e-017 -1.000000e+000 -1.304008e-022
    outer loop
      vertex -1.250000e-001  0.000000e+000  0.000000e+000
      vertex -1.562500e-002  6.071532e-018 -6.697287e-018
      vertex -9.645571e-003  6.403457e-018  1.189382e-003
    endloop
  endfacet
  facet normal  5.551115e-017 -1.000000e+000  3.650910e-023
    outer loop
      vertex -1.250000e-001  0.000000e+000  0.000000e+000
      vertex -9.645571e-003  6.403457e-018  1.189382e-003
      vertex -6.944215e-003  6.553412e-018  2.633287e-003
    endloop
  endfacet
  facet normal  5.551115e-017 -1.000000e+000 -2.734871e-023
    outer loop
      vertex -1.250000e-001  0.000000e+000  0.000000e+000
      vertex -6.944215e-003  6.553412e-018  2.633287e-003
      vertex -4.576457e-003  6.684849e-018  4.576457e-003
    endloop
  endfacet
  facet normal  5.551115e-017 -1.000000e+000  3.944043e-023
    outer loop
      vertex -1.250000e-001  0.000000e+000  0.000000e+000
      vertex -4.576457e-003  6.684849e-018  4.576457e-003
      vertex -2.633287e-003  6.792717e-018  6.944215e-003
    endloop
  endfacet
  facet normal  5.551114e-017 -1.000000e+000  5.427610e-023
    outer loop
      vertex -1.250000e-001  0.000000e+000  0.000000e+000
      vertex -2.633287e-003  6.792717e-018  6.944215e-003
      vertex -1.189382e-003  6.872870e-018  9.645571e-003
    endloop
  endfacet
  facet normal  9.801716e-002  6.093751e-017 -9.951848e-001
    outer loop
      vertex -1.562500e-002  6.071532e-018 -6.697287e-018
      vertex -1.562500e-002  1.562500e-002 -5.740532e-018
      vertex -1.257671e-002  6.240746e-018  3.002300e-004
    endloop
  endfacet
  facet normal  9.801716e-002  0.000000e+000 -9.951848e-001
    outer loop
      vertex -1.257671e-002  6.240746e-018  3.002300e-004
      vertex -1.562500e-002  1.562500e-002 -5.740532e-018
      vertex -1.257671e-002  1.562500e-002  3.002300e-004
    endloop
  endfacet
  facet normal  2.902846e-001  0.000000e+000 -9.569404e-001
    outer loop
      vertex -1.257671e-002  6.240746e-018  3.002300e-004
      vertex -1.257671e-002  1.562500e-002  3.002300e-004
      vertex -9.645571e-003  6.403457e-018  1.189382e-003
    endloop
  endfacet
  facet normal  2.902846e-001  0.000000e+000 -9.569404e-001
    outer loop
      vertex -9.645571e-003  6.403457e-018  1.189382e-003
      vertex -1.257671e-002  1.562500e-002  3.002300e-004
      vertex -9.645571e-003  1.562500e-002  1.189382e-003
    endloop
  endfacet
  facet normal  4.713968e-001  0.000000e+000 -8.819213e-001
    outer loop
      vertex -9.645571e-003  6.403457e-018  1.189382e-003
      vertex -9.645571e-003  1.562500e-002  1.189382e-003
      vertex -6.944215e-003  6.553412e-018  2.633287e-003
    endloop
  endfacet
  facet normal  4.713968e-001  0.000000e+000 -8.819213e-001
    outer loop
      vertex -6.944215e-003  6.553412e-018  2.633287e-003
      vertex -9.645571e-003  1.562500e-002  1.189382e-003
      vertex -6.944215e-003  1.562500e-002  2.633287e-003
    endloop
  endfacet
  facet normal  6.343934e-001  0.000000e+000 -7.730104e-001
    outer loop
      vertex -6.944215e-003  6.553412e-018  2.633287e-003
      vertex -6.944215e-003  1.562500e-002  2.633287e-003
      vertex -4.576457e-003  6.684849e-018  4.576457e-003
    endloop
  endfacet
  facet normal  6.343934e-001  0.000000e+000 -7.730104e-001
    outer loop
      vertex -4.576457e-003  6.684849e-018  4.576457e-003
      vertex -6.944215e-003  1.562500e-002  2.633287e-003
      vertex -4.576457e-003  1.562500e-002  4.576457e-003
    endloop
  endfacet
  facet normal  7.730104e-001  0.000000e+000 -6.343934e-001
    outer loop
      vertex -4.576457e-003  6.684849e-018  4.576457e-003
      vertex -4.576457e-003  1.562500e-002  4.576457e-003
      vertex -2.633287e-003  6.792717e-018  6.944215e-003
    endloop
  endfacet
  facet normal  7.730104e-001  0.000000e+000 -6.343934e-001
    outer loop
      vertex -2.633287e-003  6.792717e-018  6.944215e-003
      vertex -4.576457e-003  1.562500e-002  4.576457e-003
      vertex -2.633287e-003  1.562500e-002  6.944215e-003
    endloop
  endfacet
  facet normal  8.819213e-001  0.000000e+000 -4.713968e-001
    outer loop
      vertex -2.633287e-003  6.792717e-018  6.944215e-003
      vertex -2.633287e-003  1.562500e-002  6.944215e-003
      vertex -1.189382e-003  6.872870e-018  9.645571e-003
    endloop
  endfacet
  facet normal  8.819213e-001  0.000000e+000 -4.713968e-001
    outer loop
      vertex -1.189382e-003  6.872870e-018  9.645571e-003
      vertex -2.633287e-003  1.562500e-002  6.944215e-003
      vertex -1.189382e-003  1.562500e-002  9.645571e-003
    endloop
  endfacet
  facet normal  9.569404e-001  0.000000e+000 -2.902846e-001
    outer loop
      vertex -1.189382e-003  6.872870e-018  9.645571e-003
      vertex -1.189382e-003  1.562500e-002  9.645571e-003
      vertex -3.002300e-004  6.922228e-018  1.257671e-002
    endloop
  endfacet
  facet normal  9.569404e-001  0.000000e+000 -2.902846e-001
    outer loop
      vertex -3.002300e-004  6.922228e-018  1.257671e-002
      vertex -1.189382e-003  1.562500e-002  9.645571e-003
      vertex -3.002300e-004  1.562500e-002  1.257671e-002
    endloop
  endfacet
  facet normal  9.951848e-001  0.000000e+000 -9.801716e-002
    outer loop
      vertex -3.002300e-004  6.922228e-018  1.257671e-002
      vertex -3.002300e-004  1.562500e-002  1.257671e-002
      vertex -1.292103e-017  6.938894e-018  1.562500e-002
    endloop
  endfacet
  facet normal  9.951848e-001  0.000000e+000 -9.801716e-002
    outer loop
      vertex -1.292103e-017  6.938894e-018  1.562500e-002
      vertex -3.002300e-004  1.562500e-002  1.257671e-002
      vertex -1.292103e-017  1.562500e-002  1.562500e-002
    endloop
  endfacet
  facet normal -1.000000e+000  -0.000000e+000  0.000000e+000
    outer loop
      vertex -1.250000e-001  3.186635e-034  9.375000e-002
      vertex -1.250000e-001  7.500000e-001  9.375000e-002
      vertex -1.250000e-001  0.000000e+000  0.000000e+000
    endloop
  endfacet
  facet normal -1.000000e+000  0.000000e+000  0.000000e+000
    outer loop
      vertex -1.250000e-001  0.000000e+000  0.000000e+000
      vertex -1.250000e-001  7.500000e-001  9.375000e-002
      vertex -1.250000e-001  7.500000e-001  0.000000e+000
    endloop
  endfacet
  facet normal  -0.000000e+000  0.000000e+000  9.999999e-001
    outer loop
      vertex -1.267933e-017  1.562500e-002  1.957237e-002
      vertex -1.062500e-001  1.562500e-002  1.957237e-002
      vertex -1.267933e-017  6.938894e-018  1.957237e-002
    endloop
  endfacet
  facet normal  0.000000e+000  0.000000e+000  9.999999e-001
    outer loop
      vertex -1.267933e-017  6.938894e-018  1.957237e-002
      vertex -1.062500e-001  1.562500e-002  1.957237e-002
      vertex -1.062500e-001  1.040834e-018  1.957237e-002
    endloop
  endfacet
  facet normal  1.000000e+000  0.000000e+000  0.000000e+000
    outer loop
      vertex -1.062500e-001  1.562500e-002 -1.913511e-019
      vertex -1.062500e-001  7.343750e-001 -1.148106e-018
      vertex -1.062500e-001  1.562500e-002  1.957237e-002
    endloop
  endfacet
  facet normal  1.000000e+000  0.000000e+000  0.000000e+000
    outer loop
      vertex -1.062500e-001  1.562500e-002  1.957237e-002
      vertex -1.062500e-001  7.343750e-001 -1.148106e-018
      vertex -1.062500e-001  7.343750e-001  1.875000e-002
    endloop
  endfacet
  facet normal  1.000000e+000  0.000000e+000  0.000000e+000
    outer loop
      vertex -1.062500e-001  1.040834e-018  1.957237e-002
      vertex -1.062500e-001  1.562500e-002  1.957237e-002
      vertex -1.062500e-001  1.040834e-018  9.375000e-002
    endloop
  endfacet
  facet normal  9.999999e-001  0.000000e+000  0.000000e+000
    outer loop
      vertex -1.062500e-001  1.040834e-018  9.375000e-002
      vertex -1.062500e-001  1.562500e-002  1.957237e-002
      vertex -1.062500e-001  7.343750e-001  1.875000e-002
    endloop
  endfacet
  facet normal  1.000000e+000  0.000000e+000  -0.000000e+000
    outer loop
      vertex -1.062500e-001  1.040834e-018  9.375000e-002
      vertex -1.062500e-001  7.343750e-001  1.875000e-002
      vertex -1.062500e-001  7.343750e-001  9.375000e-002
    endloop
  endfacet
  facet normal  7.071068e-001  7.071068e-001  0.000000e+000
    outer loop
      vertex -1.062500e-001  7.343750e-001 -1.148106e-018
      vertex -1.218750e-001  7.500000e-001 -1.913511e-019
      vertex -1.062500e-001  7.343750e-001  1.875000e-002
    endloop
  endfacet
  facet normal  7.071068e-001  7.071068e-001  0.000000e+000
    outer loop
      vertex -1.062500e-001  7.343750e-001  1.875000e-002
      vertex -1.218750e-001  7.500000e-001 -1.913511e-019
      vertex -1.218750e-001  7.500000e-001  9.375000e-002
    endloop
  endfacet
  facet normal  7.071068e-001  7.071068e-001  0.000000e+000
    outer loop
      vertex -1.062500e-001  7.343750e-001  1.875000e-002
      vertex -1.218750e-001  7.500000e-001  9.375000e-002
      vertex -1.062500e-001  7.343750e-001  9.375000e-002
    endloop
  endfacet
  facet normal  0.000000e+000  1.000000e+000  0.000000e+000
    outer loop
      vertex -1.250000e-001  7.500000e-001  0.000000e+000
      vertex -1.250000e-001  7.500000e-001  9.375000e-002
      vertex -1.218750e-001  7.500000e-001 -1.913511e-019
    endloop
  endfacet
  facet normal  0.000000e+000  1.000000e+000  -0.000000e+000
    outer loop
      vertex -1.218750e-001  7.500000e-001 -1.913511e-019
      vertex -1.250000e-001  7.500000e-001  9.375000e-002
      vertex -1.218750e-001  7.500000e-001  9.375000e-002
    endloop
  endfacet
  facet normal  -0.000000e+000  0.000000e+000  1.000000e+000
    outer loop
      vertex -1.218750e-001  7.500000e-001  9.375000e-002
      vertex -1.250000e-001  7.500000e-001  9.375000e-002
      vertex -1.062500e-001  7.343750e-001  9.375000e-002
    endloop
  endfacet
  facet normal  0.000000e+000  0.000000e+000  1.000000e+000
    outer loop
      vertex -1.062500e-001  7.343750e-001  9.375000e-002
      vertex -1.250000e-001  7.500000e-001  9.375000e-002
      vertex -1.250000e-001  3.186635e-034  9.375000e-002
    endloop
  endfacet
  facet normal  0.000000e+000  0.000000e+000  9.999999e-001
    outer loop
      vertex -1.062500e-001  7.343750e-001  9.375000e-002
      vertex -1.250000e-001  3.186635e-034  9.375000e-002
      vertex -1.062500e-001  1.040834e-018  9.375000e-002
    endloop
  endfacet
endsolid CATIA STL
