solid CATIA STL
  facet normal  -0.000000e+000  0.000000e+000  1.000000e+000
    outer loop
      vertex -2.746710e-001  2.310855e-001  1.250000e-001
      vertex -2.814896e-001  2.304140e-001  1.250000e-001
      vertex -2.880461e-001  2.284251e-001  1.250000e-001
    endloop
  endfacet
  facet normal  0.000000e+000  0.000000e+000  1.000000e+000
    outer loop
      vertex -2.678525e-001  2.304140e-001  1.250000e-001
      vertex -2.746710e-001  2.310855e-001  1.250000e-001
      vertex -2.880461e-001  2.284251e-001  1.250000e-001
    endloop
  endfacet
  facet normal  0.000000e+000  0.000000e+000  9.999999e-001
    outer loop
      vertex -2.678525e-001  2.304140e-001  1.250000e-001
      vertex -2.880461e-001  2.284251e-001  1.250000e-001
      vertex -2.612960e-001  2.284251e-001  1.250000e-001
    endloop
  endfacet
  facet normal  -0.000000e+000  0.000000e+000  1.000000e+000
    outer loop
      vertex -2.612960e-001  2.284251e-001  1.250000e-001
      vertex -2.880461e-001  2.284251e-001  1.250000e-001
      vertex -2.940886e-001  2.251953e-001  1.250000e-001
    endloop
  endfacet
  facet normal  0.000000e+000  0.000000e+000  1.000000e+000
    outer loop
      vertex -2.612960e-001  2.284251e-001  1.250000e-001
      vertex -2.940886e-001  2.251953e-001  1.250000e-001
      vertex -2.552535e-001  2.251953e-001  1.250000e-001
    endloop
  endfacet
  facet normal  -0.000000e+000  0.000000e+000  1.000000e+000
    outer loop
      vertex -2.552535e-001  2.251953e-001  1.250000e-001
      vertex -2.940886e-001  2.251953e-001  1.250000e-001
      vertex -2.993849e-001  2.208487e-001  1.250000e-001
    endloop
  endfacet
  facet normal  0.000000e+000  0.000000e+000  9.999999e-001
    outer loop
      vertex -2.552535e-001  2.251953e-001  1.250000e-001
      vertex -2.993849e-001  2.208487e-001  1.250000e-001
      vertex -2.499572e-001  2.208487e-001  1.250000e-001
    endloop
  endfacet
  facet normal  -0.000000e+000  0.000000e+000  1.000000e+000
    outer loop
      vertex -2.499572e-001  2.208487e-001  1.250000e-001
      vertex -2.993849e-001  2.208487e-001  1.250000e-001
      vertex -3.037315e-001  2.155524e-001  1.250000e-001
    endloop
  endfacet
  facet normal  0.000000e+000  0.000000e+000  1.000000e+000
    outer loop
      vertex -2.499572e-001  2.208487e-001  1.250000e-001
      vertex -3.037315e-001  2.155524e-001  1.250000e-001
      vertex -2.456106e-001  2.155524e-001  1.250000e-001
    endloop
  endfacet
  facet normal  -0.000000e+000  0.000000e+000  1.000000e+000
    outer loop
      vertex -2.456106e-001  2.155524e-001  1.250000e-001
      vertex -3.037315e-001  2.155524e-001  1.250000e-001
      vertex -3.069612e-001  2.095099e-001  1.250000e-001
    endloop
  endfacet
  facet normal  0.000000e+000  0.000000e+000  1.000000e+000
    outer loop
      vertex -2.456106e-001  2.155524e-001  1.250000e-001
      vertex -3.069612e-001  2.095099e-001  1.250000e-001
      vertex -2.423809e-001  2.095099e-001  1.250000e-001
    endloop
  endfacet
  facet normal  -0.000000e+000  0.000000e+000  1.000000e+000
    outer loop
      vertex -2.423809e-001  2.095099e-001  1.250000e-001
      vertex -3.069612e-001  2.095099e-001  1.250000e-001
      vertex -3.089502e-001  2.029534e-001  1.250000e-001
    endloop
  endfacet
  facet normal  0.000000e+000  0.000000e+000  1.000000e+000
    outer loop
      vertex -2.423809e-001  2.095099e-001  1.250000e-001
      vertex -3.089502e-001  2.029534e-001  1.250000e-001
      vertex -2.403920e-001  2.029534e-001  1.250000e-001
    endloop
  endfacet
  facet normal  0.000000e+000  0.000000e+000  1.000000e+000
    outer loop
      vertex -2.403920e-001  1.893163e-001  1.250000e-001
      vertex -3.069612e-001  1.827598e-001  1.250000e-001
      vertex -2.423809e-001  1.827598e-001  1.250000e-001
    endloop
  endfacet
  facet normal  -0.000000e+000  0.000000e+000  1.000000e+000
    outer loop
      vertex -2.423809e-001  1.827598e-001  1.250000e-001
      vertex -3.069612e-001  1.827598e-001  1.250000e-001
      vertex -3.037315e-001  1.767173e-001  1.250000e-001
    endloop
  endfacet
  facet normal  0.000000e+000  0.000000e+000  1.000000e+000
    outer loop
      vertex -2.423809e-001  1.827598e-001  1.250000e-001
      vertex -3.037315e-001  1.767173e-001  1.250000e-001
      vertex -2.456106e-001  1.767173e-001  1.250000e-001
    endloop
  endfacet
  facet normal  -0.000000e+000  0.000000e+000  1.000000e+000
    outer loop
      vertex -2.456106e-001  1.767173e-001  1.250000e-001
      vertex -3.037315e-001  1.767173e-001  1.250000e-001
      vertex -2.993849e-001  1.714210e-001  1.250000e-001
    endloop
  endfacet
  facet normal  0.000000e+000  0.000000e+000  1.000000e+000
    outer loop
      vertex -2.456106e-001  1.767173e-001  1.250000e-001
      vertex -2.993849e-001  1.714210e-001  1.250000e-001
      vertex -2.499572e-001  1.714210e-001  1.250000e-001
    endloop
  endfacet
  facet normal  -0.000000e+000  0.000000e+000  9.999999e-001
    outer loop
      vertex -2.499572e-001  1.714210e-001  1.250000e-001
      vertex -2.993849e-001  1.714210e-001  1.250000e-001
      vertex -2.940886e-001  1.670745e-001  1.250000e-001
    endloop
  endfacet
  facet normal  0.000000e+000  0.000000e+000  1.000000e+000
    outer loop
      vertex -2.499572e-001  1.714210e-001  1.250000e-001
      vertex -2.940886e-001  1.670745e-001  1.250000e-001
      vertex -2.552535e-001  1.670745e-001  1.250000e-001
    endloop
  endfacet
  facet normal  -0.000000e+000  0.000000e+000  1.000000e+000
    outer loop
      vertex -2.552535e-001  1.670745e-001  1.250000e-001
      vertex -2.940886e-001  1.670745e-001  1.250000e-001
      vertex -2.880461e-001  1.638447e-001  1.250000e-001
    endloop
  endfacet
  facet normal  0.000000e+000  0.000000e+000  1.000000e+000
    outer loop
      vertex -2.552535e-001  1.670745e-001  1.250000e-001
      vertex -2.880461e-001  1.638447e-001  1.250000e-001
      vertex -2.612960e-001  1.638447e-001  1.250000e-001
    endloop
  endfacet
  facet normal  -0.000000e+000  0.000000e+000  1.000000e+000
    outer loop
      vertex -2.612960e-001  1.638447e-001  1.250000e-001
      vertex -2.880461e-001  1.638447e-001  1.250000e-001
      vertex -2.814896e-001  1.618558e-001  1.250000e-001
    endloop
  endfacet
  facet normal  -0.000000e+000  0.000000e+000  1.000000e+000
    outer loop
      vertex -2.612960e-001  1.638447e-001  1.250000e-001
      vertex -2.814896e-001  1.618558e-001  1.250000e-001
      vertex -2.746710e-001  1.611842e-001  1.250000e-001
    endloop
  endfacet
  facet normal  0.000000e+000  0.000000e+000  9.999999e-001
    outer loop
      vertex -2.612960e-001  1.638447e-001  1.250000e-001
      vertex -2.746710e-001  1.611842e-001  1.250000e-001
      vertex -2.678525e-001  1.618558e-001  1.250000e-001
    endloop
  endfacet
  facet normal  -0.000000e+000  0.000000e+000  1.000000e+000
    outer loop
      vertex -2.403920e-001  2.029534e-001  1.250000e-001
      vertex -3.089502e-001  2.029534e-001  1.250000e-001
      vertex -2.397204e-001  1.961349e-001  1.250000e-001
    endloop
  endfacet
  facet normal  0.000000e+000  0.000000e+000  1.000000e+000
    outer loop
      vertex -2.397204e-001  1.961349e-001  1.250000e-001
      vertex -3.089502e-001  2.029534e-001  1.250000e-001
      vertex -3.096217e-001  1.961349e-001  1.250000e-001
    endloop
  endfacet
  facet normal  -0.000000e+000  0.000000e+000  1.000000e+000
    outer loop
      vertex -2.397204e-001  1.961349e-001  1.250000e-001
      vertex -3.096217e-001  1.961349e-001  1.250000e-001
      vertex -2.403920e-001  1.893163e-001  1.250000e-001
    endloop
  endfacet
  facet normal  0.000000e+000  0.000000e+000  1.000000e+000
    outer loop
      vertex -2.403920e-001  1.893163e-001  1.250000e-001
      vertex -3.096217e-001  1.961349e-001  1.250000e-001
      vertex -3.089502e-001  1.893163e-001  1.250000e-001
    endloop
  endfacet
  facet normal  -0.000000e+000  0.000000e+000  9.999999e-001
    outer loop
      vertex -2.403920e-001  1.893163e-001  1.250000e-001
      vertex -3.089502e-001  1.893163e-001  1.250000e-001
      vertex -3.069612e-001  1.827598e-001  1.250000e-001
    endloop
  endfacet
  facet normal  0.000000e+000  -0.000000e+000 -1.000000e+000
    outer loop
      vertex -2.880461e-001  2.284251e-001  0.000000e+000
      vertex -2.814896e-001  2.304140e-001  0.000000e+000
      vertex -2.746710e-001  2.310855e-001  0.000000e+000
    endloop
  endfacet
  facet normal  0.000000e+000  -0.000000e+000 -1.000000e+000
    outer loop
      vertex -2.880461e-001  2.284251e-001  0.000000e+000
      vertex -2.746710e-001  2.310855e-001  0.000000e+000
      vertex -2.678525e-001  2.304140e-001  0.000000e+000
    endloop
  endfacet
  facet normal  0.000000e+000  0.000000e+000 -9.999999e-001
    outer loop
      vertex -2.612960e-001  2.284251e-001  0.000000e+000
      vertex -2.880461e-001  2.284251e-001  0.000000e+000
      vertex -2.678525e-001  2.304140e-001  0.000000e+000
    endloop
  endfacet
  facet normal  0.000000e+000  -0.000000e+000 -1.000000e+000
    outer loop
      vertex -2.940886e-001  2.251953e-001  0.000000e+000
      vertex -2.880461e-001  2.284251e-001  0.000000e+000
      vertex -2.612960e-001  2.284251e-001  0.000000e+000
    endloop
  endfacet
  facet normal  0.000000e+000  0.000000e+000 -1.000000e+000
    outer loop
      vertex -2.552535e-001  2.251953e-001  0.000000e+000
      vertex -2.940886e-001  2.251953e-001  0.000000e+000
      vertex -2.612960e-001  2.284251e-001  0.000000e+000
    endloop
  endfacet
  facet normal  0.000000e+000  -0.000000e+000 -1.000000e+000
    outer loop
      vertex -2.993849e-001  2.208487e-001  0.000000e+000
      vertex -2.940886e-001  2.251953e-001  0.000000e+000
      vertex -2.552535e-001  2.251953e-001  0.000000e+000
    endloop
  endfacet
  facet normal  0.000000e+000  0.000000e+000 -9.999999e-001
    outer loop
      vertex -2.499572e-001  2.208487e-001  0.000000e+000
      vertex -2.993849e-001  2.208487e-001  0.000000e+000
      vertex -2.552535e-001  2.251953e-001  0.000000e+000
    endloop
  endfacet
  facet normal  0.000000e+000  -0.000000e+000 -1.000000e+000
    outer loop
      vertex -3.037315e-001  2.155524e-001  0.000000e+000
      vertex -2.993849e-001  2.208487e-001  0.000000e+000
      vertex -2.499572e-001  2.208487e-001  0.000000e+000
    endloop
  endfacet
  facet normal  0.000000e+000  0.000000e+000 -1.000000e+000
    outer loop
      vertex -2.456106e-001  2.155524e-001  0.000000e+000
      vertex -3.037315e-001  2.155524e-001  0.000000e+000
      vertex -2.499572e-001  2.208487e-001  0.000000e+000
    endloop
  endfacet
  facet normal  0.000000e+000  -0.000000e+000 -1.000000e+000
    outer loop
      vertex -3.069612e-001  2.095099e-001  0.000000e+000
      vertex -3.037315e-001  2.155524e-001  0.000000e+000
      vertex -2.456106e-001  2.155524e-001  0.000000e+000
    endloop
  endfacet
  facet normal  0.000000e+000  0.000000e+000 -1.000000e+000
    outer loop
      vertex -2.423809e-001  2.095099e-001  0.000000e+000
      vertex -3.069612e-001  2.095099e-001  0.000000e+000
      vertex -2.456106e-001  2.155524e-001  0.000000e+000
    endloop
  endfacet
  facet normal  0.000000e+000  -0.000000e+000 -1.000000e+000
    outer loop
      vertex -3.089502e-001  2.029534e-001  0.000000e+000
      vertex -3.069612e-001  2.095099e-001  0.000000e+000
      vertex -2.423809e-001  2.095099e-001  0.000000e+000
    endloop
  endfacet
  facet normal  0.000000e+000  0.000000e+000 -1.000000e+000
    outer loop
      vertex -2.403920e-001  2.029534e-001  0.000000e+000
      vertex -3.089502e-001  2.029534e-001  0.000000e+000
      vertex -2.423809e-001  2.095099e-001  0.000000e+000
    endloop
  endfacet
  facet normal  0.000000e+000  0.000000e+000 -1.000000e+000
    outer loop
      vertex -2.423809e-001  1.827598e-001  0.000000e+000
      vertex -3.069612e-001  1.827598e-001  0.000000e+000
      vertex -2.403920e-001  1.893163e-001  0.000000e+000
    endloop
  endfacet
  facet normal  0.000000e+000  0.000000e+000 -1.000000e+000
    outer loop
      vertex -3.037315e-001  1.767173e-001  0.000000e+000
      vertex -3.069612e-001  1.827598e-001  0.000000e+000
      vertex -2.423809e-001  1.827598e-001  0.000000e+000
    endloop
  endfacet
  facet normal  0.000000e+000  0.000000e+000 -1.000000e+000
    outer loop
      vertex -2.456106e-001  1.767173e-001  0.000000e+000
      vertex -3.037315e-001  1.767173e-001  0.000000e+000
      vertex -2.423809e-001  1.827598e-001  0.000000e+000
    endloop
  endfacet
  facet normal  0.000000e+000  0.000000e+000 -1.000000e+000
    outer loop
      vertex -2.993849e-001  1.714210e-001  0.000000e+000
      vertex -3.037315e-001  1.767173e-001  0.000000e+000
      vertex -2.456106e-001  1.767173e-001  0.000000e+000
    endloop
  endfacet
  facet normal  0.000000e+000  0.000000e+000 -1.000000e+000
    outer loop
      vertex -2.499572e-001  1.714210e-001  0.000000e+000
      vertex -2.993849e-001  1.714210e-001  0.000000e+000
      vertex -2.456106e-001  1.767173e-001  0.000000e+000
    endloop
  endfacet
  facet normal  0.000000e+000  0.000000e+000 -9.999999e-001
    outer loop
      vertex -2.940886e-001  1.670745e-001  0.000000e+000
      vertex -2.993849e-001  1.714210e-001  0.000000e+000
      vertex -2.499572e-001  1.714210e-001  0.000000e+000
    endloop
  endfacet
  facet normal  0.000000e+000  0.000000e+000 -1.000000e+000
    outer loop
      vertex -2.552535e-001  1.670745e-001  0.000000e+000
      vertex -2.940886e-001  1.670745e-001  0.000000e+000
      vertex -2.499572e-001  1.714210e-001  0.000000e+000
    endloop
  endfacet
  facet normal  0.000000e+000  0.000000e+000 -1.000000e+000
    outer loop
      vertex -2.880461e-001  1.638447e-001  0.000000e+000
      vertex -2.940886e-001  1.670745e-001  0.000000e+000
      vertex -2.552535e-001  1.670745e-001  0.000000e+000
    endloop
  endfacet
  facet normal  0.000000e+000  0.000000e+000 -1.000000e+000
    outer loop
      vertex -2.612960e-001  1.638447e-001  0.000000e+000
      vertex -2.880461e-001  1.638447e-001  0.000000e+000
      vertex -2.552535e-001  1.670745e-001  0.000000e+000
    endloop
  endfacet
  facet normal  0.000000e+000  0.000000e+000 -1.000000e+000
    outer loop
      vertex -2.814896e-001  1.618558e-001  0.000000e+000
      vertex -2.880461e-001  1.638447e-001  0.000000e+000
      vertex -2.612960e-001  1.638447e-001  0.000000e+000
    endloop
  endfacet
  facet normal  0.000000e+000  0.000000e+000 -1.000000e+000
    outer loop
      vertex -2.746710e-001  1.611842e-001  0.000000e+000
      vertex -2.814896e-001  1.618558e-001  0.000000e+000
      vertex -2.612960e-001  1.638447e-001  0.000000e+000
    endloop
  endfacet
  facet normal  0.000000e+000  0.000000e+000 -9.999999e-001
    outer loop
      vertex -2.678525e-001  1.618558e-001  0.000000e+000
      vertex -2.746710e-001  1.611842e-001  0.000000e+000
      vertex -2.612960e-001  1.638447e-001  0.000000e+000
    endloop
  endfacet
  facet normal  0.000000e+000  0.000000e+000 -9.999999e-001
    outer loop
      vertex -3.069612e-001  1.827598e-001  0.000000e+000
      vertex -3.089502e-001  1.893163e-001  0.000000e+000
      vertex -2.403920e-001  1.893163e-001  0.000000e+000
    endloop
  endfacet
  facet normal  0.000000e+000  0.000000e+000 -1.000000e+000
    outer loop
      vertex -2.403920e-001  1.893163e-001  0.000000e+000
      vertex -3.089502e-001  1.893163e-001  0.000000e+000
      vertex -3.096217e-001  1.961349e-001  0.000000e+000
    endloop
  endfacet
  facet normal  0.000000e+000  0.000000e+000 -1.000000e+000
    outer loop
      vertex -2.403920e-001  1.893163e-001  0.000000e+000
      vertex -3.096217e-001  1.961349e-001  0.000000e+000
      vertex -2.397204e-001  1.961349e-001  0.000000e+000
    endloop
  endfacet
  facet normal  0.000000e+000  0.000000e+000 -1.000000e+000
    outer loop
      vertex -2.397204e-001  1.961349e-001  0.000000e+000
      vertex -3.096217e-001  1.961349e-001  0.000000e+000
      vertex -3.089502e-001  2.029534e-001  0.000000e+000
    endloop
  endfacet
  facet normal  0.000000e+000  0.000000e+000 -1.000000e+000
    outer loop
      vertex -2.397204e-001  1.961349e-001  0.000000e+000
      vertex -3.089502e-001  2.029534e-001  0.000000e+000
      vertex -2.403920e-001  2.029534e-001  0.000000e+000
    endloop
  endfacet
  facet normal  9.951847e-001 -9.801695e-002  0.000000e+000
    outer loop
      vertex -2.397204e-001  1.961349e-001  0.000000e+000
      vertex -2.397204e-001  1.961349e-001  1.250000e-001
      vertex -2.403920e-001  1.893163e-001  0.000000e+000
    endloop
  endfacet
  facet normal  9.951847e-001 -9.801695e-002  0.000000e+000
    outer loop
      vertex -2.403920e-001  1.893163e-001  0.000000e+000
      vertex -2.397204e-001  1.961349e-001  1.250000e-001
      vertex -2.403920e-001  1.893163e-001  1.250000e-001
    endloop
  endfacet
  facet normal  9.569399e-001 -2.902862e-001  0.000000e+000
    outer loop
      vertex -2.403920e-001  1.893163e-001  0.000000e+000
      vertex -2.403920e-001  1.893163e-001  1.250000e-001
      vertex -2.423809e-001  1.827598e-001  0.000000e+000
    endloop
  endfacet
  facet normal  9.569399e-001 -2.902862e-001  0.000000e+000
    outer loop
      vertex -2.423809e-001  1.827598e-001  0.000000e+000
      vertex -2.403920e-001  1.893163e-001  1.250000e-001
      vertex -2.423809e-001  1.827598e-001  1.250000e-001
    endloop
  endfacet
  facet normal  8.819217e-001 -4.713959e-001  0.000000e+000
    outer loop
      vertex -2.423809e-001  1.827598e-001  0.000000e+000
      vertex -2.423809e-001  1.827598e-001  1.250000e-001
      vertex -2.456106e-001  1.767173e-001  0.000000e+000
    endloop
  endfacet
  facet normal  8.819217e-001 -4.713959e-001  0.000000e+000
    outer loop
      vertex -2.456106e-001  1.767173e-001  0.000000e+000
      vertex -2.423809e-001  1.827598e-001  1.250000e-001
      vertex -2.456106e-001  1.767173e-001  1.250000e-001
    endloop
  endfacet
  facet normal  7.730106e-001 -6.343933e-001  0.000000e+000
    outer loop
      vertex -2.456106e-001  1.767173e-001  0.000000e+000
      vertex -2.456106e-001  1.767173e-001  1.250000e-001
      vertex -2.499572e-001  1.714210e-001  0.000000e+000
    endloop
  endfacet
  facet normal  7.730106e-001 -6.343933e-001  0.000000e+000
    outer loop
      vertex -2.499572e-001  1.714210e-001  0.000000e+000
      vertex -2.456106e-001  1.767173e-001  1.250000e-001
      vertex -2.499572e-001  1.714210e-001  1.250000e-001
    endloop
  endfacet
  facet normal  6.343943e-001 -7.730096e-001  0.000000e+000
    outer loop
      vertex -2.499572e-001  1.714210e-001  0.000000e+000
      vertex -2.499572e-001  1.714210e-001  1.250000e-001
      vertex -2.552535e-001  1.670745e-001  0.000000e+000
    endloop
  endfacet
  facet normal  6.343943e-001 -7.730096e-001  0.000000e+000
    outer loop
      vertex -2.552535e-001  1.670745e-001  0.000000e+000
      vertex -2.499572e-001  1.714210e-001  1.250000e-001
      vertex -2.552535e-001  1.670745e-001  1.250000e-001
    endloop
  endfacet
  facet normal  4.713959e-001 -8.819217e-001  0.000000e+000
    outer loop
      vertex -2.552535e-001  1.670745e-001  0.000000e+000
      vertex -2.552535e-001  1.670745e-001  1.250000e-001
      vertex -2.612960e-001  1.638447e-001  0.000000e+000
    endloop
  endfacet
  facet normal  4.713959e-001 -8.819217e-001  0.000000e+000
    outer loop
      vertex -2.612960e-001  1.638447e-001  0.000000e+000
      vertex -2.552535e-001  1.670745e-001  1.250000e-001
      vertex -2.612960e-001  1.638447e-001  1.250000e-001
    endloop
  endfacet
  facet normal  2.902856e-001 -9.569401e-001  0.000000e+000
    outer loop
      vertex -2.612960e-001  1.638447e-001  0.000000e+000
      vertex -2.612960e-001  1.638447e-001  1.250000e-001
      vertex -2.678525e-001  1.618558e-001  0.000000e+000
    endloop
  endfacet
  facet normal  2.902856e-001 -9.569401e-001  0.000000e+000
    outer loop
      vertex -2.678525e-001  1.618558e-001  0.000000e+000
      vertex -2.612960e-001  1.638447e-001  1.250000e-001
      vertex -2.678525e-001  1.618558e-001  1.250000e-001
    endloop
  endfacet
  facet normal  9.801695e-002 -9.951847e-001  0.000000e+000
    outer loop
      vertex -2.678525e-001  1.618558e-001  0.000000e+000
      vertex -2.678525e-001  1.618558e-001  1.250000e-001
      vertex -2.746710e-001  1.611842e-001  0.000000e+000
    endloop
  endfacet
  facet normal  9.801695e-002 -9.951847e-001  0.000000e+000
    outer loop
      vertex -2.746710e-001  1.611842e-001  0.000000e+000
      vertex -2.678525e-001  1.618558e-001  1.250000e-001
      vertex -2.746710e-001  1.611842e-001  1.250000e-001
    endloop
  endfacet
  facet normal -9.801695e-002 -9.951847e-001  -0.000000e+000
    outer loop
      vertex -2.746710e-001  1.611842e-001  0.000000e+000
      vertex -2.746710e-001  1.611842e-001  1.250000e-001
      vertex -2.814896e-001  1.618558e-001  0.000000e+000
    endloop
  endfacet
  facet normal -9.801695e-002 -9.951847e-001  0.000000e+000
    outer loop
      vertex -2.814896e-001  1.618558e-001  0.000000e+000
      vertex -2.746710e-001  1.611842e-001  1.250000e-001
      vertex -2.814896e-001  1.618558e-001  1.250000e-001
    endloop
  endfacet
  facet normal -2.902856e-001 -9.569401e-001  -0.000000e+000
    outer loop
      vertex -2.814896e-001  1.618558e-001  0.000000e+000
      vertex -2.814896e-001  1.618558e-001  1.250000e-001
      vertex -2.880461e-001  1.638447e-001  0.000000e+000
    endloop
  endfacet
  facet normal -2.902856e-001 -9.569401e-001  0.000000e+000
    outer loop
      vertex -2.880461e-001  1.638447e-001  0.000000e+000
      vertex -2.814896e-001  1.618558e-001  1.250000e-001
      vertex -2.880461e-001  1.638447e-001  1.250000e-001
    endloop
  endfacet
  facet normal -4.713959e-001 -8.819217e-001  -0.000000e+000
    outer loop
      vertex -2.880461e-001  1.638447e-001  0.000000e+000
      vertex -2.880461e-001  1.638447e-001  1.250000e-001
      vertex -2.940886e-001  1.670745e-001  0.000000e+000
    endloop
  endfacet
  facet normal -4.713959e-001 -8.819217e-001  0.000000e+000
    outer loop
      vertex -2.940886e-001  1.670745e-001  0.000000e+000
      vertex -2.880461e-001  1.638447e-001  1.250000e-001
      vertex -2.940886e-001  1.670745e-001  1.250000e-001
    endloop
  endfacet
  facet normal -6.343943e-001 -7.730096e-001  -0.000000e+000
    outer loop
      vertex -2.940886e-001  1.670745e-001  0.000000e+000
      vertex -2.940886e-001  1.670745e-001  1.250000e-001
      vertex -2.993849e-001  1.714210e-001  0.000000e+000
    endloop
  endfacet
  facet normal -6.343943e-001 -7.730096e-001  0.000000e+000
    outer loop
      vertex -2.993849e-001  1.714210e-001  0.000000e+000
      vertex -2.940886e-001  1.670745e-001  1.250000e-001
      vertex -2.993849e-001  1.714210e-001  1.250000e-001
    endloop
  endfacet
  facet normal -7.730094e-001 -6.343945e-001  -0.000000e+000
    outer loop
      vertex -2.993849e-001  1.714210e-001  0.000000e+000
      vertex -2.993849e-001  1.714210e-001  1.250000e-001
      vertex -3.037315e-001  1.767173e-001  0.000000e+000
    endloop
  endfacet
  facet normal -7.730094e-001 -6.343945e-001  0.000000e+000
    outer loop
      vertex -3.037315e-001  1.767173e-001  0.000000e+000
      vertex -2.993849e-001  1.714210e-001  1.250000e-001
      vertex -3.037315e-001  1.767173e-001  1.250000e-001
    endloop
  endfacet
  facet normal -8.819226e-001 -4.713942e-001  -0.000000e+000
    outer loop
      vertex -3.037315e-001  1.767173e-001  0.000000e+000
      vertex -3.037315e-001  1.767173e-001  1.250000e-001
      vertex -3.069612e-001  1.827598e-001  0.000000e+000
    endloop
  endfacet
  facet normal -8.819226e-001 -4.713942e-001  0.000000e+000
    outer loop
      vertex -3.069612e-001  1.827598e-001  0.000000e+000
      vertex -3.037315e-001  1.767173e-001  1.250000e-001
      vertex -3.069612e-001  1.827598e-001  1.250000e-001
    endloop
  endfacet
  facet normal -9.569393e-001 -2.902882e-001  -0.000000e+000
    outer loop
      vertex -3.069612e-001  1.827598e-001  0.000000e+000
      vertex -3.069612e-001  1.827598e-001  1.250000e-001
      vertex -3.089502e-001  1.893163e-001  0.000000e+000
    endloop
  endfacet
  facet normal -9.569393e-001 -2.902882e-001  0.000000e+000
    outer loop
      vertex -3.089502e-001  1.893163e-001  0.000000e+000
      vertex -3.069612e-001  1.827598e-001  1.250000e-001
      vertex -3.089502e-001  1.893163e-001  1.250000e-001
    endloop
  endfacet
  facet normal -9.951847e-001 -9.801695e-002  -0.000000e+000
    outer loop
      vertex -3.089502e-001  1.893163e-001  0.000000e+000
      vertex -3.089502e-001  1.893163e-001  1.250000e-001
      vertex -3.096217e-001  1.961349e-001  0.000000e+000
    endloop
  endfacet
  facet normal -9.951847e-001 -9.801695e-002  0.000000e+000
    outer loop
      vertex -3.096217e-001  1.961349e-001  0.000000e+000
      vertex -3.089502e-001  1.893163e-001  1.250000e-001
      vertex -3.096217e-001  1.961349e-001  1.250000e-001
    endloop
  endfacet
  facet normal -9.951847e-001  9.801695e-002  0.000000e+000
    outer loop
      vertex -3.096217e-001  1.961349e-001  0.000000e+000
      vertex -3.096217e-001  1.961349e-001  1.250000e-001
      vertex -3.089502e-001  2.029534e-001  0.000000e+000
    endloop
  endfacet
  facet normal -9.951847e-001  9.801695e-002  0.000000e+000
    outer loop
      vertex -3.089502e-001  2.029534e-001  0.000000e+000
      vertex -3.096217e-001  1.961349e-001  1.250000e-001
      vertex -3.089502e-001  2.029534e-001  1.250000e-001
    endloop
  endfacet
  facet normal -9.569395e-001  2.902876e-001  0.000000e+000
    outer loop
      vertex -3.089502e-001  2.029534e-001  0.000000e+000
      vertex -3.089502e-001  2.029534e-001  1.250000e-001
      vertex -3.069612e-001  2.095099e-001  0.000000e+000
    endloop
  endfacet
  facet normal -9.569395e-001  2.902876e-001  0.000000e+000
    outer loop
      vertex -3.069612e-001  2.095099e-001  0.000000e+000
      vertex -3.089502e-001  2.029534e-001  1.250000e-001
      vertex -3.069612e-001  2.095099e-001  1.250000e-001
    endloop
  endfacet
  facet normal -8.819226e-001  4.713942e-001  0.000000e+000
    outer loop
      vertex -3.069612e-001  2.095099e-001  0.000000e+000
      vertex -3.069612e-001  2.095099e-001  1.250000e-001
      vertex -3.037315e-001  2.155524e-001  0.000000e+000
    endloop
  endfacet
  facet normal -8.819226e-001  4.713942e-001  0.000000e+000
    outer loop
      vertex -3.037315e-001  2.155524e-001  0.000000e+000
      vertex -3.069612e-001  2.095099e-001  1.250000e-001
      vertex -3.037315e-001  2.155524e-001  1.250000e-001
    endloop
  endfacet
  facet normal -7.730085e-001  6.343956e-001  0.000000e+000
    outer loop
      vertex -3.037315e-001  2.155524e-001  0.000000e+000
      vertex -3.037315e-001  2.155524e-001  1.250000e-001
      vertex -2.993849e-001  2.208487e-001  0.000000e+000
    endloop
  endfacet
  facet normal -7.730085e-001  6.343956e-001  0.000000e+000
    outer loop
      vertex -2.993849e-001  2.208487e-001  0.000000e+000
      vertex -3.037315e-001  2.155524e-001  1.250000e-001
      vertex -2.993849e-001  2.208487e-001  1.250000e-001
    endloop
  endfacet
  facet normal -6.343943e-001  7.730096e-001  0.000000e+000
    outer loop
      vertex -2.993849e-001  2.208487e-001  0.000000e+000
      vertex -2.993849e-001  2.208487e-001  1.250000e-001
      vertex -2.940886e-001  2.251953e-001  0.000000e+000
    endloop
  endfacet
  facet normal -6.343943e-001  7.730096e-001  0.000000e+000
    outer loop
      vertex -2.940886e-001  2.251953e-001  0.000000e+000
      vertex -2.993849e-001  2.208487e-001  1.250000e-001
      vertex -2.940886e-001  2.251953e-001  1.250000e-001
    endloop
  endfacet
  facet normal -4.713976e-001  8.819208e-001  0.000000e+000
    outer loop
      vertex -2.940886e-001  2.251953e-001  0.000000e+000
      vertex -2.940886e-001  2.251953e-001  1.250000e-001
      vertex -2.880461e-001  2.284251e-001  0.000000e+000
    endloop
  endfacet
  facet normal -4.713976e-001  8.819208e-001  0.000000e+000
    outer loop
      vertex -2.880461e-001  2.284251e-001  0.000000e+000
      vertex -2.940886e-001  2.251953e-001  1.250000e-001
      vertex -2.880461e-001  2.284251e-001  1.250000e-001
    endloop
  endfacet
  facet normal -2.902836e-001  9.569407e-001  0.000000e+000
    outer loop
      vertex -2.880461e-001  2.284251e-001  0.000000e+000
      vertex -2.880461e-001  2.284251e-001  1.250000e-001
      vertex -2.814896e-001  2.304140e-001  0.000000e+000
    endloop
  endfacet
  facet normal -2.902836e-001  9.569407e-001  0.000000e+000
    outer loop
      vertex -2.814896e-001  2.304140e-001  0.000000e+000
      vertex -2.880461e-001  2.284251e-001  1.250000e-001
      vertex -2.814896e-001  2.304140e-001  1.250000e-001
    endloop
  endfacet
  facet normal -9.801695e-002  9.951847e-001  0.000000e+000
    outer loop
      vertex -2.814896e-001  2.304140e-001  0.000000e+000
      vertex -2.814896e-001  2.304140e-001  1.250000e-001
      vertex -2.746710e-001  2.310855e-001  0.000000e+000
    endloop
  endfacet
  facet normal -9.801695e-002  9.951847e-001  0.000000e+000
    outer loop
      vertex -2.746710e-001  2.310855e-001  0.000000e+000
      vertex -2.814896e-001  2.304140e-001  1.250000e-001
      vertex -2.746710e-001  2.310855e-001  1.250000e-001
    endloop
  endfacet
  facet normal  9.801695e-002  9.951847e-001  0.000000e+000
    outer loop
      vertex -2.746710e-001  2.310855e-001  0.000000e+000
      vertex -2.746710e-001  2.310855e-001  1.250000e-001
      vertex -2.678525e-001  2.304140e-001  0.000000e+000
    endloop
  endfacet
  facet normal  9.801695e-002  9.951847e-001  -0.000000e+000
    outer loop
      vertex -2.678525e-001  2.304140e-001  0.000000e+000
      vertex -2.746710e-001  2.310855e-001  1.250000e-001
      vertex -2.678525e-001  2.304140e-001  1.250000e-001
    endloop
  endfacet
  facet normal  2.902836e-001  9.569407e-001  0.000000e+000
    outer loop
      vertex -2.678525e-001  2.304140e-001  0.000000e+000
      vertex -2.678525e-001  2.304140e-001  1.250000e-001
      vertex -2.612960e-001  2.284251e-001  0.000000e+000
    endloop
  endfacet
  facet normal  2.902836e-001  9.569407e-001  -0.000000e+000
    outer loop
      vertex -2.612960e-001  2.284251e-001  0.000000e+000
      vertex -2.678525e-001  2.304140e-001  1.250000e-001
      vertex -2.612960e-001  2.284251e-001  1.250000e-001
    endloop
  endfacet
  facet normal  4.713976e-001  8.819208e-001  0.000000e+000
    outer loop
      vertex -2.612960e-001  2.284251e-001  0.000000e+000
      vertex -2.612960e-001  2.284251e-001  1.250000e-001
      vertex -2.552535e-001  2.251953e-001  0.000000e+000
    endloop
  endfacet
  facet normal  4.713976e-001  8.819208e-001  -0.000000e+000
    outer loop
      vertex -2.552535e-001  2.251953e-001  0.000000e+000
      vertex -2.612960e-001  2.284251e-001  1.250000e-001
      vertex -2.552535e-001  2.251953e-001  1.250000e-001
    endloop
  endfacet
  facet normal  6.343943e-001  7.730096e-001  0.000000e+000
    outer loop
      vertex -2.552535e-001  2.251953e-001  0.000000e+000
      vertex -2.552535e-001  2.251953e-001  1.250000e-001
      vertex -2.499572e-001  2.208487e-001  0.000000e+000
    endloop
  endfacet
  facet normal  6.343943e-001  7.730096e-001  -0.000000e+000
    outer loop
      vertex -2.499572e-001  2.208487e-001  0.000000e+000
      vertex -2.552535e-001  2.251953e-001  1.250000e-001
      vertex -2.499572e-001  2.208487e-001  1.250000e-001
    endloop
  endfacet
  facet normal  7.730096e-001  6.343943e-001  0.000000e+000
    outer loop
      vertex -2.499572e-001  2.208487e-001  0.000000e+000
      vertex -2.499572e-001  2.208487e-001  1.250000e-001
      vertex -2.456106e-001  2.155524e-001  0.000000e+000
    endloop
  endfacet
  facet normal  7.730096e-001  6.343943e-001  -0.000000e+000
    outer loop
      vertex -2.456106e-001  2.155524e-001  0.000000e+000
      vertex -2.499572e-001  2.208487e-001  1.250000e-001
      vertex -2.456106e-001  2.155524e-001  1.250000e-001
    endloop
  endfacet
  facet normal  8.819217e-001  4.713959e-001  0.000000e+000
    outer loop
      vertex -2.456106e-001  2.155524e-001  0.000000e+000
      vertex -2.456106e-001  2.155524e-001  1.250000e-001
      vertex -2.423809e-001  2.095099e-001  0.000000e+000
    endloop
  endfacet
  facet normal  8.819217e-001  4.713959e-001  -0.000000e+000
    outer loop
      vertex -2.423809e-001  2.095099e-001  0.000000e+000
      vertex -2.456106e-001  2.155524e-001  1.250000e-001
      vertex -2.423809e-001  2.095099e-001  1.250000e-001
    endloop
  endfacet
  facet normal  9.569401e-001  2.902856e-001  0.000000e+000
    outer loop
      vertex -2.423809e-001  2.095099e-001  0.000000e+000
      vertex -2.423809e-001  2.095099e-001  1.250000e-001
      vertex -2.403920e-001  2.029534e-001  0.000000e+000
    endloop
  endfacet
  facet normal  9.569401e-001  2.902856e-001  -0.000000e+000
    outer loop
      vertex -2.403920e-001  2.029534e-001  0.000000e+000
      vertex -2.423809e-001  2.095099e-001  1.250000e-001
      vertex -2.403920e-001  2.029534e-001  1.250000e-001
    endloop
  endfacet
  facet normal  9.951847e-001  9.801695e-002  0.000000e+000
    outer loop
      vertex -2.403920e-001  2.029534e-001  0.000000e+000
      vertex -2.403920e-001  2.029534e-001  1.250000e-001
      vertex -2.397204e-001  1.961349e-001  0.000000e+000
    endloop
  endfacet
  facet normal  9.951847e-001  9.801695e-002  -0.000000e+000
    outer loop
      vertex -2.397204e-001  1.961349e-001  0.000000e+000
      vertex -2.403920e-001  2.029534e-001  1.250000e-001
      vertex -2.397204e-001  1.961349e-001  1.250000e-001
    endloop
  endfacet
endsolid CATIA STL
