solid CATIA STL
  facet normal  -0.000000e+000  0.000000e+000  1.000000e+000
    outer loop
      vertex  5.468750e-002 -3.852796e-001  1.562500e-001
      vertex -3.906250e-002 -3.852796e-001  1.562500e-001
      vertex  5.468750e-002 -4.296875e-001  1.562500e-001
    endloop
  endfacet
  facet normal  0.000000e+000  0.000000e+000  1.000000e+000
    outer loop
      vertex  5.468750e-002 -4.296875e-001  1.562500e-001
      vertex -3.906250e-002 -3.852796e-001  1.562500e-001
      vertex -3.906250e-002 -4.218750e-001  1.562500e-001
    endloop
  endfacet
  facet normal  0.000000e+000  0.000000e+000  1.000000e+000
    outer loop
      vertex  5.468750e-002 -4.296875e-001  1.562500e-001
      vertex -3.906250e-002 -4.218750e-001  1.562500e-001
      vertex -3.125000e-002 -4.296875e-001  1.562500e-001
    endloop
  endfacet
  facet normal  0.000000e+000 -1.000000e+000  0.000000e+000
    outer loop
      vertex -3.125000e-002 -4.296875e-001  3.396381e-002
      vertex  5.468750e-002 -4.296875e-001  3.396381e-002
      vertex -3.125000e-002 -4.296875e-001  1.562500e-001
    endloop
  endfacet
  facet normal  0.000000e+000 -1.000000e+000  0.000000e+000
    outer loop
      vertex -3.125000e-002 -4.296875e-001  1.562500e-001
      vertex  5.468750e-002 -4.296875e-001  3.396381e-002
      vertex  5.468750e-002 -4.296875e-001  1.562500e-001
    endloop
  endfacet
  facet normal -1.000000e+000  0.000000e+000  0.000000e+000
    outer loop
      vertex -3.906250e-002 -7.500000e-001 -3.906250e-002
      vertex -3.906250e-002 -7.500000e-001  3.396381e-002
      vertex -3.906250e-002 -4.296875e-001  3.396381e-002
    endloop
  endfacet
  facet normal -1.000000e+000  0.000000e+000  -0.000000e+000
    outer loop
      vertex -3.906250e-002 -7.500000e-001 -3.906250e-002
      vertex -3.906250e-002 -4.296875e-001  3.396381e-002
      vertex -3.906250e-002 -4.218750e-001  3.396381e-002
    endloop
  endfacet
  facet normal -1.000000e+000  0.000000e+000  -0.000000e+000
    outer loop
      vertex -3.906250e-002 -7.500000e-001 -3.906250e-002
      vertex -3.906250e-002 -4.218750e-001  3.396381e-002
      vertex -3.906250e-002 -3.852796e-001  3.396381e-002
    endloop
  endfacet
  facet normal -1.000000e+000  0.000000e+000  -0.000000e+000
    outer loop
      vertex -3.906250e-002 -7.500000e-001 -3.906250e-002
      vertex -3.906250e-002 -3.852796e-001  3.396381e-002
      vertex -3.906250e-002  4.560497e-018  3.396381e-002
    endloop
  endfacet
  facet normal -1.000000e+000  0.000000e+000  0.000000e+000
    outer loop
      vertex -3.906250e-002 -7.500000e-001 -3.906250e-002
      vertex -3.906250e-002  4.560497e-018  3.396381e-002
      vertex -3.906250e-002  0.000000e+000 -3.906250e-002
    endloop
  endfacet
  facet normal -1.000000e+000  -0.000000e+000  0.000000e+000
    outer loop
      vertex -3.906250e-002 -4.218750e-001  1.562500e-001
      vertex -3.906250e-002 -3.852796e-001  1.562500e-001
      vertex -3.906250e-002 -4.218750e-001  3.396381e-002
    endloop
  endfacet
  facet normal -1.000000e+000  0.000000e+000  0.000000e+000
    outer loop
      vertex -3.906250e-002 -4.218750e-001  3.396381e-002
      vertex -3.906250e-002 -3.852796e-001  1.562500e-001
      vertex -3.906250e-002 -3.852796e-001  3.396381e-002
    endloop
  endfacet
  facet normal  0.000000e+000  0.000000e+000  1.000000e+000
    outer loop
      vertex -3.906250e-002 -4.296875e-001  3.396381e-002
      vertex -3.125000e-002 -4.296875e-001  3.396381e-002
      vertex -3.906250e-002 -4.218750e-001  3.396381e-002
    endloop
  endfacet
  facet normal  0.000000e+000  0.000000e+000  9.999999e-001
    outer loop
      vertex  5.468750e-002 -7.500000e-001  3.396381e-002
      vertex  5.468750e-002 -4.296875e-001  3.396381e-002
      vertex -3.906250e-002 -7.500000e-001  3.396381e-002
    endloop
  endfacet
  facet normal  0.000000e+000  0.000000e+000  1.000000e+000
    outer loop
      vertex -3.906250e-002 -7.500000e-001  3.396381e-002
      vertex  5.468750e-002 -4.296875e-001  3.396381e-002
      vertex -3.125000e-002 -4.296875e-001  3.396381e-002
    endloop
  endfacet
  facet normal  0.000000e+000  0.000000e+000  9.999999e-001
    outer loop
      vertex -3.906250e-002 -7.500000e-001  3.396381e-002
      vertex -3.125000e-002 -4.296875e-001  3.396381e-002
      vertex -3.906250e-002 -4.296875e-001  3.396381e-002
    endloop
  endfacet
  facet normal  0.000000e+000  0.000000e+000 -1.000000e+000
    outer loop
      vertex -3.906250e-002  0.000000e+000 -3.906250e-002
      vertex  5.468750e-002  5.854692e-018 -3.906250e-002
      vertex -3.906250e-002 -7.500000e-001 -3.906250e-002
    endloop
  endfacet
  facet normal  0.000000e+000  0.000000e+000 -1.000000e+000
    outer loop
      vertex -3.906250e-002 -7.500000e-001 -3.906250e-002
      vertex  5.468750e-002  5.854692e-018 -3.906250e-002
      vertex  5.468750e-002 -7.500000e-001 -3.906250e-002
    endloop
  endfacet
  facet normal -7.071068e-001 -7.071068e-001  0.000000e+000
    outer loop
      vertex -3.906250e-002 -4.218750e-001  3.396381e-002
      vertex -3.125000e-002 -4.296875e-001  3.396381e-002
      vertex -3.906250e-002 -4.218750e-001  1.562500e-001
    endloop
  endfacet
  facet normal -7.071068e-001 -7.071068e-001  0.000000e+000
    outer loop
      vertex -3.906250e-002 -4.218750e-001  1.562500e-001
      vertex -3.125000e-002 -4.296875e-001  3.396381e-002
      vertex -3.125000e-002 -4.296875e-001  1.562500e-001
    endloop
  endfacet
  facet normal  1.000000e+000  -0.000000e+000  0.000000e+000
    outer loop
      vertex  5.468750e-002 -4.296875e-001  3.396381e-002
      vertex  5.468750e-002 -7.500000e-001  3.396381e-002
      vertex  5.468750e-002 -7.500000e-001 -3.906250e-002
    endloop
  endfacet
  facet normal  1.000000e+000  0.000000e+000  0.000000e+000
    outer loop
      vertex  5.468750e-002 -4.296875e-001  3.396381e-002
      vertex  5.468750e-002 -7.500000e-001 -3.906250e-002
      vertex  5.468750e-002 -3.852796e-001  3.396381e-002
    endloop
  endfacet
  facet normal  1.000000e+000  0.000000e+000  -0.000000e+000
    outer loop
      vertex  5.468750e-002 -4.296875e-001  3.396381e-002
      vertex  5.468750e-002 -3.852796e-001  3.396381e-002
      vertex  5.468750e-002 -3.852796e-001  1.562500e-001
    endloop
  endfacet
  facet normal  1.000000e+000  0.000000e+000  0.000000e+000
    outer loop
      vertex  5.468750e-002 -4.296875e-001  3.396381e-002
      vertex  5.468750e-002 -3.852796e-001  1.562500e-001
      vertex  5.468750e-002 -4.296875e-001  1.562500e-001
    endloop
  endfacet
  facet normal  1.000000e+000  0.000000e+000  0.000000e+000
    outer loop
      vertex  5.468750e-002  5.854692e-018 -3.906250e-002
      vertex  5.468750e-002  1.041519e-017  3.396381e-002
      vertex  5.468750e-002 -7.500000e-001 -3.906250e-002
    endloop
  endfacet
  facet normal  1.000000e+000  0.000000e+000  0.000000e+000
    outer loop
      vertex  5.468750e-002 -7.500000e-001 -3.906250e-002
      vertex  5.468750e-002  1.041519e-017  3.396381e-002
      vertex  5.468750e-002 -3.852796e-001  3.396381e-002
    endloop
  endfacet
  facet normal  0.000000e+000  1.000000e+000  0.000000e+000
    outer loop
      vertex  5.468750e-002 -3.852796e-001  3.396381e-002
      vertex -3.906250e-002 -3.852796e-001  3.396381e-002
      vertex  5.468750e-002 -3.852796e-001  1.562500e-001
    endloop
  endfacet
  facet normal  0.000000e+000  1.000000e+000  0.000000e+000
    outer loop
      vertex  5.468750e-002 -3.852796e-001  1.562500e-001
      vertex -3.906250e-002 -3.852796e-001  3.396381e-002
      vertex -3.906250e-002 -3.852796e-001  1.562500e-001
    endloop
  endfacet
  facet normal  -0.000000e+000  0.000000e+000  1.000000e+000
    outer loop
      vertex  5.468750e-002  1.041519e-017  3.396381e-002
      vertex -3.906250e-002  4.560497e-018  3.396381e-002
      vertex  5.468750e-002 -3.852796e-001  3.396381e-002
    endloop
  endfacet
  facet normal  0.000000e+000  0.000000e+000  1.000000e+000
    outer loop
      vertex  5.468750e-002 -3.852796e-001  3.396381e-002
      vertex -3.906250e-002  4.560497e-018  3.396381e-002
      vertex -3.906250e-002 -3.852796e-001  3.396381e-002
    endloop
  endfacet
  facet normal  0.000000e+000 -1.000000e+000  0.000000e+000
    outer loop
      vertex -3.906250e-002 -7.500000e-001 -3.906250e-002
      vertex  5.468750e-002 -7.500000e-001 -3.906250e-002
      vertex -3.906250e-002 -7.500000e-001  3.396381e-002
    endloop
  endfacet
  facet normal  0.000000e+000 -1.000000e+000  0.000000e+000
    outer loop
      vertex -3.906250e-002 -7.500000e-001  3.396381e-002
      vertex  5.468750e-002 -7.500000e-001 -3.906250e-002
      vertex  5.468750e-002 -7.500000e-001  3.396381e-002
    endloop
  endfacet
  facet normal -6.245005e-017  1.000000e+000 -6.245005e-017
    outer loop
      vertex -3.906250e-002  0.000000e+000 -3.906250e-002
      vertex -3.906250e-002  4.560497e-018  3.396381e-002
      vertex  5.468750e-002  5.854692e-018 -3.906250e-002
    endloop
  endfacet
  facet normal -6.245005e-017  1.000000e+000 -6.245005e-017
    outer loop
      vertex  5.468750e-002  5.854692e-018 -3.906250e-002
      vertex -3.906250e-002  4.560497e-018  3.396381e-002
      vertex  5.468750e-002  1.041519e-017  3.396381e-002
    endloop
  endfacet
endsolid CATIA STL
