solid CATIA STL
  facet normal  0.000000e+000 -1.000000e+000  0.000000e+000
    outer loop
      vertex -9.371258e-002 -7.500000e-001  3.946423e-002
      vertex -1.455553e-001 -7.500000e-001  2.926355e-002
      vertex -9.958098e-002 -7.500000e-001  2.011869e-002
    endloop
  endfacet
  facet normal  0.000000e+000 -1.000000e+000  0.000000e+000
    outer loop
      vertex  1.262829e-001 -7.500000e-001  8.333553e-002
      vertex  5.885568e-002 -7.500000e-001  8.574530e-002
      vertex  7.448289e-002 -7.500000e-001  7.292039e-002
    endloop
  endfacet
  facet normal  0.000000e+000 -1.000000e+000  0.000000e+000
    outer loop
      vertex  1.562500e-003 -7.500000e-001  1.031250e-001
      vertex  2.168119e-002 -7.500000e-001  1.011435e-001
      vertex  1.076285e-001 -7.500000e-001  1.060660e-001
    endloop
  endfacet
  facet normal  -0.000000e+000 -1.000000e+000  0.000000e+000
    outer loop
      vertex  1.562500e-003 -7.500000e-001  1.031250e-001
      vertex  1.076285e-001 -7.500000e-001  1.060660e-001
      vertex  8.489803e-002 -7.500000e-001  1.247204e-001
    endloop
  endfacet
  facet normal  -0.000000e+000 -1.000000e+000  0.000000e+000
    outer loop
      vertex  1.562500e-003 -7.500000e-001  1.031250e-001
      vertex  8.489803e-002 -7.500000e-001  1.247204e-001
      vertex  5.896502e-002 -7.500000e-001  1.385819e-001
    endloop
  endfacet
  facet normal  -0.000000e+000 -9.999999e-001  0.000000e+000
    outer loop
      vertex  1.562500e-003 -7.500000e-001  1.031250e-001
      vertex  5.896502e-002 -7.500000e-001  1.385819e-001
      vertex  3.082605e-002 -7.500000e-001  1.471178e-001
    endloop
  endfacet
  facet normal  -0.000000e+000 -1.000000e+000  0.000000e+000
    outer loop
      vertex  1.562500e-003 -7.500000e-001  1.031250e-001
      vertex  3.082605e-002 -7.500000e-001  1.471178e-001
      vertex  1.562500e-003 -7.500000e-001  1.500000e-001
    endloop
  endfacet
  facet normal  0.000000e+000 -1.000000e+000  -0.000000e+000
    outer loop
      vertex  1.562500e-003 -7.500000e-001  1.031250e-001
      vertex  1.562500e-003 -7.500000e-001  1.500000e-001
      vertex -2.770105e-002 -7.500000e-001  1.471178e-001
    endloop
  endfacet
  facet normal  0.000000e+000 -9.999999e-001  -0.000000e+000
    outer loop
      vertex  1.562500e-003 -7.500000e-001  1.031250e-001
      vertex -2.770105e-002 -7.500000e-001  1.471178e-001
      vertex -5.584002e-002 -7.500000e-001  1.385819e-001
    endloop
  endfacet
  facet normal  0.000000e+000 -1.000000e+000  -0.000000e+000
    outer loop
      vertex  1.562500e-003 -7.500000e-001  1.031250e-001
      vertex -5.584002e-002 -7.500000e-001  1.385819e-001
      vertex -8.177304e-002 -7.500000e-001  1.247204e-001
    endloop
  endfacet
  facet normal  0.000000e+000 -1.000000e+000  -0.000000e+000
    outer loop
      vertex  1.562500e-003 -7.500000e-001  1.031250e-001
      vertex -8.177304e-002 -7.500000e-001  1.247204e-001
      vertex -1.045035e-001 -7.500000e-001  1.060660e-001
    endloop
  endfacet
  facet normal  0.000000e+000 -9.999999e-001  0.000000e+000
    outer loop
      vertex -1.045035e-001 -7.500000e-001  1.060660e-001
      vertex -1.231579e-001 -7.500000e-001  8.333553e-002
      vertex -5.573068e-002 -7.500000e-001  8.574530e-002
    endloop
  endfacet
  facet normal  0.000000e+000 -1.000000e+000  0.000000e+000
    outer loop
      vertex -1.045035e-001 -7.500000e-001  1.060660e-001
      vertex -5.573068e-002 -7.500000e-001  8.574530e-002
      vertex -3.790173e-002 -7.500000e-001  9.527507e-002
    endloop
  endfacet
  facet normal  0.000000e+000 -1.000000e+000  0.000000e+000
    outer loop
      vertex -1.045035e-001 -7.500000e-001  1.060660e-001
      vertex -3.790173e-002 -7.500000e-001  9.527507e-002
      vertex -1.855619e-002 -7.500000e-001  1.011435e-001
    endloop
  endfacet
  facet normal  0.000000e+000 -1.000000e+000  0.000000e+000
    outer loop
      vertex -1.045035e-001 -7.500000e-001  1.060660e-001
      vertex -1.855619e-002 -7.500000e-001  1.011435e-001
      vertex  1.562500e-003 -7.500000e-001  1.031250e-001
    endloop
  endfacet
  facet normal  0.000000e+000 -1.000000e+000  0.000000e+000
    outer loop
      vertex -1.045035e-001 -7.500000e-001 -1.060660e-001
      vertex -8.177304e-002 -7.500000e-001 -1.247204e-001
      vertex  1.562500e-003 -7.500000e-001 -1.031250e-001
    endloop
  endfacet
  facet normal  -0.000000e+000 -1.000000e+000  0.000000e+000
    outer loop
      vertex -1.045035e-001 -7.500000e-001 -1.060660e-001
      vertex  1.562500e-003 -7.500000e-001 -1.031250e-001
      vertex -1.855619e-002 -7.500000e-001 -1.011435e-001
    endloop
  endfacet
  facet normal  -0.000000e+000 -1.000000e+000  0.000000e+000
    outer loop
      vertex -1.045035e-001 -7.500000e-001 -1.060660e-001
      vertex -1.855619e-002 -7.500000e-001 -1.011435e-001
      vertex -3.790173e-002 -7.500000e-001 -9.527507e-002
    endloop
  endfacet
  facet normal  -0.000000e+000 -1.000000e+000  0.000000e+000
    outer loop
      vertex -1.045035e-001 -7.500000e-001 -1.060660e-001
      vertex -3.790173e-002 -7.500000e-001 -9.527507e-002
      vertex -5.573068e-002 -7.500000e-001 -8.574530e-002
    endloop
  endfacet
  facet normal  -0.000000e+000 -9.999999e-001  0.000000e+000
    outer loop
      vertex -1.045035e-001 -7.500000e-001 -1.060660e-001
      vertex -5.573068e-002 -7.500000e-001 -8.574530e-002
      vertex -1.231579e-001 -7.500000e-001 -8.333553e-002
    endloop
  endfacet
  facet normal  0.000000e+000 -1.000000e+000  0.000000e+000
    outer loop
      vertex  1.562500e-003 -7.500000e-001 -1.031250e-001
      vertex -8.177304e-002 -7.500000e-001 -1.247204e-001
      vertex -5.584002e-002 -7.500000e-001 -1.385819e-001
    endloop
  endfacet
  facet normal  0.000000e+000 -9.999999e-001  0.000000e+000
    outer loop
      vertex  1.562500e-003 -7.500000e-001 -1.031250e-001
      vertex -5.584002e-002 -7.500000e-001 -1.385819e-001
      vertex -2.770105e-002 -7.500000e-001 -1.471178e-001
    endloop
  endfacet
  facet normal  0.000000e+000 -1.000000e+000  0.000000e+000
    outer loop
      vertex  1.562500e-003 -7.500000e-001 -1.031250e-001
      vertex -2.770105e-002 -7.500000e-001 -1.471178e-001
      vertex  1.562500e-003 -7.500000e-001 -1.500000e-001
    endloop
  endfacet
  facet normal  0.000000e+000 -1.000000e+000  0.000000e+000
    outer loop
      vertex  1.562500e-003 -7.500000e-001 -1.031250e-001
      vertex  1.562500e-003 -7.500000e-001 -1.500000e-001
      vertex  3.082605e-002 -7.500000e-001 -1.471178e-001
    endloop
  endfacet
  facet normal  0.000000e+000 -9.999999e-001  0.000000e+000
    outer loop
      vertex  1.562500e-003 -7.500000e-001 -1.031250e-001
      vertex  3.082605e-002 -7.500000e-001 -1.471178e-001
      vertex  5.896502e-002 -7.500000e-001 -1.385819e-001
    endloop
  endfacet
  facet normal  0.000000e+000 -1.000000e+000  0.000000e+000
    outer loop
      vertex  1.562500e-003 -7.500000e-001 -1.031250e-001
      vertex  5.896502e-002 -7.500000e-001 -1.385819e-001
      vertex  8.489803e-002 -7.500000e-001 -1.247204e-001
    endloop
  endfacet
  facet normal  0.000000e+000 -1.000000e+000  0.000000e+000
    outer loop
      vertex  1.562500e-003 -7.500000e-001 -1.031250e-001
      vertex  8.489803e-002 -7.500000e-001 -1.247204e-001
      vertex  1.076285e-001 -7.500000e-001 -1.060660e-001
    endloop
  endfacet
  facet normal  0.000000e+000 -1.000000e+000  0.000000e+000
    outer loop
      vertex  1.076285e-001 -7.500000e-001  1.060660e-001
      vertex  2.168119e-002 -7.500000e-001  1.011435e-001
      vertex  4.102673e-002 -7.500000e-001  9.527507e-002
    endloop
  endfacet
  facet normal  0.000000e+000 -1.000000e+000  0.000000e+000
    outer loop
      vertex  1.076285e-001 -7.500000e-001  1.060660e-001
      vertex  4.102673e-002 -7.500000e-001  9.527507e-002
      vertex  5.885568e-002 -7.500000e-001  8.574530e-002
    endloop
  endfacet
  facet normal  0.000000e+000 -9.999999e-001  0.000000e+000
    outer loop
      vertex  1.076285e-001 -7.500000e-001  1.060660e-001
      vertex  5.885568e-002 -7.500000e-001  8.574530e-002
      vertex  1.262829e-001 -7.500000e-001  8.333553e-002
    endloop
  endfacet
  facet normal  0.000000e+000 -9.999999e-001  0.000000e+000
    outer loop
      vertex  1.076285e-001 -7.500000e-001 -1.060660e-001
      vertex  1.262829e-001 -7.500000e-001 -8.333553e-002
      vertex  5.885568e-002 -7.500000e-001 -8.574530e-002
    endloop
  endfacet
  facet normal  0.000000e+000 -1.000000e+000  -0.000000e+000
    outer loop
      vertex  1.076285e-001 -7.500000e-001 -1.060660e-001
      vertex  5.885568e-002 -7.500000e-001 -8.574530e-002
      vertex  4.102673e-002 -7.500000e-001 -9.527507e-002
    endloop
  endfacet
  facet normal  0.000000e+000 -1.000000e+000  -0.000000e+000
    outer loop
      vertex  1.076285e-001 -7.500000e-001 -1.060660e-001
      vertex  4.102673e-002 -7.500000e-001 -9.527507e-002
      vertex  2.168119e-002 -7.500000e-001 -1.011435e-001
    endloop
  endfacet
  facet normal  0.000000e+000 -1.000000e+000  -0.000000e+000
    outer loop
      vertex  1.076285e-001 -7.500000e-001 -1.060660e-001
      vertex  2.168119e-002 -7.500000e-001 -1.011435e-001
      vertex  1.562500e-003 -7.500000e-001 -1.031250e-001
    endloop
  endfacet
  facet normal  -0.000000e+000 -1.000000e+000  0.000000e+000
    outer loop
      vertex -1.455553e-001 -7.500000e-001  2.926355e-002
      vertex -9.371258e-002 -7.500000e-001  3.946423e-002
      vertex -1.370194e-001 -7.500000e-001  5.740251e-002
    endloop
  endfacet
  facet normal  0.000000e+000 -9.999999e-001  0.000000e+000
    outer loop
      vertex -1.370194e-001 -7.500000e-001  5.740251e-002
      vertex -9.371258e-002 -7.500000e-001  3.946423e-002
      vertex -8.418281e-002 -7.500000e-001  5.729318e-002
    endloop
  endfacet
  facet normal  0.000000e+000 -1.000000e+000  0.000000e+000
    outer loop
      vertex -1.370194e-001 -7.500000e-001  5.740251e-002
      vertex -8.418281e-002 -7.500000e-001  5.729318e-002
      vertex -1.231579e-001 -7.500000e-001  8.333553e-002
    endloop
  endfacet
  facet normal  0.000000e+000 -9.999999e-001  0.000000e+000
    outer loop
      vertex -1.231579e-001 -7.500000e-001  8.333553e-002
      vertex -8.418281e-002 -7.500000e-001  5.729318e-002
      vertex -7.135788e-002 -7.500000e-001  7.292039e-002
    endloop
  endfacet
  facet normal  0.000000e+000 -1.000000e+000  0.000000e+000
    outer loop
      vertex -1.231579e-001 -7.500000e-001  8.333553e-002
      vertex -7.135788e-002 -7.500000e-001  7.292039e-002
      vertex -5.573068e-002 -7.500000e-001  8.574530e-002
    endloop
  endfacet
  facet normal  0.000000e+000 -9.999999e-001  0.000000e+000
    outer loop
      vertex -9.958098e-002 -7.500000e-001  2.011869e-002
      vertex -1.455553e-001 -7.500000e-001  2.926355e-002
      vertex -1.015625e-001 -7.500000e-001  9.758487e-018
    endloop
  endfacet
  facet normal  0.000000e+000 -1.000000e+000  0.000000e+000
    outer loop
      vertex -1.015625e-001 -7.500000e-001  9.758487e-018
      vertex -1.455553e-001 -7.500000e-001  2.926355e-002
      vertex -1.484375e-001 -7.500000e-001  1.836910e-017
    endloop
  endfacet
  facet normal  0.000000e+000 -9.999999e-001  0.000000e+000
    outer loop
      vertex -1.015625e-001 -7.500000e-001  9.758487e-018
      vertex -1.484375e-001 -7.500000e-001  1.836910e-017
      vertex -9.958098e-002 -7.500000e-001 -2.011869e-002
    endloop
  endfacet
  facet normal  -0.000000e+000 -1.000000e+000  0.000000e+000
    outer loop
      vertex -9.958098e-002 -7.500000e-001 -2.011869e-002
      vertex -1.484375e-001 -7.500000e-001  1.836910e-017
      vertex -1.455553e-001 -7.500000e-001 -2.926355e-002
    endloop
  endfacet
  facet normal  0.000000e+000 -1.000000e+000  0.000000e+000
    outer loop
      vertex -9.958098e-002 -7.500000e-001 -2.011869e-002
      vertex -1.455553e-001 -7.500000e-001 -2.926355e-002
      vertex -9.371258e-002 -7.500000e-001 -3.946423e-002
    endloop
  endfacet
  facet normal  -0.000000e+000 -1.000000e+000  0.000000e+000
    outer loop
      vertex -9.371258e-002 -7.500000e-001 -3.946423e-002
      vertex -1.455553e-001 -7.500000e-001 -2.926355e-002
      vertex -1.370194e-001 -7.500000e-001 -5.740251e-002
    endloop
  endfacet
  facet normal  0.000000e+000 -9.999999e-001  0.000000e+000
    outer loop
      vertex -9.371258e-002 -7.500000e-001 -3.946423e-002
      vertex -1.370194e-001 -7.500000e-001 -5.740251e-002
      vertex -8.418281e-002 -7.500000e-001 -5.729318e-002
    endloop
  endfacet
  facet normal  0.000000e+000 -1.000000e+000  0.000000e+000
    outer loop
      vertex -8.418281e-002 -7.500000e-001 -5.729318e-002
      vertex -1.370194e-001 -7.500000e-001 -5.740251e-002
      vertex -7.135788e-002 -7.500000e-001 -7.292039e-002
    endloop
  endfacet
  facet normal  -0.000000e+000 -1.000000e+000  0.000000e+000
    outer loop
      vertex -7.135788e-002 -7.500000e-001 -7.292039e-002
      vertex -1.370194e-001 -7.500000e-001 -5.740251e-002
      vertex -1.231579e-001 -7.500000e-001 -8.333553e-002
    endloop
  endfacet
  facet normal  0.000000e+000 -1.000000e+000  0.000000e+000
    outer loop
      vertex -7.135788e-002 -7.500000e-001 -7.292039e-002
      vertex -1.231579e-001 -7.500000e-001 -8.333553e-002
      vertex -5.573068e-002 -7.500000e-001 -8.574530e-002
    endloop
  endfacet
  facet normal  0.000000e+000 -1.000000e+000  0.000000e+000
    outer loop
      vertex  1.262829e-001 -7.500000e-001  8.333553e-002
      vertex  7.448289e-002 -7.500000e-001  7.292039e-002
      vertex  1.401444e-001 -7.500000e-001  5.740251e-002
    endloop
  endfacet
  facet normal  -0.000000e+000 -1.000000e+000  0.000000e+000
    outer loop
      vertex  1.401444e-001 -7.500000e-001  5.740251e-002
      vertex  7.448289e-002 -7.500000e-001  7.292039e-002
      vertex  8.730780e-002 -7.500000e-001  5.729318e-002
    endloop
  endfacet
  facet normal  0.000000e+000 -1.000000e+000  0.000000e+000
    outer loop
      vertex  1.401444e-001 -7.500000e-001  5.740251e-002
      vertex  8.730780e-002 -7.500000e-001  5.729318e-002
      vertex  1.486803e-001 -7.500000e-001  2.926355e-002
    endloop
  endfacet
  facet normal  0.000000e+000 -1.000000e+000  0.000000e+000
    outer loop
      vertex  1.486803e-001 -7.500000e-001  2.926355e-002
      vertex  8.730780e-002 -7.500000e-001  5.729318e-002
      vertex  9.683758e-002 -7.500000e-001  3.946423e-002
    endloop
  endfacet
  facet normal  0.000000e+000 -1.000000e+000  0.000000e+000
    outer loop
      vertex  1.486803e-001 -7.500000e-001  2.926355e-002
      vertex  9.683758e-002 -7.500000e-001  3.946423e-002
      vertex  1.027060e-001 -7.500000e-001  2.011869e-002
    endloop
  endfacet
  facet normal  0.000000e+000 -1.000000e+000  0.000000e+000
    outer loop
      vertex  1.486803e-001 -7.500000e-001  2.926355e-002
      vertex  1.027060e-001 -7.500000e-001  2.011869e-002
      vertex  1.515625e-001 -7.500000e-001 -1.836970e-017
    endloop
  endfacet
  facet normal  0.000000e+000 -9.999999e-001  0.000000e+000
    outer loop
      vertex  1.515625e-001 -7.500000e-001 -1.836970e-017
      vertex  1.027060e-001 -7.500000e-001  2.011869e-002
      vertex  1.046875e-001 -7.500000e-001 -1.549944e-017
    endloop
  endfacet
  facet normal  0.000000e+000 -1.000000e+000  0.000000e+000
    outer loop
      vertex  1.515625e-001 -7.500000e-001 -1.836970e-017
      vertex  1.046875e-001 -7.500000e-001 -1.549944e-017
      vertex  1.486803e-001 -7.500000e-001 -2.926355e-002
    endloop
  endfacet
  facet normal  0.000000e+000 -1.000000e+000  0.000000e+000
    outer loop
      vertex  1.486803e-001 -7.500000e-001 -2.926355e-002
      vertex  1.046875e-001 -7.500000e-001 -1.549944e-017
      vertex  1.027060e-001 -7.500000e-001 -2.011869e-002
    endloop
  endfacet
  facet normal  0.000000e+000 -1.000000e+000  0.000000e+000
    outer loop
      vertex  1.486803e-001 -7.500000e-001 -2.926355e-002
      vertex  1.027060e-001 -7.500000e-001 -2.011869e-002
      vertex  1.401444e-001 -7.500000e-001 -5.740251e-002
    endloop
  endfacet
  facet normal  0.000000e+000 -1.000000e+000  0.000000e+000
    outer loop
      vertex  1.401444e-001 -7.500000e-001 -5.740251e-002
      vertex  1.027060e-001 -7.500000e-001 -2.011869e-002
      vertex  9.683758e-002 -7.500000e-001 -3.946423e-002
    endloop
  endfacet
  facet normal  0.000000e+000 -9.999999e-001  -0.000000e+000
    outer loop
      vertex  1.401444e-001 -7.500000e-001 -5.740251e-002
      vertex  9.683758e-002 -7.500000e-001 -3.946423e-002
      vertex  8.730780e-002 -7.500000e-001 -5.729318e-002
    endloop
  endfacet
  facet normal  0.000000e+000 -1.000000e+000  0.000000e+000
    outer loop
      vertex  1.401444e-001 -7.500000e-001 -5.740251e-002
      vertex  8.730780e-002 -7.500000e-001 -5.729318e-002
      vertex  1.262829e-001 -7.500000e-001 -8.333553e-002
    endloop
  endfacet
  facet normal  0.000000e+000 -9.999999e-001  0.000000e+000
    outer loop
      vertex  1.262829e-001 -7.500000e-001 -8.333553e-002
      vertex  8.730780e-002 -7.500000e-001 -5.729318e-002
      vertex  7.448289e-002 -7.500000e-001 -7.292039e-002
    endloop
  endfacet
  facet normal  0.000000e+000 -9.999999e-001  -0.000000e+000
    outer loop
      vertex  1.262829e-001 -7.500000e-001 -8.333553e-002
      vertex  7.448289e-002 -7.500000e-001 -7.292039e-002
      vertex  5.885568e-002 -7.500000e-001 -8.574530e-002
    endloop
  endfacet
  facet normal -9.801719e-002  0.000000e+000  9.951847e-001
    outer loop
      vertex  1.562500e-003 -4.687500e-002 -1.031250e-001
      vertex  2.168119e-002 -7.500000e-001 -1.011435e-001
      vertex  2.168119e-002 -4.687500e-002 -1.011435e-001
    endloop
  endfacet
  facet normal -2.902846e-001  0.000000e+000  9.569403e-001
    outer loop
      vertex  2.168119e-002 -4.687500e-002 -1.011435e-001
      vertex  2.168119e-002 -7.500000e-001 -1.011435e-001
      vertex  4.102673e-002 -7.500000e-001 -9.527507e-002
    endloop
  endfacet
  facet normal -2.902846e-001  0.000000e+000  9.569403e-001
    outer loop
      vertex  2.168119e-002 -4.687500e-002 -1.011435e-001
      vertex  4.102673e-002 -7.500000e-001 -9.527507e-002
      vertex  4.102673e-002 -4.687500e-002 -9.527507e-002
    endloop
  endfacet
  facet normal -4.713966e-001  0.000000e+000  8.819213e-001
    outer loop
      vertex  4.102673e-002 -4.687500e-002 -9.527507e-002
      vertex  4.102673e-002 -7.500000e-001 -9.527507e-002
      vertex  5.885568e-002 -7.500000e-001 -8.574530e-002
    endloop
  endfacet
  facet normal -4.713966e-001  0.000000e+000  8.819213e-001
    outer loop
      vertex  4.102673e-002 -4.687500e-002 -9.527507e-002
      vertex  5.885568e-002 -7.500000e-001 -8.574530e-002
      vertex  5.885568e-002 -4.687500e-002 -8.574530e-002
    endloop
  endfacet
  facet normal -6.343932e-001  0.000000e+000  7.730106e-001
    outer loop
      vertex  5.885568e-002 -4.687500e-002 -8.574530e-002
      vertex  5.885568e-002 -7.500000e-001 -8.574530e-002
      vertex  7.448289e-002 -7.500000e-001 -7.292039e-002
    endloop
  endfacet
  facet normal -6.343932e-001  0.000000e+000  7.730106e-001
    outer loop
      vertex  5.885568e-002 -4.687500e-002 -8.574530e-002
      vertex  7.448289e-002 -7.500000e-001 -7.292039e-002
      vertex  7.448289e-002 -4.687500e-002 -7.292039e-002
    endloop
  endfacet
  facet normal -7.730106e-001  0.000000e+000  6.343932e-001
    outer loop
      vertex  7.448289e-002 -4.687500e-002 -7.292039e-002
      vertex  7.448289e-002 -7.500000e-001 -7.292039e-002
      vertex  8.730780e-002 -7.500000e-001 -5.729318e-002
    endloop
  endfacet
  facet normal -7.730106e-001  0.000000e+000  6.343932e-001
    outer loop
      vertex  7.448289e-002 -4.687500e-002 -7.292039e-002
      vertex  8.730780e-002 -7.500000e-001 -5.729318e-002
      vertex  8.730780e-002 -4.687500e-002 -5.729318e-002
    endloop
  endfacet
  facet normal -8.819212e-001  0.000000e+000  4.713969e-001
    outer loop
      vertex  8.730780e-002 -4.687500e-002 -5.729318e-002
      vertex  8.730780e-002 -7.500000e-001 -5.729318e-002
      vertex  9.683758e-002 -7.500000e-001 -3.946423e-002
    endloop
  endfacet
  facet normal -8.819212e-001  0.000000e+000  4.713969e-001
    outer loop
      vertex  8.730780e-002 -4.687500e-002 -5.729318e-002
      vertex  9.683758e-002 -7.500000e-001 -3.946423e-002
      vertex  9.683758e-002 -4.687500e-002 -3.946423e-002
    endloop
  endfacet
  facet normal -9.569404e-001  0.000000e+000  2.902847e-001
    outer loop
      vertex  9.683758e-002 -4.687500e-002 -3.946423e-002
      vertex  9.683758e-002 -7.500000e-001 -3.946423e-002
      vertex  1.027060e-001 -7.500000e-001 -2.011869e-002
    endloop
  endfacet
  facet normal -9.569404e-001  0.000000e+000  2.902847e-001
    outer loop
      vertex  9.683758e-002 -4.687500e-002 -3.946423e-002
      vertex  1.027060e-001 -7.500000e-001 -2.011869e-002
      vertex  1.027060e-001 -4.687500e-002 -2.011869e-002
    endloop
  endfacet
  facet normal -9.951848e-001  0.000000e+000  9.801684e-002
    outer loop
      vertex  1.027060e-001 -4.687500e-002 -2.011869e-002
      vertex  1.027060e-001 -7.500000e-001 -2.011869e-002
      vertex  1.046875e-001 -7.500000e-001 -1.549944e-017
    endloop
  endfacet
  facet normal -9.951848e-001  3.520940e-018  9.801684e-002
    outer loop
      vertex  1.027060e-001 -4.687500e-002 -2.011869e-002
      vertex  1.046875e-001 -7.500000e-001 -1.549944e-017
      vertex  1.046875e-001 -4.687500e-002 -4.075694e-017
    endloop
  endfacet
  facet normal -9.801719e-002  0.000000e+000  9.951847e-001
    outer loop
      vertex  2.168119e-002 -7.500000e-001 -1.011435e-001
      vertex  1.562500e-003 -4.687500e-002 -1.031250e-001
      vertex  1.562500e-003 -7.500000e-001 -1.031250e-001
    endloop
  endfacet
  facet normal  9.801719e-002  -0.000000e+000  9.951847e-001
    outer loop
      vertex  1.562500e-003 -7.500000e-001 -1.031250e-001
      vertex  1.562500e-003 -4.687500e-002 -1.031250e-001
      vertex -1.855619e-002 -4.687500e-002 -1.011435e-001
    endloop
  endfacet
  facet normal  9.801719e-002  0.000000e+000  9.951847e-001
    outer loop
      vertex  1.562500e-003 -7.500000e-001 -1.031250e-001
      vertex -1.855619e-002 -4.687500e-002 -1.011435e-001
      vertex -1.855619e-002 -7.500000e-001 -1.011435e-001
    endloop
  endfacet
  facet normal  2.902846e-001  -0.000000e+000  9.569403e-001
    outer loop
      vertex -1.855619e-002 -7.500000e-001 -1.011435e-001
      vertex -1.855619e-002 -4.687500e-002 -1.011435e-001
      vertex -3.790173e-002 -4.687500e-002 -9.527507e-002
    endloop
  endfacet
  facet normal  2.902846e-001  0.000000e+000  9.569403e-001
    outer loop
      vertex -1.855619e-002 -7.500000e-001 -1.011435e-001
      vertex -3.790173e-002 -4.687500e-002 -9.527507e-002
      vertex -3.790173e-002 -7.500000e-001 -9.527507e-002
    endloop
  endfacet
  facet normal  4.713966e-001  -0.000000e+000  8.819213e-001
    outer loop
      vertex -3.790173e-002 -7.500000e-001 -9.527507e-002
      vertex -3.790173e-002 -4.687500e-002 -9.527507e-002
      vertex -5.573068e-002 -4.687500e-002 -8.574530e-002
    endloop
  endfacet
  facet normal  4.713966e-001  0.000000e+000  8.819213e-001
    outer loop
      vertex -3.790173e-002 -7.500000e-001 -9.527507e-002
      vertex -5.573068e-002 -4.687500e-002 -8.574530e-002
      vertex -5.573068e-002 -7.500000e-001 -8.574530e-002
    endloop
  endfacet
  facet normal  6.343934e-001  -0.000000e+000  7.730104e-001
    outer loop
      vertex -5.573068e-002 -7.500000e-001 -8.574530e-002
      vertex -5.573068e-002 -4.687500e-002 -8.574530e-002
      vertex -7.135788e-002 -4.687500e-002 -7.292039e-002
    endloop
  endfacet
  facet normal  6.343934e-001  0.000000e+000  7.730104e-001
    outer loop
      vertex -5.573068e-002 -7.500000e-001 -8.574530e-002
      vertex -7.135788e-002 -4.687500e-002 -7.292039e-002
      vertex -7.135788e-002 -7.500000e-001 -7.292039e-002
    endloop
  endfacet
  facet normal  7.730104e-001  -0.000000e+000  6.343933e-001
    outer loop
      vertex -7.135788e-002 -7.500000e-001 -7.292039e-002
      vertex -7.135788e-002 -4.687500e-002 -7.292039e-002
      vertex -8.418281e-002 -4.687500e-002 -5.729318e-002
    endloop
  endfacet
  facet normal  7.730104e-001  0.000000e+000  6.343933e-001
    outer loop
      vertex -7.135788e-002 -7.500000e-001 -7.292039e-002
      vertex -8.418281e-002 -4.687500e-002 -5.729318e-002
      vertex -8.418281e-002 -7.500000e-001 -5.729318e-002
    endloop
  endfacet
  facet normal  8.819213e-001  -0.000000e+000  4.713966e-001
    outer loop
      vertex -8.418281e-002 -7.500000e-001 -5.729318e-002
      vertex -8.418281e-002 -4.687500e-002 -5.729318e-002
      vertex -9.371258e-002 -4.687500e-002 -3.946423e-002
    endloop
  endfacet
  facet normal  8.819213e-001  0.000000e+000  4.713966e-001
    outer loop
      vertex -8.418281e-002 -7.500000e-001 -5.729318e-002
      vertex -9.371258e-002 -4.687500e-002 -3.946423e-002
      vertex -9.371258e-002 -7.500000e-001 -3.946423e-002
    endloop
  endfacet
  facet normal  9.569404e-001  -0.000000e+000  2.902847e-001
    outer loop
      vertex -9.371258e-002 -7.500000e-001 -3.946423e-002
      vertex -9.371258e-002 -4.687500e-002 -3.946423e-002
      vertex -9.958098e-002 -4.687500e-002 -2.011869e-002
    endloop
  endfacet
  facet normal  9.569404e-001  0.000000e+000  2.902847e-001
    outer loop
      vertex -9.371258e-002 -7.500000e-001 -3.946423e-002
      vertex -9.958098e-002 -4.687500e-002 -2.011869e-002
      vertex -9.958098e-002 -7.500000e-001 -2.011869e-002
    endloop
  endfacet
  facet normal  9.951847e-001  -0.000000e+000  9.801719e-002
    outer loop
      vertex -9.958098e-002 -7.500000e-001 -2.011869e-002
      vertex -9.958098e-002 -4.687500e-002 -2.011869e-002
      vertex -1.015625e-001 -4.687500e-002  9.758487e-018
    endloop
  endfacet
  facet normal  9.951847e-001  0.000000e+000  9.801719e-002
    outer loop
      vertex -9.958098e-002 -7.500000e-001 -2.011869e-002
      vertex -1.015625e-001 -4.687500e-002  9.758487e-018
      vertex -1.015625e-001 -7.500000e-001  9.758487e-018
    endloop
  endfacet
  facet normal  9.801719e-002  0.000000e+000 -9.951847e-001
    outer loop
      vertex  1.562500e-003 -4.687500e-002  1.031250e-001
      vertex -1.855619e-002 -7.500000e-001  1.011435e-001
      vertex -1.855619e-002 -4.687500e-002  1.011435e-001
    endloop
  endfacet
  facet normal  2.902846e-001  0.000000e+000 -9.569403e-001
    outer loop
      vertex -1.855619e-002 -4.687500e-002  1.011435e-001
      vertex -1.855619e-002 -7.500000e-001  1.011435e-001
      vertex -3.790173e-002 -7.500000e-001  9.527507e-002
    endloop
  endfacet
  facet normal  2.902846e-001  0.000000e+000 -9.569403e-001
    outer loop
      vertex -1.855619e-002 -4.687500e-002  1.011435e-001
      vertex -3.790173e-002 -7.500000e-001  9.527507e-002
      vertex -3.790173e-002 -4.687500e-002  9.527507e-002
    endloop
  endfacet
  facet normal  4.713966e-001  0.000000e+000 -8.819213e-001
    outer loop
      vertex -3.790173e-002 -4.687500e-002  9.527507e-002
      vertex -3.790173e-002 -7.500000e-001  9.527507e-002
      vertex -5.573068e-002 -7.500000e-001  8.574530e-002
    endloop
  endfacet
  facet normal  4.713966e-001  0.000000e+000 -8.819213e-001
    outer loop
      vertex -3.790173e-002 -4.687500e-002  9.527507e-002
      vertex -5.573068e-002 -7.500000e-001  8.574530e-002
      vertex -5.573068e-002 -4.687500e-002  8.574530e-002
    endloop
  endfacet
  facet normal  6.343934e-001  0.000000e+000 -7.730104e-001
    outer loop
      vertex -5.573068e-002 -4.687500e-002  8.574530e-002
      vertex -5.573068e-002 -7.500000e-001  8.574530e-002
      vertex -7.135788e-002 -7.500000e-001  7.292039e-002
    endloop
  endfacet
  facet normal  6.343934e-001  0.000000e+000 -7.730104e-001
    outer loop
      vertex -5.573068e-002 -4.687500e-002  8.574530e-002
      vertex -7.135788e-002 -7.500000e-001  7.292039e-002
      vertex -7.135788e-002 -4.687500e-002  7.292039e-002
    endloop
  endfacet
  facet normal  7.730104e-001  0.000000e+000 -6.343933e-001
    outer loop
      vertex -7.135788e-002 -4.687500e-002  7.292039e-002
      vertex -7.135788e-002 -7.500000e-001  7.292039e-002
      vertex -8.418281e-002 -7.500000e-001  5.729318e-002
    endloop
  endfacet
  facet normal  7.730104e-001  0.000000e+000 -6.343933e-001
    outer loop
      vertex -7.135788e-002 -4.687500e-002  7.292039e-002
      vertex -8.418281e-002 -7.500000e-001  5.729318e-002
      vertex -8.418281e-002 -4.687500e-002  5.729318e-002
    endloop
  endfacet
  facet normal  8.819213e-001  0.000000e+000 -4.713966e-001
    outer loop
      vertex -8.418281e-002 -4.687500e-002  5.729318e-002
      vertex -8.418281e-002 -7.500000e-001  5.729318e-002
      vertex -9.371258e-002 -7.500000e-001  3.946423e-002
    endloop
  endfacet
  facet normal  8.819213e-001  0.000000e+000 -4.713966e-001
    outer loop
      vertex -8.418281e-002 -4.687500e-002  5.729318e-002
      vertex -9.371258e-002 -7.500000e-001  3.946423e-002
      vertex -9.371258e-002 -4.687500e-002  3.946423e-002
    endloop
  endfacet
  facet normal  9.569404e-001  0.000000e+000 -2.902847e-001
    outer loop
      vertex -9.371258e-002 -4.687500e-002  3.946423e-002
      vertex -9.371258e-002 -7.500000e-001  3.946423e-002
      vertex -9.958098e-002 -7.500000e-001  2.011869e-002
    endloop
  endfacet
  facet normal  9.569404e-001  0.000000e+000 -2.902847e-001
    outer loop
      vertex -9.371258e-002 -4.687500e-002  3.946423e-002
      vertex -9.958098e-002 -7.500000e-001  2.011869e-002
      vertex -9.958098e-002 -4.687500e-002  2.011869e-002
    endloop
  endfacet
  facet normal  9.951847e-001  0.000000e+000 -9.801719e-002
    outer loop
      vertex -9.958098e-002 -4.687500e-002  2.011869e-002
      vertex -9.958098e-002 -7.500000e-001  2.011869e-002
      vertex -1.015625e-001 -7.500000e-001  9.758487e-018
    endloop
  endfacet
  facet normal  9.951847e-001  0.000000e+000 -9.801719e-002
    outer loop
      vertex -9.958098e-002 -4.687500e-002  2.011869e-002
      vertex -1.015625e-001 -7.500000e-001  9.758487e-018
      vertex -1.015625e-001 -4.687500e-002  9.758487e-018
    endloop
  endfacet
  facet normal  9.801719e-002  0.000000e+000 -9.951847e-001
    outer loop
      vertex -1.855619e-002 -7.500000e-001  1.011435e-001
      vertex  1.562500e-003 -4.687500e-002  1.031250e-001
      vertex  1.562500e-003 -7.500000e-001  1.031250e-001
    endloop
  endfacet
  facet normal -9.801719e-002  0.000000e+000 -9.951847e-001
    outer loop
      vertex  1.562500e-003 -7.500000e-001  1.031250e-001
      vertex  1.562500e-003 -4.687500e-002  1.031250e-001
      vertex  2.168119e-002 -4.687500e-002  1.011435e-001
    endloop
  endfacet
  facet normal -9.801719e-002  -0.000000e+000 -9.951847e-001
    outer loop
      vertex  1.562500e-003 -7.500000e-001  1.031250e-001
      vertex  2.168119e-002 -4.687500e-002  1.011435e-001
      vertex  2.168119e-002 -7.500000e-001  1.011435e-001
    endloop
  endfacet
  facet normal -2.902846e-001  0.000000e+000 -9.569403e-001
    outer loop
      vertex  2.168119e-002 -7.500000e-001  1.011435e-001
      vertex  2.168119e-002 -4.687500e-002  1.011435e-001
      vertex  4.102673e-002 -4.687500e-002  9.527507e-002
    endloop
  endfacet
  facet normal -2.902846e-001  -0.000000e+000 -9.569403e-001
    outer loop
      vertex  2.168119e-002 -7.500000e-001  1.011435e-001
      vertex  4.102673e-002 -4.687500e-002  9.527507e-002
      vertex  4.102673e-002 -7.500000e-001  9.527507e-002
    endloop
  endfacet
  facet normal -4.713966e-001  0.000000e+000 -8.819213e-001
    outer loop
      vertex  4.102673e-002 -7.500000e-001  9.527507e-002
      vertex  4.102673e-002 -4.687500e-002  9.527507e-002
      vertex  5.885568e-002 -4.687500e-002  8.574530e-002
    endloop
  endfacet
  facet normal -4.713966e-001  -0.000000e+000 -8.819213e-001
    outer loop
      vertex  4.102673e-002 -7.500000e-001  9.527507e-002
      vertex  5.885568e-002 -4.687500e-002  8.574530e-002
      vertex  5.885568e-002 -7.500000e-001  8.574530e-002
    endloop
  endfacet
  facet normal -6.343932e-001  0.000000e+000 -7.730106e-001
    outer loop
      vertex  5.885568e-002 -7.500000e-001  8.574530e-002
      vertex  5.885568e-002 -4.687500e-002  8.574530e-002
      vertex  7.448289e-002 -4.687500e-002  7.292039e-002
    endloop
  endfacet
  facet normal -6.343932e-001  -0.000000e+000 -7.730106e-001
    outer loop
      vertex  5.885568e-002 -7.500000e-001  8.574530e-002
      vertex  7.448289e-002 -4.687500e-002  7.292039e-002
      vertex  7.448289e-002 -7.500000e-001  7.292039e-002
    endloop
  endfacet
  facet normal -7.730106e-001  0.000000e+000 -6.343932e-001
    outer loop
      vertex  7.448289e-002 -7.500000e-001  7.292039e-002
      vertex  7.448289e-002 -4.687500e-002  7.292039e-002
      vertex  8.730780e-002 -4.687500e-002  5.729318e-002
    endloop
  endfacet
  facet normal -7.730106e-001  -0.000000e+000 -6.343932e-001
    outer loop
      vertex  7.448289e-002 -7.500000e-001  7.292039e-002
      vertex  8.730780e-002 -4.687500e-002  5.729318e-002
      vertex  8.730780e-002 -7.500000e-001  5.729318e-002
    endloop
  endfacet
  facet normal -8.819212e-001  0.000000e+000 -4.713969e-001
    outer loop
      vertex  8.730780e-002 -7.500000e-001  5.729318e-002
      vertex  8.730780e-002 -4.687500e-002  5.729318e-002
      vertex  9.683758e-002 -4.687500e-002  3.946423e-002
    endloop
  endfacet
  facet normal -8.819212e-001  -0.000000e+000 -4.713969e-001
    outer loop
      vertex  8.730780e-002 -7.500000e-001  5.729318e-002
      vertex  9.683758e-002 -4.687500e-002  3.946423e-002
      vertex  9.683758e-002 -7.500000e-001  3.946423e-002
    endloop
  endfacet
  facet normal -9.569404e-001  0.000000e+000 -2.902847e-001
    outer loop
      vertex  9.683758e-002 -7.500000e-001  3.946423e-002
      vertex  9.683758e-002 -4.687500e-002  3.946423e-002
      vertex  1.027060e-001 -4.687500e-002  2.011869e-002
    endloop
  endfacet
  facet normal -9.569404e-001  -0.000000e+000 -2.902847e-001
    outer loop
      vertex  9.683758e-002 -7.500000e-001  3.946423e-002
      vertex  1.027060e-001 -4.687500e-002  2.011869e-002
      vertex  1.027060e-001 -7.500000e-001  2.011869e-002
    endloop
  endfacet
  facet normal -9.951848e-001  0.000000e+000 -9.801684e-002
    outer loop
      vertex  1.027060e-001 -7.500000e-001  2.011869e-002
      vertex  1.027060e-001 -4.687500e-002  2.011869e-002
      vertex  1.046875e-001 -4.687500e-002 -4.075694e-017
    endloop
  endfacet
  facet normal -9.951848e-001 -3.520940e-018 -9.801684e-002
    outer loop
      vertex  1.027060e-001 -7.500000e-001  2.011869e-002
      vertex  1.046875e-001 -4.687500e-002 -4.075694e-017
      vertex  1.046875e-001 -7.500000e-001 -1.549944e-017
    endloop
  endfacet
  facet normal  0.000000e+000 -1.000000e+000  0.000000e+000
    outer loop
      vertex -1.855619e-002 -4.687500e-002  1.011435e-001
      vertex  2.168119e-002 -4.687500e-002  1.011435e-001
      vertex  1.562500e-003 -4.687500e-002  1.031250e-001
    endloop
  endfacet
  facet normal  0.000000e+000 -9.999999e-001  -0.000000e+000
    outer loop
      vertex  2.168119e-002 -4.687500e-002  1.011435e-001
      vertex -1.855619e-002 -4.687500e-002  1.011435e-001
      vertex -3.790173e-002 -4.687500e-002  9.527507e-002
    endloop
  endfacet
  facet normal  0.000000e+000 -1.000000e+000  0.000000e+000
    outer loop
      vertex  2.168119e-002 -4.687500e-002  1.011435e-001
      vertex -3.790173e-002 -4.687500e-002  9.527507e-002
      vertex  4.102673e-002 -4.687500e-002  9.527507e-002
    endloop
  endfacet
  facet normal  0.000000e+000 -1.000000e+000  -0.000000e+000
    outer loop
      vertex  4.102673e-002 -4.687500e-002  9.527507e-002
      vertex -3.790173e-002 -4.687500e-002  9.527507e-002
      vertex -5.573068e-002 -4.687500e-002  8.574530e-002
    endloop
  endfacet
  facet normal  0.000000e+000 -1.000000e+000  0.000000e+000
    outer loop
      vertex  4.102673e-002 -4.687500e-002  9.527507e-002
      vertex -5.573068e-002 -4.687500e-002  8.574530e-002
      vertex  5.885568e-002 -4.687500e-002  8.574530e-002
    endloop
  endfacet
  facet normal  0.000000e+000 -1.000000e+000  0.000000e+000
    outer loop
      vertex  5.885568e-002 -4.687500e-002 -8.574530e-002
      vertex -3.790173e-002 -4.687500e-002 -9.527507e-002
      vertex  4.102673e-002 -4.687500e-002 -9.527507e-002
    endloop
  endfacet
  facet normal  0.000000e+000 -1.000000e+000  0.000000e+000
    outer loop
      vertex  4.102673e-002 -4.687500e-002 -9.527507e-002
      vertex -3.790173e-002 -4.687500e-002 -9.527507e-002
      vertex -1.855619e-002 -4.687500e-002 -1.011435e-001
    endloop
  endfacet
  facet normal  0.000000e+000 -9.999999e-001  0.000000e+000
    outer loop
      vertex  4.102673e-002 -4.687500e-002 -9.527507e-002
      vertex -1.855619e-002 -4.687500e-002 -1.011435e-001
      vertex  2.168119e-002 -4.687500e-002 -1.011435e-001
    endloop
  endfacet
  facet normal  0.000000e+000 -1.000000e+000  0.000000e+000
    outer loop
      vertex  2.168119e-002 -4.687500e-002 -1.011435e-001
      vertex -1.855619e-002 -4.687500e-002 -1.011435e-001
      vertex  1.562500e-003 -4.687500e-002 -1.031250e-001
    endloop
  endfacet
  facet normal  0.000000e+000 -1.000000e+000  0.000000e+000
    outer loop
      vertex  5.885568e-002 -4.687500e-002  8.574530e-002
      vertex -5.573068e-002 -4.687500e-002  8.574530e-002
      vertex  7.448289e-002 -4.687500e-002  7.292039e-002
    endloop
  endfacet
  facet normal  0.000000e+000 -1.000000e+000  0.000000e+000
    outer loop
      vertex  7.448289e-002 -4.687500e-002  7.292039e-002
      vertex -5.573068e-002 -4.687500e-002  8.574530e-002
      vertex -7.135788e-002 -4.687500e-002  7.292039e-002
    endloop
  endfacet
  facet normal  0.000000e+000 -1.000000e+000  0.000000e+000
    outer loop
      vertex  7.448289e-002 -4.687500e-002  7.292039e-002
      vertex -7.135788e-002 -4.687500e-002  7.292039e-002
      vertex  8.730780e-002 -4.687500e-002  5.729318e-002
    endloop
  endfacet
  facet normal  0.000000e+000 -1.000000e+000  0.000000e+000
    outer loop
      vertex  8.730780e-002 -4.687500e-002  5.729318e-002
      vertex -7.135788e-002 -4.687500e-002  7.292039e-002
      vertex -8.418281e-002 -4.687500e-002  5.729318e-002
    endloop
  endfacet
  facet normal  0.000000e+000 -1.000000e+000  0.000000e+000
    outer loop
      vertex  8.730780e-002 -4.687500e-002  5.729318e-002
      vertex -8.418281e-002 -4.687500e-002  5.729318e-002
      vertex  9.683758e-002 -4.687500e-002  3.946423e-002
    endloop
  endfacet
  facet normal  0.000000e+000 -1.000000e+000  0.000000e+000
    outer loop
      vertex  9.683758e-002 -4.687500e-002  3.946423e-002
      vertex -8.418281e-002 -4.687500e-002  5.729318e-002
      vertex -9.371258e-002 -4.687500e-002  3.946423e-002
    endloop
  endfacet
  facet normal  0.000000e+000 -1.000000e+000  0.000000e+000
    outer loop
      vertex  9.683758e-002 -4.687500e-002  3.946423e-002
      vertex -9.371258e-002 -4.687500e-002  3.946423e-002
      vertex  1.027060e-001 -4.687500e-002  2.011869e-002
    endloop
  endfacet
  facet normal  0.000000e+000 -1.000000e+000  0.000000e+000
    outer loop
      vertex  1.027060e-001 -4.687500e-002  2.011869e-002
      vertex -9.371258e-002 -4.687500e-002  3.946423e-002
      vertex -9.958098e-002 -4.687500e-002  2.011869e-002
    endloop
  endfacet
  facet normal  0.000000e+000 -1.000000e+000  0.000000e+000
    outer loop
      vertex  1.027060e-001 -4.687500e-002  2.011869e-002
      vertex -9.958098e-002 -4.687500e-002  2.011869e-002
      vertex  1.046875e-001 -4.687500e-002 -4.075694e-017
    endloop
  endfacet
  facet normal  0.000000e+000 -1.000000e+000  0.000000e+000
    outer loop
      vertex  1.046875e-001 -4.687500e-002 -4.075694e-017
      vertex -9.958098e-002 -4.687500e-002  2.011869e-002
      vertex -1.015625e-001 -4.687500e-002  9.758487e-018
    endloop
  endfacet
  facet normal  0.000000e+000 -1.000000e+000  0.000000e+000
    outer loop
      vertex  1.046875e-001 -4.687500e-002 -4.075694e-017
      vertex -1.015625e-001 -4.687500e-002  9.758487e-018
      vertex  1.027060e-001 -4.687500e-002 -2.011869e-002
    endloop
  endfacet
  facet normal  0.000000e+000 -1.000000e+000  0.000000e+000
    outer loop
      vertex  1.027060e-001 -4.687500e-002 -2.011869e-002
      vertex -1.015625e-001 -4.687500e-002  9.758487e-018
      vertex -9.958098e-002 -4.687500e-002 -2.011869e-002
    endloop
  endfacet
  facet normal  0.000000e+000 -1.000000e+000  0.000000e+000
    outer loop
      vertex  1.027060e-001 -4.687500e-002 -2.011869e-002
      vertex -9.958098e-002 -4.687500e-002 -2.011869e-002
      vertex  9.683758e-002 -4.687500e-002 -3.946423e-002
    endloop
  endfacet
  facet normal  0.000000e+000 -1.000000e+000  0.000000e+000
    outer loop
      vertex  9.683758e-002 -4.687500e-002 -3.946423e-002
      vertex -9.958098e-002 -4.687500e-002 -2.011869e-002
      vertex -9.371258e-002 -4.687500e-002 -3.946423e-002
    endloop
  endfacet
  facet normal  0.000000e+000 -1.000000e+000  0.000000e+000
    outer loop
      vertex  9.683758e-002 -4.687500e-002 -3.946423e-002
      vertex -9.371258e-002 -4.687500e-002 -3.946423e-002
      vertex  8.730780e-002 -4.687500e-002 -5.729318e-002
    endloop
  endfacet
  facet normal  0.000000e+000 -1.000000e+000  0.000000e+000
    outer loop
      vertex  8.730780e-002 -4.687500e-002 -5.729318e-002
      vertex -9.371258e-002 -4.687500e-002 -3.946423e-002
      vertex -8.418281e-002 -4.687500e-002 -5.729318e-002
    endloop
  endfacet
  facet normal  0.000000e+000 -1.000000e+000  0.000000e+000
    outer loop
      vertex  8.730780e-002 -4.687500e-002 -5.729318e-002
      vertex -8.418281e-002 -4.687500e-002 -5.729318e-002
      vertex  7.448289e-002 -4.687500e-002 -7.292039e-002
    endloop
  endfacet
  facet normal  0.000000e+000 -1.000000e+000  0.000000e+000
    outer loop
      vertex  7.448289e-002 -4.687500e-002 -7.292039e-002
      vertex -8.418281e-002 -4.687500e-002 -5.729318e-002
      vertex -7.135788e-002 -4.687500e-002 -7.292039e-002
    endloop
  endfacet
  facet normal  0.000000e+000 -1.000000e+000  0.000000e+000
    outer loop
      vertex  7.448289e-002 -4.687500e-002 -7.292039e-002
      vertex -7.135788e-002 -4.687500e-002 -7.292039e-002
      vertex  5.885568e-002 -4.687500e-002 -8.574530e-002
    endloop
  endfacet
  facet normal  0.000000e+000 -1.000000e+000  0.000000e+000
    outer loop
      vertex  5.885568e-002 -4.687500e-002 -8.574530e-002
      vertex -7.135788e-002 -4.687500e-002 -7.292039e-002
      vertex -5.573068e-002 -4.687500e-002 -8.574530e-002
    endloop
  endfacet
  facet normal  0.000000e+000 -1.000000e+000  0.000000e+000
    outer loop
      vertex  5.885568e-002 -4.687500e-002 -8.574530e-002
      vertex -5.573068e-002 -4.687500e-002 -8.574530e-002
      vertex -3.790173e-002 -4.687500e-002 -9.527507e-002
    endloop
  endfacet
  facet normal -5.551115e-017  1.000000e+000  0.000000e+000
    outer loop
      vertex  1.562500e-003  1.019706e-033  1.500000e-001
      vertex  3.082605e-002  1.624453e-018  1.471178e-001
      vertex -2.770105e-002 -1.624453e-018  1.471178e-001
    endloop
  endfacet
  facet normal -5.551115e-017  1.000000e+000  1.211331e-023
    outer loop
      vertex -5.584002e-002 -3.186480e-018  1.385819e-001
      vertex -2.770105e-002 -1.624453e-018  1.471178e-001
      vertex  3.082605e-002  1.624453e-018  1.471178e-001
    endloop
  endfacet
  facet normal -5.551115e-017  1.000000e+000  0.000000e+000
    outer loop
      vertex  5.896502e-002  3.186480e-018  1.385819e-001
      vertex -5.584002e-002 -3.186480e-018  1.385819e-001
      vertex  3.082605e-002  1.624453e-018  1.471178e-001
    endloop
  endfacet
  facet normal -5.551115e-017  1.000000e+000  0.000000e+000
    outer loop
      vertex  3.082605e-002  1.624453e-018 -1.471178e-001
      vertex -2.770105e-002 -1.624453e-018 -1.471178e-001
      vertex  5.896502e-002  3.186480e-018 -1.385819e-001
    endloop
  endfacet
  facet normal -5.551115e-017  1.000000e+000  0.000000e+000
    outer loop
      vertex  1.562500e-003 -2.039396e-033 -1.500000e-001
      vertex -2.770105e-002 -1.624453e-018 -1.471178e-001
      vertex  3.082605e-002  1.624453e-018 -1.471178e-001
    endloop
  endfacet
  facet normal -5.551115e-017  1.000000e+000 -1.211331e-023
    outer loop
      vertex -2.770105e-002 -1.624453e-018 -1.471178e-001
      vertex -5.584002e-002 -3.186480e-018 -1.385819e-001
      vertex  5.896502e-002  3.186480e-018 -1.385819e-001
    endloop
  endfacet
  facet normal -5.551115e-017  1.000000e+000 -5.967471e-023
    outer loop
      vertex  5.896502e-002  3.186480e-018 -1.385819e-001
      vertex -5.584002e-002 -3.186480e-018 -1.385819e-001
      vertex -8.177304e-002 -4.626051e-018 -1.247204e-001
    endloop
  endfacet
  facet normal -5.551115e-017  1.000000e+000 -5.967471e-023
    outer loop
      vertex  5.896502e-002  3.186480e-018 -1.385819e-001
      vertex -8.177304e-002 -4.626051e-018 -1.247204e-001
      vertex  8.489803e-002  4.626051e-018 -1.247204e-001
    endloop
  endfacet
  facet normal -5.551115e-017  9.999999e-001  0.000000e+000
    outer loop
      vertex  8.489803e-002  4.626051e-018 -1.247204e-001
      vertex -8.177304e-002 -4.626051e-018 -1.247204e-001
      vertex -1.045035e-001 -5.887847e-018 -1.060660e-001
    endloop
  endfacet
  facet normal -5.551115e-017  1.000000e+000  0.000000e+000
    outer loop
      vertex  8.489803e-002  4.626051e-018 -1.247204e-001
      vertex -1.045035e-001 -5.887847e-018 -1.060660e-001
      vertex  1.076285e-001  5.887847e-018 -1.060660e-001
    endloop
  endfacet
  facet normal -5.551115e-017  1.000000e+000  0.000000e+000
    outer loop
      vertex  1.076285e-001  5.887847e-018 -1.060660e-001
      vertex -1.045035e-001 -5.887847e-018 -1.060660e-001
      vertex -1.231579e-001 -6.923375e-018 -8.333553e-002
    endloop
  endfacet
  facet normal -5.551115e-017  1.000000e+000  0.000000e+000
    outer loop
      vertex  1.076285e-001  5.887847e-018 -1.060660e-001
      vertex -1.231579e-001 -6.923375e-018 -8.333553e-002
      vertex  1.262829e-001  6.923375e-018 -8.333553e-002
    endloop
  endfacet
  facet normal -5.551115e-017  1.000000e+000  0.000000e+000
    outer loop
      vertex  1.262829e-001  6.923375e-018 -8.333553e-002
      vertex -1.231579e-001 -6.923375e-018 -8.333553e-002
      vertex -1.370194e-001 -7.692843e-018 -5.740251e-002
    endloop
  endfacet
  facet normal -5.551115e-017  9.999999e-001  0.000000e+000
    outer loop
      vertex  1.262829e-001  6.923375e-018 -8.333553e-002
      vertex -1.370194e-001 -7.692843e-018 -5.740251e-002
      vertex  1.401444e-001  7.692843e-018 -5.740251e-002
    endloop
  endfacet
  facet normal -5.551115e-017  1.000000e+000  0.000000e+000
    outer loop
      vertex  1.401444e-001  7.692843e-018 -5.740251e-002
      vertex -1.370194e-001 -7.692843e-018 -5.740251e-002
      vertex -1.455553e-001 -8.166678e-018 -2.926355e-002
    endloop
  endfacet
  facet normal -5.551115e-017  1.000000e+000  0.000000e+000
    outer loop
      vertex  1.401444e-001  7.692843e-018 -5.740251e-002
      vertex -1.455553e-001 -8.166678e-018 -2.926355e-002
      vertex  1.486803e-001  8.166678e-018 -2.926355e-002
    endloop
  endfacet
  facet normal -5.551115e-017  1.000000e+000  5.653317e-023
    outer loop
      vertex  1.486803e-001  8.166678e-018 -2.926355e-002
      vertex -1.455553e-001 -8.166678e-018 -2.926355e-002
      vertex -1.484375e-001 -8.326673e-018  1.836910e-017
    endloop
  endfacet
  facet normal -5.551115e-017  1.000000e+000  5.653317e-023
    outer loop
      vertex  1.486803e-001  8.166678e-018 -2.926355e-002
      vertex -1.484375e-001 -8.326673e-018  1.836910e-017
      vertex  1.515625e-001  8.326673e-018 -1.836970e-017
    endloop
  endfacet
  facet normal -5.551115e-017  1.000000e+000  5.653317e-023
    outer loop
      vertex  1.515625e-001  8.326673e-018 -1.836970e-017
      vertex -1.484375e-001 -8.326673e-018  1.836910e-017
      vertex -1.455553e-001 -8.166678e-018  2.926355e-002
    endloop
  endfacet
  facet normal -5.551115e-017  1.000000e+000  5.653317e-023
    outer loop
      vertex  1.515625e-001  8.326673e-018 -1.836970e-017
      vertex -1.455553e-001 -8.166678e-018  2.926355e-002
      vertex  1.486803e-001  8.166678e-018  2.926355e-002
    endloop
  endfacet
  facet normal -5.551115e-017  1.000000e+000  0.000000e+000
    outer loop
      vertex  1.486803e-001  8.166678e-018  2.926355e-002
      vertex -1.455553e-001 -8.166678e-018  2.926355e-002
      vertex -1.370194e-001 -7.692843e-018  5.740251e-002
    endloop
  endfacet
  facet normal -5.551115e-017  1.000000e+000  0.000000e+000
    outer loop
      vertex  1.486803e-001  8.166678e-018  2.926355e-002
      vertex -1.370194e-001 -7.692843e-018  5.740251e-002
      vertex  1.401444e-001  7.692843e-018  5.740251e-002
    endloop
  endfacet
  facet normal -5.551115e-017  9.999999e-001  6.379362e-023
    outer loop
      vertex  1.401444e-001  7.692843e-018  5.740251e-002
      vertex -1.370194e-001 -7.692843e-018  5.740251e-002
      vertex -1.231579e-001 -6.923375e-018  8.333553e-002
    endloop
  endfacet
  facet normal -5.551115e-017  1.000000e+000  6.379362e-023
    outer loop
      vertex  1.401444e-001  7.692843e-018  5.740251e-002
      vertex -1.231579e-001 -6.923375e-018  8.333553e-002
      vertex  1.262829e-001  6.923375e-018  8.333553e-002
    endloop
  endfacet
  facet normal -5.551115e-017  1.000000e+000 -3.639080e-023
    outer loop
      vertex  1.262829e-001  6.923375e-018  8.333553e-002
      vertex -1.231579e-001 -6.923375e-018  8.333553e-002
      vertex -1.045035e-001 -5.887847e-018  1.060660e-001
    endloop
  endfacet
  facet normal -5.551115e-017  1.000000e+000 -3.639081e-023
    outer loop
      vertex  1.262829e-001  6.923375e-018  8.333553e-002
      vertex -1.045035e-001 -5.887847e-018  1.060660e-001
      vertex  1.076285e-001  5.887847e-018  1.060660e-001
    endloop
  endfacet
  facet normal -5.551115e-017  1.000000e+000  0.000000e+000
    outer loop
      vertex  1.076285e-001  5.887847e-018  1.060660e-001
      vertex -1.045035e-001 -5.887847e-018  1.060660e-001
      vertex -8.177304e-002 -4.626051e-018  1.247204e-001
    endloop
  endfacet
  facet normal -5.551115e-017  9.999999e-001  0.000000e+000
    outer loop
      vertex  1.076285e-001  5.887847e-018  1.060660e-001
      vertex -8.177304e-002 -4.626051e-018  1.247204e-001
      vertex  8.489803e-002  4.626051e-018  1.247204e-001
    endloop
  endfacet
  facet normal -5.551115e-017  1.000000e+000  0.000000e+000
    outer loop
      vertex  8.489803e-002  4.626051e-018  1.247204e-001
      vertex -8.177304e-002 -4.626051e-018  1.247204e-001
      vertex -5.584002e-002 -3.186480e-018  1.385819e-001
    endloop
  endfacet
  facet normal -5.551115e-017  1.000000e+000  0.000000e+000
    outer loop
      vertex  8.489803e-002  4.626051e-018  1.247204e-001
      vertex -5.584002e-002 -3.186480e-018  1.385819e-001
      vertex  5.896502e-002  3.186480e-018  1.385819e-001
    endloop
  endfacet
  facet normal  9.951848e-001  0.000000e+000 -9.801729e-002
    outer loop
      vertex  1.515625e-001  8.326673e-018 -1.836970e-017
      vertex  1.515625e-001 -7.500000e-001 -1.836970e-017
      vertex  1.486803e-001  8.166678e-018 -2.926355e-002
    endloop
  endfacet
  facet normal  9.951848e-001  0.000000e+000 -9.801729e-002
    outer loop
      vertex  1.486803e-001  8.166678e-018 -2.926355e-002
      vertex  1.515625e-001 -7.500000e-001 -1.836970e-017
      vertex  1.486803e-001 -7.500000e-001 -2.926355e-002
    endloop
  endfacet
  facet normal  9.569403e-001  0.000000e+000 -2.902847e-001
    outer loop
      vertex  1.486803e-001  8.166678e-018 -2.926355e-002
      vertex  1.486803e-001 -7.500000e-001 -2.926355e-002
      vertex  1.401444e-001  7.692843e-018 -5.740251e-002
    endloop
  endfacet
  facet normal  9.569403e-001  0.000000e+000 -2.902847e-001
    outer loop
      vertex  1.401444e-001  7.692843e-018 -5.740251e-002
      vertex  1.486803e-001 -7.500000e-001 -2.926355e-002
      vertex  1.401444e-001 -7.500000e-001 -5.740251e-002
    endloop
  endfacet
  facet normal  8.819214e-001  0.000000e+000 -4.713965e-001
    outer loop
      vertex  1.401444e-001  7.692843e-018 -5.740251e-002
      vertex  1.401444e-001 -7.500000e-001 -5.740251e-002
      vertex  1.262829e-001  6.923375e-018 -8.333553e-002
    endloop
  endfacet
  facet normal  8.819214e-001  0.000000e+000 -4.713965e-001
    outer loop
      vertex  1.262829e-001  6.923375e-018 -8.333553e-002
      vertex  1.401444e-001 -7.500000e-001 -5.740251e-002
      vertex  1.262829e-001 -7.500000e-001 -8.333553e-002
    endloop
  endfacet
  facet normal  7.730104e-001  0.000000e+000 -6.343933e-001
    outer loop
      vertex  1.262829e-001  6.923375e-018 -8.333553e-002
      vertex  1.262829e-001 -7.500000e-001 -8.333553e-002
      vertex  1.076285e-001  5.887847e-018 -1.060660e-001
    endloop
  endfacet
  facet normal  7.730104e-001  0.000000e+000 -6.343933e-001
    outer loop
      vertex  1.076285e-001  5.887847e-018 -1.060660e-001
      vertex  1.262829e-001 -7.500000e-001 -8.333553e-002
      vertex  1.076285e-001 -7.500000e-001 -1.060660e-001
    endloop
  endfacet
  facet normal  6.343932e-001  0.000000e+000 -7.730106e-001
    outer loop
      vertex  1.076285e-001  5.887847e-018 -1.060660e-001
      vertex  1.076285e-001 -7.500000e-001 -1.060660e-001
      vertex  8.489803e-002  4.626051e-018 -1.247204e-001
    endloop
  endfacet
  facet normal  6.343932e-001  0.000000e+000 -7.730106e-001
    outer loop
      vertex  8.489803e-002  4.626051e-018 -1.247204e-001
      vertex  1.076285e-001 -7.500000e-001 -1.060660e-001
      vertex  8.489803e-002 -7.500000e-001 -1.247204e-001
    endloop
  endfacet
  facet normal  4.713969e-001  0.000000e+000 -8.819212e-001
    outer loop
      vertex  8.489803e-002  4.626051e-018 -1.247204e-001
      vertex  8.489803e-002 -7.500000e-001 -1.247204e-001
      vertex  5.896502e-002  3.186480e-018 -1.385819e-001
    endloop
  endfacet
  facet normal  4.713969e-001  0.000000e+000 -8.819212e-001
    outer loop
      vertex  5.896502e-002  3.186480e-018 -1.385819e-001
      vertex  8.489803e-002 -7.500000e-001 -1.247204e-001
      vertex  5.896502e-002 -7.500000e-001 -1.385819e-001
    endloop
  endfacet
  facet normal  2.902847e-001  0.000000e+000 -9.569404e-001
    outer loop
      vertex  5.896502e-002  3.186480e-018 -1.385819e-001
      vertex  5.896502e-002 -7.500000e-001 -1.385819e-001
      vertex  3.082605e-002  1.624453e-018 -1.471178e-001
    endloop
  endfacet
  facet normal  2.902847e-001  0.000000e+000 -9.569404e-001
    outer loop
      vertex  3.082605e-002  1.624453e-018 -1.471178e-001
      vertex  5.896502e-002 -7.500000e-001 -1.385819e-001
      vertex  3.082605e-002 -7.500000e-001 -1.471178e-001
    endloop
  endfacet
  facet normal  9.801729e-002  0.000000e+000 -9.951848e-001
    outer loop
      vertex  3.082605e-002  1.624453e-018 -1.471178e-001
      vertex  3.082605e-002 -7.500000e-001 -1.471178e-001
      vertex  1.562500e-003 -2.039396e-033 -1.500000e-001
    endloop
  endfacet
  facet normal  9.801729e-002  0.000000e+000 -9.951848e-001
    outer loop
      vertex  1.562500e-003 -2.039396e-033 -1.500000e-001
      vertex  3.082605e-002 -7.500000e-001 -1.471178e-001
      vertex  1.562500e-003 -7.500000e-001 -1.500000e-001
    endloop
  endfacet
  facet normal -9.801729e-002  0.000000e+000 -9.951848e-001
    outer loop
      vertex  1.562500e-003 -2.039396e-033 -1.500000e-001
      vertex  1.562500e-003 -7.500000e-001 -1.500000e-001
      vertex -2.770105e-002 -1.624453e-018 -1.471178e-001
    endloop
  endfacet
  facet normal -9.801729e-002  -0.000000e+000 -9.951848e-001
    outer loop
      vertex -2.770105e-002 -1.624453e-018 -1.471178e-001
      vertex  1.562500e-003 -7.500000e-001 -1.500000e-001
      vertex -2.770105e-002 -7.500000e-001 -1.471178e-001
    endloop
  endfacet
  facet normal -2.902847e-001  0.000000e+000 -9.569404e-001
    outer loop
      vertex -2.770105e-002 -1.624453e-018 -1.471178e-001
      vertex -2.770105e-002 -7.500000e-001 -1.471178e-001
      vertex -5.584002e-002 -3.186480e-018 -1.385819e-001
    endloop
  endfacet
  facet normal -2.902847e-001  -0.000000e+000 -9.569404e-001
    outer loop
      vertex -5.584002e-002 -3.186480e-018 -1.385819e-001
      vertex -2.770105e-002 -7.500000e-001 -1.471178e-001
      vertex -5.584002e-002 -7.500000e-001 -1.385819e-001
    endloop
  endfacet
  facet normal -4.713969e-001  0.000000e+000 -8.819212e-001
    outer loop
      vertex -5.584002e-002 -3.186480e-018 -1.385819e-001
      vertex -5.584002e-002 -7.500000e-001 -1.385819e-001
      vertex -8.177304e-002 -4.626051e-018 -1.247204e-001
    endloop
  endfacet
  facet normal -4.713969e-001  -0.000000e+000 -8.819212e-001
    outer loop
      vertex -8.177304e-002 -4.626051e-018 -1.247204e-001
      vertex -5.584002e-002 -7.500000e-001 -1.385819e-001
      vertex -8.177304e-002 -7.500000e-001 -1.247204e-001
    endloop
  endfacet
  facet normal -6.343932e-001  0.000000e+000 -7.730106e-001
    outer loop
      vertex -8.177304e-002 -4.626051e-018 -1.247204e-001
      vertex -8.177304e-002 -7.500000e-001 -1.247204e-001
      vertex -1.045035e-001 -5.887847e-018 -1.060660e-001
    endloop
  endfacet
  facet normal -6.343932e-001  -0.000000e+000 -7.730106e-001
    outer loop
      vertex -1.045035e-001 -5.887847e-018 -1.060660e-001
      vertex -8.177304e-002 -7.500000e-001 -1.247204e-001
      vertex -1.045035e-001 -7.500000e-001 -1.060660e-001
    endloop
  endfacet
  facet normal -7.730106e-001  0.000000e+000 -6.343932e-001
    outer loop
      vertex -1.045035e-001 -5.887847e-018 -1.060660e-001
      vertex -1.045035e-001 -7.500000e-001 -1.060660e-001
      vertex -1.231579e-001 -6.923375e-018 -8.333553e-002
    endloop
  endfacet
  facet normal -7.730106e-001  -0.000000e+000 -6.343932e-001
    outer loop
      vertex -1.231579e-001 -6.923375e-018 -8.333553e-002
      vertex -1.045035e-001 -7.500000e-001 -1.060660e-001
      vertex -1.231579e-001 -7.500000e-001 -8.333553e-002
    endloop
  endfacet
  facet normal -8.819214e-001  0.000000e+000 -4.713967e-001
    outer loop
      vertex -1.231579e-001 -6.923375e-018 -8.333553e-002
      vertex -1.231579e-001 -7.500000e-001 -8.333553e-002
      vertex -1.370194e-001 -7.692843e-018 -5.740251e-002
    endloop
  endfacet
  facet normal -8.819214e-001  -0.000000e+000 -4.713967e-001
    outer loop
      vertex -1.370194e-001 -7.692843e-018 -5.740251e-002
      vertex -1.231579e-001 -7.500000e-001 -8.333553e-002
      vertex -1.370194e-001 -7.500000e-001 -5.740251e-002
    endloop
  endfacet
  facet normal -9.569403e-001  0.000000e+000 -2.902847e-001
    outer loop
      vertex -1.370194e-001 -7.692843e-018 -5.740251e-002
      vertex -1.370194e-001 -7.500000e-001 -5.740251e-002
      vertex -1.455553e-001 -8.166678e-018 -2.926355e-002
    endloop
  endfacet
  facet normal -9.569403e-001  -0.000000e+000 -2.902847e-001
    outer loop
      vertex -1.455553e-001 -8.166678e-018 -2.926355e-002
      vertex -1.370194e-001 -7.500000e-001 -5.740251e-002
      vertex -1.455553e-001 -7.500000e-001 -2.926355e-002
    endloop
  endfacet
  facet normal -9.951848e-001  0.000000e+000 -9.801729e-002
    outer loop
      vertex -1.455553e-001 -8.166678e-018 -2.926355e-002
      vertex -1.455553e-001 -7.500000e-001 -2.926355e-002
      vertex -1.484375e-001 -8.326673e-018  1.836910e-017
    endloop
  endfacet
  facet normal -9.951848e-001  -0.000000e+000 -9.801729e-002
    outer loop
      vertex -1.484375e-001 -8.326673e-018  1.836910e-017
      vertex -1.455553e-001 -7.500000e-001 -2.926355e-002
      vertex -1.484375e-001 -7.500000e-001  1.836910e-017
    endloop
  endfacet
  facet normal -9.951848e-001  0.000000e+000  9.801729e-002
    outer loop
      vertex -1.484375e-001 -8.326673e-018  1.836910e-017
      vertex -1.484375e-001 -7.500000e-001  1.836910e-017
      vertex -1.455553e-001 -8.166678e-018  2.926355e-002
    endloop
  endfacet
  facet normal -9.951848e-001  0.000000e+000  9.801729e-002
    outer loop
      vertex -1.455553e-001 -8.166678e-018  2.926355e-002
      vertex -1.484375e-001 -7.500000e-001  1.836910e-017
      vertex -1.455553e-001 -7.500000e-001  2.926355e-002
    endloop
  endfacet
  facet normal -9.569403e-001  0.000000e+000  2.902847e-001
    outer loop
      vertex -1.455553e-001 -8.166678e-018  2.926355e-002
      vertex -1.455553e-001 -7.500000e-001  2.926355e-002
      vertex -1.370194e-001 -7.692843e-018  5.740251e-002
    endloop
  endfacet
  facet normal -9.569403e-001  0.000000e+000  2.902847e-001
    outer loop
      vertex -1.370194e-001 -7.692843e-018  5.740251e-002
      vertex -1.455553e-001 -7.500000e-001  2.926355e-002
      vertex -1.370194e-001 -7.500000e-001  5.740251e-002
    endloop
  endfacet
  facet normal -8.819214e-001  0.000000e+000  4.713967e-001
    outer loop
      vertex -1.370194e-001 -7.692843e-018  5.740251e-002
      vertex -1.370194e-001 -7.500000e-001  5.740251e-002
      vertex -1.231579e-001 -6.923375e-018  8.333553e-002
    endloop
  endfacet
  facet normal -8.819214e-001  0.000000e+000  4.713967e-001
    outer loop
      vertex -1.231579e-001 -6.923375e-018  8.333553e-002
      vertex -1.370194e-001 -7.500000e-001  5.740251e-002
      vertex -1.231579e-001 -7.500000e-001  8.333553e-002
    endloop
  endfacet
  facet normal -7.730106e-001  0.000000e+000  6.343932e-001
    outer loop
      vertex -1.231579e-001 -6.923375e-018  8.333553e-002
      vertex -1.231579e-001 -7.500000e-001  8.333553e-002
      vertex -1.045035e-001 -5.887847e-018  1.060660e-001
    endloop
  endfacet
  facet normal -7.730106e-001  0.000000e+000  6.343932e-001
    outer loop
      vertex -1.045035e-001 -5.887847e-018  1.060660e-001
      vertex -1.231579e-001 -7.500000e-001  8.333553e-002
      vertex -1.045035e-001 -7.500000e-001  1.060660e-001
    endloop
  endfacet
  facet normal -6.343932e-001  0.000000e+000  7.730106e-001
    outer loop
      vertex -1.045035e-001 -5.887847e-018  1.060660e-001
      vertex -1.045035e-001 -7.500000e-001  1.060660e-001
      vertex -8.177304e-002 -4.626051e-018  1.247204e-001
    endloop
  endfacet
  facet normal -6.343932e-001  0.000000e+000  7.730106e-001
    outer loop
      vertex -8.177304e-002 -4.626051e-018  1.247204e-001
      vertex -1.045035e-001 -7.500000e-001  1.060660e-001
      vertex -8.177304e-002 -7.500000e-001  1.247204e-001
    endloop
  endfacet
  facet normal -4.713969e-001  0.000000e+000  8.819212e-001
    outer loop
      vertex -8.177304e-002 -4.626051e-018  1.247204e-001
      vertex -8.177304e-002 -7.500000e-001  1.247204e-001
      vertex -5.584002e-002 -3.186480e-018  1.385819e-001
    endloop
  endfacet
  facet normal -4.713969e-001  0.000000e+000  8.819212e-001
    outer loop
      vertex -5.584002e-002 -3.186480e-018  1.385819e-001
      vertex -8.177304e-002 -7.500000e-001  1.247204e-001
      vertex -5.584002e-002 -7.500000e-001  1.385819e-001
    endloop
  endfacet
  facet normal -2.902847e-001  0.000000e+000  9.569404e-001
    outer loop
      vertex -5.584002e-002 -3.186480e-018  1.385819e-001
      vertex -5.584002e-002 -7.500000e-001  1.385819e-001
      vertex -2.770105e-002 -1.624453e-018  1.471178e-001
    endloop
  endfacet
  facet normal -2.902847e-001  0.000000e+000  9.569404e-001
    outer loop
      vertex -2.770105e-002 -1.624453e-018  1.471178e-001
      vertex -5.584002e-002 -7.500000e-001  1.385819e-001
      vertex -2.770105e-002 -7.500000e-001  1.471178e-001
    endloop
  endfacet
  facet normal -9.801729e-002  0.000000e+000  9.951848e-001
    outer loop
      vertex -2.770105e-002 -1.624453e-018  1.471178e-001
      vertex -2.770105e-002 -7.500000e-001  1.471178e-001
      vertex  1.562500e-003  1.019706e-033  1.500000e-001
    endloop
  endfacet
  facet normal -9.801729e-002  0.000000e+000  9.951848e-001
    outer loop
      vertex  1.562500e-003  1.019706e-033  1.500000e-001
      vertex -2.770105e-002 -7.500000e-001  1.471178e-001
      vertex  1.562500e-003 -7.500000e-001  1.500000e-001
    endloop
  endfacet
  facet normal  9.801729e-002  -0.000000e+000  9.951848e-001
    outer loop
      vertex  1.562500e-003  1.019706e-033  1.500000e-001
      vertex  1.562500e-003 -7.500000e-001  1.500000e-001
      vertex  3.082605e-002  1.624453e-018  1.471178e-001
    endloop
  endfacet
  facet normal  9.801729e-002  0.000000e+000  9.951848e-001
    outer loop
      vertex  3.082605e-002  1.624453e-018  1.471178e-001
      vertex  1.562500e-003 -7.500000e-001  1.500000e-001
      vertex  3.082605e-002 -7.500000e-001  1.471178e-001
    endloop
  endfacet
  facet normal  2.902847e-001  -0.000000e+000  9.569404e-001
    outer loop
      vertex  3.082605e-002  1.624453e-018  1.471178e-001
      vertex  3.082605e-002 -7.500000e-001  1.471178e-001
      vertex  5.896502e-002  3.186480e-018  1.385819e-001
    endloop
  endfacet
  facet normal  2.902847e-001  0.000000e+000  9.569404e-001
    outer loop
      vertex  5.896502e-002  3.186480e-018  1.385819e-001
      vertex  3.082605e-002 -7.500000e-001  1.471178e-001
      vertex  5.896502e-002 -7.500000e-001  1.385819e-001
    endloop
  endfacet
  facet normal  4.713969e-001  -0.000000e+000  8.819212e-001
    outer loop
      vertex  5.896502e-002  3.186480e-018  1.385819e-001
      vertex  5.896502e-002 -7.500000e-001  1.385819e-001
      vertex  8.489803e-002  4.626051e-018  1.247204e-001
    endloop
  endfacet
  facet normal  4.713969e-001  0.000000e+000  8.819212e-001
    outer loop
      vertex  8.489803e-002  4.626051e-018  1.247204e-001
      vertex  5.896502e-002 -7.500000e-001  1.385819e-001
      vertex  8.489803e-002 -7.500000e-001  1.247204e-001
    endloop
  endfacet
  facet normal  6.343932e-001  -0.000000e+000  7.730106e-001
    outer loop
      vertex  8.489803e-002  4.626051e-018  1.247204e-001
      vertex  8.489803e-002 -7.500000e-001  1.247204e-001
      vertex  1.076285e-001  5.887847e-018  1.060660e-001
    endloop
  endfacet
  facet normal  6.343932e-001  0.000000e+000  7.730106e-001
    outer loop
      vertex  1.076285e-001  5.887847e-018  1.060660e-001
      vertex  8.489803e-002 -7.500000e-001  1.247204e-001
      vertex  1.076285e-001 -7.500000e-001  1.060660e-001
    endloop
  endfacet
  facet normal  7.730104e-001  -0.000000e+000  6.343933e-001
    outer loop
      vertex  1.076285e-001  5.887847e-018  1.060660e-001
      vertex  1.076285e-001 -7.500000e-001  1.060660e-001
      vertex  1.262829e-001  6.923375e-018  8.333553e-002
    endloop
  endfacet
  facet normal  7.730104e-001  0.000000e+000  6.343933e-001
    outer loop
      vertex  1.262829e-001  6.923375e-018  8.333553e-002
      vertex  1.076285e-001 -7.500000e-001  1.060660e-001
      vertex  1.262829e-001 -7.500000e-001  8.333553e-002
    endloop
  endfacet
  facet normal  8.819214e-001  -0.000000e+000  4.713965e-001
    outer loop
      vertex  1.262829e-001  6.923375e-018  8.333553e-002
      vertex  1.262829e-001 -7.500000e-001  8.333553e-002
      vertex  1.401444e-001  7.692843e-018  5.740251e-002
    endloop
  endfacet
  facet normal  8.819214e-001  0.000000e+000  4.713965e-001
    outer loop
      vertex  1.401444e-001  7.692843e-018  5.740251e-002
      vertex  1.262829e-001 -7.500000e-001  8.333553e-002
      vertex  1.401444e-001 -7.500000e-001  5.740251e-002
    endloop
  endfacet
  facet normal  9.569403e-001  -0.000000e+000  2.902847e-001
    outer loop
      vertex  1.401444e-001  7.692843e-018  5.740251e-002
      vertex  1.401444e-001 -7.500000e-001  5.740251e-002
      vertex  1.486803e-001  8.166678e-018  2.926355e-002
    endloop
  endfacet
  facet normal  9.569403e-001  0.000000e+000  2.902847e-001
    outer loop
      vertex  1.486803e-001  8.166678e-018  2.926355e-002
      vertex  1.401444e-001 -7.500000e-001  5.740251e-002
      vertex  1.486803e-001 -7.500000e-001  2.926355e-002
    endloop
  endfacet
  facet normal  9.951848e-001  -0.000000e+000  9.801729e-002
    outer loop
      vertex  1.486803e-001  8.166678e-018  2.926355e-002
      vertex  1.486803e-001 -7.500000e-001  2.926355e-002
      vertex  1.515625e-001  8.326673e-018 -1.836970e-017
    endloop
  endfacet
  facet normal  9.951848e-001  0.000000e+000  9.801729e-002
    outer loop
      vertex  1.515625e-001  8.326673e-018 -1.836970e-017
      vertex  1.486803e-001 -7.500000e-001  2.926355e-002
      vertex  1.515625e-001 -7.500000e-001 -1.836970e-017
    endloop
  endfacet
endsolid CATIA STL
