solid CATIA STL
  facet normal -9.951848e-001  9.801629e-002  0.000000e+000
    outer loop
      vertex  3.266447e-001  9.868421e-004  4.687500e-002
      vertex  3.266447e-001  9.868421e-004  5.468750e-002
      vertex  3.275549e-001  1.022796e-002  4.687500e-002
    endloop
  endfacet
  facet normal -9.951848e-001  9.801629e-002  0.000000e+000
    outer loop
      vertex  3.275549e-001  1.022796e-002  4.687500e-002
      vertex  3.266447e-001  9.868421e-004  5.468750e-002
      vertex  3.275549e-001  1.022796e-002  5.468750e-002
    endloop
  endfacet
  facet normal -9.569405e-001  2.902842e-001  0.000000e+000
    outer loop
      vertex  3.275549e-001  1.022796e-002  4.687500e-002
      vertex  3.275549e-001  1.022796e-002  5.468750e-002
      vertex  3.302504e-001  1.911395e-002  4.687500e-002
    endloop
  endfacet
  facet normal -9.569405e-001  2.902842e-001  0.000000e+000
    outer loop
      vertex  3.302504e-001  1.911395e-002  4.687500e-002
      vertex  3.275549e-001  1.022796e-002  5.468750e-002
      vertex  3.302504e-001  1.911395e-002  5.468750e-002
    endloop
  endfacet
  facet normal -8.819216e-001  4.713962e-001  0.000000e+000
    outer loop
      vertex  3.302504e-001  1.911395e-002  4.687500e-002
      vertex  3.302504e-001  1.911395e-002  5.468750e-002
      vertex  3.346277e-001  2.730333e-002  4.687500e-002
    endloop
  endfacet
  facet normal -8.819216e-001  4.713962e-001  0.000000e+000
    outer loop
      vertex  3.346277e-001  2.730333e-002  4.687500e-002
      vertex  3.302504e-001  1.911395e-002  5.468750e-002
      vertex  3.346277e-001  2.730333e-002  5.468750e-002
    endloop
  endfacet
  facet normal -7.730101e-001  6.343937e-001  0.000000e+000
    outer loop
      vertex  3.346277e-001  2.730333e-002  4.687500e-002
      vertex  3.346277e-001  2.730333e-002  5.468750e-002
      vertex  3.405186e-001  3.448137e-002  4.687500e-002
    endloop
  endfacet
  facet normal -7.730101e-001  6.343937e-001  0.000000e+000
    outer loop
      vertex  3.405186e-001  3.448137e-002  4.687500e-002
      vertex  3.346277e-001  2.730333e-002  5.468750e-002
      vertex  3.405186e-001  3.448137e-002  5.468750e-002
    endloop
  endfacet
  facet normal -6.343939e-001  7.730100e-001  0.000000e+000
    outer loop
      vertex  3.405186e-001  3.448137e-002  4.687500e-002
      vertex  3.405186e-001  3.448137e-002  5.468750e-002
      vertex  3.476967e-001  4.037225e-002  4.687500e-002
    endloop
  endfacet
  facet normal -6.343939e-001  7.730100e-001  0.000000e+000
    outer loop
      vertex  3.476967e-001  4.037225e-002  4.687500e-002
      vertex  3.405186e-001  3.448137e-002  5.468750e-002
      vertex  3.476967e-001  4.037225e-002  5.468750e-002
    endloop
  endfacet
  facet normal -4.713966e-001  8.819214e-001  0.000000e+000
    outer loop
      vertex  3.476967e-001  4.037225e-002  4.687500e-002
      vertex  3.476967e-001  4.037225e-002  5.468750e-002
      vertex  3.558860e-001  4.474956e-002  4.687500e-002
    endloop
  endfacet
  facet normal -4.713966e-001  8.819214e-001  0.000000e+000
    outer loop
      vertex  3.558860e-001  4.474956e-002  4.687500e-002
      vertex  3.476967e-001  4.037225e-002  5.468750e-002
      vertex  3.558860e-001  4.474956e-002  5.468750e-002
    endloop
  endfacet
  facet normal -2.902840e-001  9.569405e-001  0.000000e+000
    outer loop
      vertex  3.558860e-001  4.474956e-002  4.687500e-002
      vertex  3.558860e-001  4.474956e-002  5.468750e-002
      vertex  3.647721e-001  4.744509e-002  4.687500e-002
    endloop
  endfacet
  facet normal -2.902840e-001  9.569405e-001  0.000000e+000
    outer loop
      vertex  3.647721e-001  4.744509e-002  4.687500e-002
      vertex  3.558860e-001  4.474956e-002  5.468750e-002
      vertex  3.647721e-001  4.744509e-002  5.468750e-002
    endloop
  endfacet
  facet normal -9.801726e-002  9.951847e-001  0.000000e+000
    outer loop
      vertex  3.647721e-001  4.744509e-002  4.687500e-002
      vertex  3.647721e-001  4.744509e-002  5.468750e-002
      vertex  3.740132e-001  4.835526e-002  4.687500e-002
    endloop
  endfacet
  facet normal -9.801726e-002  9.951847e-001  0.000000e+000
    outer loop
      vertex  3.740132e-001  4.835526e-002  4.687500e-002
      vertex  3.647721e-001  4.744509e-002  5.468750e-002
      vertex  3.740132e-001  4.835526e-002  5.468750e-002
    endloop
  endfacet
  facet normal  9.801694e-002  9.951847e-001  0.000000e+000
    outer loop
      vertex  3.740132e-001  4.835526e-002  4.687500e-002
      vertex  3.740132e-001  4.835526e-002  5.468750e-002
      vertex  3.832543e-001  4.744509e-002  4.687500e-002
    endloop
  endfacet
  facet normal  9.801694e-002  9.951847e-001  -0.000000e+000
    outer loop
      vertex  3.832543e-001  4.744509e-002  4.687500e-002
      vertex  3.740132e-001  4.835526e-002  5.468750e-002
      vertex  3.832543e-001  4.744509e-002  5.468750e-002
    endloop
  endfacet
  facet normal  2.902849e-001  9.569403e-001  0.000000e+000
    outer loop
      vertex  3.832543e-001  4.744509e-002  4.687500e-002
      vertex  3.832543e-001  4.744509e-002  5.468750e-002
      vertex  3.921403e-001  4.474956e-002  4.687500e-002
    endloop
  endfacet
  facet normal  2.902849e-001  9.569403e-001  -0.000000e+000
    outer loop
      vertex  3.921403e-001  4.474956e-002  4.687500e-002
      vertex  3.832543e-001  4.744509e-002  5.468750e-002
      vertex  3.921403e-001  4.474956e-002  5.468750e-002
    endloop
  endfacet
  facet normal  4.713966e-001  8.819214e-001  0.000000e+000
    outer loop
      vertex  3.921403e-001  4.474956e-002  4.687500e-002
      vertex  3.921403e-001  4.474956e-002  5.468750e-002
      vertex  4.003296e-001  4.037225e-002  4.687500e-002
    endloop
  endfacet
  facet normal  4.713966e-001  8.819214e-001  -0.000000e+000
    outer loop
      vertex  4.003296e-001  4.037225e-002  4.687500e-002
      vertex  3.921403e-001  4.474956e-002  5.468750e-002
      vertex  4.003296e-001  4.037225e-002  5.468750e-002
    endloop
  endfacet
  facet normal  6.343939e-001  7.730100e-001  0.000000e+000
    outer loop
      vertex  4.003296e-001  4.037225e-002  4.687500e-002
      vertex  4.003296e-001  4.037225e-002  5.468750e-002
      vertex  4.075077e-001  3.448137e-002  4.687500e-002
    endloop
  endfacet
  facet normal  6.343939e-001  7.730100e-001  -0.000000e+000
    outer loop
      vertex  4.075077e-001  3.448137e-002  4.687500e-002
      vertex  4.003296e-001  4.037225e-002  5.468750e-002
      vertex  4.075077e-001  3.448137e-002  5.468750e-002
    endloop
  endfacet
  facet normal  7.730101e-001  6.343937e-001  0.000000e+000
    outer loop
      vertex  4.075077e-001  3.448137e-002  4.687500e-002
      vertex  4.075077e-001  3.448137e-002  5.468750e-002
      vertex  4.133986e-001  2.730333e-002  4.687500e-002
    endloop
  endfacet
  facet normal  7.730101e-001  6.343937e-001  -0.000000e+000
    outer loop
      vertex  4.133986e-001  2.730333e-002  4.687500e-002
      vertex  4.075077e-001  3.448137e-002  5.468750e-002
      vertex  4.133986e-001  2.730333e-002  5.468750e-002
    endloop
  endfacet
  facet normal  8.819216e-001  4.713962e-001  0.000000e+000
    outer loop
      vertex  4.133986e-001  2.730333e-002  4.687500e-002
      vertex  4.133986e-001  2.730333e-002  5.468750e-002
      vertex  4.177759e-001  1.911395e-002  4.687500e-002
    endloop
  endfacet
  facet normal  8.819216e-001  4.713962e-001  -0.000000e+000
    outer loop
      vertex  4.177759e-001  1.911395e-002  4.687500e-002
      vertex  4.133986e-001  2.730333e-002  5.468750e-002
      vertex  4.177759e-001  1.911395e-002  5.468750e-002
    endloop
  endfacet
  facet normal  9.569405e-001  2.902842e-001  0.000000e+000
    outer loop
      vertex  4.177759e-001  1.911395e-002  4.687500e-002
      vertex  4.177759e-001  1.911395e-002  5.468750e-002
      vertex  4.204714e-001  1.022796e-002  4.687500e-002
    endloop
  endfacet
  facet normal  9.569405e-001  2.902842e-001  -0.000000e+000
    outer loop
      vertex  4.204714e-001  1.022796e-002  4.687500e-002
      vertex  4.177759e-001  1.911395e-002  5.468750e-002
      vertex  4.204714e-001  1.022796e-002  5.468750e-002
    endloop
  endfacet
  facet normal  9.951845e-001  9.801947e-002  0.000000e+000
    outer loop
      vertex  4.204714e-001  1.022796e-002  4.687500e-002
      vertex  4.204714e-001  1.022796e-002  5.468750e-002
      vertex  4.213816e-001  9.868421e-004  4.687500e-002
    endloop
  endfacet
  facet normal  9.951845e-001  9.801947e-002  -0.000000e+000
    outer loop
      vertex  4.213816e-001  9.868421e-004  4.687500e-002
      vertex  4.204714e-001  1.022796e-002  5.468750e-002
      vertex  4.213816e-001  9.868421e-004  5.468750e-002
    endloop
  endfacet
  facet normal -9.951848e-001  9.801629e-002  0.000000e+000
    outer loop
      vertex  3.266447e-001  9.868421e-004  0.000000e+000
      vertex  3.266447e-001  9.868421e-004  7.812500e-003
      vertex  3.275549e-001  1.022796e-002  0.000000e+000
    endloop
  endfacet
  facet normal -9.951848e-001  9.801629e-002  0.000000e+000
    outer loop
      vertex  3.275549e-001  1.022796e-002  0.000000e+000
      vertex  3.266447e-001  9.868421e-004  7.812500e-003
      vertex  3.275549e-001  1.022796e-002  7.812500e-003
    endloop
  endfacet
  facet normal -9.569405e-001  2.902842e-001  0.000000e+000
    outer loop
      vertex  3.275549e-001  1.022796e-002  0.000000e+000
      vertex  3.275549e-001  1.022796e-002  7.812500e-003
      vertex  3.302504e-001  1.911395e-002  0.000000e+000
    endloop
  endfacet
  facet normal -9.569405e-001  2.902842e-001  0.000000e+000
    outer loop
      vertex  3.302504e-001  1.911395e-002  0.000000e+000
      vertex  3.275549e-001  1.022796e-002  7.812500e-003
      vertex  3.302504e-001  1.911395e-002  7.812500e-003
    endloop
  endfacet
  facet normal -8.819216e-001  4.713962e-001  0.000000e+000
    outer loop
      vertex  3.302504e-001  1.911395e-002  0.000000e+000
      vertex  3.302504e-001  1.911395e-002  7.812500e-003
      vertex  3.346277e-001  2.730333e-002  0.000000e+000
    endloop
  endfacet
  facet normal -8.819216e-001  4.713962e-001  0.000000e+000
    outer loop
      vertex  3.346277e-001  2.730333e-002  0.000000e+000
      vertex  3.302504e-001  1.911395e-002  7.812500e-003
      vertex  3.346277e-001  2.730333e-002  7.812500e-003
    endloop
  endfacet
  facet normal -7.730101e-001  6.343937e-001  0.000000e+000
    outer loop
      vertex  3.346277e-001  2.730333e-002  0.000000e+000
      vertex  3.346277e-001  2.730333e-002  7.812500e-003
      vertex  3.405186e-001  3.448137e-002  0.000000e+000
    endloop
  endfacet
  facet normal -7.730101e-001  6.343937e-001  0.000000e+000
    outer loop
      vertex  3.405186e-001  3.448137e-002  0.000000e+000
      vertex  3.346277e-001  2.730333e-002  7.812500e-003
      vertex  3.405186e-001  3.448137e-002  7.812500e-003
    endloop
  endfacet
  facet normal -6.343939e-001  7.730100e-001  0.000000e+000
    outer loop
      vertex  3.405186e-001  3.448137e-002  0.000000e+000
      vertex  3.405186e-001  3.448137e-002  7.812500e-003
      vertex  3.476967e-001  4.037225e-002  0.000000e+000
    endloop
  endfacet
  facet normal -6.343939e-001  7.730100e-001  0.000000e+000
    outer loop
      vertex  3.476967e-001  4.037225e-002  0.000000e+000
      vertex  3.405186e-001  3.448137e-002  7.812500e-003
      vertex  3.476967e-001  4.037225e-002  7.812500e-003
    endloop
  endfacet
  facet normal -4.713966e-001  8.819214e-001  0.000000e+000
    outer loop
      vertex  3.476967e-001  4.037225e-002  0.000000e+000
      vertex  3.476967e-001  4.037225e-002  7.812500e-003
      vertex  3.558860e-001  4.474956e-002  0.000000e+000
    endloop
  endfacet
  facet normal -4.713966e-001  8.819214e-001  0.000000e+000
    outer loop
      vertex  3.558860e-001  4.474956e-002  0.000000e+000
      vertex  3.476967e-001  4.037225e-002  7.812500e-003
      vertex  3.558860e-001  4.474956e-002  7.812500e-003
    endloop
  endfacet
  facet normal -2.902840e-001  9.569405e-001  0.000000e+000
    outer loop
      vertex  3.558860e-001  4.474956e-002  0.000000e+000
      vertex  3.558860e-001  4.474956e-002  7.812500e-003
      vertex  3.647721e-001  4.744509e-002  0.000000e+000
    endloop
  endfacet
  facet normal -2.902840e-001  9.569405e-001  0.000000e+000
    outer loop
      vertex  3.647721e-001  4.744509e-002  0.000000e+000
      vertex  3.558860e-001  4.474956e-002  7.812500e-003
      vertex  3.647721e-001  4.744509e-002  7.812500e-003
    endloop
  endfacet
  facet normal -9.801726e-002  9.951847e-001  0.000000e+000
    outer loop
      vertex  3.647721e-001  4.744509e-002  0.000000e+000
      vertex  3.647721e-001  4.744509e-002  7.812500e-003
      vertex  3.740132e-001  4.835526e-002  0.000000e+000
    endloop
  endfacet
  facet normal -9.801726e-002  9.951847e-001  0.000000e+000
    outer loop
      vertex  3.740132e-001  4.835526e-002  0.000000e+000
      vertex  3.647721e-001  4.744509e-002  7.812500e-003
      vertex  3.740132e-001  4.835526e-002  7.812500e-003
    endloop
  endfacet
  facet normal  9.801694e-002  9.951847e-001  0.000000e+000
    outer loop
      vertex  3.740132e-001  4.835526e-002  0.000000e+000
      vertex  3.740132e-001  4.835526e-002  7.812500e-003
      vertex  3.832543e-001  4.744509e-002  0.000000e+000
    endloop
  endfacet
  facet normal  9.801694e-002  9.951847e-001  -0.000000e+000
    outer loop
      vertex  3.832543e-001  4.744509e-002  0.000000e+000
      vertex  3.740132e-001  4.835526e-002  7.812500e-003
      vertex  3.832543e-001  4.744509e-002  7.812500e-003
    endloop
  endfacet
  facet normal  2.902849e-001  9.569403e-001  0.000000e+000
    outer loop
      vertex  3.832543e-001  4.744509e-002  0.000000e+000
      vertex  3.832543e-001  4.744509e-002  7.812500e-003
      vertex  3.921403e-001  4.474956e-002  0.000000e+000
    endloop
  endfacet
  facet normal  2.902849e-001  9.569403e-001  -0.000000e+000
    outer loop
      vertex  3.921403e-001  4.474956e-002  0.000000e+000
      vertex  3.832543e-001  4.744509e-002  7.812500e-003
      vertex  3.921403e-001  4.474956e-002  7.812500e-003
    endloop
  endfacet
  facet normal  4.713966e-001  8.819214e-001  0.000000e+000
    outer loop
      vertex  3.921403e-001  4.474956e-002  0.000000e+000
      vertex  3.921403e-001  4.474956e-002  7.812500e-003
      vertex  4.003296e-001  4.037225e-002  0.000000e+000
    endloop
  endfacet
  facet normal  4.713966e-001  8.819214e-001  -0.000000e+000
    outer loop
      vertex  4.003296e-001  4.037225e-002  0.000000e+000
      vertex  3.921403e-001  4.474956e-002  7.812500e-003
      vertex  4.003296e-001  4.037225e-002  7.812500e-003
    endloop
  endfacet
  facet normal  6.343939e-001  7.730100e-001  0.000000e+000
    outer loop
      vertex  4.003296e-001  4.037225e-002  0.000000e+000
      vertex  4.003296e-001  4.037225e-002  7.812500e-003
      vertex  4.075077e-001  3.448137e-002  0.000000e+000
    endloop
  endfacet
  facet normal  6.343939e-001  7.730100e-001  -0.000000e+000
    outer loop
      vertex  4.075077e-001  3.448137e-002  0.000000e+000
      vertex  4.003296e-001  4.037225e-002  7.812500e-003
      vertex  4.075077e-001  3.448137e-002  7.812500e-003
    endloop
  endfacet
  facet normal  7.730101e-001  6.343937e-001  0.000000e+000
    outer loop
      vertex  4.075077e-001  3.448137e-002  0.000000e+000
      vertex  4.075077e-001  3.448137e-002  7.812500e-003
      vertex  4.133986e-001  2.730333e-002  0.000000e+000
    endloop
  endfacet
  facet normal  7.730101e-001  6.343937e-001  -0.000000e+000
    outer loop
      vertex  4.133986e-001  2.730333e-002  0.000000e+000
      vertex  4.075077e-001  3.448137e-002  7.812500e-003
      vertex  4.133986e-001  2.730333e-002  7.812500e-003
    endloop
  endfacet
  facet normal  8.819216e-001  4.713962e-001  0.000000e+000
    outer loop
      vertex  4.133986e-001  2.730333e-002  0.000000e+000
      vertex  4.133986e-001  2.730333e-002  7.812500e-003
      vertex  4.177759e-001  1.911395e-002  0.000000e+000
    endloop
  endfacet
  facet normal  8.819216e-001  4.713962e-001  -0.000000e+000
    outer loop
      vertex  4.177759e-001  1.911395e-002  0.000000e+000
      vertex  4.133986e-001  2.730333e-002  7.812500e-003
      vertex  4.177759e-001  1.911395e-002  7.812500e-003
    endloop
  endfacet
  facet normal  9.569405e-001  2.902842e-001  0.000000e+000
    outer loop
      vertex  4.177759e-001  1.911395e-002  0.000000e+000
      vertex  4.177759e-001  1.911395e-002  7.812500e-003
      vertex  4.204714e-001  1.022796e-002  0.000000e+000
    endloop
  endfacet
  facet normal  9.569405e-001  2.902842e-001  -0.000000e+000
    outer loop
      vertex  4.204714e-001  1.022796e-002  0.000000e+000
      vertex  4.177759e-001  1.911395e-002  7.812500e-003
      vertex  4.204714e-001  1.022796e-002  7.812500e-003
    endloop
  endfacet
  facet normal  9.951845e-001  9.801947e-002  0.000000e+000
    outer loop
      vertex  4.204714e-001  1.022796e-002  0.000000e+000
      vertex  4.204714e-001  1.022796e-002  7.812500e-003
      vertex  4.213816e-001  9.868421e-004  0.000000e+000
    endloop
  endfacet
  facet normal  9.951845e-001  9.801947e-002  -0.000000e+000
    outer loop
      vertex  4.213816e-001  9.868421e-004  0.000000e+000
      vertex  4.204714e-001  1.022796e-002  7.812500e-003
      vertex  4.213816e-001  9.868421e-004  7.812500e-003
    endloop
  endfacet
  facet normal  9.951845e-001 -9.801947e-002  0.000000e+000
    outer loop
      vertex  4.213816e-001  9.868421e-004  4.687500e-002
      vertex  4.213816e-001  9.868421e-004  5.468750e-002
      vertex  4.204714e-001 -8.254278e-003  4.687500e-002
    endloop
  endfacet
  facet normal  9.951845e-001 -9.801947e-002  0.000000e+000
    outer loop
      vertex  4.204714e-001 -8.254278e-003  4.687500e-002
      vertex  4.213816e-001  9.868421e-004  5.468750e-002
      vertex  4.204714e-001 -8.254278e-003  5.468750e-002
    endloop
  endfacet
  facet normal  9.569405e-001 -2.902842e-001  0.000000e+000
    outer loop
      vertex  4.204714e-001 -8.254278e-003  4.687500e-002
      vertex  4.204714e-001 -8.254278e-003  5.468750e-002
      vertex  4.177759e-001 -1.714027e-002  4.687500e-002
    endloop
  endfacet
  facet normal  9.569405e-001 -2.902842e-001  0.000000e+000
    outer loop
      vertex  4.177759e-001 -1.714027e-002  4.687500e-002
      vertex  4.204714e-001 -8.254278e-003  5.468750e-002
      vertex  4.177759e-001 -1.714027e-002  5.468750e-002
    endloop
  endfacet
  facet normal  8.819216e-001 -4.713962e-001  0.000000e+000
    outer loop
      vertex  4.177759e-001 -1.714027e-002  4.687500e-002
      vertex  4.177759e-001 -1.714027e-002  5.468750e-002
      vertex  4.133986e-001 -2.532964e-002  4.687500e-002
    endloop
  endfacet
  facet normal  8.819216e-001 -4.713962e-001  0.000000e+000
    outer loop
      vertex  4.133986e-001 -2.532964e-002  4.687500e-002
      vertex  4.177759e-001 -1.714027e-002  5.468750e-002
      vertex  4.133986e-001 -2.532964e-002  5.468750e-002
    endloop
  endfacet
  facet normal  7.730101e-001 -6.343937e-001  0.000000e+000
    outer loop
      vertex  4.133986e-001 -2.532964e-002  4.687500e-002
      vertex  4.133986e-001 -2.532964e-002  5.468750e-002
      vertex  4.075077e-001 -3.250769e-002  4.687500e-002
    endloop
  endfacet
  facet normal  7.730101e-001 -6.343937e-001  0.000000e+000
    outer loop
      vertex  4.075077e-001 -3.250769e-002  4.687500e-002
      vertex  4.133986e-001 -2.532964e-002  5.468750e-002
      vertex  4.075077e-001 -3.250769e-002  5.468750e-002
    endloop
  endfacet
  facet normal  6.343939e-001 -7.730100e-001  0.000000e+000
    outer loop
      vertex  4.075077e-001 -3.250769e-002  4.687500e-002
      vertex  4.075077e-001 -3.250769e-002  5.468750e-002
      vertex  4.003296e-001 -3.839856e-002  4.687500e-002
    endloop
  endfacet
  facet normal  6.343939e-001 -7.730100e-001  0.000000e+000
    outer loop
      vertex  4.003296e-001 -3.839856e-002  4.687500e-002
      vertex  4.075077e-001 -3.250769e-002  5.468750e-002
      vertex  4.003296e-001 -3.839856e-002  5.468750e-002
    endloop
  endfacet
  facet normal  4.713966e-001 -8.819214e-001  0.000000e+000
    outer loop
      vertex  4.003296e-001 -3.839856e-002  4.687500e-002
      vertex  4.003296e-001 -3.839856e-002  5.468750e-002
      vertex  3.921403e-001 -4.277587e-002  4.687500e-002
    endloop
  endfacet
  facet normal  4.713966e-001 -8.819214e-001  0.000000e+000
    outer loop
      vertex  3.921403e-001 -4.277587e-002  4.687500e-002
      vertex  4.003296e-001 -3.839856e-002  5.468750e-002
      vertex  3.921403e-001 -4.277587e-002  5.468750e-002
    endloop
  endfacet
  facet normal  2.902849e-001 -9.569403e-001  0.000000e+000
    outer loop
      vertex  3.921403e-001 -4.277587e-002  4.687500e-002
      vertex  3.921403e-001 -4.277587e-002  5.468750e-002
      vertex  3.832543e-001 -4.547141e-002  4.687500e-002
    endloop
  endfacet
  facet normal  2.902849e-001 -9.569403e-001  0.000000e+000
    outer loop
      vertex  3.832543e-001 -4.547141e-002  4.687500e-002
      vertex  3.921403e-001 -4.277587e-002  5.468750e-002
      vertex  3.832543e-001 -4.547141e-002  5.468750e-002
    endloop
  endfacet
  facet normal  9.801694e-002 -9.951847e-001  0.000000e+000
    outer loop
      vertex  3.832543e-001 -4.547141e-002  4.687500e-002
      vertex  3.832543e-001 -4.547141e-002  5.468750e-002
      vertex  3.740132e-001 -4.638158e-002  4.687500e-002
    endloop
  endfacet
  facet normal  9.801694e-002 -9.951847e-001  0.000000e+000
    outer loop
      vertex  3.740132e-001 -4.638158e-002  4.687500e-002
      vertex  3.832543e-001 -4.547141e-002  5.468750e-002
      vertex  3.740132e-001 -4.638158e-002  5.468750e-002
    endloop
  endfacet
  facet normal -9.801726e-002 -9.951847e-001  -0.000000e+000
    outer loop
      vertex  3.740132e-001 -4.638158e-002  4.687500e-002
      vertex  3.740132e-001 -4.638158e-002  5.468750e-002
      vertex  3.647721e-001 -4.547141e-002  4.687500e-002
    endloop
  endfacet
  facet normal -9.801726e-002 -9.951847e-001  0.000000e+000
    outer loop
      vertex  3.647721e-001 -4.547141e-002  4.687500e-002
      vertex  3.740132e-001 -4.638158e-002  5.468750e-002
      vertex  3.647721e-001 -4.547141e-002  5.468750e-002
    endloop
  endfacet
  facet normal -2.902840e-001 -9.569405e-001  -0.000000e+000
    outer loop
      vertex  3.647721e-001 -4.547141e-002  4.687500e-002
      vertex  3.647721e-001 -4.547141e-002  5.468750e-002
      vertex  3.558860e-001 -4.277587e-002  4.687500e-002
    endloop
  endfacet
  facet normal -2.902840e-001 -9.569405e-001  0.000000e+000
    outer loop
      vertex  3.558860e-001 -4.277587e-002  4.687500e-002
      vertex  3.647721e-001 -4.547141e-002  5.468750e-002
      vertex  3.558860e-001 -4.277587e-002  5.468750e-002
    endloop
  endfacet
  facet normal -4.713966e-001 -8.819214e-001  -0.000000e+000
    outer loop
      vertex  3.558860e-001 -4.277587e-002  4.687500e-002
      vertex  3.558860e-001 -4.277587e-002  5.468750e-002
      vertex  3.476967e-001 -3.839856e-002  4.687500e-002
    endloop
  endfacet
  facet normal -4.713966e-001 -8.819214e-001  0.000000e+000
    outer loop
      vertex  3.476967e-001 -3.839856e-002  4.687500e-002
      vertex  3.558860e-001 -4.277587e-002  5.468750e-002
      vertex  3.476967e-001 -3.839856e-002  5.468750e-002
    endloop
  endfacet
  facet normal -6.343939e-001 -7.730100e-001  -0.000000e+000
    outer loop
      vertex  3.476967e-001 -3.839856e-002  4.687500e-002
      vertex  3.476967e-001 -3.839856e-002  5.468750e-002
      vertex  3.405186e-001 -3.250769e-002  4.687500e-002
    endloop
  endfacet
  facet normal -6.343939e-001 -7.730100e-001  0.000000e+000
    outer loop
      vertex  3.405186e-001 -3.250769e-002  4.687500e-002
      vertex  3.476967e-001 -3.839856e-002  5.468750e-002
      vertex  3.405186e-001 -3.250769e-002  5.468750e-002
    endloop
  endfacet
  facet normal -7.730101e-001 -6.343937e-001  -0.000000e+000
    outer loop
      vertex  3.405186e-001 -3.250769e-002  4.687500e-002
      vertex  3.405186e-001 -3.250769e-002  5.468750e-002
      vertex  3.346277e-001 -2.532964e-002  4.687500e-002
    endloop
  endfacet
  facet normal -7.730101e-001 -6.343937e-001  0.000000e+000
    outer loop
      vertex  3.346277e-001 -2.532964e-002  4.687500e-002
      vertex  3.405186e-001 -3.250769e-002  5.468750e-002
      vertex  3.346277e-001 -2.532964e-002  5.468750e-002
    endloop
  endfacet
  facet normal -8.819216e-001 -4.713962e-001  -0.000000e+000
    outer loop
      vertex  3.346277e-001 -2.532964e-002  4.687500e-002
      vertex  3.346277e-001 -2.532964e-002  5.468750e-002
      vertex  3.302504e-001 -1.714027e-002  4.687500e-002
    endloop
  endfacet
  facet normal -8.819216e-001 -4.713962e-001  0.000000e+000
    outer loop
      vertex  3.302504e-001 -1.714027e-002  4.687500e-002
      vertex  3.346277e-001 -2.532964e-002  5.468750e-002
      vertex  3.302504e-001 -1.714027e-002  5.468750e-002
    endloop
  endfacet
  facet normal -9.569405e-001 -2.902842e-001  -0.000000e+000
    outer loop
      vertex  3.302504e-001 -1.714027e-002  4.687500e-002
      vertex  3.302504e-001 -1.714027e-002  5.468750e-002
      vertex  3.275549e-001 -8.254278e-003  4.687500e-002
    endloop
  endfacet
  facet normal -9.569405e-001 -2.902842e-001  0.000000e+000
    outer loop
      vertex  3.275549e-001 -8.254278e-003  4.687500e-002
      vertex  3.302504e-001 -1.714027e-002  5.468750e-002
      vertex  3.275549e-001 -8.254278e-003  5.468750e-002
    endloop
  endfacet
  facet normal -9.951848e-001 -9.801628e-002  -0.000000e+000
    outer loop
      vertex  3.275549e-001 -8.254278e-003  4.687500e-002
      vertex  3.275549e-001 -8.254278e-003  5.468750e-002
      vertex  3.266447e-001  9.868421e-004  4.687500e-002
    endloop
  endfacet
  facet normal -9.951848e-001 -9.801628e-002  0.000000e+000
    outer loop
      vertex  3.266447e-001  9.868421e-004  4.687500e-002
      vertex  3.275549e-001 -8.254278e-003  5.468750e-002
      vertex  3.266447e-001  9.868421e-004  5.468750e-002
    endloop
  endfacet
  facet normal  9.951845e-001 -9.801947e-002  0.000000e+000
    outer loop
      vertex  4.213816e-001  9.868421e-004  0.000000e+000
      vertex  4.213816e-001  9.868421e-004  7.812500e-003
      vertex  4.204714e-001 -8.254278e-003  0.000000e+000
    endloop
  endfacet
  facet normal  9.951845e-001 -9.801947e-002  0.000000e+000
    outer loop
      vertex  4.204714e-001 -8.254278e-003  0.000000e+000
      vertex  4.213816e-001  9.868421e-004  7.812500e-003
      vertex  4.204714e-001 -8.254278e-003  7.812500e-003
    endloop
  endfacet
  facet normal  9.569405e-001 -2.902842e-001  0.000000e+000
    outer loop
      vertex  4.204714e-001 -8.254278e-003  0.000000e+000
      vertex  4.204714e-001 -8.254278e-003  7.812500e-003
      vertex  4.177759e-001 -1.714027e-002  0.000000e+000
    endloop
  endfacet
  facet normal  9.569405e-001 -2.902842e-001  0.000000e+000
    outer loop
      vertex  4.177759e-001 -1.714027e-002  0.000000e+000
      vertex  4.204714e-001 -8.254278e-003  7.812500e-003
      vertex  4.177759e-001 -1.714027e-002  7.812500e-003
    endloop
  endfacet
  facet normal  8.819216e-001 -4.713962e-001  0.000000e+000
    outer loop
      vertex  4.177759e-001 -1.714027e-002  0.000000e+000
      vertex  4.177759e-001 -1.714027e-002  7.812500e-003
      vertex  4.133986e-001 -2.532964e-002  0.000000e+000
    endloop
  endfacet
  facet normal  8.819216e-001 -4.713962e-001  0.000000e+000
    outer loop
      vertex  4.133986e-001 -2.532964e-002  0.000000e+000
      vertex  4.177759e-001 -1.714027e-002  7.812500e-003
      vertex  4.133986e-001 -2.532964e-002  7.812500e-003
    endloop
  endfacet
  facet normal  7.730101e-001 -6.343937e-001  0.000000e+000
    outer loop
      vertex  4.133986e-001 -2.532964e-002  0.000000e+000
      vertex  4.133986e-001 -2.532964e-002  7.812500e-003
      vertex  4.075077e-001 -3.250769e-002  0.000000e+000
    endloop
  endfacet
  facet normal  7.730101e-001 -6.343937e-001  0.000000e+000
    outer loop
      vertex  4.075077e-001 -3.250769e-002  0.000000e+000
      vertex  4.133986e-001 -2.532964e-002  7.812500e-003
      vertex  4.075077e-001 -3.250769e-002  7.812500e-003
    endloop
  endfacet
  facet normal  6.343939e-001 -7.730100e-001  0.000000e+000
    outer loop
      vertex  4.075077e-001 -3.250769e-002  0.000000e+000
      vertex  4.075077e-001 -3.250769e-002  7.812500e-003
      vertex  4.003296e-001 -3.839856e-002  0.000000e+000
    endloop
  endfacet
  facet normal  6.343939e-001 -7.730100e-001  0.000000e+000
    outer loop
      vertex  4.003296e-001 -3.839856e-002  0.000000e+000
      vertex  4.075077e-001 -3.250769e-002  7.812500e-003
      vertex  4.003296e-001 -3.839856e-002  7.812500e-003
    endloop
  endfacet
  facet normal  4.713966e-001 -8.819214e-001  0.000000e+000
    outer loop
      vertex  4.003296e-001 -3.839856e-002  0.000000e+000
      vertex  4.003296e-001 -3.839856e-002  7.812500e-003
      vertex  3.921403e-001 -4.277587e-002  0.000000e+000
    endloop
  endfacet
  facet normal  4.713966e-001 -8.819214e-001  0.000000e+000
    outer loop
      vertex  3.921403e-001 -4.277587e-002  0.000000e+000
      vertex  4.003296e-001 -3.839856e-002  7.812500e-003
      vertex  3.921403e-001 -4.277587e-002  7.812500e-003
    endloop
  endfacet
  facet normal  2.902849e-001 -9.569403e-001  0.000000e+000
    outer loop
      vertex  3.921403e-001 -4.277587e-002  0.000000e+000
      vertex  3.921403e-001 -4.277587e-002  7.812500e-003
      vertex  3.832543e-001 -4.547141e-002  0.000000e+000
    endloop
  endfacet
  facet normal  2.902849e-001 -9.569403e-001  0.000000e+000
    outer loop
      vertex  3.832543e-001 -4.547141e-002  0.000000e+000
      vertex  3.921403e-001 -4.277587e-002  7.812500e-003
      vertex  3.832543e-001 -4.547141e-002  7.812500e-003
    endloop
  endfacet
  facet normal  9.801694e-002 -9.951847e-001  0.000000e+000
    outer loop
      vertex  3.832543e-001 -4.547141e-002  0.000000e+000
      vertex  3.832543e-001 -4.547141e-002  7.812500e-003
      vertex  3.740132e-001 -4.638158e-002  0.000000e+000
    endloop
  endfacet
  facet normal  9.801694e-002 -9.951847e-001  0.000000e+000
    outer loop
      vertex  3.740132e-001 -4.638158e-002  0.000000e+000
      vertex  3.832543e-001 -4.547141e-002  7.812500e-003
      vertex  3.740132e-001 -4.638158e-002  7.812500e-003
    endloop
  endfacet
  facet normal -9.801726e-002 -9.951847e-001  -0.000000e+000
    outer loop
      vertex  3.740132e-001 -4.638158e-002  0.000000e+000
      vertex  3.740132e-001 -4.638158e-002  7.812500e-003
      vertex  3.647721e-001 -4.547141e-002  0.000000e+000
    endloop
  endfacet
  facet normal -9.801726e-002 -9.951847e-001  0.000000e+000
    outer loop
      vertex  3.647721e-001 -4.547141e-002  0.000000e+000
      vertex  3.740132e-001 -4.638158e-002  7.812500e-003
      vertex  3.647721e-001 -4.547141e-002  7.812500e-003
    endloop
  endfacet
  facet normal -2.902840e-001 -9.569405e-001  -0.000000e+000
    outer loop
      vertex  3.647721e-001 -4.547141e-002  0.000000e+000
      vertex  3.647721e-001 -4.547141e-002  7.812500e-003
      vertex  3.558860e-001 -4.277587e-002  0.000000e+000
    endloop
  endfacet
  facet normal -2.902840e-001 -9.569405e-001  0.000000e+000
    outer loop
      vertex  3.558860e-001 -4.277587e-002  0.000000e+000
      vertex  3.647721e-001 -4.547141e-002  7.812500e-003
      vertex  3.558860e-001 -4.277587e-002  7.812500e-003
    endloop
  endfacet
  facet normal -4.713966e-001 -8.819214e-001  -0.000000e+000
    outer loop
      vertex  3.558860e-001 -4.277587e-002  0.000000e+000
      vertex  3.558860e-001 -4.277587e-002  7.812500e-003
      vertex  3.476967e-001 -3.839856e-002  0.000000e+000
    endloop
  endfacet
  facet normal -4.713966e-001 -8.819214e-001  0.000000e+000
    outer loop
      vertex  3.476967e-001 -3.839856e-002  0.000000e+000
      vertex  3.558860e-001 -4.277587e-002  7.812500e-003
      vertex  3.476967e-001 -3.839856e-002  7.812500e-003
    endloop
  endfacet
  facet normal -6.343939e-001 -7.730100e-001  -0.000000e+000
    outer loop
      vertex  3.476967e-001 -3.839856e-002  0.000000e+000
      vertex  3.476967e-001 -3.839856e-002  7.812500e-003
      vertex  3.405186e-001 -3.250769e-002  0.000000e+000
    endloop
  endfacet
  facet normal -6.343939e-001 -7.730100e-001  0.000000e+000
    outer loop
      vertex  3.405186e-001 -3.250769e-002  0.000000e+000
      vertex  3.476967e-001 -3.839856e-002  7.812500e-003
      vertex  3.405186e-001 -3.250769e-002  7.812500e-003
    endloop
  endfacet
  facet normal -7.730101e-001 -6.343937e-001  -0.000000e+000
    outer loop
      vertex  3.405186e-001 -3.250769e-002  0.000000e+000
      vertex  3.405186e-001 -3.250769e-002  7.812500e-003
      vertex  3.346277e-001 -2.532964e-002  0.000000e+000
    endloop
  endfacet
  facet normal -7.730101e-001 -6.343937e-001  0.000000e+000
    outer loop
      vertex  3.346277e-001 -2.532964e-002  0.000000e+000
      vertex  3.405186e-001 -3.250769e-002  7.812500e-003
      vertex  3.346277e-001 -2.532964e-002  7.812500e-003
    endloop
  endfacet
  facet normal -8.819216e-001 -4.713962e-001  -0.000000e+000
    outer loop
      vertex  3.346277e-001 -2.532964e-002  0.000000e+000
      vertex  3.346277e-001 -2.532964e-002  7.812500e-003
      vertex  3.302504e-001 -1.714027e-002  0.000000e+000
    endloop
  endfacet
  facet normal -8.819216e-001 -4.713962e-001  0.000000e+000
    outer loop
      vertex  3.302504e-001 -1.714027e-002  0.000000e+000
      vertex  3.346277e-001 -2.532964e-002  7.812500e-003
      vertex  3.302504e-001 -1.714027e-002  7.812500e-003
    endloop
  endfacet
  facet normal -9.569405e-001 -2.902842e-001  -0.000000e+000
    outer loop
      vertex  3.302504e-001 -1.714027e-002  0.000000e+000
      vertex  3.302504e-001 -1.714027e-002  7.812500e-003
      vertex  3.275549e-001 -8.254278e-003  0.000000e+000
    endloop
  endfacet
  facet normal -9.569405e-001 -2.902842e-001  0.000000e+000
    outer loop
      vertex  3.275549e-001 -8.254278e-003  0.000000e+000
      vertex  3.302504e-001 -1.714027e-002  7.812500e-003
      vertex  3.275549e-001 -8.254278e-003  7.812500e-003
    endloop
  endfacet
  facet normal -9.951848e-001 -9.801628e-002  -0.000000e+000
    outer loop
      vertex  3.275549e-001 -8.254278e-003  0.000000e+000
      vertex  3.275549e-001 -8.254278e-003  7.812500e-003
      vertex  3.266447e-001  9.868421e-004  0.000000e+000
    endloop
  endfacet
  facet normal -9.951848e-001 -9.801628e-002  0.000000e+000
    outer loop
      vertex  3.266447e-001  9.868421e-004  0.000000e+000
      vertex  3.275549e-001 -8.254278e-003  7.812500e-003
      vertex  3.266447e-001  9.868421e-004  7.812500e-003
    endloop
  endfacet
  facet normal  -0.000000e+000  0.000000e+000  1.000000e+000
    outer loop
      vertex  3.740132e-001  4.835526e-002  7.812500e-003
      vertex  3.647721e-001  4.744509e-002  7.812500e-003
      vertex  3.558860e-001  4.474956e-002  7.812500e-003
    endloop
  endfacet
  facet normal  0.000000e+000  0.000000e+000  9.999999e-001
    outer loop
      vertex  3.832543e-001  4.744509e-002  7.812500e-003
      vertex  3.740132e-001  4.835526e-002  7.812500e-003
      vertex  3.558860e-001  4.474956e-002  7.812500e-003
    endloop
  endfacet
  facet normal  0.000000e+000  0.000000e+000  1.000000e+000
    outer loop
      vertex  3.832543e-001  4.744509e-002  7.812500e-003
      vertex  3.558860e-001  4.474956e-002  7.812500e-003
      vertex  3.921403e-001  4.474956e-002  7.812500e-003
    endloop
  endfacet
  facet normal  -0.000000e+000  0.000000e+000  1.000000e+000
    outer loop
      vertex  3.921403e-001  4.474956e-002  7.812500e-003
      vertex  3.558860e-001  4.474956e-002  7.812500e-003
      vertex  3.476967e-001  4.037225e-002  7.812500e-003
    endloop
  endfacet
  facet normal  0.000000e+000  0.000000e+000  1.000000e+000
    outer loop
      vertex  3.921403e-001  4.474956e-002  7.812500e-003
      vertex  3.476967e-001  4.037225e-002  7.812500e-003
      vertex  4.003296e-001  4.037225e-002  7.812500e-003
    endloop
  endfacet
  facet normal  -0.000000e+000  0.000000e+000  1.000000e+000
    outer loop
      vertex  4.003296e-001  4.037225e-002  7.812500e-003
      vertex  3.476967e-001  4.037225e-002  7.812500e-003
      vertex  3.405186e-001  3.448137e-002  7.812500e-003
    endloop
  endfacet
  facet normal  0.000000e+000  0.000000e+000  1.000000e+000
    outer loop
      vertex  4.003296e-001  4.037225e-002  7.812500e-003
      vertex  3.405186e-001  3.448137e-002  7.812500e-003
      vertex  4.075077e-001  3.448137e-002  7.812500e-003
    endloop
  endfacet
  facet normal  -0.000000e+000  0.000000e+000  1.000000e+000
    outer loop
      vertex  4.075077e-001  3.448137e-002  7.812500e-003
      vertex  3.405186e-001  3.448137e-002  7.812500e-003
      vertex  3.346277e-001  2.730333e-002  7.812500e-003
    endloop
  endfacet
  facet normal  0.000000e+000  0.000000e+000  1.000000e+000
    outer loop
      vertex  4.075077e-001  3.448137e-002  7.812500e-003
      vertex  3.346277e-001  2.730333e-002  7.812500e-003
      vertex  4.133986e-001  2.730333e-002  7.812500e-003
    endloop
  endfacet
  facet normal  -0.000000e+000  0.000000e+000  1.000000e+000
    outer loop
      vertex  4.133986e-001  2.730333e-002  7.812500e-003
      vertex  3.346277e-001  2.730333e-002  7.812500e-003
      vertex  3.302504e-001  1.911395e-002  7.812500e-003
    endloop
  endfacet
  facet normal  0.000000e+000  0.000000e+000  1.000000e+000
    outer loop
      vertex  4.133986e-001  2.730333e-002  7.812500e-003
      vertex  3.302504e-001  1.911395e-002  7.812500e-003
      vertex  4.177759e-001  1.911395e-002  7.812500e-003
    endloop
  endfacet
  facet normal  -0.000000e+000  0.000000e+000  1.000000e+000
    outer loop
      vertex  4.177759e-001  1.911395e-002  7.812500e-003
      vertex  3.302504e-001  1.911395e-002  7.812500e-003
      vertex  3.275549e-001  1.022796e-002  7.812500e-003
    endloop
  endfacet
  facet normal  0.000000e+000  0.000000e+000  1.000000e+000
    outer loop
      vertex  4.177759e-001  1.911395e-002  7.812500e-003
      vertex  3.275549e-001  1.022796e-002  7.812500e-003
      vertex  4.204714e-001  1.022796e-002  7.812500e-003
    endloop
  endfacet
  facet normal  0.000000e+000  0.000000e+000  1.000000e+000
    outer loop
      vertex  4.204714e-001 -8.254278e-003  7.812500e-003
      vertex  3.302504e-001 -1.714027e-002  7.812500e-003
      vertex  4.177759e-001 -1.714027e-002  7.812500e-003
    endloop
  endfacet
  facet normal  -0.000000e+000  0.000000e+000  1.000000e+000
    outer loop
      vertex  4.177759e-001 -1.714027e-002  7.812500e-003
      vertex  3.302504e-001 -1.714027e-002  7.812500e-003
      vertex  3.346277e-001 -2.532964e-002  7.812500e-003
    endloop
  endfacet
  facet normal  0.000000e+000  0.000000e+000  1.000000e+000
    outer loop
      vertex  4.177759e-001 -1.714027e-002  7.812500e-003
      vertex  3.346277e-001 -2.532964e-002  7.812500e-003
      vertex  4.133986e-001 -2.532964e-002  7.812500e-003
    endloop
  endfacet
  facet normal  -0.000000e+000  0.000000e+000  1.000000e+000
    outer loop
      vertex  4.133986e-001 -2.532964e-002  7.812500e-003
      vertex  3.346277e-001 -2.532964e-002  7.812500e-003
      vertex  3.405186e-001 -3.250769e-002  7.812500e-003
    endloop
  endfacet
  facet normal  0.000000e+000  0.000000e+000  1.000000e+000
    outer loop
      vertex  4.133986e-001 -2.532964e-002  7.812500e-003
      vertex  3.405186e-001 -3.250769e-002  7.812500e-003
      vertex  4.075077e-001 -3.250769e-002  7.812500e-003
    endloop
  endfacet
  facet normal  -0.000000e+000  0.000000e+000  1.000000e+000
    outer loop
      vertex  4.075077e-001 -3.250769e-002  7.812500e-003
      vertex  3.405186e-001 -3.250769e-002  7.812500e-003
      vertex  3.476967e-001 -3.839856e-002  7.812500e-003
    endloop
  endfacet
  facet normal  0.000000e+000  0.000000e+000  1.000000e+000
    outer loop
      vertex  4.075077e-001 -3.250769e-002  7.812500e-003
      vertex  3.476967e-001 -3.839856e-002  7.812500e-003
      vertex  4.003296e-001 -3.839856e-002  7.812500e-003
    endloop
  endfacet
  facet normal  -0.000000e+000  0.000000e+000  1.000000e+000
    outer loop
      vertex  4.003296e-001 -3.839856e-002  7.812500e-003
      vertex  3.476967e-001 -3.839856e-002  7.812500e-003
      vertex  3.558860e-001 -4.277587e-002  7.812500e-003
    endloop
  endfacet
  facet normal  0.000000e+000  0.000000e+000  1.000000e+000
    outer loop
      vertex  4.003296e-001 -3.839856e-002  7.812500e-003
      vertex  3.558860e-001 -4.277587e-002  7.812500e-003
      vertex  3.921403e-001 -4.277587e-002  7.812500e-003
    endloop
  endfacet
  facet normal  -0.000000e+000  0.000000e+000  1.000000e+000
    outer loop
      vertex  3.921403e-001 -4.277587e-002  7.812500e-003
      vertex  3.558860e-001 -4.277587e-002  7.812500e-003
      vertex  3.647721e-001 -4.547141e-002  7.812500e-003
    endloop
  endfacet
  facet normal  -0.000000e+000  0.000000e+000  1.000000e+000
    outer loop
      vertex  3.921403e-001 -4.277587e-002  7.812500e-003
      vertex  3.647721e-001 -4.547141e-002  7.812500e-003
      vertex  3.740132e-001 -4.638158e-002  7.812500e-003
    endloop
  endfacet
  facet normal  0.000000e+000  0.000000e+000  1.000000e+000
    outer loop
      vertex  3.921403e-001 -4.277587e-002  7.812500e-003
      vertex  3.740132e-001 -4.638158e-002  7.812500e-003
      vertex  3.832543e-001 -4.547141e-002  7.812500e-003
    endloop
  endfacet
  facet normal  -0.000000e+000  0.000000e+000  1.000000e+000
    outer loop
      vertex  4.204714e-001  1.022796e-002  7.812500e-003
      vertex  3.275549e-001  1.022796e-002  7.812500e-003
      vertex  4.213816e-001  9.868421e-004  7.812500e-003
    endloop
  endfacet
  facet normal  0.000000e+000  0.000000e+000  1.000000e+000
    outer loop
      vertex  4.213816e-001  9.868421e-004  7.812500e-003
      vertex  3.275549e-001  1.022796e-002  7.812500e-003
      vertex  3.266447e-001  9.868421e-004  7.812500e-003
    endloop
  endfacet
  facet normal  -0.000000e+000  0.000000e+000  1.000000e+000
    outer loop
      vertex  4.213816e-001  9.868421e-004  7.812500e-003
      vertex  3.266447e-001  9.868421e-004  7.812500e-003
      vertex  4.204714e-001 -8.254278e-003  7.812500e-003
    endloop
  endfacet
  facet normal  0.000000e+000  0.000000e+000  1.000000e+000
    outer loop
      vertex  4.204714e-001 -8.254278e-003  7.812500e-003
      vertex  3.266447e-001  9.868421e-004  7.812500e-003
      vertex  3.275549e-001 -8.254278e-003  7.812500e-003
    endloop
  endfacet
  facet normal  -0.000000e+000  0.000000e+000  1.000000e+000
    outer loop
      vertex  4.204714e-001 -8.254278e-003  7.812500e-003
      vertex  3.275549e-001 -8.254278e-003  7.812500e-003
      vertex  3.302504e-001 -1.714027e-002  7.812500e-003
    endloop
  endfacet
  facet normal  0.000000e+000  -0.000000e+000 -1.000000e+000
    outer loop
      vertex  3.558860e-001  4.474956e-002  4.687500e-002
      vertex  3.647721e-001  4.744509e-002  4.687500e-002
      vertex  3.740132e-001  4.835526e-002  4.687500e-002
    endloop
  endfacet
  facet normal  0.000000e+000  -0.000000e+000 -9.999999e-001
    outer loop
      vertex  3.558860e-001  4.474956e-002  4.687500e-002
      vertex  3.740132e-001  4.835526e-002  4.687500e-002
      vertex  3.832543e-001  4.744509e-002  4.687500e-002
    endloop
  endfacet
  facet normal  0.000000e+000  0.000000e+000 -1.000000e+000
    outer loop
      vertex  3.921403e-001  4.474956e-002  4.687500e-002
      vertex  3.558860e-001  4.474956e-002  4.687500e-002
      vertex  3.832543e-001  4.744509e-002  4.687500e-002
    endloop
  endfacet
  facet normal  0.000000e+000  -0.000000e+000 -1.000000e+000
    outer loop
      vertex  3.476967e-001  4.037225e-002  4.687500e-002
      vertex  3.558860e-001  4.474956e-002  4.687500e-002
      vertex  3.921403e-001  4.474956e-002  4.687500e-002
    endloop
  endfacet
  facet normal  0.000000e+000  0.000000e+000 -1.000000e+000
    outer loop
      vertex  4.003296e-001  4.037225e-002  4.687500e-002
      vertex  3.476967e-001  4.037225e-002  4.687500e-002
      vertex  3.921403e-001  4.474956e-002  4.687500e-002
    endloop
  endfacet
  facet normal  0.000000e+000  -0.000000e+000 -1.000000e+000
    outer loop
      vertex  3.405186e-001  3.448137e-002  4.687500e-002
      vertex  3.476967e-001  4.037225e-002  4.687500e-002
      vertex  4.003296e-001  4.037225e-002  4.687500e-002
    endloop
  endfacet
  facet normal  0.000000e+000  0.000000e+000 -1.000000e+000
    outer loop
      vertex  4.075077e-001  3.448137e-002  4.687500e-002
      vertex  3.405186e-001  3.448137e-002  4.687500e-002
      vertex  4.003296e-001  4.037225e-002  4.687500e-002
    endloop
  endfacet
  facet normal  0.000000e+000  -0.000000e+000 -1.000000e+000
    outer loop
      vertex  3.346277e-001  2.730333e-002  4.687500e-002
      vertex  3.405186e-001  3.448137e-002  4.687500e-002
      vertex  4.075077e-001  3.448137e-002  4.687500e-002
    endloop
  endfacet
  facet normal  0.000000e+000  0.000000e+000 -1.000000e+000
    outer loop
      vertex  4.133986e-001  2.730333e-002  4.687500e-002
      vertex  3.346277e-001  2.730333e-002  4.687500e-002
      vertex  4.075077e-001  3.448137e-002  4.687500e-002
    endloop
  endfacet
  facet normal  0.000000e+000  -0.000000e+000 -1.000000e+000
    outer loop
      vertex  3.302504e-001  1.911395e-002  4.687500e-002
      vertex  3.346277e-001  2.730333e-002  4.687500e-002
      vertex  4.133986e-001  2.730333e-002  4.687500e-002
    endloop
  endfacet
  facet normal  0.000000e+000  0.000000e+000 -1.000000e+000
    outer loop
      vertex  4.177759e-001  1.911395e-002  4.687500e-002
      vertex  3.302504e-001  1.911395e-002  4.687500e-002
      vertex  4.133986e-001  2.730333e-002  4.687500e-002
    endloop
  endfacet
  facet normal  0.000000e+000  -0.000000e+000 -1.000000e+000
    outer loop
      vertex  3.275549e-001  1.022796e-002  4.687500e-002
      vertex  3.302504e-001  1.911395e-002  4.687500e-002
      vertex  4.177759e-001  1.911395e-002  4.687500e-002
    endloop
  endfacet
  facet normal  0.000000e+000  0.000000e+000 -1.000000e+000
    outer loop
      vertex  4.204714e-001  1.022796e-002  4.687500e-002
      vertex  3.275549e-001  1.022796e-002  4.687500e-002
      vertex  4.177759e-001  1.911395e-002  4.687500e-002
    endloop
  endfacet
  facet normal  0.000000e+000  0.000000e+000 -1.000000e+000
    outer loop
      vertex  4.177759e-001 -1.714027e-002  4.687500e-002
      vertex  3.302504e-001 -1.714027e-002  4.687500e-002
      vertex  4.204714e-001 -8.254278e-003  4.687500e-002
    endloop
  endfacet
  facet normal  0.000000e+000  0.000000e+000 -1.000000e+000
    outer loop
      vertex  3.346277e-001 -2.532964e-002  4.687500e-002
      vertex  3.302504e-001 -1.714027e-002  4.687500e-002
      vertex  4.177759e-001 -1.714027e-002  4.687500e-002
    endloop
  endfacet
  facet normal  0.000000e+000  0.000000e+000 -1.000000e+000
    outer loop
      vertex  4.133986e-001 -2.532964e-002  4.687500e-002
      vertex  3.346277e-001 -2.532964e-002  4.687500e-002
      vertex  4.177759e-001 -1.714027e-002  4.687500e-002
    endloop
  endfacet
  facet normal  0.000000e+000  0.000000e+000 -1.000000e+000
    outer loop
      vertex  3.405186e-001 -3.250769e-002  4.687500e-002
      vertex  3.346277e-001 -2.532964e-002  4.687500e-002
      vertex  4.133986e-001 -2.532964e-002  4.687500e-002
    endloop
  endfacet
  facet normal  0.000000e+000  0.000000e+000 -1.000000e+000
    outer loop
      vertex  4.075077e-001 -3.250769e-002  4.687500e-002
      vertex  3.405186e-001 -3.250769e-002  4.687500e-002
      vertex  4.133986e-001 -2.532964e-002  4.687500e-002
    endloop
  endfacet
  facet normal  0.000000e+000  0.000000e+000 -1.000000e+000
    outer loop
      vertex  3.476967e-001 -3.839856e-002  4.687500e-002
      vertex  3.405186e-001 -3.250769e-002  4.687500e-002
      vertex  4.075077e-001 -3.250769e-002  4.687500e-002
    endloop
  endfacet
  facet normal  0.000000e+000  0.000000e+000 -1.000000e+000
    outer loop
      vertex  4.003296e-001 -3.839856e-002  4.687500e-002
      vertex  3.476967e-001 -3.839856e-002  4.687500e-002
      vertex  4.075077e-001 -3.250769e-002  4.687500e-002
    endloop
  endfacet
  facet normal  0.000000e+000  0.000000e+000 -1.000000e+000
    outer loop
      vertex  3.558860e-001 -4.277587e-002  4.687500e-002
      vertex  3.476967e-001 -3.839856e-002  4.687500e-002
      vertex  4.003296e-001 -3.839856e-002  4.687500e-002
    endloop
  endfacet
  facet normal  0.000000e+000  0.000000e+000 -1.000000e+000
    outer loop
      vertex  3.921403e-001 -4.277587e-002  4.687500e-002
      vertex  3.558860e-001 -4.277587e-002  4.687500e-002
      vertex  4.003296e-001 -3.839856e-002  4.687500e-002
    endloop
  endfacet
  facet normal  0.000000e+000  0.000000e+000 -1.000000e+000
    outer loop
      vertex  3.647721e-001 -4.547141e-002  4.687500e-002
      vertex  3.558860e-001 -4.277587e-002  4.687500e-002
      vertex  3.921403e-001 -4.277587e-002  4.687500e-002
    endloop
  endfacet
  facet normal  0.000000e+000  0.000000e+000 -1.000000e+000
    outer loop
      vertex  3.740132e-001 -4.638158e-002  4.687500e-002
      vertex  3.647721e-001 -4.547141e-002  4.687500e-002
      vertex  3.921403e-001 -4.277587e-002  4.687500e-002
    endloop
  endfacet
  facet normal  0.000000e+000  0.000000e+000 -1.000000e+000
    outer loop
      vertex  3.832543e-001 -4.547141e-002  4.687500e-002
      vertex  3.740132e-001 -4.638158e-002  4.687500e-002
      vertex  3.921403e-001 -4.277587e-002  4.687500e-002
    endloop
  endfacet
  facet normal  0.000000e+000  0.000000e+000 -1.000000e+000
    outer loop
      vertex  3.302504e-001 -1.714027e-002  4.687500e-002
      vertex  3.275549e-001 -8.254278e-003  4.687500e-002
      vertex  4.204714e-001 -8.254278e-003  4.687500e-002
    endloop
  endfacet
  facet normal  0.000000e+000  0.000000e+000 -1.000000e+000
    outer loop
      vertex  4.204714e-001 -8.254278e-003  4.687500e-002
      vertex  3.275549e-001 -8.254278e-003  4.687500e-002
      vertex  3.266447e-001  9.868421e-004  4.687500e-002
    endloop
  endfacet
  facet normal  0.000000e+000  0.000000e+000 -1.000000e+000
    outer loop
      vertex  4.204714e-001 -8.254278e-003  4.687500e-002
      vertex  3.266447e-001  9.868421e-004  4.687500e-002
      vertex  4.213816e-001  9.868421e-004  4.687500e-002
    endloop
  endfacet
  facet normal  0.000000e+000  0.000000e+000 -1.000000e+000
    outer loop
      vertex  4.213816e-001  9.868421e-004  4.687500e-002
      vertex  3.266447e-001  9.868421e-004  4.687500e-002
      vertex  3.275549e-001  1.022796e-002  4.687500e-002
    endloop
  endfacet
  facet normal  0.000000e+000  0.000000e+000 -1.000000e+000
    outer loop
      vertex  4.213816e-001  9.868421e-004  4.687500e-002
      vertex  3.275549e-001  1.022796e-002  4.687500e-002
      vertex  4.204714e-001  1.022796e-002  4.687500e-002
    endloop
  endfacet
  facet normal  -0.000000e+000  0.000000e+000  1.000000e+000
    outer loop
      vertex  3.740132e-001  4.835526e-002  5.468750e-002
      vertex  3.647721e-001  4.744509e-002  5.468750e-002
      vertex  3.558860e-001  4.474956e-002  5.468750e-002
    endloop
  endfacet
  facet normal  0.000000e+000  0.000000e+000  9.999999e-001
    outer loop
      vertex  3.832543e-001  4.744509e-002  5.468750e-002
      vertex  3.740132e-001  4.835526e-002  5.468750e-002
      vertex  3.558860e-001  4.474956e-002  5.468750e-002
    endloop
  endfacet
  facet normal  0.000000e+000  0.000000e+000  1.000000e+000
    outer loop
      vertex  3.832543e-001  4.744509e-002  5.468750e-002
      vertex  3.558860e-001  4.474956e-002  5.468750e-002
      vertex  3.921403e-001  4.474956e-002  5.468750e-002
    endloop
  endfacet
  facet normal  -0.000000e+000  0.000000e+000  1.000000e+000
    outer loop
      vertex  3.921403e-001  4.474956e-002  5.468750e-002
      vertex  3.558860e-001  4.474956e-002  5.468750e-002
      vertex  3.476967e-001  4.037225e-002  5.468750e-002
    endloop
  endfacet
  facet normal  0.000000e+000  0.000000e+000  1.000000e+000
    outer loop
      vertex  3.921403e-001  4.474956e-002  5.468750e-002
      vertex  3.476967e-001  4.037225e-002  5.468750e-002
      vertex  4.003296e-001  4.037225e-002  5.468750e-002
    endloop
  endfacet
  facet normal  -0.000000e+000  0.000000e+000  1.000000e+000
    outer loop
      vertex  4.003296e-001  4.037225e-002  5.468750e-002
      vertex  3.476967e-001  4.037225e-002  5.468750e-002
      vertex  3.405186e-001  3.448137e-002  5.468750e-002
    endloop
  endfacet
  facet normal  0.000000e+000  0.000000e+000  1.000000e+000
    outer loop
      vertex  4.003296e-001  4.037225e-002  5.468750e-002
      vertex  3.405186e-001  3.448137e-002  5.468750e-002
      vertex  4.075077e-001  3.448137e-002  5.468750e-002
    endloop
  endfacet
  facet normal  -0.000000e+000  0.000000e+000  1.000000e+000
    outer loop
      vertex  4.075077e-001  3.448137e-002  5.468750e-002
      vertex  3.405186e-001  3.448137e-002  5.468750e-002
      vertex  3.346277e-001  2.730333e-002  5.468750e-002
    endloop
  endfacet
  facet normal  0.000000e+000  0.000000e+000  1.000000e+000
    outer loop
      vertex  4.075077e-001  3.448137e-002  5.468750e-002
      vertex  3.346277e-001  2.730333e-002  5.468750e-002
      vertex  4.133986e-001  2.730333e-002  5.468750e-002
    endloop
  endfacet
  facet normal  -0.000000e+000  0.000000e+000  1.000000e+000
    outer loop
      vertex  4.133986e-001  2.730333e-002  5.468750e-002
      vertex  3.346277e-001  2.730333e-002  5.468750e-002
      vertex  3.302504e-001  1.911395e-002  5.468750e-002
    endloop
  endfacet
  facet normal  0.000000e+000  0.000000e+000  1.000000e+000
    outer loop
      vertex  4.133986e-001  2.730333e-002  5.468750e-002
      vertex  3.302504e-001  1.911395e-002  5.468750e-002
      vertex  4.177759e-001  1.911395e-002  5.468750e-002
    endloop
  endfacet
  facet normal  -0.000000e+000  0.000000e+000  1.000000e+000
    outer loop
      vertex  4.177759e-001  1.911395e-002  5.468750e-002
      vertex  3.302504e-001  1.911395e-002  5.468750e-002
      vertex  3.275549e-001  1.022796e-002  5.468750e-002
    endloop
  endfacet
  facet normal  0.000000e+000  0.000000e+000  1.000000e+000
    outer loop
      vertex  4.177759e-001  1.911395e-002  5.468750e-002
      vertex  3.275549e-001  1.022796e-002  5.468750e-002
      vertex  4.204714e-001  1.022796e-002  5.468750e-002
    endloop
  endfacet
  facet normal  0.000000e+000  0.000000e+000  1.000000e+000
    outer loop
      vertex  4.204714e-001 -8.254278e-003  5.468750e-002
      vertex  3.302504e-001 -1.714027e-002  5.468750e-002
      vertex  4.177759e-001 -1.714027e-002  5.468750e-002
    endloop
  endfacet
  facet normal  -0.000000e+000  0.000000e+000  1.000000e+000
    outer loop
      vertex  4.177759e-001 -1.714027e-002  5.468750e-002
      vertex  3.302504e-001 -1.714027e-002  5.468750e-002
      vertex  3.346277e-001 -2.532964e-002  5.468750e-002
    endloop
  endfacet
  facet normal  0.000000e+000  0.000000e+000  1.000000e+000
    outer loop
      vertex  4.177759e-001 -1.714027e-002  5.468750e-002
      vertex  3.346277e-001 -2.532964e-002  5.468750e-002
      vertex  4.133986e-001 -2.532964e-002  5.468750e-002
    endloop
  endfacet
  facet normal  -0.000000e+000  0.000000e+000  1.000000e+000
    outer loop
      vertex  4.133986e-001 -2.532964e-002  5.468750e-002
      vertex  3.346277e-001 -2.532964e-002  5.468750e-002
      vertex  3.405186e-001 -3.250769e-002  5.468750e-002
    endloop
  endfacet
  facet normal  0.000000e+000  0.000000e+000  1.000000e+000
    outer loop
      vertex  4.133986e-001 -2.532964e-002  5.468750e-002
      vertex  3.405186e-001 -3.250769e-002  5.468750e-002
      vertex  4.075077e-001 -3.250769e-002  5.468750e-002
    endloop
  endfacet
  facet normal  -0.000000e+000  0.000000e+000  1.000000e+000
    outer loop
      vertex  4.075077e-001 -3.250769e-002  5.468750e-002
      vertex  3.405186e-001 -3.250769e-002  5.468750e-002
      vertex  3.476967e-001 -3.839856e-002  5.468750e-002
    endloop
  endfacet
  facet normal  0.000000e+000  0.000000e+000  1.000000e+000
    outer loop
      vertex  4.075077e-001 -3.250769e-002  5.468750e-002
      vertex  3.476967e-001 -3.839856e-002  5.468750e-002
      vertex  4.003296e-001 -3.839856e-002  5.468750e-002
    endloop
  endfacet
  facet normal  -0.000000e+000  0.000000e+000  1.000000e+000
    outer loop
      vertex  4.003296e-001 -3.839856e-002  5.468750e-002
      vertex  3.476967e-001 -3.839856e-002  5.468750e-002
      vertex  3.558860e-001 -4.277587e-002  5.468750e-002
    endloop
  endfacet
  facet normal  0.000000e+000  0.000000e+000  1.000000e+000
    outer loop
      vertex  4.003296e-001 -3.839856e-002  5.468750e-002
      vertex  3.558860e-001 -4.277587e-002  5.468750e-002
      vertex  3.921403e-001 -4.277587e-002  5.468750e-002
    endloop
  endfacet
  facet normal  -0.000000e+000  0.000000e+000  1.000000e+000
    outer loop
      vertex  3.921403e-001 -4.277587e-002  5.468750e-002
      vertex  3.558860e-001 -4.277587e-002  5.468750e-002
      vertex  3.647721e-001 -4.547141e-002  5.468750e-002
    endloop
  endfacet
  facet normal  -0.000000e+000  0.000000e+000  1.000000e+000
    outer loop
      vertex  3.921403e-001 -4.277587e-002  5.468750e-002
      vertex  3.647721e-001 -4.547141e-002  5.468750e-002
      vertex  3.740132e-001 -4.638158e-002  5.468750e-002
    endloop
  endfacet
  facet normal  0.000000e+000  0.000000e+000  1.000000e+000
    outer loop
      vertex  3.921403e-001 -4.277587e-002  5.468750e-002
      vertex  3.740132e-001 -4.638158e-002  5.468750e-002
      vertex  3.832543e-001 -4.547141e-002  5.468750e-002
    endloop
  endfacet
  facet normal  -0.000000e+000  0.000000e+000  1.000000e+000
    outer loop
      vertex  4.204714e-001  1.022796e-002  5.468750e-002
      vertex  3.275549e-001  1.022796e-002  5.468750e-002
      vertex  4.213816e-001  9.868421e-004  5.468750e-002
    endloop
  endfacet
  facet normal  0.000000e+000  0.000000e+000  1.000000e+000
    outer loop
      vertex  4.213816e-001  9.868421e-004  5.468750e-002
      vertex  3.275549e-001  1.022796e-002  5.468750e-002
      vertex  3.266447e-001  9.868421e-004  5.468750e-002
    endloop
  endfacet
  facet normal  -0.000000e+000  0.000000e+000  1.000000e+000
    outer loop
      vertex  4.213816e-001  9.868421e-004  5.468750e-002
      vertex  3.266447e-001  9.868421e-004  5.468750e-002
      vertex  4.204714e-001 -8.254278e-003  5.468750e-002
    endloop
  endfacet
  facet normal  0.000000e+000  0.000000e+000  1.000000e+000
    outer loop
      vertex  4.204714e-001 -8.254278e-003  5.468750e-002
      vertex  3.266447e-001  9.868421e-004  5.468750e-002
      vertex  3.275549e-001 -8.254278e-003  5.468750e-002
    endloop
  endfacet
  facet normal  -0.000000e+000  0.000000e+000  1.000000e+000
    outer loop
      vertex  4.204714e-001 -8.254278e-003  5.468750e-002
      vertex  3.275549e-001 -8.254278e-003  5.468750e-002
      vertex  3.302504e-001 -1.714027e-002  5.468750e-002
    endloop
  endfacet
  facet normal  0.000000e+000  -0.000000e+000 -1.000000e+000
    outer loop
      vertex  3.558860e-001  4.474956e-002  0.000000e+000
      vertex  3.647721e-001  4.744509e-002  0.000000e+000
      vertex  3.740132e-001  4.835526e-002  0.000000e+000
    endloop
  endfacet
  facet normal  0.000000e+000  -0.000000e+000 -9.999999e-001
    outer loop
      vertex  3.558860e-001  4.474956e-002  0.000000e+000
      vertex  3.740132e-001  4.835526e-002  0.000000e+000
      vertex  3.832543e-001  4.744509e-002  0.000000e+000
    endloop
  endfacet
  facet normal  0.000000e+000  0.000000e+000 -1.000000e+000
    outer loop
      vertex  3.921403e-001  4.474956e-002  0.000000e+000
      vertex  3.558860e-001  4.474956e-002  0.000000e+000
      vertex  3.832543e-001  4.744509e-002  0.000000e+000
    endloop
  endfacet
  facet normal  0.000000e+000  -0.000000e+000 -1.000000e+000
    outer loop
      vertex  3.476967e-001  4.037225e-002  0.000000e+000
      vertex  3.558860e-001  4.474956e-002  0.000000e+000
      vertex  3.921403e-001  4.474956e-002  0.000000e+000
    endloop
  endfacet
  facet normal  0.000000e+000  0.000000e+000 -1.000000e+000
    outer loop
      vertex  4.003296e-001  4.037225e-002  0.000000e+000
      vertex  3.476967e-001  4.037225e-002  0.000000e+000
      vertex  3.921403e-001  4.474956e-002  0.000000e+000
    endloop
  endfacet
  facet normal  0.000000e+000  -0.000000e+000 -1.000000e+000
    outer loop
      vertex  3.405186e-001  3.448137e-002  0.000000e+000
      vertex  3.476967e-001  4.037225e-002  0.000000e+000
      vertex  4.003296e-001  4.037225e-002  0.000000e+000
    endloop
  endfacet
  facet normal  0.000000e+000  0.000000e+000 -1.000000e+000
    outer loop
      vertex  4.075077e-001  3.448137e-002  0.000000e+000
      vertex  3.405186e-001  3.448137e-002  0.000000e+000
      vertex  4.003296e-001  4.037225e-002  0.000000e+000
    endloop
  endfacet
  facet normal  0.000000e+000  -0.000000e+000 -1.000000e+000
    outer loop
      vertex  3.346277e-001  2.730333e-002  0.000000e+000
      vertex  3.405186e-001  3.448137e-002  0.000000e+000
      vertex  4.075077e-001  3.448137e-002  0.000000e+000
    endloop
  endfacet
  facet normal  0.000000e+000  0.000000e+000 -1.000000e+000
    outer loop
      vertex  4.133986e-001  2.730333e-002  0.000000e+000
      vertex  3.346277e-001  2.730333e-002  0.000000e+000
      vertex  4.075077e-001  3.448137e-002  0.000000e+000
    endloop
  endfacet
  facet normal  0.000000e+000  -0.000000e+000 -1.000000e+000
    outer loop
      vertex  3.302504e-001  1.911395e-002  0.000000e+000
      vertex  3.346277e-001  2.730333e-002  0.000000e+000
      vertex  4.133986e-001  2.730333e-002  0.000000e+000
    endloop
  endfacet
  facet normal  0.000000e+000  0.000000e+000 -1.000000e+000
    outer loop
      vertex  4.177759e-001  1.911395e-002  0.000000e+000
      vertex  3.302504e-001  1.911395e-002  0.000000e+000
      vertex  4.133986e-001  2.730333e-002  0.000000e+000
    endloop
  endfacet
  facet normal  0.000000e+000  -0.000000e+000 -1.000000e+000
    outer loop
      vertex  3.275549e-001  1.022796e-002  0.000000e+000
      vertex  3.302504e-001  1.911395e-002  0.000000e+000
      vertex  4.177759e-001  1.911395e-002  0.000000e+000
    endloop
  endfacet
  facet normal  0.000000e+000  0.000000e+000 -1.000000e+000
    outer loop
      vertex  4.204714e-001  1.022796e-002  0.000000e+000
      vertex  3.275549e-001  1.022796e-002  0.000000e+000
      vertex  4.177759e-001  1.911395e-002  0.000000e+000
    endloop
  endfacet
  facet normal  0.000000e+000  0.000000e+000 -1.000000e+000
    outer loop
      vertex  4.177759e-001 -1.714027e-002  0.000000e+000
      vertex  3.302504e-001 -1.714027e-002  0.000000e+000
      vertex  4.204714e-001 -8.254278e-003  0.000000e+000
    endloop
  endfacet
  facet normal  0.000000e+000  0.000000e+000 -1.000000e+000
    outer loop
      vertex  3.346277e-001 -2.532964e-002  0.000000e+000
      vertex  3.302504e-001 -1.714027e-002  0.000000e+000
      vertex  4.177759e-001 -1.714027e-002  0.000000e+000
    endloop
  endfacet
  facet normal  0.000000e+000  0.000000e+000 -1.000000e+000
    outer loop
      vertex  4.133986e-001 -2.532964e-002  0.000000e+000
      vertex  3.346277e-001 -2.532964e-002  0.000000e+000
      vertex  4.177759e-001 -1.714027e-002  0.000000e+000
    endloop
  endfacet
  facet normal  0.000000e+000  0.000000e+000 -1.000000e+000
    outer loop
      vertex  3.405186e-001 -3.250769e-002  0.000000e+000
      vertex  3.346277e-001 -2.532964e-002  0.000000e+000
      vertex  4.133986e-001 -2.532964e-002  0.000000e+000
    endloop
  endfacet
  facet normal  0.000000e+000  0.000000e+000 -1.000000e+000
    outer loop
      vertex  4.075077e-001 -3.250769e-002  0.000000e+000
      vertex  3.405186e-001 -3.250769e-002  0.000000e+000
      vertex  4.133986e-001 -2.532964e-002  0.000000e+000
    endloop
  endfacet
  facet normal  0.000000e+000  0.000000e+000 -1.000000e+000
    outer loop
      vertex  3.476967e-001 -3.839856e-002  0.000000e+000
      vertex  3.405186e-001 -3.250769e-002  0.000000e+000
      vertex  4.075077e-001 -3.250769e-002  0.000000e+000
    endloop
  endfacet
  facet normal  0.000000e+000  0.000000e+000 -1.000000e+000
    outer loop
      vertex  4.003296e-001 -3.839856e-002  0.000000e+000
      vertex  3.476967e-001 -3.839856e-002  0.000000e+000
      vertex  4.075077e-001 -3.250769e-002  0.000000e+000
    endloop
  endfacet
  facet normal  0.000000e+000  0.000000e+000 -1.000000e+000
    outer loop
      vertex  3.558860e-001 -4.277587e-002  0.000000e+000
      vertex  3.476967e-001 -3.839856e-002  0.000000e+000
      vertex  4.003296e-001 -3.839856e-002  0.000000e+000
    endloop
  endfacet
  facet normal  0.000000e+000  0.000000e+000 -1.000000e+000
    outer loop
      vertex  3.921403e-001 -4.277587e-002  0.000000e+000
      vertex  3.558860e-001 -4.277587e-002  0.000000e+000
      vertex  4.003296e-001 -3.839856e-002  0.000000e+000
    endloop
  endfacet
  facet normal  0.000000e+000  0.000000e+000 -1.000000e+000
    outer loop
      vertex  3.647721e-001 -4.547141e-002  0.000000e+000
      vertex  3.558860e-001 -4.277587e-002  0.000000e+000
      vertex  3.921403e-001 -4.277587e-002  0.000000e+000
    endloop
  endfacet
  facet normal  0.000000e+000  0.000000e+000 -1.000000e+000
    outer loop
      vertex  3.740132e-001 -4.638158e-002  0.000000e+000
      vertex  3.647721e-001 -4.547141e-002  0.000000e+000
      vertex  3.921403e-001 -4.277587e-002  0.000000e+000
    endloop
  endfacet
  facet normal  0.000000e+000  0.000000e+000 -1.000000e+000
    outer loop
      vertex  3.832543e-001 -4.547141e-002  0.000000e+000
      vertex  3.740132e-001 -4.638158e-002  0.000000e+000
      vertex  3.921403e-001 -4.277587e-002  0.000000e+000
    endloop
  endfacet
  facet normal  0.000000e+000  0.000000e+000 -1.000000e+000
    outer loop
      vertex  3.302504e-001 -1.714027e-002  0.000000e+000
      vertex  3.275549e-001 -8.254278e-003  0.000000e+000
      vertex  4.204714e-001 -8.254278e-003  0.000000e+000
    endloop
  endfacet
  facet normal  0.000000e+000  0.000000e+000 -1.000000e+000
    outer loop
      vertex  4.204714e-001 -8.254278e-003  0.000000e+000
      vertex  3.275549e-001 -8.254278e-003  0.000000e+000
      vertex  3.266447e-001  9.868421e-004  0.000000e+000
    endloop
  endfacet
  facet normal  0.000000e+000  0.000000e+000 -1.000000e+000
    outer loop
      vertex  4.204714e-001 -8.254278e-003  0.000000e+000
      vertex  3.266447e-001  9.868421e-004  0.000000e+000
      vertex  4.213816e-001  9.868421e-004  0.000000e+000
    endloop
  endfacet
  facet normal  0.000000e+000  0.000000e+000 -1.000000e+000
    outer loop
      vertex  4.213816e-001  9.868421e-004  0.000000e+000
      vertex  3.266447e-001  9.868421e-004  0.000000e+000
      vertex  3.275549e-001  1.022796e-002  0.000000e+000
    endloop
  endfacet
  facet normal  0.000000e+000  0.000000e+000 -1.000000e+000
    outer loop
      vertex  4.213816e-001  9.868421e-004  0.000000e+000
      vertex  3.275549e-001  1.022796e-002  0.000000e+000
      vertex  4.204714e-001  1.022796e-002  0.000000e+000
    endloop
  endfacet
endsolid CATIA STL
