solid CATIA STL
  facet normal -5.551114e-017  1.000000e+000 -1.110223e-016
    outer loop
      vertex -2.841283e-001  1.253109e-017 -6.044408e-001
      vertex -2.841283e-001  1.545502e-016  6.747533e-001
      vertex  2.564967e-001  4.254181e-017 -6.044408e-001
    endloop
  endfacet
  facet normal -5.551116e-017  1.000000e+000 -1.110223e-016
    outer loop
      vertex  2.564967e-001  4.254181e-017 -6.044408e-001
      vertex -2.841283e-001  1.545502e-016  6.747533e-001
      vertex  2.564967e-001  1.845609e-016  6.747533e-001
    endloop
  endfacet
  facet normal  0.000000e+000  0.000000e+000  1.000000e+000
    outer loop
      vertex -2.841283e-001  1.545502e-016  6.747533e-001
      vertex -2.841283e-001 -2.109375e-001  6.747533e-001
      vertex  2.564967e-001  1.845609e-016  6.747533e-001
    endloop
  endfacet
  facet normal  0.000000e+000  0.000000e+000  1.000000e+000
    outer loop
      vertex  2.564967e-001  1.845609e-016  6.747533e-001
      vertex -2.841283e-001 -2.109375e-001  6.747533e-001
      vertex  2.877467e-001 -2.109375e-001  6.747533e-001
    endloop
  endfacet
  facet normal  0.000000e+000  -0.000000e+000  1.000000e+000
    outer loop
      vertex  2.564967e-001  1.845609e-016  6.747533e-001
      vertex  2.877467e-001 -2.109375e-001  6.747533e-001
      vertex  2.877467e-001 -7.812500e-003  6.747533e-001
    endloop
  endfacet
  facet normal  1.000000e+000  0.000000e+000  0.000000e+000
    outer loop
      vertex  2.877467e-001 -2.109375e-001 -6.044408e-001
      vertex  2.877467e-001 -7.812500e-003 -6.044408e-001
      vertex  2.877467e-001 -2.109375e-001  6.747533e-001
    endloop
  endfacet
  facet normal  1.000000e+000  -0.000000e+000  0.000000e+000
    outer loop
      vertex  2.877467e-001 -2.109375e-001  6.747533e-001
      vertex  2.877467e-001 -7.812500e-003 -6.044408e-001
      vertex  2.877467e-001 -7.812500e-003  6.747533e-001
    endloop
  endfacet
  facet normal  0.000000e+000  0.000000e+000 -1.000000e+000
    outer loop
      vertex -2.841283e-001 -2.109375e-001 -6.044408e-001
      vertex -2.841283e-001  1.253109e-017 -6.044408e-001
      vertex  2.877467e-001 -2.109375e-001 -6.044408e-001
    endloop
  endfacet
  facet normal  0.000000e+000  0.000000e+000 -1.000000e+000
    outer loop
      vertex  2.877467e-001 -2.109375e-001 -6.044408e-001
      vertex -2.841283e-001  1.253109e-017 -6.044408e-001
      vertex  2.564967e-001  4.254181e-017 -6.044408e-001
    endloop
  endfacet
  facet normal  0.000000e+000  0.000000e+000 -1.000000e+000
    outer loop
      vertex  2.877467e-001 -2.109375e-001 -6.044408e-001
      vertex  2.564967e-001  4.254181e-017 -6.044408e-001
      vertex  2.877467e-001 -7.812500e-003 -6.044408e-001
    endloop
  endfacet
  facet normal  2.425356e-001  9.701425e-001  0.000000e+000
    outer loop
      vertex  2.877467e-001 -7.812500e-003 -6.044408e-001
      vertex  2.564967e-001  4.254181e-017 -6.044408e-001
      vertex  2.877467e-001 -7.812500e-003  6.747533e-001
    endloop
  endfacet
  facet normal  2.425356e-001  9.701425e-001  0.000000e+000
    outer loop
      vertex  2.877467e-001 -7.812500e-003  6.747533e-001
      vertex  2.564967e-001  4.254181e-017 -6.044408e-001
      vertex  2.564967e-001  1.845609e-016  6.747533e-001
    endloop
  endfacet
  facet normal  0.000000e+000 -1.000000e+000  0.000000e+000
    outer loop
      vertex -2.841283e-001 -2.109375e-001 -6.044408e-001
      vertex  2.877467e-001 -2.109375e-001 -6.044408e-001
      vertex -2.841283e-001 -2.109375e-001  6.747533e-001
    endloop
  endfacet
  facet normal  0.000000e+000 -1.000000e+000  0.000000e+000
    outer loop
      vertex -2.841283e-001 -2.109375e-001  6.747533e-001
      vertex  2.877467e-001 -2.109375e-001 -6.044408e-001
      vertex  2.877467e-001 -2.109375e-001  6.747533e-001
    endloop
  endfacet
  facet normal -1.000000e+000  -0.000000e+000  0.000000e+000
    outer loop
      vertex -2.841283e-001 -2.109375e-001  6.747533e-001
      vertex -2.841283e-001  1.545502e-016  6.747533e-001
      vertex -2.841283e-001 -2.109375e-001 -6.044408e-001
    endloop
  endfacet
  facet normal -1.000000e+000  0.000000e+000  0.000000e+000
    outer loop
      vertex -2.841283e-001 -2.109375e-001 -6.044408e-001
      vertex -2.841283e-001  1.545502e-016  6.747533e-001
      vertex -2.841283e-001  1.253109e-017 -6.044408e-001
    endloop
  endfacet
endsolid CATIA STL
