solid CATIA STL
  facet normal -1.000000e+000  0.000000e+000 -5.551115e-017
    outer loop
      vertex  0.000000e+000 -7.500000e-001 -1.093750e-001
      vertex -1.096984e-017 -7.500000e-001  8.824013e-002
      vertex  5.098616e-033  7.500000e-001 -1.093750e-001
    endloop
  endfacet
  facet normal -1.000000e+000  0.000000e+000 -5.551115e-017
    outer loop
      vertex  5.098616e-033  7.500000e-001 -1.093750e-001
      vertex -1.096984e-017 -7.500000e-001  8.824013e-002
      vertex -1.096984e-017  7.500000e-001  8.824013e-002
    endloop
  endfacet
  facet normal  0.000000e+000 -9.999999e-001  0.000000e+000
    outer loop
      vertex  0.000000e+000 -7.500000e-001 -1.093750e-001
      vertex  5.468750e-002 -7.500000e-001 -1.093750e-001
      vertex -1.096984e-017 -7.500000e-001  8.824013e-002
    endloop
  endfacet
  facet normal  0.000000e+000 -1.000000e+000  0.000000e+000
    outer loop
      vertex -1.096984e-017 -7.500000e-001  8.824013e-002
      vertex  5.468750e-002 -7.500000e-001 -1.093750e-001
      vertex  5.468750e-002 -7.500000e-001  1.116776e-001
    endloop
  endfacet
  facet normal  -0.000000e+000 -1.000000e+000  0.000000e+000
    outer loop
      vertex -1.096984e-017 -7.500000e-001  8.824013e-002
      vertex  5.468750e-002 -7.500000e-001  1.116776e-001
      vertex  7.812500e-003 -7.500000e-001  1.116776e-001
    endloop
  endfacet
  facet normal  -0.000000e+000  0.000000e+000  1.000000e+000
    outer loop
      vertex  5.468750e-002  7.500000e-001  1.116776e-001
      vertex  7.812500e-003  7.500000e-001  1.116776e-001
      vertex  5.468750e-002 -7.500000e-001  1.116776e-001
    endloop
  endfacet
  facet normal  0.000000e+000  0.000000e+000  1.000000e+000
    outer loop
      vertex  5.468750e-002 -7.500000e-001  1.116776e-001
      vertex  7.812500e-003  7.500000e-001  1.116776e-001
      vertex  7.812500e-003 -7.500000e-001  1.116776e-001
    endloop
  endfacet
  facet normal  0.000000e+000  1.000000e+000  0.000000e+000
    outer loop
      vertex  5.468750e-002  7.500000e-001 -1.093750e-001
      vertex  5.098616e-033  7.500000e-001 -1.093750e-001
      vertex  5.468750e-002  7.500000e-001  1.116776e-001
    endloop
  endfacet
  facet normal  0.000000e+000  9.999999e-001  0.000000e+000
    outer loop
      vertex  5.468750e-002  7.500000e-001  1.116776e-001
      vertex  5.098616e-033  7.500000e-001 -1.093750e-001
      vertex -1.096984e-017  7.500000e-001  8.824013e-002
    endloop
  endfacet
  facet normal  0.000000e+000  1.000000e+000  0.000000e+000
    outer loop
      vertex  5.468750e-002  7.500000e-001  1.116776e-001
      vertex -1.096984e-017  7.500000e-001  8.824013e-002
      vertex  7.812500e-003  7.500000e-001  1.116776e-001
    endloop
  endfacet
  facet normal -9.486833e-001  0.000000e+000  3.162278e-001
    outer loop
      vertex  7.812500e-003  7.500000e-001  1.116776e-001
      vertex -1.096984e-017  7.500000e-001  8.824013e-002
      vertex  7.812500e-003 -7.500000e-001  1.116776e-001
    endloop
  endfacet
  facet normal -9.486833e-001  0.000000e+000  3.162278e-001
    outer loop
      vertex  7.812500e-003 -7.500000e-001  1.116776e-001
      vertex -1.096984e-017  7.500000e-001  8.824013e-002
      vertex -1.096984e-017 -7.500000e-001  8.824013e-002
    endloop
  endfacet
  facet normal  1.000000e+000  0.000000e+000  0.000000e+000
    outer loop
      vertex  5.468750e-002 -7.500000e-001 -1.093750e-001
      vertex  5.468750e-002  7.500000e-001 -1.093750e-001
      vertex  5.468750e-002 -7.500000e-001  1.116776e-001
    endloop
  endfacet
  facet normal  1.000000e+000  -0.000000e+000  0.000000e+000
    outer loop
      vertex  5.468750e-002 -7.500000e-001  1.116776e-001
      vertex  5.468750e-002  7.500000e-001 -1.093750e-001
      vertex  5.468750e-002  7.500000e-001  1.116776e-001
    endloop
  endfacet
  facet normal  0.000000e+000  0.000000e+000 -1.000000e+000
    outer loop
      vertex  5.468750e-002 -7.500000e-001 -1.093750e-001
      vertex  0.000000e+000 -7.500000e-001 -1.093750e-001
      vertex  5.468750e-002  7.500000e-001 -1.093750e-001
    endloop
  endfacet
  facet normal  -0.000000e+000  0.000000e+000 -1.000000e+000
    outer loop
      vertex  5.468750e-002  7.500000e-001 -1.093750e-001
      vertex  0.000000e+000 -7.500000e-001 -1.093750e-001
      vertex  5.098616e-033  7.500000e-001 -1.093750e-001
    endloop
  endfacet
endsolid CATIA STL
