solid CATIA STL
  facet normal  0.000000e+000  -0.000000e+000  1.000000e+000
    outer loop
      vertex -4.025491e-001  2.697440e-001  2.656250e-001
      vertex -1.868196e-001  2.789799e-001  2.656250e-001
      vertex -1.288116e-001  3.099859e-001  2.656250e-001
    endloop
  endfacet
  facet normal  -0.000000e+000  0.000000e+000  1.000000e+000
    outer loop
      vertex  3.444703e-001  3.433189e-001  2.656250e-001
      vertex  6.504675e-002  3.290793e-001  2.656250e-001
      vertex  1.279892e-001  3.099859e-001  2.656250e-001
    endloop
  endfacet
  facet normal  0.000000e+000  -0.000000e+000  1.000000e+000
    outer loop
      vertex -4.111842e-004  3.355263e-001  2.656250e-001
      vertex  6.504675e-002  3.290793e-001  2.656250e-001
      vertex  3.444703e-001  3.433189e-001  2.656250e-001
    endloop
  endfacet
  facet normal  0.000000e+000  0.000000e+000  1.000000e+000
    outer loop
      vertex -4.111842e-004  3.355263e-001  2.656250e-001
      vertex  3.444703e-001  3.433189e-001  2.656250e-001
      vertex  2.708953e-001  4.037004e-001  2.656250e-001
    endloop
  endfacet
  facet normal  0.000000e+000  0.000000e+000  1.000000e+000
    outer loop
      vertex -4.111842e-004  3.355263e-001  2.656250e-001
      vertex  2.708953e-001  4.037004e-001  2.656250e-001
      vertex  1.869542e-001  4.485678e-001  2.656250e-001
    endloop
  endfacet
  facet normal  0.000000e+000  0.000000e+000  9.999999e-001
    outer loop
      vertex -4.111842e-004  3.355263e-001  2.656250e-001
      vertex  1.869542e-001  4.485678e-001  2.656250e-001
      vertex  9.587280e-002  4.761971e-001  2.656250e-001
    endloop
  endfacet
  facet normal  0.000000e+000  0.000000e+000  1.000000e+000
    outer loop
      vertex -4.111842e-004  3.355263e-001  2.656250e-001
      vertex  9.587280e-002  4.761971e-001  2.656250e-001
      vertex  1.151316e-003  4.855263e-001  2.656250e-001
    endloop
  endfacet
  facet normal  0.000000e+000  0.000000e+000  9.999999e-001
    outer loop
      vertex -4.111842e-004  3.355263e-001  2.656250e-001
      vertex  1.151316e-003  4.855263e-001  2.656250e-001
      vertex -9.357017e-002  4.761971e-001  2.656250e-001
    endloop
  endfacet
  facet normal  0.000000e+000  0.000000e+000  9.999999e-001
    outer loop
      vertex -4.111842e-004  3.355263e-001  2.656250e-001
      vertex -9.357017e-002  4.761971e-001  2.656250e-001
      vertex -1.846516e-001  4.485678e-001  2.656250e-001
    endloop
  endfacet
  facet normal  0.000000e+000  0.000000e+000  1.000000e+000
    outer loop
      vertex -4.111842e-004  3.355263e-001  2.656250e-001
      vertex -1.846516e-001  4.485678e-001  2.656250e-001
      vertex -2.685927e-001  4.037004e-001  2.656250e-001
    endloop
  endfacet
  facet normal  0.000000e+000  0.000000e+000  1.000000e+000
    outer loop
      vertex -4.111842e-004  3.355263e-001  2.656250e-001
      vertex -2.685927e-001  4.037004e-001  2.656250e-001
      vertex -3.421676e-001  3.433189e-001  2.656250e-001
    endloop
  endfacet
  facet normal  0.000000e+000  0.000000e+000  1.000000e+000
    outer loop
      vertex -3.421676e-001  3.433189e-001  2.656250e-001
      vertex -4.025491e-001  2.697440e-001  2.656250e-001
      vertex -1.288116e-001  3.099859e-001  2.656250e-001
    endloop
  endfacet
  facet normal  0.000000e+000  -0.000000e+000  9.999999e-001
    outer loop
      vertex -3.421676e-001  3.433189e-001  2.656250e-001
      vertex -1.288116e-001  3.099859e-001  2.656250e-001
      vertex -6.586912e-002  3.290793e-001  2.656250e-001
    endloop
  endfacet
  facet normal  0.000000e+000  -0.000000e+000  1.000000e+000
    outer loop
      vertex -3.421676e-001  3.433189e-001  2.656250e-001
      vertex -6.586912e-002  3.290793e-001  2.656250e-001
      vertex -4.111842e-004  3.355263e-001  2.656250e-001
    endloop
  endfacet
  facet normal  0.000000e+000  -0.000000e+000  1.000000e+000
    outer loop
      vertex -3.421676e-001 -3.433189e-001  2.656250e-001
      vertex -2.685927e-001 -4.037004e-001  2.656250e-001
      vertex -4.111842e-004 -3.355263e-001  2.656250e-001
    endloop
  endfacet
  facet normal  0.000000e+000  0.000000e+000  1.000000e+000
    outer loop
      vertex -3.421676e-001 -3.433189e-001  2.656250e-001
      vertex -4.111842e-004 -3.355263e-001  2.656250e-001
      vertex -6.586912e-002 -3.290793e-001  2.656250e-001
    endloop
  endfacet
  facet normal  0.000000e+000  0.000000e+000  9.999999e-001
    outer loop
      vertex -3.421676e-001 -3.433189e-001  2.656250e-001
      vertex -6.586912e-002 -3.290793e-001  2.656250e-001
      vertex -1.288116e-001 -3.099859e-001  2.656250e-001
    endloop
  endfacet
  facet normal  0.000000e+000  0.000000e+000  9.999999e-001
    outer loop
      vertex -3.421676e-001 -3.433189e-001  2.656250e-001
      vertex -1.288116e-001 -3.099859e-001  2.656250e-001
      vertex -1.868196e-001 -2.789799e-001  2.656250e-001
    endloop
  endfacet
  facet normal  0.000000e+000  0.000000e+000  1.000000e+000
    outer loop
      vertex -3.421676e-001 -3.433189e-001  2.656250e-001
      vertex -1.868196e-001 -2.789799e-001  2.656250e-001
      vertex -4.025491e-001 -2.697440e-001  2.656250e-001
    endloop
  endfacet
  facet normal  0.000000e+000  0.000000e+000  1.000000e+000
    outer loop
      vertex  3.444703e-001 -3.433189e-001  2.656250e-001
      vertex  4.048517e-001 -2.697440e-001  2.656250e-001
      vertex  1.859972e-001 -2.789799e-001  2.656250e-001
    endloop
  endfacet
  facet normal  0.000000e+000  0.000000e+000  1.000000e+000
    outer loop
      vertex  3.444703e-001 -3.433189e-001  2.656250e-001
      vertex  1.859972e-001 -2.789799e-001  2.656250e-001
      vertex  1.279892e-001 -3.099859e-001  2.656250e-001
    endloop
  endfacet
  facet normal  0.000000e+000  0.000000e+000  1.000000e+000
    outer loop
      vertex  3.444703e-001 -3.433189e-001  2.656250e-001
      vertex  1.279892e-001 -3.099859e-001  2.656250e-001
      vertex  6.504675e-002 -3.290793e-001  2.656250e-001
    endloop
  endfacet
  facet normal  0.000000e+000  0.000000e+000  1.000000e+000
    outer loop
      vertex  3.444703e-001 -3.433189e-001  2.656250e-001
      vertex  6.504675e-002 -3.290793e-001  2.656250e-001
      vertex -4.111842e-004 -3.355263e-001  2.656250e-001
    endloop
  endfacet
  facet normal  -0.000000e+000  0.000000e+000  1.000000e+000
    outer loop
      vertex -4.111842e-004 -3.355263e-001  2.656250e-001
      vertex -2.685927e-001 -4.037004e-001  2.656250e-001
      vertex -1.846516e-001 -4.485678e-001  2.656250e-001
    endloop
  endfacet
  facet normal  -0.000000e+000  0.000000e+000  9.999999e-001
    outer loop
      vertex -4.111842e-004 -3.355263e-001  2.656250e-001
      vertex -1.846516e-001 -4.485678e-001  2.656250e-001
      vertex -9.357017e-002 -4.761971e-001  2.656250e-001
    endloop
  endfacet
  facet normal  -0.000000e+000  0.000000e+000  9.999999e-001
    outer loop
      vertex -4.111842e-004 -3.355263e-001  2.656250e-001
      vertex -9.357017e-002 -4.761971e-001  2.656250e-001
      vertex  1.151316e-003 -4.855263e-001  2.656250e-001
    endloop
  endfacet
  facet normal  0.000000e+000  -0.000000e+000  1.000000e+000
    outer loop
      vertex -4.111842e-004 -3.355263e-001  2.656250e-001
      vertex  1.151316e-003 -4.855263e-001  2.656250e-001
      vertex  9.587280e-002 -4.761971e-001  2.656250e-001
    endloop
  endfacet
  facet normal  0.000000e+000  -0.000000e+000  9.999999e-001
    outer loop
      vertex -4.111842e-004 -3.355263e-001  2.656250e-001
      vertex  9.587280e-002 -4.761971e-001  2.656250e-001
      vertex  1.869542e-001 -4.485678e-001  2.656250e-001
    endloop
  endfacet
  facet normal  0.000000e+000  -0.000000e+000  1.000000e+000
    outer loop
      vertex -4.111842e-004 -3.355263e-001  2.656250e-001
      vertex  1.869542e-001 -4.485678e-001  2.656250e-001
      vertex  2.708953e-001 -4.037004e-001  2.656250e-001
    endloop
  endfacet
  facet normal  0.000000e+000  -0.000000e+000  1.000000e+000
    outer loop
      vertex -4.111842e-004 -3.355263e-001  2.656250e-001
      vertex  2.708953e-001 -4.037004e-001  2.656250e-001
      vertex  3.444703e-001 -3.433189e-001  2.656250e-001
    endloop
  endfacet
  facet normal  -0.000000e+000  0.000000e+000  1.000000e+000
    outer loop
      vertex -1.868196e-001  2.789799e-001  2.656250e-001
      vertex -4.025491e-001  2.697440e-001  2.656250e-001
      vertex -2.376641e-001  2.372529e-001  2.656250e-001
    endloop
  endfacet
  facet normal  0.000000e+000  0.000000e+000  9.999999e-001
    outer loop
      vertex -2.376641e-001  2.372529e-001  2.656250e-001
      vertex -4.025491e-001  2.697440e-001  2.656250e-001
      vertex -4.474165e-001  1.858029e-001  2.656250e-001
    endloop
  endfacet
  facet normal  0.000000e+000  0.000000e+000  9.999999e-001
    outer loop
      vertex -2.376641e-001  2.372529e-001  2.656250e-001
      vertex -4.474165e-001  1.858029e-001  2.656250e-001
      vertex -2.793911e-001  1.864084e-001  2.656250e-001
    endloop
  endfacet
  facet normal  -0.000000e+000  0.000000e+000  1.000000e+000
    outer loop
      vertex -2.793911e-001  1.864084e-001  2.656250e-001
      vertex -4.474165e-001  1.858029e-001  2.656250e-001
      vertex -3.103971e-001  1.284004e-001  2.656250e-001
    endloop
  endfacet
  facet normal  0.000000e+000  0.000000e+000  9.999999e-001
    outer loop
      vertex -3.103971e-001  1.284004e-001  2.656250e-001
      vertex -4.474165e-001  1.858029e-001  2.656250e-001
      vertex -4.750457e-001  9.472149e-002  2.656250e-001
    endloop
  endfacet
  facet normal  -0.000000e+000  0.000000e+000  1.000000e+000
    outer loop
      vertex -3.103971e-001  1.284004e-001  2.656250e-001
      vertex -4.750457e-001  9.472149e-002  2.656250e-001
      vertex -3.294905e-001  6.545794e-002  2.656250e-001
    endloop
  endfacet
  facet normal  0.000000e+000  0.000000e+000  1.000000e+000
    outer loop
      vertex -3.294905e-001  6.545794e-002  2.656250e-001
      vertex -4.750457e-001  9.472149e-002  2.656250e-001
      vertex -3.359375e-001  1.900924e-016  2.656250e-001
    endloop
  endfacet
  facet normal  0.000000e+000  0.000000e+000  1.000000e+000
    outer loop
      vertex -3.359375e-001  1.900924e-016  2.656250e-001
      vertex -4.750457e-001  9.472149e-002  2.656250e-001
      vertex -4.843750e-001  5.945786e-017  2.656250e-001
    endloop
  endfacet
  facet normal  -0.000000e+000  0.000000e+000  1.000000e+000
    outer loop
      vertex -3.359375e-001  1.900924e-016  2.656250e-001
      vertex -4.843750e-001  5.945786e-017  2.656250e-001
      vertex -3.294905e-001 -6.545794e-002  2.656250e-001
    endloop
  endfacet
  facet normal  0.000000e+000  0.000000e+000  1.000000e+000
    outer loop
      vertex -3.294905e-001 -6.545794e-002  2.656250e-001
      vertex -4.843750e-001  5.945786e-017  2.656250e-001
      vertex -4.750457e-001 -9.472149e-002  2.656250e-001
    endloop
  endfacet
  facet normal  -0.000000e+000  0.000000e+000  1.000000e+000
    outer loop
      vertex -3.294905e-001 -6.545794e-002  2.656250e-001
      vertex -4.750457e-001 -9.472149e-002  2.656250e-001
      vertex -3.103971e-001 -1.284004e-001  2.656250e-001
    endloop
  endfacet
  facet normal  0.000000e+000  0.000000e+000  9.999999e-001
    outer loop
      vertex -3.103971e-001 -1.284004e-001  2.656250e-001
      vertex -4.750457e-001 -9.472149e-002  2.656250e-001
      vertex -4.474165e-001 -1.858029e-001  2.656250e-001
    endloop
  endfacet
  facet normal  -0.000000e+000  0.000000e+000  1.000000e+000
    outer loop
      vertex -3.103971e-001 -1.284004e-001  2.656250e-001
      vertex -4.474165e-001 -1.858029e-001  2.656250e-001
      vertex -2.793911e-001 -1.864084e-001  2.656250e-001
    endloop
  endfacet
  facet normal  0.000000e+000  0.000000e+000  9.999999e-001
    outer loop
      vertex -2.793911e-001 -1.864084e-001  2.656250e-001
      vertex -4.474165e-001 -1.858029e-001  2.656250e-001
      vertex -2.376641e-001 -2.372529e-001  2.656250e-001
    endloop
  endfacet
  facet normal  0.000000e+000  0.000000e+000  9.999999e-001
    outer loop
      vertex -2.376641e-001 -2.372529e-001  2.656250e-001
      vertex -4.474165e-001 -1.858029e-001  2.656250e-001
      vertex -4.025491e-001 -2.697440e-001  2.656250e-001
    endloop
  endfacet
  facet normal  -0.000000e+000  0.000000e+000  1.000000e+000
    outer loop
      vertex -2.376641e-001 -2.372529e-001  2.656250e-001
      vertex -4.025491e-001 -2.697440e-001  2.656250e-001
      vertex -1.868196e-001 -2.789799e-001  2.656250e-001
    endloop
  endfacet
  facet normal  -0.000000e+000  0.000000e+000  1.000000e+000
    outer loop
      vertex  3.444703e-001  3.433189e-001  2.656250e-001
      vertex  1.279892e-001  3.099859e-001  2.656250e-001
      vertex  4.048517e-001  2.697440e-001  2.656250e-001
    endloop
  endfacet
  facet normal  0.000000e+000  0.000000e+000  1.000000e+000
    outer loop
      vertex  4.048517e-001  2.697440e-001  2.656250e-001
      vertex  1.279892e-001  3.099859e-001  2.656250e-001
      vertex  1.859972e-001  2.789799e-001  2.656250e-001
    endloop
  endfacet
  facet normal  0.000000e+000  0.000000e+000  1.000000e+000
    outer loop
      vertex  4.048517e-001  2.697440e-001  2.656250e-001
      vertex  1.859972e-001  2.789799e-001  2.656250e-001
      vertex  4.497191e-001  1.858029e-001  2.656250e-001
    endloop
  endfacet
  facet normal  0.000000e+000  0.000000e+000  1.000000e+000
    outer loop
      vertex  4.497191e-001  1.858029e-001  2.656250e-001
      vertex  1.859972e-001  2.789799e-001  2.656250e-001
      vertex  2.368418e-001  2.372529e-001  2.656250e-001
    endloop
  endfacet
  facet normal  0.000000e+000  0.000000e+000  1.000000e+000
    outer loop
      vertex  4.497191e-001  1.858029e-001  2.656250e-001
      vertex  2.368418e-001  2.372529e-001  2.656250e-001
      vertex  2.785687e-001  1.864084e-001  2.656250e-001
    endloop
  endfacet
  facet normal  0.000000e+000  0.000000e+000  1.000000e+000
    outer loop
      vertex  4.497191e-001  1.858029e-001  2.656250e-001
      vertex  2.785687e-001  1.864084e-001  2.656250e-001
      vertex  4.773484e-001  9.472149e-002  2.656250e-001
    endloop
  endfacet
  facet normal  0.000000e+000  0.000000e+000  9.999999e-001
    outer loop
      vertex  4.773484e-001  9.472149e-002  2.656250e-001
      vertex  2.785687e-001  1.864084e-001  2.656250e-001
      vertex  3.095747e-001  1.284004e-001  2.656250e-001
    endloop
  endfacet
  facet normal  0.000000e+000  0.000000e+000  9.999999e-001
    outer loop
      vertex  4.773484e-001  9.472149e-002  2.656250e-001
      vertex  3.095747e-001  1.284004e-001  2.656250e-001
      vertex  3.286681e-001  6.545794e-002  2.656250e-001
    endloop
  endfacet
  facet normal  -0.000000e+000  0.000000e+000  1.000000e+000
    outer loop
      vertex  4.773484e-001  9.472149e-002  2.656250e-001
      vertex  3.286681e-001  6.545794e-002  2.656250e-001
      vertex  4.866776e-001  0.000000e+000  2.656250e-001
    endloop
  endfacet
  facet normal  0.000000e+000  0.000000e+000  1.000000e+000
    outer loop
      vertex  4.866776e-001  0.000000e+000  2.656250e-001
      vertex  3.286681e-001  6.545794e-002  2.656250e-001
      vertex  3.351151e-001  0.000000e+000  2.656250e-001
    endloop
  endfacet
  facet normal  -0.000000e+000  0.000000e+000  9.999999e-001
    outer loop
      vertex  4.866776e-001  0.000000e+000  2.656250e-001
      vertex  3.351151e-001  0.000000e+000  2.656250e-001
      vertex  4.773484e-001 -9.472149e-002  2.656250e-001
    endloop
  endfacet
  facet normal  0.000000e+000  0.000000e+000  1.000000e+000
    outer loop
      vertex  4.773484e-001 -9.472149e-002  2.656250e-001
      vertex  3.351151e-001  0.000000e+000  2.656250e-001
      vertex  3.286681e-001 -6.545794e-002  2.656250e-001
    endloop
  endfacet
  facet normal  0.000000e+000  0.000000e+000  1.000000e+000
    outer loop
      vertex  4.773484e-001 -9.472149e-002  2.656250e-001
      vertex  3.286681e-001 -6.545794e-002  2.656250e-001
      vertex  4.497191e-001 -1.858029e-001  2.656250e-001
    endloop
  endfacet
  facet normal  0.000000e+000  0.000000e+000  1.000000e+000
    outer loop
      vertex  4.497191e-001 -1.858029e-001  2.656250e-001
      vertex  3.286681e-001 -6.545794e-002  2.656250e-001
      vertex  3.095747e-001 -1.284004e-001  2.656250e-001
    endloop
  endfacet
  facet normal  0.000000e+000  0.000000e+000  1.000000e+000
    outer loop
      vertex  4.497191e-001 -1.858029e-001  2.656250e-001
      vertex  3.095747e-001 -1.284004e-001  2.656250e-001
      vertex  2.785687e-001 -1.864084e-001  2.656250e-001
    endloop
  endfacet
  facet normal  -0.000000e+000  0.000000e+000  9.999999e-001
    outer loop
      vertex  4.497191e-001 -1.858029e-001  2.656250e-001
      vertex  2.785687e-001 -1.864084e-001  2.656250e-001
      vertex  4.048517e-001 -2.697440e-001  2.656250e-001
    endloop
  endfacet
  facet normal  0.000000e+000  0.000000e+000  1.000000e+000
    outer loop
      vertex  4.048517e-001 -2.697440e-001  2.656250e-001
      vertex  2.785687e-001 -1.864084e-001  2.656250e-001
      vertex  2.368418e-001 -2.372529e-001  2.656250e-001
    endloop
  endfacet
  facet normal  0.000000e+000  0.000000e+000  1.000000e+000
    outer loop
      vertex  4.048517e-001 -2.697440e-001  2.656250e-001
      vertex  2.368418e-001 -2.372529e-001  2.656250e-001
      vertex  1.859972e-001 -2.789799e-001  2.656250e-001
    endloop
  endfacet
  facet normal  9.951848e-001 -9.801719e-002  0.000000e+000
    outer loop
      vertex  3.351151e-001  0.000000e+000  2.656250e-001
      vertex  3.351151e-001  0.000000e+000  6.406250e-001
      vertex  3.286681e-001 -6.545794e-002  2.656250e-001
    endloop
  endfacet
  facet normal  9.951848e-001 -9.801719e-002  0.000000e+000
    outer loop
      vertex  3.286681e-001 -6.545794e-002  2.656250e-001
      vertex  3.351151e-001  0.000000e+000  6.406250e-001
      vertex  3.286681e-001 -6.545794e-002  6.406250e-001
    endloop
  endfacet
  facet normal  9.569404e-001 -2.902845e-001  0.000000e+000
    outer loop
      vertex  3.286681e-001 -6.545794e-002  2.656250e-001
      vertex  3.286681e-001 -6.545794e-002  6.406250e-001
      vertex  3.095747e-001 -1.284004e-001  2.656250e-001
    endloop
  endfacet
  facet normal  9.569404e-001 -2.902845e-001  0.000000e+000
    outer loop
      vertex  3.095747e-001 -1.284004e-001  2.656250e-001
      vertex  3.286681e-001 -6.545794e-002  6.406250e-001
      vertex  3.095747e-001 -1.284004e-001  6.406250e-001
    endloop
  endfacet
  facet normal  8.819211e-001 -4.713969e-001  0.000000e+000
    outer loop
      vertex  3.095747e-001 -1.284004e-001  2.656250e-001
      vertex  3.095747e-001 -1.284004e-001  6.406250e-001
      vertex  2.785687e-001 -1.864084e-001  2.656250e-001
    endloop
  endfacet
  facet normal  8.819211e-001 -4.713969e-001  0.000000e+000
    outer loop
      vertex  2.785687e-001 -1.864084e-001  2.656250e-001
      vertex  3.095747e-001 -1.284004e-001  6.406250e-001
      vertex  2.785687e-001 -1.864084e-001  6.406250e-001
    endloop
  endfacet
  facet normal  7.730106e-001 -6.343932e-001  0.000000e+000
    outer loop
      vertex  2.785687e-001 -1.864084e-001  2.656250e-001
      vertex  2.785687e-001 -1.864084e-001  6.406250e-001
      vertex  2.368418e-001 -2.372529e-001  2.656250e-001
    endloop
  endfacet
  facet normal  7.730106e-001 -6.343932e-001  0.000000e+000
    outer loop
      vertex  2.368418e-001 -2.372529e-001  2.656250e-001
      vertex  2.785687e-001 -1.864084e-001  6.406250e-001
      vertex  2.368418e-001 -2.372529e-001  6.406250e-001
    endloop
  endfacet
  facet normal  6.343932e-001 -7.730106e-001  0.000000e+000
    outer loop
      vertex  2.368418e-001 -2.372529e-001  2.656250e-001
      vertex  2.368418e-001 -2.372529e-001  6.406250e-001
      vertex  1.859972e-001 -2.789799e-001  2.656250e-001
    endloop
  endfacet
  facet normal  6.343932e-001 -7.730106e-001  0.000000e+000
    outer loop
      vertex  1.859972e-001 -2.789799e-001  2.656250e-001
      vertex  2.368418e-001 -2.372529e-001  6.406250e-001
      vertex  1.859972e-001 -2.789799e-001  6.406250e-001
    endloop
  endfacet
  facet normal  4.713969e-001 -8.819211e-001  0.000000e+000
    outer loop
      vertex  1.859972e-001 -2.789799e-001  2.656250e-001
      vertex  1.859972e-001 -2.789799e-001  6.406250e-001
      vertex  1.279892e-001 -3.099859e-001  2.656250e-001
    endloop
  endfacet
  facet normal  4.713969e-001 -8.819211e-001  0.000000e+000
    outer loop
      vertex  1.279892e-001 -3.099859e-001  2.656250e-001
      vertex  1.859972e-001 -2.789799e-001  6.406250e-001
      vertex  1.279892e-001 -3.099859e-001  6.406250e-001
    endloop
  endfacet
  facet normal  2.902845e-001 -9.569404e-001  0.000000e+000
    outer loop
      vertex  1.279892e-001 -3.099859e-001  2.656250e-001
      vertex  1.279892e-001 -3.099859e-001  6.406250e-001
      vertex  6.504675e-002 -3.290793e-001  2.656250e-001
    endloop
  endfacet
  facet normal  2.902845e-001 -9.569404e-001  0.000000e+000
    outer loop
      vertex  6.504675e-002 -3.290793e-001  2.656250e-001
      vertex  1.279892e-001 -3.099859e-001  6.406250e-001
      vertex  6.504675e-002 -3.290793e-001  6.406250e-001
    endloop
  endfacet
  facet normal  9.801719e-002 -9.951847e-001  0.000000e+000
    outer loop
      vertex  6.504675e-002 -3.290793e-001  2.656250e-001
      vertex  6.504675e-002 -3.290793e-001  6.406250e-001
      vertex -4.111842e-004 -3.355263e-001  2.656250e-001
    endloop
  endfacet
  facet normal  9.801719e-002 -9.951847e-001  0.000000e+000
    outer loop
      vertex -4.111842e-004 -3.355263e-001  2.656250e-001
      vertex  6.504675e-002 -3.290793e-001  6.406250e-001
      vertex -4.111842e-004 -3.355263e-001  6.406250e-001
    endloop
  endfacet
  facet normal -9.801719e-002 -9.951848e-001  -0.000000e+000
    outer loop
      vertex -4.111842e-004 -3.355263e-001  2.656250e-001
      vertex -4.111842e-004 -3.355263e-001  6.406250e-001
      vertex -6.586912e-002 -3.290793e-001  2.656250e-001
    endloop
  endfacet
  facet normal -9.801719e-002 -9.951848e-001  0.000000e+000
    outer loop
      vertex -6.586912e-002 -3.290793e-001  2.656250e-001
      vertex -4.111842e-004 -3.355263e-001  6.406250e-001
      vertex -6.586912e-002 -3.290793e-001  6.406250e-001
    endloop
  endfacet
  facet normal -2.902845e-001 -9.569404e-001  -0.000000e+000
    outer loop
      vertex -6.586912e-002 -3.290793e-001  2.656250e-001
      vertex -6.586912e-002 -3.290793e-001  6.406250e-001
      vertex -1.288116e-001 -3.099859e-001  2.656250e-001
    endloop
  endfacet
  facet normal -2.902845e-001 -9.569404e-001  0.000000e+000
    outer loop
      vertex -1.288116e-001 -3.099859e-001  2.656250e-001
      vertex -6.586912e-002 -3.290793e-001  6.406250e-001
      vertex -1.288116e-001 -3.099859e-001  6.406250e-001
    endloop
  endfacet
  facet normal -4.713970e-001 -8.819211e-001  -0.000000e+000
    outer loop
      vertex -1.288116e-001 -3.099859e-001  2.656250e-001
      vertex -1.288116e-001 -3.099859e-001  6.406250e-001
      vertex -1.868196e-001 -2.789799e-001  2.656250e-001
    endloop
  endfacet
  facet normal -4.713970e-001 -8.819211e-001  0.000000e+000
    outer loop
      vertex -1.868196e-001 -2.789799e-001  2.656250e-001
      vertex -1.288116e-001 -3.099859e-001  6.406250e-001
      vertex -1.868196e-001 -2.789799e-001  6.406250e-001
    endloop
  endfacet
  facet normal -6.343932e-001 -7.730106e-001  -0.000000e+000
    outer loop
      vertex -1.868196e-001 -2.789799e-001  2.656250e-001
      vertex -1.868196e-001 -2.789799e-001  6.406250e-001
      vertex -2.376641e-001 -2.372529e-001  2.656250e-001
    endloop
  endfacet
  facet normal -6.343932e-001 -7.730106e-001  0.000000e+000
    outer loop
      vertex -2.376641e-001 -2.372529e-001  2.656250e-001
      vertex -1.868196e-001 -2.789799e-001  6.406250e-001
      vertex -2.376641e-001 -2.372529e-001  6.406250e-001
    endloop
  endfacet
  facet normal -7.730106e-001 -6.343932e-001  -0.000000e+000
    outer loop
      vertex -2.376641e-001 -2.372529e-001  2.656250e-001
      vertex -2.376641e-001 -2.372529e-001  6.406250e-001
      vertex -2.793911e-001 -1.864084e-001  2.656250e-001
    endloop
  endfacet
  facet normal -7.730106e-001 -6.343932e-001  0.000000e+000
    outer loop
      vertex -2.793911e-001 -1.864084e-001  2.656250e-001
      vertex -2.376641e-001 -2.372529e-001  6.406250e-001
      vertex -2.793911e-001 -1.864084e-001  6.406250e-001
    endloop
  endfacet
  facet normal -8.819211e-001 -4.713969e-001  -0.000000e+000
    outer loop
      vertex -2.793911e-001 -1.864084e-001  2.656250e-001
      vertex -2.793911e-001 -1.864084e-001  6.406250e-001
      vertex -3.103971e-001 -1.284004e-001  2.656250e-001
    endloop
  endfacet
  facet normal -8.819211e-001 -4.713969e-001  0.000000e+000
    outer loop
      vertex -3.103971e-001 -1.284004e-001  2.656250e-001
      vertex -2.793911e-001 -1.864084e-001  6.406250e-001
      vertex -3.103971e-001 -1.284004e-001  6.406250e-001
    endloop
  endfacet
  facet normal -9.569404e-001 -2.902845e-001  -0.000000e+000
    outer loop
      vertex -3.103971e-001 -1.284004e-001  2.656250e-001
      vertex -3.103971e-001 -1.284004e-001  6.406250e-001
      vertex -3.294905e-001 -6.545794e-002  2.656250e-001
    endloop
  endfacet
  facet normal -9.569404e-001 -2.902845e-001  0.000000e+000
    outer loop
      vertex -3.294905e-001 -6.545794e-002  2.656250e-001
      vertex -3.103971e-001 -1.284004e-001  6.406250e-001
      vertex -3.294905e-001 -6.545794e-002  6.406250e-001
    endloop
  endfacet
  facet normal -9.951848e-001 -9.801719e-002  -0.000000e+000
    outer loop
      vertex -3.294905e-001 -6.545794e-002  2.656250e-001
      vertex -3.294905e-001 -6.545794e-002  6.406250e-001
      vertex -3.359375e-001  1.900924e-016  2.656250e-001
    endloop
  endfacet
  facet normal -9.951848e-001 -9.801719e-002  0.000000e+000
    outer loop
      vertex -3.359375e-001  1.900924e-016  2.656250e-001
      vertex -3.294905e-001 -6.545794e-002  6.406250e-001
      vertex -3.359375e-001  1.900924e-016  6.406250e-001
    endloop
  endfacet
  facet normal -9.951848e-001  9.801719e-002  0.000000e+000
    outer loop
      vertex -3.359375e-001  1.900924e-016  2.656250e-001
      vertex -3.359375e-001  1.900924e-016  6.406250e-001
      vertex -3.294905e-001  6.545794e-002  2.656250e-001
    endloop
  endfacet
  facet normal -9.951848e-001  9.801719e-002  0.000000e+000
    outer loop
      vertex -3.294905e-001  6.545794e-002  2.656250e-001
      vertex -3.359375e-001  1.900924e-016  6.406250e-001
      vertex -3.294905e-001  6.545794e-002  6.406250e-001
    endloop
  endfacet
  facet normal -9.569404e-001  2.902845e-001  0.000000e+000
    outer loop
      vertex -3.294905e-001  6.545794e-002  2.656250e-001
      vertex -3.294905e-001  6.545794e-002  6.406250e-001
      vertex -3.103971e-001  1.284004e-001  2.656250e-001
    endloop
  endfacet
  facet normal -9.569404e-001  2.902845e-001  0.000000e+000
    outer loop
      vertex -3.103971e-001  1.284004e-001  2.656250e-001
      vertex -3.294905e-001  6.545794e-002  6.406250e-001
      vertex -3.103971e-001  1.284004e-001  6.406250e-001
    endloop
  endfacet
  facet normal -8.819211e-001  4.713969e-001  0.000000e+000
    outer loop
      vertex -3.103971e-001  1.284004e-001  2.656250e-001
      vertex -3.103971e-001  1.284004e-001  6.406250e-001
      vertex -2.793911e-001  1.864084e-001  2.656250e-001
    endloop
  endfacet
  facet normal -8.819211e-001  4.713969e-001  0.000000e+000
    outer loop
      vertex -2.793911e-001  1.864084e-001  2.656250e-001
      vertex -3.103971e-001  1.284004e-001  6.406250e-001
      vertex -2.793911e-001  1.864084e-001  6.406250e-001
    endloop
  endfacet
  facet normal -7.730106e-001  6.343932e-001  0.000000e+000
    outer loop
      vertex -2.793911e-001  1.864084e-001  2.656250e-001
      vertex -2.793911e-001  1.864084e-001  6.406250e-001
      vertex -2.376641e-001  2.372529e-001  2.656250e-001
    endloop
  endfacet
  facet normal -7.730106e-001  6.343932e-001  0.000000e+000
    outer loop
      vertex -2.376641e-001  2.372529e-001  2.656250e-001
      vertex -2.793911e-001  1.864084e-001  6.406250e-001
      vertex -2.376641e-001  2.372529e-001  6.406250e-001
    endloop
  endfacet
  facet normal -6.343932e-001  7.730106e-001  0.000000e+000
    outer loop
      vertex -2.376641e-001  2.372529e-001  2.656250e-001
      vertex -2.376641e-001  2.372529e-001  6.406250e-001
      vertex -1.868196e-001  2.789799e-001  2.656250e-001
    endloop
  endfacet
  facet normal -6.343932e-001  7.730106e-001  0.000000e+000
    outer loop
      vertex -1.868196e-001  2.789799e-001  2.656250e-001
      vertex -2.376641e-001  2.372529e-001  6.406250e-001
      vertex -1.868196e-001  2.789799e-001  6.406250e-001
    endloop
  endfacet
  facet normal -4.713970e-001  8.819211e-001  0.000000e+000
    outer loop
      vertex -1.868196e-001  2.789799e-001  2.656250e-001
      vertex -1.868196e-001  2.789799e-001  6.406250e-001
      vertex -1.288116e-001  3.099859e-001  2.656250e-001
    endloop
  endfacet
  facet normal -4.713970e-001  8.819211e-001  0.000000e+000
    outer loop
      vertex -1.288116e-001  3.099859e-001  2.656250e-001
      vertex -1.868196e-001  2.789799e-001  6.406250e-001
      vertex -1.288116e-001  3.099859e-001  6.406250e-001
    endloop
  endfacet
  facet normal -2.902845e-001  9.569404e-001  0.000000e+000
    outer loop
      vertex -1.288116e-001  3.099859e-001  2.656250e-001
      vertex -1.288116e-001  3.099859e-001  6.406250e-001
      vertex -6.586912e-002  3.290793e-001  2.656250e-001
    endloop
  endfacet
  facet normal -2.902845e-001  9.569404e-001  0.000000e+000
    outer loop
      vertex -6.586912e-002  3.290793e-001  2.656250e-001
      vertex -1.288116e-001  3.099859e-001  6.406250e-001
      vertex -6.586912e-002  3.290793e-001  6.406250e-001
    endloop
  endfacet
  facet normal -9.801719e-002  9.951848e-001  0.000000e+000
    outer loop
      vertex -6.586912e-002  3.290793e-001  2.656250e-001
      vertex -6.586912e-002  3.290793e-001  6.406250e-001
      vertex -4.111842e-004  3.355263e-001  2.656250e-001
    endloop
  endfacet
  facet normal -9.801719e-002  9.951848e-001  0.000000e+000
    outer loop
      vertex -4.111842e-004  3.355263e-001  2.656250e-001
      vertex -6.586912e-002  3.290793e-001  6.406250e-001
      vertex -4.111842e-004  3.355263e-001  6.406250e-001
    endloop
  endfacet
  facet normal  9.801719e-002  9.951847e-001  0.000000e+000
    outer loop
      vertex -4.111842e-004  3.355263e-001  2.656250e-001
      vertex -4.111842e-004  3.355263e-001  6.406250e-001
      vertex  6.504675e-002  3.290793e-001  2.656250e-001
    endloop
  endfacet
  facet normal  9.801719e-002  9.951847e-001  -0.000000e+000
    outer loop
      vertex  6.504675e-002  3.290793e-001  2.656250e-001
      vertex -4.111842e-004  3.355263e-001  6.406250e-001
      vertex  6.504675e-002  3.290793e-001  6.406250e-001
    endloop
  endfacet
  facet normal  2.902845e-001  9.569404e-001  0.000000e+000
    outer loop
      vertex  6.504675e-002  3.290793e-001  2.656250e-001
      vertex  6.504675e-002  3.290793e-001  6.406250e-001
      vertex  1.279892e-001  3.099859e-001  2.656250e-001
    endloop
  endfacet
  facet normal  2.902845e-001  9.569404e-001  -0.000000e+000
    outer loop
      vertex  1.279892e-001  3.099859e-001  2.656250e-001
      vertex  6.504675e-002  3.290793e-001  6.406250e-001
      vertex  1.279892e-001  3.099859e-001  6.406250e-001
    endloop
  endfacet
  facet normal  4.713969e-001  8.819211e-001  0.000000e+000
    outer loop
      vertex  1.279892e-001  3.099859e-001  2.656250e-001
      vertex  1.279892e-001  3.099859e-001  6.406250e-001
      vertex  1.859972e-001  2.789799e-001  2.656250e-001
    endloop
  endfacet
  facet normal  4.713969e-001  8.819211e-001  -0.000000e+000
    outer loop
      vertex  1.859972e-001  2.789799e-001  2.656250e-001
      vertex  1.279892e-001  3.099859e-001  6.406250e-001
      vertex  1.859972e-001  2.789799e-001  6.406250e-001
    endloop
  endfacet
  facet normal  6.343932e-001  7.730106e-001  0.000000e+000
    outer loop
      vertex  1.859972e-001  2.789799e-001  2.656250e-001
      vertex  1.859972e-001  2.789799e-001  6.406250e-001
      vertex  2.368418e-001  2.372529e-001  2.656250e-001
    endloop
  endfacet
  facet normal  6.343932e-001  7.730106e-001  -0.000000e+000
    outer loop
      vertex  2.368418e-001  2.372529e-001  2.656250e-001
      vertex  1.859972e-001  2.789799e-001  6.406250e-001
      vertex  2.368418e-001  2.372529e-001  6.406250e-001
    endloop
  endfacet
  facet normal  7.730106e-001  6.343932e-001  0.000000e+000
    outer loop
      vertex  2.368418e-001  2.372529e-001  2.656250e-001
      vertex  2.368418e-001  2.372529e-001  6.406250e-001
      vertex  2.785687e-001  1.864084e-001  2.656250e-001
    endloop
  endfacet
  facet normal  7.730106e-001  6.343932e-001  -0.000000e+000
    outer loop
      vertex  2.785687e-001  1.864084e-001  2.656250e-001
      vertex  2.368418e-001  2.372529e-001  6.406250e-001
      vertex  2.785687e-001  1.864084e-001  6.406250e-001
    endloop
  endfacet
  facet normal  8.819211e-001  4.713969e-001  0.000000e+000
    outer loop
      vertex  2.785687e-001  1.864084e-001  2.656250e-001
      vertex  2.785687e-001  1.864084e-001  6.406250e-001
      vertex  3.095747e-001  1.284004e-001  2.656250e-001
    endloop
  endfacet
  facet normal  8.819211e-001  4.713969e-001  -0.000000e+000
    outer loop
      vertex  3.095747e-001  1.284004e-001  2.656250e-001
      vertex  2.785687e-001  1.864084e-001  6.406250e-001
      vertex  3.095747e-001  1.284004e-001  6.406250e-001
    endloop
  endfacet
  facet normal  9.569404e-001  2.902845e-001  0.000000e+000
    outer loop
      vertex  3.095747e-001  1.284004e-001  2.656250e-001
      vertex  3.095747e-001  1.284004e-001  6.406250e-001
      vertex  3.286681e-001  6.545794e-002  2.656250e-001
    endloop
  endfacet
  facet normal  9.569404e-001  2.902845e-001  -0.000000e+000
    outer loop
      vertex  3.286681e-001  6.545794e-002  2.656250e-001
      vertex  3.095747e-001  1.284004e-001  6.406250e-001
      vertex  3.286681e-001  6.545794e-002  6.406250e-001
    endloop
  endfacet
  facet normal  9.951848e-001  9.801719e-002  0.000000e+000
    outer loop
      vertex  3.286681e-001  6.545794e-002  2.656250e-001
      vertex  3.286681e-001  6.545794e-002  6.406250e-001
      vertex  3.351151e-001  0.000000e+000  2.656250e-001
    endloop
  endfacet
  facet normal  9.951848e-001  9.801719e-002  -0.000000e+000
    outer loop
      vertex  3.351151e-001  0.000000e+000  2.656250e-001
      vertex  3.286681e-001  6.545794e-002  6.406250e-001
      vertex  3.351151e-001  0.000000e+000  6.406250e-001
    endloop
  endfacet
  facet normal  0.000000e+000  0.000000e+000  1.000000e+000
    outer loop
      vertex -6.586912e-002  3.290793e-001  6.406250e-001
      vertex  6.504675e-002  3.290793e-001  6.406250e-001
      vertex -4.111842e-004  3.355263e-001  6.406250e-001
    endloop
  endfacet
  facet normal  -0.000000e+000  0.000000e+000  1.000000e+000
    outer loop
      vertex  6.504675e-002  3.290793e-001  6.406250e-001
      vertex -6.586912e-002  3.290793e-001  6.406250e-001
      vertex  1.279892e-001  3.099859e-001  6.406250e-001
    endloop
  endfacet
  facet normal  0.000000e+000  0.000000e+000  1.000000e+000
    outer loop
      vertex  1.279892e-001  3.099859e-001  6.406250e-001
      vertex -6.586912e-002  3.290793e-001  6.406250e-001
      vertex -1.288116e-001  3.099859e-001  6.406250e-001
    endloop
  endfacet
  facet normal  -0.000000e+000  0.000000e+000  1.000000e+000
    outer loop
      vertex  1.279892e-001  3.099859e-001  6.406250e-001
      vertex -1.288116e-001  3.099859e-001  6.406250e-001
      vertex  1.859972e-001  2.789799e-001  6.406250e-001
    endloop
  endfacet
  facet normal  0.000000e+000  0.000000e+000  1.000000e+000
    outer loop
      vertex  1.859972e-001  2.789799e-001  6.406250e-001
      vertex -1.288116e-001  3.099859e-001  6.406250e-001
      vertex -1.868196e-001  2.789799e-001  6.406250e-001
    endloop
  endfacet
  facet normal  -0.000000e+000  0.000000e+000  9.999999e-001
    outer loop
      vertex  1.859972e-001  2.789799e-001  6.406250e-001
      vertex -1.868196e-001  2.789799e-001  6.406250e-001
      vertex  2.368418e-001  2.372529e-001  6.406250e-001
    endloop
  endfacet
  facet normal  0.000000e+000  0.000000e+000  1.000000e+000
    outer loop
      vertex  2.368418e-001  2.372529e-001  6.406250e-001
      vertex -1.868196e-001  2.789799e-001  6.406250e-001
      vertex -2.376641e-001  2.372529e-001  6.406250e-001
    endloop
  endfacet
  facet normal  -0.000000e+000  0.000000e+000  1.000000e+000
    outer loop
      vertex  2.368418e-001  2.372529e-001  6.406250e-001
      vertex -2.376641e-001  2.372529e-001  6.406250e-001
      vertex  2.785687e-001  1.864084e-001  6.406250e-001
    endloop
  endfacet
  facet normal  0.000000e+000  0.000000e+000  9.999999e-001
    outer loop
      vertex  2.785687e-001  1.864084e-001  6.406250e-001
      vertex -2.376641e-001  2.372529e-001  6.406250e-001
      vertex -2.793911e-001  1.864084e-001  6.406250e-001
    endloop
  endfacet
  facet normal  -0.000000e+000  0.000000e+000  1.000000e+000
    outer loop
      vertex  2.785687e-001  1.864084e-001  6.406250e-001
      vertex -2.793911e-001  1.864084e-001  6.406250e-001
      vertex  3.095747e-001  1.284004e-001  6.406250e-001
    endloop
  endfacet
  facet normal  0.000000e+000  0.000000e+000  1.000000e+000
    outer loop
      vertex  3.095747e-001  1.284004e-001  6.406250e-001
      vertex -2.793911e-001  1.864084e-001  6.406250e-001
      vertex -3.103971e-001  1.284004e-001  6.406250e-001
    endloop
  endfacet
  facet normal  -0.000000e+000  0.000000e+000  1.000000e+000
    outer loop
      vertex  3.095747e-001  1.284004e-001  6.406250e-001
      vertex -3.103971e-001  1.284004e-001  6.406250e-001
      vertex  3.286681e-001  6.545794e-002  6.406250e-001
    endloop
  endfacet
  facet normal  0.000000e+000  0.000000e+000  1.000000e+000
    outer loop
      vertex  3.286681e-001  6.545794e-002  6.406250e-001
      vertex -3.103971e-001  1.284004e-001  6.406250e-001
      vertex -3.294905e-001  6.545794e-002  6.406250e-001
    endloop
  endfacet
  facet normal  -0.000000e+000  0.000000e+000  1.000000e+000
    outer loop
      vertex  3.286681e-001  6.545794e-002  6.406250e-001
      vertex -3.294905e-001  6.545794e-002  6.406250e-001
      vertex  3.351151e-001  0.000000e+000  6.406250e-001
    endloop
  endfacet
  facet normal  0.000000e+000  0.000000e+000  1.000000e+000
    outer loop
      vertex  3.351151e-001  0.000000e+000  6.406250e-001
      vertex -3.294905e-001  6.545794e-002  6.406250e-001
      vertex -3.359375e-001  1.900924e-016  6.406250e-001
    endloop
  endfacet
  facet normal  0.000000e+000  0.000000e+000  1.000000e+000
    outer loop
      vertex  3.351151e-001  0.000000e+000  6.406250e-001
      vertex -3.359375e-001  1.900924e-016  6.406250e-001
      vertex  3.286681e-001 -6.545794e-002  6.406250e-001
    endloop
  endfacet
  facet normal  0.000000e+000  0.000000e+000  1.000000e+000
    outer loop
      vertex  3.286681e-001 -6.545794e-002  6.406250e-001
      vertex -3.359375e-001  1.900924e-016  6.406250e-001
      vertex -3.294905e-001 -6.545794e-002  6.406250e-001
    endloop
  endfacet
  facet normal  -0.000000e+000  0.000000e+000  1.000000e+000
    outer loop
      vertex  3.286681e-001 -6.545794e-002  6.406250e-001
      vertex -3.294905e-001 -6.545794e-002  6.406250e-001
      vertex  3.095747e-001 -1.284004e-001  6.406250e-001
    endloop
  endfacet
  facet normal  0.000000e+000  0.000000e+000  1.000000e+000
    outer loop
      vertex  3.095747e-001 -1.284004e-001  6.406250e-001
      vertex -3.294905e-001 -6.545794e-002  6.406250e-001
      vertex -3.103971e-001 -1.284004e-001  6.406250e-001
    endloop
  endfacet
  facet normal  -0.000000e+000  0.000000e+000  1.000000e+000
    outer loop
      vertex  3.095747e-001 -1.284004e-001  6.406250e-001
      vertex -3.103971e-001 -1.284004e-001  6.406250e-001
      vertex  2.785687e-001 -1.864084e-001  6.406250e-001
    endloop
  endfacet
  facet normal  0.000000e+000  0.000000e+000  1.000000e+000
    outer loop
      vertex  2.785687e-001 -1.864084e-001  6.406250e-001
      vertex -3.103971e-001 -1.284004e-001  6.406250e-001
      vertex -2.793911e-001 -1.864084e-001  6.406250e-001
    endloop
  endfacet
  facet normal  -0.000000e+000  0.000000e+000  9.999999e-001
    outer loop
      vertex  2.785687e-001 -1.864084e-001  6.406250e-001
      vertex -2.793911e-001 -1.864084e-001  6.406250e-001
      vertex  2.368418e-001 -2.372529e-001  6.406250e-001
    endloop
  endfacet
  facet normal  0.000000e+000  0.000000e+000  1.000000e+000
    outer loop
      vertex  2.368418e-001 -2.372529e-001  6.406250e-001
      vertex -2.793911e-001 -1.864084e-001  6.406250e-001
      vertex -2.376641e-001 -2.372529e-001  6.406250e-001
    endloop
  endfacet
  facet normal  -0.000000e+000  0.000000e+000  1.000000e+000
    outer loop
      vertex  2.368418e-001 -2.372529e-001  6.406250e-001
      vertex -2.376641e-001 -2.372529e-001  6.406250e-001
      vertex  1.859972e-001 -2.789799e-001  6.406250e-001
    endloop
  endfacet
  facet normal  0.000000e+000  0.000000e+000  9.999999e-001
    outer loop
      vertex  1.859972e-001 -2.789799e-001  6.406250e-001
      vertex -2.376641e-001 -2.372529e-001  6.406250e-001
      vertex -1.868196e-001 -2.789799e-001  6.406250e-001
    endloop
  endfacet
  facet normal  -0.000000e+000  0.000000e+000  1.000000e+000
    outer loop
      vertex  1.859972e-001 -2.789799e-001  6.406250e-001
      vertex -1.868196e-001 -2.789799e-001  6.406250e-001
      vertex  1.279892e-001 -3.099859e-001  6.406250e-001
    endloop
  endfacet
  facet normal  0.000000e+000  0.000000e+000  1.000000e+000
    outer loop
      vertex  1.279892e-001 -3.099859e-001  6.406250e-001
      vertex -1.868196e-001 -2.789799e-001  6.406250e-001
      vertex -1.288116e-001 -3.099859e-001  6.406250e-001
    endloop
  endfacet
  facet normal  -0.000000e+000  0.000000e+000  1.000000e+000
    outer loop
      vertex  1.279892e-001 -3.099859e-001  6.406250e-001
      vertex -1.288116e-001 -3.099859e-001  6.406250e-001
      vertex  6.504675e-002 -3.290793e-001  6.406250e-001
    endloop
  endfacet
  facet normal  0.000000e+000  0.000000e+000  1.000000e+000
    outer loop
      vertex  6.504675e-002 -3.290793e-001  6.406250e-001
      vertex -1.288116e-001 -3.099859e-001  6.406250e-001
      vertex -6.586912e-002 -3.290793e-001  6.406250e-001
    endloop
  endfacet
  facet normal  -0.000000e+000  0.000000e+000  1.000000e+000
    outer loop
      vertex  6.504675e-002 -3.290793e-001  6.406250e-001
      vertex -6.586912e-002 -3.290793e-001  6.406250e-001
      vertex -4.111842e-004 -3.355263e-001  6.406250e-001
    endloop
  endfacet
  facet normal  -0.000000e+000  0.000000e+000 -1.000000e+000
    outer loop
      vertex -3.220183e-003  4.308162e-001  0.000000e+000
      vertex  6.689360e-002  4.257934e-001  0.000000e+000
      vertex -7.321879e-002  4.243705e-001  0.000000e+000
    endloop
  endfacet
  facet normal  0.000000e+000  0.000000e+000 -1.000000e+000
    outer loop
      vertex -2.999527e-001 -3.081530e-001  0.000000e+000
      vertex -3.431344e-001 -2.590163e-001  0.000000e+000
      vertex  3.239294e-001 -2.853691e-001  0.000000e+000
    endloop
  endfacet
  facet normal  0.000000e+000  0.000000e+000 -1.000000e+000
    outer loop
      vertex  3.239294e-001 -2.853691e-001  0.000000e+000
      vertex -3.431344e-001 -2.590163e-001  0.000000e+000
      vertex -3.785515e-001 -2.035869e-001  0.000000e+000
    endloop
  endfacet
  facet normal  0.000000e+000  0.000000e+000 -9.999999e-001
    outer loop
      vertex  3.239294e-001 -2.853691e-001  0.000000e+000
      vertex -3.785515e-001 -2.035869e-001  0.000000e+000
      vertex  3.720708e-001 -2.191775e-001  0.000000e+000
    endloop
  endfacet
  facet normal  0.000000e+000  0.000000e+000 -1.000000e+000
    outer loop
      vertex  3.720708e-001 -2.191775e-001  0.000000e+000
      vertex -3.785515e-001 -2.035869e-001  0.000000e+000
      vertex -4.051180e-001 -1.434112e-001  0.000000e+000
    endloop
  endfacet
  facet normal  0.000000e+000  0.000000e+000 -9.999999e-001
    outer loop
      vertex  3.720708e-001 -2.191775e-001  0.000000e+000
      vertex -4.051180e-001 -1.434112e-001  0.000000e+000
      vertex  4.068285e-001 -1.450768e-001  0.000000e+000
    endloop
  endfacet
  facet normal  0.000000e+000  0.000000e+000 -9.999999e-001
    outer loop
      vertex  4.068285e-001 -1.450768e-001  0.000000e+000
      vertex -4.051180e-001 -1.434112e-001  0.000000e+000
      vertex -4.222149e-001 -7.989310e-002  0.000000e+000
    endloop
  endfacet
  facet normal  0.000000e+000  0.000000e+000 -1.000000e+000
    outer loop
      vertex  4.068285e-001 -1.450768e-001  0.000000e+000
      vertex -4.222149e-001 -7.989310e-002  0.000000e+000
      vertex  4.269447e-001 -6.574228e-002  0.000000e+000
    endloop
  endfacet
  facet normal  -0.000000e+000  0.000000e+000 -1.000000e+000
    outer loop
      vertex  4.269447e-001 -6.574228e-002  0.000000e+000
      vertex -4.222149e-001 -7.989310e-002  0.000000e+000
      vertex -4.296865e-001  4.404768e-007  0.000000e+000
    endloop
  endfacet
  facet normal  0.000000e+000  0.000000e+000 -1.000000e+000
    outer loop
      vertex  4.269447e-001 -6.574228e-002  0.000000e+000
      vertex -4.296865e-001  4.404768e-007  0.000000e+000
      vertex  4.319901e-001  3.053113e-016  0.000000e+000
    endloop
  endfacet
  facet normal  0.000000e+000  0.000000e+000 -1.000000e+000
    outer loop
      vertex  4.319901e-001  3.053113e-016  0.000000e+000
      vertex -4.296865e-001  4.404768e-007  0.000000e+000
      vertex -4.243041e-001  6.789302e-002  0.000000e+000
    endloop
  endfacet
  facet normal  0.000000e+000  0.000000e+000 -9.999999e-001
    outer loop
      vertex  4.319901e-001  3.053113e-016  0.000000e+000
      vertex -4.243041e-001  6.789302e-002  0.000000e+000
      vertex  4.261987e-001  7.040206e-002  0.000000e+000
    endloop
  endfacet
  facet normal  -0.000000e+000  0.000000e+000 -1.000000e+000
    outer loop
      vertex  4.261987e-001  7.040206e-002  0.000000e+000
      vertex -4.243041e-001  6.789302e-002  0.000000e+000
      vertex -4.082904e-001  1.340879e-001  0.000000e+000
    endloop
  endfacet
  facet normal  0.000000e+000  0.000000e+000 -9.999999e-001
    outer loop
      vertex  4.261987e-001  7.040206e-002  0.000000e+000
      vertex -4.082904e-001  1.340879e-001  0.000000e+000
      vertex  4.089803e-001  1.389127e-001  0.000000e+000
    endloop
  endfacet
  facet normal  -0.000000e+000  0.000000e+000 -1.000000e+000
    outer loop
      vertex  4.089803e-001  1.389127e-001  0.000000e+000
      vertex -4.082904e-001  1.340879e-001  0.000000e+000
      vertex -3.759034e-001  2.084491e-001  0.000000e+000
    endloop
  endfacet
  facet normal  0.000000e+000  0.000000e+000 -1.000000e+000
    outer loop
      vertex  4.089803e-001  1.389127e-001  0.000000e+000
      vertex -3.759034e-001  2.084491e-001  0.000000e+000
      vertex  3.807989e-001  2.036895e-001  0.000000e+000
    endloop
  endfacet
  facet normal  0.000000e+000  0.000000e+000 -1.000000e+000
    outer loop
      vertex  3.807989e-001  2.036895e-001  0.000000e+000
      vertex -3.759034e-001  2.084491e-001  0.000000e+000
      vertex -3.301517e-001  2.754241e-001  0.000000e+000
    endloop
  endfacet
  facet normal  0.000000e+000  0.000000e+000 -1.000000e+000
    outer loop
      vertex  3.807989e-001  2.036895e-001  0.000000e+000
      vertex -3.301517e-001  2.754241e-001  0.000000e+000
      vertex  3.424117e-001  2.629894e-001  0.000000e+000
    endloop
  endfacet
  facet normal  0.000000e+000  0.000000e+000 -9.999999e-001
    outer loop
      vertex  3.424117e-001  2.629894e-001  0.000000e+000
      vertex -3.301517e-001  2.754241e-001  0.000000e+000
      vertex -2.726602e-001  3.326387e-001  0.000000e+000
    endloop
  endfacet
  facet normal  0.000000e+000  0.000000e+000 -1.000000e+000
    outer loop
      vertex  3.424117e-001  2.629894e-001  0.000000e+000
      vertex -2.726602e-001  3.326387e-001  0.000000e+000
      vertex  2.865204e-001  3.227781e-001  0.000000e+000
    endloop
  endfacet
  facet normal  0.000000e+000  0.000000e+000 -1.000000e+000
    outer loop
      vertex  2.865204e-001  3.227781e-001  0.000000e+000
      vertex -2.726602e-001  3.326387e-001  0.000000e+000
      vertex -2.054660e-001  3.780627e-001  0.000000e+000
    endloop
  endfacet
  facet normal  0.000000e+000  0.000000e+000 -1.000000e+000
    outer loop
      vertex  2.865204e-001  3.227781e-001  0.000000e+000
      vertex -2.054660e-001  3.780627e-001  0.000000e+000
      vertex  2.203288e-001  3.709195e-001  0.000000e+000
    endloop
  endfacet
  facet normal  0.000000e+000  0.000000e+000 -9.999999e-001
    outer loop
      vertex  2.203288e-001  3.709195e-001  0.000000e+000
      vertex -2.054660e-001  3.780627e-001  0.000000e+000
      vertex -1.412382e-001  4.066288e-001  0.000000e+000
    endloop
  endfacet
  facet normal  0.000000e+000  0.000000e+000 -1.000000e+000
    outer loop
      vertex  2.203288e-001  3.709195e-001  0.000000e+000
      vertex -1.412382e-001  4.066288e-001  0.000000e+000
      vertex  1.462281e-001  4.056772e-001  0.000000e+000
    endloop
  endfacet
  facet normal  0.000000e+000  0.000000e+000 -1.000000e+000
    outer loop
      vertex  1.462281e-001  4.056772e-001  0.000000e+000
      vertex -1.412382e-001  4.066288e-001  0.000000e+000
      vertex -7.321879e-002  4.243705e-001  0.000000e+000
    endloop
  endfacet
  facet normal  0.000000e+000  0.000000e+000 -1.000000e+000
    outer loop
      vertex  1.462281e-001  4.056772e-001  0.000000e+000
      vertex -7.321879e-002  4.243705e-001  0.000000e+000
      vertex  6.689360e-002  4.257934e-001  0.000000e+000
    endloop
  endfacet
  facet normal  0.000000e+000  0.000000e+000 -1.000000e+000
    outer loop
      vertex  1.151316e-003 -4.308388e-001  0.000000e+000
      vertex -6.703951e-002 -4.254005e-001  0.000000e+000
      vertex  7.155337e-002 -4.250474e-001  0.000000e+000
    endloop
  endfacet
  facet normal  -0.000000e+000  0.000000e+000 -1.000000e+000
    outer loop
      vertex  7.155337e-002 -4.250474e-001  0.000000e+000
      vertex -6.703951e-002 -4.254005e-001  0.000000e+000
      vertex -1.335134e-001 -4.092524e-001  0.000000e+000
    endloop
  endfacet
  facet normal  0.000000e+000  0.000000e+000 -1.000000e+000
    outer loop
      vertex  7.155337e-002 -4.250474e-001  0.000000e+000
      vertex -1.335134e-001 -4.092524e-001  0.000000e+000
      vertex  1.400640e-001 -4.078290e-001  0.000000e+000
    endloop
  endfacet
  facet normal  -0.000000e+000  0.000000e+000 -1.000000e+000
    outer loop
      vertex  1.400640e-001 -4.078290e-001  0.000000e+000
      vertex -1.335134e-001 -4.092524e-001  0.000000e+000
      vertex -1.939193e-001 -3.841475e-001  0.000000e+000
    endloop
  endfacet
  facet normal  0.000000e+000  0.000000e+000 -9.999999e-001
    outer loop
      vertex  1.400640e-001 -4.078290e-001  0.000000e+000
      vertex -1.939193e-001 -3.841475e-001  0.000000e+000
      vertex  2.048408e-001 -3.796476e-001  0.000000e+000
    endloop
  endfacet
  facet normal  -0.000000e+000  0.000000e+000 -1.000000e+000
    outer loop
      vertex  2.048408e-001 -3.796476e-001  0.000000e+000
      vertex -1.939193e-001 -3.841475e-001  0.000000e+000
      vertex -2.498289e-001 -3.501863e-001  0.000000e+000
    endloop
  endfacet
  facet normal  0.000000e+000  0.000000e+000 -1.000000e+000
    outer loop
      vertex  2.048408e-001 -3.796476e-001  0.000000e+000
      vertex -2.498289e-001 -3.501863e-001  0.000000e+000
      vertex  2.641408e-001 -3.412604e-001  0.000000e+000
    endloop
  endfacet
  facet normal  -0.000000e+000  0.000000e+000 -9.999999e-001
    outer loop
      vertex  2.641408e-001 -3.412604e-001  0.000000e+000
      vertex -2.498289e-001 -3.501863e-001  0.000000e+000
      vertex -2.999527e-001 -3.081530e-001  0.000000e+000
    endloop
  endfacet
  facet normal  0.000000e+000  0.000000e+000 -1.000000e+000
    outer loop
      vertex  2.641408e-001 -3.412604e-001  0.000000e+000
      vertex -2.999527e-001 -3.081530e-001  0.000000e+000
      vertex  3.239294e-001 -2.853691e-001  0.000000e+000
    endloop
  endfacet
  facet normal  9.951847e-001 -9.801690e-002  5.328343e-017
    outer loop
      vertex  4.866776e-001 -1.189157e-016  4.687500e-002
      vertex  4.866776e-001  0.000000e+000  2.656250e-001
      vertex  4.773484e-001 -9.472149e-002  4.687500e-002
    endloop
  endfacet
  facet normal  9.951847e-001 -9.801690e-002  0.000000e+000
    outer loop
      vertex  4.773484e-001 -9.472149e-002  4.687500e-002
      vertex  4.866776e-001  0.000000e+000  2.656250e-001
      vertex  4.773484e-001 -9.472149e-002  2.656250e-001
    endloop
  endfacet
  facet normal  9.569403e-001 -2.902849e-001  0.000000e+000
    outer loop
      vertex  4.773484e-001 -9.472149e-002  4.687500e-002
      vertex  4.773484e-001 -9.472149e-002  2.656250e-001
      vertex  4.497191e-001 -1.858029e-001  4.687500e-002
    endloop
  endfacet
  facet normal  9.569403e-001 -2.902849e-001  0.000000e+000
    outer loop
      vertex  4.497191e-001 -1.858029e-001  4.687500e-002
      vertex  4.773484e-001 -9.472149e-002  2.656250e-001
      vertex  4.497191e-001 -1.858029e-001  2.656250e-001
    endloop
  endfacet
  facet normal  8.819214e-001 -4.713965e-001  0.000000e+000
    outer loop
      vertex  4.497191e-001 -1.858029e-001  4.687500e-002
      vertex  4.497191e-001 -1.858029e-001  2.656250e-001
      vertex  4.048517e-001 -2.697440e-001  4.687500e-002
    endloop
  endfacet
  facet normal  8.819214e-001 -4.713965e-001  0.000000e+000
    outer loop
      vertex  4.048517e-001 -2.697440e-001  4.687500e-002
      vertex  4.497191e-001 -1.858029e-001  2.656250e-001
      vertex  4.048517e-001 -2.697440e-001  2.656250e-001
    endloop
  endfacet
  facet normal  7.730103e-001 -6.343935e-001  0.000000e+000
    outer loop
      vertex  4.048517e-001 -2.697440e-001  4.687500e-002
      vertex  4.048517e-001 -2.697440e-001  2.656250e-001
      vertex  3.444703e-001 -3.433189e-001  4.687500e-002
    endloop
  endfacet
  facet normal  7.730103e-001 -6.343935e-001  0.000000e+000
    outer loop
      vertex  3.444703e-001 -3.433189e-001  4.687500e-002
      vertex  4.048517e-001 -2.697440e-001  2.656250e-001
      vertex  3.444703e-001 -3.433189e-001  2.656250e-001
    endloop
  endfacet
  facet normal  6.343934e-001 -7.730104e-001  0.000000e+000
    outer loop
      vertex  3.444703e-001 -3.433189e-001  4.687500e-002
      vertex  3.444703e-001 -3.433189e-001  2.656250e-001
      vertex  2.708953e-001 -4.037004e-001  4.687500e-002
    endloop
  endfacet
  facet normal  6.343934e-001 -7.730104e-001  0.000000e+000
    outer loop
      vertex  2.708953e-001 -4.037004e-001  4.687500e-002
      vertex  3.444703e-001 -3.433189e-001  2.656250e-001
      vertex  2.708953e-001 -4.037004e-001  2.656250e-001
    endloop
  endfacet
  facet normal  4.713969e-001 -8.819211e-001  0.000000e+000
    outer loop
      vertex  2.708953e-001 -4.037004e-001  4.687500e-002
      vertex  2.708953e-001 -4.037004e-001  2.656250e-001
      vertex  1.869542e-001 -4.485678e-001  4.687500e-002
    endloop
  endfacet
  facet normal  4.713969e-001 -8.819211e-001  0.000000e+000
    outer loop
      vertex  1.869542e-001 -4.485678e-001  4.687500e-002
      vertex  2.708953e-001 -4.037004e-001  2.656250e-001
      vertex  1.869542e-001 -4.485678e-001  2.656250e-001
    endloop
  endfacet
  facet normal  2.902845e-001 -9.569404e-001  0.000000e+000
    outer loop
      vertex  1.869542e-001 -4.485678e-001  4.687500e-002
      vertex  1.869542e-001 -4.485678e-001  2.656250e-001
      vertex  9.587280e-002 -4.761971e-001  4.687500e-002
    endloop
  endfacet
  facet normal  2.902845e-001 -9.569404e-001  0.000000e+000
    outer loop
      vertex  9.587280e-002 -4.761971e-001  4.687500e-002
      vertex  1.869542e-001 -4.485678e-001  2.656250e-001
      vertex  9.587280e-002 -4.761971e-001  2.656250e-001
    endloop
  endfacet
  facet normal  9.801722e-002 -9.951847e-001  0.000000e+000
    outer loop
      vertex  9.587280e-002 -4.761971e-001  4.687500e-002
      vertex  9.587280e-002 -4.761971e-001  2.656250e-001
      vertex  1.151316e-003 -4.855263e-001  4.687500e-002
    endloop
  endfacet
  facet normal  9.801722e-002 -9.951847e-001  0.000000e+000
    outer loop
      vertex  1.151316e-003 -4.855263e-001  4.687500e-002
      vertex  9.587280e-002 -4.761971e-001  2.656250e-001
      vertex  1.151316e-003 -4.855263e-001  2.656250e-001
    endloop
  endfacet
  facet normal -9.801722e-002 -9.951847e-001  -0.000000e+000
    outer loop
      vertex  1.151316e-003 -4.855263e-001  4.687500e-002
      vertex  1.151316e-003 -4.855263e-001  2.656250e-001
      vertex -9.357017e-002 -4.761971e-001  4.687500e-002
    endloop
  endfacet
  facet normal -9.801722e-002 -9.951847e-001  0.000000e+000
    outer loop
      vertex -9.357017e-002 -4.761971e-001  4.687500e-002
      vertex  1.151316e-003 -4.855263e-001  2.656250e-001
      vertex -9.357017e-002 -4.761971e-001  2.656250e-001
    endloop
  endfacet
  facet normal -2.902845e-001 -9.569404e-001  -0.000000e+000
    outer loop
      vertex -9.357017e-002 -4.761971e-001  4.687500e-002
      vertex -9.357017e-002 -4.761971e-001  2.656250e-001
      vertex -1.846516e-001 -4.485678e-001  4.687500e-002
    endloop
  endfacet
  facet normal -2.902845e-001 -9.569404e-001  0.000000e+000
    outer loop
      vertex -1.846516e-001 -4.485678e-001  4.687500e-002
      vertex -9.357017e-002 -4.761971e-001  2.656250e-001
      vertex -1.846516e-001 -4.485678e-001  2.656250e-001
    endloop
  endfacet
  facet normal -4.713968e-001 -8.819212e-001  -0.000000e+000
    outer loop
      vertex -1.846516e-001 -4.485678e-001  4.687500e-002
      vertex -1.846516e-001 -4.485678e-001  2.656250e-001
      vertex -2.685927e-001 -4.037004e-001  4.687500e-002
    endloop
  endfacet
  facet normal -4.713968e-001 -8.819212e-001  0.000000e+000
    outer loop
      vertex -2.685927e-001 -4.037004e-001  4.687500e-002
      vertex -1.846516e-001 -4.485678e-001  2.656250e-001
      vertex -2.685927e-001 -4.037004e-001  2.656250e-001
    endloop
  endfacet
  facet normal -6.343934e-001 -7.730104e-001  -0.000000e+000
    outer loop
      vertex -2.685927e-001 -4.037004e-001  4.687500e-002
      vertex -2.685927e-001 -4.037004e-001  2.656250e-001
      vertex -3.421676e-001 -3.433189e-001  4.687500e-002
    endloop
  endfacet
  facet normal -6.343934e-001 -7.730104e-001  0.000000e+000
    outer loop
      vertex -3.421676e-001 -3.433189e-001  4.687500e-002
      vertex -2.685927e-001 -4.037004e-001  2.656250e-001
      vertex -3.421676e-001 -3.433189e-001  2.656250e-001
    endloop
  endfacet
  facet normal -7.730105e-001 -6.343933e-001  -0.000000e+000
    outer loop
      vertex -3.421676e-001 -3.433189e-001  4.687500e-002
      vertex -3.421676e-001 -3.433189e-001  2.656250e-001
      vertex -4.025491e-001 -2.697440e-001  4.687500e-002
    endloop
  endfacet
  facet normal -7.730105e-001 -6.343933e-001  0.000000e+000
    outer loop
      vertex -4.025491e-001 -2.697440e-001  4.687500e-002
      vertex -3.421676e-001 -3.433189e-001  2.656250e-001
      vertex -4.025491e-001 -2.697440e-001  2.656250e-001
    endloop
  endfacet
  facet normal -8.819213e-001 -4.713968e-001  -0.000000e+000
    outer loop
      vertex -4.025491e-001 -2.697440e-001  4.687500e-002
      vertex -4.025491e-001 -2.697440e-001  2.656250e-001
      vertex -4.474165e-001 -1.858029e-001  4.687500e-002
    endloop
  endfacet
  facet normal -8.819213e-001 -4.713968e-001  0.000000e+000
    outer loop
      vertex -4.474165e-001 -1.858029e-001  4.687500e-002
      vertex -4.025491e-001 -2.697440e-001  2.656250e-001
      vertex -4.474165e-001 -1.858029e-001  2.656250e-001
    endloop
  endfacet
  facet normal -9.569404e-001 -2.902846e-001  -0.000000e+000
    outer loop
      vertex -4.474165e-001 -1.858029e-001  4.687500e-002
      vertex -4.474165e-001 -1.858029e-001  2.656250e-001
      vertex -4.750457e-001 -9.472149e-002  4.687500e-002
    endloop
  endfacet
  facet normal -9.569404e-001 -2.902846e-001  0.000000e+000
    outer loop
      vertex -4.750457e-001 -9.472149e-002  4.687500e-002
      vertex -4.474165e-001 -1.858029e-001  2.656250e-001
      vertex -4.750457e-001 -9.472149e-002  2.656250e-001
    endloop
  endfacet
  facet normal -9.951847e-001 -9.801722e-002  -0.000000e+000
    outer loop
      vertex -4.750457e-001 -9.472149e-002  4.687500e-002
      vertex -4.750457e-001 -9.472149e-002  2.656250e-001
      vertex -4.843750e-001 -3.717761e-016  4.687500e-002
    endloop
  endfacet
  facet normal -9.951847e-001 -9.801722e-002  1.932268e-016
    outer loop
      vertex -4.843750e-001 -3.717761e-016  4.687500e-002
      vertex -4.750457e-001 -9.472149e-002  2.656250e-001
      vertex -4.843750e-001  5.945786e-017  2.656250e-001
    endloop
  endfacet
  facet normal -9.951847e-001  9.801722e-002 -1.932268e-016
    outer loop
      vertex -4.843750e-001 -3.717761e-016  4.687500e-002
      vertex -4.843750e-001  5.945786e-017  2.656250e-001
      vertex -4.750457e-001  9.472149e-002  4.687500e-002
    endloop
  endfacet
  facet normal -9.951847e-001  9.801722e-002  0.000000e+000
    outer loop
      vertex -4.750457e-001  9.472149e-002  4.687500e-002
      vertex -4.843750e-001  5.945786e-017  2.656250e-001
      vertex -4.750457e-001  9.472149e-002  2.656250e-001
    endloop
  endfacet
  facet normal -9.569404e-001  2.902846e-001  0.000000e+000
    outer loop
      vertex -4.750457e-001  9.472149e-002  4.687500e-002
      vertex -4.750457e-001  9.472149e-002  2.656250e-001
      vertex -4.474165e-001  1.858029e-001  4.687500e-002
    endloop
  endfacet
  facet normal -9.569404e-001  2.902846e-001  0.000000e+000
    outer loop
      vertex -4.474165e-001  1.858029e-001  4.687500e-002
      vertex -4.750457e-001  9.472149e-002  2.656250e-001
      vertex -4.474165e-001  1.858029e-001  2.656250e-001
    endloop
  endfacet
  facet normal -8.819213e-001  4.713968e-001  0.000000e+000
    outer loop
      vertex -4.474165e-001  1.858029e-001  4.687500e-002
      vertex -4.474165e-001  1.858029e-001  2.656250e-001
      vertex -4.025491e-001  2.697440e-001  4.687500e-002
    endloop
  endfacet
  facet normal -8.819213e-001  4.713968e-001  0.000000e+000
    outer loop
      vertex -4.025491e-001  2.697440e-001  4.687500e-002
      vertex -4.474165e-001  1.858029e-001  2.656250e-001
      vertex -4.025491e-001  2.697440e-001  2.656250e-001
    endloop
  endfacet
  facet normal -7.730105e-001  6.343933e-001  0.000000e+000
    outer loop
      vertex -4.025491e-001  2.697440e-001  4.687500e-002
      vertex -4.025491e-001  2.697440e-001  2.656250e-001
      vertex -3.421676e-001  3.433189e-001  4.687500e-002
    endloop
  endfacet
  facet normal -7.730105e-001  6.343933e-001  0.000000e+000
    outer loop
      vertex -3.421676e-001  3.433189e-001  4.687500e-002
      vertex -4.025491e-001  2.697440e-001  2.656250e-001
      vertex -3.421676e-001  3.433189e-001  2.656250e-001
    endloop
  endfacet
  facet normal -6.343934e-001  7.730104e-001  0.000000e+000
    outer loop
      vertex -3.421676e-001  3.433189e-001  4.687500e-002
      vertex -3.421676e-001  3.433189e-001  2.656250e-001
      vertex -2.685927e-001  4.037004e-001  4.687500e-002
    endloop
  endfacet
  facet normal -6.343934e-001  7.730104e-001  0.000000e+000
    outer loop
      vertex -2.685927e-001  4.037004e-001  4.687500e-002
      vertex -3.421676e-001  3.433189e-001  2.656250e-001
      vertex -2.685927e-001  4.037004e-001  2.656250e-001
    endloop
  endfacet
  facet normal -4.713968e-001  8.819212e-001  0.000000e+000
    outer loop
      vertex -2.685927e-001  4.037004e-001  4.687500e-002
      vertex -2.685927e-001  4.037004e-001  2.656250e-001
      vertex -1.846516e-001  4.485678e-001  4.687500e-002
    endloop
  endfacet
  facet normal -4.713968e-001  8.819212e-001  0.000000e+000
    outer loop
      vertex -1.846516e-001  4.485678e-001  4.687500e-002
      vertex -2.685927e-001  4.037004e-001  2.656250e-001
      vertex -1.846516e-001  4.485678e-001  2.656250e-001
    endloop
  endfacet
  facet normal -2.902845e-001  9.569404e-001  0.000000e+000
    outer loop
      vertex -1.846516e-001  4.485678e-001  4.687500e-002
      vertex -1.846516e-001  4.485678e-001  2.656250e-001
      vertex -9.357017e-002  4.761971e-001  4.687500e-002
    endloop
  endfacet
  facet normal -2.902845e-001  9.569404e-001  0.000000e+000
    outer loop
      vertex -9.357017e-002  4.761971e-001  4.687500e-002
      vertex -1.846516e-001  4.485678e-001  2.656250e-001
      vertex -9.357017e-002  4.761971e-001  2.656250e-001
    endloop
  endfacet
  facet normal -9.801722e-002  9.951847e-001  0.000000e+000
    outer loop
      vertex -9.357017e-002  4.761971e-001  4.687500e-002
      vertex -9.357017e-002  4.761971e-001  2.656250e-001
      vertex  1.151316e-003  4.855263e-001  4.687500e-002
    endloop
  endfacet
  facet normal -9.801722e-002  9.951847e-001  0.000000e+000
    outer loop
      vertex  1.151316e-003  4.855263e-001  4.687500e-002
      vertex -9.357017e-002  4.761971e-001  2.656250e-001
      vertex  1.151316e-003  4.855263e-001  2.656250e-001
    endloop
  endfacet
  facet normal  9.801722e-002  9.951847e-001  0.000000e+000
    outer loop
      vertex  1.151316e-003  4.855263e-001  4.687500e-002
      vertex  1.151316e-003  4.855263e-001  2.656250e-001
      vertex  9.587280e-002  4.761971e-001  4.687500e-002
    endloop
  endfacet
  facet normal  9.801722e-002  9.951847e-001  -0.000000e+000
    outer loop
      vertex  9.587280e-002  4.761971e-001  4.687500e-002
      vertex  1.151316e-003  4.855263e-001  2.656250e-001
      vertex  9.587280e-002  4.761971e-001  2.656250e-001
    endloop
  endfacet
  facet normal  2.902845e-001  9.569404e-001  0.000000e+000
    outer loop
      vertex  9.587280e-002  4.761971e-001  4.687500e-002
      vertex  9.587280e-002  4.761971e-001  2.656250e-001
      vertex  1.869542e-001  4.485678e-001  4.687500e-002
    endloop
  endfacet
  facet normal  2.902845e-001  9.569404e-001  -0.000000e+000
    outer loop
      vertex  1.869542e-001  4.485678e-001  4.687500e-002
      vertex  9.587280e-002  4.761971e-001  2.656250e-001
      vertex  1.869542e-001  4.485678e-001  2.656250e-001
    endloop
  endfacet
  facet normal  4.713969e-001  8.819211e-001  0.000000e+000
    outer loop
      vertex  1.869542e-001  4.485678e-001  4.687500e-002
      vertex  1.869542e-001  4.485678e-001  2.656250e-001
      vertex  2.708953e-001  4.037004e-001  4.687500e-002
    endloop
  endfacet
  facet normal  4.713969e-001  8.819211e-001  -0.000000e+000
    outer loop
      vertex  2.708953e-001  4.037004e-001  4.687500e-002
      vertex  1.869542e-001  4.485678e-001  2.656250e-001
      vertex  2.708953e-001  4.037004e-001  2.656250e-001
    endloop
  endfacet
  facet normal  6.343934e-001  7.730104e-001  0.000000e+000
    outer loop
      vertex  2.708953e-001  4.037004e-001  4.687500e-002
      vertex  2.708953e-001  4.037004e-001  2.656250e-001
      vertex  3.444703e-001  3.433189e-001  4.687500e-002
    endloop
  endfacet
  facet normal  6.343934e-001  7.730104e-001  -0.000000e+000
    outer loop
      vertex  3.444703e-001  3.433189e-001  4.687500e-002
      vertex  2.708953e-001  4.037004e-001  2.656250e-001
      vertex  3.444703e-001  3.433189e-001  2.656250e-001
    endloop
  endfacet
  facet normal  7.730103e-001  6.343935e-001  0.000000e+000
    outer loop
      vertex  3.444703e-001  3.433189e-001  4.687500e-002
      vertex  3.444703e-001  3.433189e-001  2.656250e-001
      vertex  4.048517e-001  2.697440e-001  4.687500e-002
    endloop
  endfacet
  facet normal  7.730103e-001  6.343935e-001  -0.000000e+000
    outer loop
      vertex  4.048517e-001  2.697440e-001  4.687500e-002
      vertex  3.444703e-001  3.433189e-001  2.656250e-001
      vertex  4.048517e-001  2.697440e-001  2.656250e-001
    endloop
  endfacet
  facet normal  8.819214e-001  4.713965e-001  0.000000e+000
    outer loop
      vertex  4.048517e-001  2.697440e-001  4.687500e-002
      vertex  4.048517e-001  2.697440e-001  2.656250e-001
      vertex  4.497191e-001  1.858029e-001  4.687500e-002
    endloop
  endfacet
  facet normal  8.819214e-001  4.713965e-001  -0.000000e+000
    outer loop
      vertex  4.497191e-001  1.858029e-001  4.687500e-002
      vertex  4.048517e-001  2.697440e-001  2.656250e-001
      vertex  4.497191e-001  1.858029e-001  2.656250e-001
    endloop
  endfacet
  facet normal  9.569403e-001  2.902849e-001  0.000000e+000
    outer loop
      vertex  4.497191e-001  1.858029e-001  4.687500e-002
      vertex  4.497191e-001  1.858029e-001  2.656250e-001
      vertex  4.773484e-001  9.472149e-002  4.687500e-002
    endloop
  endfacet
  facet normal  9.569403e-001  2.902849e-001  -0.000000e+000
    outer loop
      vertex  4.773484e-001  9.472149e-002  4.687500e-002
      vertex  4.497191e-001  1.858029e-001  2.656250e-001
      vertex  4.773484e-001  9.472149e-002  2.656250e-001
    endloop
  endfacet
  facet normal  9.951847e-001  9.801690e-002  0.000000e+000
    outer loop
      vertex  4.773484e-001  9.472149e-002  4.687500e-002
      vertex  4.773484e-001  9.472149e-002  2.656250e-001
      vertex  4.866776e-001 -1.189157e-016  4.687500e-002
    endloop
  endfacet
  facet normal  9.951847e-001  9.801690e-002 -5.328343e-017
    outer loop
      vertex  4.866776e-001 -1.189157e-016  4.687500e-002
      vertex  4.773484e-001  9.472149e-002  2.656250e-001
      vertex  4.866776e-001  0.000000e+000  2.656250e-001
    endloop
  endfacet
  facet normal  5.883052e-001  3.144555e-001 -7.449932e-001
    outer loop
      vertex  4.048517e-001  2.697440e-001  4.687500e-002
      vertex  4.497191e-001  1.858029e-001  4.687500e-002
      vertex  3.807989e-001  2.036895e-001  0.000000e+000
    endloop
  endfacet
  facet normal -3.143968e-001  5.881949e-001 -7.451049e-001
    outer loop
      vertex -2.054660e-001  3.780627e-001  0.000000e+000
      vertex -2.685927e-001  4.037004e-001  4.687500e-002
      vertex -1.846516e-001  4.485678e-001  4.687500e-002
    endloop
  endfacet
  facet normal -5.155993e-001  4.231414e-001 -7.450563e-001
    outer loop
      vertex -3.301517e-001  2.754241e-001  0.000000e+000
      vertex -4.025491e-001  2.697440e-001  4.687500e-002
      vertex -3.421676e-001  3.433189e-001  4.687500e-002
    endloop
  endfacet
  facet normal -4.499273e-001  4.521047e-001 -7.701731e-001
    outer loop
      vertex -3.301517e-001  2.754241e-001  0.000000e+000
      vertex -3.421676e-001  3.433189e-001  4.687500e-002
      vertex -2.726602e-001  3.326387e-001  0.000000e+000
    endloop
  endfacet
  facet normal -4.231840e-001  5.156511e-001 -7.449962e-001
    outer loop
      vertex -3.421676e-001  3.433189e-001  4.687500e-002
      vertex -2.685927e-001  4.037004e-001  4.687500e-002
      vertex -2.726602e-001  3.326387e-001  0.000000e+000
    endloop
  endfacet
  facet normal -3.572436e-001  5.284592e-001 -7.701350e-001
    outer loop
      vertex -2.726602e-001  3.326387e-001  0.000000e+000
      vertex -2.685927e-001  4.037004e-001  4.687500e-002
      vertex -2.054660e-001  3.780627e-001  0.000000e+000
    endloop
  endfacet
  facet normal -5.880364e-001  3.143120e-001 -7.452659e-001
    outer loop
      vertex -3.759034e-001  2.084491e-001  0.000000e+000
      vertex -4.474165e-001  1.858029e-001  4.687500e-002
      vertex -4.025491e-001  2.697440e-001  4.687500e-002
    endloop
  endfacet
  facet normal -5.268114e-001  3.598729e-001 -7.700397e-001
    outer loop
      vertex -3.759034e-001  2.084491e-001  0.000000e+000
      vertex -4.025491e-001  2.697440e-001  4.687500e-002
      vertex -3.301517e-001  2.754241e-001  0.000000e+000
    endloop
  endfacet
  facet normal -6.376520e-001  1.934296e-001 -7.456439e-001
    outer loop
      vertex -4.750457e-001  9.472149e-002  4.687500e-002
      vertex -4.474165e-001  1.858029e-001  4.687500e-002
      vertex -4.082904e-001  1.340879e-001  0.000000e+000
    endloop
  endfacet
  facet normal -5.852622e-001  2.549030e-001 -7.697353e-001
    outer loop
      vertex -4.082904e-001  1.340879e-001  0.000000e+000
      vertex -4.474165e-001  1.858029e-001  4.687500e-002
      vertex -3.759034e-001  2.084491e-001  0.000000e+000
    endloop
  endfacet
  facet normal  6.494586e-001  6.396593e-002 -7.577017e-001
    outer loop
      vertex  4.866776e-001 -1.189157e-016  4.687500e-002
      vertex  4.319901e-001  3.053113e-016  0.000000e+000
      vertex  4.773484e-001  9.472149e-002  4.687500e-002
    endloop
  endfacet
  facet normal  6.604677e-001  5.433151e-002 -7.488860e-001
    outer loop
      vertex  4.773484e-001  9.472149e-002  4.687500e-002
      vertex  4.319901e-001  3.053113e-016  0.000000e+000
      vertex  4.261987e-001  7.040206e-002  0.000000e+000
    endloop
  endfacet
  facet normal  6.141843e-001  1.863109e-001 -7.668546e-001
    outer loop
      vertex  4.773484e-001  9.472149e-002  4.687500e-002
      vertex  4.261987e-001  7.040206e-002  0.000000e+000
      vertex  4.497191e-001  1.858029e-001  4.687500e-002
    endloop
  endfacet
  facet normal  6.567183e-001  1.650492e-001 -7.358532e-001
    outer loop
      vertex  4.497191e-001  1.858029e-001  4.687500e-002
      vertex  4.261987e-001  7.040206e-002  0.000000e+000
      vertex  4.089803e-001  1.389127e-001  0.000000e+000
    endloop
  endfacet
  facet normal  5.881904e-001  2.558941e-001 -7.671703e-001
    outer loop
      vertex  4.497191e-001  1.858029e-001  4.687500e-002
      vertex  4.089803e-001  1.389127e-001  0.000000e+000
      vertex  3.807989e-001  2.036895e-001  0.000000e+000
    endloop
  endfacet
  facet normal -6.499201e-001  5.152437e-002 -7.582541e-001
    outer loop
      vertex -4.296865e-001  4.404768e-007  0.000000e+000
      vertex -4.843750e-001 -3.717761e-016  4.687500e-002
      vertex -4.243041e-001  6.789302e-002  0.000000e+000
    endloop
  endfacet
  facet normal -6.584219e-001  6.484894e-002 -7.498502e-001
    outer loop
      vertex -4.243041e-001  6.789302e-002  0.000000e+000
      vertex -4.843750e-001 -3.717761e-016  4.687500e-002
      vertex -4.750457e-001  9.472149e-002  4.687500e-002
    endloop
  endfacet
  facet normal -6.263179e-001  1.515170e-001 -7.647016e-001
    outer loop
      vertex -4.243041e-001  6.789302e-002  0.000000e+000
      vertex -4.750457e-001  9.472149e-002  4.687500e-002
      vertex -4.082904e-001  1.340879e-001  0.000000e+000
    endloop
  endfacet
  facet normal  4.640682e-002  6.477945e-001 -7.604003e-001
    outer loop
      vertex -3.220183e-003  4.308162e-001  0.000000e+000
      vertex  1.151316e-003  4.855263e-001  4.687500e-002
      vertex  6.689360e-002  4.257934e-001  0.000000e+000
    endloop
  endfacet
  facet normal  6.493521e-002  6.592977e-001 -7.490728e-001
    outer loop
      vertex  6.689360e-002  4.257934e-001  0.000000e+000
      vertex  1.151316e-003  4.855263e-001  4.687500e-002
      vertex  9.587280e-002  4.761971e-001  4.687500e-002
    endloop
  endfacet
  facet normal  1.577936e-001  6.223067e-001 -7.667043e-001
    outer loop
      vertex  6.689360e-002  4.257934e-001  0.000000e+000
      vertex  9.587280e-002  4.761971e-001  4.687500e-002
      vertex  1.462281e-001  4.056772e-001  0.000000e+000
    endloop
  endfacet
  facet normal  1.925859e-001  6.348711e-001 -7.482308e-001
    outer loop
      vertex  1.462281e-001  4.056772e-001  0.000000e+000
      vertex  9.587280e-002  4.761971e-001  4.687500e-002
      vertex  1.869542e-001  4.485678e-001  4.687500e-002
    endloop
  endfacet
  facet normal  2.722172e-001  5.803461e-001 -7.675260e-001
    outer loop
      vertex  1.462281e-001  4.056772e-001  0.000000e+000
      vertex  1.869542e-001  4.485678e-001  4.687500e-002
      vertex  2.203288e-001  3.709195e-001  0.000000e+000
    endloop
  endfacet
  facet normal  3.131370e-001  5.858379e-001 -7.474886e-001
    outer loop
      vertex  2.203288e-001  3.709195e-001  0.000000e+000
      vertex  1.869542e-001  4.485678e-001  4.687500e-002
      vertex  2.708953e-001  4.037004e-001  4.687500e-002
    endloop
  endfacet
  facet normal  3.765356e-001  5.177149e-001 -7.682398e-001
    outer loop
      vertex  2.203288e-001  3.709195e-001  0.000000e+000
      vertex  2.708953e-001  4.037004e-001  4.687500e-002
      vertex  2.865204e-001  3.227781e-001  0.000000e+000
    endloop
  endfacet
  facet normal  4.218839e-001  5.140670e-001 -7.468260e-001
    outer loop
      vertex  2.865204e-001  3.227781e-001  0.000000e+000
      vertex  2.708953e-001  4.037004e-001  4.687500e-002
      vertex  3.444703e-001  3.433189e-001  4.687500e-002
    endloop
  endfacet
  facet normal  4.671229e-001  4.366729e-001 -7.688388e-001
    outer loop
      vertex  2.865204e-001  3.227781e-001  0.000000e+000
      vertex  3.444703e-001  3.433189e-001  4.687500e-002
      vertex  3.424117e-001  2.629894e-001  0.000000e+000
    endloop
  endfacet
  facet normal  5.145544e-001  4.222842e-001 -7.462639e-001
    outer loop
      vertex  3.424117e-001  2.629894e-001  0.000000e+000
      vertex  3.444703e-001  3.433189e-001  4.687500e-002
      vertex  4.048517e-001  2.697440e-001  4.687500e-002
    endloop
  endfacet
  facet normal  5.383332e-001  3.484849e-001 -7.673042e-001
    outer loop
      vertex  3.424117e-001  2.629894e-001  0.000000e+000
      vertex  4.048517e-001  2.697440e-001  4.687500e-002
      vertex  3.807989e-001  2.036895e-001  0.000000e+000
    endloop
  endfacet
  facet normal -6.424084e-002  6.522476e-001 -7.552789e-001
    outer loop
      vertex  1.151316e-003  4.855263e-001  4.687500e-002
      vertex -3.220183e-003  4.308162e-001  0.000000e+000
      vertex -9.357017e-002  4.761971e-001  4.687500e-002
    endloop
  endfacet
  facet normal -6.044413e-002  6.564037e-001 -7.519845e-001
    outer loop
      vertex -9.357017e-002  4.761971e-001  4.687500e-002
      vertex -3.220183e-003  4.308162e-001  0.000000e+000
      vertex -7.321879e-002  4.243705e-001  0.000000e+000
    endloop
  endfacet
  facet normal -1.873003e-001  6.174466e-001 -7.639884e-001
    outer loop
      vertex -9.357017e-002  4.761971e-001  4.687500e-002
      vertex -7.321879e-002  4.243705e-001  0.000000e+000
      vertex -1.846516e-001  4.485678e-001  4.687500e-002
    endloop
  endfacet
  facet normal -1.698187e-001  6.510624e-001 -7.397833e-001
    outer loop
      vertex -1.846516e-001  4.485678e-001  4.687500e-002
      vertex -7.321879e-002  4.243705e-001  0.000000e+000
      vertex -1.412382e-001  4.066288e-001  0.000000e+000
    endloop
  endfacet
  facet normal -2.609458e-001  5.867083e-001 -7.666034e-001
    outer loop
      vertex -1.846516e-001  4.485678e-001  4.687500e-002
      vertex -1.412382e-001  4.066288e-001  0.000000e+000
      vertex -2.054660e-001  3.780627e-001  0.000000e+000
    endloop
  endfacet
  facet normal -5.417736e-001 -3.461711e-001 -7.659288e-001
    outer loop
      vertex -3.431344e-001 -2.590163e-001  0.000000e+000
      vertex -4.025491e-001 -2.697440e-001  4.687500e-002
      vertex -3.785515e-001 -2.035869e-001  0.000000e+000
    endloop
  endfacet
  facet normal -5.883069e-001 -3.144566e-001 -7.449912e-001
    outer loop
      vertex -4.025491e-001 -2.697440e-001  4.687500e-002
      vertex -4.474165e-001 -1.858029e-001  4.687500e-002
      vertex -3.785515e-001 -2.035869e-001  0.000000e+000
    endloop
  endfacet
  facet normal -1.934014e-001 -6.375592e-001 -7.457308e-001
    outer loop
      vertex -1.335134e-001 -4.092524e-001  0.000000e+000
      vertex -9.357017e-002 -4.761971e-001  4.687500e-002
      vertex -1.846516e-001 -4.485678e-001  4.687500e-002
    endloop
  endfacet
  facet normal -2.465139e-001 -5.931477e-001 -7.664246e-001
    outer loop
      vertex -1.335134e-001 -4.092524e-001  0.000000e+000
      vertex -1.846516e-001 -4.485678e-001  4.687500e-002
      vertex -1.939193e-001 -3.841475e-001  0.000000e+000
    endloop
  endfacet
  facet normal -3.141412e-001 -5.877166e-001 -7.455900e-001
    outer loop
      vertex -1.846516e-001 -4.485678e-001  4.687500e-002
      vertex -2.685927e-001 -4.037004e-001  4.687500e-002
      vertex -1.939193e-001 -3.841475e-001  0.000000e+000
    endloop
  endfacet
  facet normal -1.521181e-001 -6.261966e-001 -7.646816e-001
    outer loop
      vertex -6.703951e-002 -4.254005e-001  0.000000e+000
      vertex -9.357017e-002 -4.761971e-001  4.687500e-002
      vertex -1.335134e-001 -4.092524e-001  0.000000e+000
    endloop
  endfacet
  facet normal  3.144557e-001 -5.883049e-001 -7.449933e-001
    outer loop
      vertex  2.048408e-001 -3.796476e-001  0.000000e+000
      vertex  2.708953e-001 -4.037004e-001  4.687500e-002
      vertex  1.869542e-001 -4.485678e-001  4.687500e-002
    endloop
  endfacet
  facet normal -6.494512e-001 -6.396541e-002 -7.577081e-001
    outer loop
      vertex -4.843750e-001 -3.717761e-016  4.687500e-002
      vertex -4.296865e-001  4.404768e-007  0.000000e+000
      vertex -4.750457e-001 -9.472149e-002  4.687500e-002
    endloop
  endfacet
  facet normal -6.528053e-001 -6.104967e-002 -7.550618e-001
    outer loop
      vertex -4.750457e-001 -9.472149e-002  4.687500e-002
      vertex -4.296865e-001  4.404768e-007  0.000000e+000
      vertex -4.222149e-001 -7.989310e-002  0.000000e+000
    endloop
  endfacet
  facet normal -6.216347e-001 -1.885707e-001 -7.602707e-001
    outer loop
      vertex -4.750457e-001 -9.472149e-002  4.687500e-002
      vertex -4.222149e-001 -7.989310e-002  0.000000e+000
      vertex -4.474165e-001 -1.858029e-001  4.687500e-002
    endloop
  endfacet
  facet normal -6.474851e-001 -1.742809e-001 -7.418821e-001
    outer loop
      vertex -4.474165e-001 -1.858029e-001  4.687500e-002
      vertex -4.222149e-001 -7.989310e-002  0.000000e+000
      vertex -4.051180e-001 -1.434112e-001  0.000000e+000
    endloop
  endfacet
  facet normal -5.883233e-001 -2.597342e-001 -7.657766e-001
    outer loop
      vertex -4.474165e-001 -1.858029e-001  4.687500e-002
      vertex -4.051180e-001 -1.434112e-001  0.000000e+000
      vertex -3.785515e-001 -2.035869e-001  0.000000e+000
    endloop
  endfacet
  facet normal  5.140667e-001 -4.218839e-001 -7.468262e-001
    outer loop
      vertex  3.444703e-001 -3.433189e-001  4.687500e-002
      vertex  3.239294e-001 -2.853691e-001  0.000000e+000
      vertex  4.048517e-001 -2.697440e-001  4.687500e-002
    endloop
  endfacet
  facet normal  5.177146e-001 -3.765357e-001 -7.682399e-001
    outer loop
      vertex  4.048517e-001 -2.697440e-001  4.687500e-002
      vertex  3.239294e-001 -2.853691e-001  0.000000e+000
      vertex  3.720708e-001 -2.191775e-001  0.000000e+000
    endloop
  endfacet
  facet normal  5.858380e-001 -3.131368e-001 -7.474886e-001
    outer loop
      vertex  4.048517e-001 -2.697440e-001  4.687500e-002
      vertex  3.720708e-001 -2.191775e-001  0.000000e+000
      vertex  4.497191e-001 -1.858029e-001  4.687500e-002
    endloop
  endfacet
  facet normal  5.803463e-001 -2.722173e-001 -7.675259e-001
    outer loop
      vertex  4.497191e-001 -1.858029e-001  4.687500e-002
      vertex  3.720708e-001 -2.191775e-001  0.000000e+000
      vertex  4.068285e-001 -1.450768e-001  0.000000e+000
    endloop
  endfacet
  facet normal  6.348711e-001 -1.925862e-001 -7.482307e-001
    outer loop
      vertex  4.497191e-001 -1.858029e-001  4.687500e-002
      vertex  4.068285e-001 -1.450768e-001  0.000000e+000
      vertex  4.773484e-001 -9.472149e-002  4.687500e-002
    endloop
  endfacet
  facet normal  6.223067e-001 -1.577936e-001 -7.667043e-001
    outer loop
      vertex  4.773484e-001 -9.472149e-002  4.687500e-002
      vertex  4.068285e-001 -1.450768e-001  0.000000e+000
      vertex  4.269447e-001 -6.574228e-002  0.000000e+000
    endloop
  endfacet
  facet normal  6.592978e-001 -6.493501e-002 -7.490727e-001
    outer loop
      vertex  4.773484e-001 -9.472149e-002  4.687500e-002
      vertex  4.269447e-001 -6.574228e-002  0.000000e+000
      vertex  4.866776e-001 -1.189157e-016  4.687500e-002
    endloop
  endfacet
  facet normal  6.499812e-001 -4.988274e-002 -7.583115e-001
    outer loop
      vertex  4.866776e-001 -1.189157e-016  4.687500e-002
      vertex  4.269447e-001 -6.574228e-002  0.000000e+000
      vertex  4.319901e-001  3.053113e-016  0.000000e+000
    endloop
  endfacet
  facet normal -5.135637e-001 -4.214709e-001 -7.474053e-001
    outer loop
      vertex -4.025491e-001 -2.697440e-001  4.687500e-002
      vertex -3.431344e-001 -2.590163e-001  0.000000e+000
      vertex -3.421676e-001 -3.433189e-001  4.687500e-002
    endloop
  endfacet
  facet normal -4.876300e-001 -4.285334e-001 -7.606419e-001
    outer loop
      vertex -3.421676e-001 -3.433189e-001  4.687500e-002
      vertex -3.431344e-001 -2.590163e-001  0.000000e+000
      vertex -2.999527e-001 -3.081530e-001  0.000000e+000
    endloop
  endfacet
  facet normal -4.160191e-001 -5.069206e-001 -7.549567e-001
    outer loop
      vertex -3.421676e-001 -3.433189e-001  4.687500e-002
      vertex -2.999527e-001 -3.081530e-001  0.000000e+000
      vertex -2.685927e-001 -4.037004e-001  4.687500e-002
    endloop
  endfacet
  facet normal -4.254181e-001 -5.073007e-001 -7.494434e-001
    outer loop
      vertex -2.685927e-001 -4.037004e-001  4.687500e-002
      vertex -2.999527e-001 -3.081530e-001  0.000000e+000
      vertex -2.498289e-001 -3.501863e-001  0.000000e+000
    endloop
  endfacet
  facet normal -3.350603e-001 -5.516033e-001 -7.638510e-001
    outer loop
      vertex -2.685927e-001 -4.037004e-001  4.687500e-002
      vertex -2.498289e-001 -3.501863e-001  0.000000e+000
      vertex -1.939193e-001 -3.841475e-001  0.000000e+000
    endloop
  endfacet
  facet normal -6.483147e-002 -6.582444e-001 -7.500074e-001
    outer loop
      vertex -9.357017e-002 -4.761971e-001  4.687500e-002
      vertex -6.703951e-002 -4.254005e-001  0.000000e+000
      vertex  1.151316e-003 -4.855263e-001  4.687500e-002
    endloop
  endfacet
  facet normal -5.183217e-002 -6.499165e-001 -7.582360e-001
    outer loop
      vertex  1.151316e-003 -4.855263e-001  4.687500e-002
      vertex -6.703951e-002 -4.254005e-001  0.000000e+000
      vertex  1.151316e-003 -4.308388e-001  0.000000e+000
    endloop
  endfacet
  facet normal  6.396613e-002 -6.494586e-001 -7.577017e-001
    outer loop
      vertex  1.151316e-003 -4.855263e-001  4.687500e-002
      vertex  1.151316e-003 -4.308388e-001  0.000000e+000
      vertex  9.587280e-002 -4.761971e-001  4.687500e-002
    endloop
  endfacet
  facet normal  5.433178e-002 -6.604676e-001 -7.488862e-001
    outer loop
      vertex  9.587280e-002 -4.761971e-001  4.687500e-002
      vertex  1.151316e-003 -4.308388e-001  0.000000e+000
      vertex  7.155337e-002 -4.250474e-001  0.000000e+000
    endloop
  endfacet
  facet normal  1.863107e-001 -6.141843e-001 -7.668546e-001
    outer loop
      vertex  9.587280e-002 -4.761971e-001  4.687500e-002
      vertex  7.155337e-002 -4.250474e-001  0.000000e+000
      vertex  1.869542e-001 -4.485678e-001  4.687500e-002
    endloop
  endfacet
  facet normal  1.650492e-001 -6.567180e-001 -7.358534e-001
    outer loop
      vertex  1.869542e-001 -4.485678e-001  4.687500e-002
      vertex  7.155337e-002 -4.250474e-001  0.000000e+000
      vertex  1.400640e-001 -4.078290e-001  0.000000e+000
    endloop
  endfacet
  facet normal  2.558941e-001 -5.881902e-001 -7.671705e-001
    outer loop
      vertex  1.869542e-001 -4.485678e-001  4.687500e-002
      vertex  1.400640e-001 -4.078290e-001  0.000000e+000
      vertex  2.048408e-001 -3.796476e-001  0.000000e+000
    endloop
  endfacet
  facet normal  4.366729e-001 -4.671227e-001 -7.688389e-001
    outer loop
      vertex  3.239294e-001 -2.853691e-001  0.000000e+000
      vertex  3.444703e-001 -3.433189e-001  4.687500e-002
      vertex  2.641408e-001 -3.412604e-001  0.000000e+000
    endloop
  endfacet
  facet normal  4.222841e-001 -5.145546e-001 -7.462639e-001
    outer loop
      vertex  2.641408e-001 -3.412604e-001  0.000000e+000
      vertex  3.444703e-001 -3.433189e-001  4.687500e-002
      vertex  2.708953e-001 -4.037004e-001  4.687500e-002
    endloop
  endfacet
  facet normal  3.484849e-001 -5.383333e-001 -7.673041e-001
    outer loop
      vertex  2.641408e-001 -3.412604e-001  0.000000e+000
      vertex  2.708953e-001 -4.037004e-001  4.687500e-002
      vertex  2.048408e-001 -3.796476e-001  0.000000e+000
    endloop
  endfacet
endsolid CATIA STL
