solid CATIA STL
  facet normal -9.951848e-001  9.801646e-002  0.000000e+000
    outer loop
      vertex -3.868421e-001  2.526316e-001  1.562500e-002
      vertex -3.868421e-001  2.526316e-001  2.343750e-002
      vertex -3.865387e-001  2.557119e-001  1.562500e-002
    endloop
  endfacet
  facet normal -9.951848e-001  9.801646e-002  0.000000e+000
    outer loop
      vertex -3.865387e-001  2.557119e-001  1.562500e-002
      vertex -3.868421e-001  2.526316e-001  2.343750e-002
      vertex -3.865387e-001  2.557119e-001  2.343750e-002
    endloop
  endfacet
  facet normal -9.569404e-001  2.902845e-001  0.000000e+000
    outer loop
      vertex -3.865387e-001  2.557119e-001  1.562500e-002
      vertex -3.865387e-001  2.557119e-001  2.343750e-002
      vertex -3.856402e-001  2.586739e-001  1.562500e-002
    endloop
  endfacet
  facet normal -9.569404e-001  2.902845e-001  0.000000e+000
    outer loop
      vertex -3.856402e-001  2.586739e-001  1.562500e-002
      vertex -3.865387e-001  2.557119e-001  2.343750e-002
      vertex -3.856402e-001  2.586739e-001  2.343750e-002
    endloop
  endfacet
  facet normal -8.819237e-001  4.713921e-001  0.000000e+000
    outer loop
      vertex -3.856402e-001  2.586739e-001  1.562500e-002
      vertex -3.856402e-001  2.586739e-001  2.343750e-002
      vertex -3.841811e-001  2.614037e-001  1.562500e-002
    endloop
  endfacet
  facet normal -8.819237e-001  4.713921e-001  0.000000e+000
    outer loop
      vertex -3.841811e-001  2.614037e-001  1.562500e-002
      vertex -3.856402e-001  2.586739e-001  2.343750e-002
      vertex -3.841811e-001  2.614037e-001  2.343750e-002
    endloop
  endfacet
  facet normal -7.730067e-001  6.343979e-001  0.000000e+000
    outer loop
      vertex -3.841811e-001  2.614037e-001  1.562500e-002
      vertex -3.841811e-001  2.614037e-001  2.343750e-002
      vertex -3.822175e-001  2.637964e-001  1.562500e-002
    endloop
  endfacet
  facet normal -7.730067e-001  6.343979e-001  0.000000e+000
    outer loop
      vertex -3.822175e-001  2.637964e-001  1.562500e-002
      vertex -3.841811e-001  2.614037e-001  2.343750e-002
      vertex -3.822175e-001  2.637964e-001  2.343750e-002
    endloop
  endfacet
  facet normal -6.343921e-001  7.730114e-001  0.000000e+000
    outer loop
      vertex -3.822175e-001  2.637964e-001  1.562500e-002
      vertex -3.822175e-001  2.637964e-001  2.343750e-002
      vertex -3.798248e-001  2.657600e-001  1.562500e-002
    endloop
  endfacet
  facet normal -6.343921e-001  7.730114e-001  0.000000e+000
    outer loop
      vertex -3.798248e-001  2.657600e-001  1.562500e-002
      vertex -3.822175e-001  2.637964e-001  2.343750e-002
      vertex -3.798248e-001  2.657600e-001  2.343750e-002
    endloop
  endfacet
  facet normal -4.714036e-001  8.819175e-001  0.000000e+000
    outer loop
      vertex -3.798248e-001  2.657600e-001  1.562500e-002
      vertex -3.798248e-001  2.657600e-001  2.343750e-002
      vertex -3.770950e-001  2.672192e-001  1.562500e-002
    endloop
  endfacet
  facet normal -4.714036e-001  8.819175e-001  0.000000e+000
    outer loop
      vertex -3.770950e-001  2.672192e-001  1.562500e-002
      vertex -3.798248e-001  2.657600e-001  2.343750e-002
      vertex -3.770950e-001  2.672192e-001  2.343750e-002
    endloop
  endfacet
  facet normal -2.902818e-001  9.569412e-001  0.000000e+000
    outer loop
      vertex -3.770950e-001  2.672192e-001  1.562500e-002
      vertex -3.770950e-001  2.672192e-001  2.343750e-002
      vertex -3.741330e-001  2.681177e-001  1.562500e-002
    endloop
  endfacet
  facet normal -2.902818e-001  9.569412e-001  0.000000e+000
    outer loop
      vertex -3.741330e-001  2.681177e-001  1.562500e-002
      vertex -3.770950e-001  2.672192e-001  2.343750e-002
      vertex -3.741330e-001  2.681177e-001  2.343750e-002
    endloop
  endfacet
  facet normal -9.801646e-002  9.951848e-001  0.000000e+000
    outer loop
      vertex -3.741330e-001  2.681177e-001  1.562500e-002
      vertex -3.741330e-001  2.681177e-001  2.343750e-002
      vertex -3.710526e-001  2.684211e-001  1.562500e-002
    endloop
  endfacet
  facet normal -9.801646e-002  9.951848e-001  0.000000e+000
    outer loop
      vertex -3.710526e-001  2.684211e-001  1.562500e-002
      vertex -3.741330e-001  2.681177e-001  2.343750e-002
      vertex -3.710526e-001  2.684211e-001  2.343750e-002
    endloop
  endfacet
  facet normal  9.801646e-002  9.951848e-001  0.000000e+000
    outer loop
      vertex -3.710526e-001  2.684211e-001  1.562500e-002
      vertex -3.710526e-001  2.684211e-001  2.343750e-002
      vertex -3.679723e-001  2.681177e-001  1.562500e-002
    endloop
  endfacet
  facet normal  9.801646e-002  9.951848e-001  -0.000000e+000
    outer loop
      vertex -3.679723e-001  2.681177e-001  1.562500e-002
      vertex -3.710526e-001  2.684211e-001  2.343750e-002
      vertex -3.679723e-001  2.681177e-001  2.343750e-002
    endloop
  endfacet
  facet normal  2.902845e-001  9.569404e-001  0.000000e+000
    outer loop
      vertex -3.679723e-001  2.681177e-001  1.562500e-002
      vertex -3.679723e-001  2.681177e-001  2.343750e-002
      vertex -3.650103e-001  2.672192e-001  1.562500e-002
    endloop
  endfacet
  facet normal  2.902845e-001  9.569404e-001  -0.000000e+000
    outer loop
      vertex -3.650103e-001  2.672192e-001  1.562500e-002
      vertex -3.679723e-001  2.681177e-001  2.343750e-002
      vertex -3.650103e-001  2.672192e-001  2.343750e-002
    endloop
  endfacet
  facet normal  4.713996e-001  8.819197e-001  0.000000e+000
    outer loop
      vertex -3.650103e-001  2.672192e-001  1.562500e-002
      vertex -3.650103e-001  2.672192e-001  2.343750e-002
      vertex -3.622805e-001  2.657600e-001  1.562500e-002
    endloop
  endfacet
  facet normal  4.713996e-001  8.819197e-001  -0.000000e+000
    outer loop
      vertex -3.622805e-001  2.657600e-001  1.562500e-002
      vertex -3.650103e-001  2.672192e-001  2.343750e-002
      vertex -3.622805e-001  2.657600e-001  2.343750e-002
    endloop
  endfacet
  facet normal  6.343921e-001  7.730114e-001  0.000000e+000
    outer loop
      vertex -3.622805e-001  2.657600e-001  1.562500e-002
      vertex -3.622805e-001  2.657600e-001  2.343750e-002
      vertex -3.598878e-001  2.637964e-001  1.562500e-002
    endloop
  endfacet
  facet normal  6.343921e-001  7.730114e-001  -0.000000e+000
    outer loop
      vertex -3.598878e-001  2.637964e-001  1.562500e-002
      vertex -3.622805e-001  2.657600e-001  2.343750e-002
      vertex -3.598878e-001  2.637964e-001  2.343750e-002
    endloop
  endfacet
  facet normal  7.730114e-001  6.343921e-001  0.000000e+000
    outer loop
      vertex -3.598878e-001  2.637964e-001  1.562500e-002
      vertex -3.598878e-001  2.637964e-001  2.343750e-002
      vertex -3.579242e-001  2.614037e-001  1.562500e-002
    endloop
  endfacet
  facet normal  7.730114e-001  6.343921e-001  -0.000000e+000
    outer loop
      vertex -3.579242e-001  2.614037e-001  1.562500e-002
      vertex -3.598878e-001  2.637964e-001  2.343750e-002
      vertex -3.579242e-001  2.614037e-001  2.343750e-002
    endloop
  endfacet
  facet normal  8.819237e-001  4.713921e-001  0.000000e+000
    outer loop
      vertex -3.579242e-001  2.614037e-001  1.562500e-002
      vertex -3.579242e-001  2.614037e-001  2.343750e-002
      vertex -3.564651e-001  2.586739e-001  1.562500e-002
    endloop
  endfacet
  facet normal  8.819237e-001  4.713921e-001  -0.000000e+000
    outer loop
      vertex -3.564651e-001  2.586739e-001  1.562500e-002
      vertex -3.579242e-001  2.614037e-001  2.343750e-002
      vertex -3.564651e-001  2.586739e-001  2.343750e-002
    endloop
  endfacet
  facet normal  9.569404e-001  2.902845e-001  0.000000e+000
    outer loop
      vertex -3.564651e-001  2.586739e-001  1.562500e-002
      vertex -3.564651e-001  2.586739e-001  2.343750e-002
      vertex -3.555666e-001  2.557119e-001  1.562500e-002
    endloop
  endfacet
  facet normal  9.569404e-001  2.902845e-001  -0.000000e+000
    outer loop
      vertex -3.555666e-001  2.557119e-001  1.562500e-002
      vertex -3.564651e-001  2.586739e-001  2.343750e-002
      vertex -3.555666e-001  2.557119e-001  2.343750e-002
    endloop
  endfacet
  facet normal  9.951839e-001  9.802600e-002  0.000000e+000
    outer loop
      vertex -3.555666e-001  2.557119e-001  1.562500e-002
      vertex -3.555666e-001  2.557119e-001  2.343750e-002
      vertex -3.552631e-001  2.526316e-001  1.562500e-002
    endloop
  endfacet
  facet normal  9.951839e-001  9.802600e-002  -0.000000e+000
    outer loop
      vertex -3.552631e-001  2.526316e-001  1.562500e-002
      vertex -3.555666e-001  2.557119e-001  2.343750e-002
      vertex -3.552631e-001  2.526316e-001  2.343750e-002
    endloop
  endfacet
  facet normal -9.951848e-001  9.801646e-002  0.000000e+000
    outer loop
      vertex -3.868421e-001  2.526316e-001  0.000000e+000
      vertex -3.868421e-001  2.526316e-001  7.812500e-003
      vertex -3.865387e-001  2.557119e-001  0.000000e+000
    endloop
  endfacet
  facet normal -9.951848e-001  9.801646e-002  0.000000e+000
    outer loop
      vertex -3.865387e-001  2.557119e-001  0.000000e+000
      vertex -3.868421e-001  2.526316e-001  7.812500e-003
      vertex -3.865387e-001  2.557119e-001  7.812500e-003
    endloop
  endfacet
  facet normal -9.569404e-001  2.902845e-001  0.000000e+000
    outer loop
      vertex -3.865387e-001  2.557119e-001  0.000000e+000
      vertex -3.865387e-001  2.557119e-001  7.812500e-003
      vertex -3.856402e-001  2.586739e-001  0.000000e+000
    endloop
  endfacet
  facet normal -9.569404e-001  2.902845e-001  0.000000e+000
    outer loop
      vertex -3.856402e-001  2.586739e-001  0.000000e+000
      vertex -3.865387e-001  2.557119e-001  7.812500e-003
      vertex -3.856402e-001  2.586739e-001  7.812500e-003
    endloop
  endfacet
  facet normal -8.819237e-001  4.713921e-001  0.000000e+000
    outer loop
      vertex -3.856402e-001  2.586739e-001  0.000000e+000
      vertex -3.856402e-001  2.586739e-001  7.812500e-003
      vertex -3.841811e-001  2.614037e-001  0.000000e+000
    endloop
  endfacet
  facet normal -8.819237e-001  4.713921e-001  0.000000e+000
    outer loop
      vertex -3.841811e-001  2.614037e-001  0.000000e+000
      vertex -3.856402e-001  2.586739e-001  7.812500e-003
      vertex -3.841811e-001  2.614037e-001  7.812500e-003
    endloop
  endfacet
  facet normal -7.730067e-001  6.343979e-001  0.000000e+000
    outer loop
      vertex -3.841811e-001  2.614037e-001  0.000000e+000
      vertex -3.841811e-001  2.614037e-001  7.812500e-003
      vertex -3.822175e-001  2.637964e-001  0.000000e+000
    endloop
  endfacet
  facet normal -7.730067e-001  6.343979e-001  0.000000e+000
    outer loop
      vertex -3.822175e-001  2.637964e-001  0.000000e+000
      vertex -3.841811e-001  2.614037e-001  7.812500e-003
      vertex -3.822175e-001  2.637964e-001  7.812500e-003
    endloop
  endfacet
  facet normal -6.343921e-001  7.730114e-001  0.000000e+000
    outer loop
      vertex -3.822175e-001  2.637964e-001  0.000000e+000
      vertex -3.822175e-001  2.637964e-001  7.812500e-003
      vertex -3.798248e-001  2.657600e-001  0.000000e+000
    endloop
  endfacet
  facet normal -6.343921e-001  7.730114e-001  0.000000e+000
    outer loop
      vertex -3.798248e-001  2.657600e-001  0.000000e+000
      vertex -3.822175e-001  2.637964e-001  7.812500e-003
      vertex -3.798248e-001  2.657600e-001  7.812500e-003
    endloop
  endfacet
  facet normal -4.714036e-001  8.819175e-001  0.000000e+000
    outer loop
      vertex -3.798248e-001  2.657600e-001  0.000000e+000
      vertex -3.798248e-001  2.657600e-001  7.812500e-003
      vertex -3.770950e-001  2.672192e-001  0.000000e+000
    endloop
  endfacet
  facet normal -4.714036e-001  8.819175e-001  0.000000e+000
    outer loop
      vertex -3.770950e-001  2.672192e-001  0.000000e+000
      vertex -3.798248e-001  2.657600e-001  7.812500e-003
      vertex -3.770950e-001  2.672192e-001  7.812500e-003
    endloop
  endfacet
  facet normal -2.902818e-001  9.569412e-001  0.000000e+000
    outer loop
      vertex -3.770950e-001  2.672192e-001  0.000000e+000
      vertex -3.770950e-001  2.672192e-001  7.812500e-003
      vertex -3.741330e-001  2.681177e-001  0.000000e+000
    endloop
  endfacet
  facet normal -2.902818e-001  9.569412e-001  0.000000e+000
    outer loop
      vertex -3.741330e-001  2.681177e-001  0.000000e+000
      vertex -3.770950e-001  2.672192e-001  7.812500e-003
      vertex -3.741330e-001  2.681177e-001  7.812500e-003
    endloop
  endfacet
  facet normal -9.801646e-002  9.951848e-001  0.000000e+000
    outer loop
      vertex -3.741330e-001  2.681177e-001  0.000000e+000
      vertex -3.741330e-001  2.681177e-001  7.812500e-003
      vertex -3.710526e-001  2.684211e-001  0.000000e+000
    endloop
  endfacet
  facet normal -9.801646e-002  9.951848e-001  0.000000e+000
    outer loop
      vertex -3.710526e-001  2.684211e-001  0.000000e+000
      vertex -3.741330e-001  2.681177e-001  7.812500e-003
      vertex -3.710526e-001  2.684211e-001  7.812500e-003
    endloop
  endfacet
  facet normal  9.801646e-002  9.951848e-001  0.000000e+000
    outer loop
      vertex -3.710526e-001  2.684211e-001  0.000000e+000
      vertex -3.710526e-001  2.684211e-001  7.812500e-003
      vertex -3.679723e-001  2.681177e-001  0.000000e+000
    endloop
  endfacet
  facet normal  9.801646e-002  9.951848e-001  -0.000000e+000
    outer loop
      vertex -3.679723e-001  2.681177e-001  0.000000e+000
      vertex -3.710526e-001  2.684211e-001  7.812500e-003
      vertex -3.679723e-001  2.681177e-001  7.812500e-003
    endloop
  endfacet
  facet normal  2.902845e-001  9.569404e-001  0.000000e+000
    outer loop
      vertex -3.679723e-001  2.681177e-001  0.000000e+000
      vertex -3.679723e-001  2.681177e-001  7.812500e-003
      vertex -3.650103e-001  2.672192e-001  0.000000e+000
    endloop
  endfacet
  facet normal  2.902845e-001  9.569404e-001  -0.000000e+000
    outer loop
      vertex -3.650103e-001  2.672192e-001  0.000000e+000
      vertex -3.679723e-001  2.681177e-001  7.812500e-003
      vertex -3.650103e-001  2.672192e-001  7.812500e-003
    endloop
  endfacet
  facet normal  4.713996e-001  8.819197e-001  0.000000e+000
    outer loop
      vertex -3.650103e-001  2.672192e-001  0.000000e+000
      vertex -3.650103e-001  2.672192e-001  7.812500e-003
      vertex -3.622805e-001  2.657600e-001  0.000000e+000
    endloop
  endfacet
  facet normal  4.713996e-001  8.819197e-001  -0.000000e+000
    outer loop
      vertex -3.622805e-001  2.657600e-001  0.000000e+000
      vertex -3.650103e-001  2.672192e-001  7.812500e-003
      vertex -3.622805e-001  2.657600e-001  7.812500e-003
    endloop
  endfacet
  facet normal  6.343921e-001  7.730114e-001  0.000000e+000
    outer loop
      vertex -3.622805e-001  2.657600e-001  0.000000e+000
      vertex -3.622805e-001  2.657600e-001  7.812500e-003
      vertex -3.598878e-001  2.637964e-001  0.000000e+000
    endloop
  endfacet
  facet normal  6.343921e-001  7.730114e-001  -0.000000e+000
    outer loop
      vertex -3.598878e-001  2.637964e-001  0.000000e+000
      vertex -3.622805e-001  2.657600e-001  7.812500e-003
      vertex -3.598878e-001  2.637964e-001  7.812500e-003
    endloop
  endfacet
  facet normal  7.730114e-001  6.343921e-001  0.000000e+000
    outer loop
      vertex -3.598878e-001  2.637964e-001  0.000000e+000
      vertex -3.598878e-001  2.637964e-001  7.812500e-003
      vertex -3.579242e-001  2.614037e-001  0.000000e+000
    endloop
  endfacet
  facet normal  7.730114e-001  6.343921e-001  -0.000000e+000
    outer loop
      vertex -3.579242e-001  2.614037e-001  0.000000e+000
      vertex -3.598878e-001  2.637964e-001  7.812500e-003
      vertex -3.579242e-001  2.614037e-001  7.812500e-003
    endloop
  endfacet
  facet normal  8.819237e-001  4.713921e-001  0.000000e+000
    outer loop
      vertex -3.579242e-001  2.614037e-001  0.000000e+000
      vertex -3.579242e-001  2.614037e-001  7.812500e-003
      vertex -3.564651e-001  2.586739e-001  0.000000e+000
    endloop
  endfacet
  facet normal  8.819237e-001  4.713921e-001  -0.000000e+000
    outer loop
      vertex -3.564651e-001  2.586739e-001  0.000000e+000
      vertex -3.579242e-001  2.614037e-001  7.812500e-003
      vertex -3.564651e-001  2.586739e-001  7.812500e-003
    endloop
  endfacet
  facet normal  9.569404e-001  2.902845e-001  0.000000e+000
    outer loop
      vertex -3.564651e-001  2.586739e-001  0.000000e+000
      vertex -3.564651e-001  2.586739e-001  7.812500e-003
      vertex -3.555666e-001  2.557119e-001  0.000000e+000
    endloop
  endfacet
  facet normal  9.569404e-001  2.902845e-001  -0.000000e+000
    outer loop
      vertex -3.555666e-001  2.557119e-001  0.000000e+000
      vertex -3.564651e-001  2.586739e-001  7.812500e-003
      vertex -3.555666e-001  2.557119e-001  7.812500e-003
    endloop
  endfacet
  facet normal  9.951839e-001  9.802600e-002  0.000000e+000
    outer loop
      vertex -3.555666e-001  2.557119e-001  0.000000e+000
      vertex -3.555666e-001  2.557119e-001  7.812500e-003
      vertex -3.552631e-001  2.526316e-001  0.000000e+000
    endloop
  endfacet
  facet normal  9.951839e-001  9.802600e-002  -0.000000e+000
    outer loop
      vertex -3.552631e-001  2.526316e-001  0.000000e+000
      vertex -3.555666e-001  2.557119e-001  7.812500e-003
      vertex -3.552631e-001  2.526316e-001  7.812500e-003
    endloop
  endfacet
  facet normal  9.951839e-001 -9.802600e-002  0.000000e+000
    outer loop
      vertex -3.552631e-001  2.526316e-001  1.562500e-002
      vertex -3.552631e-001  2.526316e-001  2.343750e-002
      vertex -3.555666e-001  2.495512e-001  1.562500e-002
    endloop
  endfacet
  facet normal  9.951839e-001 -9.802600e-002  0.000000e+000
    outer loop
      vertex -3.555666e-001  2.495512e-001  1.562500e-002
      vertex -3.552631e-001  2.526316e-001  2.343750e-002
      vertex -3.555666e-001  2.495512e-001  2.343750e-002
    endloop
  endfacet
  facet normal  9.569404e-001 -2.902845e-001  0.000000e+000
    outer loop
      vertex -3.555666e-001  2.495512e-001  1.562500e-002
      vertex -3.555666e-001  2.495512e-001  2.343750e-002
      vertex -3.564651e-001  2.465892e-001  1.562500e-002
    endloop
  endfacet
  facet normal  9.569404e-001 -2.902845e-001  0.000000e+000
    outer loop
      vertex -3.564651e-001  2.465892e-001  1.562500e-002
      vertex -3.555666e-001  2.495512e-001  2.343750e-002
      vertex -3.564651e-001  2.465892e-001  2.343750e-002
    endloop
  endfacet
  facet normal  8.819237e-001 -4.713921e-001  0.000000e+000
    outer loop
      vertex -3.564651e-001  2.465892e-001  1.562500e-002
      vertex -3.564651e-001  2.465892e-001  2.343750e-002
      vertex -3.579242e-001  2.438594e-001  1.562500e-002
    endloop
  endfacet
  facet normal  8.819237e-001 -4.713921e-001  0.000000e+000
    outer loop
      vertex -3.579242e-001  2.438594e-001  1.562500e-002
      vertex -3.564651e-001  2.465892e-001  2.343750e-002
      vertex -3.579242e-001  2.438594e-001  2.343750e-002
    endloop
  endfacet
  facet normal  7.730114e-001 -6.343921e-001  0.000000e+000
    outer loop
      vertex -3.579242e-001  2.438594e-001  1.562500e-002
      vertex -3.579242e-001  2.438594e-001  2.343750e-002
      vertex -3.598878e-001  2.414667e-001  1.562500e-002
    endloop
  endfacet
  facet normal  7.730114e-001 -6.343921e-001  0.000000e+000
    outer loop
      vertex -3.598878e-001  2.414667e-001  1.562500e-002
      vertex -3.579242e-001  2.438594e-001  2.343750e-002
      vertex -3.598878e-001  2.414667e-001  2.343750e-002
    endloop
  endfacet
  facet normal  6.343921e-001 -7.730114e-001  0.000000e+000
    outer loop
      vertex -3.598878e-001  2.414667e-001  1.562500e-002
      vertex -3.598878e-001  2.414667e-001  2.343750e-002
      vertex -3.622805e-001  2.395031e-001  1.562500e-002
    endloop
  endfacet
  facet normal  6.343921e-001 -7.730114e-001  0.000000e+000
    outer loop
      vertex -3.622805e-001  2.395031e-001  1.562500e-002
      vertex -3.598878e-001  2.414667e-001  2.343750e-002
      vertex -3.622805e-001  2.395031e-001  2.343750e-002
    endloop
  endfacet
  facet normal  4.713958e-001 -8.819216e-001  0.000000e+000
    outer loop
      vertex -3.622805e-001  2.395031e-001  1.562500e-002
      vertex -3.622805e-001  2.395031e-001  2.343750e-002
      vertex -3.650103e-001  2.380440e-001  1.562500e-002
    endloop
  endfacet
  facet normal  4.713958e-001 -8.819216e-001  0.000000e+000
    outer loop
      vertex -3.650103e-001  2.380440e-001  1.562500e-002
      vertex -3.622805e-001  2.395031e-001  2.343750e-002
      vertex -3.650103e-001  2.380440e-001  2.343750e-002
    endloop
  endfacet
  facet normal  2.902845e-001 -9.569404e-001  0.000000e+000
    outer loop
      vertex -3.650103e-001  2.380440e-001  1.562500e-002
      vertex -3.650103e-001  2.380440e-001  2.343750e-002
      vertex -3.679723e-001  2.371455e-001  1.562500e-002
    endloop
  endfacet
  facet normal  2.902845e-001 -9.569404e-001  0.000000e+000
    outer loop
      vertex -3.679723e-001  2.371455e-001  1.562500e-002
      vertex -3.650103e-001  2.380440e-001  2.343750e-002
      vertex -3.679723e-001  2.371455e-001  2.343750e-002
    endloop
  endfacet
  facet normal  9.801646e-002 -9.951848e-001  0.000000e+000
    outer loop
      vertex -3.679723e-001  2.371455e-001  1.562500e-002
      vertex -3.679723e-001  2.371455e-001  2.343750e-002
      vertex -3.710526e-001  2.368421e-001  1.562500e-002
    endloop
  endfacet
  facet normal  9.801646e-002 -9.951848e-001  0.000000e+000
    outer loop
      vertex -3.710526e-001  2.368421e-001  1.562500e-002
      vertex -3.679723e-001  2.371455e-001  2.343750e-002
      vertex -3.710526e-001  2.368421e-001  2.343750e-002
    endloop
  endfacet
  facet normal -9.801646e-002 -9.951848e-001  -0.000000e+000
    outer loop
      vertex -3.710526e-001  2.368421e-001  1.562500e-002
      vertex -3.710526e-001  2.368421e-001  2.343750e-002
      vertex -3.741330e-001  2.371455e-001  1.562500e-002
    endloop
  endfacet
  facet normal -9.801646e-002 -9.951848e-001  0.000000e+000
    outer loop
      vertex -3.741330e-001  2.371455e-001  1.562500e-002
      vertex -3.710526e-001  2.368421e-001  2.343750e-002
      vertex -3.741330e-001  2.371455e-001  2.343750e-002
    endloop
  endfacet
  facet normal -2.902818e-001 -9.569412e-001  -0.000000e+000
    outer loop
      vertex -3.741330e-001  2.371455e-001  1.562500e-002
      vertex -3.741330e-001  2.371455e-001  2.343750e-002
      vertex -3.770950e-001  2.380440e-001  1.562500e-002
    endloop
  endfacet
  facet normal -2.902818e-001 -9.569412e-001  0.000000e+000
    outer loop
      vertex -3.770950e-001  2.380440e-001  1.562500e-002
      vertex -3.741330e-001  2.371455e-001  2.343750e-002
      vertex -3.770950e-001  2.380440e-001  2.343750e-002
    endloop
  endfacet
  facet normal -4.713998e-001 -8.819195e-001  -0.000000e+000
    outer loop
      vertex -3.770950e-001  2.380440e-001  1.562500e-002
      vertex -3.770950e-001  2.380440e-001  2.343750e-002
      vertex -3.798248e-001  2.395031e-001  1.562500e-002
    endloop
  endfacet
  facet normal -4.713998e-001 -8.819195e-001  0.000000e+000
    outer loop
      vertex -3.798248e-001  2.395031e-001  1.562500e-002
      vertex -3.770950e-001  2.380440e-001  2.343750e-002
      vertex -3.798248e-001  2.395031e-001  2.343750e-002
    endloop
  endfacet
  facet normal -6.343921e-001 -7.730114e-001  -0.000000e+000
    outer loop
      vertex -3.798248e-001  2.395031e-001  1.562500e-002
      vertex -3.798248e-001  2.395031e-001  2.343750e-002
      vertex -3.822175e-001  2.414667e-001  1.562500e-002
    endloop
  endfacet
  facet normal -6.343921e-001 -7.730114e-001  0.000000e+000
    outer loop
      vertex -3.822175e-001  2.414667e-001  1.562500e-002
      vertex -3.798248e-001  2.395031e-001  2.343750e-002
      vertex -3.822175e-001  2.414667e-001  2.343750e-002
    endloop
  endfacet
  facet normal -7.730067e-001 -6.343979e-001  -0.000000e+000
    outer loop
      vertex -3.822175e-001  2.414667e-001  1.562500e-002
      vertex -3.822175e-001  2.414667e-001  2.343750e-002
      vertex -3.841811e-001  2.438594e-001  1.562500e-002
    endloop
  endfacet
  facet normal -7.730067e-001 -6.343979e-001  0.000000e+000
    outer loop
      vertex -3.841811e-001  2.438594e-001  1.562500e-002
      vertex -3.822175e-001  2.414667e-001  2.343750e-002
      vertex -3.841811e-001  2.438594e-001  2.343750e-002
    endloop
  endfacet
  facet normal -8.819237e-001 -4.713921e-001  -0.000000e+000
    outer loop
      vertex -3.841811e-001  2.438594e-001  1.562500e-002
      vertex -3.841811e-001  2.438594e-001  2.343750e-002
      vertex -3.856402e-001  2.465892e-001  1.562500e-002
    endloop
  endfacet
  facet normal -8.819237e-001 -4.713921e-001  0.000000e+000
    outer loop
      vertex -3.856402e-001  2.465892e-001  1.562500e-002
      vertex -3.841811e-001  2.438594e-001  2.343750e-002
      vertex -3.856402e-001  2.465892e-001  2.343750e-002
    endloop
  endfacet
  facet normal -9.569404e-001 -2.902845e-001  -0.000000e+000
    outer loop
      vertex -3.856402e-001  2.465892e-001  1.562500e-002
      vertex -3.856402e-001  2.465892e-001  2.343750e-002
      vertex -3.865387e-001  2.495512e-001  1.562500e-002
    endloop
  endfacet
  facet normal -9.569404e-001 -2.902845e-001  0.000000e+000
    outer loop
      vertex -3.865387e-001  2.495512e-001  1.562500e-002
      vertex -3.856402e-001  2.465892e-001  2.343750e-002
      vertex -3.865387e-001  2.495512e-001  2.343750e-002
    endloop
  endfacet
  facet normal -9.951848e-001 -9.801646e-002  -0.000000e+000
    outer loop
      vertex -3.865387e-001  2.495512e-001  1.562500e-002
      vertex -3.865387e-001  2.495512e-001  2.343750e-002
      vertex -3.868421e-001  2.526316e-001  1.562500e-002
    endloop
  endfacet
  facet normal -9.951848e-001 -9.801646e-002  0.000000e+000
    outer loop
      vertex -3.868421e-001  2.526316e-001  1.562500e-002
      vertex -3.865387e-001  2.495512e-001  2.343750e-002
      vertex -3.868421e-001  2.526316e-001  2.343750e-002
    endloop
  endfacet
  facet normal  9.951839e-001 -9.802600e-002  0.000000e+000
    outer loop
      vertex -3.552631e-001  2.526316e-001  0.000000e+000
      vertex -3.552631e-001  2.526316e-001  7.812500e-003
      vertex -3.555666e-001  2.495512e-001  0.000000e+000
    endloop
  endfacet
  facet normal  9.951839e-001 -9.802600e-002  0.000000e+000
    outer loop
      vertex -3.555666e-001  2.495512e-001  0.000000e+000
      vertex -3.552631e-001  2.526316e-001  7.812500e-003
      vertex -3.555666e-001  2.495512e-001  7.812500e-003
    endloop
  endfacet
  facet normal  9.569404e-001 -2.902845e-001  0.000000e+000
    outer loop
      vertex -3.555666e-001  2.495512e-001  0.000000e+000
      vertex -3.555666e-001  2.495512e-001  7.812500e-003
      vertex -3.564651e-001  2.465892e-001  0.000000e+000
    endloop
  endfacet
  facet normal  9.569404e-001 -2.902845e-001  0.000000e+000
    outer loop
      vertex -3.564651e-001  2.465892e-001  0.000000e+000
      vertex -3.555666e-001  2.495512e-001  7.812500e-003
      vertex -3.564651e-001  2.465892e-001  7.812500e-003
    endloop
  endfacet
  facet normal  8.819237e-001 -4.713921e-001  0.000000e+000
    outer loop
      vertex -3.564651e-001  2.465892e-001  0.000000e+000
      vertex -3.564651e-001  2.465892e-001  7.812500e-003
      vertex -3.579242e-001  2.438594e-001  0.000000e+000
    endloop
  endfacet
  facet normal  8.819237e-001 -4.713921e-001  0.000000e+000
    outer loop
      vertex -3.579242e-001  2.438594e-001  0.000000e+000
      vertex -3.564651e-001  2.465892e-001  7.812500e-003
      vertex -3.579242e-001  2.438594e-001  7.812500e-003
    endloop
  endfacet
  facet normal  7.730114e-001 -6.343921e-001  0.000000e+000
    outer loop
      vertex -3.579242e-001  2.438594e-001  0.000000e+000
      vertex -3.579242e-001  2.438594e-001  7.812500e-003
      vertex -3.598878e-001  2.414667e-001  0.000000e+000
    endloop
  endfacet
  facet normal  7.730114e-001 -6.343921e-001  0.000000e+000
    outer loop
      vertex -3.598878e-001  2.414667e-001  0.000000e+000
      vertex -3.579242e-001  2.438594e-001  7.812500e-003
      vertex -3.598878e-001  2.414667e-001  7.812500e-003
    endloop
  endfacet
  facet normal  6.343921e-001 -7.730114e-001  0.000000e+000
    outer loop
      vertex -3.598878e-001  2.414667e-001  0.000000e+000
      vertex -3.598878e-001  2.414667e-001  7.812500e-003
      vertex -3.622805e-001  2.395031e-001  0.000000e+000
    endloop
  endfacet
  facet normal  6.343921e-001 -7.730114e-001  0.000000e+000
    outer loop
      vertex -3.622805e-001  2.395031e-001  0.000000e+000
      vertex -3.598878e-001  2.414667e-001  7.812500e-003
      vertex -3.622805e-001  2.395031e-001  7.812500e-003
    endloop
  endfacet
  facet normal  4.713958e-001 -8.819216e-001  0.000000e+000
    outer loop
      vertex -3.622805e-001  2.395031e-001  0.000000e+000
      vertex -3.622805e-001  2.395031e-001  7.812500e-003
      vertex -3.650103e-001  2.380440e-001  0.000000e+000
    endloop
  endfacet
  facet normal  4.713958e-001 -8.819216e-001  0.000000e+000
    outer loop
      vertex -3.650103e-001  2.380440e-001  0.000000e+000
      vertex -3.622805e-001  2.395031e-001  7.812500e-003
      vertex -3.650103e-001  2.380440e-001  7.812500e-003
    endloop
  endfacet
  facet normal  2.902845e-001 -9.569404e-001  0.000000e+000
    outer loop
      vertex -3.650103e-001  2.380440e-001  0.000000e+000
      vertex -3.650103e-001  2.380440e-001  7.812500e-003
      vertex -3.679723e-001  2.371455e-001  0.000000e+000
    endloop
  endfacet
  facet normal  2.902845e-001 -9.569404e-001  0.000000e+000
    outer loop
      vertex -3.679723e-001  2.371455e-001  0.000000e+000
      vertex -3.650103e-001  2.380440e-001  7.812500e-003
      vertex -3.679723e-001  2.371455e-001  7.812500e-003
    endloop
  endfacet
  facet normal  9.801646e-002 -9.951848e-001  0.000000e+000
    outer loop
      vertex -3.679723e-001  2.371455e-001  0.000000e+000
      vertex -3.679723e-001  2.371455e-001  7.812500e-003
      vertex -3.710526e-001  2.368421e-001  0.000000e+000
    endloop
  endfacet
  facet normal  9.801646e-002 -9.951848e-001  0.000000e+000
    outer loop
      vertex -3.710526e-001  2.368421e-001  0.000000e+000
      vertex -3.679723e-001  2.371455e-001  7.812500e-003
      vertex -3.710526e-001  2.368421e-001  7.812500e-003
    endloop
  endfacet
  facet normal -9.801646e-002 -9.951848e-001  -0.000000e+000
    outer loop
      vertex -3.710526e-001  2.368421e-001  0.000000e+000
      vertex -3.710526e-001  2.368421e-001  7.812500e-003
      vertex -3.741330e-001  2.371455e-001  0.000000e+000
    endloop
  endfacet
  facet normal -9.801646e-002 -9.951848e-001  0.000000e+000
    outer loop
      vertex -3.741330e-001  2.371455e-001  0.000000e+000
      vertex -3.710526e-001  2.368421e-001  7.812500e-003
      vertex -3.741330e-001  2.371455e-001  7.812500e-003
    endloop
  endfacet
  facet normal -2.902818e-001 -9.569412e-001  -0.000000e+000
    outer loop
      vertex -3.741330e-001  2.371455e-001  0.000000e+000
      vertex -3.741330e-001  2.371455e-001  7.812500e-003
      vertex -3.770950e-001  2.380440e-001  0.000000e+000
    endloop
  endfacet
  facet normal -2.902818e-001 -9.569412e-001  0.000000e+000
    outer loop
      vertex -3.770950e-001  2.380440e-001  0.000000e+000
      vertex -3.741330e-001  2.371455e-001  7.812500e-003
      vertex -3.770950e-001  2.380440e-001  7.812500e-003
    endloop
  endfacet
  facet normal -4.713998e-001 -8.819195e-001  -0.000000e+000
    outer loop
      vertex -3.770950e-001  2.380440e-001  0.000000e+000
      vertex -3.770950e-001  2.380440e-001  7.812500e-003
      vertex -3.798248e-001  2.395031e-001  0.000000e+000
    endloop
  endfacet
  facet normal -4.713998e-001 -8.819195e-001  0.000000e+000
    outer loop
      vertex -3.798248e-001  2.395031e-001  0.000000e+000
      vertex -3.770950e-001  2.380440e-001  7.812500e-003
      vertex -3.798248e-001  2.395031e-001  7.812500e-003
    endloop
  endfacet
  facet normal -6.343921e-001 -7.730114e-001  -0.000000e+000
    outer loop
      vertex -3.798248e-001  2.395031e-001  0.000000e+000
      vertex -3.798248e-001  2.395031e-001  7.812500e-003
      vertex -3.822175e-001  2.414667e-001  0.000000e+000
    endloop
  endfacet
  facet normal -6.343921e-001 -7.730114e-001  0.000000e+000
    outer loop
      vertex -3.822175e-001  2.414667e-001  0.000000e+000
      vertex -3.798248e-001  2.395031e-001  7.812500e-003
      vertex -3.822175e-001  2.414667e-001  7.812500e-003
    endloop
  endfacet
  facet normal -7.730067e-001 -6.343979e-001  -0.000000e+000
    outer loop
      vertex -3.822175e-001  2.414667e-001  0.000000e+000
      vertex -3.822175e-001  2.414667e-001  7.812500e-003
      vertex -3.841811e-001  2.438594e-001  0.000000e+000
    endloop
  endfacet
  facet normal -7.730067e-001 -6.343979e-001  0.000000e+000
    outer loop
      vertex -3.841811e-001  2.438594e-001  0.000000e+000
      vertex -3.822175e-001  2.414667e-001  7.812500e-003
      vertex -3.841811e-001  2.438594e-001  7.812500e-003
    endloop
  endfacet
  facet normal -8.819237e-001 -4.713921e-001  -0.000000e+000
    outer loop
      vertex -3.841811e-001  2.438594e-001  0.000000e+000
      vertex -3.841811e-001  2.438594e-001  7.812500e-003
      vertex -3.856402e-001  2.465892e-001  0.000000e+000
    endloop
  endfacet
  facet normal -8.819237e-001 -4.713921e-001  0.000000e+000
    outer loop
      vertex -3.856402e-001  2.465892e-001  0.000000e+000
      vertex -3.841811e-001  2.438594e-001  7.812500e-003
      vertex -3.856402e-001  2.465892e-001  7.812500e-003
    endloop
  endfacet
  facet normal -9.569404e-001 -2.902845e-001  -0.000000e+000
    outer loop
      vertex -3.856402e-001  2.465892e-001  0.000000e+000
      vertex -3.856402e-001  2.465892e-001  7.812500e-003
      vertex -3.865387e-001  2.495512e-001  0.000000e+000
    endloop
  endfacet
  facet normal -9.569404e-001 -2.902845e-001  0.000000e+000
    outer loop
      vertex -3.865387e-001  2.495512e-001  0.000000e+000
      vertex -3.856402e-001  2.465892e-001  7.812500e-003
      vertex -3.865387e-001  2.495512e-001  7.812500e-003
    endloop
  endfacet
  facet normal -9.951848e-001 -9.801646e-002  -0.000000e+000
    outer loop
      vertex -3.865387e-001  2.495512e-001  0.000000e+000
      vertex -3.865387e-001  2.495512e-001  7.812500e-003
      vertex -3.868421e-001  2.526316e-001  0.000000e+000
    endloop
  endfacet
  facet normal -9.951848e-001 -9.801646e-002  0.000000e+000
    outer loop
      vertex -3.868421e-001  2.526316e-001  0.000000e+000
      vertex -3.865387e-001  2.495512e-001  7.812500e-003
      vertex -3.868421e-001  2.526316e-001  7.812500e-003
    endloop
  endfacet
  facet normal  -0.000000e+000  0.000000e+000  1.000000e+000
    outer loop
      vertex -3.598878e-001  2.637964e-001  7.812500e-003
      vertex -3.822175e-001  2.637964e-001  7.812500e-003
      vertex -3.841811e-001  2.614037e-001  7.812500e-003
    endloop
  endfacet
  facet normal  0.000000e+000  0.000000e+000  1.000000e+000
    outer loop
      vertex -3.598878e-001  2.637964e-001  7.812500e-003
      vertex -3.841811e-001  2.614037e-001  7.812500e-003
      vertex -3.579242e-001  2.614037e-001  7.812500e-003
    endloop
  endfacet
  facet normal  -0.000000e+000  0.000000e+000  1.000000e+000
    outer loop
      vertex -3.579242e-001  2.614037e-001  7.812500e-003
      vertex -3.841811e-001  2.614037e-001  7.812500e-003
      vertex -3.856402e-001  2.586739e-001  7.812500e-003
    endloop
  endfacet
  facet normal  0.000000e+000  0.000000e+000  1.000000e+000
    outer loop
      vertex -3.579242e-001  2.614037e-001  7.812500e-003
      vertex -3.856402e-001  2.586739e-001  7.812500e-003
      vertex -3.564651e-001  2.586739e-001  7.812500e-003
    endloop
  endfacet
  facet normal  0.000000e+000  0.000000e+000  1.000000e+000
    outer loop
      vertex -3.564651e-001  2.465892e-001  7.812500e-003
      vertex -3.841811e-001  2.438594e-001  7.812500e-003
      vertex -3.579242e-001  2.438594e-001  7.812500e-003
    endloop
  endfacet
  facet normal  -0.000000e+000  0.000000e+000  1.000000e+000
    outer loop
      vertex -3.579242e-001  2.438594e-001  7.812500e-003
      vertex -3.841811e-001  2.438594e-001  7.812500e-003
      vertex -3.822175e-001  2.414667e-001  7.812500e-003
    endloop
  endfacet
  facet normal  0.000000e+000  0.000000e+000  1.000000e+000
    outer loop
      vertex -3.579242e-001  2.438594e-001  7.812500e-003
      vertex -3.822175e-001  2.414667e-001  7.812500e-003
      vertex -3.598878e-001  2.414667e-001  7.812500e-003
    endloop
  endfacet
  facet normal  -0.000000e+000  0.000000e+000  1.000000e+000
    outer loop
      vertex -3.598878e-001  2.414667e-001  7.812500e-003
      vertex -3.822175e-001  2.414667e-001  7.812500e-003
      vertex -3.798248e-001  2.395031e-001  7.812500e-003
    endloop
  endfacet
  facet normal  0.000000e+000  0.000000e+000  1.000000e+000
    outer loop
      vertex -3.598878e-001  2.414667e-001  7.812500e-003
      vertex -3.798248e-001  2.395031e-001  7.812500e-003
      vertex -3.622805e-001  2.395031e-001  7.812500e-003
    endloop
  endfacet
  facet normal  0.000000e+000  -0.000000e+000  1.000000e+000
    outer loop
      vertex -3.798248e-001  2.395031e-001  7.812500e-003
      vertex -3.770950e-001  2.380440e-001  7.812500e-003
      vertex -3.622805e-001  2.395031e-001  7.812500e-003
    endloop
  endfacet
  facet normal  -0.000000e+000  0.000000e+000  1.000000e+000
    outer loop
      vertex -3.622805e-001  2.395031e-001  7.812500e-003
      vertex -3.770950e-001  2.380440e-001  7.812500e-003
      vertex -3.741330e-001  2.371455e-001  7.812500e-003
    endloop
  endfacet
  facet normal  0.000000e+000  0.000000e+000  1.000000e+000
    outer loop
      vertex -3.622805e-001  2.395031e-001  7.812500e-003
      vertex -3.741330e-001  2.371455e-001  7.812500e-003
      vertex -3.650103e-001  2.380440e-001  7.812500e-003
    endloop
  endfacet
  facet normal  0.000000e+000  -0.000000e+000  1.000000e+000
    outer loop
      vertex -3.741330e-001  2.371455e-001  7.812500e-003
      vertex -3.710526e-001  2.368421e-001  7.812500e-003
      vertex -3.650103e-001  2.380440e-001  7.812500e-003
    endloop
  endfacet
  facet normal  0.000000e+000  0.000000e+000  1.000000e+000
    outer loop
      vertex -3.650103e-001  2.380440e-001  7.812500e-003
      vertex -3.710526e-001  2.368421e-001  7.812500e-003
      vertex -3.679723e-001  2.371455e-001  7.812500e-003
    endloop
  endfacet
  facet normal  0.000000e+000  0.000000e+000  1.000000e+000
    outer loop
      vertex -3.622805e-001  2.657600e-001  7.812500e-003
      vertex -3.650103e-001  2.672192e-001  7.812500e-003
      vertex -3.679723e-001  2.681177e-001  7.812500e-003
    endloop
  endfacet
  facet normal  0.000000e+000  0.000000e+000  1.000000e+000
    outer loop
      vertex -3.622805e-001  2.657600e-001  7.812500e-003
      vertex -3.679723e-001  2.681177e-001  7.812500e-003
      vertex -3.710526e-001  2.684211e-001  7.812500e-003
    endloop
  endfacet
  facet normal  0.000000e+000  0.000000e+000  1.000000e+000
    outer loop
      vertex -3.622805e-001  2.657600e-001  7.812500e-003
      vertex -3.710526e-001  2.684211e-001  7.812500e-003
      vertex -3.741330e-001  2.681177e-001  7.812500e-003
    endloop
  endfacet
  facet normal  0.000000e+000  0.000000e+000  1.000000e+000
    outer loop
      vertex -3.622805e-001  2.657600e-001  7.812500e-003
      vertex -3.741330e-001  2.681177e-001  7.812500e-003
      vertex -3.770950e-001  2.672192e-001  7.812500e-003
    endloop
  endfacet
  facet normal  0.000000e+000  0.000000e+000  1.000000e+000
    outer loop
      vertex -3.622805e-001  2.657600e-001  7.812500e-003
      vertex -3.770950e-001  2.672192e-001  7.812500e-003
      vertex -3.798248e-001  2.657600e-001  7.812500e-003
    endloop
  endfacet
  facet normal  -0.000000e+000  0.000000e+000  1.000000e+000
    outer loop
      vertex -3.622805e-001  2.657600e-001  7.812500e-003
      vertex -3.798248e-001  2.657600e-001  7.812500e-003
      vertex -3.822175e-001  2.637964e-001  7.812500e-003
    endloop
  endfacet
  facet normal  0.000000e+000  0.000000e+000  1.000000e+000
    outer loop
      vertex -3.622805e-001  2.657600e-001  7.812500e-003
      vertex -3.822175e-001  2.637964e-001  7.812500e-003
      vertex -3.598878e-001  2.637964e-001  7.812500e-003
    endloop
  endfacet
  facet normal  -0.000000e+000  0.000000e+000  1.000000e+000
    outer loop
      vertex -3.564651e-001  2.586739e-001  7.812500e-003
      vertex -3.856402e-001  2.586739e-001  7.812500e-003
      vertex -3.555666e-001  2.557119e-001  7.812500e-003
    endloop
  endfacet
  facet normal  0.000000e+000  0.000000e+000  1.000000e+000
    outer loop
      vertex -3.555666e-001  2.557119e-001  7.812500e-003
      vertex -3.856402e-001  2.586739e-001  7.812500e-003
      vertex -3.865387e-001  2.557119e-001  7.812500e-003
    endloop
  endfacet
  facet normal  -0.000000e+000  0.000000e+000  1.000000e+000
    outer loop
      vertex -3.555666e-001  2.557119e-001  7.812500e-003
      vertex -3.865387e-001  2.557119e-001  7.812500e-003
      vertex -3.552631e-001  2.526316e-001  7.812500e-003
    endloop
  endfacet
  facet normal  0.000000e+000  0.000000e+000  1.000000e+000
    outer loop
      vertex -3.552631e-001  2.526316e-001  7.812500e-003
      vertex -3.865387e-001  2.557119e-001  7.812500e-003
      vertex -3.868421e-001  2.526316e-001  7.812500e-003
    endloop
  endfacet
  facet normal  -0.000000e+000  0.000000e+000  1.000000e+000
    outer loop
      vertex -3.552631e-001  2.526316e-001  7.812500e-003
      vertex -3.868421e-001  2.526316e-001  7.812500e-003
      vertex -3.555666e-001  2.495512e-001  7.812500e-003
    endloop
  endfacet
  facet normal  0.000000e+000  0.000000e+000  1.000000e+000
    outer loop
      vertex -3.555666e-001  2.495512e-001  7.812500e-003
      vertex -3.868421e-001  2.526316e-001  7.812500e-003
      vertex -3.865387e-001  2.495512e-001  7.812500e-003
    endloop
  endfacet
  facet normal  -0.000000e+000  0.000000e+000  1.000000e+000
    outer loop
      vertex -3.555666e-001  2.495512e-001  7.812500e-003
      vertex -3.865387e-001  2.495512e-001  7.812500e-003
      vertex -3.564651e-001  2.465892e-001  7.812500e-003
    endloop
  endfacet
  facet normal  0.000000e+000  0.000000e+000  1.000000e+000
    outer loop
      vertex -3.564651e-001  2.465892e-001  7.812500e-003
      vertex -3.865387e-001  2.495512e-001  7.812500e-003
      vertex -3.856402e-001  2.465892e-001  7.812500e-003
    endloop
  endfacet
  facet normal  -0.000000e+000  0.000000e+000  1.000000e+000
    outer loop
      vertex -3.564651e-001  2.465892e-001  7.812500e-003
      vertex -3.856402e-001  2.465892e-001  7.812500e-003
      vertex -3.841811e-001  2.438594e-001  7.812500e-003
    endloop
  endfacet
  facet normal  0.000000e+000  -0.000000e+000 -1.000000e+000
    outer loop
      vertex -3.841811e-001  2.614037e-001  1.562500e-002
      vertex -3.822175e-001  2.637964e-001  1.562500e-002
      vertex -3.598878e-001  2.637964e-001  1.562500e-002
    endloop
  endfacet
  facet normal  0.000000e+000  0.000000e+000 -1.000000e+000
    outer loop
      vertex -3.579242e-001  2.614037e-001  1.562500e-002
      vertex -3.841811e-001  2.614037e-001  1.562500e-002
      vertex -3.598878e-001  2.637964e-001  1.562500e-002
    endloop
  endfacet
  facet normal  0.000000e+000  -0.000000e+000 -1.000000e+000
    outer loop
      vertex -3.856402e-001  2.586739e-001  1.562500e-002
      vertex -3.841811e-001  2.614037e-001  1.562500e-002
      vertex -3.579242e-001  2.614037e-001  1.562500e-002
    endloop
  endfacet
  facet normal  0.000000e+000  0.000000e+000 -1.000000e+000
    outer loop
      vertex -3.564651e-001  2.586739e-001  1.562500e-002
      vertex -3.856402e-001  2.586739e-001  1.562500e-002
      vertex -3.579242e-001  2.614037e-001  1.562500e-002
    endloop
  endfacet
  facet normal  0.000000e+000  0.000000e+000 -1.000000e+000
    outer loop
      vertex -3.579242e-001  2.438594e-001  1.562500e-002
      vertex -3.841811e-001  2.438594e-001  1.562500e-002
      vertex -3.564651e-001  2.465892e-001  1.562500e-002
    endloop
  endfacet
  facet normal  0.000000e+000  0.000000e+000 -1.000000e+000
    outer loop
      vertex -3.822175e-001  2.414667e-001  1.562500e-002
      vertex -3.841811e-001  2.438594e-001  1.562500e-002
      vertex -3.579242e-001  2.438594e-001  1.562500e-002
    endloop
  endfacet
  facet normal  0.000000e+000  0.000000e+000 -1.000000e+000
    outer loop
      vertex -3.598878e-001  2.414667e-001  1.562500e-002
      vertex -3.822175e-001  2.414667e-001  1.562500e-002
      vertex -3.579242e-001  2.438594e-001  1.562500e-002
    endloop
  endfacet
  facet normal  0.000000e+000  0.000000e+000 -1.000000e+000
    outer loop
      vertex -3.798248e-001  2.395031e-001  1.562500e-002
      vertex -3.822175e-001  2.414667e-001  1.562500e-002
      vertex -3.598878e-001  2.414667e-001  1.562500e-002
    endloop
  endfacet
  facet normal  0.000000e+000  0.000000e+000 -1.000000e+000
    outer loop
      vertex -3.622805e-001  2.395031e-001  1.562500e-002
      vertex -3.798248e-001  2.395031e-001  1.562500e-002
      vertex -3.598878e-001  2.414667e-001  1.562500e-002
    endloop
  endfacet
  facet normal  0.000000e+000  0.000000e+000 -1.000000e+000
    outer loop
      vertex -3.622805e-001  2.395031e-001  1.562500e-002
      vertex -3.770950e-001  2.380440e-001  1.562500e-002
      vertex -3.798248e-001  2.395031e-001  1.562500e-002
    endloop
  endfacet
  facet normal  0.000000e+000  0.000000e+000 -1.000000e+000
    outer loop
      vertex -3.741330e-001  2.371455e-001  1.562500e-002
      vertex -3.770950e-001  2.380440e-001  1.562500e-002
      vertex -3.622805e-001  2.395031e-001  1.562500e-002
    endloop
  endfacet
  facet normal  0.000000e+000  0.000000e+000 -1.000000e+000
    outer loop
      vertex -3.650103e-001  2.380440e-001  1.562500e-002
      vertex -3.741330e-001  2.371455e-001  1.562500e-002
      vertex -3.622805e-001  2.395031e-001  1.562500e-002
    endloop
  endfacet
  facet normal  0.000000e+000  0.000000e+000 -1.000000e+000
    outer loop
      vertex -3.650103e-001  2.380440e-001  1.562500e-002
      vertex -3.710526e-001  2.368421e-001  1.562500e-002
      vertex -3.741330e-001  2.371455e-001  1.562500e-002
    endloop
  endfacet
  facet normal  0.000000e+000  0.000000e+000 -1.000000e+000
    outer loop
      vertex -3.679723e-001  2.371455e-001  1.562500e-002
      vertex -3.710526e-001  2.368421e-001  1.562500e-002
      vertex -3.650103e-001  2.380440e-001  1.562500e-002
    endloop
  endfacet
  facet normal  0.000000e+000  0.000000e+000 -1.000000e+000
    outer loop
      vertex -3.622805e-001  2.657600e-001  1.562500e-002
      vertex -3.598878e-001  2.637964e-001  1.562500e-002
      vertex -3.822175e-001  2.637964e-001  1.562500e-002
    endloop
  endfacet
  facet normal  0.000000e+000  0.000000e+000 -1.000000e+000
    outer loop
      vertex -3.622805e-001  2.657600e-001  1.562500e-002
      vertex -3.822175e-001  2.637964e-001  1.562500e-002
      vertex -3.798248e-001  2.657600e-001  1.562500e-002
    endloop
  endfacet
  facet normal  0.000000e+000  0.000000e+000 -1.000000e+000
    outer loop
      vertex -3.622805e-001  2.657600e-001  1.562500e-002
      vertex -3.798248e-001  2.657600e-001  1.562500e-002
      vertex -3.770950e-001  2.672192e-001  1.562500e-002
    endloop
  endfacet
  facet normal  0.000000e+000  0.000000e+000 -1.000000e+000
    outer loop
      vertex -3.622805e-001  2.657600e-001  1.562500e-002
      vertex -3.770950e-001  2.672192e-001  1.562500e-002
      vertex -3.741330e-001  2.681177e-001  1.562500e-002
    endloop
  endfacet
  facet normal  0.000000e+000  0.000000e+000 -1.000000e+000
    outer loop
      vertex -3.622805e-001  2.657600e-001  1.562500e-002
      vertex -3.741330e-001  2.681177e-001  1.562500e-002
      vertex -3.710526e-001  2.684211e-001  1.562500e-002
    endloop
  endfacet
  facet normal  0.000000e+000  0.000000e+000 -1.000000e+000
    outer loop
      vertex -3.622805e-001  2.657600e-001  1.562500e-002
      vertex -3.710526e-001  2.684211e-001  1.562500e-002
      vertex -3.679723e-001  2.681177e-001  1.562500e-002
    endloop
  endfacet
  facet normal  0.000000e+000  0.000000e+000 -1.000000e+000
    outer loop
      vertex -3.622805e-001  2.657600e-001  1.562500e-002
      vertex -3.679723e-001  2.681177e-001  1.562500e-002
      vertex -3.650103e-001  2.672192e-001  1.562500e-002
    endloop
  endfacet
  facet normal  0.000000e+000  0.000000e+000 -1.000000e+000
    outer loop
      vertex -3.841811e-001  2.438594e-001  1.562500e-002
      vertex -3.856402e-001  2.465892e-001  1.562500e-002
      vertex -3.564651e-001  2.465892e-001  1.562500e-002
    endloop
  endfacet
  facet normal  0.000000e+000  0.000000e+000 -1.000000e+000
    outer loop
      vertex -3.564651e-001  2.465892e-001  1.562500e-002
      vertex -3.856402e-001  2.465892e-001  1.562500e-002
      vertex -3.865387e-001  2.495512e-001  1.562500e-002
    endloop
  endfacet
  facet normal  0.000000e+000  0.000000e+000 -1.000000e+000
    outer loop
      vertex -3.564651e-001  2.465892e-001  1.562500e-002
      vertex -3.865387e-001  2.495512e-001  1.562500e-002
      vertex -3.555666e-001  2.495512e-001  1.562500e-002
    endloop
  endfacet
  facet normal  0.000000e+000  0.000000e+000 -1.000000e+000
    outer loop
      vertex -3.555666e-001  2.495512e-001  1.562500e-002
      vertex -3.865387e-001  2.495512e-001  1.562500e-002
      vertex -3.868421e-001  2.526316e-001  1.562500e-002
    endloop
  endfacet
  facet normal  0.000000e+000  0.000000e+000 -1.000000e+000
    outer loop
      vertex -3.555666e-001  2.495512e-001  1.562500e-002
      vertex -3.868421e-001  2.526316e-001  1.562500e-002
      vertex -3.552631e-001  2.526316e-001  1.562500e-002
    endloop
  endfacet
  facet normal  0.000000e+000  0.000000e+000 -1.000000e+000
    outer loop
      vertex -3.552631e-001  2.526316e-001  1.562500e-002
      vertex -3.868421e-001  2.526316e-001  1.562500e-002
      vertex -3.865387e-001  2.557119e-001  1.562500e-002
    endloop
  endfacet
  facet normal  0.000000e+000  0.000000e+000 -1.000000e+000
    outer loop
      vertex -3.552631e-001  2.526316e-001  1.562500e-002
      vertex -3.865387e-001  2.557119e-001  1.562500e-002
      vertex -3.555666e-001  2.557119e-001  1.562500e-002
    endloop
  endfacet
  facet normal  0.000000e+000  0.000000e+000 -1.000000e+000
    outer loop
      vertex -3.555666e-001  2.557119e-001  1.562500e-002
      vertex -3.865387e-001  2.557119e-001  1.562500e-002
      vertex -3.856402e-001  2.586739e-001  1.562500e-002
    endloop
  endfacet
  facet normal  0.000000e+000  0.000000e+000 -1.000000e+000
    outer loop
      vertex -3.555666e-001  2.557119e-001  1.562500e-002
      vertex -3.856402e-001  2.586739e-001  1.562500e-002
      vertex -3.564651e-001  2.586739e-001  1.562500e-002
    endloop
  endfacet
  facet normal  -0.000000e+000  0.000000e+000  1.000000e+000
    outer loop
      vertex -3.598878e-001  2.637964e-001  2.343750e-002
      vertex -3.822175e-001  2.637964e-001  2.343750e-002
      vertex -3.841811e-001  2.614037e-001  2.343750e-002
    endloop
  endfacet
  facet normal  0.000000e+000  0.000000e+000  1.000000e+000
    outer loop
      vertex -3.598878e-001  2.637964e-001  2.343750e-002
      vertex -3.841811e-001  2.614037e-001  2.343750e-002
      vertex -3.579242e-001  2.614037e-001  2.343750e-002
    endloop
  endfacet
  facet normal  -0.000000e+000  0.000000e+000  1.000000e+000
    outer loop
      vertex -3.579242e-001  2.614037e-001  2.343750e-002
      vertex -3.841811e-001  2.614037e-001  2.343750e-002
      vertex -3.856402e-001  2.586739e-001  2.343750e-002
    endloop
  endfacet
  facet normal  0.000000e+000  0.000000e+000  1.000000e+000
    outer loop
      vertex -3.579242e-001  2.614037e-001  2.343750e-002
      vertex -3.856402e-001  2.586739e-001  2.343750e-002
      vertex -3.564651e-001  2.586739e-001  2.343750e-002
    endloop
  endfacet
  facet normal  0.000000e+000  0.000000e+000  1.000000e+000
    outer loop
      vertex -3.564651e-001  2.465892e-001  2.343750e-002
      vertex -3.841811e-001  2.438594e-001  2.343750e-002
      vertex -3.579242e-001  2.438594e-001  2.343750e-002
    endloop
  endfacet
  facet normal  -0.000000e+000  0.000000e+000  1.000000e+000
    outer loop
      vertex -3.579242e-001  2.438594e-001  2.343750e-002
      vertex -3.841811e-001  2.438594e-001  2.343750e-002
      vertex -3.822175e-001  2.414667e-001  2.343750e-002
    endloop
  endfacet
  facet normal  0.000000e+000  0.000000e+000  1.000000e+000
    outer loop
      vertex -3.579242e-001  2.438594e-001  2.343750e-002
      vertex -3.822175e-001  2.414667e-001  2.343750e-002
      vertex -3.598878e-001  2.414667e-001  2.343750e-002
    endloop
  endfacet
  facet normal  -0.000000e+000  0.000000e+000  1.000000e+000
    outer loop
      vertex -3.598878e-001  2.414667e-001  2.343750e-002
      vertex -3.822175e-001  2.414667e-001  2.343750e-002
      vertex -3.798248e-001  2.395031e-001  2.343750e-002
    endloop
  endfacet
  facet normal  0.000000e+000  0.000000e+000  1.000000e+000
    outer loop
      vertex -3.598878e-001  2.414667e-001  2.343750e-002
      vertex -3.798248e-001  2.395031e-001  2.343750e-002
      vertex -3.622805e-001  2.395031e-001  2.343750e-002
    endloop
  endfacet
  facet normal  0.000000e+000  -0.000000e+000  1.000000e+000
    outer loop
      vertex -3.798248e-001  2.395031e-001  2.343750e-002
      vertex -3.770950e-001  2.380440e-001  2.343750e-002
      vertex -3.622805e-001  2.395031e-001  2.343750e-002
    endloop
  endfacet
  facet normal  -0.000000e+000  0.000000e+000  1.000000e+000
    outer loop
      vertex -3.622805e-001  2.395031e-001  2.343750e-002
      vertex -3.770950e-001  2.380440e-001  2.343750e-002
      vertex -3.741330e-001  2.371455e-001  2.343750e-002
    endloop
  endfacet
  facet normal  0.000000e+000  0.000000e+000  1.000000e+000
    outer loop
      vertex -3.622805e-001  2.395031e-001  2.343750e-002
      vertex -3.741330e-001  2.371455e-001  2.343750e-002
      vertex -3.650103e-001  2.380440e-001  2.343750e-002
    endloop
  endfacet
  facet normal  0.000000e+000  -0.000000e+000  1.000000e+000
    outer loop
      vertex -3.741330e-001  2.371455e-001  2.343750e-002
      vertex -3.710526e-001  2.368421e-001  2.343750e-002
      vertex -3.650103e-001  2.380440e-001  2.343750e-002
    endloop
  endfacet
  facet normal  0.000000e+000  0.000000e+000  1.000000e+000
    outer loop
      vertex -3.650103e-001  2.380440e-001  2.343750e-002
      vertex -3.710526e-001  2.368421e-001  2.343750e-002
      vertex -3.679723e-001  2.371455e-001  2.343750e-002
    endloop
  endfacet
  facet normal  0.000000e+000  0.000000e+000  1.000000e+000
    outer loop
      vertex -3.622805e-001  2.657600e-001  2.343750e-002
      vertex -3.650103e-001  2.672192e-001  2.343750e-002
      vertex -3.679723e-001  2.681177e-001  2.343750e-002
    endloop
  endfacet
  facet normal  0.000000e+000  0.000000e+000  1.000000e+000
    outer loop
      vertex -3.622805e-001  2.657600e-001  2.343750e-002
      vertex -3.679723e-001  2.681177e-001  2.343750e-002
      vertex -3.710526e-001  2.684211e-001  2.343750e-002
    endloop
  endfacet
  facet normal  0.000000e+000  0.000000e+000  1.000000e+000
    outer loop
      vertex -3.622805e-001  2.657600e-001  2.343750e-002
      vertex -3.710526e-001  2.684211e-001  2.343750e-002
      vertex -3.741330e-001  2.681177e-001  2.343750e-002
    endloop
  endfacet
  facet normal  0.000000e+000  0.000000e+000  1.000000e+000
    outer loop
      vertex -3.622805e-001  2.657600e-001  2.343750e-002
      vertex -3.741330e-001  2.681177e-001  2.343750e-002
      vertex -3.770950e-001  2.672192e-001  2.343750e-002
    endloop
  endfacet
  facet normal  0.000000e+000  0.000000e+000  1.000000e+000
    outer loop
      vertex -3.622805e-001  2.657600e-001  2.343750e-002
      vertex -3.770950e-001  2.672192e-001  2.343750e-002
      vertex -3.798248e-001  2.657600e-001  2.343750e-002
    endloop
  endfacet
  facet normal  -0.000000e+000  0.000000e+000  1.000000e+000
    outer loop
      vertex -3.622805e-001  2.657600e-001  2.343750e-002
      vertex -3.798248e-001  2.657600e-001  2.343750e-002
      vertex -3.822175e-001  2.637964e-001  2.343750e-002
    endloop
  endfacet
  facet normal  0.000000e+000  0.000000e+000  1.000000e+000
    outer loop
      vertex -3.622805e-001  2.657600e-001  2.343750e-002
      vertex -3.822175e-001  2.637964e-001  2.343750e-002
      vertex -3.598878e-001  2.637964e-001  2.343750e-002
    endloop
  endfacet
  facet normal  -0.000000e+000  0.000000e+000  1.000000e+000
    outer loop
      vertex -3.564651e-001  2.586739e-001  2.343750e-002
      vertex -3.856402e-001  2.586739e-001  2.343750e-002
      vertex -3.555666e-001  2.557119e-001  2.343750e-002
    endloop
  endfacet
  facet normal  0.000000e+000  0.000000e+000  1.000000e+000
    outer loop
      vertex -3.555666e-001  2.557119e-001  2.343750e-002
      vertex -3.856402e-001  2.586739e-001  2.343750e-002
      vertex -3.865387e-001  2.557119e-001  2.343750e-002
    endloop
  endfacet
  facet normal  -0.000000e+000  0.000000e+000  1.000000e+000
    outer loop
      vertex -3.555666e-001  2.557119e-001  2.343750e-002
      vertex -3.865387e-001  2.557119e-001  2.343750e-002
      vertex -3.552631e-001  2.526316e-001  2.343750e-002
    endloop
  endfacet
  facet normal  0.000000e+000  0.000000e+000  1.000000e+000
    outer loop
      vertex -3.552631e-001  2.526316e-001  2.343750e-002
      vertex -3.865387e-001  2.557119e-001  2.343750e-002
      vertex -3.868421e-001  2.526316e-001  2.343750e-002
    endloop
  endfacet
  facet normal  -0.000000e+000  0.000000e+000  1.000000e+000
    outer loop
      vertex -3.552631e-001  2.526316e-001  2.343750e-002
      vertex -3.868421e-001  2.526316e-001  2.343750e-002
      vertex -3.555666e-001  2.495512e-001  2.343750e-002
    endloop
  endfacet
  facet normal  0.000000e+000  0.000000e+000  1.000000e+000
    outer loop
      vertex -3.555666e-001  2.495512e-001  2.343750e-002
      vertex -3.868421e-001  2.526316e-001  2.343750e-002
      vertex -3.865387e-001  2.495512e-001  2.343750e-002
    endloop
  endfacet
  facet normal  -0.000000e+000  0.000000e+000  1.000000e+000
    outer loop
      vertex -3.555666e-001  2.495512e-001  2.343750e-002
      vertex -3.865387e-001  2.495512e-001  2.343750e-002
      vertex -3.564651e-001  2.465892e-001  2.343750e-002
    endloop
  endfacet
  facet normal  0.000000e+000  0.000000e+000  1.000000e+000
    outer loop
      vertex -3.564651e-001  2.465892e-001  2.343750e-002
      vertex -3.865387e-001  2.495512e-001  2.343750e-002
      vertex -3.856402e-001  2.465892e-001  2.343750e-002
    endloop
  endfacet
  facet normal  -0.000000e+000  0.000000e+000  1.000000e+000
    outer loop
      vertex -3.564651e-001  2.465892e-001  2.343750e-002
      vertex -3.856402e-001  2.465892e-001  2.343750e-002
      vertex -3.841811e-001  2.438594e-001  2.343750e-002
    endloop
  endfacet
  facet normal  0.000000e+000  -0.000000e+000 -1.000000e+000
    outer loop
      vertex -3.841811e-001  2.614037e-001  0.000000e+000
      vertex -3.822175e-001  2.637964e-001  0.000000e+000
      vertex -3.598878e-001  2.637964e-001  0.000000e+000
    endloop
  endfacet
  facet normal  0.000000e+000  0.000000e+000 -1.000000e+000
    outer loop
      vertex -3.579242e-001  2.614037e-001  0.000000e+000
      vertex -3.841811e-001  2.614037e-001  0.000000e+000
      vertex -3.598878e-001  2.637964e-001  0.000000e+000
    endloop
  endfacet
  facet normal  0.000000e+000  -0.000000e+000 -1.000000e+000
    outer loop
      vertex -3.856402e-001  2.586739e-001  0.000000e+000
      vertex -3.841811e-001  2.614037e-001  0.000000e+000
      vertex -3.579242e-001  2.614037e-001  0.000000e+000
    endloop
  endfacet
  facet normal  0.000000e+000  0.000000e+000 -1.000000e+000
    outer loop
      vertex -3.564651e-001  2.586739e-001  0.000000e+000
      vertex -3.856402e-001  2.586739e-001  0.000000e+000
      vertex -3.579242e-001  2.614037e-001  0.000000e+000
    endloop
  endfacet
  facet normal  0.000000e+000  0.000000e+000 -1.000000e+000
    outer loop
      vertex -3.579242e-001  2.438594e-001  0.000000e+000
      vertex -3.841811e-001  2.438594e-001  0.000000e+000
      vertex -3.564651e-001  2.465892e-001  0.000000e+000
    endloop
  endfacet
  facet normal  0.000000e+000  0.000000e+000 -1.000000e+000
    outer loop
      vertex -3.822175e-001  2.414667e-001  0.000000e+000
      vertex -3.841811e-001  2.438594e-001  0.000000e+000
      vertex -3.579242e-001  2.438594e-001  0.000000e+000
    endloop
  endfacet
  facet normal  0.000000e+000  0.000000e+000 -1.000000e+000
    outer loop
      vertex -3.598878e-001  2.414667e-001  0.000000e+000
      vertex -3.822175e-001  2.414667e-001  0.000000e+000
      vertex -3.579242e-001  2.438594e-001  0.000000e+000
    endloop
  endfacet
  facet normal  0.000000e+000  0.000000e+000 -1.000000e+000
    outer loop
      vertex -3.798248e-001  2.395031e-001  0.000000e+000
      vertex -3.822175e-001  2.414667e-001  0.000000e+000
      vertex -3.598878e-001  2.414667e-001  0.000000e+000
    endloop
  endfacet
  facet normal  0.000000e+000  0.000000e+000 -1.000000e+000
    outer loop
      vertex -3.622805e-001  2.395031e-001  0.000000e+000
      vertex -3.798248e-001  2.395031e-001  0.000000e+000
      vertex -3.598878e-001  2.414667e-001  0.000000e+000
    endloop
  endfacet
  facet normal  0.000000e+000  0.000000e+000 -1.000000e+000
    outer loop
      vertex -3.622805e-001  2.395031e-001  0.000000e+000
      vertex -3.770950e-001  2.380440e-001  0.000000e+000
      vertex -3.798248e-001  2.395031e-001  0.000000e+000
    endloop
  endfacet
  facet normal  0.000000e+000  0.000000e+000 -1.000000e+000
    outer loop
      vertex -3.741330e-001  2.371455e-001  0.000000e+000
      vertex -3.770950e-001  2.380440e-001  0.000000e+000
      vertex -3.622805e-001  2.395031e-001  0.000000e+000
    endloop
  endfacet
  facet normal  0.000000e+000  0.000000e+000 -1.000000e+000
    outer loop
      vertex -3.650103e-001  2.380440e-001  0.000000e+000
      vertex -3.741330e-001  2.371455e-001  0.000000e+000
      vertex -3.622805e-001  2.395031e-001  0.000000e+000
    endloop
  endfacet
  facet normal  0.000000e+000  0.000000e+000 -1.000000e+000
    outer loop
      vertex -3.650103e-001  2.380440e-001  0.000000e+000
      vertex -3.710526e-001  2.368421e-001  0.000000e+000
      vertex -3.741330e-001  2.371455e-001  0.000000e+000
    endloop
  endfacet
  facet normal  0.000000e+000  0.000000e+000 -1.000000e+000
    outer loop
      vertex -3.679723e-001  2.371455e-001  0.000000e+000
      vertex -3.710526e-001  2.368421e-001  0.000000e+000
      vertex -3.650103e-001  2.380440e-001  0.000000e+000
    endloop
  endfacet
  facet normal  0.000000e+000  0.000000e+000 -1.000000e+000
    outer loop
      vertex -3.622805e-001  2.657600e-001  0.000000e+000
      vertex -3.598878e-001  2.637964e-001  0.000000e+000
      vertex -3.822175e-001  2.637964e-001  0.000000e+000
    endloop
  endfacet
  facet normal  0.000000e+000  0.000000e+000 -1.000000e+000
    outer loop
      vertex -3.622805e-001  2.657600e-001  0.000000e+000
      vertex -3.822175e-001  2.637964e-001  0.000000e+000
      vertex -3.798248e-001  2.657600e-001  0.000000e+000
    endloop
  endfacet
  facet normal  0.000000e+000  0.000000e+000 -1.000000e+000
    outer loop
      vertex -3.622805e-001  2.657600e-001  0.000000e+000
      vertex -3.798248e-001  2.657600e-001  0.000000e+000
      vertex -3.770950e-001  2.672192e-001  0.000000e+000
    endloop
  endfacet
  facet normal  0.000000e+000  0.000000e+000 -1.000000e+000
    outer loop
      vertex -3.622805e-001  2.657600e-001  0.000000e+000
      vertex -3.770950e-001  2.672192e-001  0.000000e+000
      vertex -3.741330e-001  2.681177e-001  0.000000e+000
    endloop
  endfacet
  facet normal  0.000000e+000  0.000000e+000 -1.000000e+000
    outer loop
      vertex -3.622805e-001  2.657600e-001  0.000000e+000
      vertex -3.741330e-001  2.681177e-001  0.000000e+000
      vertex -3.710526e-001  2.684211e-001  0.000000e+000
    endloop
  endfacet
  facet normal  0.000000e+000  0.000000e+000 -1.000000e+000
    outer loop
      vertex -3.622805e-001  2.657600e-001  0.000000e+000
      vertex -3.710526e-001  2.684211e-001  0.000000e+000
      vertex -3.679723e-001  2.681177e-001  0.000000e+000
    endloop
  endfacet
  facet normal  0.000000e+000  0.000000e+000 -1.000000e+000
    outer loop
      vertex -3.622805e-001  2.657600e-001  0.000000e+000
      vertex -3.679723e-001  2.681177e-001  0.000000e+000
      vertex -3.650103e-001  2.672192e-001  0.000000e+000
    endloop
  endfacet
  facet normal  0.000000e+000  0.000000e+000 -1.000000e+000
    outer loop
      vertex -3.841811e-001  2.438594e-001  0.000000e+000
      vertex -3.856402e-001  2.465892e-001  0.000000e+000
      vertex -3.564651e-001  2.465892e-001  0.000000e+000
    endloop
  endfacet
  facet normal  0.000000e+000  0.000000e+000 -1.000000e+000
    outer loop
      vertex -3.564651e-001  2.465892e-001  0.000000e+000
      vertex -3.856402e-001  2.465892e-001  0.000000e+000
      vertex -3.865387e-001  2.495512e-001  0.000000e+000
    endloop
  endfacet
  facet normal  0.000000e+000  0.000000e+000 -1.000000e+000
    outer loop
      vertex -3.564651e-001  2.465892e-001  0.000000e+000
      vertex -3.865387e-001  2.495512e-001  0.000000e+000
      vertex -3.555666e-001  2.495512e-001  0.000000e+000
    endloop
  endfacet
  facet normal  0.000000e+000  0.000000e+000 -1.000000e+000
    outer loop
      vertex -3.555666e-001  2.495512e-001  0.000000e+000
      vertex -3.865387e-001  2.495512e-001  0.000000e+000
      vertex -3.868421e-001  2.526316e-001  0.000000e+000
    endloop
  endfacet
  facet normal  0.000000e+000  0.000000e+000 -1.000000e+000
    outer loop
      vertex -3.555666e-001  2.495512e-001  0.000000e+000
      vertex -3.868421e-001  2.526316e-001  0.000000e+000
      vertex -3.552631e-001  2.526316e-001  0.000000e+000
    endloop
  endfacet
  facet normal  0.000000e+000  0.000000e+000 -1.000000e+000
    outer loop
      vertex -3.552631e-001  2.526316e-001  0.000000e+000
      vertex -3.868421e-001  2.526316e-001  0.000000e+000
      vertex -3.865387e-001  2.557119e-001  0.000000e+000
    endloop
  endfacet
  facet normal  0.000000e+000  0.000000e+000 -1.000000e+000
    outer loop
      vertex -3.552631e-001  2.526316e-001  0.000000e+000
      vertex -3.865387e-001  2.557119e-001  0.000000e+000
      vertex -3.555666e-001  2.557119e-001  0.000000e+000
    endloop
  endfacet
  facet normal  0.000000e+000  0.000000e+000 -1.000000e+000
    outer loop
      vertex -3.555666e-001  2.557119e-001  0.000000e+000
      vertex -3.865387e-001  2.557119e-001  0.000000e+000
      vertex -3.856402e-001  2.586739e-001  0.000000e+000
    endloop
  endfacet
  facet normal  0.000000e+000  0.000000e+000 -1.000000e+000
    outer loop
      vertex -3.555666e-001  2.557119e-001  0.000000e+000
      vertex -3.856402e-001  2.586739e-001  0.000000e+000
      vertex -3.564651e-001  2.586739e-001  0.000000e+000
    endloop
  endfacet
endsolid CATIA STL
