solid CATIA STL
  facet normal  9.801386e-002 -7.689754e-003 -9.951553e-001
    outer loop
      vertex  2.112416e-001 -3.828125e-001  4.679338e-002
      vertex  2.040217e-001 -1.914063e-001  4.460326e-002
      vertex  2.187500e-001 -3.828125e-001  4.753289e-002
    endloop
  endfacet
  facet normal  1.950902e-001  0.000000e+000 -9.807853e-001
    outer loop
      vertex  2.040217e-001 -1.914063e-001  4.460326e-002
      vertex  2.187500e-001  1.134258e-016  4.753289e-002
      vertex  2.187500e-001 -3.828125e-001  4.753289e-002
    endloop
  endfacet
  facet normal  2.902847e-001  -0.000000e+000  9.569404e-001
    outer loop
      vertex  2.040217e-001 -1.914063e-001 -2.651115e-002
      vertex  2.040217e-001 -3.828125e-001 -2.651115e-002
      vertex  2.112416e-001 -3.828125e-001 -2.870128e-002
    endloop
  endfacet
  facet normal  9.801386e-002  7.689754e-003 -9.951553e-001
    outer loop
      vertex  2.040217e-001 -1.914063e-001  4.460326e-002
      vertex  2.112416e-001  1.125460e-016  4.679338e-002
      vertex  2.187500e-001  1.134258e-016  4.753289e-002
    endloop
  endfacet
  facet normal  2.902847e-001  -0.000000e+000  9.569404e-001
    outer loop
      vertex  2.040217e-001  1.071666e-016 -2.651115e-002
      vertex  2.040217e-001 -1.914063e-001 -2.651115e-002
      vertex  2.112416e-001  1.078314e-016 -2.870128e-002
    endloop
  endfacet
  facet normal  6.343932e-001  0.000000e+000  7.730105e-001
    outer loop
      vertex  1.973679e-001 -1.914063e-001 -2.295459e-002
      vertex  1.973679e-001  1.066500e-016 -2.295459e-002
      vertex  1.915357e-001  1.063014e-016 -1.816825e-002
    endloop
  endfacet
  facet normal  8.818753e-001 -1.021409e-002  4.713720e-001
    outer loop
      vertex  1.831928e-001  1.061549e-016 -5.682224e-003
      vertex  1.841672e-001 -1.562500e-002 -7.843834e-003
      vertex  1.867494e-001  1.061342e-016 -1.233609e-002
    endloop
  endfacet
  facet normal  9.346358e-001  9.107717e-003  3.554899e-001
    outer loop
      vertex  1.816842e-001 -1.562500e-002 -1.315632e-003
      vertex  1.841672e-001 -1.562500e-002 -7.843834e-003
      vertex  1.831928e-001  1.061549e-016 -5.682224e-003
    endloop
  endfacet
  facet normal  9.568799e-001 -1.126780e-002  2.902651e-001
    outer loop
      vertex  1.810027e-001  1.063626e-016  1.537642e-003
      vertex  1.816842e-001 -1.562500e-002 -1.315632e-003
      vertex  1.831928e-001  1.061549e-016 -5.682224e-003
    endloop
  endfacet
  facet normal  9.834849e-001  9.896697e-003  1.807197e-001
    outer loop
      vertex  1.804219e-001 -1.562500e-002  5.553820e-003
      vertex  1.816842e-001 -1.562500e-002 -1.315632e-003
      vertex  1.810027e-001  1.063626e-016  1.537642e-003
    endloop
  endfacet
  facet normal  9.951155e-001 -1.179480e-002  9.801045e-002
    outer loop
      vertex  1.802632e-001  1.067494e-016  9.046053e-003
      vertex  1.804219e-001 -1.562500e-002  5.553820e-003
      vertex  1.810027e-001  1.063626e-016  1.537642e-003
    endloop
  endfacet
  facet normal  9.999484e-001  1.015992e-002  0.000000e+000
    outer loop
      vertex  1.802632e-001  1.067494e-016  9.046053e-003
      vertex  1.804219e-001 -1.562500e-002  1.253828e-002
      vertex  1.804219e-001 -1.562500e-002  5.553820e-003
    endloop
  endfacet
  facet normal  9.951155e-001 -1.179480e-002 -9.801044e-002
    outer loop
      vertex  1.804219e-001 -1.562500e-002  1.253828e-002
      vertex  1.802632e-001  1.067494e-016  9.046053e-003
      vertex  1.810027e-001  1.073004e-016  1.655446e-002
    endloop
  endfacet
  facet normal  9.834849e-001  9.896702e-003 -1.807197e-001
    outer loop
      vertex  1.810027e-001  1.073004e-016  1.655446e-002
      vertex  1.816842e-001 -1.562500e-002  1.940774e-002
      vertex  1.804219e-001 -1.562500e-002  1.253828e-002
    endloop
  endfacet
  facet normal  9.568800e-001 -1.126780e-002 -2.902651e-001
    outer loop
      vertex  1.816842e-001 -1.562500e-002  1.940774e-002
      vertex  1.810027e-001  1.073004e-016  1.655446e-002
      vertex  1.831928e-001  1.079944e-016  2.377433e-002
    endloop
  endfacet
  facet normal  9.346358e-001  9.107697e-003 -3.554899e-001
    outer loop
      vertex  1.831928e-001  1.079944e-016  2.377433e-002
      vertex  1.841672e-001 -1.562500e-002  2.593594e-002
      vertex  1.816842e-001 -1.562500e-002  1.940774e-002
    endloop
  endfacet
  facet normal  8.818753e-001 -1.021411e-002 -4.713719e-001
    outer loop
      vertex  1.841672e-001 -1.562500e-002  2.593594e-002
      vertex  1.831928e-001  1.079944e-016  2.377433e-002
      vertex  1.867494e-001  1.088048e-016  3.042820e-002
    endloop
  endfacet
  facet normal  6.343932e-001  -0.000000e+000  7.730105e-001
    outer loop
      vertex  1.915357e-001 -3.828125e-001 -1.816825e-002
      vertex  1.973679e-001 -3.828125e-001 -2.295459e-002
      vertex  1.973679e-001 -1.914063e-001 -2.295459e-002
    endloop
  endfacet
  facet normal  8.818753e-001  1.021409e-002  4.713720e-001
    outer loop
      vertex  1.841672e-001 -3.671875e-001 -7.843834e-003
      vertex  1.831928e-001 -3.828125e-001 -5.682224e-003
      vertex  1.867494e-001 -3.828125e-001 -1.233609e-002
    endloop
  endfacet
  facet normal  9.346358e-001 -9.107717e-003  3.554899e-001
    outer loop
      vertex  1.831928e-001 -3.828125e-001 -5.682224e-003
      vertex  1.841672e-001 -3.671875e-001 -7.843834e-003
      vertex  1.816842e-001 -3.671875e-001 -1.315632e-003
    endloop
  endfacet
  facet normal  9.568799e-001  1.126780e-002  2.902651e-001
    outer loop
      vertex  1.816842e-001 -3.671875e-001 -1.315632e-003
      vertex  1.810027e-001 -3.828125e-001  1.537642e-003
      vertex  1.831928e-001 -3.828125e-001 -5.682224e-003
    endloop
  endfacet
  facet normal  9.834849e-001 -9.896697e-003  1.807197e-001
    outer loop
      vertex  1.810027e-001 -3.828125e-001  1.537642e-003
      vertex  1.816842e-001 -3.671875e-001 -1.315632e-003
      vertex  1.804219e-001 -3.671875e-001  5.553820e-003
    endloop
  endfacet
  facet normal  9.951155e-001  1.179480e-002  9.801045e-002
    outer loop
      vertex  1.804219e-001 -3.671875e-001  5.553820e-003
      vertex  1.802632e-001 -3.828125e-001  9.046053e-003
      vertex  1.810027e-001 -3.828125e-001  1.537642e-003
    endloop
  endfacet
  facet normal  9.999484e-001 -1.015992e-002  0.000000e+000
    outer loop
      vertex  1.804219e-001 -3.671875e-001  1.253828e-002
      vertex  1.802632e-001 -3.828125e-001  9.046053e-003
      vertex  1.804219e-001 -3.671875e-001  5.553820e-003
    endloop
  endfacet
  facet normal  9.951155e-001  1.179480e-002 -9.801044e-002
    outer loop
      vertex  1.810027e-001 -3.828125e-001  1.655446e-002
      vertex  1.802632e-001 -3.828125e-001  9.046053e-003
      vertex  1.804219e-001 -3.671875e-001  1.253828e-002
    endloop
  endfacet
  facet normal  9.834849e-001 -9.896702e-003 -1.807197e-001
    outer loop
      vertex  1.816842e-001 -3.671875e-001  1.940774e-002
      vertex  1.810027e-001 -3.828125e-001  1.655446e-002
      vertex  1.804219e-001 -3.671875e-001  1.253828e-002
    endloop
  endfacet
  facet normal  9.568800e-001  1.126780e-002 -2.902651e-001
    outer loop
      vertex  1.831928e-001 -3.828125e-001  2.377433e-002
      vertex  1.810027e-001 -3.828125e-001  1.655446e-002
      vertex  1.816842e-001 -3.671875e-001  1.940774e-002
    endloop
  endfacet
  facet normal  9.346358e-001 -9.107697e-003 -3.554899e-001
    outer loop
      vertex  1.841672e-001 -3.671875e-001  2.593594e-002
      vertex  1.831928e-001 -3.828125e-001  2.377433e-002
      vertex  1.816842e-001 -3.671875e-001  1.940774e-002
    endloop
  endfacet
  facet normal  8.818753e-001  1.021411e-002 -4.713719e-001
    outer loop
      vertex  1.867494e-001 -3.828125e-001  3.042820e-002
      vertex  1.831928e-001 -3.828125e-001  2.377433e-002
      vertex  1.841672e-001 -3.671875e-001  2.593594e-002
    endloop
  endfacet
  facet normal  7.578920e-001  0.000000e+000 -6.523799e-001
    outer loop
      vertex  1.877892e-001 -3.671875e-001  3.190789e-002
      vertex  1.915357e-001 -1.914063e-001  3.626036e-002
      vertex  1.915357e-001 -3.828125e-001  3.626036e-002
    endloop
  endfacet
  facet normal  7.729810e-001  8.634648e-003 -6.343706e-001
    outer loop
      vertex  1.877892e-001 -3.671875e-001  3.190789e-002
      vertex  1.915357e-001 -3.828125e-001  3.626036e-002
      vertex  1.867494e-001 -3.828125e-001  3.042820e-002
    endloop
  endfacet
  facet normal  8.550077e-001 -7.791742e-003 -5.185566e-001
    outer loop
      vertex  1.877892e-001 -3.671875e-001  3.190789e-002
      vertex  1.867494e-001 -3.828125e-001  3.042820e-002
      vertex  1.841672e-001 -3.671875e-001  2.593594e-002
    endloop
  endfacet
  facet normal  8.550077e-001  7.791742e-003 -5.185566e-001
    outer loop
      vertex  1.877892e-001 -1.562500e-002  3.190789e-002
      vertex  1.841672e-001 -1.562500e-002  2.593594e-002
      vertex  1.867494e-001  1.088048e-016  3.042820e-002
    endloop
  endfacet
  facet normal  7.729810e-001 -8.634648e-003 -6.343706e-001
    outer loop
      vertex  1.877892e-001 -1.562500e-002  3.190789e-002
      vertex  1.867494e-001  1.088048e-016  3.042820e-002
      vertex  1.915357e-001  1.097004e-016  3.626036e-002
    endloop
  endfacet
  facet normal  7.578920e-001  0.000000e+000 -6.523799e-001
    outer loop
      vertex  1.877892e-001 -1.562500e-002  3.190789e-002
      vertex  1.915357e-001  1.097004e-016  3.626036e-002
      vertex  1.915357e-001 -1.914063e-001  3.626036e-002
    endloop
  endfacet
  facet normal  7.578921e-001  0.000000e+000 -6.523799e-001
    outer loop
      vertex  1.877892e-001 -1.562500e-002  3.190789e-002
      vertex  1.915357e-001 -1.914063e-001  3.626036e-002
      vertex  1.877892e-001 -3.671875e-001  3.190789e-002
    endloop
  endfacet
  facet normal  7.468904e-001  6.130754e-003  6.649190e-001
    outer loop
      vertex  1.877892e-001 -1.562500e-002 -1.381579e-002
      vertex  1.973679e-001 -1.914063e-001 -2.295459e-002
      vertex  1.915357e-001  1.063014e-016 -1.816825e-002
    endloop
  endfacet
  facet normal  7.729810e-001 -8.634714e-003  6.343704e-001
    outer loop
      vertex  1.877892e-001 -1.562500e-002 -1.381579e-002
      vertex  1.915357e-001  1.063014e-016 -1.816825e-002
      vertex  1.867494e-001  1.061342e-016 -1.233609e-002
    endloop
  endfacet
  facet normal  8.550079e-001  7.791697e-003  5.185565e-001
    outer loop
      vertex  1.877892e-001 -1.562500e-002 -1.381579e-002
      vertex  1.867494e-001  1.061342e-016 -1.233609e-002
      vertex  1.841672e-001 -1.562500e-002 -7.843834e-003
    endloop
  endfacet
  facet normal  8.550079e-001 -7.791697e-003  5.185565e-001
    outer loop
      vertex  1.877892e-001 -3.671875e-001 -1.381579e-002
      vertex  1.841672e-001 -3.671875e-001 -7.843834e-003
      vertex  1.867494e-001 -3.828125e-001 -1.233609e-002
    endloop
  endfacet
  facet normal  7.729810e-001  8.634714e-003  6.343704e-001
    outer loop
      vertex  1.877892e-001 -3.671875e-001 -1.381579e-002
      vertex  1.867494e-001 -3.828125e-001 -1.233609e-002
      vertex  1.915357e-001 -3.828125e-001 -1.816825e-002
    endloop
  endfacet
  facet normal  7.468904e-001 -6.130754e-003  6.649190e-001
    outer loop
      vertex  1.877892e-001 -3.671875e-001 -1.381579e-002
      vertex  1.915357e-001 -3.828125e-001 -1.816825e-002
      vertex  1.973679e-001 -1.914063e-001 -2.295459e-002
    endloop
  endfacet
  facet normal  6.902980e-001  0.000000e+000  7.235252e-001
    outer loop
      vertex  1.877892e-001 -3.671875e-001 -1.381579e-002
      vertex  1.973679e-001 -1.914063e-001 -2.295459e-002
      vertex  1.877892e-001 -1.562500e-002 -1.381579e-002
    endloop
  endfacet
  facet normal  9.801701e-002  0.000000e+000  9.951848e-001
    outer loop
      vertex  2.187500e-001 -3.828125e-001 -2.944079e-002
      vertex  2.187500e-001  1.020822e-016 -2.944079e-002
      vertex  2.112416e-001  1.078314e-016 -2.870128e-002
    endloop
  endfacet
  facet normal  2.271668e-001  2.574329e-003  9.738525e-001
    outer loop
      vertex  2.187500e-001 -3.828125e-001 -2.944079e-002
      vertex  2.112416e-001  1.078314e-016 -2.870128e-002
      vertex  2.040217e-001 -1.914063e-001 -2.651115e-002
    endloop
  endfacet
  facet normal  9.801411e-002 -7.689735e-003  9.951553e-001
    outer loop
      vertex  2.187500e-001 -3.828125e-001 -2.944079e-002
      vertex  2.040217e-001 -1.914063e-001 -2.651115e-002
      vertex  2.112416e-001 -3.828125e-001 -2.870128e-002
    endloop
  endfacet
  facet normal  4.713972e-001  0.000000e+000  8.819211e-001
    outer loop
      vertex  2.040217e-001 -3.828125e-001 -2.651115e-002
      vertex  2.040217e-001 -1.914063e-001 -2.651115e-002
      vertex  1.973679e-001 -3.828125e-001 -2.295459e-002
    endloop
  endfacet
  facet normal  4.713972e-001  -0.000000e+000  8.819211e-001
    outer loop
      vertex  1.973679e-001 -3.828125e-001 -2.295459e-002
      vertex  2.040217e-001 -1.914063e-001 -2.651115e-002
      vertex  1.973679e-001 -1.914063e-001 -2.295459e-002
    endloop
  endfacet
  facet normal  4.713972e-001  0.000000e+000  8.819211e-001
    outer loop
      vertex  2.040217e-001 -1.914063e-001 -2.651115e-002
      vertex  2.040217e-001  1.071666e-016 -2.651115e-002
      vertex  1.973679e-001 -1.914063e-001 -2.295459e-002
    endloop
  endfacet
  facet normal  4.713972e-001  -0.000000e+000  8.819211e-001
    outer loop
      vertex  1.973679e-001 -1.914063e-001 -2.295459e-002
      vertex  2.040217e-001  1.071666e-016 -2.651115e-002
      vertex  1.973679e-001  1.066500e-016 -2.295459e-002
    endloop
  endfacet
  facet normal  2.902849e-001  0.000000e+000 -9.569403e-001
    outer loop
      vertex  2.112416e-001  1.125460e-016  4.679338e-002
      vertex  2.040217e-001 -1.914063e-001  4.460326e-002
      vertex  2.040217e-001  1.116077e-016  4.460326e-002
    endloop
  endfacet
  facet normal  4.713970e-001  0.000000e+000 -8.819212e-001
    outer loop
      vertex  2.040217e-001  1.116077e-016  4.460326e-002
      vertex  2.040217e-001 -1.914063e-001  4.460326e-002
      vertex  1.973679e-001 -1.914063e-001  4.104669e-002
    endloop
  endfacet
  facet normal  4.713970e-001  0.000000e+000 -8.819212e-001
    outer loop
      vertex  2.040217e-001  1.116077e-016  4.460326e-002
      vertex  1.973679e-001 -1.914063e-001  4.104669e-002
      vertex  1.973679e-001  1.106468e-016  4.104669e-002
    endloop
  endfacet
  facet normal  6.343933e-001  0.000000e+000 -7.730104e-001
    outer loop
      vertex  1.973679e-001  1.106468e-016  4.104669e-002
      vertex  1.973679e-001 -1.914063e-001  4.104669e-002
      vertex  1.915357e-001 -1.914063e-001  3.626036e-002
    endloop
  endfacet
  facet normal  6.343933e-001  0.000000e+000 -7.730104e-001
    outer loop
      vertex  1.973679e-001  1.106468e-016  4.104669e-002
      vertex  1.915357e-001 -1.914063e-001  3.626036e-002
      vertex  1.915357e-001  1.097004e-016  3.626036e-002
    endloop
  endfacet
  facet normal  2.902849e-001  0.000000e+000 -9.569403e-001
    outer loop
      vertex  2.112416e-001 -3.828125e-001  4.679338e-002
      vertex  2.040217e-001 -3.828125e-001  4.460326e-002
      vertex  2.040217e-001 -1.914063e-001  4.460326e-002
    endloop
  endfacet
  facet normal  4.713970e-001  0.000000e+000 -8.819212e-001
    outer loop
      vertex  2.040217e-001 -1.914063e-001  4.460326e-002
      vertex  2.040217e-001 -3.828125e-001  4.460326e-002
      vertex  1.973679e-001 -3.828125e-001  4.104669e-002
    endloop
  endfacet
  facet normal  4.713970e-001  0.000000e+000 -8.819212e-001
    outer loop
      vertex  2.040217e-001 -1.914063e-001  4.460326e-002
      vertex  1.973679e-001 -3.828125e-001  4.104669e-002
      vertex  1.973679e-001 -1.914063e-001  4.104669e-002
    endloop
  endfacet
  facet normal  6.343933e-001  0.000000e+000 -7.730104e-001
    outer loop
      vertex  1.973679e-001 -1.914063e-001  4.104669e-002
      vertex  1.973679e-001 -3.828125e-001  4.104669e-002
      vertex  1.915357e-001 -3.828125e-001  3.626036e-002
    endloop
  endfacet
  facet normal  6.343933e-001  0.000000e+000 -7.730104e-001
    outer loop
      vertex  1.973679e-001 -1.914063e-001  4.104669e-002
      vertex  1.915357e-001 -3.828125e-001  3.626036e-002
      vertex  1.915357e-001 -1.914063e-001  3.626036e-002
    endloop
  endfacet
  facet normal  0.000000e+000  0.000000e+000 -1.000000e+000
    outer loop
      vertex  1.877892e-001 -3.671875e-001  3.190789e-002
      vertex -6.954208e-001 -3.671875e-001  3.190789e-002
      vertex  1.877892e-001 -1.562500e-002  3.190789e-002
    endloop
  endfacet
  facet normal  -0.000000e+000  0.000000e+000 -1.000000e+000
    outer loop
      vertex  1.877892e-001 -1.562500e-002  3.190789e-002
      vertex -6.954208e-001 -3.671875e-001  3.190789e-002
      vertex -6.954208e-001 -1.562500e-002  3.190789e-002
    endloop
  endfacet
  facet normal  0.000000e+000  9.999999e-001  0.000000e+000
    outer loop
      vertex -7.037843e-001 -3.671875e-001  3.046577e-002
      vertex -6.996701e-001 -3.671875e-001  3.157828e-002
      vertex -6.996701e-001 -3.671875e-001 -1.348618e-002
    endloop
  endfacet
  facet normal  0.000000e+000  9.999999e-001  0.000000e+000
    outer loop
      vertex -7.037843e-001 -3.671875e-001 -1.237367e-002
      vertex -7.037843e-001 -3.671875e-001  3.046577e-002
      vertex -6.996701e-001 -3.671875e-001 -1.348618e-002
    endloop
  endfacet
  facet normal  0.000000e+000  1.000000e+000  0.000000e+000
    outer loop
      vertex -7.076206e-001 -3.671875e-001  2.860902e-002
      vertex -7.037843e-001 -3.671875e-001  3.046577e-002
      vertex -7.037843e-001 -3.671875e-001 -1.237367e-002
    endloop
  endfacet
  facet normal  0.000000e+000  1.000000e+000  0.000000e+000
    outer loop
      vertex -7.076206e-001 -3.671875e-001 -1.051692e-002
      vertex -7.076206e-001 -3.671875e-001  2.860902e-002
      vertex -7.037843e-001 -3.671875e-001 -1.237367e-002
    endloop
  endfacet
  facet normal  0.000000e+000  1.000000e+000  0.000000e+000
    outer loop
      vertex -7.110457e-001 -3.671875e-001  2.607254e-002
      vertex -7.076206e-001 -3.671875e-001  2.860902e-002
      vertex -7.076206e-001 -3.671875e-001 -1.051692e-002
    endloop
  endfacet
  facet normal  0.000000e+000  1.000000e+000  0.000000e+000
    outer loop
      vertex -7.110457e-001 -3.671875e-001 -7.980437e-003
      vertex -7.110457e-001 -3.671875e-001  2.607254e-002
      vertex -7.076206e-001 -3.671875e-001 -1.051692e-002
    endloop
  endfacet
  facet normal  0.000000e+000  1.000000e+000  0.000000e+000
    outer loop
      vertex -7.139406e-001 -3.671875e-001  2.294447e-002
      vertex -7.110457e-001 -3.671875e-001  2.607254e-002
      vertex -7.110457e-001 -3.671875e-001 -7.980437e-003
    endloop
  endfacet
  facet normal  0.000000e+000  9.999999e-001  0.000000e+000
    outer loop
      vertex -7.139406e-001 -3.671875e-001 -4.852362e-003
      vertex -7.139406e-001 -3.671875e-001  2.294447e-002
      vertex -7.110457e-001 -3.671875e-001 -7.980437e-003
    endloop
  endfacet
  facet normal  0.000000e+000  1.000000e+000  0.000000e+000
    outer loop
      vertex -7.162045e-001 -3.671875e-001  1.933348e-002
      vertex -7.139406e-001 -3.671875e-001  2.294447e-002
      vertex -7.139406e-001 -3.671875e-001 -4.852362e-003
    endloop
  endfacet
  facet normal  -0.000000e+000  9.999999e-001  0.000000e+000
    outer loop
      vertex -6.954208e-001 -3.671875e-001 -1.381579e-002
      vertex -6.996701e-001 -3.671875e-001 -1.348618e-002
      vertex -6.996701e-001 -3.671875e-001  3.157828e-002
    endloop
  endfacet
  facet normal  -0.000000e+000  1.000000e+000  0.000000e+000
    outer loop
      vertex -6.954208e-001 -3.671875e-001 -1.381579e-002
      vertex -6.996701e-001 -3.671875e-001  3.157828e-002
      vertex -6.954208e-001 -3.671875e-001  3.190789e-002
    endloop
  endfacet
  facet normal  0.000000e+000  1.000000e+000  0.000000e+000
    outer loop
      vertex -6.954208e-001 -3.671875e-001 -1.381579e-002
      vertex -6.954208e-001 -3.671875e-001  3.190789e-002
      vertex  1.804219e-001 -3.671875e-001  5.553820e-003
    endloop
  endfacet
  facet normal  0.000000e+000  1.000000e+000  0.000000e+000
    outer loop
      vertex -6.954208e-001 -3.671875e-001 -1.381579e-002
      vertex  1.804219e-001 -3.671875e-001  5.553820e-003
      vertex  1.816842e-001 -3.671875e-001 -1.315632e-003
    endloop
  endfacet
  facet normal  0.000000e+000  1.000000e+000  0.000000e+000
    outer loop
      vertex -6.954208e-001 -3.671875e-001 -1.381579e-002
      vertex  1.816842e-001 -3.671875e-001 -1.315632e-003
      vertex  1.841672e-001 -3.671875e-001 -7.843834e-003
    endloop
  endfacet
  facet normal  0.000000e+000  9.999999e-001  0.000000e+000
    outer loop
      vertex -6.954208e-001 -3.671875e-001 -1.381579e-002
      vertex  1.841672e-001 -3.671875e-001 -7.843834e-003
      vertex  1.877892e-001 -3.671875e-001 -1.381579e-002
    endloop
  endfacet
  facet normal  0.000000e+000  1.000000e+000  0.000000e+000
    outer loop
      vertex -6.954208e-001 -3.671875e-001  3.190789e-002
      vertex  1.877892e-001 -3.671875e-001  3.190789e-002
      vertex  1.841672e-001 -3.671875e-001  2.593594e-002
    endloop
  endfacet
  facet normal  0.000000e+000  1.000000e+000  0.000000e+000
    outer loop
      vertex -6.954208e-001 -3.671875e-001  3.190789e-002
      vertex  1.841672e-001 -3.671875e-001  2.593594e-002
      vertex  1.816842e-001 -3.671875e-001  1.940774e-002
    endloop
  endfacet
  facet normal  0.000000e+000  9.999999e-001  0.000000e+000
    outer loop
      vertex -6.954208e-001 -3.671875e-001  3.190789e-002
      vertex  1.816842e-001 -3.671875e-001  1.940774e-002
      vertex  1.804219e-001 -3.671875e-001  1.253828e-002
    endloop
  endfacet
  facet normal  0.000000e+000  1.000000e+000  0.000000e+000
    outer loop
      vertex -6.954208e-001 -3.671875e-001  3.190789e-002
      vertex  1.804219e-001 -3.671875e-001  1.253828e-002
      vertex  1.804219e-001 -3.671875e-001  5.553820e-003
    endloop
  endfacet
  facet normal  -0.000000e+000  1.000000e+000  -0.000000e+000
    outer loop
      vertex -7.162045e-001 -3.671875e-001 -1.241377e-003
      vertex -7.177591e-001 -3.671875e-001  2.727052e-003
      vertex -7.185500e-001 -3.671875e-001  6.915038e-003
    endloop
  endfacet
  facet normal  -0.000000e+000  1.000000e+000  0.000000e+000
    outer loop
      vertex -7.162045e-001 -3.671875e-001 -1.241377e-003
      vertex -7.185500e-001 -3.671875e-001  6.915038e-003
      vertex -7.185500e-001 -3.671875e-001  1.117707e-002
    endloop
  endfacet
  facet normal  -0.000000e+000  1.000000e+000  0.000000e+000
    outer loop
      vertex -7.162045e-001 -3.671875e-001 -1.241377e-003
      vertex -7.185500e-001 -3.671875e-001  1.117707e-002
      vertex -7.177591e-001 -3.671875e-001  1.536505e-002
    endloop
  endfacet
  facet normal  -0.000000e+000  1.000000e+000  0.000000e+000
    outer loop
      vertex -7.162045e-001 -3.671875e-001 -1.241377e-003
      vertex -7.177591e-001 -3.671875e-001  1.536505e-002
      vertex -7.162045e-001 -3.671875e-001  1.933348e-002
    endloop
  endfacet
  facet normal  0.000000e+000  1.000000e+000  0.000000e+000
    outer loop
      vertex -7.162045e-001 -3.671875e-001 -1.241377e-003
      vertex -7.162045e-001 -3.671875e-001  1.933348e-002
      vertex -7.139406e-001 -3.671875e-001 -4.852362e-003
    endloop
  endfacet
  facet normal  0.000000e+000 -9.999999e-001  -0.000000e+000
    outer loop
      vertex -6.996701e-001 -1.562500e-002 -1.348618e-002
      vertex -6.996701e-001 -1.562500e-002  3.157828e-002
      vertex -7.037843e-001 -1.562500e-002  3.046577e-002
    endloop
  endfacet
  facet normal  0.000000e+000 -9.999999e-001  0.000000e+000
    outer loop
      vertex -6.996701e-001 -1.562500e-002 -1.348618e-002
      vertex -7.037843e-001 -1.562500e-002  3.046577e-002
      vertex -7.037843e-001 -1.562500e-002 -1.237367e-002
    endloop
  endfacet
  facet normal  0.000000e+000 -1.000000e+000  -0.000000e+000
    outer loop
      vertex -7.037843e-001 -1.562500e-002 -1.237367e-002
      vertex -7.037843e-001 -1.562500e-002  3.046577e-002
      vertex -7.076206e-001 -1.562500e-002  2.860902e-002
    endloop
  endfacet
  facet normal  0.000000e+000 -1.000000e+000  0.000000e+000
    outer loop
      vertex -7.037843e-001 -1.562500e-002 -1.237367e-002
      vertex -7.076206e-001 -1.562500e-002  2.860902e-002
      vertex -7.076206e-001 -1.562500e-002 -1.051692e-002
    endloop
  endfacet
  facet normal  0.000000e+000 -1.000000e+000  -0.000000e+000
    outer loop
      vertex -7.076206e-001 -1.562500e-002 -1.051692e-002
      vertex -7.076206e-001 -1.562500e-002  2.860902e-002
      vertex -7.110457e-001 -1.562500e-002  2.607254e-002
    endloop
  endfacet
  facet normal  0.000000e+000 -1.000000e+000  0.000000e+000
    outer loop
      vertex -7.076206e-001 -1.562500e-002 -1.051692e-002
      vertex -7.110457e-001 -1.562500e-002  2.607254e-002
      vertex -7.110457e-001 -1.562500e-002 -7.980437e-003
    endloop
  endfacet
  facet normal  0.000000e+000 -1.000000e+000  -0.000000e+000
    outer loop
      vertex -7.110457e-001 -1.562500e-002 -7.980437e-003
      vertex -7.110457e-001 -1.562500e-002  2.607254e-002
      vertex -7.139406e-001 -1.562500e-002  2.294447e-002
    endloop
  endfacet
  facet normal  0.000000e+000 -9.999999e-001  0.000000e+000
    outer loop
      vertex -7.110457e-001 -1.562500e-002 -7.980437e-003
      vertex -7.139406e-001 -1.562500e-002  2.294447e-002
      vertex -7.139406e-001 -1.562500e-002 -4.852362e-003
    endloop
  endfacet
  facet normal  0.000000e+000 -1.000000e+000  -0.000000e+000
    outer loop
      vertex -7.139406e-001 -1.562500e-002 -4.852362e-003
      vertex -7.139406e-001 -1.562500e-002  2.294447e-002
      vertex -7.162045e-001 -1.562500e-002  1.933348e-002
    endloop
  endfacet
  facet normal  0.000000e+000 -1.000000e+000  0.000000e+000
    outer loop
      vertex -6.954208e-001 -1.562500e-002 -1.381579e-002
      vertex  1.877892e-001 -1.562500e-002 -1.381579e-002
      vertex  1.841672e-001 -1.562500e-002 -7.843834e-003
    endloop
  endfacet
  facet normal  -0.000000e+000 -1.000000e+000  0.000000e+000
    outer loop
      vertex -6.954208e-001 -1.562500e-002 -1.381579e-002
      vertex  1.841672e-001 -1.562500e-002 -7.843834e-003
      vertex  1.816842e-001 -1.562500e-002 -1.315632e-003
    endloop
  endfacet
  facet normal  -0.000000e+000 -1.000000e+000  0.000000e+000
    outer loop
      vertex -6.954208e-001 -1.562500e-002 -1.381579e-002
      vertex  1.816842e-001 -1.562500e-002 -1.315632e-003
      vertex  1.804219e-001 -1.562500e-002  5.553820e-003
    endloop
  endfacet
  facet normal  -0.000000e+000 -1.000000e+000  0.000000e+000
    outer loop
      vertex -6.954208e-001 -1.562500e-002 -1.381579e-002
      vertex  1.804219e-001 -1.562500e-002  5.553820e-003
      vertex -6.954208e-001 -1.562500e-002  3.190789e-002
    endloop
  endfacet
  facet normal  0.000000e+000 -1.000000e+000  -0.000000e+000
    outer loop
      vertex -6.954208e-001 -1.562500e-002 -1.381579e-002
      vertex -6.954208e-001 -1.562500e-002  3.190789e-002
      vertex -6.996701e-001 -1.562500e-002  3.157828e-002
    endloop
  endfacet
  facet normal  0.000000e+000 -9.999999e-001  0.000000e+000
    outer loop
      vertex -6.954208e-001 -1.562500e-002 -1.381579e-002
      vertex -6.996701e-001 -1.562500e-002  3.157828e-002
      vertex -6.996701e-001 -1.562500e-002 -1.348618e-002
    endloop
  endfacet
  facet normal  0.000000e+000 -1.000000e+000  0.000000e+000
    outer loop
      vertex -6.954208e-001 -1.562500e-002  3.190789e-002
      vertex  1.804219e-001 -1.562500e-002  5.553820e-003
      vertex  1.804219e-001 -1.562500e-002  1.253828e-002
    endloop
  endfacet
  facet normal  0.000000e+000 -9.999999e-001  0.000000e+000
    outer loop
      vertex -6.954208e-001 -1.562500e-002  3.190789e-002
      vertex  1.804219e-001 -1.562500e-002  1.253828e-002
      vertex  1.816842e-001 -1.562500e-002  1.940774e-002
    endloop
  endfacet
  facet normal  0.000000e+000 -1.000000e+000  0.000000e+000
    outer loop
      vertex -6.954208e-001 -1.562500e-002  3.190789e-002
      vertex  1.816842e-001 -1.562500e-002  1.940774e-002
      vertex  1.841672e-001 -1.562500e-002  2.593594e-002
    endloop
  endfacet
  facet normal  0.000000e+000 -1.000000e+000  0.000000e+000
    outer loop
      vertex -6.954208e-001 -1.562500e-002  3.190789e-002
      vertex  1.841672e-001 -1.562500e-002  2.593594e-002
      vertex  1.877892e-001 -1.562500e-002  3.190789e-002
    endloop
  endfacet
  facet normal  0.000000e+000 -1.000000e+000  0.000000e+000
    outer loop
      vertex -7.162045e-001 -1.562500e-002 -1.241377e-003
      vertex -7.139406e-001 -1.562500e-002 -4.852362e-003
      vertex -7.162045e-001 -1.562500e-002  1.933348e-002
    endloop
  endfacet
  facet normal  0.000000e+000 -1.000000e+000  -0.000000e+000
    outer loop
      vertex -7.162045e-001 -1.562500e-002 -1.241377e-003
      vertex -7.162045e-001 -1.562500e-002  1.933348e-002
      vertex -7.177591e-001 -1.562500e-002  1.536505e-002
    endloop
  endfacet
  facet normal  0.000000e+000 -1.000000e+000  -0.000000e+000
    outer loop
      vertex -7.162045e-001 -1.562500e-002 -1.241377e-003
      vertex -7.177591e-001 -1.562500e-002  1.536505e-002
      vertex -7.185500e-001 -1.562500e-002  1.117707e-002
    endloop
  endfacet
  facet normal  0.000000e+000 -1.000000e+000  0.000000e+000
    outer loop
      vertex -7.162045e-001 -1.562500e-002 -1.241377e-003
      vertex -7.185500e-001 -1.562500e-002  1.117707e-002
      vertex -7.185500e-001 -1.562500e-002  6.915038e-003
    endloop
  endfacet
  facet normal  0.000000e+000 -1.000000e+000  0.000000e+000
    outer loop
      vertex -7.162045e-001 -1.562500e-002 -1.241377e-003
      vertex -7.185500e-001 -1.562500e-002  6.915038e-003
      vertex -7.177591e-001 -1.562500e-002  2.727052e-003
    endloop
  endfacet
  facet normal  0.000000e+000  0.000000e+000  1.000000e+000
    outer loop
      vertex -6.954208e-001 -3.671875e-001 -1.381579e-002
      vertex  1.877892e-001 -3.671875e-001 -1.381579e-002
      vertex -6.954208e-001 -1.562500e-002 -1.381579e-002
    endloop
  endfacet
  facet normal  -0.000000e+000  0.000000e+000  1.000000e+000
    outer loop
      vertex -6.954208e-001 -1.562500e-002 -1.381579e-002
      vertex  1.877892e-001 -3.671875e-001 -1.381579e-002
      vertex  1.877892e-001 -1.562500e-002 -1.381579e-002
    endloop
  endfacet
  facet normal  9.826288e-001  -0.000000e+000  1.855817e-001
    outer loop
      vertex -7.185500e-001 -1.562500e-002  6.915038e-003
      vertex -7.177591e-001 -3.671875e-001  2.727052e-003
      vertex -7.177591e-001 -1.562500e-002  2.727052e-003
    endloop
  endfacet
  facet normal  9.311085e-001  0.000000e+000  3.647423e-001
    outer loop
      vertex -7.177591e-001 -1.562500e-002  2.727052e-003
      vertex -7.177591e-001 -3.671875e-001  2.727052e-003
      vertex -7.162045e-001 -3.671875e-001 -1.241377e-003
    endloop
  endfacet
  facet normal  9.311085e-001  -0.000000e+000  3.647423e-001
    outer loop
      vertex -7.177591e-001 -1.562500e-002  2.727052e-003
      vertex -7.162045e-001 -3.671875e-001 -1.241377e-003
      vertex -7.162045e-001 -1.562500e-002 -1.241377e-003
    endloop
  endfacet
  facet normal  8.472490e-001  0.000000e+000  5.311960e-001
    outer loop
      vertex -7.162045e-001 -1.562500e-002 -1.241377e-003
      vertex -7.162045e-001 -3.671875e-001 -1.241377e-003
      vertex -7.139406e-001 -3.671875e-001 -4.852362e-003
    endloop
  endfacet
  facet normal  8.472490e-001  -0.000000e+000  5.311960e-001
    outer loop
      vertex -7.162045e-001 -1.562500e-002 -1.241377e-003
      vertex -7.139406e-001 -3.671875e-001 -4.852362e-003
      vertex -7.139406e-001 -1.562500e-002 -4.852362e-003
    endloop
  endfacet
  facet normal  7.339417e-001  0.000000e+000  6.792126e-001
    outer loop
      vertex -7.139406e-001 -1.562500e-002 -4.852362e-003
      vertex -7.139406e-001 -3.671875e-001 -4.852362e-003
      vertex -7.110457e-001 -3.671875e-001 -7.980437e-003
    endloop
  endfacet
  facet normal  7.339417e-001  -0.000000e+000  6.792126e-001
    outer loop
      vertex -7.139406e-001 -1.562500e-002 -4.852362e-003
      vertex -7.110457e-001 -3.671875e-001 -7.980437e-003
      vertex -7.110457e-001 -1.562500e-002 -7.980437e-003
    endloop
  endfacet
  facet normal  5.951294e-001  0.000000e+000  8.036299e-001
    outer loop
      vertex -7.110457e-001 -1.562500e-002 -7.980437e-003
      vertex -7.110457e-001 -3.671875e-001 -7.980437e-003
      vertex -7.076206e-001 -3.671875e-001 -1.051692e-002
    endloop
  endfacet
  facet normal  5.951294e-001  -0.000000e+000  8.036299e-001
    outer loop
      vertex -7.110457e-001 -1.562500e-002 -7.980437e-003
      vertex -7.076206e-001 -3.671875e-001 -1.051692e-002
      vertex -7.076206e-001 -1.562500e-002 -1.051692e-002
    endloop
  endfacet
  facet normal  4.356541e-001  0.000000e+000  9.001142e-001
    outer loop
      vertex -7.076206e-001 -1.562500e-002 -1.051692e-002
      vertex -7.076206e-001 -3.671875e-001 -1.051692e-002
      vertex -7.037843e-001 -3.671875e-001 -1.237367e-002
    endloop
  endfacet
  facet normal  4.356541e-001  -0.000000e+000  9.001142e-001
    outer loop
      vertex -7.076206e-001 -1.562500e-002 -1.051692e-002
      vertex -7.037843e-001 -3.671875e-001 -1.237367e-002
      vertex -7.037843e-001 -1.562500e-002 -1.237367e-002
    endloop
  endfacet
  facet normal  2.610279e-001  0.000000e+000  9.653313e-001
    outer loop
      vertex -7.037843e-001 -1.562500e-002 -1.237367e-002
      vertex -7.037843e-001 -3.671875e-001 -1.237367e-002
      vertex -6.996701e-001 -3.671875e-001 -1.348618e-002
    endloop
  endfacet
  facet normal  2.610279e-001  -0.000000e+000  9.653313e-001
    outer loop
      vertex -7.037843e-001 -1.562500e-002 -1.237367e-002
      vertex -6.996701e-001 -3.671875e-001 -1.348618e-002
      vertex -6.996701e-001 -1.562500e-002 -1.348618e-002
    endloop
  endfacet
  facet normal  7.733686e-002  0.000000e+000  9.970050e-001
    outer loop
      vertex -6.996701e-001 -1.562500e-002 -1.348618e-002
      vertex -6.996701e-001 -3.671875e-001 -1.348618e-002
      vertex -6.954208e-001 -3.671875e-001 -1.381579e-002
    endloop
  endfacet
  facet normal  7.733686e-002  -0.000000e+000  9.970050e-001
    outer loop
      vertex -6.996701e-001 -1.562500e-002 -1.348618e-002
      vertex -6.954208e-001 -3.671875e-001 -1.381579e-002
      vertex -6.954208e-001 -1.562500e-002 -1.381579e-002
    endloop
  endfacet
  facet normal  9.826288e-001  0.000000e+000  1.855817e-001
    outer loop
      vertex -7.177591e-001 -3.671875e-001  2.727052e-003
      vertex -7.185500e-001 -1.562500e-002  6.915038e-003
      vertex -7.185500e-001 -3.671875e-001  6.915038e-003
    endloop
  endfacet
  facet normal  1.000000e+000  0.000000e+000  0.000000e+000
    outer loop
      vertex -7.185500e-001 -3.671875e-001  6.915038e-003
      vertex -7.185500e-001 -1.562500e-002  6.915038e-003
      vertex -7.185500e-001 -1.562500e-002  1.117707e-002
    endloop
  endfacet
  facet normal  1.000000e+000  0.000000e+000  0.000000e+000
    outer loop
      vertex -7.185500e-001 -3.671875e-001  6.915038e-003
      vertex -7.185500e-001 -1.562500e-002  1.117707e-002
      vertex -7.185500e-001 -3.671875e-001  1.117707e-002
    endloop
  endfacet
  facet normal  9.826288e-001  0.000000e+000 -1.855817e-001
    outer loop
      vertex -7.185500e-001 -3.671875e-001  1.117707e-002
      vertex -7.185500e-001 -1.562500e-002  1.117707e-002
      vertex -7.177591e-001 -1.562500e-002  1.536505e-002
    endloop
  endfacet
  facet normal  9.826288e-001  0.000000e+000 -1.855817e-001
    outer loop
      vertex -7.185500e-001 -3.671875e-001  1.117707e-002
      vertex -7.177591e-001 -1.562500e-002  1.536505e-002
      vertex -7.177591e-001 -3.671875e-001  1.536505e-002
    endloop
  endfacet
  facet normal  9.311085e-001  0.000000e+000 -3.647423e-001
    outer loop
      vertex -7.177591e-001 -3.671875e-001  1.536505e-002
      vertex -7.177591e-001 -1.562500e-002  1.536505e-002
      vertex -7.162045e-001 -1.562500e-002  1.933348e-002
    endloop
  endfacet
  facet normal  9.311085e-001  0.000000e+000 -3.647423e-001
    outer loop
      vertex -7.177591e-001 -3.671875e-001  1.536505e-002
      vertex -7.162045e-001 -1.562500e-002  1.933348e-002
      vertex -7.162045e-001 -3.671875e-001  1.933348e-002
    endloop
  endfacet
  facet normal  8.472490e-001  0.000000e+000 -5.311959e-001
    outer loop
      vertex -7.162045e-001 -3.671875e-001  1.933348e-002
      vertex -7.162045e-001 -1.562500e-002  1.933348e-002
      vertex -7.139406e-001 -1.562500e-002  2.294447e-002
    endloop
  endfacet
  facet normal  8.472490e-001  0.000000e+000 -5.311959e-001
    outer loop
      vertex -7.162045e-001 -3.671875e-001  1.933348e-002
      vertex -7.139406e-001 -1.562500e-002  2.294447e-002
      vertex -7.139406e-001 -3.671875e-001  2.294447e-002
    endloop
  endfacet
  facet normal  7.339417e-001  0.000000e+000 -6.792125e-001
    outer loop
      vertex -7.139406e-001 -3.671875e-001  2.294447e-002
      vertex -7.139406e-001 -1.562500e-002  2.294447e-002
      vertex -7.110457e-001 -1.562500e-002  2.607254e-002
    endloop
  endfacet
  facet normal  7.339417e-001  0.000000e+000 -6.792125e-001
    outer loop
      vertex -7.139406e-001 -3.671875e-001  2.294447e-002
      vertex -7.110457e-001 -1.562500e-002  2.607254e-002
      vertex -7.110457e-001 -3.671875e-001  2.607254e-002
    endloop
  endfacet
  facet normal  5.951294e-001  0.000000e+000 -8.036299e-001
    outer loop
      vertex -7.110457e-001 -3.671875e-001  2.607254e-002
      vertex -7.110457e-001 -1.562500e-002  2.607254e-002
      vertex -7.076206e-001 -1.562500e-002  2.860902e-002
    endloop
  endfacet
  facet normal  5.951294e-001  0.000000e+000 -8.036299e-001
    outer loop
      vertex -7.110457e-001 -3.671875e-001  2.607254e-002
      vertex -7.076206e-001 -1.562500e-002  2.860902e-002
      vertex -7.076206e-001 -3.671875e-001  2.860902e-002
    endloop
  endfacet
  facet normal  4.356537e-001  0.000000e+000 -9.001144e-001
    outer loop
      vertex -7.076206e-001 -3.671875e-001  2.860902e-002
      vertex -7.076206e-001 -1.562500e-002  2.860902e-002
      vertex -7.037843e-001 -1.562500e-002  3.046577e-002
    endloop
  endfacet
  facet normal  4.356537e-001  0.000000e+000 -9.001144e-001
    outer loop
      vertex -7.076206e-001 -3.671875e-001  2.860902e-002
      vertex -7.037843e-001 -1.562500e-002  3.046577e-002
      vertex -7.037843e-001 -3.671875e-001  3.046577e-002
    endloop
  endfacet
  facet normal  2.610285e-001  0.000000e+000 -9.653311e-001
    outer loop
      vertex -7.037843e-001 -3.671875e-001  3.046577e-002
      vertex -7.037843e-001 -1.562500e-002  3.046577e-002
      vertex -6.996701e-001 -1.562500e-002  3.157828e-002
    endloop
  endfacet
  facet normal  2.610285e-001  0.000000e+000 -9.653311e-001
    outer loop
      vertex -7.037843e-001 -3.671875e-001  3.046577e-002
      vertex -6.996701e-001 -1.562500e-002  3.157828e-002
      vertex -6.996701e-001 -3.671875e-001  3.157828e-002
    endloop
  endfacet
  facet normal  7.733621e-002  0.000000e+000 -9.970050e-001
    outer loop
      vertex -6.996701e-001 -3.671875e-001  3.157828e-002
      vertex -6.996701e-001 -1.562500e-002  3.157828e-002
      vertex -6.954208e-001 -1.562500e-002  3.190789e-002
    endloop
  endfacet
  facet normal  7.733621e-002  0.000000e+000 -9.970050e-001
    outer loop
      vertex -6.996701e-001 -3.671875e-001  3.157828e-002
      vertex -6.954208e-001 -1.562500e-002  3.190789e-002
      vertex -6.954208e-001 -3.671875e-001  3.190789e-002
    endloop
  endfacet
  facet normal  0.000000e+000 -1.000000e+000  0.000000e+000
    outer loop
      vertex -6.953125e-001 -3.828125e-001  4.753289e-002
      vertex -7.093515e-001 -3.828125e-001  4.506557e-002
      vertex  2.112416e-001 -3.828125e-001  4.679338e-002
    endloop
  endfacet
  facet normal  0.000000e+000 -1.000000e+000  -0.000000e+000
    outer loop
      vertex -6.953125e-001 -3.828125e-001  4.753289e-002
      vertex -7.024472e-001 -3.828125e-001  4.695480e-002
      vertex -7.093515e-001 -3.828125e-001  4.506557e-002
    endloop
  endfacet
  facet normal  0.000000e+000 -1.000000e+000  0.000000e+000
    outer loop
      vertex -6.953125e-001 -3.828125e-001 -2.944079e-002
      vertex  2.040217e-001 -3.828125e-001 -2.651115e-002
      vertex -7.024472e-001 -3.828125e-001 -2.886269e-002
    endloop
  endfacet
  facet normal  -0.000000e+000 -1.000000e+000  0.000000e+000
    outer loop
      vertex -6.953125e-001 -3.828125e-001 -2.944079e-002
      vertex  2.112416e-001 -3.828125e-001 -2.870128e-002
      vertex  2.040217e-001 -3.828125e-001 -2.651115e-002
    endloop
  endfacet
  facet normal  0.000000e+000 -1.000000e+000  0.000000e+000
    outer loop
      vertex  2.112416e-001 -3.828125e-001  4.679338e-002
      vertex -7.093515e-001 -3.828125e-001  4.506557e-002
      vertex  2.040217e-001 -3.828125e-001  4.460326e-002
    endloop
  endfacet
  facet normal  0.000000e+000 -9.999999e-001  -0.000000e+000
    outer loop
      vertex  2.040217e-001 -3.828125e-001  4.460326e-002
      vertex -7.093515e-001 -3.828125e-001  4.506557e-002
      vertex -7.157866e-001 -3.828125e-001  4.193055e-002
    endloop
  endfacet
  facet normal  0.000000e+000 -1.000000e+000  0.000000e+000
    outer loop
      vertex  2.040217e-001 -3.828125e-001  4.460326e-002
      vertex -7.157866e-001 -3.828125e-001  4.193055e-002
      vertex  1.973679e-001 -3.828125e-001  4.104669e-002
    endloop
  endfacet
  facet normal  0.000000e+000 -1.000000e+000  -0.000000e+000
    outer loop
      vertex  1.973679e-001 -3.828125e-001  4.104669e-002
      vertex -7.157866e-001 -3.828125e-001  4.193055e-002
      vertex -7.215298e-001 -3.828125e-001  3.765818e-002
    endloop
  endfacet
  facet normal  0.000000e+000 -1.000000e+000  0.000000e+000
    outer loop
      vertex  1.973679e-001 -3.828125e-001  4.104669e-002
      vertex -7.215298e-001 -3.828125e-001  3.765818e-002
      vertex  1.915357e-001 -3.828125e-001  3.626036e-002
    endloop
  endfacet
  facet normal  0.000000e+000 -1.000000e+000  -0.000000e+000
    outer loop
      vertex  1.915357e-001 -3.828125e-001  3.626036e-002
      vertex -7.215298e-001 -3.828125e-001  3.765818e-002
      vertex -7.263827e-001 -3.828125e-001  3.239622e-002
    endloop
  endfacet
  facet normal  0.000000e+000 -1.000000e+000  0.000000e+000
    outer loop
      vertex  1.915357e-001 -3.828125e-001  3.626036e-002
      vertex -7.263827e-001 -3.828125e-001  3.239622e-002
      vertex  1.867494e-001 -3.828125e-001  3.042820e-002
    endloop
  endfacet
  facet normal  0.000000e+000 -1.000000e+000  -0.000000e+000
    outer loop
      vertex  1.867494e-001 -3.828125e-001  3.042820e-002
      vertex -7.263827e-001 -3.828125e-001  3.239622e-002
      vertex -7.301773e-001 -3.828125e-001  2.632665e-002
    endloop
  endfacet
  facet normal  0.000000e+000 -1.000000e+000  0.000000e+000
    outer loop
      vertex  1.867494e-001 -3.828125e-001  3.042820e-002
      vertex -7.301773e-001 -3.828125e-001  2.632665e-002
      vertex  1.831928e-001 -3.828125e-001  2.377433e-002
    endloop
  endfacet
  facet normal  0.000000e+000 -1.000000e+000  -0.000000e+000
    outer loop
      vertex  1.831928e-001 -3.828125e-001  2.377433e-002
      vertex -7.301773e-001 -3.828125e-001  2.632665e-002
      vertex -7.327824e-001 -3.828125e-001  1.965942e-002
    endloop
  endfacet
  facet normal  0.000000e+000 -9.999999e-001  0.000000e+000
    outer loop
      vertex  1.831928e-001 -3.828125e-001  2.377433e-002
      vertex -7.327824e-001 -3.828125e-001  1.965942e-002
      vertex  1.810027e-001 -3.828125e-001  1.655446e-002
    endloop
  endfacet
  facet normal  0.000000e+000 -9.999999e-001  -0.000000e+000
    outer loop
      vertex  1.810027e-001 -3.828125e-001  1.655446e-002
      vertex -7.327824e-001 -3.828125e-001  1.965942e-002
      vertex -7.341078e-001 -3.828125e-001  1.262510e-002
    endloop
  endfacet
  facet normal  0.000000e+000 -9.999999e-001  0.000000e+000
    outer loop
      vertex  1.802632e-001 -3.828125e-001  9.046053e-003
      vertex  1.810027e-001 -3.828125e-001  1.655446e-002
      vertex -7.341078e-001 -3.828125e-001  1.262510e-002
    endloop
  endfacet
  facet normal  0.000000e+000 -1.000000e+000  0.000000e+000
    outer loop
      vertex -7.341078e-001 -3.828125e-001  1.262510e-002
      vertex -7.341078e-001 -3.828125e-001  5.467002e-003
      vertex  1.802632e-001 -3.828125e-001  9.046053e-003
    endloop
  endfacet
  facet normal  0.000000e+000 -1.000000e+000  -0.000000e+000
    outer loop
      vertex  1.810027e-001 -3.828125e-001  1.537642e-003
      vertex  1.802632e-001 -3.828125e-001  9.046053e-003
      vertex -7.341078e-001 -3.828125e-001  5.467002e-003
    endloop
  endfacet
  facet normal  0.000000e+000 -1.000000e+000  0.000000e+000
    outer loop
      vertex -7.341078e-001 -3.828125e-001  5.467002e-003
      vertex -7.327824e-001 -3.828125e-001 -1.567312e-003
      vertex  1.810027e-001 -3.828125e-001  1.537642e-003
    endloop
  endfacet
  facet normal  0.000000e+000 -1.000000e+000  -0.000000e+000
    outer loop
      vertex  1.831928e-001 -3.828125e-001 -5.682224e-003
      vertex  1.810027e-001 -3.828125e-001  1.537642e-003
      vertex -7.327824e-001 -3.828125e-001 -1.567312e-003
    endloop
  endfacet
  facet normal  0.000000e+000 -1.000000e+000  0.000000e+000
    outer loop
      vertex -7.327824e-001 -3.828125e-001 -1.567312e-003
      vertex -7.301773e-001 -3.828125e-001 -8.234548e-003
      vertex  1.831928e-001 -3.828125e-001 -5.682224e-003
    endloop
  endfacet
  facet normal  0.000000e+000 -1.000000e+000  -0.000000e+000
    outer loop
      vertex  1.867494e-001 -3.828125e-001 -1.233609e-002
      vertex  1.831928e-001 -3.828125e-001 -5.682224e-003
      vertex -7.301773e-001 -3.828125e-001 -8.234548e-003
    endloop
  endfacet
  facet normal  0.000000e+000 -1.000000e+000  0.000000e+000
    outer loop
      vertex -7.301773e-001 -3.828125e-001 -8.234548e-003
      vertex -7.263827e-001 -3.828125e-001 -1.430411e-002
      vertex  1.867494e-001 -3.828125e-001 -1.233609e-002
    endloop
  endfacet
  facet normal  0.000000e+000 -1.000000e+000  -0.000000e+000
    outer loop
      vertex  1.915357e-001 -3.828125e-001 -1.816825e-002
      vertex  1.867494e-001 -3.828125e-001 -1.233609e-002
      vertex -7.263827e-001 -3.828125e-001 -1.430411e-002
    endloop
  endfacet
  facet normal  0.000000e+000 -9.999999e-001  0.000000e+000
    outer loop
      vertex -7.263827e-001 -3.828125e-001 -1.430411e-002
      vertex -7.215298e-001 -3.828125e-001 -1.956607e-002
      vertex  1.915357e-001 -3.828125e-001 -1.816825e-002
    endloop
  endfacet
  facet normal  0.000000e+000 -1.000000e+000  0.000000e+000
    outer loop
      vertex  1.915357e-001 -3.828125e-001 -1.816825e-002
      vertex -7.215298e-001 -3.828125e-001 -1.956607e-002
      vertex -7.157866e-001 -3.828125e-001 -2.383845e-002
    endloop
  endfacet
  facet normal  0.000000e+000 -1.000000e+000  0.000000e+000
    outer loop
      vertex  1.915357e-001 -3.828125e-001 -1.816825e-002
      vertex -7.157866e-001 -3.828125e-001 -2.383845e-002
      vertex  1.973679e-001 -3.828125e-001 -2.295459e-002
    endloop
  endfacet
  facet normal  0.000000e+000 -1.000000e+000  0.000000e+000
    outer loop
      vertex  1.973679e-001 -3.828125e-001 -2.295459e-002
      vertex -7.157866e-001 -3.828125e-001 -2.383845e-002
      vertex -7.093515e-001 -3.828125e-001 -2.697346e-002
    endloop
  endfacet
  facet normal  0.000000e+000 -1.000000e+000  0.000000e+000
    outer loop
      vertex  1.973679e-001 -3.828125e-001 -2.295459e-002
      vertex -7.093515e-001 -3.828125e-001 -2.697346e-002
      vertex  2.040217e-001 -3.828125e-001 -2.651115e-002
    endloop
  endfacet
  facet normal  0.000000e+000 -9.999999e-001  0.000000e+000
    outer loop
      vertex  2.040217e-001 -3.828125e-001 -2.651115e-002
      vertex -7.093515e-001 -3.828125e-001 -2.697346e-002
      vertex -7.024472e-001 -3.828125e-001 -2.886269e-002
    endloop
  endfacet
  facet normal -1.191708e-016  1.000000e+000 -1.212500e-015
    outer loop
      vertex  2.112416e-001  1.125460e-016  4.679338e-002
      vertex -7.093515e-001  7.432161e-019  4.506557e-002
      vertex -6.953125e-001  5.407886e-018  4.753289e-002
    endloop
  endfacet
  facet normal -6.988169e-016  1.000000e+000  2.085660e-015
    outer loop
      vertex -7.093515e-001  7.432161e-019  4.506557e-002
      vertex -7.024472e-001  1.627729e-018  4.695480e-002
      vertex -6.953125e-001  5.407886e-018  4.753289e-002
    endloop
  endfacet
  facet normal -1.340007e-016  1.000000e+000  4.760225e-015
    outer loop
      vertex -7.024472e-001 -3.107076e-018 -2.886269e-002
      vertex  2.040217e-001  1.071666e-016 -2.651115e-002
      vertex -6.953125e-001  6.008762e-019 -2.944079e-002
    endloop
  endfacet
  facet normal -1.182133e-016  1.000000e+000 -8.615771e-017
    outer loop
      vertex  2.040217e-001  1.071666e-016 -2.651115e-002
      vertex  2.112416e-001  1.078314e-016 -2.870128e-002
      vertex -6.953125e-001  6.008762e-019 -2.944079e-002
    endloop
  endfacet
  facet normal -1.213935e-016  1.000000e+000 -2.826224e-017
    outer loop
      vertex  2.040217e-001  1.116077e-016  4.460326e-002
      vertex -7.093515e-001  7.432161e-019  4.506557e-002
      vertex  2.112416e-001  1.125460e-016  4.679338e-002
    endloop
  endfacet
  facet normal -1.214000e-016  9.999999e-001 -4.114721e-017
    outer loop
      vertex -7.157866e-001 -1.670017e-019  4.193055e-002
      vertex -7.093515e-001  7.432161e-019  4.506557e-002
      vertex  2.040217e-001  1.116077e-016  4.460326e-002
    endloop
  endfacet
  facet normal -1.213945e-016  1.000000e+000 -4.304337e-017
    outer loop
      vertex  1.973679e-001  1.106468e-016  4.104669e-002
      vertex -7.157866e-001 -1.670017e-019  4.193055e-002
      vertex  2.040217e-001  1.116077e-016  4.460326e-002
    endloop
  endfacet
  facet normal -1.213998e-016  1.000000e+000 -4.850018e-017
    outer loop
      vertex -7.215298e-001 -1.071444e-018  3.765818e-002
      vertex -7.157866e-001 -1.670017e-019  4.193055e-002
      vertex  1.973679e-001  1.106468e-016  4.104669e-002
    endloop
  endfacet
  facet normal -1.213949e-016  1.000000e+000 -4.981033e-017
    outer loop
      vertex  1.915357e-001  1.097004e-016  3.626036e-002
      vertex -7.215298e-001 -1.071444e-018  3.765818e-002
      vertex  1.973679e-001  1.106468e-016  4.104669e-002
    endloop
  endfacet
  facet normal -1.213996e-016  1.000000e+000 -5.287865e-017
    outer loop
      vertex -7.263827e-001 -1.938828e-018  3.239622e-002
      vertex -7.215298e-001 -1.071444e-018  3.765818e-002
      vertex  1.915357e-001  1.097004e-016  3.626036e-002
    endloop
  endfacet
  facet normal -1.213952e-016  1.000000e+000 -5.393698e-017
    outer loop
      vertex  1.867494e-001  1.088048e-016  3.042820e-002
      vertex -7.263827e-001 -1.938828e-018  3.239622e-002
      vertex  1.915357e-001  1.097004e-016  3.626036e-002
    endloop
  endfacet
  facet normal -1.213995e-016  1.000000e+000 -5.596293e-017
    outer loop
      vertex -7.301773e-001 -2.739155e-018  2.632665e-002
      vertex -7.263827e-001 -1.938828e-018  3.239622e-002
      vertex  1.867494e-001  1.088048e-016  3.042820e-002
    endloop
  endfacet
  facet normal -1.213953e-016  1.000000e+000 -5.690680e-017
    outer loop
      vertex  1.831928e-001  1.079944e-016  2.377433e-002
      vertex -7.301773e-001 -2.739155e-018  2.632665e-002
      vertex  1.867494e-001  1.088048e-016  3.042820e-002
    endloop
  endfacet
  facet normal -1.213995e-016  1.000000e+000 -5.839515e-017
    outer loop
      vertex -7.327824e-001 -3.444745e-018  1.965942e-002
      vertex -7.301773e-001 -2.739155e-018  2.632665e-002
      vertex  1.831928e-001  1.079944e-016  2.377433e-002
    endloop
  endfacet
  facet normal -1.213954e-016  9.999999e-001 -5.930414e-017
    outer loop
      vertex  1.810027e-001  1.073004e-016  1.655446e-002
      vertex -7.327824e-001 -3.444745e-018  1.965942e-002
      vertex  1.831928e-001  1.079944e-016  2.377433e-002
    endloop
  endfacet
  facet normal -1.213994e-016  9.999999e-001 -6.049517e-017
    outer loop
      vertex -7.341078e-001 -4.031193e-018  1.262510e-002
      vertex -7.327824e-001 -3.444745e-018  1.965942e-002
      vertex  1.810027e-001  1.073004e-016  1.655446e-002
    endloop
  endfacet
  facet normal -1.213954e-016  9.999999e-001 -6.142815e-017
    outer loop
      vertex -7.341078e-001 -4.031193e-018  1.262510e-002
      vertex  1.810027e-001  1.073004e-016  1.655446e-002
      vertex  1.802632e-001  1.067494e-016  9.046053e-003
    endloop
  endfacet
  facet normal -1.213994e-016  1.000000e+000 -6.245005e-017
    outer loop
      vertex  1.802632e-001  1.067494e-016  9.046053e-003
      vertex -7.341078e-001 -4.478217e-018  5.467002e-003
      vertex -7.341078e-001 -4.031193e-018  1.262510e-002
    endloop
  endfacet
  facet normal -1.213954e-016  1.000000e+000 -6.347149e-017
    outer loop
      vertex -7.341078e-001 -4.478217e-018  5.467002e-003
      vertex  1.802632e-001  1.067494e-016  9.046053e-003
      vertex  1.810027e-001  1.063626e-016  1.537642e-003
    endloop
  endfacet
  facet normal -1.213994e-016  1.000000e+000 -6.440493e-017
    outer loop
      vertex  1.810027e-001  1.063626e-016  1.537642e-003
      vertex -7.327824e-001 -4.770355e-018 -1.567312e-003
      vertex -7.341078e-001 -4.478217e-018  5.467002e-003
    endloop
  endfacet
  facet normal -1.213954e-016  1.000000e+000 -6.559647e-017
    outer loop
      vertex -7.327824e-001 -4.770355e-018 -1.567312e-003
      vertex  1.810027e-001  1.063626e-016  1.537642e-003
      vertex  1.831928e-001  1.061549e-016 -5.682224e-003
    endloop
  endfacet
  facet normal -1.213995e-016  1.000000e+000 -6.650496e-017
    outer loop
      vertex  1.831928e-001  1.061549e-016 -5.682224e-003
      vertex -7.301773e-001 -4.897504e-018 -8.234548e-003
      vertex -7.327824e-001 -4.770355e-018 -1.567312e-003
    endloop
  endfacet
  facet normal -1.213953e-016  1.000000e+000 -6.799501e-017
    outer loop
      vertex -7.301773e-001 -4.897504e-018 -8.234548e-003
      vertex  1.831928e-001  1.061549e-016 -5.682224e-003
      vertex  1.867494e-001  1.061342e-016 -1.233609e-002
    endloop
  endfacet
  facet normal -1.213995e-016  1.000000e+000 -6.893709e-017
    outer loop
      vertex  1.867494e-001  1.061342e-016 -1.233609e-002
      vertex -7.263827e-001 -4.855265e-018 -1.430411e-002
      vertex -7.301773e-001 -4.897504e-018 -8.234548e-003
    endloop
  endfacet
  facet normal -1.213952e-016  1.000000e+000 -7.096320e-017
    outer loop
      vertex -7.263827e-001 -4.855265e-018 -1.430411e-002
      vertex  1.867494e-001  1.061342e-016 -1.233609e-002
      vertex  1.915357e-001  1.063014e-016 -1.816825e-002
    endloop
  endfacet
  facet normal -1.213996e-016  9.999999e-001 -7.202146e-017
    outer loop
      vertex  1.915357e-001  1.063014e-016 -1.816825e-002
      vertex -7.215298e-001 -4.645101e-018 -1.956607e-002
      vertex -7.263827e-001 -4.855265e-018 -1.430411e-002
    endloop
  endfacet
  facet normal -1.213929e-016  1.000000e+000 -7.639072e-017
    outer loop
      vertex -7.157866e-001 -4.274278e-018 -2.383845e-002
      vertex -7.215298e-001 -4.645101e-018 -1.956607e-002
      vertex  1.915357e-001  1.063014e-016 -1.816825e-002
    endloop
  endfacet
  facet normal -1.214010e-016  1.000000e+000 -7.509578e-017
    outer loop
      vertex  1.973679e-001  1.066500e-016 -2.295459e-002
      vertex -7.157866e-001 -4.274278e-018 -2.383845e-002
      vertex  1.915357e-001  1.063014e-016 -1.816825e-002
    endloop
  endfacet
  facet normal -1.213926e-016  1.000000e+000 -8.373778e-017
    outer loop
      vertex -7.093515e-001 -3.755624e-018 -2.697346e-002
      vertex -7.157866e-001 -4.274278e-018 -2.383845e-002
      vertex  1.973679e-001  1.066500e-016 -2.295459e-002
    endloop
  endfacet
  facet normal -1.214009e-016  1.000000e+000 -8.186728e-017
    outer loop
      vertex  2.040217e-001  1.071666e-016 -2.651115e-002
      vertex -7.093515e-001 -3.755624e-018 -2.697346e-002
      vertex  1.973679e-001  1.066500e-016 -2.295459e-002
    endloop
  endfacet
  facet normal -1.213916e-016  9.999999e-001 -1.003423e-016
    outer loop
      vertex -7.024472e-001 -3.107076e-018 -2.886269e-002
      vertex -7.093515e-001 -3.755624e-018 -2.697346e-002
      vertex  2.040217e-001  1.071666e-016 -2.651115e-002
    endloop
  endfacet
  facet normal -8.076143e-002  0.000000e+000 -9.967334e-001
    outer loop
      vertex -6.953125e-001  6.008762e-019 -2.944079e-002
      vertex -6.953125e-001 -3.828125e-001 -2.944079e-002
      vertex -7.024472e-001 -3.107076e-018 -2.886269e-002
    endloop
  endfacet
  facet normal -8.076143e-002  -0.000000e+000 -9.967334e-001
    outer loop
      vertex -7.024472e-001 -3.107076e-018 -2.886269e-002
      vertex -6.953125e-001 -3.828125e-001 -2.944079e-002
      vertex -7.024472e-001 -3.828125e-001 -2.886269e-002
    endloop
  endfacet
  facet normal -2.639304e-001  0.000000e+000 -9.645417e-001
    outer loop
      vertex -7.024472e-001 -3.107076e-018 -2.886269e-002
      vertex -7.024472e-001 -3.828125e-001 -2.886269e-002
      vertex -7.093515e-001 -3.755624e-018 -2.697346e-002
    endloop
  endfacet
  facet normal -2.639304e-001  -0.000000e+000 -9.645417e-001
    outer loop
      vertex -7.093515e-001 -3.755624e-018 -2.697346e-002
      vertex -7.024472e-001 -3.828125e-001 -2.886269e-002
      vertex -7.093515e-001 -3.828125e-001 -2.697346e-002
    endloop
  endfacet
  facet normal -4.379657e-001  0.000000e+000 -8.989916e-001
    outer loop
      vertex -7.093515e-001 -3.755624e-018 -2.697346e-002
      vertex -7.093515e-001 -3.828125e-001 -2.697346e-002
      vertex -7.157866e-001 -4.274278e-018 -2.383845e-002
    endloop
  endfacet
  facet normal -4.379657e-001  -0.000000e+000 -8.989916e-001
    outer loop
      vertex -7.157866e-001 -4.274278e-018 -2.383845e-002
      vertex -7.093515e-001 -3.828125e-001 -2.697346e-002
      vertex -7.157866e-001 -3.828125e-001 -2.383845e-002
    endloop
  endfacet
  facet normal -5.968591e-001  0.000000e+000 -8.023460e-001
    outer loop
      vertex -7.157866e-001 -4.274278e-018 -2.383845e-002
      vertex -7.157866e-001 -3.828125e-001 -2.383845e-002
      vertex -7.215298e-001 -4.645101e-018 -1.956607e-002
    endloop
  endfacet
  facet normal -5.968591e-001  -0.000000e+000 -8.023460e-001
    outer loop
      vertex -7.215298e-001 -4.645101e-018 -1.956607e-002
      vertex -7.157866e-001 -3.828125e-001 -2.383845e-002
      vertex -7.215298e-001 -3.828125e-001 -1.956607e-002
    endloop
  endfacet
  facet normal -7.351032e-001  0.000000e+000 -6.779552e-001
    outer loop
      vertex -7.215298e-001 -4.645101e-018 -1.956607e-002
      vertex -7.215298e-001 -3.828125e-001 -1.956607e-002
      vertex -7.263827e-001 -4.855265e-018 -1.430411e-002
    endloop
  endfacet
  facet normal -7.351032e-001  -0.000000e+000 -6.779552e-001
    outer loop
      vertex -7.263827e-001 -4.855265e-018 -1.430411e-002
      vertex -7.215298e-001 -3.828125e-001 -1.956607e-002
      vertex -7.263827e-001 -3.828125e-001 -1.430411e-002
    endloop
  endfacet
  facet normal -8.479308e-001  0.000000e+000 -5.301069e-001
    outer loop
      vertex -7.263827e-001 -4.855265e-018 -1.430411e-002
      vertex -7.263827e-001 -3.828125e-001 -1.430411e-002
      vertex -7.301773e-001 -4.897504e-018 -8.234548e-003
    endloop
  endfacet
  facet normal -8.479308e-001  -0.000000e+000 -5.301069e-001
    outer loop
      vertex -7.301773e-001 -4.897504e-018 -8.234548e-003
      vertex -7.263827e-001 -3.828125e-001 -1.430411e-002
      vertex -7.301773e-001 -3.828125e-001 -8.234548e-003
    endloop
  endfacet
  facet normal -9.314246e-001  0.000000e+000 -3.639343e-001
    outer loop
      vertex -7.301773e-001 -4.897504e-018 -8.234548e-003
      vertex -7.301773e-001 -3.828125e-001 -8.234548e-003
      vertex -7.327824e-001 -4.770355e-018 -1.567312e-003
    endloop
  endfacet
  facet normal -9.314246e-001  -0.000000e+000 -3.639343e-001
    outer loop
      vertex -7.327824e-001 -4.770355e-018 -1.567312e-003
      vertex -7.301773e-001 -3.828125e-001 -8.234548e-003
      vertex -7.327824e-001 -3.828125e-001 -1.567312e-003
    endloop
  endfacet
  facet normal -9.827074e-001  0.000000e+000 -1.851649e-001
    outer loop
      vertex -7.327824e-001 -4.770355e-018 -1.567312e-003
      vertex -7.327824e-001 -3.828125e-001 -1.567312e-003
      vertex -7.341078e-001 -4.478217e-018  5.467002e-003
    endloop
  endfacet
  facet normal -9.827074e-001  -0.000000e+000 -1.851649e-001
    outer loop
      vertex -7.341078e-001 -4.478217e-018  5.467002e-003
      vertex -7.327824e-001 -3.828125e-001 -1.567312e-003
      vertex -7.341078e-001 -3.828125e-001  5.467002e-003
    endloop
  endfacet
  facet normal -1.000000e+000  0.000000e+000  0.000000e+000
    outer loop
      vertex -7.341078e-001 -4.478217e-018  5.467002e-003
      vertex -7.341078e-001 -3.828125e-001  5.467002e-003
      vertex -7.341078e-001 -4.031193e-018  1.262510e-002
    endloop
  endfacet
  facet normal -1.000000e+000  -0.000000e+000  0.000000e+000
    outer loop
      vertex -7.341078e-001 -4.031193e-018  1.262510e-002
      vertex -7.341078e-001 -3.828125e-001  5.467002e-003
      vertex -7.341078e-001 -3.828125e-001  1.262510e-002
    endloop
  endfacet
  facet normal -9.827074e-001  0.000000e+000  1.851650e-001
    outer loop
      vertex -7.341078e-001 -4.031193e-018  1.262510e-002
      vertex -7.341078e-001 -3.828125e-001  1.262510e-002
      vertex -7.327824e-001 -3.444745e-018  1.965942e-002
    endloop
  endfacet
  facet normal -9.827074e-001  0.000000e+000  1.851650e-001
    outer loop
      vertex -7.327824e-001 -3.444745e-018  1.965942e-002
      vertex -7.341078e-001 -3.828125e-001  1.262510e-002
      vertex -7.327824e-001 -3.828125e-001  1.965942e-002
    endloop
  endfacet
  facet normal -9.314246e-001  0.000000e+000  3.639344e-001
    outer loop
      vertex -7.327824e-001 -3.444745e-018  1.965942e-002
      vertex -7.327824e-001 -3.828125e-001  1.965942e-002
      vertex -7.301773e-001 -2.739155e-018  2.632665e-002
    endloop
  endfacet
  facet normal -9.314246e-001  0.000000e+000  3.639344e-001
    outer loop
      vertex -7.301773e-001 -2.739155e-018  2.632665e-002
      vertex -7.327824e-001 -3.828125e-001  1.965942e-002
      vertex -7.301773e-001 -3.828125e-001  2.632665e-002
    endloop
  endfacet
  facet normal -8.479309e-001  0.000000e+000  5.301068e-001
    outer loop
      vertex -7.301773e-001 -2.739155e-018  2.632665e-002
      vertex -7.301773e-001 -3.828125e-001  2.632665e-002
      vertex -7.263827e-001 -1.938828e-018  3.239622e-002
    endloop
  endfacet
  facet normal -8.479309e-001  0.000000e+000  5.301068e-001
    outer loop
      vertex -7.263827e-001 -1.938828e-018  3.239622e-002
      vertex -7.301773e-001 -3.828125e-001  2.632665e-002
      vertex -7.263827e-001 -3.828125e-001  3.239622e-002
    endloop
  endfacet
  facet normal -7.351031e-001  0.000000e+000  6.779554e-001
    outer loop
      vertex -7.263827e-001 -1.938828e-018  3.239622e-002
      vertex -7.263827e-001 -3.828125e-001  3.239622e-002
      vertex -7.215298e-001 -1.071444e-018  3.765818e-002
    endloop
  endfacet
  facet normal -7.351031e-001  0.000000e+000  6.779554e-001
    outer loop
      vertex -7.215298e-001 -1.071444e-018  3.765818e-002
      vertex -7.263827e-001 -3.828125e-001  3.239622e-002
      vertex -7.215298e-001 -3.828125e-001  3.765818e-002
    endloop
  endfacet
  facet normal -5.968591e-001  0.000000e+000  8.023460e-001
    outer loop
      vertex -7.215298e-001 -1.071444e-018  3.765818e-002
      vertex -7.215298e-001 -3.828125e-001  3.765818e-002
      vertex -7.157866e-001 -1.670017e-019  4.193055e-002
    endloop
  endfacet
  facet normal -5.968591e-001  0.000000e+000  8.023460e-001
    outer loop
      vertex -7.157866e-001 -1.670017e-019  4.193055e-002
      vertex -7.215298e-001 -3.828125e-001  3.765818e-002
      vertex -7.157866e-001 -3.828125e-001  4.193055e-002
    endloop
  endfacet
  facet normal -4.379662e-001  0.000000e+000  8.989914e-001
    outer loop
      vertex -7.157866e-001 -1.670017e-019  4.193055e-002
      vertex -7.157866e-001 -3.828125e-001  4.193055e-002
      vertex -7.093515e-001  7.432161e-019  4.506557e-002
    endloop
  endfacet
  facet normal -4.379662e-001  0.000000e+000  8.989914e-001
    outer loop
      vertex -7.093515e-001  7.432161e-019  4.506557e-002
      vertex -7.157866e-001 -3.828125e-001  4.193055e-002
      vertex -7.093515e-001 -3.828125e-001  4.506557e-002
    endloop
  endfacet
  facet normal -2.639304e-001  0.000000e+000  9.645417e-001
    outer loop
      vertex -7.093515e-001  7.432161e-019  4.506557e-002
      vertex -7.093515e-001 -3.828125e-001  4.506557e-002
      vertex -7.024472e-001  1.627729e-018  4.695480e-002
    endloop
  endfacet
  facet normal -2.639304e-001  0.000000e+000  9.645417e-001
    outer loop
      vertex -7.024472e-001  1.627729e-018  4.695480e-002
      vertex -7.093515e-001 -3.828125e-001  4.506557e-002
      vertex -7.024472e-001 -3.828125e-001  4.695480e-002
    endloop
  endfacet
  facet normal -8.076117e-002  0.000000e+000  9.967334e-001
    outer loop
      vertex -7.024472e-001  1.627729e-018  4.695480e-002
      vertex -7.024472e-001 -3.828125e-001  4.695480e-002
      vertex -6.953125e-001  5.407886e-018  4.753289e-002
    endloop
  endfacet
  facet normal -8.076117e-002  0.000000e+000  9.967334e-001
    outer loop
      vertex -6.953125e-001  5.407886e-018  4.753289e-002
      vertex -7.024472e-001 -3.828125e-001  4.695480e-002
      vertex -6.953125e-001 -3.828125e-001  4.753289e-002
    endloop
  endfacet
  facet normal -9.801676e-002  0.000000e+000  9.951848e-001
    outer loop
      vertex  2.112416e-001  1.125460e-016  4.679338e-002
      vertex  2.112416e-001 -3.828125e-001  4.679338e-002
      vertex  2.187500e-001 -3.828125e-001  4.753289e-002
    endloop
  endfacet
  facet normal -9.801676e-002  0.000000e+000  9.951848e-001
    outer loop
      vertex  2.112416e-001  1.125460e-016  4.679338e-002
      vertex  2.187500e-001 -3.828125e-001  4.753289e-002
      vertex  2.187500e-001  1.134258e-016  4.753289e-002
    endloop
  endfacet
  facet normal  8.157383e-004  0.000000e+000  9.999996e-001
    outer loop
      vertex  2.112416e-001 -3.828125e-001  4.679338e-002
      vertex  2.112416e-001  1.125460e-016  4.679338e-002
      vertex -6.953125e-001 -3.828125e-001  4.753289e-002
    endloop
  endfacet
  facet normal  8.157383e-004  0.000000e+000  9.999996e-001
    outer loop
      vertex -6.953125e-001 -3.828125e-001  4.753289e-002
      vertex  2.112416e-001  1.125460e-016  4.679338e-002
      vertex -6.953125e-001  5.407886e-018  4.753289e-002
    endloop
  endfacet
  facet normal  8.157404e-004  0.000000e+000 -9.999996e-001
    outer loop
      vertex  2.112416e-001  1.078314e-016 -2.870128e-002
      vertex  2.112416e-001 -3.828125e-001 -2.870128e-002
      vertex -6.953125e-001 -3.828125e-001 -2.944079e-002
    endloop
  endfacet
  facet normal  8.157404e-004  0.000000e+000 -9.999996e-001
    outer loop
      vertex  2.112416e-001  1.078314e-016 -2.870128e-002
      vertex -6.953125e-001 -3.828125e-001 -2.944079e-002
      vertex -6.953125e-001  6.008762e-019 -2.944079e-002
    endloop
  endfacet
  facet normal -9.801701e-002  -0.000000e+000 -9.951848e-001
    outer loop
      vertex  2.112416e-001 -3.828125e-001 -2.870128e-002
      vertex  2.112416e-001  1.078314e-016 -2.870128e-002
      vertex  2.187500e-001 -3.828125e-001 -2.944079e-002
    endloop
  endfacet
  facet normal -9.801701e-002  0.000000e+000 -9.951848e-001
    outer loop
      vertex  2.187500e-001 -3.828125e-001 -2.944079e-002
      vertex  2.112416e-001  1.078314e-016 -2.870128e-002
      vertex  2.187500e-001  1.020822e-016 -2.944079e-002
    endloop
  endfacet
endsolid CATIA STL
