solid CATIA STL
  facet normal  0.000000e+000  0.000000e+000  1.000000e+000
    outer loop
      vertex -7.421875e-001 -3.125000e-002  7.812500e-002
      vertex  7.421875e-001 -3.125000e-002  7.812500e-002
      vertex -7.421875e-001  3.207237e-002  7.812500e-002
    endloop
  endfacet
  facet normal  -0.000000e+000  0.000000e+000  1.000000e+000
    outer loop
      vertex -7.421875e-001  3.207237e-002  7.812500e-002
      vertex  7.421875e-001 -3.125000e-002  7.812500e-002
      vertex  7.421875e-001  3.207237e-002  7.812500e-002
    endloop
  endfacet
  facet normal -1.000000e+000  0.000000e+000  0.000000e+000
    outer loop
      vertex -7.500000e-001  3.988487e-002  0.000000e+000
      vertex -7.500000e-001 -3.906250e-002  0.000000e+000
      vertex -7.500000e-001  3.988487e-002  7.031250e-002
    endloop
  endfacet
  facet normal -1.000000e+000  -0.000000e+000  0.000000e+000
    outer loop
      vertex -7.500000e-001  3.988487e-002  7.031250e-002
      vertex -7.500000e-001 -3.906250e-002  0.000000e+000
      vertex -7.500000e-001 -3.906250e-002  7.031250e-002
    endloop
  endfacet
  facet normal  0.000000e+000  1.000000e+000  -0.000000e+000
    outer loop
      vertex  7.500000e-001  3.988487e-002  7.031250e-002
      vertex  7.500000e-001  3.988487e-002  0.000000e+000
      vertex -7.500000e-001  3.988487e-002  7.031250e-002
    endloop
  endfacet
  facet normal  0.000000e+000  1.000000e+000  0.000000e+000
    outer loop
      vertex -7.500000e-001  3.988487e-002  7.031250e-002
      vertex  7.500000e-001  3.988487e-002  0.000000e+000
      vertex -7.500000e-001  3.988487e-002  0.000000e+000
    endloop
  endfacet
  facet normal  1.000000e+000  0.000000e+000  0.000000e+000
    outer loop
      vertex  7.500000e-001 -3.906250e-002  0.000000e+000
      vertex  7.500000e-001  3.988487e-002  0.000000e+000
      vertex  7.500000e-001 -3.906250e-002  7.031250e-002
    endloop
  endfacet
  facet normal  1.000000e+000  -0.000000e+000  0.000000e+000
    outer loop
      vertex  7.500000e-001 -3.906250e-002  7.031250e-002
      vertex  7.500000e-001  3.988487e-002  0.000000e+000
      vertex  7.500000e-001  3.988487e-002  7.031250e-002
    endloop
  endfacet
  facet normal  0.000000e+000 -1.000000e+000  0.000000e+000
    outer loop
      vertex -7.500000e-001 -3.906250e-002  7.031250e-002
      vertex -7.500000e-001 -3.906250e-002  0.000000e+000
      vertex  7.500000e-001 -3.906250e-002  7.031250e-002
    endloop
  endfacet
  facet normal  0.000000e+000 -1.000000e+000  -0.000000e+000
    outer loop
      vertex  7.500000e-001 -3.906250e-002  7.031250e-002
      vertex -7.500000e-001 -3.906250e-002  0.000000e+000
      vertex  7.500000e-001 -3.906250e-002  0.000000e+000
    endloop
  endfacet
  facet normal  0.000000e+000  8.007184e-002  9.967891e-001
    outer loop
      vertex -7.421875e-001  3.207237e-002  7.812500e-002
      vertex  7.434346e-001  3.331948e-002  7.802482e-002
      vertex -7.434346e-001  3.331948e-002  7.802482e-002
    endloop
  endfacet
  facet normal  0.000000e+000  8.007184e-002  9.967890e-001
    outer loop
      vertex -7.421875e-001  3.207237e-002  7.812500e-002
      vertex  7.421875e-001  3.207237e-002  7.812500e-002
      vertex  7.434346e-001  3.331948e-002  7.802482e-002
    endloop
  endfacet
  facet normal  -0.000000e+000  9.017044e-001  4.323531e-001
    outer loop
      vertex  7.496848e-001  3.956971e-002  7.250910e-002
      vertex -7.485946e-001  3.847946e-002  7.478289e-002
      vertex  7.485946e-001  3.847946e-002  7.478289e-002
    endloop
  endfacet
  facet normal  0.000000e+000  7.711536e-001  6.366492e-001
    outer loop
      vertex -7.485946e-001  3.847946e-002  7.478289e-002
      vertex -7.477903e-001  3.767512e-002  7.575716e-002
      vertex  7.485946e-001  3.847946e-002  7.478289e-002
    endloop
  endfacet
  facet normal  -0.000000e+000  7.711535e-001  6.366491e-001
    outer loop
      vertex  7.485946e-001  3.847946e-002  7.478289e-002
      vertex -7.477903e-001  3.767512e-002  7.575716e-002
      vertex  7.477903e-001  3.767512e-002  7.575716e-002
    endloop
  endfacet
  facet normal  0.000000e+000  6.587042e-001  7.524020e-001
    outer loop
      vertex -7.477903e-001  3.767512e-002  7.575716e-002
      vertex -7.468436e-001  3.672845e-002  7.658594e-002
      vertex  7.477903e-001  3.767512e-002  7.575716e-002
    endloop
  endfacet
  facet normal  -0.000000e+000  6.587041e-001  7.524020e-001
    outer loop
      vertex  7.477903e-001  3.767512e-002  7.575716e-002
      vertex -7.468436e-001  3.672845e-002  7.658594e-002
      vertex  7.468436e-001  3.672845e-002  7.658594e-002
    endloop
  endfacet
  facet normal  0.000000e+000  5.297490e-001  8.481545e-001
    outer loop
      vertex -7.468436e-001  3.672845e-002  7.658594e-002
      vertex -7.457821e-001  3.566702e-002  7.724890e-002
      vertex  7.468436e-001  3.672845e-002  7.658594e-002
    endloop
  endfacet
  facet normal  -0.000000e+000  5.297490e-001  8.481545e-001
    outer loop
      vertex  7.468436e-001  3.672845e-002  7.658594e-002
      vertex -7.457821e-001  3.566702e-002  7.724890e-002
      vertex  7.457821e-001  3.566702e-002  7.724890e-002
    endloop
  endfacet
  facet normal  0.000000e+000  3.871111e-001  9.220331e-001
    outer loop
      vertex -7.457821e-001  3.566702e-002  7.724890e-002
      vertex -7.446281e-001  3.450669e-002  7.773606e-002
      vertex  7.457821e-001  3.566702e-002  7.724890e-002
    endloop
  endfacet
  facet normal -1.626491e-006  3.888865e-001  9.212857e-001
    outer loop
      vertex  7.457821e-001  3.566702e-002  7.724890e-002
      vertex -7.446281e-001  3.450669e-002  7.773606e-002
      vertex  7.446218e-001  3.451292e-002  7.773606e-002
    endloop
  endfacet
  facet normal -9.884608e-007  2.363364e-001  9.716713e-001
    outer loop
      vertex -7.446281e-001  3.450669e-002  7.773606e-002
      vertex -7.434346e-001  3.331948e-002  7.802482e-002
      vertex  7.446218e-001  3.451292e-002  7.773606e-002
    endloop
  endfacet
  facet normal  -0.000000e+000  2.351723e-001  9.719537e-001
    outer loop
      vertex  7.446218e-001  3.451292e-002  7.773606e-002
      vertex -7.434346e-001  3.331948e-002  7.802482e-002
      vertex  7.434346e-001  3.331948e-002  7.802482e-002
    endloop
  endfacet
  facet normal  -0.000000e+000  9.898634e-001  1.420232e-001
    outer loop
      vertex  7.500000e-001  3.988487e-002  7.031250e-002
      vertex -7.500000e-001  3.988487e-002  7.031250e-002
      vertex  7.496848e-001  3.956971e-002  7.250910e-002
    endloop
  endfacet
  facet normal  0.000000e+000  9.898633e-001  1.420232e-001
    outer loop
      vertex  7.496848e-001  3.956971e-002  7.250910e-002
      vertex -7.500000e-001  3.988487e-002  7.031250e-002
      vertex -7.496848e-001  3.956971e-002  7.250910e-002
    endloop
  endfacet
  facet normal  -0.000000e+000  9.017044e-001  4.323531e-001
    outer loop
      vertex  7.496848e-001  3.956971e-002  7.250910e-002
      vertex -7.496848e-001  3.956971e-002  7.250910e-002
      vertex -7.485946e-001  3.847946e-002  7.478289e-002
    endloop
  endfacet
  facet normal  8.007232e-002  -0.000000e+000  9.967891e-001
    outer loop
      vertex  7.421875e-001  3.207237e-002  7.812500e-002
      vertex  7.434346e-001 -3.249712e-002  7.802482e-002
      vertex  7.434346e-001  3.331948e-002  7.802482e-002
    endloop
  endfacet
  facet normal  8.007232e-002  -0.000000e+000  9.967890e-001
    outer loop
      vertex  7.421875e-001  3.207237e-002  7.812500e-002
      vertex  7.421875e-001 -3.125000e-002  7.812500e-002
      vertex  7.434346e-001 -3.249712e-002  7.802482e-002
    endloop
  endfacet
  facet normal  9.017066e-001  0.000000e+000  4.323483e-001
    outer loop
      vertex  7.496848e-001 -3.874734e-002  7.250910e-002
      vertex  7.485946e-001  3.847946e-002  7.478289e-002
      vertex  7.485946e-001 -3.765709e-002  7.478289e-002
    endloop
  endfacet
  facet normal  7.711681e-001  0.000000e+000  6.366317e-001
    outer loop
      vertex  7.485946e-001  3.847946e-002  7.478289e-002
      vertex  7.477903e-001  3.767512e-002  7.575716e-002
      vertex  7.485946e-001 -3.765709e-002  7.478289e-002
    endloop
  endfacet
  facet normal  7.711681e-001  0.000000e+000  6.366316e-001
    outer loop
      vertex  7.485946e-001 -3.765709e-002  7.478289e-002
      vertex  7.477903e-001  3.767512e-002  7.575716e-002
      vertex  7.477903e-001 -3.685275e-002  7.575716e-002
    endloop
  endfacet
  facet normal  6.586924e-001  0.000000e+000  7.524123e-001
    outer loop
      vertex  7.477903e-001  3.767512e-002  7.575716e-002
      vertex  7.468436e-001  3.672845e-002  7.658594e-002
      vertex  7.477903e-001 -3.685275e-002  7.575716e-002
    endloop
  endfacet
  facet normal  6.586924e-001  0.000000e+000  7.524123e-001
    outer loop
      vertex  7.477903e-001 -3.685275e-002  7.575716e-002
      vertex  7.468436e-001  3.672845e-002  7.658594e-002
      vertex  7.468436e-001 -3.590608e-002  7.658594e-002
    endloop
  endfacet
  facet normal  5.297464e-001  0.000000e+000  8.481562e-001
    outer loop
      vertex  7.468436e-001  3.672845e-002  7.658594e-002
      vertex  7.457821e-001  3.566702e-002  7.724890e-002
      vertex  7.468436e-001 -3.590608e-002  7.658594e-002
    endloop
  endfacet
  facet normal  5.297464e-001  0.000000e+000  8.481562e-001
    outer loop
      vertex  7.468436e-001 -3.590608e-002  7.658594e-002
      vertex  7.457821e-001  3.566702e-002  7.724890e-002
      vertex  7.457821e-001 -3.484465e-002  7.724890e-002
    endloop
  endfacet
  facet normal  3.871111e-001  0.000000e+000  9.220331e-001
    outer loop
      vertex  7.457821e-001  3.566702e-002  7.724890e-002
      vertex  7.446218e-001  3.451292e-002  7.773606e-002
      vertex  7.457821e-001 -3.484465e-002  7.724890e-002
    endloop
  endfacet
  facet normal  3.889241e-001  3.569171e-005  9.212698e-001
    outer loop
      vertex  7.457821e-001 -3.484465e-002  7.724890e-002
      vertex  7.446218e-001  3.451292e-002  7.773606e-002
      vertex  7.446281e-001 -3.368432e-002  7.773606e-002
    endloop
  endfacet
  facet normal  2.363175e-001  2.168694e-005  9.716759e-001
    outer loop
      vertex  7.446218e-001  3.451292e-002  7.773606e-002
      vertex  7.434346e-001  3.331948e-002  7.802482e-002
      vertex  7.446281e-001 -3.368432e-002  7.773606e-002
    endloop
  endfacet
  facet normal  2.351674e-001  0.000000e+000  9.719549e-001
    outer loop
      vertex  7.446281e-001 -3.368432e-002  7.773606e-002
      vertex  7.434346e-001  3.331948e-002  7.802482e-002
      vertex  7.434346e-001 -3.249712e-002  7.802482e-002
    endloop
  endfacet
  facet normal  9.898616e-001  0.000000e+000  1.420347e-001
    outer loop
      vertex  7.500000e-001 -3.906250e-002  7.031250e-002
      vertex  7.500000e-001  3.988487e-002  7.031250e-002
      vertex  7.496848e-001 -3.874734e-002  7.250910e-002
    endloop
  endfacet
  facet normal  9.898616e-001  -0.000000e+000  1.420347e-001
    outer loop
      vertex  7.496848e-001 -3.874734e-002  7.250910e-002
      vertex  7.500000e-001  3.988487e-002  7.031250e-002
      vertex  7.496848e-001  3.956971e-002  7.250910e-002
    endloop
  endfacet
  facet normal  9.017067e-001  0.000000e+000  4.323483e-001
    outer loop
      vertex  7.496848e-001 -3.874734e-002  7.250910e-002
      vertex  7.496848e-001  3.956971e-002  7.250910e-002
      vertex  7.485946e-001  3.847946e-002  7.478289e-002
    endloop
  endfacet
  facet normal  0.000000e+000 -8.007184e-002  9.967891e-001
    outer loop
      vertex  7.421875e-001 -3.125000e-002  7.812500e-002
      vertex -7.434346e-001 -3.249712e-002  7.802482e-002
      vertex  7.434346e-001 -3.249712e-002  7.802482e-002
    endloop
  endfacet
  facet normal  0.000000e+000 -8.007184e-002  9.967890e-001
    outer loop
      vertex  7.421875e-001 -3.125000e-002  7.812500e-002
      vertex -7.421875e-001 -3.125000e-002  7.812500e-002
      vertex -7.434346e-001 -3.249712e-002  7.802482e-002
    endloop
  endfacet
  facet normal  0.000000e+000 -9.017038e-001  4.323544e-001
    outer loop
      vertex -7.496848e-001 -3.874734e-002  7.250910e-002
      vertex  7.485946e-001 -3.765709e-002  7.478289e-002
      vertex -7.485946e-001 -3.765709e-002  7.478289e-002
    endloop
  endfacet
  facet normal  0.000000e+000 -7.711536e-001  6.366492e-001
    outer loop
      vertex  7.485946e-001 -3.765709e-002  7.478289e-002
      vertex  7.477903e-001 -3.685275e-002  7.575716e-002
      vertex -7.485946e-001 -3.765709e-002  7.478289e-002
    endloop
  endfacet
  facet normal  0.000000e+000 -7.711535e-001  6.366491e-001
    outer loop
      vertex -7.485946e-001 -3.765709e-002  7.478289e-002
      vertex  7.477903e-001 -3.685275e-002  7.575716e-002
      vertex -7.477903e-001 -3.685275e-002  7.575716e-002
    endloop
  endfacet
  facet normal  0.000000e+000 -6.587042e-001  7.524020e-001
    outer loop
      vertex  7.477903e-001 -3.685275e-002  7.575716e-002
      vertex  7.468436e-001 -3.590608e-002  7.658594e-002
      vertex -7.477903e-001 -3.685275e-002  7.575716e-002
    endloop
  endfacet
  facet normal  0.000000e+000 -6.587041e-001  7.524020e-001
    outer loop
      vertex -7.477903e-001 -3.685275e-002  7.575716e-002
      vertex  7.468436e-001 -3.590608e-002  7.658594e-002
      vertex -7.468436e-001 -3.590608e-002  7.658594e-002
    endloop
  endfacet
  facet normal  0.000000e+000 -5.297490e-001  8.481545e-001
    outer loop
      vertex  7.468436e-001 -3.590608e-002  7.658594e-002
      vertex  7.457821e-001 -3.484465e-002  7.724890e-002
      vertex -7.468436e-001 -3.590608e-002  7.658594e-002
    endloop
  endfacet
  facet normal  0.000000e+000 -5.297490e-001  8.481545e-001
    outer loop
      vertex -7.468436e-001 -3.590608e-002  7.658594e-002
      vertex  7.457821e-001 -3.484465e-002  7.724890e-002
      vertex -7.457821e-001 -3.484465e-002  7.724890e-002
    endloop
  endfacet
  facet normal  0.000000e+000 -3.871111e-001  9.220331e-001
    outer loop
      vertex  7.457821e-001 -3.484465e-002  7.724890e-002
      vertex  7.446281e-001 -3.368432e-002  7.773606e-002
      vertex -7.457821e-001 -3.484465e-002  7.724890e-002
    endloop
  endfacet
  facet normal  1.626491e-006 -3.888865e-001  9.212857e-001
    outer loop
      vertex -7.457821e-001 -3.484465e-002  7.724890e-002
      vertex  7.446281e-001 -3.368432e-002  7.773606e-002
      vertex -7.446218e-001 -3.369055e-002  7.773606e-002
    endloop
  endfacet
  facet normal  9.884608e-007 -2.363364e-001  9.716713e-001
    outer loop
      vertex  7.446281e-001 -3.368432e-002  7.773606e-002
      vertex  7.434346e-001 -3.249712e-002  7.802482e-002
      vertex -7.446218e-001 -3.369055e-002  7.773606e-002
    endloop
  endfacet
  facet normal  0.000000e+000 -2.351723e-001  9.719537e-001
    outer loop
      vertex -7.446218e-001 -3.369055e-002  7.773606e-002
      vertex  7.434346e-001 -3.249712e-002  7.802482e-002
      vertex -7.434346e-001 -3.249712e-002  7.802482e-002
    endloop
  endfacet
  facet normal  0.000000e+000 -9.898636e-001  1.420216e-001
    outer loop
      vertex -7.500000e-001 -3.906250e-002  7.031250e-002
      vertex  7.500000e-001 -3.906250e-002  7.031250e-002
      vertex -7.496848e-001 -3.874734e-002  7.250910e-002
    endloop
  endfacet
  facet normal  0.000000e+000 -9.898635e-001  1.420216e-001
    outer loop
      vertex -7.496848e-001 -3.874734e-002  7.250910e-002
      vertex  7.500000e-001 -3.906250e-002  7.031250e-002
      vertex  7.496848e-001 -3.874734e-002  7.250910e-002
    endloop
  endfacet
  facet normal  0.000000e+000 -9.017038e-001  4.323543e-001
    outer loop
      vertex -7.496848e-001 -3.874734e-002  7.250910e-002
      vertex  7.496848e-001 -3.874734e-002  7.250910e-002
      vertex  7.485946e-001 -3.765709e-002  7.478289e-002
    endloop
  endfacet
  facet normal -8.007232e-002  0.000000e+000  9.967891e-001
    outer loop
      vertex -7.421875e-001 -3.125000e-002  7.812500e-002
      vertex -7.434346e-001  3.331948e-002  7.802482e-002
      vertex -7.434346e-001 -3.249712e-002  7.802482e-002
    endloop
  endfacet
  facet normal -8.007232e-002  0.000000e+000  9.967890e-001
    outer loop
      vertex -7.421875e-001 -3.125000e-002  7.812500e-002
      vertex -7.421875e-001  3.207237e-002  7.812500e-002
      vertex -7.434346e-001  3.331948e-002  7.802482e-002
    endloop
  endfacet
  facet normal -9.017066e-001  0.000000e+000  4.323483e-001
    outer loop
      vertex -7.496848e-001  3.956971e-002  7.250910e-002
      vertex -7.485946e-001 -3.765709e-002  7.478289e-002
      vertex -7.485946e-001  3.847946e-002  7.478289e-002
    endloop
  endfacet
  facet normal -7.711681e-001  0.000000e+000  6.366317e-001
    outer loop
      vertex -7.485946e-001 -3.765709e-002  7.478289e-002
      vertex -7.477903e-001 -3.685275e-002  7.575716e-002
      vertex -7.485946e-001  3.847946e-002  7.478289e-002
    endloop
  endfacet
  facet normal -7.711681e-001  0.000000e+000  6.366316e-001
    outer loop
      vertex -7.485946e-001  3.847946e-002  7.478289e-002
      vertex -7.477903e-001 -3.685275e-002  7.575716e-002
      vertex -7.477903e-001  3.767512e-002  7.575716e-002
    endloop
  endfacet
  facet normal -6.586924e-001  0.000000e+000  7.524123e-001
    outer loop
      vertex -7.477903e-001 -3.685275e-002  7.575716e-002
      vertex -7.468436e-001 -3.590608e-002  7.658594e-002
      vertex -7.477903e-001  3.767512e-002  7.575716e-002
    endloop
  endfacet
  facet normal -6.586924e-001  0.000000e+000  7.524123e-001
    outer loop
      vertex -7.477903e-001  3.767512e-002  7.575716e-002
      vertex -7.468436e-001 -3.590608e-002  7.658594e-002
      vertex -7.468436e-001  3.672845e-002  7.658594e-002
    endloop
  endfacet
  facet normal -5.297464e-001  0.000000e+000  8.481562e-001
    outer loop
      vertex -7.468436e-001 -3.590608e-002  7.658594e-002
      vertex -7.457821e-001 -3.484465e-002  7.724890e-002
      vertex -7.468436e-001  3.672845e-002  7.658594e-002
    endloop
  endfacet
  facet normal -5.297464e-001  0.000000e+000  8.481562e-001
    outer loop
      vertex -7.468436e-001  3.672845e-002  7.658594e-002
      vertex -7.457821e-001 -3.484465e-002  7.724890e-002
      vertex -7.457821e-001  3.566702e-002  7.724890e-002
    endloop
  endfacet
  facet normal -3.871111e-001  0.000000e+000  9.220331e-001
    outer loop
      vertex -7.457821e-001 -3.484465e-002  7.724890e-002
      vertex -7.446218e-001 -3.369055e-002  7.773606e-002
      vertex -7.457821e-001  3.566702e-002  7.724890e-002
    endloop
  endfacet
  facet normal -3.889241e-001 -3.569171e-005  9.212698e-001
    outer loop
      vertex -7.457821e-001  3.566702e-002  7.724890e-002
      vertex -7.446218e-001 -3.369055e-002  7.773606e-002
      vertex -7.446281e-001  3.450669e-002  7.773606e-002
    endloop
  endfacet
  facet normal -2.363175e-001 -2.168694e-005  9.716759e-001
    outer loop
      vertex -7.446218e-001 -3.369055e-002  7.773606e-002
      vertex -7.434346e-001 -3.249712e-002  7.802482e-002
      vertex -7.446281e-001  3.450669e-002  7.773606e-002
    endloop
  endfacet
  facet normal -2.351674e-001  0.000000e+000  9.719549e-001
    outer loop
      vertex -7.446281e-001  3.450669e-002  7.773606e-002
      vertex -7.434346e-001 -3.249712e-002  7.802482e-002
      vertex -7.434346e-001  3.331948e-002  7.802482e-002
    endloop
  endfacet
  facet normal -9.898616e-001  0.000000e+000  1.420347e-001
    outer loop
      vertex -7.500000e-001  3.988487e-002  7.031250e-002
      vertex -7.500000e-001 -3.906250e-002  7.031250e-002
      vertex -7.496848e-001  3.956971e-002  7.250910e-002
    endloop
  endfacet
  facet normal -9.898616e-001  0.000000e+000  1.420347e-001
    outer loop
      vertex -7.496848e-001  3.956971e-002  7.250910e-002
      vertex -7.500000e-001 -3.906250e-002  7.031250e-002
      vertex -7.496848e-001 -3.874734e-002  7.250910e-002
    endloop
  endfacet
  facet normal -9.017067e-001  0.000000e+000  4.323483e-001
    outer loop
      vertex -7.496848e-001  3.956971e-002  7.250910e-002
      vertex -7.496848e-001 -3.874734e-002  7.250910e-002
      vertex -7.485946e-001 -3.765709e-002  7.478289e-002
    endloop
  endfacet
  facet normal  0.000000e+000  0.000000e+000 -1.000000e+000
    outer loop
      vertex -7.500000e-001 -3.906250e-002  0.000000e+000
      vertex -7.500000e-001  3.988487e-002  0.000000e+000
      vertex  7.500000e-001 -3.906250e-002  0.000000e+000
    endloop
  endfacet
  facet normal  0.000000e+000  0.000000e+000 -1.000000e+000
    outer loop
      vertex  7.500000e-001 -3.906250e-002  0.000000e+000
      vertex -7.500000e-001  3.988487e-002  0.000000e+000
      vertex  7.500000e-001  3.988487e-002  0.000000e+000
    endloop
  endfacet
endsolid CATIA STL
