solid CATIA STL
  facet normal  2.453383e-002 -9.996988e-001  6.022715e-004
    outer loop
      vertex  2.366443e-001  2.063751e-001  3.462387e-002
      vertex -2.297168e-002  2.000000e-001  2.825065e-002
      vertex  2.372195e-001  2.063751e-001  1.119342e-002
    endloop
  endfacet
  facet normal  2.453383e-002 -9.996988e-001  6.022715e-004
    outer loop
      vertex  2.372195e-001  2.063751e-001  1.119342e-002
      vertex -2.297168e-002  2.000000e-001  2.825065e-002
      vertex -2.239649e-002  2.000000e-001  4.820208e-003
    endloop
  endfacet
  facet normal -9.993978e-001 -2.454122e-002 -2.453402e-002
    outer loop
      vertex -2.085117e-001  2.000000e-001  2.369590e-002
      vertex -2.193252e-001  6.406250e-001  2.343044e-002
      vertex -2.079365e-001  2.000002e-001  2.654559e-004
    endloop
  endfacet
  facet normal -9.993978e-001 -2.454123e-002 -2.453383e-002
    outer loop
      vertex -2.079365e-001  2.000002e-001  2.654559e-004
      vertex -2.193252e-001  6.406250e-001  2.343044e-002
      vertex -2.187500e-001  6.406250e-001 -1.192622e-018
    endloop
  endfacet
  facet normal  2.454123e-002 -3.534351e-011 -9.996988e-001
    outer loop
      vertex -2.079365e-001  2.000002e-001  2.654559e-004
      vertex -2.187500e-001  6.406250e-001 -1.192622e-018
      vertex -1.317162e-001  6.342031e-001  2.136559e-003
    endloop
  endfacet
  facet normal  2.454123e-002  2.432580e-010 -9.996988e-001
    outer loop
      vertex -2.079365e-001  2.000002e-001  2.654559e-004
      vertex -1.317162e-001  6.342031e-001  2.136559e-003
      vertex -4.760729e-002  6.109200e-001  4.201318e-003
    endloop
  endfacet
  facet normal  2.454123e-002  3.136556e-010 -9.996988e-001
    outer loop
      vertex -2.079365e-001  2.000002e-001  2.654559e-004
      vertex -4.760729e-002  6.109200e-001  4.201318e-003
      vertex  3.034460e-002  5.716705e-001  6.114929e-003
    endloop
  endfacet
  facet normal  2.454123e-002 -2.386984e-009 -9.996988e-001
    outer loop
      vertex -2.079365e-001  2.000002e-001  2.654559e-004
      vertex  3.034460e-002  5.716705e-001  6.114929e-003
      vertex  9.914377e-002  5.179629e-001  7.803854e-003
    endloop
  endfacet
  facet normal  2.454123e-002 -2.442240e-009 -9.996988e-001
    outer loop
      vertex -2.079365e-001  2.000002e-001  2.654559e-004
      vertex  9.914377e-002  5.179629e-001  7.803854e-003
      vertex  1.561463e-001  4.518612e-001  9.203188e-003
    endloop
  endfacet
  facet normal  2.454123e-002  4.896950e-009 -9.996988e-001
    outer loop
      vertex -2.079365e-001  2.000002e-001  2.654559e-004
      vertex  1.561463e-001  4.518612e-001  9.203188e-003
      vertex  1.991616e-001  3.759056e-001  1.025916e-002
    endloop
  endfacet
  facet normal  2.454123e-002  3.114631e-009 -9.996988e-001
    outer loop
      vertex -2.079365e-001  2.000002e-001  2.654559e-004
      vertex  1.991616e-001  3.759056e-001  1.025916e-002
      vertex  2.265367e-001  2.930152e-001  1.093118e-002
    endloop
  endfacet
  facet normal  2.454123e-002 -1.760898e-009 -9.996988e-001
    outer loop
      vertex -2.079365e-001  2.000002e-001  2.654559e-004
      vertex  2.265367e-001  2.930152e-001  1.093118e-002
      vertex  2.372195e-001  2.063751e-001  1.119342e-002
    endloop
  endfacet
  facet normal  2.454123e-002 -9.609455e-008 -9.996988e-001
    outer loop
      vertex -2.079365e-001  2.000002e-001  2.654559e-004
      vertex  2.372195e-001  2.063751e-001  1.119342e-002
      vertex -2.239649e-002  2.000000e-001  4.820208e-003
    endloop
  endfacet
  facet normal -2.454123e-002  1.583397e-008  9.996988e-001
    outer loop
      vertex -2.085117e-001  2.000000e-001  2.369590e-002
      vertex -2.297168e-002  2.000000e-001  2.825065e-002
      vertex  2.366443e-001  2.063751e-001  3.462387e-002
    endloop
  endfacet
  facet normal -2.454123e-002  1.238694e-008  9.996988e-001
    outer loop
      vertex -2.085117e-001  2.000000e-001  2.369590e-002
      vertex  2.366443e-001  2.063751e-001  3.462387e-002
      vertex  2.259615e-001  2.930152e-001  3.436162e-002
    endloop
  endfacet
  facet normal -2.454123e-002 -2.453652e-009  9.996988e-001
    outer loop
      vertex -2.085117e-001  2.000000e-001  2.369590e-002
      vertex  2.259615e-001  2.930152e-001  3.436162e-002
      vertex  1.985865e-001  3.759056e-001  3.368960e-002
    endloop
  endfacet
  facet normal -2.454122e-002 -3.447679e-009  9.996988e-001
    outer loop
      vertex -2.085117e-001  2.000000e-001  2.369590e-002
      vertex  1.985865e-001  3.759056e-001  3.368960e-002
      vertex  1.555711e-001  4.518612e-001  3.263363e-002
    endloop
  endfacet
  facet normal -2.454123e-002  7.420788e-009  9.996989e-001
    outer loop
      vertex -2.085117e-001  2.000000e-001  2.369590e-002
      vertex  1.555711e-001  4.518612e-001  3.263363e-002
      vertex  9.856858e-002  5.179629e-001  3.123429e-002
    endloop
  endfacet
  facet normal -2.454122e-002 -6.286222e-009  9.996988e-001
    outer loop
      vertex -2.085117e-001  2.000000e-001  2.369590e-002
      vertex  9.856858e-002  5.179629e-001  3.123429e-002
      vertex  2.976941e-002  5.716705e-001  2.954537e-002
    endloop
  endfacet
  facet normal -2.454122e-002 -2.836085e-009  9.996988e-001
    outer loop
      vertex -2.085117e-001  2.000000e-001  2.369590e-002
      vertex  2.976941e-002  5.716705e-001  2.954537e-002
      vertex -4.818247e-002  6.109200e-001  2.763176e-002
    endloop
  endfacet
  facet normal -2.454123e-002 -5.468167e-010  9.996988e-001
    outer loop
      vertex -2.085117e-001  2.000000e-001  2.369590e-002
      vertex -4.818247e-002  6.109200e-001  2.763176e-002
      vertex -1.322914e-001  6.342031e-001  2.556700e-002
    endloop
  endfacet
  facet normal -2.454124e-002  1.558819e-009  9.996988e-001
    outer loop
      vertex -2.085117e-001  2.000000e-001  2.369590e-002
      vertex -1.322914e-001  6.342031e-001  2.556700e-002
      vertex -2.193252e-001  6.406250e-001  2.343044e-002
    endloop
  endfacet
  facet normal  0.000000e+000  1.000000e+000  -0.000000e+000
    outer loop
      vertex  1.250000e-001  2.000000e-001  1.015625e-001
      vertex -2.239649e-002  2.000000e-001  4.820208e-003
      vertex -2.297168e-002  2.000000e-001  2.825065e-002
    endloop
  endfacet
  facet normal  3.895372e-007  1.000000e+000  2.011921e-005
    outer loop
      vertex  2.265625e-001  2.000000e-001  0.000000e+000
      vertex -2.079365e-001  2.000002e-001  2.654559e-004
      vertex -2.239649e-002  2.000000e-001  4.820208e-003
    endloop
  endfacet
  facet normal  -0.000000e+000  1.000000e+000  0.000000e+000
    outer loop
      vertex  2.265625e-001  2.000000e-001  0.000000e+000
      vertex -2.239649e-002  2.000000e-001  4.820208e-003
      vertex  1.250000e-001  2.000000e-001  1.015625e-001
    endloop
  endfacet
  facet normal  -0.000000e+000  1.000000e+000  0.000000e+000
    outer loop
      vertex  2.265625e-001  2.000000e-001  0.000000e+000
      vertex  1.250000e-001  2.000000e-001  1.015625e-001
      vertex  1.250000e-001  2.000000e-001  5.966188e-001
    endloop
  endfacet
  facet normal  -0.000000e+000  1.000000e+000  0.000000e+000
    outer loop
      vertex  2.265625e-001  2.000000e-001  0.000000e+000
      vertex  1.250000e-001  2.000000e-001  5.966188e-001
      vertex  2.265625e-001  2.000000e-001  7.031250e-001
    endloop
  endfacet
  facet normal -1.532070e-005  1.000000e+000  6.619617e-006
    outer loop
      vertex -2.085117e-001  2.000000e-001  2.369590e-002
      vertex -2.079365e-001  2.000002e-001  2.654559e-004
      vertex -2.187500e-001  2.000000e-001  0.000000e+000
    endloop
  endfacet
  facet normal  0.000000e+000  1.000000e+000  0.000000e+000
    outer loop
      vertex -2.085117e-001  2.000000e-001  2.369590e-002
      vertex -2.187500e-001  2.000000e-001  0.000000e+000
      vertex -2.187500e-001  2.000000e-001  7.031250e-001
    endloop
  endfacet
  facet normal  0.000000e+000  1.000000e+000  0.000000e+000
    outer loop
      vertex -2.085117e-001  2.000000e-001  2.369590e-002
      vertex -2.187500e-001  2.000000e-001  7.031250e-001
      vertex -1.171875e-001  2.000000e-001  5.966188e-001
    endloop
  endfacet
  facet normal  0.000000e+000  1.000000e+000  0.000000e+000
    outer loop
      vertex -2.085117e-001  2.000000e-001  2.369590e-002
      vertex -1.171875e-001  2.000000e-001  5.966188e-001
      vertex -1.171875e-001  2.000000e-001  1.015625e-001
    endloop
  endfacet
  facet normal  -0.000000e+000  1.000000e+000  0.000000e+000
    outer loop
      vertex -2.085117e-001  2.000000e-001  2.369590e-002
      vertex -1.171875e-001  2.000000e-001  1.015625e-001
      vertex  1.250000e-001  2.000000e-001  1.015625e-001
    endloop
  endfacet
  facet normal  0.000000e+000  1.000000e+000  0.000000e+000
    outer loop
      vertex -2.085117e-001  2.000000e-001  2.369590e-002
      vertex  1.250000e-001  2.000000e-001  1.015625e-001
      vertex -2.297168e-002  2.000000e-001  2.825065e-002
    endloop
  endfacet
  facet normal  0.000000e+000  1.000000e+000  -0.000000e+000
    outer loop
      vertex  2.265625e-001  2.000000e-001  7.031250e-001
      vertex  1.250000e-001  2.000000e-001  5.966188e-001
      vertex -2.187500e-001  2.000000e-001  7.031250e-001
    endloop
  endfacet
  facet normal  0.000000e+000  1.000000e+000  0.000000e+000
    outer loop
      vertex -2.187500e-001  2.000000e-001  7.031250e-001
      vertex  1.250000e-001  2.000000e-001  5.966188e-001
      vertex -1.171875e-001  2.000000e-001  5.966188e-001
    endloop
  endfacet
  facet normal  2.454123e-002  0.000000e+000 -9.996987e-001
    outer loop
      vertex -2.187500e-001  2.000000e-001  0.000000e+000
      vertex -2.079365e-001  2.000002e-001  2.654559e-004
      vertex -2.187500e-001 -2.031250e-001  0.000000e+000
    endloop
  endfacet
  facet normal -6.109466e-004  6.748829e-004 -9.999996e-001
    outer loop
      vertex -2.187500e-001 -2.031250e-001  0.000000e+000
      vertex -2.079365e-001  2.000002e-001  2.654559e-004
      vertex  2.265625e-001  2.000000e-001  0.000000e+000
    endloop
  endfacet
  facet normal  0.000000e+000  -0.000000e+000 -1.000000e+000
    outer loop
      vertex -2.187500e-001 -2.031250e-001  0.000000e+000
      vertex  2.265625e-001  2.000000e-001  0.000000e+000
      vertex  2.265625e-001 -2.031250e-001  0.000000e+000
    endloop
  endfacet
  facet normal  9.921806e-001  1.224107e-001  2.435666e-002
    outer loop
      vertex  2.366443e-001  2.063751e-001  3.462387e-002
      vertex  2.372195e-001  2.063751e-001  1.119342e-002
      vertex  2.259615e-001  2.930152e-001  3.436162e-002
    endloop
  endfacet
  facet normal  9.921806e-001  1.224107e-001  2.435666e-002
    outer loop
      vertex  2.259615e-001  2.930152e-001  3.436162e-002
      vertex  2.372195e-001  2.063751e-001  1.119342e-002
      vertex  2.265367e-001  2.930152e-001  1.093118e-002
    endloop
  endfacet
  facet normal  9.492422e-001  3.136818e-001  2.330258e-002
    outer loop
      vertex  2.259615e-001  2.930152e-001  3.436162e-002
      vertex  2.265367e-001  2.930152e-001  1.093118e-002
      vertex  1.985865e-001  3.759056e-001  3.368960e-002
    endloop
  endfacet
  facet normal  9.492422e-001  3.136818e-001  2.330258e-002
    outer loop
      vertex  1.985865e-001  3.759056e-001  3.368960e-002
      vertex  2.265367e-001  2.930152e-001  1.093118e-002
      vertex  1.991616e-001  3.759056e-001  1.025916e-002
    endloop
  endfacet
  facet normal  8.698249e-001  4.928983e-001  2.135300e-002
    outer loop
      vertex  1.985865e-001  3.759056e-001  3.368960e-002
      vertex  1.991616e-001  3.759056e-001  1.025916e-002
      vertex  1.555711e-001  4.518612e-001  3.263363e-002
    endloop
  endfacet
  facet normal  8.698249e-001  4.928983e-001  2.135300e-002
    outer loop
      vertex  1.555711e-001  4.518612e-001  3.263363e-002
      vertex  1.991616e-001  3.759056e-001  1.025916e-002
      vertex  1.561463e-001  4.518612e-001  9.203188e-003
    endloop
  endfacet
  facet normal  7.569807e-001  6.531730e-001  1.858282e-002
    outer loop
      vertex  1.555711e-001  4.518612e-001  3.263363e-002
      vertex  1.561463e-001  4.518612e-001  9.203188e-003
      vertex  9.856858e-002  5.179629e-001  3.123429e-002
    endloop
  endfacet
  facet normal  7.569807e-001  6.531730e-001  1.858282e-002
    outer loop
      vertex  9.856858e-002  5.179629e-001  3.123429e-002
      vertex  1.561463e-001  4.518612e-001  9.203188e-003
      vertex  9.914377e-002  5.179629e-001  7.803854e-003
    endloop
  endfacet
  facet normal  6.150465e-001  7.883464e-001  1.509854e-002
    outer loop
      vertex  9.856858e-002  5.179629e-001  3.123429e-002
      vertex  9.914377e-002  5.179629e-001  7.803854e-003
      vertex  2.976941e-002  5.716705e-001  2.954537e-002
    endloop
  endfacet
  facet normal  6.150465e-001  7.883464e-001  1.509854e-002
    outer loop
      vertex  2.976941e-002  5.716705e-001  2.954537e-002
      vertex  9.914377e-002  5.179629e-001  7.803854e-003
      vertex  3.034460e-002  5.716705e-001  6.114929e-003
    endloop
  endfacet
  facet normal  4.494757e-001  8.932244e-001  1.103400e-002
    outer loop
      vertex  2.976941e-002  5.716705e-001  2.954537e-002
      vertex  3.034460e-002  5.716705e-001  6.114929e-003
      vertex -4.818247e-002  6.109200e-001  2.763176e-002
    endloop
  endfacet
  facet normal  4.494757e-001  8.932244e-001  1.103400e-002
    outer loop
      vertex -4.818247e-002  6.109200e-001  2.763176e-002
      vertex  3.034460e-002  5.716705e-001  6.114929e-003
      vertex -4.760729e-002  6.109200e-001  4.201318e-003
    endloop
  endfacet
  facet normal  2.666328e-001  9.637759e-001  6.545464e-003
    outer loop
      vertex -4.818247e-002  6.109200e-001  2.763176e-002
      vertex -4.760729e-002  6.109200e-001  4.201318e-003
      vertex -1.322914e-001  6.342031e-001  2.556700e-002
    endloop
  endfacet
  facet normal  2.666328e-001  9.637759e-001  6.545464e-003
    outer loop
      vertex -1.322914e-001  6.342031e-001  2.556700e-002
      vertex -4.760729e-002  6.109200e-001  4.201318e-003
      vertex -1.317162e-001  6.342031e-001  2.136559e-003
    endloop
  endfacet
  facet normal  7.354233e-002  9.972905e-001  1.805362e-003
    outer loop
      vertex -1.322914e-001  6.342031e-001  2.556700e-002
      vertex -1.317162e-001  6.342031e-001  2.136559e-003
      vertex -2.193252e-001  6.406250e-001  2.343044e-002
    endloop
  endfacet
  facet normal  7.354233e-002  9.972905e-001  1.805362e-003
    outer loop
      vertex -2.193252e-001  6.406250e-001  2.343044e-002
      vertex -1.317162e-001  6.342031e-001  2.136559e-003
      vertex -2.187500e-001  6.406250e-001 -1.192622e-018
    endloop
  endfacet
  facet normal  1.838597e-008 -3.011314e-001 -9.535826e-001
    outer loop
      vertex  6.246984e-002  3.590734e-002  6.484375e-001
      vertex  1.250000e-001  2.000000e-001  5.966188e-001
      vertex  1.250000e-001  9.843750e-002  6.286911e-001
    endloop
  endfacet
  facet normal  0.000000e+000 -3.011313e-001 -9.535826e-001
    outer loop
      vertex  1.250000e-001  2.000000e-001  5.966188e-001
      vertex  6.246984e-002  3.590734e-002  6.484375e-001
      vertex -1.171875e-001  2.000000e-001  5.966188e-001
    endloop
  endfacet
  facet normal  0.000000e+000 -3.011313e-001 -9.535827e-001
    outer loop
      vertex -1.171875e-001  2.000000e-001  5.966188e-001
      vertex  6.246984e-002  3.590734e-002  6.484375e-001
      vertex -5.465734e-002  3.590734e-002  6.484375e-001
    endloop
  endfacet
  facet normal -7.635717e-008 -3.011314e-001 -9.535827e-001
    outer loop
      vertex -1.171875e-001  2.000000e-001  5.966188e-001
      vertex -5.465734e-002  3.590734e-002  6.484375e-001
      vertex -1.171875e-001  9.843750e-002  6.286911e-001
    endloop
  endfacet
  facet normal -1.000000e+000  0.000000e+000  0.000000e+000
    outer loop
      vertex  1.250000e-001  9.843750e-002  6.286911e-001
      vertex  1.250000e-001  2.000000e-001  5.966188e-001
      vertex  1.250000e-001 -1.015625e-001  6.286911e-001
    endloop
  endfacet
  facet normal -9.999999e-001  0.000000e+000  0.000000e+000
    outer loop
      vertex  1.250000e-001 -1.015625e-001  6.286911e-001
      vertex  1.250000e-001  2.000000e-001  5.966188e-001
      vertex  1.250000e-001  2.000000e-001  1.015625e-001
    endloop
  endfacet
  facet normal -1.000000e+000  0.000000e+000  0.000000e+000
    outer loop
      vertex  1.250000e-001 -1.015625e-001  6.286911e-001
      vertex  1.250000e-001  2.000000e-001  1.015625e-001
      vertex  1.250000e-001 -1.015625e-001  1.015625e-001
    endloop
  endfacet
  facet normal  9.999999e-001  -0.000000e+000  0.000000e+000
    outer loop
      vertex -1.171875e-001  9.843750e-002  6.286911e-001
      vertex -1.171875e-001 -1.015625e-001  6.286911e-001
      vertex -1.171875e-001  2.000000e-001  5.966188e-001
    endloop
  endfacet
  facet normal  1.000000e+000  0.000000e+000  0.000000e+000
    outer loop
      vertex -1.171875e-001  2.000000e-001  5.966188e-001
      vertex -1.171875e-001 -1.015625e-001  6.286911e-001
      vertex -1.171875e-001 -1.015625e-001  1.015625e-001
    endloop
  endfacet
  facet normal  9.999999e-001  0.000000e+000  0.000000e+000
    outer loop
      vertex -1.171875e-001  2.000000e-001  5.966188e-001
      vertex -1.171875e-001 -1.015625e-001  1.015625e-001
      vertex -1.171875e-001  2.000000e-001  1.015625e-001
    endloop
  endfacet
  facet normal  0.000000e+000  0.000000e+000  1.000000e+000
    outer loop
      vertex -1.171875e-001 -1.015625e-001  1.015625e-001
      vertex  1.250000e-001 -1.015625e-001  1.015625e-001
      vertex -1.171875e-001  2.000000e-001  1.015625e-001
    endloop
  endfacet
  facet normal  -0.000000e+000  0.000000e+000  1.000000e+000
    outer loop
      vertex -1.171875e-001  2.000000e-001  1.015625e-001
      vertex  1.250000e-001 -1.015625e-001  1.015625e-001
      vertex  1.250000e-001  2.000000e-001  1.015625e-001
    endloop
  endfacet
  facet normal -3.011313e-001  0.000000e+000 -9.535827e-001
    outer loop
      vertex  1.250000e-001 -1.015625e-001  6.286911e-001
      vertex  6.246984e-002 -3.903234e-002  6.484375e-001
      vertex  1.250000e-001  9.843750e-002  6.286911e-001
    endloop
  endfacet
  facet normal -3.011313e-001  0.000000e+000 -9.535828e-001
    outer loop
      vertex  1.250000e-001  9.843750e-002  6.286911e-001
      vertex  6.246984e-002 -3.903234e-002  6.484375e-001
      vertex  6.246984e-002  3.590734e-002  6.484375e-001
    endloop
  endfacet
  facet normal  -0.000000e+000  0.000000e+000 -1.000000e+000
    outer loop
      vertex -5.465734e-002  3.590734e-002  6.484375e-001
      vertex  6.246984e-002  3.590734e-002  6.484375e-001
      vertex -5.465734e-002 -3.903234e-002  6.484375e-001
    endloop
  endfacet
  facet normal  0.000000e+000  0.000000e+000 -1.000000e+000
    outer loop
      vertex -5.465734e-002 -3.903234e-002  6.484375e-001
      vertex  6.246984e-002  3.590734e-002  6.484375e-001
      vertex  6.246984e-002 -3.903234e-002  6.484375e-001
    endloop
  endfacet
  facet normal  3.011313e-001  0.000000e+000 -9.535827e-001
    outer loop
      vertex -1.171875e-001  9.843750e-002  6.286911e-001
      vertex -5.465734e-002  3.590734e-002  6.484375e-001
      vertex -1.171875e-001 -1.015625e-001  6.286911e-001
    endloop
  endfacet
  facet normal  3.011313e-001  0.000000e+000 -9.535827e-001
    outer loop
      vertex -1.171875e-001 -1.015625e-001  6.286911e-001
      vertex -5.465734e-002  3.590734e-002  6.484375e-001
      vertex -5.465734e-002 -3.903234e-002  6.484375e-001
    endloop
  endfacet
  facet normal  0.000000e+000  1.000000e+000  0.000000e+000
    outer loop
      vertex -1.171875e-001 -1.015625e-001  1.015625e-001
      vertex -1.171875e-001 -1.015625e-001  6.286911e-001
      vertex  1.250000e-001 -1.015625e-001  1.015625e-001
    endloop
  endfacet
  facet normal  0.000000e+000  1.000000e+000  -0.000000e+000
    outer loop
      vertex  1.250000e-001 -1.015625e-001  1.015625e-001
      vertex -1.171875e-001 -1.015625e-001  6.286911e-001
      vertex  1.250000e-001 -1.015625e-001  6.286911e-001
    endloop
  endfacet
  facet normal  0.000000e+000  3.011313e-001 -9.535827e-001
    outer loop
      vertex -1.171875e-001 -1.015625e-001  6.286911e-001
      vertex -5.465734e-002 -3.903234e-002  6.484375e-001
      vertex  1.250000e-001 -1.015625e-001  6.286911e-001
    endloop
  endfacet
  facet normal  0.000000e+000  3.011313e-001 -9.535826e-001
    outer loop
      vertex  1.250000e-001 -1.015625e-001  6.286911e-001
      vertex -5.465734e-002 -3.903234e-002  6.484375e-001
      vertex  6.246984e-002 -3.903234e-002  6.484375e-001
    endloop
  endfacet
  facet normal  0.000000e+000  0.000000e+000  1.000000e+000
    outer loop
      vertex -7.031250e-002 -5.468750e-002  7.500000e-001
      vertex  7.812500e-002 -5.468750e-002  7.500000e-001
      vertex -7.031250e-002  5.156250e-002  7.500000e-001
    endloop
  endfacet
  facet normal  -0.000000e+000  0.000000e+000  1.000000e+000
    outer loop
      vertex -7.031250e-002  5.156250e-002  7.500000e-001
      vertex  7.812500e-002 -5.468750e-002  7.500000e-001
      vertex  7.812500e-002  5.156250e-002  7.500000e-001
    endloop
  endfacet
  facet normal -1.000000e+000  0.000000e+000  0.000000e+000
    outer loop
      vertex -2.187500e-001  2.000000e-001  0.000000e+000
      vertex -2.187500e-001 -2.031250e-001  0.000000e+000
      vertex -2.187500e-001  2.000000e-001  7.031250e-001
    endloop
  endfacet
  facet normal -1.000000e+000  -0.000000e+000  0.000000e+000
    outer loop
      vertex -2.187500e-001  2.000000e-001  7.031250e-001
      vertex -2.187500e-001 -2.031250e-001  0.000000e+000
      vertex -2.187500e-001 -2.031250e-001  7.031250e-001
    endloop
  endfacet
  facet normal  1.000000e+000  0.000000e+000  0.000000e+000
    outer loop
      vertex  2.265625e-001 -2.031250e-001  0.000000e+000
      vertex  2.265625e-001  2.000000e-001  0.000000e+000
      vertex  2.265625e-001 -2.031250e-001  7.031250e-001
    endloop
  endfacet
  facet normal  1.000000e+000  -0.000000e+000  0.000000e+000
    outer loop
      vertex  2.265625e-001 -2.031250e-001  7.031250e-001
      vertex  2.265625e-001  2.000000e-001  0.000000e+000
      vertex  2.265625e-001  2.000000e-001  7.031250e-001
    endloop
  endfacet
  facet normal  0.000000e+000 -1.000000e+000  0.000000e+000
    outer loop
      vertex -2.187500e-001 -2.031250e-001  0.000000e+000
      vertex  2.265625e-001 -2.031250e-001  0.000000e+000
      vertex -2.187500e-001 -2.031250e-001  7.031250e-001
    endloop
  endfacet
  facet normal  0.000000e+000 -1.000000e+000  0.000000e+000
    outer loop
      vertex -2.187500e-001 -2.031250e-001  7.031250e-001
      vertex  2.265625e-001 -2.031250e-001  0.000000e+000
      vertex  2.265625e-001 -2.031250e-001  7.031250e-001
    endloop
  endfacet
  facet normal  -0.000000e+000  3.011314e-001  9.535827e-001
    outer loop
      vertex  2.265625e-001  2.000000e-001  7.031250e-001
      vertex -2.187500e-001  2.000000e-001  7.031250e-001
      vertex  7.812500e-002  5.156250e-002  7.500000e-001
    endloop
  endfacet
  facet normal  0.000000e+000  3.011314e-001  9.535826e-001
    outer loop
      vertex  7.812500e-002  5.156250e-002  7.500000e-001
      vertex -2.187500e-001  2.000000e-001  7.031250e-001
      vertex -7.031250e-002  5.156250e-002  7.500000e-001
    endloop
  endfacet
  facet normal  3.011314e-001  0.000000e+000  9.535826e-001
    outer loop
      vertex  2.265625e-001 -2.031250e-001  7.031250e-001
      vertex  2.265625e-001  2.000000e-001  7.031250e-001
      vertex  7.812500e-002 -5.468750e-002  7.500000e-001
    endloop
  endfacet
  facet normal  3.011314e-001  -0.000000e+000  9.535826e-001
    outer loop
      vertex  7.812500e-002 -5.468750e-002  7.500000e-001
      vertex  2.265625e-001  2.000000e-001  7.031250e-001
      vertex  7.812500e-002  5.156250e-002  7.500000e-001
    endloop
  endfacet
  facet normal  0.000000e+000 -3.011314e-001  9.535827e-001
    outer loop
      vertex -2.187500e-001 -2.031250e-001  7.031250e-001
      vertex  2.265625e-001 -2.031250e-001  7.031250e-001
      vertex -7.031250e-002 -5.468750e-002  7.500000e-001
    endloop
  endfacet
  facet normal  0.000000e+000 -3.011314e-001  9.535826e-001
    outer loop
      vertex -7.031250e-002 -5.468750e-002  7.500000e-001
      vertex  2.265625e-001 -2.031250e-001  7.031250e-001
      vertex  7.812500e-002 -5.468750e-002  7.500000e-001
    endloop
  endfacet
  facet normal -3.011314e-001  0.000000e+000  9.535826e-001
    outer loop
      vertex -2.187500e-001  2.000000e-001  7.031250e-001
      vertex -2.187500e-001 -2.031250e-001  7.031250e-001
      vertex -7.031250e-002  5.156250e-002  7.500000e-001
    endloop
  endfacet
  facet normal -3.011314e-001  0.000000e+000  9.535826e-001
    outer loop
      vertex -7.031250e-002  5.156250e-002  7.500000e-001
      vertex -2.187500e-001 -2.031250e-001  7.031250e-001
      vertex -7.031250e-002 -5.468750e-002  7.500000e-001
    endloop
  endfacet
endsolid CATIA STL
