solid CATIA STL
  facet normal  0.000000e+000 -1.000000e+000  0.000000e+000
    outer loop
      vertex -7.500000e-001 -7.812500e-003 -2.812500e-001
      vertex -7.481986e-001 -7.812500e-003 -2.995397e-001
      vertex -7.428637e-001 -7.812500e-003 -3.171266e-001
    endloop
  endfacet
  facet normal  0.000000e+000 -1.000000e+000  0.000000e+000
    outer loop
      vertex -7.500000e-001 -7.812500e-003 -2.812500e-001
      vertex -7.428637e-001 -7.812500e-003 -3.171266e-001
      vertex -7.342003e-001 -7.812500e-003 -3.333347e-001
    endloop
  endfacet
  facet normal  0.000000e+000 -9.999999e-001  0.000000e+000
    outer loop
      vertex -7.500000e-001 -7.812500e-003 -2.812500e-001
      vertex -7.342003e-001 -7.812500e-003 -3.333347e-001
      vertex -7.225413e-001 -7.812500e-003 -3.475413e-001
    endloop
  endfacet
  facet normal  0.000000e+000 -1.000000e+000  0.000000e+000
    outer loop
      vertex -7.500000e-001 -7.812500e-003 -2.812500e-001
      vertex -7.225413e-001 -7.812500e-003 -3.475413e-001
      vertex -7.083347e-001 -7.812500e-003 -3.592003e-001
    endloop
  endfacet
  facet normal  0.000000e+000 -1.000000e+000  0.000000e+000
    outer loop
      vertex -7.500000e-001 -7.812500e-003 -2.812500e-001
      vertex -7.083347e-001 -7.812500e-003 -3.592003e-001
      vertex -6.921266e-001 -7.812500e-003 -3.678637e-001
    endloop
  endfacet
  facet normal  0.000000e+000 -1.000000e+000  0.000000e+000
    outer loop
      vertex -7.500000e-001 -7.812500e-003 -2.812500e-001
      vertex -6.921266e-001 -7.812500e-003 -3.678637e-001
      vertex -6.745397e-001 -7.812500e-003 -3.731986e-001
    endloop
  endfacet
  facet normal  0.000000e+000 -9.999999e-001  0.000000e+000
    outer loop
      vertex -7.500000e-001 -7.812500e-003 -2.812500e-001
      vertex -6.745397e-001 -7.812500e-003 -3.731986e-001
      vertex -6.562500e-001 -7.812500e-003 -3.750000e-001
    endloop
  endfacet
  facet normal  0.000000e+000 -1.000000e+000  0.000000e+000
    outer loop
      vertex -7.500000e-001 -7.812500e-003 -2.812500e-001
      vertex -6.562500e-001 -7.812500e-003 -3.750000e-001
      vertex  7.500000e-001 -7.812500e-003 -3.750000e-001
    endloop
  endfacet
  facet normal  0.000000e+000 -1.000000e+000  0.000000e+000
    outer loop
      vertex -7.500000e-001 -7.812500e-003 -2.812500e-001
      vertex  7.500000e-001 -7.812500e-003 -3.750000e-001
      vertex  7.500000e-001 -7.812500e-003  3.828947e-001
    endloop
  endfacet
  facet normal  -0.000000e+000 -9.999999e-001  0.000000e+000
    outer loop
      vertex -7.500000e-001 -7.812500e-003 -2.812500e-001
      vertex  7.500000e-001 -7.812500e-003  3.828947e-001
      vertex -7.500000e-001 -7.812500e-003  3.828947e-001
    endloop
  endfacet
  facet normal -1.110223e-016  9.999999e-001 -5.551115e-017
    outer loop
      vertex -7.500000e-001  5.204170e-018 -2.812500e-001
      vertex -7.500000e-001  4.207161e-017  3.828947e-001
      vertex  7.500000e-001  2.086051e-016  3.828947e-001
    endloop
  endfacet
  facet normal -1.110223e-016  1.000000e+000 -5.551115e-017
    outer loop
      vertex -7.500000e-001  5.204170e-018 -2.812500e-001
      vertex  7.500000e-001  2.086051e-016  3.828947e-001
      vertex  7.500000e-001  1.665335e-016 -3.750000e-001
    endloop
  endfacet
  facet normal -1.110223e-016  1.000000e+000 -5.551115e-017
    outer loop
      vertex -7.500000e-001  5.204170e-018 -2.812500e-001
      vertex  7.500000e-001  1.665335e-016 -3.750000e-001
      vertex -6.562500e-001  1.040834e-017 -3.750000e-001
    endloop
  endfacet
  facet normal -1.110221e-016  9.999999e-001 -5.551095e-017
    outer loop
      vertex -7.500000e-001  5.204170e-018 -2.812500e-001
      vertex -6.562500e-001  1.040834e-017 -3.750000e-001
      vertex -6.745397e-001  8.477771e-018 -3.731986e-001
    endloop
  endfacet
  facet normal -1.110225e-016  1.000000e+000 -5.551128e-017
    outer loop
      vertex -7.500000e-001  5.204170e-018 -2.812500e-001
      vertex -6.745397e-001  8.477771e-018 -3.731986e-001
      vertex -6.921266e-001  6.821385e-018 -3.678637e-001
    endloop
  endfacet
  facet normal -1.110226e-016  1.000000e+000 -5.551138e-017
    outer loop
      vertex -7.500000e-001  5.204170e-018 -2.812500e-001
      vertex -6.921266e-001  6.821385e-018 -3.678637e-001
      vertex -7.083347e-001  5.502837e-018 -3.592003e-001
    endloop
  endfacet
  facet normal -1.110217e-016  1.000000e+000 -5.551087e-017
    outer loop
      vertex -7.500000e-001  5.204170e-018 -2.812500e-001
      vertex -7.083347e-001  5.502837e-018 -3.592003e-001
      vertex -7.225413e-001  4.572799e-018 -3.475413e-001
    endloop
  endfacet
  facet normal -1.110221e-016  9.999999e-001 -5.551103e-017
    outer loop
      vertex -7.500000e-001  5.204170e-018 -2.812500e-001
      vertex -7.225413e-001  4.572799e-018 -3.475413e-001
      vertex -7.342003e-001  4.067010e-018 -3.333347e-001
    endloop
  endfacet
  facet normal -1.110226e-016  1.000000e+000 -5.551119e-017
    outer loop
      vertex -7.500000e-001  5.204170e-018 -2.812500e-001
      vertex -7.342003e-001  4.067010e-018 -3.333347e-001
      vertex -7.428637e-001  4.004908e-018 -3.171266e-001
    endloop
  endfacet
  facet normal -1.110221e-016  1.000000e+000 -5.551109e-017
    outer loop
      vertex -7.500000e-001  5.204170e-018 -2.812500e-001
      vertex -7.428637e-001  4.004908e-018 -3.171266e-001
      vertex -7.481986e-001  4.388881e-018 -2.995397e-001
    endloop
  endfacet
  facet normal -1.000000e+000  -0.000000e+000  0.000000e+000
    outer loop
      vertex -7.500000e-001 -7.812500e-003  3.828947e-001
      vertex -7.500000e-001  4.207161e-017  3.828947e-001
      vertex -7.500000e-001 -7.812500e-003 -2.812500e-001
    endloop
  endfacet
  facet normal -1.000000e+000  0.000000e+000  0.000000e+000
    outer loop
      vertex -7.500000e-001 -7.812500e-003 -2.812500e-001
      vertex -7.500000e-001  4.207161e-017  3.828947e-001
      vertex -7.500000e-001  5.204170e-018 -2.812500e-001
    endloop
  endfacet
  facet normal  0.000000e+000  0.000000e+000 -1.000000e+000
    outer loop
      vertex -6.562500e-001 -7.812500e-003 -3.750000e-001
      vertex -6.562500e-001  1.040834e-017 -3.750000e-001
      vertex  7.500000e-001 -7.812500e-003 -3.750000e-001
    endloop
  endfacet
  facet normal  0.000000e+000  0.000000e+000 -1.000000e+000
    outer loop
      vertex  7.500000e-001 -7.812500e-003 -3.750000e-001
      vertex -6.562500e-001  1.040834e-017 -3.750000e-001
      vertex  7.500000e-001  1.665335e-016 -3.750000e-001
    endloop
  endfacet
  facet normal -9.801655e-002  0.000000e+000 -9.951848e-001
    outer loop
      vertex -6.562500e-001  1.040834e-017 -3.750000e-001
      vertex -6.562500e-001 -7.812500e-003 -3.750000e-001
      vertex -6.745397e-001  8.477771e-018 -3.731986e-001
    endloop
  endfacet
  facet normal -9.801655e-002  -0.000000e+000 -9.951848e-001
    outer loop
      vertex -6.745397e-001  8.477771e-018 -3.731986e-001
      vertex -6.562500e-001 -7.812500e-003 -3.750000e-001
      vertex -6.745397e-001 -7.812500e-003 -3.731986e-001
    endloop
  endfacet
  facet normal -2.902851e-001  0.000000e+000 -9.569402e-001
    outer loop
      vertex -6.745397e-001  8.477771e-018 -3.731986e-001
      vertex -6.745397e-001 -7.812500e-003 -3.731986e-001
      vertex -6.921266e-001  6.821385e-018 -3.678637e-001
    endloop
  endfacet
  facet normal -2.902851e-001  -0.000000e+000 -9.569402e-001
    outer loop
      vertex -6.921266e-001  6.821385e-018 -3.678637e-001
      vertex -6.745397e-001 -7.812500e-003 -3.731986e-001
      vertex -6.921266e-001 -7.812500e-003 -3.678637e-001
    endloop
  endfacet
  facet normal -4.713980e-001  0.000000e+000 -8.819207e-001
    outer loop
      vertex -6.921266e-001  6.821385e-018 -3.678637e-001
      vertex -6.921266e-001 -7.812500e-003 -3.678637e-001
      vertex -7.083347e-001  5.502837e-018 -3.592003e-001
    endloop
  endfacet
  facet normal -4.713980e-001  -0.000000e+000 -8.819207e-001
    outer loop
      vertex -7.083347e-001  5.502837e-018 -3.592003e-001
      vertex -6.921266e-001 -7.812500e-003 -3.678637e-001
      vertex -7.083347e-001 -7.812500e-003 -3.592003e-001
    endloop
  endfacet
  facet normal -6.343917e-001  0.000000e+000 -7.730118e-001
    outer loop
      vertex -7.083347e-001  5.502837e-018 -3.592003e-001
      vertex -7.083347e-001 -7.812500e-003 -3.592003e-001
      vertex -7.225413e-001  4.572799e-018 -3.475413e-001
    endloop
  endfacet
  facet normal -6.343917e-001  -0.000000e+000 -7.730118e-001
    outer loop
      vertex -7.225413e-001  4.572799e-018 -3.475413e-001
      vertex -7.083347e-001 -7.812500e-003 -3.592003e-001
      vertex -7.225413e-001 -7.812500e-003 -3.475413e-001
    endloop
  endfacet
  facet normal -7.730103e-001  0.000000e+000 -6.343935e-001
    outer loop
      vertex -7.225413e-001  4.572799e-018 -3.475413e-001
      vertex -7.225413e-001 -7.812500e-003 -3.475413e-001
      vertex -7.342003e-001  4.067010e-018 -3.333347e-001
    endloop
  endfacet
  facet normal -7.730103e-001  -0.000000e+000 -6.343935e-001
    outer loop
      vertex -7.342003e-001  4.067010e-018 -3.333347e-001
      vertex -7.225413e-001 -7.812500e-003 -3.475413e-001
      vertex -7.342003e-001 -7.812500e-003 -3.333347e-001
    endloop
  endfacet
  facet normal -8.819216e-001  0.000000e+000 -4.713960e-001
    outer loop
      vertex -7.342003e-001  4.067010e-018 -3.333347e-001
      vertex -7.342003e-001 -7.812500e-003 -3.333347e-001
      vertex -7.428637e-001  4.004908e-018 -3.171266e-001
    endloop
  endfacet
  facet normal -8.819216e-001  -0.000000e+000 -4.713960e-001
    outer loop
      vertex -7.428637e-001  4.004908e-018 -3.171266e-001
      vertex -7.342003e-001 -7.812500e-003 -3.333347e-001
      vertex -7.428637e-001 -7.812500e-003 -3.171266e-001
    endloop
  endfacet
  facet normal -9.569404e-001  0.000000e+000 -2.902846e-001
    outer loop
      vertex -7.428637e-001  4.004908e-018 -3.171266e-001
      vertex -7.428637e-001 -7.812500e-003 -3.171266e-001
      vertex -7.481986e-001  4.388881e-018 -2.995397e-001
    endloop
  endfacet
  facet normal -9.569404e-001  -0.000000e+000 -2.902846e-001
    outer loop
      vertex -7.481986e-001  4.388881e-018 -2.995397e-001
      vertex -7.428637e-001 -7.812500e-003 -3.171266e-001
      vertex -7.481986e-001 -7.812500e-003 -2.995397e-001
    endloop
  endfacet
  facet normal -9.951847e-001  0.000000e+000 -9.801669e-002
    outer loop
      vertex -7.481986e-001  4.388881e-018 -2.995397e-001
      vertex -7.481986e-001 -7.812500e-003 -2.995397e-001
      vertex -7.500000e-001  5.204170e-018 -2.812500e-001
    endloop
  endfacet
  facet normal -9.951847e-001  -0.000000e+000 -9.801669e-002
    outer loop
      vertex -7.500000e-001  5.204170e-018 -2.812500e-001
      vertex -7.481986e-001 -7.812500e-003 -2.995397e-001
      vertex -7.500000e-001 -7.812500e-003 -2.812500e-001
    endloop
  endfacet
  facet normal  0.000000e+000  0.000000e+000  1.000000e+000
    outer loop
      vertex  7.500000e-001 -7.812500e-003  3.828947e-001
      vertex  7.500000e-001  2.086051e-016  3.828947e-001
      vertex -7.500000e-001 -7.812500e-003  3.828947e-001
    endloop
  endfacet
  facet normal  0.000000e+000  0.000000e+000  1.000000e+000
    outer loop
      vertex -7.500000e-001 -7.812500e-003  3.828947e-001
      vertex  7.500000e-001  2.086051e-016  3.828947e-001
      vertex -7.500000e-001  4.207161e-017  3.828947e-001
    endloop
  endfacet
  facet normal  1.000000e+000  0.000000e+000  0.000000e+000
    outer loop
      vertex  7.500000e-001 -7.812500e-003 -3.750000e-001
      vertex  7.500000e-001  1.665335e-016 -3.750000e-001
      vertex  7.500000e-001 -7.812500e-003  3.828947e-001
    endloop
  endfacet
  facet normal  1.000000e+000  -0.000000e+000  0.000000e+000
    outer loop
      vertex  7.500000e-001 -7.812500e-003  3.828947e-001
      vertex  7.500000e-001  1.665335e-016 -3.750000e-001
      vertex  7.500000e-001  2.086051e-016  3.828947e-001
    endloop
  endfacet
endsolid CATIA STL
