solid CATIA STL
  facet normal  1.231966e-002  9.999241e-001  0.000000e+000
    outer loop
      vertex  0.000000e+000  0.000000e+000  0.000000e+000
      vertex -7.499431e-001  9.239744e-003  6.870956e-017
      vertex  6.284372e-018  0.000000e+000  1.026316e-001
    endloop
  endfacet
  facet normal  1.231966e-002  9.999241e-001  0.000000e+000
    outer loop
      vertex  6.284372e-018  0.000000e+000  1.026316e-001
      vertex -7.499431e-001  9.239744e-003  6.870956e-017
      vertex -7.499431e-001  9.239744e-003  1.026316e-001
    endloop
  endfacet
  facet normal  0.000000e+000  1.000000e+000  0.000000e+000
    outer loop
      vertex  0.000000e+000  0.000000e+000  0.000000e+000
      vertex  6.284372e-018  0.000000e+000  1.026316e-001
      vertex  7.500000e-001  0.000000e+000 -4.592425e-017
    endloop
  endfacet
  facet normal  0.000000e+000  1.000000e+000  -0.000000e+000
    outer loop
      vertex  7.500000e-001  0.000000e+000 -4.592425e-017
      vertex  6.284372e-018  0.000000e+000  1.026316e-001
      vertex  7.500000e-001  0.000000e+000  1.026316e-001
    endloop
  endfacet
  facet normal  -0.000000e+000  -0.000000e+000  1.000000e+000
    outer loop
      vertex -7.387782e-001 -1.292547e-001  1.026316e-001
      vertex -7.022580e-001 -2.633130e-001  1.026316e-001
      vertex  6.989607e-001 -2.719446e-001  1.026316e-001
    endloop
  endfacet
  facet normal  0.000000e+000  -0.000000e+000  1.000000e+000
    outer loop
      vertex -7.387782e-001 -1.292547e-001  1.026316e-001
      vertex  6.989607e-001 -2.719446e-001  1.026316e-001
      vertex  7.371297e-001 -1.383464e-001  1.026316e-001
    endloop
  endfacet
  facet normal  0.000000e+000  -0.000000e+000  9.999999e-001
    outer loop
      vertex -7.387782e-001 -1.292547e-001  1.026316e-001
      vertex  7.371297e-001 -1.383464e-001  1.026316e-001
      vertex  7.500000e-001  0.000000e+000  1.026316e-001
    endloop
  endfacet
  facet normal  0.000000e+000  0.000000e+000  1.000000e+000
    outer loop
      vertex -7.387782e-001 -1.292547e-001  1.026316e-001
      vertex  7.500000e-001  0.000000e+000  1.026316e-001
      vertex  6.284372e-018  0.000000e+000  1.026316e-001
    endloop
  endfacet
  facet normal  0.000000e+000  0.000000e+000  1.000000e+000
    outer loop
      vertex -7.387782e-001 -1.292547e-001  1.026316e-001
      vertex  6.284372e-018  0.000000e+000  1.026316e-001
      vertex -7.499431e-001  9.239744e-003  1.026316e-001
    endloop
  endfacet
  facet normal  -0.000000e+000  0.000000e+000  1.000000e+000
    outer loop
      vertex  4.498043e-001 -6.001467e-001  1.026316e-001
      vertex -3.396451e-001 -6.686862e-001  1.026316e-001
      vertex  3.313814e-001 -6.728197e-001  1.026316e-001
    endloop
  endfacet
  facet normal  0.000000e+000  0.000000e+000  1.000000e+000
    outer loop
      vertex  3.313814e-001 -6.728197e-001  1.026316e-001
      vertex -3.396451e-001 -6.686862e-001  1.026316e-001
      vertex -2.104696e-001 -7.198629e-001  1.026316e-001
    endloop
  endfacet
  facet normal  -0.000000e+000  0.000000e+000  1.000000e+000
    outer loop
      vertex  3.313814e-001 -6.728197e-001  1.026316e-001
      vertex -2.104696e-001 -7.198629e-001  1.026316e-001
      vertex  2.015852e-001 -7.224011e-001  1.026316e-001
    endloop
  endfacet
  facet normal  0.000000e+000  0.000000e+000  1.000000e+000
    outer loop
      vertex  2.015852e-001 -7.224011e-001  1.026316e-001
      vertex -2.104696e-001 -7.198629e-001  1.026316e-001
      vertex -7.407065e-002 -7.463334e-001  1.026316e-001
    endloop
  endfacet
  facet normal  -0.000000e+000  0.000000e+000  1.000000e+000
    outer loop
      vertex  2.015852e-001 -7.224011e-001  1.026316e-001
      vertex -7.407065e-002 -7.463334e-001  1.026316e-001
      vertex  6.487045e-002 -7.471893e-001  1.026316e-001
    endloop
  endfacet
  facet normal  0.000000e+000  0.000000e+000  1.000000e+000
    outer loop
      vertex -3.396451e-001 -6.686862e-001  1.026316e-001
      vertex  4.498043e-001 -6.001467e-001  1.026316e-001
      vertex -4.571638e-001 -5.945597e-001  1.026316e-001
    endloop
  endfacet
  facet normal  -0.000000e+000  0.000000e+000  1.000000e+000
    outer loop
      vertex -4.571638e-001 -5.945597e-001  1.026316e-001
      vertex  4.498043e-001 -6.001467e-001  1.026316e-001
      vertex  5.527897e-001 -5.068763e-001  1.026316e-001
    endloop
  endfacet
  facet normal  0.000000e+000  0.000000e+000  9.999999e-001
    outer loop
      vertex -4.571638e-001 -5.945597e-001  1.026316e-001
      vertex  5.527897e-001 -5.068763e-001  1.026316e-001
      vertex -5.589923e-001 -5.000277e-001  1.026316e-001
    endloop
  endfacet
  facet normal  -0.000000e+000  0.000000e+000  1.000000e+000
    outer loop
      vertex -5.589923e-001 -5.000277e-001  1.026316e-001
      vertex  5.527897e-001 -5.068763e-001  1.026316e-001
      vertex  6.368030e-001 -3.962095e-001  1.026316e-001
    endloop
  endfacet
  facet normal  0.000000e+000  0.000000e+000  1.000000e+000
    outer loop
      vertex -5.589923e-001 -5.000277e-001  1.026316e-001
      vertex  6.368030e-001 -3.962095e-001  1.026316e-001
      vertex -6.416358e-001 -3.883343e-001  1.026316e-001
    endloop
  endfacet
  facet normal  -0.000000e+000  0.000000e+000  1.000000e+000
    outer loop
      vertex -6.416358e-001 -3.883343e-001  1.026316e-001
      vertex  6.368030e-001 -3.962095e-001  1.026316e-001
      vertex  6.989607e-001 -2.719446e-001  1.026316e-001
    endloop
  endfacet
  facet normal  0.000000e+000  0.000000e+000  1.000000e+000
    outer loop
      vertex -6.416358e-001 -3.883343e-001  1.026316e-001
      vertex  6.989607e-001 -2.719446e-001  1.026316e-001
      vertex -7.022580e-001 -2.633130e-001  1.026316e-001
    endloop
  endfacet
  facet normal -9.967663e-001 -8.035557e-002  0.000000e+000
    outer loop
      vertex -7.499431e-001  9.239744e-003  1.026316e-001
      vertex -7.499431e-001  9.239744e-003  6.870956e-017
      vertex -7.387782e-001 -1.292547e-001  1.026316e-001
    endloop
  endfacet
  facet normal -9.967663e-001 -8.035557e-002  -0.000000e+000
    outer loop
      vertex -7.387782e-001 -1.292547e-001  1.026316e-001
      vertex -7.499431e-001  9.239744e-003  6.870956e-017
      vertex -7.387782e-001 -1.292547e-001  5.911491e-017
    endloop
  endfacet
  facet normal -9.648390e-001 -2.628415e-001  0.000000e+000
    outer loop
      vertex -7.387782e-001 -1.292547e-001  1.026316e-001
      vertex -7.387782e-001 -1.292547e-001  5.911491e-017
      vertex -7.022580e-001 -2.633130e-001  1.026316e-001
    endloop
  endfacet
  facet normal -9.648390e-001 -2.628415e-001  -0.000000e+000
    outer loop
      vertex -7.022580e-001 -2.633130e-001  1.026316e-001
      vertex -7.387782e-001 -1.292547e-001  5.911491e-017
      vertex -7.022580e-001 -2.633130e-001  5.687869e-017
    endloop
  endfacet
  facet normal -8.997976e-001 -4.363076e-001  0.000000e+000
    outer loop
      vertex -7.022580e-001 -2.633130e-001  1.026316e-001
      vertex -7.022580e-001 -2.633130e-001  5.687869e-017
      vertex -6.416358e-001 -3.883343e-001  1.026316e-001
    endloop
  endfacet
  facet normal -8.997976e-001 -4.363076e-001  -0.000000e+000
    outer loop
      vertex -6.416358e-001 -3.883343e-001  1.026316e-001
      vertex -7.022580e-001 -2.633130e-001  5.687869e-017
      vertex -6.416358e-001 -3.883343e-001  5.316665e-017
    endloop
  endfacet
  facet normal -8.038750e-001 -5.947984e-001  0.000000e+000
    outer loop
      vertex -6.416358e-001 -3.883343e-001  1.026316e-001
      vertex -6.416358e-001 -3.883343e-001  5.316665e-017
      vertex -5.589923e-001 -5.000277e-001  1.026316e-001
    endloop
  endfacet
  facet normal -8.038750e-001 -5.947984e-001  -0.000000e+000
    outer loop
      vertex -5.589923e-001 -5.000277e-001  1.026316e-001
      vertex -6.416358e-001 -3.883343e-001  5.316665e-017
      vertex -5.589923e-001 -5.000277e-001  4.810619e-017
    endloop
  endfacet
  facet normal -6.803623e-001 -7.328759e-001  0.000000e+000
    outer loop
      vertex -5.589923e-001 -5.000277e-001  1.026316e-001
      vertex -5.589923e-001 -5.000277e-001  4.810619e-017
      vertex -4.571638e-001 -5.945597e-001  1.026316e-001
    endloop
  endfacet
  facet normal -6.803623e-001 -7.328759e-001  -0.000000e+000
    outer loop
      vertex -4.571638e-001 -5.945597e-001  1.026316e-001
      vertex -5.589923e-001 -5.000277e-001  4.810619e-017
      vertex -4.571638e-001 -5.945597e-001  4.187100e-017
    endloop
  endfacet
  facet normal -5.334995e-001 -8.458003e-001  0.000000e+000
    outer loop
      vertex -4.571638e-001 -5.945597e-001  1.026316e-001
      vertex -4.571638e-001 -5.945597e-001  4.187100e-017
      vertex -3.396451e-001 -6.686862e-001  1.026316e-001
    endloop
  endfacet
  facet normal -5.334995e-001 -8.458003e-001  -0.000000e+000
    outer loop
      vertex -3.396451e-001 -6.686862e-001  1.026316e-001
      vertex -4.571638e-001 -5.945597e-001  4.187100e-017
      vertex -3.396451e-001 -6.686862e-001  3.467505e-017
    endloop
  endfacet
  facet normal -3.683270e-001 -9.296963e-001  0.000000e+000
    outer loop
      vertex -3.396451e-001 -6.686862e-001  1.026316e-001
      vertex -3.396451e-001 -6.686862e-001  3.467505e-017
      vertex -2.104696e-001 -7.198629e-001  1.026316e-001
    endloop
  endfacet
  facet normal -3.683270e-001 -9.296963e-001  -0.000000e+000
    outer loop
      vertex -2.104696e-001 -7.198629e-001  1.026316e-001
      vertex -3.396451e-001 -6.686862e-001  3.467505e-017
      vertex -2.104696e-001 -7.198629e-001  2.676533e-017
    endloop
  endfacet
  facet normal -1.905126e-001 -9.816847e-001  0.000000e+000
    outer loop
      vertex -2.104696e-001 -7.198629e-001  1.026316e-001
      vertex -2.104696e-001 -7.198629e-001  2.676533e-017
      vertex -7.407065e-002 -7.463334e-001  1.026316e-001
    endloop
  endfacet
  facet normal -1.905126e-001 -9.816847e-001  -0.000000e+000
    outer loop
      vertex -7.407065e-002 -7.463334e-001  1.026316e-001
      vertex -2.104696e-001 -7.198629e-001  2.676533e-017
      vertex -7.407065e-002 -7.463334e-001  1.841331e-017
    endloop
  endfacet
  facet normal -6.159781e-003 -9.999810e-001  0.000000e+000
    outer loop
      vertex -7.407065e-002 -7.463334e-001  1.026316e-001
      vertex -7.407065e-002 -7.463334e-001  1.841331e-017
      vertex  6.487045e-002 -7.471893e-001  1.026316e-001
    endloop
  endfacet
  facet normal -6.159781e-003 -9.999810e-001  -0.000000e+000
    outer loop
      vertex  6.487045e-002 -7.471893e-001  1.026316e-001
      vertex -7.407065e-002 -7.463334e-001  1.841331e-017
      vertex  6.487045e-002 -7.471893e-001  9.905618e-018
    endloop
  endfacet
  facet normal  1.784042e-001 -9.839573e-001  0.000000e+000
    outer loop
      vertex  6.487045e-002 -7.471893e-001  1.026316e-001
      vertex  6.487045e-002 -7.471893e-001  9.905618e-018
      vertex  2.015852e-001 -7.224011e-001  1.026316e-001
    endloop
  endfacet
  facet normal  1.784042e-001 -9.839573e-001  0.000000e+000
    outer loop
      vertex  2.015852e-001 -7.224011e-001  1.026316e-001
      vertex  6.487045e-002 -7.471893e-001  9.905618e-018
      vertex  2.015852e-001 -7.224011e-001  1.534257e-018
    endloop
  endfacet
  facet normal  3.568452e-001 -9.341635e-001  0.000000e+000
    outer loop
      vertex  2.015852e-001 -7.224011e-001  1.026316e-001
      vertex  2.015852e-001 -7.224011e-001  1.534257e-018
      vertex  3.313814e-001 -6.728197e-001  1.026316e-001
    endloop
  endfacet
  facet normal  3.568452e-001 -9.341635e-001  0.000000e+000
    outer loop
      vertex  3.313814e-001 -6.728197e-001  1.026316e-001
      vertex  2.015852e-001 -7.224011e-001  1.534257e-018
      vertex  3.313814e-001 -6.728197e-001 -6.413467e-018
    endloop
  endfacet
  facet normal  5.230392e-001 -8.523086e-001  0.000000e+000
    outer loop
      vertex  3.313814e-001 -6.728197e-001  1.026316e-001
      vertex  3.313814e-001 -6.728197e-001 -6.413467e-018
      vertex  4.498043e-001 -6.001467e-001  1.026316e-001
    endloop
  endfacet
  facet normal  5.230392e-001 -8.523086e-001  0.000000e+000
    outer loop
      vertex  4.498043e-001 -6.001467e-001  1.026316e-001
      vertex  3.313814e-001 -6.728197e-001 -6.413467e-018
      vertex  4.498043e-001 -6.001467e-001 -1.366478e-017
    endloop
  endfacet
  facet normal  6.712818e-001 -7.412021e-001  0.000000e+000
    outer loop
      vertex  4.498043e-001 -6.001467e-001  1.026316e-001
      vertex  4.498043e-001 -6.001467e-001 -1.366478e-017
      vertex  5.527897e-001 -5.068763e-001  1.026316e-001
    endloop
  endfacet
  facet normal  6.712818e-001 -7.412021e-001  0.000000e+000
    outer loop
      vertex  5.527897e-001 -5.068763e-001  1.026316e-001
      vertex  4.498043e-001 -6.001467e-001 -1.366478e-017
      vertex  5.527897e-001 -5.068763e-001 -1.997082e-017
    endloop
  endfacet
  facet normal  7.964861e-001 -6.046568e-001  0.000000e+000
    outer loop
      vertex  5.527897e-001 -5.068763e-001  1.026316e-001
      vertex  5.527897e-001 -5.068763e-001 -1.997082e-017
      vertex  6.368030e-001 -3.962095e-001  1.026316e-001
    endloop
  endfacet
  facet normal  7.964861e-001 -6.046568e-001  0.000000e+000
    outer loop
      vertex  6.368030e-001 -3.962095e-001  1.026316e-001
      vertex  5.527897e-001 -5.068763e-001 -1.997082e-017
      vertex  6.368030e-001 -3.962095e-001 -2.511515e-017
    endloop
  endfacet
  facet normal  8.943545e-001 -4.473592e-001  0.000000e+000
    outer loop
      vertex  6.368030e-001 -3.962095e-001  1.026316e-001
      vertex  6.368030e-001 -3.962095e-001 -2.511515e-017
      vertex  6.989607e-001 -2.719446e-001  1.026316e-001
    endloop
  endfacet
  facet normal  8.943545e-001 -4.473592e-001  0.000000e+000
    outer loop
      vertex  6.989607e-001 -2.719446e-001  1.026316e-001
      vertex  6.368030e-001 -3.962095e-001 -2.511515e-017
      vertex  6.989607e-001 -2.719446e-001 -2.892122e-017
    endloop
  endfacet
  facet normal  9.615275e-001 -2.747085e-001  0.000000e+000
    outer loop
      vertex  6.989607e-001 -2.719446e-001  1.026316e-001
      vertex  6.989607e-001 -2.719446e-001 -2.892122e-017
      vertex  7.371297e-001 -1.383464e-001  1.026316e-001
    endloop
  endfacet
  facet normal  9.615275e-001 -2.747085e-001  0.000000e+000
    outer loop
      vertex  7.371297e-001 -1.383464e-001  1.026316e-001
      vertex  6.989607e-001 -2.719446e-001 -2.892122e-017
      vertex  7.371297e-001 -1.383464e-001 -3.125839e-017
    endloop
  endfacet
  facet normal  9.957007e-001 -9.262923e-002  0.000000e+000
    outer loop
      vertex  7.371297e-001 -1.383464e-001  1.026316e-001
      vertex  7.371297e-001 -1.383464e-001 -3.125839e-017
      vertex  7.500000e-001  0.000000e+000  1.026316e-001
    endloop
  endfacet
  facet normal  9.957007e-001 -9.262923e-002  0.000000e+000
    outer loop
      vertex  7.500000e-001  0.000000e+000  1.026316e-001
      vertex  7.371297e-001 -1.383464e-001 -3.125839e-017
      vertex  7.500000e-001  0.000000e+000 -4.592425e-017
    endloop
  endfacet
  facet normal -9.085639e-017  6.195376e-017 -1.000000e+000
    outer loop
      vertex -7.387782e-001 -1.292547e-001  5.911491e-017
      vertex -7.499431e-001  9.239744e-003  6.870956e-017
      vertex  0.000000e+000  0.000000e+000  0.000000e+000
    endloop
  endfacet
  facet normal -6.123234e-017 -1.073678e-016 -1.000000e+000
    outer loop
      vertex -7.387782e-001 -1.292547e-001  5.911491e-017
      vertex  0.000000e+000  0.000000e+000  0.000000e+000
      vertex  7.500000e-001  0.000000e+000 -4.592425e-017
    endloop
  endfacet
  facet normal -6.184992e-017 -1.002544e-016 -9.999999e-001
    outer loop
      vertex -7.387782e-001 -1.292547e-001  5.911491e-017
      vertex  7.500000e-001  0.000000e+000 -4.592425e-017
      vertex  7.371297e-001 -1.383464e-001 -3.125839e-017
    endloop
  endfacet
  facet normal -6.123234e-017  2.306056e-023 -1.000000e+000
    outer loop
      vertex -7.387782e-001 -1.292547e-001  5.911491e-017
      vertex  7.371297e-001 -1.383464e-001 -3.125839e-017
      vertex  6.989607e-001 -2.719446e-001 -2.892122e-017
    endloop
  endfacet
  facet normal -6.123234e-017 -1.787127e-025 -1.000000e+000
    outer loop
      vertex -7.387782e-001 -1.292547e-001  5.911491e-017
      vertex  6.989607e-001 -2.719446e-001 -2.892122e-017
      vertex -7.022580e-001 -2.633130e-001  5.687869e-017
    endloop
  endfacet
  facet normal -6.123234e-017 -3.103788e-023 -1.000000e+000
    outer loop
      vertex  6.487045e-002 -7.471893e-001  9.905618e-018
      vertex -7.407065e-002 -7.463334e-001  1.841331e-017
      vertex  2.015852e-001 -7.224011e-001  1.534257e-018
    endloop
  endfacet
  facet normal -6.123234e-017 -1.725765e-023 -1.000000e+000
    outer loop
      vertex  2.015852e-001 -7.224011e-001  1.534257e-018
      vertex -7.407065e-002 -7.463334e-001  1.841331e-017
      vertex -2.104696e-001 -7.198629e-001  2.676533e-017
    endloop
  endfacet
  facet normal -6.123234e-017  2.467704e-024 -1.000000e+000
    outer loop
      vertex  2.015852e-001 -7.224011e-001  1.534257e-018
      vertex -2.104696e-001 -7.198629e-001  2.676533e-017
      vertex  3.313814e-001 -6.728197e-001 -6.413467e-018
    endloop
  endfacet
  facet normal -6.123234e-017 -7.575883e-023 -1.000000e+000
    outer loop
      vertex  3.313814e-001 -6.728197e-001 -6.413467e-018
      vertex -2.104696e-001 -7.198629e-001  2.676533e-017
      vertex -3.396451e-001 -6.686862e-001  3.467505e-017
    endloop
  endfacet
  facet normal -6.123234e-017 -1.139672e-022 -1.000000e+000
    outer loop
      vertex  3.313814e-001 -6.728197e-001 -6.413467e-018
      vertex -3.396451e-001 -6.686862e-001  3.467505e-017
      vertex  4.498043e-001 -6.001467e-001 -1.366478e-017
    endloop
  endfacet
  facet normal -6.123234e-017 -1.461678e-023 -1.000000e+000
    outer loop
      vertex  4.498043e-001 -6.001467e-001 -1.366478e-017
      vertex -3.396451e-001 -6.686862e-001  3.467505e-017
      vertex -4.571638e-001 -5.945597e-001  4.187100e-017
    endloop
  endfacet
  facet normal -6.123234e-017  9.467485e-023 -1.000000e+000
    outer loop
      vertex  4.498043e-001 -6.001467e-001 -1.366478e-017
      vertex -4.571638e-001 -5.945597e-001  4.187100e-017
      vertex  5.527897e-001 -5.068763e-001 -1.997082e-017
    endloop
  endfacet
  facet normal -6.123234e-017  8.279991e-024 -9.999999e-001
    outer loop
      vertex  5.527897e-001 -5.068763e-001 -1.997082e-017
      vertex -4.571638e-001 -5.945597e-001  4.187100e-017
      vertex -5.589923e-001 -5.000277e-001  4.810619e-017
    endloop
  endfacet
  facet normal -6.123234e-017 -2.168596e-023 -1.000000e+000
    outer loop
      vertex  5.527897e-001 -5.068763e-001 -1.997082e-017
      vertex -5.589923e-001 -5.000277e-001  4.810619e-017
      vertex  6.368030e-001 -3.962095e-001 -2.511515e-017
    endloop
  endfacet
  facet normal -6.123234e-017  3.584018e-023 -1.000000e+000
    outer loop
      vertex  6.368030e-001 -3.962095e-001 -2.511515e-017
      vertex -5.589923e-001 -5.000277e-001  4.810619e-017
      vertex -6.416358e-001 -3.883343e-001  5.316665e-017
    endloop
  endfacet
  facet normal -6.123234e-017 -1.010830e-022 -1.000000e+000
    outer loop
      vertex  6.368030e-001 -3.962095e-001 -2.511515e-017
      vertex -6.416358e-001 -3.883343e-001  5.316665e-017
      vertex  6.989607e-001 -2.719446e-001 -2.892122e-017
    endloop
  endfacet
  facet normal -6.123234e-017 -8.740263e-023 -1.000000e+000
    outer loop
      vertex  6.989607e-001 -2.719446e-001 -2.892122e-017
      vertex -6.416358e-001 -3.883343e-001  5.316665e-017
      vertex -7.022580e-001 -2.633130e-001  5.687869e-017
    endloop
  endfacet
endsolid CATIA STL
