solid CATIA STL
  facet normal -1.110223e-016  1.000000e+000 -5.551115e-017
    outer loop
      vertex -5.234375e-001  2.602085e-018 -2.734375e-001
      vertex -5.234375e-001  1.179612e-017 -1.078125e-001
      vertex  7.031250e-002  6.852158e-017 -2.734375e-001
    endloop
  endfacet
  facet normal -1.110223e-016  1.000000e+000 -5.551114e-017
    outer loop
      vertex  7.031250e-002  6.852158e-017 -2.734375e-001
      vertex -5.234375e-001  1.179612e-017 -1.078125e-001
      vertex  7.031250e-002  7.771561e-017 -1.078125e-001
    endloop
  endfacet
  facet normal -1.000000e+000  0.000000e+000  0.000000e+000
    outer loop
      vertex -5.234375e-001  2.602085e-018 -2.734375e-001
      vertex -5.234375e-001 -3.568147e-003 -2.913758e-001
      vertex -5.234375e-001  1.179612e-017 -1.078125e-001
    endloop
  endfacet
  facet normal -1.000000e+000  -0.000000e+000  0.000000e+000
    outer loop
      vertex -5.234375e-001  2.602085e-018 -2.734375e-001
      vertex -5.234375e-001 -9.006900e-004 -2.825824e-001
      vertex -5.234375e-001 -3.568147e-003 -2.913758e-001
    endloop
  endfacet
  facet normal -1.000000e+000  -0.000000e+000  0.000000e+000
    outer loop
      vertex -5.234375e-001 -1.372937e-002 -3.065831e-001
      vertex -5.234375e-001 -2.083264e-002 -3.124126e-001
      vertex -5.234375e-001 -2.893671e-002 -3.167444e-001
    endloop
  endfacet
  facet normal -1.000000e+000  -0.000000e+000  0.000000e+000
    outer loop
      vertex -5.234375e-001 -4.531250e-001 -1.078125e-001
      vertex -5.234375e-001  1.179612e-017 -1.078125e-001
      vertex -5.234375e-001 -3.773014e-002 -3.194118e-001
    endloop
  endfacet
  facet normal -1.000000e+000  -0.000000e+000  0.000000e+000
    outer loop
      vertex -5.234375e-001 -4.531250e-001 -1.078125e-001
      vertex -5.234375e-001 -3.773014e-002 -3.194118e-001
      vertex -5.234375e-001 -4.687500e-002 -3.203125e-001
    endloop
  endfacet
  facet normal -1.000000e+000  0.000000e+000  0.000000e+000
    outer loop
      vertex -5.234375e-001 -4.531250e-001 -1.078125e-001
      vertex -5.234375e-001 -4.687500e-002 -3.203125e-001
      vertex -5.234375e-001 -4.531250e-001 -3.203125e-001
    endloop
  endfacet
  facet normal -1.000000e+000  0.000000e+000  0.000000e+000
    outer loop
      vertex -5.234375e-001 -3.773014e-002 -3.194118e-001
      vertex -5.234375e-001  1.179612e-017 -1.078125e-001
      vertex -5.234375e-001 -3.568147e-003 -2.913758e-001
    endloop
  endfacet
  facet normal -1.000000e+000  0.000000e+000  0.000000e+000
    outer loop
      vertex -5.234375e-001 -3.773014e-002 -3.194118e-001
      vertex -5.234375e-001 -3.568147e-003 -2.913758e-001
      vertex -5.234375e-001 -7.899862e-003 -2.994798e-001
    endloop
  endfacet
  facet normal -1.000000e+000  0.000000e+000  0.000000e+000
    outer loop
      vertex -5.234375e-001 -3.773014e-002 -3.194118e-001
      vertex -5.234375e-001 -7.899862e-003 -2.994798e-001
      vertex -5.234375e-001 -1.372937e-002 -3.065831e-001
    endloop
  endfacet
  facet normal -9.999999e-001  0.000000e+000  0.000000e+000
    outer loop
      vertex -5.234375e-001 -3.773014e-002 -3.194118e-001
      vertex -5.234375e-001 -1.372937e-002 -3.065831e-001
      vertex -5.234375e-001 -2.893671e-002 -3.167444e-001
    endloop
  endfacet
  facet normal  1.000000e+000  0.000000e+000  0.000000e+000
    outer loop
      vertex  7.031250e-002 -1.372937e-002 -3.065831e-001
      vertex  7.031250e-002 -2.893671e-002 -3.167444e-001
      vertex  7.031250e-002 -2.083264e-002 -3.124126e-001
    endloop
  endfacet
  facet normal  1.000000e+000  0.000000e+000  0.000000e+000
    outer loop
      vertex  7.031250e-002 -4.531250e-001 -1.078125e-001
      vertex  7.031250e-002 -4.531250e-001 -3.203125e-001
      vertex  7.031250e-002 -4.687500e-002 -3.203125e-001
    endloop
  endfacet
  facet normal  1.000000e+000  0.000000e+000  -0.000000e+000
    outer loop
      vertex  7.031250e-002 -4.531250e-001 -1.078125e-001
      vertex  7.031250e-002 -4.687500e-002 -3.203125e-001
      vertex  7.031250e-002 -3.773014e-002 -3.194118e-001
    endloop
  endfacet
  facet normal  1.000000e+000  0.000000e+000  -0.000000e+000
    outer loop
      vertex  7.031250e-002 -4.531250e-001 -1.078125e-001
      vertex  7.031250e-002 -3.773014e-002 -3.194118e-001
      vertex  7.031250e-002  7.771561e-017 -1.078125e-001
    endloop
  endfacet
  facet normal  9.999999e-001  0.000000e+000  -0.000000e+000
    outer loop
      vertex  7.031250e-002 -3.773014e-002 -3.194118e-001
      vertex  7.031250e-002 -2.893671e-002 -3.167444e-001
      vertex  7.031250e-002 -1.372937e-002 -3.065831e-001
    endloop
  endfacet
  facet normal  1.000000e+000  0.000000e+000  -0.000000e+000
    outer loop
      vertex  7.031250e-002 -3.773014e-002 -3.194118e-001
      vertex  7.031250e-002 -1.372937e-002 -3.065831e-001
      vertex  7.031250e-002 -7.899862e-003 -2.994798e-001
    endloop
  endfacet
  facet normal  1.000000e+000  0.000000e+000  -0.000000e+000
    outer loop
      vertex  7.031250e-002 -3.773014e-002 -3.194118e-001
      vertex  7.031250e-002 -7.899862e-003 -2.994798e-001
      vertex  7.031250e-002 -3.568147e-003 -2.913758e-001
    endloop
  endfacet
  facet normal  1.000000e+000  0.000000e+000  -0.000000e+000
    outer loop
      vertex  7.031250e-002 -3.773014e-002 -3.194118e-001
      vertex  7.031250e-002 -3.568147e-003 -2.913758e-001
      vertex  7.031250e-002 -9.006900e-004 -2.825824e-001
    endloop
  endfacet
  facet normal  1.000000e+000  0.000000e+000  -0.000000e+000
    outer loop
      vertex  7.031250e-002 -3.773014e-002 -3.194118e-001
      vertex  7.031250e-002 -9.006900e-004 -2.825824e-001
      vertex  7.031250e-002  6.852158e-017 -2.734375e-001
    endloop
  endfacet
  facet normal  1.000000e+000  0.000000e+000  -0.000000e+000
    outer loop
      vertex  7.031250e-002 -3.773014e-002 -3.194118e-001
      vertex  7.031250e-002  6.852158e-017 -2.734375e-001
      vertex  7.031250e-002  7.771561e-017 -1.078125e-001
    endloop
  endfacet
  facet normal  0.000000e+000  0.000000e+000 -1.000000e+000
    outer loop
      vertex -5.234375e-001 -4.531250e-001 -3.203125e-001
      vertex -5.234375e-001 -4.687500e-002 -3.203125e-001
      vertex  7.031250e-002 -4.531250e-001 -3.203125e-001
    endloop
  endfacet
  facet normal  0.000000e+000  0.000000e+000 -1.000000e+000
    outer loop
      vertex  7.031250e-002 -4.531250e-001 -3.203125e-001
      vertex -5.234375e-001 -4.687500e-002 -3.203125e-001
      vertex  7.031250e-002 -4.687500e-002 -3.203125e-001
    endloop
  endfacet
  facet normal -1.104877e-016  9.951848e-001 -9.801700e-002
    outer loop
      vertex -5.234375e-001  2.602085e-018 -2.734375e-001
      vertex  7.031250e-002  6.852158e-017 -2.734375e-001
      vertex -5.234375e-001 -9.006900e-004 -2.825824e-001
    endloop
  endfacet
  facet normal  0.000000e+000  9.951848e-001 -9.801700e-002
    outer loop
      vertex -5.234375e-001 -9.006900e-004 -2.825824e-001
      vertex  7.031250e-002  6.852158e-017 -2.734375e-001
      vertex  7.031250e-002 -9.006900e-004 -2.825824e-001
    endloop
  endfacet
  facet normal  0.000000e+000  9.569403e-001 -2.902851e-001
    outer loop
      vertex -5.234375e-001 -9.006900e-004 -2.825824e-001
      vertex  7.031250e-002 -9.006900e-004 -2.825824e-001
      vertex -5.234375e-001 -3.568147e-003 -2.913758e-001
    endloop
  endfacet
  facet normal  0.000000e+000  9.569403e-001 -2.902851e-001
    outer loop
      vertex -5.234375e-001 -3.568147e-003 -2.913758e-001
      vertex  7.031250e-002 -9.006900e-004 -2.825824e-001
      vertex  7.031250e-002 -3.568147e-003 -2.913758e-001
    endloop
  endfacet
  facet normal  0.000000e+000  8.819210e-001 -4.713973e-001
    outer loop
      vertex -5.234375e-001 -3.568147e-003 -2.913758e-001
      vertex  7.031250e-002 -3.568147e-003 -2.913758e-001
      vertex -5.234375e-001 -7.899862e-003 -2.994798e-001
    endloop
  endfacet
  facet normal  0.000000e+000  8.819210e-001 -4.713973e-001
    outer loop
      vertex -5.234375e-001 -7.899862e-003 -2.994798e-001
      vertex  7.031250e-002 -3.568147e-003 -2.913758e-001
      vertex  7.031250e-002 -7.899862e-003 -2.994798e-001
    endloop
  endfacet
  facet normal  0.000000e+000  7.730113e-001 -6.343923e-001
    outer loop
      vertex -5.234375e-001 -7.899862e-003 -2.994798e-001
      vertex  7.031250e-002 -7.899862e-003 -2.994798e-001
      vertex -5.234375e-001 -1.372937e-002 -3.065831e-001
    endloop
  endfacet
  facet normal  0.000000e+000  7.730113e-001 -6.343923e-001
    outer loop
      vertex -5.234375e-001 -1.372937e-002 -3.065831e-001
      vertex  7.031250e-002 -7.899862e-003 -2.994798e-001
      vertex  7.031250e-002 -1.372937e-002 -3.065831e-001
    endloop
  endfacet
  facet normal  0.000000e+000  6.343936e-001 -7.730101e-001
    outer loop
      vertex -5.234375e-001 -1.372937e-002 -3.065831e-001
      vertex  7.031250e-002 -1.372937e-002 -3.065831e-001
      vertex -5.234375e-001 -2.083264e-002 -3.124126e-001
    endloop
  endfacet
  facet normal  0.000000e+000  6.343936e-001 -7.730101e-001
    outer loop
      vertex -5.234375e-001 -2.083264e-002 -3.124126e-001
      vertex  7.031250e-002 -1.372937e-002 -3.065831e-001
      vertex  7.031250e-002 -2.083264e-002 -3.124126e-001
    endloop
  endfacet
  facet normal  0.000000e+000  4.713961e-001 -8.819216e-001
    outer loop
      vertex -5.234375e-001 -2.083264e-002 -3.124126e-001
      vertex  7.031250e-002 -2.083264e-002 -3.124126e-001
      vertex -5.234375e-001 -2.893671e-002 -3.167444e-001
    endloop
  endfacet
  facet normal  0.000000e+000  4.713961e-001 -8.819216e-001
    outer loop
      vertex -5.234375e-001 -2.893671e-002 -3.167444e-001
      vertex  7.031250e-002 -2.083264e-002 -3.124126e-001
      vertex  7.031250e-002 -2.893671e-002 -3.167444e-001
    endloop
  endfacet
  facet normal  0.000000e+000  2.902846e-001 -9.569403e-001
    outer loop
      vertex -5.234375e-001 -2.893671e-002 -3.167444e-001
      vertex  7.031250e-002 -2.893671e-002 -3.167444e-001
      vertex -5.234375e-001 -3.773014e-002 -3.194118e-001
    endloop
  endfacet
  facet normal  0.000000e+000  2.902846e-001 -9.569403e-001
    outer loop
      vertex -5.234375e-001 -3.773014e-002 -3.194118e-001
      vertex  7.031250e-002 -2.893671e-002 -3.167444e-001
      vertex  7.031250e-002 -3.773014e-002 -3.194118e-001
    endloop
  endfacet
  facet normal  0.000000e+000  9.801670e-002 -9.951847e-001
    outer loop
      vertex -5.234375e-001 -3.773014e-002 -3.194118e-001
      vertex  7.031250e-002 -3.773014e-002 -3.194118e-001
      vertex -5.234375e-001 -4.687500e-002 -3.203125e-001
    endloop
  endfacet
  facet normal  0.000000e+000  9.801670e-002 -9.951847e-001
    outer loop
      vertex -5.234375e-001 -4.687500e-002 -3.203125e-001
      vertex  7.031250e-002 -3.773014e-002 -3.194118e-001
      vertex  7.031250e-002 -4.687500e-002 -3.203125e-001
    endloop
  endfacet
  facet normal  0.000000e+000 -1.000000e+000  0.000000e+000
    outer loop
      vertex -5.234375e-001 -4.531250e-001 -3.203125e-001
      vertex  7.031250e-002 -4.531250e-001 -3.203125e-001
      vertex -5.234375e-001 -4.531250e-001 -1.078125e-001
    endloop
  endfacet
  facet normal  0.000000e+000 -1.000000e+000  0.000000e+000
    outer loop
      vertex -5.234375e-001 -4.531250e-001 -1.078125e-001
      vertex  7.031250e-002 -4.531250e-001 -3.203125e-001
      vertex  7.031250e-002 -4.531250e-001 -1.078125e-001
    endloop
  endfacet
  facet normal  0.000000e+000  0.000000e+000  1.000000e+000
    outer loop
      vertex  7.031250e-002 -4.531250e-001 -1.078125e-001
      vertex  7.031250e-002  7.771561e-017 -1.078125e-001
      vertex -5.234375e-001 -4.531250e-001 -1.078125e-001
    endloop
  endfacet
  facet normal  0.000000e+000  0.000000e+000  1.000000e+000
    outer loop
      vertex -5.234375e-001 -4.531250e-001 -1.078125e-001
      vertex  7.031250e-002  7.771561e-017 -1.078125e-001
      vertex -5.234375e-001  1.179612e-017 -1.078125e-001
    endloop
  endfacet
  facet normal  -0.000000e+000 -9.999999e-001  0.000000e+000
    outer loop
      vertex -7.500000e-001 -4.531250e-001 -1.093750e-001
      vertex -5.240954e-001 -4.531250e-001 -1.060033e-001
      vertex -7.500000e-001 -4.531250e-001  1.484375e-001
    endloop
  endfacet
  facet normal  0.000000e+000 -1.000000e+000  0.000000e+000
    outer loop
      vertex -7.500000e-001 -4.531250e-001  1.484375e-001
      vertex -5.240954e-001 -4.531250e-001 -1.060033e-001
      vertex -5.240954e-001 -4.531250e-001  2.109375e-001
    endloop
  endfacet
  facet normal  -0.000000e+000 -1.000000e+000  0.000000e+000
    outer loop
      vertex -7.500000e-001 -4.531250e-001  1.484375e-001
      vertex -5.240954e-001 -4.531250e-001  2.109375e-001
      vertex -6.796875e-001 -4.531250e-001  2.109375e-001
    endloop
  endfacet
  facet normal -1.110223e-016  1.000000e+000 -5.551113e-017
    outer loop
      vertex -6.796875e-001  2.558717e-017  2.109375e-001
      vertex -5.240954e-001  4.286137e-017  2.109375e-001
      vertex -7.500000e-001  1.431147e-017  1.484375e-001
    endloop
  endfacet
  facet normal -1.110223e-016  1.000000e+000 -5.551116e-017
    outer loop
      vertex -7.500000e-001  1.431147e-017  1.484375e-001
      vertex -5.240954e-001  4.286137e-017  2.109375e-001
      vertex -5.240954e-001  2.526762e-017 -1.060033e-001
    endloop
  endfacet
  facet normal -1.110223e-016  9.999999e-001 -5.551115e-017
    outer loop
      vertex -7.500000e-001  1.431147e-017  1.484375e-001
      vertex -5.240954e-001  2.526762e-017 -1.060033e-001
      vertex -7.500000e-001 -1.552781e-033 -1.093750e-001
    endloop
  endfacet
  facet normal -1.000000e+000  0.000000e+000  0.000000e+000
    outer loop
      vertex -7.500000e-001  1.431147e-017  1.484375e-001
      vertex -7.500000e-001 -1.552781e-033 -1.093750e-001
      vertex -7.500000e-001 -4.531250e-001  1.484375e-001
    endloop
  endfacet
  facet normal -1.000000e+000  0.000000e+000  0.000000e+000
    outer loop
      vertex -7.500000e-001 -4.531250e-001  1.484375e-001
      vertex -7.500000e-001 -1.552781e-033 -1.093750e-001
      vertex -7.500000e-001 -4.531250e-001 -1.093750e-001
    endloop
  endfacet
  facet normal  -0.000000e+000  0.000000e+000  1.000000e+000
    outer loop
      vertex -5.240954e-001  4.286137e-017  2.109375e-001
      vertex -6.796875e-001  2.558717e-017  2.109375e-001
      vertex -5.240954e-001 -4.531250e-001  2.109375e-001
    endloop
  endfacet
  facet normal  0.000000e+000  0.000000e+000  1.000000e+000
    outer loop
      vertex -5.240954e-001 -4.531250e-001  2.109375e-001
      vertex -6.796875e-001  2.558717e-017  2.109375e-001
      vertex -6.796875e-001 -4.531250e-001  2.109375e-001
    endloop
  endfacet
  facet normal -6.643638e-001  0.000000e+000  7.474093e-001
    outer loop
      vertex -6.796875e-001 -4.531250e-001  2.109375e-001
      vertex -6.796875e-001  2.558717e-017  2.109375e-001
      vertex -7.500000e-001 -4.531250e-001  1.484375e-001
    endloop
  endfacet
  facet normal -6.643638e-001  0.000000e+000  7.474093e-001
    outer loop
      vertex -7.500000e-001 -4.531250e-001  1.484375e-001
      vertex -6.796875e-001  2.558717e-017  2.109375e-001
      vertex -7.500000e-001  1.431147e-017  1.484375e-001
    endloop
  endfacet
  facet normal  1.000000e+000  0.000000e+000  0.000000e+000
    outer loop
      vertex -5.240954e-001  2.526762e-017 -1.060033e-001
      vertex -5.240954e-001  4.286137e-017  2.109375e-001
      vertex -5.240954e-001 -4.531250e-001 -1.060033e-001
    endloop
  endfacet
  facet normal  1.000000e+000  0.000000e+000  0.000000e+000
    outer loop
      vertex -5.240954e-001 -4.531250e-001 -1.060033e-001
      vertex -5.240954e-001  4.286137e-017  2.109375e-001
      vertex -5.240954e-001 -4.531250e-001  2.109375e-001
    endloop
  endfacet
  facet normal  1.492370e-002  0.000000e+000 -9.998886e-001
    outer loop
      vertex -7.500000e-001 -1.552781e-033 -1.093750e-001
      vertex -5.240954e-001  2.526762e-017 -1.060033e-001
      vertex -7.500000e-001 -4.531250e-001 -1.093750e-001
    endloop
  endfacet
  facet normal  1.492370e-002  0.000000e+000 -9.998886e-001
    outer loop
      vertex -7.500000e-001 -4.531250e-001 -1.093750e-001
      vertex -5.240954e-001  2.526762e-017 -1.060033e-001
      vertex -5.240954e-001 -4.531250e-001 -1.060033e-001
    endloop
  endfacet
  facet normal  0.000000e+000 -1.000000e+000  0.000000e+000
    outer loop
      vertex -5.274671e-001 -4.531250e-001 -1.093750e-001
      vertex -7.500000e-001 -4.531250e-001 -1.127467e-001
      vertex -5.274671e-001 -4.531250e-001 -3.184211e-001
    endloop
  endfacet
  facet normal  -0.000000e+000 -1.000000e+000  0.000000e+000
    outer loop
      vertex -5.274671e-001 -4.531250e-001 -3.184211e-001
      vertex -7.500000e-001 -4.531250e-001 -1.127467e-001
      vertex -7.500000e-001 -4.531250e-001 -4.140625e-001
    endloop
  endfacet
  facet normal  0.000000e+000 -1.000000e+000  0.000000e+000
    outer loop
      vertex -5.274671e-001 -4.531250e-001 -3.184211e-001
      vertex -7.500000e-001 -4.531250e-001 -4.140625e-001
      vertex -5.274671e-001 -4.531250e-001 -4.140625e-001
    endloop
  endfacet
  facet normal -1.110223e-016  1.000000e+000 -5.551115e-017
    outer loop
      vertex -5.274671e-001  2.557348e-017 -4.140625e-001
      vertex -7.500000e-001  8.673617e-019 -4.140625e-001
      vertex -5.274671e-001  3.088264e-017 -3.184211e-001
    endloop
  endfacet
  facet normal -1.110223e-016  1.000000e+000 -5.551115e-017
    outer loop
      vertex -5.274671e-001  3.088264e-017 -3.184211e-001
      vertex -7.500000e-001  8.673617e-019 -4.140625e-001
      vertex -7.500000e-001  1.759375e-017 -1.127467e-001
    endloop
  endfacet
  facet normal -1.110223e-016  1.000000e+000 -5.551116e-017
    outer loop
      vertex -5.274671e-001  3.088264e-017 -3.184211e-001
      vertex -7.500000e-001  1.759375e-017 -1.127467e-001
      vertex -5.274671e-001  4.248703e-017 -1.093750e-001
    endloop
  endfacet
  facet normal -1.000000e+000  0.000000e+000  0.000000e+000
    outer loop
      vertex -7.500000e-001  1.759375e-017 -1.127467e-001
      vertex -7.500000e-001  8.673617e-019 -4.140625e-001
      vertex -7.500000e-001 -4.531250e-001 -1.127467e-001
    endloop
  endfacet
  facet normal -1.000000e+000  0.000000e+000  0.000000e+000
    outer loop
      vertex -7.500000e-001 -4.531250e-001 -1.127467e-001
      vertex -7.500000e-001  8.673617e-019 -4.140625e-001
      vertex -7.500000e-001 -4.531250e-001 -4.140625e-001
    endloop
  endfacet
  facet normal  1.000000e+000  0.000000e+000  0.000000e+000
    outer loop
      vertex -5.274671e-001  2.557348e-017 -4.140625e-001
      vertex -5.274671e-001  3.088264e-017 -3.184211e-001
      vertex -5.274671e-001 -4.531250e-001 -4.140625e-001
    endloop
  endfacet
  facet normal  1.000000e+000  0.000000e+000  0.000000e+000
    outer loop
      vertex -5.274671e-001 -4.531250e-001 -4.140625e-001
      vertex -5.274671e-001  3.088264e-017 -3.184211e-001
      vertex -5.274671e-001 -4.531250e-001 -3.184211e-001
    endloop
  endfacet
  facet normal  -0.000000e+000  0.000000e+000 -9.999999e-001
    outer loop
      vertex -7.343750e-001 -1.562500e-002 -4.296875e-001
      vertex -5.430921e-001 -1.562500e-002 -4.296875e-001
      vertex -7.343750e-001 -4.375000e-001 -4.296875e-001
    endloop
  endfacet
  facet normal  0.000000e+000  0.000000e+000 -9.999999e-001
    outer loop
      vertex -7.343750e-001 -4.375000e-001 -4.296875e-001
      vertex -5.430921e-001 -1.562500e-002 -4.296875e-001
      vertex -5.430921e-001 -4.375000e-001 -4.296875e-001
    endloop
  endfacet
  facet normal -7.071068e-001  0.000000e+000 -7.071068e-001
    outer loop
      vertex -7.500000e-001  8.673617e-019 -4.140625e-001
      vertex -7.343750e-001 -1.562500e-002 -4.296875e-001
      vertex -7.500000e-001 -4.531250e-001 -4.140625e-001
    endloop
  endfacet
  facet normal -7.071068e-001  0.000000e+000 -7.071068e-001
    outer loop
      vertex -7.500000e-001 -4.531250e-001 -4.140625e-001
      vertex -7.343750e-001 -1.562500e-002 -4.296875e-001
      vertex -7.343750e-001 -4.375000e-001 -4.296875e-001
    endloop
  endfacet
  facet normal -7.850463e-017  7.071068e-001 -7.071068e-001
    outer loop
      vertex -7.500000e-001  8.673617e-019 -4.140625e-001
      vertex -5.274671e-001  2.557348e-017 -4.140625e-001
      vertex -7.343750e-001 -1.562500e-002 -4.296875e-001
    endloop
  endfacet
  facet normal  0.000000e+000  7.071068e-001 -7.071068e-001
    outer loop
      vertex -7.343750e-001 -1.562500e-002 -4.296875e-001
      vertex -5.274671e-001  2.557348e-017 -4.140625e-001
      vertex -5.430921e-001 -1.562500e-002 -4.296875e-001
    endloop
  endfacet
  facet normal  7.071068e-001  0.000000e+000 -7.071068e-001
    outer loop
      vertex -5.274671e-001  2.557348e-017 -4.140625e-001
      vertex -5.274671e-001 -4.531250e-001 -4.140625e-001
      vertex -5.430921e-001 -1.562500e-002 -4.296875e-001
    endloop
  endfacet
  facet normal  7.071068e-001  0.000000e+000 -7.071068e-001
    outer loop
      vertex -5.430921e-001 -1.562500e-002 -4.296875e-001
      vertex -5.274671e-001 -4.531250e-001 -4.140625e-001
      vertex -5.430921e-001 -4.375000e-001 -4.296875e-001
    endloop
  endfacet
  facet normal  0.000000e+000 -7.071068e-001 -7.071068e-001
    outer loop
      vertex -7.500000e-001 -4.531250e-001 -4.140625e-001
      vertex -7.343750e-001 -4.375000e-001 -4.296875e-001
      vertex -5.274671e-001 -4.531250e-001 -4.140625e-001
    endloop
  endfacet
  facet normal  0.000000e+000 -7.071068e-001 -7.071068e-001
    outer loop
      vertex -5.274671e-001 -4.531250e-001 -4.140625e-001
      vertex -7.343750e-001 -4.375000e-001 -4.296875e-001
      vertex -5.430921e-001 -4.375000e-001 -4.296875e-001
    endloop
  endfacet
  facet normal -1.514977e-002  0.000000e+000  9.998853e-001
    outer loop
      vertex -5.274671e-001  4.248703e-017 -1.093750e-001
      vertex -7.500000e-001  1.759375e-017 -1.127467e-001
      vertex -5.274671e-001 -4.531250e-001 -1.093750e-001
    endloop
  endfacet
  facet normal -1.514977e-002  0.000000e+000  9.998853e-001
    outer loop
      vertex -5.274671e-001 -4.531250e-001 -1.093750e-001
      vertex -7.500000e-001  1.759375e-017 -1.127467e-001
      vertex -7.500000e-001 -4.531250e-001 -1.127467e-001
    endloop
  endfacet
  facet normal  1.000000e+000  0.000000e+000  0.000000e+000
    outer loop
      vertex -5.274671e-001  3.088264e-017 -3.184211e-001
      vertex -5.274671e-001  4.248703e-017 -1.093750e-001
      vertex -5.274671e-001 -4.531250e-001 -3.184211e-001
    endloop
  endfacet
  facet normal  1.000000e+000  0.000000e+000  0.000000e+000
    outer loop
      vertex -5.274671e-001 -4.531250e-001 -3.184211e-001
      vertex -5.274671e-001  4.248703e-017 -1.093750e-001
      vertex -5.274671e-001 -4.531250e-001 -1.093750e-001
    endloop
  endfacet
  facet normal  -0.000000e+000  9.980333e-001  6.268497e-002
    outer loop
      vertex -1.875000e-001  2.265625e-001  4.531250e-001
      vertex -7.500000e-001  2.265625e-001  4.531250e-001
      vertex -1.875000e-001  2.261753e-001  4.592896e-001
    endloop
  endfacet
  facet normal  6.883408e-004  9.999998e-001  0.000000e+000
    outer loop
      vertex -7.500000e-001  2.265625e-001  5.833881e-001
      vertex -1.875000e-001  2.261753e-001  4.592896e-001
      vertex -7.500000e-001  2.265625e-001  4.531250e-001
    endloop
  endfacet
  facet normal -2.972345e-002  9.900117e-001 -1.378160e-001
    outer loop
      vertex -1.875000e-001  2.265625e-001  4.620711e-001
      vertex -1.875000e-001  2.261753e-001  4.592896e-001
      vertex -7.500000e-001  2.265625e-001  5.833881e-001
    endloop
  endfacet
  facet normal  0.000000e+000  1.000000e+000  -0.000000e+000
    outer loop
      vertex  7.187500e-001  2.265625e-001  7.154606e-002
      vertex  7.187500e-001  2.265625e-001 -4.352104e-002
      vertex -1.875000e-001  2.265625e-001  4.620711e-001
    endloop
  endfacet
  facet normal  -0.000000e+000  1.000000e+000  0.000000e+000
    outer loop
      vertex  7.187500e-001  2.265625e-001  7.154606e-002
      vertex -1.875000e-001  2.265625e-001  4.620711e-001
      vertex -1.875000e-001  2.265625e-001  5.833881e-001
    endloop
  endfacet
  facet normal  -0.000000e+000  1.000000e+000  0.000000e+000
    outer loop
      vertex  7.187500e-001  2.265625e-001  7.154606e-002
      vertex -1.875000e-001  2.265625e-001  5.833881e-001
      vertex -1.875000e-001  2.265625e-001  5.866776e-001
    endloop
  endfacet
  facet normal  0.000000e+000  1.000000e+000  -0.000000e+000
    outer loop
      vertex -1.875000e-001  2.265625e-001  5.833881e-001
      vertex -1.875000e-001  2.265625e-001  4.620711e-001
      vertex -7.500000e-001  2.265625e-001  5.833881e-001
    endloop
  endfacet
  facet normal  5.551115e-017 -1.000000e+000  5.551115e-017
    outer loop
      vertex  7.187500e-001  2.912510e-017  7.154606e-002
      vertex -1.875000e-001  7.413660e-018  5.866776e-001
      vertex -1.875000e-001  7.231058e-018  5.833881e-001
    endloop
  endfacet
  facet normal  5.551116e-017 -1.000000e+000  5.551116e-017
    outer loop
      vertex  7.187500e-001  2.912510e-017  7.154606e-002
      vertex -1.875000e-001  7.231058e-018  5.833881e-001
      vertex -1.875000e-001 -1.911981e-033  4.531250e-001
    endloop
  endfacet
  facet normal  5.551116e-017 -1.000000e+000  5.551116e-017
    outer loop
      vertex  7.187500e-001  2.912510e-017  7.154606e-002
      vertex -1.875000e-001 -1.911981e-033  4.531250e-001
      vertex  7.187500e-001  2.224098e-017 -5.246710e-002
    endloop
  endfacet
  facet normal  5.551115e-017 -1.000000e+000  5.551115e-017
    outer loop
      vertex -7.500000e-001 -2.399397e-017  5.833881e-001
      vertex -7.500000e-001 -3.122502e-017  4.531250e-001
      vertex -1.875000e-001  7.231058e-018  5.833881e-001
    endloop
  endfacet
  facet normal  5.551115e-017 -1.000000e+000  5.551116e-017
    outer loop
      vertex -1.875000e-001  7.231058e-018  5.833881e-001
      vertex -7.500000e-001 -3.122502e-017  4.531250e-001
      vertex -1.875000e-001 -1.911981e-033  4.531250e-001
    endloop
  endfacet
  facet normal -1.000000e+000  -0.000000e+000  0.000000e+000
    outer loop
      vertex -7.500000e-001 -2.399397e-017  5.833881e-001
      vertex -7.500000e-001  2.265625e-001  5.833881e-001
      vertex -7.500000e-001 -3.122502e-017  4.531250e-001
    endloop
  endfacet
  facet normal -1.000000e+000  0.000000e+000  0.000000e+000
    outer loop
      vertex -7.500000e-001 -3.122502e-017  4.531250e-001
      vertex -7.500000e-001  2.265625e-001  5.833881e-001
      vertex -7.500000e-001  2.265625e-001  4.531250e-001
    endloop
  endfacet
  facet normal  1.000000e+000  0.000000e+000  0.000000e+000
    outer loop
      vertex -1.875000e-001  2.265625e-001  4.531250e-001
      vertex -1.875000e-001  2.261753e-001  4.592896e-001
      vertex -1.875000e-001  2.250661e-001  4.568058e-001
    endloop
  endfacet
  facet normal  1.000000e+000  0.000000e+000  0.000000e+000
    outer loop
      vertex -1.875000e-001  2.265625e-001  4.531250e-001
      vertex -1.875000e-001  2.250661e-001  4.568058e-001
      vertex -1.875000e-001  2.233448e-001  4.548358e-001
    endloop
  endfacet
  facet normal  1.000000e+000  0.000000e+000  0.000000e+000
    outer loop
      vertex -1.875000e-001  2.265625e-001  4.531250e-001
      vertex -1.875000e-001  2.233448e-001  4.548358e-001
      vertex -1.875000e-001  2.211705e-001  4.535652e-001
    endloop
  endfacet
  facet normal -1.000000e+000  -0.000000e+000  0.000000e+000
    outer loop
      vertex -1.875000e-001  7.413660e-018  5.866776e-001
      vertex -1.875000e-001  2.265625e-001  5.866776e-001
      vertex -1.875000e-001  7.231058e-018  5.833881e-001
    endloop
  endfacet
  facet normal -1.000000e+000  0.000000e+000  0.000000e+000
    outer loop
      vertex -1.875000e-001  7.231058e-018  5.833881e-001
      vertex -1.875000e-001  2.265625e-001  5.866776e-001
      vertex -1.875000e-001  2.265625e-001  5.833881e-001
    endloop
  endfacet
  facet normal -7.669553e-002  9.875318e-001 -1.374723e-001
    outer loop
      vertex -1.875000e-001  2.265625e-001  4.620711e-001
      vertex  7.187500e-001  2.261761e-001 -4.629954e-002
      vertex -1.875000e-001  2.261753e-001  4.592896e-001
    endloop
  endfacet
  facet normal -7.661142e-002  9.875593e-001 -1.373224e-001
    outer loop
      vertex -1.875000e-001  2.265625e-001  4.620711e-001
      vertex  7.187500e-001  2.265625e-001 -4.352104e-002
      vertex  7.187500e-001  2.261761e-001 -4.629954e-002
    endloop
  endfacet
  facet normal -2.227247e-001  8.893894e-001 -3.992244e-001
    outer loop
      vertex -1.875000e-001  2.261753e-001  4.592896e-001
      vertex  7.187500e-001  2.261761e-001 -4.629954e-002
      vertex  7.187500e-001  2.250453e-001 -4.881880e-002
    endloop
  endfacet
  facet normal -4.817857e-001  1.487118e-001 -8.635783e-001
    outer loop
      vertex  7.187500e-001  2.187500e-001 -5.246710e-002
      vertex -1.875000e-001  2.187500e-001  4.531250e-001
      vertex  7.187500e-001  2.210476e-001 -5.207148e-002
    endloop
  endfacet
  facet normal -4.811876e-001  1.568665e-001 -8.624682e-001
    outer loop
      vertex  7.187500e-001  2.210476e-001 -5.207148e-002
      vertex -1.875000e-001  2.187500e-001  4.531250e-001
      vertex -1.875000e-001  2.211705e-001  4.535652e-001
    endloop
  endfacet
  facet normal -4.369363e-001  4.423161e-001 -7.832261e-001
    outer loop
      vertex  7.187500e-001  2.210476e-001 -5.207148e-002
      vertex -1.875000e-001  2.211705e-001  4.535652e-001
      vertex  7.187500e-001  2.232754e-001 -5.081339e-002
    endloop
  endfacet
  facet normal -4.339716e-001  4.545555e-001 -7.778482e-001
    outer loop
      vertex  7.187500e-001  2.232754e-001 -5.081339e-002
      vertex -1.875000e-001  2.211705e-001  4.535652e-001
      vertex -1.875000e-001  2.233448e-001  4.548358e-001
    endloop
  endfacet
  facet normal -3.472342e-001  7.014363e-001 -6.224270e-001
    outer loop
      vertex  7.187500e-001  2.232754e-001 -5.081339e-002
      vertex -1.875000e-001  2.233448e-001  4.548358e-001
      vertex  7.187500e-001  2.250453e-001 -4.881880e-002
    endloop
  endfacet
  facet normal -3.445998e-001  7.069208e-001 -6.176681e-001
    outer loop
      vertex  7.187500e-001  2.250453e-001 -4.881880e-002
      vertex -1.875000e-001  2.233448e-001  4.548358e-001
      vertex -1.875000e-001  2.250661e-001  4.568058e-001
    endloop
  endfacet
  facet normal -2.218181e-001  8.903390e-001 -3.976095e-001
    outer loop
      vertex  7.187500e-001  2.250453e-001 -4.881880e-002
      vertex -1.875000e-001  2.250661e-001  4.568058e-001
      vertex -1.875000e-001  2.261753e-001  4.592896e-001
    endloop
  endfacet
  facet normal -4.872032e-001  0.000000e+000 -8.732886e-001
    outer loop
      vertex -1.875000e-001  2.187500e-001  4.531250e-001
      vertex  7.187500e-001  2.187500e-001 -5.246710e-002
      vertex -1.875000e-001 -1.911981e-033  4.531250e-001
    endloop
  endfacet
  facet normal -4.872032e-001  0.000000e+000 -8.732886e-001
    outer loop
      vertex -1.875000e-001 -1.911981e-033  4.531250e-001
      vertex  7.187500e-001  2.187500e-001 -5.246710e-002
      vertex  7.187500e-001  2.224098e-017 -5.246710e-002
    endloop
  endfacet
  facet normal  -0.000000e+000  0.000000e+000  1.000000e+000
    outer loop
      vertex -1.875000e-001  2.265625e-001  5.833881e-001
      vertex -7.500000e-001  2.265625e-001  5.833881e-001
      vertex -1.875000e-001  7.231058e-018  5.833881e-001
    endloop
  endfacet
  facet normal  0.000000e+000  0.000000e+000  1.000000e+000
    outer loop
      vertex -1.875000e-001  7.231058e-018  5.833881e-001
      vertex -7.500000e-001  2.265625e-001  5.833881e-001
      vertex -7.500000e-001 -2.399397e-017  5.833881e-001
    endloop
  endfacet
  facet normal  2.485016e-003  1.789211e-001 -9.838603e-001
    outer loop
      vertex -1.875000e-001  2.187500e-001  4.531250e-001
      vertex -7.500000e-001  2.265625e-001  4.531250e-001
      vertex -1.875000e-001  2.211705e-001  4.535652e-001
    endloop
  endfacet
  facet normal  0.000000e+000 -8.136491e-002 -9.966844e-001
    outer loop
      vertex -1.875000e-001  2.265625e-001  4.531250e-001
      vertex -1.875000e-001  2.211705e-001  4.535652e-001
      vertex -7.500000e-001  2.265625e-001  4.531250e-001
    endloop
  endfacet
  facet normal  0.000000e+000  0.000000e+000 -1.000000e+000
    outer loop
      vertex -7.500000e-001 -3.122502e-017  4.531250e-001
      vertex -7.500000e-001  2.265625e-001  4.531250e-001
      vertex -1.875000e-001 -1.911981e-033  4.531250e-001
    endloop
  endfacet
  facet normal  0.000000e+000  0.000000e+000 -1.000000e+000
    outer loop
      vertex -1.875000e-001 -1.911981e-033  4.531250e-001
      vertex -7.500000e-001  2.265625e-001  4.531250e-001
      vertex -1.875000e-001  2.187500e-001  4.531250e-001
    endloop
  endfacet
  facet normal  9.999999e-001  0.000000e+000  -0.000000e+000
    outer loop
      vertex  7.187500e-001  2.250453e-001 -4.881880e-002
      vertex  7.187500e-001  2.261761e-001 -4.629954e-002
      vertex  7.187500e-001  2.265625e-001 -4.352104e-002
    endloop
  endfacet
  facet normal  1.000000e+000  -0.000000e+000  0.000000e+000
    outer loop
      vertex  7.187500e-001  2.265625e-001  7.154606e-002
      vertex  7.187500e-001  2.912510e-017  7.154606e-002
      vertex  7.187500e-001  2.224098e-017 -5.246710e-002
    endloop
  endfacet
  facet normal  1.000000e+000  0.000000e+000  0.000000e+000
    outer loop
      vertex  7.187500e-001  2.265625e-001  7.154606e-002
      vertex  7.187500e-001  2.224098e-017 -5.246710e-002
      vertex  7.187500e-001  2.187500e-001 -5.246710e-002
    endloop
  endfacet
  facet normal  1.000000e+000  0.000000e+000  0.000000e+000
    outer loop
      vertex  7.187500e-001  2.265625e-001  7.154606e-002
      vertex  7.187500e-001  2.187500e-001 -5.246710e-002
      vertex  7.187500e-001  2.210476e-001 -5.207148e-002
    endloop
  endfacet
  facet normal  1.000000e+000  0.000000e+000  0.000000e+000
    outer loop
      vertex  7.187500e-001  2.265625e-001  7.154606e-002
      vertex  7.187500e-001  2.210476e-001 -5.207148e-002
      vertex  7.187500e-001  2.232754e-001 -5.081339e-002
    endloop
  endfacet
  facet normal  1.000000e+000  0.000000e+000  0.000000e+000
    outer loop
      vertex  7.187500e-001  2.265625e-001  7.154606e-002
      vertex  7.187500e-001  2.232754e-001 -5.081339e-002
      vertex  7.187500e-001  2.250453e-001 -4.881880e-002
    endloop
  endfacet
  facet normal  1.000000e+000  0.000000e+000  0.000000e+000
    outer loop
      vertex  7.187500e-001  2.265625e-001  7.154606e-002
      vertex  7.187500e-001  2.250453e-001 -4.881880e-002
      vertex  7.187500e-001  2.265625e-001 -4.352104e-002
    endloop
  endfacet
  facet normal  4.941666e-001  0.000000e+000  8.693672e-001
    outer loop
      vertex  7.187500e-001  2.265625e-001  7.154606e-002
      vertex -1.875000e-001  2.265625e-001  5.866776e-001
      vertex  7.187500e-001  2.912510e-017  7.154606e-002
    endloop
  endfacet
  facet normal  4.941666e-001  0.000000e+000  8.693672e-001
    outer loop
      vertex  7.187500e-001  2.912510e-017  7.154606e-002
      vertex -1.875000e-001  2.265625e-001  5.866776e-001
      vertex -1.875000e-001  7.413660e-018  5.866776e-001
    endloop
  endfacet
endsolid CATIA STL
