solid CATIA STL
  facet normal  3.584541e-019  1.224606e-016 -1.000000e+000
    outer loop
      vertex -7.265625e-001 -3.515625e-001 -8.662881e-017
      vertex -7.265625e-001  3.558388e-001  0.000000e+000
      vertex  7.343750e-001  3.515625e-001  0.000000e+000
    endloop
  endfacet
  facet normal  -0.000000e+000  -0.000000e+000 -9.999999e-001
    outer loop
      vertex -7.265625e-001  3.558388e-001  0.000000e+000
      vertex  7.343750e-001  3.558388e-001  0.000000e+000
      vertex  7.343750e-001  3.515625e-001  0.000000e+000
    endloop
  endfacet
  facet normal  1.976558e-017 -3.696163e-015 -1.000000e+000
    outer loop
      vertex -7.265625e-001 -3.515625e-001 -8.662881e-017
      vertex  7.343750e-001 -3.671875e-001  0.000000e+000
      vertex -7.265625e-001 -3.750000e-001  0.000000e+000
    endloop
  endfacet
  facet normal -6.123234e-017  1.145045e-014 -1.000000e+000
    outer loop
      vertex  7.343750e-001 -3.671875e-001  0.000000e+000
      vertex  7.343750e-001 -3.750000e-001 -8.945662e-017
      vertex -7.265625e-001 -3.750000e-001  0.000000e+000
    endloop
  endfacet
  facet normal -6.123229e-017  1.264152e-016 -1.000000e+000
    outer loop
      vertex  7.500000e-001  3.515625e-001  0.000000e+000
      vertex  7.500000e-001 -3.750000e-001 -9.184851e-017
      vertex  7.420231e-001 -3.750000e-001 -9.136006e-017
    endloop
  endfacet
  facet normal -1.168603e-014  2.540441e-016 -1.000000e+000
    outer loop
      vertex  7.500000e-001  3.515625e-001  0.000000e+000
      vertex  7.420231e-001 -3.750000e-001 -9.136006e-017
      vertex  7.343750e-001 -3.671875e-001  0.000000e+000
    endloop
  endfacet
  facet normal  5.928294e-017 -1.288760e-018 -1.000000e+000
    outer loop
      vertex  7.500000e-001  3.515625e-001  0.000000e+000
      vertex  7.343750e-001 -3.671875e-001  0.000000e+000
      vertex -7.265625e-001 -3.515625e-001 -8.662881e-017
    endloop
  endfacet
  facet normal  0.000000e+000  1.232054e-016 -1.000000e+000
    outer loop
      vertex  7.500000e-001  3.515625e-001  0.000000e+000
      vertex -7.265625e-001 -3.515625e-001 -8.662881e-017
      vertex  7.343750e-001  3.515625e-001  0.000000e+000
    endloop
  endfacet
  facet normal  0.000000e+000 -1.000000e+000  0.000000e+000
    outer loop
      vertex -7.265625e-001 -3.750000e-001  0.000000e+000
      vertex  7.343750e-001 -3.750000e-001 -8.945662e-017
      vertex -7.265625e-001 -3.750000e-001  1.537829e-001
    endloop
  endfacet
  facet normal  0.000000e+000 -1.000000e+000  0.000000e+000
    outer loop
      vertex -7.265625e-001 -3.750000e-001  1.537829e-001
      vertex  7.343750e-001 -3.750000e-001 -8.945662e-017
      vertex  7.343750e-001 -3.750000e-001  1.537829e-001
    endloop
  endfacet
  facet normal  1.000000e+000  0.000000e+000  0.000000e+000
    outer loop
      vertex  7.343750e-001 -3.750000e-001 -8.945662e-017
      vertex  7.343750e-001 -3.671875e-001  0.000000e+000
      vertex  7.343750e-001 -3.750000e-001  1.537829e-001
    endloop
  endfacet
  facet normal  1.000000e+000  -0.000000e+000  0.000000e+000
    outer loop
      vertex  7.343750e-001 -3.750000e-001  1.537829e-001
      vertex  7.343750e-001 -3.671875e-001  0.000000e+000
      vertex  7.343750e-001 -3.671875e-001  1.537829e-001
    endloop
  endfacet
  facet normal  0.000000e+000  9.999999e-001  0.000000e+000
    outer loop
      vertex -7.265625e-001 -3.515625e-001 -8.662881e-017
      vertex -7.265625e-001 -3.515625e-001  1.537829e-001
      vertex  7.265625e-001 -3.515625e-001  3.452670e-016
    endloop
  endfacet
  facet normal  0.000000e+000  9.999999e-001  -0.000000e+000
    outer loop
      vertex  7.265625e-001 -3.515625e-001  3.452670e-016
      vertex -7.265625e-001 -3.515625e-001  1.537829e-001
      vertex  7.265625e-001 -3.515625e-001  1.537829e-001
    endloop
  endfacet
  facet normal  0.000000e+000 -1.000000e+000  0.000000e+000
    outer loop
      vertex  7.342106e-001 -3.515625e-001  1.578947e-001
      vertex  7.265625e-001 -3.515625e-001  1.578947e-001
      vertex  7.342106e-001 -3.515625e-001  1.537829e-001
    endloop
  endfacet
  facet normal  0.000000e+000 -1.000000e+000  0.000000e+000
    outer loop
      vertex  7.342106e-001 -3.515625e-001  1.537829e-001
      vertex  7.265625e-001 -3.515625e-001  1.578947e-001
      vertex  7.265625e-001 -3.515625e-001  1.537829e-001
    endloop
  endfacet
  facet normal -9.992012e-001  -0.000000e+000 -3.996211e-002
    outer loop
      vertex  7.342106e-001 -3.671875e-001  1.578947e-001
      vertex  7.342106e-001 -3.515625e-001  1.578947e-001
      vertex  7.343750e-001 -3.671875e-001  1.537829e-001
    endloop
  endfacet
  facet normal -9.999446e-001 -1.052417e-002  0.000000e+000
    outer loop
      vertex  7.343750e-001 -3.671875e-001  1.537829e-001
      vertex  7.342106e-001 -3.515625e-001  1.578947e-001
      vertex  7.342106e-001 -3.515625e-001  1.537829e-001
    endloop
  endfacet
  facet normal -7.145876e-001 -6.995459e-001  0.000000e+000
    outer loop
      vertex  7.343750e-001 -3.671875e-001  0.000000e+000
      vertex  7.420231e-001 -3.750000e-001 -9.136006e-017
      vertex  7.343750e-001 -3.671875e-001  1.537829e-001
    endloop
  endfacet
  facet normal -7.145876e-001 -6.995459e-001  0.000000e+000
    outer loop
      vertex  7.343750e-001 -3.671875e-001  1.537829e-001
      vertex  7.420231e-001 -3.750000e-001 -9.136006e-017
      vertex  7.420231e-001 -3.750000e-001  1.578947e-001
    endloop
  endfacet
  facet normal -7.068242e-001 -7.068242e-001 -2.826877e-002
    outer loop
      vertex  7.343750e-001 -3.671875e-001  1.537829e-001
      vertex  7.420231e-001 -3.750000e-001  1.578947e-001
      vertex  7.342106e-001 -3.671875e-001  1.578947e-001
    endloop
  endfacet
  facet normal -7.653984e-004 -1.655535e-001  9.862006e-001
    outer loop
      vertex -7.265625e-001  3.044646e-001  7.055333e-001
      vertex -7.265625e-001  1.740129e-001  6.836344e-001
      vertex  7.343750e-001  1.868880e-001  6.869296e-001
    endloop
  endfacet
  facet normal  7.370210e-004 -3.256171e-001  9.455014e-001
    outer loop
      vertex  7.343750e-001  6.599076e-002  6.452943e-001
      vertex  7.343750e-001  1.868880e-001  6.869296e-001
      vertex -7.265625e-001  1.740129e-001  6.836344e-001
    endloop
  endfacet
  facet normal -9.826891e-004 -3.462616e-001  9.381375e-001
    outer loop
      vertex -7.265625e-001  1.740129e-001  6.836344e-001
      vertex -7.265625e-001  4.991883e-002  6.378319e-001
      vertex  7.343750e-001  6.599076e-002  6.452943e-001
    endloop
  endfacet
  facet normal  9.448024e-004 -4.905018e-001  8.714396e-001
    outer loop
      vertex  7.343750e-001 -4.543654e-002  5.825759e-001
      vertex  7.343750e-001  6.599076e-002  6.452943e-001
      vertex -7.265625e-001  4.991883e-002  6.378319e-001
    endloop
  endfacet
  facet normal -1.180988e-003 -5.148615e-001  8.572726e-001
    outer loop
      vertex -7.265625e-001  4.991883e-002  6.378319e-001
      vertex -7.265625e-001 -6.347869e-002  5.697275e-001
      vertex  7.343750e-001 -4.543654e-002  5.825759e-001
    endloop
  endfacet
  facet normal  1.133682e-003 -6.393603e-001  7.689065e-001
    outer loop
      vertex  7.343750e-001 -1.437533e-001  5.008236e-001
      vertex  7.343750e-001 -4.543654e-002  5.825759e-001
      vertex -7.265625e-001 -6.347869e-002  5.697275e-001
    endloop
  endfacet
  facet normal -1.360380e-003 -6.654598e-001  7.464325e-001
    outer loop
      vertex -7.265625e-001 -6.347869e-002  5.697275e-001
      vertex -7.265625e-001 -1.622147e-001  4.817024e-001
      vertex  7.343750e-001 -1.437533e-001  5.008236e-001
    endloop
  endfacet
  facet normal  1.303557e-003 -7.673298e-001  6.412512e-001
    outer loop
      vertex  7.343750e-001 -2.257475e-001  4.027084e-001
      vertex  7.343750e-001 -1.437533e-001  5.008236e-001
      vertex -7.265625e-001 -1.622147e-001  4.817024e-001
    endloop
  endfacet
  facet normal -1.520794e-003 -7.927896e-001  6.094935e-001
    outer loop
      vertex -7.265625e-001 -1.622147e-001  4.817024e-001
      vertex -7.265625e-001 -2.428367e-001  3.768345e-001
      vertex  7.343750e-001 -2.257475e-001  4.027084e-001
    endloop
  endfacet
  facet normal  1.454490e-003 -8.702290e-001  4.926452e-001
    outer loop
      vertex  7.343750e-001 -2.887399e-001  2.914358e-001
      vertex  7.343750e-001 -2.257475e-001  4.027084e-001
      vertex -7.265625e-001 -2.428367e-001  3.768345e-001
    endloop
  endfacet
  facet normal -1.662241e-003 -8.923994e-001  4.512434e-001
    outer loop
      vertex -7.265625e-001 -2.428367e-001  3.768345e-001
      vertex -7.265625e-001 -3.025259e-001  2.587904e-001
      vertex  7.343750e-001 -2.887399e-001  2.914358e-001
    endloop
  endfacet
  facet normal  0.000000e+000 -9.446971e-001  3.279440e-001
    outer loop
      vertex  7.265625e-001 -3.306727e-001  1.706415e-001
      vertex  7.343750e-001 -3.306727e-001  1.706415e-001
      vertex  7.343750e-001 -2.887399e-001  2.914358e-001
    endloop
  endfacet
  facet normal  1.588800e-003 -9.447278e-001  3.278519e-001
    outer loop
      vertex  7.265625e-001 -3.306727e-001  1.706415e-001
      vertex  7.343750e-001 -2.887399e-001  2.914358e-001
      vertex -7.265625e-001 -3.025259e-001  2.587904e-001
    endloop
  endfacet
  facet normal -1.794313e-003 -9.608060e-001  2.772156e-001
    outer loop
      vertex  7.265625e-001 -3.306727e-001  1.706415e-001
      vertex -7.265625e-001 -3.025259e-001  2.587904e-001
      vertex -7.265625e-001 -3.391953e-001  1.316976e-001
    endloop
  endfacet
  facet normal -3.230054e-004 -9.742966e-001  2.252685e-001
    outer loop
      vertex  7.265625e-001 -3.306727e-001  1.706415e-001
      vertex -7.265625e-001 -3.391953e-001  1.316976e-001
      vertex  7.265625e-001 -3.359016e-001  1.480263e-001
    endloop
  endfacet
  facet normal  -0.000000e+000  2.097691e-001  9.777510e-001
    outer loop
      vertex  7.343750e-001  5.661328e-001  6.754206e-001
      vertex -7.265625e-001  5.661328e-001  6.754206e-001
      vertex  7.343750e-001  4.411120e-001  7.022429e-001
    endloop
  endfacet
  facet normal -2.740664e-004  2.067064e-001  9.784030e-001
    outer loop
      vertex  7.343750e-001  4.411120e-001  7.022429e-001
      vertex -7.265625e-001  5.661328e-001  6.754206e-001
      vertex -7.265625e-001  4.367126e-001  7.027631e-001
    endloop
  endfacet
  facet normal  2.645855e-004  3.033287e-002  9.995398e-001
    outer loop
      vertex  7.343750e-001  4.411120e-001  7.022429e-001
      vertex -7.265625e-001  4.367126e-001  7.027631e-001
      vertex  7.343750e-001  3.133052e-001  7.061214e-001
    endloop
  endfacet
  facet normal -5.292028e-004  2.094230e-002  9.997805e-001
    outer loop
      vertex  7.343750e-001  3.133052e-001  7.061214e-001
      vertex -7.265625e-001  4.367126e-001  7.027631e-001
      vertex -7.265625e-001  3.044646e-001  7.055333e-001
    endloop
  endfacet
  facet normal  5.102627e-004 -1.500939e-001  9.886716e-001
    outer loop
      vertex  7.343750e-001  3.133052e-001  7.061214e-001
      vertex -7.265625e-001  3.044646e-001  7.055333e-001
      vertex  7.343750e-001  1.868880e-001  6.869296e-001
    endloop
  endfacet
  facet normal -2.778847e-017 -9.956198e-001  9.349507e-002
    outer loop
      vertex -7.265625e-001 -3.515625e-001 -8.662881e-017
      vertex  7.265625e-001 -3.515625e-001  3.452670e-016
      vertex -7.265625e-001 -3.391953e-001  1.316976e-001
    endloop
  endfacet
  facet normal -3.724649e-003 -9.986046e-001  5.267833e-002
    outer loop
      vertex -7.265625e-001 -3.391953e-001  1.316976e-001
      vertex  7.265625e-001 -3.515625e-001  3.452670e-016
      vertex  7.265625e-001 -3.476364e-001  7.442623e-002
    endloop
  endfacet
  facet normal  4.690480e-004 -9.875268e-001  1.574507e-001
    outer loop
      vertex -7.265625e-001 -3.391953e-001  1.316976e-001
      vertex  7.265625e-001 -3.476364e-001  7.442623e-002
      vertex  7.265625e-001 -3.359016e-001  1.480263e-001
    endloop
  endfacet
  facet normal -1.000000e+000  0.000000e+000  0.000000e+000
    outer loop
      vertex  7.265625e-001 -3.359016e-001  1.480263e-001
      vertex  7.265625e-001 -3.476364e-001  7.442623e-002
      vertex  7.265625e-001 -3.515625e-001  1.537829e-001
    endloop
  endfacet
  facet normal -1.000000e+000  0.000000e+000  0.000000e+000
    outer loop
      vertex  7.265625e-001 -3.476364e-001  7.442623e-002
      vertex  7.265625e-001 -3.515625e-001  3.452670e-016
      vertex  7.265625e-001 -3.515625e-001  1.537829e-001
    endloop
  endfacet
  facet normal -1.000000e+000  0.000000e+000  0.000000e+000
    outer loop
      vertex  7.265625e-001 -3.306727e-001  1.706415e-001
      vertex  7.265625e-001 -3.359016e-001  1.480263e-001
      vertex  7.265625e-001 -3.515625e-001  1.537829e-001
    endloop
  endfacet
  facet normal -1.000000e+000  0.000000e+000  0.000000e+000
    outer loop
      vertex  7.265625e-001 -3.306727e-001  1.706415e-001
      vertex  7.265625e-001 -3.515625e-001  1.537829e-001
      vertex  7.265625e-001 -3.515625e-001  1.578947e-001
    endloop
  endfacet
  facet normal -1.000000e+000  0.000000e+000  0.000000e+000
    outer loop
      vertex  7.265625e-001 -3.306727e-001  1.706415e-001
      vertex  7.265625e-001 -3.515625e-001  1.578947e-001
      vertex  7.265625e-001 -3.515625e-001  1.658717e-001
    endloop
  endfacet
  facet normal -1.000000e+000  0.000000e+000  0.000000e+000
    outer loop
      vertex  7.265625e-001 -3.306727e-001  1.706415e-001
      vertex  7.265625e-001 -3.515625e-001  1.658717e-001
      vertex  7.265625e-001 -3.516676e-001  1.671486e-001
    endloop
  endfacet
  facet normal -9.999999e-001  0.000000e+000  0.000000e+000
    outer loop
      vertex  7.265625e-001 -3.306727e-001  1.706415e-001
      vertex  7.265625e-001 -3.516676e-001  1.671486e-001
      vertex  7.265625e-001 -3.519799e-001  1.683912e-001
    endloop
  endfacet
  facet normal -9.999999e-001  0.000000e+000  0.000000e+000
    outer loop
      vertex  7.265625e-001 -3.306727e-001  1.706415e-001
      vertex  7.265625e-001 -3.519799e-001  1.683912e-001
      vertex  7.265625e-001 -3.524911e-001  1.695660e-001
    endloop
  endfacet
  facet normal -1.000000e+000  0.000000e+000  0.000000e+000
    outer loop
      vertex  7.265625e-001 -3.306727e-001  1.706415e-001
      vertex  7.265625e-001 -3.524911e-001  1.695660e-001
      vertex  7.265625e-001 -3.531875e-001  1.706415e-001
    endloop
  endfacet
  facet normal -9.999999e-001  -0.000000e+000  0.000000e+000
    outer loop
      vertex -7.265625e-001  5.661328e-001  6.754206e-001
      vertex -7.265625e-001  3.558388e-001  0.000000e+000
      vertex -7.265625e-001 -3.515625e-001 -8.662881e-017
    endloop
  endfacet
  facet normal -1.000000e+000  0.000000e+000  0.000000e+000
    outer loop
      vertex -7.265625e-001  5.661328e-001  6.754206e-001
      vertex -7.265625e-001 -3.515625e-001 -8.662881e-017
      vertex -7.265625e-001 -3.391953e-001  1.316976e-001
    endloop
  endfacet
  facet normal -1.000000e+000  0.000000e+000  0.000000e+000
    outer loop
      vertex -7.265625e-001  5.661328e-001  6.754206e-001
      vertex -7.265625e-001 -3.391953e-001  1.316976e-001
      vertex -7.265625e-001 -3.025259e-001  2.587904e-001
    endloop
  endfacet
  facet normal -1.000000e+000  0.000000e+000  0.000000e+000
    outer loop
      vertex -7.265625e-001  5.661328e-001  6.754206e-001
      vertex -7.265625e-001 -3.025259e-001  2.587904e-001
      vertex -7.265625e-001 -2.428367e-001  3.768345e-001
    endloop
  endfacet
  facet normal -1.000000e+000  0.000000e+000  0.000000e+000
    outer loop
      vertex -7.265625e-001  5.661328e-001  6.754206e-001
      vertex -7.265625e-001 -2.428367e-001  3.768345e-001
      vertex -7.265625e-001 -1.622147e-001  4.817024e-001
    endloop
  endfacet
  facet normal -1.000000e+000  0.000000e+000  0.000000e+000
    outer loop
      vertex -7.265625e-001  5.661328e-001  6.754206e-001
      vertex -7.265625e-001 -1.622147e-001  4.817024e-001
      vertex -7.265625e-001 -6.347869e-002  5.697275e-001
    endloop
  endfacet
  facet normal -1.000000e+000  0.000000e+000  0.000000e+000
    outer loop
      vertex -7.265625e-001  5.661328e-001  6.754206e-001
      vertex -7.265625e-001 -6.347869e-002  5.697275e-001
      vertex -7.265625e-001  4.991883e-002  6.378319e-001
    endloop
  endfacet
  facet normal -1.000000e+000  0.000000e+000  0.000000e+000
    outer loop
      vertex -7.265625e-001  5.661328e-001  6.754206e-001
      vertex -7.265625e-001  4.991883e-002  6.378319e-001
      vertex -7.265625e-001  1.740129e-001  6.836344e-001
    endloop
  endfacet
  facet normal -1.000000e+000  0.000000e+000  0.000000e+000
    outer loop
      vertex -7.265625e-001  5.661328e-001  6.754206e-001
      vertex -7.265625e-001  1.740129e-001  6.836344e-001
      vertex -7.265625e-001  3.044646e-001  7.055333e-001
    endloop
  endfacet
  facet normal -1.000000e+000  0.000000e+000  0.000000e+000
    outer loop
      vertex -7.265625e-001  5.661328e-001  6.754206e-001
      vertex -7.265625e-001  3.044646e-001  7.055333e-001
      vertex -7.265625e-001  4.367126e-001  7.027631e-001
    endloop
  endfacet
  facet normal -1.000000e+000  -0.000000e+000  0.000000e+000
    outer loop
      vertex -7.265625e-001 -3.750000e-001  1.537829e-001
      vertex -7.265625e-001 -3.515625e-001  1.537829e-001
      vertex -7.265625e-001 -3.750000e-001  0.000000e+000
    endloop
  endfacet
  facet normal -1.000000e+000  0.000000e+000  0.000000e+000
    outer loop
      vertex -7.265625e-001 -3.750000e-001  0.000000e+000
      vertex -7.265625e-001 -3.515625e-001  1.537829e-001
      vertex -7.265625e-001 -3.515625e-001 -8.662881e-017
    endloop
  endfacet
  facet normal  0.000000e+000  0.000000e+000  1.000000e+000
    outer loop
      vertex  7.343750e-001 -3.671875e-001  1.537829e-001
      vertex  7.342106e-001 -3.515625e-001  1.537829e-001
      vertex  7.265625e-001 -3.515625e-001  1.537829e-001
    endloop
  endfacet
  facet normal  0.000000e+000  0.000000e+000  1.000000e+000
    outer loop
      vertex -7.265625e-001 -3.515625e-001  1.537829e-001
      vertex -7.265625e-001 -3.750000e-001  1.537829e-001
      vertex  7.265625e-001 -3.515625e-001  1.537829e-001
    endloop
  endfacet
  facet normal  0.000000e+000  0.000000e+000  1.000000e+000
    outer loop
      vertex  7.265625e-001 -3.515625e-001  1.537829e-001
      vertex -7.265625e-001 -3.750000e-001  1.537829e-001
      vertex  7.343750e-001 -3.750000e-001  1.537829e-001
    endloop
  endfacet
  facet normal  0.000000e+000  -0.000000e+000  1.000000e+000
    outer loop
      vertex  7.265625e-001 -3.515625e-001  1.537829e-001
      vertex  7.343750e-001 -3.750000e-001  1.537829e-001
      vertex  7.343750e-001 -3.671875e-001  1.537829e-001
    endloop
  endfacet
  facet normal  1.000000e+000  0.000000e+000  0.000000e+000
    outer loop
      vertex -7.342106e-001 -3.750000e-001 -9.668264e-019
      vertex -7.342106e-001 -3.515625e-001 -9.668264e-019
      vertex -7.342106e-001 -3.750000e-001  1.578947e-001
    endloop
  endfacet
  facet normal  1.000000e+000  -0.000000e+000  0.000000e+000
    outer loop
      vertex -7.342106e-001 -3.750000e-001  1.578947e-001
      vertex -7.342106e-001 -3.515625e-001 -9.668264e-019
      vertex -7.342106e-001 -3.515625e-001  1.578947e-001
    endloop
  endfacet
  facet normal  0.000000e+000 -1.000000e+000  0.000000e+000
    outer loop
      vertex  7.500000e-001 -3.750000e-001  1.658717e-001
      vertex -7.500000e-001 -3.750000e-001  1.658717e-001
      vertex -7.342106e-001 -3.750000e-001  1.578947e-001
    endloop
  endfacet
  facet normal  0.000000e+000 -1.000000e+000  0.000000e+000
    outer loop
      vertex  7.500000e-001 -3.750000e-001  1.658717e-001
      vertex -7.342106e-001 -3.750000e-001  1.578947e-001
      vertex  7.420231e-001 -3.750000e-001  1.578947e-001
    endloop
  endfacet
  facet normal  0.000000e+000 -1.000000e+000  0.000000e+000
    outer loop
      vertex  7.500000e-001 -3.750000e-001  1.658717e-001
      vertex  7.420231e-001 -3.750000e-001  1.578947e-001
      vertex  7.420231e-001 -3.750000e-001 -9.136006e-017
    endloop
  endfacet
  facet normal  0.000000e+000 -1.000000e+000  0.000000e+000
    outer loop
      vertex  7.500000e-001 -3.750000e-001  1.658717e-001
      vertex  7.420231e-001 -3.750000e-001 -9.136006e-017
      vertex  7.500000e-001 -3.750000e-001 -9.184851e-017
    endloop
  endfacet
  facet normal  0.000000e+000 -1.000000e+000  0.000000e+000
    outer loop
      vertex -7.500000e-001 -3.750000e-001  0.000000e+000
      vertex -7.342106e-001 -3.750000e-001 -9.668264e-019
      vertex -7.500000e-001 -3.750000e-001  1.658717e-001
    endloop
  endfacet
  facet normal  0.000000e+000 -1.000000e+000  0.000000e+000
    outer loop
      vertex -7.500000e-001 -3.750000e-001  1.658717e-001
      vertex -7.342106e-001 -3.750000e-001 -9.668264e-019
      vertex -7.342106e-001 -3.750000e-001  1.578947e-001
    endloop
  endfacet
  facet normal  0.000000e+000  0.000000e+000 -1.000000e+000
    outer loop
      vertex -7.342106e-001 -3.750000e-001  1.578947e-001
      vertex -7.342106e-001 -3.515625e-001  1.578947e-001
      vertex  7.265625e-001 -3.515625e-001  1.578947e-001
    endloop
  endfacet
  facet normal  0.000000e+000  -0.000000e+000 -1.000000e+000
    outer loop
      vertex -7.342106e-001 -3.750000e-001  1.578947e-001
      vertex  7.265625e-001 -3.515625e-001  1.578947e-001
      vertex  7.342106e-001 -3.515625e-001  1.578947e-001
    endloop
  endfacet
  facet normal  0.000000e+000  -0.000000e+000 -1.000000e+000
    outer loop
      vertex -7.342106e-001 -3.750000e-001  1.578947e-001
      vertex  7.342106e-001 -3.515625e-001  1.578947e-001
      vertex  7.342106e-001 -3.671875e-001  1.578947e-001
    endloop
  endfacet
  facet normal  0.000000e+000  -0.000000e+000 -1.000000e+000
    outer loop
      vertex -7.342106e-001 -3.750000e-001  1.578947e-001
      vertex  7.342106e-001 -3.671875e-001  1.578947e-001
      vertex  7.420231e-001 -3.750000e-001  1.578947e-001
    endloop
  endfacet
  facet normal  0.000000e+000 -7.800802e-002  9.969527e-001
    outer loop
      vertex  7.421875e-001 -3.671875e-001  1.736842e-001
      vertex -7.434065e-001 -3.684105e-001  1.735885e-001
      vertex  7.434065e-001 -3.684105e-001  1.735885e-001
    endloop
  endfacet
  facet normal  0.000000e+000 -7.800802e-002  9.969527e-001
    outer loop
      vertex  7.421875e-001 -3.671875e-001  1.736842e-001
      vertex -7.421875e-001 -3.671875e-001  1.736842e-001
      vertex -7.434065e-001 -3.684105e-001  1.735885e-001
    endloop
  endfacet
  facet normal  0.000000e+000 -2.347676e-001  9.720515e-001
    outer loop
      vertex -7.434065e-001 -3.684105e-001  1.735885e-001
      vertex -7.446138e-001 -3.696139e-001  1.732979e-001
      vertex  7.434065e-001 -3.684105e-001  1.735885e-001
    endloop
  endfacet
  facet normal  0.000000e+000 -2.347676e-001  9.720516e-001
    outer loop
      vertex  7.434065e-001 -3.684105e-001  1.735885e-001
      vertex -7.446138e-001 -3.696139e-001  1.732979e-001
      vertex  7.446138e-001 -3.696139e-001  1.732979e-001
    endloop
  endfacet
  facet normal  0.000000e+000 -3.852601e-001  9.228081e-001
    outer loop
      vertex -7.446138e-001 -3.696139e-001  1.732979e-001
      vertex -7.457617e-001 -3.707617e-001  1.728187e-001
      vertex  7.446138e-001 -3.696139e-001  1.732979e-001
    endloop
  endfacet
  facet normal  0.000000e+000 -3.852600e-001  9.228080e-001
    outer loop
      vertex  7.446138e-001 -3.696139e-001  1.732979e-001
      vertex -7.457617e-001 -3.707617e-001  1.728187e-001
      vertex  7.457617e-001 -3.707617e-001  1.728187e-001
    endloop
  endfacet
  facet normal  0.000000e+000 -5.272451e-001  8.497131e-001
    outer loop
      vertex -7.457617e-001 -3.707617e-001  1.728187e-001
      vertex -7.468250e-001 -3.718249e-001  1.721589e-001
      vertex  7.457617e-001 -3.707617e-001  1.728187e-001
    endloop
  endfacet
  facet normal  0.000000e+000 -5.272452e-001  8.497132e-001
    outer loop
      vertex  7.457617e-001 -3.707617e-001  1.728187e-001
      vertex -7.468250e-001 -3.718249e-001  1.721589e-001
      vertex  7.468250e-001 -3.718249e-001  1.721589e-001
    endloop
  endfacet
  facet normal  0.000000e+000 -6.564578e-001  7.543627e-001
    outer loop
      vertex -7.468250e-001 -3.718249e-001  1.721589e-001
      vertex -7.477740e-001 -3.727740e-001  1.713330e-001
      vertex  7.468250e-001 -3.718249e-001  1.721589e-001
    endloop
  endfacet
  facet normal  0.000000e+000 -6.564578e-001  7.543628e-001
    outer loop
      vertex  7.468250e-001 -3.718249e-001  1.721589e-001
      vertex -7.477740e-001 -3.727740e-001  1.713330e-001
      vertex  7.477740e-001 -3.727740e-001  1.713330e-001
    endloop
  endfacet
  facet normal  0.000000e+000 -7.692548e-001  6.389422e-001
    outer loop
      vertex -7.477740e-001 -3.727740e-001  1.713330e-001
      vertex -7.485812e-001 -3.735812e-001  1.703612e-001
      vertex  7.477740e-001 -3.727740e-001  1.713330e-001
    endloop
  endfacet
  facet normal  0.000000e+000 -7.692547e-001  6.389422e-001
    outer loop
      vertex  7.477740e-001 -3.727740e-001  1.713330e-001
      vertex -7.485812e-001 -3.735812e-001  1.703612e-001
      vertex  7.485812e-001 -3.735812e-001  1.703612e-001
    endloop
  endfacet
  facet normal  0.000000e+000 -9.004101e-001  4.350422e-001
    outer loop
      vertex -7.485812e-001 -3.735812e-001  1.703612e-001
      vertex -7.496783e-001 -3.746783e-001  1.680906e-001
      vertex  7.485812e-001 -3.735812e-001  1.703612e-001
    endloop
  endfacet
  facet normal  0.000000e+000 -9.896504e-001  1.434996e-001
    outer loop
      vertex -7.500000e-001 -3.750000e-001  1.658717e-001
      vertex  7.500000e-001 -3.750000e-001  1.658717e-001
      vertex -7.496783e-001 -3.746783e-001  1.680906e-001
    endloop
  endfacet
  facet normal  0.000000e+000 -9.896504e-001  1.434996e-001
    outer loop
      vertex -7.496783e-001 -3.746783e-001  1.680906e-001
      vertex  7.500000e-001 -3.750000e-001  1.658717e-001
      vertex  7.496783e-001 -3.746783e-001  1.680906e-001
    endloop
  endfacet
  facet normal  0.000000e+000 -9.004100e-001  4.350422e-001
    outer loop
      vertex -7.496783e-001 -3.746783e-001  1.680906e-001
      vertex  7.496783e-001 -3.746783e-001  1.680906e-001
      vertex  7.485812e-001 -3.735812e-001  1.703612e-001
    endloop
  endfacet
  facet normal -7.826011e-002  0.000000e+000  9.969329e-001
    outer loop
      vertex -7.421875e-001 -3.671875e-001  1.736842e-001
      vertex -7.434065e-001 -3.581520e-001  1.735885e-001
      vertex -7.434065e-001 -3.684105e-001  1.735885e-001
    endloop
  endfacet
  facet normal -7.826012e-002  0.000000e+000  9.969330e-001
    outer loop
      vertex -7.421875e-001 -3.671875e-001  1.736842e-001
      vertex -7.421875e-001 -3.593750e-001  1.736842e-001
      vertex -7.434065e-001 -3.581520e-001  1.735885e-001
    endloop
  endfacet
  facet normal -9.004147e-001  0.000000e+000  4.350326e-001
    outer loop
      vertex -7.496783e-001 -3.518842e-001  1.680906e-001
      vertex -7.485812e-001 -3.735812e-001  1.703612e-001
      vertex -7.485812e-001 -3.529813e-001  1.703612e-001
    endloop
  endfacet
  facet normal -7.692432e-001  0.000000e+000  6.389561e-001
    outer loop
      vertex -7.485812e-001 -3.735812e-001  1.703612e-001
      vertex -7.477740e-001 -3.727740e-001  1.713330e-001
      vertex -7.485812e-001 -3.529813e-001  1.703612e-001
    endloop
  endfacet
  facet normal -7.692432e-001  0.000000e+000  6.389561e-001
    outer loop
      vertex -7.485812e-001 -3.529813e-001  1.703612e-001
      vertex -7.477740e-001 -3.727740e-001  1.713330e-001
      vertex -7.477740e-001 -3.537885e-001  1.713330e-001
    endloop
  endfacet
  facet normal -6.564696e-001  0.000000e+000  7.543525e-001
    outer loop
      vertex -7.477740e-001 -3.727740e-001  1.713330e-001
      vertex -7.468250e-001 -3.718249e-001  1.721589e-001
      vertex -7.477740e-001 -3.537885e-001  1.713330e-001
    endloop
  endfacet
  facet normal -6.564696e-001  0.000000e+000  7.543525e-001
    outer loop
      vertex -7.477740e-001 -3.537885e-001  1.713330e-001
      vertex -7.468250e-001 -3.718249e-001  1.721589e-001
      vertex -7.468250e-001 -3.547376e-001  1.721589e-001
    endloop
  endfacet
  facet normal -5.272345e-001  0.000000e+000  8.497198e-001
    outer loop
      vertex -7.468250e-001 -3.718249e-001  1.721589e-001
      vertex -7.457617e-001 -3.707617e-001  1.728187e-001
      vertex -7.468250e-001 -3.547376e-001  1.721589e-001
    endloop
  endfacet
  facet normal -5.272345e-001  0.000000e+000  8.497199e-001
    outer loop
      vertex -7.468250e-001 -3.547376e-001  1.721589e-001
      vertex -7.457617e-001 -3.707617e-001  1.728187e-001
      vertex -7.457617e-001 -3.558008e-001  1.728187e-001
    endloop
  endfacet
  facet normal -3.852516e-001  0.000000e+000  9.228116e-001
    outer loop
      vertex -7.457617e-001 -3.707617e-001  1.728187e-001
      vertex -7.446138e-001 -3.696139e-001  1.732979e-001
      vertex -7.457617e-001 -3.558008e-001  1.728187e-001
    endloop
  endfacet
  facet normal -3.852516e-001  0.000000e+000  9.228116e-001
    outer loop
      vertex -7.457617e-001 -3.558008e-001  1.728187e-001
      vertex -7.446138e-001 -3.696139e-001  1.732979e-001
      vertex -7.446138e-001 -3.569486e-001  1.732979e-001
    endloop
  endfacet
  facet normal -2.340446e-001  0.000000e+000  9.722258e-001
    outer loop
      vertex -7.446138e-001 -3.696139e-001  1.732979e-001
      vertex -7.434065e-001 -3.684105e-001  1.735885e-001
      vertex -7.446138e-001 -3.569486e-001  1.732979e-001
    endloop
  endfacet
  facet normal -2.340446e-001  0.000000e+000  9.722259e-001
    outer loop
      vertex -7.446138e-001 -3.569486e-001  1.732979e-001
      vertex -7.434065e-001 -3.684105e-001  1.735885e-001
      vertex -7.434065e-001 -3.581520e-001  1.735885e-001
    endloop
  endfacet
  facet normal -9.896504e-001  0.000000e+000  1.434996e-001
    outer loop
      vertex -7.500000e-001 -3.515625e-001  1.658717e-001
      vertex -7.500000e-001 -3.750000e-001  1.658717e-001
      vertex -7.496783e-001 -3.518842e-001  1.680906e-001
    endloop
  endfacet
  facet normal -9.896504e-001  0.000000e+000  1.434996e-001
    outer loop
      vertex -7.496783e-001 -3.518842e-001  1.680906e-001
      vertex -7.500000e-001 -3.750000e-001  1.658717e-001
      vertex -7.496783e-001 -3.746783e-001  1.680906e-001
    endloop
  endfacet
  facet normal -9.004147e-001  0.000000e+000  4.350326e-001
    outer loop
      vertex -7.496783e-001 -3.518842e-001  1.680906e-001
      vertex -7.496783e-001 -3.746783e-001  1.680906e-001
      vertex -7.485812e-001 -3.735812e-001  1.703612e-001
    endloop
  endfacet
  facet normal  0.000000e+000  0.000000e+000  1.000000e+000
    outer loop
      vertex  7.421875e-001 -3.671875e-001  1.736842e-001
      vertex  7.421875e-001 -3.593750e-001  1.736842e-001
      vertex -7.421875e-001 -3.671875e-001  1.736842e-001
    endloop
  endfacet
  facet normal  0.000000e+000  0.000000e+000  1.000000e+000
    outer loop
      vertex -7.421875e-001 -3.671875e-001  1.736842e-001
      vertex  7.421875e-001 -3.593750e-001  1.736842e-001
      vertex -7.421875e-001 -3.593750e-001  1.736842e-001
    endloop
  endfacet
  facet normal  7.826011e-002  -0.000000e+000  9.969329e-001
    outer loop
      vertex  7.421875e-001 -3.593750e-001  1.736842e-001
      vertex  7.434065e-001 -3.684105e-001  1.735885e-001
      vertex  7.434065e-001 -3.581520e-001  1.735885e-001
    endloop
  endfacet
  facet normal  7.826012e-002  -0.000000e+000  9.969330e-001
    outer loop
      vertex  7.421875e-001 -3.593750e-001  1.736842e-001
      vertex  7.421875e-001 -3.671875e-001  1.736842e-001
      vertex  7.434065e-001 -3.684105e-001  1.735885e-001
    endloop
  endfacet
  facet normal  2.340446e-001  0.000000e+000  9.722259e-001
    outer loop
      vertex  7.434065e-001 -3.684105e-001  1.735885e-001
      vertex  7.446138e-001 -3.696139e-001  1.732979e-001
      vertex  7.434065e-001 -3.581520e-001  1.735885e-001
    endloop
  endfacet
  facet normal  2.340446e-001  -0.000000e+000  9.722258e-001
    outer loop
      vertex  7.434065e-001 -3.581520e-001  1.735885e-001
      vertex  7.446138e-001 -3.696139e-001  1.732979e-001
      vertex  7.446138e-001 -3.569486e-001  1.732979e-001
    endloop
  endfacet
  facet normal  3.852516e-001  0.000000e+000  9.228116e-001
    outer loop
      vertex  7.446138e-001 -3.696139e-001  1.732979e-001
      vertex  7.457617e-001 -3.707617e-001  1.728187e-001
      vertex  7.446138e-001 -3.569486e-001  1.732979e-001
    endloop
  endfacet
  facet normal  3.852516e-001  -0.000000e+000  9.228116e-001
    outer loop
      vertex  7.446138e-001 -3.569486e-001  1.732979e-001
      vertex  7.457617e-001 -3.707617e-001  1.728187e-001
      vertex  7.457617e-001 -3.558008e-001  1.728187e-001
    endloop
  endfacet
  facet normal  5.272345e-001  0.000000e+000  8.497199e-001
    outer loop
      vertex  7.457617e-001 -3.707617e-001  1.728187e-001
      vertex  7.468250e-001 -3.718249e-001  1.721589e-001
      vertex  7.457617e-001 -3.558008e-001  1.728187e-001
    endloop
  endfacet
  facet normal  5.272345e-001  -0.000000e+000  8.497198e-001
    outer loop
      vertex  7.457617e-001 -3.558008e-001  1.728187e-001
      vertex  7.468250e-001 -3.718249e-001  1.721589e-001
      vertex  7.468250e-001 -3.547376e-001  1.721589e-001
    endloop
  endfacet
  facet normal  6.564696e-001  0.000000e+000  7.543525e-001
    outer loop
      vertex  7.468250e-001 -3.718249e-001  1.721589e-001
      vertex  7.477740e-001 -3.727740e-001  1.713330e-001
      vertex  7.468250e-001 -3.547376e-001  1.721589e-001
    endloop
  endfacet
  facet normal  6.975815e-001  3.896676e-003  7.164949e-001
    outer loop
      vertex  7.483749e-001 -3.531875e-001  1.706415e-001
      vertex  7.468250e-001 -3.547376e-001  1.721589e-001
      vertex  7.477740e-001 -3.727740e-001  1.713330e-001
    endloop
  endfacet
  facet normal  9.896305e-001 -9.429260e-004  1.436335e-001
    outer loop
      vertex  7.496783e-001 -3.746783e-001  1.680906e-001
      vertex  7.500000e-001 -3.750000e-001  1.658717e-001
      vertex  7.500000e-001  3.515625e-001  1.706415e-001
    endloop
  endfacet
  facet normal  8.834363e-001 -2.037088e-003  4.685469e-001
    outer loop
      vertex  7.496783e-001 -3.746783e-001  1.680906e-001
      vertex  7.500000e-001  3.515625e-001  1.706415e-001
      vertex  7.483749e-001 -3.531875e-001  1.706415e-001
    endloop
  endfacet
  facet normal  8.601012e-001 -8.378949e-003  5.100546e-001
    outer loop
      vertex  7.496783e-001 -3.746783e-001  1.680906e-001
      vertex  7.483749e-001 -3.531875e-001  1.706415e-001
      vertex  7.477740e-001 -3.727740e-001  1.713330e-001
    endloop
  endfacet
  facet normal  7.070622e-001  7.071514e-001 -5.233942e-005
    outer loop
      vertex  7.496783e-001 -3.746783e-001  1.680906e-001
      vertex  7.477740e-001 -3.727740e-001  1.713330e-001
      vertex  7.485812e-001 -3.735812e-001  1.703612e-001
    endloop
  endfacet
  facet normal  1.000000e+000  0.000000e+000  0.000000e+000
    outer loop
      vertex  7.500000e-001 -3.750000e-001 -9.184851e-017
      vertex  7.500000e-001  3.515625e-001  0.000000e+000
      vertex  7.500000e-001 -3.750000e-001  1.658717e-001
    endloop
  endfacet
  facet normal  1.000000e+000  -0.000000e+000  0.000000e+000
    outer loop
      vertex  7.500000e-001 -3.750000e-001  1.658717e-001
      vertex  7.500000e-001  3.515625e-001  0.000000e+000
      vertex  7.500000e-001  3.515625e-001  1.706415e-001
    endloop
  endfacet
  facet normal -9.999999e-001  -0.000000e+000  0.000000e+000
    outer loop
      vertex -7.500000e-001 -3.750000e-001  1.658717e-001
      vertex -7.500000e-001 -3.515625e-001  1.658717e-001
      vertex -7.500000e-001 -3.750000e-001  0.000000e+000
    endloop
  endfacet
  facet normal -9.999999e-001  0.000000e+000  0.000000e+000
    outer loop
      vertex -7.500000e-001 -3.750000e-001  0.000000e+000
      vertex -7.500000e-001 -3.515625e-001  1.658717e-001
      vertex -7.500000e-001 -3.515625e-001  0.000000e+000
    endloop
  endfacet
  facet normal  0.000000e+000  1.000000e+000  0.000000e+000
    outer loop
      vertex  7.500000e-001  3.515625e-001  0.000000e+000
      vertex  7.343750e-001  3.515625e-001  0.000000e+000
      vertex  7.500000e-001  3.515625e-001  1.706415e-001
    endloop
  endfacet
  facet normal  0.000000e+000  1.000000e+000  0.000000e+000
    outer loop
      vertex  7.500000e-001  3.515625e-001  1.706415e-001
      vertex  7.343750e-001  3.515625e-001  0.000000e+000
      vertex  7.343750e-001  3.515625e-001  1.706415e-001
    endloop
  endfacet
  facet normal  0.000000e+000  1.000000e+000  -0.000000e+000
    outer loop
      vertex -7.342106e-001 -3.515625e-001  1.578947e-001
      vertex -7.342106e-001 -3.515625e-001 -9.668264e-019
      vertex -7.500000e-001 -3.515625e-001  0.000000e+000
    endloop
  endfacet
  facet normal  0.000000e+000  1.000000e+000  0.000000e+000
    outer loop
      vertex -7.342106e-001 -3.515625e-001  1.578947e-001
      vertex -7.500000e-001 -3.515625e-001  0.000000e+000
      vertex -7.500000e-001 -3.515625e-001  1.658717e-001
    endloop
  endfacet
  facet normal  -0.000000e+000  9.999999e-001  0.000000e+000
    outer loop
      vertex -7.342106e-001 -3.515625e-001  1.578947e-001
      vertex -7.500000e-001 -3.515625e-001  1.658717e-001
      vertex  7.265625e-001 -3.515625e-001  1.658717e-001
    endloop
  endfacet
  facet normal  0.000000e+000  1.000000e+000  0.000000e+000
    outer loop
      vertex -7.342106e-001 -3.515625e-001  1.578947e-001
      vertex  7.265625e-001 -3.515625e-001  1.658717e-001
      vertex  7.265625e-001 -3.515625e-001  1.578947e-001
    endloop
  endfacet
  facet normal  0.000000e+000  0.000000e+000  1.000000e+000
    outer loop
      vertex  7.343750e-001 -3.306727e-001  1.706415e-001
      vertex  7.500000e-001  3.515625e-001  1.706415e-001
      vertex  7.343750e-001  3.515625e-001  1.706415e-001
    endloop
  endfacet
  facet normal  0.000000e+000  0.000000e+000  1.000000e+000
    outer loop
      vertex  7.483749e-001 -3.531875e-001  1.706415e-001
      vertex  7.500000e-001  3.515625e-001  1.706415e-001
      vertex  7.343750e-001 -3.306727e-001  1.706415e-001
    endloop
  endfacet
  facet normal  0.000000e+000  0.000000e+000  1.000000e+000
    outer loop
      vertex  7.483749e-001 -3.531875e-001  1.706415e-001
      vertex  7.343750e-001 -3.306727e-001  1.706415e-001
      vertex  7.265625e-001 -3.306727e-001  1.706415e-001
    endloop
  endfacet
  facet normal  0.000000e+000  0.000000e+000  1.000000e+000
    outer loop
      vertex  7.483749e-001 -3.531875e-001  1.706415e-001
      vertex  7.265625e-001 -3.306727e-001  1.706415e-001
      vertex  7.265625e-001 -3.531875e-001  1.706415e-001
    endloop
  endfacet
  facet normal  0.000000e+000  7.800802e-002  9.969527e-001
    outer loop
      vertex -7.421875e-001 -3.593750e-001  1.736842e-001
      vertex  7.434065e-001 -3.581520e-001  1.735885e-001
      vertex -7.434065e-001 -3.581520e-001  1.735885e-001
    endloop
  endfacet
  facet normal  0.000000e+000  7.800802e-002  9.969527e-001
    outer loop
      vertex -7.421875e-001 -3.593750e-001  1.736842e-001
      vertex  7.421875e-001 -3.593750e-001  1.736842e-001
      vertex  7.434065e-001 -3.581520e-001  1.735885e-001
    endloop
  endfacet
  facet normal -9.397016e-005  9.966328e-001  8.199436e-002
    outer loop
      vertex  7.265625e-001 -3.515625e-001  1.658717e-001
      vertex -7.496783e-001 -3.518842e-001  1.680906e-001
      vertex  7.265625e-001 -3.516676e-001  1.671486e-001
    endloop
  endfacet
  facet normal  -0.000000e+000  9.896504e-001  1.434996e-001
    outer loop
      vertex  7.265625e-001 -3.515625e-001  1.658717e-001
      vertex -7.500000e-001 -3.515625e-001  1.658717e-001
      vertex -7.496783e-001 -3.518842e-001  1.680906e-001
    endloop
  endfacet
  facet normal  1.321263e-005  9.698269e-001  2.437942e-001
    outer loop
      vertex -7.496783e-001 -3.518842e-001  1.680906e-001
      vertex  7.265625e-001 -3.519799e-001  1.683912e-001
      vertex  7.265625e-001 -3.516676e-001  1.671486e-001
    endloop
  endfacet
  facet normal -3.022589e-005  9.004043e-001  4.350541e-001
    outer loop
      vertex  7.265625e-001 -3.519799e-001  1.683912e-001
      vertex -7.496783e-001 -3.518842e-001  1.680906e-001
      vertex -7.485812e-001 -3.529813e-001  1.703612e-001
    endloop
  endfacet
  facet normal -8.957315e-005  9.169416e-001  3.990212e-001
    outer loop
      vertex  7.265625e-001 -3.519799e-001  1.683912e-001
      vertex -7.485812e-001 -3.529813e-001  1.703612e-001
      vertex  7.265625e-001 -3.524911e-001  1.695660e-001
    endloop
  endfacet
  facet normal  1.409734e-005  8.393907e-001  5.435285e-001
    outer loop
      vertex  7.265625e-001 -3.531875e-001  1.706415e-001
      vertex  7.265625e-001 -3.524911e-001  1.695660e-001
      vertex -7.485812e-001 -3.529813e-001  1.703612e-001
    endloop
  endfacet
  facet normal  -0.000000e+000  5.272451e-001  8.497131e-001
    outer loop
      vertex  7.468250e-001 -3.547376e-001  1.721589e-001
      vertex -7.457617e-001 -3.558008e-001  1.728187e-001
      vertex  7.457617e-001 -3.558008e-001  1.728187e-001
    endloop
  endfacet
  facet normal  0.000000e+000  3.852600e-001  9.228080e-001
    outer loop
      vertex -7.457617e-001 -3.558008e-001  1.728187e-001
      vertex -7.446138e-001 -3.569486e-001  1.732979e-001
      vertex  7.457617e-001 -3.558008e-001  1.728187e-001
    endloop
  endfacet
  facet normal  -0.000000e+000  3.852601e-001  9.228081e-001
    outer loop
      vertex  7.457617e-001 -3.558008e-001  1.728187e-001
      vertex -7.446138e-001 -3.569486e-001  1.732979e-001
      vertex  7.446138e-001 -3.569486e-001  1.732979e-001
    endloop
  endfacet
  facet normal  0.000000e+000  2.347676e-001  9.720516e-001
    outer loop
      vertex -7.446138e-001 -3.569486e-001  1.732979e-001
      vertex -7.434065e-001 -3.581520e-001  1.735885e-001
      vertex  7.446138e-001 -3.569486e-001  1.732979e-001
    endloop
  endfacet
  facet normal  -0.000000e+000  2.347676e-001  9.720515e-001
    outer loop
      vertex  7.446138e-001 -3.569486e-001  1.732979e-001
      vertex -7.434065e-001 -3.581520e-001  1.735885e-001
      vertex  7.434065e-001 -3.581520e-001  1.735885e-001
    endloop
  endfacet
  facet normal  0.000000e+000  5.272452e-001  8.497132e-001
    outer loop
      vertex -7.468250e-001 -3.547376e-001  1.721589e-001
      vertex -7.457617e-001 -3.558008e-001  1.728187e-001
      vertex  7.468250e-001 -3.547376e-001  1.721589e-001
    endloop
  endfacet
  facet normal  0.000000e+000  6.995655e-001  7.145685e-001
    outer loop
      vertex -7.468250e-001 -3.547376e-001  1.721589e-001
      vertex  7.468250e-001 -3.547376e-001  1.721589e-001
      vertex  7.483749e-001 -3.531875e-001  1.706415e-001
    endloop
  endfacet
  facet normal  0.000000e+000  6.995655e-001  7.145686e-001
    outer loop
      vertex -7.468250e-001 -3.547376e-001  1.721589e-001
      vertex  7.483749e-001 -3.531875e-001  1.706415e-001
      vertex  7.265625e-001 -3.531875e-001  1.706415e-001
    endloop
  endfacet
  facet normal -3.275447e-005  7.152901e-001  6.988276e-001
    outer loop
      vertex -7.468250e-001 -3.547376e-001  1.721589e-001
      vertex  7.265625e-001 -3.531875e-001  1.706415e-001
      vertex -7.485812e-001 -3.529813e-001  1.703612e-001
    endloop
  endfacet
  facet normal  7.071809e-001  7.070327e-001 -1.447753e-004
    outer loop
      vertex -7.468250e-001 -3.547376e-001  1.721589e-001
      vertex -7.485812e-001 -3.529813e-001  1.703612e-001
      vertex -7.477740e-001 -3.537885e-001  1.713330e-001
    endloop
  endfacet
  facet normal -6.123243e-017  -0.000000e+000 -9.999999e-001
    outer loop
      vertex -7.500000e-001 -3.750000e-001  0.000000e+000
      vertex -7.500000e-001 -3.515625e-001  0.000000e+000
      vertex -7.342106e-001 -3.750000e-001 -9.668264e-019
    endloop
  endfacet
  facet normal -6.123243e-017  0.000000e+000 -9.999999e-001
    outer loop
      vertex -7.342106e-001 -3.750000e-001 -9.668264e-019
      vertex -7.500000e-001 -3.515625e-001  0.000000e+000
      vertex -7.342106e-001 -3.515625e-001 -9.668264e-019
    endloop
  endfacet
  facet normal  1.000000e+000  0.000000e+000  0.000000e+000
    outer loop
      vertex  7.343750e-001  3.515625e-001  1.706415e-001
      vertex  7.343750e-001  3.515625e-001  0.000000e+000
      vertex  7.343750e-001  3.558388e-001  0.000000e+000
    endloop
  endfacet
  facet normal  1.000000e+000  0.000000e+000  0.000000e+000
    outer loop
      vertex  7.343750e-001  5.661328e-001  6.754206e-001
      vertex  7.343750e-001  4.411120e-001  7.022429e-001
      vertex  7.343750e-001  3.133052e-001  7.061214e-001
    endloop
  endfacet
  facet normal  1.000000e+000  0.000000e+000  0.000000e+000
    outer loop
      vertex  7.343750e-001  5.661328e-001  6.754206e-001
      vertex  7.343750e-001  3.133052e-001  7.061214e-001
      vertex  7.343750e-001  1.868880e-001  6.869296e-001
    endloop
  endfacet
  facet normal  1.000000e+000  0.000000e+000  0.000000e+000
    outer loop
      vertex  7.343750e-001  5.661328e-001  6.754206e-001
      vertex  7.343750e-001  1.868880e-001  6.869296e-001
      vertex  7.343750e-001  6.599076e-002  6.452943e-001
    endloop
  endfacet
  facet normal  1.000000e+000  -0.000000e+000  0.000000e+000
    outer loop
      vertex  7.343750e-001  5.661328e-001  6.754206e-001
      vertex  7.343750e-001  6.599076e-002  6.452943e-001
      vertex  7.343750e-001 -4.543654e-002  5.825759e-001
    endloop
  endfacet
  facet normal  1.000000e+000  -0.000000e+000  0.000000e+000
    outer loop
      vertex  7.343750e-001  5.661328e-001  6.754206e-001
      vertex  7.343750e-001 -4.543654e-002  5.825759e-001
      vertex  7.343750e-001 -1.437533e-001  5.008236e-001
    endloop
  endfacet
  facet normal  1.000000e+000  -0.000000e+000  0.000000e+000
    outer loop
      vertex  7.343750e-001  5.661328e-001  6.754206e-001
      vertex  7.343750e-001 -1.437533e-001  5.008236e-001
      vertex  7.343750e-001 -2.257475e-001  4.027084e-001
    endloop
  endfacet
  facet normal  1.000000e+000  -0.000000e+000  0.000000e+000
    outer loop
      vertex  7.343750e-001  5.661328e-001  6.754206e-001
      vertex  7.343750e-001 -2.257475e-001  4.027084e-001
      vertex  7.343750e-001 -2.887399e-001  2.914358e-001
    endloop
  endfacet
  facet normal  1.000000e+000  -0.000000e+000  0.000000e+000
    outer loop
      vertex  7.343750e-001  5.661328e-001  6.754206e-001
      vertex  7.343750e-001 -2.887399e-001  2.914358e-001
      vertex  7.343750e-001 -3.306727e-001  1.706415e-001
    endloop
  endfacet
  facet normal  1.000000e+000  0.000000e+000  0.000000e+000
    outer loop
      vertex  7.343750e-001  5.661328e-001  6.754206e-001
      vertex  7.343750e-001 -3.306727e-001  1.706415e-001
      vertex  7.343750e-001  3.515625e-001  1.706415e-001
    endloop
  endfacet
  facet normal  1.000000e+000  -0.000000e+000  0.000000e+000
    outer loop
      vertex  7.343750e-001  5.661328e-001  6.754206e-001
      vertex  7.343750e-001  3.515625e-001  1.706415e-001
      vertex  7.343750e-001  3.558388e-001  0.000000e+000
    endloop
  endfacet
  facet normal  0.000000e+000  9.547914e-001 -2.972769e-001
    outer loop
      vertex -7.265625e-001  5.661328e-001  6.754206e-001
      vertex  7.343750e-001  5.661328e-001  6.754206e-001
      vertex -7.265625e-001  3.558388e-001  0.000000e+000
    endloop
  endfacet
  facet normal  0.000000e+000  9.547914e-001 -2.972769e-001
    outer loop
      vertex -7.265625e-001  3.558388e-001  0.000000e+000
      vertex  7.343750e-001  5.661328e-001  6.754206e-001
      vertex  7.343750e-001  3.558388e-001  0.000000e+000
    endloop
  endfacet
endsolid CATIA STL
