solid CATIA STL
  facet normal -3.091959e-008 -7.867449e-001 -6.172784e-001
    outer loop
      vertex -1.640625e-001 -2.456930e-002  2.276189e-002
      vertex  5.098684e-003 -6.142324e-003 -7.240018e-004
      vertex -1.640625e-001 -3.071162e-002  3.059052e-002
    endloop
  endfacet
  facet normal  4.367311e-017 -7.867449e-001 -6.172782e-001
    outer loop
      vertex  7.812500e-001 -6.142324e-003 -7.240018e-004
      vertex  5.098684e-003  6.904656e-018 -8.552631e-003
      vertex  7.812500e-001  4.998971e-017 -8.552631e-003
    endloop
  endfacet
  facet normal  4.367312e-017 -7.867449e-001 -6.172782e-001
    outer loop
      vertex -4.851974e-003  6.352283e-018 -8.552631e-003
      vertex  5.098684e-003  6.904656e-018 -8.552631e-003
      vertex  7.812500e-001 -6.142324e-003 -7.240018e-004
    endloop
  endfacet
  facet normal  -0.000000e+000 -7.867449e-001 -6.172782e-001
    outer loop
      vertex -4.851974e-003  6.352283e-018 -8.552631e-003
      vertex  7.812500e-001 -6.142324e-003 -7.240018e-004
      vertex  5.098684e-003 -6.142324e-003 -7.240018e-004
    endloop
  endfacet
  facet normal -1.047813e-009 -7.867449e-001 -6.172782e-001
    outer loop
      vertex -4.851974e-003  6.352283e-018 -8.552631e-003
      vertex  5.098684e-003 -6.142324e-003 -7.240018e-004
      vertex -1.640625e-001 -2.456930e-002  2.276189e-002
    endloop
  endfacet
  facet normal -5.551115e-017  1.000000e+000 -6.245005e-017
    outer loop
      vertex -1.640625e-001  6.214190e-019  4.120066e-002
      vertex  5.098684e-003  7.526075e-018  1.398026e-003
      vertex -1.640625e-001  0.000000e+000  3.125000e-002
    endloop
  endfacet
  facet normal -5.551115e-017  1.000000e+000 -6.245026e-017
    outer loop
      vertex  7.812500e-001  4.998971e-017 -8.552631e-003
      vertex  5.098684e-003  6.904656e-018 -8.552631e-003
      vertex  7.812500e-001  5.061113e-017  1.398026e-003
    endloop
  endfacet
  facet normal -5.551114e-017  1.000000e+000 -6.245003e-017
    outer loop
      vertex -4.851974e-003  6.352283e-018 -8.552631e-003
      vertex -1.640625e-001  0.000000e+000  3.125000e-002
      vertex  5.098684e-003  7.526075e-018  1.398026e-003
    endloop
  endfacet
  facet normal -5.551115e-017  1.000000e+000 -6.245002e-017
    outer loop
      vertex -4.851974e-003  6.352283e-018 -8.552631e-003
      vertex  5.098684e-003  7.526075e-018  1.398026e-003
      vertex  7.812500e-001  5.061113e-017  1.398026e-003
    endloop
  endfacet
  facet normal -5.551082e-017  1.000000e+000 -6.247619e-017
    outer loop
      vertex -4.851974e-003  6.352283e-018 -8.552631e-003
      vertex  7.812500e-001  5.061113e-017  1.398026e-003
      vertex  5.098684e-003  6.904656e-018 -8.552631e-003
    endloop
  endfacet
  facet normal -9.999999e-001  0.000000e+000  -0.000000e+000
    outer loop
      vertex -1.640625e-001 -1.624637e-002  3.847337e-002
      vertex -1.640625e-001 -8.236850e-003  4.051410e-002
      vertex -1.640625e-001  6.214190e-019  4.120066e-002
    endloop
  endfacet
  facet normal -1.000000e+000  0.000000e+000  0.000000e+000
    outer loop
      vertex -1.640625e-001  0.000000e+000  3.125000e-002
      vertex -1.640625e-001 -6.589480e-003  3.070075e-002
      vertex -1.640625e-001 -2.380752e-002  3.513480e-002
    endloop
  endfacet
  facet normal -1.000000e+000  0.000000e+000  0.000000e+000
    outer loop
      vertex -1.640625e-001  0.000000e+000  3.125000e-002
      vertex -1.640625e-001 -2.380752e-002  3.513480e-002
      vertex -1.640625e-001 -1.624637e-002  3.847337e-002
    endloop
  endfacet
  facet normal -1.000000e+000  0.000000e+000  0.000000e+000
    outer loop
      vertex -1.640625e-001  0.000000e+000  3.125000e-002
      vertex -1.640625e-001 -1.624637e-002  3.847337e-002
      vertex -1.640625e-001  6.214190e-019  4.120066e-002
    endloop
  endfacet
  facet normal -9.999999e-001  0.000000e+000  -0.000000e+000
    outer loop
      vertex -1.640625e-001 -3.071162e-002  3.059052e-002
      vertex -1.640625e-001 -2.380752e-002  3.513480e-002
      vertex -1.640625e-001 -6.589480e-003  3.070075e-002
    endloop
  endfacet
  facet normal -9.999999e-001  0.000000e+000  0.000000e+000
    outer loop
      vertex -1.640625e-001 -3.071162e-002  3.059052e-002
      vertex -1.640625e-001 -6.589480e-003  3.070075e-002
      vertex -1.640625e-001 -1.299710e-002  2.906817e-002
    endloop
  endfacet
  facet normal -1.000000e+000  -0.000000e+000  0.000000e+000
    outer loop
      vertex -1.640625e-001 -3.071162e-002  3.059052e-002
      vertex -1.640625e-001 -1.299710e-002  2.906817e-002
      vertex -1.640625e-001 -1.904602e-002  2.639731e-002
    endloop
  endfacet
  facet normal -1.000000e+000  -0.000000e+000  0.000000e+000
    outer loop
      vertex -1.640625e-001 -3.071162e-002  3.059052e-002
      vertex -1.640625e-001 -1.904602e-002  2.639731e-002
      vertex -1.640625e-001 -2.456930e-002  2.276189e-002
    endloop
  endfacet
  facet normal  2.282891e-001 -5.352767e-001  8.132422e-001
    outer loop
      vertex -1.640625e-001 -3.071162e-002  3.059052e-002
      vertex  5.098684e-003 -6.142324e-003 -7.240018e-004
      vertex -1.640625e-001 -2.380752e-002  3.513480e-002
    endloop
  endfacet
  facet normal  2.282891e-001 -5.352777e-001  8.132415e-001
    outer loop
      vertex -1.640625e-001 -2.380752e-002  3.513480e-002
      vertex  5.098684e-003 -6.142324e-003 -7.240018e-004
      vertex  5.098684e-003 -4.761505e-003  1.848545e-004
    endloop
  endfacet
  facet normal  2.282892e-001 -3.932546e-001  8.906374e-001
    outer loop
      vertex -1.640625e-001 -2.380752e-002  3.513480e-002
      vertex  5.098684e-003 -4.761505e-003  1.848545e-004
      vertex -1.640625e-001 -1.624637e-002  3.847337e-002
    endloop
  endfacet
  facet normal  2.282891e-001 -3.932541e-001  8.906375e-001
    outer loop
      vertex -1.640625e-001 -1.624637e-002  3.847337e-002
      vertex  5.098684e-003 -4.761505e-003  1.848545e-004
      vertex  5.098684e-003 -3.249275e-003  8.525694e-004
    endloop
  endfacet
  facet normal  2.282892e-001 -2.403800e-001  9.434519e-001
    outer loop
      vertex -1.640625e-001 -1.624637e-002  3.847337e-002
      vertex  5.098684e-003 -3.249275e-003  8.525694e-004
      vertex -1.640625e-001 -8.236850e-003  4.051410e-002
    endloop
  endfacet
  facet normal  2.282891e-001 -2.403804e-001  9.434518e-001
    outer loop
      vertex -1.640625e-001 -8.236850e-003  4.051410e-002
      vertex  5.098684e-003 -3.249275e-003  8.525694e-004
      vertex  5.098684e-003 -1.647370e-003  1.260715e-003
    endloop
  endfacet
  facet normal  2.282891e-001 -8.087030e-002  9.702289e-001
    outer loop
      vertex -1.640625e-001 -8.236850e-003  4.051410e-002
      vertex  5.098684e-003 -1.647370e-003  1.260715e-003
      vertex -1.640625e-001  6.214190e-019  4.120066e-002
    endloop
  endfacet
  facet normal  2.282892e-001 -8.086988e-002  9.702290e-001
    outer loop
      vertex -1.640625e-001  6.214190e-019  4.120066e-002
      vertex  5.098684e-003 -1.647370e-003  1.260715e-003
      vertex  5.098684e-003  7.526075e-018  1.398026e-003
    endloop
  endfacet
  facet normal  0.000000e+000 -5.497950e-001  8.352997e-001
    outer loop
      vertex  5.098684e-003 -6.142324e-003 -7.240018e-004
      vertex  7.812500e-001 -6.142324e-003 -7.240018e-004
      vertex  5.098684e-003 -4.761505e-003  1.848545e-004
    endloop
  endfacet
  facet normal  0.000000e+000 -5.497950e-001  8.352997e-001
    outer loop
      vertex  5.098684e-003 -4.761505e-003  1.848545e-004
      vertex  7.812500e-001 -6.142324e-003 -7.240018e-004
      vertex  7.812500e-001 -4.761505e-003  1.848545e-004
    endloop
  endfacet
  facet normal  0.000000e+000 -4.039211e-001  9.147939e-001
    outer loop
      vertex  5.098684e-003 -4.761505e-003  1.848545e-004
      vertex  7.812500e-001 -4.761505e-003  1.848545e-004
      vertex  5.098684e-003 -3.249275e-003  8.525694e-004
    endloop
  endfacet
  facet normal  0.000000e+000 -4.039211e-001  9.147939e-001
    outer loop
      vertex  5.098684e-003 -3.249275e-003  8.525694e-004
      vertex  7.812500e-001 -4.761505e-003  1.848545e-004
      vertex  7.812500e-001 -3.249275e-003  8.525694e-004
    endloop
  endfacet
  facet normal  0.000000e+000 -2.468995e-001  9.690410e-001
    outer loop
      vertex  5.098684e-003 -3.249275e-003  8.525694e-004
      vertex  7.812500e-001 -3.249275e-003  8.525694e-004
      vertex  5.098684e-003 -1.647370e-003  1.260715e-003
    endloop
  endfacet
  facet normal  0.000000e+000 -2.468995e-001  9.690410e-001
    outer loop
      vertex  5.098684e-003 -1.647370e-003  1.260715e-003
      vertex  7.812500e-001 -3.249275e-003  8.525694e-004
      vertex  7.812500e-001 -1.647370e-003  1.260715e-003
    endloop
  endfacet
  facet normal  0.000000e+000 -8.306399e-002  9.965442e-001
    outer loop
      vertex  5.098684e-003 -1.647370e-003  1.260715e-003
      vertex  7.812500e-001 -1.647370e-003  1.260715e-003
      vertex  5.098684e-003  7.526075e-018  1.398026e-003
    endloop
  endfacet
  facet normal  4.610978e-018 -8.306399e-002  9.965442e-001
    outer loop
      vertex  5.098684e-003  7.526075e-018  1.398026e-003
      vertex  7.812500e-001 -1.647370e-003  1.260715e-003
      vertex  7.812500e-001  5.061113e-017  1.398026e-003
    endloop
  endfacet
  facet normal  1.000000e+000  0.000000e+000  0.000000e+000
    outer loop
      vertex  7.812500e-001  4.998971e-017 -8.552631e-003
      vertex  7.812500e-001  5.061113e-017  1.398026e-003
      vertex  7.812500e-001 -1.647370e-003  1.260715e-003
    endloop
  endfacet
  facet normal  1.000000e+000  0.000000e+000  0.000000e+000
    outer loop
      vertex  7.812500e-001  4.998971e-017 -8.552631e-003
      vertex  7.812500e-001 -1.647370e-003  1.260715e-003
      vertex  7.812500e-001 -3.249275e-003  8.525694e-004
    endloop
  endfacet
  facet normal  1.000000e+000  0.000000e+000  0.000000e+000
    outer loop
      vertex  7.812500e-001  4.998971e-017 -8.552631e-003
      vertex  7.812500e-001 -3.249275e-003  8.525694e-004
      vertex  7.812500e-001 -4.761505e-003  1.848545e-004
    endloop
  endfacet
  facet normal  1.000000e+000  0.000000e+000  0.000000e+000
    outer loop
      vertex  7.812500e-001  4.998971e-017 -8.552631e-003
      vertex  7.812500e-001 -4.761505e-003  1.848545e-004
      vertex  7.812500e-001 -6.142324e-003 -7.240018e-004
    endloop
  endfacet
  facet normal -2.417465e-001  5.334876e-001 -8.105242e-001
    outer loop
      vertex -4.851974e-003  6.352283e-018 -8.552631e-003
      vertex -1.640625e-001 -2.456930e-002  2.276189e-002
      vertex -1.640625e-001 -1.904602e-002  2.639731e-002
    endloop
  endfacet
  facet normal -2.417465e-001  3.919406e-001 -8.876606e-001
    outer loop
      vertex -4.851974e-003  6.352283e-018 -8.552631e-003
      vertex -1.640625e-001 -1.904602e-002  2.639731e-002
      vertex -1.640625e-001 -1.299710e-002  2.906817e-002
    endloop
  endfacet
  facet normal -2.417465e-001  2.395762e-001 -9.402988e-001
    outer loop
      vertex -4.851974e-003  6.352283e-018 -8.552631e-003
      vertex -1.640625e-001 -1.299710e-002  2.906817e-002
      vertex -1.640625e-001 -6.589480e-003  3.070075e-002
    endloop
  endfacet
  facet normal -2.417465e-001  8.060040e-002 -9.669861e-001
    outer loop
      vertex -4.851974e-003  6.352283e-018 -8.552631e-003
      vertex -1.640625e-001 -6.589480e-003  3.070075e-002
      vertex -1.640625e-001  0.000000e+000  3.125000e-002
    endloop
  endfacet
endsolid CATIA STL
