solid CATIA STL
  facet normal  1.000000e+000  0.000000e+000  0.000000e+000
    outer loop
      vertex  4.786184e-002  5.916320e-018 -7.500000e-001
      vertex  4.786184e-002 -7.812500e-003 -7.421875e-001
      vertex  4.786184e-002 -9.375000e-002 -7.500000e-001
    endloop
  endfacet
  facet normal  1.000000e+000  0.000000e+000  0.000000e+000
    outer loop
      vertex  4.786184e-002  5.916320e-018 -7.500000e-001
      vertex  4.786184e-002  1.724498e-016  7.500000e-001
      vertex  4.786184e-002 -7.812500e-003 -7.421875e-001
    endloop
  endfacet
  facet normal  1.000000e+000  -0.000000e+000  0.000000e+000
    outer loop
      vertex  4.786184e-002  1.724498e-016  7.500000e-001
      vertex  4.786184e-002 -7.812500e-003  7.421875e-001
      vertex  4.786184e-002 -7.812500e-003 -7.421875e-001
    endloop
  endfacet
  facet normal  1.000000e+000  -0.000000e+000  0.000000e+000
    outer loop
      vertex  4.786184e-002  1.724498e-016  7.500000e-001
      vertex  4.786184e-002 -9.375000e-002  7.500000e-001
      vertex  4.786184e-002 -7.812500e-003  7.421875e-001
    endloop
  endfacet
  facet normal  1.000000e+000  -0.000000e+000  0.000000e+000
    outer loop
      vertex  4.786184e-002 -7.812500e-003 -7.421875e-001
      vertex  4.786184e-002 -8.593750e-002 -7.421875e-001
      vertex  4.786184e-002 -9.375000e-002 -7.500000e-001
    endloop
  endfacet
  facet normal  1.000000e+000  0.000000e+000  0.000000e+000
    outer loop
      vertex  4.786184e-002 -9.375000e-002  7.500000e-001
      vertex  4.786184e-002 -9.375000e-002 -7.500000e-001
      vertex  4.786184e-002 -8.593750e-002 -7.421875e-001
    endloop
  endfacet
  facet normal  1.000000e+000  0.000000e+000  -0.000000e+000
    outer loop
      vertex  4.786184e-002 -9.375000e-002  7.500000e-001
      vertex  4.786184e-002 -8.593750e-002 -7.421875e-001
      vertex  4.786184e-002 -8.593750e-002  7.421875e-001
    endloop
  endfacet
  facet normal  1.000000e+000  0.000000e+000  -0.000000e+000
    outer loop
      vertex  4.786184e-002 -9.375000e-002  7.500000e-001
      vertex  4.786184e-002 -8.593750e-002  7.421875e-001
      vertex  4.786184e-002 -7.812500e-003  7.421875e-001
    endloop
  endfacet
  facet normal  0.000000e+000  0.000000e+000  1.000000e+000
    outer loop
      vertex -3.906250e-002 -8.593750e-002 -7.421875e-001
      vertex  4.786184e-002 -8.593750e-002 -7.421875e-001
      vertex -3.906250e-002 -7.812500e-003 -7.421875e-001
    endloop
  endfacet
  facet normal  -0.000000e+000  0.000000e+000  1.000000e+000
    outer loop
      vertex -3.906250e-002 -7.812500e-003 -7.421875e-001
      vertex  4.786184e-002 -8.593750e-002 -7.421875e-001
      vertex  4.786184e-002 -7.812500e-003 -7.421875e-001
    endloop
  endfacet
  facet normal  0.000000e+000  0.000000e+000 -1.000000e+000
    outer loop
      vertex  4.786184e-002 -8.593750e-002  7.421875e-001
      vertex -3.906250e-002 -8.593750e-002  7.421875e-001
      vertex  4.786184e-002 -7.812500e-003  7.421875e-001
    endloop
  endfacet
  facet normal  -0.000000e+000  0.000000e+000 -1.000000e+000
    outer loop
      vertex  4.786184e-002 -7.812500e-003  7.421875e-001
      vertex -3.906250e-002 -8.593750e-002  7.421875e-001
      vertex -3.906250e-002 -7.812500e-003  7.421875e-001
    endloop
  endfacet
  facet normal  0.000000e+000 -1.000000e+000  0.000000e+000
    outer loop
      vertex -3.906250e-002 -7.812500e-003 -7.421875e-001
      vertex  4.786184e-002 -7.812500e-003 -7.421875e-001
      vertex -3.906250e-002 -7.812500e-003  7.421875e-001
    endloop
  endfacet
  facet normal  0.000000e+000 -1.000000e+000  0.000000e+000
    outer loop
      vertex -3.906250e-002 -7.812500e-003  7.421875e-001
      vertex  4.786184e-002 -7.812500e-003 -7.421875e-001
      vertex  4.786184e-002 -7.812500e-003  7.421875e-001
    endloop
  endfacet
  facet normal  0.000000e+000  1.000000e+000  0.000000e+000
    outer loop
      vertex -3.906250e-002 -8.593750e-002 -7.421875e-001
      vertex -3.906250e-002 -8.593750e-002  7.421875e-001
      vertex  4.786184e-002 -8.593750e-002 -7.421875e-001
    endloop
  endfacet
  facet normal  0.000000e+000  1.000000e+000  -0.000000e+000
    outer loop
      vertex  4.786184e-002 -8.593750e-002 -7.421875e-001
      vertex -3.906250e-002 -8.593750e-002  7.421875e-001
      vertex  4.786184e-002 -8.593750e-002  7.421875e-001
    endloop
  endfacet
  facet normal  9.999999e-001  0.000000e+000  0.000000e+000
    outer loop
      vertex -3.906250e-002 -8.593750e-002  7.421875e-001
      vertex -3.906250e-002 -8.593750e-002 -7.421875e-001
      vertex -3.906250e-002 -7.812500e-003  7.421875e-001
    endloop
  endfacet
  facet normal  9.999999e-001  0.000000e+000  0.000000e+000
    outer loop
      vertex -3.906250e-002 -7.812500e-003  7.421875e-001
      vertex -3.906250e-002 -8.593750e-002 -7.421875e-001
      vertex -3.906250e-002 -7.812500e-003 -7.421875e-001
    endloop
  endfacet
  facet normal  0.000000e+000 -1.000000e+000  0.000000e+000
    outer loop
      vertex -4.687500e-002 -9.375000e-002 -7.500000e-001
      vertex  4.786184e-002 -9.375000e-002 -7.500000e-001
      vertex -4.687500e-002 -9.375000e-002  7.500000e-001
    endloop
  endfacet
  facet normal  0.000000e+000 -1.000000e+000  0.000000e+000
    outer loop
      vertex -4.687500e-002 -9.375000e-002  7.500000e-001
      vertex  4.786184e-002 -9.375000e-002 -7.500000e-001
      vertex  4.786184e-002 -9.375000e-002  7.500000e-001
    endloop
  endfacet
  facet normal -6.244997e-017  1.000000e+000 -1.110223e-016
    outer loop
      vertex -4.687500e-002  0.000000e+000 -7.500000e-001
      vertex -4.687500e-002  1.665335e-016  7.500000e-001
      vertex  4.786184e-002  5.916320e-018 -7.500000e-001
    endloop
  endfacet
  facet normal -6.244997e-017  1.000000e+000 -1.110223e-016
    outer loop
      vertex  4.786184e-002  5.916320e-018 -7.500000e-001
      vertex -4.687500e-002  1.665335e-016  7.500000e-001
      vertex  4.786184e-002  1.724498e-016  7.500000e-001
    endloop
  endfacet
  facet normal -1.000000e+000  -0.000000e+000  0.000000e+000
    outer loop
      vertex -4.687500e-002 -9.375000e-002  7.500000e-001
      vertex -4.687500e-002  1.665335e-016  7.500000e-001
      vertex -4.687500e-002 -9.375000e-002 -7.500000e-001
    endloop
  endfacet
  facet normal -1.000000e+000  0.000000e+000  0.000000e+000
    outer loop
      vertex -4.687500e-002 -9.375000e-002 -7.500000e-001
      vertex -4.687500e-002  1.665335e-016  7.500000e-001
      vertex -4.687500e-002  0.000000e+000 -7.500000e-001
    endloop
  endfacet
  facet normal  -0.000000e+000  0.000000e+000  1.000000e+000
    outer loop
      vertex  4.786184e-002  1.724498e-016  7.500000e-001
      vertex -4.687500e-002  1.665335e-016  7.500000e-001
      vertex  4.786184e-002 -9.375000e-002  7.500000e-001
    endloop
  endfacet
  facet normal  0.000000e+000  0.000000e+000  1.000000e+000
    outer loop
      vertex  4.786184e-002 -9.375000e-002  7.500000e-001
      vertex -4.687500e-002  1.665335e-016  7.500000e-001
      vertex -4.687500e-002 -9.375000e-002  7.500000e-001
    endloop
  endfacet
  facet normal  0.000000e+000  0.000000e+000 -1.000000e+000
    outer loop
      vertex -4.687500e-002  0.000000e+000 -7.500000e-001
      vertex  4.786184e-002  5.916320e-018 -7.500000e-001
      vertex -4.687500e-002 -9.375000e-002 -7.500000e-001
    endloop
  endfacet
  facet normal  0.000000e+000  0.000000e+000 -1.000000e+000
    outer loop
      vertex -4.687500e-002 -9.375000e-002 -7.500000e-001
      vertex  4.786184e-002  5.916320e-018 -7.500000e-001
      vertex  4.786184e-002 -9.375000e-002 -7.500000e-001
    endloop
  endfacet
endsolid CATIA STL
