solid CATIA STL
  facet normal  1.356565e-005 -7.071057e-001 -7.071079e-001
    outer loop
      vertex  5.745066e-001 -6.718750e-001  4.687500e-002
      vertex  5.713276e-001 -6.549233e-001  2.992325e-002
      vertex  5.738087e-001 -6.638164e-001  3.881640e-002
    endloop
  endfacet
  facet normal  0.000000e+000 -7.071067e-001 -7.071067e-001
    outer loop
      vertex  5.276316e-001 -6.250000e-001  0.000000e+000
      vertex -5.781250e-001 -7.500000e-001  1.250000e-001
      vertex -5.781250e-001 -6.250000e-001  0.000000e+000
    endloop
  endfacet
  facet normal  0.000000e+000 -7.071068e-001 -7.071068e-001
    outer loop
      vertex  5.745066e-001 -7.500000e-001  1.250000e-001
      vertex -5.781250e-001 -7.500000e-001  1.250000e-001
      vertex  5.276316e-001 -6.250000e-001  0.000000e+000
    endloop
  endfacet
  facet normal  3.526041e-006 -7.071062e-001 -7.071075e-001
    outer loop
      vertex  5.745066e-001 -7.500000e-001  1.250000e-001
      vertex  5.276316e-001 -6.250000e-001  0.000000e+000
      vertex  5.313283e-001 -6.251460e-001  1.459899e-004
    endloop
  endfacet
  facet normal  1.773732e-006 -7.071065e-001 -7.071071e-001
    outer loop
      vertex  5.745066e-001 -7.500000e-001  1.250000e-001
      vertex  5.313283e-001 -6.251460e-001  1.459899e-004
      vertex  5.349795e-001 -6.255795e-001  5.795032e-004
    endloop
  endfacet
  facet normal -5.786855e-006 -7.071076e-001 -7.071059e-001
    outer loop
      vertex  5.745066e-001 -7.500000e-001  1.250000e-001
      vertex  5.349795e-001 -6.255795e-001  5.795032e-004
      vertex  5.386171e-001 -6.263055e-001  1.305460e-003
    endloop
  endfacet
  facet normal -2.248388e-006 -7.071071e-001 -7.071064e-001
    outer loop
      vertex  5.745066e-001 -7.500000e-001  1.250000e-001
      vertex  5.386171e-001 -6.263055e-001  1.305460e-003
      vertex  5.421268e-001 -6.272975e-001  2.297509e-003
    endloop
  endfacet
  facet normal  4.602675e-006 -7.071062e-001 -7.071074e-001
    outer loop
      vertex  5.745066e-001 -7.500000e-001  1.250000e-001
      vertex  5.421268e-001 -6.272975e-001  2.297509e-003
      vertex  5.488541e-001 -6.300794e-001  5.079417e-003
    endloop
  endfacet
  facet normal -6.127646e-006 -7.071074e-001 -7.071062e-001
    outer loop
      vertex  5.745066e-001 -7.500000e-001  1.250000e-001
      vertex  5.488541e-001 -6.300794e-001  5.079417e-003
      vertex  5.550322e-001 -6.338425e-001  8.842508e-003
    endloop
  endfacet
  facet normal  5.711942e-006 -7.071063e-001 -7.071071e-001
    outer loop
      vertex  5.745066e-001 -7.500000e-001  1.250000e-001
      vertex  5.550322e-001 -6.338425e-001  8.842508e-003
      vertex  5.605441e-001 -6.384978e-001  1.349785e-002
    endloop
  endfacet
  facet normal -7.995283e-006 -7.071072e-001 -7.071064e-001
    outer loop
      vertex  5.745066e-001 -7.500000e-001  1.250000e-001
      vertex  5.605441e-001 -6.384978e-001  1.349785e-002
      vertex  5.640008e-001 -6.423047e-001  1.730464e-002
    endloop
  endfacet
  facet normal -2.226773e-006 -7.071069e-001 -7.071066e-001
    outer loop
      vertex  5.745066e-001 -7.500000e-001  1.250000e-001
      vertex  5.640008e-001 -6.423047e-001  1.730464e-002
      vertex  5.669388e-001 -6.463478e-001  2.134780e-002
    endloop
  endfacet
  facet normal  2.102748e-006 -7.071068e-001 -7.071068e-001
    outer loop
      vertex  5.745066e-001 -7.500000e-001  1.250000e-001
      vertex  5.669388e-001 -6.463478e-001  2.134780e-002
      vertex  5.713276e-001 -6.549233e-001  2.992325e-002
    endloop
  endfacet
  facet normal  2.161475e-006 -7.071068e-001 -7.071068e-001
    outer loop
      vertex  5.745066e-001 -7.500000e-001  1.250000e-001
      vertex  5.713276e-001 -6.549233e-001  2.992325e-002
      vertex  5.745066e-001 -6.718750e-001  4.687500e-002
    endloop
  endfacet
  facet normal  0.000000e+000  0.000000e+000 -1.000000e+000
    outer loop
      vertex -5.781250e-001 -6.250000e-001  0.000000e+000
      vertex -5.781250e-001  7.500000e-001  0.000000e+000
      vertex  5.276316e-001 -6.250000e-001  0.000000e+000
    endloop
  endfacet
  facet normal  0.000000e+000  0.000000e+000 -1.000000e+000
    outer loop
      vertex  5.276316e-001 -6.250000e-001  0.000000e+000
      vertex -5.781250e-001  7.500000e-001  0.000000e+000
      vertex  5.276316e-001  7.500000e-001  0.000000e+000
    endloop
  endfacet
  facet normal  1.000000e+000  0.000000e+000  0.000000e+000
    outer loop
      vertex  5.745066e-001  7.500000e-001  4.687500e-002
      vertex  5.745066e-001  7.500000e-001  4.296875e-001
      vertex  5.745066e-001 -6.718750e-001  4.687500e-002
    endloop
  endfacet
  facet normal  1.000000e+000  0.000000e+000  -0.000000e+000
    outer loop
      vertex  5.745066e-001 -6.718750e-001  4.687500e-002
      vertex  5.745066e-001  7.500000e-001  4.296875e-001
      vertex  5.745066e-001 -7.500000e-001  4.296875e-001
    endloop
  endfacet
  facet normal  1.000000e+000  0.000000e+000  0.000000e+000
    outer loop
      vertex  5.745066e-001 -6.718750e-001  4.687500e-002
      vertex  5.745066e-001 -7.500000e-001  4.296875e-001
      vertex  5.745066e-001 -7.500000e-001  1.250000e-001
    endloop
  endfacet
  facet normal  0.000000e+000  9.999999e-001  0.000000e+000
    outer loop
      vertex  5.745066e-001  7.500000e-001  4.687500e-002
      vertex  5.709384e-001  7.500000e-001  2.893671e-002
      vertex  5.745066e-001  7.500000e-001  4.296875e-001
    endloop
  endfacet
  facet normal  0.000000e+000  1.000000e+000  -0.000000e+000
    outer loop
      vertex  5.745066e-001  7.500000e-001  4.687500e-002
      vertex  5.736059e-001  7.500000e-001  3.773014e-002
      vertex  5.709384e-001  7.500000e-001  2.893671e-002
    endloop
  endfacet
  facet normal  0.000000e+000  1.000000e+000  -0.000000e+000
    outer loop
      vertex  5.607772e-001  7.500000e-001  1.372937e-002
      vertex  5.536739e-001  7.500000e-001  7.899862e-003
      vertex  5.455698e-001  7.500000e-001  3.568147e-003
    endloop
  endfacet
  facet normal  0.000000e+000  1.000000e+000  0.000000e+000
    outer loop
      vertex -5.781250e-001  7.500000e-001  4.296875e-001
      vertex  5.745066e-001  7.500000e-001  4.296875e-001
      vertex  5.367764e-001  7.500000e-001  9.006900e-004
    endloop
  endfacet
  facet normal  0.000000e+000  1.000000e+000  0.000000e+000
    outer loop
      vertex -5.781250e-001  7.500000e-001  4.296875e-001
      vertex  5.367764e-001  7.500000e-001  9.006900e-004
      vertex  5.276316e-001  7.500000e-001  0.000000e+000
    endloop
  endfacet
  facet normal  0.000000e+000  9.999999e-001  0.000000e+000
    outer loop
      vertex -5.781250e-001  7.500000e-001  4.296875e-001
      vertex  5.276316e-001  7.500000e-001  0.000000e+000
      vertex -5.781250e-001  7.500000e-001  0.000000e+000
    endloop
  endfacet
  facet normal  0.000000e+000  1.000000e+000  0.000000e+000
    outer loop
      vertex  5.367764e-001  7.500000e-001  9.006900e-004
      vertex  5.745066e-001  7.500000e-001  4.296875e-001
      vertex  5.709384e-001  7.500000e-001  2.893671e-002
    endloop
  endfacet
  facet normal  0.000000e+000  1.000000e+000  0.000000e+000
    outer loop
      vertex  5.367764e-001  7.500000e-001  9.006900e-004
      vertex  5.709384e-001  7.500000e-001  2.893671e-002
      vertex  5.666067e-001  7.500000e-001  2.083264e-002
    endloop
  endfacet
  facet normal  0.000000e+000  1.000000e+000  0.000000e+000
    outer loop
      vertex  5.367764e-001  7.500000e-001  9.006900e-004
      vertex  5.666067e-001  7.500000e-001  2.083264e-002
      vertex  5.607772e-001  7.500000e-001  1.372937e-002
    endloop
  endfacet
  facet normal  0.000000e+000  1.000000e+000  0.000000e+000
    outer loop
      vertex  5.367764e-001  7.500000e-001  9.006900e-004
      vertex  5.607772e-001  7.500000e-001  1.372937e-002
      vertex  5.455698e-001  7.500000e-001  3.568147e-003
    endloop
  endfacet
  facet normal  9.951848e-001  6.742521e-005 -9.801670e-002
    outer loop
      vertex  5.745066e-001  7.500000e-001  4.687500e-002
      vertex  5.738087e-001 -6.638164e-001  3.881640e-002
      vertex  5.736059e-001  7.500000e-001  3.773014e-002
    endloop
  endfacet
  facet normal  9.962708e-001  0.000000e+000 -8.628155e-002
    outer loop
      vertex  5.745066e-001  7.500000e-001  4.687500e-002
      vertex  5.745066e-001 -6.718750e-001  4.687500e-002
      vertex  5.738087e-001 -6.638164e-001  3.881640e-002
    endloop
  endfacet
  facet normal  2.720565e-001  2.076673e-004 -9.622812e-001
    outer loop
      vertex  5.455698e-001  7.500000e-001  3.568147e-003
      vertex  5.421268e-001 -6.272975e-001  2.297509e-003
      vertex  5.386171e-001 -6.263055e-001  1.305460e-003
    endloop
  endfacet
  facet normal  3.821051e-001 -1.026422e-004 -9.241189e-001
    outer loop
      vertex  5.455698e-001  7.500000e-001  3.568147e-003
      vertex  5.488541e-001 -6.300794e-001  5.079417e-003
      vertex  5.421268e-001 -6.272975e-001  2.297509e-003
    endloop
  endfacet
  facet normal  4.713960e-001  1.560582e-004 -8.819216e-001
    outer loop
      vertex  5.488541e-001 -6.300794e-001  5.079417e-003
      vertex  5.455698e-001  7.500000e-001  3.568147e-003
      vertex  5.536739e-001  7.500000e-001  7.899862e-003
    endloop
  endfacet
  facet normal  5.201696e-001 -7.121369e-005 -8.540630e-001
    outer loop
      vertex  5.488541e-001 -6.300794e-001  5.079417e-003
      vertex  5.536739e-001  7.500000e-001  7.899862e-003
      vertex  5.550322e-001 -6.338425e-001  8.842508e-003
    endloop
  endfacet
  facet normal  6.343939e-001  9.611168e-005 -7.730100e-001
    outer loop
      vertex  5.550322e-001 -6.338425e-001  8.842508e-003
      vertex  5.536739e-001  7.500000e-001  7.899862e-003
      vertex  5.607772e-001  7.500000e-001  1.372937e-002
    endloop
  endfacet
  facet normal  6.452601e-001  1.905216e-005 -7.639629e-001
    outer loop
      vertex  5.550322e-001 -6.338425e-001  8.842508e-003
      vertex  5.607772e-001  7.500000e-001  1.372937e-002
      vertex  5.605441e-001 -6.384978e-001  1.349785e-002
    endloop
  endfacet
  facet normal  7.403164e-001 -1.219766e-005 -6.722587e-001
    outer loop
      vertex  5.640008e-001 -6.423047e-001  1.730464e-002
      vertex  5.605441e-001 -6.384978e-001  1.349785e-002
      vertex  5.607772e-001  7.500000e-001  1.372937e-002
    endloop
  endfacet
  facet normal  7.730101e-001  1.607324e-004 -6.343936e-001
    outer loop
      vertex  5.607772e-001  7.500000e-001  1.372937e-002
      vertex  5.666067e-001  7.500000e-001  2.083264e-002
      vertex  5.640008e-001 -6.423047e-001  1.730464e-002
    endloop
  endfacet
  facet normal  8.089626e-001 -2.446950e-005 -5.878600e-001
    outer loop
      vertex  5.640008e-001 -6.423047e-001  1.730464e-002
      vertex  5.666067e-001  7.500000e-001  2.083264e-002
      vertex  5.669388e-001 -6.463478e-001  2.134780e-002
    endloop
  endfacet
  facet normal  8.819216e-001  3.585053e-005 -4.713961e-001
    outer loop
      vertex  5.669388e-001 -6.463478e-001  2.134780e-002
      vertex  5.666067e-001  7.500000e-001  2.083264e-002
      vertex  5.709384e-001  7.500000e-001  2.893671e-002
    endloop
  endfacet
  facet normal  8.901608e-001 -7.334579e-005 -4.556465e-001
    outer loop
      vertex  5.669388e-001 -6.463478e-001  2.134780e-002
      vertex  5.709384e-001  7.500000e-001  2.893671e-002
      vertex  5.713276e-001 -6.549233e-001  2.992325e-002
    endloop
  endfacet
  facet normal  9.569395e-001  6.126949e-005 -2.902876e-001
    outer loop
      vertex  5.713276e-001 -6.549233e-001  2.992325e-002
      vertex  5.709384e-001  7.500000e-001  2.893671e-002
      vertex  5.736059e-001  7.500000e-001  3.773014e-002
    endloop
  endfacet
  facet normal  9.632000e-001 -6.836685e-005 -2.687853e-001
    outer loop
      vertex  5.713276e-001 -6.549233e-001  2.992325e-002
      vertex  5.736059e-001  7.500000e-001  3.773014e-002
      vertex  5.738087e-001 -6.638164e-001  3.881640e-002
    endloop
  endfacet
  facet normal  2.902851e-001  1.068007e-004 -9.569403e-001
    outer loop
      vertex  5.367764e-001  7.500000e-001  9.006900e-004
      vertex  5.455698e-001  7.500000e-001  3.568147e-003
      vertex  5.386171e-001 -6.263055e-001  1.305460e-003
    endloop
  endfacet
  facet normal  1.957051e-001 -2.667011e-005 -9.806628e-001
    outer loop
      vertex  5.367764e-001  7.500000e-001  9.006900e-004
      vertex  5.386171e-001 -6.263055e-001  1.305460e-003
      vertex  5.349795e-001 -6.255795e-001  5.795032e-004
    endloop
  endfacet
  facet normal  1.179107e-001  7.783790e-005 -9.930242e-001
    outer loop
      vertex  5.367764e-001  7.500000e-001  9.006900e-004
      vertex  5.349795e-001 -6.255795e-001  5.795032e-004
      vertex  5.313283e-001 -6.251460e-001  1.459899e-004
    endloop
  endfacet
  facet normal  3.947687e-002  3.919841e-004 -9.992204e-001
    outer loop
      vertex  5.367764e-001  7.500000e-001  9.006900e-004
      vertex  5.313283e-001 -6.251460e-001  1.459899e-004
      vertex  5.276316e-001 -6.250000e-001  0.000000e+000
    endloop
  endfacet
  facet normal  9.801732e-002  0.000000e+000 -9.951847e-001
    outer loop
      vertex  5.367764e-001  7.500000e-001  9.006900e-004
      vertex  5.276316e-001 -6.250000e-001  0.000000e+000
      vertex  5.276316e-001  7.500000e-001  0.000000e+000
    endloop
  endfacet
  facet normal -9.999999e-001  0.000000e+000  0.000000e+000
    outer loop
      vertex -5.781250e-001  7.500000e-001  4.296875e-001
      vertex -5.781250e-001  7.500000e-001  0.000000e+000
      vertex -5.781250e-001 -7.500000e-001  4.296875e-001
    endloop
  endfacet
  facet normal -1.000000e+000  0.000000e+000  0.000000e+000
    outer loop
      vertex -5.781250e-001 -7.500000e-001  4.296875e-001
      vertex -5.781250e-001  7.500000e-001  0.000000e+000
      vertex -5.781250e-001 -6.250000e-001  0.000000e+000
    endloop
  endfacet
  facet normal -1.000000e+000  0.000000e+000  0.000000e+000
    outer loop
      vertex -5.781250e-001 -7.500000e-001  4.296875e-001
      vertex -5.781250e-001 -6.250000e-001  0.000000e+000
      vertex -5.781250e-001 -7.500000e-001  1.250000e-001
    endloop
  endfacet
  facet normal  0.000000e+000 -1.000000e+000  0.000000e+000
    outer loop
      vertex -5.781250e-001 -7.500000e-001  4.296875e-001
      vertex -5.781250e-001 -7.500000e-001  1.250000e-001
      vertex  5.745066e-001 -7.500000e-001  4.296875e-001
    endloop
  endfacet
  facet normal  0.000000e+000 -1.000000e+000  -0.000000e+000
    outer loop
      vertex  5.745066e-001 -7.500000e-001  4.296875e-001
      vertex -5.781250e-001 -7.500000e-001  1.250000e-001
      vertex  5.745066e-001 -7.500000e-001  1.250000e-001
    endloop
  endfacet
  facet normal  0.000000e+000  0.000000e+000  1.000000e+000
    outer loop
      vertex -5.781250e-001 -7.500000e-001  4.296875e-001
      vertex  5.745066e-001 -7.500000e-001  4.296875e-001
      vertex -5.781250e-001  7.500000e-001  4.296875e-001
    endloop
  endfacet
  facet normal  -0.000000e+000  0.000000e+000  1.000000e+000
    outer loop
      vertex -5.781250e-001  7.500000e-001  4.296875e-001
      vertex  5.745066e-001 -7.500000e-001  4.296875e-001
      vertex  5.745066e-001  7.500000e-001  4.296875e-001
    endloop
  endfacet
endsolid CATIA STL
