solid CATIA STL
  facet normal -6.245003e-017  1.000000e+000 -7.487018e-023
    outer loop
      vertex -1.170503e-002  1.708475e-018  2.925112e-002
      vertex -5.765608e-003  2.079392e-018  3.105282e-002
      vertex  4.111833e-004  2.465133e-018  3.166118e-002
    endloop
  endfacet
  facet normal -6.245006e-017  1.000000e+000  7.953147e-023
    outer loop
      vertex -1.170503e-002  1.708475e-018  2.925112e-002
      vertex  4.111833e-004  2.465133e-018  3.166118e-002
      vertex  6.587974e-003  2.850874e-018  3.105282e-002
    endloop
  endfacet
  facet normal -6.245005e-017  9.999999e-001 -3.235146e-023
    outer loop
      vertex  1.252739e-002  3.221791e-018  2.925112e-002
      vertex -1.170503e-002  1.708475e-018  2.925112e-002
      vertex  6.587974e-003  2.850874e-018  3.105282e-002
    endloop
  endfacet
  facet normal -6.245005e-017  1.000000e+000 -1.966563e-023
    outer loop
      vertex -1.717883e-002  1.366636e-018  2.632531e-002
      vertex -1.170503e-002  1.708475e-018  2.925112e-002
      vertex  1.252739e-002  3.221791e-018  2.925112e-002
    endloop
  endfacet
  facet normal -6.245003e-017  1.000000e+000 -7.793921e-023
    outer loop
      vertex  1.800120e-002  3.563630e-018  2.632531e-002
      vertex -1.717883e-002  1.366636e-018  2.632531e-002
      vertex  1.252739e-002  3.221791e-018  2.925112e-002
    endloop
  endfacet
  facet normal -6.245003e-017  1.000000e+000  7.160345e-024
    outer loop
      vertex -2.197666e-002  1.067012e-018  2.238784e-002
      vertex -1.717883e-002  1.366636e-018  2.632531e-002
      vertex  1.800120e-002  3.563630e-018  2.632531e-002
    endloop
  endfacet
  facet normal -6.245005e-017  1.000000e+000 -2.344605e-023
    outer loop
      vertex  2.279902e-002  3.863255e-018  2.238784e-002
      vertex -2.197666e-002  1.067012e-018  2.238784e-002
      vertex  1.800120e-002  3.563630e-018  2.632531e-002
    endloop
  endfacet
  facet normal -6.245005e-017  1.000000e+000 -1.536446e-023
    outer loop
      vertex -2.591413e-002  8.211163e-019  1.759001e-002
      vertex -2.197666e-002  1.067012e-018  2.238784e-002
      vertex  2.279902e-002  3.863255e-018  2.238784e-002
    endloop
  endfacet
  facet normal -6.245006e-017  1.000000e+000  5.523584e-023
    outer loop
      vertex  2.673650e-002  4.109150e-018  1.759001e-002
      vertex -2.591413e-002  8.211163e-019  1.759001e-002
      vertex  2.279902e-002  3.863255e-018  2.238784e-002
    endloop
  endfacet
  facet normal -6.245005e-017  1.000000e+000  4.985432e-024
    outer loop
      vertex -2.883994e-002  6.383995e-019  1.211621e-002
      vertex -2.591413e-002  8.211163e-019  1.759001e-002
      vertex  2.673650e-002  4.109150e-018  1.759001e-002
    endloop
  endfacet
  facet normal -6.245005e-017  9.999999e-001 -3.400139e-023
    outer loop
      vertex  2.966230e-002  4.291867e-018  1.211621e-002
      vertex -2.883994e-002  6.383995e-019  1.211621e-002
      vertex  2.673650e-002  4.109150e-018  1.759001e-002
    endloop
  endfacet
  facet normal -6.245005e-017  1.000000e+000  4.888313e-024
    outer loop
      vertex -3.064164e-002  5.258831e-019  6.176789e-003
      vertex -2.883994e-002  6.383995e-019  1.211621e-002
      vertex  2.966230e-002  4.291867e-018  1.211621e-002
    endloop
  endfacet
  facet normal -6.245005e-017  1.000000e+000 -4.377426e-023
    outer loop
      vertex  3.146401e-002  4.404384e-018  6.176791e-003
      vertex -3.064164e-002  5.258831e-019  6.176789e-003
      vertex  2.966230e-002  4.291867e-018  1.211621e-002
    endloop
  endfacet
  facet normal -6.245005e-017  1.000000e+000  3.950071e-024
    outer loop
      vertex  2.966230e-002  4.291867e-018 -1.211621e-002
      vertex -2.883993e-002  6.383996e-019 -1.211621e-002
      vertex  3.146401e-002  4.404384e-018 -6.176791e-003
    endloop
  endfacet
  facet normal -6.245005e-017  1.000000e+000 -1.652666e-024
    outer loop
      vertex -2.591413e-002  8.211164e-019 -1.759001e-002
      vertex -2.883993e-002  6.383996e-019 -1.211621e-002
      vertex  2.966230e-002  4.291867e-018 -1.211621e-002
    endloop
  endfacet
  facet normal -6.245005e-017  1.000000e+000 -8.919924e-024
    outer loop
      vertex  2.673650e-002  4.109150e-018 -1.759001e-002
      vertex -2.591413e-002  8.211164e-019 -1.759001e-002
      vertex  2.966230e-002  4.291867e-018 -1.211621e-002
    endloop
  endfacet
  facet normal -6.245005e-017  1.000000e+000  1.266348e-023
    outer loop
      vertex -2.197665e-002  1.067012e-018 -2.238784e-002
      vertex -2.591413e-002  8.211164e-019 -1.759001e-002
      vertex  2.673650e-002  4.109150e-018 -1.759001e-002
    endloop
  endfacet
  facet normal -6.245004e-017  1.000000e+000 -1.219681e-023
    outer loop
      vertex  2.279902e-002  3.863255e-018 -2.238784e-002
      vertex -2.197665e-002  1.067012e-018 -2.238784e-002
      vertex  2.673650e-002  4.109150e-018 -1.759001e-002
    endloop
  endfacet
  facet normal -6.245005e-017  1.000000e+000 -1.758455e-023
    outer loop
      vertex -1.717883e-002  1.366636e-018 -2.632531e-002
      vertex -2.197665e-002  1.067012e-018 -2.238784e-002
      vertex  2.279902e-002  3.863255e-018 -2.238784e-002
    endloop
  endfacet
  facet normal -6.245005e-017  1.000000e+000  1.492059e-023
    outer loop
      vertex  1.800120e-002  3.563631e-018 -2.632531e-002
      vertex -1.717883e-002  1.366636e-018 -2.632531e-002
      vertex  2.279902e-002  3.863255e-018 -2.238784e-002
    endloop
  endfacet
  facet normal -6.245005e-017  1.000000e+000 -4.958073e-024
    outer loop
      vertex -1.170503e-002  1.708475e-018 -2.925112e-002
      vertex -1.717883e-002  1.366636e-018 -2.632531e-002
      vertex  1.800120e-002  3.563631e-018 -2.632531e-002
    endloop
  endfacet
  facet normal -6.245005e-017  1.000000e+000 -8.236250e-023
    outer loop
      vertex  1.252740e-002  3.221791e-018 -2.925112e-002
      vertex -1.170503e-002  1.708475e-018 -2.925112e-002
      vertex  1.800120e-002  3.563631e-018 -2.632531e-002
    endloop
  endfacet
  facet normal -6.245005e-017  9.999999e-001  7.732699e-023
    outer loop
      vertex -5.765605e-003  2.079393e-018 -3.105282e-002
      vertex -1.170503e-002  1.708475e-018 -2.925112e-002
      vertex  1.252740e-002  3.221791e-018 -2.925112e-002
    endloop
  endfacet
  facet normal -6.245004e-017  1.000000e+000 -4.142130e-023
    outer loop
      vertex  4.111852e-004  2.465133e-018 -3.166118e-002
      vertex -5.765605e-003  2.079393e-018 -3.105282e-002
      vertex  1.252740e-002  3.221791e-018 -2.925112e-002
    endloop
  endfacet
  facet normal -6.245003e-017  1.000000e+000 -5.188799e-023
    outer loop
      vertex  6.587976e-003  2.850874e-018 -3.105282e-002
      vertex  4.111852e-004  2.465133e-018 -3.166118e-002
      vertex  1.252740e-002  3.221791e-018 -2.925112e-002
    endloop
  endfacet
  facet normal -6.245004e-017  1.000000e+000 -1.346500e-023
    outer loop
      vertex -2.883993e-002  6.383996e-019 -1.211621e-002
      vertex -3.064164e-002  5.258832e-019 -6.176793e-003
      vertex  3.146401e-002  4.404384e-018 -6.176791e-003
    endloop
  endfacet
  facet normal -6.245004e-017  1.000000e+000  2.568345e-023
    outer loop
      vertex  3.146401e-002  4.404384e-018 -6.176791e-003
      vertex -3.064164e-002  5.258832e-019 -6.176793e-003
      vertex -3.125000e-002  4.878910e-019 -1.867843e-009
    endloop
  endfacet
  facet normal -6.245005e-017  9.999999e-001 -3.347938e-023
    outer loop
      vertex  3.146401e-002  4.404384e-018 -6.176791e-003
      vertex -3.125000e-002  4.878910e-019 -1.867843e-009
      vertex  3.207237e-002  4.442376e-018 -8.138648e-018
    endloop
  endfacet
  facet normal -6.245005e-017  9.999999e-001 -3.347938e-023
    outer loop
      vertex  3.207237e-002  4.442376e-018 -8.138648e-018
      vertex -3.125000e-002  4.878910e-019 -1.867843e-009
      vertex -3.064164e-002  5.258831e-019  6.176789e-003
    endloop
  endfacet
  facet normal -6.245005e-017  1.000000e+000 -4.193122e-023
    outer loop
      vertex  3.207237e-002  4.442376e-018 -8.138648e-018
      vertex -3.064164e-002  5.258831e-019  6.176789e-003
      vertex  3.146401e-002  4.404384e-018  6.176791e-003
    endloop
  endfacet
  facet normal  9.951847e-001 -1.290383e-018 -9.801725e-002
    outer loop
      vertex  3.988487e-002 -1.562500e-002 -1.450208e-017
      vertex  3.988487e-002 -7.500000e-001 -4.834132e-018
      vertex  3.912639e-002 -1.562500e-002 -7.700934e-003
    endloop
  endfacet
  facet normal  9.951847e-001  0.000000e+000 -9.801725e-002
    outer loop
      vertex  3.912639e-002 -1.562500e-002 -7.700934e-003
      vertex  3.988487e-002 -7.500000e-001 -4.834132e-018
      vertex  3.912639e-002 -7.500000e-001 -7.700934e-003
    endloop
  endfacet
  facet normal  9.569404e-001  0.000000e+000 -2.902847e-001
    outer loop
      vertex  3.912639e-002 -1.562500e-002 -7.700934e-003
      vertex  3.912639e-002 -7.500000e-001 -7.700934e-003
      vertex  3.688011e-002 -1.562500e-002 -1.510592e-002
    endloop
  endfacet
  facet normal  9.569404e-001  0.000000e+000 -2.902847e-001
    outer loop
      vertex  3.688011e-002 -1.562500e-002 -1.510592e-002
      vertex  3.912639e-002 -7.500000e-001 -7.700934e-003
      vertex  3.688011e-002 -7.500000e-001 -1.510592e-002
    endloop
  endfacet
  facet normal  8.819213e-001  0.000000e+000 -4.713967e-001
    outer loop
      vertex  3.688011e-002 -1.562500e-002 -1.510592e-002
      vertex  3.688011e-002 -7.500000e-001 -1.510592e-002
      vertex  3.323235e-002 -1.562500e-002 -2.193040e-002
    endloop
  endfacet
  facet normal  8.819213e-001  0.000000e+000 -4.713967e-001
    outer loop
      vertex  3.323235e-002 -1.562500e-002 -2.193040e-002
      vertex  3.688011e-002 -7.500000e-001 -1.510592e-002
      vertex  3.323235e-002 -7.500000e-001 -2.193040e-002
    endloop
  endfacet
  facet normal  7.730105e-001  0.000000e+000 -6.343933e-001
    outer loop
      vertex  3.323235e-002 -1.562500e-002 -2.193040e-002
      vertex  3.323235e-002 -7.500000e-001 -2.193040e-002
      vertex  2.832329e-002 -1.562500e-002 -2.791211e-002
    endloop
  endfacet
  facet normal  7.730105e-001  0.000000e+000 -6.343933e-001
    outer loop
      vertex  2.832329e-002 -1.562500e-002 -2.791211e-002
      vertex  3.323235e-002 -7.500000e-001 -2.193040e-002
      vertex  2.832329e-002 -7.500000e-001 -2.791211e-002
    endloop
  endfacet
  facet normal  6.343931e-001  0.000000e+000 -7.730106e-001
    outer loop
      vertex  2.832329e-002 -1.562500e-002 -2.791211e-002
      vertex  2.832329e-002 -7.500000e-001 -2.791211e-002
      vertex  2.234159e-002 -1.562500e-002 -3.282117e-002
    endloop
  endfacet
  facet normal  6.343931e-001  0.000000e+000 -7.730106e-001
    outer loop
      vertex  2.234159e-002 -1.562500e-002 -3.282117e-002
      vertex  2.832329e-002 -7.500000e-001 -2.791211e-002
      vertex  2.234159e-002 -7.500000e-001 -3.282117e-002
    endloop
  endfacet
  facet normal  4.713971e-001  0.000000e+000 -8.819211e-001
    outer loop
      vertex  2.234159e-002 -1.562500e-002 -3.282117e-002
      vertex  2.234159e-002 -7.500000e-001 -3.282117e-002
      vertex  1.551711e-002 -1.562500e-002 -3.646893e-002
    endloop
  endfacet
  facet normal  4.713971e-001  0.000000e+000 -8.819211e-001
    outer loop
      vertex  1.551711e-002 -1.562500e-002 -3.646893e-002
      vertex  2.234159e-002 -7.500000e-001 -3.282117e-002
      vertex  1.551711e-002 -7.500000e-001 -3.646893e-002
    endloop
  endfacet
  facet normal  2.902847e-001  0.000000e+000 -9.569404e-001
    outer loop
      vertex  1.551711e-002 -1.562500e-002 -3.646893e-002
      vertex  1.551711e-002 -7.500000e-001 -3.646893e-002
      vertex  8.112118e-003 -1.562500e-002 -3.871521e-002
    endloop
  endfacet
  facet normal  2.902847e-001  0.000000e+000 -9.569404e-001
    outer loop
      vertex  8.112118e-003 -1.562500e-002 -3.871521e-002
      vertex  1.551711e-002 -7.500000e-001 -3.646893e-002
      vertex  8.112118e-003 -7.500000e-001 -3.871521e-002
    endloop
  endfacet
  facet normal  9.801677e-002  0.000000e+000 -9.951848e-001
    outer loop
      vertex  8.112118e-003 -1.562500e-002 -3.871521e-002
      vertex  8.112118e-003 -7.500000e-001 -3.871521e-002
      vertex  4.111842e-004 -1.562500e-002 -3.947368e-002
    endloop
  endfacet
  facet normal  9.801677e-002  0.000000e+000 -9.951848e-001
    outer loop
      vertex  4.111842e-004 -1.562500e-002 -3.947368e-002
      vertex  8.112118e-003 -7.500000e-001 -3.871521e-002
      vertex  4.111842e-004 -7.500000e-001 -3.947368e-002
    endloop
  endfacet
  facet normal -9.801677e-002  0.000000e+000 -9.951848e-001
    outer loop
      vertex  4.111842e-004 -1.562500e-002 -3.947368e-002
      vertex  4.111842e-004 -7.500000e-001 -3.947368e-002
      vertex -7.289750e-003 -1.562500e-002 -3.871521e-002
    endloop
  endfacet
  facet normal -9.801677e-002  -0.000000e+000 -9.951848e-001
    outer loop
      vertex -7.289750e-003 -1.562500e-002 -3.871521e-002
      vertex  4.111842e-004 -7.500000e-001 -3.947368e-002
      vertex -7.289750e-003 -7.500000e-001 -3.871521e-002
    endloop
  endfacet
  facet normal -2.902847e-001  0.000000e+000 -9.569404e-001
    outer loop
      vertex -7.289750e-003 -1.562500e-002 -3.871521e-002
      vertex -7.289750e-003 -7.500000e-001 -3.871521e-002
      vertex -1.469474e-002 -1.562500e-002 -3.646893e-002
    endloop
  endfacet
  facet normal -2.902847e-001  -0.000000e+000 -9.569404e-001
    outer loop
      vertex -1.469474e-002 -1.562500e-002 -3.646893e-002
      vertex -7.289750e-003 -7.500000e-001 -3.871521e-002
      vertex -1.469474e-002 -7.500000e-001 -3.646893e-002
    endloop
  endfacet
  facet normal -4.713971e-001  0.000000e+000 -8.819211e-001
    outer loop
      vertex -1.469474e-002 -1.562500e-002 -3.646893e-002
      vertex -1.469474e-002 -7.500000e-001 -3.646893e-002
      vertex -2.151922e-002 -1.562500e-002 -3.282117e-002
    endloop
  endfacet
  facet normal -4.713971e-001  -0.000000e+000 -8.819211e-001
    outer loop
      vertex -2.151922e-002 -1.562500e-002 -3.282117e-002
      vertex -1.469474e-002 -7.500000e-001 -3.646893e-002
      vertex -2.151922e-002 -7.500000e-001 -3.282117e-002
    endloop
  endfacet
  facet normal -6.343931e-001  0.000000e+000 -7.730106e-001
    outer loop
      vertex -2.151922e-002 -1.562500e-002 -3.282117e-002
      vertex -2.151922e-002 -7.500000e-001 -3.282117e-002
      vertex -2.750093e-002 -1.562500e-002 -2.791211e-002
    endloop
  endfacet
  facet normal -6.343931e-001  -0.000000e+000 -7.730106e-001
    outer loop
      vertex -2.750093e-002 -1.562500e-002 -2.791211e-002
      vertex -2.151922e-002 -7.500000e-001 -3.282117e-002
      vertex -2.750093e-002 -7.500000e-001 -2.791211e-002
    endloop
  endfacet
  facet normal -7.730105e-001  0.000000e+000 -6.343933e-001
    outer loop
      vertex -2.750093e-002 -1.562500e-002 -2.791211e-002
      vertex -2.750093e-002 -7.500000e-001 -2.791211e-002
      vertex -3.240998e-002 -1.562500e-002 -2.193040e-002
    endloop
  endfacet
  facet normal -7.730105e-001  -0.000000e+000 -6.343933e-001
    outer loop
      vertex -3.240998e-002 -1.562500e-002 -2.193040e-002
      vertex -2.750093e-002 -7.500000e-001 -2.791211e-002
      vertex -3.240998e-002 -7.500000e-001 -2.193040e-002
    endloop
  endfacet
  facet normal -8.819213e-001  0.000000e+000 -4.713967e-001
    outer loop
      vertex -3.240998e-002 -1.562500e-002 -2.193040e-002
      vertex -3.240998e-002 -7.500000e-001 -2.193040e-002
      vertex -3.605774e-002 -1.562500e-002 -1.510592e-002
    endloop
  endfacet
  facet normal -8.819213e-001  -0.000000e+000 -4.713967e-001
    outer loop
      vertex -3.605774e-002 -1.562500e-002 -1.510592e-002
      vertex -3.240998e-002 -7.500000e-001 -2.193040e-002
      vertex -3.605774e-002 -7.500000e-001 -1.510592e-002
    endloop
  endfacet
  facet normal -9.569404e-001  0.000000e+000 -2.902847e-001
    outer loop
      vertex -3.605774e-002 -1.562500e-002 -1.510592e-002
      vertex -3.605774e-002 -7.500000e-001 -1.510592e-002
      vertex -3.830402e-002 -1.562500e-002 -7.700934e-003
    endloop
  endfacet
  facet normal -9.569404e-001  -0.000000e+000 -2.902847e-001
    outer loop
      vertex -3.830402e-002 -1.562500e-002 -7.700934e-003
      vertex -3.605774e-002 -7.500000e-001 -1.510592e-002
      vertex -3.830402e-002 -7.500000e-001 -7.700934e-003
    endloop
  endfacet
  facet normal -9.951847e-001  0.000000e+000 -9.801725e-002
    outer loop
      vertex -3.830402e-002 -1.562500e-002 -7.700934e-003
      vertex -3.830402e-002 -7.500000e-001 -7.700934e-003
      vertex -3.906250e-002 -1.562500e-002  4.833972e-018
    endloop
  endfacet
  facet normal -9.951847e-001  -0.000000e+000 -9.801725e-002
    outer loop
      vertex -3.906250e-002 -1.562500e-002  4.833972e-018
      vertex -3.830402e-002 -7.500000e-001 -7.700934e-003
      vertex -3.906250e-002 -7.500000e-001  4.833972e-018
    endloop
  endfacet
  facet normal -9.951847e-001  0.000000e+000  9.801725e-002
    outer loop
      vertex -3.906250e-002 -1.562500e-002  4.833972e-018
      vertex -3.906250e-002 -7.500000e-001  4.833972e-018
      vertex -3.830402e-002 -1.562500e-002  7.700934e-003
    endloop
  endfacet
  facet normal -9.951847e-001  0.000000e+000  9.801725e-002
    outer loop
      vertex -3.830402e-002 -1.562500e-002  7.700934e-003
      vertex -3.906250e-002 -7.500000e-001  4.833972e-018
      vertex -3.830402e-002 -7.500000e-001  7.700934e-003
    endloop
  endfacet
  facet normal -9.569404e-001  0.000000e+000  2.902847e-001
    outer loop
      vertex -3.830402e-002 -1.562500e-002  7.700934e-003
      vertex -3.830402e-002 -7.500000e-001  7.700934e-003
      vertex -3.605774e-002 -1.562500e-002  1.510592e-002
    endloop
  endfacet
  facet normal -9.569404e-001  0.000000e+000  2.902847e-001
    outer loop
      vertex -3.605774e-002 -1.562500e-002  1.510592e-002
      vertex -3.830402e-002 -7.500000e-001  7.700934e-003
      vertex -3.605774e-002 -7.500000e-001  1.510592e-002
    endloop
  endfacet
  facet normal -8.819213e-001  0.000000e+000  4.713967e-001
    outer loop
      vertex -3.605774e-002 -1.562500e-002  1.510592e-002
      vertex -3.605774e-002 -7.500000e-001  1.510592e-002
      vertex -3.240998e-002 -1.562500e-002  2.193040e-002
    endloop
  endfacet
  facet normal -8.819213e-001  0.000000e+000  4.713967e-001
    outer loop
      vertex -3.240998e-002 -1.562500e-002  2.193040e-002
      vertex -3.605774e-002 -7.500000e-001  1.510592e-002
      vertex -3.240998e-002 -7.500000e-001  2.193040e-002
    endloop
  endfacet
  facet normal -7.730105e-001  0.000000e+000  6.343933e-001
    outer loop
      vertex -3.240998e-002 -1.562500e-002  2.193040e-002
      vertex -3.240998e-002 -7.500000e-001  2.193040e-002
      vertex -2.750093e-002 -1.562500e-002  2.791211e-002
    endloop
  endfacet
  facet normal -7.730105e-001  0.000000e+000  6.343933e-001
    outer loop
      vertex -2.750093e-002 -1.562500e-002  2.791211e-002
      vertex -3.240998e-002 -7.500000e-001  2.193040e-002
      vertex -2.750093e-002 -7.500000e-001  2.791211e-002
    endloop
  endfacet
  facet normal -6.343931e-001  0.000000e+000  7.730106e-001
    outer loop
      vertex -2.750093e-002 -1.562500e-002  2.791211e-002
      vertex -2.750093e-002 -7.500000e-001  2.791211e-002
      vertex -2.151922e-002 -1.562500e-002  3.282117e-002
    endloop
  endfacet
  facet normal -6.343931e-001  0.000000e+000  7.730106e-001
    outer loop
      vertex -2.151922e-002 -1.562500e-002  3.282117e-002
      vertex -2.750093e-002 -7.500000e-001  2.791211e-002
      vertex -2.151922e-002 -7.500000e-001  3.282117e-002
    endloop
  endfacet
  facet normal -4.713971e-001  0.000000e+000  8.819211e-001
    outer loop
      vertex -2.151922e-002 -1.562500e-002  3.282117e-002
      vertex -2.151922e-002 -7.500000e-001  3.282117e-002
      vertex -1.469474e-002 -1.562500e-002  3.646893e-002
    endloop
  endfacet
  facet normal -4.713971e-001  0.000000e+000  8.819211e-001
    outer loop
      vertex -1.469474e-002 -1.562500e-002  3.646893e-002
      vertex -2.151922e-002 -7.500000e-001  3.282117e-002
      vertex -1.469474e-002 -7.500000e-001  3.646893e-002
    endloop
  endfacet
  facet normal -2.902847e-001  0.000000e+000  9.569404e-001
    outer loop
      vertex -1.469474e-002 -1.562500e-002  3.646893e-002
      vertex -1.469474e-002 -7.500000e-001  3.646893e-002
      vertex -7.289750e-003 -1.562500e-002  3.871521e-002
    endloop
  endfacet
  facet normal -2.902847e-001  0.000000e+000  9.569404e-001
    outer loop
      vertex -7.289750e-003 -1.562500e-002  3.871521e-002
      vertex -1.469474e-002 -7.500000e-001  3.646893e-002
      vertex -7.289750e-003 -7.500000e-001  3.871521e-002
    endloop
  endfacet
  facet normal -9.801677e-002  0.000000e+000  9.951848e-001
    outer loop
      vertex -7.289750e-003 -1.562500e-002  3.871521e-002
      vertex -7.289750e-003 -7.500000e-001  3.871521e-002
      vertex  4.111842e-004 -1.562500e-002  3.947368e-002
    endloop
  endfacet
  facet normal -9.801677e-002  0.000000e+000  9.951848e-001
    outer loop
      vertex  4.111842e-004 -1.562500e-002  3.947368e-002
      vertex -7.289750e-003 -7.500000e-001  3.871521e-002
      vertex  4.111842e-004 -7.500000e-001  3.947368e-002
    endloop
  endfacet
  facet normal  9.801677e-002  -0.000000e+000  9.951848e-001
    outer loop
      vertex  4.111842e-004 -1.562500e-002  3.947368e-002
      vertex  4.111842e-004 -7.500000e-001  3.947368e-002
      vertex  8.112118e-003 -1.562500e-002  3.871521e-002
    endloop
  endfacet
  facet normal  9.801677e-002  0.000000e+000  9.951848e-001
    outer loop
      vertex  8.112118e-003 -1.562500e-002  3.871521e-002
      vertex  4.111842e-004 -7.500000e-001  3.947368e-002
      vertex  8.112118e-003 -7.500000e-001  3.871521e-002
    endloop
  endfacet
  facet normal  2.902847e-001  -0.000000e+000  9.569404e-001
    outer loop
      vertex  8.112118e-003 -1.562500e-002  3.871521e-002
      vertex  8.112118e-003 -7.500000e-001  3.871521e-002
      vertex  1.551711e-002 -1.562500e-002  3.646893e-002
    endloop
  endfacet
  facet normal  2.902847e-001  0.000000e+000  9.569404e-001
    outer loop
      vertex  1.551711e-002 -1.562500e-002  3.646893e-002
      vertex  8.112118e-003 -7.500000e-001  3.871521e-002
      vertex  1.551711e-002 -7.500000e-001  3.646893e-002
    endloop
  endfacet
  facet normal  4.713971e-001  -0.000000e+000  8.819211e-001
    outer loop
      vertex  1.551711e-002 -1.562500e-002  3.646893e-002
      vertex  1.551711e-002 -7.500000e-001  3.646893e-002
      vertex  2.234159e-002 -1.562500e-002  3.282117e-002
    endloop
  endfacet
  facet normal  4.713971e-001  0.000000e+000  8.819211e-001
    outer loop
      vertex  2.234159e-002 -1.562500e-002  3.282117e-002
      vertex  1.551711e-002 -7.500000e-001  3.646893e-002
      vertex  2.234159e-002 -7.500000e-001  3.282117e-002
    endloop
  endfacet
  facet normal  6.343931e-001  -0.000000e+000  7.730106e-001
    outer loop
      vertex  2.234159e-002 -1.562500e-002  3.282117e-002
      vertex  2.234159e-002 -7.500000e-001  3.282117e-002
      vertex  2.832329e-002 -1.562500e-002  2.791211e-002
    endloop
  endfacet
  facet normal  6.343931e-001  0.000000e+000  7.730106e-001
    outer loop
      vertex  2.832329e-002 -1.562500e-002  2.791211e-002
      vertex  2.234159e-002 -7.500000e-001  3.282117e-002
      vertex  2.832329e-002 -7.500000e-001  2.791211e-002
    endloop
  endfacet
  facet normal  7.730105e-001  -0.000000e+000  6.343933e-001
    outer loop
      vertex  2.832329e-002 -1.562500e-002  2.791211e-002
      vertex  2.832329e-002 -7.500000e-001  2.791211e-002
      vertex  3.323235e-002 -1.562500e-002  2.193040e-002
    endloop
  endfacet
  facet normal  7.730105e-001  0.000000e+000  6.343933e-001
    outer loop
      vertex  3.323235e-002 -1.562500e-002  2.193040e-002
      vertex  2.832329e-002 -7.500000e-001  2.791211e-002
      vertex  3.323235e-002 -7.500000e-001  2.193040e-002
    endloop
  endfacet
  facet normal  8.819213e-001  -0.000000e+000  4.713967e-001
    outer loop
      vertex  3.323235e-002 -1.562500e-002  2.193040e-002
      vertex  3.323235e-002 -7.500000e-001  2.193040e-002
      vertex  3.688011e-002 -1.562500e-002  1.510592e-002
    endloop
  endfacet
  facet normal  8.819213e-001  0.000000e+000  4.713967e-001
    outer loop
      vertex  3.688011e-002 -1.562500e-002  1.510592e-002
      vertex  3.323235e-002 -7.500000e-001  2.193040e-002
      vertex  3.688011e-002 -7.500000e-001  1.510592e-002
    endloop
  endfacet
  facet normal  9.569404e-001  -0.000000e+000  2.902847e-001
    outer loop
      vertex  3.688011e-002 -1.562500e-002  1.510592e-002
      vertex  3.688011e-002 -7.500000e-001  1.510592e-002
      vertex  3.912639e-002 -1.562500e-002  7.700934e-003
    endloop
  endfacet
  facet normal  9.569404e-001  0.000000e+000  2.902847e-001
    outer loop
      vertex  3.912639e-002 -1.562500e-002  7.700934e-003
      vertex  3.688011e-002 -7.500000e-001  1.510592e-002
      vertex  3.912639e-002 -7.500000e-001  7.700934e-003
    endloop
  endfacet
  facet normal  9.951847e-001  -0.000000e+000  9.801725e-002
    outer loop
      vertex  3.912639e-002 -1.562500e-002  7.700934e-003
      vertex  3.912639e-002 -7.500000e-001  7.700934e-003
      vertex  3.988487e-002 -1.562500e-002 -1.450208e-017
    endloop
  endfacet
  facet normal  9.951847e-001  1.290383e-018  9.801725e-002
    outer loop
      vertex  3.988487e-002 -1.562500e-002 -1.450208e-017
      vertex  3.912639e-002 -7.500000e-001  7.700934e-003
      vertex  3.988487e-002 -7.500000e-001 -4.834132e-018
    endloop
  endfacet
  facet normal  8.909767e-001  4.454884e-001  8.775364e-002
    outer loop
      vertex  3.207237e-002  4.442376e-018 -8.138648e-018
      vertex  3.912639e-002 -1.562500e-002  7.700934e-003
      vertex  3.988487e-002 -1.562500e-002 -1.450208e-017
    endloop
  endfacet
  facet normal  8.909766e-001  4.454884e-001  8.775375e-002
    outer loop
      vertex  3.207237e-002  4.442376e-018 -8.138648e-018
      vertex  3.146401e-002  4.404384e-018  6.176791e-003
      vertex  3.912639e-002 -1.562500e-002  7.700934e-003
    endloop
  endfacet
  facet normal -8.909767e-001  4.454884e-001  8.775349e-002
    outer loop
      vertex -3.906250e-002 -1.562500e-002  4.833972e-018
      vertex -3.064164e-002  5.258831e-019  6.176789e-003
      vertex -3.125000e-002  4.878910e-019 -1.867843e-009
    endloop
  endfacet
  facet normal -8.909767e-001  4.454883e-001  8.775364e-002
    outer loop
      vertex -3.906250e-002 -1.562500e-002  4.833972e-018
      vertex -3.830402e-002 -1.562500e-002  7.700934e-003
      vertex -3.064164e-002  5.258831e-019  6.176789e-003
    endloop
  endfacet
  facet normal  8.567370e-001  4.454884e-001  2.598883e-001
    outer loop
      vertex  2.966230e-002  4.291867e-018  1.211621e-002
      vertex  3.688011e-002 -1.562500e-002  1.510592e-002
      vertex  3.912639e-002 -1.562500e-002  7.700934e-003
    endloop
  endfacet
  facet normal  8.567370e-001  4.454884e-001  2.598883e-001
    outer loop
      vertex  2.966230e-002  4.291867e-018  1.211621e-002
      vertex  3.912639e-002 -1.562500e-002  7.700934e-003
      vertex  3.146401e-002  4.404384e-018  6.176791e-003
    endloop
  endfacet
  facet normal  7.895733e-001  4.454884e-001  4.220356e-001
    outer loop
      vertex  2.673650e-002  4.109150e-018  1.759001e-002
      vertex  3.323235e-002 -1.562500e-002  2.193040e-002
      vertex  3.688011e-002 -1.562500e-002  1.510592e-002
    endloop
  endfacet
  facet normal  7.895733e-001  4.454884e-001  4.220356e-001
    outer loop
      vertex  2.673650e-002  4.109150e-018  1.759001e-002
      vertex  3.688011e-002 -1.562500e-002  1.510592e-002
      vertex  2.966230e-002  4.291867e-018  1.211621e-002
    endloop
  endfacet
  facet normal  6.920668e-001  4.454884e-001  5.679645e-001
    outer loop
      vertex  2.279902e-002  3.863255e-018  2.238784e-002
      vertex  2.832329e-002 -1.562500e-002  2.791211e-002
      vertex  3.323235e-002 -1.562500e-002  2.193040e-002
    endloop
  endfacet
  facet normal  6.920668e-001  4.454884e-001  5.679645e-001
    outer loop
      vertex  2.279902e-002  3.863255e-018  2.238784e-002
      vertex  3.323235e-002 -1.562500e-002  2.193040e-002
      vertex  2.673650e-002  4.109150e-018  1.759001e-002
    endloop
  endfacet
  facet normal  5.679644e-001  4.454883e-001  6.920669e-001
    outer loop
      vertex  1.800120e-002  3.563630e-018  2.632531e-002
      vertex  2.234159e-002 -1.562500e-002  3.282117e-002
      vertex  2.832329e-002 -1.562500e-002  2.791211e-002
    endloop
  endfacet
  facet normal  5.679646e-001  4.454884e-001  6.920668e-001
    outer loop
      vertex  1.800120e-002  3.563630e-018  2.632531e-002
      vertex  2.832329e-002 -1.562500e-002  2.791211e-002
      vertex  2.279902e-002  3.863255e-018  2.238784e-002
    endloop
  endfacet
  facet normal  4.220360e-001  4.454884e-001  7.895731e-001
    outer loop
      vertex  1.252739e-002  3.221791e-018  2.925112e-002
      vertex  1.551711e-002 -1.562500e-002  3.646893e-002
      vertex  2.234159e-002 -1.562500e-002  3.282117e-002
    endloop
  endfacet
  facet normal  4.220357e-001  4.454882e-001  7.895733e-001
    outer loop
      vertex  1.252739e-002  3.221791e-018  2.925112e-002
      vertex  2.234159e-002 -1.562500e-002  3.282117e-002
      vertex  1.800120e-002  3.563630e-018  2.632531e-002
    endloop
  endfacet
  facet normal  2.598883e-001  4.454884e-001  8.567369e-001
    outer loop
      vertex  6.587974e-003  2.850874e-018  3.105282e-002
      vertex  8.112118e-003 -1.562500e-002  3.871521e-002
      vertex  1.551711e-002 -1.562500e-002  3.646893e-002
    endloop
  endfacet
  facet normal  2.598883e-001  4.454884e-001  8.567369e-001
    outer loop
      vertex  6.587974e-003  2.850874e-018  3.105282e-002
      vertex  1.551711e-002 -1.562500e-002  3.646893e-002
      vertex  1.252739e-002  3.221791e-018  2.925112e-002
    endloop
  endfacet
  facet normal  8.775321e-002  4.454884e-001  8.909767e-001
    outer loop
      vertex  4.111833e-004  2.465133e-018  3.166118e-002
      vertex  4.111842e-004 -1.562500e-002  3.947368e-002
      vertex  8.112118e-003 -1.562500e-002  3.871521e-002
    endloop
  endfacet
  facet normal  8.775321e-002  4.454883e-001  8.909767e-001
    outer loop
      vertex  4.111833e-004  2.465133e-018  3.166118e-002
      vertex  8.112118e-003 -1.562500e-002  3.871521e-002
      vertex  6.587974e-003  2.850874e-018  3.105282e-002
    endloop
  endfacet
  facet normal -8.775321e-002  4.454884e-001  8.909767e-001
    outer loop
      vertex -5.765608e-003  2.079392e-018  3.105282e-002
      vertex -7.289750e-003 -1.562500e-002  3.871521e-002
      vertex  4.111842e-004 -1.562500e-002  3.947368e-002
    endloop
  endfacet
  facet normal -8.775322e-002  4.454884e-001  8.909767e-001
    outer loop
      vertex -5.765608e-003  2.079392e-018  3.105282e-002
      vertex  4.111842e-004 -1.562500e-002  3.947368e-002
      vertex  4.111833e-004  2.465133e-018  3.166118e-002
    endloop
  endfacet
  facet normal -2.598883e-001  4.454885e-001  8.567369e-001
    outer loop
      vertex -1.170503e-002  1.708475e-018  2.925112e-002
      vertex -1.469474e-002 -1.562500e-002  3.646893e-002
      vertex -7.289750e-003 -1.562500e-002  3.871521e-002
    endloop
  endfacet
  facet normal -2.598885e-001  4.454883e-001  8.567368e-001
    outer loop
      vertex -1.170503e-002  1.708475e-018  2.925112e-002
      vertex -7.289750e-003 -1.562500e-002  3.871521e-002
      vertex -5.765608e-003  2.079392e-018  3.105282e-002
    endloop
  endfacet
  facet normal -4.220360e-001  4.454883e-001  7.895731e-001
    outer loop
      vertex -1.717883e-002  1.366636e-018  2.632531e-002
      vertex -2.151922e-002 -1.562500e-002  3.282117e-002
      vertex -1.469474e-002 -1.562500e-002  3.646893e-002
    endloop
  endfacet
  facet normal -4.220357e-001  4.454884e-001  7.895732e-001
    outer loop
      vertex -1.717883e-002  1.366636e-018  2.632531e-002
      vertex -1.469474e-002 -1.562500e-002  3.646893e-002
      vertex -1.170503e-002  1.708475e-018  2.925112e-002
    endloop
  endfacet
  facet normal -5.679644e-001  4.454883e-001  6.920669e-001
    outer loop
      vertex -2.197666e-002  1.067012e-018  2.238784e-002
      vertex -2.750093e-002 -1.562500e-002  2.791211e-002
      vertex -2.151922e-002 -1.562500e-002  3.282117e-002
    endloop
  endfacet
  facet normal -5.679644e-001  4.454883e-001  6.920669e-001
    outer loop
      vertex -2.197666e-002  1.067012e-018  2.238784e-002
      vertex -2.151922e-002 -1.562500e-002  3.282117e-002
      vertex -1.717883e-002  1.366636e-018  2.632531e-002
    endloop
  endfacet
  facet normal -6.920668e-001  4.454883e-001  5.679645e-001
    outer loop
      vertex -2.591413e-002  8.211163e-019  1.759001e-002
      vertex -3.240998e-002 -1.562500e-002  2.193040e-002
      vertex -2.750093e-002 -1.562500e-002  2.791211e-002
    endloop
  endfacet
  facet normal -6.920669e-001  4.454883e-001  5.679644e-001
    outer loop
      vertex -2.591413e-002  8.211163e-019  1.759001e-002
      vertex -2.750093e-002 -1.562500e-002  2.791211e-002
      vertex -2.197666e-002  1.067012e-018  2.238784e-002
    endloop
  endfacet
  facet normal -7.895733e-001  4.454883e-001  4.220356e-001
    outer loop
      vertex -2.883994e-002  6.383995e-019  1.211621e-002
      vertex -3.605774e-002 -1.562500e-002  1.510592e-002
      vertex -3.240998e-002 -1.562500e-002  2.193040e-002
    endloop
  endfacet
  facet normal -7.895733e-001  4.454883e-001  4.220356e-001
    outer loop
      vertex -2.883994e-002  6.383995e-019  1.211621e-002
      vertex -3.240998e-002 -1.562500e-002  2.193040e-002
      vertex -2.591413e-002  8.211163e-019  1.759001e-002
    endloop
  endfacet
  facet normal -8.567370e-001  4.454883e-001  2.598883e-001
    outer loop
      vertex -3.830402e-002 -1.562500e-002  7.700934e-003
      vertex -3.605774e-002 -1.562500e-002  1.510592e-002
      vertex -3.064164e-002  5.258831e-019  6.176789e-003
    endloop
  endfacet
  facet normal -8.567370e-001  4.454883e-001  2.598883e-001
    outer loop
      vertex -3.064164e-002  5.258831e-019  6.176789e-003
      vertex -3.605774e-002 -1.562500e-002  1.510592e-002
      vertex -2.883994e-002  6.383995e-019  1.211621e-002
    endloop
  endfacet
  facet normal -8.909767e-001  4.454884e-001 -8.775364e-002
    outer loop
      vertex -3.125000e-002  4.878910e-019 -1.867843e-009
      vertex -3.830402e-002 -1.562500e-002 -7.700934e-003
      vertex -3.906250e-002 -1.562500e-002  4.833972e-018
    endloop
  endfacet
  facet normal -8.909767e-001  4.454883e-001 -8.775349e-002
    outer loop
      vertex -3.125000e-002  4.878910e-019 -1.867843e-009
      vertex -3.064164e-002  5.258832e-019 -6.176793e-003
      vertex -3.830402e-002 -1.562500e-002 -7.700934e-003
    endloop
  endfacet
  facet normal  8.909767e-001  4.454884e-001 -8.775376e-002
    outer loop
      vertex  3.988487e-002 -1.562500e-002 -1.450208e-017
      vertex  3.146401e-002  4.404384e-018 -6.176791e-003
      vertex  3.207237e-002  4.442376e-018 -8.138648e-018
    endloop
  endfacet
  facet normal  8.909766e-001  4.454884e-001 -8.775363e-002
    outer loop
      vertex  3.988487e-002 -1.562500e-002 -1.450208e-017
      vertex  3.912639e-002 -1.562500e-002 -7.700934e-003
      vertex  3.146401e-002  4.404384e-018 -6.176791e-003
    endloop
  endfacet
  facet normal -8.567370e-001  4.454884e-001 -2.598883e-001
    outer loop
      vertex -2.883993e-002  6.383996e-019 -1.211621e-002
      vertex -3.605774e-002 -1.562500e-002 -1.510592e-002
      vertex -3.830402e-002 -1.562500e-002 -7.700934e-003
    endloop
  endfacet
  facet normal -8.567370e-001  4.454882e-001 -2.598886e-001
    outer loop
      vertex -2.883993e-002  6.383996e-019 -1.211621e-002
      vertex -3.830402e-002 -1.562500e-002 -7.700934e-003
      vertex -3.064164e-002  5.258832e-019 -6.176793e-003
    endloop
  endfacet
  facet normal -7.895733e-001  4.454884e-001 -4.220356e-001
    outer loop
      vertex -2.591413e-002  8.211164e-019 -1.759001e-002
      vertex -3.240998e-002 -1.562500e-002 -2.193040e-002
      vertex -3.605774e-002 -1.562500e-002 -1.510592e-002
    endloop
  endfacet
  facet normal -7.895733e-001  4.454883e-001 -4.220358e-001
    outer loop
      vertex -2.591413e-002  8.211164e-019 -1.759001e-002
      vertex -3.605774e-002 -1.562500e-002 -1.510592e-002
      vertex -2.883993e-002  6.383996e-019 -1.211621e-002
    endloop
  endfacet
  facet normal -6.920668e-001  4.454883e-001 -5.679645e-001
    outer loop
      vertex -2.197665e-002  1.067012e-018 -2.238784e-002
      vertex -2.750093e-002 -1.562500e-002 -2.791211e-002
      vertex -3.240998e-002 -1.562500e-002 -2.193040e-002
    endloop
  endfacet
  facet normal -6.920669e-001  4.454884e-001 -5.679644e-001
    outer loop
      vertex -2.197665e-002  1.067012e-018 -2.238784e-002
      vertex -3.240998e-002 -1.562500e-002 -2.193040e-002
      vertex -2.591413e-002  8.211164e-019 -1.759001e-002
    endloop
  endfacet
  facet normal -5.679644e-001  4.454883e-001 -6.920669e-001
    outer loop
      vertex -1.717883e-002  1.366636e-018 -2.632531e-002
      vertex -2.151922e-002 -1.562500e-002 -3.282117e-002
      vertex -2.750093e-002 -1.562500e-002 -2.791211e-002
    endloop
  endfacet
  facet normal -5.679644e-001  4.454883e-001 -6.920669e-001
    outer loop
      vertex -1.717883e-002  1.366636e-018 -2.632531e-002
      vertex -2.750093e-002 -1.562500e-002 -2.791211e-002
      vertex -2.197665e-002  1.067012e-018 -2.238784e-002
    endloop
  endfacet
  facet normal -4.220360e-001  4.454884e-001 -7.895731e-001
    outer loop
      vertex -1.170503e-002  1.708475e-018 -2.925112e-002
      vertex -1.469474e-002 -1.562500e-002 -3.646893e-002
      vertex -2.151922e-002 -1.562500e-002 -3.282117e-002
    endloop
  endfacet
  facet normal -4.220357e-001  4.454882e-001 -7.895733e-001
    outer loop
      vertex -1.170503e-002  1.708475e-018 -2.925112e-002
      vertex -2.151922e-002 -1.562500e-002 -3.282117e-002
      vertex -1.717883e-002  1.366636e-018 -2.632531e-002
    endloop
  endfacet
  facet normal -2.598883e-001  4.454884e-001 -8.567369e-001
    outer loop
      vertex -5.765605e-003  2.079393e-018 -3.105282e-002
      vertex -7.289750e-003 -1.562500e-002 -3.871521e-002
      vertex -1.469474e-002 -1.562500e-002 -3.646893e-002
    endloop
  endfacet
  facet normal -2.598883e-001  4.454884e-001 -8.567370e-001
    outer loop
      vertex -5.765605e-003  2.079393e-018 -3.105282e-002
      vertex -1.469474e-002 -1.562500e-002 -3.646893e-002
      vertex -1.170503e-002  1.708475e-018 -2.925112e-002
    endloop
  endfacet
  facet normal -8.775321e-002  4.454884e-001 -8.909767e-001
    outer loop
      vertex  4.111852e-004  2.465133e-018 -3.166118e-002
      vertex  4.111842e-004 -1.562500e-002 -3.947368e-002
      vertex -7.289750e-003 -1.562500e-002 -3.871521e-002
    endloop
  endfacet
  facet normal -8.775322e-002  4.454884e-001 -8.909767e-001
    outer loop
      vertex  4.111852e-004  2.465133e-018 -3.166118e-002
      vertex -7.289750e-003 -1.562500e-002 -3.871521e-002
      vertex -5.765605e-003  2.079393e-018 -3.105282e-002
    endloop
  endfacet
  facet normal  8.775321e-002  4.454884e-001 -8.909767e-001
    outer loop
      vertex  6.587976e-003  2.850874e-018 -3.105282e-002
      vertex  8.112118e-003 -1.562500e-002 -3.871521e-002
      vertex  4.111842e-004 -1.562500e-002 -3.947368e-002
    endloop
  endfacet
  facet normal  8.775322e-002  4.454884e-001 -8.909767e-001
    outer loop
      vertex  6.587976e-003  2.850874e-018 -3.105282e-002
      vertex  4.111842e-004 -1.562500e-002 -3.947368e-002
      vertex  4.111852e-004  2.465133e-018 -3.166118e-002
    endloop
  endfacet
  facet normal  2.598883e-001  4.454885e-001 -8.567369e-001
    outer loop
      vertex  1.252740e-002  3.221791e-018 -2.925112e-002
      vertex  1.551711e-002 -1.562500e-002 -3.646893e-002
      vertex  8.112118e-003 -1.562500e-002 -3.871521e-002
    endloop
  endfacet
  facet normal  2.598885e-001  4.454883e-001 -8.567368e-001
    outer loop
      vertex  1.252740e-002  3.221791e-018 -2.925112e-002
      vertex  8.112118e-003 -1.562500e-002 -3.871521e-002
      vertex  6.587976e-003  2.850874e-018 -3.105282e-002
    endloop
  endfacet
  facet normal  4.220360e-001  4.454883e-001 -7.895732e-001
    outer loop
      vertex  1.800120e-002  3.563631e-018 -2.632531e-002
      vertex  2.234159e-002 -1.562500e-002 -3.282117e-002
      vertex  1.551711e-002 -1.562500e-002 -3.646893e-002
    endloop
  endfacet
  facet normal  4.220357e-001  4.454884e-001 -7.895733e-001
    outer loop
      vertex  1.800120e-002  3.563631e-018 -2.632531e-002
      vertex  1.551711e-002 -1.562500e-002 -3.646893e-002
      vertex  1.252740e-002  3.221791e-018 -2.925112e-002
    endloop
  endfacet
  facet normal  5.679644e-001  4.454884e-001 -6.920669e-001
    outer loop
      vertex  2.279902e-002  3.863255e-018 -2.238784e-002
      vertex  2.832329e-002 -1.562500e-002 -2.791211e-002
      vertex  2.234159e-002 -1.562500e-002 -3.282117e-002
    endloop
  endfacet
  facet normal  5.679645e-001  4.454883e-001 -6.920668e-001
    outer loop
      vertex  2.279902e-002  3.863255e-018 -2.238784e-002
      vertex  2.234159e-002 -1.562500e-002 -3.282117e-002
      vertex  1.800120e-002  3.563631e-018 -2.632531e-002
    endloop
  endfacet
  facet normal  6.920668e-001  4.454883e-001 -5.679645e-001
    outer loop
      vertex  2.673650e-002  4.109150e-018 -1.759001e-002
      vertex  3.323235e-002 -1.562500e-002 -2.193040e-002
      vertex  2.832329e-002 -1.562500e-002 -2.791211e-002
    endloop
  endfacet
  facet normal  6.920668e-001  4.454884e-001 -5.679646e-001
    outer loop
      vertex  2.673650e-002  4.109150e-018 -1.759001e-002
      vertex  2.832329e-002 -1.562500e-002 -2.791211e-002
      vertex  2.279902e-002  3.863255e-018 -2.238784e-002
    endloop
  endfacet
  facet normal  7.895733e-001  4.454884e-001 -4.220356e-001
    outer loop
      vertex  2.966230e-002  4.291867e-018 -1.211621e-002
      vertex  3.688011e-002 -1.562500e-002 -1.510592e-002
      vertex  3.323235e-002 -1.562500e-002 -2.193040e-002
    endloop
  endfacet
  facet normal  7.895734e-001  4.454883e-001 -4.220355e-001
    outer loop
      vertex  2.966230e-002  4.291867e-018 -1.211621e-002
      vertex  3.323235e-002 -1.562500e-002 -2.193040e-002
      vertex  2.673650e-002  4.109150e-018 -1.759001e-002
    endloop
  endfacet
  facet normal  8.567370e-001  4.454884e-001 -2.598883e-001
    outer loop
      vertex  3.912639e-002 -1.562500e-002 -7.700934e-003
      vertex  3.688011e-002 -1.562500e-002 -1.510592e-002
      vertex  3.146401e-002  4.404384e-018 -6.176791e-003
    endloop
  endfacet
  facet normal  8.567370e-001  4.454884e-001 -2.598883e-001
    outer loop
      vertex  3.146401e-002  4.404384e-018 -6.176791e-003
      vertex  3.688011e-002 -1.562500e-002 -1.510592e-002
      vertex  2.966230e-002  4.291867e-018 -1.211621e-002
    endloop
  endfacet
  facet normal  0.000000e+000 -1.000000e+000  -0.000000e+000
    outer loop
      vertex  4.111842e-004 -7.500000e-001  3.947368e-002
      vertex -7.289750e-003 -7.500000e-001  3.871521e-002
      vertex -1.469474e-002 -7.500000e-001  3.646893e-002
    endloop
  endfacet
  facet normal  0.000000e+000 -1.000000e+000  -0.000000e+000
    outer loop
      vertex  8.112118e-003 -7.500000e-001  3.871521e-002
      vertex  4.111842e-004 -7.500000e-001  3.947368e-002
      vertex -1.469474e-002 -7.500000e-001  3.646893e-002
    endloop
  endfacet
  facet normal  0.000000e+000 -1.000000e+000  0.000000e+000
    outer loop
      vertex  8.112118e-003 -7.500000e-001  3.871521e-002
      vertex -1.469474e-002 -7.500000e-001  3.646893e-002
      vertex  1.551711e-002 -7.500000e-001  3.646893e-002
    endloop
  endfacet
  facet normal  0.000000e+000 -9.999999e-001  -0.000000e+000
    outer loop
      vertex  1.551711e-002 -7.500000e-001  3.646893e-002
      vertex -1.469474e-002 -7.500000e-001  3.646893e-002
      vertex -2.151922e-002 -7.500000e-001  3.282117e-002
    endloop
  endfacet
  facet normal  0.000000e+000 -1.000000e+000  0.000000e+000
    outer loop
      vertex  1.551711e-002 -7.500000e-001  3.646893e-002
      vertex -2.151922e-002 -7.500000e-001  3.282117e-002
      vertex  2.234159e-002 -7.500000e-001  3.282117e-002
    endloop
  endfacet
  facet normal  0.000000e+000 -1.000000e+000  -0.000000e+000
    outer loop
      vertex  2.234159e-002 -7.500000e-001  3.282117e-002
      vertex -2.151922e-002 -7.500000e-001  3.282117e-002
      vertex -2.750093e-002 -7.500000e-001  2.791211e-002
    endloop
  endfacet
  facet normal  0.000000e+000 -1.000000e+000  0.000000e+000
    outer loop
      vertex  2.234159e-002 -7.500000e-001  3.282117e-002
      vertex -2.750093e-002 -7.500000e-001  2.791211e-002
      vertex  2.832329e-002 -7.500000e-001  2.791211e-002
    endloop
  endfacet
  facet normal  0.000000e+000 -1.000000e+000  -0.000000e+000
    outer loop
      vertex  2.832329e-002 -7.500000e-001  2.791211e-002
      vertex -2.750093e-002 -7.500000e-001  2.791211e-002
      vertex -3.240998e-002 -7.500000e-001  2.193040e-002
    endloop
  endfacet
  facet normal  0.000000e+000 -9.999999e-001  0.000000e+000
    outer loop
      vertex  2.832329e-002 -7.500000e-001  2.791211e-002
      vertex -3.240998e-002 -7.500000e-001  2.193040e-002
      vertex  3.323235e-002 -7.500000e-001  2.193040e-002
    endloop
  endfacet
  facet normal  0.000000e+000 -9.999999e-001  -0.000000e+000
    outer loop
      vertex  3.323235e-002 -7.500000e-001  2.193040e-002
      vertex -3.240998e-002 -7.500000e-001  2.193040e-002
      vertex -3.605774e-002 -7.500000e-001  1.510592e-002
    endloop
  endfacet
  facet normal  0.000000e+000 -1.000000e+000  0.000000e+000
    outer loop
      vertex  3.323235e-002 -7.500000e-001  2.193040e-002
      vertex -3.605774e-002 -7.500000e-001  1.510592e-002
      vertex  3.688011e-002 -7.500000e-001  1.510592e-002
    endloop
  endfacet
  facet normal  0.000000e+000 -1.000000e+000  -0.000000e+000
    outer loop
      vertex  3.688011e-002 -7.500000e-001  1.510592e-002
      vertex -3.605774e-002 -7.500000e-001  1.510592e-002
      vertex -3.830402e-002 -7.500000e-001  7.700934e-003
    endloop
  endfacet
  facet normal  0.000000e+000 -1.000000e+000  0.000000e+000
    outer loop
      vertex  3.688011e-002 -7.500000e-001  1.510592e-002
      vertex -3.830402e-002 -7.500000e-001  7.700934e-003
      vertex  3.912639e-002 -7.500000e-001  7.700934e-003
    endloop
  endfacet
  facet normal  0.000000e+000 -1.000000e+000  0.000000e+000
    outer loop
      vertex  3.912639e-002 -7.500000e-001 -7.700934e-003
      vertex -3.605774e-002 -7.500000e-001 -1.510592e-002
      vertex  3.688011e-002 -7.500000e-001 -1.510592e-002
    endloop
  endfacet
  facet normal  0.000000e+000 -1.000000e+000  0.000000e+000
    outer loop
      vertex  3.688011e-002 -7.500000e-001 -1.510592e-002
      vertex -3.605774e-002 -7.500000e-001 -1.510592e-002
      vertex -3.240998e-002 -7.500000e-001 -2.193040e-002
    endloop
  endfacet
  facet normal  0.000000e+000 -9.999999e-001  0.000000e+000
    outer loop
      vertex  3.688011e-002 -7.500000e-001 -1.510592e-002
      vertex -3.240998e-002 -7.500000e-001 -2.193040e-002
      vertex  3.323235e-002 -7.500000e-001 -2.193040e-002
    endloop
  endfacet
  facet normal  0.000000e+000 -9.999999e-001  0.000000e+000
    outer loop
      vertex  3.323235e-002 -7.500000e-001 -2.193040e-002
      vertex -3.240998e-002 -7.500000e-001 -2.193040e-002
      vertex -2.750093e-002 -7.500000e-001 -2.791211e-002
    endloop
  endfacet
  facet normal  0.000000e+000 -1.000000e+000  0.000000e+000
    outer loop
      vertex  3.323235e-002 -7.500000e-001 -2.193040e-002
      vertex -2.750093e-002 -7.500000e-001 -2.791211e-002
      vertex  2.832329e-002 -7.500000e-001 -2.791211e-002
    endloop
  endfacet
  facet normal  0.000000e+000 -1.000000e+000  0.000000e+000
    outer loop
      vertex  2.832329e-002 -7.500000e-001 -2.791211e-002
      vertex -2.750093e-002 -7.500000e-001 -2.791211e-002
      vertex -2.151922e-002 -7.500000e-001 -3.282117e-002
    endloop
  endfacet
  facet normal  0.000000e+000 -1.000000e+000  0.000000e+000
    outer loop
      vertex  2.832329e-002 -7.500000e-001 -2.791211e-002
      vertex -2.151922e-002 -7.500000e-001 -3.282117e-002
      vertex  2.234159e-002 -7.500000e-001 -3.282117e-002
    endloop
  endfacet
  facet normal  0.000000e+000 -1.000000e+000  0.000000e+000
    outer loop
      vertex  2.234159e-002 -7.500000e-001 -3.282117e-002
      vertex -2.151922e-002 -7.500000e-001 -3.282117e-002
      vertex -1.469474e-002 -7.500000e-001 -3.646893e-002
    endloop
  endfacet
  facet normal  0.000000e+000 -9.999999e-001  0.000000e+000
    outer loop
      vertex  2.234159e-002 -7.500000e-001 -3.282117e-002
      vertex -1.469474e-002 -7.500000e-001 -3.646893e-002
      vertex  1.551711e-002 -7.500000e-001 -3.646893e-002
    endloop
  endfacet
  facet normal  0.000000e+000 -1.000000e+000  0.000000e+000
    outer loop
      vertex  1.551711e-002 -7.500000e-001 -3.646893e-002
      vertex -1.469474e-002 -7.500000e-001 -3.646893e-002
      vertex -7.289750e-003 -7.500000e-001 -3.871521e-002
    endloop
  endfacet
  facet normal  0.000000e+000 -1.000000e+000  0.000000e+000
    outer loop
      vertex  1.551711e-002 -7.500000e-001 -3.646893e-002
      vertex -7.289750e-003 -7.500000e-001 -3.871521e-002
      vertex  4.111842e-004 -7.500000e-001 -3.947368e-002
    endloop
  endfacet
  facet normal  0.000000e+000 -1.000000e+000  0.000000e+000
    outer loop
      vertex  1.551711e-002 -7.500000e-001 -3.646893e-002
      vertex  4.111842e-004 -7.500000e-001 -3.947368e-002
      vertex  8.112118e-003 -7.500000e-001 -3.871521e-002
    endloop
  endfacet
  facet normal  0.000000e+000 -1.000000e+000  0.000000e+000
    outer loop
      vertex  3.912639e-002 -7.500000e-001  7.700934e-003
      vertex -3.830402e-002 -7.500000e-001  7.700934e-003
      vertex  3.988487e-002 -7.500000e-001 -4.834132e-018
    endloop
  endfacet
  facet normal  0.000000e+000 -1.000000e+000  0.000000e+000
    outer loop
      vertex  3.988487e-002 -7.500000e-001 -4.834132e-018
      vertex -3.830402e-002 -7.500000e-001  7.700934e-003
      vertex -3.906250e-002 -7.500000e-001  4.833972e-018
    endloop
  endfacet
  facet normal  0.000000e+000 -1.000000e+000  0.000000e+000
    outer loop
      vertex  3.988487e-002 -7.500000e-001 -4.834132e-018
      vertex -3.906250e-002 -7.500000e-001  4.833972e-018
      vertex  3.912639e-002 -7.500000e-001 -7.700934e-003
    endloop
  endfacet
  facet normal  0.000000e+000 -1.000000e+000  0.000000e+000
    outer loop
      vertex  3.912639e-002 -7.500000e-001 -7.700934e-003
      vertex -3.906250e-002 -7.500000e-001  4.833972e-018
      vertex -3.830402e-002 -7.500000e-001 -7.700934e-003
    endloop
  endfacet
  facet normal  0.000000e+000 -1.000000e+000  0.000000e+000
    outer loop
      vertex  3.912639e-002 -7.500000e-001 -7.700934e-003
      vertex -3.830402e-002 -7.500000e-001 -7.700934e-003
      vertex -3.605774e-002 -7.500000e-001 -1.510592e-002
    endloop
  endfacet
endsolid CATIA STL
