solid CATIA STL
  facet normal  0.000000e+000 -1.000000e+000  -0.000000e+000
    outer loop
      vertex  4.657895e-001 -1.015625e-001  1.018092e-001
      vertex  4.570457e-001 -1.015625e-001  1.009480e-001
      vertex  4.486380e-001 -1.015625e-001  9.839756e-002
    endloop
  endfacet
  facet normal  0.000000e+000 -1.000000e+000  -0.000000e+000
    outer loop
      vertex  4.745332e-001 -1.015625e-001  1.009480e-001
      vertex  4.657895e-001 -1.015625e-001  1.018092e-001
      vertex  4.486380e-001 -1.015625e-001  9.839756e-002
    endloop
  endfacet
  facet normal  0.000000e+000 -9.999999e-001  0.000000e+000
    outer loop
      vertex  4.745332e-001 -1.015625e-001  1.009480e-001
      vertex  4.486380e-001 -1.015625e-001  9.839756e-002
      vertex  4.829410e-001 -1.015625e-001  9.839756e-002
    endloop
  endfacet
  facet normal  0.000000e+000 -1.000000e+000  -0.000000e+000
    outer loop
      vertex  4.829410e-001 -1.015625e-001  9.839756e-002
      vertex  4.486380e-001 -1.015625e-001  9.839756e-002
      vertex  4.408893e-001 -1.015625e-001  9.425583e-002
    endloop
  endfacet
  facet normal  0.000000e+000 -1.000000e+000  0.000000e+000
    outer loop
      vertex  4.829410e-001 -1.015625e-001  9.839756e-002
      vertex  4.408893e-001 -1.015625e-001  9.425583e-002
      vertex  4.906896e-001 -1.015625e-001  9.425583e-002
    endloop
  endfacet
  facet normal  0.000000e+000 -1.000000e+000  -0.000000e+000
    outer loop
      vertex  4.906896e-001 -1.015625e-001  9.425583e-002
      vertex  4.408893e-001 -1.015625e-001  9.425583e-002
      vertex  4.340976e-001 -1.015625e-001  8.868200e-002
    endloop
  endfacet
  facet normal  0.000000e+000 -1.000000e+000  0.000000e+000
    outer loop
      vertex  4.906896e-001 -1.015625e-001  9.425583e-002
      vertex  4.340976e-001 -1.015625e-001  8.868200e-002
      vertex  4.974813e-001 -1.015625e-001  8.868200e-002
    endloop
  endfacet
  facet normal  0.000000e+000 -1.000000e+000  -0.000000e+000
    outer loop
      vertex  4.974813e-001 -1.015625e-001  8.868200e-002
      vertex  4.340976e-001 -1.015625e-001  8.868200e-002
      vertex  4.285238e-001 -1.015625e-001  8.189028e-002
    endloop
  endfacet
  facet normal  0.000000e+000 -1.000000e+000  0.000000e+000
    outer loop
      vertex  4.974813e-001 -1.015625e-001  8.868200e-002
      vertex  4.285238e-001 -1.015625e-001  8.189028e-002
      vertex  5.030552e-001 -1.015625e-001  8.189028e-002
    endloop
  endfacet
  facet normal  0.000000e+000 -1.000000e+000  -0.000000e+000
    outer loop
      vertex  5.030552e-001 -1.015625e-001  8.189028e-002
      vertex  4.285238e-001 -1.015625e-001  8.189028e-002
      vertex  4.243820e-001 -1.015625e-001  7.414165e-002
    endloop
  endfacet
  facet normal  0.000000e+000 -1.000000e+000  0.000000e+000
    outer loop
      vertex  5.030552e-001 -1.015625e-001  8.189028e-002
      vertex  4.243820e-001 -1.015625e-001  7.414165e-002
      vertex  5.071969e-001 -1.015625e-001  7.414165e-002
    endloop
  endfacet
  facet normal  0.000000e+000 -1.000000e+000  -0.000000e+000
    outer loop
      vertex  5.071969e-001 -1.015625e-001  7.414165e-002
      vertex  4.243820e-001 -1.015625e-001  7.414165e-002
      vertex  4.218316e-001 -1.015625e-001  6.573390e-002
    endloop
  endfacet
  facet normal  0.000000e+000 -1.000000e+000  0.000000e+000
    outer loop
      vertex  5.071969e-001 -1.015625e-001  7.414165e-002
      vertex  4.218316e-001 -1.015625e-001  6.573390e-002
      vertex  5.097474e-001 -1.015625e-001  6.573390e-002
    endloop
  endfacet
  facet normal  0.000000e+000 -1.000000e+000  0.000000e+000
    outer loop
      vertex  5.097474e-001 -1.015625e-001  4.824636e-002
      vertex  4.243820e-001 -1.015625e-001  3.983861e-002
      vertex  5.071969e-001 -1.015625e-001  3.983861e-002
    endloop
  endfacet
  facet normal  0.000000e+000 -1.000000e+000  0.000000e+000
    outer loop
      vertex  5.071969e-001 -1.015625e-001  3.983861e-002
      vertex  4.243820e-001 -1.015625e-001  3.983861e-002
      vertex  4.285238e-001 -1.015625e-001  3.208999e-002
    endloop
  endfacet
  facet normal  0.000000e+000 -1.000000e+000  0.000000e+000
    outer loop
      vertex  5.071969e-001 -1.015625e-001  3.983861e-002
      vertex  4.285238e-001 -1.015625e-001  3.208999e-002
      vertex  5.030552e-001 -1.015625e-001  3.208999e-002
    endloop
  endfacet
  facet normal  0.000000e+000 -1.000000e+000  0.000000e+000
    outer loop
      vertex  5.030552e-001 -1.015625e-001  3.208999e-002
      vertex  4.285238e-001 -1.015625e-001  3.208999e-002
      vertex  4.340976e-001 -1.015625e-001  2.529826e-002
    endloop
  endfacet
  facet normal  0.000000e+000 -1.000000e+000  0.000000e+000
    outer loop
      vertex  5.030552e-001 -1.015625e-001  3.208999e-002
      vertex  4.340976e-001 -1.015625e-001  2.529826e-002
      vertex  4.974813e-001 -1.015625e-001  2.529826e-002
    endloop
  endfacet
  facet normal  0.000000e+000 -1.000000e+000  0.000000e+000
    outer loop
      vertex  4.974813e-001 -1.015625e-001  2.529826e-002
      vertex  4.340976e-001 -1.015625e-001  2.529826e-002
      vertex  4.408893e-001 -1.015625e-001  1.972443e-002
    endloop
  endfacet
  facet normal  0.000000e+000 -1.000000e+000  0.000000e+000
    outer loop
      vertex  4.974813e-001 -1.015625e-001  2.529826e-002
      vertex  4.408893e-001 -1.015625e-001  1.972443e-002
      vertex  4.906896e-001 -1.015625e-001  1.972443e-002
    endloop
  endfacet
  facet normal  0.000000e+000 -1.000000e+000  0.000000e+000
    outer loop
      vertex  4.906896e-001 -1.015625e-001  1.972443e-002
      vertex  4.408893e-001 -1.015625e-001  1.972443e-002
      vertex  4.486380e-001 -1.015625e-001  1.558270e-002
    endloop
  endfacet
  facet normal  0.000000e+000 -1.000000e+000  0.000000e+000
    outer loop
      vertex  4.906896e-001 -1.015625e-001  1.972443e-002
      vertex  4.486380e-001 -1.015625e-001  1.558270e-002
      vertex  4.829410e-001 -1.015625e-001  1.558270e-002
    endloop
  endfacet
  facet normal  0.000000e+000 -1.000000e+000  0.000000e+000
    outer loop
      vertex  4.829410e-001 -1.015625e-001  1.558270e-002
      vertex  4.486380e-001 -1.015625e-001  1.558270e-002
      vertex  4.570457e-001 -1.015625e-001  1.303224e-002
    endloop
  endfacet
  facet normal  0.000000e+000 -9.999999e-001  0.000000e+000
    outer loop
      vertex  4.829410e-001 -1.015625e-001  1.558270e-002
      vertex  4.570457e-001 -1.015625e-001  1.303224e-002
      vertex  4.657895e-001 -1.015625e-001  1.217105e-002
    endloop
  endfacet
  facet normal  0.000000e+000 -1.000000e+000  0.000000e+000
    outer loop
      vertex  4.829410e-001 -1.015625e-001  1.558270e-002
      vertex  4.657895e-001 -1.015625e-001  1.217105e-002
      vertex  4.745332e-001 -1.015625e-001  1.303224e-002
    endloop
  endfacet
  facet normal  0.000000e+000 -1.000000e+000  0.000000e+000
    outer loop
      vertex  5.097474e-001 -1.015625e-001  6.573390e-002
      vertex  4.218316e-001 -1.015625e-001  6.573390e-002
      vertex  5.106086e-001 -1.015625e-001  5.699013e-002
    endloop
  endfacet
  facet normal  0.000000e+000 -9.999999e-001  0.000000e+000
    outer loop
      vertex  5.106086e-001 -1.015625e-001  5.699013e-002
      vertex  4.218316e-001 -1.015625e-001  6.573390e-002
      vertex  4.209704e-001 -1.015625e-001  5.699013e-002
    endloop
  endfacet
  facet normal  0.000000e+000 -9.999999e-001  0.000000e+000
    outer loop
      vertex  5.106086e-001 -1.015625e-001  5.699013e-002
      vertex  4.209704e-001 -1.015625e-001  5.699013e-002
      vertex  5.097474e-001 -1.015625e-001  4.824636e-002
    endloop
  endfacet
  facet normal  0.000000e+000 -1.000000e+000  0.000000e+000
    outer loop
      vertex  5.097474e-001 -1.015625e-001  4.824636e-002
      vertex  4.209704e-001 -1.015625e-001  5.699013e-002
      vertex  4.218316e-001 -1.015625e-001  4.824636e-002
    endloop
  endfacet
  facet normal  0.000000e+000 -1.000000e+000  0.000000e+000
    outer loop
      vertex  5.097474e-001 -1.015625e-001  4.824636e-002
      vertex  4.218316e-001 -1.015625e-001  4.824636e-002
      vertex  4.243820e-001 -1.015625e-001  3.983861e-002
    endloop
  endfacet
  facet normal  9.951846e-001  0.000000e+000 -9.801818e-002
    outer loop
      vertex  5.184211e-001  5.149390e-017  5.699013e-002
      vertex  5.184211e-001 -9.375000e-002  5.699013e-002
      vertex  5.174097e-001  5.086778e-017  4.672222e-002
    endloop
  endfacet
  facet normal  9.951846e-001  0.000000e+000 -9.801818e-002
    outer loop
      vertex  5.174097e-001  5.086778e-017  4.672222e-002
      vertex  5.184211e-001 -9.375000e-002  5.699013e-002
      vertex  5.174097e-001 -9.375000e-002  4.672222e-002
    endloop
  endfacet
  facet normal  9.569410e-001  0.000000e+000 -2.902825e-001
    outer loop
      vertex  5.174097e-001  5.086778e-017  4.672222e-002
      vertex  5.174097e-001 -9.375000e-002  4.672222e-002
      vertex  5.144147e-001  5.015344e-017  3.684890e-002
    endloop
  endfacet
  facet normal  9.569410e-001  0.000000e+000 -2.902825e-001
    outer loop
      vertex  5.144147e-001  5.015344e-017  3.684890e-002
      vertex  5.174097e-001 -9.375000e-002  4.672222e-002
      vertex  5.144147e-001 -9.375000e-002  3.684890e-002
    endloop
  endfacet
  facet normal  8.819214e-001  0.000000e+000 -4.713967e-001
    outer loop
      vertex  5.144147e-001  5.015344e-017  3.684890e-002
      vertex  5.144147e-001 -9.375000e-002  3.684890e-002
      vertex  5.095510e-001  4.937833e-017  2.774959e-002
    endloop
  endfacet
  facet normal  8.819214e-001  0.000000e+000 -4.713967e-001
    outer loop
      vertex  5.095510e-001  4.937833e-017  2.774959e-002
      vertex  5.144147e-001 -9.375000e-002  3.684890e-002
      vertex  5.095510e-001 -9.375000e-002  2.774959e-002
    endloop
  endfacet
  facet normal  7.730098e-001  0.000000e+000 -6.343939e-001
    outer loop
      vertex  5.095510e-001  4.937833e-017  2.774959e-002
      vertex  5.095510e-001 -9.375000e-002  2.774959e-002
      vertex  5.030056e-001  4.857226e-017  1.977398e-002
    endloop
  endfacet
  facet normal  7.730098e-001  0.000000e+000 -6.343939e-001
    outer loop
      vertex  5.030056e-001  4.857226e-017  1.977398e-002
      vertex  5.095510e-001 -9.375000e-002  2.774959e-002
      vertex  5.030056e-001 -9.375000e-002  1.977398e-002
    endloop
  endfacet
  facet normal  6.343932e-001  0.000000e+000 -7.730105e-001
    outer loop
      vertex  5.030056e-001  4.857226e-017  1.977398e-002
      vertex  5.030056e-001 -9.375000e-002  1.977398e-002
      vertex  4.950300e-001  4.776618e-017  1.322857e-002
    endloop
  endfacet
  facet normal  6.343932e-001  0.000000e+000 -7.730105e-001
    outer loop
      vertex  4.950300e-001  4.776618e-017  1.322857e-002
      vertex  5.030056e-001 -9.375000e-002  1.977398e-002
      vertex  4.950300e-001 -9.375000e-002  1.322857e-002
    endloop
  endfacet
  facet normal  4.713968e-001  0.000000e+000 -8.819213e-001
    outer loop
      vertex  4.950300e-001  4.776618e-017  1.322857e-002
      vertex  4.950300e-001 -9.375000e-002  1.322857e-002
      vertex  4.859307e-001  4.699108e-017  8.364893e-003
    endloop
  endfacet
  facet normal  4.713968e-001  0.000000e+000 -8.819213e-001
    outer loop
      vertex  4.859307e-001  4.699108e-017  8.364893e-003
      vertex  4.950300e-001 -9.375000e-002  1.322857e-002
      vertex  4.859307e-001 -9.375000e-002  8.364893e-003
    endloop
  endfacet
  facet normal  2.902844e-001  0.000000e+000 -9.569404e-001
    outer loop
      vertex  4.859307e-001  4.699108e-017  8.364893e-003
      vertex  4.859307e-001 -9.375000e-002  8.364893e-003
      vertex  4.760574e-001  4.627674e-017  5.369854e-003
    endloop
  endfacet
  facet normal  2.902844e-001  0.000000e+000 -9.569404e-001
    outer loop
      vertex  4.760574e-001  4.627674e-017  5.369854e-003
      vertex  4.859307e-001 -9.375000e-002  8.364893e-003
      vertex  4.760574e-001 -9.375000e-002  5.369854e-003
    endloop
  endfacet
  facet normal  9.801710e-002  0.000000e+000 -9.951847e-001
    outer loop
      vertex  4.760574e-001  4.627674e-017  5.369854e-003
      vertex  4.760574e-001 -9.375000e-002  5.369854e-003
      vertex  4.657895e-001  4.565062e-017  4.358553e-003
    endloop
  endfacet
  facet normal  9.801710e-002  0.000000e+000 -9.951847e-001
    outer loop
      vertex  4.657895e-001  4.565062e-017  4.358553e-003
      vertex  4.760574e-001 -9.375000e-002  5.369854e-003
      vertex  4.657895e-001 -9.375000e-002  4.358553e-003
    endloop
  endfacet
  facet normal -9.801710e-002  0.000000e+000 -9.951847e-001
    outer loop
      vertex  4.657895e-001  4.565062e-017  4.358553e-003
      vertex  4.657895e-001 -9.375000e-002  4.358553e-003
      vertex  4.555216e-001  4.513677e-017  5.369854e-003
    endloop
  endfacet
  facet normal -9.801710e-002  -0.000000e+000 -9.951847e-001
    outer loop
      vertex  4.555216e-001  4.513677e-017  5.369854e-003
      vertex  4.657895e-001 -9.375000e-002  4.358553e-003
      vertex  4.555216e-001 -9.375000e-002  5.369854e-003
    endloop
  endfacet
  facet normal -2.902852e-001  0.000000e+000 -9.569401e-001
    outer loop
      vertex  4.555216e-001  4.513677e-017  5.369854e-003
      vertex  4.555216e-001 -9.375000e-002  5.369854e-003
      vertex  4.456483e-001  4.475495e-017  8.364893e-003
    endloop
  endfacet
  facet normal -2.902852e-001  -0.000000e+000 -9.569401e-001
    outer loop
      vertex  4.456483e-001  4.475495e-017  8.364893e-003
      vertex  4.555216e-001 -9.375000e-002  5.369854e-003
      vertex  4.456483e-001 -9.375000e-002  8.364893e-003
    endloop
  endfacet
  facet normal -4.713968e-001  0.000000e+000 -8.819213e-001
    outer loop
      vertex  4.456483e-001  4.475495e-017  8.364893e-003
      vertex  4.456483e-001 -9.375000e-002  8.364893e-003
      vertex  4.365489e-001  4.451983e-017  1.322857e-002
    endloop
  endfacet
  facet normal -4.713968e-001  -0.000000e+000 -8.819213e-001
    outer loop
      vertex  4.365489e-001  4.451983e-017  1.322857e-002
      vertex  4.456483e-001 -9.375000e-002  8.364893e-003
      vertex  4.365489e-001 -9.375000e-002  1.322857e-002
    endloop
  endfacet
  facet normal -6.343932e-001  0.000000e+000 -7.730105e-001
    outer loop
      vertex  4.365489e-001  4.451983e-017  1.322857e-002
      vertex  4.365489e-001 -9.375000e-002  1.322857e-002
      vertex  4.285733e-001  4.444043e-017  1.977398e-002
    endloop
  endfacet
  facet normal -6.343932e-001  -0.000000e+000 -7.730105e-001
    outer loop
      vertex  4.285733e-001  4.444043e-017  1.977398e-002
      vertex  4.365489e-001 -9.375000e-002  1.322857e-002
      vertex  4.285733e-001 -9.375000e-002  1.977398e-002
    endloop
  endfacet
  facet normal -7.730098e-001  0.000000e+000 -6.343939e-001
    outer loop
      vertex  4.285733e-001  4.444043e-017  1.977398e-002
      vertex  4.285733e-001 -9.375000e-002  1.977398e-002
      vertex  4.220279e-001  4.451983e-017  2.774959e-002
    endloop
  endfacet
  facet normal -7.730098e-001  -0.000000e+000 -6.343939e-001
    outer loop
      vertex  4.220279e-001  4.451983e-017  2.774959e-002
      vertex  4.285733e-001 -9.375000e-002  1.977398e-002
      vertex  4.220279e-001 -9.375000e-002  2.774959e-002
    endloop
  endfacet
  facet normal -8.819214e-001  0.000000e+000 -4.713967e-001
    outer loop
      vertex  4.220279e-001  4.451983e-017  2.774959e-002
      vertex  4.220279e-001 -9.375000e-002  2.774959e-002
      vertex  4.171642e-001  4.475495e-017  3.684890e-002
    endloop
  endfacet
  facet normal -8.819214e-001  -0.000000e+000 -4.713967e-001
    outer loop
      vertex  4.171642e-001  4.475495e-017  3.684890e-002
      vertex  4.220279e-001 -9.375000e-002  2.774959e-002
      vertex  4.171642e-001 -9.375000e-002  3.684890e-002
    endloop
  endfacet
  facet normal -9.569402e-001  0.000000e+000 -2.902851e-001
    outer loop
      vertex  4.171642e-001  4.475495e-017  3.684890e-002
      vertex  4.171642e-001 -9.375000e-002  3.684890e-002
      vertex  4.141692e-001  4.513677e-017  4.672222e-002
    endloop
  endfacet
  facet normal -9.569402e-001  -0.000000e+000 -2.902851e-001
    outer loop
      vertex  4.141692e-001  4.513677e-017  4.672222e-002
      vertex  4.171642e-001 -9.375000e-002  3.684890e-002
      vertex  4.141692e-001 -9.375000e-002  4.672222e-002
    endloop
  endfacet
  facet normal -9.951846e-001  0.000000e+000 -9.801818e-002
    outer loop
      vertex  4.141692e-001  4.513677e-017  4.672222e-002
      vertex  4.141692e-001 -9.375000e-002  4.672222e-002
      vertex  4.131579e-001  4.565062e-017  5.699013e-002
    endloop
  endfacet
  facet normal -9.951846e-001  -0.000000e+000 -9.801818e-002
    outer loop
      vertex  4.131579e-001  4.565062e-017  5.699013e-002
      vertex  4.141692e-001 -9.375000e-002  4.672222e-002
      vertex  4.131579e-001 -9.375000e-002  5.699013e-002
    endloop
  endfacet
  facet normal -9.951846e-001  0.000000e+000  9.801818e-002
    outer loop
      vertex  4.131579e-001  4.565062e-017  5.699013e-002
      vertex  4.131579e-001 -9.375000e-002  5.699013e-002
      vertex  4.141692e-001  4.627674e-017  6.725805e-002
    endloop
  endfacet
  facet normal -9.951846e-001  0.000000e+000  9.801818e-002
    outer loop
      vertex  4.141692e-001  4.627674e-017  6.725805e-002
      vertex  4.131579e-001 -9.375000e-002  5.699013e-002
      vertex  4.141692e-001 -9.375000e-002  6.725805e-002
    endloop
  endfacet
  facet normal -9.569402e-001  0.000000e+000  2.902851e-001
    outer loop
      vertex  4.141692e-001  4.627674e-017  6.725805e-002
      vertex  4.141692e-001 -9.375000e-002  6.725805e-002
      vertex  4.171642e-001  4.699108e-017  7.713137e-002
    endloop
  endfacet
  facet normal -9.569402e-001  0.000000e+000  2.902851e-001
    outer loop
      vertex  4.171642e-001  4.699108e-017  7.713137e-002
      vertex  4.141692e-001 -9.375000e-002  6.725805e-002
      vertex  4.171642e-001 -9.375000e-002  7.713137e-002
    endloop
  endfacet
  facet normal -8.819213e-001  0.000000e+000  4.713967e-001
    outer loop
      vertex  4.171642e-001  4.699108e-017  7.713137e-002
      vertex  4.171642e-001 -9.375000e-002  7.713137e-002
      vertex  4.220279e-001  4.776618e-017  8.623067e-002
    endloop
  endfacet
  facet normal -8.819213e-001  0.000000e+000  4.713967e-001
    outer loop
      vertex  4.220279e-001  4.776618e-017  8.623067e-002
      vertex  4.171642e-001 -9.375000e-002  7.713137e-002
      vertex  4.220279e-001 -9.375000e-002  8.623067e-002
    endloop
  endfacet
  facet normal -7.730098e-001  0.000000e+000  6.343939e-001
    outer loop
      vertex  4.220279e-001  4.776618e-017  8.623067e-002
      vertex  4.220279e-001 -9.375000e-002  8.623067e-002
      vertex  4.285733e-001  4.857226e-017  9.420628e-002
    endloop
  endfacet
  facet normal -7.730098e-001  0.000000e+000  6.343939e-001
    outer loop
      vertex  4.285733e-001  4.857226e-017  9.420628e-002
      vertex  4.220279e-001 -9.375000e-002  8.623067e-002
      vertex  4.285733e-001 -9.375000e-002  9.420628e-002
    endloop
  endfacet
  facet normal -6.343931e-001  0.000000e+000  7.730106e-001
    outer loop
      vertex  4.285733e-001  4.857226e-017  9.420628e-002
      vertex  4.285733e-001 -9.375000e-002  9.420628e-002
      vertex  4.365489e-001  4.937833e-017  1.007517e-001
    endloop
  endfacet
  facet normal -6.343931e-001  0.000000e+000  7.730106e-001
    outer loop
      vertex  4.365489e-001  4.937833e-017  1.007517e-001
      vertex  4.285733e-001 -9.375000e-002  9.420628e-002
      vertex  4.365489e-001 -9.375000e-002  1.007517e-001
    endloop
  endfacet
  facet normal -4.713967e-001  0.000000e+000  8.819213e-001
    outer loop
      vertex  4.365489e-001  4.937833e-017  1.007517e-001
      vertex  4.365489e-001 -9.375000e-002  1.007517e-001
      vertex  4.456483e-001  5.015344e-017  1.056154e-001
    endloop
  endfacet
  facet normal -4.713967e-001  0.000000e+000  8.819213e-001
    outer loop
      vertex  4.456483e-001  5.015344e-017  1.056154e-001
      vertex  4.365489e-001 -9.375000e-002  1.007517e-001
      vertex  4.456483e-001 -9.375000e-002  1.056154e-001
    endloop
  endfacet
  facet normal -2.902850e-001  0.000000e+000  9.569402e-001
    outer loop
      vertex  4.456483e-001  5.015344e-017  1.056154e-001
      vertex  4.456483e-001 -9.375000e-002  1.056154e-001
      vertex  4.555216e-001  5.086778e-017  1.086104e-001
    endloop
  endfacet
  facet normal -2.902850e-001  0.000000e+000  9.569402e-001
    outer loop
      vertex  4.555216e-001  5.086778e-017  1.086104e-001
      vertex  4.456483e-001 -9.375000e-002  1.056154e-001
      vertex  4.555216e-001 -9.375000e-002  1.086104e-001
    endloop
  endfacet
  facet normal -9.801747e-002  0.000000e+000  9.951847e-001
    outer loop
      vertex  4.555216e-001  5.086778e-017  1.086104e-001
      vertex  4.555216e-001 -9.375000e-002  1.086104e-001
      vertex  4.657895e-001  5.149390e-017  1.096217e-001
    endloop
  endfacet
  facet normal -9.801747e-002  0.000000e+000  9.951847e-001
    outer loop
      vertex  4.657895e-001  5.149390e-017  1.096217e-001
      vertex  4.555216e-001 -9.375000e-002  1.086104e-001
      vertex  4.657895e-001 -9.375000e-002  1.096217e-001
    endloop
  endfacet
  facet normal  9.801747e-002  -0.000000e+000  9.951847e-001
    outer loop
      vertex  4.657895e-001  5.149390e-017  1.096217e-001
      vertex  4.657895e-001 -9.375000e-002  1.096217e-001
      vertex  4.760574e-001  5.200774e-017  1.086104e-001
    endloop
  endfacet
  facet normal  9.801747e-002  0.000000e+000  9.951847e-001
    outer loop
      vertex  4.760574e-001  5.200774e-017  1.086104e-001
      vertex  4.657895e-001 -9.375000e-002  1.096217e-001
      vertex  4.760574e-001 -9.375000e-002  1.086104e-001
    endloop
  endfacet
  facet normal  2.902842e-001  -0.000000e+000  9.569405e-001
    outer loop
      vertex  4.760574e-001  5.200774e-017  1.086104e-001
      vertex  4.760574e-001 -9.375000e-002  1.086104e-001
      vertex  4.859307e-001  5.238956e-017  1.056154e-001
    endloop
  endfacet
  facet normal  2.902842e-001  0.000000e+000  9.569405e-001
    outer loop
      vertex  4.859307e-001  5.238956e-017  1.056154e-001
      vertex  4.760574e-001 -9.375000e-002  1.086104e-001
      vertex  4.859307e-001 -9.375000e-002  1.056154e-001
    endloop
  endfacet
  facet normal  4.713967e-001  -0.000000e+000  8.819213e-001
    outer loop
      vertex  4.859307e-001  5.238956e-017  1.056154e-001
      vertex  4.859307e-001 -9.375000e-002  1.056154e-001
      vertex  4.950300e-001  5.262469e-017  1.007517e-001
    endloop
  endfacet
  facet normal  4.713967e-001  0.000000e+000  8.819213e-001
    outer loop
      vertex  4.950300e-001  5.262469e-017  1.007517e-001
      vertex  4.859307e-001 -9.375000e-002  1.056154e-001
      vertex  4.950300e-001 -9.375000e-002  1.007517e-001
    endloop
  endfacet
  facet normal  6.343931e-001  -0.000000e+000  7.730106e-001
    outer loop
      vertex  4.950300e-001  5.262469e-017  1.007517e-001
      vertex  4.950300e-001 -9.375000e-002  1.007517e-001
      vertex  5.030056e-001  5.270408e-017  9.420628e-002
    endloop
  endfacet
  facet normal  6.343931e-001  0.000000e+000  7.730106e-001
    outer loop
      vertex  5.030056e-001  5.270408e-017  9.420628e-002
      vertex  4.950300e-001 -9.375000e-002  1.007517e-001
      vertex  5.030056e-001 -9.375000e-002  9.420628e-002
    endloop
  endfacet
  facet normal  7.730098e-001  -0.000000e+000  6.343939e-001
    outer loop
      vertex  5.030056e-001  5.270408e-017  9.420628e-002
      vertex  5.030056e-001 -9.375000e-002  9.420628e-002
      vertex  5.095510e-001  5.262469e-017  8.623067e-002
    endloop
  endfacet
  facet normal  7.730098e-001  0.000000e+000  6.343939e-001
    outer loop
      vertex  5.095510e-001  5.262469e-017  8.623067e-002
      vertex  5.030056e-001 -9.375000e-002  9.420628e-002
      vertex  5.095510e-001 -9.375000e-002  8.623067e-002
    endloop
  endfacet
  facet normal  8.819213e-001  -0.000000e+000  4.713967e-001
    outer loop
      vertex  5.095510e-001  5.262469e-017  8.623067e-002
      vertex  5.095510e-001 -9.375000e-002  8.623067e-002
      vertex  5.144147e-001  5.238956e-017  7.713137e-002
    endloop
  endfacet
  facet normal  8.819213e-001  0.000000e+000  4.713967e-001
    outer loop
      vertex  5.144147e-001  5.238956e-017  7.713137e-002
      vertex  5.095510e-001 -9.375000e-002  8.623067e-002
      vertex  5.144147e-001 -9.375000e-002  7.713137e-002
    endloop
  endfacet
  facet normal  9.569410e-001  -0.000000e+000  2.902824e-001
    outer loop
      vertex  5.144147e-001  5.238956e-017  7.713137e-002
      vertex  5.144147e-001 -9.375000e-002  7.713137e-002
      vertex  5.174097e-001  5.200774e-017  6.725805e-002
    endloop
  endfacet
  facet normal  9.569410e-001  0.000000e+000  2.902824e-001
    outer loop
      vertex  5.174097e-001  5.200774e-017  6.725805e-002
      vertex  5.144147e-001 -9.375000e-002  7.713137e-002
      vertex  5.174097e-001 -9.375000e-002  6.725805e-002
    endloop
  endfacet
  facet normal  9.951846e-001  -0.000000e+000  9.801818e-002
    outer loop
      vertex  5.174097e-001  5.200774e-017  6.725805e-002
      vertex  5.174097e-001 -9.375000e-002  6.725805e-002
      vertex  5.184211e-001  5.149390e-017  5.699013e-002
    endloop
  endfacet
  facet normal  9.951846e-001  0.000000e+000  9.801818e-002
    outer loop
      vertex  5.184211e-001  5.149390e-017  5.699013e-002
      vertex  5.174097e-001 -9.375000e-002  6.725805e-002
      vertex  5.184211e-001 -9.375000e-002  5.699013e-002
    endloop
  endfacet
  facet normal -7.053981e-001 -7.053981e-001  6.947657e-002
    outer loop
      vertex  4.209704e-001 -1.015625e-001  5.699013e-002
      vertex  4.218316e-001 -1.015625e-001  6.573390e-002
      vertex  4.131579e-001 -9.375000e-002  5.699013e-002
    endloop
  endfacet
  facet normal -7.053980e-001 -7.053982e-001  6.947638e-002
    outer loop
      vertex  4.218316e-001 -1.015625e-001  6.573390e-002
      vertex  4.141692e-001 -9.375000e-002  6.725805e-002
      vertex  4.131579e-001 -9.375000e-002  5.699013e-002
    endloop
  endfacet
  facet normal  7.053982e-001 -7.053982e-001  6.947640e-002
    outer loop
      vertex  5.184211e-001 -9.375000e-002  5.699013e-002
      vertex  5.174097e-001 -9.375000e-002  6.725805e-002
      vertex  5.106086e-001 -1.015625e-001  5.699013e-002
    endloop
  endfacet
  facet normal  7.053997e-001 -7.053968e-001  6.947433e-002
    outer loop
      vertex  5.174097e-001 -9.375000e-002  6.725805e-002
      vertex  5.097474e-001 -1.015625e-001  6.573390e-002
      vertex  5.106086e-001 -1.015625e-001  5.699013e-002
    endloop
  endfacet
  facet normal  6.782899e-001 -7.053988e-001  2.057552e-001
    outer loop
      vertex  5.174097e-001 -9.375000e-002  6.725805e-002
      vertex  5.144147e-001 -9.375000e-002  7.713137e-002
      vertex  5.071969e-001 -1.015625e-001  7.414165e-002
    endloop
  endfacet
  facet normal  6.782910e-001 -7.053968e-001  2.057589e-001
    outer loop
      vertex  5.097474e-001 -1.015625e-001  6.573390e-002
      vertex  5.174097e-001 -9.375000e-002  6.725805e-002
      vertex  5.071969e-001 -1.015625e-001  7.414165e-002
    endloop
  endfacet
  facet normal  5.479171e-001 -7.053995e-001  4.496647e-001
    outer loop
      vertex  5.095510e-001 -9.375000e-002  8.623067e-002
      vertex  5.030056e-001 -9.375000e-002  9.420628e-002
      vertex  5.030552e-001 -1.015625e-001  8.189028e-002
    endloop
  endfacet
  facet normal  6.251144e-001 -7.053997e-001  3.341306e-001
    outer loop
      vertex  5.030552e-001 -1.015625e-001  8.189028e-002
      vertex  5.144147e-001 -9.375000e-002  7.713137e-002
      vertex  5.095510e-001 -9.375000e-002  8.623067e-002
    endloop
  endfacet
  facet normal  6.251145e-001 -7.053987e-001  3.341324e-001
    outer loop
      vertex  5.071969e-001 -1.015625e-001  7.414165e-002
      vertex  5.144147e-001 -9.375000e-002  7.713137e-002
      vertex  5.030552e-001 -1.015625e-001  8.189028e-002
    endloop
  endfacet
  facet normal  3.341314e-001 -7.053981e-001  6.251158e-001
    outer loop
      vertex  4.950300e-001 -9.375000e-002  1.007517e-001
      vertex  4.859307e-001 -9.375000e-002  1.056154e-001
      vertex  4.829410e-001 -1.015625e-001  9.839756e-002
    endloop
  endfacet
  facet normal  3.341318e-001 -7.053985e-001  6.251150e-001
    outer loop
      vertex  4.906896e-001 -1.015625e-001  9.425583e-002
      vertex  4.950300e-001 -9.375000e-002  1.007517e-001
      vertex  4.829410e-001 -1.015625e-001  9.839756e-002
    endloop
  endfacet
  facet normal  4.496645e-001 -7.053986e-001  5.479184e-001
    outer loop
      vertex  4.906896e-001 -1.015625e-001  9.425583e-002
      vertex  4.974813e-001 -1.015625e-001  8.868200e-002
      vertex  4.950300e-001 -9.375000e-002  1.007517e-001
    endloop
  endfacet
  facet normal  6.947587e-002 -7.053982e-001  7.053980e-001
    outer loop
      vertex  4.760574e-001 -9.375000e-002  1.086104e-001
      vertex  4.657895e-001 -9.375000e-002  1.096217e-001
      vertex  4.745332e-001 -1.015625e-001  1.009480e-001
    endloop
  endfacet
  facet normal  2.057567e-001 -7.053983e-001  6.782901e-001
    outer loop
      vertex  4.745332e-001 -1.015625e-001  1.009480e-001
      vertex  4.859307e-001 -9.375000e-002  1.056154e-001
      vertex  4.760574e-001 -9.375000e-002  1.086104e-001
    endloop
  endfacet
  facet normal  2.057564e-001 -7.053981e-001  6.782904e-001
    outer loop
      vertex  4.829410e-001 -1.015625e-001  9.839756e-002
      vertex  4.859307e-001 -9.375000e-002  1.056154e-001
      vertex  4.745332e-001 -1.015625e-001  1.009480e-001
    endloop
  endfacet
  facet normal -2.057573e-001 -7.053981e-001  6.782901e-001
    outer loop
      vertex  4.555216e-001 -9.375000e-002  1.086104e-001
      vertex  4.456483e-001 -9.375000e-002  1.056154e-001
      vertex  4.486380e-001 -1.015625e-001  9.839756e-002
    endloop
  endfacet
  facet normal -2.057570e-001 -7.053983e-001  6.782899e-001
    outer loop
      vertex  4.570457e-001 -1.015625e-001  1.009480e-001
      vertex  4.555216e-001 -9.375000e-002  1.086104e-001
      vertex  4.486380e-001 -1.015625e-001  9.839756e-002
    endloop
  endfacet
  facet normal -6.947603e-002 -7.053983e-001  7.053980e-001
    outer loop
      vertex  4.570457e-001 -1.015625e-001  1.009480e-001
      vertex  4.657895e-001 -1.015625e-001  1.018092e-001
      vertex  4.555216e-001 -9.375000e-002  1.086104e-001
    endloop
  endfacet
  facet normal -4.496653e-001 -7.053978e-001  5.479190e-001
    outer loop
      vertex  4.365489e-001 -9.375000e-002  1.007517e-001
      vertex  4.285733e-001 -9.375000e-002  9.420628e-002
      vertex  4.408893e-001 -1.015625e-001  9.425583e-002
    endloop
  endfacet
  facet normal -3.341314e-001 -7.053978e-001  6.251159e-001
    outer loop
      vertex  4.408893e-001 -1.015625e-001  9.425583e-002
      vertex  4.456483e-001 -9.375000e-002  1.056154e-001
      vertex  4.365489e-001 -9.375000e-002  1.007517e-001
    endloop
  endfacet
  facet normal -3.341310e-001 -7.053981e-001  6.251159e-001
    outer loop
      vertex  4.486380e-001 -1.015625e-001  9.839756e-002
      vertex  4.456483e-001 -9.375000e-002  1.056154e-001
      vertex  4.408893e-001 -1.015625e-001  9.425583e-002
    endloop
  endfacet
  facet normal -6.251162e-001 -7.053977e-001  3.341316e-001
    outer loop
      vertex  4.220279e-001 -9.375000e-002  8.623067e-002
      vertex  4.171642e-001 -9.375000e-002  7.713137e-002
      vertex  4.243820e-001 -1.015625e-001  7.414165e-002
    endloop
  endfacet
  facet normal -6.251147e-001 -7.053986e-001  3.341325e-001
    outer loop
      vertex  4.285238e-001 -1.015625e-001  8.189028e-002
      vertex  4.220279e-001 -9.375000e-002  8.623067e-002
      vertex  4.243820e-001 -1.015625e-001  7.414165e-002
    endloop
  endfacet
  facet normal -5.479189e-001 -7.053986e-001  4.496641e-001
    outer loop
      vertex  4.285238e-001 -1.015625e-001  8.189028e-002
      vertex  4.340976e-001 -1.015625e-001  8.868200e-002
      vertex  4.220279e-001 -9.375000e-002  8.623067e-002
    endloop
  endfacet
  facet normal -6.782899e-001 -7.053981e-001  2.057573e-001
    outer loop
      vertex  4.218316e-001 -1.015625e-001  6.573390e-002
      vertex  4.171642e-001 -9.375000e-002  7.713137e-002
      vertex  4.141692e-001 -9.375000e-002  6.725805e-002
    endloop
  endfacet
  facet normal -6.782910e-001 -7.053975e-001  2.057565e-001
    outer loop
      vertex  4.243820e-001 -1.015625e-001  7.414165e-002
      vertex  4.171642e-001 -9.375000e-002  7.713137e-002
      vertex  4.218316e-001 -1.015625e-001  6.573390e-002
    endloop
  endfacet
  facet normal  5.479189e-001 -7.053985e-001  4.496641e-001
    outer loop
      vertex  4.974813e-001 -1.015625e-001  8.868200e-002
      vertex  5.030552e-001 -1.015625e-001  8.189028e-002
      vertex  5.030056e-001 -9.375000e-002  9.420628e-002
    endloop
  endfacet
  facet normal  4.496648e-001 -7.053985e-001  5.479184e-001
    outer loop
      vertex  5.030056e-001 -9.375000e-002  9.420628e-002
      vertex  4.950300e-001 -9.375000e-002  1.007517e-001
      vertex  4.974813e-001 -1.015625e-001  8.868200e-002
    endloop
  endfacet
  facet normal  6.947604e-002 -7.053981e-001  7.053981e-001
    outer loop
      vertex  4.657895e-001 -1.015625e-001  1.018092e-001
      vertex  4.745332e-001 -1.015625e-001  1.009480e-001
      vertex  4.657895e-001 -9.375000e-002  1.096217e-001
    endloop
  endfacet
  facet normal -6.947589e-002 -7.053982e-001  7.053982e-001
    outer loop
      vertex  4.657895e-001 -9.375000e-002  1.096217e-001
      vertex  4.555216e-001 -9.375000e-002  1.086104e-001
      vertex  4.657895e-001 -1.015625e-001  1.018092e-001
    endloop
  endfacet
  facet normal -4.496651e-001 -7.053977e-001  5.479192e-001
    outer loop
      vertex  4.340976e-001 -1.015625e-001  8.868200e-002
      vertex  4.408893e-001 -1.015625e-001  9.425583e-002
      vertex  4.285733e-001 -9.375000e-002  9.420628e-002
    endloop
  endfacet
  facet normal -5.479187e-001 -7.053976e-001  4.496661e-001
    outer loop
      vertex  4.285733e-001 -9.375000e-002  9.420628e-002
      vertex  4.220279e-001 -9.375000e-002  8.623067e-002
      vertex  4.340976e-001 -1.015625e-001  8.868200e-002
    endloop
  endfacet
  facet normal  7.053983e-001 -7.053983e-001 -6.947418e-002
    outer loop
      vertex  5.106086e-001 -1.015625e-001  5.699013e-002
      vertex  5.097474e-001 -1.015625e-001  4.824636e-002
      vertex  5.184211e-001 -9.375000e-002  5.699013e-002
    endloop
  endfacet
  facet normal  7.053993e-001 -7.053968e-001 -6.947652e-002
    outer loop
      vertex  5.097474e-001 -1.015625e-001  4.824636e-002
      vertex  5.174097e-001 -9.375000e-002  4.672222e-002
      vertex  5.184211e-001 -9.375000e-002  5.699013e-002
    endloop
  endfacet
  facet normal -7.053982e-001 -7.053982e-001 -6.947640e-002
    outer loop
      vertex  4.131579e-001 -9.375000e-002  5.699013e-002
      vertex  4.141692e-001 -9.375000e-002  4.672222e-002
      vertex  4.209704e-001 -1.015625e-001  5.699013e-002
    endloop
  endfacet
  facet normal -7.053980e-001 -7.053983e-001 -6.947657e-002
    outer loop
      vertex  4.141692e-001 -9.375000e-002  4.672222e-002
      vertex  4.218316e-001 -1.015625e-001  4.824636e-002
      vertex  4.209704e-001 -1.015625e-001  5.699013e-002
    endloop
  endfacet
  facet normal -6.782906e-001 -7.053975e-001 -2.057576e-001
    outer loop
      vertex  4.141692e-001 -9.375000e-002  4.672222e-002
      vertex  4.171642e-001 -9.375000e-002  3.684890e-002
      vertex  4.243820e-001 -1.015625e-001  3.983861e-002
    endloop
  endfacet
  facet normal -6.782902e-001 -7.053982e-001 -2.057563e-001
    outer loop
      vertex  4.218316e-001 -1.015625e-001  4.824636e-002
      vertex  4.141692e-001 -9.375000e-002  4.672222e-002
      vertex  4.243820e-001 -1.015625e-001  3.983861e-002
    endloop
  endfacet
  facet normal -5.479180e-001 -7.053984e-001 -4.496655e-001
    outer loop
      vertex  4.220279e-001 -9.375000e-002  2.774959e-002
      vertex  4.285733e-001 -9.375000e-002  1.977398e-002
      vertex  4.285238e-001 -1.015625e-001  3.208999e-002
    endloop
  endfacet
  facet normal -6.251155e-001 -7.053984e-001 -3.341311e-001
    outer loop
      vertex  4.285238e-001 -1.015625e-001  3.208999e-002
      vertex  4.171642e-001 -9.375000e-002  3.684890e-002
      vertex  4.220279e-001 -9.375000e-002  2.774959e-002
    endloop
  endfacet
  facet normal -6.251156e-001 -7.053975e-001 -3.341330e-001
    outer loop
      vertex  4.243820e-001 -1.015625e-001  3.983861e-002
      vertex  4.171642e-001 -9.375000e-002  3.684890e-002
      vertex  4.285238e-001 -1.015625e-001  3.208999e-002
    endloop
  endfacet
  facet normal -3.341314e-001 -7.053981e-001 -6.251158e-001
    outer loop
      vertex  4.365489e-001 -9.375000e-002  1.322857e-002
      vertex  4.456483e-001 -9.375000e-002  8.364893e-003
      vertex  4.486380e-001 -1.015625e-001  1.558270e-002
    endloop
  endfacet
  facet normal -3.341312e-001 -7.053978e-001 -6.251161e-001
    outer loop
      vertex  4.408893e-001 -1.015625e-001  1.972443e-002
      vertex  4.365489e-001 -9.375000e-002  1.322857e-002
      vertex  4.486380e-001 -1.015625e-001  1.558270e-002
    endloop
  endfacet
  facet normal -4.496649e-001 -7.053978e-001 -5.479192e-001
    outer loop
      vertex  4.408893e-001 -1.015625e-001  1.972443e-002
      vertex  4.340976e-001 -1.015625e-001  2.529826e-002
      vertex  4.365489e-001 -9.375000e-002  1.322857e-002
    endloop
  endfacet
  facet normal -6.947562e-002 -7.053982e-001 -7.053981e-001
    outer loop
      vertex  4.555216e-001 -9.375000e-002  5.369854e-003
      vertex  4.657895e-001 -9.375000e-002  4.358553e-003
      vertex  4.570457e-001 -1.015625e-001  1.303224e-002
    endloop
  endfacet
  facet normal -2.057574e-001 -7.053983e-001 -6.782899e-001
    outer loop
      vertex  4.570457e-001 -1.015625e-001  1.303224e-002
      vertex  4.456483e-001 -9.375000e-002  8.364893e-003
      vertex  4.555216e-001 -9.375000e-002  5.369854e-003
    endloop
  endfacet
  facet normal -2.057572e-001 -7.053981e-001 -6.782901e-001
    outer loop
      vertex  4.486380e-001 -1.015625e-001  1.558270e-002
      vertex  4.456483e-001 -9.375000e-002  8.364893e-003
      vertex  4.570457e-001 -1.015625e-001  1.303224e-002
    endloop
  endfacet
  facet normal  2.057569e-001 -7.053981e-001 -6.782902e-001
    outer loop
      vertex  4.760574e-001 -9.375000e-002  5.369854e-003
      vertex  4.859307e-001 -9.375000e-002  8.364893e-003
      vertex  4.829410e-001 -1.015625e-001  1.558270e-002
    endloop
  endfacet
  facet normal  2.057565e-001 -7.053983e-001 -6.782901e-001
    outer loop
      vertex  4.745332e-001 -1.015625e-001  1.303224e-002
      vertex  4.760574e-001 -9.375000e-002  5.369854e-003
      vertex  4.829410e-001 -1.015625e-001  1.558270e-002
    endloop
  endfacet
  facet normal  6.947574e-002 -7.053983e-001 -7.053981e-001
    outer loop
      vertex  4.745332e-001 -1.015625e-001  1.303224e-002
      vertex  4.657895e-001 -1.015625e-001  1.217105e-002
      vertex  4.760574e-001 -9.375000e-002  5.369854e-003
    endloop
  endfacet
  facet normal  4.496648e-001 -7.053987e-001 -5.479182e-001
    outer loop
      vertex  4.950300e-001 -9.375000e-002  1.322857e-002
      vertex  5.030056e-001 -9.375000e-002  1.977398e-002
      vertex  4.906896e-001 -1.015625e-001  1.972443e-002
    endloop
  endfacet
  facet normal  3.341312e-001 -7.053985e-001 -6.251154e-001
    outer loop
      vertex  4.906896e-001 -1.015625e-001  1.972443e-002
      vertex  4.859307e-001 -9.375000e-002  8.364893e-003
      vertex  4.950300e-001 -9.375000e-002  1.322857e-002
    endloop
  endfacet
  facet normal  3.341321e-001 -7.053980e-001 -6.251155e-001
    outer loop
      vertex  4.829410e-001 -1.015625e-001  1.558270e-002
      vertex  4.859307e-001 -9.375000e-002  8.364893e-003
      vertex  4.906896e-001 -1.015625e-001  1.972443e-002
    endloop
  endfacet
  facet normal  6.251153e-001 -7.053988e-001 -3.341310e-001
    outer loop
      vertex  5.095510e-001 -9.375000e-002  2.774959e-002
      vertex  5.144147e-001 -9.375000e-002  3.684890e-002
      vertex  5.071969e-001 -1.015625e-001  3.983861e-002
    endloop
  endfacet
  facet normal  6.251137e-001 -7.053997e-001 -3.341319e-001
    outer loop
      vertex  5.030552e-001 -1.015625e-001  3.208999e-002
      vertex  5.095510e-001 -9.375000e-002  2.774959e-002
      vertex  5.071969e-001 -1.015625e-001  3.983861e-002
    endloop
  endfacet
  facet normal  5.479183e-001 -7.053996e-001 -4.496633e-001
    outer loop
      vertex  5.030552e-001 -1.015625e-001  3.208999e-002
      vertex  4.974813e-001 -1.015625e-001  2.529826e-002
      vertex  5.095510e-001 -9.375000e-002  2.774959e-002
    endloop
  endfacet
  facet normal  6.782917e-001 -7.053970e-001 -2.057559e-001
    outer loop
      vertex  5.097474e-001 -1.015625e-001  4.824636e-002
      vertex  5.144147e-001 -9.375000e-002  3.684890e-002
      vertex  5.174097e-001 -9.375000e-002  4.672222e-002
    endloop
  endfacet
  facet normal  6.782890e-001 -7.053989e-001 -2.057583e-001
    outer loop
      vertex  5.071969e-001 -1.015625e-001  3.983861e-002
      vertex  5.144147e-001 -9.375000e-002  3.684890e-002
      vertex  5.097474e-001 -1.015625e-001  4.824636e-002
    endloop
  endfacet
  facet normal -5.479200e-001 -7.053973e-001 -4.496648e-001
    outer loop
      vertex  4.340976e-001 -1.015625e-001  2.529826e-002
      vertex  4.285238e-001 -1.015625e-001  3.208999e-002
      vertex  4.285733e-001 -9.375000e-002  1.977398e-002
    endloop
  endfacet
  facet normal -4.496655e-001 -7.053975e-001 -5.479191e-001
    outer loop
      vertex  4.285733e-001 -9.375000e-002  1.977398e-002
      vertex  4.365489e-001 -9.375000e-002  1.322857e-002
      vertex  4.340976e-001 -1.015625e-001  2.529826e-002
    endloop
  endfacet
  facet normal -6.947574e-002 -7.053981e-001 -7.053981e-001
    outer loop
      vertex  4.657895e-001 -1.015625e-001  1.217105e-002
      vertex  4.570457e-001 -1.015625e-001  1.303224e-002
      vertex  4.657895e-001 -9.375000e-002  4.358553e-003
    endloop
  endfacet
  facet normal  6.947563e-002 -7.053981e-001 -7.053982e-001
    outer loop
      vertex  4.657895e-001 -9.375000e-002  4.358553e-003
      vertex  4.760574e-001 -9.375000e-002  5.369854e-003
      vertex  4.657895e-001 -1.015625e-001  1.217105e-002
    endloop
  endfacet
  facet normal  4.496645e-001 -7.053983e-001 -5.479188e-001
    outer loop
      vertex  4.974813e-001 -1.015625e-001  2.529826e-002
      vertex  4.906896e-001 -1.015625e-001  1.972443e-002
      vertex  5.030056e-001 -9.375000e-002  1.977398e-002
    endloop
  endfacet
  facet normal  5.479179e-001 -7.053984e-001 -4.496655e-001
    outer loop
      vertex  5.030056e-001 -9.375000e-002  1.977398e-002
      vertex  5.095510e-001 -9.375000e-002  2.774959e-002
      vertex  4.974813e-001 -1.015625e-001  2.529826e-002
    endloop
  endfacet
  facet normal -5.551115e-017  1.000000e+000 -5.550829e-017
    outer loop
      vertex  4.555216e-001  5.086778e-017  1.086104e-001
      vertex  4.657895e-001  5.149390e-017  1.096217e-001
      vertex  4.760574e-001  5.200774e-017  1.086104e-001
    endloop
  endfacet
  facet normal -5.551115e-017  1.000000e+000 -5.551240e-017
    outer loop
      vertex  4.760574e-001  5.200774e-017  1.086104e-001
      vertex  4.456483e-001  5.015344e-017  1.056154e-001
      vertex  4.555216e-001  5.086778e-017  1.086104e-001
    endloop
  endfacet
  facet normal -5.551119e-017  1.000000e+000 -5.551198e-017
    outer loop
      vertex  4.859307e-001  5.238956e-017  1.056154e-001
      vertex  4.456483e-001  5.015344e-017  1.056154e-001
      vertex  4.760574e-001  5.200774e-017  1.086104e-001
    endloop
  endfacet
  facet normal -5.551119e-017  1.000000e+000 -5.551108e-017
    outer loop
      vertex  4.365489e-001  4.937833e-017  1.007517e-001
      vertex  4.456483e-001  5.015344e-017  1.056154e-001
      vertex  4.859307e-001  5.238956e-017  1.056154e-001
    endloop
  endfacet
  facet normal -5.551118e-017  1.000000e+000 -5.551120e-017
    outer loop
      vertex  4.950300e-001  5.262469e-017  1.007517e-001
      vertex  4.365489e-001  4.937833e-017  1.007517e-001
      vertex  4.859307e-001  5.238956e-017  1.056154e-001
    endloop
  endfacet
  facet normal -5.551118e-017  1.000000e+000 -5.551099e-017
    outer loop
      vertex  4.285733e-001  4.857226e-017  9.420628e-002
      vertex  4.365489e-001  4.937833e-017  1.007517e-001
      vertex  4.950300e-001  5.262469e-017  1.007517e-001
    endloop
  endfacet
  facet normal -5.551118e-017  1.000000e+000 -5.551106e-017
    outer loop
      vertex  5.030056e-001  5.270408e-017  9.420628e-002
      vertex  4.285733e-001  4.857226e-017  9.420628e-002
      vertex  4.950300e-001  5.262469e-017  1.007517e-001
    endloop
  endfacet
  facet normal -5.551117e-017  1.000000e+000 -5.551093e-017
    outer loop
      vertex  4.220279e-001  4.776618e-017  8.623067e-002
      vertex  4.285733e-001  4.857226e-017  9.420628e-002
      vertex  5.030056e-001  5.270408e-017  9.420628e-002
    endloop
  endfacet
  facet normal -5.551113e-017  1.000000e+000 -5.551135e-017
    outer loop
      vertex  5.095510e-001  5.262469e-017  8.623067e-002
      vertex  4.220279e-001  4.776618e-017  8.623067e-002
      vertex  5.030056e-001  5.270408e-017  9.420628e-002
    endloop
  endfacet
  facet normal -5.551113e-017  1.000000e+000 -5.551116e-017
    outer loop
      vertex  4.171642e-001  4.699108e-017  7.713137e-002
      vertex  4.220279e-001  4.776618e-017  8.623067e-002
      vertex  5.095510e-001  5.262469e-017  8.623067e-002
    endloop
  endfacet
  facet normal -5.551113e-017  1.000000e+000 -5.551114e-017
    outer loop
      vertex  5.144147e-001  5.238956e-017  7.713137e-002
      vertex  4.171642e-001  4.699108e-017  7.713137e-002
      vertex  5.095510e-001  5.262469e-017  8.623067e-002
    endloop
  endfacet
  facet normal -5.551113e-017  9.999999e-001 -5.551136e-017
    outer loop
      vertex  4.141692e-001  4.627674e-017  6.725805e-002
      vertex  4.171642e-001  4.699108e-017  7.713137e-002
      vertex  5.144147e-001  5.238956e-017  7.713137e-002
    endloop
  endfacet
  facet normal -5.551118e-017  1.000000e+000 -5.551086e-017
    outer loop
      vertex  5.174097e-001  5.200774e-017  6.725805e-002
      vertex  4.141692e-001  4.627674e-017  6.725805e-002
      vertex  5.144147e-001  5.238956e-017  7.713137e-002
    endloop
  endfacet
  facet normal -5.551113e-017  9.999999e-001 -5.551155e-017
    outer loop
      vertex  5.144147e-001  5.015344e-017  3.684890e-002
      vertex  4.171642e-001  4.475495e-017  3.684890e-002
      vertex  5.174097e-001  5.086778e-017  4.672222e-002
    endloop
  endfacet
  facet normal -5.551113e-017  9.999999e-001 -5.551113e-017
    outer loop
      vertex  4.220279e-001  4.451983e-017  2.774959e-002
      vertex  4.171642e-001  4.475495e-017  3.684890e-002
      vertex  5.144147e-001  5.015344e-017  3.684890e-002
    endloop
  endfacet
  facet normal -5.551113e-017  9.999999e-001 -5.551114e-017
    outer loop
      vertex  5.095510e-001  4.937833e-017  2.774959e-002
      vertex  4.220279e-001  4.451983e-017  2.774959e-002
      vertex  5.144147e-001  5.015344e-017  3.684890e-002
    endloop
  endfacet
  facet normal -5.551113e-017  1.000000e+000 -5.551135e-017
    outer loop
      vertex  4.285733e-001  4.444043e-017  1.977398e-002
      vertex  4.220279e-001  4.451983e-017  2.774959e-002
      vertex  5.095510e-001  4.937833e-017  2.774959e-002
    endloop
  endfacet
  facet normal -5.551117e-017  1.000000e+000 -5.551093e-017
    outer loop
      vertex  5.030056e-001  4.857226e-017  1.977398e-002
      vertex  4.285733e-001  4.444043e-017  1.977398e-002
      vertex  5.095510e-001  4.937833e-017  2.774959e-002
    endloop
  endfacet
  facet normal -5.551118e-017  1.000000e+000 -5.551104e-017
    outer loop
      vertex  4.365489e-001  4.451983e-017  1.322857e-002
      vertex  4.285733e-001  4.444043e-017  1.977398e-002
      vertex  5.030056e-001  4.857226e-017  1.977398e-002
    endloop
  endfacet
  facet normal -5.551118e-017  1.000000e+000 -5.551097e-017
    outer loop
      vertex  4.950300e-001  4.776618e-017  1.322857e-002
      vertex  4.365489e-001  4.451983e-017  1.322857e-002
      vertex  5.030056e-001  4.857226e-017  1.977398e-002
    endloop
  endfacet
  facet normal -5.551118e-017  1.000000e+000 -5.551119e-017
    outer loop
      vertex  4.456483e-001  4.475495e-017  8.364893e-003
      vertex  4.365489e-001  4.451983e-017  1.322857e-002
      vertex  4.950300e-001  4.776618e-017  1.322857e-002
    endloop
  endfacet
  facet normal -5.551120e-017  1.000000e+000 -5.551106e-017
    outer loop
      vertex  4.859307e-001  4.699108e-017  8.364893e-003
      vertex  4.456483e-001  4.475495e-017  8.364893e-003
      vertex  4.950300e-001  4.776618e-017  1.322857e-002
    endloop
  endfacet
  facet normal -5.551119e-017  1.000000e+000 -5.551138e-017
    outer loop
      vertex  4.555216e-001  4.513677e-017  5.369854e-003
      vertex  4.456483e-001  4.475495e-017  8.364893e-003
      vertex  4.859307e-001  4.699108e-017  8.364893e-003
    endloop
  endfacet
  facet normal -5.551115e-017  1.000000e+000 -5.551180e-017
    outer loop
      vertex  4.760574e-001  4.627674e-017  5.369854e-003
      vertex  4.555216e-001  4.513677e-017  5.369854e-003
      vertex  4.859307e-001  4.699108e-017  8.364893e-003
    endloop
  endfacet
  facet normal -5.551115e-017  1.000000e+000 -5.550849e-017
    outer loop
      vertex  4.760574e-001  4.627674e-017  5.369854e-003
      vertex  4.657895e-001  4.565062e-017  4.358553e-003
      vertex  4.555216e-001  4.513677e-017  5.369854e-003
    endloop
  endfacet
  facet normal -5.551118e-017  1.000000e+000 -5.551106e-017
    outer loop
      vertex  4.171642e-001  4.475495e-017  3.684890e-002
      vertex  4.141692e-001  4.513677e-017  4.672222e-002
      vertex  5.174097e-001  5.086778e-017  4.672222e-002
    endloop
  endfacet
  facet normal -5.551118e-017  1.000000e+000 -5.551148e-017
    outer loop
      vertex  5.174097e-001  5.086778e-017  4.672222e-002
      vertex  4.141692e-001  4.513677e-017  4.672222e-002
      vertex  4.131579e-001  4.565062e-017  5.699013e-002
    endloop
  endfacet
  facet normal -5.551112e-017  1.000000e+000 -5.551084e-017
    outer loop
      vertex  5.174097e-001  5.086778e-017  4.672222e-002
      vertex  4.131579e-001  4.565062e-017  5.699013e-002
      vertex  5.184211e-001  5.149390e-017  5.699013e-002
    endloop
  endfacet
  facet normal -5.551112e-017  1.000000e+000 -5.551084e-017
    outer loop
      vertex  5.184211e-001  5.149390e-017  5.699013e-002
      vertex  4.131579e-001  4.565062e-017  5.699013e-002
      vertex  4.141692e-001  4.627674e-017  6.725805e-002
    endloop
  endfacet
  facet normal -5.551118e-017  1.000000e+000 -5.551148e-017
    outer loop
      vertex  5.184211e-001  5.149390e-017  5.699013e-002
      vertex  4.141692e-001  4.627674e-017  6.725805e-002
      vertex  5.174097e-001  5.200774e-017  6.725805e-002
    endloop
  endfacet
endsolid CATIA STL
