solid CATIA STL
  facet normal  0.000000e+000 -1.000000e+000  0.000000e+000
    outer loop
      vertex -2.500000e-001 -7.500000e-001  0.000000e+000
      vertex -1.562500e-002 -7.500000e-001 -1.435133e-017
      vertex -2.500000e-001 -7.500000e-001  2.500000e-001
    endloop
  endfacet
  facet normal  0.000000e+000 -1.000000e+000  0.000000e+000
    outer loop
      vertex -2.500000e-001 -7.500000e-001  2.500000e-001
      vertex -1.562500e-002 -7.500000e-001 -1.435133e-017
      vertex -1.562500e-002 -7.500000e-001  2.500000e-001
    endloop
  endfacet
  facet normal  -0.000000e+000  0.000000e+000  1.000000e+000
    outer loop
      vertex  1.530809e-017  1.387779e-017  2.500000e-001
      vertex -2.500000e-001  8.497695e-034  2.500000e-001
      vertex  5.043624e-017 -6.328125e-001  2.500000e-001
    endloop
  endfacet
  facet normal  0.000000e+000  0.000000e+000  1.000000e+000
    outer loop
      vertex  5.043624e-017 -6.328125e-001  2.500000e-001
      vertex -2.500000e-001  8.497695e-034  2.500000e-001
      vertex -2.500000e-001 -7.500000e-001  2.500000e-001
    endloop
  endfacet
  facet normal  0.000000e+000  0.000000e+000  1.000000e+000
    outer loop
      vertex  5.043624e-017 -6.328125e-001  2.500000e-001
      vertex -2.500000e-001 -7.500000e-001  2.500000e-001
      vertex -1.562500e-002 -7.500000e-001  2.500000e-001
    endloop
  endfacet
  facet normal  1.000000e+000  5.551115e-017 -6.123234e-017
    outer loop
      vertex  0.000000e+000  1.387779e-017 -1.530809e-017
      vertex  1.530809e-017  1.387779e-017  2.500000e-001
      vertex  3.512815e-017 -6.328125e-001 -1.530809e-017
    endloop
  endfacet
  facet normal  1.000000e+000  5.551115e-017 -6.123234e-017
    outer loop
      vertex  3.512815e-017 -6.328125e-001 -1.530809e-017
      vertex  1.530809e-017  1.387779e-017  2.500000e-001
      vertex  5.043624e-017 -6.328125e-001  2.500000e-001
    endloop
  endfacet
  facet normal -6.123234e-017  0.000000e+000 -1.000000e+000
    outer loop
      vertex -2.500000e-001  0.000000e+000  0.000000e+000
      vertex  0.000000e+000  1.387779e-017 -1.530809e-017
      vertex -2.500000e-001 -7.500000e-001  0.000000e+000
    endloop
  endfacet
  facet normal -6.123234e-017  0.000000e+000 -1.000000e+000
    outer loop
      vertex -2.500000e-001 -7.500000e-001  0.000000e+000
      vertex  0.000000e+000  1.387779e-017 -1.530809e-017
      vertex  3.512815e-017 -6.328125e-001 -1.530809e-017
    endloop
  endfacet
  facet normal -6.123234e-017 -1.317607e-023 -1.000000e+000
    outer loop
      vertex -2.500000e-001 -7.500000e-001  0.000000e+000
      vertex  3.512815e-017 -6.328125e-001 -1.530809e-017
      vertex -1.562500e-002 -7.500000e-001 -1.435133e-017
    endloop
  endfacet
  facet normal  9.912279e-001 -1.321637e-001  0.000000e+000
    outer loop
      vertex -1.562500e-002 -7.500000e-001  2.500000e-001
      vertex -1.562500e-002 -7.500000e-001 -1.435133e-017
      vertex  5.043624e-017 -6.328125e-001  2.500000e-001
    endloop
  endfacet
  facet normal  9.912279e-001 -1.321637e-001 -6.069520e-017
    outer loop
      vertex  5.043624e-017 -6.328125e-001  2.500000e-001
      vertex -1.562500e-002 -7.500000e-001 -1.435133e-017
      vertex  3.512815e-017 -6.328125e-001 -1.530809e-017
    endloop
  endfacet
  facet normal -5.551115e-017  1.000000e+000 -3.399078e-033
    outer loop
      vertex -2.500000e-001  0.000000e+000  0.000000e+000
      vertex -2.500000e-001  8.497695e-034  2.500000e-001
      vertex  0.000000e+000  1.387779e-017 -1.530809e-017
    endloop
  endfacet
  facet normal -5.551115e-017  1.000000e+000  3.399078e-033
    outer loop
      vertex  0.000000e+000  1.387779e-017 -1.530809e-017
      vertex -2.500000e-001  8.497695e-034  2.500000e-001
      vertex  1.530809e-017  1.387779e-017  2.500000e-001
    endloop
  endfacet
  facet normal -1.000000e+000  0.000000e+000  0.000000e+000
    outer loop
      vertex -2.500000e-001  8.497695e-034  2.500000e-001
      vertex -2.500000e-001  0.000000e+000  0.000000e+000
      vertex -2.500000e-001 -7.500000e-001  2.500000e-001
    endloop
  endfacet
  facet normal -1.000000e+000  0.000000e+000  0.000000e+000
    outer loop
      vertex -2.500000e-001 -7.500000e-001  2.500000e-001
      vertex -2.500000e-001  0.000000e+000  0.000000e+000
      vertex -2.500000e-001 -7.500000e-001  0.000000e+000
    endloop
  endfacet
endsolid CATIA STL
