solid CATIA STL
  facet normal -1.000000e+000  0.000000e+000 -6.245005e-017
    outer loop
      vertex  0.000000e+000 -7.812500e-003 -3.125000e-002
      vertex -4.391019e-018 -7.812500e-003  3.906250e-002
      vertex  1.100647e-035 -4.934210e-003 -3.125000e-002
    endloop
  endfacet
  facet normal -1.000000e+000  0.000000e+000 -6.245005e-017
    outer loop
      vertex  1.100647e-035 -4.934210e-003 -3.125000e-002
      vertex -4.391019e-018 -7.812500e-003  3.906250e-002
      vertex -4.391019e-018 -4.934210e-003  3.906250e-002
    endloop
  endfacet
  facet normal  0.000000e+000  0.000000e+000  1.000000e+000
    outer loop
      vertex  7.500000e-001 -7.812500e-003  3.906250e-002
      vertex  7.500000e-001  1.069079e-002  3.906250e-002
      vertex -4.391019e-018 -7.812500e-003  3.906250e-002
    endloop
  endfacet
  facet normal  0.000000e+000  0.000000e+000  9.999999e-001
    outer loop
      vertex -4.391019e-018 -7.812500e-003  3.906250e-002
      vertex  7.500000e-001  1.069079e-002  3.906250e-002
      vertex  4.687500e-002  1.069079e-002  3.906250e-002
    endloop
  endfacet
  facet normal  0.000000e+000  0.000000e+000  1.000000e+000
    outer loop
      vertex -4.391019e-018 -7.812500e-003  3.906250e-002
      vertex  4.687500e-002  1.069079e-002  3.906250e-002
      vertex -4.391019e-018 -4.934210e-003  3.906250e-002
    endloop
  endfacet
  facet normal  0.000000e+000  1.000000e+000  0.000000e+000
    outer loop
      vertex  4.687500e-002  1.069079e-002 -3.125000e-002
      vertex  4.687500e-002  1.069079e-002  3.906250e-002
      vertex  7.500000e-001  1.069079e-002 -3.125000e-002
    endloop
  endfacet
  facet normal  0.000000e+000  1.000000e+000  -0.000000e+000
    outer loop
      vertex  7.500000e-001  1.069079e-002 -3.125000e-002
      vertex  4.687500e-002  1.069079e-002  3.906250e-002
      vertex  7.500000e-001  1.069079e-002  3.906250e-002
    endloop
  endfacet
  facet normal  0.000000e+000  0.000000e+000 -9.999999e-001
    outer loop
      vertex  7.500000e-001  1.069079e-002 -3.125000e-002
      vertex  7.500000e-001 -7.812500e-003 -3.125000e-002
      vertex  4.687500e-002  1.069079e-002 -3.125000e-002
    endloop
  endfacet
  facet normal  0.000000e+000  -0.000000e+000 -1.000000e+000
    outer loop
      vertex  4.687500e-002  1.069079e-002 -3.125000e-002
      vertex  7.500000e-001 -7.812500e-003 -3.125000e-002
      vertex  0.000000e+000 -7.812500e-003 -3.125000e-002
    endloop
  endfacet
  facet normal  0.000000e+000  0.000000e+000 -1.000000e+000
    outer loop
      vertex  4.687500e-002  1.069079e-002 -3.125000e-002
      vertex  0.000000e+000 -7.812500e-003 -3.125000e-002
      vertex  1.100647e-035 -4.934210e-003 -3.125000e-002
    endloop
  endfacet
  facet normal -3.162278e-001  9.486833e-001  0.000000e+000
    outer loop
      vertex  4.687500e-002  1.069079e-002 -3.125000e-002
      vertex  1.100647e-035 -4.934210e-003 -3.125000e-002
      vertex  4.687500e-002  1.069079e-002  3.906250e-002
    endloop
  endfacet
  facet normal -3.162278e-001  9.486833e-001  0.000000e+000
    outer loop
      vertex  4.687500e-002  1.069079e-002  3.906250e-002
      vertex  1.100647e-035 -4.934210e-003 -3.125000e-002
      vertex -4.391019e-018 -4.934210e-003  3.906250e-002
    endloop
  endfacet
  facet normal  1.000000e+000  0.000000e+000  0.000000e+000
    outer loop
      vertex  7.500000e-001 -7.812500e-003 -3.125000e-002
      vertex  7.500000e-001  1.069079e-002 -3.125000e-002
      vertex  7.500000e-001 -7.812500e-003  3.906250e-002
    endloop
  endfacet
  facet normal  1.000000e+000  -0.000000e+000  0.000000e+000
    outer loop
      vertex  7.500000e-001 -7.812500e-003  3.906250e-002
      vertex  7.500000e-001  1.069079e-002 -3.125000e-002
      vertex  7.500000e-001  1.069079e-002  3.906250e-002
    endloop
  endfacet
  facet normal  0.000000e+000 -1.000000e+000  0.000000e+000
    outer loop
      vertex -4.391019e-018 -7.812500e-003  3.906250e-002
      vertex  0.000000e+000 -7.812500e-003 -3.125000e-002
      vertex  7.500000e-001 -7.812500e-003  3.906250e-002
    endloop
  endfacet
  facet normal  0.000000e+000 -1.000000e+000  -0.000000e+000
    outer loop
      vertex  7.500000e-001 -7.812500e-003  3.906250e-002
      vertex  0.000000e+000 -7.812500e-003 -3.125000e-002
      vertex  7.500000e-001 -7.812500e-003 -3.125000e-002
    endloop
  endfacet
endsolid CATIA STL
