solid CATIA STL
  facet normal  0.000000e+000 -1.000000e+000  0.000000e+000
    outer loop
      vertex -5.859375e-001 -3.750000e-001  4.535362e-001
      vertex -7.812500e-003 -3.750000e-001  4.066612e-001
      vertex  3.906250e-002 -3.750000e-001  4.535362e-001
    endloop
  endfacet
  facet normal  0.000000e+000 -1.000000e+000  0.000000e+000
    outer loop
      vertex  3.906250e-002 -3.750000e-001  4.535362e-001
      vertex -7.812500e-003 -3.750000e-001  4.066612e-001
      vertex -7.812500e-003 -3.750000e-001  7.812500e-003
    endloop
  endfacet
  facet normal  0.000000e+000 -1.000000e+000  0.000000e+000
    outer loop
      vertex  3.906250e-002 -3.750000e-001  4.535362e-001
      vertex -7.812500e-003 -3.750000e-001  7.812500e-003
      vertex  3.906250e-002 -3.750000e-001 -3.906250e-002
    endloop
  endfacet
  facet normal  0.000000e+000 -1.000000e+000  0.000000e+000
    outer loop
      vertex -7.812500e-003 -3.750000e-001  4.066612e-001
      vertex -5.859375e-001 -3.750000e-001  4.535362e-001
      vertex -5.390625e-001 -3.750000e-001  4.066612e-001
    endloop
  endfacet
  facet normal  -0.000000e+000 -1.000000e+000  0.000000e+000
    outer loop
      vertex -5.390625e-001 -3.750000e-001  4.066612e-001
      vertex -5.859375e-001 -3.750000e-001  4.535362e-001
      vertex -5.859375e-001 -3.750000e-001 -3.906250e-002
    endloop
  endfacet
  facet normal  0.000000e+000 -1.000000e+000  0.000000e+000
    outer loop
      vertex -5.390625e-001 -3.750000e-001  4.066612e-001
      vertex -5.859375e-001 -3.750000e-001 -3.906250e-002
      vertex -5.390625e-001 -3.750000e-001  7.812500e-003
    endloop
  endfacet
  facet normal  0.000000e+000 -1.000000e+000  -0.000000e+000
    outer loop
      vertex -5.390625e-001 -3.750000e-001  7.812500e-003
      vertex -5.859375e-001 -3.750000e-001 -3.906250e-002
      vertex  3.906250e-002 -3.750000e-001 -3.906250e-002
    endloop
  endfacet
  facet normal  0.000000e+000 -1.000000e+000  0.000000e+000
    outer loop
      vertex -5.390625e-001 -3.750000e-001  7.812500e-003
      vertex  3.906250e-002 -3.750000e-001 -3.906250e-002
      vertex -7.812500e-003 -3.750000e-001  7.812500e-003
    endloop
  endfacet
  facet normal  0.000000e+000  0.000000e+000  1.000000e+000
    outer loop
      vertex -5.390625e-001 -3.750000e-001  7.812500e-003
      vertex -7.812500e-003 -3.750000e-001  7.812500e-003
      vertex -5.390625e-001  7.421875e-001  7.812500e-003
    endloop
  endfacet
  facet normal  -0.000000e+000  0.000000e+000  1.000000e+000
    outer loop
      vertex -5.390625e-001  7.421875e-001  7.812500e-003
      vertex -7.812500e-003 -3.750000e-001  7.812500e-003
      vertex -7.812500e-003  7.421875e-001  7.812500e-003
    endloop
  endfacet
  facet normal  -0.000000e+000  0.000000e+000 -1.000000e+000
    outer loop
      vertex -5.390625e-001  7.421875e-001  4.066612e-001
      vertex -7.812500e-003  7.421875e-001  4.066612e-001
      vertex -5.390625e-001 -3.750000e-001  4.066612e-001
    endloop
  endfacet
  facet normal  0.000000e+000  0.000000e+000 -1.000000e+000
    outer loop
      vertex -5.390625e-001 -3.750000e-001  4.066612e-001
      vertex -7.812500e-003  7.421875e-001  4.066612e-001
      vertex -7.812500e-003 -3.750000e-001  4.066612e-001
    endloop
  endfacet
  facet normal -1.000000e+000  -0.000000e+000  0.000000e+000
    outer loop
      vertex -7.812500e-003 -3.750000e-001  4.066612e-001
      vertex -7.812500e-003  7.421875e-001  4.066612e-001
      vertex -7.812500e-003 -3.750000e-001  7.812500e-003
    endloop
  endfacet
  facet normal -1.000000e+000  0.000000e+000  0.000000e+000
    outer loop
      vertex -7.812500e-003 -3.750000e-001  7.812500e-003
      vertex -7.812500e-003  7.421875e-001  4.066612e-001
      vertex -7.812500e-003  7.421875e-001  7.812500e-003
    endloop
  endfacet
  facet normal  1.000000e+000  0.000000e+000  0.000000e+000
    outer loop
      vertex -5.390625e-001 -3.750000e-001  4.066612e-001
      vertex -5.390625e-001 -3.750000e-001  7.812500e-003
      vertex -5.390625e-001  7.421875e-001  4.066612e-001
    endloop
  endfacet
  facet normal  1.000000e+000  0.000000e+000  0.000000e+000
    outer loop
      vertex -5.390625e-001  7.421875e-001  4.066612e-001
      vertex -5.390625e-001 -3.750000e-001  7.812500e-003
      vertex -5.390625e-001  7.421875e-001  7.812500e-003
    endloop
  endfacet
  facet normal  0.000000e+000  0.000000e+000 -1.000000e+000
    outer loop
      vertex -5.859375e-001 -3.750000e-001 -3.906250e-002
      vertex -5.859375e-001  7.890625e-001 -3.906250e-002
      vertex  3.906250e-002 -3.750000e-001 -3.906250e-002
    endloop
  endfacet
  facet normal  0.000000e+000  0.000000e+000 -1.000000e+000
    outer loop
      vertex  3.906250e-002 -3.750000e-001 -3.906250e-002
      vertex -5.859375e-001  7.890625e-001 -3.906250e-002
      vertex  3.906250e-002  7.890625e-001 -3.906250e-002
    endloop
  endfacet
  facet normal  0.000000e+000  1.000000e+000  0.000000e+000
    outer loop
      vertex  3.906250e-002  7.890625e-001 -3.906250e-002
      vertex -5.859375e-001  7.890625e-001 -3.906250e-002
      vertex  3.906250e-002  7.890625e-001  4.535362e-001
    endloop
  endfacet
  facet normal  0.000000e+000  1.000000e+000  0.000000e+000
    outer loop
      vertex  3.906250e-002  7.890625e-001  4.535362e-001
      vertex -5.859375e-001  7.890625e-001 -3.906250e-002
      vertex -5.859375e-001  7.890625e-001  4.535362e-001
    endloop
  endfacet
  facet normal  0.000000e+000  0.000000e+000  1.000000e+000
    outer loop
      vertex -5.859375e-001  7.890625e-001  4.535362e-001
      vertex -5.859375e-001 -3.750000e-001  4.535362e-001
      vertex  3.906250e-002  7.890625e-001  4.535362e-001
    endloop
  endfacet
  facet normal  0.000000e+000  0.000000e+000  1.000000e+000
    outer loop
      vertex  3.906250e-002  7.890625e-001  4.535362e-001
      vertex -5.859375e-001 -3.750000e-001  4.535362e-001
      vertex  3.906250e-002 -3.750000e-001  4.535362e-001
    endloop
  endfacet
  facet normal  1.000000e+000  0.000000e+000  0.000000e+000
    outer loop
      vertex  3.906250e-002 -3.750000e-001  4.535362e-001
      vertex  3.906250e-002 -3.750000e-001 -3.906250e-002
      vertex  3.906250e-002  7.890625e-001  4.535362e-001
    endloop
  endfacet
  facet normal  1.000000e+000  0.000000e+000  0.000000e+000
    outer loop
      vertex  3.906250e-002  7.890625e-001  4.535362e-001
      vertex  3.906250e-002 -3.750000e-001 -3.906250e-002
      vertex  3.906250e-002  7.890625e-001 -3.906250e-002
    endloop
  endfacet
  facet normal -1.000000e+000  -0.000000e+000  0.000000e+000
    outer loop
      vertex -5.859375e-001 -3.750000e-001  4.535362e-001
      vertex -5.859375e-001  7.890625e-001  4.535362e-001
      vertex -5.859375e-001 -3.750000e-001 -3.906250e-002
    endloop
  endfacet
  facet normal -1.000000e+000  0.000000e+000  0.000000e+000
    outer loop
      vertex -5.859375e-001 -3.750000e-001 -3.906250e-002
      vertex -5.859375e-001  7.890625e-001  4.535362e-001
      vertex -5.859375e-001  7.890625e-001 -3.906250e-002
    endloop
  endfacet
  facet normal  0.000000e+000 -1.000000e+000  -0.000000e+000
    outer loop
      vertex -7.812500e-003  7.421875e-001  7.812500e-003
      vertex -7.812500e-003  7.421875e-001  4.066612e-001
      vertex -5.390625e-001  7.421875e-001  7.812500e-003
    endloop
  endfacet
  facet normal  0.000000e+000 -1.000000e+000  0.000000e+000
    outer loop
      vertex -5.390625e-001  7.421875e-001  7.812500e-003
      vertex -7.812500e-003  7.421875e-001  4.066612e-001
      vertex -5.390625e-001  7.421875e-001  4.066612e-001
    endloop
  endfacet
endsolid CATIA STL
