solid CATIA STL
  facet normal  0.000000e+000 -1.000000e+000  0.000000e+000
    outer loop
      vertex -6.484375e-001 -3.906250e-002 -7.500000e-001
      vertex  6.782072e-001 -3.906250e-002 -7.500000e-001
      vertex -6.484375e-001 -3.906250e-002  7.500000e-001
    endloop
  endfacet
  facet normal  0.000000e+000 -1.000000e+000  0.000000e+000
    outer loop
      vertex -6.484375e-001 -3.906250e-002  7.500000e-001
      vertex  6.782072e-001 -3.906250e-002 -7.500000e-001
      vertex  6.782072e-001 -3.906250e-002  7.500000e-001
    endloop
  endfacet
  facet normal -1.000000e+000  -0.000000e+000  0.000000e+000
    outer loop
      vertex -6.796875e-001 -7.812500e-003  7.500000e-001
      vertex -6.796875e-001  1.665335e-016  7.500000e-001
      vertex -6.796875e-001 -7.812500e-003 -7.500000e-001
    endloop
  endfacet
  facet normal -1.000000e+000  0.000000e+000  0.000000e+000
    outer loop
      vertex -6.796875e-001 -7.812500e-003 -7.500000e-001
      vertex -6.796875e-001  1.665335e-016  7.500000e-001
      vertex -6.796875e-001  0.000000e+000 -7.500000e-001
    endloop
  endfacet
  facet normal  -0.000000e+000  -0.000000e+000  9.999999e-001
    outer loop
      vertex -6.796875e-001 -7.812500e-003  7.500000e-001
      vertex -6.790870e-001 -1.390907e-002  7.500000e-001
      vertex -6.773087e-001 -1.977136e-002  7.500000e-001
    endloop
  endfacet
  facet normal  -0.000000e+000  0.000000e+000  1.000000e+000
    outer loop
      vertex -6.796875e-001  1.665335e-016  7.500000e-001
      vertex -6.796875e-001 -7.812500e-003  7.500000e-001
      vertex -6.773087e-001 -1.977136e-002  7.500000e-001
    endloop
  endfacet
  facet normal  -0.000000e+000  -0.000000e+000  9.999999e-001
    outer loop
      vertex -6.796875e-001  1.665335e-016  7.500000e-001
      vertex -6.773087e-001 -1.977136e-002  7.500000e-001
      vertex -6.744210e-001 -2.517407e-002  7.500000e-001
    endloop
  endfacet
  facet normal  -0.000000e+000  -0.000000e+000  1.000000e+000
    outer loop
      vertex -6.796875e-001  1.665335e-016  7.500000e-001
      vertex -6.744210e-001 -2.517407e-002  7.500000e-001
      vertex -6.705346e-001 -2.990959e-002  7.500000e-001
    endloop
  endfacet
  facet normal  -0.000000e+000  -0.000000e+000  1.000000e+000
    outer loop
      vertex -6.796875e-001  1.665335e-016  7.500000e-001
      vertex -6.705346e-001 -2.990959e-002  7.500000e-001
      vertex -6.657991e-001 -3.379593e-002  7.500000e-001
    endloop
  endfacet
  facet normal  -0.000000e+000  -0.000000e+000  1.000000e+000
    outer loop
      vertex -6.796875e-001  1.665335e-016  7.500000e-001
      vertex -6.657991e-001 -3.379593e-002  7.500000e-001
      vertex -6.603963e-001 -3.668373e-002  7.500000e-001
    endloop
  endfacet
  facet normal  -0.000000e+000  -0.000000e+000  1.000000e+000
    outer loop
      vertex -6.796875e-001  1.665335e-016  7.500000e-001
      vertex -6.603963e-001 -3.668373e-002  7.500000e-001
      vertex -6.545341e-001 -3.846204e-002  7.500000e-001
    endloop
  endfacet
  facet normal  -0.000000e+000  -0.000000e+000  1.000000e+000
    outer loop
      vertex -6.796875e-001  1.665335e-016  7.500000e-001
      vertex -6.545341e-001 -3.846204e-002  7.500000e-001
      vertex -6.484375e-001 -3.906250e-002  7.500000e-001
    endloop
  endfacet
  facet normal  0.000000e+000  -0.000000e+000  1.000000e+000
    outer loop
      vertex -6.796875e-001  1.665335e-016  7.500000e-001
      vertex -6.484375e-001 -3.906250e-002  7.500000e-001
      vertex  6.782072e-001 -3.906250e-002  7.500000e-001
    endloop
  endfacet
  facet normal  0.000000e+000  -0.000000e+000  1.000000e+000
    outer loop
      vertex -6.796875e-001  1.665335e-016  7.500000e-001
      vertex  6.782072e-001 -3.906250e-002  7.500000e-001
      vertex  6.782072e-001  3.172900e-016  7.500000e-001
    endloop
  endfacet
  facet normal  0.000000e+000  0.000000e+000 -1.000000e+000
    outer loop
      vertex -6.744210e-001 -2.517407e-002 -7.500000e-001
      vertex -6.603963e-001 -3.668373e-002 -7.500000e-001
      vertex -6.657991e-001 -3.379593e-002 -7.500000e-001
    endloop
  endfacet
  facet normal  0.000000e+000  0.000000e+000 -1.000000e+000
    outer loop
      vertex -6.744210e-001 -2.517407e-002 -7.500000e-001
      vertex -6.657991e-001 -3.379593e-002 -7.500000e-001
      vertex -6.705346e-001 -2.990959e-002 -7.500000e-001
    endloop
  endfacet
  facet normal  0.000000e+000  0.000000e+000 -9.999999e-001
    outer loop
      vertex -6.545341e-001 -3.846204e-002 -7.500000e-001
      vertex -6.603963e-001 -3.668373e-002 -7.500000e-001
      vertex -6.744210e-001 -2.517407e-002 -7.500000e-001
    endloop
  endfacet
  facet normal  0.000000e+000  0.000000e+000 -1.000000e+000
    outer loop
      vertex -6.545341e-001 -3.846204e-002 -7.500000e-001
      vertex -6.744210e-001 -2.517407e-002 -7.500000e-001
      vertex -6.773087e-001 -1.977136e-002 -7.500000e-001
    endloop
  endfacet
  facet normal  0.000000e+000  0.000000e+000 -1.000000e+000
    outer loop
      vertex -6.545341e-001 -3.846204e-002 -7.500000e-001
      vertex -6.773087e-001 -1.977136e-002 -7.500000e-001
      vertex -6.790870e-001 -1.390907e-002 -7.500000e-001
    endloop
  endfacet
  facet normal  0.000000e+000  0.000000e+000 -1.000000e+000
    outer loop
      vertex -6.545341e-001 -3.846204e-002 -7.500000e-001
      vertex -6.790870e-001 -1.390907e-002 -7.500000e-001
      vertex -6.796875e-001 -7.812500e-003 -7.500000e-001
    endloop
  endfacet
  facet normal  0.000000e+000  0.000000e+000 -9.999999e-001
    outer loop
      vertex -6.545341e-001 -3.846204e-002 -7.500000e-001
      vertex -6.796875e-001 -7.812500e-003 -7.500000e-001
      vertex -6.796875e-001  0.000000e+000 -7.500000e-001
    endloop
  endfacet
  facet normal  0.000000e+000  0.000000e+000 -1.000000e+000
    outer loop
      vertex -6.545341e-001 -3.846204e-002 -7.500000e-001
      vertex -6.796875e-001  0.000000e+000 -7.500000e-001
      vertex -6.484375e-001 -3.906250e-002 -7.500000e-001
    endloop
  endfacet
  facet normal  0.000000e+000  0.000000e+000 -1.000000e+000
    outer loop
      vertex -6.484375e-001 -3.906250e-002 -7.500000e-001
      vertex -6.796875e-001  0.000000e+000 -7.500000e-001
      vertex  6.782072e-001 -3.906250e-002 -7.500000e-001
    endloop
  endfacet
  facet normal  0.000000e+000  0.000000e+000 -1.000000e+000
    outer loop
      vertex  6.782072e-001 -3.906250e-002 -7.500000e-001
      vertex -6.796875e-001  0.000000e+000 -7.500000e-001
      vertex  6.782072e-001  1.507566e-016 -7.500000e-001
    endloop
  endfacet
  facet normal -9.951848e-001 -9.801669e-002  0.000000e+000
    outer loop
      vertex -6.796875e-001 -7.812500e-003  7.500000e-001
      vertex -6.796875e-001 -7.812500e-003 -7.500000e-001
      vertex -6.790870e-001 -1.390907e-002  7.500000e-001
    endloop
  endfacet
  facet normal -9.951848e-001 -9.801669e-002  -0.000000e+000
    outer loop
      vertex -6.790870e-001 -1.390907e-002  7.500000e-001
      vertex -6.796875e-001 -7.812500e-003 -7.500000e-001
      vertex -6.790870e-001 -1.390907e-002 -7.500000e-001
    endloop
  endfacet
  facet normal -9.569404e-001 -2.902846e-001  0.000000e+000
    outer loop
      vertex -6.790870e-001 -1.390907e-002  7.500000e-001
      vertex -6.790870e-001 -1.390907e-002 -7.500000e-001
      vertex -6.773087e-001 -1.977136e-002  7.500000e-001
    endloop
  endfacet
  facet normal -9.569404e-001 -2.902846e-001  -0.000000e+000
    outer loop
      vertex -6.773087e-001 -1.977136e-002  7.500000e-001
      vertex -6.790870e-001 -1.390907e-002 -7.500000e-001
      vertex -6.773087e-001 -1.977136e-002 -7.500000e-001
    endloop
  endfacet
  facet normal -8.819229e-001 -4.713936e-001  0.000000e+000
    outer loop
      vertex -6.773087e-001 -1.977136e-002  7.500000e-001
      vertex -6.773087e-001 -1.977136e-002 -7.500000e-001
      vertex -6.744210e-001 -2.517407e-002  7.500000e-001
    endloop
  endfacet
  facet normal -8.819229e-001 -4.713936e-001  -0.000000e+000
    outer loop
      vertex -6.744210e-001 -2.517407e-002  7.500000e-001
      vertex -6.773087e-001 -1.977136e-002 -7.500000e-001
      vertex -6.744210e-001 -2.517407e-002 -7.500000e-001
    endloop
  endfacet
  facet normal -7.730101e-001 -6.343937e-001  0.000000e+000
    outer loop
      vertex -6.744210e-001 -2.517407e-002  7.500000e-001
      vertex -6.744210e-001 -2.517407e-002 -7.500000e-001
      vertex -6.705346e-001 -2.990959e-002  7.500000e-001
    endloop
  endfacet
  facet normal -7.730101e-001 -6.343937e-001  -0.000000e+000
    outer loop
      vertex -6.705346e-001 -2.990959e-002  7.500000e-001
      vertex -6.744210e-001 -2.517407e-002 -7.500000e-001
      vertex -6.705346e-001 -2.990959e-002 -7.500000e-001
    endloop
  endfacet
  facet normal -6.343925e-001 -7.730111e-001  0.000000e+000
    outer loop
      vertex -6.705346e-001 -2.990959e-002  7.500000e-001
      vertex -6.705346e-001 -2.990959e-002 -7.500000e-001
      vertex -6.657991e-001 -3.379593e-002  7.500000e-001
    endloop
  endfacet
  facet normal -6.343925e-001 -7.730111e-001  -0.000000e+000
    outer loop
      vertex -6.657991e-001 -3.379593e-002  7.500000e-001
      vertex -6.705346e-001 -2.990959e-002 -7.500000e-001
      vertex -6.657991e-001 -3.379593e-002 -7.500000e-001
    endloop
  endfacet
  facet normal -4.713944e-001 -8.819226e-001  0.000000e+000
    outer loop
      vertex -6.657991e-001 -3.379593e-002  7.500000e-001
      vertex -6.657991e-001 -3.379593e-002 -7.500000e-001
      vertex -6.603963e-001 -3.668373e-002  7.500000e-001
    endloop
  endfacet
  facet normal -4.713944e-001 -8.819226e-001  -0.000000e+000
    outer loop
      vertex -6.603963e-001 -3.668373e-002  7.500000e-001
      vertex -6.657991e-001 -3.379593e-002 -7.500000e-001
      vertex -6.603963e-001 -3.668373e-002 -7.500000e-001
    endloop
  endfacet
  facet normal -2.902869e-001 -9.569396e-001  0.000000e+000
    outer loop
      vertex -6.603963e-001 -3.668373e-002  7.500000e-001
      vertex -6.603963e-001 -3.668373e-002 -7.500000e-001
      vertex -6.545341e-001 -3.846204e-002  7.500000e-001
    endloop
  endfacet
  facet normal -2.902869e-001 -9.569396e-001  -0.000000e+000
    outer loop
      vertex -6.545341e-001 -3.846204e-002  7.500000e-001
      vertex -6.603963e-001 -3.668373e-002 -7.500000e-001
      vertex -6.545341e-001 -3.846204e-002 -7.500000e-001
    endloop
  endfacet
  facet normal -9.801683e-002 -9.951847e-001  0.000000e+000
    outer loop
      vertex -6.545341e-001 -3.846204e-002  7.500000e-001
      vertex -6.545341e-001 -3.846204e-002 -7.500000e-001
      vertex -6.484375e-001 -3.906250e-002  7.500000e-001
    endloop
  endfacet
  facet normal -9.801683e-002 -9.951847e-001  -0.000000e+000
    outer loop
      vertex -6.484375e-001 -3.906250e-002  7.500000e-001
      vertex -6.545341e-001 -3.846204e-002 -7.500000e-001
      vertex -6.484375e-001 -3.906250e-002 -7.500000e-001
    endloop
  endfacet
  facet normal -1.110223e-016  1.000000e+000 -1.110223e-016
    outer loop
      vertex -6.796875e-001  0.000000e+000 -7.500000e-001
      vertex -6.796875e-001  1.665335e-016  7.500000e-001
      vertex  6.782072e-001  1.507566e-016 -7.500000e-001
    endloop
  endfacet
  facet normal -1.110223e-016  1.000000e+000 -1.110223e-016
    outer loop
      vertex  6.782072e-001  1.507566e-016 -7.500000e-001
      vertex -6.796875e-001  1.665335e-016  7.500000e-001
      vertex  6.782072e-001  3.172900e-016  7.500000e-001
    endloop
  endfacet
  facet normal  1.000000e+000  0.000000e+000  0.000000e+000
    outer loop
      vertex  6.782072e-001 -3.906250e-002 -7.500000e-001
      vertex  6.782072e-001  1.507566e-016 -7.500000e-001
      vertex  6.782072e-001 -3.906250e-002  7.500000e-001
    endloop
  endfacet
  facet normal  1.000000e+000  -0.000000e+000  0.000000e+000
    outer loop
      vertex  6.782072e-001 -3.906250e-002  7.500000e-001
      vertex  6.782072e-001  1.507566e-016 -7.500000e-001
      vertex  6.782072e-001  3.172900e-016  7.500000e-001
    endloop
  endfacet
endsolid CATIA STL
