solid CATIA STL
  facet normal -1.123225e-001 -9.932317e-001 -2.957236e-002
    outer loop
      vertex  1.005757e-001 -7.034540e-001  4.576457e-003
      vertex  9.827302e-002 -7.034540e-001  1.332237e-002
      vertex  9.827302e-002 -7.031250e-001  2.273825e-003
    endloop
  endfacet
  facet normal  0.000000e+000 -1.000000e+000  -0.000000e+000
    outer loop
      vertex  1.005757e-001 -7.034540e-001  4.576457e-003
      vertex  1.005757e-001 -7.034540e-001  7.578125e-001
      vertex  9.827302e-002 -7.034540e-001  1.332237e-002
    endloop
  endfacet
  facet normal  0.000000e+000 -1.000000e+000  0.000000e+000
    outer loop
      vertex  9.827302e-002 -7.034540e-001  1.332237e-002
      vertex  8.495066e-002 -7.034540e-001  7.421875e-001
      vertex  8.495066e-002 -7.034540e-001  1.104854e-002
    endloop
  endfacet
  facet normal  0.000000e+000 -1.000000e+000  -0.000000e+000
    outer loop
      vertex  9.827302e-002 -7.034540e-001  1.332237e-002
      vertex  8.495066e-002 -7.034540e-001  1.104854e-002
      vertex  8.264802e-002 -7.034540e-001  8.745912e-003
    endloop
  endfacet
  facet normal  0.000000e+000 -9.999999e-001  -0.000000e+000
    outer loop
      vertex  9.827302e-002 -7.034540e-001  1.332237e-002
      vertex  8.264802e-002 -7.034540e-001  8.745912e-003
      vertex  7.713816e-002 -7.034540e-001 -7.812500e-003
    endloop
  endfacet
  facet normal  0.000000e+000 -1.000000e+000  0.000000e+000
    outer loop
      vertex  1.005757e-001 -7.034540e-001  7.578125e-001
      vertex  2.310855e-002 -7.034540e-001  7.578125e-001
      vertex  3.873355e-002 -7.034540e-001  7.421875e-001
    endloop
  endfacet
  facet normal  0.000000e+000 -1.000000e+000  0.000000e+000
    outer loop
      vertex  1.005757e-001 -7.034540e-001  7.578125e-001
      vertex  3.873355e-002 -7.034540e-001  7.421875e-001
      vertex  8.495066e-002 -7.034540e-001  7.421875e-001
    endloop
  endfacet
  facet normal  0.000000e+000 -1.000000e+000  0.000000e+000
    outer loop
      vertex  1.005757e-001 -7.034540e-001  7.578125e-001
      vertex  8.495066e-002 -7.034540e-001  7.421875e-001
      vertex  9.827302e-002 -7.034540e-001  1.332237e-002
    endloop
  endfacet
  facet normal  0.000000e+000 -1.000000e+000  0.000000e+000
    outer loop
      vertex  7.713816e-002 -7.034540e-001 -7.812500e-003
      vertex  8.264802e-002 -7.034540e-001  8.745912e-003
      vertex  2.310855e-002 -7.034540e-001 -7.812500e-003
    endloop
  endfacet
  facet normal  0.000000e+000 -9.999999e-001  0.000000e+000
    outer loop
      vertex  2.310855e-002 -7.034540e-001 -7.812500e-003
      vertex  8.264802e-002 -7.034540e-001  8.745912e-003
      vertex  3.873355e-002 -7.034540e-001  7.812500e-003
    endloop
  endfacet
  facet normal  -0.000000e+000 -1.000000e+000  0.000000e+000
    outer loop
      vertex  2.310855e-002 -7.034540e-001 -7.812500e-003
      vertex  3.873355e-002 -7.034540e-001  7.812500e-003
      vertex  2.310855e-002 -7.034540e-001  7.578125e-001
    endloop
  endfacet
  facet normal  0.000000e+000 -9.999999e-001  0.000000e+000
    outer loop
      vertex  2.310855e-002 -7.034540e-001  7.578125e-001
      vertex  3.873355e-002 -7.034540e-001  7.812500e-003
      vertex  3.873355e-002 -7.034540e-001  7.421875e-001
    endloop
  endfacet
  facet normal  -0.000000e+000  -0.000000e+000 -1.000000e+000
    outer loop
      vertex  3.873355e-002  6.924054e-001  7.421875e-001
      vertex  8.495066e-002  6.924054e-001  7.421875e-001
      vertex  8.495066e-002  6.718750e-001  7.421875e-001
    endloop
  endfacet
  facet normal  0.000000e+000  0.000000e+000 -1.000000e+000
    outer loop
      vertex  3.873355e-002  6.924054e-001  7.421875e-001
      vertex  8.495066e-002  6.718750e-001  7.421875e-001
      vertex  4.687500e-002  6.718750e-001  7.421875e-001
    endloop
  endfacet
  facet normal  -0.000000e+000  -0.000000e+000 -1.000000e+000
    outer loop
      vertex  3.873355e-002  6.924054e-001  7.421875e-001
      vertex  4.687500e-002  6.718750e-001  7.421875e-001
      vertex  4.687500e-002 -6.640625e-001  7.421875e-001
    endloop
  endfacet
  facet normal  -0.000000e+000  0.000000e+000 -1.000000e+000
    outer loop
      vertex  3.873355e-002  6.924054e-001  7.421875e-001
      vertex  4.687500e-002 -6.640625e-001  7.421875e-001
      vertex  3.873355e-002 -7.034540e-001  7.421875e-001
    endloop
  endfacet
  facet normal  0.000000e+000  -0.000000e+000 -1.000000e+000
    outer loop
      vertex  3.873355e-002 -7.034540e-001  7.421875e-001
      vertex  4.687500e-002 -6.640625e-001  7.421875e-001
      vertex  8.495066e-002 -7.034540e-001  7.421875e-001
    endloop
  endfacet
  facet normal  0.000000e+000  0.000000e+000 -1.000000e+000
    outer loop
      vertex  8.495066e-002 -7.034540e-001  7.421875e-001
      vertex  4.687500e-002 -6.640625e-001  7.421875e-001
      vertex  8.495066e-002 -6.640625e-001  7.421875e-001
    endloop
  endfacet
  facet normal  9.997784e-001  -0.000000e+000  2.104793e-002
    outer loop
      vertex  3.873355e-002  6.953125e-001  2.343750e-002
      vertex  3.873355e-002  6.924054e-001  2.343750e-002
      vertex  3.906250e-002  6.953125e-001  7.812500e-003
    endloop
  endfacet
  facet normal  9.997793e-001 -2.351173e-004  2.100421e-002
    outer loop
      vertex  3.906250e-002  6.953125e-001  7.812500e-003
      vertex  3.873355e-002  6.924054e-001  2.343750e-002
      vertex  3.873355e-002 -7.034540e-001  7.812500e-003
    endloop
  endfacet
  facet normal  1.000000e+000  0.000000e+000  0.000000e+000
    outer loop
      vertex  3.873355e-002 -7.034540e-001  7.812500e-003
      vertex  3.873355e-002  6.924054e-001  2.343750e-002
      vertex  3.873355e-002  6.924054e-001  7.421875e-001
    endloop
  endfacet
  facet normal  1.000000e+000  0.000000e+000  0.000000e+000
    outer loop
      vertex  3.873355e-002 -7.034540e-001  7.812500e-003
      vertex  3.873355e-002  6.924054e-001  7.421875e-001
      vertex  3.873355e-002 -7.034540e-001  7.421875e-001
    endloop
  endfacet
  facet normal -9.999921e-001  0.000000e+000  3.967310e-003
    outer loop
      vertex  8.204356e-002  6.953125e-001  9.430522e-003
      vertex  8.495066e-002  6.718750e-001  7.421875e-001
      vertex  8.495066e-002  6.924054e-001  7.421875e-001
    endloop
  endfacet
  facet normal -9.923952e-001 -1.230929e-001  0.000000e+000
    outer loop
      vertex  8.495066e-002  6.718750e-001  7.421875e-001
      vertex  8.204356e-002  6.953125e-001  9.430522e-003
      vertex  8.495066e-002  6.718750e-001  7.031250e-002
    endloop
  endfacet
  facet normal -9.988967e-001 -2.021763e-003  4.691873e-002
    outer loop
      vertex  8.495066e-002  6.718750e-001  7.031250e-002
      vertex  8.204356e-002  6.953125e-001  9.430522e-003
      vertex  8.495066e-002 -7.034540e-001  1.104854e-002
    endloop
  endfacet
  facet normal -1.000000e+000  0.000000e+000  0.000000e+000
    outer loop
      vertex  8.495066e-002  6.718750e-001  7.031250e-002
      vertex  8.495066e-002 -7.034540e-001  1.104854e-002
      vertex  8.495066e-002 -6.640625e-001  7.031250e-002
    endloop
  endfacet
  facet normal -9.999999e-001  -0.000000e+000  0.000000e+000
    outer loop
      vertex  8.495066e-002 -6.640625e-001  7.031250e-002
      vertex  8.495066e-002 -7.034540e-001  1.104854e-002
      vertex  8.495066e-002 -7.034540e-001  7.421875e-001
    endloop
  endfacet
  facet normal -1.000000e+000  0.000000e+000  0.000000e+000
    outer loop
      vertex  8.495066e-002 -6.640625e-001  7.031250e-002
      vertex  8.495066e-002 -7.034540e-001  7.421875e-001
      vertex  8.495066e-002 -6.640625e-001  7.421875e-001
    endloop
  endfacet
  facet normal -7.071066e-001 -6.516558e-004  7.071066e-001
    outer loop
      vertex  8.495066e-002 -7.034540e-001  1.104854e-002
      vertex  8.204356e-002  6.953125e-001  9.430522e-003
      vertex  8.264802e-002 -7.034540e-001  8.745912e-003
    endloop
  endfacet
  facet normal -2.125042e-002  4.997444e-006  9.997742e-001
    outer loop
      vertex  3.873355e-002 -7.034540e-001  7.812500e-003
      vertex  8.264802e-002 -7.034540e-001  8.745912e-003
      vertex  3.906250e-002  6.953125e-001  7.812500e-003
    endloop
  endfacet
  facet normal -3.761835e-002 -5.053488e-004  9.992921e-001
    outer loop
      vertex  3.906250e-002  6.953125e-001  7.812500e-003
      vertex  8.264802e-002 -7.034540e-001  8.745912e-003
      vertex  8.204356e-002  6.953125e-001  9.430522e-003
    endloop
  endfacet
  facet normal  -0.000000e+000  0.000000e+000  1.000000e+000
    outer loop
      vertex  3.549751e-002  7.112665e-001  3.906250e-002
      vertex  2.343750e-002  7.109375e-001  3.906250e-002
      vertex  2.310855e-002  6.988775e-001  3.906250e-002
    endloop
  endfacet
  facet normal  9.412345e-001  3.376437e-001  8.618820e-003
    outer loop
      vertex  9.827302e-002  7.011801e-001  3.906250e-002
      vertex  8.818670e-002  7.112665e-001  7.454236e-001
      vertex  1.005757e-001  6.956415e-001  4.576457e-003
    endloop
  endfacet
  facet normal  7.071081e-001  7.071055e-001  -0.000000e+000
    outer loop
      vertex  9.827302e-002  7.011801e-001  3.906250e-002
      vertex  8.818670e-002  7.112665e-001  3.906250e-002
      vertex  8.818670e-002  7.112665e-001  7.454236e-001
    endloop
  endfacet
  facet normal  7.086173e-001  7.055864e-001 -3.031343e-003
    outer loop
      vertex  1.005757e-001  6.956415e-001  4.576457e-003
      vertex  8.818670e-002  7.112665e-001  7.454236e-001
      vertex  1.005757e-001  6.988775e-001  7.578125e-001
    endloop
  endfacet
  facet normal  0.000000e+000  -0.000000e+000  9.999999e-001
    outer loop
      vertex  8.818670e-002  7.112665e-001  3.906250e-002
      vertex  9.827302e-002  7.011801e-001  3.906250e-002
      vertex  9.827302e-002  7.109375e-001  3.906250e-002
    endloop
  endfacet
  facet normal  7.071068e-001  0.000000e+000 -7.071068e-001
    outer loop
      vertex  1.005757e-001 -7.034540e-001  4.576457e-003
      vertex  9.827302e-002 -7.031250e-001  2.273825e-003
      vertex  1.005757e-001  6.956415e-001  4.576457e-003
    endloop
  endfacet
  facet normal -1.000000e+000  0.000000e+000  0.000000e+000
    outer loop
      vertex  2.343750e-002  7.109375e-001 -7.812500e-003
      vertex  2.343750e-002  6.956415e-001 -7.812500e-003
      vertex  2.343750e-002  6.957237e-001  3.906250e-002
    endloop
  endfacet
  facet normal -9.940413e-001 -1.036802e-001 -3.365054e-002
    outer loop
      vertex  2.343750e-002  7.109375e-001 -7.812500e-003
      vertex  2.343750e-002  6.957237e-001  3.906250e-002
      vertex  2.310855e-002  6.988775e-001  3.906250e-002
    endloop
  endfacet
  facet normal -9.996282e-001  2.726575e-002  0.000000e+000
    outer loop
      vertex  2.343750e-002  7.109375e-001 -7.812500e-003
      vertex  2.310855e-002  6.988775e-001  3.906250e-002
      vertex  2.343750e-002  7.109375e-001  3.906250e-002
    endloop
  endfacet
  facet normal -9.946045e-001 -1.037390e-001  0.000000e+000
    outer loop
      vertex  2.310855e-002  6.988775e-001  7.578125e-001
      vertex  2.310855e-002  6.988775e-001  3.906250e-002
      vertex  2.343750e-002  6.957237e-001  3.906250e-002
    endloop
  endfacet
  facet normal -1.000000e+000  2.351140e-004 -4.125687e-007
    outer loop
      vertex  2.343750e-002  6.956415e-001 -7.812500e-003
      vertex  2.310855e-002 -7.034540e-001 -7.812500e-003
      vertex  2.343750e-002  6.957237e-001  3.906250e-002
    endloop
  endfacet
  facet normal -1.000000e+000  2.351001e-004  0.000000e+000
    outer loop
      vertex  2.343750e-002  6.957237e-001  3.906250e-002
      vertex  2.310855e-002 -7.034540e-001 -7.812500e-003
      vertex  2.310855e-002 -7.034540e-001  7.578125e-001
    endloop
  endfacet
  facet normal -9.999999e-001  0.000000e+000 -4.576652e-004
    outer loop
      vertex  2.343750e-002  6.957237e-001  3.906250e-002
      vertex  2.310855e-002 -7.034540e-001  7.578125e-001
      vertex  2.310855e-002  6.988775e-001  7.578125e-001
    endloop
  endfacet
  facet normal  -0.000000e+000  0.000000e+000 -1.000000e+000
    outer loop
      vertex  2.343750e-002  7.109375e-001 -7.812500e-003
      vertex  9.827302e-002  7.109375e-001 -7.812500e-003
      vertex  2.343750e-002  6.956415e-001 -7.812500e-003
    endloop
  endfacet
  facet normal  0.000000e+000  -0.000000e+000 -1.000000e+000
    outer loop
      vertex  2.310855e-002 -7.034540e-001 -7.812500e-003
      vertex  2.343750e-002  6.956415e-001 -7.812500e-003
      vertex  7.713816e-002 -7.034540e-001 -7.812500e-003
    endloop
  endfacet
  facet normal  0.000000e+000  0.000000e+000 -1.000000e+000
    outer loop
      vertex  7.713816e-002 -7.034540e-001 -7.812500e-003
      vertex  2.343750e-002  6.956415e-001 -7.812500e-003
      vertex  9.827302e-002  7.109375e-001 -7.812500e-003
    endloop
  endfacet
  facet normal  0.000000e+000  -0.000000e+000 -1.000000e+000
    outer loop
      vertex  7.713816e-002 -7.034540e-001 -7.812500e-003
      vertex  9.827302e-002  7.109375e-001 -7.812500e-003
      vertex  9.827302e-002 -7.031250e-001 -7.812500e-003
    endloop
  endfacet
  facet normal -7.071065e-001  7.071072e-001  0.000000e+000
    outer loop
      vertex  2.310855e-002  6.988775e-001  3.906250e-002
      vertex  2.310855e-002  6.988775e-001  7.578125e-001
      vertex  3.549751e-002  7.112665e-001  3.906250e-002
    endloop
  endfacet
  facet normal -7.071065e-001  7.071071e-001  0.000000e+000
    outer loop
      vertex  3.549751e-002  7.112665e-001  3.906250e-002
      vertex  2.310855e-002  6.988775e-001  7.578125e-001
      vertex  3.549751e-002  7.112665e-001  7.454236e-001
    endloop
  endfacet
  facet normal  1.000000e+000  0.000000e+000  0.000000e+000
    outer loop
      vertex  9.827302e-002  7.109375e-001 -7.812500e-003
      vertex  9.827302e-002  7.109375e-001  3.906250e-002
      vertex  9.827302e-002  7.011801e-001  3.906250e-002
    endloop
  endfacet
  facet normal  9.833241e-001  1.780452e-001  3.706151e-002
    outer loop
      vertex  9.827302e-002  7.109375e-001 -7.812500e-003
      vertex  9.827302e-002  7.011801e-001  3.906250e-002
      vertex  1.005757e-001  6.956415e-001  4.576457e-003
    endloop
  endfacet
  facet normal  9.828690e-001 -1.314593e-003 -1.843007e-001
    outer loop
      vertex  9.827302e-002  7.109375e-001 -7.812500e-003
      vertex  1.005757e-001  6.956415e-001  4.576457e-003
      vertex  9.827302e-002 -7.031250e-001  2.273825e-003
    endloop
  endfacet
  facet normal  1.000000e+000  0.000000e+000  0.000000e+000
    outer loop
      vertex  9.827302e-002  7.109375e-001 -7.812500e-003
      vertex  9.827302e-002 -7.031250e-001  2.273825e-003
      vertex  9.827302e-002 -7.031250e-001 -7.812500e-003
    endloop
  endfacet
  facet normal  3.259694e-002  9.994686e-001  0.000000e+000
    outer loop
      vertex  8.818670e-002  7.112665e-001  3.125000e-002
      vertex  9.827302e-002  7.109375e-001  3.906250e-002
      vertex  9.827302e-002  7.109375e-001 -7.812500e-003
    endloop
  endfacet
  facet normal  3.259694e-002  9.994685e-001  0.000000e+000
    outer loop
      vertex  8.818670e-002  7.112665e-001  3.125000e-002
      vertex  8.818670e-002  7.112665e-001  3.906250e-002
      vertex  9.827302e-002  7.109375e-001  3.906250e-002
    endloop
  endfacet
  facet normal -2.726663e-002  9.996282e-001  0.000000e+000
    outer loop
      vertex  2.343750e-002  7.109375e-001 -7.812500e-003
      vertex  2.343750e-002  7.109375e-001  3.906250e-002
      vertex  3.549751e-002  7.112665e-001  3.906250e-002
    endloop
  endfacet
  facet normal -2.726662e-002  9.996282e-001  0.000000e+000
    outer loop
      vertex  2.343750e-002  7.109375e-001 -7.812500e-003
      vertex  3.549751e-002  7.112665e-001  3.906250e-002
      vertex  3.549751e-002  7.112665e-001  3.125000e-002
    endloop
  endfacet
  facet normal  0.000000e+000  9.999646e-001 -8.421027e-003
    outer loop
      vertex  2.343750e-002  7.109375e-001 -7.812500e-003
      vertex  3.549751e-002  7.112665e-001  3.125000e-002
      vertex  8.818670e-002  7.112665e-001  3.125000e-002
    endloop
  endfacet
  facet normal  0.000000e+000  9.999645e-001 -8.421026e-003
    outer loop
      vertex  2.343750e-002  7.109375e-001 -7.812500e-003
      vertex  8.818670e-002  7.112665e-001  3.125000e-002
      vertex  9.827302e-002  7.109375e-001 -7.812500e-003
    endloop
  endfacet
  facet normal  0.000000e+000  1.000000e+000  0.000000e+000
    outer loop
      vertex  3.549751e-002  7.112665e-001  7.454236e-001
      vertex  8.818670e-002  7.112665e-001  7.454236e-001
      vertex  3.549751e-002  7.112665e-001  3.906250e-002
    endloop
  endfacet
  facet normal  0.000000e+000  1.000000e+000  0.000000e+000
    outer loop
      vertex  3.549751e-002  7.112665e-001  3.906250e-002
      vertex  8.818670e-002  7.112665e-001  7.454236e-001
      vertex  8.818670e-002  7.112665e-001  3.906250e-002
    endloop
  endfacet
  facet normal  0.000000e+000  1.000000e+000  0.000000e+000
    outer loop
      vertex  3.549751e-002  7.112665e-001  3.906250e-002
      vertex  8.818670e-002  7.112665e-001  3.906250e-002
      vertex  3.549751e-002  7.112665e-001  3.125000e-002
    endloop
  endfacet
  facet normal  0.000000e+000  1.000000e+000  0.000000e+000
    outer loop
      vertex  3.549751e-002  7.112665e-001  3.125000e-002
      vertex  8.818670e-002  7.112665e-001  3.906250e-002
      vertex  8.818670e-002  7.112665e-001  3.125000e-002
    endloop
  endfacet
  facet normal  2.974752e-002 -9.991146e-001 -2.974752e-002
    outer loop
      vertex  7.713816e-002 -7.034540e-001 -7.812500e-003
      vertex  9.827302e-002 -7.031250e-001  2.273825e-003
      vertex  9.827302e-002 -7.034540e-001  1.332237e-002
    endloop
  endfacet
  facet normal  1.556282e-002 -9.998789e-001  0.000000e+000
    outer loop
      vertex  7.713816e-002 -7.034540e-001 -7.812500e-003
      vertex  9.827302e-002 -7.031250e-001 -7.812500e-003
      vertex  9.827302e-002 -7.031250e-001  2.273825e-003
    endloop
  endfacet
  facet normal  0.000000e+000  7.071068e-001  7.071068e-001
    outer loop
      vertex  1.005757e-001  6.988775e-001  7.578125e-001
      vertex  8.818670e-002  7.112665e-001  7.454236e-001
      vertex  2.310855e-002  6.988775e-001  7.578125e-001
    endloop
  endfacet
  facet normal  0.000000e+000  7.071068e-001  7.071068e-001
    outer loop
      vertex  2.310855e-002  6.988775e-001  7.578125e-001
      vertex  8.818670e-002  7.112665e-001  7.454236e-001
      vertex  3.549751e-002  7.112665e-001  7.454236e-001
    endloop
  endfacet
  facet normal  0.000000e+000  0.000000e+000  1.000000e+000
    outer loop
      vertex  1.005757e-001 -7.034540e-001  7.578125e-001
      vertex  1.005757e-001 -6.484375e-001  7.578125e-001
      vertex  2.310855e-002 -7.034540e-001  7.578125e-001
    endloop
  endfacet
  facet normal  0.000000e+000  0.000000e+000  1.000000e+000
    outer loop
      vertex  2.310855e-002 -7.034540e-001  7.578125e-001
      vertex  1.005757e-001 -6.484375e-001  7.578125e-001
      vertex  6.250000e-002 -6.484375e-001  7.578125e-001
    endloop
  endfacet
  facet normal  0.000000e+000  0.000000e+000  1.000000e+000
    outer loop
      vertex  2.310855e-002 -7.034540e-001  7.578125e-001
      vertex  6.250000e-002 -6.484375e-001  7.578125e-001
      vertex  2.310855e-002  6.988775e-001  7.578125e-001
    endloop
  endfacet
  facet normal  0.000000e+000  0.000000e+000  1.000000e+000
    outer loop
      vertex  2.310855e-002  6.988775e-001  7.578125e-001
      vertex  6.250000e-002 -6.484375e-001  7.578125e-001
      vertex  6.250000e-002  6.562500e-001  7.578125e-001
    endloop
  endfacet
  facet normal  0.000000e+000  -0.000000e+000  9.999999e-001
    outer loop
      vertex  2.310855e-002  6.988775e-001  7.578125e-001
      vertex  6.250000e-002  6.562500e-001  7.578125e-001
      vertex  1.005757e-001  6.988775e-001  7.578125e-001
    endloop
  endfacet
  facet normal  0.000000e+000  0.000000e+000  1.000000e+000
    outer loop
      vertex  1.005757e-001  6.988775e-001  7.578125e-001
      vertex  6.250000e-002  6.562500e-001  7.578125e-001
      vertex  1.005757e-001  6.562500e-001  7.578125e-001
    endloop
  endfacet
  facet normal  0.000000e+000  1.000000e+000  0.000000e+000
    outer loop
      vertex  6.250000e-002 -6.484375e-001  7.578125e-001
      vertex  1.005757e-001 -6.484375e-001  7.578125e-001
      vertex  6.250000e-002 -6.484375e-001  8.593750e-002
    endloop
  endfacet
  facet normal  0.000000e+000  1.000000e+000  0.000000e+000
    outer loop
      vertex  6.250000e-002 -6.484375e-001  8.593750e-002
      vertex  1.005757e-001 -6.484375e-001  7.578125e-001
      vertex  1.005757e-001 -6.484375e-001  8.593750e-002
    endloop
  endfacet
  facet normal  1.000000e+000  -0.000000e+000  0.000000e+000
    outer loop
      vertex  1.005757e-001  6.988775e-001  7.578125e-001
      vertex  1.005757e-001  6.562500e-001  7.578125e-001
      vertex  1.005757e-001  6.956415e-001  4.576457e-003
    endloop
  endfacet
  facet normal  9.999999e-001  0.000000e+000  0.000000e+000
    outer loop
      vertex  1.005757e-001  6.956415e-001  4.576457e-003
      vertex  1.005757e-001  6.562500e-001  7.578125e-001
      vertex  1.005757e-001  6.562500e-001  8.593750e-002
    endloop
  endfacet
  facet normal  1.000000e+000  0.000000e+000  0.000000e+000
    outer loop
      vertex  1.005757e-001  6.956415e-001  4.576457e-003
      vertex  1.005757e-001  6.562500e-001  8.593750e-002
      vertex  1.005757e-001 -7.034540e-001  4.576457e-003
    endloop
  endfacet
  facet normal  1.000000e+000  0.000000e+000  0.000000e+000
    outer loop
      vertex  1.005757e-001 -7.034540e-001  4.576457e-003
      vertex  1.005757e-001  6.562500e-001  8.593750e-002
      vertex  1.005757e-001 -6.484375e-001  8.593750e-002
    endloop
  endfacet
  facet normal  1.000000e+000  0.000000e+000  0.000000e+000
    outer loop
      vertex  1.005757e-001 -7.034540e-001  4.576457e-003
      vertex  1.005757e-001 -6.484375e-001  8.593750e-002
      vertex  1.005757e-001 -7.034540e-001  7.578125e-001
    endloop
  endfacet
  facet normal  1.000000e+000  -0.000000e+000  0.000000e+000
    outer loop
      vertex  1.005757e-001 -7.034540e-001  7.578125e-001
      vertex  1.005757e-001 -6.484375e-001  8.593750e-002
      vertex  1.005757e-001 -6.484375e-001  7.578125e-001
    endloop
  endfacet
  facet normal  0.000000e+000 -1.000000e+000  0.000000e+000
    outer loop
      vertex  6.250000e-002  6.562500e-001  8.593750e-002
      vertex  1.005757e-001  6.562500e-001  8.593750e-002
      vertex  6.250000e-002  6.562500e-001  7.578125e-001
    endloop
  endfacet
  facet normal  0.000000e+000 -1.000000e+000  0.000000e+000
    outer loop
      vertex  6.250000e-002  6.562500e-001  7.578125e-001
      vertex  1.005757e-001  6.562500e-001  8.593750e-002
      vertex  1.005757e-001  6.562500e-001  7.578125e-001
    endloop
  endfacet
  facet normal  1.000000e+000  0.000000e+000  0.000000e+000
    outer loop
      vertex  6.250000e-002 -6.484375e-001  7.578125e-001
      vertex  6.250000e-002 -6.484375e-001  8.593750e-002
      vertex  6.250000e-002  6.562500e-001  7.578125e-001
    endloop
  endfacet
  facet normal  1.000000e+000  0.000000e+000  0.000000e+000
    outer loop
      vertex  6.250000e-002  6.562500e-001  7.578125e-001
      vertex  6.250000e-002 -6.484375e-001  8.593750e-002
      vertex  6.250000e-002  6.562500e-001  8.593750e-002
    endloop
  endfacet
  facet normal  0.000000e+000  0.000000e+000  1.000000e+000
    outer loop
      vertex  6.250000e-002 -6.484375e-001  8.593750e-002
      vertex  1.005757e-001 -6.484375e-001  8.593750e-002
      vertex  6.250000e-002  6.562500e-001  8.593750e-002
    endloop
  endfacet
  facet normal  -0.000000e+000  0.000000e+000  1.000000e+000
    outer loop
      vertex  6.250000e-002  6.562500e-001  8.593750e-002
      vertex  1.005757e-001 -6.484375e-001  8.593750e-002
      vertex  1.005757e-001  6.562500e-001  8.593750e-002
    endloop
  endfacet
  facet normal -1.000000e+000  -0.000000e+000  0.000000e+000
    outer loop
      vertex  4.687500e-002 -6.640625e-001  7.421875e-001
      vertex  4.687500e-002  6.718750e-001  7.421875e-001
      vertex  4.687500e-002 -6.640625e-001  7.031250e-002
    endloop
  endfacet
  facet normal -1.000000e+000  0.000000e+000  0.000000e+000
    outer loop
      vertex  4.687500e-002 -6.640625e-001  7.031250e-002
      vertex  4.687500e-002  6.718750e-001  7.421875e-001
      vertex  4.687500e-002  6.718750e-001  7.031250e-002
    endloop
  endfacet
  facet normal  0.000000e+000  1.000000e+000  0.000000e+000
    outer loop
      vertex  4.687500e-002  6.718750e-001  7.031250e-002
      vertex  4.687500e-002  6.718750e-001  7.421875e-001
      vertex  8.495066e-002  6.718750e-001  7.031250e-002
    endloop
  endfacet
  facet normal  0.000000e+000  1.000000e+000  -0.000000e+000
    outer loop
      vertex  8.495066e-002  6.718750e-001  7.031250e-002
      vertex  4.687500e-002  6.718750e-001  7.421875e-001
      vertex  8.495066e-002  6.718750e-001  7.421875e-001
    endloop
  endfacet
  facet normal  0.000000e+000  0.000000e+000 -9.999999e-001
    outer loop
      vertex  4.687500e-002 -6.640625e-001  7.031250e-002
      vertex  4.687500e-002  6.718750e-001  7.031250e-002
      vertex  8.495066e-002 -6.640625e-001  7.031250e-002
    endloop
  endfacet
  facet normal  0.000000e+000  0.000000e+000 -9.999999e-001
    outer loop
      vertex  8.495066e-002 -6.640625e-001  7.031250e-002
      vertex  4.687500e-002  6.718750e-001  7.031250e-002
      vertex  8.495066e-002  6.718750e-001  7.031250e-002
    endloop
  endfacet
  facet normal  0.000000e+000 -1.000000e+000  0.000000e+000
    outer loop
      vertex  4.687500e-002 -6.640625e-001  7.421875e-001
      vertex  4.687500e-002 -6.640625e-001  7.031250e-002
      vertex  8.495066e-002 -6.640625e-001  7.421875e-001
    endloop
  endfacet
  facet normal  0.000000e+000 -1.000000e+000  -0.000000e+000
    outer loop
      vertex  8.495066e-002 -6.640625e-001  7.421875e-001
      vertex  4.687500e-002 -6.640625e-001  7.031250e-002
      vertex  8.495066e-002 -6.640625e-001  7.031250e-002
    endloop
  endfacet
  facet normal  0.000000e+000  0.000000e+000 -9.999999e-001
    outer loop
      vertex  4.164065e-002  6.953125e-001  2.343750e-002
      vertex  3.873355e-002  6.924054e-001  2.343750e-002
      vertex  3.873355e-002  6.953125e-001  2.343750e-002
    endloop
  endfacet
  facet normal  7.071080e-001 -7.071055e-001  1.002672e-008
    outer loop
      vertex  4.164065e-002  6.953125e-001  3.125000e-002
      vertex  4.196960e-002  6.956415e-001  7.389514e-001
      vertex  3.873355e-002  6.924054e-001  7.421875e-001
    endloop
  endfacet
  facet normal  7.071068e-001 -7.071068e-001  0.000000e+000
    outer loop
      vertex  4.164065e-002  6.953125e-001  3.125000e-002
      vertex  3.873355e-002  6.924054e-001  7.421875e-001
      vertex  3.873355e-002  6.924054e-001  2.343750e-002
    endloop
  endfacet
  facet normal  7.071068e-001 -7.071068e-001  0.000000e+000
    outer loop
      vertex  4.164065e-002  6.953125e-001  3.125000e-002
      vertex  3.873355e-002  6.924054e-001  2.343750e-002
      vertex  4.164065e-002  6.953125e-001  2.343750e-002
    endloop
  endfacet
  facet normal  0.000000e+000 -9.999999e-001  4.648259e-004
    outer loop
      vertex  8.204356e-002  6.953125e-001  3.125000e-002
      vertex  8.171462e-002  6.956415e-001  7.389514e-001
      vertex  4.164065e-002  6.953125e-001  3.125000e-002
    endloop
  endfacet
  facet normal  0.000000e+000 -9.999999e-001  4.648259e-004
    outer loop
      vertex  4.164065e-002  6.953125e-001  3.125000e-002
      vertex  8.171462e-002  6.956415e-001  7.389514e-001
      vertex  4.196960e-002  6.956415e-001  7.389514e-001
    endloop
  endfacet
  facet normal -7.071068e-001 -7.071068e-001  0.000000e+000
    outer loop
      vertex  8.204356e-002  6.953125e-001  9.430522e-003
      vertex  8.495066e-002  6.924054e-001  7.421875e-001
      vertex  8.204356e-002  6.953125e-001  3.125000e-002
    endloop
  endfacet
  facet normal -7.071084e-001 -7.071052e-001  1.336897e-008
    outer loop
      vertex  8.495066e-002  6.924054e-001  7.421875e-001
      vertex  8.171462e-002  6.956415e-001  7.389514e-001
      vertex  8.204356e-002  6.953125e-001  3.125000e-002
    endloop
  endfacet
  facet normal  0.000000e+000 -9.999999e-001  0.000000e+000
    outer loop
      vertex  3.873355e-002  6.953125e-001  2.343750e-002
      vertex  3.906250e-002  6.953125e-001  7.812500e-003
      vertex  4.164065e-002  6.953125e-001  2.343750e-002
    endloop
  endfacet
  facet normal  -0.000000e+000 -1.000000e+000  -0.000000e+000
    outer loop
      vertex  8.204356e-002  6.953125e-001  9.430522e-003
      vertex  8.204356e-002  6.953125e-001  3.125000e-002
      vertex  4.164065e-002  6.953125e-001  3.125000e-002
    endloop
  endfacet
  facet normal  0.000000e+000 -1.000000e+000  0.000000e+000
    outer loop
      vertex  8.204356e-002  6.953125e-001  9.430522e-003
      vertex  4.164065e-002  6.953125e-001  3.125000e-002
      vertex  4.164065e-002  6.953125e-001  2.343750e-002
    endloop
  endfacet
  facet normal  0.000000e+000 -1.000000e+000  -0.000000e+000
    outer loop
      vertex  8.204356e-002  6.953125e-001  9.430522e-003
      vertex  4.164065e-002  6.953125e-001  2.343750e-002
      vertex  3.906250e-002  6.953125e-001  7.812500e-003
    endloop
  endfacet
  facet normal  0.000000e+000 -7.071068e-001 -7.071068e-001
    outer loop
      vertex  8.495066e-002  6.924054e-001  7.421875e-001
      vertex  3.873355e-002  6.924054e-001  7.421875e-001
      vertex  8.171462e-002  6.956415e-001  7.389514e-001
    endloop
  endfacet
  facet normal  -0.000000e+000 -7.071068e-001 -7.071068e-001
    outer loop
      vertex  8.171462e-002  6.956415e-001  7.389514e-001
      vertex  3.873355e-002  6.924054e-001  7.421875e-001
      vertex  4.196960e-002  6.956415e-001  7.389514e-001
    endloop
  endfacet
endsolid CATIA STL
