solid CATIA STL
  facet normal -5.551116e-017  1.000000e+000 -5.551112e-017
    outer loop
      vertex -1.743421e-002  1.112049e-017  1.463816e-002
      vertex -4.008000e-002  9.477170e-018  7.680506e-003
      vertex -3.794698e-002  1.000710e-017  1.509386e-002
    endloop
  endfacet
  facet normal -5.551116e-017  1.000000e+000 -5.551116e-017
    outer loop
      vertex -1.743421e-002  1.112049e-017  1.463816e-002
      vertex -3.794698e-002  1.000710e-017  1.509386e-002
      vertex -3.447448e-002  1.058224e-017  2.198221e-002
    endloop
  endfacet
  facet normal -5.551116e-017  1.000000e+000 -5.551118e-017
    outer loop
      vertex -1.743421e-002  1.112049e-017  1.463816e-002
      vertex -3.447448e-002  1.058224e-017  2.198221e-002
      vertex -2.978329e-002  1.118259e-017  2.810596e-002
    endloop
  endfacet
  facet normal -5.551114e-017  1.000000e+000 -5.551116e-017
    outer loop
      vertex -1.743421e-002  1.112049e-017  1.463816e-002
      vertex -2.978329e-002  1.118259e-017  2.810596e-002
      vertex -2.403657e-002  1.178727e-017  3.325211e-002
    endloop
  endfacet
  facet normal -5.551116e-017  1.000000e+000 -5.551116e-017
    outer loop
      vertex -1.743421e-002  1.112049e-017  1.463816e-002
      vertex -2.403657e-002  1.178727e-017  3.325211e-002
      vertex -1.743421e-002  1.237524e-017  3.724166e-002
    endloop
  endfacet
  facet normal -5.551111e-017  1.000000e+000 -5.551116e-017
    outer loop
      vertex  1.743421e-002  1.305608e-017  1.463816e-002
      vertex  1.743421e-002  1.431082e-017  3.724166e-002
      vertex  2.403657e-002  1.445586e-017  3.325211e-002
    endloop
  endfacet
  facet normal -5.551120e-017  1.000000e+000 -5.551113e-017
    outer loop
      vertex  1.743421e-002  1.305608e-017  1.463816e-002
      vertex  2.403657e-002  1.445586e-017  3.325211e-002
      vertex  2.978329e-002  1.448920e-017  2.810596e-002
    endloop
  endfacet
  facet normal -5.551110e-017  1.000000e+000 -5.551122e-017
    outer loop
      vertex  1.743421e-002  1.305608e-017  1.463816e-002
      vertex  2.978329e-002  1.448920e-017  2.810596e-002
      vertex  3.447448e-002  1.440968e-017  2.198221e-002
    endloop
  endfacet
  facet normal -5.551113e-017  1.000000e+000 -5.551115e-017
    outer loop
      vertex  1.743421e-002  1.305608e-017  1.463816e-002
      vertex  3.447448e-002  1.440968e-017  2.198221e-002
      vertex  3.794698e-002  1.422006e-017  1.509386e-002
    endloop
  endfacet
  facet normal -5.551114e-017  1.000000e+000 -5.551096e-017
    outer loop
      vertex  1.743421e-002  1.305608e-017  1.463816e-002
      vertex  3.794698e-002  1.422006e-017  1.509386e-002
      vertex  4.008000e-002  1.392694e-017  7.680506e-003
    endloop
  endfacet
  facet normal -5.551116e-017  1.000000e+000 -5.551104e-017
    outer loop
      vertex  1.743421e-002  1.305608e-017  1.463816e-002
      vertex  4.008000e-002  1.392694e-017  7.680506e-003
      vertex -4.008000e-002  9.477170e-018  7.680506e-003
    endloop
  endfacet
  facet normal -5.551115e-017  1.000000e+000 -5.551116e-017
    outer loop
      vertex  1.743421e-002  1.305608e-017  1.463816e-002
      vertex -4.008000e-002  9.477170e-018  7.680506e-003
      vertex -1.743421e-002  1.112049e-017  1.463816e-002
    endloop
  endfacet
  facet normal -5.551111e-017  1.000000e+000 -5.551116e-017
    outer loop
      vertex -1.743421e-002  9.495329e-018 -1.463816e-002
      vertex -1.743421e-002  8.240582e-018 -3.724166e-002
      vertex -2.403657e-002  8.095542e-018 -3.325211e-002
    endloop
  endfacet
  facet normal -5.551120e-017  1.000000e+000 -5.551113e-017
    outer loop
      vertex -1.743421e-002  9.495329e-018 -1.463816e-002
      vertex -2.403657e-002  8.095542e-018 -3.325211e-002
      vertex -2.978329e-002  8.062204e-018 -2.810596e-002
    endloop
  endfacet
  facet normal -5.551117e-017  1.000000e+000 -5.551115e-017
    outer loop
      vertex -1.743421e-002  9.495329e-018 -1.463816e-002
      vertex -2.978329e-002  8.062204e-018 -2.810596e-002
      vertex -3.447448e-002  8.141726e-018 -2.198221e-002
    endloop
  endfacet
  facet normal -5.551117e-017  1.000000e+000 -5.551117e-017
    outer loop
      vertex -1.743421e-002  9.495329e-018 -1.463816e-002
      vertex -3.447448e-002  8.141726e-018 -2.198221e-002
      vertex -3.794698e-002  8.331344e-018 -1.509386e-002
    endloop
  endfacet
  facet normal -5.551118e-017  1.000000e+000 -5.551085e-017
    outer loop
      vertex -1.743421e-002  9.495329e-018 -1.463816e-002
      vertex -3.794698e-002  8.331344e-018 -1.509386e-002
      vertex  4.008000e-002  1.307424e-017 -7.680506e-003
    endloop
  endfacet
  facet normal -5.551115e-017  1.000000e+000 -5.551116e-017
    outer loop
      vertex -1.743421e-002  9.495329e-018 -1.463816e-002
      vertex  4.008000e-002  1.307424e-017 -7.680506e-003
      vertex  1.743421e-002  1.143091e-017 -1.463816e-002
    endloop
  endfacet
  facet normal -5.551116e-017  1.000000e+000 -5.551112e-017
    outer loop
      vertex  1.743421e-002  1.143091e-017 -1.463816e-002
      vertex  4.008000e-002  1.307424e-017 -7.680506e-003
      vertex  3.794698e-002  1.254431e-017 -1.509386e-002
    endloop
  endfacet
  facet normal -5.551116e-017  1.000000e+000 -5.551116e-017
    outer loop
      vertex  1.743421e-002  1.143091e-017 -1.463816e-002
      vertex  3.794698e-002  1.254431e-017 -1.509386e-002
      vertex  3.447448e-002  1.196916e-017 -2.198221e-002
    endloop
  endfacet
  facet normal -5.551116e-017  1.000000e+000 -5.551118e-017
    outer loop
      vertex  1.743421e-002  1.143091e-017 -1.463816e-002
      vertex  3.447448e-002  1.196916e-017 -2.198221e-002
      vertex  2.978329e-002  1.136881e-017 -2.810596e-002
    endloop
  endfacet
  facet normal -5.551114e-017  1.000000e+000 -5.551116e-017
    outer loop
      vertex  1.743421e-002  1.143091e-017 -1.463816e-002
      vertex  2.978329e-002  1.136881e-017 -2.810596e-002
      vertex  2.403657e-002  1.076414e-017 -3.325211e-002
    endloop
  endfacet
  facet normal -5.551116e-017  1.000000e+000 -5.551116e-017
    outer loop
      vertex  1.743421e-002  1.143091e-017 -1.463816e-002
      vertex  2.403657e-002  1.076414e-017 -3.325211e-002
      vertex  1.743421e-002  1.017617e-017 -3.724166e-002
    endloop
  endfacet
  facet normal -5.551115e-017  1.000000e+000 -5.551119e-017
    outer loop
      vertex -3.794698e-002  8.331344e-018 -1.509386e-002
      vertex -4.008000e-002  8.624462e-018 -7.680506e-003
      vertex  4.008000e-002  1.307424e-017 -7.680506e-003
    endloop
  endfacet
  facet normal -5.551115e-017  1.000000e+000 -5.551110e-017
    outer loop
      vertex  4.008000e-002  1.307424e-017 -7.680506e-003
      vertex -4.008000e-002  8.624462e-018 -7.680506e-003
      vertex -4.079934e-002  9.010884e-018 -1.160877e-013
    endloop
  endfacet
  facet normal -5.551116e-017  1.000000e+000 -5.551120e-017
    outer loop
      vertex  4.008000e-002  1.307424e-017 -7.680506e-003
      vertex -4.079934e-002  9.010884e-018 -1.160877e-013
      vertex  4.079934e-002  1.354052e-017  1.160877e-013
    endloop
  endfacet
  facet normal -5.551116e-017  1.000000e+000 -5.551120e-017
    outer loop
      vertex  4.079934e-002  1.354052e-017  1.160877e-013
      vertex -4.079934e-002  9.010884e-018 -1.160877e-013
      vertex -4.008000e-002  9.477170e-018  7.680506e-003
    endloop
  endfacet
  facet normal -5.551116e-017  1.000000e+000 -5.551121e-017
    outer loop
      vertex  4.079934e-002  1.354052e-017  1.160877e-013
      vertex -4.008000e-002  9.477170e-018  7.680506e-003
      vertex  4.008000e-002  1.392694e-017  7.680506e-003
    endloop
  endfacet
  facet normal -3.011699e-001  0.000000e+000 -9.535704e-001
    outer loop
      vertex -9.621711e-003 -1.562500e-002 -4.810855e-002
      vertex -9.621711e-003 -7.500000e-001 -4.810855e-002
      vertex -1.873226e-002 -1.562500e-002 -4.523113e-002
    endloop
  endfacet
  facet normal -3.011699e-001  -0.000000e+000 -9.535704e-001
    outer loop
      vertex -1.873226e-002 -1.562500e-002 -4.523113e-002
      vertex -9.621711e-003 -7.500000e-001 -4.810855e-002
      vertex -1.873226e-002 -7.500000e-001 -4.523113e-002
    endloop
  endfacet
  facet normal -4.798785e-001  0.000000e+000 -8.773350e-001
    outer loop
      vertex -1.873226e-002 -1.562500e-002 -4.523113e-002
      vertex -1.873226e-002 -7.500000e-001 -4.523113e-002
      vertex -2.711445e-002 -1.562500e-002 -4.064630e-002
    endloop
  endfacet
  facet normal -4.798785e-001  -0.000000e+000 -8.773350e-001
    outer loop
      vertex -2.711445e-002 -1.562500e-002 -4.064630e-002
      vertex -1.873226e-002 -7.500000e-001 -4.523113e-002
      vertex -2.711445e-002 -7.500000e-001 -4.064630e-002
    endloop
  endfacet
  facet normal -6.404718e-001  0.000000e+000 -7.679816e-001
    outer loop
      vertex -2.711445e-002 -1.562500e-002 -4.064630e-002
      vertex -2.711445e-002 -7.500000e-001 -4.064630e-002
      vertex -3.445186e-002 -1.562500e-002 -3.452714e-002
    endloop
  endfacet
  facet normal -6.404718e-001  -0.000000e+000 -7.679816e-001
    outer loop
      vertex -3.445186e-002 -1.562500e-002 -3.452714e-002
      vertex -2.711445e-002 -7.500000e-001 -4.064630e-002
      vertex -3.445186e-002 -7.500000e-001 -3.452714e-002
    endloop
  endfacet
  facet normal -7.768884e-001  0.000000e+000 -6.296382e-001
    outer loop
      vertex -3.445186e-002 -1.562500e-002 -3.452714e-002
      vertex -3.445186e-002 -7.500000e-001 -3.452714e-002
      vertex -4.046752e-002 -1.562500e-002 -2.710463e-002
    endloop
  endfacet
  facet normal -7.768884e-001  -0.000000e+000 -6.296382e-001
    outer loop
      vertex -4.046752e-002 -1.562500e-002 -2.710463e-002
      vertex -3.445186e-002 -7.500000e-001 -3.452714e-002
      vertex -4.046752e-002 -7.500000e-001 -2.710463e-002
    endloop
  endfacet
  facet normal -8.839788e-001  0.000000e+000 -4.675268e-001
    outer loop
      vertex -4.046752e-002 -1.562500e-002 -2.710463e-002
      vertex -4.046752e-002 -7.500000e-001 -2.710463e-002
      vertex -4.493434e-002 -1.562500e-002 -1.865897e-002
    endloop
  endfacet
  facet normal -8.839788e-001  -0.000000e+000 -4.675268e-001
    outer loop
      vertex -4.493434e-002 -1.562500e-002 -1.865897e-002
      vertex -4.046752e-002 -7.500000e-001 -2.710463e-002
      vertex -4.493434e-002 -7.500000e-001 -1.865897e-002
    endloop
  endfacet
  facet normal -9.577003e-001  0.000000e+000 -2.877674e-001
    outer loop
      vertex -4.493434e-002 -1.562500e-002 -1.865897e-002
      vertex -4.493434e-002 -7.500000e-001 -1.865897e-002
      vertex -4.768371e-002 -1.562500e-002 -9.508958e-003
    endloop
  endfacet
  facet normal -9.577003e-001  -0.000000e+000 -2.877674e-001
    outer loop
      vertex -4.768371e-002 -1.562500e-002 -9.508958e-003
      vertex -4.493434e-002 -7.500000e-001 -1.865897e-002
      vertex -4.768371e-002 -7.500000e-001 -9.508958e-003
    endloop
  endfacet
  facet normal -9.952703e-001  0.000000e+000 -9.714460e-002
    outer loop
      vertex -4.768371e-002 -1.562500e-002 -9.508958e-003
      vertex -4.768371e-002 -7.500000e-001 -9.508958e-003
      vertex -4.861184e-002 -1.562500e-002  3.173842e-017
    endloop
  endfacet
  facet normal -9.952703e-001  3.849391e-019 -9.714460e-002
    outer loop
      vertex -4.861184e-002 -1.562500e-002  3.173842e-017
      vertex -4.768371e-002 -7.500000e-001 -9.508958e-003
      vertex -4.861184e-002 -7.500000e-001  2.882843e-017
    endloop
  endfacet
  facet normal -9.952703e-001 -3.849391e-019  9.714460e-002
    outer loop
      vertex -4.861184e-002 -1.562500e-002  3.173842e-017
      vertex -4.861184e-002 -7.500000e-001  2.882843e-017
      vertex -4.768371e-002 -1.562500e-002  9.508958e-003
    endloop
  endfacet
  facet normal -9.952703e-001  0.000000e+000  9.714460e-002
    outer loop
      vertex -4.768371e-002 -1.562500e-002  9.508958e-003
      vertex -4.861184e-002 -7.500000e-001  2.882843e-017
      vertex -4.768371e-002 -7.500000e-001  9.508958e-003
    endloop
  endfacet
  facet normal -9.577003e-001  0.000000e+000  2.877674e-001
    outer loop
      vertex -4.768371e-002 -1.562500e-002  9.508958e-003
      vertex -4.768371e-002 -7.500000e-001  9.508958e-003
      vertex -4.493434e-002 -1.562500e-002  1.865897e-002
    endloop
  endfacet
  facet normal -9.577003e-001  0.000000e+000  2.877674e-001
    outer loop
      vertex -4.493434e-002 -1.562500e-002  1.865897e-002
      vertex -4.768371e-002 -7.500000e-001  9.508958e-003
      vertex -4.493434e-002 -7.500000e-001  1.865897e-002
    endloop
  endfacet
  facet normal -8.839788e-001  0.000000e+000  4.675268e-001
    outer loop
      vertex -4.493434e-002 -1.562500e-002  1.865897e-002
      vertex -4.493434e-002 -7.500000e-001  1.865897e-002
      vertex -4.046752e-002 -1.562500e-002  2.710463e-002
    endloop
  endfacet
  facet normal -8.839788e-001  0.000000e+000  4.675268e-001
    outer loop
      vertex -4.046752e-002 -1.562500e-002  2.710463e-002
      vertex -4.493434e-002 -7.500000e-001  1.865897e-002
      vertex -4.046752e-002 -7.500000e-001  2.710463e-002
    endloop
  endfacet
  facet normal -7.768884e-001  0.000000e+000  6.296382e-001
    outer loop
      vertex -4.046752e-002 -1.562500e-002  2.710463e-002
      vertex -4.046752e-002 -7.500000e-001  2.710463e-002
      vertex -3.445186e-002 -1.562500e-002  3.452714e-002
    endloop
  endfacet
  facet normal -7.768884e-001  0.000000e+000  6.296382e-001
    outer loop
      vertex -3.445186e-002 -1.562500e-002  3.452714e-002
      vertex -4.046752e-002 -7.500000e-001  2.710463e-002
      vertex -3.445186e-002 -7.500000e-001  3.452714e-002
    endloop
  endfacet
  facet normal -6.404718e-001  0.000000e+000  7.679816e-001
    outer loop
      vertex -3.445186e-002 -1.562500e-002  3.452714e-002
      vertex -3.445186e-002 -7.500000e-001  3.452714e-002
      vertex -2.711445e-002 -1.562500e-002  4.064630e-002
    endloop
  endfacet
  facet normal -6.404718e-001  0.000000e+000  7.679816e-001
    outer loop
      vertex -2.711445e-002 -1.562500e-002  4.064630e-002
      vertex -3.445186e-002 -7.500000e-001  3.452714e-002
      vertex -2.711445e-002 -7.500000e-001  4.064630e-002
    endloop
  endfacet
  facet normal -4.798785e-001  0.000000e+000  8.773350e-001
    outer loop
      vertex -2.711445e-002 -1.562500e-002  4.064630e-002
      vertex -2.711445e-002 -7.500000e-001  4.064630e-002
      vertex -1.873226e-002 -1.562500e-002  4.523113e-002
    endloop
  endfacet
  facet normal -4.798785e-001  0.000000e+000  8.773350e-001
    outer loop
      vertex -1.873226e-002 -1.562500e-002  4.523113e-002
      vertex -2.711445e-002 -7.500000e-001  4.064630e-002
      vertex -1.873226e-002 -7.500000e-001  4.523113e-002
    endloop
  endfacet
  facet normal -3.011699e-001  0.000000e+000  9.535704e-001
    outer loop
      vertex -1.873226e-002 -1.562500e-002  4.523113e-002
      vertex -1.873226e-002 -7.500000e-001  4.523113e-002
      vertex -9.621711e-003 -1.562500e-002  4.810855e-002
    endloop
  endfacet
  facet normal -3.011699e-001  0.000000e+000  9.535704e-001
    outer loop
      vertex -9.621711e-003 -1.562500e-002  4.810855e-002
      vertex -1.873226e-002 -7.500000e-001  4.523113e-002
      vertex -9.621711e-003 -7.500000e-001  4.810855e-002
    endloop
  endfacet
  facet normal  1.000000e+000  0.000000e+000  0.000000e+000
    outer loop
      vertex -9.621711e-003 -1.562500e-002  2.245066e-002
      vertex -9.621711e-003 -1.562500e-002  4.810855e-002
      vertex -9.621711e-003 -7.500000e-001  2.245066e-002
    endloop
  endfacet
  facet normal  1.000000e+000  0.000000e+000  0.000000e+000
    outer loop
      vertex -9.621711e-003 -7.500000e-001  2.245066e-002
      vertex -9.621711e-003 -1.562500e-002  4.810855e-002
      vertex -9.621711e-003 -7.500000e-001  4.810855e-002
    endloop
  endfacet
  facet normal  -0.000000e+000  0.000000e+000  9.999999e-001
    outer loop
      vertex  9.621711e-003 -1.562500e-002  2.245066e-002
      vertex -9.621711e-003 -1.562500e-002  2.245066e-002
      vertex  9.621711e-003 -7.500000e-001  2.245066e-002
    endloop
  endfacet
  facet normal  0.000000e+000  0.000000e+000  9.999999e-001
    outer loop
      vertex  9.621711e-003 -7.500000e-001  2.245066e-002
      vertex -9.621711e-003 -1.562500e-002  2.245066e-002
      vertex -9.621711e-003 -7.500000e-001  2.245066e-002
    endloop
  endfacet
  facet normal -1.000000e+000  0.000000e+000  0.000000e+000
    outer loop
      vertex  9.621711e-003 -1.562500e-002  4.810855e-002
      vertex  9.621711e-003 -1.562500e-002  2.245066e-002
      vertex  9.621711e-003 -7.500000e-001  4.810855e-002
    endloop
  endfacet
  facet normal -1.000000e+000  0.000000e+000  0.000000e+000
    outer loop
      vertex  9.621711e-003 -7.500000e-001  4.810855e-002
      vertex  9.621711e-003 -1.562500e-002  2.245066e-002
      vertex  9.621711e-003 -7.500000e-001  2.245066e-002
    endloop
  endfacet
  facet normal  3.011699e-001  -0.000000e+000  9.535704e-001
    outer loop
      vertex  9.621711e-003 -1.562500e-002  4.810855e-002
      vertex  9.621711e-003 -7.500000e-001  4.810855e-002
      vertex  1.873226e-002 -1.562500e-002  4.523113e-002
    endloop
  endfacet
  facet normal  3.011699e-001  0.000000e+000  9.535704e-001
    outer loop
      vertex  1.873226e-002 -1.562500e-002  4.523113e-002
      vertex  9.621711e-003 -7.500000e-001  4.810855e-002
      vertex  1.873226e-002 -7.500000e-001  4.523113e-002
    endloop
  endfacet
  facet normal  4.798785e-001  -0.000000e+000  8.773350e-001
    outer loop
      vertex  1.873226e-002 -1.562500e-002  4.523113e-002
      vertex  1.873226e-002 -7.500000e-001  4.523113e-002
      vertex  2.711445e-002 -1.562500e-002  4.064630e-002
    endloop
  endfacet
  facet normal  4.798785e-001  0.000000e+000  8.773350e-001
    outer loop
      vertex  2.711445e-002 -1.562500e-002  4.064630e-002
      vertex  1.873226e-002 -7.500000e-001  4.523113e-002
      vertex  2.711445e-002 -7.500000e-001  4.064630e-002
    endloop
  endfacet
  facet normal  6.404718e-001  -0.000000e+000  7.679816e-001
    outer loop
      vertex  2.711445e-002 -1.562500e-002  4.064630e-002
      vertex  2.711445e-002 -7.500000e-001  4.064630e-002
      vertex  3.445186e-002 -1.562500e-002  3.452714e-002
    endloop
  endfacet
  facet normal  6.404718e-001  0.000000e+000  7.679816e-001
    outer loop
      vertex  3.445186e-002 -1.562500e-002  3.452714e-002
      vertex  2.711445e-002 -7.500000e-001  4.064630e-002
      vertex  3.445186e-002 -7.500000e-001  3.452714e-002
    endloop
  endfacet
  facet normal  7.768884e-001  -0.000000e+000  6.296382e-001
    outer loop
      vertex  3.445186e-002 -1.562500e-002  3.452714e-002
      vertex  3.445186e-002 -7.500000e-001  3.452714e-002
      vertex  4.046752e-002 -1.562500e-002  2.710463e-002
    endloop
  endfacet
  facet normal  7.768884e-001  0.000000e+000  6.296382e-001
    outer loop
      vertex  4.046752e-002 -1.562500e-002  2.710463e-002
      vertex  3.445186e-002 -7.500000e-001  3.452714e-002
      vertex  4.046752e-002 -7.500000e-001  2.710463e-002
    endloop
  endfacet
  facet normal  8.839788e-001  -0.000000e+000  4.675268e-001
    outer loop
      vertex  4.046752e-002 -1.562500e-002  2.710463e-002
      vertex  4.046752e-002 -7.500000e-001  2.710463e-002
      vertex  4.493434e-002 -1.562500e-002  1.865897e-002
    endloop
  endfacet
  facet normal  8.839788e-001  0.000000e+000  4.675268e-001
    outer loop
      vertex  4.493434e-002 -1.562500e-002  1.865897e-002
      vertex  4.046752e-002 -7.500000e-001  2.710463e-002
      vertex  4.493434e-002 -7.500000e-001  1.865897e-002
    endloop
  endfacet
  facet normal  9.577003e-001  -0.000000e+000  2.877674e-001
    outer loop
      vertex  4.493434e-002 -1.562500e-002  1.865897e-002
      vertex  4.493434e-002 -7.500000e-001  1.865897e-002
      vertex  4.768371e-002 -1.562500e-002  9.508958e-003
    endloop
  endfacet
  facet normal  9.577003e-001  0.000000e+000  2.877674e-001
    outer loop
      vertex  4.768371e-002 -1.562500e-002  9.508958e-003
      vertex  4.493434e-002 -7.500000e-001  1.865897e-002
      vertex  4.768371e-002 -7.500000e-001  9.508958e-003
    endloop
  endfacet
  facet normal  9.952703e-001  -0.000000e+000  9.714460e-002
    outer loop
      vertex  4.768371e-002 -1.562500e-002  9.508958e-003
      vertex  4.768371e-002 -7.500000e-001  9.508958e-003
      vertex  4.861184e-002 -1.562500e-002 -5.786367e-017
    endloop
  endfacet
  facet normal  9.952703e-001  1.117016e-017  9.714460e-002
    outer loop
      vertex  4.861184e-002 -1.562500e-002 -5.786367e-017
      vertex  4.768371e-002 -7.500000e-001  9.508958e-003
      vertex  4.861184e-002 -7.500000e-001  2.657832e-017
    endloop
  endfacet
  facet normal  9.952703e-001 -1.117016e-017 -9.714460e-002
    outer loop
      vertex  4.861184e-002 -1.562500e-002 -5.786367e-017
      vertex  4.861184e-002 -7.500000e-001  2.657832e-017
      vertex  4.768371e-002 -1.562500e-002 -9.508958e-003
    endloop
  endfacet
  facet normal  9.952703e-001  0.000000e+000 -9.714460e-002
    outer loop
      vertex  4.768371e-002 -1.562500e-002 -9.508958e-003
      vertex  4.861184e-002 -7.500000e-001  2.657832e-017
      vertex  4.768371e-002 -7.500000e-001 -9.508958e-003
    endloop
  endfacet
  facet normal  9.577003e-001  0.000000e+000 -2.877674e-001
    outer loop
      vertex  4.768371e-002 -1.562500e-002 -9.508958e-003
      vertex  4.768371e-002 -7.500000e-001 -9.508958e-003
      vertex  4.493434e-002 -1.562500e-002 -1.865897e-002
    endloop
  endfacet
  facet normal  9.577003e-001  0.000000e+000 -2.877674e-001
    outer loop
      vertex  4.493434e-002 -1.562500e-002 -1.865897e-002
      vertex  4.768371e-002 -7.500000e-001 -9.508958e-003
      vertex  4.493434e-002 -7.500000e-001 -1.865897e-002
    endloop
  endfacet
  facet normal  8.839788e-001  0.000000e+000 -4.675268e-001
    outer loop
      vertex  4.493434e-002 -1.562500e-002 -1.865897e-002
      vertex  4.493434e-002 -7.500000e-001 -1.865897e-002
      vertex  4.046752e-002 -1.562500e-002 -2.710463e-002
    endloop
  endfacet
  facet normal  8.839788e-001  0.000000e+000 -4.675268e-001
    outer loop
      vertex  4.046752e-002 -1.562500e-002 -2.710463e-002
      vertex  4.493434e-002 -7.500000e-001 -1.865897e-002
      vertex  4.046752e-002 -7.500000e-001 -2.710463e-002
    endloop
  endfacet
  facet normal  7.768884e-001  0.000000e+000 -6.296382e-001
    outer loop
      vertex  4.046752e-002 -1.562500e-002 -2.710463e-002
      vertex  4.046752e-002 -7.500000e-001 -2.710463e-002
      vertex  3.445186e-002 -1.562500e-002 -3.452714e-002
    endloop
  endfacet
  facet normal  7.768884e-001  0.000000e+000 -6.296382e-001
    outer loop
      vertex  3.445186e-002 -1.562500e-002 -3.452714e-002
      vertex  4.046752e-002 -7.500000e-001 -2.710463e-002
      vertex  3.445186e-002 -7.500000e-001 -3.452714e-002
    endloop
  endfacet
  facet normal  6.404718e-001  0.000000e+000 -7.679816e-001
    outer loop
      vertex  3.445186e-002 -1.562500e-002 -3.452714e-002
      vertex  3.445186e-002 -7.500000e-001 -3.452714e-002
      vertex  2.711445e-002 -1.562500e-002 -4.064630e-002
    endloop
  endfacet
  facet normal  6.404718e-001  0.000000e+000 -7.679816e-001
    outer loop
      vertex  2.711445e-002 -1.562500e-002 -4.064630e-002
      vertex  3.445186e-002 -7.500000e-001 -3.452714e-002
      vertex  2.711445e-002 -7.500000e-001 -4.064630e-002
    endloop
  endfacet
  facet normal  4.798785e-001  0.000000e+000 -8.773350e-001
    outer loop
      vertex  2.711445e-002 -1.562500e-002 -4.064630e-002
      vertex  2.711445e-002 -7.500000e-001 -4.064630e-002
      vertex  1.873226e-002 -1.562500e-002 -4.523113e-002
    endloop
  endfacet
  facet normal  4.798785e-001  0.000000e+000 -8.773350e-001
    outer loop
      vertex  1.873226e-002 -1.562500e-002 -4.523113e-002
      vertex  2.711445e-002 -7.500000e-001 -4.064630e-002
      vertex  1.873226e-002 -7.500000e-001 -4.523113e-002
    endloop
  endfacet
  facet normal  3.011699e-001  0.000000e+000 -9.535704e-001
    outer loop
      vertex  1.873226e-002 -1.562500e-002 -4.523113e-002
      vertex  1.873226e-002 -7.500000e-001 -4.523113e-002
      vertex  9.621711e-003 -1.562500e-002 -4.810855e-002
    endloop
  endfacet
  facet normal  3.011699e-001  0.000000e+000 -9.535704e-001
    outer loop
      vertex  9.621711e-003 -1.562500e-002 -4.810855e-002
      vertex  1.873226e-002 -7.500000e-001 -4.523113e-002
      vertex  9.621711e-003 -7.500000e-001 -4.810855e-002
    endloop
  endfacet
  facet normal -1.000000e+000  0.000000e+000  0.000000e+000
    outer loop
      vertex  9.621711e-003 -1.562500e-002 -2.245066e-002
      vertex  9.621711e-003 -1.562500e-002 -4.810855e-002
      vertex  9.621711e-003 -7.500000e-001 -2.245066e-002
    endloop
  endfacet
  facet normal -1.000000e+000  0.000000e+000  0.000000e+000
    outer loop
      vertex  9.621711e-003 -7.500000e-001 -2.245066e-002
      vertex  9.621711e-003 -1.562500e-002 -4.810855e-002
      vertex  9.621711e-003 -7.500000e-001 -4.810855e-002
    endloop
  endfacet
  facet normal  -0.000000e+000  0.000000e+000 -9.999999e-001
    outer loop
      vertex -9.621711e-003 -1.562500e-002 -2.245066e-002
      vertex  9.621711e-003 -1.562500e-002 -2.245066e-002
      vertex -9.621711e-003 -7.500000e-001 -2.245066e-002
    endloop
  endfacet
  facet normal  0.000000e+000  0.000000e+000 -9.999999e-001
    outer loop
      vertex -9.621711e-003 -7.500000e-001 -2.245066e-002
      vertex  9.621711e-003 -1.562500e-002 -2.245066e-002
      vertex  9.621711e-003 -7.500000e-001 -2.245066e-002
    endloop
  endfacet
  facet normal  1.000000e+000  0.000000e+000  0.000000e+000
    outer loop
      vertex -9.621711e-003 -1.562500e-002 -4.810855e-002
      vertex -9.621711e-003 -1.562500e-002 -2.245066e-002
      vertex -9.621711e-003 -7.500000e-001 -4.810855e-002
    endloop
  endfacet
  facet normal  1.000000e+000  0.000000e+000  0.000000e+000
    outer loop
      vertex -9.621711e-003 -7.500000e-001 -4.810855e-002
      vertex -9.621711e-003 -1.562500e-002 -2.245066e-002
      vertex -9.621711e-003 -7.500000e-001 -2.245066e-002
    endloop
  endfacet
  facet normal  8.944272e-001  4.472136e-001  0.000000e+000
    outer loop
      vertex -9.621711e-003 -1.562500e-002  2.245066e-002
      vertex -1.743421e-002  1.112049e-017  1.463816e-002
      vertex -9.621711e-003 -1.562500e-002  4.810855e-002
    endloop
  endfacet
  facet normal  8.944272e-001  4.472136e-001  0.000000e+000
    outer loop
      vertex -9.621711e-003 -1.562500e-002  4.810855e-002
      vertex -1.743421e-002  1.112049e-017  1.463816e-002
      vertex -1.743421e-002  1.237524e-017  3.724166e-002
    endloop
  endfacet
  facet normal  0.000000e+000  4.472136e-001  8.944272e-001
    outer loop
      vertex  9.621711e-003 -1.562500e-002  2.245066e-002
      vertex  1.743421e-002  1.305608e-017  1.463816e-002
      vertex -9.621711e-003 -1.562500e-002  2.245066e-002
    endloop
  endfacet
  facet normal  0.000000e+000  4.472136e-001  8.944272e-001
    outer loop
      vertex -9.621711e-003 -1.562500e-002  2.245066e-002
      vertex  1.743421e-002  1.305608e-017  1.463816e-002
      vertex -1.743421e-002  1.112049e-017  1.463816e-002
    endloop
  endfacet
  facet normal -8.944272e-001  4.472136e-001  0.000000e+000
    outer loop
      vertex  9.621711e-003 -1.562500e-002  4.810855e-002
      vertex  1.743421e-002  1.431082e-017  3.724166e-002
      vertex  9.621711e-003 -1.562500e-002  2.245066e-002
    endloop
  endfacet
  facet normal -8.944272e-001  4.472136e-001  0.000000e+000
    outer loop
      vertex  9.621711e-003 -1.562500e-002  2.245066e-002
      vertex  1.743421e-002  1.431082e-017  3.724166e-002
      vertex  1.743421e-002  1.305608e-017  1.463816e-002
    endloop
  endfacet
  facet normal  5.752298e-001  4.397207e-001 -6.897509e-001
    outer loop
      vertex  2.403657e-002  1.076414e-017 -3.325211e-002
      vertex  3.445186e-002 -1.562500e-002 -3.452714e-002
      vertex  2.711445e-002 -1.562500e-002 -4.064630e-002
    endloop
  endfacet
  facet normal  7.089351e-001  4.499592e-001 -5.430909e-001
    outer loop
      vertex  4.046752e-002 -1.562500e-002 -2.710463e-002
      vertex  2.978329e-002  1.136881e-017 -2.810596e-002
      vertex  3.447448e-002  1.196916e-017 -2.198221e-002
    endloop
  endfacet
  facet normal  6.973960e-001  4.406512e-001 -5.652127e-001
    outer loop
      vertex  4.046752e-002 -1.562500e-002 -2.710463e-002
      vertex  3.445186e-002 -1.562500e-002 -3.452714e-002
      vertex  2.978329e-002  1.136881e-017 -2.810596e-002
    endloop
  endfacet
  facet normal  5.953711e-001  4.511148e-001 -6.648524e-001
    outer loop
      vertex  2.978329e-002  1.136881e-017 -2.810596e-002
      vertex  3.445186e-002 -1.562500e-002 -3.452714e-002
      vertex  2.403657e-002  1.076414e-017 -3.325211e-002
    endloop
  endfacet
  facet normal  7.980332e-001  4.486641e-001 -4.022980e-001
    outer loop
      vertex  4.493434e-002 -1.562500e-002 -1.865897e-002
      vertex  3.447448e-002  1.196916e-017 -2.198221e-002
      vertex  3.794698e-002  1.254431e-017 -1.509386e-002
    endloop
  endfacet
  facet normal  7.930743e-001  4.416968e-001 -4.194484e-001
    outer loop
      vertex  4.493434e-002 -1.562500e-002 -1.865897e-002
      vertex  4.046752e-002 -1.562500e-002 -2.710463e-002
      vertex  3.447448e-002  1.196916e-017 -2.198221e-002
    endloop
  endfacet
  facet normal  8.595474e-001  4.472290e-001 -2.473142e-001
    outer loop
      vertex  4.768371e-002 -1.562500e-002 -9.508958e-003
      vertex  3.794698e-002  1.254431e-017 -1.509386e-002
      vertex  4.008000e-002  1.307424e-017 -7.680506e-003
    endloop
  endfacet
  facet normal  8.586667e-001  4.428571e-001 -2.580100e-001
    outer loop
      vertex  4.768371e-002 -1.562500e-002 -9.508958e-003
      vertex  4.493434e-002 -1.562500e-002 -1.865897e-002
      vertex  3.794698e-002  1.254431e-017 -1.509386e-002
    endloop
  endfacet
  facet normal  8.913053e-001  4.456527e-001 -8.347850e-002
    outer loop
      vertex  4.861184e-002 -1.562500e-002 -5.786367e-017
      vertex  4.008000e-002  1.307424e-017 -7.680506e-003
      vertex  4.079934e-002  1.354052e-017  1.160877e-013
    endloop
  endfacet
  facet normal  8.917239e-001  4.441316e-001 -8.703782e-002
    outer loop
      vertex  4.861184e-002 -1.562500e-002 -5.786367e-017
      vertex  4.768371e-002 -1.562500e-002 -9.508958e-003
      vertex  4.008000e-002  1.307424e-017 -7.680506e-003
    endloop
  endfacet
  facet normal  8.917239e-001  4.441316e-001  8.703782e-002
    outer loop
      vertex  4.008000e-002  1.392694e-017  7.680506e-003
      vertex  4.768371e-002 -1.562500e-002  9.508958e-003
      vertex  4.861184e-002 -1.562500e-002 -5.786367e-017
    endloop
  endfacet
  facet normal  8.913053e-001  4.456527e-001  8.347850e-002
    outer loop
      vertex  4.008000e-002  1.392694e-017  7.680506e-003
      vertex  4.861184e-002 -1.562500e-002 -5.786367e-017
      vertex  4.079934e-002  1.354052e-017  1.160877e-013
    endloop
  endfacet
  facet normal  8.586667e-001  4.428571e-001  2.580100e-001
    outer loop
      vertex  3.794698e-002  1.422006e-017  1.509386e-002
      vertex  4.493434e-002 -1.562500e-002  1.865897e-002
      vertex  4.768371e-002 -1.562500e-002  9.508958e-003
    endloop
  endfacet
  facet normal  8.595474e-001  4.472290e-001  2.473142e-001
    outer loop
      vertex  3.794698e-002  1.422006e-017  1.509386e-002
      vertex  4.768371e-002 -1.562500e-002  9.508958e-003
      vertex  4.008000e-002  1.392694e-017  7.680506e-003
    endloop
  endfacet
  facet normal  7.930743e-001  4.416968e-001  4.194484e-001
    outer loop
      vertex  3.447448e-002  1.440968e-017  2.198221e-002
      vertex  4.046752e-002 -1.562500e-002  2.710463e-002
      vertex  4.493434e-002 -1.562500e-002  1.865897e-002
    endloop
  endfacet
  facet normal  7.980332e-001  4.486641e-001  4.022980e-001
    outer loop
      vertex  3.447448e-002  1.440968e-017  2.198221e-002
      vertex  4.493434e-002 -1.562500e-002  1.865897e-002
      vertex  3.794698e-002  1.422006e-017  1.509386e-002
    endloop
  endfacet
  facet normal  6.973960e-001  4.406512e-001  5.652127e-001
    outer loop
      vertex  2.978329e-002  1.448920e-017  2.810596e-002
      vertex  3.445186e-002 -1.562500e-002  3.452714e-002
      vertex  4.046752e-002 -1.562500e-002  2.710463e-002
    endloop
  endfacet
  facet normal  7.089351e-001  4.499592e-001  5.430909e-001
    outer loop
      vertex  2.978329e-002  1.448920e-017  2.810596e-002
      vertex  4.046752e-002 -1.562500e-002  2.710463e-002
      vertex  3.447448e-002  1.440968e-017  2.198221e-002
    endloop
  endfacet
  facet normal  5.752298e-001  4.397207e-001  6.897509e-001
    outer loop
      vertex  2.711445e-002 -1.562500e-002  4.064630e-002
      vertex  3.445186e-002 -1.562500e-002  3.452714e-002
      vertex  2.403657e-002  1.445586e-017  3.325211e-002
    endloop
  endfacet
  facet normal  5.953711e-001  4.511148e-001  6.648524e-001
    outer loop
      vertex  2.403657e-002  1.445586e-017  3.325211e-002
      vertex  3.445186e-002 -1.562500e-002  3.452714e-002
      vertex  2.978329e-002  1.448920e-017  2.810596e-002
    endloop
  endfacet
  facet normal  2.680097e-001  4.561648e-001  8.485780e-001
    outer loop
      vertex  1.743421e-002  1.431082e-017  3.724166e-002
      vertex  9.621711e-003 -1.562500e-002  4.810855e-002
      vertex  1.873226e-002 -1.562500e-002  4.523113e-002
    endloop
  endfacet
  facet normal  4.311866e-001  4.389064e-001  7.883142e-001
    outer loop
      vertex  1.743421e-002  1.431082e-017  3.724166e-002
      vertex  1.873226e-002 -1.562500e-002  4.523113e-002
      vertex  2.711445e-002 -1.562500e-002  4.064630e-002
    endloop
  endfacet
  facet normal  4.612951e-001  4.521316e-001  7.634028e-001
    outer loop
      vertex  1.743421e-002  1.431082e-017  3.724166e-002
      vertex  2.711445e-002 -1.562500e-002  4.064630e-002
      vertex  2.403657e-002  1.445586e-017  3.325211e-002
    endloop
  endfacet
  facet normal  4.612951e-001  4.521316e-001 -7.634028e-001
    outer loop
      vertex  1.743421e-002  1.017617e-017 -3.724166e-002
      vertex  2.403657e-002  1.076414e-017 -3.325211e-002
      vertex  2.711445e-002 -1.562500e-002 -4.064630e-002
    endloop
  endfacet
  facet normal  4.311866e-001  4.389064e-001 -7.883142e-001
    outer loop
      vertex  1.743421e-002  1.017617e-017 -3.724166e-002
      vertex  2.711445e-002 -1.562500e-002 -4.064630e-002
      vertex  1.873226e-002 -1.562500e-002 -4.523113e-002
    endloop
  endfacet
  facet normal  2.680097e-001  4.561648e-001 -8.485780e-001
    outer loop
      vertex  1.743421e-002  1.017617e-017 -3.724166e-002
      vertex  1.873226e-002 -1.562500e-002 -4.523113e-002
      vertex  9.621711e-003 -1.562500e-002 -4.810855e-002
    endloop
  endfacet
  facet normal -8.944272e-001  4.472136e-001  0.000000e+000
    outer loop
      vertex  9.621711e-003 -1.562500e-002 -2.245066e-002
      vertex  1.743421e-002  1.143091e-017 -1.463816e-002
      vertex  9.621711e-003 -1.562500e-002 -4.810855e-002
    endloop
  endfacet
  facet normal -8.944272e-001  4.472136e-001  0.000000e+000
    outer loop
      vertex  9.621711e-003 -1.562500e-002 -4.810855e-002
      vertex  1.743421e-002  1.143091e-017 -1.463816e-002
      vertex  1.743421e-002  1.017617e-017 -3.724166e-002
    endloop
  endfacet
  facet normal  0.000000e+000  4.472136e-001 -8.944272e-001
    outer loop
      vertex -9.621711e-003 -1.562500e-002 -2.245066e-002
      vertex -1.743421e-002  9.495329e-018 -1.463816e-002
      vertex  9.621711e-003 -1.562500e-002 -2.245066e-002
    endloop
  endfacet
  facet normal  0.000000e+000  4.472136e-001 -8.944272e-001
    outer loop
      vertex  9.621711e-003 -1.562500e-002 -2.245066e-002
      vertex -1.743421e-002  9.495329e-018 -1.463816e-002
      vertex  1.743421e-002  1.143091e-017 -1.463816e-002
    endloop
  endfacet
  facet normal  8.944272e-001  4.472136e-001  0.000000e+000
    outer loop
      vertex -9.621711e-003 -1.562500e-002 -4.810855e-002
      vertex -1.743421e-002  8.240582e-018 -3.724166e-002
      vertex -9.621711e-003 -1.562500e-002 -2.245066e-002
    endloop
  endfacet
  facet normal  8.944272e-001  4.472136e-001  0.000000e+000
    outer loop
      vertex -9.621711e-003 -1.562500e-002 -2.245066e-002
      vertex -1.743421e-002  8.240582e-018 -3.724166e-002
      vertex -1.743421e-002  9.495329e-018 -1.463816e-002
    endloop
  endfacet
  facet normal -5.752298e-001  4.397207e-001  6.897509e-001
    outer loop
      vertex -2.403657e-002  1.178727e-017  3.325211e-002
      vertex -3.445186e-002 -1.562500e-002  3.452714e-002
      vertex -2.711445e-002 -1.562500e-002  4.064630e-002
    endloop
  endfacet
  facet normal -7.089351e-001  4.499592e-001  5.430909e-001
    outer loop
      vertex -4.046752e-002 -1.562500e-002  2.710463e-002
      vertex -2.978329e-002  1.118259e-017  2.810596e-002
      vertex -3.447448e-002  1.058224e-017  2.198221e-002
    endloop
  endfacet
  facet normal -6.973960e-001  4.406512e-001  5.652127e-001
    outer loop
      vertex -4.046752e-002 -1.562500e-002  2.710463e-002
      vertex -3.445186e-002 -1.562500e-002  3.452714e-002
      vertex -2.978329e-002  1.118259e-017  2.810596e-002
    endloop
  endfacet
  facet normal -5.953711e-001  4.511148e-001  6.648524e-001
    outer loop
      vertex -2.978329e-002  1.118259e-017  2.810596e-002
      vertex -3.445186e-002 -1.562500e-002  3.452714e-002
      vertex -2.403657e-002  1.178727e-017  3.325211e-002
    endloop
  endfacet
  facet normal -7.980332e-001  4.486641e-001  4.022980e-001
    outer loop
      vertex -4.493434e-002 -1.562500e-002  1.865897e-002
      vertex -3.447448e-002  1.058224e-017  2.198221e-002
      vertex -3.794698e-002  1.000710e-017  1.509386e-002
    endloop
  endfacet
  facet normal -7.930743e-001  4.416968e-001  4.194484e-001
    outer loop
      vertex -4.493434e-002 -1.562500e-002  1.865897e-002
      vertex -4.046752e-002 -1.562500e-002  2.710463e-002
      vertex -3.447448e-002  1.058224e-017  2.198221e-002
    endloop
  endfacet
  facet normal -8.595474e-001  4.472290e-001  2.473142e-001
    outer loop
      vertex -4.768371e-002 -1.562500e-002  9.508958e-003
      vertex -3.794698e-002  1.000710e-017  1.509386e-002
      vertex -4.008000e-002  9.477170e-018  7.680506e-003
    endloop
  endfacet
  facet normal -8.586667e-001  4.428571e-001  2.580100e-001
    outer loop
      vertex -4.768371e-002 -1.562500e-002  9.508958e-003
      vertex -4.493434e-002 -1.562500e-002  1.865897e-002
      vertex -3.794698e-002  1.000710e-017  1.509386e-002
    endloop
  endfacet
  facet normal -8.913053e-001  4.456527e-001  8.347850e-002
    outer loop
      vertex -4.861184e-002 -1.562500e-002  3.173842e-017
      vertex -4.008000e-002  9.477170e-018  7.680506e-003
      vertex -4.079934e-002  9.010884e-018 -1.160877e-013
    endloop
  endfacet
  facet normal -8.917239e-001  4.441316e-001  8.703782e-002
    outer loop
      vertex -4.861184e-002 -1.562500e-002  3.173842e-017
      vertex -4.768371e-002 -1.562500e-002  9.508958e-003
      vertex -4.008000e-002  9.477170e-018  7.680506e-003
    endloop
  endfacet
  facet normal -8.917239e-001  4.441316e-001 -8.703782e-002
    outer loop
      vertex -4.008000e-002  8.624462e-018 -7.680506e-003
      vertex -4.768371e-002 -1.562500e-002 -9.508958e-003
      vertex -4.861184e-002 -1.562500e-002  3.173842e-017
    endloop
  endfacet
  facet normal -8.913053e-001  4.456527e-001 -8.347850e-002
    outer loop
      vertex -4.008000e-002  8.624462e-018 -7.680506e-003
      vertex -4.861184e-002 -1.562500e-002  3.173842e-017
      vertex -4.079934e-002  9.010884e-018 -1.160877e-013
    endloop
  endfacet
  facet normal -8.586667e-001  4.428571e-001 -2.580100e-001
    outer loop
      vertex -3.794698e-002  8.331344e-018 -1.509386e-002
      vertex -4.493434e-002 -1.562500e-002 -1.865897e-002
      vertex -4.768371e-002 -1.562500e-002 -9.508958e-003
    endloop
  endfacet
  facet normal -8.595474e-001  4.472290e-001 -2.473142e-001
    outer loop
      vertex -3.794698e-002  8.331344e-018 -1.509386e-002
      vertex -4.768371e-002 -1.562500e-002 -9.508958e-003
      vertex -4.008000e-002  8.624462e-018 -7.680506e-003
    endloop
  endfacet
  facet normal -7.930743e-001  4.416968e-001 -4.194484e-001
    outer loop
      vertex -3.447448e-002  8.141726e-018 -2.198221e-002
      vertex -4.046752e-002 -1.562500e-002 -2.710463e-002
      vertex -4.493434e-002 -1.562500e-002 -1.865897e-002
    endloop
  endfacet
  facet normal -7.980332e-001  4.486641e-001 -4.022980e-001
    outer loop
      vertex -3.447448e-002  8.141726e-018 -2.198221e-002
      vertex -4.493434e-002 -1.562500e-002 -1.865897e-002
      vertex -3.794698e-002  8.331344e-018 -1.509386e-002
    endloop
  endfacet
  facet normal -6.973960e-001  4.406512e-001 -5.652127e-001
    outer loop
      vertex -2.978329e-002  8.062204e-018 -2.810596e-002
      vertex -3.445186e-002 -1.562500e-002 -3.452714e-002
      vertex -4.046752e-002 -1.562500e-002 -2.710463e-002
    endloop
  endfacet
  facet normal -7.089351e-001  4.499592e-001 -5.430909e-001
    outer loop
      vertex -2.978329e-002  8.062204e-018 -2.810596e-002
      vertex -4.046752e-002 -1.562500e-002 -2.710463e-002
      vertex -3.447448e-002  8.141726e-018 -2.198221e-002
    endloop
  endfacet
  facet normal -5.752298e-001  4.397207e-001 -6.897509e-001
    outer loop
      vertex -2.711445e-002 -1.562500e-002 -4.064630e-002
      vertex -3.445186e-002 -1.562500e-002 -3.452714e-002
      vertex -2.403657e-002  8.095542e-018 -3.325211e-002
    endloop
  endfacet
  facet normal -5.953711e-001  4.511148e-001 -6.648524e-001
    outer loop
      vertex -2.403657e-002  8.095542e-018 -3.325211e-002
      vertex -3.445186e-002 -1.562500e-002 -3.452714e-002
      vertex -2.978329e-002  8.062204e-018 -2.810596e-002
    endloop
  endfacet
  facet normal -2.680097e-001  4.561648e-001 -8.485780e-001
    outer loop
      vertex -1.743421e-002  8.240582e-018 -3.724166e-002
      vertex -9.621711e-003 -1.562500e-002 -4.810855e-002
      vertex -1.873226e-002 -1.562500e-002 -4.523113e-002
    endloop
  endfacet
  facet normal -4.311866e-001  4.389064e-001 -7.883142e-001
    outer loop
      vertex -1.743421e-002  8.240582e-018 -3.724166e-002
      vertex -1.873226e-002 -1.562500e-002 -4.523113e-002
      vertex -2.711445e-002 -1.562500e-002 -4.064630e-002
    endloop
  endfacet
  facet normal -4.612951e-001  4.521316e-001 -7.634028e-001
    outer loop
      vertex -1.743421e-002  8.240582e-018 -3.724166e-002
      vertex -2.711445e-002 -1.562500e-002 -4.064630e-002
      vertex -2.403657e-002  8.095542e-018 -3.325211e-002
    endloop
  endfacet
  facet normal -4.612951e-001  4.521316e-001  7.634028e-001
    outer loop
      vertex -1.743421e-002  1.237524e-017  3.724166e-002
      vertex -2.403657e-002  1.178727e-017  3.325211e-002
      vertex -2.711445e-002 -1.562500e-002  4.064630e-002
    endloop
  endfacet
  facet normal -4.311866e-001  4.389064e-001  7.883142e-001
    outer loop
      vertex -1.743421e-002  1.237524e-017  3.724166e-002
      vertex -2.711445e-002 -1.562500e-002  4.064630e-002
      vertex -1.873226e-002 -1.562500e-002  4.523113e-002
    endloop
  endfacet
  facet normal -2.680097e-001  4.561648e-001  8.485780e-001
    outer loop
      vertex -1.743421e-002  1.237524e-017  3.724166e-002
      vertex -1.873226e-002 -1.562500e-002  4.523113e-002
      vertex -9.621711e-003 -1.562500e-002  4.810855e-002
    endloop
  endfacet
  facet normal  0.000000e+000 -9.999999e-001  -0.000000e+000
    outer loop
      vertex  4.493434e-002 -7.500000e-001  1.865897e-002
      vertex -4.493434e-002 -7.500000e-001  1.865897e-002
      vertex -4.768371e-002 -7.500000e-001  9.508958e-003
    endloop
  endfacet
  facet normal  0.000000e+000 -1.000000e+000  -0.000000e+000
    outer loop
      vertex -9.621711e-003 -7.500000e-001  2.245066e-002
      vertex -9.621711e-003 -7.500000e-001  4.810855e-002
      vertex -1.873226e-002 -7.500000e-001  4.523113e-002
    endloop
  endfacet
  facet normal  0.000000e+000 -9.999999e-001  -0.000000e+000
    outer loop
      vertex -9.621711e-003 -7.500000e-001  2.245066e-002
      vertex -1.873226e-002 -7.500000e-001  4.523113e-002
      vertex -2.711445e-002 -7.500000e-001  4.064630e-002
    endloop
  endfacet
  facet normal  0.000000e+000 -1.000000e+000  -0.000000e+000
    outer loop
      vertex -9.621711e-003 -7.500000e-001  2.245066e-002
      vertex -2.711445e-002 -7.500000e-001  4.064630e-002
      vertex -3.445186e-002 -7.500000e-001  3.452714e-002
    endloop
  endfacet
  facet normal  0.000000e+000 -1.000000e+000  -0.000000e+000
    outer loop
      vertex -9.621711e-003 -7.500000e-001  2.245066e-002
      vertex -3.445186e-002 -7.500000e-001  3.452714e-002
      vertex -4.046752e-002 -7.500000e-001  2.710463e-002
    endloop
  endfacet
  facet normal  0.000000e+000 -1.000000e+000  -0.000000e+000
    outer loop
      vertex -9.621711e-003 -7.500000e-001  2.245066e-002
      vertex -4.046752e-002 -7.500000e-001  2.710463e-002
      vertex -4.493434e-002 -7.500000e-001  1.865897e-002
    endloop
  endfacet
  facet normal  0.000000e+000 -1.000000e+000  0.000000e+000
    outer loop
      vertex -9.621711e-003 -7.500000e-001  2.245066e-002
      vertex -4.493434e-002 -7.500000e-001  1.865897e-002
      vertex  4.493434e-002 -7.500000e-001  1.865897e-002
    endloop
  endfacet
  facet normal  0.000000e+000 -9.999999e-001  0.000000e+000
    outer loop
      vertex  9.621711e-003 -7.500000e-001  2.245066e-002
      vertex -9.621711e-003 -7.500000e-001  2.245066e-002
      vertex  4.493434e-002 -7.500000e-001  1.865897e-002
    endloop
  endfacet
  facet normal  0.000000e+000 -1.000000e+000  0.000000e+000
    outer loop
      vertex  9.621711e-003 -7.500000e-001  2.245066e-002
      vertex  4.493434e-002 -7.500000e-001  1.865897e-002
      vertex  4.046752e-002 -7.500000e-001  2.710463e-002
    endloop
  endfacet
  facet normal  -0.000000e+000 -1.000000e+000  0.000000e+000
    outer loop
      vertex  9.621711e-003 -7.500000e-001  2.245066e-002
      vertex  4.046752e-002 -7.500000e-001  2.710463e-002
      vertex  3.445186e-002 -7.500000e-001  3.452714e-002
    endloop
  endfacet
  facet normal  -0.000000e+000 -1.000000e+000  0.000000e+000
    outer loop
      vertex  9.621711e-003 -7.500000e-001  2.245066e-002
      vertex  3.445186e-002 -7.500000e-001  3.452714e-002
      vertex  2.711445e-002 -7.500000e-001  4.064630e-002
    endloop
  endfacet
  facet normal  -0.000000e+000 -9.999999e-001  0.000000e+000
    outer loop
      vertex  9.621711e-003 -7.500000e-001  2.245066e-002
      vertex  2.711445e-002 -7.500000e-001  4.064630e-002
      vertex  1.873226e-002 -7.500000e-001  4.523113e-002
    endloop
  endfacet
  facet normal  -0.000000e+000 -1.000000e+000  0.000000e+000
    outer loop
      vertex  9.621711e-003 -7.500000e-001  2.245066e-002
      vertex  1.873226e-002 -7.500000e-001  4.523113e-002
      vertex  9.621711e-003 -7.500000e-001  4.810855e-002
    endloop
  endfacet
  facet normal  0.000000e+000 -1.000000e+000  0.000000e+000
    outer loop
      vertex -9.621711e-003 -7.500000e-001 -2.245066e-002
      vertex -4.046752e-002 -7.500000e-001 -2.710463e-002
      vertex -3.445186e-002 -7.500000e-001 -3.452714e-002
    endloop
  endfacet
  facet normal  0.000000e+000 -1.000000e+000  0.000000e+000
    outer loop
      vertex -9.621711e-003 -7.500000e-001 -2.245066e-002
      vertex -3.445186e-002 -7.500000e-001 -3.452714e-002
      vertex -2.711445e-002 -7.500000e-001 -4.064630e-002
    endloop
  endfacet
  facet normal  0.000000e+000 -9.999999e-001  0.000000e+000
    outer loop
      vertex -9.621711e-003 -7.500000e-001 -2.245066e-002
      vertex -2.711445e-002 -7.500000e-001 -4.064630e-002
      vertex -1.873226e-002 -7.500000e-001 -4.523113e-002
    endloop
  endfacet
  facet normal  0.000000e+000 -1.000000e+000  0.000000e+000
    outer loop
      vertex -9.621711e-003 -7.500000e-001 -2.245066e-002
      vertex -1.873226e-002 -7.500000e-001 -4.523113e-002
      vertex -9.621711e-003 -7.500000e-001 -4.810855e-002
    endloop
  endfacet
  facet normal  0.000000e+000 -1.000000e+000  0.000000e+000
    outer loop
      vertex -4.493434e-002 -7.500000e-001 -1.865897e-002
      vertex -4.046752e-002 -7.500000e-001 -2.710463e-002
      vertex -9.621711e-003 -7.500000e-001 -2.245066e-002
    endloop
  endfacet
  facet normal  0.000000e+000 -9.999999e-001  0.000000e+000
    outer loop
      vertex -4.493434e-002 -7.500000e-001 -1.865897e-002
      vertex -9.621711e-003 -7.500000e-001 -2.245066e-002
      vertex  9.621711e-003 -7.500000e-001 -2.245066e-002
    endloop
  endfacet
  facet normal  0.000000e+000 -1.000000e+000  0.000000e+000
    outer loop
      vertex -4.493434e-002 -7.500000e-001 -1.865897e-002
      vertex  9.621711e-003 -7.500000e-001 -2.245066e-002
      vertex  4.493434e-002 -7.500000e-001 -1.865897e-002
    endloop
  endfacet
  facet normal  0.000000e+000 -9.999999e-001  0.000000e+000
    outer loop
      vertex -4.493434e-002 -7.500000e-001 -1.865897e-002
      vertex  4.493434e-002 -7.500000e-001 -1.865897e-002
      vertex  4.768371e-002 -7.500000e-001 -9.508958e-003
    endloop
  endfacet
  facet normal  -0.000000e+000 -1.000000e+000  0.000000e+000
    outer loop
      vertex -4.493434e-002 -7.500000e-001 -1.865897e-002
      vertex  4.768371e-002 -7.500000e-001 -9.508958e-003
      vertex -4.768371e-002 -7.500000e-001 -9.508958e-003
    endloop
  endfacet
  facet normal  0.000000e+000 -1.000000e+000  0.000000e+000
    outer loop
      vertex  9.621711e-003 -7.500000e-001 -2.245066e-002
      vertex  9.621711e-003 -7.500000e-001 -4.810855e-002
      vertex  1.873226e-002 -7.500000e-001 -4.523113e-002
    endloop
  endfacet
  facet normal  0.000000e+000 -9.999999e-001  0.000000e+000
    outer loop
      vertex  9.621711e-003 -7.500000e-001 -2.245066e-002
      vertex  1.873226e-002 -7.500000e-001 -4.523113e-002
      vertex  2.711445e-002 -7.500000e-001 -4.064630e-002
    endloop
  endfacet
  facet normal  0.000000e+000 -1.000000e+000  0.000000e+000
    outer loop
      vertex  9.621711e-003 -7.500000e-001 -2.245066e-002
      vertex  2.711445e-002 -7.500000e-001 -4.064630e-002
      vertex  3.445186e-002 -7.500000e-001 -3.452714e-002
    endloop
  endfacet
  facet normal  0.000000e+000 -1.000000e+000  0.000000e+000
    outer loop
      vertex  9.621711e-003 -7.500000e-001 -2.245066e-002
      vertex  3.445186e-002 -7.500000e-001 -3.452714e-002
      vertex  4.046752e-002 -7.500000e-001 -2.710463e-002
    endloop
  endfacet
  facet normal  0.000000e+000 -1.000000e+000  0.000000e+000
    outer loop
      vertex  9.621711e-003 -7.500000e-001 -2.245066e-002
      vertex  4.046752e-002 -7.500000e-001 -2.710463e-002
      vertex  4.493434e-002 -7.500000e-001 -1.865897e-002
    endloop
  endfacet
  facet normal  0.000000e+000 -1.000000e+000  0.000000e+000
    outer loop
      vertex -4.768371e-002 -7.500000e-001 -9.508958e-003
      vertex  4.768371e-002 -7.500000e-001 -9.508958e-003
      vertex -4.861184e-002 -7.500000e-001  2.882843e-017
    endloop
  endfacet
  facet normal  0.000000e+000 -1.000000e+000  0.000000e+000
    outer loop
      vertex -4.861184e-002 -7.500000e-001  2.882843e-017
      vertex  4.768371e-002 -7.500000e-001 -9.508958e-003
      vertex  4.861184e-002 -7.500000e-001  2.657832e-017
    endloop
  endfacet
  facet normal  0.000000e+000 -1.000000e+000  0.000000e+000
    outer loop
      vertex -4.861184e-002 -7.500000e-001  2.882843e-017
      vertex  4.861184e-002 -7.500000e-001  2.657832e-017
      vertex -4.768371e-002 -7.500000e-001  9.508958e-003
    endloop
  endfacet
  facet normal  0.000000e+000 -1.000000e+000  0.000000e+000
    outer loop
      vertex -4.768371e-002 -7.500000e-001  9.508958e-003
      vertex  4.861184e-002 -7.500000e-001  2.657832e-017
      vertex  4.768371e-002 -7.500000e-001  9.508958e-003
    endloop
  endfacet
  facet normal  0.000000e+000 -1.000000e+000  0.000000e+000
    outer loop
      vertex -4.768371e-002 -7.500000e-001  9.508958e-003
      vertex  4.768371e-002 -7.500000e-001  9.508958e-003
      vertex  4.493434e-002 -7.500000e-001  1.865897e-002
    endloop
  endfacet
endsolid CATIA STL
